<?xml version="1.0" encoding="iso-8859-1"?>
<!-- Generator: Adobe Illustrator 19.0.0, SVG Export Plug-In . SVG Version: 6.00 Build 0)  -->
<svg version="1.1" id="Capa_1" xmlns="http://www.w3.org/2000/svg" xmlns:xlink="http://www.w3.org/1999/xlink" x="0px" y="0px"
	 viewBox="0 0 512 512" style="enable-background:new 0 0 512 512;" xml:space="preserve">
<g>
	<g>
		<g>
			<polygon points="336,128 384,128 384,384 336,384 336,416 416,416 416,96 336,96 			"/>
			<rect x="272" y="96" width="32" height="32"/>
			<rect x="208" y="96" width="32" height="32"/>
			<polygon points="96,416 176,416 176,384 128,384 128,128 176,128 176,96 96,96 			"/>
			<rect x="208" y="384" width="32" height="32"/>
			<rect x="272" y="384" width="32" height="32"/>
			<rect y="96" width="64" height="32"/>
			<rect y="384" width="64" height="32"/>
			<rect x="448" y="96" width="64" height="32"/>
			<rect x="448" y="384" width="64" height="32"/>
			<rect x="96" y="448" width="32" height="64"/>
			<rect x="384" y="448" width="32" height="64"/>
			<rect x="96" width="32" height="64"/>
			<rect x="384" width="32" height="64"/>
		</g>
	</g>
</g>
<g>
</g>
<g>
</g>
<g>
</g>
<g>
</g>
<g>
</g>
<g>
</g>
<g>
</g>
<g>
</g>
<g>
</g>
<g>
</g>
<g>
</g>
<g>
</g>
<g>
</g>
<g>
</g>
<g>
</g>
</svg>
