<svg xmlns="http://www.w3.org/2000/svg" xmlns:xlink="http://www.w3.org/1999/xlink" data-custom-element="Page_cmp" class="page showed" x="0px" y="0px" width="100%" height="100%" data-width="793.7107869076" data-height="793.71">
        
        
        
        <g class="content" transform="matrix(0.54917 0 0 0.54917 -62.0222 60.9227)">
            
            <g transform="matrix(1,0,0,1,0,0)" data-name="G" data-color="#fb0094" class="layer isolate-layer g" data-custom-element="GroupEditing_layer" active=""><g transform="matrix(1 0 0 1 -41.5861 261.282)" class=""><path d="M 983.597900390625 154.4254913330078 C 936.794189453125 107.6244888305664 858.3584594726562 29.188692092895508 700.3189697265625 29.188692092895508 C 542.3970336914062 29.188692092895508 469.9714660644531 101.6142807006836 417.0399475097656 154.4281768798828 C 408.6936340332031 162.7745361328125 406.18505859375 175.32015991210938 410.7370910644531 186.23526000976562 C 415.23175048828125 197.14744567871094 425.9115905761719 204.26841735839844 437.6993713378906 204.26841735839844 C 673.06396484375 204.26841735839844 700.3189697265625 304.1815185546875 700.3189697265625 379.34814453125 " stroke="none" stroke-width="2.7356206938308363" stroke-linecap="butt" stroke-linejoin="miter" fill="#000000" transform="matrix(1 0 0 1 -257.604 -86.0169)" class=""></path></g></g>
            
        </g>
    </svg>