<svg version="1.2" xmlns="http://www.w3.org/2000/svg" viewBox="0 0 1062 703" width="1062" height="703"><style>.s0{fill:none;stroke:#000000;stroke-width:25}.s1{fill:#03a9f4}.s2{fill:#ededed}.s3{fill:none;stroke:#000000;stroke-width:15}.s4{fill:#611aa8}.s5{fill:#e6256b}.s6{fill:#ffffff}.s7{fill:#000000;stroke:#ffffff;stroke-width:15}.s8{fill:#c02b1f}.s9{fill:#000000;stroke:#000000;stroke-width:15}</style><path class="s0" d="m534.8 88.2c-98.9 0-160.7 0-185.4 0c-35.4 0-64.1 28.7-64.1 64c0 39.2 0 94.3 0 133.9c0 34.1-27.6 61.7-61.7 61.7q-42.3 0-211.4 0" /><path class="s0" d="m12.2 351.4q169.1 0 211.4 0c34.1 0 61.7 27.6 61.7 61.7c0 39.6 0 94.7 0 133.9c0 35.3 28.7 64 64.1 64c24.7 0 86.5 0 185.4 0" /><path class="s1" d="m145 347.8c0 40-32.5 72.5-72.5 72.5c-40 0-72.5-32.5-72.5-72.5c0-40 32.5-72.5 72.5-72.5c40 0 72.5 32.5 72.5 72.5z" /><path class="s0" d="m1057.4 347.8q-169.1 0-211.4 0c-34.1 0-61.7-27.6-61.7-61.7c0-39.6 0-94.7 0-133.9c0-35.3-28.7-64-64.1-64q-37 0-185.4 0" /><path class="s0" d="m534.8 611.4q148.4 0 185.4 0c35.4 0 64.1-28.7 64.1-64.1c0-39.1 0-94.2 0-133.8c0-34.1 27.6-61.7 61.7-61.7q42.3 0 211.4 0" /><path class="s2" d="m674.7 519.2c11.2 0 20.3 9.2 20.3 20.4c0 31.2 0 107.6 0 139.6c0 9.1-7.3 16.4-16.4 16.4c-17.8 0-62.4 0-133.6 0q-123.2 0-154 0c-9.1 0-16.4-7.3-16.4-16.4c0-32 0-108.4 0-139.6c0-11.2 9.1-20.4 20.4-20.4c60 0 219.6 0 279.7 0z" /><path class="s3" d="m674.7 519.2c11.2 0 20.3 9.2 20.3 20.4c0 31.2 0 107.6 0 139.6c0 9.1-7.3 16.4-16.4 16.4c-17.8 0-62.4 0-133.6 0q-123.2 0-154 0c-9.1 0-16.4-7.3-16.4-16.4c0-32 0-108.4 0-139.6c0-11.2 9.1-20.4 20.4-20.4c60 0 219.6 0 279.7 0z" /><path class="s4" d="m674.7 0c11.2 0 20.3 9.1 20.3 20.4c0 31.2 0 104.4 0 135.6c0 11.2-9.1 20.3-20.3 20.3c-60.1 0-219.7 0-279.7 0c-11.3 0-20.4-9.1-20.4-20.3c0-31.2 0-104.4 0-135.6c0-11.3 9.1-20.4 20.4-20.4c60 0 219.6 0 279.7 0z" /><path class="s5" d="m1062 347.8c0 40-32.5 72.5-72.5 72.5c-40 0-72.5-32.5-72.5-72.5c0-40 32.5-72.5 72.5-72.5c40 0 72.5 32.5 72.5 72.5z" /><path class="s6" d="m638.3 88.2h-212.5" /><path class="s7" d="m638.3 88.2h-212.5" /><path class="s8" d="m641 607.4h-212.4" /><path class="s9" d="m641 607.4h-212.4" /></svg>