<?xml version="1.0" encoding="iso-8859-1"?>
<!-- Generator: Adobe Illustrator 18.1.1, SVG Export Plug-In . SVG Version: 6.00 Build 0)  -->
<svg version="1.1" id="Capa_1" xmlns="http://www.w3.org/2000/svg" xmlns:xlink="http://www.w3.org/1999/xlink" x="0px" y="0px"
	 viewBox="0 0 412.338 412.338" style="enable-background:new 0 0 412.338 412.338;" xml:space="preserve">
<g>
	<path style="fill:#010002;" d="M404.275,362.88L299.188,257.794c-3.585-3.601-8.12-5.869-12.924-6.974
		c18.176-25.67,28.962-56.924,28.962-90.715c0-86.911-70.694-157.613-157.613-157.613C70.702,2.491,0,73.186,0,160.104
		c0,86.903,70.702,157.605,157.613,157.605c36.075,0,69.239-12.355,95.82-32.848c1.236,4.324,3.438,8.429,6.836,11.835
		l105.102,105.094c5.202,5.202,12.103,8.055,19.46,8.055s14.258-2.861,19.452-8.055c5.202-5.202,8.064-12.112,8.055-19.476
		C412.33,374.967,409.469,368.066,404.275,362.88z M16.249,160.096c0-77.945,63.411-141.356,141.356-141.356
		c77.937,0,141.348,63.411,141.348,141.356c0,37.383-14.705,71.328-38.481,96.641c-0.114,0.098-0.228,0.138-0.35,0.228
		c-0.163,0.171-0.203,0.39-0.366,0.545c-25.751,26.995-61.98,43.919-102.136,43.919C79.668,301.444,16.249,238.025,16.249,160.096z
		 M392.781,390.289c-4.251,4.259-11.664,4.251-15.916,0L271.763,285.203c-4.381-4.389-4.381-11.534,0-15.924
		c2.13-2.13,4.958-3.3,7.966-3.3s5.828,1.179,7.958,3.3L392.789,374.39c2.122,2.122,3.284,4.934,3.284,7.942
		C396.081,385.331,394.911,388.168,392.781,390.289z"/>
</g>
<g>
</g>
<g>
</g>
<g>
</g>
<g>
</g>
<g>
</g>
<g>
</g>
<g>
</g>
<g>
</g>
<g>
</g>
<g>
</g>
<g>
</g>
<g>
</g>
<g>
</g>
<g>
</g>
<g>
</g>
</svg>
