<?xml version="1.0" encoding="UTF-8" standalone="no"?>
<svg xmlns="http://www.w3.org/2000/svg" xmlns:xlink="http://www.w3.org/1999/xlink" version="1.1" width="736.0000000000001" height="552.0000000000001" viewBox="0 0 640 480" xml:space="preserve">
	<g transform="matrix(1.05 0 0 1.05 319.85 242.23)">
		<g style="">
			<g transform="matrix(1.97 0 0 1.98 -142.29 -73.53)">
				<path style="stroke: rgb(0,0,0); stroke-width: 8; stroke-dasharray: none; stroke-linecap: butt; stroke-dashoffset: 0; stroke-linejoin: miter; stroke-miterlimit: 4; fill: rgb(0,0,0); fill-opacity: 0; fill-rule: nonzero; opacity: 1;" transform=" translate(-155.16, -441.63)" d="M 227.39 405.75 C 200.06 405.75 182.97 405.75 176.14 405.75 C 166.36 405.75 158.43 413.68 158.43 423.46 C 158.43 434.27 158.43 449.52 158.43 460.46 C 158.43 469.88 150.79 477.51 141.37 477.51 C 133.58 477.51 114.1 477.51 82.94 477.51" stroke-linecap="round" />
			</g>
			<g transform="matrix(1.97 0 0 1.98 -142.29 68.56)">
				<path style="stroke: rgb(0,0,0); stroke-width: 8; stroke-dasharray: none; stroke-linecap: butt; stroke-dashoffset: 0; stroke-linejoin: miter; stroke-miterlimit: 4; fill: rgb(0,0,0); fill-opacity: 0; fill-rule: nonzero; opacity: 1;" transform=" translate(-155.16, -513.39)" d="M 227.39 549.27 C 200.06 549.27 182.97 549.27 176.14 549.27 C 166.36 549.27 158.43 541.34 158.43 531.56 C 158.43 520.75 158.43 505.51 158.43 494.57 C 158.43 485.15 150.79 477.51 141.37 477.51 C 133.58 477.51 114.1 477.51 82.94 477.51" stroke-linecap="round" />
			</g>
			<g transform="matrix(1.97 0 0 1.98 -251.75 -2.48)">
				<path style="stroke: none; stroke-width: 1; stroke-dasharray: none; stroke-linecap: butt; stroke-dashoffset: 0; stroke-linejoin: miter; stroke-miterlimit: 4; fill: rgb(74,216,124); fill-rule: nonzero; opacity: 1;" transform=" translate(-99.6, -477.51)" d="M 119.64 477.51 C 119.64 488.57 110.66 497.55 99.61 497.55 C 88.55 497.55 79.57 488.57 79.57 477.51 C 79.57 466.45 88.55 457.48 99.61 457.48 C 110.66 457.48 119.64 466.45 119.64 477.51 Z" stroke-linecap="round" />
			</g>
			<g transform="matrix(1.97 0 0 1.98 142.28 -73.53)">
				<path style="stroke: rgb(0,0,0); stroke-width: 8; stroke-dasharray: none; stroke-linecap: butt; stroke-dashoffset: 0; stroke-linejoin: miter; stroke-miterlimit: 4; fill: rgb(0,0,0); fill-opacity: 0; fill-rule: nonzero; opacity: 1;" transform=" translate(-299.62, -441.63)" d="M 227.39 405.75 C 254.73 405.75 271.81 405.75 278.64 405.75 C 288.43 405.75 296.36 413.68 296.36 423.46 C 296.36 434.27 296.36 449.52 296.36 460.46 C 296.36 469.88 303.99 477.51 313.41 477.51 C 321.2 477.51 340.68 477.51 371.85 477.51" stroke-linecap="round" />
			</g>
			<g transform="matrix(1.97 0 0 1.98 142.28 68.56)">
				<path style="stroke: rgb(0,0,0); stroke-width: 8; stroke-dasharray: none; stroke-linecap: butt; stroke-dashoffset: 0; stroke-linejoin: miter; stroke-miterlimit: 4; fill: rgb(0,0,0); fill-opacity: 0; fill-rule: nonzero; opacity: 1;" transform=" translate(-299.62, -513.39)" d="M 227.39 549.27 C 254.73 549.27 271.81 549.27 278.64 549.27 C 288.43 549.27 296.36 541.34 296.36 531.56 C 296.36 520.75 296.36 505.51 296.36 494.57 C 296.36 485.15 303.99 477.51 313.41 477.51 C 321.2 477.51 340.68 477.51 371.85 477.51" stroke-linecap="round" />
			</g>
			<g transform="matrix(1.97 0 0 1.98 0 139.61)">
				<path style="stroke: none; stroke-width: 1; stroke-dasharray: none; stroke-linecap: butt; stroke-dashoffset: 0; stroke-linejoin: miter; stroke-miterlimit: 4; fill: rgb(237,237,237); fill-rule: nonzero; opacity: 1;" transform=" translate(-227.4, -549.27)" d="M 266.05 524.9 C 269.16 524.9 271.68 527.42 271.68 530.53 C 271.68 539.15 271.68 560.27 271.68 569.12 C 271.68 571.62 269.65 573.65 267.14 573.65 C 262.22 573.65 249.9 573.65 230.2 573.65 C 207.5 573.65 193.31 573.65 187.64 573.65 C 185.14 573.65 183.11 571.62 183.11 569.12 C 183.11 560.27 183.11 539.15 183.11 530.53 C 183.11 527.42 185.63 524.9 188.74 524.9 C 205.32 524.9 249.46 524.9 266.05 524.9 Z" stroke-linecap="round" />
			</g>
			<g transform="matrix(1.97 0 0 1.98 0 139.61)">
				<path style="stroke: rgb(0,0,0); stroke-width: 6; stroke-dasharray: none; stroke-linecap: butt; stroke-dashoffset: 0; stroke-linejoin: miter; stroke-miterlimit: 4; fill: rgb(237,237,237); fill-opacity: 0; fill-rule: nonzero; opacity: 1;" transform=" translate(-227.4, -549.27)" d="M 266.05 524.9 C 269.16 524.9 271.68 527.42 271.68 530.53 C 271.68 539.15 271.68 560.27 271.68 569.12 C 271.68 571.62 269.65 573.65 267.14 573.65 C 262.22 573.65 249.9 573.65 230.2 573.65 C 207.5 573.65 193.31 573.65 187.64 573.65 C 185.14 573.65 183.11 571.62 183.11 569.12 C 183.11 560.27 183.11 539.15 183.11 530.53 C 183.11 527.42 185.63 524.9 188.74 524.9 C 205.32 524.9 249.46 524.9 266.05 524.9 Z" stroke-linecap="round" />
			</g>
			<g transform="matrix(1.97 0 0 1.98 0 -144.57)">
				<path style="stroke: none; stroke-width: 1; stroke-dasharray: none; stroke-linecap: butt; stroke-dashoffset: 0; stroke-linejoin: miter; stroke-miterlimit: 4; fill: rgb(63,206,242); fill-rule: nonzero; opacity: 1;" transform=" translate(-227.4, -405.75)" d="M 266.05 381.38 C 269.16 381.38 271.68 383.9 271.68 387.01 C 271.68 395.63 271.68 415.87 271.68 424.5 C 271.68 427.6 269.16 430.12 266.05 430.12 C 249.46 430.12 205.32 430.12 188.74 430.12 C 185.63 430.12 183.11 427.6 183.11 424.5 C 183.11 415.87 183.11 395.63 183.11 387.01 C 183.11 383.9 185.63 381.38 188.74 381.38 C 205.32 381.38 249.46 381.38 266.05 381.38 Z" stroke-linecap="round" />
			</g>
			<g transform="matrix(1.97 0 0 1.98 247.58 -2.48)">
				<path style="stroke: none; stroke-width: 1; stroke-dasharray: none; stroke-linecap: butt; stroke-dashoffset: 0; stroke-linejoin: miter; stroke-miterlimit: 4; fill: rgb(230,37,107); fill-rule: nonzero; opacity: 1;" transform=" translate(-353.07, -477.51)" d="M 373.11 477.51 C 373.11 488.57 364.13 497.55 353.07 497.55 C 342.01 497.55 333.03 488.57 333.03 477.51 C 333.03 466.45 342.01 457.48 353.07 457.48 C 364.13 457.48 373.11 466.45 373.11 477.51 Z" stroke-linecap="round" />
			</g>
			<g transform="matrix(1.97 0 0 1.98 -1.51 -144.57)">
				<path style="stroke: none; stroke-width: 1; stroke-dasharray: none; stroke-linecap: butt; stroke-dashoffset: 0; stroke-linejoin: miter; stroke-miterlimit: 4; fill: rgb(255,255,255); fill-rule: nonzero; opacity: 1;" transform=" translate(-226.63, -405.75)" d="M 255.99 405.75 L 197.27 405.75" stroke-linecap="round" />
			</g>
			<g transform="matrix(1.97 0 0 1.98 0.49 -144.57)">
				<path style="stroke: rgb(255,255,255); stroke-width: 6; stroke-dasharray: none; stroke-linecap: butt; stroke-dashoffset: 0; stroke-linejoin: miter; stroke-miterlimit: 4; fill: rgb(255,255,255); fill-opacity: 0; fill-rule: nonzero; opacity: 1;" transform=" translate(-226.63, -405.75)" d="M 255.99 405.75 L 197.27 405.75" stroke-linecap="round" />
			</g>
			<g transform="matrix(1.97 0 0 1.98 0 139.6)">
				<path style="stroke: none; stroke-width: 1; stroke-dasharray: none; stroke-linecap: butt; stroke-dashoffset: 0; stroke-linejoin: miter; stroke-miterlimit: 4; fill: rgb(192,43,31); fill-opacity: 0; fill-rule: nonzero; opacity: 1;" transform=" translate(-227.39, -549.27)" d="M 256.75 549.27 L 198.04 549.27" stroke-linecap="round" />
			</g>
			<g transform="matrix(1.97 0 0 1.98 0 139.6)">
				<path style="stroke: rgb(0,0,0); stroke-width: 6; stroke-dasharray: none; stroke-linecap: butt; stroke-dashoffset: 0; stroke-linejoin: miter; stroke-miterlimit: 4; fill: rgb(192,43,31); fill-opacity: 0; fill-rule: nonzero; opacity: 1;" transform=" translate(-227.39, -549.27)" d="M 256.75 549.27 L 198.04 549.27" stroke-linecap="round" />
			</g>
		</g>
	</g>
</svg>