<?xml version="1.0" encoding="UTF-8" standalone="no" ?>
<!DOCTYPE svg PUBLIC "-//W3C//DTD SVG 1.1//EN" "http://www.w3.org/Graphics/SVG/1.1/DTD/svg11.dtd">
<svg xmlns="http://www.w3.org/2000/svg" xmlns:xlink="http://www.w3.org/1999/xlink" version="1.1" width="500" height="500" viewBox="0 0 1000 1000" xml:space="preserve">
<desc>Created with Fabric.js 3.6.3</desc>
<defs>
</defs>
<g transform="matrix(1 -0.08 0.08 1 460.15 509.84)"  >
<g style=""   >
		<g transform="matrix(1.02 -1.77 1.77 1.02 204.95 266.94)"  >
<g style=""   >
		<g transform="matrix(1 0 0 1 1.19 -0.3)"  >
<path style="stroke: none; stroke-width: 1; stroke-dasharray: none; stroke-linecap: butt; stroke-dashoffset: 0; stroke-linejoin: miter; stroke-miterlimit: 4; fill: rgb(147,86,255); fill-rule: nonzero; opacity: 1;"  transform=" translate(-276.39, -477.84)" d="M 238.15 517.37 C 234.39 524.03 236.74 532.47 243.39 536.24 C 245.8 537.6 240.98 534.87 243.39 536.24 C 250.05 540 258.49 537.65 262.25 530.99 C 274.09 510.05 302.8 459.25 314.64 438.3 C 318.4 431.64 316.05 423.2 309.4 419.44 C 306.99 418.08 311.81 420.8 309.4 419.44 C 302.74 415.68 294.3 418.02 290.54 424.68 C 278.7 445.63 249.99 496.43 238.15 517.37 Z" stroke-linecap="round" />
</g>
		<g transform="matrix(1 0 0 1 0 0)"  >
<path style="stroke: none; stroke-width: 1; stroke-dasharray: none; stroke-linecap: butt; stroke-dashoffset: 0; stroke-linejoin: miter; stroke-miterlimit: 4; fill: rgb(97,26,168); fill-rule: nonzero; opacity: 1;"  transform=" translate(-275.21, -478.14)" d="M 251.3 496.45 L 252.67 496.61 L 254.04 496.83 L 255.4 497.12 L 256.76 497.48 L 258.11 497.9 L 259.45 498.4 L 260.78 498.96 L 262.09 499.59 L 263.39 500.3 L 264.7 501.09 L 265.95 501.92 L 267.14 502.8 L 268.28 503.71 L 269.35 504.66 L 270.37 505.65 L 271.34 506.67 L 272.25 507.72 L 273.1 508.8 L 273.9 509.91 L 274.65 511.05 L 275.34 512.21 L 275.98 513.4 L 276.56 514.6 L 277.1 515.83 L 277.58 517.07 L 278.01 518.34 L 278.4 519.61 L 278.73 520.9 L 279.01 522.2 L 279.24 523.51 L 279.43 524.83 L 279.56 526.15 L 279.65 527.48 L 279.69 528.81 L 279.69 530.14 L 279.64 531.47 L 279.54 532.8 L 279.4 534.12 L 279.22 535.44 L 278.99 536.75 L 278.71 538.05 L 278.4 539.34 L 278.04 540.62 L 277.64 541.88 L 277.2 543.12 L 276.71 544.35 L 276.19 545.56 L 275.63 546.74 L 275.03 547.91 L 274.33 549.12 L 273.58 550.33 L 272.78 551.52 L 271.91 552.69 L 270.99 553.84 L 270.02 554.98 L 269 556.1 L 267.93 557.2 L 266.81 558.27 L 265.65 559.32 L 264.44 560.35 L 263.19 561.35 L 261.9 562.32 L 260.57 563.27 L 259.2 564.18 L 257.8 565.07 L 256.36 565.92 L 254.89 566.74 L 253.39 567.53 L 251.86 568.28 L 250.3 568.99 L 248.72 569.67 L 247.11 570.3 L 245.48 570.9 L 243.83 571.45 L 242.16 571.96 L 240.47 572.43 L 238.76 572.85 L 237.04 573.22 L 235.31 573.55 L 233.57 573.83 L 231.81 574.05 L 230.05 574.23 L 228.29 574.35 L 226.52 574.42 L 224.74 574.43 L 222.97 574.39 L 221.19 574.29 L 219.42 574.13 L 217.65 573.91 L 217.41 573.86 L 217.17 573.81 L 216.93 573.75 L 216.7 573.67 L 216.48 573.59 L 216.27 573.49 L 216.06 573.39 L 215.86 573.27 L 215.66 573.15 L 215.48 573.02 L 215.3 572.88 L 215.12 572.73 L 214.96 572.58 L 214.8 572.42 L 214.65 572.25 L 214.51 572.07 L 214.38 571.89 L 214.26 571.7 L 214.14 571.51 L 214.04 571.31 L 213.94 571.11 L 213.86 570.9 L 213.78 570.69 L 213.71 570.48 L 213.65 570.26 L 213.61 570.04 L 213.57 569.82 L 213.54 569.59 L 213.53 569.37 L 213.52 569.14 L 213.53 568.91 L 213.54 568.68 L 213.57 568.45 L 213.61 568.22 L 213.66 567.99 L 213.73 567.76 L 213.8 567.54 L 213.89 567.31 L 213.99 567.09 L 214.1 566.86 L 214.74 565.61 L 215.29 564.37 L 215.76 563.14 L 216.15 561.93 L 216.47 560.74 L 216.72 559.55 L 216.9 558.38 L 217.03 557.21 L 217.1 556.06 L 217.11 554.91 L 217.09 553.76 L 217.02 552.62 L 216.91 551.49 L 216.77 550.35 L 216.61 549.22 L 216.42 548.08 L 216.21 546.95 L 215.99 545.81 L 215.75 544.67 L 215.52 543.52 L 215.28 542.36 L 215.05 541.2 L 214.82 540.02 L 214.61 538.84 L 214.42 537.64 L 214.25 536.43 L 214.11 535.21 L 214 533.97 L 213.92 532.71 L 213.89 531.44 L 213.9 530.15 L 213.96 528.83 L 214.08 527.5 L 214.26 526.14 L 214.5 524.75 L 214.8 523.34 L 215.19 521.91 L 215.64 520.44 L 216.18 518.95 L 216.81 517.42 L 217.41 516.13 L 218.06 514.87 L 218.75 513.64 L 219.5 512.45 L 220.29 511.28 L 221.12 510.16 L 222 509.06 L 222.92 508.01 L 223.88 506.99 L 224.88 506.01 L 225.91 505.07 L 226.97 504.18 L 228.07 503.32 L 229.2 502.51 L 230.35 501.75 L 231.54 501.03 L 232.74 500.35 L 233.97 499.73 L 235.23 499.15 L 236.5 498.62 L 237.79 498.15 L 239.1 497.72 L 240.42 497.35 L 241.75 497.04 L 243.1 496.78 L 244.45 496.57 L 245.81 496.43 L 247.18 496.34 L 248.55 496.32 L 249.92 496.35 L 251.3 496.45 Z M 292.01 492.68 L 291.54 493.35 L 291.07 494.02 L 290.6 494.69 L 290.13 495.34 L 289.68 495.99 L 289.22 496.63 L 288.77 497.26 L 288.32 497.88 L 287.88 498.5 L 287.45 499.11 L 287.02 499.71 L 286.59 500.3 L 286.17 500.88 L 285.76 501.45 L 285.35 502.01 L 284.95 502.57 L 284.55 503.11 L 284.16 503.65 L 283.78 504.17 L 283.4 504.69 L 283.03 505.2 L 282.66 505.69 L 281.73 504.3 L 280.75 502.94 L 279.7 501.62 L 278.59 500.33 L 277.42 499.09 L 276.2 497.89 L 274.93 496.74 L 273.61 495.64 L 272.23 494.59 L 270.81 493.59 L 269.34 492.65 L 267.83 491.77 L 266.28 490.95 L 264.69 490.2 L 263.05 489.51 L 261.38 488.89 L 259.68 488.34 L 257.94 487.87 L 256.17 487.47 L 254.38 487.16 L 252.55 486.92 L 250.7 486.77 L 248.82 486.71 L 249.05 486.12 L 249.29 485.52 L 249.53 484.91 L 249.78 484.29 L 250.03 483.66 L 250.29 483.01 L 250.55 482.36 L 250.82 481.69 L 251.09 481.02 L 251.37 480.33 L 251.65 479.64 L 251.94 478.94 L 252.23 478.22 L 252.53 477.5 L 252.83 476.77 L 253.13 476.03 L 253.44 475.29 L 253.75 474.53 L 254.07 473.77 L 254.39 473 L 254.72 472.22 L 255.05 471.43 L 255.39 470.64 L 292.49 491.99 L 292.01 492.68 Z M 321.52 381.92 L 322.26 382.01 L 322.98 382.12 L 323.7 382.27 L 324.41 382.45 L 325.11 382.65 L 325.79 382.89 L 326.46 383.16 L 327.12 383.45 L 327.76 383.78 L 328.39 384.13 L 329 384.51 L 329.59 384.91 L 330.17 385.35 L 330.73 385.81 L 331.27 386.3 L 331.79 386.81 L 332.29 387.35 L 332.76 387.91 L 333.22 388.5 L 333.65 389.11 L 334.06 389.74 L 334.44 390.4 L 334.8 391.08 L 335.13 391.79 L 335.44 392.52 L 335.72 393.27 L 335.96 394.04 L 336.18 394.83 L 336.38 395.64 L 336.68 397.4 L 336.85 399.23 L 336.9 401.15 L 336.84 403.14 L 336.66 405.2 L 336.38 407.32 L 336 409.5 L 335.52 411.74 L 334.94 414.03 L 334.28 416.36 L 333.54 418.73 L 332.72 421.14 L 331.82 423.57 L 330.86 426.04 L 329.84 428.53 L 328.75 431.03 L 327.62 433.55 L 326.43 436.07 L 325.2 438.6 L 323.94 441.12 L 322.64 443.64 L 321.31 446.15 L 319.95 448.64 L 318.58 451.11 L 317.19 453.56 L 315.79 455.97 L 314.39 458.36 L 312.99 460.7 L 311.59 463 L 310.21 465.25 L 308.84 467.45 L 307.48 469.59 L 306.16 471.66 L 304.86 473.67 L 303.59 475.61 L 302.37 477.47 L 301.19 479.25 L 300.06 480.94 L 298.98 482.55 L 297.96 484.05 L 259.22 461.76 L 259.95 460.11 L 260.73 458.37 L 261.55 456.53 L 262.42 454.61 L 263.34 452.61 L 264.3 450.54 L 265.29 448.41 L 266.33 446.21 L 267.41 443.97 L 268.53 441.68 L 269.68 439.34 L 270.87 436.98 L 272.09 434.59 L 273.34 432.17 L 274.63 429.75 L 275.94 427.31 L 277.28 424.88 L 278.65 422.45 L 280.05 420.03 L 281.47 417.63 L 282.92 415.25 L 284.38 412.91 L 285.87 410.6 L 287.37 408.33 L 288.9 406.12 L 290.44 403.95 L 291.99 401.86 L 293.57 399.83 L 295.15 397.87 L 296.74 396 L 298.35 394.22 L 299.96 392.53 L 301.58 390.94 L 303.21 389.46 L 304.84 388.09 L 306.48 386.84 L 308.12 385.72 L 309.75 384.73 L 311.39 383.88 L 313.03 383.17 L 313.82 382.89 L 314.6 382.64 L 315.39 382.42 L 316.17 382.24 L 316.95 382.1 L 317.72 381.98 L 318.5 381.91 L 319.26 381.86 L 320.02 381.85 L 320.77 381.87 L 321.52 381.92 Z" stroke-linecap="round" />
</g>
</g>
</g>
		<g transform="matrix(1.28 0 0 1.28 -8.69 -112.61)"  >
<g style=""   >
		<g transform="matrix(1.06 0 0 1.06 0 0)"  >
<path style="stroke: rgb(75,20,129); stroke-width: 28; stroke-dasharray: none; stroke-linecap: butt; stroke-dashoffset: 0; stroke-linejoin: miter; stroke-miterlimit: 4; fill: rgb(0,0,0); fill-opacity: 0; fill-rule: nonzero; opacity: 1;"  transform=" translate(-406.79, -229.35)" d="M 577.15 229.36 C 577.15 323.38 500.82 399.71 406.8 399.71 C 312.77 399.71 236.44 323.38 236.44 229.36 C 236.44 135.33 312.77 59 406.8 59 C 500.82 59 577.15 135.33 577.15 229.36 Z" stroke-linecap="round" />
</g>
		<g transform="matrix(1.06 0 0 1.06 -0.03 0)"  >
<path style="stroke: none; stroke-width: 1; stroke-dasharray: none; stroke-linecap: butt; stroke-dashoffset: 0; stroke-linejoin: miter; stroke-miterlimit: 4; fill: rgb(214,242,255); fill-opacity: 0.4; fill-rule: nonzero; opacity: 1;"  transform=" translate(-406.76, -229.36)" d="M 570.97 229.34 C 570.98 319.97 497.4 393.56 406.78 393.56 C 316.15 393.57 242.57 320 242.56 229.37 C 242.55 138.74 316.12 65.16 406.75 65.15 C 497.38 65.15 570.96 138.72 570.97 229.34 Z" stroke-linecap="round" />
</g>
</g>
</g>
		<g transform="matrix(1.28 0 0 1.28 -98.24 236.02)"  >
<g style=""   >
		<g transform="matrix(0.67 0.06 -0.08 0.93 11.74 -148.31)"  >
<polygon style="stroke: rgb(0,0,0); stroke-width: 0; stroke-dasharray: none; stroke-linecap: butt; stroke-dashoffset: 0; stroke-linejoin: miter; stroke-miterlimit: 4; fill: rgb(147,86,255); fill-rule: nonzero; opacity: 1;"  points="-50,-50 -50,50 50,50 50,-50 " />
</g>
		<g transform="matrix(0.72 -0.59 0.59 0.72 0 5.11)"  >
<path style="stroke: none; stroke-width: 0; stroke-dasharray: none; stroke-linecap: butt; stroke-dashoffset: 0; stroke-linejoin: miter; stroke-miterlimit: 4; fill: rgb(97,26,168); fill-rule: nonzero; opacity: 1;"  transform=" translate(-144.18, -352)" d="M 16.128 406.126 C 5.739 416.515 0 430.339 0 446.296 c 0 30.357 24.683 55.04 55.04 55.04 c 15.467 0 30.315 -6.571 40.725 -18.005 L 288.363 271.47 l -68.779 -68.8 L 16.128 406.126 z" stroke-linecap="round" />
</g>
</g>
</g>
		<g transform="matrix(0.47 -0.48 0.48 0.47 -222.2 -98.61)"  >
<path style="stroke: none; stroke-width: 0; stroke-dasharray: none; stroke-linecap: butt; stroke-dashoffset: 0; stroke-linejoin: miter; stroke-miterlimit: 4; fill: rgb(97,26,168); fill-rule: nonzero; opacity: 1;"  transform=" translate(-696.05, -204.27)" d="M 983.597900390625 154.4254913330078 C 936.794189453125 107.6244888305664 858.3584594726562 29.188692092895508 700.3189697265625 29.188692092895508 C 542.3970336914062 29.188692092895508 469.9714660644531 101.6142807006836 417.0399475097656 154.4281768798828 C 408.6936340332031 162.7745361328125 406.18505859375 175.32015991210938 410.7370910644531 186.23526000976562 C 415.23175048828125 197.14744567871094 425.9115905761719 204.26841735839844 437.6993713378906 204.26841735839844 C 673.06396484375 204.26841735839844 700.3189697265625 304.1815185546875 700.3189697265625 379.34814453125" stroke-linecap="round" />
</g>
		<g transform="matrix(1.19 -0.05 0.05 1.19 -191.96 -122.61)"  >
<path style="stroke: rgb(0,0,0); stroke-width: 1; stroke-dasharray: none; stroke-linecap: round; stroke-dashoffset: 0; stroke-linejoin: round; stroke-miterlimit: 10; fill: none; fill-rule: nonzero; opacity: 1;"  transform=" translate(-167.4, -535)" d="M 167.39899389648437 535 L 167.40099389648438 535" stroke-linecap="round" />
</g>
		<g transform="matrix(-2.05 -0.2 0.24 -2.46 -109.75 -125.93)"  >
<path style="stroke: rgb(75,22,134); stroke-width: 10; stroke-dasharray: none; stroke-linecap: butt; stroke-dashoffset: 0; stroke-linejoin: miter; stroke-miterlimit: 4; fill: rgb(97,26,168); fill-rule: nonzero; opacity: 1;" vector-effect="non-scaling-stroke"  transform=" translate(-57.95, -51.83)" d="m 0 0 l 57.952755 0 l 0 0 c 32.006428 -1.4055393e-14 57.952755 23.203636 57.952755 51.82677 c 0 28.623135 -25.946327 51.82677 -57.952755 51.82677 l -57.952755 0 z" stroke-linecap="round" />
</g>
		<g transform="matrix(-0.03 0.37 -1.44 -0.14 -119.41 -125.98)"  >
<polygon style="stroke: rgb(0,0,0); stroke-width: 0; stroke-dasharray: none; stroke-linecap: butt; stroke-dashoffset: 0; stroke-linejoin: miter; stroke-miterlimit: 4; fill: rgb(147,86,255); fill-rule: nonzero; opacity: 1;"  points="-50,-50 -50,50 50,50 50,-50 " />
</g>
		<g transform="matrix(-0.25 2.57 -2.57 -0.25 107.69 -105.46)"  >
<path style="stroke: rgb(75,22,134); stroke-width: 10; stroke-dasharray: none; stroke-linecap: butt; stroke-dashoffset: 0; stroke-linejoin: miter; stroke-miterlimit: 4; fill: rgb(97,26,168); fill-rule: nonzero; opacity: 1;" vector-effect="non-scaling-stroke"  transform=" translate(-48, -48)" d="M 9.113 65.022 C 11.683 45.575 28.302 30.978 48 30.978 c 19.696 0 36.316 14.598 38.887 34.045 H 9.113 z" stroke-linecap="round" />
</g>
		<g transform="matrix(-0.04 0.45 -1.83 -0.17 -134.83 -127.38)"  >
<polygon style="stroke: rgb(75,22,134); stroke-width: 8; stroke-dasharray: none; stroke-linecap: butt; stroke-dashoffset: 0; stroke-linejoin: miter; stroke-miterlimit: 4; fill: rgb(97,26,168); fill-opacity: 0.27; fill-rule: nonzero; opacity: 1;" vector-effect="non-scaling-stroke"  points="-50,-50 -50,50 50,50 50,-50 " />
</g>
		<g transform="matrix(-0.04 0.38 -0.61 -0.06 -216.69 -135.3)"  >
<polygon style="stroke: rgb(75,22,134); stroke-width: 0; stroke-dasharray: none; stroke-linecap: butt; stroke-dashoffset: 0; stroke-linejoin: miter; stroke-miterlimit: 4; fill: rgb(97,26,168); fill-rule: nonzero; opacity: 1;"  points="-50,-50 -50,50 50,50 50,-50 " />
</g>
		<g transform="matrix(0.14 -0.81 -0.81 -0.14 -2.47 -431.15)"  >
<path style="stroke: rgb(75,22,134); stroke-width: 8; stroke-dasharray: none; stroke-linecap: butt; stroke-dashoffset: 0; stroke-linejoin: miter; stroke-miterlimit: 4; fill: rgb(97,26,168); fill-rule: nonzero; opacity: 1;" vector-effect="non-scaling-stroke"  transform=" translate(-62.2, -20.73)" d="m 20.013628 0 l 84.37401 0 l 0 0 c 11.053215 -1.04756605e-14 20.013626 9.282301 20.013626 20.7326 c 0 11.450296 -8.960411 20.7326 -20.013626 20.7326 l -84.37401 0 l 0 0 c -11.053222 0 -20.013628 -9.282303 -20.013628 -20.7326 c -5.2380687e-15 -11.450298 8.960406 -20.7326 20.013628 -20.7326 z" stroke-linecap="round" />
</g>
		<g transform="matrix(-0.73 -0.36 0.36 -0.73 -273.9 -299.31)"  >
<path style="stroke: rgb(75,22,134); stroke-width: 8; stroke-dasharray: none; stroke-linecap: butt; stroke-dashoffset: 0; stroke-linejoin: miter; stroke-miterlimit: 4; fill: rgb(97,26,168); fill-rule: nonzero; opacity: 1;" vector-effect="non-scaling-stroke"  transform=" translate(-62.2, -20.73)" d="m 20.013628 0 l 84.37401 0 l 0 0 c 11.053215 -1.04756605e-14 20.013626 9.282301 20.013626 20.7326 c 0 11.450296 -8.960411 20.7326 -20.013626 20.7326 l -84.37401 0 l 0 0 c -11.053222 0 -20.013628 -9.282303 -20.013628 -20.7326 c -5.2380687e-15 -11.450298 8.960406 -20.7326 20.013628 -20.7326 z" stroke-linecap="round" />
</g>
		<g transform="matrix(-0.37 -0.73 0.73 -0.37 -160.22 -410.91)"  >
<path style="stroke: rgb(75,22,134); stroke-width: 8; stroke-dasharray: none; stroke-linecap: butt; stroke-dashoffset: 0; stroke-linejoin: miter; stroke-miterlimit: 4; fill: rgb(97,26,168); fill-rule: nonzero; opacity: 1;" vector-effect="non-scaling-stroke"  transform=" translate(-62.2, -20.73)" d="m 20.013628 0 l 84.37401 0 l 0 0 c 11.053215 -1.04756605e-14 20.013626 9.282301 20.013626 20.7326 c 0 11.450296 -8.960411 20.7326 -20.013626 20.7326 l -84.37401 0 l 0 0 c -11.053222 0 -20.013628 -9.282303 -20.013628 -20.7326 c -5.2380687e-15 -11.450298 8.960406 -20.7326 20.013628 -20.7326 z" stroke-linecap="round" />
</g>
</g>
</g>
</svg>