<?xml version="1.0" encoding="UTF-8" standalone="no" ?>
<!DOCTYPE svg PUBLIC "-//W3C//DTD SVG 1.1//EN" "http://www.w3.org/Graphics/SVG/1.1/DTD/svg11.dtd">
<svg xmlns="http://www.w3.org/2000/svg" xmlns:xlink="http://www.w3.org/1999/xlink" version="1.1" width="900" height="900" viewBox="0 0 1000 1000" xml:space="preserve">
<desc>Created with Fabric.js 3.6.3</desc>
<defs>
</defs>
<g transform="matrix(1 0 0 1 358.87 373.13)"  >
<g style=""   >
		<g transform="matrix(1.06 0 0 1.06 0 0)"  >
<path style="stroke: rgb(75,20,129); stroke-width: 28; stroke-dasharray: none; stroke-linecap: butt; stroke-dashoffset: 0; stroke-linejoin: miter; stroke-miterlimit: 4; fill: rgb(0,0,0); fill-opacity: 0; fill-rule: nonzero; opacity: 1;"  transform=" translate(-406.79, -229.35)" d="M 577.15 229.36 C 577.15 323.38 500.82 399.71 406.8 399.71 C 312.77 399.71 236.44 323.38 236.44 229.36 C 236.44 135.33 312.77 59 406.8 59 C 500.82 59 577.15 135.33 577.15 229.36 Z" stroke-linecap="round" />
</g>
		<g transform="matrix(1.06 0 0 1.06 -0.03 0)"  >
<path style="stroke: none; stroke-width: 1; stroke-dasharray: none; stroke-linecap: butt; stroke-dashoffset: 0; stroke-linejoin: miter; stroke-miterlimit: 4; fill: rgb(214,242,255); fill-opacity: 0.4; fill-rule: nonzero; opacity: 1;"  transform=" translate(-406.76, -229.36)" d="M 570.97 229.34 C 570.98 319.97 497.4 393.56 406.78 393.56 C 316.15 393.57 242.57 320 242.56 229.37 C 242.55 138.74 316.12 65.16 406.75 65.15 C 497.38 65.15 570.96 138.72 570.97 229.34 Z" stroke-linecap="round" />
</g>
</g>
</g>
<g transform="matrix(0.52 0 0 0.52 1271.7 891.1)"  >
<g style=""   >
</g>
</g>
<g transform="matrix(1 0 0 1 850.56 116.77)"  >
<path style="stroke: none; stroke-width: 1; stroke-dasharray: none; stroke-linecap: butt; stroke-dashoffset: 0; stroke-linejoin: miter; stroke-miterlimit: 4; fill: rgb(99,208,236); fill-rule: nonzero; opacity: 1;"  transform=" translate(-409.56, -297.66)" d="M 239.2 233.77 L 579.92 233.77 L 579.92 361.54 L 239.2 361.54 L 239.2 233.77 Z" stroke-linecap="round" />
</g>
<g transform="matrix(1 0 0 1 895.89 225.44)"  >
<path style="stroke: none; stroke-width: 1; stroke-dasharray: none; stroke-linecap: butt; stroke-dashoffset: 0; stroke-linejoin: miter; stroke-miterlimit: 4; fill: rgb(217,100,242); fill-rule: nonzero; opacity: 1;"  transform=" translate(-402.56, -169.88)" d="M 232.48 106 L 572.65 106 L 572.65 233.77 L 232.48 233.77 L 232.48 106 Z" stroke-linecap="round" />
</g>
<g transform="matrix(1 0 0 1 1052.64 159.83)"  >
<g style=""   >
		<g transform="matrix(1 0 0 1 53.79 -86.24)"  >
<path style="stroke: none; stroke-width: 1; stroke-dasharray: none; stroke-linecap: butt; stroke-dashoffset: 0; stroke-linejoin: miter; stroke-miterlimit: 4; fill: rgb(0,0,0); fill-rule: nonzero; opacity: 1;"  transform=" translate(-383.43, -148.58)" d="M 598.87 140.98 C 603.07 140.98 606.47 144.39 606.47 148.59 C 606.47 150.11 606.47 147.07 606.47 148.59 C 606.47 152.79 603.07 156.19 598.87 156.19 C 511.17 156.19 255.69 156.19 167.99 156.19 C 163.79 156.19 160.39 152.79 160.39 148.59 C 160.39 147.07 160.39 150.11 160.39 148.59 C 160.39 144.39 163.79 140.98 167.99 140.98 C 255.69 140.98 511.17 140.98 598.87 140.98 Z" stroke-linecap="round" />
</g>
		<g transform="matrix(1 0 0 1 40.91 -41.52)"  >
<path style="stroke: none; stroke-width: 1; stroke-dasharray: none; stroke-linecap: butt; stroke-dashoffset: 0; stroke-linejoin: miter; stroke-miterlimit: 4; fill: rgb(0,0,0); fill-rule: nonzero; opacity: 1;"  transform=" translate(-370.55, -193.31)" d="M 598.87 185.7 C 603.07 185.7 606.47 189.11 606.47 193.31 C 606.47 194.83 606.47 191.79 606.47 193.31 C 606.47 197.51 603.07 200.91 598.87 200.91 C 506.02 200.91 235.08 200.91 142.24 200.91 C 138.04 200.91 134.63 197.51 134.63 193.31 C 134.63 191.79 134.63 194.83 134.63 193.31 C 134.63 189.11 138.04 185.7 142.24 185.7 C 235.08 185.7 506.02 185.7 598.87 185.7 Z" stroke-linecap="round" />
</g>
		<g transform="matrix(1 0 0 1 0 41.52)"  >
<path style="stroke: none; stroke-width: 1; stroke-dasharray: none; stroke-linecap: butt; stroke-dashoffset: 0; stroke-linejoin: miter; stroke-miterlimit: 4; fill: rgb(0,0,0); fill-rule: nonzero; opacity: 1;"  transform=" translate(-329.64, -276.36)" d="M 598.87 268.75 C 603.07 268.75 606.47 272.16 606.47 276.36 C 606.47 277.88 606.47 274.84 606.47 276.36 C 606.47 280.56 603.07 283.96 598.87 283.96 C 489.66 283.96 169.63 283.96 60.42 283.96 C 56.22 283.96 52.81 280.56 52.81 276.36 C 52.81 274.84 52.81 277.88 52.81 276.36 C 52.81 272.16 56.22 268.75 60.42 268.75 C 169.63 268.75 489.66 268.75 598.87 268.75 Z" stroke-linecap="round" />
</g>
		<g transform="matrix(1 0 0 1 0 84.12)"  >
<path style="stroke: none; stroke-width: 1; stroke-dasharray: none; stroke-linecap: butt; stroke-dashoffset: 0; stroke-linejoin: miter; stroke-miterlimit: 4; fill: rgb(0,0,0); fill-rule: nonzero; opacity: 1;"  transform=" translate(-329.64, -318.94)" d="M 598.87 311.34 C 603.07 311.34 606.47 314.75 606.47 318.95 C 606.47 320.47 606.47 317.43 606.47 318.95 C 606.47 323.15 603.07 326.55 598.87 326.55 C 489.66 326.55 169.63 326.55 60.42 326.55 C 56.22 326.55 52.81 323.15 52.81 318.95 C 52.81 317.43 52.81 320.47 52.81 318.95 C 52.81 314.75 56.22 311.34 60.42 311.34 C 169.63 311.34 489.66 311.34 598.87 311.34 Z" stroke-linecap="round" />
</g>
		<g transform="matrix(1 0 0 1 0 126.7)"  >
<path style="stroke: none; stroke-width: 1; stroke-dasharray: none; stroke-linecap: butt; stroke-dashoffset: 0; stroke-linejoin: miter; stroke-miterlimit: 4; fill: rgb(0,0,0); fill-rule: nonzero; opacity: 1;"  transform=" translate(-329.64, -361.53)" d="M 598.87 353.93 C 603.07 353.93 606.47 357.34 606.47 361.54 C 606.47 363.06 606.47 360.01 606.47 361.54 C 606.47 365.74 603.07 369.14 598.87 369.14 C 489.66 369.14 169.63 369.14 60.42 369.14 C 56.22 369.14 52.81 365.74 52.81 361.54 C 52.81 360.01 52.81 363.06 52.81 361.54 C 52.81 357.34 56.22 353.93 60.42 353.93 C 169.63 353.93 489.66 353.93 598.87 353.93 Z" stroke-linecap="round" />
</g>
		<g transform="matrix(1 0 0 1 0 -126.7)"  >
<path style="stroke: none; stroke-width: 1; stroke-dasharray: none; stroke-linecap: butt; stroke-dashoffset: 0; stroke-linejoin: miter; stroke-miterlimit: 4; fill: rgb(0,0,0); fill-rule: nonzero; opacity: 1;"  transform=" translate(-329.64, -108.13)" d="M 598.87 100.52 C 603.07 100.52 606.47 103.93 606.47 108.13 C 606.47 109.65 606.47 106.61 606.47 108.13 C 606.47 112.33 603.07 115.73 598.87 115.73 C 489.66 115.73 169.63 115.73 60.42 115.73 C 56.22 115.73 52.81 112.33 52.81 108.13 C 52.81 106.61 52.81 109.65 52.81 108.13 C 52.81 103.93 56.22 100.52 60.42 100.52 C 169.63 100.52 489.66 100.52 598.87 100.52 Z" stroke-linecap="round" />
</g>
		<g transform="matrix(1 0 0 1 0 2.13)"  >
<path style="stroke: none; stroke-width: 1; stroke-dasharray: none; stroke-linecap: butt; stroke-dashoffset: 0; stroke-linejoin: miter; stroke-miterlimit: 4; fill: rgb(0,0,0); fill-rule: nonzero; opacity: 1;"  transform=" translate(-329.64, -236.97)" d="M 598.87 229.36 C 603.07 229.36 606.47 232.76 606.47 236.96 C 606.47 238.48 606.47 235.44 606.47 236.96 C 606.47 241.16 603.07 244.57 598.87 244.57 C 489.66 244.57 169.63 244.57 60.42 244.57 C 56.22 244.57 52.81 241.16 52.81 236.96 C 52.81 235.44 52.81 238.48 52.81 236.96 C 52.81 232.76 56.22 229.36 60.42 229.36 C 169.63 229.36 489.66 229.36 598.87 229.36 Z" stroke-linecap="round" />
</g>
</g>
</g>
<g transform="matrix(1 0 0 1 889.05 557.32)"  >
<g style=""   >
		<g transform="matrix(1 0 0 1 -2.18 18.51)"  >
<path style="stroke: none; stroke-width: 1; stroke-dasharray: none; stroke-linecap: butt; stroke-dashoffset: 0; stroke-linejoin: miter; stroke-miterlimit: 4; fill: rgb(147,86,255); fill-rule: nonzero; opacity: 1;"  transform=" translate(-515.91, -523.5)" d="M 499.84 564.42 C 499.85 566.9 501.87 568.91 504.35 568.9 C 506.56 568.89 508.71 568.88 510.92 568.88 C 510.92 568.88 519.91 568.85 519.91 568.85 C 522.38 568.84 525.3 568.83 527.77 568.82 C 530.25 568.82 532.26 566.8 532.25 564.32 C 532.2 547.07 532.05 499.84 531.99 482.59 C 531.98 480.11 529.97 478.1 527.48 478.11 C 521.9 478.13 509.64 478.17 504.06 478.19 C 501.58 478.19 499.57 480.21 499.58 482.69 C 499.63 499.94 499.78 547.17 499.84 564.42 Z" stroke-linecap="round" />
</g>
		<g transform="matrix(1 0 0 1 0 0)"  >
<path style="stroke: none; stroke-width: 1; stroke-dasharray: none; stroke-linecap: butt; stroke-dashoffset: 0; stroke-linejoin: miter; stroke-miterlimit: 4; fill: rgb(97,26,168); fill-rule: nonzero; opacity: 1;"  transform=" translate(-518.1, -505)" d="M 589.22 446.68 L 589.36 446.69 L 589.5 446.7 L 589.64 446.72 L 589.77 446.73 L 589.91 446.75 L 590.04 446.78 L 590.18 446.8 L 590.31 446.83 L 590.45 446.86 L 590.58 446.89 L 590.71 446.93 L 590.84 446.97 L 590.97 447.01 L 591.09 447.05 L 591.22 447.1 L 591.35 447.14 L 591.47 447.2 L 591.59 447.25 L 591.72 447.31 L 591.84 447.36 L 591.96 447.43 L 592.08 447.49 L 592.2 447.56 L 592.32 447.63 L 592.43 447.7 L 592.55 447.77 L 592.66 447.85 L 592.78 447.93 L 592.89 448.01 L 593 448.1 L 593.12 448.19 L 593.23 448.28 L 593.33 448.37 L 593.44 448.47 L 593.55 448.56 L 593.66 448.67 L 593.76 448.77 L 593.87 448.87 L 593.97 448.98 L 594.07 449.09 L 594.16 449.2 L 594.25 449.31 L 594.34 449.42 L 594.43 449.53 L 594.52 449.64 L 594.6 449.75 L 594.68 449.87 L 594.76 449.98 L 594.83 450.1 L 594.9 450.22 L 594.97 450.33 L 595.04 450.45 L 595.11 450.57 L 595.17 450.69 L 595.23 450.82 L 595.28 450.94 L 595.34 451.06 L 595.39 451.19 L 595.44 451.31 L 595.48 451.44 L 595.53 451.57 L 595.57 451.7 L 595.6 451.82 L 595.64 451.96 L 595.67 452.09 L 595.7 452.22 L 595.73 452.35 L 595.76 452.49 L 595.78 452.62 L 595.8 452.76 L 595.81 452.9 L 595.83 453.03 L 595.84 453.17 L 595.85 453.31 L 595.86 453.45 L 595.86 453.6 L 595.86 453.74 L 595.86 453.88 L 595.86 454.03 L 595.85 454.17 L 595.84 454.31 L 595.83 454.45 L 595.81 454.58 L 595.8 454.72 L 595.78 454.86 L 595.76 454.99 L 595.73 455.13 L 595.7 455.26 L 595.67 455.39 L 595.64 455.53 L 595.6 455.66 L 595.57 455.79 L 595.53 455.91 L 595.48 456.04 L 595.44 456.17 L 595.39 456.29 L 595.34 456.42 L 595.28 456.54 L 595.23 456.67 L 595.17 456.79 L 595.11 456.91 L 595.04 457.03 L 594.97 457.15 L 594.9 457.27 L 594.83 457.38 L 594.76 457.5 L 594.68 457.61 L 594.6 457.73 L 594.52 457.84 L 594.43 457.95 L 594.34 458.06 L 594.25 458.18 L 594.16 458.28 L 594.06 458.39 L 593.97 458.5 L 593.87 458.61 L 593.76 458.71 L 574.65 477.82 L 574.65 510.3 L 599.39 510.3 L 599.54 510.3 L 599.68 510.31 L 599.82 510.31 L 599.96 510.32 L 600.1 510.33 L 600.24 510.35 L 600.38 510.36 L 600.51 510.38 L 600.65 510.41 L 600.78 510.43 L 600.92 510.46 L 601.05 510.49 L 601.18 510.52 L 601.31 510.56 L 601.44 510.6 L 601.57 510.64 L 601.7 510.68 L 601.82 510.73 L 601.95 510.77 L 602.07 510.83 L 602.2 510.88 L 602.32 510.94 L 602.44 510.99 L 602.56 511.06 L 602.68 511.12 L 602.8 511.19 L 602.92 511.26 L 603.04 511.33 L 603.15 511.4 L 603.27 511.48 L 603.38 511.56 L 603.5 511.64 L 603.61 511.73 L 603.72 511.82 L 603.83 511.91 L 603.94 512 L 604.05 512.1 L 604.15 512.2 L 604.26 512.3 L 604.37 512.4 L 604.47 512.51 L 604.57 512.61 L 604.67 512.72 L 604.77 512.83 L 604.86 512.94 L 604.95 513.05 L 605.04 513.16 L 605.12 513.27 L 605.21 513.38 L 605.29 513.5 L 605.36 513.61 L 605.44 513.73 L 605.51 513.85 L 605.58 513.96 L 605.65 514.08 L 605.71 514.2 L 605.77 514.32 L 605.83 514.45 L 605.89 514.57 L 605.94 514.69 L 606 514.82 L 606.04 514.94 L 606.09 515.07 L 606.13 515.2 L 606.18 515.33 L 606.21 515.46 L 606.25 515.59 L 606.28 515.72 L 606.31 515.85 L 606.34 515.99 L 606.37 516.12 L 606.39 516.25 L 606.41 516.39 L 606.42 516.53 L 606.44 516.67 L 606.45 516.81 L 606.46 516.95 L 606.47 517.09 L 606.47 517.23 L 606.47 517.37 L 606.47 517.52 L 606.47 517.66 L 606.46 517.8 L 606.45 517.94 L 606.44 518.08 L 606.42 518.22 L 606.41 518.35 L 606.39 518.49 L 606.37 518.63 L 606.34 518.76 L 606.31 518.89 L 606.28 519.03 L 606.25 519.16 L 606.21 519.29 L 606.18 519.42 L 606.13 519.55 L 606.09 519.67 L 606.05 519.8 L 606 519.93 L 605.95 520.05 L 605.89 520.18 L 605.83 520.3 L 605.78 520.42 L 605.71 520.54 L 605.65 520.66 L 605.58 520.78 L 605.51 520.9 L 605.44 521.02 L 605.37 521.13 L 605.29 521.25 L 605.21 521.36 L 605.13 521.47 L 605.04 521.59 L 604.95 521.7 L 604.86 521.81 L 604.77 521.92 L 604.67 522.02 L 604.57 522.13 L 604.47 522.24 L 604.37 522.34 L 604.26 522.45 L 604.16 522.55 L 604.05 522.65 L 603.94 522.74 L 603.83 522.84 L 603.72 522.93 L 603.61 523.01 L 603.5 523.1 L 603.39 523.18 L 603.27 523.26 L 603.16 523.34 L 603.04 523.41 L 602.93 523.49 L 602.81 523.56 L 602.69 523.62 L 602.57 523.69 L 602.45 523.75 L 602.33 523.81 L 602.2 523.86 L 602.08 523.92 L 601.95 523.97 L 601.83 524.02 L 601.7 524.06 L 601.57 524.11 L 601.45 524.15 L 601.32 524.19 L 601.19 524.22 L 601.05 524.25 L 600.92 524.28 L 600.79 524.31 L 600.65 524.34 L 600.52 524.36 L 600.38 524.38 L 600.24 524.4 L 600.11 524.41 L 599.97 524.42 L 599.83 524.43 L 599.68 524.44 L 599.54 524.44 L 599.4 524.44 L 574.66 524.44 L 574.65 525.38 L 574.64 526.32 L 574.61 527.24 L 574.58 528.16 L 574.54 529.08 L 574.49 529.98 L 574.43 530.88 L 574.36 531.77 L 574.28 532.65 L 574.19 533.53 L 574.1 534.4 L 573.99 535.26 L 573.87 536.11 L 573.75 536.96 L 573.61 537.8 L 573.47 538.64 L 573.32 539.46 L 573.16 540.28 L 572.99 541.09 L 572.8 541.9 L 572.62 542.69 L 572.42 543.48 L 572.21 544.27 L 571.99 545.04 L 571.76 545.81 L 571.53 546.57 L 571.28 547.33 L 571.03 548.07 L 570.76 548.81 L 570.49 549.55 L 570.21 550.27 L 569.92 550.99 L 569.62 551.7 L 569.31 552.41 L 568.99 553.1 L 568.66 553.79 L 568.32 554.47 L 567.98 555.15 L 567.62 555.82 L 567.25 556.48 L 590.23 579.56 L 590.33 579.67 L 590.44 579.78 L 590.53 579.88 L 590.63 579.99 L 590.72 580.1 L 590.81 580.21 L 590.9 580.32 L 590.99 580.44 L 591.07 580.55 L 591.15 580.66 L 591.23 580.78 L 591.3 580.89 L 591.37 581.01 L 591.44 581.13 L 591.51 581.25 L 591.57 581.37 L 591.63 581.49 L 591.69 581.61 L 591.75 581.73 L 591.8 581.86 L 591.85 581.98 L 591.9 582.11 L 591.95 582.23 L 591.99 582.36 L 592.03 582.49 L 592.07 582.62 L 592.11 582.75 L 592.14 582.88 L 592.17 583.01 L 592.2 583.15 L 592.22 583.28 L 592.24 583.42 L 592.26 583.55 L 592.28 583.69 L 592.3 583.83 L 592.31 583.97 L 592.32 584.11 L 592.32 584.25 L 592.33 584.39 L 592.33 584.54 L 592.33 584.68 L 592.32 584.82 L 592.32 584.96 L 592.31 585.1 L 592.3 585.24 L 592.28 585.38 L 592.26 585.52 L 592.24 585.65 L 592.22 585.79 L 592.2 585.92 L 592.17 586.06 L 592.14 586.19 L 592.11 586.32 L 592.07 586.45 L 592.03 586.58 L 591.99 586.71 L 591.95 586.84 L 591.9 586.96 L 591.85 587.09 L 591.8 587.22 L 591.75 587.34 L 591.69 587.46 L 591.63 587.58 L 591.57 587.7 L 591.51 587.82 L 591.44 587.94 L 591.37 588.06 L 591.3 588.18 L 591.23 588.29 L 591.15 588.41 L 591.07 588.52 L 590.99 588.64 L 590.9 588.75 L 590.81 588.86 L 590.72 588.97 L 590.63 589.08 L 590.53 589.19 L 590.44 589.3 L 590.33 589.4 L 590.23 589.51 L 590.13 589.61 L 590.03 589.71 L 589.93 589.81 L 589.82 589.91 L 589.72 590 L 589.61 590.09 L 589.5 590.18 L 589.4 590.26 L 589.29 590.35 L 589.17 590.43 L 589.06 590.5 L 588.95 590.58 L 588.83 590.65 L 588.72 590.72 L 588.6 590.79 L 588.48 590.85 L 588.36 590.91 L 588.24 590.97 L 588.12 591.03 L 587.99 591.08 L 587.87 591.13 L 587.74 591.18 L 587.61 591.23 L 587.49 591.27 L 587.36 591.31 L 587.22 591.35 L 587.09 591.38 L 586.96 591.42 L 586.82 591.45 L 586.69 591.48 L 586.55 591.5 L 586.41 591.52 L 586.27 591.54 L 586.13 591.56 L 585.99 591.57 L 585.84 591.59 L 585.7 591.59 L 585.55 591.6 L 585.41 591.61 L 585.26 591.61 L 585.11 591.61 L 584.96 591.6 L 584.82 591.59 L 584.67 591.59 L 584.53 591.57 L 584.39 591.56 L 584.24 591.54 L 584.1 591.52 L 583.97 591.5 L 583.83 591.48 L 583.69 591.45 L 583.56 591.42 L 583.42 591.38 L 583.29 591.35 L 583.16 591.31 L 583.03 591.27 L 582.9 591.23 L 582.78 591.18 L 582.65 591.13 L 582.53 591.08 L 582.4 591.03 L 582.28 590.97 L 582.16 590.91 L 582.04 590.85 L 581.92 590.79 L 581.8 590.72 L 581.69 590.65 L 581.57 590.58 L 581.46 590.5 L 581.34 590.43 L 581.23 590.35 L 581.12 590.26 L 581.01 590.18 L 580.91 590.09 L 580.8 590 L 580.7 589.91 L 580.59 589.81 L 580.49 589.71 L 580.39 589.61 L 580.29 589.51 L 558.41 567.75 L 558.39 567.77 L 558.36 567.8 L 558.33 567.83 L 558.3 567.86 L 558.27 567.89 L 558.24 567.92 L 558.2 567.95 L 558.17 567.98 L 558.14 568.01 L 558.1 568.04 L 558.07 568.07 L 558.03 568.11 L 558 568.14 L 557.96 568.17 L 557.92 568.21 L 557.88 568.24 L 557.84 568.27 L 557.81 568.31 L 557.76 568.34 L 557.72 568.38 L 557.68 568.42 L 557.64 568.45 L 557.6 568.49 L 557.55 568.53 L 557.51 568.57 L 557.46 568.6 L 557.42 568.64 L 557.37 568.68 L 557.32 568.72 L 557.27 568.76 L 557.23 568.8 L 557.18 568.84 L 557.13 568.88 L 557.08 568.92 L 557.02 568.97 L 556.97 569.01 L 556.92 569.05 L 556.87 569.09 L 556.81 569.14 L 556.76 569.18 L 556.7 569.23 L 556.64 569.27 L 556.58 569.32 L 556.51 569.37 L 556.44 569.43 L 556.37 569.48 L 556.3 569.53 L 556.22 569.59 L 556.14 569.65 L 556.05 569.71 L 555.97 569.77 L 555.87 569.84 L 555.78 569.9 L 555.69 569.97 L 555.59 570.04 L 555.48 570.11 L 555.38 570.18 L 555.27 570.26 L 555.16 570.33 L 555.04 570.41 L 554.93 570.49 L 554.81 570.57 L 554.68 570.66 L 554.56 570.74 L 554.43 570.83 L 554.29 570.92 L 554.16 571.01 L 554.02 571.1 L 553.88 571.19 L 553.73 571.29 L 553.58 571.38 L 553.43 571.48 L 553.28 571.58 L 553.12 571.68 L 552.96 571.79 L 552.8 571.89 L 552.63 572 L 552.46 572.11 L 552.29 572.22 L 552.12 572.33 L 551.94 572.44 L 551.76 572.56 L 551.59 572.67 L 551.41 572.78 L 551.23 572.89 L 551.05 573 L 550.88 573.11 L 550.7 573.22 L 550.52 573.32 L 550.34 573.43 L 550.16 573.54 L 549.99 573.64 L 549.81 573.75 L 549.63 573.85 L 549.45 573.96 L 549.27 574.06 L 549.09 574.17 L 548.91 574.27 L 548.73 574.37 L 548.55 574.47 L 548.37 574.57 L 548.2 574.67 L 548.02 574.77 L 547.84 574.87 L 547.66 574.97 L 547.47 575.06 L 547.29 575.16 L 547.11 575.26 L 546.93 575.35 L 546.75 575.45 L 546.57 575.54 L 546.39 575.64 L 546.21 575.73 L 546.03 575.82 L 545.85 575.91 L 545.66 576 L 545.48 576.09 L 545.3 576.18 L 545.12 576.27 L 544.94 576.36 L 544.75 576.45 L 544.57 576.54 L 544.38 576.63 L 544.19 576.71 L 544 576.8 L 543.8 576.89 L 543.61 576.97 L 543.41 577.06 L 543.21 577.14 L 543 577.23 L 542.8 577.31 L 542.59 577.39 L 542.38 577.48 L 542.17 577.56 L 541.95 577.64 L 541.74 577.72 L 541.52 577.81 L 541.3 577.89 L 541.07 577.97 L 540.85 578.05 L 540.62 578.13 L 540.39 578.21 L 540.16 578.29 L 539.93 578.36 L 539.69 578.44 L 539.45 578.52 L 539.21 578.6 L 538.97 578.67 L 538.72 578.75 L 538.47 578.83 L 538.22 578.9 L 537.97 578.98 L 537.72 579.05 L 537.46 579.13 L 537.2 579.2 L 536.94 579.28 L 536.68 579.35 L 536.41 579.42 L 536.15 579.49 L 535.88 579.57 L 535.61 579.64 L 535.34 579.71 L 535.07 579.77 L 534.8 579.84 L 534.53 579.9 L 534.26 579.96 L 533.99 580.02 L 533.72 580.08 L 533.45 580.14 L 533.18 580.19 L 532.91 580.25 L 532.64 580.3 L 532.37 580.35 L 532.1 580.4 L 531.83 580.44 L 531.56 580.49 L 531.3 580.53 L 531.03 580.57 L 530.76 580.61 L 530.49 580.64 L 530.22 580.68 L 529.96 580.71 L 529.69 580.74 L 529.42 580.77 L 529.16 580.8 L 528.89 580.83 L 528.62 580.85 L 528.35 580.87 L 528.09 580.89 L 527.82 580.91 L 527.55 580.93 L 527.29 580.95 L 527.02 580.96 L 526.76 580.97 L 526.49 580.98 L 526.23 580.99 L 525.96 581 L 525.69 581 L 525.43 581 L 525.16 581 L 525.16 482.02 L 511.02 482.02 L 511.02 581 L 510.74 581 L 510.46 581 L 510.18 581 L 509.9 580.99 L 509.62 580.98 L 509.33 580.97 L 509.05 580.96 L 508.77 580.94 L 508.49 580.93 L 508.21 580.91 L 507.93 580.89 L 507.65 580.87 L 507.37 580.85 L 507.09 580.82 L 506.81 580.79 L 506.53 580.76 L 506.24 580.73 L 505.96 580.7 L 505.68 580.67 L 505.4 580.63 L 505.12 580.59 L 504.84 580.55 L 504.56 580.51 L 504.28 580.47 L 504 580.42 L 503.72 580.37 L 503.44 580.32 L 503.16 580.27 L 502.88 580.22 L 502.6 580.16 L 502.32 580.11 L 502.04 580.05 L 501.76 579.99 L 501.49 579.92 L 501.21 579.86 L 500.93 579.79 L 500.65 579.73 L 500.37 579.66 L 500.09 579.58 L 499.81 579.51 L 499.53 579.44 L 499.26 579.36 L 498.98 579.28 L 498.71 579.21 L 498.44 579.13 L 498.17 579.05 L 497.91 578.97 L 497.64 578.89 L 497.38 578.81 L 497.12 578.72 L 496.86 578.64 L 496.6 578.56 L 496.35 578.47 L 496.1 578.39 L 495.84 578.3 L 495.6 578.21 L 495.35 578.12 L 495.1 578.03 L 494.86 577.94 L 494.62 577.85 L 494.38 577.76 L 494.14 577.67 L 493.91 577.58 L 493.67 577.48 L 493.44 577.39 L 493.21 577.29 L 492.98 577.2 L 492.76 577.1 L 492.53 577 L 492.31 576.9 L 492.09 576.8 L 491.87 576.7 L 491.66 576.6 L 491.44 576.5 L 491.23 576.39 L 491.02 576.29 L 490.81 576.19 L 490.61 576.08 L 490.4 575.97 L 490.2 575.87 L 490 575.76 L 489.8 575.65 L 489.6 575.54 L 489.4 575.43 L 489.2 575.33 L 489.01 575.22 L 488.81 575.11 L 488.62 575 L 488.42 574.89 L 488.23 574.79 L 488.04 574.68 L 487.85 574.57 L 487.66 574.46 L 487.47 574.36 L 487.29 574.25 L 487.1 574.14 L 486.91 574.03 L 486.73 573.92 L 486.54 573.82 L 486.36 573.71 L 486.18 573.6 L 486 573.49 L 485.82 573.39 L 485.64 573.28 L 485.46 573.17 L 485.29 573.06 L 485.11 572.95 L 484.93 572.85 L 484.76 572.74 L 484.59 572.63 L 484.42 572.52 L 484.24 572.42 L 484.07 572.31 L 483.9 572.2 L 483.74 572.09 L 483.57 571.99 L 483.4 571.88 L 483.24 571.77 L 483.07 571.66 L 482.91 571.55 L 482.75 571.45 L 482.59 571.34 L 482.43 571.24 L 482.27 571.13 L 482.12 571.03 L 481.97 570.93 L 481.82 570.82 L 481.67 570.72 L 481.53 570.62 L 481.39 570.52 L 481.25 570.43 L 481.11 570.33 L 480.97 570.23 L 480.84 570.14 L 480.71 570.04 L 480.58 569.95 L 480.45 569.85 L 480.32 569.76 L 480.2 569.67 L 480.08 569.58 L 479.96 569.49 L 479.84 569.4 L 479.73 569.32 L 479.61 569.23 L 479.5 569.14 L 479.4 569.06 L 479.29 568.98 L 479.19 568.89 L 479.08 568.81 L 478.98 568.73 L 478.89 568.65 L 478.79 568.57 L 478.7 568.49 L 478.61 568.41 L 478.52 568.34 L 478.43 568.26 L 478.35 568.19 L 478.26 568.11 L 478.18 568.04 L 478.1 567.97 L 476.45 566.42 L 456.23 589.28 L 456.12 589.4 L 456.01 589.51 L 455.9 589.62 L 455.78 589.73 L 455.67 589.83 L 455.55 589.93 L 455.43 590.03 L 455.31 590.12 L 455.19 590.21 L 455.07 590.3 L 454.95 590.39 L 454.83 590.47 L 454.7 590.55 L 454.58 590.63 L 454.45 590.7 L 454.32 590.77 L 454.19 590.84 L 454.06 590.9 L 453.93 590.97 L 453.8 591.03 L 453.67 591.08 L 453.53 591.14 L 453.4 591.19 L 453.26 591.23 L 453.12 591.28 L 452.99 591.32 L 452.85 591.36 L 452.7 591.4 L 452.56 591.43 L 452.42 591.46 L 452.28 591.49 L 452.13 591.51 L 451.98 591.53 L 451.84 591.55 L 451.69 591.57 L 451.54 591.58 L 451.39 591.59 L 451.24 591.6 L 451.08 591.6 L 450.93 591.6 L 450.8 591.6 L 450.66 591.6 L 450.53 591.59 L 450.4 591.59 L 450.27 591.58 L 450.15 591.56 L 450.02 591.55 L 449.89 591.53 L 449.76 591.51 L 449.64 591.49 L 449.51 591.47 L 449.39 591.44 L 449.26 591.42 L 449.14 591.39 L 449.02 591.36 L 448.9 591.32 L 448.78 591.28 L 448.65 591.25 L 448.53 591.2 L 448.42 591.16 L 448.3 591.12 L 448.18 591.07 L 448.06 591.02 L 447.95 590.97 L 447.83 590.91 L 447.72 590.86 L 447.6 590.8 L 447.49 590.74 L 447.38 590.67 L 447.26 590.61 L 447.15 590.54 L 447.04 590.47 L 446.93 590.4 L 446.82 590.33 L 446.71 590.25 L 446.6 590.17 L 446.5 590.09 L 446.39 590.01 L 446.28 589.92 L 446.18 589.84 L 446.08 589.74 L 445.97 589.63 L 445.88 589.53 L 445.78 589.43 L 445.68 589.32 L 445.59 589.22 L 445.5 589.11 L 445.42 589 L 445.33 588.89 L 445.25 588.78 L 445.17 588.67 L 445.09 588.56 L 445.02 588.44 L 444.95 588.33 L 444.88 588.21 L 444.81 588.09 L 444.74 587.97 L 444.68 587.85 L 444.62 587.73 L 444.56 587.61 L 444.51 587.49 L 444.46 587.36 L 444.4 587.24 L 444.36 587.11 L 444.31 586.98 L 444.27 586.85 L 444.23 586.72 L 444.19 586.59 L 444.15 586.46 L 444.12 586.32 L 444.09 586.19 L 444.06 586.05 L 444.03 585.92 L 444.01 585.78 L 443.99 585.64 L 443.97 585.5 L 443.95 585.35 L 443.94 585.21 L 443.92 585.07 L 443.91 584.92 L 443.91 584.77 L 443.9 584.63 L 443.9 584.49 L 443.9 584.34 L 443.91 584.2 L 443.91 584.06 L 443.92 583.92 L 443.93 583.78 L 443.94 583.64 L 443.96 583.5 L 443.98 583.37 L 444 583.23 L 444.02 583.09 L 444.05 582.96 L 444.08 582.83 L 444.11 582.69 L 444.14 582.56 L 444.18 582.43 L 444.22 582.3 L 444.26 582.17 L 444.3 582.05 L 444.35 581.92 L 444.4 581.79 L 444.45 581.67 L 444.51 581.54 L 444.56 581.42 L 444.62 581.3 L 444.68 581.18 L 444.75 581.05 L 444.82 580.93 L 444.89 580.82 L 444.96 580.7 L 445.03 580.58 L 445.11 580.46 L 445.19 580.35 L 445.27 580.23 L 445.36 580.12 L 445.44 580.01 L 445.53 579.9 L 445.63 579.78 L 467.94 554.71 L 467.62 554.08 L 467.32 553.44 L 467.02 552.79 L 466.72 552.14 L 466.44 551.48 L 466.16 550.82 L 465.89 550.15 L 465.63 549.47 L 465.38 548.79 L 465.14 548.1 L 464.9 547.4 L 464.67 546.7 L 464.45 545.99 L 464.24 545.27 L 464.04 544.55 L 463.84 543.82 L 463.65 543.09 L 463.47 542.35 L 463.3 541.6 L 463.14 540.85 L 462.98 540.09 L 462.83 539.32 L 462.69 538.55 L 462.56 537.77 L 462.43 536.98 L 462.32 536.19 L 462.21 535.39 L 462.11 534.59 L 462.02 533.78 L 461.93 532.96 L 461.86 532.14 L 461.79 531.31 L 461.73 530.47 L 461.68 529.63 L 461.63 528.78 L 461.6 527.93 L 461.57 527.07 L 461.55 526.2 L 461.54 525.32 L 461.53 524.44 L 436.79 524.44 L 436.65 524.44 L 436.5 524.44 L 436.36 524.43 L 436.22 524.42 L 436.08 524.41 L 435.94 524.4 L 435.81 524.38 L 435.67 524.36 L 435.54 524.34 L 435.4 524.31 L 435.27 524.28 L 435.14 524.25 L 435 524.22 L 434.87 524.19 L 434.74 524.15 L 434.61 524.11 L 434.49 524.06 L 434.36 524.02 L 434.23 523.97 L 434.11 523.92 L 433.99 523.86 L 433.86 523.81 L 433.74 523.75 L 433.62 523.69 L 433.5 523.62 L 433.38 523.55 L 433.26 523.48 L 433.15 523.41 L 433.03 523.34 L 432.92 523.26 L 432.8 523.18 L 432.69 523.1 L 432.58 523.01 L 432.47 522.92 L 432.35 522.83 L 432.25 522.74 L 432.14 522.64 L 432.03 522.55 L 431.92 522.45 L 431.82 522.34 L 431.71 522.24 L 431.61 522.13 L 431.52 522.02 L 431.42 521.91 L 431.33 521.81 L 431.24 521.7 L 431.15 521.58 L 431.06 521.47 L 430.98 521.36 L 430.9 521.24 L 430.82 521.13 L 430.75 521.01 L 430.68 520.9 L 430.61 520.78 L 430.54 520.66 L 430.47 520.54 L 430.41 520.42 L 430.35 520.3 L 430.3 520.17 L 430.24 520.05 L 430.19 519.93 L 430.14 519.8 L 430.1 519.67 L 430.05 519.55 L 430.01 519.42 L 429.98 519.29 L 429.94 519.16 L 429.91 519.02 L 429.88 518.89 L 429.85 518.76 L 429.82 518.62 L 429.8 518.49 L 429.78 518.35 L 429.77 518.21 L 429.75 518.08 L 429.74 517.94 L 429.73 517.8 L 429.72 517.66 L 429.72 517.51 L 429.72 517.37 L 429.72 517.23 L 429.72 517.09 L 429.73 516.94 L 429.74 516.8 L 429.75 516.66 L 429.77 516.53 L 429.78 516.39 L 429.8 516.25 L 429.82 516.12 L 429.85 515.98 L 429.88 515.85 L 429.91 515.72 L 429.94 515.59 L 429.98 515.46 L 430.01 515.33 L 430.05 515.2 L 430.1 515.07 L 430.14 514.94 L 430.19 514.82 L 430.24 514.69 L 430.3 514.57 L 430.35 514.45 L 430.41 514.32 L 430.47 514.2 L 430.54 514.08 L 430.61 513.96 L 430.68 513.85 L 430.75 513.73 L 430.82 513.61 L 430.9 513.5 L 430.98 513.38 L 431.06 513.27 L 431.15 513.16 L 431.24 513.05 L 431.33 512.94 L 431.42 512.83 L 431.52 512.72 L 431.61 512.61 L 431.71 512.51 L 431.82 512.4 L 431.92 512.3 L 432.03 512.2 L 432.14 512.1 L 432.25 512 L 432.35 511.91 L 432.47 511.82 L 432.58 511.73 L 432.69 511.64 L 432.8 511.56 L 432.92 511.48 L 433.03 511.4 L 433.15 511.33 L 433.26 511.26 L 433.38 511.19 L 433.5 511.12 L 433.62 511.06 L 433.74 510.99 L 433.86 510.94 L 433.99 510.88 L 434.11 510.83 L 434.23 510.77 L 434.36 510.73 L 434.49 510.68 L 434.61 510.64 L 434.74 510.6 L 434.87 510.56 L 435 510.52 L 435.14 510.49 L 435.27 510.46 L 435.4 510.43 L 435.54 510.41 L 435.67 510.38 L 435.81 510.36 L 435.94 510.35 L 436.08 510.33 L 436.22 510.32 L 436.36 510.31 L 436.5 510.31 L 436.65 510.3 L 436.79 510.3 L 461.53 510.3 L 461.53 477.82 L 442.42 458.71 L 442.32 458.61 L 442.22 458.5 L 442.12 458.39 L 442.02 458.28 L 441.93 458.18 L 441.84 458.06 L 441.75 457.95 L 441.67 457.84 L 441.58 457.73 L 441.5 457.61 L 441.43 457.5 L 441.35 457.38 L 441.28 457.27 L 441.21 457.15 L 441.14 457.03 L 441.08 456.91 L 441.02 456.79 L 440.96 456.67 L 440.9 456.54 L 440.85 456.42 L 440.8 456.29 L 440.75 456.17 L 440.7 456.04 L 440.66 455.91 L 440.62 455.79 L 440.58 455.66 L 440.54 455.53 L 440.51 455.39 L 440.48 455.26 L 440.45 455.13 L 440.43 454.99 L 440.41 454.86 L 440.39 454.72 L 440.37 454.58 L 440.36 454.45 L 440.34 454.31 L 440.34 454.17 L 440.33 454.03 L 440.32 453.88 L 440.32 453.74 L 440.32 453.6 L 440.33 453.45 L 440.34 453.31 L 440.34 453.17 L 440.36 453.03 L 440.37 452.9 L 440.39 452.76 L 440.41 452.62 L 440.43 452.49 L 440.45 452.35 L 440.48 452.22 L 440.51 452.09 L 440.54 451.96 L 440.58 451.82 L 440.62 451.69 L 440.66 451.57 L 440.7 451.44 L 440.75 451.31 L 440.8 451.19 L 440.85 451.06 L 440.9 450.94 L 440.96 450.81 L 441.02 450.69 L 441.08 450.57 L 441.14 450.45 L 441.21 450.33 L 441.28 450.22 L 441.35 450.1 L 441.43 449.98 L 441.5 449.87 L 441.58 449.75 L 441.67 449.64 L 441.75 449.53 L 441.84 449.42 L 441.93 449.31 L 442.02 449.2 L 442.12 449.09 L 442.22 448.98 L 442.32 448.87 L 442.42 448.77 L 442.53 448.67 L 442.63 448.56 L 442.74 448.47 L 442.85 448.37 L 442.96 448.28 L 443.07 448.19 L 443.18 448.1 L 443.29 448.01 L 443.41 447.93 L 443.52 447.85 L 443.63 447.77 L 443.75 447.7 L 443.87 447.63 L 443.99 447.56 L 444.1 447.49 L 444.22 447.43 L 444.35 447.36 L 444.47 447.31 L 444.59 447.25 L 444.71 447.2 L 444.84 447.14 L 444.96 447.1 L 445.09 447.05 L 445.22 447.01 L 445.35 446.97 L 445.48 446.93 L 445.61 446.89 L 445.74 446.86 L 445.87 446.83 L 446.01 446.8 L 446.14 446.78 L 446.28 446.75 L 446.41 446.73 L 446.55 446.72 L 446.69 446.7 L 446.83 446.69 L 446.97 446.68 L 447.11 446.68 L 447.25 446.67 L 447.39 446.67 L 447.54 446.67 L 447.68 446.68 L 447.82 446.68 L 447.96 446.69 L 448.1 446.7 L 448.24 446.72 L 448.38 446.73 L 448.51 446.75 L 448.65 446.78 L 448.78 446.8 L 448.91 446.83 L 449.05 446.86 L 449.18 446.89 L 449.31 446.93 L 449.44 446.97 L 449.57 447.01 L 449.7 447.05 L 449.82 447.1 L 449.95 447.14 L 450.07 447.2 L 450.2 447.25 L 450.32 447.31 L 450.44 447.36 L 450.56 447.43 L 450.68 447.49 L 450.8 447.56 L 450.92 447.63 L 451.04 447.7 L 451.15 447.77 L 451.27 447.85 L 451.38 447.93 L 451.49 448.01 L 451.61 448.1 L 451.72 448.19 L 451.83 448.28 L 451.94 448.37 L 452.05 448.47 L 452.15 448.56 L 452.26 448.67 L 452.36 448.77 L 471.48 467.88 L 564.71 467.88 L 583.82 448.77 L 583.93 448.67 L 584.03 448.56 L 584.14 448.47 L 584.25 448.37 L 584.36 448.28 L 584.47 448.19 L 584.58 448.1 L 584.69 448.01 L 584.8 447.93 L 584.92 447.85 L 585.03 447.77 L 585.15 447.7 L 585.27 447.63 L 585.38 447.56 L 585.5 447.49 L 585.62 447.43 L 585.74 447.36 L 585.87 447.31 L 585.99 447.25 L 586.11 447.2 L 586.24 447.14 L 586.36 447.1 L 586.49 447.05 L 586.62 447.01 L 586.75 446.97 L 586.88 446.93 L 587.01 446.89 L 587.14 446.86 L 587.27 446.83 L 587.4 446.8 L 587.54 446.78 L 587.67 446.75 L 587.81 446.73 L 587.95 446.72 L 588.09 446.7 L 588.22 446.69 L 588.36 446.68 L 588.51 446.68 L 588.65 446.67 L 588.79 446.67 L 588.93 446.67 L 589.08 446.68 L 589.08 446.68 L 589.22 446.68 Z M 520.51 418.46 L 521.31 418.52 L 522.09 418.59 L 522.87 418.68 L 523.64 418.78 L 524.41 418.9 L 525.17 419.04 L 525.92 419.19 L 526.67 419.36 L 527.41 419.54 L 528.14 419.74 L 528.86 419.96 L 529.58 420.19 L 530.29 420.43 L 531 420.7 L 531.7 420.98 L 532.39 421.27 L 533.07 421.58 L 533.75 421.91 L 534.42 422.25 L 535.09 422.61 L 535.75 422.98 L 536.4 423.37 L 537.04 423.78 L 537.68 424.2 L 538.31 424.64 L 538.93 425.1 L 539.55 425.57 L 540.16 426.05 L 540.77 426.55 L 541.36 427.07 L 541.95 427.61 L 542.54 428.16 L 543.12 428.72 L 543.68 429.3 L 544.23 429.88 L 544.77 430.47 L 545.28 431.07 L 545.79 431.68 L 546.27 432.29 L 546.74 432.9 L 547.2 433.53 L 547.63 434.16 L 548.06 434.8 L 548.46 435.44 L 548.85 436.09 L 549.23 436.75 L 549.59 437.42 L 549.93 438.09 L 550.26 438.77 L 550.57 439.45 L 550.86 440.14 L 551.14 440.84 L 551.4 441.55 L 551.65 442.26 L 551.88 442.98 L 552.1 443.7 L 552.3 444.43 L 552.48 445.17 L 552.65 445.92 L 552.8 446.67 L 552.93 447.43 L 553.05 448.19 L 553.16 448.97 L 553.24 449.75 L 553.32 450.53 L 553.37 451.32 L 553.41 452.12 L 553.43 452.93 L 553.44 453.74 L 482.75 453.74 L 482.76 452.93 L 482.78 452.12 L 482.82 451.32 L 482.87 450.53 L 482.95 449.75 L 483.03 448.97 L 483.14 448.19 L 483.26 447.43 L 483.39 446.67 L 483.54 445.92 L 483.71 445.17 L 483.89 444.43 L 484.09 443.7 L 484.31 442.98 L 484.54 442.26 L 484.79 441.55 L 485.05 440.84 L 485.33 440.14 L 485.62 439.45 L 485.93 438.77 L 486.26 438.09 L 486.6 437.42 L 486.96 436.75 L 487.34 436.09 L 487.73 435.44 L 488.13 434.8 L 488.56 434.16 L 488.99 433.53 L 489.45 432.9 L 489.92 432.29 L 490.4 431.68 L 490.91 431.07 L 491.42 430.47 L 491.96 429.88 L 492.51 429.3 L 493.07 428.72 L 493.65 428.16 L 494.24 427.61 L 494.83 427.07 L 495.42 426.55 L 496.03 426.05 L 496.64 425.57 L 497.26 425.1 L 497.88 424.64 L 498.51 424.2 L 499.15 423.78 L 499.79 423.37 L 500.44 422.98 L 501.1 422.61 L 501.77 422.25 L 502.44 421.91 L 503.12 421.58 L 503.8 421.27 L 504.49 420.98 L 505.19 420.7 L 505.9 420.43 L 506.61 420.19 L 507.33 419.96 L 508.05 419.74 L 508.78 419.54 L 509.52 419.36 L 510.27 419.19 L 511.02 419.04 L 511.78 418.9 L 512.55 418.78 L 513.32 418.68 L 514.1 418.59 L 514.88 418.52 L 515.68 418.46 L 516.48 418.42 L 517.28 418.4 L 518.1 418.39 L 518.91 418.4 L 519.71 418.42 L 519.71 418.42 L 520.51 418.46 Z" stroke-linecap="round" />
</g>
</g>
</g>
<g transform="matrix(0.64 -1.74 1.74 0.64 628.76 701.47)"  >
<g style=""   >
		<g transform="matrix(1 0 0 1 1.19 -0.3)"  >
<path style="stroke: none; stroke-width: 1; stroke-dasharray: none; stroke-linecap: butt; stroke-dashoffset: 0; stroke-linejoin: miter; stroke-miterlimit: 4; fill: rgb(147,86,255); fill-rule: nonzero; opacity: 1;"  transform=" translate(-276.39, -477.84)" d="M 238.15 517.37 C 234.39 524.03 236.74 532.47 243.39 536.24 C 245.8 537.6 240.98 534.87 243.39 536.24 C 250.05 540 258.49 537.65 262.25 530.99 C 274.09 510.05 302.8 459.25 314.64 438.3 C 318.4 431.64 316.05 423.2 309.4 419.44 C 306.99 418.08 311.81 420.8 309.4 419.44 C 302.74 415.68 294.3 418.02 290.54 424.68 C 278.7 445.63 249.99 496.43 238.15 517.37 Z" stroke-linecap="round" />
</g>
		<g transform="matrix(1 0 0 1 0 0)"  >
<path style="stroke: none; stroke-width: 1; stroke-dasharray: none; stroke-linecap: butt; stroke-dashoffset: 0; stroke-linejoin: miter; stroke-miterlimit: 4; fill: rgb(97,26,168); fill-rule: nonzero; opacity: 1;"  transform=" translate(-275.21, -478.14)" d="M 251.3 496.45 L 252.67 496.61 L 254.04 496.83 L 255.4 497.12 L 256.76 497.48 L 258.11 497.9 L 259.45 498.4 L 260.78 498.96 L 262.09 499.59 L 263.39 500.3 L 264.7 501.09 L 265.95 501.92 L 267.14 502.8 L 268.28 503.71 L 269.35 504.66 L 270.37 505.65 L 271.34 506.67 L 272.25 507.72 L 273.1 508.8 L 273.9 509.91 L 274.65 511.05 L 275.34 512.21 L 275.98 513.4 L 276.56 514.6 L 277.1 515.83 L 277.58 517.07 L 278.01 518.34 L 278.4 519.61 L 278.73 520.9 L 279.01 522.2 L 279.24 523.51 L 279.43 524.83 L 279.56 526.15 L 279.65 527.48 L 279.69 528.81 L 279.69 530.14 L 279.64 531.47 L 279.54 532.8 L 279.4 534.12 L 279.22 535.44 L 278.99 536.75 L 278.71 538.05 L 278.4 539.34 L 278.04 540.62 L 277.64 541.88 L 277.2 543.12 L 276.71 544.35 L 276.19 545.56 L 275.63 546.74 L 275.03 547.91 L 274.33 549.12 L 273.58 550.33 L 272.78 551.52 L 271.91 552.69 L 270.99 553.84 L 270.02 554.98 L 269 556.1 L 267.93 557.2 L 266.81 558.27 L 265.65 559.32 L 264.44 560.35 L 263.19 561.35 L 261.9 562.32 L 260.57 563.27 L 259.2 564.18 L 257.8 565.07 L 256.36 565.92 L 254.89 566.74 L 253.39 567.53 L 251.86 568.28 L 250.3 568.99 L 248.72 569.67 L 247.11 570.3 L 245.48 570.9 L 243.83 571.45 L 242.16 571.96 L 240.47 572.43 L 238.76 572.85 L 237.04 573.22 L 235.31 573.55 L 233.57 573.83 L 231.81 574.05 L 230.05 574.23 L 228.29 574.35 L 226.52 574.42 L 224.74 574.43 L 222.97 574.39 L 221.19 574.29 L 219.42 574.13 L 217.65 573.91 L 217.41 573.86 L 217.17 573.81 L 216.93 573.75 L 216.7 573.67 L 216.48 573.59 L 216.27 573.49 L 216.06 573.39 L 215.86 573.27 L 215.66 573.15 L 215.48 573.02 L 215.3 572.88 L 215.12 572.73 L 214.96 572.58 L 214.8 572.42 L 214.65 572.25 L 214.51 572.07 L 214.38 571.89 L 214.26 571.7 L 214.14 571.51 L 214.04 571.31 L 213.94 571.11 L 213.86 570.9 L 213.78 570.69 L 213.71 570.48 L 213.65 570.26 L 213.61 570.04 L 213.57 569.82 L 213.54 569.59 L 213.53 569.37 L 213.52 569.14 L 213.53 568.91 L 213.54 568.68 L 213.57 568.45 L 213.61 568.22 L 213.66 567.99 L 213.73 567.76 L 213.8 567.54 L 213.89 567.31 L 213.99 567.09 L 214.1 566.86 L 214.74 565.61 L 215.29 564.37 L 215.76 563.14 L 216.15 561.93 L 216.47 560.74 L 216.72 559.55 L 216.9 558.38 L 217.03 557.21 L 217.1 556.06 L 217.11 554.91 L 217.09 553.76 L 217.02 552.62 L 216.91 551.49 L 216.77 550.35 L 216.61 549.22 L 216.42 548.08 L 216.21 546.95 L 215.99 545.81 L 215.75 544.67 L 215.52 543.52 L 215.28 542.36 L 215.05 541.2 L 214.82 540.02 L 214.61 538.84 L 214.42 537.64 L 214.25 536.43 L 214.11 535.21 L 214 533.97 L 213.92 532.71 L 213.89 531.44 L 213.9 530.15 L 213.96 528.83 L 214.08 527.5 L 214.26 526.14 L 214.5 524.75 L 214.8 523.34 L 215.19 521.91 L 215.64 520.44 L 216.18 518.95 L 216.81 517.42 L 217.41 516.13 L 218.06 514.87 L 218.75 513.64 L 219.5 512.45 L 220.29 511.28 L 221.12 510.16 L 222 509.06 L 222.92 508.01 L 223.88 506.99 L 224.88 506.01 L 225.91 505.07 L 226.97 504.18 L 228.07 503.32 L 229.2 502.51 L 230.35 501.75 L 231.54 501.03 L 232.74 500.35 L 233.97 499.73 L 235.23 499.15 L 236.5 498.62 L 237.79 498.15 L 239.1 497.72 L 240.42 497.35 L 241.75 497.04 L 243.1 496.78 L 244.45 496.57 L 245.81 496.43 L 247.18 496.34 L 248.55 496.32 L 249.92 496.35 L 251.3 496.45 Z M 292.01 492.68 L 291.54 493.35 L 291.07 494.02 L 290.6 494.69 L 290.13 495.34 L 289.68 495.99 L 289.22 496.63 L 288.77 497.26 L 288.32 497.88 L 287.88 498.5 L 287.45 499.11 L 287.02 499.71 L 286.59 500.3 L 286.17 500.88 L 285.76 501.45 L 285.35 502.01 L 284.95 502.57 L 284.55 503.11 L 284.16 503.65 L 283.78 504.17 L 283.4 504.69 L 283.03 505.2 L 282.66 505.69 L 281.73 504.3 L 280.75 502.94 L 279.7 501.62 L 278.59 500.33 L 277.42 499.09 L 276.2 497.89 L 274.93 496.74 L 273.61 495.64 L 272.23 494.59 L 270.81 493.59 L 269.34 492.65 L 267.83 491.77 L 266.28 490.95 L 264.69 490.2 L 263.05 489.51 L 261.38 488.89 L 259.68 488.34 L 257.94 487.87 L 256.17 487.47 L 254.38 487.16 L 252.55 486.92 L 250.7 486.77 L 248.82 486.71 L 249.05 486.12 L 249.29 485.52 L 249.53 484.91 L 249.78 484.29 L 250.03 483.66 L 250.29 483.01 L 250.55 482.36 L 250.82 481.69 L 251.09 481.02 L 251.37 480.33 L 251.65 479.64 L 251.94 478.94 L 252.23 478.22 L 252.53 477.5 L 252.83 476.77 L 253.13 476.03 L 253.44 475.29 L 253.75 474.53 L 254.07 473.77 L 254.39 473 L 254.72 472.22 L 255.05 471.43 L 255.39 470.64 L 292.49 491.99 L 292.01 492.68 Z M 321.52 381.92 L 322.26 382.01 L 322.98 382.12 L 323.7 382.27 L 324.41 382.45 L 325.11 382.65 L 325.79 382.89 L 326.46 383.16 L 327.12 383.45 L 327.76 383.78 L 328.39 384.13 L 329 384.51 L 329.59 384.91 L 330.17 385.35 L 330.73 385.81 L 331.27 386.3 L 331.79 386.81 L 332.29 387.35 L 332.76 387.91 L 333.22 388.5 L 333.65 389.11 L 334.06 389.74 L 334.44 390.4 L 334.8 391.08 L 335.13 391.79 L 335.44 392.52 L 335.72 393.27 L 335.96 394.04 L 336.18 394.83 L 336.38 395.64 L 336.68 397.4 L 336.85 399.23 L 336.9 401.15 L 336.84 403.14 L 336.66 405.2 L 336.38 407.32 L 336 409.5 L 335.52 411.74 L 334.94 414.03 L 334.28 416.36 L 333.54 418.73 L 332.72 421.14 L 331.82 423.57 L 330.86 426.04 L 329.84 428.53 L 328.75 431.03 L 327.62 433.55 L 326.43 436.07 L 325.2 438.6 L 323.94 441.12 L 322.64 443.64 L 321.31 446.15 L 319.95 448.64 L 318.58 451.11 L 317.19 453.56 L 315.79 455.97 L 314.39 458.36 L 312.99 460.7 L 311.59 463 L 310.21 465.25 L 308.84 467.45 L 307.48 469.59 L 306.16 471.66 L 304.86 473.67 L 303.59 475.61 L 302.37 477.47 L 301.19 479.25 L 300.06 480.94 L 298.98 482.55 L 297.96 484.05 L 259.22 461.76 L 259.95 460.11 L 260.73 458.37 L 261.55 456.53 L 262.42 454.61 L 263.34 452.61 L 264.3 450.54 L 265.29 448.41 L 266.33 446.21 L 267.41 443.97 L 268.53 441.68 L 269.68 439.34 L 270.87 436.98 L 272.09 434.59 L 273.34 432.17 L 274.63 429.75 L 275.94 427.31 L 277.28 424.88 L 278.65 422.45 L 280.05 420.03 L 281.47 417.63 L 282.92 415.25 L 284.38 412.91 L 285.87 410.6 L 287.37 408.33 L 288.9 406.12 L 290.44 403.95 L 291.99 401.86 L 293.57 399.83 L 295.15 397.87 L 296.74 396 L 298.35 394.22 L 299.96 392.53 L 301.58 390.94 L 303.21 389.46 L 304.84 388.09 L 306.48 386.84 L 308.12 385.72 L 309.75 384.73 L 311.39 383.88 L 313.03 383.17 L 313.82 382.89 L 314.6 382.64 L 315.39 382.42 L 316.17 382.24 L 316.95 382.1 L 317.72 381.98 L 318.5 381.91 L 319.26 381.86 L 320.02 381.85 L 320.77 381.87 L 321.52 381.92 Z" stroke-linecap="round" />
</g>
</g>
</g>
<g transform="matrix(1 0 0 1 304.45 519.25)"  >
<g style=""   >
		<g transform="matrix(1 -0.04 0.04 1 33.2 156.33)"  >
<g style=""   >
		<g transform="matrix(0.71 0.09 -0.13 0.99 19 -158.18)"  >
<polygon style="stroke: rgb(0,0,0); stroke-width: 0; stroke-dasharray: none; stroke-linecap: butt; stroke-dashoffset: 0; stroke-linejoin: miter; stroke-miterlimit: 4; fill: rgb(147,86,255); fill-rule: nonzero; opacity: 1;"  points="-50,-50 -50,50 50,50 50,-50 " />
</g>
		<g transform="matrix(0.8 -0.61 0.61 0.8 0 6.18)"  >
<path style="stroke: none; stroke-width: 0; stroke-dasharray: none; stroke-linecap: butt; stroke-dashoffset: 0; stroke-linejoin: miter; stroke-miterlimit: 4; fill: rgb(97,26,168); fill-rule: nonzero; opacity: 1;"  transform=" translate(-144.18, -352)" d="M 16.128 406.126 C 5.739 416.515 0 430.339 0 446.296 c 0 30.357 24.683 55.04 55.04 55.04 c 15.467 0 30.315 -6.571 40.725 -18.005 L 288.363 271.47 l -68.779 -68.8 L 16.128 406.126 z" stroke-linecap="round" />
</g>
</g>
</g>
		<g transform="matrix(1 0 0 1 72.79 -321.11)"  >
<g style=""   >
		<g transform="matrix(1 0 0 1 -70.71 -10.13)"  >
<g style=""   >
		<g transform="matrix(-0.34 -0.54 0.54 -0.34 -54.17 4.48)"  >
<path style="stroke: rgb(0,0,0); stroke-width: 0; stroke-dasharray: none; stroke-linecap: butt; stroke-dashoffset: 0; stroke-linejoin: miter; stroke-miterlimit: 4; fill: rgb(97,26,168); fill-rule: nonzero; opacity: 1;"  transform=" translate(-62.2, -20.73)" d="m 20.013628 0 l 84.37401 0 l 0 0 c 11.053215 -1.04756605e-14 20.013626 9.282301 20.013626 20.7326 c 0 11.450296 -8.960411 20.7326 -20.013626 20.7326 l -84.37401 0 l 0 0 c -11.053222 0 -20.013628 -9.282303 -20.013628 -20.7326 c -5.2380687e-15 -11.450298 8.960406 -20.7326 20.013628 -20.7326 z" stroke-linecap="round" />
</g>
		<g transform="matrix(0.05 -0.64 0.64 0.05 70.05 -4.47)"  >
<path style="stroke: rgb(0,0,0); stroke-width: 0; stroke-dasharray: none; stroke-linecap: butt; stroke-dashoffset: 0; stroke-linejoin: miter; stroke-miterlimit: 4; fill: rgb(97,26,168); fill-rule: nonzero; opacity: 1;"  transform=" translate(-62.2, -20.73)" d="m 20.013628 0 l 84.37401 0 l 0 0 c 11.053215 -1.04756605e-14 20.013626 9.282301 20.013626 20.7326 c 0 11.450296 -8.960411 20.7326 -20.013626 20.7326 l -84.37401 0 l 0 0 c -11.053222 0 -20.013628 -9.282303 -20.013628 -20.7326 c -5.2380687e-15 -11.450298 8.960406 -20.7326 20.013628 -20.7326 z" stroke-linecap="round" />
</g>
</g>
</g>
		<g transform="matrix(0.43 -0.48 -0.48 -0.43 120.78 16.92)"  >
<path style="stroke: rgb(0,0,0); stroke-width: 0; stroke-dasharray: none; stroke-linecap: butt; stroke-dashoffset: 0; stroke-linejoin: miter; stroke-miterlimit: 4; fill: rgb(97,26,168); fill-rule: nonzero; opacity: 1;"  transform=" translate(-62.2, -20.73)" d="m 20.013628 0 l 84.37401 0 l 0 0 c 11.053215 -1.04756605e-14 20.013626 9.282301 20.013626 20.7326 c 0 11.450296 -8.960411 20.7326 -20.013626 20.7326 l -84.37401 0 l 0 0 c -11.053222 0 -20.013628 -9.282303 -20.013628 -20.7326 c -5.2380687e-15 -11.450298 8.960406 -20.7326 20.013628 -20.7326 z" stroke-linecap="round" />
</g>
</g>
</g>
		<g transform="matrix(1 0 0 1 0 -136.56)"  >
<g style=""   >
		<g transform="matrix(1 -0.04 0.04 1 -41.98 -21.16)"  >
<path style="stroke: rgb(0,0,0); stroke-width: 1; stroke-dasharray: none; stroke-linecap: round; stroke-dashoffset: 0; stroke-linejoin: round; stroke-miterlimit: 10; fill: none; fill-rule: nonzero; opacity: 1;"  transform=" translate(-167.4, -535)" d="M 167.39899389648437 535 L 167.40099389648438 535" stroke-linecap="round" />
</g>
		<g transform="matrix(-0.21 2.16 -2.16 -0.21 204.96 -0.37)"  >
<path style="stroke: rgb(0,0,0); stroke-width: 0; stroke-dasharray: none; stroke-linecap: butt; stroke-dashoffset: 0; stroke-linejoin: miter; stroke-miterlimit: 4; fill: rgb(97,26,168); fill-rule: nonzero; opacity: 1;"  transform=" translate(-48, -48)" d="M 9.113 65.022 C 11.683 45.575 28.302 30.978 48 30.978 c 19.696 0 36.316 14.598 38.887 34.045 H 9.113 z" stroke-linecap="round" />
</g>
		<g transform="matrix(0.39 -0.4 0.4 0.39 -67.09 0)"  >
<path style="stroke: none; stroke-width: 0; stroke-dasharray: none; stroke-linecap: butt; stroke-dashoffset: 0; stroke-linejoin: miter; stroke-miterlimit: 4; fill: rgb(97,26,168); fill-rule: nonzero; opacity: 1;"  transform=" translate(-696.05, -204.27)" d="M 983.597900390625 154.4254913330078 C 936.794189453125 107.6244888305664 858.3584594726562 29.188692092895508 700.3189697265625 29.188692092895508 C 542.3970336914062 29.188692092895508 469.9714660644531 101.6142807006836 417.0399475097656 154.4281768798828 C 408.6936340332031 162.7745361328125 406.18505859375 175.32015991210938 410.7370910644531 186.23526000976562 C 415.23175048828125 197.14744567871094 425.9115905761719 204.26841735839844 437.6993713378906 204.26841735839844 C 673.06396484375 204.26841735839844 700.3189697265625 304.1815185546875 700.3189697265625 379.34814453125" stroke-linecap="round" />
</g>
		<g transform="matrix(-1.72 -0.17 0.2 -2.06 25.69 -17.17)"  >
<path style="stroke: rgb(75,22,134); stroke-width: 10; stroke-dasharray: none; stroke-linecap: butt; stroke-dashoffset: 0; stroke-linejoin: miter; stroke-miterlimit: 4; fill: rgb(97,26,168); fill-rule: nonzero; opacity: 1;"  transform=" translate(-57.95, -51.83)" d="m 0 0 l 57.952755 0 l 0 0 c 32.006428 -1.4055393e-14 57.952755 23.203636 57.952755 51.82677 c 0 28.623135 -25.946327 51.82677 -57.952755 51.82677 l -57.952755 0 z" stroke-linecap="round" />
</g>
		<g transform="matrix(-0.04 0.38 -1.47 -0.14 2.92 -21.57)"  >
<polygon style="stroke: rgb(0,0,0); stroke-width: 0; stroke-dasharray: none; stroke-linecap: butt; stroke-dashoffset: 0; stroke-linejoin: miter; stroke-miterlimit: 4; fill: rgb(147,86,255); fill-rule: nonzero; opacity: 1;"  points="-50,-50 -50,50 50,50 50,-50 " />
</g>
		<g transform="matrix(-1.72 -0.17 0.2 -2.05 24.8 -16.91)"  >
<path style="stroke: rgb(75,22,134); stroke-width: 10; stroke-dasharray: none; stroke-linecap: butt; stroke-dashoffset: 0; stroke-linejoin: miter; stroke-miterlimit: 4; fill: rgb(97,26,168); fill-opacity: 0; fill-rule: nonzero; opacity: 1;"  transform=" translate(-57.95, -51.83)" d="m 0 0 l 57.952755 0 l 0 0 c 32.006428 -1.4055393e-14 57.952755 23.203636 57.952755 51.82677 c 0 28.623135 -25.946327 51.82677 -57.952755 51.82677 l -57.952755 0 z" stroke-linecap="round" />
</g>
</g>
</g>
</g>
</g>
</svg>