<svg version="1.2" xmlns="http://www.w3.org/2000/svg" viewBox="0 0 900 1000" width="900" height="1000">
	<title>beyond_regex_icon_v2-svg</title>
	<style>
		.s0 { fill: #ffffff } 
		.s1 { opacity: .5;fill: #ffffff } 
		.s2 { fill: #ffffff;stroke: #ffffff;stroke-linecap: round;stroke-linejoin: round;stroke-width: 25 } 
	</style>
	<g id="Layer copy 36">
		<path id="Relleno de color sólido 1 copy 4" class="s0" d="m441.7 898.4c5.6-0.9 15-1.5 25.9-2.3c11-0.8 23.5-1.8 35.3-3.3c12.9-0.6 24.6-2.1 34-3.5c9.5-1.3 16.7-2.4 20.5-1.8c12 0.1 13.7 15.9 14.2 25.7c2.8 3.8 10.4 7.1 18.4 10.2c7.9 3.1 16.2 6.1 20.7 9.1c4.6 2.9 5.3 5.9-2 9.1c-3.6 1.6-9.3 3.3-17.5 5.1c-8.1 1.8-18.8 3.7-32.6 5.7c-17.2 1.4-28.1 2.1-34.7 2.6c-6.7 0.4-9.1 0.5-9.5 0.7c-0.8 0.4-18.5 1.2-21.3 1.4c-2.8 0.2-9.4 0.7-14.7 1.1c-5.3 0.2-10.8 0.4-12.3 0.6c-1.5 0.2-8.9-0.1-11.3 0c-2.5 0.1-8.3 0.3-11.3 0.5c-2.9 0.1-9.8-0.2-16.5-0.1c-6.7-0.1-17.6-0.4-24.1-0.7c-6.6-0.6-17.4-1-23.7-1.4c-1.8-0.2-7.8-0.5-15.8-0.8c-8.1-0.4-18.2-0.7-28.2-1c-10.1-0.2-20.1-0.4-28-0.5c-7.8-0.1-13.5-0.2-14.8-0.3c-4.5-0.2-14.4-1-10.3-4.6c1.2-1.5 10.7-2.1 20.7-2.4c10-0.3 20.4-0.2 23.3-0.6c9.7 0.1 24.9 0 29-0.2c4.1-0.3 12.7-0.1 13.1-2.6c-1.7-2.5-1.7-3.7-3.6-3.6c-1.8 0.2-6 0-9.3-0.2c-3.4-0.4-6.3-0.9-6.4-1.2c-0.2-0.4 1.1-0.7 2.8-0.8c1.7-0.1 3.1-0.6 3.1-1.2c0-0.9-0.8-1.1-5.6-1.4c-3.1-0.2-11.6-0.4-19-0.5c-7.6-0.4-18.5-0.8-24.2-0.8c-5.7-0.1-11.3-0.5-12.5-0.9c-1.1-0.5 0.7-0.9 4.2-0.9c3.4-0.1 10.2 0.2 15 0.6c4.7 0.3 12.2 0.4 16.6 0.2c4.3-0.3 7.9-0.8 8-1.2c0.1-0.3-0.6-1.1-1.5-1.6c-1-0.7-4.4-1.1-10.6-1.2c-5.2-0.3-9.9-1-10.6-1.5c-0.6-0.4-0.5-1.5 0.2-2.2c0.7-0.8 3-1.4 5.1-1.4c2 0 8 0.2 13.2 0.3c5.1 0 11.1-0.5 13.5-1c2.9-0.6 3.9-1.3 3.3-2.4c-0.7-1.3-1.2-1.5-3.4-1.4c-1.4 0.1-4.5 0.3-6.9 0.4c-2.9 0.1-4.8-0.1-5.4-0.7c-0.4-0.5 1.4-0.8 4.2-0.8c2.7 0 9.1-0.2 14.1-0.5c7.7-1 15.3-0.8 15.3-0.8c11-1 18.3-2.8 13.6-3.7c-2.9-0.4-8.5 0.2-10.8-1.5c-0.7-2.4 13.1-2.2 17.2-2.6c7.6-0.7 12.8-0.6 13.4-2.7c-1-1.1-13.1-0.4-19.1 0.1c-6.1 0.4-11.8 0.4-12.7 0.2c-1.4-0.3-1.4-0.5-0.3-1.1c0.8-0.4 4.5-0.8 8.2-0.9c3.8-0.2 7.8-0.8 9-1.3c1.2-0.6 18.3-2.7 18.3-2.7c0 0 28.6-2 37.1-2.8z" />
		<path id="Relleno de color sólido 1 copy 3" class="s0" d="m645.8 857.3c5.5-3 12.2-9.2 16.1-12.5c3.9-3.3 10.1-9 13.8-12.7c3.6-3.7 9.3-10.5 12.6-15.1c3.2-4.6 7.2-10.5 8.7-13.2c1.5-2.6 3.9-7.6 5.3-11.1c1.3-3.5 3.3-8.1 4.3-10.3c1-2.2 1.8-5.1 1.8-6.4c0-1.4 0.9-5.1 2-8.4c1.4-4.2 2.3-10.2 3.2-20.7c0.7-8.1 1-18.5 0.7-23c-0.3-4.6-0.8-10.6-1.1-13.3c-0.3-2.7-1.7-9.7-3.1-15.5c-1.3-5.9-3.8-14.4-5.5-18.9c-1.6-4.6-4.3-11.4-5.8-15.1c-1.6-3.7-4.6-10.6-6.8-15.2c-2.2-4.6-6.1-11.4-8.7-15.1c-2.5-3.7-6.4-8.5-8.5-10.8c-2.2-2.2-6.5-6.8-9.7-10c-4.7-4.9-5.7-6.5-5.4-8.5c0.3-1.3-0.2-3.4-1.1-4.6c-0.8-1.1-3.8-3.8-6.6-6c-2.8-2.2-7.2-5.4-9.8-7.1c-2.6-1.8-6.7-4.4-9.1-5.7c-2.4-1.4-4.8-3-5.2-3.5c-0.4-0.6-1.4-1.1-2.2-1.2c-0.8-0.2-3.8-2-6.7-4.1c-3-2.2-6.8-4.2-8.7-4.5c-2.5-0.5-3.3-1.1-3.6-2.9c-0.3-1.2-1.6-3-3-3.9c-1.3-0.9-3.7-1.7-5.2-1.9c-1.5-0.1-2.8-0.7-2.9-1.2c-0.1-0.6 2.6-0.8 6.3-0.6c3.5 0.3 8.5 0.9 11.1 1.3c2.6 0.5 5.4 0.5 6.1 0.1c0.8-0.5 5.1-0.1 9.5 0.7c4.5 0.8 10.8 2.1 14.2 3c4.3 1 7.3 2.5 11.1 5.3c2.8 2.1 8.7 7.5 13.3 11.9c4.5 4.4 10.6 10.8 13.6 14.2c2.9 3.4 6 6.3 6.8 6.4c0.8 0.1 1.5-0.2 1.6-0.7c0-0.5-1.7-3.4-4-6.4c-2.2-3-5.1-6.7-6.4-8.2c-1.3-1.6-4.8-5.1-7.8-8c-2.9-2.8-7-6.8-9-8.8c-2-1.9-5.8-5.6-8.4-8.1c-2.6-2.5-4.7-5-4.6-5.5c0.1-0.5 1.6 0 3.7 1.2c3.1 1.8 3.6 1.9 4.4 0.8c0.5-0.8 0.6-1.8 0.2-2.3c-0.4-0.5-2.9-2.1-5.4-3.4c-2.6-1.3-4.8-2.9-5-3.4c-0.1-0.6 0.5-1.2 1.5-1.3c0.9-0.2 3.3 0.5 5.3 1.5c1.9 1 5.1 2.4 7.1 3.2c2 0.8 5.1 2.5 6.9 3.8c2.8 2.2 3.3 2.3 4.3 1.2c0.6-0.8 0.7-2.3 0.2-4.1c-0.5-1.5-1.3-2.9-1.8-3c-0.6 0-1.3-1.2-1.6-2.4c-0.4-1.3-0.3-2.8 0.1-3.4c0.4-0.6 1.1-1 1.5-0.9c0.4 0.1 1.6 1 2.8 1.9c1.1 1 3.1 2 4.4 2.3c1.3 0.2 4.7 2.4 7.6 4.8c2.9 2.4 5.9 4.4 6.6 4.6c0.8 0.1 1.5 0 1.5-0.3c0.1-0.2-0.7-2-1.7-3.9c-1-1.9-1.6-3.6-1.2-3.8c0.3-0.3 2.4 1 4.6 2.7c2.2 1.7 5.5 4.6 7.3 6.4c1.8 1.8 3.6 3.4 4.2 3.5c0.5 0.1 2.4 1.6 4.2 3.4c1.8 1.8 5.4 5.6 8.1 8.4c2.7 2.9 8.3 9.3 12.4 14.2c4.2 5 11.3 14.6 15.9 21.3c4.5 6.8 11 17.4 14.3 23.5c3.3 6.2 7.9 15.3 10.1 20.2c2.2 5 5.8 14.8 8 21.8c2.2 7 4.8 17.3 5.7 22.8c1 5.5 2.2 15.7 2.8 22.7c0.6 7 1 17.8 1 23.9c-0.1 8.4-0.8 15.3-3.2 28.4c-1.6 9.5-4.5 22.3-6.2 28.4c-1.8 6-4.5 14.6-6.2 19.1c-1.6 4.5-4.4 11.4-6.1 15.4c-1.7 3.9-5.1 10.9-7.6 15.5c-2.5 4.6-7.7 12.8-11.6 18.2c-3.9 5.4-10 13-13.4 16.9c-3.5 3.9-9.4 9.7-13.1 13c-3.8 3.4-11.6 9.4-17.4 13.4c-5.9 4-13.5 8.9-17.1 10.8c-3.5 1.9-11.4 5.6-17.4 8.2c-6.1 2.6-15.6 6.2-21.3 7.9c-5.6 1.8-14.5 4.2-19.8 5.4c-5.3 1.2-16.3 3.1-24.5 4.3c-8.2 1.2-21.1 4.3-28.9 5.1c-9.4 1-21 2.8-28.4 2.8c-7.4 0-3.6-13.2-3.6-13.2l0.8-15v-16l-0.8-10.4l0.1-9.1c6.5-0.7 14.1-1.2 20.5-2.5c8.7-1.7 28.5-5.1 31.2-6c2.7-0.8 23.9-7.8 26.5-8.7c3.5-1.3 18.7-11 24.3-14z" />
		<g id="Layer">
			<g id="brush">
				<path id="Layer" class="s0" d="m240.9 935.3c-2.6-2-6.1-5.2-6.1-5.2l-2.7-2l-2.7-2l-2.6-2.1l-2.5-2.2l-2.5-2.2l-2.4-2.4l-2.3-2.3l-2.3-2.5l-2.1-2.4l-2.2-2.6l-2-2.5l-1.9-2.7l-1.9-2.6l-1.8-2.7l-1.7-2.7l-1.7-2.8l-1.5-2.7l-1.5-2.8l-1.3-2.8l-1.3-2.9l-1.2-2.8l-1.1-2.8l-1-2.9l-0.9-2.8l-0.8-2.8l-0.8-2.8l-0.6-2.8l-0.5-2.8l-0.4-2.8l-0.3-2.7l-0.2-2.8l-0.1-2.7v-2.6l0.2-2.5l0.2-2.5l0.3-2.5l0.3-2.4l0.5-2.5l0.5-2.4l0.7-2.5l0.7-2.4l0.8-2.4l0.8-2.4l1-2.3l1-2.3l1.1-2.3l1.2-2.2l1.3-2.2l1.3-2.1l1.4-2.1l1.5-2.1l1.6-2l1.6-1.9l1.7-1.9l1.8-1.8l1.8-1.7l1.9-1.6l2-1.6l2.1-1.5l2-1.4l2.2-1.4l2.3-1.2l2.3-1.2l2.4-1.1l2.4-0.9l2.5-0.9l2.5-0.7l2.7-0.7l2.6-0.5l2.8-0.4l2.7-0.3l2.9-0.2l2.9-0.1l2.8 0.1l2.7 0.2l2.8 0.4l2.6 0.4l2.7 0.6l2.5 0.7l2.5 0.8l2.5 1l2.4 1l2.4 1.2l2.2 1.2l2.3 1.4l2.1 1.4l2.1 1.6l2 1.6l2 1.7l1.9 1.8l1.8 1.8l1.7 2l1.7 2l1.6 2.1l1.5 2.1l1.4 2.2l1.4 2.3l1.2 2.3l1.2 2.3l1.1 2.4l1 2.5l0.9 2.5l0.7 2.5l0.8 2.5l0.6 2.6l0.5 2.6l0.4 2.7l0.3 2.6l0.1 2.7l0.1 2.6v2.7l-0.1 2.7l-0.3 2.7l-0.4 3.1l-0.5 3l-0.7 2.8l-0.7 2.7l-0.9 2.6l-0.9 2.5l-1 2.4l-1.1 2.3l-1.1 2.3l-1.2 2.1l-1.3 2l-1.3 2l-1.4 2l-1.4 1.8l-1.4 1.8l-1.5 1.8l-1.4 1.8l-1.5 1.7l-1.5 1.7l-1.5 1.7l-1.5 1.6l-1.5 1.7l-1.4 1.6l-1.4 1.7l-1.4 1.7l-1.4 1.7l-1.3 1.7l-1.2 1.8l-1.2 1.8l-1.2 1.8l-1 1.9l-1 2l-0.9 2l-0.8 2.1l-0.8 2.2l-1.2 2.1c-1.5 3.7-0.6 3.3-1.9 5.6c-3.1 5.9 2 10.1 3 10.9c4.9 3.7 1.9 6.9-2.5 7.9c-3.2 0.7-6.7-0.4-8.6-0.8c-2.4-0.5-14.3-8.6-17.8-11.3zm-30.3-199.6l81.3 0.3l-0.2 1.6l-0.2 1.6l-0.3 1.6l-0.2 1.6l-0.2 1.5l-0.2 1.6l-0.2 1.5l-0.2 1.5l-0.2 1.5l-0.2 1.4l-0.2 1.5l-0.2 1.4l-0.2 1.4l-0.2 1.4l-0.2 1.4l-0.2 1.3l-0.2 1.3l-0.1 1.4l-0.2 1.2l-0.2 1.3l-0.2 1.2l-0.2 1.2l-0.2 1.2l-3.1-1.7l-3.2-1.5l-3.2-1.3l-3.2-1.2l-3.3-1.1l-3.3-0.9l-3.4-0.7l-3.3-0.5l-3.3-0.5l-3.4-0.3l-3.3-0.1h-3.3l-3.3 0.2l-3.3 0.3l-3.3 0.4l-3.2 0.5l-3.1 0.7l-3.2 0.8l-3.1 0.9l-3 1.1l-3 1.1l-2.9 1.3l-2.9 1.4l-0.1-1.1l-0.1-1.2l-0.2-1.2l-0.1-1.2l-0.1-1.3l-0.2-1.3l-0.1-1.3l-0.1-1.3l-0.2-1.3l-0.1-1.4l-0.1-1.3l-0.2-1.4l-0.1-1.4l-0.1-1.5l-0.2-1.4l-0.1-1.5l-0.2-1.5l-0.1-1.5l-0.1-1.5l-0.2-1.5l-0.1-1.6l-0.1-1.5z" />
				<path id="Layer copy 14" class="s0" d="m294.8 697.8l-0.8 20l-84.8-0.6l-0.2-6.4l-0.3-6.9l-0.2-7.2l-0.2-7.5l-0.3-7.9l-0.2-8.2l-0.2-8.4l-0.2-8.7l-0.2-9l-0.2-9.2l-0.1-9.3l-0.1-9.6l-0.1-9.6v-9.8v-9.9v-10l0.2-10c0 0-0.6-8.9-0.9-18.5c-0.4-10.4-1.6-19.3 2.8-9.7c8.6 18.5 23.2 53.3 29.9 66.3c8 15.7 24.3 45.7 39.6 63.4c12.1 13.9 16.7 5.7 16.7 5.7z" />
			</g>
			<g id="hammer">
				<g id="Layer">
					<g id="Layer">
					</g>
					<g id="Layer">
						<path id="Layer copy 9" class="s0" d="m632.5 843.1l-159.5-299c37.8-8 84.7-44.1 84.7-44.1l143.3 243.1c2 33-32 92-68.5 100z" />
						<path id="Layer copy 8" class="s0" d="m765.7 863.4c0 0 3 11 1.6 26.8c-3.3 35.8-39.3 50.9-64.6 38.5l-3.4-1.6c36.4-17.7 47-29 66.4-63.7z" />
					</g>
				</g>
				<path id="Layer copy 26" class="s0" d="m283 467.1c30.9 46.6 67 63 67 63c-51-14.5-56 4.5-56.2 71.1c-0.1 38.4 6 67.3 0.5 68.7c-19.6 5-64.3-103.3-86.8-154.8c0 0 0.2-77.7 30.5-136.5c16.5-32 33.5-49 33.5-49c-12 37-12 102 11.5 137.5z" />
			</g>
			<g id="magnifier">
				<path id="Capa 4 copy" fill-rule="evenodd" class="s0" d="m623.6 414.4c0 0 8-3.2 21.4-17.4c8-8.5 18.7-30.5 18.7-30.5c3.3 26.2-2.5 61-6.5 75.4c-3.3 11.6-12.5 38.6-20.9 53.2c-9.5 16.6-28.1 41.7-40.3 52.3l-20.3-34c14.8-15 27.5-37.9 33-50.7c7.5-17.8 12.7-35.1 14.9-48.3zm-200.9 200c26 1.2 46.7-0.8 74.5-8.2l-18.5-35.1c-24.5 5.7-46.2 6.4-70.5 3.7c-22.5-2.4-56.8-7.7-86.9-32.7c0 0-6.3-3.9-10.3 4.6c-2.5 5.3-3.3 11.7-3.3 11.7c9.5 6.3 51.3 53 115 56zm-128.7-362.9c13.6-14.1 15.8-17.1 30.5-26.7c15-9.8 41.3-25.5 82.4-31.9c18.3-2.9 31.3-2.9 43.9-1.1c29.7 4.3 25.9 5.2 51.9 12.2c0 0 8.3-3.7 31.8-7c29.7-4.1 35.7-0.2 35.7-0.2c-6.7-7-41.8-24-56.2-29.7c-10.8-4.3-45-14.5-79.7-13.7c-27.3 0.6-59.1 2.1-97.3 20.3c-54.8 26.1-83.1 71.6-94.5 93.1c-12.5 23.6-28.2 96.7-24.5 129.7c0 0 7.6-19.2 16.7-35.2c9-15.8 11.8-20.8 11.8-20.8c10-34 24.2-64.7 47.5-89z" />
				<path id="Layer copy 17" class="s1" d="m647.7 365.5c9.7 118.3-78.4 222.4-196.8 232.2c-118.3 9.7-222.4-78.4-232.2-196.8c-9.8-118.3 78.4-222.4 196.8-232.2c118.3-9.7 222.4 78.4 232.2 196.8z" />
			</g>
			<g id="bug">
				<path id="Layer copy 22" fill-rule="evenodd" class="s0" d="m288.8 434.4c-7.2-17.2-30.6-117.9 58.1-167.2l102.3-54.4c6.4-4.1 19.8-1.6 23.2 6l119.1 216c6.2 14.2 2.2 20.2-9.8 28l-97.8 52.3c-85.3 49.3-165.2-28.6-172.9-41.4l-6.3-11.2l199.7-110.9l-9.2-17.2l-200.1 111.1z" />
				<path id="Layer" class="s2" d="m517.5 220.9c47.4-18.4 101.2 1.1 125.8 45.8c24.6 44.7 12.2 100.6-28.7 130.7c0 0-97.1-176.5-97.1-176.5z" />
				<path id="Layer copy 29" class="s0" d="m601.9 220.6c5.9-2 25.1-8.4 16.3-23.8c0 0-3.4-12.2 5.3-14.7c18.7-5.3 18 17.9 18 17.9c0.5 8.4-0.8 25.8-33.6 34.2c-6.4 1.6-14-10.9-6-13.6z" />
				<path id="Layer copy 30" class="s0" d="m651.4 313.3c24.7-23.3 40.1-15.1 46.9-10.2c0 0 20 11.8 5.5 24.8c-6.7 6-15.2-3.3-15.2-3.3c-8.4-15.7-24-2.9-28.8 1c-6.6 5.3-13.1-7.8-8.4-12.3z" />
			</g>
			<g id="eyebrush">
				<path id="Layer copy 18" class="s0" d="m432.6 118.8c-9.4-0.1-17-7.5-16.9-16.7l0.8-69.5c0.1-9.1 7.8-16.4 17.3-16.3c9.4 0.1 17 7.5 16.9 16.7l-0.8 69.5c-0.1 9.1-7.9 16.5-17.3 16.3z" />
				<path id="Layer" class="s0" d="m180.2 257l-60.4-33.1c-7.9-4.3-10.7-14.5-6.2-22.7c4.5-8.2 14.5-11.3 22.4-7l60.5 33.1c7.9 4.3 10.7 14.5 6.2 22.7c-4.5 8.2-14.6 11.3-22.5 7z" />
				<path id="Layer" class="s0" d="m277.6 147.2l-36.1-59.1c-4.8-7.8-2.1-18 5.9-22.9c8-4.9 18.4-2.6 23.1 5.1l36.2 59.1c4.7 7.8 2 18-6 22.9c-8 4.9-18.4 2.6-23.1-5.1z" />
			</g>
		</g>
	</g>
</svg>