<svg version="1.2" xmlns="http://www.w3.org/2000/svg" viewBox="0 0 900 1000" width="900" height="1000">
	<title>beyond_regex_icon_v2-svg</title>
	<style>
		.s0 { fill: #ffffff } 
		.s1 { opacity: .4;fill: #ffffff } 
		.s2 { fill: #ffffff;stroke: #ffffff;stroke-linecap: round;stroke-linejoin: round;stroke-width: 25 } 
		.s3 { fill: #ffffff;stroke: #ffffff;stroke-linecap: round;stroke-width: 25 } 
	</style>
	<g id="Layer">
		<path id="Relleno de color sólido 1" class="s0" d="m721 931.3c2.9 2.5 14.7-0.6 19.3-3.8c25.3-17.5 34-93 20-113.8c-11.2-16.8-15.2-21.8-14-26.3c1.1-3.8 2.1-7.9 2.7-10.4c0.6-2.5 0.9-5.6 0.7-7c-0.3-1.4-0.1-5.4 0.4-9c0.7-4.6 0.5-11-0.5-22c-0.8-8.5-2.5-19.3-3.6-24c-1.2-4.7-2.8-10.7-3.7-13.5c-0.8-2.7-3.5-9.7-6-15.5c-2.6-5.8-6.7-14.1-9.3-18.5c-2.6-4.4-6.6-10.9-8.9-14.5c-2.3-3.6-6.7-10.1-9.9-14.4c-3.1-4.4-8.4-10.7-11.8-14c-3.3-3.4-8.2-7.7-10.8-9.6c-2.7-1.9-8.1-5.8-12-8.6c-5.7-4.1-7.1-5.6-7.1-7.7c0-1.5-0.9-3.5-2-4.5c-1.1-1.1-4.7-3.3-8-5c-3.3-1.7-8.5-4.2-11.5-5.6c-3-1.3-7.7-3.2-10.5-4.2c-2.7-0.9-5.5-2.1-6-2.6c-0.5-0.5-1.7-0.8-2.5-0.8c-0.8 0-4.3-1.4-7.7-3c-3.5-1.7-7.9-3-9.8-3c-2.7 0-3.7-0.5-4.4-2.2c-0.4-1.3-2.1-2.9-3.7-3.5c-1.6-0.7-4.2-1.2-5.8-1c-1.6 0.1-3-0.3-3.3-0.8c-0.2-0.6 2.6-1.3 6.4-1.7c3.8-0.5 9.1-0.8 11.8-0.8c2.8 0 5.7-0.5 6.4-1.1c0.7-0.6 5.1-1 9.9-1c4.8 0 11.6 0.2 15.2 0.4c4.7 0.3 8.1 1.2 12.5 3.4c3.3 1.7 10.5 6.1 16 9.8c5.5 3.7 13 9.2 16.8 12.1c3.7 3 7.4 5.4 8.2 5.4c0.8 0 1.5-0.5 1.5-1c0-0.5-2.4-3.2-5.2-5.9c-2.9-2.7-6.7-6-8.3-7.3c-1.6-1.3-5.9-4.4-9.5-6.8c-3.6-2.4-8.5-5.7-11-7.4c-2.5-1.6-7.1-4.7-10.2-6.8c-3.2-2.1-5.8-4.3-5.8-4.8c0-0.6 1.7-0.4 4 0.5c3.6 1.3 4.1 1.3 4.8 0c0.4-0.9 0.2-2-0.3-2.4c-0.5-0.5-3.4-1.6-6.2-2.5c-2.9-0.9-5.5-2.1-5.8-2.6c-0.3-0.5 0.3-1.3 1.3-1.6c0.9-0.4 3.5-0.1 5.7 0.6c2.2 0.6 5.8 1.5 8 1.9c2.2 0.4 5.7 1.6 7.8 2.7c3.3 1.7 3.9 1.7 4.7 0.4c0.5-0.9 0.3-2.5-0.6-4.2c-0.8-1.6-1.9-2.8-2.4-2.8c-0.5 0-1.5-1-2.1-2.2c-0.6-1.3-0.8-2.9-0.5-3.5c0.3-0.7 0.9-1.3 1.3-1.3c0.5 0.1 1.9 0.7 3.3 1.5c1.4 0.8 3.6 1.5 5 1.5c1.4 0 5.3 1.6 8.8 3.5c3.4 1.9 6.9 3.5 7.7 3.5c0.8 0 1.5-0.2 1.5-0.5c0-0.3-1.1-2-2.5-3.7c-1.4-1.8-2.3-3.5-2-3.8c0.3-0.3 2.7 0.6 5.3 1.9c2.6 1.4 6.5 3.8 8.7 5.3c2.2 1.6 4.5 2.9 5 2.8c0.5 0 2.8 1.3 5 2.8c2.2 1.5 6.7 4.7 10 7.2c3.3 2.4 10.3 8 15.5 12.3c5.2 4.4 14.4 12.9 20.4 19.1c6 6.1 14.7 15.8 19.3 21.6c4.6 5.8 11 14.3 14.2 19c3.2 4.7 8.8 14.1 12.4 21c3.6 6.9 8.2 17 10.2 22.5c2 5.5 5.3 15.9 7.2 23c1.9 7.2 4.3 18.2 5.5 24.5c1.5 8.7 2 16 2.1 30c0 10.2-0.5 23.9-1.2 30.5c-0.6 6.6-1.9 16-2.7 21c-0.9 5-2.4 12.6-3.5 17c-1 4.4-3.2 12.3-4.9 17.5c-1.7 5.2-5.6 14.7-8.6 21c-3.1 6.3-7.9 15.3-10.7 20c-2.8 4.7-7.8 11.9-11.1 16c-3.2 4.1-10.2 11.8-15.5 17.1c-5.3 5.2-12.3 11.7-15.6 14.4c-3.3 2.7-10.7 8-16.5 11.8c-5.8 3.8-15 9.3-20.5 12.1c-5.5 2.9-14.3 7.1-19.5 9.3c-5.2 2.3-16.2 6.4-24.5 9.1c-8.2 2.8-21.5 6.6-29.5 8.5c-8 1.9-20.8 4.6-28.5 6c-7.7 1.4-17.1 2.9-21 3.2c-6.7 0.6-6.9 0.6-5.3-1.2c1-1 1.8-2.4 1.8-3c0-0.7-1.2-1.6-2.7-1.9c-1.6-0.4-5.9-0.4-9.8-0.1c-3.9 0.3-7.9 0.2-9-0.3c-1.6-0.6-1.7-0.9-0.5-1.3c0.8-0.3 6.7-0.8 13-1.1c6.3-0.4 15.3-1.3 20-2.1c4.7-0.8 11.9-1.9 16-2.6c4.1-0.7 10.6-2.5 14.5-4.2c3.9-1.6 9.7-3.8 13-4.9c3.3-1.1 7-2.4 8.3-2.9c1.2-0.5 2.2-1.6 2.2-2.4c0-0.8-0.8-1.5-1.7-1.5c-1 0-3.4 0.5-5.3 1c-1.9 0.5-7.2 1.8-11.7 3c-4.6 1.1-13.5 2.5-19.8 3c-6.3 0.5-13.4 1.4-15.7 1.9c-2.4 0.5-14 0.8-25.8 0.7c-18.6-0.1-22.9-0.5-31.5-2.5c-5.5-1.3-12.4-3-15.2-3.7c-2.9-0.8-5.1-1.9-4.8-2.4c0.3-0.6 2.2-0.4 5.3 0.5c2.6 0.9 5.9 1.9 7.5 2.3c2.3 0.6 2.7 0.4 2.8-1.3c0-1.4-1.4-2.6-4.8-4.1c-2.6-1.2-9.1-3.5-14.3-5.2c-5.2-1.7-11.2-3.8-13.2-4.6c-2.1-0.9-4.6-2.7-5.5-4.1c-1-1.4-1.4-2.9-1-3.3c0.4-0.4 4.8 0.7 9.7 2.3c6.1 2 9.3 2.7 10.1 2c0.6-0.5 0.9-1.5 0.6-2c-0.2-0.5-4-2.5-8.3-4.4c-4.3-1.9-11.5-4.6-15.9-6.1c-4.4-1.5-10.7-4.1-14-5.8c-3.3-1.7-5.2-3.1-4.2-3.2c0.9 0 6.1 2 11.5 4.4c5.3 2.4 15.6 6.2 22.7 8.4c7.1 2.2 15.4 4.4 18.4 4.9c4.7 0.7 5.4 0.6 4.9-0.7c-0.2-0.8-1.9-2-3.7-2.5c-1.7-0.5-3.1-1.3-3.1-1.7c0-0.5 2.6-0.5 5.8-0.2c3.1 0.3 7.3 1 9.2 1.5c1.9 0.5 5.5 0.9 8 0.9c2.5 0 6.3 0.5 8.5 1.1c2.2 0.6 5.7 0.8 7.8 0.5c2-0.3 3.7-1.1 3.7-1.6c0-0.5-2.4-1.7-5.2-2.5c-2.9-0.8-6.8-1.5-8.5-1.5c-1.8 0-6.8-0.9-11-1.9c-4.3-1.1-11.4-2.7-15.8-3.6c-4.4-1-12-3.2-17-5c-5-1.8-14-5.4-20-8c-6-2.6-13.2-5.4-16-6.2c-2.7-0.8-6.8-2.4-9-3.6c-2.2-1.1-5.7-3.2-7.8-4.6c-2-1.4-3.6-2.7-3.5-2.9c0.2-0.2 3.9 0.9 8.3 2.3c5.1 1.7 9.1 2.5 11 2.1c2-0.4 4 0 6 1.3c1.6 1.1 6.9 3.5 11.8 5.5c5.1 2.1 11.3 3.9 15 4.2c3.4 0.3 8.5 1.2 11.2 1.9c2.8 0.7 7.5 1.6 10.5 1.9c3.1 0.4 5.9 0.2 6.5-0.4c0.6-0.6 5-0.6 12.5 0.1c6.3 0.6 16.9 0.8 23.5 0.5c6.6-0.3 17.6-1.3 24.5-2.1c6.9-0.8 15-2 18-2.6c3-0.6 7.5-1.6 10-2.2c2.4-0.7 5.4-1.9 6.5-2.8c1.1-0.9 3.2-1.9 4.8-2.2c1.5-0.4 6.7-2.9 12-4.7c1.2-0.5 1-0.3 1-0.3c0 0 14 12.6 36.7 12.6c20 0 27.8 21.3 32 25z" />
		<g id="Layer">
			<g id="brush">
				<g id="Layer">
				</g>
				<g id="Layer">
					<path id="Layer" class="s0" d="m644.2 799.4l1.5-2l1.5-2l1.6-1.9l1.7-1.8l1.9-1.7l1.9-1.7l2-1.6l2.1-1.5l2.2-1.4l2.4-1.4l2.4-1.2l2.4-1.1l2.4-1l2.4-0.8l2.4-0.8l2.4-0.6l2.4-0.5l2.5-0.4l2.4-0.3l2.4-0.2l2.4-0.1h2.4l2.4 0.2l2.4 0.2l2.3 0.3l2.4 0.4l2.3 0.5l2.3 0.6l2.3 0.7l2.2 0.7l2.2 0.9l2.2 0.9l2.1 1l2.1 1.1l2.1 1.1l2.1 1.3l1.9 1.3l2 1.3l1.9 1.4l1.8 1.5l1.8 1.6l1.8 1.6l1.7 1.6l1.6 1.7l1.5 1.8l1.5 1.8l1.5 1.9l1.3 1.8l1.3 2l1.3 2.1l1.3 2.2l1.1 2.3l1.1 2.4l1 2.4l1 2.5l0.8 2.5l0.8 2.7l0.7 2.6l0.7 2.7l0.5 2.8l0.5 2.8l0.4 2.9l0.4 2.9l0.2 2.9l0.2 2.9l0.1 3v3l-0.1 3l-0.1 3.1l-0.2 3l-0.3 3.1l-0.4 3l-0.5 3.1l-0.6 3l-0.6 3.1l-0.7 3l-0.8 3l-0.9 3l-1 3l-1.1 3l-1.1 2.9l-1.3 2.9l-1.3 2.9l-1.4 2.8l-1.5 2.8l-1.6 2.7l-1.7 2.7l-1.8 2.6l-1.8 2.6l-0.3 0.3l-0.3 0.3l-0.3 0.4l-0.3 0.3l-0.3 0.2l-0.4 0.3l-0.3 0.2l-0.4 0.2l-0.3 0.2l-0.4 0.2l-0.4 0.2l-0.4 0.1l-0.3 0.1l-0.4 0.1l-0.4 0.1l-0.4 0.1h-0.4l-0.4 0.1h-0.4h-0.4h-0.4l-0.4-0.1l-0.4-0.1h-0.4l-0.4-0.1l-0.4-0.2l-0.3-0.1l-0.4-0.1l-0.4-0.2l-0.3-0.2l-0.4-0.2l-0.3-0.2l-0.4-0.3l-0.3-0.2l-0.3-0.3l-0.3-0.3l-0.3-0.3l-0.3-0.3l-0.2-0.4l-0.3-0.3l-1.4-2.1l-1.5-1.9l-1.5-1.8l-1.5-1.7l-1.6-1.5l-1.6-1.4l-1.7-1.3l-1.7-1.2l-1.8-1.1l-1.7-1l-1.9-1l-1.8-0.9l-1.9-0.8l-1.9-0.7l-1.9-0.7l-1.9-0.7l-1.9-0.7l-2-0.6l-2-0.6l-2-0.6l-2-0.7l-2-0.6l-2.1-0.7l-2-0.6l-2-0.8l-2-0.8l-2.1-0.8l-2-0.9l-2-0.9l-2-1.1l-2-1.1l-2-1.2l-2-1.4l-2-1.4l-2-1.6l-1.9-1.7l-1.9-1.8l-1.9-2l-1.9-2.1l-1.8-2.3l-1.5-2l-1.4-2.1l-1.3-2.2l-1.2-2.2l-1.2-2.2l-1-2.3l-1-2.3l-0.8-2.3l-0.8-2.4l-0.7-2.4l-0.5-2.4l-0.5-2.4l-0.4-2.5l-0.3-2.5l-0.2-2.4l-0.1-2.5v-2.4l0.1-2.5l0.1-2.5l0.3-2.4l0.4-2.4l0.4-2.4l0.6-2.4l0.7-2.3l0.7-2.4l0.8-2.3l1-2.2l1-2.2l1.2-2.2l1.2-2.1zm29.1-66.7l0.7 1.3l0.6 1.3l0.7 1.3l0.6 1.3l0.6 1.2l0.6 1.3l0.6 1.3l0.6 1.2l0.6 1.2l0.5 1.2l0.6 1.2l0.6 1.2l0.5 1.1l0.5 1.2l0.6 1.1l0.5 1.1l0.5 1.1l0.5 1l0.5 1.1l0.5 1l0.4 1l0.5 1l-3 0.3l-2.9 0.4l-3 0.5l-3 0.6l-2.9 0.7l-2.9 0.9l-2.9 1l-2.9 1.1l-2.8 1.3l-2.8 1.3l-2.7 1.5l-2.7 1.6l-2.6 1.7l-2.5 1.9l-2.5 1.9l-2.4 2.1l-2.3 2.2l-2.3 2.3l-2.1 2.4l-2 2.5l-2 2.7l-1.8 2.7l-1.7 2.9l-0.8-0.9l-0.7-0.8l-0.7-0.9l-0.8-1l-0.7-0.9l-0.8-1l-0.8-0.9l-0.8-1l-0.9-1l-0.8-1.1l-0.8-1l-0.9-1l-0.8-1.1l-0.9-1.1l-0.9-1.1l-0.9-1.1l-0.9-1.1l-0.9-1.2l-0.9-1.1l-0.9-1.2l-1-1.2l-0.9-1.1l-1-1.3l65.3-39.5zm-147.5-141.3l0.8-1.1l0.8-1l0.9-1l0.8-0.9l1-1l0.9-0.8l1-0.8l1-0.8l1.1-0.7l1.1-0.7l1.1-0.6l1.1-0.6l1.2-0.5l1.2-0.5l1.3-0.4l1.2-0.4l1.3-0.3l1.2-0.3l1.4-0.2l1.3-0.1l1.3-0.1h1.4h1.3l1.4 0.1l1.4 0.1l1.5 0.2l1.4 0.3l1.4 0.4l1.4 0.3l3 1.1l3 1.3l3.1 1.6l3 1.8l3.1 2l3 2.3l3.1 2.4l3.1 2.7l3.1 2.9l3 3l3.1 3.2l3.1 3.4l3 3.5l3 3.6l3 3.7l3 3.9l2.9 3.9l2.9 4l2.9 4.1l2.9 4.2l2.8 4.2l2.8 4.2l2.7 4.3l2.7 4.2l2.6 4.3l2.5 4.2l2.6 4.3l2.4 4.2l2.4 4.1l2.3 4.1l2.3 4.1l2.1 3.9l2.1 3.9l2.1 3.7l1.9 3.7l1.8 3.5l1.8 3.3l1.7 3.3l1.6 3l1.4 2.9l-68.1 41.3l-1.9-2.6l-2.1-2.7l-2.1-2.8l-2.3-3.1l-2.3-3.1l-2.4-3.3l-2.5-3.4l-2.5-3.5l-2.6-3.6l-2.6-3.7l-2.7-3.8l-2.6-3.9l-2.7-4l-2.7-4l-2.7-4.1l-2.6-4.1l-2.7-4.2l-2.6-4.2l-2.6-4.3l-2.5-4.3l-2.5-4.3l-2.4-4.3l-2.3-4.3l-2.2-4.3l-2.2-4.3l-2-4.2l-1.9-4.3l-1.9-4.2l-1.7-4.1l-1.5-4.1l-1.4-4.1l-1.3-3.9l-1-3.9l-0.9-3.8l-0.8-3.7l-0.5-3.7l-0.4-3.5l-0.1-3.4l0.1-3.3l0.3-3.2l0.2-1.4l0.3-1.5l0.3-1.4l0.4-1.4l0.5-1.3l0.5-1.3l0.5-1.3l0.6-1.2l0.6-1.2l0.7-1.2z" />
					<path id="Layer copy 20" class="s0" d="m488.1 537.2l0.6-1.2l0.7-1.2l0.7-1.2l0.8-1.1l0.9-1l0.9-0.9l0.9-0.9l1-0.9l1-0.7l1.1-0.7l1.1-0.7l1.2-0.5l1.2-0.5l1.2-0.5l1.3-0.3l1.3-0.3l1.3-0.2l1.4-0.1l1.4-0.1h1.4l1.5 0.1l1.5 0.2l1.5 0.2l1.6 0.3l1.6 0.4l1.6 0.5l1.6 0.6l1.6 0.6l1.7 0.7l3.5 1.8l3.5 2.1l3.7 2.5l3.7 2.8l3.8 3l3.8 3.4l3.9 3.6l3.9 3.9l4 4.1l3.9 4.4l4 4.5l4 4.7l4 4.9l4.1 5.1l4 5.2l4 5.4l4.1 5.5l3.9 5.6l4 5.6l4 5.7l3.9 5.8l3.9 5.8l3.8 5.9l3.7 5.8l3.8 5.9l3.6 5.8l3.6 5.8l3.5 5.7l3.5 5.7l3.3 5.6l3.3 5.5l3.1 5.3l3.1 5.3l2.9 5.1l2.9 4.9l2.7 4.8l2.6 4.5l2.4 4.4l2.4 4.2l2.1 3.9l-67.3 42.4l-2.6-3.5l-2.8-3.8l-3-4l-3-4.1l-3.2-4.4l-3.3-4.6l-3.4-4.7l-3.4-4.8l-3.6-5l-3.6-5.2l-3.6-5.2l-3.7-5.4l-3.7-5.5l-3.8-5.5l-3.7-5.6l-3.8-5.7l-3.7-5.8l-3.7-5.8l-3.7-5.8l-3.6-5.8l-3.5-5.9l-3.5-5.9l-3.4-5.8l-3.3-5.8l-3.2-5.8l-3.1-5.8l-2.9-5.7l-2.8-5.6l-2.7-5.6l-2.5-5.4l-2.3-5.4l-2.1-5.3l-2-5.1l-1.7-5l-1.6-4.9l-1.2-4.7l-1.1-4.5l-0.8-4.4l-0.5-4.2l-0.3-4v-1.8v-1.8l0.1-1.8l0.2-1.7l0.2-1.6l0.3-1.6l0.4-1.6l0.4-1.4l0.4-1.5l0.6-1.3z" />
				</g>
			</g>
			<g id="magnifier">
				<g id="Layer">
					<g id="Layer">
						<path id="Capa 5" fill-rule="evenodd" class="s0" d="m200 287.1c21.7-52.7 48.2-83.9 87.3-110c26-17.4 60.2-33.1 102.7-39c47.8-6.8 79.9-0.4 113 10.6c52.3 17.4 99.8 60.7 117 85.3c21 30.1 45.7 74.7 46 151.4c0.1 34.4-19.3 99.7-41.3 128.3c-12.8 16.7-27.4 34.7-46.7 51c0 0-5.7-6.9-14.7-14.3c-7.6-6.3-13.6-13-13.6-13c27.5-26.1 32.3-30.4 47.5-54.4c14.2-22.3 20.8-33.2 30.5-94.7c3.7-23.2-4.9-72.3-31.7-119.2c-22-38.5-55.9-64.3-100-81.6c-42.3-16.5-80.6-15.2-110.2-9.7c-42.9 8.1-75.4 30.2-98 49.1c-10.2 8.5-13 11.5-25.1 27zm162.6 284.6c25.7 7.4 32.7 9.4 57.7 10c24.3 0.7 51-5.3 60-8c0 0 3.9 11.3 5.7 17.4c2.8 9.5 6.8 18.7 6.8 18.7c0 0-33.2 10.3-63.2 10.3c-30 0-39.8-1.5-66.1-7.8z" />
					</g>
					<g id="Layer">
						<path id="Layer" class="s1" d="m638.2 360.6c9.5 118.1-78.7 221.7-196.8 231.1c-118.1 9.5-221.7-78.7-231.1-196.8c-9.5-118.1 78.7-221.7 196.8-231.1c118.1-9.5 221.7 78.7 231.1 196.8z" />
					</g>
				</g>
			</g>
			<g id="hammer">
				<g id="Layer">
					<g id="Layer">
					</g>
					<g id="Layer">
						<path id="Layer copy 4" class="s0" d="m266 555c-0.8-7-1-21.7-1-21.7c24.8 18.7 62 20.8 86.3 16.8l9.8 346c0.4 18.3-5.2 36.1-15.2 48.8c-19.8 25-51.2 24.2-70.2-1.7c-10-13.6-14.9-30.2-14.7-47.5z" />
					</g>
				</g>
				<path id="Layer copy 2" class="s0" d="m208.2 299.1c-27.3 29.2-49.8 97.9-24.7 156.9c11.2 26.3 32.8 47.6 32.8 47.6c0 0-28.2 5.2-85.5 99.5c-4.2 6.7-11.7 10.8-19.6 9.8c-7.9-0.9-14.4-6.5-16.5-14.2c-13.5-48.6-34.5-116.4 20.2-207.8c43.8-73.3 75.1-85.5 102.3-101.1" />
			</g>
			<g id="bug">
				<path id="Layer copy 3" class="s2" d="m444 508.7c0.1 2.7-2 5.1-4.7 5.2l-114.6 6.2c-89.2 6.5-120.6-87.9-120.6-87.9l66.5-8.7c0 0 45.3-6.6 69.4-11.9c22.5-5.1 20.8-38.7-0.5-40.1c-24.2-1.6-72.5-3.2-72.5-3.2l-66.6-2c0 0 18.5-97.9 110.6-102.9l114.6-6.1c2.7-0.2 5.1 2 5.2 4.7z" />
				<path id="Layer" class="s3" d="m486.9 278.1c50.7 3.9 90.8 44.9 93.5 95.8c2.7 51-32.7 96-82.7 105.4c0 0-10.8-201.2-10.8-201.2z" />
			</g>
			<g id="Layer">
				<path id="Layer" class="s0" d="m419.1 124.9c-9.4-1.1-16.1-9.4-15-18.5l8.6-69c1.1-9.1 9.6-15.5 19-14.3c9.3 1.2 16 9.4 14.9 18.5l-8.5 69c-1.2 9.1-9.7 15.5-19 14.3z" />
				<path id="Layer" class="s0" d="m184.6 248.5l-63.2-27.5c-8.3-3.6-12-13.5-8.2-22c3.7-8.6 13.4-12.7 21.7-9.1l63.2 27.5c8.3 3.6 12 13.5 8.2 22.1c-3.7 8.5-13.4 12.6-21.7 9z" />
				<path id="Layer" class="s0" d="m270.6 140.4l-34.2-60.2c-4.5-7.9-1.5-18 6.6-22.7c8.2-4.6 18.5-2 22.9 5.9l34.3 60.2c4.5 7.9 1.5 18-6.7 22.7c-8.1 4.6-18.4 2-22.9-5.9z" />
			</g>
		</g>
	</g>
</svg>