<svg version="1.2" xmlns="http://www.w3.org/2000/svg" viewBox="0 0 900 1000" width="900" height="1000">
	<title>beyond_regex_icon_v2-svg</title>
	<style>
		.s0 { fill: #ffffff } 
		.s1 { opacity: .4;fill: #ffffff } 
		.s2 { fill: #ffffff;stroke: #ffffff;stroke-linecap: round;stroke-linejoin: round;stroke-width: 25 } 
	</style>
	<g id="Layer">
		<path id="Relleno de color sólido 1" class="s0" d="m621 903.5c9.8 4 14.3 13 35 15.4c19.9 2.3 24.2 22 29 26.5c4.8 4.5 15.2 2.3 20-0.4c26.9-15 43.8-93.2 32-115.3c-9.5-17.8-13.4-21.6-11.8-25.9c1.5-3.7 2.1-5.4 3-7.8c0.9-2.4 1.5-5.5 1.3-6.9c-0.1-1.4 0.5-5.4 1.4-8.9c1.1-4.5 1.5-10.9 1.5-21.9c0-8.6-0.5-19.5-1.2-24.3c-0.7-4.8-1.8-11-2.4-13.8c-0.5-2.8-2.6-10-4.5-16c-2-6-5.3-14.7-7.5-19.3c-2.1-4.6-5.5-11.5-7.4-15.3c-1.9-3.8-5.8-10.6-8.5-15.3c-2.7-4.6-7.4-11.4-10.4-15.1c-3-3.6-7.4-8.4-9.9-10.5c-2.4-2.2-7.4-6.6-11-9.7c-5.3-4.7-6.6-6.3-6.4-8.4c0.2-1.4-0.5-3.6-1.5-4.7c-1-1.1-4.4-3.7-7.5-5.7c-3.1-2.1-8-5-10.9-6.6c-2.9-1.7-7.4-4-10.1-5.2c-2.6-1.3-5.2-2.7-5.7-3.2c-0.5-0.6-1.6-1-2.4-1.1c-0.8-0.1-4.1-1.7-7.4-3.7c-3.3-2-7.5-3.8-9.4-3.9c-2.7-0.3-3.6-0.9-4.1-2.7c-0.4-1.3-1.9-3-3.4-3.8c-1.6-0.9-4.1-1.6-5.7-1.6c-1.6 0-3-0.5-3.2-1.1c-0.1-0.5 2.7-1 6.6-1.1c3.7 0 9 0.1 11.8 0.4c2.8 0.3 5.6 0.1 6.4-0.5c0.7-0.5 5.2-0.5 10-0.1c4.7 0.5 11.5 1.4 15.1 1.9c4.7 0.7 7.9 2 12.1 4.6c3.1 2 9.8 7.1 14.9 11.4c5.2 4.2 12.1 10.3 15.6 13.6c3.4 3.3 6.8 6.1 7.7 6.1c0.8 0.1 1.5-0.3 1.5-0.8c0.1-0.6-2-3.4-4.6-6.4c-2.6-2.9-6-6.6-7.5-8.1c-1.5-1.4-5.5-4.9-8.8-7.6c-3.4-2.7-8-6.5-10.3-8.4c-2.3-1.9-6.6-5.4-9.5-7.8c-3-2.4-5.3-4.8-5.3-5.3c0.1-0.6 1.7-0.2 4 0.8c3.4 1.7 3.9 1.8 4.7 0.5c0.5-0.8 0.5-1.9 0-2.4c-0.5-0.5-3.2-1.9-6-3.1c-2.8-1.1-5.3-2.6-5.5-3.1c-0.2-0.6 0.4-1.3 1.4-1.5c1-0.3 3.6 0.2 5.7 1.1c2.1 0.9 5.6 2.1 7.8 2.7c2.1 0.7 5.5 2.2 7.5 3.4c3.1 2 3.7 2.1 4.6 0.9c0.6-0.9 0.6-2.5-0.2-4.3c-0.6-1.6-1.6-2.9-2.1-3c-0.6 0-1.4-1.1-1.9-2.4c-0.4-1.3-0.5-2.9-0.2-3.5c0.4-0.7 1.1-1.2 1.5-1.1c0.4 0 1.8 0.8 3.1 1.7c1.3 1 3.5 1.8 4.8 2c1.4 0.2 5.2 2.1 8.4 4.4c3.3 2.2 6.6 4.1 7.4 4.2c0.8 0.1 1.5-0.1 1.5-0.4c0.1-0.2-0.9-2-2.1-4c-1.3-1.9-2-3.6-1.6-3.9c0.3-0.2 2.6 0.9 5 2.5c2.5 1.5 6.2 4.3 8.2 6.1c2.1 1.7 4.2 3.2 4.7 3.3c0.6 0 2.7 1.4 4.7 3.2c2.1 1.7 6.2 5.3 9.3 8.1c3 2.7 9.5 8.9 14.2 13.8c4.8 4.8 13.1 14.2 18.5 20.9c5.4 6.7 13.1 17.2 17.1 23.4c4.1 6.2 9.6 15.3 12.4 20.3c2.7 4.9 7.3 14.9 10.3 22c2.9 7.2 6.5 17.8 8 23.4c1.4 5.7 3.7 16.3 4.9 23.6c1.2 7.3 2.6 18.5 3.1 24.9c0.7 8.8 0.5 16.2-0.8 30.1c-0.9 10.1-2.8 23.7-4.1 30.2c-1.3 6.5-3.4 15.8-4.7 20.7c-1.4 4.8-3.6 12.3-5.1 16.6c-1.5 4.2-4.4 11.9-6.6 16.9c-2.2 5-7 14.1-10.6 20.1c-3.6 6-9.3 14.5-12.6 18.9c-3.2 4.3-8.9 11-12.5 14.8c-3.7 3.8-11.4 10.8-17.1 15.5c-5.8 4.8-13.4 10.5-16.9 12.9c-3.6 2.3-11.5 6.9-17.6 10.1c-6.1 3.3-15.8 7.8-21.6 10.1c-5.7 2.4-14.8 5.7-20.3 7.4c-5.4 1.7-16.7 4.7-25.2 6.7c-8.5 1.9-22.1 4.5-30.2 5.6c-8.1 1.1-21.2 2.6-29 3.3c-7.8 0.6-17.3 1.1-21.2 1.1c-6.7 0-6.9-0.1-5.1-1.7c1-0.9 2-2.2 2-2.9c0.1-0.7-1-1.6-2.5-2.1c-1.5-0.5-5.8-1-9.7-1c-3.8-0.1-7.9-0.6-8.9-1.2c-1.5-0.7-1.6-1-0.4-1.3c0.9-0.2 6.7-0.2 13.1 0.1c6.3 0.3 15.3 0.2 20.1-0.1c4.7-0.3 12-0.8 16.1-1.1c4.2-0.2 10.9-1.5 14.9-2.7c4-1.3 10-2.9 13.4-3.7c3.4-0.8 7.2-1.7 8.5-2.1c1.3-0.4 2.4-1.3 2.4-2.2c0.1-0.8-0.6-1.5-1.6-1.6c-0.9-0.1-3.3 0.1-5.3 0.4c-1.9 0.4-7.3 1.2-12 1.9c-4.6 0.7-13.6 1.2-19.9 1.1c-6.4 0-13.5 0.1-15.9 0.4c-2.3 0.3-13.9-0.5-25.7-1.8c-18.4-1.9-22.7-2.7-31.1-5.5c-5.3-1.8-12-4.2-14.8-5.2c-2.8-1-4.8-2.3-4.5-2.8c0.4-0.6 2.3-0.2 5.2 1c2.5 1.1 5.8 2.4 7.3 3c2.2 0.8 2.7 0.7 2.9-1c0.1-1.4-1.1-2.7-4.4-4.6c-2.5-1.4-8.7-4.3-13.7-6.5c-5.1-2.2-10.8-4.8-12.8-5.9c-1.9-1-4.2-3.1-5-4.6c-0.9-1.5-1.2-3-0.7-3.3c0.5-0.4 4.7 1.1 9.5 3.2c5.8 2.6 9 3.5 9.8 2.9c0.7-0.4 1.1-1.3 0.9-1.9c-0.2-0.6-3.8-2.9-7.9-5.2c-4.2-2.3-11-5.7-15.3-7.6c-4.2-1.9-10.2-5.1-13.3-7.1c-3.2-2-4.9-3.6-4-3.5c1 0 5.9 2.5 11.1 5.4c5.1 2.9 14.9 7.7 21.8 10.6c6.9 2.9 14.9 5.8 17.9 6.6c4.5 1.1 5.2 1.1 4.9-0.2c-0.2-0.9-1.7-2.2-3.4-2.9c-1.7-0.7-3.1-1.6-3-2c0-0.4 2.6-0.2 5.8 0.4c3.1 0.6 7.2 1.7 9 2.4c1.9 0.6 5.4 1.4 7.9 1.6c2.5 0.3 6.2 1.1 8.3 1.9c2.2 0.8 5.6 1.4 7.7 1.3c2.1-0.1 3.8-0.7 3.9-1.2c0.1-0.6-2.2-1.9-5-3c-2.8-1.1-6.5-2.2-8.3-2.4c-1.8-0.1-6.6-1.5-10.8-2.9c-4.1-1.5-11-3.8-15.3-5.1c-4.3-1.4-11.7-4.3-16.4-6.6c-4.8-2.3-13.4-6.7-19.2-9.9c-5.7-3.1-12.6-6.6-15.3-7.7c-2.7-1.1-6.5-3.1-8.6-4.4c-2.1-1.3-5.4-3.8-7.3-5.4c-1.9-1.6-3.4-3.1-3.2-3.2c0.2-0.2 3.8 1.2 8 3.1c4.9 2.2 8.8 3.3 10.7 3.1c2.1-0.1 4 0.5 5.9 1.9c1.5 1.2 6.6 4.2 11.2 6.6c4.8 2.6 10.9 4.9 14.5 5.6c3.4 0.7 8.3 2.1 11 3c2.7 1 7.3 2.3 10.3 2.9c3 0.7 5.9 0.8 6.5 0.3c0.7-0.6 5-0.1 12.4 1.3c6.2 1.2 16.8 2.4 23.4 2.7c6.6 0.3 17.6 0.4 24.5 0.3c7-0.2 15.1-0.6 18.2-0.9c3.1-0.3 7.6-0.8 10.1-1.2c2.6-0.5 5.6-1.4 6.8-2.2c1.2-0.7 3.4-1.5 5-1.8c1.5-0.2 11-5.5 13.7-3z" />
		<g id="Layer">
			<g id="brush">
				<g id="Layer">
				</g>
				<g id="Layer">
					<path id="Layer" class="s0" d="m621.8 808.2l1.6-1.9l1.7-1.8l1.8-1.7l1.9-1.6l2-1.6l2.1-1.4l2.1-1.4l2.3-1.3l2.3-1.2l2.5-1.1l2.5-1l2.5-0.9l2.4-0.8l2.5-0.6l2.5-0.5l2.5-0.4l2.4-0.3l2.5-0.1l2.4-0.1h2.4l2.4 0.2l2.4 0.3l2.4 0.3l2.3 0.5l2.3 0.5l2.3 0.6l2.3 0.7l2.2 0.9l2.2 0.9l2.2 0.9l2.1 1.1l2.1 1.1l2 1.2l2 1.3l2 1.3l1.9 1.5l1.8 1.4l1.8 1.6l1.8 1.6l1.7 1.6l1.6 1.7l1.6 1.8l1.5 1.8l1.5 1.9l1.4 1.9l1.3 1.9l1.2 2l1.2 2l1.1 2.1l1.1 2.2l1 2.3l1 2.4l0.8 2.5l0.8 2.5l0.7 2.6l0.6 2.6l0.5 2.7l0.5 2.7l0.4 2.7l0.3 2.9l0.2 2.8l0.1 2.9l0.1 2.9l-0.1 2.9l-0.1 3l-0.2 2.9l-0.3 3l-0.3 3l-0.4 3l-0.6 3l-0.6 3.1l-0.7 3l-0.7 3l-0.9 2.9l-0.9 3l-1 3l-1.1 2.9l-1.2 2.9l-1.3 2.9l-1.3 2.8l-1.4 2.8l-1.5 2.8l-1.6 2.7l-1.7 2.7l-1.8 2.6l-1.8 2.6l-2 2.5l-2 2.4l-2.1 2.4l-0.3 0.3l-0.3 0.3l-0.4 0.3l-0.3 0.3l-0.3 0.2l-0.4 0.2l-0.4 0.2l-0.3 0.2l-0.4 0.2l-0.4 0.1l-0.4 0.1l-0.4 0.1l-0.4 0.1l-0.4 0.1h-0.4l-0.4 0.1h-0.4h-0.4l-0.4-0.1h-0.3l-0.4-0.1l-0.4-0.1h-0.4l-0.4-0.2l-0.4-0.1l-0.3-0.2l-0.4-0.1l-0.4-0.2l-0.3-0.2l-0.4-0.2l-0.3-0.3l-0.3-0.2l-0.3-0.3l-0.3-0.3l-0.3-0.3l-0.3-0.3l-0.2-0.3l-0.3-0.4l-0.2-0.4l-0.2-0.4l-1.2-2.2l-1.3-2l-1.3-2l-1.4-1.7l-1.4-1.7l-1.5-1.6l-1.6-1.4l-1.6-1.4l-1.6-1.3l-1.7-1.1l-1.7-1.2l-1.7-1l-1.8-1l-1.8-0.9l-1.8-0.9l-1.9-0.9l-1.9-0.8l-1.9-0.8l-1.9-0.8l-1.9-0.8l-2-0.9l-1.9-0.8l-2-0.8l-1.9-0.9l-2-0.9l-1.9-1l-2-1l-1.9-1.1l-1.9-1.2l-1.9-1.2l-1.9-1.3l-1.9-1.4l-1.8-1.5l-1.8-1.7l-1.8-1.7l-1.8-1.9l-1.7-2l-1.7-2.1l-1.7-2.3l-1.6-2.5l-1.3-2.2l-1.2-2.2l-1.1-2.3l-1-2.3l-0.9-2.3l-0.8-2.3l-0.8-2.4l-0.6-2.5l-0.5-2.4l-0.4-2.5l-0.4-2.4l-0.2-2.5l-0.2-2.4v-2.5v-2.5l0.1-2.5l0.2-2.4l0.4-2.4l0.4-2.5l0.5-2.4l0.6-2.3l0.7-2.4l0.8-2.3l0.8-2.3l1-2.2l1.1-2.2l1.1-2.2l1.3-2.1l1.3-2l1.4-2zm35.5-63.6l0.5 1.3l0.5 1.4l0.5 1.4l0.5 1.3l0.5 1.3l0.5 1.3l0.4 1.3l0.5 1.3l0.5 1.3l0.4 1.2l0.5 1.3l0.4 1.2l0.4 1.2l0.5 1.2l0.4 1.1l0.4 1.2l0.4 1.1l0.4 1.1l0.4 1.1l0.4 1.1l0.3 1.1l0.4 1h-3h-3l-3 0.3l-3 0.3l-3 0.5l-3 0.6l-2.9 0.7l-3 0.8l-2.9 1l-2.9 1.1l-2.9 1.2l-2.8 1.3l-2.8 1.5l-2.7 1.5l-2.6 1.8l-2.6 1.8l-2.5 1.9l-2.5 2.1l-2.4 2.2l-2.2 2.3l-2.2 2.5l-2.1 2.6l-2 2.7l-0.6-1l-0.6-0.9l-0.7-1l-0.7-1l-0.6-1l-0.7-1l-0.7-1.1l-0.7-1l-0.7-1.1l-0.8-1.1l-0.7-1.1l-0.8-1.1l-0.7-1.2l-0.8-1.2l-0.7-1.1l-0.8-1.2l-0.8-1.2l-0.8-1.2l-0.8-1.3l-0.8-1.2l-0.8-1.3l-0.9-1.3l-0.8-1.3l68.7-33zm-133.1-154.9l0.9-1l0.9-0.9l0.9-0.9l1-0.9l1-0.8l1-0.8l1.1-0.7l1.1-0.7l1.1-0.6l1.2-0.5l1.1-0.6l1.2-0.4l1.2-0.4l1.3-0.4l1.2-0.3l1.3-0.2l1.3-0.2l1.3-0.2h1.3l1.4-0.1l1.3 0.1l1.4 0.1l1.3 0.1l1.4 0.3l1.4 0.2l1.4 0.4l1.3 0.4l1.4 0.5l1.4 0.5l2.9 1.3l2.9 1.6l2.8 1.9l2.9 2.1l2.8 2.3l2.9 2.5l2.8 2.8l2.8 3l2.8 3.1l2.8 3.3l2.7 3.5l2.7 3.6l2.7 3.8l2.7 3.9l2.6 4l2.6 4.1l2.5 4.2l2.5 4.3l2.5 4.4l2.5 4.3l2.4 4.5l2.3 4.5l2.3 4.5l2.3 4.5l2.2 4.5l2.1 4.5l2.1 4.4l2 4.4l2 4.4l1.9 4.3l1.9 4.2l1.8 4.2l1.7 4l1.6 3.9l1.6 3.9l1.5 3.6l1.4 3.6l1.4 3.3l1.3 3.2l1.1 3l-71.7 34.6l-1.7-2.8l-1.8-2.9l-1.9-3l-1.9-3.2l-2-3.4l-2.1-3.5l-2.1-3.6l-2.2-3.7l-2.2-3.9l-2.3-3.9l-2.3-4.1l-2.2-4.1l-2.3-4.2l-2.3-4.3l-2.3-4.3l-2.2-4.4l-2.3-4.4l-2.2-4.5l-2.1-4.4l-2.1-4.6l-2-4.5l-2-4.5l-1.9-4.5l-1.8-4.5l-1.8-4.5l-1.6-4.4l-1.5-4.4l-1.4-4.4l-1.3-4.2l-1.1-4.3l-1-4.1l-0.9-4.1l-0.7-4l-0.5-3.9l-0.4-3.7l-0.2-3.7v-3.5l0.2-3.4l0.4-3.3l0.6-3.1l0.4-1.5l0.4-1.4l0.5-1.3l0.5-1.4l0.6-1.3l0.6-1.2l0.6-1.2l0.7-1.2l0.8-1.1l0.8-1.1z" />
					<path id="Layer copy 20" class="s0" d="m555.8 549.8c8.4 9.6 11 16.6 11 16.6l2.7 4.9l3.5 5.3l3.6 5.5l3.5 5.5l3.5 5.8l3.5 5.8l3.4 5.9l3.4 6l3.4 6.1l3.3 6.1l3.3 6.2l3.2 6.2l3.2 6.2l3.2 6.2l3 6.1l3.1 6.1l2.9 6.1l2.9 5.9l2.8 5.9l2.7 5.8l2.6 5.7l2.6 5.4l2.4 5.4l2.4 5.2l2.2 5l2.1 4.8l2.1 4.6l1.9 4.3l1.8 4.1l-71.1 35.8l-2.3-3.8l-2.4-4l-2.6-4.2l-2.6-4.5l-2.8-4.6l-2.8-4.9l-2.9-5l-3-5.2l-3-5.3l-3.1-5.4l-3.2-5.6l-3.1-5.7l-3.2-5.8l-3.2-5.9l-3.2-6l-3.2-6l-3.1-6.1l-3.1-6.1l-3.1-6.1l-3-6.2l-3-6.2l-2.9-6.1l-2.8-6.2l-2.7-6.1l-2.7-6.1l-2.5-6l-2.4-5.9l-2.2-5.9l-2.1-5.8l-4.5-11.2l-1.6-4.4l-2.6-6.3l-3-7.6c0 0-4.1-10.4-7.2-17.9c-11.3-27.7-8.1-21.8-8.1-21.8c16.4-7.4 36.6-24.6 44-36c0 0 7.7 8 20.9 24.8c13.4 17.1 11.8 14.8 20.2 26.6z" />
				</g>
			</g>
			<g id="magnifier">
				<g id="Layer">
					<g id="Layer">
						<path id="Capa 5" fill-rule="evenodd" class="s0" d="m244.5 262.5c12-38.7 25.8-60.7 45.8-80.8c22.1-22.1 57.2-37.7 99.7-43.6c47.8-6.8 79.9-0.4 113 10.6c52.3 17.4 99.8 60.7 117 85.3c21 30.1 45.7 74.7 46 151.4c0.1 34.4-19 98.7-40.5 127.7c-12.5 16.8-28.2 35.3-47.5 51.6c0 0-6-8.3-12.7-15.6c-6.7-7.4-12-13.7-12-13.7c27.6-26.1 28.7-29.9 43.5-53.1c14-22.2 26.8-55.2 30.4-94.3c3.1-32.2-4.4-72-31.2-118.9c-22-38.5-55.9-64.3-100-81.6c-42.3-16.5-80.6-15.2-110.2-9.7c-42.9 8.1-76 29.6-98 49.1c-10 8.9-14.5 14.6-24.3 26.9c0 0-8.2 1.5-19 8.7zm118.2 309.2c25.6 7.4 32.6 9.4 57.6 10c24.4 0.7 51-5.3 60-8c0 0 3.9 11.3 5.7 17.4c2.8 9.5 6.8 18.7 6.8 18.7c0 0-33.1 10.3-63.1 10.3c-30 0-39.9-1.5-66.2-7.8z" />
					</g>
					<g id="Layer">
						<path id="Layer copy 19" class="s1" d="m641.3 374c9.6 119.1-79.4 223-198.7 232.4c-119.5 9.5-225.5-79.1-236.7-198.5c-11.2-120.2 78.1-226 199.1-235.3c120.8-9.2 226.7 81.4 236.3 201.4z" />
					</g>
				</g>
			</g>
			<g id="hammer">
				<g id="Layer">
					<g id="Layer">
					</g>
					<g id="Layer">
						<path id="Layer copy 4" class="s0" d="m269 539.4c7.7 11 61 11 85.2 12.8l0.4 347.6c0 18.3-5.9 36-16.3 48.5c-20.2 24.5-51.7 23-70.1-3.4c-9.7-13.8-14.2-30.4-13.6-47.8z" />
					</g>
				</g>
			</g>
			<g id="bug">
				<path id="Layer copy 25" fill-rule="evenodd" class="s0" d="m537.4 420.4c-2.4 15.4-38 120.3-136.3 114.2l-119-7.2c-7-0.6-12.9-4.7-12.5-12.7l10.1-254.8c1.1-6 7-14.4 14.5-13.5l119 5.2c101.4 4.6 123.5 106.1 126.6 123.7l-0.7 12.8l-228.7-10.3l-0.6 19.6l228.3 10.2z" />
				<path id="Layer" class="s2" d="m227.7 488.4c-50-8.9-85.9-53.5-83.6-104.5c2.2-51 41.9-92.3 92.5-96.8c0 0-8.9 201.3-8.9 201.3z" />
				<path id="Layer copy 27" class="s0" d="m159 438.2c-6.1-1.3-25.8-5.6-26.1 12.2c0 0-3.4 12.2-12.1 9.9c-18.8-5-6.3-24.6-6.3-24.6c3.8-7.4 13.8-21.8 46.3-12.3c6.3 1.9 6.5 16.5-1.8 14.8z" />
				<path id="Layer copy 28" class="s0" d="m163.7 333.2c-33.1 7.5-42.2-7.5-45.5-15.2c0 0-11.2-20.3 7.9-24.1c8.8-1.7 11.4 10.6 11.4 10.6c-0.8 17.8 19.2 14.8 25.3 13.9c8.4-1.2 7.3 13.4 0.9 14.8z" />
			</g>
			<g id="Layer">
				<path id="Layer" class="s0" d="m451 123c-9.2-2.2-14.9-11.2-12.8-20.1l16.1-67.6c2.1-8.9 11.3-14.3 20.5-12.1c9.2 2.2 14.9 11.1 12.8 20l-16.2 67.7c-2.1 8.8-11.2 14.3-20.4 12.1z" />
				<path id="Layer" class="s0" d="m204.3 219.8l-59.8-34.3c-7.8-4.5-10.4-14.7-5.7-22.8c4.6-8.1 14.7-11.1 22.6-6.6l59.7 34.3c7.8 4.5 10.4 14.7 5.8 22.8c-4.7 8.2-14.8 11.1-22.6 6.6z" />
				<path id="Layer" class="s0" d="m300.7 126.9l-27.4-63.6c-3.5-8.3 0.5-18.1 9.2-21.8c8.6-3.7 18.5 0 22.1 8.4l27.4 63.6c3.6 8.3-0.5 18.1-9.2 21.8c-8.6 3.7-18.5 0-22.1-8.4z" />
			</g>
		</g>
	</g>
</svg>