<?xml version="1.0" encoding="UTF-8"?>
<!DOCTYPE svg PUBLIC "-//W3C//DTD SVG 1.1//EN" "http://www.w3.org/Graphics/SVG/1.1/DTD/svg11.dtd">
<svg xmlns="http://www.w3.org/2000/svg" xmlns:xlink="http://www.w3.org/1999/xlink" version="1.1">
   <metadata>Created by FontForge 20170812 at Tue Nov  3 11:52:49 2020
 By www-data
Copyright (c) 2019 by Rune Bjrneras. All rights reserved.</metadata>
   <defs>
      <font id="VictorMono-Oblique" horiz-adv-x="600">
         <font-face font-family="Victor Mono Oblique" font-weight="400" font-style="oblique" font-stretch="normal" units-per-em="1100" panose-1="0 0 5 9 0 0 0 0 0 0" ascent="880" descent="-220" x-height="618" cap-height="800" bbox="-1795 -529 856 1306" underline-thickness="50" underline-position="-100" slope="-12" unicode-range="U+0020-E0B3" />
         <missing-glyph d="M356 0h-354l173 814h354zM231 751l-146 -688h216l146 688h-216z" />
         <glyph glyph-name=".notdef" d="M356 0h-354l173 814h354zM231 751l-146 -688h216l146 688h-216z" />
         <glyph glyph-name=".null" horiz-adv-x="228" />
         <glyph glyph-name="nonmarkingreturn" />
         <glyph glyph-name="space" unicode=" " />
         <glyph glyph-name="A" unicode="A" d="M494 0h-70l-13 207h-263l-101 -207h-73l392 800h75zM382 689l-203 -418h228z" />
         <glyph glyph-name="Aacute" unicode="Á" d="M494 0h-70l-13 207h-263l-101 -207h-73l392 800h75zM382 689l-203 -418h228zM583 996l-174 -130l-37 48l175 130z" />
         <glyph glyph-name="Abreve" unicode="Ă" d="M494 0h-70l-13 207h-263l-101 -207h-73l392 800h75zM382 689l-203 -418h228zM336 899.5q-28 18.5 -28 60.5q0 20 8 54h68q-6 -24 -6 -38q0 -18 11 -24.5t39 -6.5q44 0 62 14.5t26 54.5h67q-9 -52 -26.5 -80.5t-48 -40.5t-82.5 -12q-62 0 -90 18.5z" />
         <glyph glyph-name="uni1EAE" unicode="Ắ" d="M494 0h-70l-13 207h-263l-101 -207h-73l392 800h75zM382 689l-203 -418h228zM578 1039l-153 -114l-37 48l153 115zM323 842q-28 16 -28 55q0 23 7 50h68q-4 -16 -4 -29q0 -16 11 -22t39 -6q43 0 61 13t25 44h67q-9 -49 -25.5 -75t-46.5 -36t-83 -10q-63 0 -91 16z" />
         <glyph glyph-name="uni1EB6" unicode="Ặ" d="M494 0h-70l-13 207h-263l-101 -207h-73l392 800h75zM382 689l-203 -418h228zM147.5 -219.5q-13.5 8.5 -13.5 29.5q0 11 3 26q7 31 22 43t48 12q31 0 44.5 -9t13.5 -30q0 -10 -3 -25q-7 -31 -22 -43t-48 -12q-31 0 -44.5 8.5zM336 899.5q-28 18.5 -28 60.5q0 20 8 54h68 q-6 -24 -6 -38q0 -18 11 -24.5t39 -6.5q44 0 62 14.5t26 54.5h67q-9 -52 -26.5 -80.5t-48 -40.5t-82.5 -12q-62 0 -90 18.5z" />
         <glyph glyph-name="uni1EB0" unicode="Ằ" d="M494 0h-70l-13 207h-263l-101 -207h-73l392 800h75zM382 689l-203 -418h228zM494 973l-55 -48l-108 114l53 49zM323 842q-28 16 -28 55q0 23 7 50h68q-4 -16 -4 -29q0 -16 11 -22t39 -6q43 0 61 13t25 44h67q-9 -49 -25.5 -75t-46.5 -36t-83 -10q-63 0 -91 16z" />
         <glyph glyph-name="uni1EB2" unicode="Ẳ" d="M494 0h-70l-13 207h-263l-101 -207h-73l392 800h75zM382 689l-203 -418h228zM582 937q34 7 55 21t25 30l1 5q0 9 -6.5 14t-15.5 5q-21 0 -49 -13.5t-54 -32.5l12 79q20 14 45.5 22t47.5 8q40 0 64.5 -20t24.5 -53q0 -10 -3 -21q-7 -37 -43.5 -66t-93.5 -40zM323 842 q-28 16 -28 55q0 23 7 50h68q-4 -16 -4 -29q0 -16 11 -22t39 -6q43 0 61 13t25 44h67q-9 -50 -25.5 -76t-46.5 -35.5t-83 -9.5q-63 0 -91 16z" />
         <glyph glyph-name="uni1EB4" unicode="Ẵ" d="M494 0h-70l-13 207h-263l-101 -207h-73l392 800h75zM382 689l-203 -418h228zM692.5 965.5q-17.5 12.5 -42.5 37.5q-13 14 -21 20.5t-15 6.5q-33 0 -38 -51h-69q9 53 38 84t70 31q22 0 40.5 -13t40.5 -36q14 -15 22 -21.5t15 -6.5q33 0 37 48h68q-7 -50 -36.5 -81 t-69.5 -31q-22 0 -39.5 12.5zM323 842q-28 16 -28 55q0 23 7 50h68q-4 -16 -4 -29q0 -16 11 -22t39 -6q43 0 60.5 13t25.5 44h67q-9 -50 -25.5 -75.5t-46.5 -35.5t-83 -10q-63 0 -91 16z" />
         <glyph glyph-name="uni01CD" unicode="Ǎ" d="M494 0h-70l-13 207h-263l-101 -207h-73l392 800h75zM382 689l-203 -418h228zM590 991l-171 -129l-118 127l59 42l74 -81l109 83z" />
         <glyph glyph-name="Acircumflex" unicode="Â" d="M494 0h-70l-13 207h-263l-101 -207h-73l392 800h75zM382 689l-203 -418h228zM569 900l-60 -42l-73 83l-109 -81l-45 42l169 127z" />
         <glyph glyph-name="uni1EA4" unicode="Ấ" d="M494 0h-70l-13 207h-263l-101 -207h-73l392 800h75zM382 689l-203 -418h228zM723 1027l-153 -114l-38 48l154 114zM564 875l-60 -41l-73 82l-109 -80l-45 41l169 128z" />
         <glyph glyph-name="uni1EAC" unicode="Ậ" d="M494 0h-70l-13 207h-263l-101 -207h-73l392 800h75zM382 689l-203 -418h228zM147.5 -219.5q-13.5 8.5 -13.5 29.5q0 11 3 26q7 31 22 43t48 12q31 0 44.5 -9t13.5 -30q0 -10 -3 -25q-7 -31 -22 -43t-48 -12q-31 0 -44.5 8.5zM569 900l-60 -42l-73 83l-109 -81l-45 42 l169 127z" />
         <glyph glyph-name="uni1EA6" unicode="Ầ" d="M494 0h-70l-13 207h-263l-101 -207h-73l392 800h75zM382 689l-203 -418h228zM611 906l-99 110l57 44l102 -112zM569 900l-60 -42l-73 83l-109 -81l-45 42l169 127z" />
         <glyph glyph-name="uni1EA8" unicode="Ẩ" d="M494 0h-70l-13 207h-263l-101 -207h-73l392 800h75zM382 689l-203 -418h228zM564 876l-60 -42l-73 83l-109 -81l-45 42l169 127zM582 937q34 7 55.5 20.5t24.5 30.5l1 5q0 9 -6.5 13.5t-15.5 4.5q-21 0 -49 -13t-54 -32l12 79q20 14 45.5 22t47.5 8q40 0 64.5 -20 t24.5 -54q0 -44 -37.5 -78.5t-102.5 -47.5z" />
         <glyph glyph-name="uni1EAA" unicode="Ẫ" d="M494 0h-70l-13 207h-263l-101 -207h-73l392 800h75zM382 689l-203 -418h228zM564 876l-60 -42l-73 83l-109 -81l-45 42l169 127zM694 930.5q-19 13.5 -40 36.5q-14 14 -22 20.5t-15 6.5q-32 0 -37 -51h-69q8 52 37.5 83.5t70.5 31.5q22 0 40 -13t40 -36q16 -16 23.5 -22 t14.5 -6q31 0 37 48h68q-7 -51 -36.5 -81.5t-70.5 -30.5q-22 0 -41 13.5z" />
         <glyph glyph-name="Adieresis" unicode="Ä" d="M494 0h-70l-13 207h-263l-101 -207h-73l392 800h75zM382 689l-203 -418h228zM280.5 917q-14.5 10 -14.5 32q0 11 3 24q6 31 21 42.5t48 11.5q31 0 45.5 -10.5t14.5 -32.5q0 -10 -3 -22q-7 -31 -22 -43t-48 -12q-30 0 -44.5 10zM496.5 917q-14.5 10 -14.5 32q0 11 3 24 q6 31 21 42.5t48 11.5q31 0 45.5 -10.5t14.5 -32.5q0 -10 -3 -22q-7 -31 -22 -43t-48 -12q-30 0 -44.5 10z" />
         <glyph glyph-name="uni1EA0" unicode="Ạ" d="M494 0h-70l-13 207h-263l-101 -207h-73l392 800h75zM382 689l-203 -418h228zM147.5 -219.5q-13.5 8.5 -13.5 29.5q0 11 3 26q7 31 22 43t48 12q31 0 44.5 -9t13.5 -30q0 -10 -3 -25q-7 -31 -22 -43t-48 -12q-31 0 -44.5 8.5z" />
         <glyph glyph-name="Agrave" unicode="À" d="M494 0h-70l-13 207h-263l-101 -207h-73l392 800h75zM382 689l-203 -418h228zM485 914l-54 -48l-124 130l54 48z" />
         <glyph glyph-name="uni1EA2" unicode="Ả" d="M494 0h-70l-13 207h-263l-101 -207h-73l392 800h75zM382 689l-203 -418h228zM383 903q34 7 55.5 20.5t24.5 30.5l1 5q0 9 -6.5 13.5t-15.5 4.5q-21 0 -49 -13t-54 -32l12 79q20 14 45.5 22t47.5 8q40 0 64.5 -20t24.5 -54q0 -44 -37.5 -78.5t-102.5 -47.5z" />
         <glyph glyph-name="Amacron" unicode="Ā" d="M494 0h-70l-13 207h-263l-101 -207h-73l392 800h75zM382 689l-203 -418h228zM572 900h-293l13 64h293z" />
         <glyph glyph-name="Aogonek" unicode="Ą" d="M501 -160q-16 -16 -43 -26t-55 -10q-53 0 -83.5 20.5t-30.5 58.5q0 34 38.5 66.5t96.5 54.5l-13 203h-263l-101 -207h-73l392 800h75l53 -800q-77 -40 -107 -60t-30 -41q0 -15 12 -23.5t34 -8.5q15 0 30 6t26 16zM382 689l-203 -418h228z" />
         <glyph glyph-name="Aring" unicode="Å" d="M530 971.5q28 -18.5 28 -61.5q0 -20 -6 -49q-12 -56 -36 -82t-71 -33l49 -746h-70l-13 207h-263l-101 -207h-73l367 748q-32 7 -46.5 26t-14.5 51q0 25 5 47q15 67 48 92.5t105 25.5q64 0 92 -18.5zM489 898q0 17 -11.5 23t-40.5 6q-41 0 -59 -14t-26 -52q-3 -15 -3 -25 q0 -18 11 -24t39 -6q42 0 60 14t26 52q4 20 4 26zM382 689l-203 -418h228z" />
         <glyph glyph-name="Atilde" unicode="Ã" d="M494 0h-70l-13 207h-263l-101 -207h-73l392 800h75zM382 689l-203 -418h228zM453 894.5q-19 13.5 -40 36.5q-14 14 -22 20.5t-15 6.5q-32 0 -37 -51h-69q8 52 37.5 83.5t70.5 31.5q22 0 40 -13t40 -36q16 -16 23.5 -22t14.5 -6q31 0 37 48h68q-7 -51 -36.5 -81.5 t-70.5 -30.5q-22 0 -41 13.5z" />
         <glyph glyph-name="AE" unicode="Æ" d="M693 800l-13 -63h-219l-71 -328h144l-13 -64h-143l-61 -282h220l-14 -63h-288l54 253h-158l-120 -253h-72l380 800h374zM162 317h141l89 420h-31z" />
         <glyph glyph-name="B" unicode="B" d="M19 0l170 800h196q103 0 148 -30t45 -99q0 -29 -10 -79q-14 -71 -40.5 -106.5t-83.5 -58.5q43 -16 62.5 -43t19.5 -73q0 -40 -11 -88q-18 -86 -48.5 -133.5t-82.5 -68.5t-138 -21h-227zM312 455q62 0 98.5 13t57.5 44.5t34 90.5q7 31 7 56q0 44 -29.5 61t-101.5 17h-133 l-61 -282h128zM254 63q61 0 98 16t60 52.5t37 102.5q10 48 10 73q0 48 -29.5 66t-100.5 18h-158l-70 -328h153z" />
         <glyph glyph-name="C" unicode="C" d="M102.5 31.5q-46.5 45.5 -46.5 151.5q0 85 29 224q34 156 75 243.5t101.5 125.5t154.5 38q66 0 104.5 -17t58.5 -55.5t26 -106.5l-68 -17q-5 54 -17 82t-36.5 39.5t-68.5 11.5q-72 0 -119 -33t-81 -109.5t-63 -213.5q-28 -130 -28 -206t30.5 -108t99.5 -32q47 0 78.5 12.5 t57 41.5t53.5 82l62 -28q-35 -67 -69 -103.5t-77 -52t-106 -15.5q-104 0 -150.5 45.5z" />
         <glyph glyph-name="Cacute" unicode="Ć" d="M102.5 31.5q-46.5 45.5 -46.5 151.5q0 85 29 224q34 156 75 243.5t101.5 125.5t154.5 38q66 0 104.5 -17t58.5 -55.5t26 -106.5l-68 -17q-5 54 -17 82t-36.5 39.5t-68.5 11.5q-72 0 -119 -33t-81 -109.5t-63 -213.5q-28 -130 -28 -206t30.5 -108t99.5 -32q47 0 78.5 12.5 t57 41.5t53.5 82l62 -28q-35 -67 -69 -103.5t-77 -52t-106 -15.5q-104 0 -150.5 45.5zM582 993l-174 -130l-37 48l175 130z" />
         <glyph glyph-name="Ccaron" unicode="Č" d="M102.5 31.5q-46.5 45.5 -46.5 151.5q0 85 29 224q34 156 75 243.5t101.5 125.5t154.5 38q66 0 104.5 -17t58.5 -55.5t26 -106.5l-68 -17q-5 54 -17 82t-36.5 39.5t-68.5 11.5q-72 0 -119 -33t-81 -109.5t-63 -213.5q-28 -130 -28 -206t30.5 -108t99.5 -32q47 0 78.5 12.5 t57 41.5t53.5 82l62 -28q-35 -67 -69 -103.5t-77 -52t-106 -15.5q-104 0 -150.5 45.5zM589 988l-171 -129l-118 127l59 42l74 -81l109 83z" />
         <glyph glyph-name="Ccedilla" unicode="Ç" d="M296 718q-47 -33 -81 -109.5t-63 -213.5q-28 -130 -28 -206t30.5 -108t99.5 -32q47 0 78.5 12.5t57 41.5t53.5 82l62 -28q-34 -65 -67 -101.5t-74.5 -52.5t-101.5 -17l-8 -29q28 -7 44 -25t16 -43q0 -10 -1 -15q-8 -40 -43 -63.5t-85 -23.5q-30 0 -55 10.5t-37 26.5 l35 49q9 -10 25.5 -16.5t33.5 -6.5q22 0 39 10t20 25q2 12 -15.5 18.5t-50.5 6.5l14 80q-72 11 -105.5 57t-33.5 136q0 80 30 224q34 156 75 243.5t101.5 125.5t154.5 38q66 0 104.5 -17t58.5 -55.5t26 -106.5l-68 -17q-5 54 -17 82t-36.5 39.5t-68.5 11.5q-72 0 -119 -33z " />
         <glyph glyph-name="Ccircumflex" unicode="Ĉ" d="M102.5 31.5q-46.5 45.5 -46.5 151.5q0 85 29 224q34 156 75 243.5t101.5 125.5t154.5 38q66 0 104.5 -17t58.5 -55.5t26 -106.5l-68 -17q-5 54 -17 82t-36.5 39.5t-68.5 11.5q-72 0 -119 -33t-81 -109.5t-63 -213.5q-28 -130 -28 -206t30.5 -108t99.5 -32q47 0 78.5 12.5 t57 41.5t53.5 82l62 -28q-35 -67 -69 -103.5t-77 -52t-106 -15.5q-104 0 -150.5 45.5zM568 897l-60 -42l-73 83l-109 -81l-45 42l169 127z" />
         <glyph glyph-name="Cdotaccent" unicode="Ċ" d="M102.5 31.5q-46.5 45.5 -46.5 151.5q0 85 29 224q34 156 75 243.5t101.5 125.5t154.5 38q66 0 104.5 -17t58.5 -55.5t26 -106.5l-68 -17q-5 54 -17 82t-36.5 39.5t-68.5 11.5q-72 0 -119 -33t-81 -109.5t-63 -213.5q-28 -130 -28 -206t30.5 -108t99.5 -32q47 0 78.5 12.5 t57 41.5t53.5 82l62 -28q-35 -67 -69 -103.5t-77 -52t-106 -15.5q-104 0 -150.5 45.5zM389.5 927.5q-13.5 8.5 -13.5 29.5q0 11 3 26q7 31 22 43t48 12q31 0 44.5 -9t13.5 -30q0 -10 -3 -25q-7 -31 -22 -43t-48 -12q-31 0 -44.5 8.5z" />
         <glyph glyph-name="D" unicode="D" d="M414 800q97 0 140.5 -43.5t43.5 -144.5q0 -82 -29 -218q-33 -151 -72.5 -235.5t-97.5 -121.5t-149 -37h-240l170 800h234zM530 605q0 72 -29 102t-94 30h-173l-141 -674h165q65 0 108.5 32t75.5 106t60 205q28 132 28 199z" />
         <glyph glyph-name="Eth" unicode="Ð" d="M417 800q97 0 140.5 -43.5t43.5 -144.5q0 -82 -29 -218q-33 -151 -72.5 -235.5t-97.5 -121.5t-149 -37h-240l83 391h-52l13 64h53l73 345h234zM533 605q0 72 -29 102t-94 30h-173l-59 -282h144l-12 -64h-145l-69 -328h165q65 0 108.5 32t75.5 106t60 205q28 132 28 199z " />
         <glyph glyph-name="Dcaron" unicode="Ď" d="M414 800q97 0 140.5 -43.5t43.5 -144.5q0 -82 -29 -218q-33 -151 -72.5 -235.5t-97.5 -121.5t-149 -37h-240l170 800h234zM530 605q0 72 -29 102t-94 30h-173l-141 -674h165q65 0 108.5 32t75.5 106t60 205q28 132 28 199zM589 988l-171 -129l-118 127l59 42l74 -81 l109 83z" />
         <glyph glyph-name="Dcroat" unicode="Đ" d="M417 800q97 0 140.5 -43.5t43.5 -144.5q0 -82 -29 -218q-33 -151 -72.5 -235.5t-97.5 -121.5t-149 -37h-240l83 391h-52l13 64h53l73 345h234zM533 605q0 72 -29 102t-94 30h-173l-59 -282h144l-12 -64h-145l-69 -328h165q65 0 108.5 32t75.5 106t60 205q28 132 28 199z " />
         <glyph glyph-name="E" unicode="E" d="M640 800l-13 -63h-375l-59 -282h239l-13 -64h-241l-68 -328h373l-13 -63h-443l170 800h443z" />
         <glyph glyph-name="Eacute" unicode="É" d="M640 800l-13 -63h-375l-59 -282h239l-13 -64h-241l-68 -328h373l-13 -63h-443l170 800h443zM597 996l-174 -130l-37 48l175 130z" />
         <glyph glyph-name="Ecaron" unicode="Ě" d="M640 800l-13 -63h-375l-59 -282h239l-13 -64h-241l-68 -328h373l-13 -63h-443l170 800h443zM604 991l-171 -129l-118 127l59 42l74 -81l109 83z" />
         <glyph glyph-name="Ecircumflex" unicode="Ê" d="M640 800l-13 -63h-375l-59 -282h239l-13 -64h-241l-68 -328h373l-13 -63h-443l170 800h443zM583 900l-60 -42l-73 83l-109 -81l-45 42l169 127z" />
         <glyph glyph-name="uni1EBE" unicode="Ế" d="M640 800l-13 -63h-375l-59 -282h239l-13 -64h-241l-68 -328h373l-13 -63h-443l170 800h443zM737 1027l-153 -114l-38 48l154 114zM578 875l-60 -41l-73 82l-109 -80l-45 41l169 128z" />
         <glyph glyph-name="uni1EC6" unicode="Ệ" d="M640 800l-13 -63h-375l-59 -282h239l-13 -64h-241l-68 -328h373l-13 -63h-443l170 800h443zM161.5 -219.5q-13.5 8.5 -13.5 29.5q0 11 3 26q7 31 22 43t48 12q31 0 44.5 -9t13.5 -30q0 -10 -3 -25q-7 -31 -22 -43t-48 -12q-31 0 -44.5 8.5zM583 900l-60 -42l-73 83 l-109 -81l-45 42l169 127z" />
         <glyph glyph-name="uni1EC0" unicode="Ề" d="M640 800l-13 -63h-375l-59 -282h239l-13 -64h-241l-68 -328h373l-13 -63h-443l170 800h443zM625 906l-99 110l57 44l102 -112zM583 900l-60 -42l-73 83l-109 -81l-45 42l169 127z" />
         <glyph glyph-name="uni1EC2" unicode="Ể" d="M640 800l-13 -63h-375l-59 -282h239l-13 -64h-241l-68 -328h373l-13 -63h-443l170 800h443zM578 876l-60 -42l-73 83l-109 -81l-45 42l169 127zM596 937q34 7 55.5 20.5t24.5 30.5l1 5q0 9 -6.5 13.5t-15.5 4.5q-21 0 -49 -13t-54 -32l12 79q20 14 45.5 22t47.5 8 q40 0 64.5 -20t24.5 -54q0 -44 -37.5 -78.5t-102.5 -47.5z" />
         <glyph glyph-name="uni1EC4" unicode="Ễ" d="M640 800l-13 -63h-375l-59 -282h239l-13 -64h-241l-68 -328h373l-13 -63h-443l170 800h443zM578 876l-60 -42l-73 83l-109 -81l-45 42l169 127zM708 930.5q-19 13.5 -40 36.5q-14 14 -22 20.5t-15 6.5q-32 0 -37 -51h-69q8 52 37.5 83.5t70.5 31.5q22 0 40 -13t40 -36 q16 -16 23.5 -22t14.5 -6q31 0 37 48h68q-7 -51 -36.5 -81.5t-70.5 -30.5q-22 0 -41 13.5z" />
         <glyph glyph-name="Edieresis" unicode="Ë" d="M640 800l-13 -63h-375l-59 -282h239l-13 -64h-241l-68 -328h373l-13 -63h-443l170 800h443zM294.5 917q-14.5 10 -14.5 32q0 11 3 24q6 31 21 42.5t48 11.5q31 0 45.5 -10.5t14.5 -32.5q0 -10 -3 -22q-7 -31 -22 -43t-48 -12q-30 0 -44.5 10zM510.5 917 q-14.5 10 -14.5 32q0 11 3 24q6 31 21 42.5t48 11.5q31 0 45.5 -10.5t14.5 -32.5q0 -10 -3 -22q-7 -31 -22 -43t-48 -12q-30 0 -44.5 10z" />
         <glyph glyph-name="Edotaccent" unicode="Ė" d="M640 800l-13 -63h-375l-59 -282h239l-13 -64h-241l-68 -328h373l-13 -63h-443l170 800h443zM404.5 930.5q-13.5 8.5 -13.5 29.5q0 11 3 26q7 31 22 43t48 12q31 0 44.5 -9t13.5 -30q0 -10 -3 -25q-7 -31 -22 -43t-48 -12q-31 0 -44.5 8.5z" />
         <glyph glyph-name="uni1EB8" unicode="Ẹ" d="M640 800l-13 -63h-375l-59 -282h239l-13 -64h-241l-68 -328h373l-13 -63h-443l170 800h443zM161.5 -219.5q-13.5 8.5 -13.5 29.5q0 11 3 26q7 31 22 43t48 12q31 0 44.5 -9t13.5 -30q0 -10 -3 -25q-7 -31 -22 -43t-48 -12q-31 0 -44.5 8.5z" />
         <glyph glyph-name="Egrave" unicode="È" d="M640 800l-13 -63h-375l-59 -282h239l-13 -64h-241l-68 -328h373l-13 -63h-443l170 800h443zM499 914l-54 -48l-124 130l54 48z" />
         <glyph glyph-name="uni1EBA" unicode="Ẻ" d="M640 800l-13 -63h-375l-59 -282h239l-13 -64h-241l-68 -328h373l-13 -63h-443l170 800h443zM397 903q34 7 55.5 20.5t24.5 30.5l1 5q0 9 -6.5 13.5t-15.5 4.5q-21 0 -49 -13t-54 -32l12 79q20 14 45.5 22t47.5 8q40 0 64.5 -20t24.5 -54q0 -44 -37.5 -78.5t-102.5 -47.5z " />
         <glyph glyph-name="Emacron" unicode="Ē" d="M640 800l-13 -63h-375l-59 -282h239l-13 -64h-241l-68 -328h373l-13 -63h-443l170 800h443zM586 900h-293l13 64h293z" />
         <glyph glyph-name="Eogonek" unicode="Ę" d="M627 737h-375l-59 -282h239l-13 -64h-241l-68 -328h373l-13 -63q-77 -40 -107 -60t-30 -41q0 -15 12 -23.5t34 -8.5q15 0 30 6t26 16l42 -49q-16 -16 -43 -26t-55 -10q-53 0 -83.5 20.5t-30.5 58.5q0 32 35 63.5t89 53.5h-362l170 800h443z" />
         <glyph glyph-name="uni1EBC" unicode="Ẽ" d="M640 800l-13 -63h-375l-59 -282h239l-13 -64h-241l-68 -328h373l-13 -63h-443l170 800h443zM467 894.5q-19 13.5 -40 36.5q-14 14 -22 20.5t-15 6.5q-32 0 -37 -51h-69q8 52 37.5 83.5t70.5 31.5q22 0 40 -13t40 -36q16 -16 23.5 -22t14.5 -6q31 0 37 48h68 q-7 -51 -36.5 -81.5t-70.5 -30.5q-22 0 -41 13.5z" />
         <glyph glyph-name="F" unicode="F" d="M641 800l-13 -63h-376l-67 -328h238l-12 -64h-242l-72 -345h-69l170 800h443z" />
         <glyph glyph-name="G" unicode="G" d="M99.5 31q-48.5 45 -48.5 152q0 84 29 223q34 159 75.5 246.5t103.5 124.5t161 37q71 0 112 -18.5t60.5 -61.5t23.5 -118l-67 -11q-3 57 -16 88.5t-39.5 44.5t-74.5 13q-75 0 -124.5 -33t-84 -110t-63.5 -214q-28 -132 -28 -201q0 -78 33 -111t106 -33q66 0 106 26.5 t79 94.5l39 175h-174l12 64h243l-53 -255q-35 -66 -69.5 -102t-77.5 -51t-106 -15q-109 0 -157.5 45z" />
         <glyph glyph-name="Gbreve" unicode="Ğ" d="M99.5 31q-48.5 45 -48.5 152q0 84 29 223q34 159 75.5 246.5t103.5 124.5t161 37q71 0 112 -18.5t60.5 -61.5t23.5 -118l-67 -11q-3 57 -16 88.5t-39.5 44.5t-74.5 13q-75 0 -124.5 -33t-84 -110t-63.5 -214q-28 -132 -28 -201q0 -78 33 -111t106 -33q66 0 106 26.5 t79 94.5l39 175h-174l12 64h243l-53 -255q-35 -66 -69.5 -102t-77.5 -51t-106 -15q-109 0 -157.5 45zM335 896.5q-28 18.5 -28 60.5q0 20 8 54h68q-6 -24 -6 -38q0 -18 11 -24.5t39 -6.5q44 0 62 14.5t26 54.5h67q-9 -52 -26.5 -80.5t-48 -40.5t-82.5 -12q-62 0 -90 18.5z " />
         <glyph glyph-name="Gcircumflex" unicode="Ĝ" d="M99.5 31q-48.5 45 -48.5 152q0 84 29 223q34 159 75.5 246.5t103.5 124.5t161 37q71 0 112 -18.5t60.5 -61.5t23.5 -118l-67 -11q-3 57 -16 88.5t-39.5 44.5t-74.5 13q-75 0 -124.5 -33t-84 -110t-63.5 -214q-28 -132 -28 -201q0 -78 33 -111t106 -33q66 0 106 26.5 t79 94.5l39 175h-174l12 64h243l-53 -255q-35 -66 -69.5 -102t-77.5 -51t-106 -15q-109 0 -157.5 45zM568 897l-60 -42l-73 83l-109 -81l-45 42l169 127z" />
         <glyph glyph-name="uni0122" unicode="Ģ" d="M99.5 31q-48.5 45 -48.5 152q0 84 29 223q34 159 75.5 246.5t103.5 124.5t161 37q71 0 112 -18.5t60.5 -61.5t23.5 -118l-67 -11q-3 57 -16 88.5t-39.5 44.5t-74.5 13q-75 0 -124.5 -33t-84 -110t-63.5 -214q-28 -132 -28 -201q0 -78 33 -111t106 -33q66 0 106 26.5 t79 94.5l39 175h-174l12 64h243l-53 -255q-35 -66 -69.5 -102t-77.5 -51t-106 -15q-109 0 -157.5 45zM199 -122q-19 6 -19 30q0 5 2 17q4 23 15 31.5t36 8.5q24 0 35 -7.5t11 -24.5q0 -12 -2 -19q-6 -26 -37 -71.5t-70 -90.5l-49 2z" />
         <glyph glyph-name="Gdotaccent" unicode="Ġ" d="M99.5 31q-48.5 45 -48.5 152q0 84 29 223q34 159 75.5 246.5t103.5 124.5t161 37q71 0 112 -18.5t60.5 -61.5t23.5 -118l-67 -11q-3 57 -16 88.5t-39.5 44.5t-74.5 13q-75 0 -124.5 -33t-84 -110t-63.5 -214q-28 -132 -28 -201q0 -78 33 -111t106 -33q66 0 106 26.5 t79 94.5l39 175h-174l12 64h243l-53 -255q-35 -66 -69.5 -102t-77.5 -51t-106 -15q-109 0 -157.5 45zM389.5 927.5q-13.5 8.5 -13.5 29.5q0 11 3 26q7 31 22 43t48 12q31 0 44.5 -9t13.5 -30q0 -10 -3 -25q-7 -31 -22 -43t-48 -12q-31 0 -44.5 8.5z" />
         <glyph glyph-name="H" unicode="H" d="M488 455l73 345h69l-170 -800h-69l83 391h-313l-83 -391h-69l170 800h69l-73 -345h313z" />
         <glyph glyph-name="Hbar" unicode="Ħ" d="M591 615h50l-13 -63h-51l-117 -552h-69l83 391h-313l-83 -391h-69l117 552h-50l13 63h51l39 185h69l-39 -185h313l39 185h69zM175 455h313l20 97h-313z" />
         <glyph glyph-name="Hcircumflex" unicode="Ĥ" d="M488 455l73 345h69l-170 -800h-69l83 391h-313l-83 -391h-69l170 800h69l-73 -345h313zM568 897l-60 -42l-73 83l-109 -81l-45 42l169 127z" />
         <glyph glyph-name="I" unicode="I" d="M601 800l-13 -63h-162l-144 -674h162l-13 -63h-393l13 63h162l144 674h-162l13 63h393z" />
         <glyph glyph-name="Iacute" unicode="Í" d="M601 800l-13 -63h-162l-144 -674h162l-13 -63h-393l13 63h162l144 674h-162l13 63h393zM583 996l-174 -130l-37 48l175 130z" />
         <glyph glyph-name="uni01CF" unicode="Ǐ" d="M601 800l-13 -63h-162l-144 -674h162l-13 -63h-393l13 63h162l144 674h-162l13 63h393zM590 991l-171 -129l-118 127l59 42l74 -81l109 83z" />
         <glyph glyph-name="Icircumflex" unicode="Î" d="M601 800l-13 -63h-162l-144 -674h162l-13 -63h-393l13 63h162l144 674h-162l13 63h393zM569 900l-60 -42l-73 83l-109 -81l-45 42l169 127z" />
         <glyph glyph-name="Idieresis" unicode="Ï" d="M601 800l-13 -63h-162l-144 -674h162l-13 -63h-393l13 63h162l144 674h-162l13 63h393zM280.5 917q-14.5 10 -14.5 32q0 11 3 24q6 31 21 42.5t48 11.5q31 0 45.5 -10.5t14.5 -32.5q0 -10 -3 -22q-7 -31 -22 -43t-48 -12q-30 0 -44.5 10zM496.5 917q-14.5 10 -14.5 32 q0 11 3 24q6 31 21 42.5t48 11.5q31 0 45.5 -10.5t14.5 -32.5q0 -10 -3 -22q-7 -31 -22 -43t-48 -12q-30 0 -44.5 10z" />
         <glyph glyph-name="Idotaccent" unicode="İ" d="M601 800l-13 -63h-162l-144 -674h162l-13 -63h-393l13 63h162l144 674h-162l13 63h393zM390.5 930.5q-13.5 8.5 -13.5 29.5q0 11 3 26q7 31 22 43t48 12q31 0 44.5 -9t13.5 -30q0 -10 -3 -25q-7 -31 -22 -43t-48 -12q-31 0 -44.5 8.5z" />
         <glyph glyph-name="uni1ECA" unicode="Ị" d="M601 800l-13 -63h-162l-144 -674h162l-13 -63h-393l13 63h162l144 674h-162l13 63h393zM147.5 -219.5q-13.5 8.5 -13.5 29.5q0 11 3 26q7 31 22 43t48 12q31 0 44.5 -9t13.5 -30q0 -10 -3 -25q-7 -31 -22 -43t-48 -12q-31 0 -44.5 8.5z" />
         <glyph glyph-name="Igrave" unicode="Ì" d="M601 800l-13 -63h-162l-144 -674h162l-13 -63h-393l13 63h162l144 674h-162l13 63h393zM485 914l-54 -48l-124 130l54 48z" />
         <glyph glyph-name="uni1EC8" unicode="Ỉ" d="M601 800l-13 -63h-162l-144 -674h162l-13 -63h-393l13 63h162l144 674h-162l13 63h393zM383 903q34 7 55.5 20.5t24.5 30.5l1 5q0 9 -6.5 13.5t-15.5 4.5q-21 0 -49 -13t-54 -32l12 79q20 14 45.5 22t47.5 8q40 0 64.5 -20t24.5 -54q0 -44 -37.5 -78.5t-102.5 -47.5z" />
         <glyph glyph-name="Imacron" unicode="Ī" d="M601 800l-13 -63h-162l-144 -674h162l-13 -63h-393l13 63h162l144 674h-162l13 63h393zM572 900h-293l13 64h293z" />
         <glyph glyph-name="Iogonek" unicode="Į" d="M588 737h-162l-144 -674h162l-13 -63h-124q-77 -40 -107 -60t-30 -41q0 -15 12 -23.5t34 -8.5q15 0 30 6t26 16l42 -49q-16 -16 -43 -26t-55 -10q-53 0 -83.5 20.5t-30.5 58.5q0 32 35 63.5t89 53.5h-188l13 63h162l144 674h-162l13 63h393z" />
         <glyph glyph-name="Itilde" unicode="Ĩ" d="M601 800l-13 -63h-162l-144 -674h162l-13 -63h-393l13 63h162l144 674h-162l13 63h393zM453 894.5q-19 13.5 -40 36.5q-14 14 -22 20.5t-15 6.5q-32 0 -37 -51h-69q8 52 37.5 83.5t70.5 31.5q22 0 40 -13t40 -36q16 -16 23.5 -22t14.5 -6q31 0 37 48h68 q-7 -51 -36.5 -81.5t-70.5 -30.5q-22 0 -41 13.5z" />
         <glyph glyph-name="J" unicode="J" d="M96 3q-39 17 -58 55t-25 105l66 12q5 -51 17 -77.5t37 -37.5t70 -11q71 0 117 29t78 95.5t57 186.5l81 377h-131l13 63h200l-95 -446q-30 -142 -69 -221t-98.5 -113t-153.5 -34q-67 0 -106 17z" />
         <glyph glyph-name="Jcircumflex" unicode="Ĵ" d="M96 3q-39 17 -58 55t-25 105l66 12q5 -51 17 -77.5t37 -37.5t70 -11q71 0 117 29t78 95.5t57 186.5l81 377h-131l13 63h200l-95 -446q-30 -142 -69 -221t-98.5 -113t-153.5 -34q-67 0 -106 17zM686 897l-60 -42l-73 83l-109 -81l-45 42l169 127z" />
         <glyph glyph-name="K" unicode="K" d="M589 800h87l-375 -359l206 -441h-79l-183 391h-78l-83 -391h-70l171 800h69l-73 -345h47z" />
         <glyph glyph-name="uni0136" unicode="Ķ" d="M589 800h87l-375 -359l206 -441h-79l-183 391h-78l-83 -391h-70l171 800h69l-73 -345h47zM199 -122q-19 6 -19 30q0 5 2 17q4 23 15 31.5t36 8.5q24 0 35 -7.5t11 -24.5q0 -12 -2 -19q-6 -26 -37 -71.5t-70 -90.5l-49 2z" />
         <glyph glyph-name="L" unicode="L" d="M450 0h-404l170 800h69l-157 -737h335z" />
         <glyph glyph-name="Lacute" unicode="Ĺ" d="M450 0h-404l170 800h69l-157 -737h335zM448 993l-174 -130l-37 48l175 130z" />
         <glyph glyph-name="Lcaron" unicode="Ľ" d="M450 0h-404l170 800h69l-157 -737h335zM424 540h-55l47 260h72z" />
         <glyph glyph-name="uni013B" unicode="Ļ" d="M450 0h-404l170 800h69l-157 -737h335zM199 -122q-19 6 -19 30q0 5 2 17q4 23 15 31.5t36 8.5q24 0 35 -7.5t11 -24.5q0 -12 -2 -19q-6 -26 -37 -71.5t-70 -90.5l-49 2z" />
         <glyph glyph-name="Lslash" unicode="Ł" d="M242 458l-84 -395h335l-13 -63h-404l91 430l-106 -40l14 66l106 40l65 304h69l-59 -276l145 54l-13 -66z" />
         <glyph glyph-name="M" unicode="M" d="M54 0h-70l185 800h66l74 -439l263 439h68l-156 -800h-69l122 624l-216 -371h-64l-59 371z" />
         <glyph glyph-name="N" unicode="N" d="M420 146l139 654h69l-170 -800h-73l-166 654l-139 -654h-69l170 800h73z" />
         <glyph glyph-name="Nacute" unicode="Ń" d="M420 146l139 654h69l-170 -800h-73l-166 654l-139 -654h-69l170 800h73zM583 996l-174 -130l-37 48l175 130z" />
         <glyph glyph-name="Ncaron" unicode="Ň" d="M420 146l139 654h69l-170 -800h-73l-166 654l-139 -654h-69l170 800h73zM590 991l-171 -129l-118 127l59 42l74 -81l109 83z" />
         <glyph glyph-name="uni0145" unicode="Ņ" d="M420 146l139 654h69l-170 -800h-73l-166 654l-139 -654h-69l170 800h73zM199 -125q-19 6 -19 30q0 5 2 17q4 23 15 31.5t36 8.5q24 0 35 -7.5t11 -24.5q0 -12 -2 -19q-6 -26 -37 -71.5t-70 -90.5l-49 2z" />
         <glyph glyph-name="Eng" unicode="Ŋ" d="M458 0h-44l44 -3q-15 -67 -36 -101t-57 -46.5t-100 -12.5l8 63q55 0 84 18t29 64q0 12 -1 18l-166 654l-139 -654h-69l170 800h73l166 -654l139 654h69z" />
         <glyph glyph-name="Ntilde" unicode="Ñ" d="M420 146l139 654h69l-170 -800h-73l-166 654l-139 -654h-69l170 800h73zM453 894.5q-19 13.5 -40 36.5q-14 14 -22 20.5t-15 6.5q-32 0 -37 -51h-69q8 52 37.5 83.5t70.5 31.5q22 0 40 -13t40 -36q16 -16 23.5 -22t14.5 -6q31 0 37 48h68q-7 -51 -36.5 -81.5t-70.5 -30.5 q-22 0 -41 13.5z" />
         <glyph glyph-name="O" unicode="O" d="M90 28.5q-46 42.5 -46 141.5q0 71 25 193l17 80q30 142 68.5 222t97 114.5t149.5 34.5q102 0 148 -42.5t46 -141.5q0 -71 -25 -193l-17 -80q-31 -143 -69.5 -222.5t-96.5 -114t-149 -34.5q-102 0 -148 42.5zM352.5 78.5q44.5 29.5 76 97t56.5 187.5l17 80q24 113 24 179 q0 71 -29.5 100t-96.5 29q-69 0 -114 -29.5t-76 -97t-56 -187.5l-17 -80q-24 -112 -24 -178q0 -71 30 -100.5t96 -29.5q69 0 113.5 29.5z" />
         <glyph glyph-name="Oacute" unicode="Ó" d="M90 28.5q-46 42.5 -46 141.5q0 71 25 193l17 80q30 142 68.5 222t97 114.5t149.5 34.5q102 0 148 -42.5t46 -141.5q0 -71 -25 -193l-17 -80q-31 -143 -69.5 -222.5t-96.5 -114t-149 -34.5q-102 0 -148 42.5zM352.5 78.5q44.5 29.5 76 97t56.5 187.5l17 80q24 113 24 179 q0 71 -29.5 100t-96.5 29q-69 0 -114 -29.5t-76 -97t-56 -187.5l-17 -80q-24 -112 -24 -178q0 -71 30 -100.5t96 -29.5q69 0 113.5 29.5zM583 996l-174 -130l-37 48l175 130z" />
         <glyph glyph-name="uni01D1" unicode="Ǒ" d="M90 28.5q-46 42.5 -46 141.5q0 71 25 193l17 80q30 142 68.5 222t97 114.5t149.5 34.5q102 0 148 -42.5t46 -141.5q0 -71 -25 -193l-17 -80q-31 -143 -69.5 -222.5t-96.5 -114t-149 -34.5q-102 0 -148 42.5zM352.5 78.5q44.5 29.5 76 97t56.5 187.5l17 80q24 113 24 179 q0 71 -29.5 100t-96.5 29q-69 0 -114 -29.5t-76 -97t-56 -187.5l-17 -80q-24 -112 -24 -178q0 -71 30 -100.5t96 -29.5q69 0 113.5 29.5zM590 991l-171 -129l-118 127l59 42l74 -81l109 83z" />
         <glyph glyph-name="Ocircumflex" unicode="Ô" d="M90 28.5q-46 42.5 -46 141.5q0 71 25 193l17 80q30 142 68.5 222t97 114.5t149.5 34.5q102 0 148 -42.5t46 -141.5q0 -71 -25 -193l-17 -80q-31 -143 -69.5 -222.5t-96.5 -114t-149 -34.5q-102 0 -148 42.5zM352.5 78.5q44.5 29.5 76 97t56.5 187.5l17 80q24 113 24 179 q0 71 -29.5 100t-96.5 29q-69 0 -114 -29.5t-76 -97t-56 -187.5l-17 -80q-24 -112 -24 -178q0 -71 30 -100.5t96 -29.5q69 0 113.5 29.5zM569 900l-60 -42l-73 83l-109 -81l-45 42l169 127z" />
         <glyph glyph-name="uni1ED0" unicode="Ố" d="M90 28.5q-46 42.5 -46 141.5q0 71 25 193l17 80q30 142 68.5 222t97 114.5t149.5 34.5q102 0 148 -42.5t46 -141.5q0 -71 -25 -193l-17 -80q-31 -143 -69.5 -222.5t-96.5 -114t-149 -34.5q-102 0 -148 42.5zM352.5 78.5q44.5 29.5 76 97t56.5 187.5l17 80q24 113 24 179 q0 71 -29.5 100t-96.5 29q-69 0 -114 -29.5t-76 -97t-56 -187.5l-17 -80q-24 -112 -24 -178q0 -71 30 -100.5t96 -29.5q69 0 113.5 29.5zM723 1027l-153 -114l-38 48l154 114zM564 875l-60 -41l-73 82l-109 -80l-45 41l169 128z" />
         <glyph glyph-name="uni1ED8" unicode="Ộ" d="M90 28.5q-46 42.5 -46 141.5q0 71 25 193l17 80q30 142 68.5 222t97 114.5t149.5 34.5q102 0 148 -42.5t46 -141.5q0 -71 -25 -193l-17 -80q-31 -143 -69.5 -222.5t-96.5 -114t-149 -34.5q-102 0 -148 42.5zM352.5 78.5q44.5 29.5 76 97t56.5 187.5l17 80q24 113 24 179 q0 71 -29.5 100t-96.5 29q-69 0 -114 -29.5t-76 -97t-56 -187.5l-17 -80q-24 -112 -24 -178q0 -71 30 -100.5t96 -29.5q69 0 113.5 29.5zM147.5 -219.5q-13.5 8.5 -13.5 29.5q0 11 3 26q7 31 22 43t48 12q31 0 44.5 -9t13.5 -30q0 -10 -3 -25q-7 -31 -22 -43t-48 -12 q-31 0 -44.5 8.5zM569 900l-60 -42l-73 83l-109 -81l-45 42l169 127z" />
         <glyph glyph-name="uni1ED2" unicode="Ồ" d="M90 28.5q-46 42.5 -46 141.5q0 71 25 193l17 80q30 142 68.5 222t97 114.5t149.5 34.5q102 0 148 -42.5t46 -141.5q0 -71 -25 -193l-17 -80q-31 -143 -69.5 -222.5t-96.5 -114t-149 -34.5q-102 0 -148 42.5zM352.5 78.5q44.5 29.5 76 97t56.5 187.5l17 80q24 113 24 179 q0 71 -29.5 100t-96.5 29q-69 0 -114 -29.5t-76 -97t-56 -187.5l-17 -80q-24 -112 -24 -178q0 -71 30 -100.5t96 -29.5q69 0 113.5 29.5zM611 906l-99 110l57 44l102 -112zM569 900l-60 -42l-73 83l-109 -81l-45 42l169 127z" />
         <glyph glyph-name="uni1ED4" unicode="Ổ" d="M90 28.5q-46 42.5 -46 141.5q0 71 25 193l17 80q30 142 68.5 222t97 114.5t149.5 34.5q102 0 148 -42.5t46 -141.5q0 -71 -25 -193l-17 -80q-31 -143 -69.5 -222.5t-96.5 -114t-149 -34.5q-102 0 -148 42.5zM352.5 78.5q44.5 29.5 76 97t56.5 187.5l17 80q24 113 24 179 q0 71 -29.5 100t-96.5 29q-69 0 -114 -29.5t-76 -97t-56 -187.5l-17 -80q-24 -112 -24 -178q0 -71 30 -100.5t96 -29.5q69 0 113.5 29.5zM564 876l-60 -42l-73 83l-109 -81l-45 42l169 127zM582 937q34 7 55.5 20.5t24.5 30.5l1 5q0 9 -6.5 13.5t-15.5 4.5q-21 0 -49 -13 t-54 -32l12 79q20 14 45.5 22t47.5 8q40 0 64.5 -20t24.5 -54q0 -44 -37.5 -78.5t-102.5 -47.5z" />
         <glyph glyph-name="uni1ED6" unicode="Ỗ" d="M90 28.5q-46 42.5 -46 141.5q0 71 25 193l17 80q30 142 68.5 222t97 114.5t149.5 34.5q102 0 148 -42.5t46 -141.5q0 -71 -25 -193l-17 -80q-31 -143 -69.5 -222.5t-96.5 -114t-149 -34.5q-102 0 -148 42.5zM352.5 78.5q44.5 29.5 76 97t56.5 187.5l17 80q24 113 24 179 q0 71 -29.5 100t-96.5 29q-69 0 -114 -29.5t-76 -97t-56 -187.5l-17 -80q-24 -112 -24 -178q0 -71 30 -100.5t96 -29.5q69 0 113.5 29.5zM564 876l-60 -42l-73 83l-109 -81l-45 42l169 127zM694 930.5q-19 13.5 -40 36.5q-14 14 -22 20.5t-15 6.5q-32 0 -37 -51h-69 q8 52 37.5 83.5t70.5 31.5q22 0 40 -13t40 -36q16 -16 23.5 -22t14.5 -6q31 0 37 48h68q-7 -51 -36.5 -81.5t-70.5 -30.5q-22 0 -41 13.5z" />
         <glyph glyph-name="Odieresis" unicode="Ö" d="M90 28.5q-46 42.5 -46 141.5q0 71 25 193l17 80q30 142 68.5 222t97 114.5t149.5 34.5q102 0 148 -42.5t46 -141.5q0 -71 -25 -193l-17 -80q-31 -143 -69.5 -222.5t-96.5 -114t-149 -34.5q-102 0 -148 42.5zM352.5 78.5q44.5 29.5 76 97t56.5 187.5l17 80q24 113 24 179 q0 71 -29.5 100t-96.5 29q-69 0 -114 -29.5t-76 -97t-56 -187.5l-17 -80q-24 -112 -24 -178q0 -71 30 -100.5t96 -29.5q69 0 113.5 29.5zM280.5 917q-14.5 10 -14.5 32q0 11 3 24q6 31 21 42.5t48 11.5q31 0 45.5 -10.5t14.5 -32.5q0 -10 -3 -22q-7 -31 -22 -43t-48 -12 q-30 0 -44.5 10zM496.5 917q-14.5 10 -14.5 32q0 11 3 24q6 31 21 42.5t48 11.5q31 0 45.5 -10.5t14.5 -32.5q0 -10 -3 -22q-7 -31 -22 -43t-48 -12q-30 0 -44.5 10z" />
         <glyph glyph-name="uni1ECC" unicode="Ọ" d="M90 28.5q-46 42.5 -46 141.5q0 71 25 193l17 80q30 142 68.5 222t97 114.5t149.5 34.5q102 0 148 -42.5t46 -141.5q0 -71 -25 -193l-17 -80q-31 -143 -69.5 -222.5t-96.5 -114t-149 -34.5q-102 0 -148 42.5zM352.5 78.5q44.5 29.5 76 97t56.5 187.5l17 80q24 113 24 179 q0 71 -29.5 100t-96.5 29q-69 0 -114 -29.5t-76 -97t-56 -187.5l-17 -80q-24 -112 -24 -178q0 -71 30 -100.5t96 -29.5q69 0 113.5 29.5zM147.5 -219.5q-13.5 8.5 -13.5 29.5q0 11 3 26q7 31 22 43t48 12q31 0 44.5 -9t13.5 -30q0 -10 -3 -25q-7 -31 -22 -43t-48 -12 q-31 0 -44.5 8.5z" />
         <glyph glyph-name="Ograve" unicode="Ò" d="M90 28.5q-46 42.5 -46 141.5q0 71 25 193l17 80q30 142 68.5 222t97 114.5t149.5 34.5q102 0 148 -42.5t46 -141.5q0 -71 -25 -193l-17 -80q-31 -143 -69.5 -222.5t-96.5 -114t-149 -34.5q-102 0 -148 42.5zM352.5 78.5q44.5 29.5 76 97t56.5 187.5l17 80q24 113 24 179 q0 71 -29.5 100t-96.5 29q-69 0 -114 -29.5t-76 -97t-56 -187.5l-17 -80q-24 -112 -24 -178q0 -71 30 -100.5t96 -29.5q69 0 113.5 29.5zM485 914l-54 -48l-124 130l54 48z" />
         <glyph glyph-name="uni1ECE" unicode="Ỏ" d="M90 28.5q-46 42.5 -46 141.5q0 71 25 193l17 80q30 142 68.5 222t97 114.5t149.5 34.5q102 0 148 -42.5t46 -141.5q0 -71 -25 -193l-17 -80q-31 -143 -69.5 -222.5t-96.5 -114t-149 -34.5q-102 0 -148 42.5zM352.5 78.5q44.5 29.5 76 97t56.5 187.5l17 80q24 113 24 179 q0 71 -29.5 100t-96.5 29q-69 0 -114 -29.5t-76 -97t-56 -187.5l-17 -80q-24 -112 -24 -178q0 -71 30 -100.5t96 -29.5q69 0 113.5 29.5zM383 903q34 7 55.5 20.5t24.5 30.5l1 5q0 9 -6.5 13.5t-15.5 4.5q-21 0 -49 -13t-54 -32l12 79q20 14 45.5 22t47.5 8q40 0 64.5 -20 t24.5 -54q0 -44 -37.5 -78.5t-102.5 -47.5z" />
         <glyph glyph-name="Ohorn" unicode="Ơ" d="M734 911h69l-31 -142q-12 -58 -49.5 -93t-87.5 -35q-21 0 -41 11q4 -82 -24 -215l-17 -80q-31 -143 -69.5 -222.5t-96.5 -114t-149 -34.5q-102 0 -148 42.5t-46 141.5q0 71 25 193l17 80q30 142 68.5 222t97 114.5t149.5 34.5q73 0 117 -21t62 -68q16 -20 53 -20 q26 0 45.5 19.5t26.5 50.5zM502 443q24 113 24 179q0 71 -29.5 100t-96.5 29q-69 0 -114 -29.5t-76 -97t-56 -187.5l-17 -80q-24 -112 -24 -178q0 -71 30 -100.5t96 -29.5q69 0 113.5 29.5t76 97t56.5 187.5z" />
         <glyph glyph-name="uni1EDA" unicode="Ớ" d="M734 911h69l-31 -142q-12 -58 -49.5 -93t-87.5 -35q-21 0 -41 11q4 -82 -24 -215l-17 -80q-31 -143 -69.5 -222.5t-96.5 -114t-149 -34.5q-102 0 -148 42.5t-46 141.5q0 71 25 193l17 80q30 142 68.5 222t97 114.5t149.5 34.5q73 0 117 -21t62 -68q16 -20 53 -20 q26 0 45.5 19.5t26.5 50.5zM502 443q24 113 24 179q0 71 -29.5 100t-96.5 29q-69 0 -114 -29.5t-76 -97t-56 -187.5l-17 -80q-24 -112 -24 -178q0 -71 30 -100.5t96 -29.5q69 0 113.5 29.5t76 97t56.5 187.5zM583 996l-174 -130l-37 48l175 130z" />
         <glyph glyph-name="uni1EE2" unicode="Ợ" d="M734 911h69l-31 -142q-12 -58 -49.5 -93t-87.5 -35q-21 0 -41 11q4 -82 -24 -215l-17 -80q-31 -143 -69.5 -222.5t-96.5 -114t-149 -34.5q-102 0 -148 42.5t-46 141.5q0 71 25 193l17 80q30 142 68.5 222t97 114.5t149.5 34.5q73 0 117 -21t62 -68q16 -20 53 -20 q26 0 45.5 19.5t26.5 50.5zM502 443q24 113 24 179q0 71 -29.5 100t-96.5 29q-69 0 -114 -29.5t-76 -97t-56 -187.5l-17 -80q-24 -112 -24 -178q0 -71 30 -100.5t96 -29.5q69 0 113.5 29.5t76 97t56.5 187.5zM147.5 -219.5q-13.5 8.5 -13.5 29.5q0 11 3 26q7 31 22 43t48 12 q31 0 44.5 -9t13.5 -30q0 -10 -3 -25q-7 -31 -22 -43t-48 -12q-31 0 -44.5 8.5z" />
         <glyph glyph-name="uni1EDC" unicode="Ờ" d="M734 911h69l-31 -142q-12 -58 -49.5 -93t-87.5 -35q-21 0 -41 11q4 -82 -24 -215l-17 -80q-31 -143 -69.5 -222.5t-96.5 -114t-149 -34.5q-102 0 -148 42.5t-46 141.5q0 71 25 193l17 80q30 142 68.5 222t97 114.5t149.5 34.5q73 0 117 -21t62 -68q16 -20 53 -20 q26 0 45.5 19.5t26.5 50.5zM502 443q24 113 24 179q0 71 -29.5 100t-96.5 29q-69 0 -114 -29.5t-76 -97t-56 -187.5l-17 -80q-24 -112 -24 -178q0 -71 30 -100.5t96 -29.5q69 0 113.5 29.5t76 97t56.5 187.5zM485 914l-54 -48l-124 130l54 48z" />
         <glyph glyph-name="uni1EDE" unicode="Ở" d="M734 911h69l-31 -142q-12 -58 -49.5 -93t-87.5 -35q-21 0 -41 11q4 -82 -24 -215l-17 -80q-31 -143 -69.5 -222.5t-96.5 -114t-149 -34.5q-102 0 -148 42.5t-46 141.5q0 71 25 193l17 80q30 142 68.5 222t97 114.5t149.5 34.5q73 0 117 -21t62 -68q16 -20 53 -20 q26 0 45.5 19.5t26.5 50.5zM502 443q24 113 24 179q0 71 -29.5 100t-96.5 29q-69 0 -114 -29.5t-76 -97t-56 -187.5l-17 -80q-24 -112 -24 -178q0 -71 30 -100.5t96 -29.5q69 0 113.5 29.5t76 97t56.5 187.5zM383 903q34 7 55.5 20.5t24.5 30.5l1 5q0 9 -6.5 13.5t-15.5 4.5 q-21 0 -49 -13t-54 -32l12 79q20 14 45.5 22t47.5 8q40 0 64.5 -20t24.5 -54q0 -44 -37.5 -78.5t-102.5 -47.5z" />
         <glyph glyph-name="uni1EE0" unicode="Ỡ" d="M734 911h69l-31 -142q-12 -58 -49.5 -93t-87.5 -35q-21 0 -41 11q4 -82 -24 -215l-17 -80q-31 -143 -69.5 -222.5t-96.5 -114t-149 -34.5q-102 0 -148 42.5t-46 141.5q0 71 25 193l17 80q30 142 68.5 222t97 114.5t149.5 34.5q73 0 117 -21t62 -68q16 -20 53 -20 q26 0 45.5 19.5t26.5 50.5zM502 443q24 113 24 179q0 71 -29.5 100t-96.5 29q-69 0 -114 -29.5t-76 -97t-56 -187.5l-17 -80q-24 -112 -24 -178q0 -71 30 -100.5t96 -29.5q69 0 113.5 29.5t76 97t56.5 187.5zM453 894.5q-19 13.5 -40 36.5q-14 14 -22 20.5t-15 6.5 q-32 0 -37 -51h-69q8 52 37.5 83.5t70.5 31.5q22 0 40 -13t40 -36q16 -16 23.5 -22t14.5 -6q31 0 37 48h68q-7 -51 -36.5 -81.5t-70.5 -30.5q-22 0 -41 13.5z" />
         <glyph glyph-name="Ohungarumlaut" unicode="Ő" d="M90 28.5q-46 42.5 -46 141.5q0 71 25 193l17 80q30 142 68.5 222t97 114.5t149.5 34.5q102 0 148 -42.5t46 -141.5q0 -71 -25 -193l-17 -80q-31 -143 -69.5 -222.5t-96.5 -114t-149 -34.5q-102 0 -148 42.5zM352.5 78.5q44.5 29.5 76 97t56.5 187.5l17 80q24 113 24 179 q0 71 -29.5 100t-96.5 29q-69 0 -114 -29.5t-76 -97t-56 -187.5l-17 -80q-24 -112 -24 -178q0 -71 30 -100.5t96 -29.5q69 0 113.5 29.5zM443 996l-174 -130l-37 48l174 130zM642 996l-174 -130l-37 48l174 130z" />
         <glyph glyph-name="Omacron" unicode="Ō" d="M90 28.5q-46 42.5 -46 141.5q0 71 25 193l17 80q30 142 68.5 222t97 114.5t149.5 34.5q102 0 148 -42.5t46 -141.5q0 -71 -25 -193l-17 -80q-31 -143 -69.5 -222.5t-96.5 -114t-149 -34.5q-102 0 -148 42.5zM352.5 78.5q44.5 29.5 76 97t56.5 187.5l17 80q24 113 24 179 q0 71 -29.5 100t-96.5 29q-69 0 -114 -29.5t-76 -97t-56 -187.5l-17 -80q-24 -112 -24 -178q0 -71 30 -100.5t96 -29.5q69 0 113.5 29.5zM572 900h-293l13 64h293z" />
         <glyph glyph-name="Oslash" unicode="Ø" d="M665 850l-85 -125q15 -37 15 -96q0 -77 -25 -192l-17 -80q-31 -143 -69.5 -222.5t-96.5 -114t-149 -34.5q-92 0 -139 35l-48 -71h-78l86 125q-15 39 -15 96q0 79 25 192l17 80q30 142 68.5 222t97 114.5t149.5 34.5q94 0 139 -35l48 71h77zM137 357q-28 -133 -24 -202 l386 565q-30 31 -99 31t-113.5 -29.5t-76 -97t-56.5 -187.5zM502 443q28 133 24 203l-386 -565q29 -32 99 -32q69 0 113.5 29.5t76 97t56.5 187.5z" />
         <glyph glyph-name="Otilde" unicode="Õ" d="M90 28.5q-46 42.5 -46 141.5q0 71 25 193l17 80q30 142 68.5 222t97 114.5t149.5 34.5q102 0 148 -42.5t46 -141.5q0 -71 -25 -193l-17 -80q-31 -143 -69.5 -222.5t-96.5 -114t-149 -34.5q-102 0 -148 42.5zM352.5 78.5q44.5 29.5 76 97t56.5 187.5l17 80q24 113 24 179 q0 71 -29.5 100t-96.5 29q-69 0 -114 -29.5t-76 -97t-56 -187.5l-17 -80q-24 -112 -24 -178q0 -71 30 -100.5t96 -29.5q69 0 113.5 29.5zM453 894.5q-19 13.5 -40 36.5q-14 14 -22 20.5t-15 6.5q-32 0 -37 -51h-69q8 52 37.5 83.5t70.5 31.5q22 0 40 -13t40 -36 q16 -16 23.5 -22t14.5 -6q31 0 37 48h68q-7 -51 -36.5 -81.5t-70.5 -30.5q-22 0 -41 13.5z" />
         <glyph glyph-name="OE" unicode="Œ" d="M690 737h-223l-57 -282h133l-14 -64h-134v-1q-9 -44 -16 -69l-53 -258h220l-14 -63h-289l5 26q-47 -40 -121 -40q-72 0 -105.5 39t-33.5 128q0 94 34 252q33 157 68.5 245t82.5 126t118 38q42 0 70 -11.5t45 -36.5l7 34h289zM211.5 82q33.5 33 61 109t56.5 214 q36 167 36 244q0 55 -18 78.5t-58 23.5q-46 0 -80 -33.5t-63 -111t-58 -213.5q-34 -165 -34 -238q0 -57 18 -81.5t57 -24.5q49 0 82.5 33z" />
         <glyph glyph-name="P" unicode="P" d="M421 800q101 0 145.5 -32t44.5 -106q0 -41 -12 -95q-18 -87 -48.5 -135t-82.5 -68t-138 -20h-157l-73 -344h-69l170 800h220zM542 649q0 50 -29 69t-99 19h-158l-70 -329h152q61 0 98.5 15t60 51.5t36.5 103.5q9 42 9 71z" />
         <glyph glyph-name="Thorn" unicode="Þ" d="M362 613q102 0 146.5 -30.5t44.5 -103.5q0 -38 -10 -85q-17 -80 -47 -124.5t-82 -63.5t-137 -19h-137l-40 -187h-69l170 800h69l-40 -187h132zM484 468q0 46 -29 63.5t-101 17.5h-137l-64 -298h132q61 0 98 14.5t58.5 47.5t34.5 93q8 40 8 62z" />
         <glyph glyph-name="Q" unicode="Q" d="M549 771.5q46 -42.5 46 -141.5q0 -71 -25 -193l-17 -80q-29 -134 -64.5 -212t-87.5 -115t-132 -43q-16 -31 -45 -51q6 -2 32 -15q22 -12 38 -19t32 -7q29 0 89 14q37 8 59.5 11.5t44.5 2.5l-7 -62q-22 1 -42.5 -2.5t-47.5 -10.5q-27 -8 -49 -12t-48 -4q-34 0 -57 7.5 t-48 22.5q-27 15 -47.5 22t-51.5 7h-40l11 64q52 -3 94 34q-74 9 -108 52t-34 130q0 70 25 192l17 80q30 142 68.5 222t97 114.5t149.5 34.5q102 0 148 -42.5zM502 443q24 113 24 179q0 71 -29.5 100t-96.5 29q-69 0 -114 -29.5t-76 -97t-56 -187.5l-17 -80 q-24 -112 -24 -178q0 -71 30 -100.5t96 -29.5q69 0 113.5 29.5t76 97t56.5 187.5z" />
         <glyph glyph-name="R" unicode="R" d="M413 800q101 0 145.5 -32t44.5 -106q0 -41 -12 -95q-18 -84 -46.5 -131t-76.5 -68.5t-127 -23.5l155 -344h-78l-156 344h-97l-73 -344h-69l170 800h220zM534 649q0 50 -29 69t-99 19h-157l-70 -329h151q61 0 98.5 15t60 51.5t36.5 103.5q9 42 9 71z" />
         <glyph glyph-name="Racute" unicode="Ŕ" d="M413 800q101 0 145.5 -32t44.5 -106q0 -41 -12 -95q-18 -84 -46.5 -131t-76.5 -68.5t-127 -23.5l155 -344h-78l-156 344h-97l-73 -344h-69l170 800h220zM534 649q0 50 -29 69t-99 19h-157l-70 -329h151q61 0 98.5 15t60 51.5t36.5 103.5q9 42 9 71zM582 993l-174 -130 l-37 48l175 130z" />
         <glyph glyph-name="Rcaron" unicode="Ř" d="M413 800q101 0 145.5 -32t44.5 -106q0 -41 -12 -95q-18 -84 -46.5 -131t-76.5 -68.5t-127 -23.5l155 -344h-78l-156 344h-97l-73 -344h-69l170 800h220zM534 649q0 50 -29 69t-99 19h-157l-70 -329h151q61 0 98.5 15t60 51.5t36.5 103.5q9 42 9 71zM589 988l-171 -129 l-118 127l59 42l74 -81l109 83z" />
         <glyph glyph-name="uni0156" unicode="Ŗ" d="M413 800q101 0 145.5 -32t44.5 -106q0 -41 -12 -95q-18 -84 -46.5 -131t-76.5 -68.5t-127 -23.5l155 -344h-78l-156 344h-97l-73 -344h-69l170 800h220zM534 649q0 50 -29 69t-99 19h-157l-70 -329h151q61 0 98.5 15t60 51.5t36.5 103.5q9 42 9 71zM199 -122 q-19 6 -19 30q0 5 2 17q4 23 15 31.5t36 8.5q24 0 35 -7.5t11 -24.5q0 -12 -2 -19q-6 -26 -37 -71.5t-70 -90.5l-49 2z" />
         <glyph glyph-name="S" unicode="S" d="M125 -2.5q-43 11.5 -68 38t-40 72.5l61 44q8 -42 24.5 -63.5t48 -30.5t88.5 -9q66 0 106 16.5t64 54t38 105.5q5 27 5 44q0 42 -29.5 68.5t-102.5 53.5q-99 34 -140.5 71t-41.5 95q0 24 6 52q17 79 46 123t79 63t132 19q64 0 104 -10t64 -33t39 -63l-57 -47 q-10 37 -25.5 56t-44.5 26.5t-81 7.5q-61 0 -97.5 -14t-58 -47t-33.5 -92q-4 -19 -4 -37q0 -37 27 -60t94 -46q105 -34 149 -73.5t44 -104.5q0 -26 -8 -63q-18 -88 -49.5 -136.5t-85 -70t-140.5 -21.5q-70 0 -113 11.5z" />
         <glyph glyph-name="Sacute" unicode="Ś" d="M125 -2.5q-43 11.5 -68 38t-40 72.5l61 44q8 -42 24.5 -63.5t48 -30.5t88.5 -9q66 0 106 16.5t64 54t38 105.5q5 27 5 44q0 42 -29.5 68.5t-102.5 53.5q-99 34 -140.5 71t-41.5 95q0 24 6 52q17 79 46 123t79 63t132 19q64 0 104 -10t64 -33t39 -63l-57 -47 q-10 37 -25.5 56t-44.5 26.5t-81 7.5q-61 0 -97.5 -14t-58 -47t-33.5 -92q-4 -19 -4 -37q0 -37 27 -60t94 -46q105 -34 149 -73.5t44 -104.5q0 -26 -8 -63q-18 -88 -49.5 -136.5t-85 -70t-140.5 -21.5q-70 0 -113 11.5zM583 996l-174 -130l-37 48l175 130z" />
         <glyph glyph-name="Scaron" unicode="Š" d="M125 -2.5q-43 11.5 -68 38t-40 72.5l61 44q8 -42 24.5 -63.5t48 -30.5t88.5 -9q66 0 106 16.5t64 54t38 105.5q5 27 5 44q0 42 -29.5 68.5t-102.5 53.5q-99 34 -140.5 71t-41.5 95q0 24 6 52q17 79 46 123t79 63t132 19q64 0 104 -10t64 -33t39 -63l-57 -47 q-10 37 -25.5 56t-44.5 26.5t-81 7.5q-61 0 -97.5 -14t-58 -47t-33.5 -92q-4 -19 -4 -37q0 -37 27 -60t94 -46q105 -34 149 -73.5t44 -104.5q0 -26 -8 -63q-18 -88 -49.5 -136.5t-85 -70t-140.5 -21.5q-70 0 -113 11.5zM590 991l-171 -129l-118 127l59 42l74 -81l109 83z " />
         <glyph glyph-name="Scedilla" unicode="Ş" d="M505 804q40 -10 64 -33t39 -63l-57 -47q-10 37 -25.5 56t-44.5 26.5t-81 7.5q-61 0 -97.5 -14t-58 -47t-33.5 -92q-4 -19 -4 -37q0 -37 27 -60t94 -46q105 -34 149 -73.5t44 -104.5q0 -26 -8 -63q-17 -83 -46.5 -131.5t-78 -71t-126.5 -25.5l-8 -29q28 -7 44 -25t16 -43 q0 -10 -1 -15q-8 -40 -43 -63.5t-85 -23.5q-30 0 -55 10.5t-37 26.5l35 49q9 -10 25.5 -16.5t33.5 -6.5q22 0 39 10t20 25q2 12 -15.5 18.5t-50.5 6.5l14 77q-79 5 -118 32t-59 89l61 44q8 -42 24.5 -63.5t48 -30.5t88.5 -9q66 0 106 16.5t64 54t38 105.5q5 27 5 44 q0 42 -29.5 68.5t-102.5 53.5q-99 34 -140.5 71t-41.5 95q0 24 6 52q17 79 46 123t79 63t132 19q64 0 104 -10z" />
         <glyph glyph-name="Scircumflex" unicode="Ŝ" d="M125 -2.5q-43 11.5 -68 38t-40 72.5l61 44q8 -42 24.5 -63.5t48 -30.5t88.5 -9q66 0 106 16.5t64 54t38 105.5q5 27 5 44q0 42 -29.5 68.5t-102.5 53.5q-99 34 -140.5 71t-41.5 95q0 24 6 52q17 79 46 123t79 63t132 19q64 0 104 -10t64 -33t39 -63l-57 -47 q-10 37 -25.5 56t-44.5 26.5t-81 7.5q-61 0 -97.5 -14t-58 -47t-33.5 -92q-4 -19 -4 -37q0 -37 27 -60t94 -46q105 -34 149 -73.5t44 -104.5q0 -26 -8 -63q-18 -88 -49.5 -136.5t-85 -70t-140.5 -21.5q-70 0 -113 11.5zM569 900l-60 -42l-73 83l-109 -81l-45 42l169 127z " />
         <glyph glyph-name="uni0218" unicode="Ș" d="M125 -2.5q-43 11.5 -68 38t-40 72.5l61 44q8 -42 24.5 -63.5t48 -30.5t88.5 -9q66 0 106 16.5t64 54t38 105.5q5 27 5 44q0 42 -29.5 68.5t-102.5 53.5q-99 34 -140.5 71t-41.5 95q0 24 6 52q17 79 46 123t79 63t132 19q64 0 104 -10t64 -33t39 -63l-57 -47 q-10 37 -25.5 56t-44.5 26.5t-81 7.5q-61 0 -97.5 -14t-58 -47t-33.5 -92q-4 -19 -4 -37q0 -37 27 -60t94 -46q105 -34 149 -73.5t44 -104.5q0 -26 -8 -63q-18 -88 -49.5 -136.5t-85 -70t-140.5 -21.5q-70 0 -113 11.5zM199 -122q-19 6 -19 30q0 5 2 17q4 23 15 31.5t36 8.5 q24 0 35 -7.5t11 -24.5q0 -12 -2 -19q-6 -26 -37 -71.5t-70 -90.5l-49 2z" />
         <glyph glyph-name="uni1E9E" unicode="ẞ" d="M420 472q81 -4 117.5 -36.5t36.5 -102.5q0 -42 -14 -109q-20 -96 -50 -147t-79 -71t-133 -20q-88 0 -125.5 23t-37.5 78q0 24 8 61l68 -5q-5 -25 -5 -39q0 -31 21 -43t72 -12q60 0 96.5 16t59.5 56t39 114q11 50 11 82q0 50 -28 71t-93 21h-99l275 328h-195 q-81 0 -142 -49.5t-78 -128.5l-119 -559h-69l120 565q23 111 103 173t198 62h315z" />
         <glyph glyph-name="T" unicode="T" d="M682 800l-13 -63h-243l-157 -737h-69l157 737h-243l13 63h555z" />
         <glyph glyph-name="Tbar" unicode="Ŧ" d="M682 800l-13 -63h-243l-60 -282h153l-14 -64h-153l-83 -391h-69l83 391h-154l14 64h154l60 282h-243l13 63h555z" />
         <glyph glyph-name="Tcaron" unicode="Ť" d="M682 800l-13 -63h-243l-157 -737h-69l157 737h-243l13 63h555zM589 988l-171 -129l-118 127l59 42l74 -81l109 83z" />
         <glyph glyph-name="uni0162" unicode="Ţ" d="M269 0l-12 -43q28 -7 44 -25t16 -43q0 -10 -1 -15q-8 -40 -42.5 -63.5t-84.5 -23.5q-31 0 -56 10.5t-37 26.5l35 49q9 -10 25.5 -16.5t33.5 -6.5q23 0 39.5 10t19.5 25q3 12 -15 18.5t-51 6.5l17 90v2l1 3l156 732h-243l13 63h555l-13 -63h-243z" />
         <glyph glyph-name="uni021A" unicode="Ț" d="M682 800l-13 -63h-243l-157 -737h-69l157 737h-243l13 63h555zM199 -122q-19 6 -19 30q0 5 2 17q4 23 15 31.5t36 8.5q24 0 35 -7.5t11 -24.5q0 -12 -2 -19q-6 -26 -37 -71.5t-70 -90.5l-49 2z" />
         <glyph glyph-name="U" unicode="U" d="M99.5 23q-42.5 37 -42.5 124q0 60 20 154l106 499h69l-107 -505q-19 -92 -19 -138q0 -60 26.5 -84t86.5 -24t99 23.5t65.5 77.5t47.5 151l106 499h69l-107 -505q-25 -118 -59 -184.5t-86.5 -95.5t-135.5 -29q-96 0 -138.5 37z" />
         <glyph glyph-name="Uacute" unicode="Ú" d="M99.5 23q-42.5 37 -42.5 124q0 60 20 154l106 499h69l-107 -505q-19 -92 -19 -138q0 -60 26.5 -84t86.5 -24t99 23.5t65.5 77.5t47.5 151l106 499h69l-107 -505q-25 -118 -59 -184.5t-86.5 -95.5t-135.5 -29q-96 0 -138.5 37zM583 996l-174 -130l-37 48l175 130z" />
         <glyph glyph-name="Ubreve" unicode="Ŭ" d="M99.5 23q-42.5 37 -42.5 124q0 60 20 154l106 499h69l-107 -505q-19 -92 -19 -138q0 -60 26.5 -84t86.5 -24t99 23.5t65.5 77.5t47.5 151l106 499h69l-107 -505q-25 -118 -59 -184.5t-86.5 -95.5t-135.5 -29q-96 0 -138.5 37zM336 899.5q-28 18.5 -28 60.5q0 20 8 54h68 q-6 -24 -6 -38q0 -18 11 -24.5t39 -6.5q44 0 62 14.5t26 54.5h67q-9 -52 -26.5 -80.5t-48 -40.5t-82.5 -12q-62 0 -90 18.5z" />
         <glyph glyph-name="uni01D3" unicode="Ǔ" d="M99.5 23q-42.5 37 -42.5 124q0 60 20 154l106 499h69l-107 -505q-19 -92 -19 -138q0 -60 26.5 -84t86.5 -24t99 23.5t65.5 77.5t47.5 151l106 499h69l-107 -505q-25 -118 -59 -184.5t-86.5 -95.5t-135.5 -29q-96 0 -138.5 37zM590 991l-171 -129l-118 127l59 42l74 -81 l109 83z" />
         <glyph glyph-name="Ucircumflex" unicode="Û" d="M99.5 23q-42.5 37 -42.5 124q0 60 20 154l106 499h69l-107 -505q-19 -92 -19 -138q0 -60 26.5 -84t86.5 -24t99 23.5t65.5 77.5t47.5 151l106 499h69l-107 -505q-25 -118 -59 -184.5t-86.5 -95.5t-135.5 -29q-96 0 -138.5 37zM569 900l-60 -42l-73 83l-109 -81l-45 42 l169 127z" />
         <glyph glyph-name="Udieresis" unicode="Ü" d="M99.5 23q-42.5 37 -42.5 124q0 60 20 154l106 499h69l-107 -505q-19 -92 -19 -138q0 -60 26.5 -84t86.5 -24t99 23.5t65.5 77.5t47.5 151l106 499h69l-107 -505q-25 -118 -59 -184.5t-86.5 -95.5t-135.5 -29q-96 0 -138.5 37zM280.5 917q-14.5 10 -14.5 32q0 11 3 24 q6 31 21 42.5t48 11.5q31 0 45.5 -10.5t14.5 -32.5q0 -10 -3 -22q-7 -31 -22 -43t-48 -12q-30 0 -44.5 10zM496.5 917q-14.5 10 -14.5 32q0 11 3 24q6 31 21 42.5t48 11.5q31 0 45.5 -10.5t14.5 -32.5q0 -10 -3 -22q-7 -31 -22 -43t-48 -12q-30 0 -44.5 10z" />
         <glyph glyph-name="uni01D7" unicode="Ǘ" d="M99.5 23q-42.5 37 -42.5 124q0 60 20 154l106 499h69l-107 -505q-19 -92 -19 -138q0 -60 26.5 -84t86.5 -24t99 23.5t65.5 77.5t47.5 151l106 499h69l-107 -505q-25 -118 -59 -184.5t-86.5 -95.5t-135.5 -29q-96 0 -138.5 37zM262.5 828q-14.5 10 -14.5 32q0 11 3 24 q6 31 21 42.5t48 11.5q31 0 45.5 -10.5t14.5 -32.5q0 -10 -3 -22q-7 -31 -22 -43t-48 -12q-30 0 -44.5 10zM478.5 828q-14.5 10 -14.5 32q0 11 3 24q6 31 21 42.5t48 11.5q31 0 45.5 -10.5t14.5 -32.5q0 -10 -3 -22q-7 -31 -22 -43t-48 -12q-30 0 -44.5 10zM597 1059 l-174 -130l-37 48l175 130z" />
         <glyph glyph-name="uni01D9" unicode="Ǚ" d="M99.5 23q-42.5 37 -42.5 124q0 60 20 154l106 499h69l-107 -505q-19 -92 -19 -138q0 -60 26.5 -84t86.5 -24t99 23.5t65.5 77.5t47.5 151l106 499h69l-107 -505q-25 -118 -59 -184.5t-86.5 -95.5t-135.5 -29q-96 0 -138.5 37zM262.5 828q-14.5 10 -14.5 32q0 11 3 24 q6 31 21 42.5t48 11.5q31 0 45.5 -10.5t14.5 -32.5q0 -10 -3 -22q-7 -31 -22 -43t-48 -12q-30 0 -44.5 10zM478.5 828q-14.5 10 -14.5 32q0 11 3 24q6 31 21 42.5t48 11.5q31 0 45.5 -10.5t14.5 -32.5q0 -10 -3 -22q-7 -31 -22 -43t-48 -12q-30 0 -44.5 10zM607 1068 l-171 -129l-118 127l59 42l74 -81l109 83z" />
         <glyph glyph-name="uni01DB" unicode="Ǜ" d="M99.5 23q-42.5 37 -42.5 124q0 60 20 154l106 499h69l-107 -505q-19 -92 -19 -138q0 -60 26.5 -84t86.5 -24t99 23.5t65.5 77.5t47.5 151l106 499h69l-107 -505q-25 -118 -59 -184.5t-86.5 -95.5t-135.5 -29q-96 0 -138.5 37zM262.5 828q-14.5 10 -14.5 32q0 11 3 24 q6 31 21 42.5t48 11.5q31 0 45.5 -10.5t14.5 -32.5q0 -10 -3 -22q-7 -31 -22 -43t-48 -12q-30 0 -44.5 10zM478.5 828q-14.5 10 -14.5 32q0 11 3 24q6 31 21 42.5t48 11.5q31 0 45.5 -10.5t14.5 -32.5q0 -10 -3 -22q-7 -31 -22 -43t-48 -12q-30 0 -44.5 10zM499 977l-54 -48 l-124 130l54 48z" />
         <glyph glyph-name="uni01D5" unicode="Ǖ" d="M99.5 23q-42.5 37 -42.5 124q0 60 20 154l106 499h69l-107 -505q-19 -92 -19 -138q0 -60 26.5 -84t86.5 -24t99 23.5t65.5 77.5t47.5 151l106 499h69l-107 -505q-25 -118 -59 -184.5t-86.5 -95.5t-135.5 -29q-96 0 -138.5 37zM262.5 828q-14.5 10 -14.5 32q0 11 3 24 q6 31 21 42.5t48 11.5q31 0 45.5 -10.5t14.5 -32.5q0 -10 -3 -22q-7 -31 -22 -43t-48 -12q-30 0 -44.5 10zM478.5 828q-14.5 10 -14.5 32q0 11 3 24q6 31 21 42.5t48 11.5q31 0 45.5 -10.5t14.5 -32.5q0 -10 -3 -22q-7 -31 -22 -43t-48 -12q-30 0 -44.5 10zM599 1026h-293 l13 64h293z" />
         <glyph glyph-name="uni1EE4" unicode="Ụ" d="M99.5 23q-42.5 37 -42.5 124q0 60 20 154l106 499h69l-107 -505q-19 -92 -19 -138q0 -60 26.5 -84t86.5 -24t99 23.5t65.5 77.5t47.5 151l106 499h69l-107 -505q-25 -118 -59 -184.5t-86.5 -95.5t-135.5 -29q-96 0 -138.5 37zM147.5 -219.5q-13.5 8.5 -13.5 29.5 q0 11 3 26q7 31 22 43t48 12q31 0 44.5 -9t13.5 -30q0 -10 -3 -25q-7 -31 -22 -43t-48 -12q-31 0 -44.5 8.5z" />
         <glyph glyph-name="Ugrave" unicode="Ù" d="M99.5 23q-42.5 37 -42.5 124q0 60 20 154l106 499h69l-107 -505q-19 -92 -19 -138q0 -60 26.5 -84t86.5 -24t99 23.5t65.5 77.5t47.5 151l106 499h69l-107 -505q-25 -118 -59 -184.5t-86.5 -95.5t-135.5 -29q-96 0 -138.5 37zM485 914l-54 -48l-124 130l54 48z" />
         <glyph glyph-name="uni1EE6" unicode="Ủ" d="M99.5 23q-42.5 37 -42.5 124q0 60 20 154l106 499h69l-107 -505q-19 -92 -19 -138q0 -60 26.5 -84t86.5 -24t99 23.5t65.5 77.5t47.5 151l106 499h69l-107 -505q-25 -118 -59 -184.5t-86.5 -95.5t-135.5 -29q-96 0 -138.5 37zM383 903q34 7 55.5 20.5t24.5 30.5l1 5 q0 9 -6.5 13.5t-15.5 4.5q-21 0 -49 -13t-54 -32l12 79q20 14 45.5 22t47.5 8q40 0 64.5 -20t24.5 -54q0 -44 -37.5 -78.5t-102.5 -47.5z" />
         <glyph glyph-name="Uhorn" unicode="Ư" d="M746 972h69l-30 -141q-12 -58 -49.5 -93t-87.5 -35q-20 0 -40 10l-89 -418q-25 -118 -59 -184.5t-86.5 -95.5t-135.5 -29q-96 0 -138.5 37t-42.5 124q0 60 20 154l106 499h69l-107 -505q-19 -92 -19 -138q0 -60 26.5 -84t86.5 -24t99 23.5t65.5 77.5t47.5 151l106 499h69 l-6 -30q12 -4 26 -4q25 0 45 19.5t26 50.5z" />
         <glyph glyph-name="uni1EE8" unicode="Ứ" d="M746 972h69l-30 -141q-12 -58 -49.5 -93t-87.5 -35q-20 0 -40 10l-89 -418q-25 -118 -59 -184.5t-86.5 -95.5t-135.5 -29q-96 0 -138.5 37t-42.5 124q0 60 20 154l106 499h69l-107 -505q-19 -92 -19 -138q0 -60 26.5 -84t86.5 -24t99 23.5t65.5 77.5t47.5 151l106 499h69 l-6 -30q12 -4 26 -4q25 0 45 19.5t26 50.5zM583 996l-174 -130l-37 48l175 130z" />
         <glyph glyph-name="uni1EF0" unicode="Ự" d="M746 972h69l-30 -141q-12 -58 -49.5 -93t-87.5 -35q-20 0 -40 10l-89 -418q-25 -118 -59 -184.5t-86.5 -95.5t-135.5 -29q-96 0 -138.5 37t-42.5 124q0 60 20 154l106 499h69l-107 -505q-19 -92 -19 -138q0 -60 26.5 -84t86.5 -24t99 23.5t65.5 77.5t47.5 151l106 499h69 l-6 -30q12 -4 26 -4q25 0 45 19.5t26 50.5zM147.5 -219.5q-13.5 8.5 -13.5 29.5q0 11 3 26q7 31 22 43t48 12q31 0 44.5 -9t13.5 -30q0 -10 -3 -25q-7 -31 -22 -43t-48 -12q-31 0 -44.5 8.5z" />
         <glyph glyph-name="uni1EEA" unicode="Ừ" d="M746 972h69l-30 -141q-12 -58 -49.5 -93t-87.5 -35q-20 0 -40 10l-89 -418q-25 -118 -59 -184.5t-86.5 -95.5t-135.5 -29q-96 0 -138.5 37t-42.5 124q0 60 20 154l106 499h69l-107 -505q-19 -92 -19 -138q0 -60 26.5 -84t86.5 -24t99 23.5t65.5 77.5t47.5 151l106 499h69 l-6 -30q12 -4 26 -4q25 0 45 19.5t26 50.5zM485 914l-54 -48l-124 130l54 48z" />
         <glyph glyph-name="uni1EEC" unicode="Ử" d="M746 972h69l-30 -141q-12 -58 -49.5 -93t-87.5 -35q-20 0 -40 10l-89 -418q-25 -118 -59 -184.5t-86.5 -95.5t-135.5 -29q-96 0 -138.5 37t-42.5 124q0 60 20 154l106 499h69l-107 -505q-19 -92 -19 -138q0 -60 26.5 -84t86.5 -24t99 23.5t65.5 77.5t47.5 151l106 499h69 l-6 -30q12 -4 26 -4q25 0 45 19.5t26 50.5zM383 903q34 7 55.5 20.5t24.5 30.5l1 5q0 9 -6.5 13.5t-15.5 4.5q-21 0 -49 -13t-54 -32l12 79q20 14 45.5 22t47.5 8q40 0 64.5 -20t24.5 -54q0 -44 -37.5 -78.5t-102.5 -47.5z" />
         <glyph glyph-name="uni1EEE" unicode="Ữ" d="M746 972h69l-30 -141q-12 -58 -49.5 -93t-87.5 -35q-20 0 -40 10l-89 -418q-25 -118 -59 -184.5t-86.5 -95.5t-135.5 -29q-96 0 -138.5 37t-42.5 124q0 60 20 154l106 499h69l-107 -505q-19 -92 -19 -138q0 -60 26.5 -84t86.5 -24t99 23.5t65.5 77.5t47.5 151l106 499h69 l-6 -30q12 -4 26 -4q25 0 45 19.5t26 50.5zM453 894.5q-19 13.5 -40 36.5q-14 14 -22 20.5t-15 6.5q-32 0 -37 -51h-69q8 52 37.5 83.5t70.5 31.5q22 0 40 -13t40 -36q16 -16 23.5 -22t14.5 -6q31 0 37 48h68q-7 -51 -36.5 -81.5t-70.5 -30.5q-22 0 -41 13.5z" />
         <glyph glyph-name="Uhungarumlaut" unicode="Ű" d="M99.5 23q-42.5 37 -42.5 124q0 60 20 154l106 499h69l-107 -505q-19 -92 -19 -138q0 -60 26.5 -84t86.5 -24t99 23.5t65.5 77.5t47.5 151l106 499h69l-107 -505q-25 -118 -59 -184.5t-86.5 -95.5t-135.5 -29q-96 0 -138.5 37zM443 996l-174 -130l-37 48l174 130zM642 996 l-174 -130l-37 48l174 130z" />
         <glyph glyph-name="Umacron" unicode="Ū" d="M99.5 23q-42.5 37 -42.5 124q0 60 20 154l106 499h69l-107 -505q-19 -92 -19 -138q0 -60 26.5 -84t86.5 -24t99 23.5t65.5 77.5t47.5 151l106 499h69l-107 -505q-25 -118 -59 -184.5t-86.5 -95.5t-135.5 -29q-96 0 -138.5 37zM572 900h-293l13 64h293z" />
         <glyph glyph-name="Uogonek" unicode="Ų" d="M557 800h69l-107 -505q-21 -100 -48 -162t-66.5 -96t-96.5 -45q-66 -35 -93.5 -53.5t-27.5 -39.5q0 -15 12 -23.5t34 -8.5q15 0 30 6t26 16l42 -49q-16 -16 -43 -26t-55 -10q-53 0 -83.5 20.5t-30.5 58.5q0 27 26 54.5t69 49.5q-83 4 -120 41t-37 119q0 59 20 154 l106 499h69l-107 -505q-19 -92 -19 -138q0 -60 26.5 -84t86.5 -24t99 23.5t65.5 77.5t47.5 151z" />
         <glyph glyph-name="Uring" unicode="Ů" d="M99.5 23q-42.5 37 -42.5 124q0 60 20 154l106 499h69l-107 -505q-19 -92 -19 -138q0 -60 26.5 -84t86.5 -24t99 23.5t65.5 77.5t47.5 151l106 499h69l-107 -505q-25 -118 -59 -184.5t-86.5 -95.5t-135.5 -29q-96 0 -138.5 37zM307 761.5q-27 18.5 -27 63.5q0 25 5 47 q15 67 48 92.5t105 25.5q64 0 92 -18.5t28 -61.5q0 -20 -6 -49q-14 -67 -47.5 -92.5t-107.5 -25.5q-63 0 -90 18.5zM459 820q18 14 26 52q4 20 4 26q0 17 -11.5 23t-40.5 6q-41 0 -59 -14t-26 -52q-3 -15 -3 -25q0 -18 11 -24t39 -6q42 0 60 14z" />
         <glyph glyph-name="Utilde" unicode="Ũ" d="M99.5 23q-42.5 37 -42.5 124q0 60 20 154l106 499h69l-107 -505q-19 -92 -19 -138q0 -60 26.5 -84t86.5 -24t99 23.5t65.5 77.5t47.5 151l106 499h69l-107 -505q-25 -118 -59 -184.5t-86.5 -95.5t-135.5 -29q-96 0 -138.5 37zM453 894.5q-19 13.5 -40 36.5 q-14 14 -22 20.5t-15 6.5q-32 0 -37 -51h-69q8 52 37.5 83.5t70.5 31.5q22 0 40 -13t40 -36q16 -16 23.5 -22t14.5 -6q31 0 37 48h68q-7 -51 -36.5 -81.5t-70.5 -30.5q-22 0 -41 13.5z" />
         <glyph glyph-name="V" unicode="V" d="M271 0h-72l-52 800h72l41 -674l328 674h75z" />
         <glyph glyph-name="W" unicode="W" d="M138 0h-69l60 800h69l-51 -633l170 378h65l9 -378l219 633h71l-280 -800h-67l-12 405z" />
         <glyph glyph-name="Wacute" unicode="Ẃ" d="M138 0h-69l60 800h69l-51 -633l170 378h65l9 -378l219 633h71l-280 -800h-67l-12 405zM583 996l-174 -130l-37 48l175 130z" />
         <glyph glyph-name="Wcircumflex" unicode="Ŵ" d="M138 0h-69l60 800h69l-51 -633l170 378h65l9 -378l219 633h71l-280 -800h-67l-12 405zM569 900l-60 -42l-73 83l-109 -81l-45 42l169 127z" />
         <glyph glyph-name="Wdieresis" unicode="Ẅ" d="M138 0h-69l60 800h69l-51 -633l170 378h65l9 -378l219 633h71l-280 -800h-67l-12 405zM280.5 917q-14.5 10 -14.5 32q0 11 3 24q6 31 21 42.5t48 11.5q31 0 45.5 -10.5t14.5 -32.5q0 -10 -3 -22q-7 -31 -22 -43t-48 -12q-30 0 -44.5 10zM496.5 917q-14.5 10 -14.5 32 q0 11 3 24q6 31 21 42.5t48 11.5q31 0 45.5 -10.5t14.5 -32.5q0 -10 -3 -22q-7 -31 -22 -43t-48 -12q-30 0 -44.5 10z" />
         <glyph glyph-name="Wgrave" unicode="Ẁ" d="M138 0h-69l60 800h69l-51 -633l170 378h65l9 -378l219 633h71l-280 -800h-67l-12 405zM485 914l-54 -48l-124 130l54 48z" />
         <glyph glyph-name="X" unicode="X" d="M583 800h75l-300 -399l132 -401h-78l-108 329l-248 -329h-75l300 399l-132 401h78l108 -329z" />
         <glyph glyph-name="Y" unicode="Y" d="M269 0h-69l65 302l-132 498h74l108 -412l286 412h77l-344 -498z" />
         <glyph glyph-name="Yacute" unicode="Ý" d="M269 0h-69l65 302l-132 498h74l108 -412l286 412h77l-344 -498zM583 996l-174 -130l-37 48l175 130z" />
         <glyph glyph-name="Ycircumflex" unicode="Ŷ" d="M269 0h-69l65 302l-132 498h74l108 -412l286 412h77l-344 -498zM569 900l-60 -42l-73 83l-109 -81l-45 42l169 127z" />
         <glyph glyph-name="Ydieresis" unicode="Ÿ" d="M269 0h-69l65 302l-132 498h74l108 -412l286 412h77l-344 -498zM280.5 917q-14.5 10 -14.5 32q0 11 3 24q6 31 21 42.5t48 11.5q31 0 45.5 -10.5t14.5 -32.5q0 -10 -3 -22q-7 -31 -22 -43t-48 -12q-30 0 -44.5 10zM496.5 917q-14.5 10 -14.5 32q0 11 3 24q6 31 21 42.5 t48 11.5q31 0 45.5 -10.5t14.5 -32.5q0 -10 -3 -22q-7 -31 -22 -43t-48 -12q-30 0 -44.5 10z" />
         <glyph glyph-name="uni1EF4" unicode="Ỵ" d="M269 0h-69l65 302l-132 498h74l108 -412l286 412h77l-344 -498zM147.5 -219.5q-13.5 8.5 -13.5 29.5q0 11 3 26q7 31 22 43t48 12q31 0 44.5 -9t13.5 -30q0 -10 -3 -25q-7 -31 -22 -43t-48 -12q-31 0 -44.5 8.5z" />
         <glyph glyph-name="Ygrave" unicode="Ỳ" d="M269 0h-69l65 302l-132 498h74l108 -412l286 412h77l-344 -498zM485 914l-54 -48l-124 130l54 48z" />
         <glyph glyph-name="uni1EF6" unicode="Ỷ" d="M269 0h-69l65 302l-132 498h74l108 -412l286 412h77l-344 -498zM383 903q34 7 55.5 20.5t24.5 30.5l1 5q0 9 -6.5 13.5t-15.5 4.5q-21 0 -49 -13t-54 -32l12 79q20 14 45.5 22t47.5 8q40 0 64.5 -20t24.5 -54q0 -44 -37.5 -78.5t-102.5 -47.5z" />
         <glyph glyph-name="uni1EF8" unicode="Ỹ" d="M269 0h-69l65 302l-132 498h74l108 -412l286 412h77l-344 -498zM453 894.5q-19 13.5 -40 36.5q-14 14 -22 20.5t-15 6.5q-32 0 -37 -51h-69q8 52 37.5 83.5t70.5 31.5q22 0 40 -13t40 -36q16 -16 23.5 -22t14.5 -6q31 0 37 48h68q-7 -51 -36.5 -81.5t-70.5 -30.5 q-22 0 -41 13.5z" />
         <glyph glyph-name="Z" unicode="Z" d="M483 0h-500l11 52l562 685h-413l13 63h499l-10 -53l-562 -684h413z" />
         <glyph glyph-name="Zacute" unicode="Ź" d="M483 0h-500l11 52l562 685h-413l13 63h499l-10 -53l-562 -684h413zM582 993l-174 -130l-37 48l175 130z" />
         <glyph glyph-name="Zcaron" unicode="Ž" d="M483 0h-500l11 52l562 685h-413l13 63h499l-10 -53l-562 -684h413zM589 988l-171 -129l-118 127l59 42l74 -81l109 83z" />
         <glyph glyph-name="Zdotaccent" unicode="Ż" d="M483 0h-500l11 52l562 685h-413l13 63h499l-10 -53l-562 -684h413zM389.5 927.5q-13.5 8.5 -13.5 29.5q0 11 3 26q7 31 22 43t48 12q31 0 44.5 -9t13.5 -30q0 -10 -3 -25q-7 -31 -22 -43t-48 -12q-31 0 -44.5 8.5z" />
         <glyph glyph-name="a" unicode="a" d="M64.5 13.5q-44.5 27.5 -44.5 93.5q0 34 8 69q16 74 44 114t77.5 56.5t132.5 16.5h152l12 55q8 42 8 66q0 45 -27.5 63t-92.5 18t-99.5 -22.5t-64.5 -82.5l-63 22q28 57 58 89.5t70.5 46.5t100.5 14q100 0 144 -31t44 -102q0 -35 -11 -87l-54 -254q-7 -31 -7 -52 q0 -25 14 -34t49 -8l-8 -64q-56 -1 -81.5 15.5t-27.5 56.5q-38 -49 -79 -67.5t-107 -18.5q-103 0 -147.5 27.5zM309 65.5q37 16.5 59 53.5t36 104l17 76h-146q-59 0 -93.5 -11.5t-54.5 -40t-32 -82.5q-6 -27 -6 -46q0 -39 28 -54.5t96 -15.5q59 0 96 16.5z" />
         <glyph glyph-name="aacute" unicode="á" d="M64.5 13.5q-44.5 27.5 -44.5 93.5q0 34 8 69q16 74 44 114t77.5 56.5t132.5 16.5h152l12 55q8 42 8 66q0 45 -27.5 63t-92.5 18t-99.5 -22.5t-64.5 -82.5l-63 22q28 57 58 89.5t70.5 46.5t100.5 14q100 0 144 -31t44 -102q0 -35 -11 -87l-54 -254q-7 -31 -7 -52 q0 -25 14 -34t49 -8l-8 -64q-56 -1 -81.5 15.5t-27.5 56.5q-38 -49 -79 -67.5t-107 -18.5q-103 0 -147.5 27.5zM309 65.5q37 16.5 59 53.5t36 104l17 76h-146q-59 0 -93.5 -11.5t-54.5 -40t-32 -82.5q-6 -27 -6 -46q0 -39 28 -54.5t96 -15.5q59 0 96 16.5zM544 811 l-174 -130l-37 48l175 130z" />
         <glyph glyph-name="abreve" unicode="ă" d="M64.5 13.5q-44.5 27.5 -44.5 93.5q0 34 8 69q16 74 44 114t77.5 56.5t132.5 16.5h152l12 55q8 42 8 66q0 45 -27.5 63t-92.5 18t-99.5 -22.5t-64.5 -82.5l-63 22q28 57 58 89.5t70.5 46.5t100.5 14q100 0 144 -31t44 -102q0 -35 -11 -87l-54 -254q-7 -31 -7 -52 q0 -25 14 -34t49 -8l-8 -64q-56 -1 -81.5 15.5t-27.5 56.5q-38 -49 -79 -67.5t-107 -18.5q-103 0 -147.5 27.5zM309 65.5q37 16.5 59 53.5t36 104l17 76h-146q-59 0 -93.5 -11.5t-54.5 -40t-32 -82.5q-6 -27 -6 -46q0 -39 28 -54.5t96 -15.5q59 0 96 16.5zM297 714.5 q-28 18.5 -28 60.5q0 20 8 54h68q-6 -24 -6 -38q0 -18 11 -24.5t39 -6.5q44 0 62 14.5t26 54.5h67q-9 -52 -26.5 -80.5t-48 -40.5t-82.5 -12q-62 0 -90 18.5z" />
         <glyph glyph-name="uni1EAF" unicode="ắ" d="M64.5 13.5q-44.5 27.5 -44.5 93.5q0 34 8 69q16 74 44 114t77.5 56.5t132.5 16.5h152l12 55q8 42 8 66q0 45 -27.5 63t-92.5 18t-99.5 -22.5t-64.5 -82.5l-63 22q28 57 58 89.5t70.5 46.5t100.5 14q100 0 144 -31t44 -102q0 -35 -11 -87l-54 -254q-7 -31 -7 -52 q0 -25 14 -34t49 -8l-8 -64q-56 -1 -81.5 15.5t-27.5 56.5q-38 -49 -79 -67.5t-107 -18.5q-103 0 -147.5 27.5zM309 65.5q37 16.5 59 53.5t36 104l17 76h-146q-59 0 -93.5 -11.5t-54.5 -40t-32 -82.5q-6 -27 -6 -46q0 -39 28 -54.5t96 -15.5q59 0 96 16.5zM297 714.5 q-28 18.5 -28 60.5q0 20 8 54h68q-6 -24 -6 -38q0 -18 11 -24.5t39 -6.5q44 0 62 14.5t26 54.5h67q-9 -52 -26.5 -80.5t-48 -40.5t-82.5 -12q-62 0 -90 18.5zM584 1002l-174 -130l-37 48l175 130z" />
         <glyph glyph-name="uni1EB7" unicode="ặ" d="M64.5 13.5q-44.5 27.5 -44.5 93.5q0 34 8 69q16 74 44 114t77.5 56.5t132.5 16.5h152l12 55q8 42 8 66q0 45 -27.5 63t-92.5 18t-99.5 -22.5t-64.5 -82.5l-63 22q28 57 58 89.5t70.5 46.5t100.5 14q100 0 144 -31t44 -102q0 -35 -11 -87l-54 -254q-7 -31 -7 -52 q0 -25 14 -34t49 -8l-8 -64q-56 -1 -81.5 15.5t-27.5 56.5q-38 -49 -79 -67.5t-107 -18.5q-103 0 -147.5 27.5zM309 65.5q37 16.5 59 53.5t36 104l17 76h-146q-59 0 -93.5 -11.5t-54.5 -40t-32 -82.5q-6 -27 -6 -46q0 -39 28 -54.5t96 -15.5q59 0 96 16.5zM147.5 -216.5 q-13.5 8.5 -13.5 29.5q0 11 3 26q7 31 22 43t48 12q31 0 44.5 -9t13.5 -30q0 -10 -3 -25q-7 -31 -22 -43t-48 -12q-31 0 -44.5 8.5zM297 714.5q-28 18.5 -28 60.5q0 20 8 54h68q-6 -24 -6 -38q0 -18 11 -24.5t39 -6.5q44 0 62 14.5t26 54.5h67q-9 -52 -26.5 -80.5t-48 -40.5 t-82.5 -12q-62 0 -90 18.5z" />
         <glyph glyph-name="uni1EB1" unicode="ằ" d="M64.5 13.5q-44.5 27.5 -44.5 93.5q0 34 8 69q16 74 44 114t77.5 56.5t132.5 16.5h152l12 55q8 42 8 66q0 45 -27.5 63t-92.5 18t-99.5 -22.5t-64.5 -82.5l-63 22q28 57 58 89.5t70.5 46.5t100.5 14q100 0 144 -31t44 -102q0 -35 -11 -87l-54 -254q-7 -31 -7 -52 q0 -25 14 -34t49 -8l-8 -64q-56 -1 -81.5 15.5t-27.5 56.5q-38 -49 -79 -67.5t-107 -18.5q-103 0 -147.5 27.5zM309 65.5q37 16.5 59 53.5t36 104l17 76h-146q-59 0 -93.5 -11.5t-54.5 -40t-32 -82.5q-6 -27 -6 -46q0 -39 28 -54.5t96 -15.5q59 0 96 16.5zM297 714.5 q-28 18.5 -28 60.5q0 20 8 54h68q-6 -24 -6 -38q0 -18 11 -24.5t39 -6.5q44 0 62 14.5t26 54.5h67q-9 -52 -26.5 -80.5t-48 -40.5t-82.5 -12q-62 0 -90 18.5zM486 920l-54 -48l-124 130l54 48z" />
         <glyph glyph-name="uni1EB3" unicode="ẳ" d="M64.5 13.5q-44.5 27.5 -44.5 93.5q0 34 8 69q16 74 44 114t77.5 56.5t132.5 16.5h152l12 55q8 42 8 66q0 45 -27.5 63t-92.5 18t-99.5 -22.5t-64.5 -82.5l-63 22q28 57 58 89.5t70.5 46.5t100.5 14q100 0 144 -31t44 -102q0 -35 -11 -87l-54 -254q-7 -31 -7 -52 q0 -25 14 -34t49 -8l-8 -64q-56 -1 -81.5 15.5t-27.5 56.5q-38 -49 -79 -67.5t-107 -18.5q-103 0 -147.5 27.5zM309 65.5q37 16.5 59 53.5t36 104l17 76h-146q-59 0 -93.5 -11.5t-54.5 -40t-32 -82.5q-6 -27 -6 -46q0 -39 28 -54.5t96 -15.5q59 0 96 16.5zM297 714.5 q-28 18.5 -28 60.5q0 20 8 54h68q-6 -24 -6 -38q0 -18 11 -24.5t39 -6.5q44 0 62 14.5t26 54.5h67q-9 -52 -26.5 -80.5t-48 -40.5t-82.5 -12q-62 0 -90 18.5zM384 909q34 7 55.5 20.5t24.5 30.5l1 5q0 9 -6.5 13.5t-15.5 4.5q-21 0 -49 -13t-54 -32l12 79q20 14 45.5 22 t47.5 8q40 0 64.5 -20t24.5 -54q0 -44 -37.5 -78.5t-102.5 -47.5z" />
         <glyph glyph-name="uni1EB5" unicode="ẵ" d="M64.5 13.5q-44.5 27.5 -44.5 93.5q0 34 8 69q16 74 44 114t77.5 56.5t132.5 16.5h152l12 55q8 42 8 66q0 45 -27.5 63t-92.5 18t-99.5 -22.5t-64.5 -82.5l-63 22q28 57 58 89.5t70.5 46.5t100.5 14q100 0 144 -31t44 -102q0 -35 -11 -87l-54 -254q-7 -31 -7 -52 q0 -25 14 -34t49 -8l-8 -64q-56 -1 -81.5 15.5t-27.5 56.5q-38 -49 -79 -67.5t-107 -18.5q-103 0 -147.5 27.5zM309 65.5q37 16.5 59 53.5t36 104l17 76h-146q-59 0 -93.5 -11.5t-54.5 -40t-32 -82.5q-6 -27 -6 -46q0 -39 28 -54.5t96 -15.5q59 0 96 16.5zM297 714.5 q-28 18.5 -28 60.5q0 20 8 54h68q-6 -24 -6 -38q0 -18 11 -24.5t39 -6.5q44 0 62 14.5t26 54.5h67q-9 -52 -26.5 -80.5t-48 -40.5t-82.5 -12q-62 0 -90 18.5zM454 900.5q-19 13.5 -40 36.5q-14 14 -22 20.5t-15 6.5q-32 0 -37 -51h-69q8 52 37.5 83.5t70.5 31.5q22 0 40 -13 t40 -36q16 -16 23.5 -22t14.5 -6q31 0 37 48h68q-7 -51 -36.5 -81.5t-70.5 -30.5q-22 0 -41 13.5z" />
         <glyph glyph-name="uni01CE" unicode="ǎ" d="M64.5 13.5q-44.5 27.5 -44.5 93.5q0 34 8 69q16 74 44 114t77.5 56.5t132.5 16.5h152l12 55q8 42 8 66q0 45 -27.5 63t-92.5 18t-99.5 -22.5t-64.5 -82.5l-63 22q28 57 58 89.5t70.5 46.5t100.5 14q100 0 144 -31t44 -102q0 -35 -11 -87l-54 -254q-7 -31 -7 -52 q0 -25 14 -34t49 -8l-8 -64q-56 -1 -81.5 15.5t-27.5 56.5q-38 -49 -79 -67.5t-107 -18.5q-103 0 -147.5 27.5zM309 65.5q37 16.5 59 53.5t36 104l17 76h-146q-59 0 -93.5 -11.5t-54.5 -40t-32 -82.5q-6 -27 -6 -46q0 -39 28 -54.5t96 -15.5q59 0 96 16.5zM551 806 l-171 -129l-118 127l59 42l74 -81l109 83z" />
         <glyph glyph-name="acircumflex" unicode="â" d="M64.5 13.5q-44.5 27.5 -44.5 93.5q0 34 8 69q16 74 44 114t77.5 56.5t132.5 16.5h152l12 55q8 42 8 66q0 45 -27.5 63t-92.5 18t-99.5 -22.5t-64.5 -82.5l-63 22q28 57 58 89.5t70.5 46.5t100.5 14q100 0 144 -31t44 -102q0 -35 -11 -87l-54 -254q-7 -31 -7 -52 q0 -25 14 -34t49 -8l-8 -64q-56 -1 -81.5 15.5t-27.5 56.5q-38 -49 -79 -67.5t-107 -18.5q-103 0 -147.5 27.5zM309 65.5q37 16.5 59 53.5t36 104l17 76h-146q-59 0 -93.5 -11.5t-54.5 -40t-32 -82.5q-6 -27 -6 -46q0 -39 28 -54.5t96 -15.5q59 0 96 16.5zM530 715l-60 -42 l-73 83l-109 -81l-45 42l169 127z" />
         <glyph glyph-name="uni1EA5" unicode="ấ" d="M64.5 13.5q-44.5 27.5 -44.5 93.5q0 34 8 69q16 74 44 114t77.5 56.5t132.5 16.5h152l12 55q8 42 8 66q0 45 -27.5 63t-92.5 18t-99.5 -22.5t-64.5 -82.5l-63 22q28 57 58 89.5t70.5 46.5t100.5 14q100 0 144 -31t44 -102q0 -35 -11 -87l-54 -254q-7 -31 -7 -52 q0 -25 14 -34t49 -8l-8 -64q-56 -1 -81.5 15.5t-27.5 56.5q-38 -49 -79 -67.5t-107 -18.5q-103 0 -147.5 27.5zM309 65.5q37 16.5 59 53.5t36 104l17 76h-146q-59 0 -93.5 -11.5t-54.5 -40t-32 -82.5q-6 -27 -6 -46q0 -39 28 -54.5t96 -15.5q59 0 96 16.5zM530 715l-60 -42 l-73 83l-109 -81l-45 42l169 127zM587 1016l-174 -130l-37 48l175 130z" />
         <glyph glyph-name="uni1EAD" unicode="ậ" d="M64.5 13.5q-44.5 27.5 -44.5 93.5q0 34 8 69q16 74 44 114t77.5 56.5t132.5 16.5h152l12 55q8 42 8 66q0 45 -27.5 63t-92.5 18t-99.5 -22.5t-64.5 -82.5l-63 22q28 57 58 89.5t70.5 46.5t100.5 14q100 0 144 -31t44 -102q0 -35 -11 -87l-54 -254q-7 -31 -7 -52 q0 -25 14 -34t49 -8l-8 -64q-56 -1 -81.5 15.5t-27.5 56.5q-38 -49 -79 -67.5t-107 -18.5q-103 0 -147.5 27.5zM309 65.5q37 16.5 59 53.5t36 104l17 76h-146q-59 0 -93.5 -11.5t-54.5 -40t-32 -82.5q-6 -27 -6 -46q0 -39 28 -54.5t96 -15.5q59 0 96 16.5zM147.5 -216.5 q-13.5 8.5 -13.5 29.5q0 11 3 26q7 31 22 43t48 12q31 0 44.5 -9t13.5 -30q0 -10 -3 -25q-7 -31 -22 -43t-48 -12q-31 0 -44.5 8.5zM530 715l-60 -42l-73 83l-109 -81l-45 42l169 127z" />
         <glyph glyph-name="uni1EA7" unicode="ầ" d="M64.5 13.5q-44.5 27.5 -44.5 93.5q0 34 8 69q16 74 44 114t77.5 56.5t132.5 16.5h152l12 55q8 42 8 66q0 45 -27.5 63t-92.5 18t-99.5 -22.5t-64.5 -82.5l-63 22q28 57 58 89.5t70.5 46.5t100.5 14q100 0 144 -31t44 -102q0 -35 -11 -87l-54 -254q-7 -31 -7 -52 q0 -25 14 -34t49 -8l-8 -64q-56 -1 -81.5 15.5t-27.5 56.5q-38 -49 -79 -67.5t-107 -18.5q-103 0 -147.5 27.5zM309 65.5q37 16.5 59 53.5t36 104l17 76h-146q-59 0 -93.5 -11.5t-54.5 -40t-32 -82.5q-6 -27 -6 -46q0 -39 28 -54.5t96 -15.5q59 0 96 16.5zM530 715l-60 -42 l-73 83l-109 -81l-45 42l169 127zM489 934l-54 -48l-124 130l54 48z" />
         <glyph glyph-name="uni1EA9" unicode="ẩ" d="M64.5 13.5q-44.5 27.5 -44.5 93.5q0 34 8 69q16 74 44 114t77.5 56.5t132.5 16.5h152l12 55q8 42 8 66q0 45 -27.5 63t-92.5 18t-99.5 -22.5t-64.5 -82.5l-63 22q28 57 58 89.5t70.5 46.5t100.5 14q100 0 144 -31t44 -102q0 -35 -11 -87l-54 -254q-7 -31 -7 -52 q0 -25 14 -34t49 -8l-8 -64q-56 -1 -81.5 15.5t-27.5 56.5q-38 -49 -79 -67.5t-107 -18.5q-103 0 -147.5 27.5zM309 65.5q37 16.5 59 53.5t36 104l17 76h-146q-59 0 -93.5 -11.5t-54.5 -40t-32 -82.5q-6 -27 -6 -46q0 -39 28 -54.5t96 -15.5q59 0 96 16.5zM530 715l-60 -42 l-73 83l-109 -81l-45 42l169 127zM387 923q34 7 55.5 20.5t24.5 30.5l1 5q0 9 -6.5 13.5t-15.5 4.5q-21 0 -49 -13t-54 -32l12 79q20 14 45.5 22t47.5 8q40 0 64.5 -20t24.5 -54q0 -44 -37.5 -78.5t-102.5 -47.5z" />
         <glyph glyph-name="uni1EAB" unicode="ẫ" d="M64.5 13.5q-44.5 27.5 -44.5 93.5q0 34 8 69q16 74 44 114t77.5 56.5t132.5 16.5h152l12 55q8 42 8 66q0 45 -27.5 63t-92.5 18t-99.5 -22.5t-64.5 -82.5l-63 22q28 57 58 89.5t70.5 46.5t100.5 14q100 0 144 -31t44 -102q0 -35 -11 -87l-54 -254q-7 -31 -7 -52 q0 -25 14 -34t49 -8l-8 -64q-56 -1 -81.5 15.5t-27.5 56.5q-38 -49 -79 -67.5t-107 -18.5q-103 0 -147.5 27.5zM309 65.5q37 16.5 59 53.5t36 104l17 76h-146q-59 0 -93.5 -11.5t-54.5 -40t-32 -82.5q-6 -27 -6 -46q0 -39 28 -54.5t96 -15.5q59 0 96 16.5zM530 715l-60 -42 l-73 83l-109 -81l-45 42l169 127zM457 914.5q-19 13.5 -40 36.5q-14 14 -22 20.5t-15 6.5q-32 0 -37 -51h-69q8 52 37.5 83.5t70.5 31.5q22 0 40 -13t40 -36q16 -16 23.5 -22t14.5 -6q31 0 37 48h68q-7 -51 -36.5 -81.5t-70.5 -30.5q-22 0 -41 13.5z" />
         <glyph glyph-name="adieresis" unicode="ä" d="M64.5 13.5q-44.5 27.5 -44.5 93.5q0 34 8 69q16 74 44 114t77.5 56.5t132.5 16.5h152l12 55q8 42 8 66q0 45 -27.5 63t-92.5 18t-99.5 -22.5t-64.5 -82.5l-63 22q28 57 58 89.5t70.5 46.5t100.5 14q100 0 144 -31t44 -102q0 -35 -11 -87l-54 -254q-7 -31 -7 -52 q0 -25 14 -34t49 -8l-8 -64q-56 -1 -81.5 15.5t-27.5 56.5q-38 -49 -79 -67.5t-107 -18.5q-103 0 -147.5 27.5zM309 65.5q37 16.5 59 53.5t36 104l17 76h-146q-59 0 -93.5 -11.5t-54.5 -40t-32 -82.5q-6 -27 -6 -46q0 -39 28 -54.5t96 -15.5q59 0 96 16.5zM241.5 732 q-14.5 10 -14.5 32q0 11 3 24q6 31 21 42.5t48 11.5q31 0 45.5 -10.5t14.5 -32.5q0 -10 -3 -22q-7 -31 -22 -43t-48 -12q-30 0 -44.5 10zM457.5 732q-14.5 10 -14.5 32q0 11 3 24q6 31 21 42.5t48 11.5q31 0 45.5 -10.5t14.5 -32.5q0 -10 -3 -22q-7 -31 -22 -43t-48 -12 q-30 0 -44.5 10z" />
         <glyph glyph-name="uni1EA1" unicode="ạ" d="M64.5 13.5q-44.5 27.5 -44.5 93.5q0 34 8 69q16 74 44 114t77.5 56.5t132.5 16.5h152l12 55q8 42 8 66q0 45 -27.5 63t-92.5 18t-99.5 -22.5t-64.5 -82.5l-63 22q28 57 58 89.5t70.5 46.5t100.5 14q100 0 144 -31t44 -102q0 -35 -11 -87l-54 -254q-7 -31 -7 -52 q0 -25 14 -34t49 -8l-8 -64q-56 -1 -81.5 15.5t-27.5 56.5q-38 -49 -79 -67.5t-107 -18.5q-103 0 -147.5 27.5zM309 65.5q37 16.5 59 53.5t36 104l17 76h-146q-59 0 -93.5 -11.5t-54.5 -40t-32 -82.5q-6 -27 -6 -46q0 -39 28 -54.5t96 -15.5q59 0 96 16.5zM147.5 -216.5 q-13.5 8.5 -13.5 29.5q0 11 3 26q7 31 22 43t48 12q31 0 44.5 -9t13.5 -30q0 -10 -3 -25q-7 -31 -22 -43t-48 -12q-31 0 -44.5 8.5z" />
         <glyph glyph-name="agrave" unicode="à" d="M64.5 13.5q-44.5 27.5 -44.5 93.5q0 34 8 69q16 74 44 114t77.5 56.5t132.5 16.5h152l12 55q8 42 8 66q0 45 -27.5 63t-92.5 18t-99.5 -22.5t-64.5 -82.5l-63 22q28 57 58 89.5t70.5 46.5t100.5 14q100 0 144 -31t44 -102q0 -35 -11 -87l-54 -254q-7 -31 -7 -52 q0 -25 14 -34t49 -8l-8 -64q-56 -1 -81.5 15.5t-27.5 56.5q-38 -49 -79 -67.5t-107 -18.5q-103 0 -147.5 27.5zM309 65.5q37 16.5 59 53.5t36 104l17 76h-146q-59 0 -93.5 -11.5t-54.5 -40t-32 -82.5q-6 -27 -6 -46q0 -39 28 -54.5t96 -15.5q59 0 96 16.5zM446 729l-54 -48 l-124 130l54 48z" />
         <glyph glyph-name="uni1EA3" unicode="ả" d="M64.5 13.5q-44.5 27.5 -44.5 93.5q0 34 8 69q16 74 44 114t77.5 56.5t132.5 16.5h152l12 55q8 42 8 66q0 45 -27.5 63t-92.5 18t-99.5 -22.5t-64.5 -82.5l-63 22q28 57 58 89.5t70.5 46.5t100.5 14q100 0 144 -31t44 -102q0 -35 -11 -87l-54 -254q-7 -31 -7 -52 q0 -25 14 -34t49 -8l-8 -64q-56 -1 -81.5 15.5t-27.5 56.5q-38 -49 -79 -67.5t-107 -18.5q-103 0 -147.5 27.5zM309 65.5q37 16.5 59 53.5t36 104l17 76h-146q-59 0 -93.5 -11.5t-54.5 -40t-32 -82.5q-6 -27 -6 -46q0 -39 28 -54.5t96 -15.5q59 0 96 16.5zM344 718 q34 7 55.5 20.5t24.5 30.5l1 5q0 9 -6.5 13.5t-15.5 4.5q-21 0 -49 -13t-54 -32l12 79q20 14 45.5 22t47.5 8q40 0 64.5 -20t24.5 -54q0 -44 -37.5 -78.5t-102.5 -47.5z" />
         <glyph glyph-name="amacron" unicode="ā" d="M64.5 13.5q-44.5 27.5 -44.5 93.5q0 34 8 69q16 74 44 114t77.5 56.5t132.5 16.5h152l12 55q8 42 8 66q0 45 -27.5 63t-92.5 18t-99.5 -22.5t-64.5 -82.5l-63 22q28 57 58 89.5t70.5 46.5t100.5 14q100 0 144 -31t44 -102q0 -35 -11 -87l-54 -254q-7 -31 -7 -52 q0 -25 14 -34t49 -8l-8 -64q-56 -1 -81.5 15.5t-27.5 56.5q-38 -49 -79 -67.5t-107 -18.5q-103 0 -147.5 27.5zM309 65.5q37 16.5 59 53.5t36 104l17 76h-146q-59 0 -93.5 -11.5t-54.5 -40t-32 -82.5q-6 -27 -6 -46q0 -39 28 -54.5t96 -15.5q59 0 96 16.5zM533 715h-293 l13 64h293z" />
         <glyph glyph-name="aogonek" unicode="ą" d="M400.5 -58.5q-30.5 -20.5 -30.5 -41.5q0 -15 12 -23.5t34 -8.5q15 0 30 6t26 16l42 -49q-16 -16 -43 -26t-55 -10q-53 0 -83.5 20.5t-30.5 58.5q0 34 40.5 68t100.5 56q-22 7 -32.5 22.5t-12.5 41.5q-38 -49 -79 -67.5t-107 -18.5q-103 0 -147.5 27.5t-44.5 93.5 q0 34 8 69q16 74 44 114t77.5 56.5t132.5 16.5h152l12 55q8 42 8 66q0 45 -27.5 63t-92.5 18t-99.5 -22.5t-64.5 -82.5l-63 22q28 57 58 89.5t70.5 46.5t100.5 14q100 0 144 -31t44 -102q0 -35 -11 -87l-54 -254q-7 -31 -7 -52q0 -25 14 -34t49 -8l-8 -64h-2 q-74 -38 -104.5 -58.5zM421 299h-146q-59 0 -93.5 -11.5t-54.5 -40t-32 -82.5q-6 -27 -6 -46q0 -39 28 -54.5t96 -15.5q59 0 96 16.5t59 53.5t36 104z" />
         <glyph glyph-name="aring" unicode="å" d="M64.5 13.5q-44.5 27.5 -44.5 93.5q0 34 8 69q16 74 44 114t77.5 56.5t132.5 16.5h152l12 55q8 42 8 66q0 45 -27.5 63t-92.5 18t-99.5 -22.5t-64.5 -82.5l-63 22q28 57 58 89.5t70.5 46.5t100.5 14q100 0 144 -31t44 -102q0 -35 -11 -87l-54 -254q-7 -31 -7 -52 q0 -25 14 -34t49 -8l-8 -64q-56 -1 -81.5 15.5t-27.5 56.5q-38 -49 -79 -67.5t-107 -18.5q-103 0 -147.5 27.5zM309 65.5q37 16.5 59 53.5t36 104l17 76h-146q-59 0 -93.5 -11.5t-54.5 -40t-32 -82.5q-6 -27 -6 -46q0 -39 28 -54.5t96 -15.5q59 0 96 16.5zM296.5 712 q-27.5 19 -27.5 62q0 21 6 49q13 67 46.5 92.5t106.5 25.5q63 0 91.5 -19t28.5 -63q0 -20 -6 -47q-14 -68 -48 -93.5t-108 -25.5q-62 0 -89.5 19zM448.5 771q18.5 14 26.5 52q3 15 3 24q0 18 -11.5 24t-41.5 6q-40 0 -58 -14t-25 -51q-4 -22 -4 -26q0 -17 11.5 -23t39.5 -6 q41 0 59.5 14z" />
         <glyph glyph-name="atilde" unicode="ã" d="M64.5 13.5q-44.5 27.5 -44.5 93.5q0 34 8 69q16 74 44 114t77.5 56.5t132.5 16.5h152l12 55q8 42 8 66q0 45 -27.5 63t-92.5 18t-99.5 -22.5t-64.5 -82.5l-63 22q28 57 58 89.5t70.5 46.5t100.5 14q100 0 144 -31t44 -102q0 -35 -11 -87l-54 -254q-7 -31 -7 -52 q0 -25 14 -34t49 -8l-8 -64q-56 -1 -81.5 15.5t-27.5 56.5q-38 -49 -79 -67.5t-107 -18.5q-103 0 -147.5 27.5zM309 65.5q37 16.5 59 53.5t36 104l17 76h-146q-59 0 -93.5 -11.5t-54.5 -40t-32 -82.5q-6 -27 -6 -46q0 -39 28 -54.5t96 -15.5q59 0 96 16.5zM414 709.5 q-19 13.5 -40 36.5q-14 14 -22 20.5t-15 6.5q-32 0 -37 -51h-69q8 52 37.5 83.5t70.5 31.5q22 0 40 -13t40 -36q16 -16 23.5 -22t14.5 -6q31 0 37 48h68q-7 -51 -36.5 -81.5t-70.5 -30.5q-22 0 -41 13.5z" />
         <glyph glyph-name="ae" unicode="æ" d="M1 10.5q-30 24.5 -30 81.5q0 37 10 84q16 74 41 114t66.5 56.5t111.5 16.5h76l13 58q11 53 11 81q0 38 -18 52.5t-60 14.5q-34 0 -55.5 -22.5t-45.5 -83.5l-66 23q23 57 46 88t52 44.5t71 13.5q60 0 90 -22.5t34 -73.5q30 54 63 75t89 21q60 0 87.5 -31.5t27.5 -102.5 q0 -69 -28 -201h-256q-23 -110 -23 -163q0 -46 16 -65.5t52 -19.5q37 0 64.5 19.5t52.5 68.5l51 -42q-31 -61 -70 -85t-99 -24q-52 0 -80 23t-38 76q-28 -55 -64.5 -77t-93.5 -22q-68 0 -98 24.5zM533 366q19 93 19 134q0 38 -13 53.5t-41 15.5q-41 0 -68.5 -20t-47.5 -64.5 t-38 -124.5zM169.5 65q26.5 16 44.5 53.5t32 104.5l17 76h-71q-44 0 -71 -11.5t-44 -40.5t-29 -82q-8 -42 -8 -63q0 -29 14 -41t47 -12q42 0 68.5 16z" />
         <glyph glyph-name="b" unicode="b" d="M122 6.5q-44 20.5 -76 72.5l152 721h69l-51 -233q29 35 68.5 50t89.5 15q93 0 134.5 -38t41.5 -126q0 -61 -22 -166q-26 -121 -59.5 -189t-85 -97.5t-133.5 -29.5q-84 0 -128 20.5zM348.5 73.5q38.5 24.5 65 81.5t48.5 159q20 94 20 146q0 60 -25.5 84.5t-83.5 24.5 q-60 0 -96.5 -15.5t-58.5 -51t-35 -99.5l-68 -306q24 -28 52.5 -38t83.5 -10q59 0 97.5 24.5z" />
         <glyph glyph-name="c" unicode="c" d="M102 25.5q-47 39.5 -47 132.5q0 62 20 157q25 121 62 189t95.5 98t151.5 30q79 0 119 -25.5t70 -90.5l-62 -30q-22 49 -48.5 66t-79.5 17q-72 0 -117 -24.5t-74 -82t-51 -159.5q-18 -82 -18 -135q0 -66 31 -92.5t103 -26.5q56 0 93.5 19t83.5 69l53 -39 q-57 -64 -106.5 -88t-124.5 -24q-107 0 -154 39.5z" />
         <glyph glyph-name="cacute" unicode="ć" d="M102 25.5q-47 39.5 -47 132.5q0 62 20 157q25 121 62 189t95.5 98t151.5 30q79 0 119 -25.5t70 -90.5l-62 -30q-22 49 -48.5 66t-79.5 17q-72 0 -117 -24.5t-74 -82t-51 -159.5q-18 -82 -18 -135q0 -66 31 -92.5t103 -26.5q56 0 93.5 19t83.5 69l53 -39 q-57 -64 -106.5 -88t-124.5 -24q-107 0 -154 39.5zM544 811l-174 -130l-37 48l175 130z" />
         <glyph glyph-name="ccaron" unicode="č" d="M102 25.5q-47 39.5 -47 132.5q0 62 20 157q25 121 62 189t95.5 98t151.5 30q79 0 119 -25.5t70 -90.5l-62 -30q-22 49 -48.5 66t-79.5 17q-72 0 -117 -24.5t-74 -82t-51 -159.5q-18 -82 -18 -135q0 -66 31 -92.5t103 -26.5q56 0 93.5 19t83.5 69l53 -39 q-57 -64 -106.5 -88t-124.5 -24q-107 0 -154 39.5zM551 806l-171 -129l-118 127l59 42l74 -81l109 83z" />
         <glyph glyph-name="ccedilla" unicode="ç" d="M266 544.5q-45 -24.5 -74 -82t-51 -159.5q-18 -82 -18 -135q0 -66 31 -92.5t103 -26.5q56 0 93.5 19t83.5 69l53 -39q-55 -63 -104 -87t-121 -25l-8 -29q28 -7 44 -25t16 -43q0 -10 -1 -15q-8 -40 -43 -63.5t-85 -23.5q-30 0 -55 10.5t-37 26.5l35 49q9 -10 25.5 -16.5 t33.5 -6.5q22 0 39 10t20 25q2 12 -15.5 18.5t-50.5 6.5l14 80q-73 11 -106 50.5t-33 117.5q0 62 20 157q25 121 62 189t95.5 98t151.5 30q79 0 119 -25.5t70 -90.5l-62 -30q-22 49 -48.5 66t-79.5 17q-72 0 -117 -24.5z" />
         <glyph glyph-name="ccircumflex" unicode="ĉ" d="M102 25.5q-47 39.5 -47 132.5q0 62 20 157q25 121 62 189t95.5 98t151.5 30q79 0 119 -25.5t70 -90.5l-62 -30q-22 49 -48.5 66t-79.5 17q-72 0 -117 -24.5t-74 -82t-51 -159.5q-18 -82 -18 -135q0 -66 31 -92.5t103 -26.5q56 0 93.5 19t83.5 69l53 -39 q-57 -64 -106.5 -88t-124.5 -24q-107 0 -154 39.5zM530 715l-60 -42l-73 83l-109 -81l-45 42l169 127z" />
         <glyph glyph-name="cdotaccent" unicode="ċ" d="M102 25.5q-47 39.5 -47 132.5q0 62 20 157q25 121 62 189t95.5 98t151.5 30q79 0 119 -25.5t70 -90.5l-62 -30q-22 49 -48.5 66t-79.5 17q-72 0 -117 -24.5t-74 -82t-51 -159.5q-18 -82 -18 -135q0 -66 31 -92.5t103 -26.5q56 0 93.5 19t83.5 69l53 -39 q-57 -64 -106.5 -88t-124.5 -24q-107 0 -154 39.5zM351.5 745.5q-13.5 8.5 -13.5 29.5q0 11 3 26q7 31 22 43t48 12q31 0 44.5 -9t13.5 -30q0 -10 -3 -25q-7 -31 -22 -43t-48 -12q-31 0 -44.5 8.5z" />
         <glyph glyph-name="d" unicode="d" d="M94 24q-43 38 -43 127q0 65 21 163q26 121 60 189.5t87.5 98.5t137.5 30q119 0 146 -73l53 241h69l-170 -800h-70l11 37q-29 -28 -69 -39.5t-94 -11.5q-96 0 -139 38zM356.5 69.5q48.5 20.5 57.5 62.5l59 278q7 37 7 56q0 54 -31.5 78.5t-92.5 24.5q-62 0 -101.5 -25 t-67 -82.5t-49.5 -159.5q-19 -93 -19 -141q0 -61 27 -86.5t88 -25.5q74 0 122.5 20.5z" />
         <glyph glyph-name="eth" unicode="ð" d="M486 689q60 -86 60 -234q0 -78 -18 -174q-5 -28 -7 -38q-21 -98 -54 -153.5t-87 -79.5t-142 -24q-106 0 -152.5 35t-46.5 118q0 49 15 116q21 98 54 153.5t87 79.5t142 24q93 0 139 -26q-7 108 -55 171l-166 -83l-23 55l144 72q-59 39 -145 36l8 63q127 3 206 -65l130 65 l23 -55zM344.5 67.5q40.5 18.5 65.5 61t42 118.5l9 45q5 28 5 57q0 55 -30 77.5t-100 22.5q-66 0 -107.5 -19.5t-66.5 -63.5t-41 -123q-13 -62 -13 -94q0 -55 30 -77.5t101 -22.5q65 0 105.5 18.5z" />
         <glyph glyph-name="dcaron" unicode="ď" d="M53 24q-40 38 -40 125q0 66 21 165q25 121 59.5 189.5t85 98.5t127.5 30q105 0 132 -73l52 241h69l-170 -800h-69l10 37q-51 -51 -149 -51q-88 0 -128 38zM637 540h-55l47 260h72zM293.5 69.5q46.5 20.5 55.5 62.5l59 278q7 29 7 56q0 103 -111 103q-55 0 -92 -25 t-63.5 -83t-47.5 -159q-20 -94 -20 -146q0 -58 24 -82.5t78 -24.5q64 0 110.5 20.5z" />
         <glyph glyph-name="dcroat" unicode="đ" d="M670 736l-13 -63h-59l-143 -673h-70l11 37q-29 -28 -69 -39.5t-94 -11.5q-96 0 -139 38t-43 127q0 65 21 163q26 121 60 189.5t87.5 98.5t137.5 30q119 0 146 -73l25 114h-132l14 63h132l14 64h69l-14 -64h59zM473 410q7 37 7 56q0 54 -31.5 78.5t-92.5 24.5 q-62 0 -101.5 -25t-67 -82.5t-49.5 -159.5q-19 -93 -19 -141q0 -61 27 -86.5t88 -25.5q74 0 122.5 20.5t57.5 62.5z" />
         <glyph glyph-name="e" unicode="e" d="M128 299q-16 -76 -16 -129q0 -66 30.5 -93.5t99.5 -27.5q59 0 97.5 18.5t87.5 68.5l50 -41q-57 -63 -108 -86t-128 -23q-105 0 -151.5 39.5t-46.5 132.5q0 62 20 157q25 121 61.5 189t93.5 98t147 30q97 0 140.5 -38.5t43.5 -128.5q0 -64 -23 -168zM260.5 549.5 q-41.5 -19.5 -69.5 -64t-48 -122.5l327 3q8 56 8 89q0 63 -26 88.5t-88 25.5t-103.5 -19.5z" />
         <glyph glyph-name="eacute" unicode="é" d="M128 299q-16 -76 -16 -129q0 -66 30.5 -93.5t99.5 -27.5q59 0 97.5 18.5t87.5 68.5l50 -41q-57 -63 -108 -86t-128 -23q-105 0 -151.5 39.5t-46.5 132.5q0 62 20 157q25 121 61.5 189t93.5 98t147 30q97 0 140.5 -38.5t43.5 -128.5q0 -64 -23 -168zM260.5 549.5 q-41.5 -19.5 -69.5 -64t-48 -122.5l327 3q8 56 8 89q0 63 -26 88.5t-88 25.5t-103.5 -19.5zM544 811l-174 -130l-37 48l175 130z" />
         <glyph glyph-name="ecaron" unicode="ě" d="M128 299q-16 -76 -16 -129q0 -66 30.5 -93.5t99.5 -27.5q59 0 97.5 18.5t87.5 68.5l50 -41q-57 -63 -108 -86t-128 -23q-105 0 -151.5 39.5t-46.5 132.5q0 62 20 157q25 121 61.5 189t93.5 98t147 30q97 0 140.5 -38.5t43.5 -128.5q0 -64 -23 -168zM260.5 549.5 q-41.5 -19.5 -69.5 -64t-48 -122.5l327 3q8 56 8 89q0 63 -26 88.5t-88 25.5t-103.5 -19.5zM551 806l-171 -129l-118 127l59 42l74 -81l109 83z" />
         <glyph glyph-name="ecircumflex" unicode="ê" d="M128 299q-16 -76 -16 -129q0 -66 30.5 -93.5t99.5 -27.5q59 0 97.5 18.5t87.5 68.5l50 -41q-57 -63 -108 -86t-128 -23q-105 0 -151.5 39.5t-46.5 132.5q0 62 20 157q25 121 61.5 189t93.5 98t147 30q97 0 140.5 -38.5t43.5 -128.5q0 -64 -23 -168zM260.5 549.5 q-41.5 -19.5 -69.5 -64t-48 -122.5l327 3q8 56 8 89q0 63 -26 88.5t-88 25.5t-103.5 -19.5zM530 715l-60 -42l-73 83l-109 -81l-45 42l169 127z" />
         <glyph glyph-name="uni1EBF" unicode="ế" d="M128 299q-16 -76 -16 -129q0 -66 30.5 -93.5t99.5 -27.5q59 0 97.5 18.5t87.5 68.5l50 -41q-57 -63 -108 -86t-128 -23q-105 0 -151.5 39.5t-46.5 132.5q0 62 20 157q25 121 61.5 189t93.5 98t147 30q97 0 140.5 -38.5t43.5 -128.5q0 -64 -23 -168zM260.5 549.5 q-41.5 -19.5 -69.5 -64t-48 -122.5l327 3q8 56 8 89q0 63 -26 88.5t-88 25.5t-103.5 -19.5zM530 715l-60 -42l-73 83l-109 -81l-45 42l169 127zM587 1016l-174 -130l-37 48l175 130z" />
         <glyph glyph-name="uni1EC7" unicode="ệ" d="M128 299q-16 -76 -16 -129q0 -66 30.5 -93.5t99.5 -27.5q59 0 97.5 18.5t87.5 68.5l50 -41q-57 -63 -108 -86t-128 -23q-105 0 -151.5 39.5t-46.5 132.5q0 62 20 157q25 121 61.5 189t93.5 98t147 30q97 0 140.5 -38.5t43.5 -128.5q0 -64 -23 -168zM260.5 549.5 q-41.5 -19.5 -69.5 -64t-48 -122.5l327 3q8 56 8 89q0 63 -26 88.5t-88 25.5t-103.5 -19.5zM147.5 -216.5q-13.5 8.5 -13.5 29.5q0 11 3 26q7 31 22 43t48 12q31 0 44.5 -9t13.5 -30q0 -10 -3 -25q-7 -31 -22 -43t-48 -12q-31 0 -44.5 8.5zM530 715l-60 -42l-73 83l-109 -81 l-45 42l169 127z" />
         <glyph glyph-name="uni1EC1" unicode="ề" d="M128 299q-16 -76 -16 -129q0 -66 30.5 -93.5t99.5 -27.5q59 0 97.5 18.5t87.5 68.5l50 -41q-57 -63 -108 -86t-128 -23q-105 0 -151.5 39.5t-46.5 132.5q0 62 20 157q25 121 61.5 189t93.5 98t147 30q97 0 140.5 -38.5t43.5 -128.5q0 -64 -23 -168zM260.5 549.5 q-41.5 -19.5 -69.5 -64t-48 -122.5l327 3q8 56 8 89q0 63 -26 88.5t-88 25.5t-103.5 -19.5zM530 715l-60 -42l-73 83l-109 -81l-45 42l169 127zM489 934l-54 -48l-124 130l54 48z" />
         <glyph glyph-name="uni1EC3" unicode="ể" d="M128 299q-16 -76 -16 -129q0 -66 30.5 -93.5t99.5 -27.5q59 0 97.5 18.5t87.5 68.5l50 -41q-57 -63 -108 -86t-128 -23q-105 0 -151.5 39.5t-46.5 132.5q0 62 20 157q25 121 61.5 189t93.5 98t147 30q97 0 140.5 -38.5t43.5 -128.5q0 -64 -23 -168zM260.5 549.5 q-41.5 -19.5 -69.5 -64t-48 -122.5l327 3q8 56 8 89q0 63 -26 88.5t-88 25.5t-103.5 -19.5zM530 715l-60 -42l-73 83l-109 -81l-45 42l169 127zM387 923q34 7 55.5 20.5t24.5 30.5l1 5q0 9 -6.5 13.5t-15.5 4.5q-21 0 -49 -13t-54 -32l12 79q20 14 45.5 22t47.5 8 q40 0 64.5 -20t24.5 -54q0 -44 -37.5 -78.5t-102.5 -47.5z" />
         <glyph glyph-name="uni1EC5" unicode="ễ" d="M128 299q-16 -76 -16 -129q0 -66 30.5 -93.5t99.5 -27.5q59 0 97.5 18.5t87.5 68.5l50 -41q-57 -63 -108 -86t-128 -23q-105 0 -151.5 39.5t-46.5 132.5q0 62 20 157q25 121 61.5 189t93.5 98t147 30q97 0 140.5 -38.5t43.5 -128.5q0 -64 -23 -168zM260.5 549.5 q-41.5 -19.5 -69.5 -64t-48 -122.5l327 3q8 56 8 89q0 63 -26 88.5t-88 25.5t-103.5 -19.5zM530 715l-60 -42l-73 83l-109 -81l-45 42l169 127zM457 914.5q-19 13.5 -40 36.5q-14 14 -22 20.5t-15 6.5q-32 0 -37 -51h-69q8 52 37.5 83.5t70.5 31.5q22 0 40 -13t40 -36 q16 -16 23.5 -22t14.5 -6q31 0 37 48h68q-7 -51 -36.5 -81.5t-70.5 -30.5q-22 0 -41 13.5z" />
         <glyph glyph-name="edieresis" unicode="ë" d="M128 299q-16 -76 -16 -129q0 -66 30.5 -93.5t99.5 -27.5q59 0 97.5 18.5t87.5 68.5l50 -41q-57 -63 -108 -86t-128 -23q-105 0 -151.5 39.5t-46.5 132.5q0 62 20 157q25 121 61.5 189t93.5 98t147 30q97 0 140.5 -38.5t43.5 -128.5q0 -64 -23 -168zM260.5 549.5 q-41.5 -19.5 -69.5 -64t-48 -122.5l327 3q8 56 8 89q0 63 -26 88.5t-88 25.5t-103.5 -19.5zM241.5 732q-14.5 10 -14.5 32q0 11 3 24q6 31 21 42.5t48 11.5q31 0 45.5 -10.5t14.5 -32.5q0 -10 -3 -22q-7 -31 -22 -43t-48 -12q-30 0 -44.5 10zM457.5 732q-14.5 10 -14.5 32 q0 11 3 24q6 31 21 42.5t48 11.5q31 0 45.5 -10.5t14.5 -32.5q0 -10 -3 -22q-7 -31 -22 -43t-48 -12q-30 0 -44.5 10z" />
         <glyph glyph-name="edotaccent" unicode="ė" d="M128 299q-16 -76 -16 -129q0 -66 30.5 -93.5t99.5 -27.5q59 0 97.5 18.5t87.5 68.5l50 -41q-57 -63 -108 -86t-128 -23q-105 0 -151.5 39.5t-46.5 132.5q0 62 20 157q25 121 61.5 189t93.5 98t147 30q97 0 140.5 -38.5t43.5 -128.5q0 -64 -23 -168zM260.5 549.5 q-41.5 -19.5 -69.5 -64t-48 -122.5l327 3q8 56 8 89q0 63 -26 88.5t-88 25.5t-103.5 -19.5zM351.5 745.5q-13.5 8.5 -13.5 29.5q0 11 3 26q7 31 22 43t48 12q31 0 44.5 -9t13.5 -30q0 -10 -3 -25q-7 -31 -22 -43t-48 -12q-31 0 -44.5 8.5z" />
         <glyph glyph-name="uni1EB9" unicode="ẹ" d="M128 299q-16 -76 -16 -129q0 -66 30.5 -93.5t99.5 -27.5q59 0 97.5 18.5t87.5 68.5l50 -41q-57 -63 -108 -86t-128 -23q-105 0 -151.5 39.5t-46.5 132.5q0 62 20 157q25 121 61.5 189t93.5 98t147 30q97 0 140.5 -38.5t43.5 -128.5q0 -64 -23 -168zM260.5 549.5 q-41.5 -19.5 -69.5 -64t-48 -122.5l327 3q8 56 8 89q0 63 -26 88.5t-88 25.5t-103.5 -19.5zM147.5 -216.5q-13.5 8.5 -13.5 29.5q0 11 3 26q7 31 22 43t48 12q31 0 44.5 -9t13.5 -30q0 -10 -3 -25q-7 -31 -22 -43t-48 -12q-31 0 -44.5 8.5z" />
         <glyph glyph-name="egrave" unicode="è" d="M128 299q-16 -76 -16 -129q0 -66 30.5 -93.5t99.5 -27.5q59 0 97.5 18.5t87.5 68.5l50 -41q-57 -63 -108 -86t-128 -23q-105 0 -151.5 39.5t-46.5 132.5q0 62 20 157q25 121 61.5 189t93.5 98t147 30q97 0 140.5 -38.5t43.5 -128.5q0 -64 -23 -168zM260.5 549.5 q-41.5 -19.5 -69.5 -64t-48 -122.5l327 3q8 56 8 89q0 63 -26 88.5t-88 25.5t-103.5 -19.5zM446 729l-54 -48l-124 130l54 48z" />
         <glyph glyph-name="uni1EBB" unicode="ẻ" d="M128 299q-16 -76 -16 -129q0 -66 30.5 -93.5t99.5 -27.5q59 0 97.5 18.5t87.5 68.5l50 -41q-57 -63 -108 -86t-128 -23q-105 0 -151.5 39.5t-46.5 132.5q0 62 20 157q25 121 61.5 189t93.5 98t147 30q97 0 140.5 -38.5t43.5 -128.5q0 -64 -23 -168zM260.5 549.5 q-41.5 -19.5 -69.5 -64t-48 -122.5l327 3q8 56 8 89q0 63 -26 88.5t-88 25.5t-103.5 -19.5zM344 718q34 7 55.5 20.5t24.5 30.5l1 5q0 9 -6.5 13.5t-15.5 4.5q-21 0 -49 -13t-54 -32l12 79q20 14 45.5 22t47.5 8q40 0 64.5 -20t24.5 -54q0 -44 -37.5 -78.5t-102.5 -47.5z " />
         <glyph glyph-name="emacron" unicode="ē" d="M128 299q-16 -76 -16 -129q0 -66 30.5 -93.5t99.5 -27.5q59 0 97.5 18.5t87.5 68.5l50 -41q-57 -63 -108 -86t-128 -23q-105 0 -151.5 39.5t-46.5 132.5q0 62 20 157q25 121 61.5 189t93.5 98t147 30q97 0 140.5 -38.5t43.5 -128.5q0 -64 -23 -168zM260.5 549.5 q-41.5 -19.5 -69.5 -64t-48 -122.5l327 3q8 56 8 89q0 63 -26 88.5t-88 25.5t-103.5 -19.5zM533 715h-293l13 64h293z" />
         <glyph glyph-name="eogonek" unicode="ę" d="M128 299q-16 -76 -16 -129q0 -66 30.5 -93.5t99.5 -27.5q59 0 97.5 18.5t87.5 68.5l50 -41q-35 -39 -67 -62t-67 -34q-77 -40 -107 -60t-30 -41q0 -15 12 -23.5t34 -8.5q15 0 30 6t26 16l42 -49q-16 -16 -43 -26t-55 -10q-53 0 -83.5 20.5t-30.5 58.5q0 27 26.5 54.5 t69.5 49.5q-101 1 -146 40.5t-45 131.5q0 62 20 157q25 121 61.5 189t93.5 98t147 30q97 0 140.5 -38.5t43.5 -128.5q0 -64 -23 -168zM260.5 549.5q-41.5 -19.5 -69.5 -64t-48 -122.5l327 3q8 56 8 89q0 63 -26 88.5t-88 25.5t-103.5 -19.5z" />
         <glyph glyph-name="uni1EBD" unicode="ẽ" d="M128 299q-16 -76 -16 -129q0 -66 30.5 -93.5t99.5 -27.5q59 0 97.5 18.5t87.5 68.5l50 -41q-57 -63 -108 -86t-128 -23q-105 0 -151.5 39.5t-46.5 132.5q0 62 20 157q25 121 61.5 189t93.5 98t147 30q97 0 140.5 -38.5t43.5 -128.5q0 -64 -23 -168zM260.5 549.5 q-41.5 -19.5 -69.5 -64t-48 -122.5l327 3q8 56 8 89q0 63 -26 88.5t-88 25.5t-103.5 -19.5zM414 709.5q-19 13.5 -40 36.5q-14 14 -22 20.5t-15 6.5q-32 0 -37 -51h-69q8 52 37.5 83.5t70.5 31.5q22 0 40 -13t40 -36q16 -16 23.5 -22t14.5 -6q31 0 37 48h68 q-7 -51 -36.5 -81.5t-70.5 -30.5q-22 0 -41 13.5z" />
         <glyph glyph-name="f" unicode="f" d="M576.5 803.5q34.5 -10.5 52 -33t22.5 -62.5l-67 -16q-4 25 -13 37t-29.5 17t-59.5 5q-52 0 -84.5 -14t-52.5 -47t-32 -91l-21 -98h178l-13 -64h-178l-93 -437h-69l93 437h-124l13 64h124l22 103q17 81 44.5 126t73.5 64.5t120 19.5q59 0 93.5 -10.5z" />
         <glyph glyph-name="g" unicode="g" d="M102.5 -181.5q-33.5 14.5 -59.5 51.5l56 40q19 -25 39 -34t60 -9q60 0 97 16.5t59.5 55t36.5 107.5l16 65q-29 -37 -70.5 -53t-96.5 -16q-96 0 -138.5 38.5t-42.5 128.5q0 62 22 167q21 98 53 153t83.5 79t135.5 24q118 0 149 -55l12 41h69l-122 -569 q-20 -95 -50.5 -147.5t-81 -75t-132.5 -22.5q-61 0 -94.5 14.5zM439 270l48 222q2 10 2 14q0 63 -137 63q-62 0 -100.5 -19t-63 -63.5t-41.5 -122.5q-20 -94 -20 -146q0 -62 27 -87t88 -25q163 0 197 164z" />
         <glyph glyph-name="gbreve" unicode="ğ" d="M102.5 -181.5q-33.5 14.5 -59.5 51.5l56 40q19 -25 39 -34t60 -9q60 0 97 16.5t59.5 55t36.5 107.5l16 65q-29 -37 -70.5 -53t-96.5 -16q-96 0 -138.5 38.5t-42.5 128.5q0 62 22 167q21 98 53 153t83.5 79t135.5 24q118 0 149 -55l12 41h69l-122 -569 q-20 -95 -50.5 -147.5t-81 -75t-132.5 -22.5q-61 0 -94.5 14.5zM439 270l48 222q2 10 2 14q0 63 -137 63q-62 0 -100.5 -19t-63 -63.5t-41.5 -122.5q-20 -94 -20 -146q0 -62 27 -87t88 -25q163 0 197 164zM297 714.5q-28 18.5 -28 60.5q0 20 8 54h68q-6 -24 -6 -38 q0 -18 11 -24.5t39 -6.5q44 0 62 14.5t26 54.5h67q-9 -52 -26.5 -80.5t-48 -40.5t-82.5 -12q-62 0 -90 18.5z" />
         <glyph glyph-name="gcircumflex" unicode="ĝ" d="M102.5 -181.5q-33.5 14.5 -59.5 51.5l56 40q19 -25 39 -34t60 -9q60 0 97 16.5t59.5 55t36.5 107.5l16 65q-29 -37 -70.5 -53t-96.5 -16q-96 0 -138.5 38.5t-42.5 128.5q0 62 22 167q21 98 53 153t83.5 79t135.5 24q118 0 149 -55l12 41h69l-122 -569 q-20 -95 -50.5 -147.5t-81 -75t-132.5 -22.5q-61 0 -94.5 14.5zM439 270l48 222q2 10 2 14q0 63 -137 63q-62 0 -100.5 -19t-63 -63.5t-41.5 -122.5q-20 -94 -20 -146q0 -62 27 -87t88 -25q163 0 197 164zM530 715l-60 -42l-73 83l-109 -81l-45 42l169 127z" />
         <glyph glyph-name="uni0123" unicode="ģ" d="M102.5 -181.5q-33.5 14.5 -59.5 51.5l56 40q19 -25 39 -34t60 -9q60 0 97 16.5t59.5 55t36.5 107.5l16 65q-29 -37 -70.5 -53t-96.5 -16q-96 0 -138.5 38.5t-42.5 128.5q0 62 22 167q21 98 53 153t83.5 79t135.5 24q118 0 149 -55l12 41h69l-122 -569 q-20 -95 -50.5 -147.5t-81 -75t-132.5 -22.5q-61 0 -94.5 14.5zM439 270l48 222q2 10 2 14q0 63 -137 63q-62 0 -100.5 -19t-63 -63.5t-41.5 -122.5q-20 -94 -20 -146q0 -62 27 -87t88 -25q163 0 197 164zM344 664q-11 8 -11 26q0 5 2 17q5 27 36.5 71.5t71.5 91.5l49 -2 l-78 -124q19 -6 19 -29q0 -12 -2 -19q-5 -23 -16 -31.5t-36 -8.5q-24 0 -35 8z" />
         <glyph glyph-name="gdotaccent" unicode="ġ" d="M102.5 -181.5q-33.5 14.5 -59.5 51.5l56 40q19 -25 39 -34t60 -9q60 0 97 16.5t59.5 55t36.5 107.5l16 65q-29 -37 -70.5 -53t-96.5 -16q-96 0 -138.5 38.5t-42.5 128.5q0 62 22 167q21 98 53 153t83.5 79t135.5 24q118 0 149 -55l12 41h69l-122 -569 q-20 -95 -50.5 -147.5t-81 -75t-132.5 -22.5q-61 0 -94.5 14.5zM439 270l48 222q2 10 2 14q0 63 -137 63q-62 0 -100.5 -19t-63 -63.5t-41.5 -122.5q-20 -94 -20 -146q0 -62 27 -87t88 -25q163 0 197 164zM351.5 745.5q-13.5 8.5 -13.5 29.5q0 11 3 26q7 31 22 43t48 12 q31 0 44.5 -9t13.5 -30q0 -10 -3 -25q-7 -31 -22 -43t-48 -12q-31 0 -44.5 8.5z" />
         <glyph glyph-name="h" unicode="h" d="M29 0l170 800h69l-50 -228q25 33 63.5 46.5t90.5 13.5q93 0 134.5 -36.5t41.5 -123.5q0 -63 -21 -159l-66 -313h-69l68 318q19 89 19 144q0 59 -25.5 83t-82.5 24q-60 0 -95.5 -14t-56.5 -49.5t-35 -102.5l-86 -403h-69z" />
         <glyph glyph-name="hbar" unicode="ħ" d="M506.5 595.5q41.5 -36.5 41.5 -123.5q0 -63 -21 -159l-66 -313h-69l68 318q19 89 19 144q0 59 -25.5 83t-82.5 24q-60 0 -95.5 -14t-56.5 -49.5t-35 -102.5l-86 -403h-69l143 673h-74l13 63h74l14 64h69l-14 -64h118l-13 -63h-119l-22 -101q25 33 63.5 46.5t90.5 13.5 q93 0 134.5 -36.5z" />
         <glyph glyph-name="hcircumflex" unicode="ĥ" d="M29 0l170 800h69l-50 -228q25 33 63.5 46.5t90.5 13.5q93 0 134.5 -36.5t41.5 -123.5q0 -63 -21 -159l-66 -313h-69l68 318q19 89 19 144q0 59 -25.5 83t-82.5 24q-60 0 -95.5 -14t-56.5 -49.5t-35 -102.5l-86 -403h-69zM392 855l-60 -42l-73 83l-109 -81l-45 42l169 127 z" />
         <glyph glyph-name="i" unicode="i" d="M427 618l-119 -555h175l-13 -63h-419l13 63h175l104 492h-125l14 63h195zM359.5 745.5q-13.5 8.5 -13.5 29.5q0 11 3 26q7 31 22 43t48 12q31 0 44.5 -9t13.5 -30q0 -10 -3 -25q-7 -31 -22 -43t-48 -12q-31 0 -44.5 8.5z" />
         <glyph glyph-name="dotlessi" unicode="ı" d="M427 618l-119 -555h175l-13 -63h-419l13 63h175l104 492h-125l14 63h195z" />
         <glyph glyph-name="iacute" unicode="í" d="M427 618l-119 -555h175l-13 -63h-419l13 63h175l104 492h-125l14 63h195zM552 811l-174 -130l-37 48l175 130z" />
         <glyph glyph-name="uni01D0" unicode="ǐ" d="M427 618l-119 -555h175l-13 -63h-419l13 63h175l104 492h-125l14 63h195zM559 806l-171 -129l-118 127l59 42l74 -81l109 83z" />
         <glyph glyph-name="icircumflex" unicode="î" d="M427 618l-119 -555h175l-13 -63h-419l13 63h175l104 492h-125l14 63h195zM538 715l-60 -42l-73 83l-109 -81l-45 42l169 127z" />
         <glyph glyph-name="idieresis" unicode="ï" d="M427 618l-119 -555h175l-13 -63h-419l13 63h175l104 492h-125l14 63h195zM249.5 732q-14.5 10 -14.5 32q0 11 3 24q6 31 21 42.5t48 11.5q31 0 45.5 -10.5t14.5 -32.5q0 -10 -3 -22q-7 -31 -22 -43t-48 -12q-30 0 -44.5 10zM465.5 732q-14.5 10 -14.5 32q0 11 3 24 q6 31 21 42.5t48 11.5q31 0 45.5 -10.5t14.5 -32.5q0 -10 -3 -22q-7 -31 -22 -43t-48 -12q-30 0 -44.5 10z" />
         <glyph glyph-name="i.loclTRK" d="M427 618l-119 -555h175l-13 -63h-419l13 63h175l104 492h-125l14 63h195zM359.5 745.5q-13.5 8.5 -13.5 29.5q0 11 3 26q7 31 22 43t48 12q31 0 44.5 -9t13.5 -30q0 -10 -3 -25q-7 -31 -22 -43t-48 -12q-31 0 -44.5 8.5z" />
         <glyph glyph-name="uni1ECB" unicode="ị" d="M427 618l-119 -555h175l-13 -63h-419l13 63h175l104 492h-125l14 63h195zM359.5 745.5q-13.5 8.5 -13.5 29.5q0 11 3 26q7 31 22 43t48 12q31 0 44.5 -9t13.5 -30q0 -10 -3 -25q-7 -31 -22 -43t-48 -12q-31 0 -44.5 8.5zM157.5 -216.5q-13.5 8.5 -13.5 29.5q0 11 3 26 q7 31 22 43t48 12q31 0 44.5 -9t13.5 -30q0 -10 -3 -25q-7 -31 -22 -43t-48 -12q-31 0 -44.5 8.5z" />
         <glyph glyph-name="igrave" unicode="ì" d="M427 618l-119 -555h175l-13 -63h-419l13 63h175l104 492h-125l14 63h195zM454 729l-54 -48l-124 130l54 48z" />
         <glyph glyph-name="uni1EC9" unicode="ỉ" d="M427 618l-119 -555h175l-13 -63h-419l13 63h175l104 492h-125l14 63h195zM352 718q34 7 55.5 20.5t24.5 30.5l1 5q0 9 -6.5 13.5t-15.5 4.5q-21 0 -49 -13t-54 -32l12 79q20 14 45.5 22t47.5 8q40 0 64.5 -20t24.5 -54q0 -44 -37.5 -78.5t-102.5 -47.5z" />
         <glyph glyph-name="imacron" unicode="ī" d="M427 618l-119 -555h175l-13 -63h-419l13 63h175l104 492h-125l14 63h195zM541 715h-293l13 64h293z" />
         <glyph glyph-name="iogonek" unicode="į" d="M359.5 745.5q-13.5 8.5 -13.5 29.5q0 11 3 26q7 31 22 43t48 12q31 0 44.5 -9t13.5 -30q0 -10 -3 -25q-7 -31 -22 -43t-48 -12q-31 0 -44.5 8.5zM330 0q-77 -40 -107 -60t-30 -41q0 -15 12 -23.5t34 -8.5q15 0 30 6t26 16l42 -49q-16 -16 -43 -26t-55 -10 q-53 0 -83.5 20.5t-30.5 58.5q0 32 35 63.5t89 53.5h-198l13 63h175l104 492h-125l14 63h195l-119 -555h175l-13 -63h-140z" />
         <glyph glyph-name="itilde" unicode="ĩ" d="M427 618l-119 -555h175l-13 -63h-419l13 63h175l104 492h-125l14 63h195zM422 709.5q-19 13.5 -40 36.5q-14 14 -22 20.5t-15 6.5q-32 0 -37 -51h-69q8 52 37.5 83.5t70.5 31.5q22 0 40 -13t40 -36q16 -16 23.5 -22t14.5 -6q31 0 37 48h68q-7 -51 -36.5 -81.5 t-70.5 -30.5q-22 0 -41 13.5z" />
         <glyph glyph-name="j" unicode="j" d="M42.5 -181.5q-33.5 14.5 -59.5 51.5l56 40q19 -25 39 -34t60 -9q60 0 97.5 17.5t60.5 59t38 115.5l106 496h-126l14 63h195l-121 -565q-20 -97 -51 -150t-81.5 -76t-132.5 -23q-61 0 -94.5 14.5zM449.5 745.5q-13.5 8.5 -13.5 29.5q0 11 3 26q7 31 22 43t48 12 q31 0 44.5 -9t13.5 -30q0 -10 -3 -25q-7 -31 -22 -43t-48 -12q-31 0 -44.5 8.5z" />
         <glyph glyph-name="uni0237" unicode="ȷ" d="M42.5 -181.5q-33.5 14.5 -59.5 51.5l56 40q19 -25 39 -34t60 -9q60 0 97.5 17.5t60.5 59t38 115.5l106 496h-126l14 63h195l-121 -565q-20 -97 -51 -150t-81.5 -76t-132.5 -23q-61 0 -94.5 14.5z" />
         <glyph glyph-name="jcircumflex" unicode="ĵ" d="M42.5 -181.5q-33.5 14.5 -59.5 51.5l56 40q19 -25 39 -34t60 -9q60 0 97.5 17.5t60.5 59t38 115.5l106 496h-126l14 63h195l-121 -565q-20 -97 -51 -150t-81.5 -76t-132.5 -23q-61 0 -94.5 14.5zM628 715l-60 -42l-73 83l-109 -81l-45 42l169 127z" />
         <glyph glyph-name="k" unicode="k" d="M120 0h-69l170 800h69l-93 -437h37l255 255h85l-284 -285l191 -333h-82l-173 299h-42z" />
         <glyph glyph-name="uni0137" unicode="ķ" d="M120 0h-69l170 800h69l-93 -437h37l255 255h85l-284 -285l191 -333h-82l-173 299h-42zM199 -122q-19 6 -19 30q0 5 2 17q4 23 15 31.5t36 8.5q24 0 35 -7.5t11 -24.5q0 -12 -2 -19q-6 -26 -37 -71.5t-70 -90.5l-49 2z" />
         <glyph glyph-name="l" unicode="l" d="M242 12.5q-31 26.5 -31 89.5q0 46 15 113l111 522h-126l13 63h195l-125 -591q-14 -64 -14 -95q0 -35 15.5 -50t49.5 -15q22 0 44 10t55 35l31 -63q-44 -26 -72.5 -35.5t-59.5 -9.5q-70 0 -101 26.5z" />
         <glyph glyph-name="lacute" unicode="ĺ" d="M242 12.5q-31 26.5 -31 89.5q0 46 15 113l111 522h-126l13 63h195l-125 -591q-14 -64 -14 -95q0 -35 15.5 -50t49.5 -15q22 0 44 10t55 35l31 -63q-44 -26 -72.5 -35.5t-59.5 -9.5q-70 0 -101 26.5zM582 993l-174 -130l-37 48l175 130z" />
         <glyph glyph-name="lcaron" unicode="ľ" d="M242 12.5q-31 26.5 -31 89.5q0 46 15 113l111 522h-126l13 63h195l-125 -591q-14 -64 -14 -95q0 -35 15.5 -50t49.5 -15q22 0 44 10t55 35l31 -63q-44 -26 -72.5 -35.5t-59.5 -9.5q-70 0 -101 26.5zM494 540h-55l47 260h72z" />
         <glyph glyph-name="uni013C" unicode="ļ" d="M242 12.5q-31 26.5 -31 89.5q0 46 15 113l111 522h-126l13 63h195l-125 -591q-14 -64 -14 -95q0 -35 15.5 -50t49.5 -15q22 0 44 10t55 35l31 -63q-44 -26 -72.5 -35.5t-59.5 -9.5q-70 0 -101 26.5zM263 -122q-19 6 -19 30q0 5 2 17q4 23 15 31.5t36 8.5q24 0 35 -7.5 t11 -24.5q0 -12 -2 -19q-6 -26 -37 -71.5t-70 -90.5l-49 2z" />
         <glyph glyph-name="lslash" unicode="ł" d="M389 59q22 10 55 35l31 -63q-44 -26 -72.5 -35.5t-59.5 -9.5q-70 0 -101 26.5t-31 89.5q0 46 15 113l47 222l-126 -47l14 66l126 47l50 234h-126l13 63h195l-57 -269l125 47l-13 -66l-126 -47l-54 -256q-14 -64 -14 -95q0 -35 15.5 -50t49.5 -15q22 0 44 10z" />
         <glyph glyph-name="m" unicode="m" d="M-18 0l132 618h70l-11 -38q26 30 47.5 40.5t53.5 10.5q40 0 58 -17.5t23 -62.5q36 47 65 63.5t71 16.5q51 0 74 -23.5t23 -79.5q0 -50 -18 -133l-84 -395h-69l85 400q16 74 16 111q0 26 -8.5 37t-27.5 11q-53 0 -81.5 -36t-47.5 -127l-84 -396h-69l84 394q17 82 17 116 q0 26 -9 37.5t-28 11.5q-52 0 -80.5 -36t-47.5 -127l-85 -396h-69z" />
         <glyph glyph-name="n" unicode="n" d="M23 0l132 618h69l-13 -48q35 33 75.5 47.5t103.5 14.5q87 0 125.5 -29.5t38.5 -100.5q0 -43 -14 -110l-83 -392h-69l84 397q12 56 12 91q0 45 -22 63t-73 18q-71 0 -111 -14t-63 -49.5t-37 -102.5l-86 -403h-69z" />
         <glyph glyph-name="nacute" unicode="ń" d="M23 0l132 618h69l-13 -48q35 33 75.5 47.5t103.5 14.5q87 0 125.5 -29.5t38.5 -100.5q0 -43 -14 -110l-83 -392h-69l84 397q12 56 12 91q0 45 -22 63t-73 18q-71 0 -111 -14t-63 -49.5t-37 -102.5l-86 -403h-69zM544 811l-174 -130l-37 48l175 130z" />
         <glyph glyph-name="ncaron" unicode="ň" d="M23 0l132 618h69l-13 -48q35 33 75.5 47.5t103.5 14.5q87 0 125.5 -29.5t38.5 -100.5q0 -43 -14 -110l-83 -392h-69l84 397q12 56 12 91q0 45 -22 63t-73 18q-71 0 -111 -14t-63 -49.5t-37 -102.5l-86 -403h-69zM551 806l-171 -129l-118 127l59 42l74 -81l109 83z" />
         <glyph glyph-name="uni0146" unicode="ņ" d="M23 0l132 618h69l-13 -48q35 33 75.5 47.5t103.5 14.5q87 0 125.5 -29.5t38.5 -100.5q0 -43 -14 -110l-83 -392h-69l84 397q12 56 12 91q0 45 -22 63t-73 18q-71 0 -111 -14t-63 -49.5t-37 -102.5l-86 -403h-69zM199 -122q-19 6 -19 30q0 5 2 17q4 23 15 31.5t36 8.5 q24 0 35 -7.5t11 -24.5q0 -12 -2 -19q-6 -26 -37 -71.5t-70 -90.5l-49 2z" />
         <glyph glyph-name="eng" unicode="ŋ" d="M515.5 602.5q38.5 -29.5 38.5 -100.5q0 -43 -14 -110l-83 -392q-13 -63 -34.5 -98t-59 -50t-99.5 -15l8 63q39 0 60.5 8t33.5 29t22 63l84 397q12 56 12 91q0 45 -22 63t-73 18q-71 0 -111 -14t-63 -49.5t-37 -102.5l-86 -403h-69l132 618h69l-13 -48q35 33 75.5 47.5 t103.5 14.5q87 0 125.5 -29.5z" />
         <glyph glyph-name="ntilde" unicode="ñ" d="M23 0l132 618h69l-13 -48q35 33 75.5 47.5t103.5 14.5q87 0 125.5 -29.5t38.5 -100.5q0 -43 -14 -110l-83 -392h-69l84 397q12 56 12 91q0 45 -22 63t-73 18q-71 0 -111 -14t-63 -49.5t-37 -102.5l-86 -403h-69zM414 709.5q-19 13.5 -40 36.5q-14 14 -22 20.5t-15 6.5 q-32 0 -37 -51h-69q8 52 37.5 83.5t70.5 31.5q22 0 40 -13t40 -36q16 -16 23.5 -22t14.5 -6q31 0 37 48h68q-7 -51 -36.5 -81.5t-70.5 -30.5q-22 0 -41 13.5z" />
         <glyph glyph-name="o" unicode="o" d="M99 24.5q-43 38.5 -43 127.5q0 65 21 163q26 121 60 189t87.5 98t137.5 30q96 0 139 -38.5t43 -127.5q0 -65 -21 -163q-26 -121 -60 -189t-87.5 -98t-137.5 -30q-96 0 -139 38.5zM340.5 74q39.5 25 67 82t49.5 159q19 93 19 142q0 61 -27 86.5t-88 25.5q-62 0 -101.5 -25 t-67 -82t-49.5 -159q-19 -93 -19 -142q0 -61 27 -86.5t88 -25.5q62 0 101.5 25z" />
         <glyph glyph-name="oacute" unicode="ó" d="M99 24.5q-43 38.5 -43 127.5q0 65 21 163q26 121 60 189t87.5 98t137.5 30q96 0 139 -38.5t43 -127.5q0 -65 -21 -163q-26 -121 -60 -189t-87.5 -98t-137.5 -30q-96 0 -139 38.5zM340.5 74q39.5 25 67 82t49.5 159q19 93 19 142q0 61 -27 86.5t-88 25.5q-62 0 -101.5 -25 t-67 -82t-49.5 -159q-19 -93 -19 -142q0 -61 27 -86.5t88 -25.5q62 0 101.5 25zM544 811l-174 -130l-37 48l175 130z" />
         <glyph glyph-name="uni01D2" unicode="ǒ" d="M99 24.5q-43 38.5 -43 127.5q0 65 21 163q26 121 60 189t87.5 98t137.5 30q96 0 139 -38.5t43 -127.5q0 -65 -21 -163q-26 -121 -60 -189t-87.5 -98t-137.5 -30q-96 0 -139 38.5zM340.5 74q39.5 25 67 82t49.5 159q19 93 19 142q0 61 -27 86.5t-88 25.5q-62 0 -101.5 -25 t-67 -82t-49.5 -159q-19 -93 -19 -142q0 -61 27 -86.5t88 -25.5q62 0 101.5 25zM551 806l-171 -129l-118 127l59 42l74 -81l109 83z" />
         <glyph glyph-name="ocircumflex" unicode="ô" d="M99 24.5q-43 38.5 -43 127.5q0 65 21 163q26 121 60 189t87.5 98t137.5 30q96 0 139 -38.5t43 -127.5q0 -65 -21 -163q-26 -121 -60 -189t-87.5 -98t-137.5 -30q-96 0 -139 38.5zM340.5 74q39.5 25 67 82t49.5 159q19 93 19 142q0 61 -27 86.5t-88 25.5q-62 0 -101.5 -25 t-67 -82t-49.5 -159q-19 -93 -19 -142q0 -61 27 -86.5t88 -25.5q62 0 101.5 25zM530 715l-60 -42l-73 83l-109 -81l-45 42l169 127z" />
         <glyph glyph-name="uni1ED1" unicode="ố" d="M99 24.5q-43 38.5 -43 127.5q0 65 21 163q26 121 60 189t87.5 98t137.5 30q96 0 139 -38.5t43 -127.5q0 -65 -21 -163q-26 -121 -60 -189t-87.5 -98t-137.5 -30q-96 0 -139 38.5zM340.5 74q39.5 25 67 82t49.5 159q19 93 19 142q0 61 -27 86.5t-88 25.5q-62 0 -101.5 -25 t-67 -82t-49.5 -159q-19 -93 -19 -142q0 -61 27 -86.5t88 -25.5q62 0 101.5 25zM530 715l-60 -42l-73 83l-109 -81l-45 42l169 127zM587 1016l-174 -130l-37 48l175 130z" />
         <glyph glyph-name="uni1ED9" unicode="ộ" d="M99 24.5q-43 38.5 -43 127.5q0 65 21 163q26 121 60 189t87.5 98t137.5 30q96 0 139 -38.5t43 -127.5q0 -65 -21 -163q-26 -121 -60 -189t-87.5 -98t-137.5 -30q-96 0 -139 38.5zM340.5 74q39.5 25 67 82t49.5 159q19 93 19 142q0 61 -27 86.5t-88 25.5q-62 0 -101.5 -25 t-67 -82t-49.5 -159q-19 -93 -19 -142q0 -61 27 -86.5t88 -25.5q62 0 101.5 25zM147.5 -216.5q-13.5 8.5 -13.5 29.5q0 11 3 26q7 31 22 43t48 12q31 0 44.5 -9t13.5 -30q0 -10 -3 -25q-7 -31 -22 -43t-48 -12q-31 0 -44.5 8.5zM530 715l-60 -42l-73 83l-109 -81l-45 42 l169 127z" />
         <glyph glyph-name="uni1ED3" unicode="ồ" d="M99 24.5q-43 38.5 -43 127.5q0 65 21 163q26 121 60 189t87.5 98t137.5 30q96 0 139 -38.5t43 -127.5q0 -65 -21 -163q-26 -121 -60 -189t-87.5 -98t-137.5 -30q-96 0 -139 38.5zM340.5 74q39.5 25 67 82t49.5 159q19 93 19 142q0 61 -27 86.5t-88 25.5q-62 0 -101.5 -25 t-67 -82t-49.5 -159q-19 -93 -19 -142q0 -61 27 -86.5t88 -25.5q62 0 101.5 25zM530 715l-60 -42l-73 83l-109 -81l-45 42l169 127zM489 934l-54 -48l-124 130l54 48z" />
         <glyph glyph-name="uni1ED5" unicode="ổ" d="M99 24.5q-43 38.5 -43 127.5q0 65 21 163q26 121 60 189t87.5 98t137.5 30q96 0 139 -38.5t43 -127.5q0 -65 -21 -163q-26 -121 -60 -189t-87.5 -98t-137.5 -30q-96 0 -139 38.5zM340.5 74q39.5 25 67 82t49.5 159q19 93 19 142q0 61 -27 86.5t-88 25.5q-62 0 -101.5 -25 t-67 -82t-49.5 -159q-19 -93 -19 -142q0 -61 27 -86.5t88 -25.5q62 0 101.5 25zM530 715l-60 -42l-73 83l-109 -81l-45 42l169 127zM387 923q34 7 55.5 20.5t24.5 30.5l1 5q0 9 -6.5 13.5t-15.5 4.5q-21 0 -49 -13t-54 -32l12 79q20 14 45.5 22t47.5 8q40 0 64.5 -20 t24.5 -54q0 -44 -37.5 -78.5t-102.5 -47.5z" />
         <glyph glyph-name="uni1ED7" unicode="ỗ" d="M99 24.5q-43 38.5 -43 127.5q0 65 21 163q26 121 60 189t87.5 98t137.5 30q96 0 139 -38.5t43 -127.5q0 -65 -21 -163q-26 -121 -60 -189t-87.5 -98t-137.5 -30q-96 0 -139 38.5zM340.5 74q39.5 25 67 82t49.5 159q19 93 19 142q0 61 -27 86.5t-88 25.5q-62 0 -101.5 -25 t-67 -82t-49.5 -159q-19 -93 -19 -142q0 -61 27 -86.5t88 -25.5q62 0 101.5 25zM530 715l-60 -42l-73 83l-109 -81l-45 42l169 127zM457 914.5q-19 13.5 -40 36.5q-14 14 -22 20.5t-15 6.5q-32 0 -37 -51h-69q8 52 37.5 83.5t70.5 31.5q22 0 40 -13t40 -36q16 -16 23.5 -22 t14.5 -6q31 0 37 48h68q-7 -51 -36.5 -81.5t-70.5 -30.5q-22 0 -41 13.5z" />
         <glyph glyph-name="odieresis" unicode="ö" d="M99 24.5q-43 38.5 -43 127.5q0 65 21 163q26 121 60 189t87.5 98t137.5 30q96 0 139 -38.5t43 -127.5q0 -65 -21 -163q-26 -121 -60 -189t-87.5 -98t-137.5 -30q-96 0 -139 38.5zM340.5 74q39.5 25 67 82t49.5 159q19 93 19 142q0 61 -27 86.5t-88 25.5q-62 0 -101.5 -25 t-67 -82t-49.5 -159q-19 -93 -19 -142q0 -61 27 -86.5t88 -25.5q62 0 101.5 25zM241.5 732q-14.5 10 -14.5 32q0 11 3 24q6 31 21 42.5t48 11.5q31 0 45.5 -10.5t14.5 -32.5q0 -10 -3 -22q-7 -31 -22 -43t-48 -12q-30 0 -44.5 10zM457.5 732q-14.5 10 -14.5 32q0 11 3 24 q6 31 21 42.5t48 11.5q31 0 45.5 -10.5t14.5 -32.5q0 -10 -3 -22q-7 -31 -22 -43t-48 -12q-30 0 -44.5 10z" />
         <glyph glyph-name="uni1ECD" unicode="ọ" d="M99 24.5q-43 38.5 -43 127.5q0 65 21 163q26 121 60 189t87.5 98t137.5 30q96 0 139 -38.5t43 -127.5q0 -65 -21 -163q-26 -121 -60 -189t-87.5 -98t-137.5 -30q-96 0 -139 38.5zM340.5 74q39.5 25 67 82t49.5 159q19 93 19 142q0 61 -27 86.5t-88 25.5q-62 0 -101.5 -25 t-67 -82t-49.5 -159q-19 -93 -19 -142q0 -61 27 -86.5t88 -25.5q62 0 101.5 25zM147.5 -216.5q-13.5 8.5 -13.5 29.5q0 11 3 26q7 31 22 43t48 12q31 0 44.5 -9t13.5 -30q0 -10 -3 -25q-7 -31 -22 -43t-48 -12q-31 0 -44.5 8.5z" />
         <glyph glyph-name="ograve" unicode="ò" d="M99 24.5q-43 38.5 -43 127.5q0 65 21 163q26 121 60 189t87.5 98t137.5 30q96 0 139 -38.5t43 -127.5q0 -65 -21 -163q-26 -121 -60 -189t-87.5 -98t-137.5 -30q-96 0 -139 38.5zM340.5 74q39.5 25 67 82t49.5 159q19 93 19 142q0 61 -27 86.5t-88 25.5q-62 0 -101.5 -25 t-67 -82t-49.5 -159q-19 -93 -19 -142q0 -61 27 -86.5t88 -25.5q62 0 101.5 25zM446 729l-54 -48l-124 130l54 48z" />
         <glyph glyph-name="uni1ECF" unicode="ỏ" d="M99 24.5q-43 38.5 -43 127.5q0 65 21 163q26 121 60 189t87.5 98t137.5 30q96 0 139 -38.5t43 -127.5q0 -65 -21 -163q-26 -121 -60 -189t-87.5 -98t-137.5 -30q-96 0 -139 38.5zM340.5 74q39.5 25 67 82t49.5 159q19 93 19 142q0 61 -27 86.5t-88 25.5q-62 0 -101.5 -25 t-67 -82t-49.5 -159q-19 -93 -19 -142q0 -61 27 -86.5t88 -25.5q62 0 101.5 25zM344 718q34 7 55.5 20.5t24.5 30.5l1 5q0 9 -6.5 13.5t-15.5 4.5q-21 0 -49 -13t-54 -32l12 79q20 14 45.5 22t47.5 8q40 0 64.5 -20t24.5 -54q0 -44 -37.5 -78.5t-102.5 -47.5z" />
         <glyph glyph-name="ohorn" unicode="ơ" d="M670 726h69l-31 -142q-12 -58 -49.5 -93t-87.5 -35q-12 0 -27 5q0 -56 -21 -158q-26 -121 -60 -189t-87.5 -98t-137.5 -30q-96 0 -139 38.5t-43 127.5q0 65 21 163q26 121 60 189t87.5 98t137.5 30q79 0 121.5 -25t55.5 -82q13 -5 30 -5q26 0 45.5 19.5t26.5 50.5z M476 457q0 61 -27 86.5t-88 25.5q-62 0 -101.5 -25t-67 -82t-49.5 -159q-19 -93 -19 -142q0 -61 27 -86.5t88 -25.5q62 0 101.5 25t67 82t49.5 159q19 93 19 142z" />
         <glyph glyph-name="uni1EDB" unicode="ớ" d="M670 726h69l-31 -142q-12 -58 -49.5 -93t-87.5 -35q-12 0 -27 5q0 -56 -21 -158q-26 -121 -60 -189t-87.5 -98t-137.5 -30q-96 0 -139 38.5t-43 127.5q0 65 21 163q26 121 60 189t87.5 98t137.5 30q79 0 121.5 -25t55.5 -82q13 -5 30 -5q26 0 45.5 19.5t26.5 50.5z M476 457q0 61 -27 86.5t-88 25.5q-62 0 -101.5 -25t-67 -82t-49.5 -159q-19 -93 -19 -142q0 -61 27 -86.5t88 -25.5q62 0 101.5 25t67 82t49.5 159q19 93 19 142zM544 811l-174 -130l-37 48l175 130z" />
         <glyph glyph-name="uni1EE3" unicode="ợ" d="M670 726h69l-31 -142q-12 -58 -49.5 -93t-87.5 -35q-12 0 -27 5q0 -56 -21 -158q-26 -121 -60 -189t-87.5 -98t-137.5 -30q-96 0 -139 38.5t-43 127.5q0 65 21 163q26 121 60 189t87.5 98t137.5 30q79 0 121.5 -25t55.5 -82q13 -5 30 -5q26 0 45.5 19.5t26.5 50.5z M476 457q0 61 -27 86.5t-88 25.5q-62 0 -101.5 -25t-67 -82t-49.5 -159q-19 -93 -19 -142q0 -61 27 -86.5t88 -25.5q62 0 101.5 25t67 82t49.5 159q19 93 19 142zM147.5 -216.5q-13.5 8.5 -13.5 29.5q0 11 3 26q7 31 22 43t48 12q31 0 44.5 -9t13.5 -30q0 -10 -3 -25 q-7 -31 -22 -43t-48 -12q-31 0 -44.5 8.5z" />
         <glyph glyph-name="uni1EDD" unicode="ờ" d="M670 726h69l-31 -142q-12 -58 -49.5 -93t-87.5 -35q-12 0 -27 5q0 -56 -21 -158q-26 -121 -60 -189t-87.5 -98t-137.5 -30q-96 0 -139 38.5t-43 127.5q0 65 21 163q26 121 60 189t87.5 98t137.5 30q79 0 121.5 -25t55.5 -82q13 -5 30 -5q26 0 45.5 19.5t26.5 50.5z M476 457q0 61 -27 86.5t-88 25.5q-62 0 -101.5 -25t-67 -82t-49.5 -159q-19 -93 -19 -142q0 -61 27 -86.5t88 -25.5q62 0 101.5 25t67 82t49.5 159q19 93 19 142zM446 729l-54 -48l-124 130l54 48z" />
         <glyph glyph-name="uni1EDF" unicode="ở" d="M670 726h69l-31 -142q-12 -58 -49.5 -93t-87.5 -35q-12 0 -27 5q0 -56 -21 -158q-26 -121 -60 -189t-87.5 -98t-137.5 -30q-96 0 -139 38.5t-43 127.5q0 65 21 163q26 121 60 189t87.5 98t137.5 30q79 0 121.5 -25t55.5 -82q13 -5 30 -5q26 0 45.5 19.5t26.5 50.5z M476 457q0 61 -27 86.5t-88 25.5q-62 0 -101.5 -25t-67 -82t-49.5 -159q-19 -93 -19 -142q0 -61 27 -86.5t88 -25.5q62 0 101.5 25t67 82t49.5 159q19 93 19 142zM344 718q34 7 55.5 20.5t24.5 30.5l1 5q0 9 -6.5 13.5t-15.5 4.5q-21 0 -49 -13t-54 -32l12 79q20 14 45.5 22 t47.5 8q40 0 64.5 -20t24.5 -54q0 -44 -37.5 -78.5t-102.5 -47.5z" />
         <glyph glyph-name="uni1EE1" unicode="ỡ" d="M670 726h69l-31 -142q-12 -58 -49.5 -93t-87.5 -35q-12 0 -27 5q0 -56 -21 -158q-26 -121 -60 -189t-87.5 -98t-137.5 -30q-96 0 -139 38.5t-43 127.5q0 65 21 163q26 121 60 189t87.5 98t137.5 30q79 0 121.5 -25t55.5 -82q13 -5 30 -5q26 0 45.5 19.5t26.5 50.5z M476 457q0 61 -27 86.5t-88 25.5q-62 0 -101.5 -25t-67 -82t-49.5 -159q-19 -93 -19 -142q0 -61 27 -86.5t88 -25.5q62 0 101.5 25t67 82t49.5 159q19 93 19 142zM414 709.5q-19 13.5 -40 36.5q-14 14 -22 20.5t-15 6.5q-32 0 -37 -51h-69q8 52 37.5 83.5t70.5 31.5 q22 0 40 -13t40 -36q16 -16 23.5 -22t14.5 -6q31 0 37 48h68q-7 -51 -36.5 -81.5t-70.5 -30.5q-22 0 -41 13.5z" />
         <glyph glyph-name="ohungarumlaut" unicode="ő" d="M99 24.5q-43 38.5 -43 127.5q0 65 21 163q26 121 60 189t87.5 98t137.5 30q96 0 139 -38.5t43 -127.5q0 -65 -21 -163q-26 -121 -60 -189t-87.5 -98t-137.5 -30q-96 0 -139 38.5zM340.5 74q39.5 25 67 82t49.5 159q19 93 19 142q0 61 -27 86.5t-88 25.5q-62 0 -101.5 -25 t-67 -82t-49.5 -159q-19 -93 -19 -142q0 -61 27 -86.5t88 -25.5q62 0 101.5 25zM404 811l-174 -130l-37 48l174 130zM603 811l-174 -130l-37 48l174 130z" />
         <glyph glyph-name="omacron" unicode="ō" d="M99 24.5q-43 38.5 -43 127.5q0 65 21 163q26 121 60 189t87.5 98t137.5 30q96 0 139 -38.5t43 -127.5q0 -65 -21 -163q-26 -121 -60 -189t-87.5 -98t-137.5 -30q-96 0 -139 38.5zM340.5 74q39.5 25 67 82t49.5 159q19 93 19 142q0 61 -27 86.5t-88 25.5q-62 0 -101.5 -25 t-67 -82t-49.5 -159q-19 -93 -19 -142q0 -61 27 -86.5t88 -25.5q62 0 101.5 25zM533 715h-293l13 64h293z" />
         <glyph glyph-name="oslash" unicode="ø" d="M611 650l-80 -100q13 -32 13 -83q0 -65 -21 -164q-26 -121 -60 -189t-87.5 -98t-137.5 -30q-87 0 -131 32l-39 -49h-81l81 102q-12 33 -12 81q0 65 21 163q26 121 60 189t87.5 98t137.5 30q88 0 130 -31l39 49h80zM125 141l322 404q-25 24 -86 24q-62 0 -101.5 -25 t-67 -82t-49.5 -159q-22 -105 -18 -162zM476 457q0 16 -1 23l-324 -406q26 -25 88 -25t101.5 25t67 82t49.5 159q19 93 19 142z" />
         <glyph glyph-name="otilde" unicode="õ" d="M99 24.5q-43 38.5 -43 127.5q0 65 21 163q26 121 60 189t87.5 98t137.5 30q96 0 139 -38.5t43 -127.5q0 -65 -21 -163q-26 -121 -60 -189t-87.5 -98t-137.5 -30q-96 0 -139 38.5zM340.5 74q39.5 25 67 82t49.5 159q19 93 19 142q0 61 -27 86.5t-88 25.5q-62 0 -101.5 -25 t-67 -82t-49.5 -159q-19 -93 -19 -142q0 -61 27 -86.5t88 -25.5q62 0 101.5 25zM414 709.5q-19 13.5 -40 36.5q-14 14 -22 20.5t-15 6.5q-32 0 -37 -51h-69q8 52 37.5 83.5t70.5 31.5q22 0 40 -13t40 -36q16 -16 23.5 -22t14.5 -6q31 0 37 48h68q-7 -51 -36.5 -81.5 t-70.5 -30.5q-22 0 -41 13.5z" />
         <glyph glyph-name="oe" unicode="œ" d="M14 9.5q-30 32.5 -30 108.5q0 73 27 197q27 126 56 195.5t69.5 100t101.5 30.5q52 0 77 -22t34 -74q34 55 66 75.5t85 20.5q61 0 89 -31t28 -103q0 -69 -30 -210h-255q-24 -114 -24 -171q0 -46 15.5 -65.5t49.5 -19.5q26 0 48.5 18.5t59.5 69.5l51 -44 q-45 -61 -79.5 -84.5t-80.5 -23.5q-57 0 -83.5 22t-35.5 74q-33 -55 -64.5 -75.5t-79.5 -20.5q-65 0 -95 32.5zM174.5 66q26.5 25 48.5 84t44 165q27 126 27 185q0 42 -13.5 59.5t-44.5 17.5q-38 0 -65 -25t-49 -84t-44 -165q-27 -132 -27 -182q0 -43 14.5 -61.5t45.5 -18.5 q37 0 63.5 25zM532 366q20 98 20 142q0 37 -12.5 53t-40.5 16q-41 0 -67.5 -20t-46.5 -66.5t-39 -130.5z" />
         <glyph glyph-name="p" unicode="p" d="M-23 -182l171 800h69l-11 -37q29 28 69 39.5t94 11.5q97 0 140 -38.5t43 -128.5q0 -58 -21 -161q-26 -121 -60.5 -189.5t-88 -98.5t-137.5 -30q-119 0 -146 73l-52 -241h-70zM347.5 74q39.5 25 67 82.5t49.5 159.5q19 93 19 141q0 61 -27 86.5t-88 25.5q-74 0 -122.5 -20 t-57.5 -62l-59 -279q-7 -37 -7 -56q0 -54 31.5 -78.5t92.5 -24.5q62 0 101.5 25z" />
         <glyph glyph-name="thorn" unicode="þ" d="M-23 -182l209 982h69l-49 -219q29 28 69 39.5t94 11.5q97 0 140 -38.5t43 -128.5q0 -58 -21 -161q-26 -121 -60.5 -189.5t-88 -98.5t-137.5 -30q-119 0 -146 73l-52 -241h-70zM347.5 74q39.5 25 67 82.5t49.5 159.5q19 93 19 141q0 61 -27 86.5t-88 25.5 q-74 0 -122.5 -20t-57.5 -62l-59 -279q-7 -37 -7 -56q0 -54 31.5 -78.5t92.5 -24.5q62 0 101.5 25z" />
         <glyph glyph-name="q" unicode="q" d="M397 55q-29 -37 -70.5 -53t-95.5 -16q-96 0 -139 38.5t-43 128.5q0 66 21 163q26 121 60.5 189t87.5 97.5t137 29.5q118 0 149 -55l12 41h69l-170 -800h-69zM429 214l60 278q2 10 2 14q0 63 -137 63q-62 0 -101.5 -24.5t-67 -81.5t-48.5 -159q-20 -92 -20 -144 q0 -61 27 -86t88 -25q162 0 197 165z" />
         <glyph glyph-name="r" unicode="r" d="M50 0l132 618h69l-23 -98q28 45 79.5 78.5t106.5 33.5q76 0 111 -29.5t50 -103.5l-65 -22q-6 37 -16.5 56.5t-29 27.5t-51.5 8q-61 0 -107.5 -35.5t-74.5 -87t-39 -101.5l-73 -345h-69z" />
         <glyph glyph-name="racute" unicode="ŕ" d="M50 0l132 618h69l-23 -98q28 45 79.5 78.5t106.5 33.5q76 0 111 -29.5t50 -103.5l-65 -22q-6 37 -16.5 56.5t-29 27.5t-51.5 8q-61 0 -107.5 -35.5t-74.5 -87t-39 -101.5l-73 -345h-69zM544 811l-174 -130l-37 48l175 130z" />
         <glyph glyph-name="rcaron" unicode="ř" d="M50 0l132 618h69l-23 -98q28 45 79.5 78.5t106.5 33.5q76 0 111 -29.5t50 -103.5l-65 -22q-6 37 -16.5 56.5t-29 27.5t-51.5 8q-61 0 -107.5 -35.5t-74.5 -87t-39 -101.5l-73 -345h-69zM551 806l-171 -129l-118 127l59 42l74 -81l109 83z" />
         <glyph glyph-name="uni0157" unicode="ŗ" d="M50 0l132 618h69l-23 -98q28 45 79.5 78.5t106.5 33.5q76 0 111 -29.5t50 -103.5l-65 -22q-6 37 -16.5 56.5t-29 27.5t-51.5 8q-61 0 -107.5 -35.5t-74.5 -87t-39 -101.5l-73 -345h-69zM199 -122q-19 6 -19 30q0 5 2 17q4 23 15 31.5t36 8.5q24 0 35 -7.5t11 -24.5 q0 -12 -2 -19q-6 -26 -37 -71.5t-70 -90.5l-49 2z" />
         <glyph glyph-name="s" unicode="s" d="M99.5 11q-37.5 25 -59.5 88l61 39q14 -53 37 -71t76 -18q75 0 119.5 12t68 39t34.5 76q4 17 4 35q0 37 -29.5 54.5t-104.5 27.5q-96 11 -140 42t-44 86q0 17 5 40q14 66 42.5 102.5t80 52.5t137.5 16q79 0 119 -21t65 -75l-58 -44q-17 46 -43 61.5t-84 15.5 q-65 0 -103.5 -11t-59 -37t-30.5 -71q-2 -14 -2 -19q0 -30 27.5 -47t92.5 -27q107 -15 152.5 -45t45.5 -91q0 -19 -7 -56q-15 -69 -46.5 -107.5t-89 -55t-153.5 -16.5q-76 0 -113.5 25z" />
         <glyph glyph-name="sacute" unicode="ś" d="M99.5 11q-37.5 25 -59.5 88l61 39q14 -53 37 -71t76 -18q75 0 119.5 12t68 39t34.5 76q4 17 4 35q0 37 -29.5 54.5t-104.5 27.5q-96 11 -140 42t-44 86q0 17 5 40q14 66 42.5 102.5t80 52.5t137.5 16q79 0 119 -21t65 -75l-58 -44q-17 46 -43 61.5t-84 15.5 q-65 0 -103.5 -11t-59 -37t-30.5 -71q-2 -14 -2 -19q0 -30 27.5 -47t92.5 -27q107 -15 152.5 -45t45.5 -91q0 -19 -7 -56q-15 -69 -46.5 -107.5t-89 -55t-153.5 -16.5q-76 0 -113.5 25zM544 811l-174 -130l-37 48l175 130z" />
         <glyph glyph-name="scaron" unicode="š" d="M99.5 11q-37.5 25 -59.5 88l61 39q14 -53 37 -71t76 -18q75 0 119.5 12t68 39t34.5 76q4 17 4 35q0 37 -29.5 54.5t-104.5 27.5q-96 11 -140 42t-44 86q0 17 5 40q14 66 42.5 102.5t80 52.5t137.5 16q79 0 119 -21t65 -75l-58 -44q-17 46 -43 61.5t-84 15.5 q-65 0 -103.5 -11t-59 -37t-30.5 -71q-2 -14 -2 -19q0 -30 27.5 -47t92.5 -27q107 -15 152.5 -45t45.5 -91q0 -19 -7 -56q-15 -69 -46.5 -107.5t-89 -55t-153.5 -16.5q-76 0 -113.5 25zM551 806l-171 -129l-118 127l59 42l74 -81l109 83z" />
         <glyph glyph-name="scedilla" unicode="ş" d="M282.5 558q-38.5 -11 -59 -37t-30.5 -71q-2 -14 -2 -19q0 -30 27.5 -47t92.5 -27q107 -15 152.5 -45t45.5 -91q0 -19 -7 -56q-13 -63 -40 -100t-75 -55.5t-125 -22.5l-8 -30q28 -7 44 -25t16 -43q0 -10 -1 -15q-8 -40 -43 -63.5t-85 -23.5q-30 0 -55 10.5t-37 26.5l35 49 q9 -10 25.5 -16.5t33.5 -6.5q22 0 39 10t20 25q2 12 -15.5 18.5t-50.5 6.5l14 76q-66 3 -99.5 28.5t-54.5 84.5l61 39q14 -53 37 -71t76 -18q75 0 119.5 12t68 39t34.5 76q4 17 4 35q0 37 -29.5 54.5t-104.5 27.5q-96 11 -140 42t-44 86q0 17 5 40q14 66 42.5 102.5t80 52.5 t137.5 16q79 0 119 -21t65 -75l-58 -44q-17 46 -43 61.5t-84 15.5q-65 0 -103.5 -11z" />
         <glyph glyph-name="scircumflex" unicode="ŝ" d="M99.5 11q-37.5 25 -59.5 88l61 39q14 -53 37 -71t76 -18q75 0 119.5 12t68 39t34.5 76q4 17 4 35q0 37 -29.5 54.5t-104.5 27.5q-96 11 -140 42t-44 86q0 17 5 40q14 66 42.5 102.5t80 52.5t137.5 16q79 0 119 -21t65 -75l-58 -44q-17 46 -43 61.5t-84 15.5 q-65 0 -103.5 -11t-59 -37t-30.5 -71q-2 -14 -2 -19q0 -30 27.5 -47t92.5 -27q107 -15 152.5 -45t45.5 -91q0 -19 -7 -56q-15 -69 -46.5 -107.5t-89 -55t-153.5 -16.5q-76 0 -113.5 25zM530 715l-60 -42l-73 83l-109 -81l-45 42l169 127z" />
         <glyph glyph-name="uni0219" unicode="ș" d="M99.5 11q-37.5 25 -59.5 88l61 39q14 -53 37 -71t76 -18q75 0 119.5 12t68 39t34.5 76q4 17 4 35q0 37 -29.5 54.5t-104.5 27.5q-96 11 -140 42t-44 86q0 17 5 40q14 66 42.5 102.5t80 52.5t137.5 16q79 0 119 -21t65 -75l-58 -44q-17 46 -43 61.5t-84 15.5 q-65 0 -103.5 -11t-59 -37t-30.5 -71q-2 -14 -2 -19q0 -30 27.5 -47t92.5 -27q107 -15 152.5 -45t45.5 -91q0 -19 -7 -56q-15 -69 -46.5 -107.5t-89 -55t-153.5 -16.5q-76 0 -113.5 25zM199 -122q-19 6 -19 30q0 5 2 17q4 23 15 31.5t36 8.5q24 0 35 -7.5t11 -24.5 q0 -12 -2 -19q-6 -26 -37 -71.5t-70 -90.5l-49 2z" />
         <glyph glyph-name="germandbls" unicode="ß" d="M142 601q17 82 44.5 127.5t73.5 65.5t120 20q103 0 148.5 -31t45.5 -103q0 -35 -11 -88q-14 -67 -36.5 -102t-71.5 -62q35 -18 51 -44t16 -69q0 -36 -12 -92q-18 -86 -48.5 -133.5t-82.5 -68.5t-138 -21h-60l14 63h54q61 0 98 16t60 52.5t37 102.5q10 48 10 74 q0 48 -29.5 66.5t-99.5 18.5h-47l13 64h16q62 0 98.5 13t58 44t33.5 89q8 40 8 65q0 46 -28.5 64.5t-97.5 18.5q-52 0 -84.5 -14.5t-52.5 -48t-33 -93.5l-126 -595h-69z" />
         <glyph glyph-name="t" unicode="t" d="M188.5 17.5q-35.5 31.5 -35.5 100.5q0 41 12 98l73 342h-124l14 63h124l38 179h69l-38 -179h208l-14 -63h-208l-74 -348q-10 -47 -10 -82q0 -42 19 -60.5t62 -18.5q55 0 81 14t47 51l62 -28q-33 -58 -73.5 -79t-117.5 -21q-79 0 -114.5 31.5z" />
         <glyph glyph-name="tbar" unicode="ŧ" d="M515 558h-208l-34 -158h209l-13 -63h-209l-27 -127q-10 -47 -10 -82q0 -42 19 -60.5t62 -18.5q55 0 81 14t47 51l62 -28q-33 -58 -73.5 -79t-117.5 -21q-79 0 -114.5 31.5t-35.5 100.5q0 41 12 98l26 121h-123l13 63h123l34 158h-124l14 63h124l38 179h69l-38 -179h208z " />
         <glyph glyph-name="tcaron" unicode="ť" d="M462 673h-54l46 260h72zM188.5 17.5q-35.5 31.5 -35.5 100.5q0 41 12 98l73 342h-124l14 63h124l38 179h69l-38 -179h208l-14 -63h-208l-74 -348q-10 -47 -10 -82q0 -42 19 -60.5t62 -18.5q55 0 81 14t47 51l62 -28q-33 -58 -73.5 -79t-117.5 -21q-79 0 -114.5 31.5z" />
         <glyph glyph-name="uni0163" unicode="ţ" d="M307 558l-74 -348q-10 -47 -10 -82q0 -42 19 -60.5t62 -18.5q55 0 81 14t47 51l62 -28q-31 -55 -68 -76.5t-104 -23.5l-8 -29q28 -7 44 -25t16 -43q0 -10 -1 -15q-8 -40 -43 -63.5t-85 -23.5q-30 0 -55 10.5t-37 26.5l35 49q9 -10 25.5 -16.5t33.5 -6.5q22 0 39 10t20 25 q2 12 -15.5 18.5t-50.5 6.5l14 80q-52 8 -76.5 39t-24.5 88q0 42 12 99l73 342h-124l14 63h124l38 179h69l-38 -179h208l-14 -63h-208z" />
         <glyph glyph-name="uni021B" unicode="ț" d="M188.5 17.5q-35.5 31.5 -35.5 100.5q0 41 12 98l73 342h-124l14 63h124l38 179h69l-38 -179h208l-14 -63h-208l-74 -348q-10 -47 -10 -82q0 -42 19 -60.5t62 -18.5q55 0 81 14t47 51l62 -28q-33 -58 -73.5 -79t-117.5 -21q-79 0 -114.5 31.5zM259 -122q-19 6 -19 30 q0 5 2 17q4 23 15 31.5t36 8.5q24 0 35 -7.5t11 -24.5q0 -12 -2 -19q-6 -26 -37 -71.5t-70 -90.5l-49 2z" />
         <glyph glyph-name="u" unicode="u" d="M95 16q-38 30 -38 101q0 46 13 105l85 396h69l-86 -402q-12 -54 -12 -88q0 -44 22.5 -61.5t73.5 -17.5q68 0 109 13.5t63.5 45t34.5 87.5l91 423h69l-132 -618h-69l11 43q-34 -32 -73 -44.5t-105 -12.5q-88 0 -126 30z" />
         <glyph glyph-name="uacute" unicode="ú" d="M95 16q-38 30 -38 101q0 46 13 105l85 396h69l-86 -402q-12 -54 -12 -88q0 -44 22.5 -61.5t73.5 -17.5q68 0 109 13.5t63.5 45t34.5 87.5l91 423h69l-132 -618h-69l11 43q-34 -32 -73 -44.5t-105 -12.5q-88 0 -126 30zM544 811l-174 -130l-37 48l175 130z" />
         <glyph glyph-name="ubreve" unicode="ŭ" d="M95 16q-38 30 -38 101q0 46 13 105l85 396h69l-86 -402q-12 -54 -12 -88q0 -44 22.5 -61.5t73.5 -17.5q68 0 109 13.5t63.5 45t34.5 87.5l91 423h69l-132 -618h-69l11 43q-34 -32 -73 -44.5t-105 -12.5q-88 0 -126 30zM297 714.5q-28 18.5 -28 60.5q0 20 8 54h68 q-6 -24 -6 -38q0 -18 11 -24.5t39 -6.5q44 0 62 14.5t26 54.5h67q-9 -52 -26.5 -80.5t-48 -40.5t-82.5 -12q-62 0 -90 18.5z" />
         <glyph glyph-name="uni01D4" unicode="ǔ" d="M95 16q-38 30 -38 101q0 46 13 105l85 396h69l-86 -402q-12 -54 -12 -88q0 -44 22.5 -61.5t73.5 -17.5q68 0 109 13.5t63.5 45t34.5 87.5l91 423h69l-132 -618h-69l11 43q-34 -32 -73 -44.5t-105 -12.5q-88 0 -126 30zM551 806l-171 -129l-118 127l59 42l74 -81l109 83z " />
         <glyph glyph-name="ucircumflex" unicode="û" d="M95 16q-38 30 -38 101q0 46 13 105l85 396h69l-86 -402q-12 -54 -12 -88q0 -44 22.5 -61.5t73.5 -17.5q68 0 109 13.5t63.5 45t34.5 87.5l91 423h69l-132 -618h-69l11 43q-34 -32 -73 -44.5t-105 -12.5q-88 0 -126 30zM530 715l-60 -42l-73 83l-109 -81l-45 42l169 127z " />
         <glyph glyph-name="udieresis" unicode="ü" d="M95 16q-38 30 -38 101q0 46 13 105l85 396h69l-86 -402q-12 -54 -12 -88q0 -44 22.5 -61.5t73.5 -17.5q68 0 109 13.5t63.5 45t34.5 87.5l91 423h69l-132 -618h-69l11 43q-34 -32 -73 -44.5t-105 -12.5q-88 0 -126 30zM241.5 732q-14.5 10 -14.5 32q0 11 3 24 q6 31 21 42.5t48 11.5q31 0 45.5 -10.5t14.5 -32.5q0 -10 -3 -22q-7 -31 -22 -43t-48 -12q-30 0 -44.5 10zM457.5 732q-14.5 10 -14.5 32q0 11 3 24q6 31 21 42.5t48 11.5q31 0 45.5 -10.5t14.5 -32.5q0 -10 -3 -22q-7 -31 -22 -43t-48 -12q-30 0 -44.5 10z" />
         <glyph glyph-name="uni01D8" unicode="ǘ" d="M95 16q-38 30 -38 101q0 46 13 105l85 396h69l-86 -402q-12 -54 -12 -88q0 -44 22.5 -61.5t73.5 -17.5q68 0 109 13.5t63.5 45t34.5 87.5l91 423h69l-132 -618h-69l11 43q-34 -32 -73 -44.5t-105 -12.5q-88 0 -126 30zM241.5 732q-14.5 10 -14.5 32q0 11 3 24 q6 31 21 42.5t48 11.5q31 0 45.5 -10.5t14.5 -32.5q0 -10 -3 -22q-7 -31 -22 -43t-48 -12q-30 0 -44.5 10zM457.5 732q-14.5 10 -14.5 32q0 11 3 24q6 31 21 42.5t48 11.5q31 0 45.5 -10.5t14.5 -32.5q0 -10 -3 -22q-7 -31 -22 -43t-48 -12q-30 0 -44.5 10zM589 1026 l-174 -130l-37 48l175 130z" />
         <glyph glyph-name="uni01DA" unicode="ǚ" d="M95 16q-38 30 -38 101q0 46 13 105l85 396h69l-86 -402q-12 -54 -12 -88q0 -44 22.5 -61.5t73.5 -17.5q68 0 109 13.5t63.5 45t34.5 87.5l91 423h69l-132 -618h-69l11 43q-34 -32 -73 -44.5t-105 -12.5q-88 0 -126 30zM241.5 732q-14.5 10 -14.5 32q0 11 3 24 q6 31 21 42.5t48 11.5q31 0 45.5 -10.5t14.5 -32.5q0 -10 -3 -22q-7 -31 -22 -43t-48 -12q-30 0 -44.5 10zM457.5 732q-14.5 10 -14.5 32q0 11 3 24q6 31 21 42.5t48 11.5q31 0 45.5 -10.5t14.5 -32.5q0 -10 -3 -22q-7 -31 -22 -43t-48 -12q-30 0 -44.5 10zM596 1021 l-171 -129l-118 127l59 42l74 -81l109 83z" />
         <glyph glyph-name="uni01DC" unicode="ǜ" d="M95 16q-38 30 -38 101q0 46 13 105l85 396h69l-86 -402q-12 -54 -12 -88q0 -44 22.5 -61.5t73.5 -17.5q68 0 109 13.5t63.5 45t34.5 87.5l91 423h69l-132 -618h-69l11 43q-34 -32 -73 -44.5t-105 -12.5q-88 0 -126 30zM241.5 732q-14.5 10 -14.5 32q0 11 3 24 q6 31 21 42.5t48 11.5q31 0 45.5 -10.5t14.5 -32.5q0 -10 -3 -22q-7 -31 -22 -43t-48 -12q-30 0 -44.5 10zM457.5 732q-14.5 10 -14.5 32q0 11 3 24q6 31 21 42.5t48 11.5q31 0 45.5 -10.5t14.5 -32.5q0 -10 -3 -22q-7 -31 -22 -43t-48 -12q-30 0 -44.5 10zM491 944l-54 -48 l-124 130l54 48z" />
         <glyph glyph-name="uni01D6" unicode="ǖ" d="M95 16q-38 30 -38 101q0 46 13 105l85 396h69l-86 -402q-12 -54 -12 -88q0 -44 22.5 -61.5t73.5 -17.5q68 0 109 13.5t63.5 45t34.5 87.5l91 423h69l-132 -618h-69l11 43q-34 -32 -73 -44.5t-105 -12.5q-88 0 -126 30zM241.5 732q-14.5 10 -14.5 32q0 11 3 24 q6 31 21 42.5t48 11.5q31 0 45.5 -10.5t14.5 -32.5q0 -10 -3 -22q-7 -31 -22 -43t-48 -12q-30 0 -44.5 10zM457.5 732q-14.5 10 -14.5 32q0 11 3 24q6 31 21 42.5t48 11.5q31 0 45.5 -10.5t14.5 -32.5q0 -10 -3 -22q-7 -31 -22 -43t-48 -12q-30 0 -44.5 10zM578 930h-293 l13 64h293z" />
         <glyph glyph-name="uni1EE5" unicode="ụ" d="M95 16q-38 30 -38 101q0 46 13 105l85 396h69l-86 -402q-12 -54 -12 -88q0 -44 22.5 -61.5t73.5 -17.5q68 0 109 13.5t63.5 45t34.5 87.5l91 423h69l-132 -618h-69l11 43q-34 -32 -73 -44.5t-105 -12.5q-88 0 -126 30zM147.5 -216.5q-13.5 8.5 -13.5 29.5q0 11 3 26 q7 31 22 43t48 12q31 0 44.5 -9t13.5 -30q0 -10 -3 -25q-7 -31 -22 -43t-48 -12q-31 0 -44.5 8.5z" />
         <glyph glyph-name="ugrave" unicode="ù" d="M95 16q-38 30 -38 101q0 46 13 105l85 396h69l-86 -402q-12 -54 -12 -88q0 -44 22.5 -61.5t73.5 -17.5q68 0 109 13.5t63.5 45t34.5 87.5l91 423h69l-132 -618h-69l11 43q-34 -32 -73 -44.5t-105 -12.5q-88 0 -126 30zM446 729l-54 -48l-124 130l54 48z" />
         <glyph glyph-name="uni1EE7" unicode="ủ" d="M95 16q-38 30 -38 101q0 46 13 105l85 396h69l-86 -402q-12 -54 -12 -88q0 -44 22.5 -61.5t73.5 -17.5q68 0 109 13.5t63.5 45t34.5 87.5l91 423h69l-132 -618h-69l11 43q-34 -32 -73 -44.5t-105 -12.5q-88 0 -126 30zM344 718q34 7 55.5 20.5t24.5 30.5l1 5 q0 9 -6.5 13.5t-15.5 4.5q-21 0 -49 -13t-54 -32l12 79q20 14 45.5 22t47.5 8q40 0 64.5 -20t24.5 -54q0 -44 -37.5 -78.5t-102.5 -47.5z" />
         <glyph glyph-name="uhorn" unicode="ư" d="M708 790h69l-31 -141q-12 -58 -49.5 -93t-87.5 -35q-21 0 -39 9l-113 -530h-69l11 43q-34 -32 -73 -44.5t-105 -12.5q-88 0 -126 30t-38 101q0 46 13 105l85 396h69l-86 -402q-12 -54 -12 -88q0 -44 22.5 -61.5t73.5 -17.5q68 0 109 13.5t63.5 45t34.5 87.5l91 423h69 l-7 -31q13 -3 25 -3q26 0 45.5 19.5t26.5 50.5z" />
         <glyph glyph-name="uni1EE9" unicode="ứ" d="M708 790h69l-31 -141q-12 -58 -49.5 -93t-87.5 -35q-21 0 -39 9l-113 -530h-69l11 43q-34 -32 -73 -44.5t-105 -12.5q-88 0 -126 30t-38 101q0 46 13 105l85 396h69l-86 -402q-12 -54 -12 -88q0 -44 22.5 -61.5t73.5 -17.5q68 0 109 13.5t63.5 45t34.5 87.5l91 423h69 l-7 -31q13 -3 25 -3q26 0 45.5 19.5t26.5 50.5zM544 811l-174 -130l-37 48l175 130z" />
         <glyph glyph-name="uni1EF1" unicode="ự" d="M708 790h69l-31 -141q-12 -58 -49.5 -93t-87.5 -35q-21 0 -39 9l-113 -530h-69l11 43q-34 -32 -73 -44.5t-105 -12.5q-88 0 -126 30t-38 101q0 46 13 105l85 396h69l-86 -402q-12 -54 -12 -88q0 -44 22.5 -61.5t73.5 -17.5q68 0 109 13.5t63.5 45t34.5 87.5l91 423h69 l-7 -31q13 -3 25 -3q26 0 45.5 19.5t26.5 50.5zM147.5 -216.5q-13.5 8.5 -13.5 29.5q0 11 3 26q7 31 22 43t48 12q31 0 44.5 -9t13.5 -30q0 -10 -3 -25q-7 -31 -22 -43t-48 -12q-31 0 -44.5 8.5z" />
         <glyph glyph-name="uni1EEB" unicode="ừ" d="M708 790h69l-31 -141q-12 -58 -49.5 -93t-87.5 -35q-21 0 -39 9l-113 -530h-69l11 43q-34 -32 -73 -44.5t-105 -12.5q-88 0 -126 30t-38 101q0 46 13 105l85 396h69l-86 -402q-12 -54 -12 -88q0 -44 22.5 -61.5t73.5 -17.5q68 0 109 13.5t63.5 45t34.5 87.5l91 423h69 l-7 -31q13 -3 25 -3q26 0 45.5 19.5t26.5 50.5zM446 729l-54 -48l-124 130l54 48z" />
         <glyph glyph-name="uni1EED" unicode="ử" d="M708 790h69l-31 -141q-12 -58 -49.5 -93t-87.5 -35q-21 0 -39 9l-113 -530h-69l11 43q-34 -32 -73 -44.5t-105 -12.5q-88 0 -126 30t-38 101q0 46 13 105l85 396h69l-86 -402q-12 -54 -12 -88q0 -44 22.5 -61.5t73.5 -17.5q68 0 109 13.5t63.5 45t34.5 87.5l91 423h69 l-7 -31q13 -3 25 -3q26 0 45.5 19.5t26.5 50.5zM344 718q34 7 55.5 20.5t24.5 30.5l1 5q0 9 -6.5 13.5t-15.5 4.5q-21 0 -49 -13t-54 -32l12 79q20 14 45.5 22t47.5 8q40 0 64.5 -20t24.5 -54q0 -44 -37.5 -78.5t-102.5 -47.5z" />
         <glyph glyph-name="uni1EEF" unicode="ữ" d="M708 790h69l-31 -141q-12 -58 -49.5 -93t-87.5 -35q-21 0 -39 9l-113 -530h-69l11 43q-34 -32 -73 -44.5t-105 -12.5q-88 0 -126 30t-38 101q0 46 13 105l85 396h69l-86 -402q-12 -54 -12 -88q0 -44 22.5 -61.5t73.5 -17.5q68 0 109 13.5t63.5 45t34.5 87.5l91 423h69 l-7 -31q13 -3 25 -3q26 0 45.5 19.5t26.5 50.5zM414 709.5q-19 13.5 -40 36.5q-14 14 -22 20.5t-15 6.5q-32 0 -37 -51h-69q8 52 37.5 83.5t70.5 31.5q22 0 40 -13t40 -36q16 -16 23.5 -22t14.5 -6q31 0 37 48h68q-7 -51 -36.5 -81.5t-70.5 -30.5q-22 0 -41 13.5z" />
         <glyph glyph-name="uhungarumlaut" unicode="ű" d="M95 16q-38 30 -38 101q0 46 13 105l85 396h69l-86 -402q-12 -54 -12 -88q0 -44 22.5 -61.5t73.5 -17.5q68 0 109 13.5t63.5 45t34.5 87.5l91 423h69l-132 -618h-69l11 43q-34 -32 -73 -44.5t-105 -12.5q-88 0 -126 30zM403 804l-174 -130l-38 49l175 130zM602 804 l-175 -130l-37 49l174 130z" />
         <glyph glyph-name="umacron" unicode="ū" d="M95 16q-38 30 -38 101q0 46 13 105l85 396h69l-86 -402q-12 -54 -12 -88q0 -44 22.5 -61.5t73.5 -17.5q68 0 109 13.5t63.5 45t34.5 87.5l91 423h69l-132 -618h-69l11 43q-34 -32 -73 -44.5t-105 -12.5q-88 0 -126 30zM533 715h-293l13 64h293z" />
         <glyph glyph-name="uogonek" unicode="ų" d="M396 -127q15 6 26 16l42 -49q-16 -16 -43 -26t-55 -10q-53 0 -83.5 20.5t-30.5 58.5q0 34 39 66.5t98 55.5l10 38q-34 -32 -73 -44.5t-105 -12.5q-88 0 -126 30t-38 101q0 46 13 105l85 396h69l-86 -402q-12 -54 -12 -88q0 -44 22.5 -61.5t73.5 -17.5q68 0 109 13.5 t63.5 45t34.5 87.5l91 423h69l-132 -618q-77 -40 -107 -60t-30 -41q0 -15 12 -23.5t34 -8.5q15 0 30 6z" />
         <glyph glyph-name="uring" unicode="ů" d="M95 16q-38 30 -38 101q0 46 13 105l85 396h69l-86 -402q-12 -54 -12 -88q0 -44 22.5 -61.5t73.5 -17.5q68 0 109 13.5t63.5 45t34.5 87.5l91 423h69l-132 -618h-69l11 43q-34 -32 -73 -44.5t-105 -12.5q-88 0 -126 30zM296.5 712q-27.5 19 -27.5 62q0 21 6 49 q13 67 46.5 92.5t106.5 25.5q63 0 91.5 -19t28.5 -63q0 -20 -6 -47q-14 -68 -48 -93.5t-108 -25.5q-62 0 -89.5 19zM448.5 771q18.5 14 26.5 52q3 15 3 24q0 18 -11.5 24t-41.5 6q-40 0 -58 -14t-25 -51q-4 -22 -4 -26q0 -17 11.5 -23t39.5 -6q41 0 59.5 14z" />
         <glyph glyph-name="utilde" unicode="ũ" d="M95 16q-38 30 -38 101q0 46 13 105l85 396h69l-86 -402q-12 -54 -12 -88q0 -44 22.5 -61.5t73.5 -17.5q68 0 109 13.5t63.5 45t34.5 87.5l91 423h69l-132 -618h-69l11 43q-34 -32 -73 -44.5t-105 -12.5q-88 0 -126 30zM414 709.5q-19 13.5 -40 36.5q-14 14 -22 20.5 t-15 6.5q-32 0 -37 -51h-69q8 52 37.5 83.5t70.5 31.5q22 0 40 -13t40 -36q16 -16 23.5 -22t14.5 -6q31 0 37 48h68q-7 -51 -36.5 -81.5t-70.5 -30.5q-22 0 -41 13.5z" />
         <glyph glyph-name="v" unicode="v" d="M269 0h-69l-79 618h69l65 -509l282 509h73z" />
         <glyph glyph-name="w" unicode="w" d="M137 0h-66l23 618h69l-22 -480l151 289h65l26 -289l184 480h71l-240 -618h-65l-31 311z" />
         <glyph glyph-name="wacute" unicode="ẃ" d="M137 0h-66l23 618h69l-22 -480l151 289h65l26 -289l184 480h71l-240 -618h-65l-31 311zM544 811l-174 -130l-37 48l175 130z" />
         <glyph glyph-name="wcircumflex" unicode="ŵ" d="M137 0h-66l23 618h69l-22 -480l151 289h65l26 -289l184 480h71l-240 -618h-65l-31 311zM530 715l-60 -42l-73 83l-109 -81l-45 42l169 127z" />
         <glyph glyph-name="wdieresis" unicode="ẅ" d="M137 0h-66l23 618h69l-22 -480l151 289h65l26 -289l184 480h71l-240 -618h-65l-31 311zM241.5 732q-14.5 10 -14.5 32q0 11 3 24q6 31 21 42.5t48 11.5q31 0 45.5 -10.5t14.5 -32.5q0 -10 -3 -22q-7 -31 -22 -43t-48 -12q-30 0 -44.5 10zM457.5 732q-14.5 10 -14.5 32 q0 11 3 24q6 31 21 42.5t48 11.5q31 0 45.5 -10.5t14.5 -32.5q0 -10 -3 -22q-7 -31 -22 -43t-48 -12q-30 0 -44.5 10z" />
         <glyph glyph-name="wgrave" unicode="ẁ" d="M137 0h-66l23 618h69l-22 -480l151 289h65l26 -289l184 480h71l-240 -618h-65l-31 311zM446 729l-54 -48l-124 130l54 48z" />
         <glyph glyph-name="x" unicode="x" d="M519 618h77l-256 -308l126 -310h-80l-100 246l-205 -246h-77l256 308l-126 310h80l100 -246z" />
         <glyph glyph-name="y" unicode="y" d="M-21.5 -189q-21.5 7 -45.5 25l36 55q22 -14 35.5 -19t29.5 -5q63 0 104 30.5t85 111.5l-70 609h70l55 -516l278 516h74l-336 -617q-42 -76 -79.5 -118.5t-80 -60.5t-101.5 -18q-33 0 -54.5 7z" />
         <glyph glyph-name="yacute" unicode="ý" d="M-21.5 -189q-21.5 7 -45.5 25l36 55q22 -14 35.5 -19t29.5 -5q63 0 104 30.5t85 111.5l-70 609h70l55 -516l278 516h74l-336 -617q-42 -76 -79.5 -118.5t-80 -60.5t-101.5 -18q-33 0 -54.5 7zM544 811l-174 -130l-37 48l175 130z" />
         <glyph glyph-name="ycircumflex" unicode="ŷ" d="M-21.5 -189q-21.5 7 -45.5 25l36 55q22 -14 35.5 -19t29.5 -5q63 0 104 30.5t85 111.5l-70 609h70l55 -516l278 516h74l-336 -617q-42 -76 -79.5 -118.5t-80 -60.5t-101.5 -18q-33 0 -54.5 7zM530 715l-60 -42l-73 83l-109 -81l-45 42l169 127z" />
         <glyph glyph-name="ydieresis" unicode="ÿ" d="M-21.5 -189q-21.5 7 -45.5 25l36 55q22 -14 35.5 -19t29.5 -5q63 0 104 30.5t85 111.5l-70 609h70l55 -516l278 516h74l-336 -617q-42 -76 -79.5 -118.5t-80 -60.5t-101.5 -18q-33 0 -54.5 7zM241.5 732q-14.5 10 -14.5 32q0 11 3 24q6 31 21 42.5t48 11.5 q31 0 45.5 -10.5t14.5 -32.5q0 -10 -3 -22q-7 -31 -22 -43t-48 -12q-30 0 -44.5 10zM457.5 732q-14.5 10 -14.5 32q0 11 3 24q6 31 21 42.5t48 11.5q31 0 45.5 -10.5t14.5 -32.5q0 -10 -3 -22q-7 -31 -22 -43t-48 -12q-30 0 -44.5 10z" />
         <glyph glyph-name="uni1EF5" unicode="ỵ" d="M-21.5 -189q-21.5 7 -45.5 25l36 55q22 -14 35.5 -19t29.5 -5q63 0 104 30.5t85 111.5l-70 609h70l55 -516l278 516h74l-336 -617q-42 -76 -79.5 -118.5t-80 -60.5t-101.5 -18q-33 0 -54.5 7zM296.5 -216.5q-13.5 8.5 -13.5 29.5q0 11 3 26q7 31 22 43t48 12 q31 0 44.5 -9t13.5 -30q0 -10 -3 -25q-7 -31 -22 -43t-48 -12q-31 0 -44.5 8.5z" />
         <glyph glyph-name="ygrave" unicode="ỳ" d="M-21.5 -189q-21.5 7 -45.5 25l36 55q22 -14 35.5 -19t29.5 -5q63 0 104 30.5t85 111.5l-70 609h70l55 -516l278 516h74l-336 -617q-42 -76 -79.5 -118.5t-80 -60.5t-101.5 -18q-33 0 -54.5 7zM446 729l-54 -48l-124 130l54 48z" />
         <glyph glyph-name="uni1EF7" unicode="ỷ" d="M-21.5 -189q-21.5 7 -45.5 25l36 55q22 -14 35.5 -19t29.5 -5q63 0 104 30.5t85 111.5l-70 609h70l55 -516l278 516h74l-336 -617q-42 -76 -79.5 -118.5t-80 -60.5t-101.5 -18q-33 0 -54.5 7zM344 718q34 7 55.5 20.5t24.5 30.5l1 5q0 9 -6.5 13.5t-15.5 4.5 q-21 0 -49 -13t-54 -32l12 79q20 14 45.5 22t47.5 8q40 0 64.5 -20t24.5 -54q0 -44 -37.5 -78.5t-102.5 -47.5z" />
         <glyph glyph-name="uni1EF9" unicode="ỹ" d="M-21.5 -189q-21.5 7 -45.5 25l36 55q22 -14 35.5 -19t29.5 -5q63 0 104 30.5t85 111.5l-70 609h70l55 -516l278 516h74l-336 -617q-42 -76 -79.5 -118.5t-80 -60.5t-101.5 -18q-33 0 -54.5 7zM414 709.5q-19 13.5 -40 36.5q-14 14 -22 20.5t-15 6.5q-32 0 -37 -51h-69 q8 52 37.5 83.5t70.5 31.5q22 0 40 -13t40 -36q16 -16 23.5 -22t14.5 -6q31 0 37 48h68q-7 -51 -36.5 -81.5t-70.5 -30.5q-22 0 -41 13.5z" />
         <glyph glyph-name="z" unicode="z" d="M442 0h-416l8 42l430 513h-319l14 63h414l-9 -42l-430 -513h321z" />
         <glyph glyph-name="zacute" unicode="ź" d="M442 0h-416l8 42l430 513h-319l14 63h414l-9 -42l-430 -513h321zM544 811l-174 -130l-37 48l175 130z" />
         <glyph glyph-name="zcaron" unicode="ž" d="M442 0h-416l8 42l430 513h-319l14 63h414l-9 -42l-430 -513h321zM551 806l-171 -129l-118 127l59 42l74 -81l109 83z" />
         <glyph glyph-name="zdotaccent" unicode="ż" d="M442 0h-416l8 42l430 513h-319l14 63h414l-9 -42l-430 -513h321zM351.5 745.5q-13.5 8.5 -13.5 29.5q0 11 3 26q7 31 22 43t48 12q31 0 44.5 -9t13.5 -30q0 -10 -3 -25q-7 -31 -22 -43t-48 -12q-31 0 -44.5 8.5z" />
         <glyph glyph-name="ordfeminine" unicode="ª" d="M191 374q-34 20 -34 69q0 17 7 52q10 47 30 72.5t56.5 36.5t99.5 11h96l10 44q5 28 5 42q0 28 -16.5 39t-56.5 11t-64 -16t-44 -55l-65 16q22 47 45 72t53 35.5t76 10.5q76 0 109 -22t33 -74q0 -26 -8 -64l-43 -204l-1 -8q0 -9 6.5 -11.5t24.5 -4.5l-7 -63q-43 -1 -61 10 t-20 38q-29 -34 -54 -45.5t-65 -11.5q-78 0 -112 20zM387 440q27 23 40 81l8 39h-91q-54 0 -79 -17t-35 -59q-3 -13 -3 -25q0 -24 17.5 -33t60.5 -9q55 0 82 23zM472 205h-379l13 63h379z" />
         <glyph glyph-name="ordmasculine" unicode="º" d="M204 382q-34 28 -34 95q0 46 15 113q19 87 44.5 135t65.5 68.5t106 20.5q77 0 111.5 -28t34.5 -95q0 -46 -15 -112q-19 -88 -44.5 -136t-66 -68.5t-106.5 -20.5q-77 0 -111 28zM386.5 433.5q27.5 16.5 46 53.5t32.5 103q12 56 12 89q0 40 -18 56t-59 16q-42 0 -69.5 -16 t-46 -53.5t-32.5 -102.5q-12 -57 -12 -90q0 -40 18 -56t59 -16q42 0 69.5 16.5zM467 205h-379l13 63h379z" />
         <glyph glyph-name="uni2090" unicode="ₐ" d="M102.5 -44q-33.5 20 -33.5 69q0 22 6 52q10 47 30 73t56.5 36.5t99.5 10.5h97l9 45q5 27 5 41q0 28 -17 39t-57 11q-39 0 -62.5 -16t-43.5 -55l-67 17q23 46 46 71t53 35.5t77 10.5q76 0 109 -21.5t33 -74.5q0 -26 -8 -64l-44 -208q-1 -3 -1 -9q0 -7 6.5 -10t24.5 -4 l-8 -64q-43 0 -61 11t-19 37q-27 -32 -52 -42.5t-67 -10.5q-78 0 -111.5 20zM298 22q27 23 39 82l9 38h-90q-54 0 -79.5 -16.5t-34.5 -59.5q-4 -20 -4 -26q0 -23 17.5 -32t60.5 -9q55 0 82 23z" />
         <glyph glyph-name="uni2091" unicode="ₑ" d="M166 147q-9 -45 -9 -73q0 -41 19.5 -58t64.5 -17q41 0 67.5 17t53.5 58l49 -43q-36 -55 -72 -75t-99 -20q-81 0 -117 28t-36 95q0 44 13 103q19 92 45.5 142t69 71t111.5 21q71 0 103 -28t32 -95q0 -49 -17 -129zM234 306q-32 -27 -52 -95l206 2q2 32 2 41q0 44 -15 61.5 t-51 17.5q-58 0 -90 -27z" />
         <glyph glyph-name="uni2071" unicode="ⁱ" d="M387 795q-11 8 -11 26q0 5 2 17q5 22 15.5 30t34.5 8q23 0 34.5 -8t11.5 -25q0 -4 -2 -16q-4 -23 -15.5 -31.5t-35.5 -8.5q-23 0 -34 8zM445 704l-81 -378h115l-13 -63h-299l13 63h115l66 315h-83l14 63h153z" />
         <glyph glyph-name="uni207F" unicode="ⁿ" d="M119 263l96 450h69l-12 -44q33 29 60 39t67 10q67 0 96.5 -26t29.5 -88q0 -45 -15 -116l-47 -225h-69l49 230q13 61 13 98q0 35 -14 49.5t-45 14.5q-71 0 -105.5 -31.5t-51.5 -112.5l-52 -248h-69z" />
         <glyph glyph-name="uni2092" unicode="ₒ" d="M115.5 -35.5q-34.5 28.5 -34.5 95.5q0 45 15 112q19 88 44.5 135.5t66 68t106.5 20.5q77 0 111 -27.5t34 -94.5q0 -45 -15 -113q-18 -88 -43.5 -136t-66 -68.5t-106.5 -20.5q-77 0 -111.5 28.5zM297.5 15.5q27.5 16.5 46 53.5t32.5 103q12 56 12 89q0 40 -18 56t-59 16 q-42 0 -69.5 -16t-46 -53t-32.5 -103q-12 -55 -12 -90q0 -39 18 -55.5t59 -16.5q42 0 69.5 16.5z" />
         <glyph glyph-name="uni2094" unicode="ₔ" d="M417 368.5q36 -27.5 36 -93.5q0 -41 -14 -105q-19 -91 -45.5 -141t-68.5 -71.5t-111 -21.5q-72 0 -103.5 28t-31.5 95q0 49 17 129l277 -3q9 45 9 74q0 41 -19.5 57.5t-64.5 16.5q-42 0 -68 -16.5t-53 -58.5l-49 43q37 55 73 75t99 20q81 0 117 -27.5zM305 26.5 q33 27.5 53 94.5l-206 -2q-3 -25 -3 -44q0 -43 15 -59.5t51 -16.5q57 0 90 27.5z" />
         <glyph glyph-name="uni2093" unicode="ₓ" d="M421 391h76l-187 -223l94 -227h-81l-68 163l-137 -163h-76l188 223l-95 227h82l67 -162z" />
         <glyph glyph-name="uni0410" unicode="А" d="M494 0h-70l-13 207h-263l-101 -207h-73l392 800h75zM382 689l-203 -418h228z" />
         <glyph glyph-name="uni0411" unicode="Б" d="M19 0l170 800h369l-13 -63h-300l-51 -235h153q100 0 143.5 -32.5t43.5 -110.5q0 -45 -14 -113q-20 -96 -51.5 -148.5t-83.5 -75t-139 -22.5h-227zM254 63q60 0 98 18t62 60t40 116q11 53 11 85q0 53 -29 74.5t-97 21.5h-158l-80 -375h153z" />
         <glyph glyph-name="uni0412" unicode="В" d="M19 0l170 800h196q103 0 148 -30t45 -99q0 -29 -10 -79q-14 -71 -40.5 -106.5t-83.5 -58.5q43 -16 62.5 -43t19.5 -73q0 -40 -11 -88q-18 -86 -48.5 -133.5t-82.5 -68.5t-138 -21h-227zM312 455q62 0 98.5 13t57.5 44.5t34 90.5q7 31 7 56q0 44 -29.5 61t-101.5 17h-133 l-61 -282h128zM254 63q61 0 98 16t60 52.5t37 102.5q10 48 10 73q0 48 -29.5 66t-100.5 18h-158l-70 -328h153z" />
         <glyph glyph-name="uni0413" unicode="Г" d="M198 800h443l-13 -63h-376l-155 -737h-69z" />
         <glyph glyph-name="uni0403" unicode="Ѓ" d="M198 800h443l-13 -63h-376l-155 -737h-69zM582 993l-174 -130l-37 48l175 130z" />
         <glyph glyph-name="uni0490" unicode="Ґ" d="M572 800l27 133h69l-27 -133l-13 -63h-376l-155 -737h-69l170 800h374z" />
         <glyph glyph-name="uni0414" unicode="Д" d="M623 800l-156 -737h50l-32 -151h-69l18 88h-400l-18 -88h-69l31 151h96l-66 2q60 34 105.5 112.5t90.5 217.5t118 408zM398 63l144 674l-172 -3q-60 -224 -101.5 -354.5t-79.5 -206.5t-81 -110h290z" />
         <glyph glyph-name="uni0415" unicode="Е" d="M640 800l-13 -63h-375l-59 -282h239l-13 -64h-241l-68 -328h373l-13 -63h-443l170 800h443z" />
         <glyph glyph-name="uni0400" unicode="Ѐ" d="M640 800l-13 -63h-375l-59 -282h239l-13 -64h-241l-68 -328h373l-13 -63h-443l170 800h443zM499 914l-54 -48l-124 130l54 48z" />
         <glyph glyph-name="uni0401" unicode="Ё" d="M640 800l-13 -63h-375l-59 -282h239l-13 -64h-241l-68 -328h373l-13 -63h-443l170 800h443zM294.5 917q-14.5 10 -14.5 32q0 11 3 24q6 31 21 42.5t48 11.5q31 0 45.5 -10.5t14.5 -32.5q0 -10 -3 -22q-7 -31 -22 -43t-48 -12q-30 0 -44.5 10zM510.5 917 q-14.5 10 -14.5 32q0 11 3 24q6 31 21 42.5t48 11.5q31 0 45.5 -10.5t14.5 -32.5q0 -10 -3 -22q-7 -31 -22 -43t-48 -12q-30 0 -44.5 10z" />
         <glyph glyph-name="uni0416" unicode="Ж" d="M705 800l-274 -400h-2l105 -400h-75l-104 400h-1l-85 -400h-69l85 398l-273 -398h-78l274 400h2l-105 400h75l104 -400h1l85 400h69l-85 -398l273 398h78z" />
         <glyph glyph-name="uni0417" unicode="З" d="M84 15.5q-46 29.5 -46 100.5q0 38 10 82l68 -5q-8 -40 -8 -64q0 -45 29 -62.5t102 -17.5q64 0 102.5 15.5t61.5 52t37 101.5q11 53 11 83q0 47 -25 66.5t-86 23.5h-82l13 64h77q56 4 89.5 18t53.5 45.5t32 89.5q8 38 8 60q0 47 -29.5 65t-101.5 18q-66 0 -104 -12.5 t-59 -42t-32 -83.5l-68 5q16 77 45 118.5t80.5 59.5t138.5 18q106 0 152.5 -31t46.5 -103q0 -39 -10 -83q-16 -74 -43 -111.5t-85 -65.5q30 -18 44 -44.5t14 -67.5q0 -34 -13 -101q-18 -85 -49 -132.5t-83 -68t-137 -20.5q-108 0 -154 29.5z" />
         <glyph glyph-name="uni0418" unicode="И" d="M629 800l-1 -2l-170 -798h-69l138 650l-441 -650h-76l1 2l170 798h69l-138 -650l441 650h76z" />
         <glyph glyph-name="uni0419" unicode="Й" d="M629 800l-1 -2l-170 -798h-69l138 650l-441 -650h-76l1 2l170 798h69l-138 -650l441 650h76zM331 876.5q-28 18.5 -28 60.5q0 20 8 54h79q-22 -38 -22 -50q0 -11 12.5 -15t42.5 -4q45 0 62.5 10t17.5 35q0 15 -2 24h77q-10 -52 -27 -80.5t-47.5 -40.5t-82.5 -12 q-62 0 -90 18.5z" />
         <glyph glyph-name="uni040D" unicode="Ѝ" d="M629 800l-1 -2l-170 -798h-69l138 650l-441 -650h-76l1 2l170 798h69l-138 -650l441 650h76zM484 911l-54 -48l-124 130l54 48z" />
         <glyph glyph-name="uni041A" unicode="К" d="M670 799q-61 -35 -104.5 -86t-95.5 -129q-53 -78 -91.5 -120.5t-91.5 -61.5l203 -402h-81l-197 391h-57l-83 -391h-69l170 800h69l-73 -345h41q48 1 85 25.5t64 59.5t64 93q41 65 72.5 104t72.5 64z" />
         <glyph glyph-name="uni040C" unicode="Ќ" d="M670 799q-61 -35 -104.5 -86t-95.5 -129q-53 -78 -91.5 -120.5t-91.5 -61.5l203 -402h-81l-197 391h-57l-83 -391h-69l170 800h69l-73 -345h41q48 1 85 25.5t64 59.5t64 93q41 65 72.5 104t72.5 64zM582 993l-174 -130l-37 48l175 130z" />
         <glyph glyph-name="uni041B" unicode="Л" d="M350 800h298l-170 -800h-69l157 737h-198q-90 -337 -137.5 -477t-101.5 -200t-145 -60l7 64q58 0 100.5 58.5t91.5 210t133 470.5z" />
         <glyph glyph-name="uni041C" unicode="М" d="M54 0h-70l185 800h66l74 -439l263 439h68l-156 -800h-69l122 624l-216 -371h-64l-59 371z" />
         <glyph glyph-name="uni041D" unicode="Н" d="M488 455l73 345h69l-170 -800h-69l83 391h-313l-83 -391h-69l170 800h69l-73 -345h313z" />
         <glyph glyph-name="uni041E" unicode="О" d="M90 28.5q-46 42.5 -46 141.5q0 71 25 193l17 80q30 142 68.5 222t97 114.5t149.5 34.5q102 0 148 -42.5t46 -141.5q0 -71 -25 -193l-17 -80q-31 -143 -69.5 -222.5t-96.5 -114t-149 -34.5q-102 0 -148 42.5zM352.5 78.5q44.5 29.5 76 97t56.5 187.5l17 80q24 113 24 179 q0 71 -29.5 100t-96.5 29q-69 0 -114 -29.5t-76 -97t-56 -187.5l-17 -80q-24 -112 -24 -178q0 -71 30 -100.5t96 -29.5q69 0 113.5 29.5z" />
         <glyph glyph-name="uni041F" unicode="П" d="M67 0h-69l170 800h472l-170 -800h-69l157 737h-333z" />
         <glyph glyph-name="uni0420" unicode="Р" d="M421 800q101 0 145.5 -32t44.5 -106q0 -41 -12 -95q-18 -87 -48.5 -135t-82.5 -68t-138 -20h-157l-73 -344h-69l170 800h220zM542 649q0 50 -29 69t-99 19h-158l-70 -329h152q61 0 98.5 15t60 51.5t36.5 103.5q9 42 9 71z" />
         <glyph glyph-name="uni0421" unicode="С" d="M102.5 31.5q-46.5 45.5 -46.5 151.5q0 85 29 224q34 156 75 243.5t101.5 125.5t154.5 38q66 0 104.5 -17t58.5 -55.5t26 -106.5l-68 -17q-5 54 -17 82t-36.5 39.5t-68.5 11.5q-72 0 -119 -33t-81 -109.5t-63 -213.5q-28 -130 -28 -206t30.5 -108t99.5 -32q47 0 78.5 12.5 t57 41.5t53.5 82l62 -28q-35 -67 -69 -103.5t-77 -52t-106 -15.5q-104 0 -150.5 45.5z" />
         <glyph glyph-name="uni0422" unicode="Т" d="M682 800l-13 -63h-243l-157 -737h-69l157 737h-243l13 63h555z" />
         <glyph glyph-name="uni0423" unicode="У" d="M602 800h72l-302 -617q-37 -75 -74.5 -117.5t-82.5 -61t-105 -18.5q-33 0 -54.5 7t-45.5 25l36 55q22 -14 35.5 -19t29.5 -5q43 0 72.5 10t54.5 35l-83 706h70l72 -620l18 36z" />
         <glyph glyph-name="uni040E" unicode="Ў" d="M602 800h72l-302 -617q-37 -75 -74.5 -117.5t-82.5 -61t-105 -18.5q-33 0 -54.5 7t-45.5 25l36 55q22 -14 35.5 -19t29.5 -5q43 0 72.5 10t54.5 35l-83 706h70l72 -620l18 36zM351 876.5q-28 18.5 -28 60.5q0 20 8 54h79q-22 -38 -22 -50q0 -11 12.5 -15t42.5 -4 q45 0 62.5 10t17.5 35q0 15 -2 24h77q-10 -52 -27 -80.5t-47.5 -40.5t-82.5 -12q-62 0 -90 18.5z" />
         <glyph glyph-name="uni0424" unicode="Ф" d="M419 707q110 -5 158 -45t48 -129q0 -57 -18 -138q-24 -112 -61 -175.5t-98 -93t-159 -33.5l-20 -93h-69l20 94q-110 5 -158 45t-48 129q0 58 18 139q24 111 61.5 174.5t98 93t158.5 32.5l20 93h69zM555 516q0 65 -35 94.5t-114 32.5l-103 -485q71 5 115.5 30.5t73 77.5 t48.5 141q15 65 15 109zM85 287q0 -66 35 -95.5t114 -33.5l103 485q-71 -5 -116.5 -30.5t-74 -77.5t-47.5 -140q-14 -67 -14 -108z" />
         <glyph glyph-name="uni0425" unicode="Х" d="M583 800h75l-300 -399l132 -401h-78l-108 329l-248 -329h-75l300 399l-132 401h78l108 -329z" />
         <glyph glyph-name="uni0427" unicode="Ч" d="M611 800l-170 -800h-69l49 228q-25 -33 -63.5 -46.5t-90.5 -13.5q-93 0 -134.5 36.5t-41.5 123.5q0 64 21 160l67 312h69l-69 -318q-19 -89 -19 -144q0 -59 25.5 -83t82.5 -24q60 0 95.5 14t56.5 50t35 103l87 402h69z" />
         <glyph glyph-name="uni0426" unicode="Ц" d="M528 800h69l-157 -737h70l-39 -181h-69l25 118h-441l170 800h69l-156 -737h303z" />
         <glyph glyph-name="uni0428" unicode="Ш" d="M495 0h-522l170 800h69l-156 -737h157l157 737h69l-157 -737h158l156 737h69z" />
         <glyph glyph-name="uni0429" unicode="Щ" d="M547 800h69l-157 -737h70l-37 -171h-69l23 108h-493l170 800h69l-157 -737h144l156 737h69l-156 -737h143z" />
         <glyph glyph-name="uni040F" unicode="Џ" d="M556 800h69l-170 -800h-186l-25 -118h-69l25 118h-187l170 800h69l-156 -737h304z" />
         <glyph glyph-name="uni042C" unicode="Ь" d="M358 502q100 0 143.5 -32.5t43.5 -111.5q0 -45 -14 -113q-20 -96 -51.5 -148.5t-83.5 -74.5t-139 -22h-226l170 800h69l-63 -298h151zM475 343q0 53 -28.5 74t-96.5 21h-157l-79 -375h151q60 0 98 18t62 60t39 115q11 55 11 87z" />
         <glyph glyph-name="uni042A" unicode="Ъ" d="M382 502q100 0 143.5 -32.5t43.5 -111.5q0 -45 -14 -113q-20 -96 -51.5 -148.5t-83.5 -74.5t-139 -22h-227l157 737h-113l13 63h182l-12 -63h-1l-50 -235h152zM499 343q0 53 -28.5 74t-96.5 21h-157l-79 -375h151q60 0 98 18t61.5 59.5t39.5 115.5q11 55 11 87z" />
         <glyph glyph-name="uni042B" unicode="Ы" d="M261 502q87 0 125.5 -31t38.5 -106q0 -48 -15 -120q-21 -96 -50 -148.5t-76 -74.5t-124 -22h-184l170 800h69l-63 -298h109zM423 0l170 800h69l-170 -800h-69zM355 351q0 48 -23.5 67.5t-78.5 19.5h-115l-79 -375h108q51 0 84 18t54.5 59.5t37.5 115.5q12 59 12 95z" />
         <glyph glyph-name="uni0409" unicode="Љ" d="M467 502q69 0 100 -28.5t31 -96.5q0 -50 -17 -132q-21 -96 -47 -148.5t-65 -74.5t-103 -22h-124l157 737h-78q-91 -338 -137.5 -477.5t-100.5 -199.5t-145 -60l7 64q58 0 100.5 58.5t91 209t133.5 471.5l34 -3h177l-63 -298h49zM529 366q0 40 -16.5 56t-53.5 16h-54 l-79 -375h48q37 0 62 18t43.5 60t33.5 115q16 75 16 110z" />
         <glyph glyph-name="uni040A" unicode="Њ" d="M452 502q77 0 111 -29.5t34 -100.5q0 -45 -16 -127q-21 -96 -48 -148.5t-69.5 -74.5t-112.5 -22h-155l93 438h-176l-93 -438h-69l170 800h69l-63 -298h176l63 298h69l-63 -298h80zM527 359q0 44 -19.5 61.5t-63.5 17.5h-85l-79 -375h79q43 0 71.5 18t48 60t34.5 115 q14 67 14 103z" />
         <glyph glyph-name="uni0405" unicode="Ѕ" d="M125 -2.5q-43 11.5 -68 38t-40 72.5l61 44q8 -42 24.5 -63.5t48 -30.5t88.5 -9q66 0 106 16.5t64 54t38 105.5q5 27 5 44q0 42 -29.5 68.5t-102.5 53.5q-99 34 -140.5 71t-41.5 95q0 24 6 52q17 79 46 123t79 63t132 19q64 0 104 -10t64 -33t39 -63l-57 -47 q-10 37 -25.5 56t-44.5 26.5t-81 7.5q-61 0 -97.5 -14t-58 -47t-33.5 -92q-4 -19 -4 -37q0 -37 27 -60t94 -46q105 -34 149 -73.5t44 -104.5q0 -26 -8 -63q-18 -88 -49.5 -136.5t-85 -70t-140.5 -21.5q-70 0 -113 11.5z" />
         <glyph glyph-name="uni0404" unicode="Є" d="M538 779.5q46 -34.5 54 -110.5l-71 5q-10 42 -38.5 59.5t-82.5 17.5q-69 0 -113.5 -29.5t-76 -97t-56.5 -187.5l-1 -5h244l-13 -64h-245l-2 -11q-24 -112 -24 -179q0 -71 29.5 -100t96.5 -29q57 0 95 19.5t67 62.5l77 -5q-39 -75 -96 -107.5t-144 -32.5q-102 0 -148 42.5 t-46 141.5q0 71 25 193l17 80q30 142 68.5 222t97 114.5t149.5 34.5t137 -34.5z" />
         <glyph glyph-name="uni042D" unicode="Э" d="M549 771.5q46 -42.5 46 -141.5q0 -71 -25 -193l-17 -80q-31 -143 -69.5 -222.5t-96.5 -114t-149 -34.5q-92 0 -138 34.5t-53 110.5l73 -5q10 -42 38 -59.5t81 -17.5q69 0 113.5 29.5t76 97t56.5 187.5l1 5h-245l13 64h246l2 11q24 113 24 179q0 71 -29.5 100t-96.5 29 q-58 0 -97 -19.5t-68 -62.5l-75 5q40 75 96.5 107.5t144.5 32.5q102 0 148 -42.5z" />
         <glyph glyph-name="uni0406" unicode="І" d="M601 800l-13 -63h-162l-144 -674h162l-13 -63h-393l13 63h162l144 674h-162l13 63h393z" />
         <glyph glyph-name="uni0407" unicode="Ї" d="M601 800l-13 -63h-162l-144 -674h162l-13 -63h-393l13 63h162l144 674h-162l13 63h393zM280.5 917q-14.5 10 -14.5 32q0 11 3 24q6 31 21 42.5t48 11.5q31 0 45.5 -10.5t14.5 -32.5q0 -10 -3 -22q-7 -31 -22 -43t-48 -12q-30 0 -44.5 10zM496.5 917q-14.5 10 -14.5 32 q0 11 3 24q6 31 21 42.5t48 11.5q31 0 45.5 -10.5t14.5 -32.5q0 -10 -3 -22q-7 -31 -22 -43t-48 -12q-30 0 -44.5 10z" />
         <glyph glyph-name="uni0408" unicode="Ј" d="M96 3q-39 17 -58 55t-25 105l66 12q5 -51 17 -77.5t37 -37.5t70 -11q71 0 117 29t78 95.5t57 186.5l81 377h-131l13 63h200l-95 -446q-30 -142 -69 -221t-98.5 -113t-153.5 -34q-67 0 -106 17z" />
         <glyph glyph-name="uni040B" unicode="Ћ" d="M523 468.5q42 -33.5 42 -113.5q0 -54 -16 -128l-48 -227h-69l49 233q15 73 15 108q0 54 -26.5 75.5t-86.5 21.5q-61 0 -96 -14t-56 -50t-36 -105l-57 -269h-69l157 737h-135l13 63h339l-13 -63h-136l-64 -295q25 33 63.5 46.5t91.5 13.5q96 0 138 -33.5z" />
         <glyph glyph-name="uni042E" unicode="Ю" d="M605.5 776.5q36.5 -37.5 36.5 -126.5q0 -77 -29 -213l-17 -80q-31 -145 -65 -224t-82.5 -113t-123.5 -34q-81 0 -117.5 37.5t-36.5 125.5q0 78 29 214l1 5h-94l-78 -368h-70l171 800h69l-78 -368h94l2 11q31 145 65 224t82.5 113t123.5 34q81 0 117.5 -37.5zM545 443 q29 136 29 202q0 58 -20.5 82t-66.5 24q-52 0 -87.5 -29.5t-62.5 -97t-53 -187.5l-17 -80q-28 -137 -28 -201q0 -58 20.5 -82.5t66.5 -24.5q52 0 87.5 29.5t62.5 97t52 187.5z" />
         <glyph glyph-name="uni042F" unicode="Я" d="M616 800l-170 -800h-69l73 344h-95l-302 -344h-82l301 344q-86 4 -124.5 35t-38.5 101q0 41 12 98q18 85 48.5 132.5t82.5 68.5t137 21h227zM464 408l70 329h-152q-61 0 -98.5 -15.5t-60 -52.5t-36.5 -102q-10 -50 -10 -75q0 -48 29 -66t100 -18h158z" />
         <glyph glyph-name="uni0402" unicode="Ђ" d="M537 469q43 -33 43 -111q0 -44 -16 -121q-20 -98 -50 -151.5t-78 -76.5t-126 -23q-28 0 -40.5 3t-22.5 10l8 61q9 -7 20.5 -9t35.5 -2q55 0 90 19t58 61.5t39 118.5q12 57 12 95q0 52 -26.5 73.5t-88.5 21.5q-60 0 -96.5 -15t-58 -51t-35.5 -101l-58 -271h-69l157 737 h-144l13 63h359l-13 -63h-147l-65 -300q29 35 68.5 50t90.5 15q97 0 140 -33z" />
         <glyph glyph-name="uni0462" unicode="Ѣ" d="M374 502q100 0 143.5 -32t43.5 -111q0 -44 -14 -114q-20 -96 -51.5 -148.5t-83.5 -74.5t-139 -22h-226l133 626h-97l14 64h97l23 110h69l-23 -110h173l-14 -64h-173l-26 -124h151zM491 343q0 53 -28.5 74t-96.5 21h-157l-79 -375h151q60 0 98 18t62 60t39 115 q11 55 11 87z" />
         <glyph glyph-name="uni046A" unicode="Ѫ" d="M686 800l-13 -63l-249 -320q40 -27 55.5 -95t15.5 -199q2 -50 6.5 -73.5t20.5 -51.5l-68 4q-13 23 -18.5 50.5t-5.5 77.5q-2 93 -9 143t-24 73t-49 29l-79 -375h-69l78 373q-33 -8 -60.5 -33.5t-56.5 -77.5t-67 -143q-21 -46 -37.5 -71.5t-39.5 -49.5l-74 4 q30 29 46.5 55t36.5 77q58 133 101.5 198t94.5 89l-112 316l13 63h563zM595 737h-411l106 -299q22 2 35 2l-4 -31h1l3 31q14 0 38 -2z" />
         <glyph glyph-name="uni0498" unicode="Ҙ" d="M553.5 783q46.5 -31 46.5 -103q0 -39 -10 -83q-16 -74 -43 -111.5t-85 -65.5q30 -18 44 -44.5t14 -67.5q0 -34 -13 -101q-17 -80 -44.5 -126t-73 -68t-118.5 -26l-8 -30q28 -7 44 -25t16 -43q0 -10 -1 -15q-8 -40 -42.5 -63.5t-84.5 -23.5q-31 0 -56 10.5t-37 26.5l35 49 q9 -10 25.5 -16.5t33.5 -6.5q23 0 39.5 10t19.5 25q3 12 -15 18.5t-51 6.5l15 77q-89 5 -127.5 35t-38.5 94q0 38 10 82l68 -5q-8 -40 -8 -64q0 -45 29 -62.5t102 -17.5q64 0 102.5 15.5t61.5 52t37 101.5q11 53 11 83q0 47 -25 66.5t-86 23.5h-82l13 64h77q56 4 89.5 18 t53.5 45.5t32 89.5q8 38 8 60q0 47 -29.5 65t-101.5 18q-66 0 -104 -12.5t-59 -42t-32 -83.5l-68 5q16 77 45 118.5t80.5 59.5t138.5 18q106 0 152.5 -31z" />
         <glyph glyph-name="uni04C0" unicode="Ӏ" d="M601 800l-13 -63h-162l-144 -674h162l-13 -63h-393l13 63h162l144 674h-162l13 63h393z" />
         <glyph glyph-name="uni04C1" unicode="Ӂ" d="M705 800l-274 -400h-2l105 -400h-75l-104 400h-1l-85 -400h-69l85 398l-273 -398h-78l274 400h2l-105 400h75l104 -400h1l85 400h69l-85 -398l273 398h78zM331 876.5q-28 18.5 -28 60.5q0 20 8 54h79q-22 -38 -22 -50q0 -11 12.5 -15t42.5 -4q45 0 62.5 10t17.5 35 q0 15 -2 24h77q-10 -52 -27 -80.5t-47.5 -40.5t-82.5 -12q-62 0 -90 18.5z" />
         <glyph glyph-name="uni04D0" unicode="Ӑ" d="M494 0h-70l-13 207h-263l-101 -207h-73l392 800h75zM382 689l-203 -418h228zM332 879.5q-28 18.5 -28 60.5q0 20 8 54h79q-22 -38 -22 -50q0 -11 12.5 -15t42.5 -4q45 0 62.5 10t17.5 35q0 15 -2 24h77q-10 -52 -27 -80.5t-47.5 -40.5t-82.5 -12q-62 0 -90 18.5z" />
         <glyph glyph-name="uni04D2" unicode="Ӓ" d="M494 0h-70l-13 207h-263l-101 -207h-73l392 800h75zM382 689l-203 -418h228zM280.5 917q-14.5 10 -14.5 32q0 11 3 24q6 31 21 42.5t48 11.5q31 0 45.5 -10.5t14.5 -32.5q0 -10 -3 -22q-7 -31 -22 -43t-48 -12q-30 0 -44.5 10zM496.5 917q-14.5 10 -14.5 32q0 11 3 24 q6 31 21 42.5t48 11.5q31 0 45.5 -10.5t14.5 -32.5q0 -10 -3 -22q-7 -31 -22 -43t-48 -12q-30 0 -44.5 10z" />
         <glyph glyph-name="uni04D4" unicode="Ӕ" d="M693 800l-13 -63h-219l-71 -328h144l-13 -64h-143l-61 -282h220l-14 -63h-288l54 253h-158l-120 -253h-72l380 800h374zM162 317h141l89 420h-31z" />
         <glyph glyph-name="uni04D6" unicode="Ӗ" d="M640 800l-13 -63h-375l-59 -282h239l-13 -64h-241l-68 -328h373l-13 -63h-443l170 800h443zM346 879.5q-28 18.5 -28 60.5q0 20 8 54h79q-22 -38 -22 -50q0 -11 12.5 -15t42.5 -4q45 0 62.5 10t17.5 35q0 15 -2 24h77q-10 -52 -27 -80.5t-47.5 -40.5t-82.5 -12 q-62 0 -90 18.5z" />
         <glyph glyph-name="uni04DC" unicode="Ӝ" d="M705 800l-274 -400h-2l105 -400h-75l-104 400h-1l-85 -400h-69l85 398l-273 -398h-78l274 400h2l-105 400h75l104 -400h1l85 400h69l-85 -398l273 398h78zM279.5 914q-14.5 10 -14.5 32q0 11 3 24q6 31 21 42.5t48 11.5q31 0 45.5 -10.5t14.5 -32.5q0 -10 -3 -22 q-7 -31 -22 -43t-48 -12q-30 0 -44.5 10zM495.5 914q-14.5 10 -14.5 32q0 11 3 24q6 31 21 42.5t48 11.5q31 0 45.5 -10.5t14.5 -32.5q0 -10 -3 -22q-7 -31 -22 -43t-48 -12q-30 0 -44.5 10z" />
         <glyph glyph-name="uni04DE" unicode="Ӟ" d="M84 15.5q-46 29.5 -46 100.5q0 38 10 82l68 -5q-8 -40 -8 -64q0 -45 29 -62.5t102 -17.5q64 0 102.5 15.5t61.5 52t37 101.5q11 53 11 83q0 47 -25 66.5t-86 23.5h-82l13 64h77q56 4 89.5 18t53.5 45.5t32 89.5q8 38 8 60q0 47 -29.5 65t-101.5 18q-66 0 -104 -12.5 t-59 -42t-32 -83.5l-68 5q16 77 45 118.5t80.5 59.5t138.5 18q106 0 152.5 -31t46.5 -103q0 -39 -10 -83q-16 -74 -43 -111.5t-85 -65.5q30 -18 44 -44.5t14 -67.5q0 -34 -13 -101q-18 -85 -49 -132.5t-83 -68t-137 -20.5q-108 0 -154 29.5zM260.5 914q-14.5 10 -14.5 32 q0 11 3 24q6 31 21 42.5t48 11.5q31 0 45.5 -10.5t14.5 -32.5q0 -10 -3 -22q-7 -31 -22 -43t-48 -12q-30 0 -44.5 10zM476.5 914q-14.5 10 -14.5 32q0 11 3 24q6 31 21 42.5t48 11.5q31 0 45.5 -10.5t14.5 -32.5q0 -10 -3 -22q-7 -31 -22 -43t-48 -12q-30 0 -44.5 10z" />
         <glyph glyph-name="uni04E2" unicode="Ӣ" d="M629 800l-1 -2l-170 -798h-69l138 650l-441 -650h-76l1 2l170 798h69l-138 -650l441 650h76zM571 897h-293l13 64h293z" />
         <glyph glyph-name="uni04E4" unicode="Ӥ" d="M629 800l-1 -2l-170 -798h-69l138 650l-441 -650h-76l1 2l170 798h69l-138 -650l441 650h76zM279.5 914q-14.5 10 -14.5 32q0 11 3 24q6 31 21 42.5t48 11.5q31 0 45.5 -10.5t14.5 -32.5q0 -10 -3 -22q-7 -31 -22 -43t-48 -12q-30 0 -44.5 10zM495.5 914 q-14.5 10 -14.5 32q0 11 3 24q6 31 21 42.5t48 11.5q31 0 45.5 -10.5t14.5 -32.5q0 -10 -3 -22q-7 -31 -22 -43t-48 -12q-30 0 -44.5 10z" />
         <glyph glyph-name="uni04E6" unicode="Ӧ" d="M90 28.5q-46 42.5 -46 141.5q0 71 25 193l17 80q30 142 68.5 222t97 114.5t149.5 34.5q102 0 148 -42.5t46 -141.5q0 -71 -25 -193l-17 -80q-31 -143 -69.5 -222.5t-96.5 -114t-149 -34.5q-102 0 -148 42.5zM352.5 78.5q44.5 29.5 76 97t56.5 187.5l17 80q24 113 24 179 q0 71 -29.5 100t-96.5 29q-69 0 -114 -29.5t-76 -97t-56 -187.5l-17 -80q-24 -112 -24 -178q0 -71 30 -100.5t96 -29.5q69 0 113.5 29.5zM280.5 917q-14.5 10 -14.5 32q0 11 3 24q6 31 21 42.5t48 11.5q31 0 45.5 -10.5t14.5 -32.5q0 -10 -3 -22q-7 -31 -22 -43t-48 -12 q-30 0 -44.5 10zM496.5 917q-14.5 10 -14.5 32q0 11 3 24q6 31 21 42.5t48 11.5q31 0 45.5 -10.5t14.5 -32.5q0 -10 -3 -22q-7 -31 -22 -43t-48 -12q-30 0 -44.5 10z" />
         <glyph glyph-name="uni04EC" unicode="Ӭ" d="M549 771.5q46 -42.5 46 -141.5q0 -71 -25 -193l-17 -80q-31 -143 -69.5 -222.5t-96.5 -114t-149 -34.5q-92 0 -138 34.5t-53 110.5l73 -5q10 -42 38 -59.5t81 -17.5q69 0 113.5 29.5t76 97t56.5 187.5l1 5h-245l13 64h246l2 11q24 113 24 179q0 71 -29.5 100t-96.5 29 q-58 0 -97 -19.5t-68 -62.5l-75 5q40 75 96.5 107.5t144.5 32.5q102 0 148 -42.5zM280.5 917q-14.5 10 -14.5 32q0 11 3 24q6 31 21 42.5t48 11.5q31 0 45.5 -10.5t14.5 -32.5q0 -10 -3 -22q-7 -31 -22 -43t-48 -12q-30 0 -44.5 10zM496.5 917q-14.5 10 -14.5 32q0 11 3 24 q6 31 21 42.5t48 11.5q31 0 45.5 -10.5t14.5 -32.5q0 -10 -3 -22q-7 -31 -22 -43t-48 -12q-30 0 -44.5 10z" />
         <glyph glyph-name="uni04EE" unicode="Ӯ" d="M602 800h72l-302 -617q-37 -75 -74.5 -117.5t-82.5 -61t-105 -18.5q-33 0 -54.5 7t-45.5 25l36 55q22 -14 35.5 -19t29.5 -5q43 0 72.5 10t54.5 35l-83 706h70l72 -620l18 36zM591 897h-293l13 64h293z" />
         <glyph glyph-name="uni04F0" unicode="Ӱ" d="M602 800h72l-302 -617q-37 -75 -74.5 -117.5t-82.5 -61t-105 -18.5q-33 0 -54.5 7t-45.5 25l36 55q22 -14 35.5 -19t29.5 -5q43 0 72.5 10t54.5 35l-83 706h70l72 -620l18 36zM299.5 914q-14.5 10 -14.5 32q0 11 3 24q6 31 21 42.5t48 11.5q31 0 45.5 -10.5t14.5 -32.5 q0 -10 -3 -22q-7 -31 -22 -43t-48 -12q-30 0 -44.5 10zM515.5 914q-14.5 10 -14.5 32q0 11 3 24q6 31 21 42.5t48 11.5q31 0 45.5 -10.5t14.5 -32.5q0 -10 -3 -22q-7 -31 -22 -43t-48 -12q-30 0 -44.5 10z" />
         <glyph glyph-name="uni04F2" unicode="Ӳ" d="M602 800h72l-302 -617q-37 -75 -74.5 -117.5t-82.5 -61t-105 -18.5q-33 0 -54.5 7t-45.5 25l36 55q22 -14 35.5 -19t29.5 -5q43 0 72.5 10t54.5 35l-83 706h70l72 -620l18 36zM462 993l-174 -130l-37 48l174 130zM661 993l-174 -130l-37 48l174 130z" />
         <glyph glyph-name="uni04F4" unicode="Ӵ" d="M611 800l-170 -800h-69l49 228q-25 -33 -63.5 -46.5t-90.5 -13.5q-93 0 -134.5 36.5t-41.5 123.5q0 64 21 160l67 312h69l-69 -318q-19 -89 -19 -144q0 -59 25.5 -83t82.5 -24q60 0 95.5 14t56.5 50t35 103l87 402h69zM280.5 914q-14.5 10 -14.5 32q0 11 3 24 q6 31 21 42.5t48 11.5q31 0 45.5 -10.5t14.5 -32.5q0 -10 -3 -22q-7 -31 -22 -43t-48 -12q-30 0 -44.5 10zM496.5 914q-14.5 10 -14.5 32q0 11 3 24q6 31 21 42.5t48 11.5q31 0 45.5 -10.5t14.5 -32.5q0 -10 -3 -22q-7 -31 -22 -43t-48 -12q-30 0 -44.5 10z" />
         <glyph glyph-name="uni04F8" unicode="Ӹ" d="M261 502q87 0 125.5 -31t38.5 -106q0 -48 -15 -120q-21 -96 -50 -148.5t-76 -74.5t-124 -22h-184l170 800h69l-63 -298h109zM423 0l170 800h69l-170 -800h-69zM355 351q0 48 -23.5 67.5t-78.5 19.5h-115l-79 -375h108q51 0 84 18t54.5 59.5t37.5 115.5q12 59 12 95z M279.5 914q-14.5 10 -14.5 32q0 11 3 24q6 31 21 42.5t48 11.5q31 0 45.5 -10.5t14.5 -32.5q0 -10 -3 -22q-7 -31 -22 -43t-48 -12q-30 0 -44.5 10zM495.5 914q-14.5 10 -14.5 32q0 11 3 24q6 31 21 42.5t48 11.5q31 0 45.5 -10.5t14.5 -32.5q0 -10 -3 -22q-7 -31 -22 -43 t-48 -12q-30 0 -44.5 10z" />
         <glyph glyph-name="uni0414.loclBGR" d="M441 800l41 -737h35l-32 -151h-69l18 88h-400l-18 -88h-69l31 151h34l354 737h75zM381 687l-299 -624h334z" />
         <glyph glyph-name="uni041B.loclBGR" d="M44 0h-71l393 800h75l53 -800h-68l-45 687z" />
         <glyph glyph-name="uni0424.loclBGR" d="M441 813q102 -7 148 -54.5t46 -151.5q0 -80 -28 -212q-32 -152 -74 -238.5t-105 -126t-162 -43.5l-22 -104h-69l22 104q-101 7 -147 55.5t-46 152.5q0 78 28 212q32 151 73.5 236.5t104.5 125t162 44.5l22 103h69zM566 595q0 78 -33 114t-105 41l-148 -699q71 7 119 44 t81.5 111.5t59.5 200.5q26 119 26 188zM74 206q0 -78 32 -114.5t104 -41.5l149 699q-72 -7 -119.5 -43.5t-81 -111t-59.5 -199.5q-25 -122 -25 -189z" />
         <glyph glyph-name="uni0430" unicode="а" d="M531 25q-13 -18 -41.5 -28.5t-58.5 -10.5q-34 0 -55 17.5t-22 44.5q0 31 5 41q-29 -47 -72 -75t-87 -28q-79 0 -127 49.5t-47 130.5q0 103 51.5 212.5t130.5 181.5t155 72q75 0 113 -22.5t38 -73.5q0 -15 -16.5 -97t-71.5 -334q-3 -16 -3 -29t7 -20t23 -7q12 0 24.5 8 t23.5 22zM312 107.5q53 58.5 82 150.5l12 58q41 189 42 214q-1 22 -20.5 30.5t-68.5 8.5q-55 0 -118 -64t-106 -158t-43 -177q1 -55 31.5 -88t80.5 -33q55 0 108 58.5z" />
         <glyph glyph-name="uni0431" unicode="б" d="M83.5 19q-46.5 33 -46.5 114q0 45 14 112l51 238q17 82 58.5 143t100.5 94.5t127 33.5q74 0 124.5 14t55.5 35l70 -6q-11 -49 -79.5 -77.5t-172.5 -28.5q-50 0 -95 -27t-76.5 -76t-44.5 -111l-11 -39q35 36 74 49.5t102 13.5q107 0 153.5 -33t46.5 -114q0 -48 -15 -116 q-21 -99 -53.5 -152.5t-86 -76.5t-142.5 -23q-108 0 -154.5 33zM346.5 67q40.5 18 65.5 60.5t42 121.5q12 56 12 92q0 54 -30.5 75t-102.5 21q-67 0 -107.5 -17.5t-65.5 -60.5t-42 -122q-12 -55 -12 -92q0 -54 30.5 -75t102.5 -21q67 0 107.5 18z" />
         <glyph glyph-name="uni0432" unicode="в" d="M156 20.5q-45 34.5 -67 93t-22 129.5q0 93 36.5 183t104.5 148t159 58q92 0 134 -26t42 -88q0 -19 -7 -56q-11 -51 -35 -80t-74 -46q43 -10 62 -34.5t19 -67.5q0 -30 -7 -64q-14 -70 -41.5 -110t-73 -57t-119.5 -17q-66 0 -111 34.5zM293 364q86 0 125 25.5t51 83.5 q4 17 4 35q0 35 -24.5 48t-85.5 13q-62 0 -107 -33t-71 -80t-36 -92h144zM385.5 78q34.5 29 49.5 103q5 28 5 44q0 42 -29 58.5t-101 16.5h-175q-6 -30 -6 -68q0 -76 34.5 -129.5t115.5 -53.5q72 0 106.5 29z" />
         <glyph glyph-name="uni0433" unicode="г" d="M85.5 24q-48.5 38 -48.5 103q0 21 4 38q11 50 47.5 84t82.5 53.5t118 42.5q81 26 122 48t49 58q3 14 3 26q0 42 -31.5 67t-86.5 25t-98 -37.5t-58 -98.5l-66 17q20 82 81 132t141 50q87 0 137 -39.5t50 -107.5q0 -22 -6 -48q-11 -45 -44 -74.5t-75 -47t-109 -38.5 q-59 -18 -95 -32.5t-62.5 -37.5t-33.5 -56q-2 -14 -2 -19q0 -38 31 -60.5t83 -22.5q67 0 118.5 39.5t69.5 103.5l68 -11q-21 -88 -91.5 -141.5t-164.5 -53.5q-85 0 -133.5 38z" />
         <glyph glyph-name="uni0453" unicode="ѓ" d="M85.5 24q-48.5 38 -48.5 103q0 21 4 38q11 50 47.5 84t82.5 53.5t118 42.5q81 26 122 48t49 58q3 14 3 26q0 42 -31.5 67t-86.5 25t-98 -37.5t-58 -98.5l-66 17q20 82 81 132t141 50q87 0 137 -39.5t50 -107.5q0 -22 -6 -48q-11 -45 -44 -74.5t-75 -47t-109 -38.5 q-59 -18 -95 -32.5t-62.5 -37.5t-33.5 -56q-2 -14 -2 -19q0 -38 31 -60.5t83 -22.5q67 0 118.5 39.5t69.5 103.5l68 -11q-21 -88 -91.5 -141.5t-164.5 -53.5q-85 0 -133.5 38zM544 811l-174 -130l-37 48l175 130z" />
         <glyph glyph-name="uni0491" unicode="ґ" d="M534 618l27 133h69l-27 -133l-14 -63h-375l-117 -555h-69l132 618h374z" />
         <glyph glyph-name="uni0434" unicode="д" d="M83.5 20q-46.5 34 -46.5 116q0 44 14 111q21 97 53.5 150.5t86.5 76.5t143 23q62 0 96 -13.5t56 -46.5q3 35 -15.5 91t-53.5 101q-30 31 -72 62.5t-82 54.5l37 55q35 -16 74 -44.5t65 -59.5q117 -122 117 -259q0 -34 -7 -65l-29 -135q-20 -98 -52.5 -152t-86.5 -77 t-143 -23q-108 0 -154.5 34zM346.5 67q40.5 18 65.5 60t41 119q12 54 12 90q0 54 -30.5 75.5t-102.5 21.5q-67 0 -107.5 -18t-65.5 -60t-41 -119q-12 -54 -12 -89q0 -55 30.5 -76.5t102.5 -21.5q67 0 107.5 18z" />
         <glyph glyph-name="uni0435" unicode="е" d="M128 299q-16 -76 -16 -129q0 -66 30.5 -93.5t99.5 -27.5q59 0 97.5 18.5t87.5 68.5l50 -41q-57 -63 -108 -86t-128 -23q-105 0 -151.5 39.5t-46.5 132.5q0 62 20 157q25 121 61.5 189t93.5 98t147 30q97 0 140.5 -38.5t43.5 -128.5q0 -64 -23 -168zM260.5 549.5 q-41.5 -19.5 -69.5 -64t-48 -122.5l327 3q8 56 8 89q0 63 -26 88.5t-88 25.5t-103.5 -19.5z" />
         <glyph glyph-name="uni0450" unicode="ѐ" d="M128 299q-16 -76 -16 -129q0 -66 30.5 -93.5t99.5 -27.5q59 0 97.5 18.5t87.5 68.5l50 -41q-57 -63 -108 -86t-128 -23q-105 0 -151.5 39.5t-46.5 132.5q0 62 20 157q25 121 61.5 189t93.5 98t147 30q97 0 140.5 -38.5t43.5 -128.5q0 -64 -23 -168zM260.5 549.5 q-41.5 -19.5 -69.5 -64t-48 -122.5l327 3q8 56 8 89q0 63 -26 88.5t-88 25.5t-103.5 -19.5zM426 729l-54 -48l-124 130l54 48z" />
         <glyph glyph-name="uni0451" unicode="ё" d="M128 299q-16 -76 -16 -129q0 -66 30.5 -93.5t99.5 -27.5q59 0 97.5 18.5t87.5 68.5l50 -41q-57 -63 -108 -86t-128 -23q-105 0 -151.5 39.5t-46.5 132.5q0 62 20 157q25 121 61.5 189t93.5 98t147 30q97 0 140.5 -38.5t43.5 -128.5q0 -64 -23 -168zM260.5 549.5 q-41.5 -19.5 -69.5 -64t-48 -122.5l327 3q8 56 8 89q0 63 -26 88.5t-88 25.5t-103.5 -19.5zM221.5 732q-14.5 10 -14.5 32q0 11 3 24q6 31 21 42.5t48 11.5q31 0 45.5 -10.5t14.5 -32.5q0 -10 -3 -22q-7 -31 -22 -43t-48 -12q-30 0 -44.5 10zM437.5 732q-14.5 10 -14.5 32 q0 11 3 24q6 31 21 42.5t48 11.5q31 0 45.5 -10.5t14.5 -32.5q0 -10 -3 -22q-7 -31 -22 -43t-48 -12q-30 0 -44.5 10z" />
         <glyph glyph-name="uni0436" unicode="ж" d="M649 618q-98 -95 -149.5 -168.5t-66.5 -140.5q-5 -21 -5 -53q0 -56 21.5 -116.5t62.5 -139.5h-76q-76 139 -76 245q0 11 2 31h-32l-61 -276h-69l60 276h-31q-41 -129 -193 -276h-85q94 89 148 164t72 145q7 28 7 59q0 56 -22.5 117t-66.5 133h79q77 -133 77 -243 q0 -11 -2 -35h31l61 278h70l-61 -278h31q37 128 193 278h81z" />
         <glyph glyph-name="uni0437" unicode="з" d="M78.5 10.5q-47.5 24.5 -47.5 84.5q0 18 7 53l68 -5q-4 -16 -4 -31q0 -36 31 -49.5t106 -13.5q63 0 100.5 10.5t58.5 34t30 64.5q5 28 5 44q0 39 -26.5 56.5t-90.5 22.5h-81l13 64h77q81 5 118.5 33t50.5 94q4 16 4 32q0 36 -31 50.5t-106 14.5q-92 0 -133 -21t-52 -73 l-68 5q13 60 40.5 92.5t77.5 46t136 13.5q111 0 158.5 -25.5t47.5 -87.5q0 -27 -7 -58q-13 -59 -38 -91t-84 -60q33 -20 48 -43.5t15 -58.5q0 -24 -8 -61q-13 -63 -41 -97.5t-78.5 -49t-136.5 -14.5q-112 0 -159.5 24.5z" />
         <glyph glyph-name="uni0438" unicode="и" d="M40 593q13 18 41.5 28.5t58.5 10.5q36 0 56.5 -18.5t20.5 -49.5q0 -45 -21 -140t-58 -208q-17 -54 -17 -87q0 -80 85 -80q41 0 88.5 44.5t85 110t49.5 123.5l61 291h69l-112 -524q-2 -10 -2 -15q0 -14 8 -22t22 -8q20 0 48 27l30 -51q-13 -18 -41.5 -28.5t-58.5 -10.5 q-33 0 -56 20.5t-23 53.5q0 11 3 24l14 56q-45 -73 -93 -113.5t-97 -40.5q-73 0 -111 32t-38 96q0 49 20 109q35 108 56 191t21 123q0 15 -8 23.5t-23 8.5q-12 0 -24.5 -8t-23.5 -22z" />
         <glyph glyph-name="uni0439" unicode="й" d="M40 593q13 18 41.5 28.5t58.5 10.5q36 0 56.5 -18.5t20.5 -49.5q0 -45 -21 -140t-58 -208q-17 -54 -17 -87q0 -80 85 -80q41 0 88.5 44.5t85 110t49.5 123.5l61 291h69l-112 -524q-2 -10 -2 -15q0 -14 8 -22t22 -8q20 0 48 27l30 -51q-13 -18 -41.5 -28.5t-58.5 -10.5 q-33 0 -56 20.5t-23 53.5q0 11 3 24l14 56q-45 -73 -93 -113.5t-97 -40.5q-73 0 -111 32t-38 96q0 49 20 109q35 108 56 191t21 123q0 15 -8 23.5t-23 8.5q-12 0 -24.5 -8t-23.5 -22zM287 694.5q-28 18.5 -28 60.5q0 20 8 54h79q-22 -38 -22 -50q0 -11 12.5 -15t42.5 -4 q45 0 62.5 10t17.5 35q0 15 -2 24h77q-10 -52 -27 -80.5t-47.5 -40.5t-82.5 -12q-62 0 -90 18.5z" />
         <glyph glyph-name="uni045D" unicode="ѝ" d="M40 593q13 18 41.5 28.5t58.5 10.5q36 0 56.5 -18.5t20.5 -49.5q0 -45 -21 -140t-58 -208q-17 -54 -17 -87q0 -80 85 -80q41 0 88.5 44.5t85 110t49.5 123.5l61 291h69l-112 -524q-2 -10 -2 -15q0 -14 8 -22t22 -8q20 0 48 27l30 -51q-13 -18 -41.5 -28.5t-58.5 -10.5 q-33 0 -56 20.5t-23 53.5q0 11 3 24l14 56q-45 -73 -93 -113.5t-97 -40.5q-73 0 -111 32t-38 96q0 49 20 109q35 108 56 191t21 123q0 15 -8 23.5t-23 8.5q-12 0 -24.5 -8t-23.5 -22zM440 729l-54 -48l-124 130l54 48z" />
         <glyph glyph-name="uni043A" unicode="к" d="M631 617q-54 -29 -92 -67t-86 -97q-49 -61 -85 -94t-87 -49l211 -310h-83l-204 299h-69l-64 -299h-69l132 618h69l-54 -255h48q47 1 83 19t61 43.5t61 69.5q36 45 63 73t63 51z" />
         <glyph glyph-name="uni045C" unicode="ќ" d="M631 617q-54 -29 -92 -67t-86 -97q-49 -61 -85 -94t-87 -49l211 -310h-83l-204 299h-69l-64 -299h-69l132 618h69l-54 -255h48q47 1 83 19t61 43.5t61 69.5q36 45 63 73t63 51zM544 811l-174 -130l-37 48l175 130z" />
         <glyph glyph-name="uni043B" unicode="л" d="M541 42q-4 -5 -24.5 -28t-36 -30t-34.5 -7q-53 0 -53 86q0 42 10.5 98.5t29.5 139.5q19 84 27.5 131t8.5 81q0 64 -37 64q-32 0 -64 -42t-59.5 -103t-68.5 -164q-57 -144 -96.5 -217.5t-80.5 -73.5q-35 0 -57.5 20.5t-41.5 66.5l64 24q12 -28 19.5 -37.5t15.5 -9.5 q0 1 20 28t81 181t101.5 235.5t79.5 118.5t87 37q97 0 97 -140q0 -52 -11 -114.5t-30 -144.5q-19 -81 -28.5 -141t-5.5 -60q5 0 13.5 9.5t14 17.5t9.5 13z" />
         <glyph glyph-name="uni043C" unicode="м" d="M54 0h-70l147 618h54l99 -374l260 374h58l-118 -618h-69l84 442l-198 -280h-63l-78 280z" />
         <glyph glyph-name="uni043D" unicode="н" d="M469 364l54 254h69l-132 -618h-69l64 300h-313l-64 -300h-69l132 618h69l-54 -254h313z" />
         <glyph glyph-name="uni043E" unicode="о" d="M99 24.5q-43 38.5 -43 127.5q0 65 21 163q26 121 60 189t87.5 98t137.5 30q96 0 139 -38.5t43 -127.5q0 -65 -21 -163q-26 -121 -60 -189t-87.5 -98t-137.5 -30q-96 0 -139 38.5zM340.5 74q39.5 25 67 82t49.5 159q19 93 19 142q0 61 -27 86.5t-88 25.5q-62 0 -101.5 -25 t-67 -82t-49.5 -159q-19 -93 -19 -142q0 -61 27 -86.5t88 -25.5q62 0 101.5 25z" />
         <glyph glyph-name="uni043F" unicode="п" d="M553 25q-14 -18 -42 -28.5t-58 -10.5q-35 0 -56 18t-22 47q0 44 21.5 140.5t58.5 210.5q17 51 17 89q0 78 -75 78q-42 0 -92 -44.5t-89.5 -110.5t-51.5 -123l-61 -291h-69l112 524q2 10 2 15q0 14 -8 22t-22 8q-20 0 -48 -27l-30 51q13 18 41.5 28.5t58.5 10.5 q33 0 56 -20t23 -53q0 -13 -4 -25l-13 -56q43 71 96.5 112.5t103.5 41.5q68 0 104 -31.5t36 -94.5q0 -46 -21 -111q-80 -245 -77 -319q0 -13 8.5 -20t22.5 -7q11 0 24 8.5t23 21.5z" />
         <glyph glyph-name="uni0440" unicode="р" d="M-23 -182l171 800h69l-11 -37q29 28 69 39.5t94 11.5q97 0 140 -38.5t43 -128.5q0 -58 -21 -161q-26 -121 -60.5 -189.5t-88 -98.5t-137.5 -30q-119 0 -146 73l-52 -241h-70zM347.5 74q39.5 25 67 82.5t49.5 159.5q19 93 19 141q0 61 -27 86.5t-88 25.5q-74 0 -122.5 -20 t-57.5 -62l-59 -279q-7 -37 -7 -56q0 -54 31.5 -78.5t92.5 -24.5q62 0 101.5 25z" />
         <glyph glyph-name="uni0441" unicode="с" d="M102 25.5q-47 39.5 -47 132.5q0 62 20 157q25 121 62 189t95.5 98t151.5 30q79 0 119 -25.5t70 -90.5l-62 -30q-22 49 -48.5 66t-79.5 17q-72 0 -117 -24.5t-74 -82t-51 -159.5q-18 -82 -18 -135q0 -66 31 -92.5t103 -26.5q56 0 93.5 19t83.5 69l53 -39 q-57 -64 -106.5 -88t-124.5 -24q-107 0 -154 39.5z" />
         <glyph glyph-name="uni0442" unicode="т" d="M431.5 4.5q-20.5 18.5 -20.5 49.5q0 79 81 347q26 84 26 125q0 22 -7.5 32.5t-23.5 10.5q-40 0 -64.5 -21.5t-44.5 -79t-44 -173.5l-61 -295h-68l84 400q9 42 15.5 77t6.5 53q0 21 -8 30t-26 9q-35 0 -56 -20t-40 -77t-45 -179l-62 -293h-68l112 524q2 10 2 15 q0 14 -7 22t-21 8q-10 0 -23.5 -7t-26.5 -20l-30 51q13 18 41.5 28.5t58.5 10.5q66 0 66 -72q49 72 104 72q38 0 56 -13t22.5 -30.5t5.5 -48.5q30 48 58.5 70t66.5 22q94 0 94 -96q0 -57 -29 -141q-37 -109 -57 -194t-19 -125q0 -13 8 -20t22 -7q12 0 25 8t23 22l30 -54 q-13 -18 -41.5 -28.5t-58.5 -10.5q-36 0 -56.5 18.5z" />
         <glyph glyph-name="uni0443" unicode="у" d="M-21.5 -189q-21.5 7 -45.5 25l36 55q22 -14 35.5 -19t29.5 -5q63 0 104 30.5t85 111.5l-70 609h70l55 -516l278 516h74l-336 -617q-42 -76 -79.5 -118.5t-80 -60.5t-101.5 -18q-33 0 -54.5 7z" />
         <glyph glyph-name="uni045E" unicode="ў" d="M-21.5 -189q-21.5 7 -45.5 25l36 55q22 -14 35.5 -19t29.5 -5q63 0 104 30.5t85 111.5l-70 609h70l55 -516l278 516h74l-336 -617q-42 -76 -79.5 -118.5t-80 -60.5t-101.5 -18q-33 0 -54.5 7zM257 694.5q-28 18.5 -28 60.5q0 20 8 54h79q-22 -38 -22 -50q0 -11 12.5 -15 t42.5 -4q45 0 62.5 10t17.5 35q0 15 -2 24h77q-10 -52 -27 -80.5t-47.5 -40.5t-82.5 -12q-62 0 -90 18.5z" />
         <glyph glyph-name="uni0444" unicode="ф" d="M397 600q93 -5 134.5 -43.5t41.5 -121.5q0 -52 -17 -132q-22 -105 -55.5 -165.5t-87.5 -88.5t-140 -31l-42 -200h-69l42 200q-93 6 -135 44.5t-42 121.5q0 52 17 131q22 105 55.5 165t88 88t140.5 32l42 200h69zM504 423q0 58 -28.5 84t-92.5 29l-96 -453q60 5 98 29 t63 72.5t42 130.5q14 67 14 108zM96 196q0 -59 28.5 -84.5t93.5 -29.5l96 453q-60 -5 -98.5 -29t-63.5 -72.5t-42 -130.5q-14 -67 -14 -107z" />
         <glyph glyph-name="uni0445" unicode="х" d="M519 618h77l-256 -308l126 -310h-80l-100 246l-205 -246h-77l256 308l-126 310h80l100 -246z" />
         <glyph glyph-name="uni0447" unicode="ч" d="M384.5 2q-23.5 16 -23.5 42q0 7 1 11l56 252q-42 -67 -91 -107.5t-93 -40.5q-68 0 -101 27.5t-33 85.5q0 46 23 120q5 16 9 27.5t7 19.5q12 32 18.5 56t6.5 49q0 11 -7.5 18t-20.5 7q-12 0 -24.5 -8t-21.5 -21l-35 54q13 16 41 27t58 11q36 0 58.5 -18.5t22.5 -48.5 q0 -34 -8.5 -67t-27.5 -92l-8 -24q-23 -71 -23 -104q0 -29 16.5 -42t50.5 -13q38 0 87 45t88.5 112t51.5 125l23 113h69l-120 -546q-1 -10 6.5 -16.5t20.5 -6.5q12 0 24.5 8t21.5 21l35 -54q-13 -16 -41 -27t-58 -11q-35 0 -58.5 16z" />
         <glyph glyph-name="uni0446" unicode="ц" d="M523 76l30 -51q-17 -23 -57 -33q-1 -29 -18 -56t-47 -47q-17 -12 -38 -18.5t-39 -6.5q-12 0 -21 3l-2 67q11 -4 25 -4q25 0 38 12q32 25 30 49q-23 8 -36.5 26t-13.5 43q0 11 3 24l14 56q-45 -73 -93 -113.5t-97 -40.5q-73 0 -111 32t-38 96q0 49 20 109q35 108 56 191 t21 123q0 15 -8 23.5t-23 8.5q-12 0 -24.5 -8t-23.5 -22l-30 54q13 18 41.5 28.5t58.5 10.5q36 0 56.5 -18.5t20.5 -49.5q0 -45 -21 -140t-58 -208q-17 -54 -17 -87q0 -80 85 -80q41 0 88.5 44.5t85 110t49.5 123.5l61 291h69l-112 -524q-2 -10 -2 -15q0 -14 8 -22t22 -8 q20 0 48 27z" />
         <glyph glyph-name="uni0448" unicode="ш" d="M163 613.5q21 -18.5 21 -49.5q0 -79 -81 -347q-26 -84 -26 -125q0 -22 7.5 -32.5t23.5 -10.5q40 0 64 21.5t44 79t44 173.5l62 295h68l-84 -400l-5 -24q-18 -79 -18 -106q0 -20 8 -29.5t26 -9.5q36 0 57 20t40 77t45 179l62 293h68l-112 -524q-2 -10 -2 -15q0 -14 7 -22 t20 -8q23 0 51 27l30 -51q-13 -18 -41.5 -28.5t-58.5 -10.5q-66 0 -66 72q-49 -72 -104 -72q-38 0 -56.5 13t-23 31t-5.5 48q-29 -48 -58 -70t-67 -22q-94 0 -94 96q0 54 30 141q37 111 57 195.5t19 123.5q0 12 -8.5 19.5t-21.5 7.5q-12 0 -25 -8t-23 -22l-31 54 q14 18 42 28.5t58 10.5q36 0 57 -18.5z" />
         <glyph glyph-name="uni0449" unicode="щ" d="M531.5 56q13.5 7 26.5 20l30 -51q-13 -17 -43 -29q2 -30 -15 -58t-49 -49q-17 -12 -38 -18.5t-39 -6.5q-12 0 -21 3l-2 67q11 -4 25 -4q25 0 38 12q28 22 30 45q-52 8 -52 71q-49 -72 -104 -72q-38 0 -56 13t-22.5 30.5t-5.5 48.5q-30 -48 -58.5 -70t-66.5 -22 q-94 0 -94 96q0 57 29 141q37 109 57 194t19 125q0 13 -8 20t-22 7q-12 0 -25 -8t-23 -22l-30 54q13 18 41.5 28.5t58.5 10.5q36 0 56.5 -18.5t20.5 -49.5q0 -79 -81 -347q-26 -87 -26 -125q0 -43 32 -43q39 0 63.5 21.5t44.5 79t44 173.5l61 295h68l-84 -400 q-9 -42 -15.5 -77t-6.5 -53q0 -21 8 -30t26 -9q35 0 56 20t40 77t45 179l62 293h68l-112 -524q-2 -10 -2 -15q0 -14 7 -22t21 -8q10 0 23.5 7z" />
         <glyph glyph-name="uni045F" unicode="џ" d="M40 593q13 18 41.5 28.5t58.5 10.5q36 0 56.5 -18.5t20.5 -49.5q0 -45 -21 -140t-58 -208q-17 -54 -17 -87q0 -80 85 -80q41 0 88.5 44.5t85 110t49.5 123.5l61 291h69l-112 -524q-2 -10 -2 -15q0 -14 8 -22t22 -8q20 0 48 27l30 -51q-13 -18 -41.5 -28.5t-58.5 -10.5 q-33 0 -56 20.5t-23 53.5q0 11 3 24l14 56q-45 -73 -93 -113.5t-97 -40.5q-73 0 -111 32t-38 96q0 49 20 109q35 108 56 191t21 123q0 15 -8 23.5t-23 8.5q-12 0 -24.5 -8t-23.5 -22zM247 -41h-69l-26 -119h69z" />
         <glyph glyph-name="uni044C" unicode="ь" d="M336 396q104 0 148.5 -28t44.5 -98q0 -33 -9 -78q-16 -75 -45 -116t-80 -58.5t-138 -17.5h-226l132 618h69l-47 -222h151zM459 254q0 44 -29.5 61t-101.5 17h-157l-57 -269h151q60 0 97 13t58.5 43.5t32.5 83.5q6 30 6 51z" />
         <glyph glyph-name="uni044A" unicode="ъ" d="M359 396q104 0 149 -28t45 -97q0 -29 -10 -79q-16 -75 -44.5 -116t-79.5 -58.5t-138 -17.5h-227l119 555h-114l14 63h182l-13 -63l-34 -159h151zM483 255q0 43 -30 60t-101 17h-157l-57 -269h150q60 0 97 13t58.5 43.5t32.5 83.5q7 35 7 52z" />
         <glyph glyph-name="uni044B" unicode="ы" d="M238 396q91 0 131 -27t40 -93q0 -32 -11 -84q-16 -75 -42.5 -116t-72 -58.5t-123.5 -17.5h-184l132 618h69l-47 -222h108zM423 0l132 618h69l-132 -618h-69zM339 260q0 41 -24.5 56.5t-83.5 15.5h-115l-57 -269h108q76 0 112 30.5t53 109.5q7 31 7 57z" />
         <glyph glyph-name="uni0459" unicode="љ" d="M444 396q72 0 104.5 -25t32.5 -86q0 -37 -12 -93q-16 -75 -39 -116t-61.5 -58.5t-102.5 -17.5h-124l119 555h-80q-73 -262 -113 -368t-89 -146.5t-141 -40.5l7 64q60 0 97.5 38t78.5 151.5t110 367.5l34 -3h178l-47 -222h48zM512 271q0 34 -17.5 47.5t-57.5 13.5h-54 l-57 -269h48q54 0 83 31t45 109q10 47 10 68z" />
         <glyph glyph-name="uni045A" unicode="њ" d="M429 396q81 0 116 -26t35 -89q0 -34 -11 -89q-16 -76 -40.5 -116.5t-66 -58t-111.5 -17.5h-155l71 332h-176l-71 -332h-69l132 618h69l-47 -222h176l47 222h69l-47 -222h79zM511 266q0 37 -20.5 51.5t-68.5 14.5h-85l-57 -269h79q63 0 95 31t48 109q9 38 9 63z" />
         <glyph glyph-name="uni0455" unicode="ѕ" d="M99.5 11q-37.5 25 -59.5 88l61 39q14 -53 37 -71t76 -18q75 0 119.5 12t68 39t34.5 76q4 17 4 35q0 37 -29.5 54.5t-104.5 27.5q-96 11 -140 42t-44 86q0 17 5 40q14 66 42.5 102.5t80 52.5t137.5 16q79 0 119 -21t65 -75l-58 -44q-17 46 -43 61.5t-84 15.5 q-65 0 -103.5 -11t-59 -37t-30.5 -71q-2 -14 -2 -19q0 -30 27.5 -47t92.5 -27q107 -15 152.5 -45t45.5 -91q0 -19 -7 -56q-15 -69 -46.5 -107.5t-89 -55t-153.5 -16.5q-76 0 -113.5 25z" />
         <glyph glyph-name="uni0454" unicode="є" d="M249 548q-43 -21 -69.5 -69t-44.5 -133l-1 -5h244l-13 -64h-245l-2 -11q-14 -67 -14 -108q0 -60 31.5 -84.5t103.5 -24.5q63 0 98 16t62 56l77 -5q-27 -51 -57 -79t-72.5 -39.5t-108.5 -11.5q-109 0 -157 36t-48 121q0 50 17 129l17 80q23 110 57.5 169.5t90 85 t147.5 25.5q69 0 109 -13t59.5 -42t25.5 -80l-71 5q-10 39 -36.5 53t-87.5 14q-69 0 -112 -21z" />
         <glyph glyph-name="uni044D" unicode="э" d="M519 596q48 -36 48 -123q0 -47 -16 -127l-17 -80q-23 -109 -57.5 -169t-90.5 -85.5t-148 -25.5q-69 0 -109 13t-59.5 42t-25.5 80l73 -5q10 -39 36 -53t86 -14q68 0 111.5 21t70.5 69t45 133l1 5h-245l13 64h246l2 11q14 67 14 107q0 61 -31.5 85.5t-104.5 24.5 q-64 0 -99.5 -16t-62.5 -56l-75 5q27 51 57 79t72.5 39.5t108.5 11.5q109 0 157 -36z" />
         <glyph glyph-name="uni0456" unicode="і" d="M427 618l-119 -555h175l-13 -63h-419l13 63h175l104 492h-125l14 63h195zM359.5 745.5q-13.5 8.5 -13.5 29.5q0 11 3 26q7 31 22 43t48 12q31 0 44.5 -9t13.5 -30q0 -10 -3 -25q-7 -31 -22 -43t-48 -12q-31 0 -44.5 8.5z" />
         <glyph glyph-name="uni0457" unicode="ї" d="M427 618l-119 -555h175l-13 -63h-419l13 63h175l104 492h-125l14 63h195zM249.5 732q-14.5 10 -14.5 32q0 11 3 24q6 31 21 42.5t48 11.5q31 0 45.5 -10.5t14.5 -32.5q0 -10 -3 -22q-7 -31 -22 -43t-48 -12q-30 0 -44.5 10zM465.5 732q-14.5 10 -14.5 32q0 11 3 24 q6 31 21 42.5t48 11.5q31 0 45.5 -10.5t14.5 -32.5q0 -10 -3 -22q-7 -31 -22 -43t-48 -12q-30 0 -44.5 10z" />
         <glyph glyph-name="uni0458" unicode="ј" d="M42.5 -181.5q-33.5 14.5 -59.5 51.5l56 40q19 -25 39 -34t60 -9q60 0 97.5 17.5t60.5 59t38 115.5l106 496h-126l14 63h195l-121 -565q-20 -97 -51 -150t-81.5 -76t-132.5 -23q-61 0 -94.5 14.5zM449.5 745.5q-13.5 8.5 -13.5 29.5q0 11 3 26q7 31 22 43t48 12 q31 0 44.5 -9t13.5 -30q0 -10 -3 -25q-7 -31 -22 -43t-48 -12q-31 0 -44.5 8.5z" />
         <glyph glyph-name="uni045B" unicode="ћ" d="M506.5 595.5q41.5 -36.5 41.5 -123.5q0 -63 -21 -159l-66 -313h-69l68 318q19 89 19 144q0 59 -25.5 83t-82.5 24q-60 0 -95.5 -14t-56.5 -49.5t-35 -102.5l-86 -403h-69l143 673h-74l13 63h74l14 64h69l-14 -64h118l-13 -63h-119l-22 -101q25 33 63.5 46.5t90.5 13.5 q93 0 134.5 -36.5z" />
         <glyph glyph-name="uni044E" unicode="ю" d="M574 599q38 -33 38 -112q0 -55 -18 -141l-17 -80q-23 -110 -53.5 -169.5t-77 -85t-121.5 -25.5q-87 0 -125 33t-38 112q0 56 18 141l1 5h-93l-59 -277h-70l133 618h69l-59 -277h93l2 11q23 110 53.5 169.5t77 85t121.5 25.5q87 0 125 -33zM526 352q17 80 17 124 q0 51 -22.5 72t-72.5 21q-52 0 -85.5 -21t-56.5 -69t-41 -133l-17 -80q-17 -80 -17 -124q0 -51 22.5 -72t72.5 -21q52 0 85.5 21t56.5 69t41 133z" />
         <glyph glyph-name="uni044F" unicode="я" d="M578 618l-132 -618h-69l55 257h-98l-275 -257h-88l275 258q-86 4 -124 31t-38 87q0 25 8 67q15 68 43 105.5t78.5 53.5t137.5 16h227zM445 320l50 235h-152q-60 0 -96.5 -11.5t-57 -38t-30.5 -73.5q-5 -27 -5 -41q0 -40 30 -55.5t104 -15.5h157z" />
         <glyph glyph-name="uni0452" unicode="ђ" d="M506.5 595.5q41.5 -36.5 41.5 -123.5q0 -63 -21 -159l-66 -313q-15 -67 -36.5 -101.5t-58.5 -48t-101 -13.5l13 63q40 0 59.5 6t32 26.5t22.5 67.5l68 318q19 89 19 144q0 59 -25.5 83t-82.5 24q-60 0 -95.5 -14t-56.5 -49.5t-35 -102.5l-86 -403h-69l143 673h-74l13 63 h74l14 64h69l-14 -64h118l-13 -63h-119l-22 -101q25 33 63.5 46.5t90.5 13.5q93 0 134.5 -36.5z" />
         <glyph glyph-name="uni0463" unicode="ѣ" d="M336 396q104 0 148.5 -28t44.5 -98q0 -33 -9 -78q-16 -75 -45 -116t-80 -58.5t-138 -17.5h-226l115 542h-80l13 64h81l41 194h69l-41 -194h189l-13 -64h-190l-31 -146h152zM459 254q0 44 -29.5 61t-101.5 17h-157l-57 -269h151q60 0 97 13t58.5 43.5t32.5 83.5q6 30 6 51 z" />
         <glyph glyph-name="uni046B" unicode="ѫ" d="M634 555h1l-222 -218q41 -24 59.5 -77.5t20.5 -146.5q2 -47 7 -66t22 -49l-68 4q-14 24 -19 46t-7 72q-5 89 -26.5 128.5t-70.5 46.5l-62 -295h-69l62 294q-51 -10 -90 -52.5t-80 -131.5q-24 -48 -37.5 -68t-36.5 -44l-75 4q31 30 45 51t35 71q43 92 84 143t92 73 l-127 215h-1l14 63h563zM552 555h-402l116 -197q28 2 42 2l-4 -31h1l3 31q23 0 44 -3z" />
         <glyph glyph-name="uni0499" unicode="ҙ" d="M520.5 606.5q47.5 -25.5 47.5 -87.5q0 -27 -7 -58q-13 -59 -38 -91t-84 -60q33 -20 48 -43.5t15 -58.5q0 -24 -8 -61q-12 -59 -37 -93t-69 -49.5t-117 -17.5l-8 -30q28 -7 44 -25t16 -43q0 -10 -1 -15q-8 -40 -42.5 -63.5t-84.5 -23.5q-31 0 -56 10.5t-37 26.5l35 49 q9 -10 25.5 -16.5t33.5 -6.5q23 0 39.5 10t19.5 25q3 12 -15 18.5t-51 6.5l15 77q-93 3 -132.5 28t-39.5 80q0 23 6 53l68 -5q-4 -16 -4 -31q0 -36 31 -49.5t106 -13.5q63 0 100.5 10.5t58.5 34t30 64.5q5 28 5 44q0 39 -26.5 56.5t-90.5 22.5h-81l13 64h77q81 5 118.5 33 t50.5 94q4 16 4 32q0 36 -31 50.5t-106 14.5q-92 0 -133 -21t-52 -73l-68 5q13 60 40.5 92.5t77.5 46t136 13.5q111 0 158.5 -25.5z" />
         <glyph glyph-name="uni04BB" unicode="һ" d="M29 0l170 800h69l-50 -228q25 33 63.5 46.5t90.5 13.5q93 0 134.5 -36.5t41.5 -123.5q0 -63 -21 -159l-66 -313h-69l68 318q19 89 19 144q0 59 -25.5 83t-82.5 24q-60 0 -95.5 -14t-56.5 -49.5t-35 -102.5l-86 -403h-69z" />
         <glyph glyph-name="uni04C2" unicode="ӂ" d="M649 618q-98 -95 -149.5 -168.5t-66.5 -140.5q-5 -21 -5 -53q0 -56 21.5 -116.5t62.5 -139.5h-76q-76 139 -76 245q0 11 2 31h-32l-61 -276h-69l60 276h-31q-41 -129 -193 -276h-85q94 89 148 164t72 145q7 28 7 59q0 56 -22.5 117t-66.5 133h79q77 -133 77 -243 q0 -11 -2 -35h31l61 278h70l-61 -278h31q37 128 193 278h81zM293 694.5q-28 18.5 -28 60.5q0 20 8 54h79q-22 -38 -22 -50q0 -11 12.5 -15t42.5 -4q45 0 62.5 10t17.5 35q0 15 -2 24h77q-10 -52 -27 -80.5t-47.5 -40.5t-82.5 -12q-62 0 -90 18.5z" />
         <glyph glyph-name="uni04D1" unicode="ӑ" d="M531 25q-13 -18 -41.5 -28.5t-58.5 -10.5q-34 0 -55 17.5t-22 44.5q0 31 5 41q-29 -47 -72 -75t-87 -28q-79 0 -127 49.5t-47 130.5q0 103 51.5 212.5t130.5 181.5t155 72q75 0 113 -22.5t38 -73.5q0 -15 -16.5 -97t-71.5 -334q-3 -16 -3 -29t7 -20t23 -7q12 0 24.5 8 t23.5 22zM312 107.5q53 58.5 82 150.5l12 58q41 189 42 214q-1 22 -20.5 30.5t-68.5 8.5q-55 0 -118 -64t-106 -158t-43 -177q1 -55 31.5 -88t80.5 -33q55 0 108 58.5zM293 694.5q-28 18.5 -28 60.5q0 20 8 54h79q-22 -38 -22 -50q0 -11 12.5 -15t42.5 -4q45 0 62.5 10 t17.5 35q0 15 -2 24h77q-10 -52 -27 -80.5t-47.5 -40.5t-82.5 -12q-62 0 -90 18.5z" />
         <glyph glyph-name="uni04D3" unicode="ӓ" d="M531 25q-13 -18 -41.5 -28.5t-58.5 -10.5q-34 0 -55 17.5t-22 44.5q0 31 5 41q-29 -47 -72 -75t-87 -28q-79 0 -127 49.5t-47 130.5q0 103 51.5 212.5t130.5 181.5t155 72q75 0 113 -22.5t38 -73.5q0 -15 -16.5 -97t-71.5 -334q-3 -16 -3 -29t7 -20t23 -7q12 0 24.5 8 t23.5 22zM312 107.5q53 58.5 82 150.5l12 58q41 189 42 214q-1 22 -20.5 30.5t-68.5 8.5q-55 0 -118 -64t-106 -158t-43 -177q1 -55 31.5 -88t80.5 -33q55 0 108 58.5zM241.5 732q-14.5 10 -14.5 32q0 11 3 24q6 31 21 42.5t48 11.5q31 0 45.5 -10.5t14.5 -32.5 q0 -10 -3 -22q-7 -31 -22 -43t-48 -12q-30 0 -44.5 10zM457.5 732q-14.5 10 -14.5 32q0 11 3 24q6 31 21 42.5t48 11.5q31 0 45.5 -10.5t14.5 -32.5q0 -10 -3 -22q-7 -31 -22 -43t-48 -12q-30 0 -44.5 10z" />
         <glyph glyph-name="uni04D5" unicode="ӕ" d="M1 10.5q-30 24.5 -30 81.5q0 37 10 84q16 74 41 114t66.5 56.5t111.5 16.5h76l13 58q11 53 11 81q0 38 -18 52.5t-60 14.5q-34 0 -55.5 -22.5t-45.5 -83.5l-66 23q23 57 46 88t52 44.5t71 13.5q60 0 90 -22.5t34 -73.5q30 54 63 75t89 21q60 0 87.5 -31.5t27.5 -102.5 q0 -69 -28 -201h-256q-23 -110 -23 -163q0 -46 16 -65.5t52 -19.5q37 0 64.5 19.5t52.5 68.5l51 -42q-31 -61 -70 -85t-99 -24q-52 0 -80 23t-38 76q-28 -55 -64.5 -77t-93.5 -22q-68 0 -98 24.5zM533 366q19 93 19 134q0 38 -13 53.5t-41 15.5q-41 0 -68.5 -20t-47.5 -64.5 t-38 -124.5zM169.5 65q26.5 16 44.5 53.5t32 104.5l17 76h-71q-44 0 -71 -11.5t-44 -40.5t-29 -82q-8 -42 -8 -63q0 -29 14 -41t47 -12q42 0 68.5 16z" />
         <glyph glyph-name="uni04D7" unicode="ӗ" d="M128 299q-16 -76 -16 -129q0 -66 30.5 -93.5t99.5 -27.5q59 0 97.5 18.5t87.5 68.5l50 -41q-57 -63 -108 -86t-128 -23q-105 0 -151.5 39.5t-46.5 132.5q0 62 20 157q25 121 61.5 189t93.5 98t147 30q97 0 140.5 -38.5t43.5 -128.5q0 -64 -23 -168zM260.5 549.5 q-41.5 -19.5 -69.5 -64t-48 -122.5l327 3q8 56 8 89q0 63 -26 88.5t-88 25.5t-103.5 -19.5zM273 694.5q-28 18.5 -28 60.5q0 20 8 54h79q-22 -38 -22 -50q0 -11 12.5 -15t42.5 -4q45 0 62.5 10t17.5 35q0 15 -2 24h77q-10 -52 -27 -80.5t-47.5 -40.5t-82.5 -12 q-62 0 -90 18.5z" />
         <glyph glyph-name="uni04DD" unicode="ӝ" d="M649 618q-98 -95 -149.5 -168.5t-66.5 -140.5q-5 -21 -5 -53q0 -56 21.5 -116.5t62.5 -139.5h-76q-76 139 -76 245q0 11 2 31h-32l-61 -276h-69l60 276h-31q-41 -129 -193 -276h-85q94 89 148 164t72 145q7 28 7 59q0 56 -22.5 117t-66.5 133h79q77 -133 77 -243 q0 -11 -2 -35h31l61 278h70l-61 -278h31q37 128 193 278h81zM241.5 732q-14.5 10 -14.5 32q0 11 3 24q6 31 21 42.5t48 11.5q31 0 45.5 -10.5t14.5 -32.5q0 -10 -3 -22q-7 -31 -22 -43t-48 -12q-30 0 -44.5 10zM457.5 732q-14.5 10 -14.5 32q0 11 3 24q6 31 21 42.5t48 11.5 q31 0 45.5 -10.5t14.5 -32.5q0 -10 -3 -22q-7 -31 -22 -43t-48 -12q-30 0 -44.5 10z" />
         <glyph glyph-name="uni04DF" unicode="ӟ" d="M78.5 10.5q-47.5 24.5 -47.5 84.5q0 18 7 53l68 -5q-4 -16 -4 -31q0 -36 31 -49.5t106 -13.5q63 0 100.5 10.5t58.5 34t30 64.5q5 28 5 44q0 39 -26.5 56.5t-90.5 22.5h-81l13 64h77q81 5 118.5 33t50.5 94q4 16 4 32q0 36 -31 50.5t-106 14.5q-92 0 -133 -21t-52 -73 l-68 5q13 60 40.5 92.5t77.5 46t136 13.5q111 0 158.5 -25.5t47.5 -87.5q0 -27 -7 -58q-13 -59 -38 -91t-84 -60q33 -20 48 -43.5t15 -58.5q0 -24 -8 -61q-13 -63 -41 -97.5t-78.5 -49t-136.5 -14.5q-112 0 -159.5 24.5zM241.5 732q-14.5 10 -14.5 32q0 11 3 24 q6 31 21 42.5t48 11.5q31 0 45.5 -10.5t14.5 -32.5q0 -10 -3 -22q-7 -31 -22 -43t-48 -12q-30 0 -44.5 10zM457.5 732q-14.5 10 -14.5 32q0 11 3 24q6 31 21 42.5t48 11.5q31 0 45.5 -10.5t14.5 -32.5q0 -10 -3 -22q-7 -31 -22 -43t-48 -12q-30 0 -44.5 10z" />
         <glyph glyph-name="uni04E3" unicode="ӣ" d="M40 593q13 18 41.5 28.5t58.5 10.5q36 0 56.5 -18.5t20.5 -49.5q0 -45 -21 -140t-58 -208q-17 -54 -17 -87q0 -80 85 -80q41 0 88.5 44.5t85 110t49.5 123.5l61 291h69l-112 -524q-2 -10 -2 -15q0 -14 8 -22t22 -8q20 0 48 27l30 -51q-13 -18 -41.5 -28.5t-58.5 -10.5 q-33 0 -56 20.5t-23 53.5q0 11 3 24l14 56q-45 -73 -93 -113.5t-97 -40.5q-73 0 -111 32t-38 96q0 49 20 109q35 108 56 191t21 123q0 15 -8 23.5t-23 8.5q-12 0 -24.5 -8t-23.5 -22zM527 715h-293l13 64h293z" />
         <glyph glyph-name="uni04E5" unicode="ӥ" d="M40 593q13 18 41.5 28.5t58.5 10.5q36 0 56.5 -18.5t20.5 -49.5q0 -45 -21 -140t-58 -208q-17 -54 -17 -87q0 -80 85 -80q41 0 88.5 44.5t85 110t49.5 123.5l61 291h69l-112 -524q-2 -10 -2 -15q0 -14 8 -22t22 -8q20 0 48 27l30 -51q-13 -18 -41.5 -28.5t-58.5 -10.5 q-33 0 -56 20.5t-23 53.5q0 11 3 24l14 56q-45 -73 -93 -113.5t-97 -40.5q-73 0 -111 32t-38 96q0 49 20 109q35 108 56 191t21 123q0 15 -8 23.5t-23 8.5q-12 0 -24.5 -8t-23.5 -22zM235.5 732q-14.5 10 -14.5 32q0 11 3 24q6 31 21 42.5t48 11.5q31 0 45.5 -10.5 t14.5 -32.5q0 -10 -3 -22q-7 -31 -22 -43t-48 -12q-30 0 -44.5 10zM451.5 732q-14.5 10 -14.5 32q0 11 3 24q6 31 21 42.5t48 11.5q31 0 45.5 -10.5t14.5 -32.5q0 -10 -3 -22q-7 -31 -22 -43t-48 -12q-30 0 -44.5 10z" />
         <glyph glyph-name="uni04E7" unicode="ӧ" d="M99 24.5q-43 38.5 -43 127.5q0 65 21 163q26 121 60 189t87.5 98t137.5 30q96 0 139 -38.5t43 -127.5q0 -65 -21 -163q-26 -121 -60 -189t-87.5 -98t-137.5 -30q-96 0 -139 38.5zM340.5 74q39.5 25 67 82t49.5 159q19 93 19 142q0 61 -27 86.5t-88 25.5q-62 0 -101.5 -25 t-67 -82t-49.5 -159q-19 -93 -19 -142q0 -61 27 -86.5t88 -25.5q62 0 101.5 25zM241.5 732q-14.5 10 -14.5 32q0 11 3 24q6 31 21 42.5t48 11.5q31 0 45.5 -10.5t14.5 -32.5q0 -10 -3 -22q-7 -31 -22 -43t-48 -12q-30 0 -44.5 10zM457.5 732q-14.5 10 -14.5 32q0 11 3 24 q6 31 21 42.5t48 11.5q31 0 45.5 -10.5t14.5 -32.5q0 -10 -3 -22q-7 -31 -22 -43t-48 -12q-30 0 -44.5 10z" />
         <glyph glyph-name="uni04ED" unicode="ӭ" d="M519 596q48 -36 48 -123q0 -47 -16 -127l-17 -80q-23 -109 -57.5 -169t-90.5 -85.5t-148 -25.5q-69 0 -109 13t-59.5 42t-25.5 80l73 -5q10 -39 36 -53t86 -14q68 0 111.5 21t70.5 69t45 133l1 5h-245l13 64h246l2 11q14 67 14 107q0 61 -31.5 85.5t-104.5 24.5 q-64 0 -99.5 -16t-62.5 -56l-75 5q27 51 57 79t72.5 39.5t108.5 11.5q109 0 157 -36zM241.5 732q-14.5 10 -14.5 32q0 11 3 24q6 31 21 42.5t48 11.5q31 0 45.5 -10.5t14.5 -32.5q0 -10 -3 -22q-7 -31 -22 -43t-48 -12q-30 0 -44.5 10zM457.5 732q-14.5 10 -14.5 32 q0 11 3 24q6 31 21 42.5t48 11.5q31 0 45.5 -10.5t14.5 -32.5q0 -10 -3 -22q-7 -31 -22 -43t-48 -12q-30 0 -44.5 10z" />
         <glyph glyph-name="uni04EF" unicode="ӯ" d="M-21.5 -189q-21.5 7 -45.5 25l36 55q22 -14 35.5 -19t29.5 -5q63 0 104 30.5t85 111.5l-70 609h70l55 -516l278 516h74l-336 -617q-42 -76 -79.5 -118.5t-80 -60.5t-101.5 -18q-33 0 -54.5 7zM497 715h-293l13 64h293z" />
         <glyph glyph-name="uni04F1" unicode="ӱ" d="M-21.5 -189q-21.5 7 -45.5 25l36 55q22 -14 35.5 -19t29.5 -5q63 0 104 30.5t85 111.5l-70 609h70l55 -516l278 516h74l-336 -617q-42 -76 -79.5 -118.5t-80 -60.5t-101.5 -18q-33 0 -54.5 7zM205.5 732q-14.5 10 -14.5 32q0 11 3 24q6 31 21 42.5t48 11.5 q31 0 45.5 -10.5t14.5 -32.5q0 -10 -3 -22q-7 -31 -22 -43t-48 -12q-30 0 -44.5 10zM421.5 732q-14.5 10 -14.5 32q0 11 3 24q6 31 21 42.5t48 11.5q31 0 45.5 -10.5t14.5 -32.5q0 -10 -3 -22q-7 -31 -22 -43t-48 -12q-30 0 -44.5 10z" />
         <glyph glyph-name="uni04F3" unicode="ӳ" d="M-21.5 -189q-21.5 7 -45.5 25l36 55q22 -14 35.5 -19t29.5 -5q63 0 104 30.5t85 111.5l-70 609h70l55 -516l278 516h74l-336 -617q-42 -76 -79.5 -118.5t-80 -60.5t-101.5 -18q-33 0 -54.5 7zM368 811l-174 -130l-37 48l174 130zM567 811l-174 -130l-37 48l174 130z" />
         <glyph glyph-name="uni04F5" unicode="ӵ" d="M384.5 2q-23.5 16 -23.5 42q0 7 1 11l56 252q-42 -67 -91 -107.5t-93 -40.5q-68 0 -101 27.5t-33 85.5q0 46 23 120q5 16 9 27.5t7 19.5q12 32 18.5 56t6.5 49q0 11 -7.5 18t-20.5 7q-12 0 -24.5 -8t-21.5 -21l-35 54q13 16 41 27t58 11q36 0 58.5 -18.5t22.5 -48.5 q0 -34 -8.5 -67t-27.5 -92l-8 -24q-23 -71 -23 -104q0 -29 16.5 -42t50.5 -13q38 0 87 45t88.5 112t51.5 125l23 113h69l-120 -546q-1 -10 6.5 -16.5t20.5 -6.5q12 0 24.5 8t21.5 21l35 -54q-13 -16 -41 -27t-58 -11q-35 0 -58.5 16zM241.5 732q-14.5 10 -14.5 32q0 11 3 24 q6 31 21 42.5t48 11.5q31 0 45.5 -10.5t14.5 -32.5q0 -10 -3 -22q-7 -31 -22 -43t-48 -12q-30 0 -44.5 10zM457.5 732q-14.5 10 -14.5 32q0 11 3 24q6 31 21 42.5t48 11.5q31 0 45.5 -10.5t14.5 -32.5q0 -10 -3 -22q-7 -31 -22 -43t-48 -12q-30 0 -44.5 10z" />
         <glyph glyph-name="uni04F9" unicode="ӹ" d="M238 396q91 0 131 -27t40 -93q0 -32 -11 -84q-16 -75 -42.5 -116t-72 -58.5t-123.5 -17.5h-184l132 618h69l-47 -222h108zM423 0l132 618h69l-132 -618h-69zM339 260q0 41 -24.5 56.5t-83.5 15.5h-115l-57 -269h108q76 0 112 30.5t53 109.5q7 31 7 57zM241.5 732 q-14.5 10 -14.5 32q0 11 3 24q6 31 21 42.5t48 11.5q31 0 45.5 -10.5t14.5 -32.5q0 -10 -3 -22q-7 -31 -22 -43t-48 -12q-30 0 -44.5 10zM457.5 732q-14.5 10 -14.5 32q0 11 3 24q6 31 21 42.5t48 11.5q31 0 45.5 -10.5t14.5 -32.5q0 -10 -3 -22q-7 -31 -22 -43t-48 -12 q-30 0 -44.5 10z" />
         <glyph glyph-name="uni0432.loclBGR" d="M515 517q-25 -35 -79 -62q62 -17 89.5 -49.5t27.5 -89.5q0 -34 -11 -86q-21 -97 -53 -151.5t-85 -78t-138 -23.5q-79 0 -126 17.5t-68 54.5t-21 98q0 64 24 178l54 256q25 120 84.5 181t169.5 61q96 0 138.5 -29t42.5 -97q0 -37 -10 -81q-14 -64 -39 -99zM495 687 q0 41 -25.5 56.5t-87.5 15.5q-79 0 -122.5 -48.5t-62.5 -135.5l-19 -90h156q48 4 77.5 18t47 43.5t28.5 81.5q8 37 8 59zM484 312q0 56 -35.5 80t-122.5 29h-162l-37 -172q-12 -57 -12 -95q0 -62 35 -87.5t117 -25.5q64 0 103.5 18.5t64 61.5t40.5 121q9 41 9 70z" />
         <glyph glyph-name="uni0433.loclBGR" d="M87 24q-48 38 -48 102q0 20 4 39q10 50 46.5 84t82.5 53.5t118 42.5q81 26 122.5 48t50.5 58q2 8 2 24q0 43 -32 68.5t-88 25.5q-55 0 -98.5 -37.5t-58.5 -98.5l-64 17q20 82 80.5 132t140.5 50q86 0 135.5 -39.5t49.5 -106.5q0 -23 -6 -49q-10 -45 -43.5 -74.5 t-75.5 -47t-109 -38.5q-60 -19 -95.5 -33t-62 -37t-33.5 -56q-2 -12 -2 -17q0 -39 31.5 -62t84.5 -23q67 0 119 39.5t70 103.5l66 -11q-21 -88 -91.5 -141.5t-163.5 -53.5q-84 0 -132 38z" />
         <glyph glyph-name="uni0434.loclBGR" d="M102.5 -181.5q-33.5 14.5 -59.5 51.5l56 40q19 -25 39 -34t60 -9q60 0 97 16.5t59.5 55t36.5 107.5l16 65q-29 -37 -70.5 -53t-96.5 -16q-96 0 -138.5 38.5t-42.5 128.5q0 62 22 167q21 98 53 153t83.5 79t135.5 24q118 0 149 -55l12 41h69l-122 -569 q-20 -95 -50.5 -147.5t-81 -75t-132.5 -22.5q-61 0 -94.5 14.5zM439 270l48 222q2 10 2 14q0 63 -137 63q-62 0 -100.5 -19t-63 -63.5t-41.5 -122.5q-20 -94 -20 -146q0 -62 27 -87t88 -25q163 0 197 164z" />
         <glyph glyph-name="uni0436.loclBGR" d="M649 618q-98 -95 -149.5 -168.5t-66.5 -140.5q-5 -21 -5 -53q0 -56 21.5 -116.5t62.5 -139.5h-76q-76 139 -76 245q0 11 2 31h-32l-61 -276h-69l60 276h-31q-41 -129 -193 -276h-85q94 89 148 164t72 145q7 28 7 59q0 56 -22.5 117t-66.5 133h79q77 -133 77 -243 q0 -11 -2 -35h31l61 278h70l-61 -278h31q37 128 193 278h81z" />
         <glyph glyph-name="uni0437.loclBGR" d="M53 -167.5q-44 28.5 -44 97.5q0 34 11 86l67 -5q-8 -38 -8 -62q0 -46 27.5 -64t93.5 -18q59 0 96 16t59.5 52.5t36.5 100.5q11 52 11 82q0 47 -23.5 67t-78.5 24h-81l12 64h77q76 5 112 39t53 114q8 38 8 62q0 45 -27.5 63t-93.5 18q-59 0 -95 -13t-57 -43t-32 -82l-68 5 q16 77 44 119t77 59.5t132 17.5q102 0 146 -29t44 -100q0 -35 -11 -88q-15 -73 -41.5 -110.5t-85.5 -66.5q30 -19 43.5 -45t13.5 -67q0 -42 -13 -101q-18 -87 -47 -134t-79 -67t-133 -20q-102 0 -146 28.5z" />
         <glyph glyph-name="uni0438.loclBGR" d="M95 16q-38 30 -38 101q0 46 13 105l85 396h69l-86 -402q-12 -54 -12 -88q0 -44 22.5 -61.5t73.5 -17.5q68 0 109 13.5t63.5 45t34.5 87.5l91 423h69l-132 -618h-69l11 43q-34 -32 -73 -44.5t-105 -12.5q-88 0 -126 30z" />
         <glyph glyph-name="uni0439.loclBGR" d="M95 16q-38 30 -38 101q0 46 13 105l85 396h69l-86 -402q-12 -54 -12 -88q0 -44 22.5 -61.5t73.5 -17.5q68 0 109 13.5t63.5 45t34.5 87.5l91 423h69l-132 -618h-69l11 43q-34 -32 -73 -44.5t-105 -12.5q-88 0 -126 30zM293 694.5q-28 18.5 -28 60.5q0 20 8 54h79 q-22 -38 -22 -50q0 -11 12.5 -15t42.5 -4q45 0 62.5 10t17.5 35q0 15 -2 24h77q-10 -52 -27 -80.5t-47.5 -40.5t-82.5 -12q-62 0 -90 18.5z" />
         <glyph glyph-name="uni045D.loclBGR" d="M95 16q-38 30 -38 101q0 46 13 105l85 396h69l-86 -402q-12 -54 -12 -88q0 -44 22.5 -61.5t73.5 -17.5q68 0 109 13.5t63.5 45t34.5 87.5l91 423h69l-132 -618h-69l11 43q-34 -32 -73 -44.5t-105 -12.5q-88 0 -126 30zM446 729l-54 -48l-124 130l54 48z" />
         <glyph glyph-name="uni043A.loclBGR" d="M120 0h-69l170 800h69l-93 -437h37l255 255h85l-284 -285l191 -333h-82l-173 299h-42z" />
         <glyph glyph-name="uni043B.loclBGR" d="M45 0h-72l354 618h75l92 -618h-68l-78 528z" />
         <glyph glyph-name="uni043F.loclBGR" d="M23 0l132 618h69l-13 -48q35 33 75.5 47.5t103.5 14.5q87 0 125.5 -29.5t38.5 -100.5q0 -43 -14 -110l-83 -392h-69l84 397q12 56 12 91q0 45 -22 63t-73 18q-71 0 -111 -14t-63 -49.5t-37 -102.5l-86 -403h-69z" />
         <glyph glyph-name="uni0442.loclBGR" d="M-18 0l132 618h70l-11 -38q26 30 47.5 40.5t53.5 10.5q40 0 58 -17.5t23 -62.5q36 47 65 63.5t71 16.5q51 0 74 -23.5t23 -79.5q0 -50 -18 -133l-84 -395h-69l85 400q16 74 16 111q0 26 -8.5 37t-27.5 11q-53 0 -81.5 -36t-47.5 -127l-84 -396h-69l84 394q17 82 17 116 q0 26 -9 37.5t-28 11.5q-52 0 -80.5 -36t-47.5 -127l-85 -396h-69z" />
         <glyph glyph-name="uni0446.loclBGR" d="M575 618l-119 -557h48l-37 -179h-69l24 118h-48l11 43q-34 -32 -73 -44.5t-105 -12.5q-87 0 -125.5 30t-38.5 101q0 46 13 105l85 396h69l-86 -402q-12 -54 -12 -88q0 -44 22.5 -61.5t73.5 -17.5q68 0 109 13.5t64 45t35 87.5l90 423h69z" />
         <glyph glyph-name="uni0448.loclBGR" d="M618 618l-132 -618h-69l10 38q-26 -30 -47.5 -40.5t-53.5 -10.5q-40 0 -58 17.5t-23 62.5q-36 -47 -65 -63.5t-71 -16.5q-51 0 -74 23.5t-23 79.5q0 52 18 134l84 394h69l-85 -400q-16 -74 -16 -111q0 -26 8.5 -37t27.5 -11q53 0 81.5 36t47.5 127l85 396h69l-85 -394 q-17 -82 -17 -116q0 -26 9 -37.5t28 -11.5q52 0 80.5 36t47.5 127l85 396h69z" />
         <glyph glyph-name="uni0449.loclBGR" d="M600 618l-119 -557h45l-37 -179h-69l24 118h-46l11 38q-26 -30 -47.5 -40.5t-53.5 -10.5q-40 0 -58 18t-23 62q-36 -47 -65 -63.5t-72 -16.5q-50 0 -73 24t-23 79q0 50 18 134l84 394h69l-86 -400q-16 -80 -16 -110q0 -26 9 -37.5t28 -11.5q52 0 80.5 36t47.5 127l85 396 h69l-84 -394q-17 -82 -17 -116q0 -27 8.5 -38t27.5 -11q53 0 81.5 36t47.5 127l85 396h69z" />
         <glyph glyph-name="uni044C.loclBGR" d="M107.5 14.5q-45.5 28.5 -45.5 98.5q0 36 10 80l91 425h69l-64 -285q36 37 71 50t95 13q105 0 150 -29t45 -99q0 -37 -10 -83q-16 -78 -45 -120.5t-79.5 -60.5t-135.5 -18q-106 0 -151.5 28.5zM359 63q38 14 60 45.5t34 87.5q7 31 7 56q0 45 -29 62.5t-99 17.5 q-62 0 -99.5 -14t-59.5 -45.5t-34 -88.5q-7 -37 -7 -55q0 -44 29.5 -62t98.5 -18q61 0 99 14z" />
         <glyph glyph-name="uni044A.loclBGR" d="M508 367q45 -29 45 -99q0 -37 -10 -83q-17 -78 -45.5 -120.5t-79 -60.5t-136.5 -18q-106 0 -151.5 29t-45.5 99q0 29 10 79l78 362h-101l14 63h169l-13 -63h-1l-49 -222q36 37 71 50t95 13q105 0 150 -29zM483 253q0 44 -29 61.5t-98 17.5q-62 0 -99.5 -14t-59.5 -45.5 t-34 -88.5q-7 -29 -7 -55q0 -45 29 -62.5t99 -17.5q61 0 99 14t59.5 45.5t33.5 87.5q7 31 7 57z" />
         </font>
</defs>
</svg>
