<?xml version="1.0" encoding="UTF-8"?>
<!DOCTYPE svg PUBLIC "-//W3C//DTD SVG 1.1//EN" "http://www.w3.org/Graphics/SVG/1.1/DTD/svg11.dtd">
<svg xmlns="http://www.w3.org/2000/svg" xmlns:xlink="http://www.w3.org/1999/xlink" version="1.1">
   <metadata>Created by FontForge 20170812 at Tue Nov  3 11:52:56 2020
 By www-data
Copyright (c) 2019 by Rune Bjrneras. All rights reserved.</metadata>
   <defs>
      <font id="VictorMono-Thin" horiz-adv-x="600">
         <font-face font-family="Victor Mono Thin" font-weight="100" font-stretch="normal" units-per-em="1100" panose-1="0 0 2 9 0 0 0 0 0 0" ascent="880" descent="-220" x-height="618" cap-height="800" bbox="-1759 -529 663 1306" underline-thickness="50" underline-position="-100" unicode-range="U+0020-E0B3" />
         <missing-glyph d="M422 0h-354v814h354v-814zM98 786v-758h294v758h-294z" />
         <glyph glyph-name=".notdef" d="M422 0h-354v814h354v-814zM98 786v-758h294v758h-294z" />
         <glyph glyph-name=".null" horiz-adv-x="0" />
         <glyph glyph-name="nonmarkingreturn" />
         <glyph glyph-name="space" unicode=" " />
         <glyph glyph-name="A" unicode="A" d="M540 0h-32l-61 225h-294l-61 -225h-32l222 800h36zM300 763l-139 -510h278z" />
         <glyph glyph-name="Aacute" unicode="Á" d="M540 0h-32l-61 225h-294l-61 -225h-32l222 800h36zM300 763l-139 -510h278zM411 984l-120 -106l-20 21l120 106z" />
         <glyph glyph-name="Abreve" unicode="Ă" d="M540 0h-32l-61 225h-294l-61 -225h-32l222 800h36zM300 763l-139 -510h278zM231 887.5q-24 8.5 -34.5 29.5t-12.5 59h30q1 -37 21 -53t64 -16q45 0 65 16t21 53h30q-2 -38 -12.5 -59t-35 -29.5t-68.5 -8.5t-68 8.5z" />
         <glyph glyph-name="uni1EAE" unicode="Ắ" d="M540 0h-32l-61 225h-294l-61 -225h-32l222 800h36zM300 763l-139 -510h278zM424 1051l-139 -122l-19 21l139 122zM211.5 866.5q-24.5 24.5 -26.5 84.5h30q1 -45 20 -63t64 -18q46 0 66 18t20 63h30q-2 -60 -27 -84.5t-89 -24.5q-63 0 -87.5 24.5z" />
         <glyph glyph-name="uni1EB6" unicode="Ặ" d="M540 0h-32l-61 225h-294l-61 -225h-32l222 800h36zM300 763l-139 -510h278zM264.5 -205q-9.5 9 -9.5 34t9.5 34t35.5 9t35.5 -9t9.5 -34t-9.5 -34t-35.5 -9t-35.5 9zM231 887.5q-24 8.5 -34.5 29.5t-12.5 59h30q1 -37 21 -53t64 -16q45 0 65 16t21 53h30 q-2 -38 -12.5 -59t-35 -29.5t-68.5 -8.5t-68 8.5z" />
         <glyph glyph-name="uni1EB0" unicode="Ằ" d="M540 0h-32l-61 225h-294l-61 -225h-32l222 800h36zM300 763l-139 -510h278zM333 950l-19 -21l-140 122l20 21zM211.5 866.5q-24.5 24.5 -26.5 84.5h30q1 -45 20 -63t64 -18q46 0 66 18t20 63h30q-2 -60 -27 -84.5t-89 -24.5q-63 0 -87.5 24.5z" />
         <glyph glyph-name="uni1EB2" unicode="Ẳ" d="M540 0h-32l-61 225h-294l-61 -225h-32l222 800h36zM300 763l-139 -510h278zM446 917q32 11 46.5 27t14.5 33t-13.5 28t-30.5 11q-23 0 -44.5 -9.5t-33.5 -19.5v35q16 10 37.5 16t40.5 6q30 0 52 -20t22 -51q0 -26 -21 -48t-63 -34zM211.5 866.5q-24.5 24.5 -26.5 84.5h30 q1 -45 20 -63t64 -18q46 0 66 18t20 63h30q-2 -59 -27 -84t-89 -25q-63 0 -87.5 24.5z" />
         <glyph glyph-name="uni1EB4" unicode="Ẵ" d="M540 0h-32l-61 225h-294l-61 -225h-32l222 800h36zM300 763l-139 -510h278zM552.5 991.5q-15.5 10.5 -34.5 30.5q-19 19 -31.5 27.5t-29.5 8.5q-25 0 -32 -11t-11 -40h-29q3 36 22 57.5t50 21.5q19 0 34.5 -10t36.5 -30q18 -18 32 -27.5t31 -9.5q25 0 32 11t10 37h30 q-4 -35 -23 -55.5t-49 -20.5q-23 0 -38.5 10.5zM211.5 866.5q-24.5 24.5 -26.5 84.5h30q1 -45 20 -63t64 -18q46 0 66 18t20 63h30q-2 -60 -27 -84.5t-89 -24.5q-63 0 -87.5 24.5z" />
         <glyph glyph-name="uni01CD" unicode="Ǎ" d="M540 0h-32l-61 225h-294l-61 -225h-32l222 800h36zM300 763l-139 -510h278zM415 999l-115 -104l-116 102l23 18l93 -81l91 83z" />
         <glyph glyph-name="Acircumflex" unicode="Â" d="M540 0h-32l-61 225h-294l-61 -225h-32l222 800h36zM300 763l-139 -510h278zM415 900l-24 -18l-91 84l-92 -82l-23 18l115 102z" />
         <glyph glyph-name="uni1EA4" unicode="Ấ" d="M540 0h-32l-61 225h-294l-61 -225h-32l222 800h36zM300 763l-139 -510h278zM539 1023l-140 -122l-19 21l139 122zM415 854l-24 -18l-91 84l-92 -82l-23 18l115 102z" />
         <glyph glyph-name="uni1EAC" unicode="Ậ" d="M540 0h-32l-61 225h-294l-61 -225h-32l222 800h36zM300 763l-139 -510h278zM264.5 -205q-9.5 9 -9.5 34t9.5 34t35.5 9t35.5 -9t9.5 -34t-9.5 -34t-35.5 -9t-35.5 9zM415 900l-24 -18l-91 84l-92 -82l-23 18l115 102z" />
         <glyph glyph-name="uni1EA6" unicode="Ầ" d="M540 0h-32l-61 225h-294l-61 -225h-32l222 800h36zM300 763l-139 -510h278zM451 893l-107 100l22 16l109 -98zM415 854l-24 -18l-91 84l-92 -82l-23 18l115 102z" />
         <glyph glyph-name="uni1EA8" unicode="Ẩ" d="M540 0h-32l-61 225h-294l-61 -225h-32l222 800h36zM300 763l-139 -510h278zM415 854l-24 -18l-91 84l-92 -82l-23 18l115 102zM445 917q32 11 47 27t15 33t-13.5 28t-30.5 11q-23 0 -44.5 -9.5t-33.5 -19.5v35q16 10 37.5 16t40.5 6q30 0 52 -20t22 -51q0 -26 -21.5 -48 t-63.5 -34z" />
         <glyph glyph-name="uni1EAA" unicode="Ẫ" d="M540 0h-32l-61 225h-294l-61 -225h-32l222 800h36zM300 763l-139 -510h278zM415 854l-24 -18l-91 84l-92 -82l-23 18l115 102zM512.5 909.5q-15.5 10.5 -34.5 30.5q-18 18 -31.5 27t-30.5 9q-25 0 -32 -11t-11 -40h-28q3 36 22 57.5t49 21.5q19 0 34.5 -10t36.5 -30 q18 -18 32 -27.5t31 -9.5q25 0 32 10.5t11 37.5h29q-4 -35 -23 -55.5t-49 -20.5q-22 0 -37.5 10.5z" />
         <glyph glyph-name="Adieresis" unicode="Ä" d="M540 0h-32l-61 225h-294l-61 -225h-32l222 800h36zM300 763l-139 -510h278zM156 935.5q-9 8.5 -9 34.5q0 25 9 33t36 8t36 -8t9 -33q0 -26 -9 -34.5t-36 -8.5t-36 8.5zM372 935.5q-9 8.5 -9 34.5q0 25 9 33t36 8t36 -8t9 -33q0 -26 -9 -34.5t-36 -8.5t-36 8.5z" />
         <glyph glyph-name="uni1EA0" unicode="Ạ" d="M540 0h-32l-61 225h-294l-61 -225h-32l222 800h36zM300 763l-139 -510h278zM264.5 -205q-9.5 9 -9.5 34t9.5 34t35.5 9t35.5 -9t9.5 -34t-9.5 -34t-35.5 -9t-35.5 9z" />
         <glyph glyph-name="Agrave" unicode="À" d="M540 0h-32l-61 225h-294l-61 -225h-32l222 800h36zM300 763l-139 -510h278zM329 899l-20 -21l-120 106l20 21z" />
         <glyph glyph-name="uni1EA2" unicode="Ả" d="M540 0h-32l-61 225h-294l-61 -225h-32l222 800h36zM300 763l-139 -510h278zM284 865q32 11 47 27t15 33t-13.5 28t-30.5 11q-23 0 -44.5 -9.5t-33.5 -19.5v35q16 10 37.5 16t40.5 6q30 0 52 -20t22 -51q0 -26 -21.5 -48t-63.5 -34z" />
         <glyph glyph-name="Amacron" unicode="Ā" d="M540 0h-32l-61 225h-294l-61 -225h-32l222 800h36zM300 763l-139 -510h278zM427 918h-254v28h254v-28z" />
         <glyph glyph-name="Aogonek" unicode="Ą" d="M413.5 -155.5q18.5 -12.5 46.5 -12.5q16 0 36.5 7.5t35.5 18.5l-1 -34q-13 -9 -32.5 -14.5t-38.5 -5.5q-95 0 -95 66q0 28 36.5 57.5t107.5 72.5h-1l-61 225h-294l-61 -225h-32l222 800h36l222 -799l1 -1q-16 -13 -46 -30q-48 -30 -73.5 -51t-26.5 -43q0 -19 18.5 -31.5z M300 763l-139 -510h278z" />
         <glyph glyph-name="Aring" unicode="Å" d="M508 0l-61 225h-294l-61 -225h-32l214 773q-51 3 -70 26t-19 79q0 42 10 64.5t34.5 32t69.5 9.5q46 0 70.5 -9.5t35 -32.5t10.5 -64q0 -55 -19.5 -78t-69.5 -27l214 -773h-32zM234 817.5q19 -17.5 65 -17.5q47 0 66.5 17.5t19.5 60.5t-19.5 60.5t-66.5 17.5 q-46 0 -65 -17.5t-19 -60.5t19 -60.5zM300 763l-139 -510h278z" />
         <glyph glyph-name="Atilde" unicode="Ã" d="M540 0h-32l-61 225h-294l-61 -225h-32l222 800h36zM300 763l-139 -510h278zM329.5 901.5q-15.5 10.5 -34.5 30.5q-18 18 -31.5 27t-30.5 9q-25 0 -32 -11t-11 -40h-28q3 36 22 57.5t49 21.5q19 0 34.5 -10t36.5 -30q18 -18 32 -27.5t31 -9.5q25 0 32 10.5t11 37.5h29 q-4 -35 -23 -55.5t-49 -20.5q-22 0 -37.5 10.5z" />
         <glyph glyph-name="AE" unicode="Æ" d="M585 800v-28h-235v-381h151v-28h-151v-335h235v-28h-265v271h-204l-75 -271h-32l222 800h354zM254 772l-131 -473h197v473h-66z" />
         <glyph glyph-name="B" unicode="B" d="M104 0v800h180q80 0 124 -17.5t62.5 -59t18.5 -117.5q0 -56 -10.5 -90t-35 -54.5t-70.5 -34.5q55 -12 85.5 -35t43 -63t12.5 -109q0 -87 -18.5 -134t-62.5 -66.5t-124 -19.5h-205zM284 437q66 0 104 16.5t54.5 53t16.5 99.5q0 64 -16.5 100t-54 51t-104.5 15h-150v-335 h150zM309 28q67 0 104.5 18t54 59t16.5 115q0 70 -16.5 111t-54.5 59.5t-104 18.5h-175v-381h175z" />
         <glyph glyph-name="C" unicode="C" d="M175.5 23.5q-49.5 37.5 -70.5 126t-21 251.5q0 162 21 250.5t70.5 125.5t139.5 37q58 0 94 -13.5t60.5 -45t43.5 -88.5l-29 -11q-25 73 -62 101.5t-107 28.5q-78 0 -121 -35.5t-61.5 -118t-18.5 -231.5q0 -150 18.5 -233t61.5 -118.5t121 -35.5q70 0 107 28t62 99l29 -10 q-19 -57 -43 -88t-60.5 -44t-94.5 -13q-90 0 -139.5 37.5z" />
         <glyph glyph-name="Cacute" unicode="Ć" d="M175.5 23.5q-49.5 37.5 -70.5 126t-21 251.5q0 162 21 250.5t70.5 125.5t139.5 37q58 0 94 -13.5t60.5 -45t43.5 -88.5l-29 -11q-25 73 -62 101.5t-107 28.5q-78 0 -121 -35.5t-61.5 -118t-18.5 -231.5q0 -150 18.5 -233t61.5 -118.5t121 -35.5q70 0 107 28t62 99l29 -10 q-19 -57 -43 -88t-60.5 -44t-94.5 -13q-90 0 -139.5 37.5zM411 981l-120 -106l-20 21l120 106z" />
         <glyph glyph-name="Ccaron" unicode="Č" d="M175.5 23.5q-49.5 37.5 -70.5 126t-21 251.5q0 162 21 250.5t70.5 125.5t139.5 37q58 0 94 -13.5t60.5 -45t43.5 -88.5l-29 -11q-25 73 -62 101.5t-107 28.5q-78 0 -121 -35.5t-61.5 -118t-18.5 -231.5q0 -150 18.5 -233t61.5 -118.5t121 -35.5q70 0 107 28t62 99l29 -10 q-19 -57 -43 -88t-60.5 -44t-94.5 -13q-90 0 -139.5 37.5zM415 996l-115 -104l-116 102l23 18l93 -81l91 83z" />
         <glyph glyph-name="Ccedilla" unicode="Ç" d="M422 42q37 28 62 99l29 -10q-19 -57 -43 -88t-60.5 -44t-94.5 -13v-23q33 -8 53.5 -26.5t20.5 -41.5q0 -33 -26 -53t-69 -20q-17 0 -37.5 5.5t-35.5 14.5l13 32q14 -11 31 -17.5t29 -6.5q29 0 47 12.5t18 32.5q0 16 -20.5 26t-53.5 10v56q-77 6 -120.5 46t-62 127.5 t-18.5 240.5q0 162 21 250.5t70.5 125.5t139.5 37q58 0 94 -13.5t60.5 -45t43.5 -88.5l-29 -11q-25 73 -62 101.5t-107 28.5q-78 0 -121 -35.5t-61.5 -118t-18.5 -231.5q0 -150 18.5 -233t61.5 -118.5t121 -35.5q70 0 107 28z" />
         <glyph glyph-name="Ccircumflex" unicode="Ĉ" d="M175.5 23.5q-49.5 37.5 -70.5 126t-21 251.5q0 162 21 250.5t70.5 125.5t139.5 37q58 0 94 -13.5t60.5 -45t43.5 -88.5l-29 -11q-25 73 -62 101.5t-107 28.5q-78 0 -121 -35.5t-61.5 -118t-18.5 -231.5q0 -150 18.5 -233t61.5 -118.5t121 -35.5q70 0 107 28t62 99l29 -10 q-19 -57 -43 -88t-60.5 -44t-94.5 -13q-90 0 -139.5 37.5zM415 897l-24 -18l-91 84l-92 -82l-23 18l115 102z" />
         <glyph glyph-name="Cdotaccent" unicode="Ċ" d="M175.5 23.5q-49.5 37.5 -70.5 126t-21 251.5q0 162 21 250.5t70.5 125.5t139.5 37q58 0 94 -13.5t60.5 -45t43.5 -88.5l-29 -11q-25 73 -62 101.5t-107 28.5q-78 0 -121 -35.5t-61.5 -118t-18.5 -231.5q0 -150 18.5 -233t61.5 -118.5t121 -35.5q70 0 107 28t62 99l29 -10 q-19 -57 -43 -88t-60.5 -44t-94.5 -13q-90 0 -139.5 37.5zM264.5 950q-9.5 9 -9.5 34t9.5 34t35.5 9t35.5 -9t9.5 -34t-9.5 -34t-35.5 -9t-35.5 9z" />
         <glyph glyph-name="D" unicode="D" d="M313 800q85 0 131.5 -36t66.5 -121.5t20 -242.5t-20 -242.5t-66.5 -121.5t-131.5 -36h-218v800h218zM313 28q73 0 113 34t57.5 114t17.5 224t-17.5 224t-57.5 114t-113 34h-188v-744h188z" />
         <glyph glyph-name="Eth" unicode="Ð" d="M316 800q85 0 131.5 -36t66.5 -121.5t20 -242.5t-20 -242.5t-66.5 -121.5t-131.5 -36h-218v409h-52v28h52v363h218zM316 28q73 0 113 34t57.5 114t17.5 224t-17.5 224t-57.5 114t-113 34h-188v-335h144l1 -28h-145v-381h188z" />
         <glyph glyph-name="Dcaron" unicode="Ď" d="M313 800q85 0 131.5 -36t66.5 -121.5t20 -242.5t-20 -242.5t-66.5 -121.5t-131.5 -36h-218v800h218zM313 28q73 0 113 34t57.5 114t17.5 224t-17.5 224t-57.5 114t-113 34h-188v-744h188zM415 996l-115 -104l-116 102l23 18l93 -81l91 83z" />
         <glyph glyph-name="Dcroat" unicode="Đ" d="M316 800q85 0 131.5 -36t66.5 -121.5t20 -242.5t-20 -242.5t-66.5 -121.5t-131.5 -36h-218v409h-52v28h52v363h218zM316 28q73 0 113 34t57.5 114t17.5 224t-17.5 224t-57.5 114t-113 34h-188v-335h144l1 -28h-145v-381h188z" />
         <glyph glyph-name="E" unicode="E" d="M516 800v-28h-374v-335h240v-28h-240v-381h374v-28h-404v800h404z" />
         <glyph glyph-name="Eacute" unicode="É" d="M516 800v-28h-374v-335h240v-28h-240v-381h374v-28h-404v800h404zM425 984l-120 -106l-20 21l120 106z" />
         <glyph glyph-name="Ecaron" unicode="Ě" d="M516 800v-28h-374v-335h240v-28h-240v-381h374v-28h-404v800h404zM429 999l-115 -104l-116 102l23 18l93 -81l91 83z" />
         <glyph glyph-name="Ecircumflex" unicode="Ê" d="M516 800v-28h-374v-335h240v-28h-240v-381h374v-28h-404v800h404zM429 900l-24 -18l-91 84l-92 -82l-23 18l115 102z" />
         <glyph glyph-name="uni1EBE" unicode="Ế" d="M516 800v-28h-374v-335h240v-28h-240v-381h374v-28h-404v800h404zM553 1023l-140 -122l-19 21l139 122zM429 854l-24 -18l-91 84l-92 -82l-23 18l115 102z" />
         <glyph glyph-name="uni1EC6" unicode="Ệ" d="M516 800v-28h-374v-335h240v-28h-240v-381h374v-28h-404v800h404zM278.5 -205q-9.5 9 -9.5 34t9.5 34t35.5 9t35.5 -9t9.5 -34t-9.5 -34t-35.5 -9t-35.5 9zM429 900l-24 -18l-91 84l-92 -82l-23 18l115 102z" />
         <glyph glyph-name="uni1EC0" unicode="Ề" d="M516 800v-28h-374v-335h240v-28h-240v-381h374v-28h-404v800h404zM465 893l-107 100l22 16l109 -98zM429 854l-24 -18l-91 84l-92 -82l-23 18l115 102z" />
         <glyph glyph-name="uni1EC2" unicode="Ể" d="M516 800v-28h-374v-335h240v-28h-240v-381h374v-28h-404v800h404zM429 854l-24 -18l-91 84l-92 -82l-23 18l115 102zM459 917q32 11 47 27t15 33t-13.5 28t-30.5 11q-23 0 -44.5 -9.5t-33.5 -19.5v35q16 10 37.5 16t40.5 6q30 0 52 -20t22 -51q0 -26 -21.5 -48t-63.5 -34 z" />
         <glyph glyph-name="uni1EC4" unicode="Ễ" d="M516 800v-28h-374v-335h240v-28h-240v-381h374v-28h-404v800h404zM429 854l-24 -18l-91 84l-92 -82l-23 18l115 102zM526.5 909.5q-15.5 10.5 -34.5 30.5q-18 18 -31.5 27t-30.5 9q-25 0 -32 -11t-11 -40h-28q3 36 22 57.5t49 21.5q19 0 34.5 -10t36.5 -30 q18 -18 32 -27.5t31 -9.5q25 0 32 10.5t11 37.5h29q-4 -35 -23 -55.5t-49 -20.5q-22 0 -37.5 10.5z" />
         <glyph glyph-name="Edieresis" unicode="Ë" d="M516 800v-28h-374v-335h240v-28h-240v-381h374v-28h-404v800h404zM170 935.5q-9 8.5 -9 34.5q0 25 9 33t36 8t36 -8t9 -33q0 -26 -9 -34.5t-36 -8.5t-36 8.5zM386 935.5q-9 8.5 -9 34.5q0 25 9 33t36 8t36 -8t9 -33q0 -26 -9 -34.5t-36 -8.5t-36 8.5z" />
         <glyph glyph-name="Edotaccent" unicode="Ė" d="M516 800v-28h-374v-335h240v-28h-240v-381h374v-28h-404v800h404zM278.5 953q-9.5 9 -9.5 34t9.5 34t35.5 9t35.5 -9t9.5 -34t-9.5 -34t-35.5 -9t-35.5 9z" />
         <glyph glyph-name="uni1EB8" unicode="Ẹ" d="M516 800v-28h-374v-335h240v-28h-240v-381h374v-28h-404v800h404zM278.5 -205q-9.5 9 -9.5 34t9.5 34t35.5 9t35.5 -9t9.5 -34t-9.5 -34t-35.5 -9t-35.5 9z" />
         <glyph glyph-name="Egrave" unicode="È" d="M516 800v-28h-374v-335h240v-28h-240v-381h374v-28h-404v800h404zM343 899l-20 -21l-120 106l20 21z" />
         <glyph glyph-name="uni1EBA" unicode="Ẻ" d="M516 800v-28h-374v-335h240v-28h-240v-381h374v-28h-404v800h404zM298 865q32 11 47 27t15 33t-13.5 28t-30.5 11q-23 0 -44.5 -9.5t-33.5 -19.5v35q16 10 37.5 16t40.5 6q30 0 52 -20t22 -51q0 -26 -21.5 -48t-63.5 -34z" />
         <glyph glyph-name="Emacron" unicode="Ē" d="M516 800v-28h-374v-335h240v-28h-240v-381h374v-28h-404v800h404zM441 918h-254v28h254v-28z" />
         <glyph glyph-name="Eogonek" unicode="Ę" d="M516 772h-374v-335h240v-28h-240v-381h374v-28q-16 -13 -46 -30q-48 -30 -73.5 -51t-26.5 -43q0 -19 18.5 -31.5t46.5 -12.5q16 0 36.5 7.5t35.5 18.5l-1 -34q-13 -9 -32.5 -14.5t-38.5 -5.5q-95 0 -95 66q0 28 36.5 57.5t107.5 72.5h-372v800h404v-28z" />
         <glyph glyph-name="uni1EBC" unicode="Ẽ" d="M516 800v-28h-374v-335h240v-28h-240v-381h374v-28h-404v800h404zM343.5 901.5q-15.5 10.5 -34.5 30.5q-18 18 -31.5 27t-30.5 9q-25 0 -32 -11t-11 -40h-28q3 36 22 57.5t49 21.5q19 0 34.5 -10t36.5 -30q18 -18 32 -27.5t31 -9.5q25 0 32 10.5t11 37.5h29 q-4 -35 -23 -55.5t-49 -20.5q-22 0 -37.5 10.5z" />
         <glyph glyph-name="F" unicode="F" d="M517 800v-28h-374v-381h240v-28h-240v-363h-30v800h404z" />
         <glyph glyph-name="G" unicode="G" d="M174.5 24q-51.5 38 -73.5 127t-22 249t22 249t73.5 127t144.5 38q62 0 101 -15t64.5 -50t43.5 -97l-29 -7q-15 54 -36.5 84.5t-55.5 43.5t-88 13q-81 0 -126 -35.5t-64.5 -118t-19.5 -232.5t19.5 -232.5t64.5 -118t126 -35.5q73 0 110.5 28t63.5 101v220h-174v28h204 v-253q-19 -58 -44.5 -91t-63 -47t-96.5 -14q-93 0 -144.5 38z" />
         <glyph glyph-name="Gbreve" unicode="Ğ" d="M174.5 24q-51.5 38 -73.5 127t-22 249t22 249t73.5 127t144.5 38q62 0 101 -15t64.5 -50t43.5 -97l-29 -7q-15 54 -36.5 84.5t-55.5 43.5t-88 13q-81 0 -126 -35.5t-64.5 -118t-19.5 -232.5t19.5 -232.5t64.5 -118t126 -35.5q73 0 110.5 28t63.5 101v220h-174v28h204 v-253q-19 -58 -44.5 -91t-63 -47t-96.5 -14q-93 0 -144.5 38zM231 884.5q-24 8.5 -34.5 29.5t-12.5 59h30q1 -37 21 -53t64 -16q45 0 65 16t21 53h30q-2 -38 -12.5 -59t-35 -29.5t-68.5 -8.5t-68 8.5z" />
         <glyph glyph-name="Gcircumflex" unicode="Ĝ" d="M174.5 24q-51.5 38 -73.5 127t-22 249t22 249t73.5 127t144.5 38q62 0 101 -15t64.5 -50t43.5 -97l-29 -7q-15 54 -36.5 84.5t-55.5 43.5t-88 13q-81 0 -126 -35.5t-64.5 -118t-19.5 -232.5t19.5 -232.5t64.5 -118t126 -35.5q73 0 110.5 28t63.5 101v220h-174v28h204 v-253q-19 -58 -44.5 -91t-63 -47t-96.5 -14q-93 0 -144.5 38zM415 897l-24 -18l-91 84l-92 -82l-23 18l115 102z" />
         <glyph glyph-name="uni0122" unicode="Ģ" d="M174.5 24q-51.5 38 -73.5 127t-22 249t22 249t73.5 127t144.5 38q62 0 101 -15t64.5 -50t43.5 -97l-29 -7q-15 54 -36.5 84.5t-55.5 43.5t-88 13q-81 0 -126 -35.5t-64.5 -118t-19.5 -232.5t19.5 -232.5t64.5 -118t126 -35.5q73 0 110.5 28t63.5 101v220h-174v28h204 v-253q-19 -58 -44.5 -91t-63 -47t-96.5 -14q-93 0 -144.5 38zM300 -127q-16 1 -22 8.5t-6 26.5q0 21 7 27.5t30 6.5q22 0 29 -6.5t7 -27.5q0 -26 -20 -68.5t-49 -85.5h-22z" />
         <glyph glyph-name="Gdotaccent" unicode="Ġ" d="M174.5 24q-51.5 38 -73.5 127t-22 249t22 249t73.5 127t144.5 38q62 0 101 -15t64.5 -50t43.5 -97l-29 -7q-15 54 -36.5 84.5t-55.5 43.5t-88 13q-81 0 -126 -35.5t-64.5 -118t-19.5 -232.5t19.5 -232.5t64.5 -118t126 -35.5q73 0 110.5 28t63.5 101v220h-174v28h204 v-253q-19 -58 -44.5 -91t-63 -47t-96.5 -14q-93 0 -144.5 38zM264.5 950q-9.5 9 -9.5 34t9.5 34t35.5 9t35.5 -9t9.5 -34t-9.5 -34t-35.5 -9t-35.5 9z" />
         <glyph glyph-name="H" unicode="H" d="M476 437v363h30v-800h-30v409h-352v-409h-30v800h30v-363h352z" />
         <glyph glyph-name="Hbar" unicode="Ħ" d="M506 580h58v-28h-58v-552h-30v409h-352v-409h-30v552h-58v28h58v220h30v-220h352v220h30v-220zM124 437h352v115h-352v-115z" />
         <glyph glyph-name="Hcircumflex" unicode="Ĥ" d="M476 437v363h30v-800h-30v409h-352v-409h-30v800h30v-363h352zM415 897l-24 -18l-91 84l-92 -82l-23 18l115 102z" />
         <glyph glyph-name="I" unicode="I" d="M477 800v-28h-162v-744h162v-28h-354v28h162v744h-162v28h354z" />
         <glyph glyph-name="Iacute" unicode="Í" d="M477 800v-28h-162v-744h162v-28h-354v28h162v744h-162v28h354zM411 984l-120 -106l-20 21l120 106z" />
         <glyph glyph-name="uni01CF" unicode="Ǐ" d="M477 800v-28h-162v-744h162v-28h-354v28h162v744h-162v28h354zM415 999l-115 -104l-116 102l23 18l93 -81l91 83z" />
         <glyph glyph-name="Icircumflex" unicode="Î" d="M477 800v-28h-162v-744h162v-28h-354v28h162v744h-162v28h354zM415 900l-24 -18l-91 84l-92 -82l-23 18l115 102z" />
         <glyph glyph-name="Idieresis" unicode="Ï" d="M477 800v-28h-162v-744h162v-28h-354v28h162v744h-162v28h354zM156 935.5q-9 8.5 -9 34.5q0 25 9 33t36 8t36 -8t9 -33q0 -26 -9 -34.5t-36 -8.5t-36 8.5zM372 935.5q-9 8.5 -9 34.5q0 25 9 33t36 8t36 -8t9 -33q0 -26 -9 -34.5t-36 -8.5t-36 8.5z" />
         <glyph glyph-name="Idotaccent" unicode="İ" d="M477 800v-28h-162v-744h162v-28h-354v28h162v744h-162v28h354zM264.5 953q-9.5 9 -9.5 34t9.5 34t35.5 9t35.5 -9t9.5 -34t-9.5 -34t-35.5 -9t-35.5 9z" />
         <glyph glyph-name="uni1ECA" unicode="Ị" d="M477 800v-28h-162v-744h162v-28h-354v28h162v744h-162v28h354zM264.5 -205q-9.5 9 -9.5 34t9.5 34t35.5 9t35.5 -9t9.5 -34t-9.5 -34t-35.5 -9t-35.5 9z" />
         <glyph glyph-name="Igrave" unicode="Ì" d="M477 800v-28h-162v-744h162v-28h-354v28h162v744h-162v28h354zM329 899l-20 -21l-120 106l20 21z" />
         <glyph glyph-name="uni1EC8" unicode="Ỉ" d="M477 800v-28h-162v-744h162v-28h-354v28h162v744h-162v28h354zM284 865q32 11 47 27t15 33t-13.5 28t-30.5 11q-23 0 -44.5 -9.5t-33.5 -19.5v35q16 10 37.5 16t40.5 6q30 0 52 -20t22 -51q0 -26 -21.5 -48t-63.5 -34z" />
         <glyph glyph-name="Imacron" unicode="Ī" d="M477 800v-28h-162v-744h162v-28h-354v28h162v744h-162v28h354zM427 918h-254v28h254v-28z" />
         <glyph glyph-name="Iogonek" unicode="Į" d="M477 772h-162v-744h162v-28h-110q-16 -13 -46 -30q-48 -30 -73.5 -51t-26.5 -43q0 -19 18.5 -31.5t46.5 -12.5q16 0 36.5 7.5t35.5 18.5l-1 -34q-13 -9 -32.5 -14.5t-38.5 -5.5q-95 0 -95 66q0 28 36.5 57.5t107.5 72.5h-212v28h162v744h-162v28h354v-28z" />
         <glyph glyph-name="Itilde" unicode="Ĩ" d="M477 800v-28h-162v-744h162v-28h-354v28h162v744h-162v28h354zM329.5 901.5q-15.5 10.5 -34.5 30.5q-18 18 -31.5 27t-30.5 9q-25 0 -32 -11t-11 -40h-28q3 36 22 57.5t49 21.5q19 0 34.5 -10t36.5 -30q18 -18 32 -27.5t31 -9.5q25 0 32 10.5t11 37.5h29 q-4 -35 -23 -55.5t-49 -20.5q-22 0 -37.5 10.5z" />
         <glyph glyph-name="J" unicode="J" d="M170 -1q-36 13 -60 43.5t-43 86.5l28 8q22 -69 59.5 -96t109.5 -27q77 0 120 30.5t61.5 100t18.5 194.5v433h-131v28h161v-461q0 -138 -21 -213.5t-70.5 -107.5t-138.5 -32q-58 0 -94 13z" />
         <glyph glyph-name="Jcircumflex" unicode="Ĵ" d="M170 -1q-36 13 -60 43.5t-43 86.5l28 8q22 -69 59.5 -96t109.5 -27q77 0 120 30.5t61.5 100t18.5 194.5v433h-131v28h161v-461q0 -138 -21 -213.5t-70.5 -107.5t-138.5 -32q-58 0 -94 13zM529 897l-24 -18l-91 84l-92 -82l-23 18l115 102z" />
         <glyph glyph-name="K" unicode="K" d="M542 0h-38l-295 409h-79v-409h-30v800h30v-363h76l291 363h37l-301 -376z" />
         <glyph glyph-name="uni0136" unicode="Ķ" d="M542 0h-38l-295 409h-79v-409h-30v800h30v-363h76l291 363h37l-301 -376zM300 -127q-16 1 -22 8.5t-6 26.5q0 21 7 27.5t30 6.5q22 0 29 -6.5t7 -27.5q0 -26 -20 -68.5t-49 -85.5h-22z" />
         <glyph glyph-name="L" unicode="L" d="M496 0h-365v800h30v-772h335v-28z" />
         <glyph glyph-name="Lacute" unicode="Ĺ" d="M496 0h-365v800h30v-772h335v-28zM271 981l-120 -106l-20 21l120 106z" />
         <glyph glyph-name="Lcaron" unicode="Ľ" d="M496 0h-365v800h30v-772h335v-28zM322 568h-25l-7 232h39z" />
         <glyph glyph-name="uni013B" unicode="Ļ" d="M496 0h-365v800h30v-772h335v-28zM300 -127q-16 1 -22 8.5t-6 26.5q0 21 7 27.5t30 6.5q22 0 29 -6.5t7 -27.5q0 -26 -20 -68.5t-49 -85.5h-22z" />
         <glyph glyph-name="Lslash" unicode="Ł" d="M191 469v-441h335v-28h-365v457l-98 -40v27l98 40v316h30v-304l134 55v-27z" />
         <glyph glyph-name="M" unicode="M" d="M100 0h-30l14 800h34l182 -494l182 494h34l14 -800h-30l-13 727l-169 -456h-36l-169 456z" />
         <glyph glyph-name="N" unicode="N" d="M474 64v736h30v-800h-33l-345 736v-736h-30v800h33z" />
         <glyph glyph-name="Nacute" unicode="Ń" d="M474 64v736h30v-800h-33l-345 736v-736h-30v800h33zM411 984l-120 -106l-20 21l120 106z" />
         <glyph glyph-name="Ncaron" unicode="Ň" d="M474 64v736h30v-800h-33l-345 736v-736h-30v800h33zM415 999l-115 -104l-116 102l23 18l93 -81l91 83z" />
         <glyph glyph-name="uni0145" unicode="Ņ" d="M474 64v736h30v-800h-33l-345 736v-736h-30v800h33zM300 -130q-16 1 -22 8.5t-6 26.5q0 21 7 27.5t30 6.5q22 0 29 -6.5t7 -27.5q0 -26 -20 -68.5t-49 -85.5h-22z" />
         <glyph glyph-name="Eng" unicode="Ŋ" d="M474 800h30v-800q0 -78 -27 -112t-95 -34v27q91 0 91 89q0 19 -2 30l-345 736v-736h-30v800h33l345 -736v736z" />
         <glyph glyph-name="Ntilde" unicode="Ñ" d="M474 64v736h30v-800h-33l-345 736v-736h-30v800h33zM329.5 901.5q-15.5 10.5 -34.5 30.5q-18 18 -31.5 27t-30.5 9q-25 0 -32 -11t-11 -40h-28q3 36 22 57.5t49 21.5q19 0 34.5 -10t36.5 -30q18 -18 32 -27.5t31 -9.5q25 0 32 10.5t11 37.5h29q-4 -35 -23 -55.5 t-49 -20.5q-22 0 -37.5 10.5z" />
         <glyph glyph-name="O" unicode="O" d="M165.5 19.5q-47.5 33.5 -68 113.5t-20.5 227v80q0 147 20.5 227t68 113.5t134.5 33.5t134.5 -33.5t68 -113.5t20.5 -227v-80q0 -147 -20.5 -227t-68 -113.5t-134.5 -33.5t-134.5 33.5zM415.5 46q41.5 32 59.5 106t18 208v80q0 134 -18 208t-59.5 106t-115.5 32 q-75 0 -116.5 -32t-59.5 -106t-17 -208v-80q1 -134 19 -208t59 -106t115 -32t115.5 32z" />
         <glyph glyph-name="Oacute" unicode="Ó" d="M165.5 19.5q-47.5 33.5 -68 113.5t-20.5 227v80q0 147 20.5 227t68 113.5t134.5 33.5t134.5 -33.5t68 -113.5t20.5 -227v-80q0 -147 -20.5 -227t-68 -113.5t-134.5 -33.5t-134.5 33.5zM415.5 46q41.5 32 59.5 106t18 208v80q0 134 -18 208t-59.5 106t-115.5 32 q-75 0 -116.5 -32t-59.5 -106t-17 -208v-80q1 -134 19 -208t59 -106t115 -32t115.5 32zM411 984l-120 -106l-20 21l120 106z" />
         <glyph glyph-name="uni01D1" unicode="Ǒ" d="M165.5 19.5q-47.5 33.5 -68 113.5t-20.5 227v80q0 147 20.5 227t68 113.5t134.5 33.5t134.5 -33.5t68 -113.5t20.5 -227v-80q0 -147 -20.5 -227t-68 -113.5t-134.5 -33.5t-134.5 33.5zM415.5 46q41.5 32 59.5 106t18 208v80q0 134 -18 208t-59.5 106t-115.5 32 q-75 0 -116.5 -32t-59.5 -106t-17 -208v-80q1 -134 19 -208t59 -106t115 -32t115.5 32zM415 999l-115 -104l-116 102l23 18l93 -81l91 83z" />
         <glyph glyph-name="Ocircumflex" unicode="Ô" d="M165.5 19.5q-47.5 33.5 -68 113.5t-20.5 227v80q0 147 20.5 227t68 113.5t134.5 33.5t134.5 -33.5t68 -113.5t20.5 -227v-80q0 -147 -20.5 -227t-68 -113.5t-134.5 -33.5t-134.5 33.5zM415.5 46q41.5 32 59.5 106t18 208v80q0 134 -18 208t-59.5 106t-115.5 32 q-75 0 -116.5 -32t-59.5 -106t-17 -208v-80q1 -134 19 -208t59 -106t115 -32t115.5 32zM415 900l-24 -18l-91 84l-92 -82l-23 18l115 102z" />
         <glyph glyph-name="uni1ED0" unicode="Ố" d="M165.5 19.5q-47.5 33.5 -68 113.5t-20.5 227v80q0 147 20.5 227t68 113.5t134.5 33.5t134.5 -33.5t68 -113.5t20.5 -227v-80q0 -147 -20.5 -227t-68 -113.5t-134.5 -33.5t-134.5 33.5zM415.5 46q41.5 32 59.5 106t18 208v80q0 134 -18 208t-59.5 106t-115.5 32 q-75 0 -116.5 -32t-59.5 -106t-17 -208v-80q1 -134 19 -208t59 -106t115 -32t115.5 32zM539 1023l-140 -122l-19 21l139 122zM415 854l-24 -18l-91 84l-92 -82l-23 18l115 102z" />
         <glyph glyph-name="uni1ED8" unicode="Ộ" d="M165.5 19.5q-47.5 33.5 -68 113.5t-20.5 227v80q0 147 20.5 227t68 113.5t134.5 33.5t134.5 -33.5t68 -113.5t20.5 -227v-80q0 -147 -20.5 -227t-68 -113.5t-134.5 -33.5t-134.5 33.5zM415.5 46q41.5 32 59.5 106t18 208v80q0 134 -18 208t-59.5 106t-115.5 32 q-75 0 -116.5 -32t-59.5 -106t-17 -208v-80q1 -134 19 -208t59 -106t115 -32t115.5 32zM264.5 -205q-9.5 9 -9.5 34t9.5 34t35.5 9t35.5 -9t9.5 -34t-9.5 -34t-35.5 -9t-35.5 9zM415 900l-24 -18l-91 84l-92 -82l-23 18l115 102z" />
         <glyph glyph-name="uni1ED2" unicode="Ồ" d="M165.5 19.5q-47.5 33.5 -68 113.5t-20.5 227v80q0 147 20.5 227t68 113.5t134.5 33.5t134.5 -33.5t68 -113.5t20.5 -227v-80q0 -147 -20.5 -227t-68 -113.5t-134.5 -33.5t-134.5 33.5zM415.5 46q41.5 32 59.5 106t18 208v80q0 134 -18 208t-59.5 106t-115.5 32 q-75 0 -116.5 -32t-59.5 -106t-17 -208v-80q1 -134 19 -208t59 -106t115 -32t115.5 32zM451 893l-107 100l22 16l109 -98zM415 854l-24 -18l-91 84l-92 -82l-23 18l115 102z" />
         <glyph glyph-name="uni1ED4" unicode="Ổ" d="M165.5 19.5q-47.5 33.5 -68 113.5t-20.5 227v80q0 147 20.5 227t68 113.5t134.5 33.5t134.5 -33.5t68 -113.5t20.5 -227v-80q0 -147 -20.5 -227t-68 -113.5t-134.5 -33.5t-134.5 33.5zM415.5 46q41.5 32 59.5 106t18 208v80q0 134 -18 208t-59.5 106t-115.5 32 q-75 0 -116.5 -32t-59.5 -106t-17 -208v-80q1 -134 19 -208t59 -106t115 -32t115.5 32zM415 854l-24 -18l-91 84l-92 -82l-23 18l115 102zM445 917q32 11 47 27t15 33t-13.5 28t-30.5 11q-23 0 -44.5 -9.5t-33.5 -19.5v35q16 10 37.5 16t40.5 6q30 0 52 -20t22 -51 q0 -26 -21.5 -48t-63.5 -34z" />
         <glyph glyph-name="uni1ED6" unicode="Ỗ" d="M165.5 19.5q-47.5 33.5 -68 113.5t-20.5 227v80q0 147 20.5 227t68 113.5t134.5 33.5t134.5 -33.5t68 -113.5t20.5 -227v-80q0 -147 -20.5 -227t-68 -113.5t-134.5 -33.5t-134.5 33.5zM415.5 46q41.5 32 59.5 106t18 208v80q0 134 -18 208t-59.5 106t-115.5 32 q-75 0 -116.5 -32t-59.5 -106t-17 -208v-80q1 -134 19 -208t59 -106t115 -32t115.5 32zM415 854l-24 -18l-91 84l-92 -82l-23 18l115 102zM512.5 909.5q-15.5 10.5 -34.5 30.5q-18 18 -31.5 27t-30.5 9q-25 0 -32 -11t-11 -40h-28q3 36 22 57.5t49 21.5q19 0 34.5 -10 t36.5 -30q18 -18 32 -27.5t31 -9.5q25 0 32 10.5t11 37.5h29q-4 -35 -23 -55.5t-49 -20.5q-22 0 -37.5 10.5z" />
         <glyph glyph-name="Odieresis" unicode="Ö" d="M165.5 19.5q-47.5 33.5 -68 113.5t-20.5 227v80q0 147 20.5 227t68 113.5t134.5 33.5t134.5 -33.5t68 -113.5t20.5 -227v-80q0 -147 -20.5 -227t-68 -113.5t-134.5 -33.5t-134.5 33.5zM415.5 46q41.5 32 59.5 106t18 208v80q0 134 -18 208t-59.5 106t-115.5 32 q-75 0 -116.5 -32t-59.5 -106t-17 -208v-80q1 -134 19 -208t59 -106t115 -32t115.5 32zM156 935.5q-9 8.5 -9 34.5q0 25 9 33t36 8t36 -8t9 -33q0 -26 -9 -34.5t-36 -8.5t-36 8.5zM372 935.5q-9 8.5 -9 34.5q0 25 9 33t36 8t36 -8t9 -33q0 -26 -9 -34.5t-36 -8.5t-36 8.5z " />
         <glyph glyph-name="uni1ECC" unicode="Ọ" d="M165.5 19.5q-47.5 33.5 -68 113.5t-20.5 227v80q0 147 20.5 227t68 113.5t134.5 33.5t134.5 -33.5t68 -113.5t20.5 -227v-80q0 -147 -20.5 -227t-68 -113.5t-134.5 -33.5t-134.5 33.5zM415.5 46q41.5 32 59.5 106t18 208v80q0 134 -18 208t-59.5 106t-115.5 32 q-75 0 -116.5 -32t-59.5 -106t-17 -208v-80q1 -134 19 -208t59 -106t115 -32t115.5 32zM264.5 -205q-9.5 9 -9.5 34t9.5 34t35.5 9t35.5 -9t9.5 -34t-9.5 -34t-35.5 -9t-35.5 9z" />
         <glyph glyph-name="Ograve" unicode="Ò" d="M165.5 19.5q-47.5 33.5 -68 113.5t-20.5 227v80q0 147 20.5 227t68 113.5t134.5 33.5t134.5 -33.5t68 -113.5t20.5 -227v-80q0 -147 -20.5 -227t-68 -113.5t-134.5 -33.5t-134.5 33.5zM415.5 46q41.5 32 59.5 106t18 208v80q0 134 -18 208t-59.5 106t-115.5 32 q-75 0 -116.5 -32t-59.5 -106t-17 -208v-80q1 -134 19 -208t59 -106t115 -32t115.5 32zM329 899l-20 -21l-120 106l20 21z" />
         <glyph glyph-name="uni1ECE" unicode="Ỏ" d="M165.5 19.5q-47.5 33.5 -68 113.5t-20.5 227v80q0 147 20.5 227t68 113.5t134.5 33.5t134.5 -33.5t68 -113.5t20.5 -227v-80q0 -147 -20.5 -227t-68 -113.5t-134.5 -33.5t-134.5 33.5zM415.5 46q41.5 32 59.5 106t18 208v80q0 134 -18 208t-59.5 106t-115.5 32 q-75 0 -116.5 -32t-59.5 -106t-17 -208v-80q1 -134 19 -208t59 -106t115 -32t115.5 32zM284 865q32 11 47 27t15 33t-13.5 28t-30.5 11q-23 0 -44.5 -9.5t-33.5 -19.5v35q16 10 37.5 16t40.5 6q30 0 52 -20t22 -51q0 -26 -21.5 -48t-63.5 -34z" />
         <glyph glyph-name="Ohorn" unicode="Ơ" d="M609 901h30v-121q0 -50 -26.5 -81t-70.5 -31q-21 0 -44 14q25 -79 25 -242v-80q0 -147 -20.5 -227t-68 -113.5t-134.5 -33.5t-134.5 33.5t-68 113.5t-20.5 227v80q0 147 20.5 227t68 113.5t134.5 33.5q73 0 118 -23.5t69 -77.5v4q2 -7 18.5 -14.5t40.5 -7.5q27 0 45 23.5 t18 61.5v121zM493 440q0 134 -18 208t-59.5 106t-115.5 32q-75 0 -116.5 -32t-59.5 -106t-17 -208v-80q1 -134 19 -208t59 -106t115 -32t115.5 32t59.5 106t18 208v80z" />
         <glyph glyph-name="uni1EDA" unicode="Ớ" d="M609 901h30v-121q0 -50 -26.5 -81t-70.5 -31q-21 0 -44 14q25 -79 25 -242v-80q0 -147 -20.5 -227t-68 -113.5t-134.5 -33.5t-134.5 33.5t-68 113.5t-20.5 227v80q0 147 20.5 227t68 113.5t134.5 33.5q73 0 118 -23.5t69 -77.5v4q2 -7 18.5 -14.5t40.5 -7.5q27 0 45 23.5 t18 61.5v121zM493 440q0 134 -18 208t-59.5 106t-115.5 32q-75 0 -116.5 -32t-59.5 -106t-17 -208v-80q1 -134 19 -208t59 -106t115 -32t115.5 32t59.5 106t18 208v80zM411 984l-120 -106l-20 21l120 106z" />
         <glyph glyph-name="uni1EE2" unicode="Ợ" d="M609 901h30v-121q0 -50 -26.5 -81t-70.5 -31q-21 0 -44 14q25 -79 25 -242v-80q0 -147 -20.5 -227t-68 -113.5t-134.5 -33.5t-134.5 33.5t-68 113.5t-20.5 227v80q0 147 20.5 227t68 113.5t134.5 33.5q73 0 118 -23.5t69 -77.5v4q2 -7 18.5 -14.5t40.5 -7.5q27 0 45 23.5 t18 61.5v121zM493 440q0 134 -18 208t-59.5 106t-115.5 32q-75 0 -116.5 -32t-59.5 -106t-17 -208v-80q1 -134 19 -208t59 -106t115 -32t115.5 32t59.5 106t18 208v80zM264.5 -205q-9.5 9 -9.5 34t9.5 34t35.5 9t35.5 -9t9.5 -34t-9.5 -34t-35.5 -9t-35.5 9z" />
         <glyph glyph-name="uni1EDC" unicode="Ờ" d="M609 901h30v-121q0 -50 -26.5 -81t-70.5 -31q-21 0 -44 14q25 -79 25 -242v-80q0 -147 -20.5 -227t-68 -113.5t-134.5 -33.5t-134.5 33.5t-68 113.5t-20.5 227v80q0 147 20.5 227t68 113.5t134.5 33.5q73 0 118 -23.5t69 -77.5v4q2 -7 18.5 -14.5t40.5 -7.5q27 0 45 23.5 t18 61.5v121zM493 440q0 134 -18 208t-59.5 106t-115.5 32q-75 0 -116.5 -32t-59.5 -106t-17 -208v-80q1 -134 19 -208t59 -106t115 -32t115.5 32t59.5 106t18 208v80zM329 899l-20 -21l-120 106l20 21z" />
         <glyph glyph-name="uni1EDE" unicode="Ở" d="M609 901h30v-121q0 -50 -26.5 -81t-70.5 -31q-21 0 -44 14q25 -79 25 -242v-80q0 -147 -20.5 -227t-68 -113.5t-134.5 -33.5t-134.5 33.5t-68 113.5t-20.5 227v80q0 147 20.5 227t68 113.5t134.5 33.5q73 0 118 -23.5t69 -77.5v4q2 -7 18.5 -14.5t40.5 -7.5q27 0 45 23.5 t18 61.5v121zM493 440q0 134 -18 208t-59.5 106t-115.5 32q-75 0 -116.5 -32t-59.5 -106t-17 -208v-80q1 -134 19 -208t59 -106t115 -32t115.5 32t59.5 106t18 208v80zM284 865q32 11 47 27t15 33t-13.5 28t-30.5 11q-23 0 -44.5 -9.5t-33.5 -19.5v35q16 10 37.5 16t40.5 6 q30 0 52 -20t22 -51q0 -26 -21.5 -48t-63.5 -34z" />
         <glyph glyph-name="uni1EE0" unicode="Ỡ" d="M609 901h30v-121q0 -50 -26.5 -81t-70.5 -31q-21 0 -44 14q25 -79 25 -242v-80q0 -147 -20.5 -227t-68 -113.5t-134.5 -33.5t-134.5 33.5t-68 113.5t-20.5 227v80q0 147 20.5 227t68 113.5t134.5 33.5q73 0 118 -23.5t69 -77.5v4q2 -7 18.5 -14.5t40.5 -7.5q27 0 45 23.5 t18 61.5v121zM493 440q0 134 -18 208t-59.5 106t-115.5 32q-75 0 -116.5 -32t-59.5 -106t-17 -208v-80q1 -134 19 -208t59 -106t115 -32t115.5 32t59.5 106t18 208v80zM329.5 901.5q-15.5 10.5 -34.5 30.5q-18 18 -31.5 27t-30.5 9q-25 0 -32 -11t-11 -40h-28q3 36 22 57.5 t49 21.5q19 0 34.5 -10t36.5 -30q18 -18 32 -27.5t31 -9.5q25 0 32 10.5t11 37.5h29q-4 -35 -23 -55.5t-49 -20.5q-22 0 -37.5 10.5z" />
         <glyph glyph-name="Ohungarumlaut" unicode="Ő" d="M165.5 19.5q-47.5 33.5 -68 113.5t-20.5 227v80q0 147 20.5 227t68 113.5t134.5 33.5t134.5 -33.5t68 -113.5t20.5 -227v-80q0 -147 -20.5 -227t-68 -113.5t-134.5 -33.5t-134.5 33.5zM415.5 46q41.5 32 59.5 106t18 208v80q0 134 -18 208t-59.5 106t-115.5 32 q-75 0 -116.5 -32t-59.5 -106t-17 -208v-80q1 -134 19 -208t59 -106t115 -32t115.5 32zM298 984l-120 -106l-20 21l120 106zM442 984l-120 -106l-20 21l120 106z" />
         <glyph glyph-name="Omacron" unicode="Ō" d="M165.5 19.5q-47.5 33.5 -68 113.5t-20.5 227v80q0 147 20.5 227t68 113.5t134.5 33.5t134.5 -33.5t68 -113.5t20.5 -227v-80q0 -147 -20.5 -227t-68 -113.5t-134.5 -33.5t-134.5 33.5zM415.5 46q41.5 32 59.5 106t18 208v80q0 134 -18 208t-59.5 106t-115.5 32 q-75 0 -116.5 -32t-59.5 -106t-17 -208v-80q1 -134 19 -208t59 -106t115 -32t115.5 32zM427 918h-254v28h254v-28z" />
         <glyph glyph-name="Oslash" unicode="Ø" d="M471 742q28 -42 40 -114.5t12 -187.5v-80q0 -147 -20.5 -227t-68 -113.5t-134.5 -33.5q-51 0 -87.5 11t-62.5 35l-37 -82h-33l49 108q-28 42 -40 114.5t-12 187.5v80q0 147 20.5 227t68 113.5t134.5 33.5q51 0 87.5 -11t62.5 -35l37 82h33zM107 360q0 -97 9 -161t29 -104 l290 640q-22 27 -55 39t-80 12q-74 0 -115.5 -32t-59.5 -106t-18 -208v-80zM493 440q0 97 -9 161t-29 104l-290 -640q22 -27 55 -39t80 -12q74 0 115.5 32t59.5 106t18 208v80z" />
         <glyph glyph-name="Otilde" unicode="Õ" d="M165.5 19.5q-47.5 33.5 -68 113.5t-20.5 227v80q0 147 20.5 227t68 113.5t134.5 33.5t134.5 -33.5t68 -113.5t20.5 -227v-80q0 -147 -20.5 -227t-68 -113.5t-134.5 -33.5t-134.5 33.5zM415.5 46q41.5 32 59.5 106t18 208v80q0 134 -18 208t-59.5 106t-115.5 32 q-75 0 -116.5 -32t-59.5 -106t-17 -208v-80q1 -134 19 -208t59 -106t115 -32t115.5 32zM329.5 901.5q-15.5 10.5 -34.5 30.5q-18 18 -31.5 27t-30.5 9q-25 0 -32 -11t-11 -40h-28q3 36 22 57.5t49 21.5q19 0 34.5 -10t36.5 -30q18 -18 32 -27.5t31 -9.5q25 0 32 10.5 t11 37.5h29q-4 -35 -23 -55.5t-49 -20.5q-22 0 -37.5 10.5z" />
         <glyph glyph-name="OE" unicode="Œ" d="M598 772h-240v-335h144v-28h-144v-381h240v-28h-270v97q-20 -60 -55.5 -85.5t-92.5 -25.5q-69 0 -107.5 37.5t-54.5 125.5t-16 250t16.5 251t54.5 126.5t107 37.5q57 0 92.5 -26t55.5 -87v99h270v-28zM268 49.5q32 35.5 46 118.5t14 231q0 149 -14 232t-46 119t-88 36 q-58 0 -89.5 -35.5t-45 -118.5t-13.5 -233t13.5 -232t45 -117.5t89.5 -35.5q56 0 88 35.5z" />
         <glyph glyph-name="P" unicode="P" d="M320 800q80 0 124 -19.5t62.5 -66t18.5 -132.5q0 -84 -18.5 -130.5t-62.5 -67t-124 -20.5h-174v-364h-30v800h204zM320 392q66 0 104 18.5t54.5 59.5t16.5 112q0 73 -16.5 114t-54 58.5t-104.5 17.5h-174v-380h174z" />
         <glyph glyph-name="Thorn" unicode="Þ" d="M300 595q80 0 124 -17.5t62.5 -59.5t18.5 -118t-18.5 -118t-62.5 -59.5t-124 -17.5h-154v-205h-30v800h30v-205h154zM300 233q67 0 104.5 16t54 52t16.5 99t-16.5 99t-54 52t-104.5 16h-154v-334h154z" />
         <glyph glyph-name="Q" unicode="Q" d="M515 -124q8 2 30.5 6.5t39.5 6.5v-27q-30 -2 -72 -15q-31 -8 -50 -11.5t-43 -3.5q-25 0 -45 6.5t-46 20.5q-33 16 -58.5 24t-63.5 8h-18v27q59 4 98 68q-82 3 -126.5 37.5t-64 114t-19.5 222.5v80q0 147 20.5 227t68 113.5t134.5 33.5t134.5 -33.5t68 -113.5t20.5 -227 v-80q0 -140 -18.5 -219t-61.5 -114.5t-120 -39.5q-7 -24 -23 -46t-31 -27q11 -1 29 -9.5t22 -10.5q30 -16 53.5 -25t46.5 -9q33 0 95 16zM107 360q1 -134 19 -208t59 -106t115 -32t115.5 32t59.5 106t18 208v80q0 134 -18 208t-59.5 106t-115.5 32q-75 0 -116.5 -32 t-59.5 -106t-17 -208v-80z" />
         <glyph glyph-name="R" unicode="R" d="M494 0l-231 364h-125v-364h-30v800h204q80 0 124 -19.5t62.5 -66t18.5 -132.5q0 -84 -18.5 -130.5t-62.5 -67t-124 -20.5h-13l229 -364h-34zM138 772v-380h174q66 0 104 18.5t54.5 59.5t16.5 112q0 73 -16.5 114t-54 58.5t-104.5 17.5h-174z" />
         <glyph glyph-name="Racute" unicode="Ŕ" d="M494 0l-231 364h-125v-364h-30v800h204q80 0 124 -19.5t62.5 -66t18.5 -132.5q0 -84 -18.5 -130.5t-62.5 -67t-124 -20.5h-13l229 -364h-34zM138 772v-380h174q66 0 104 18.5t54.5 59.5t16.5 112q0 73 -16.5 114t-54 58.5t-104.5 17.5h-174zM411 981l-120 -106l-20 21 l120 106z" />
         <glyph glyph-name="Rcaron" unicode="Ř" d="M494 0l-231 364h-125v-364h-30v800h204q80 0 124 -19.5t62.5 -66t18.5 -132.5q0 -84 -18.5 -130.5t-62.5 -67t-124 -20.5h-13l229 -364h-34zM138 772v-380h174q66 0 104 18.5t54.5 59.5t16.5 112q0 73 -16.5 114t-54 58.5t-104.5 17.5h-174zM415 996l-115 -104l-116 102 l23 18l93 -81l91 83z" />
         <glyph glyph-name="uni0156" unicode="Ŗ" d="M494 0l-231 364h-125v-364h-30v800h204q80 0 124 -19.5t62.5 -66t18.5 -132.5q0 -84 -18.5 -130.5t-62.5 -67t-124 -20.5h-13l229 -364h-34zM138 772v-380h174q66 0 104 18.5t54.5 59.5t16.5 112q0 73 -16.5 114t-54 58.5t-104.5 17.5h-174zM300 -127q-16 1 -22 8.5 t-6 26.5q0 21 7 27.5t30 6.5q22 0 29 -6.5t7 -27.5q0 -26 -20 -68.5t-49 -85.5h-22z" />
         <glyph glyph-name="S" unicode="S" d="M197.5 -5q-39.5 9 -66 30t-48.5 59l21 20q25 -50 69 -70t127 -20q70 0 109.5 18.5t57 60.5t17.5 117q0 51 -17 86.5t-56 61.5t-108 49q-79 26 -122.5 54t-62 63.5t-18.5 88.5q0 80 18 122.5t60.5 60.5t121.5 18q84 0 126.5 -18t73.5 -66l-19 -21q-25 43 -66 60t-115 17 q-65 0 -101.5 -16t-52.5 -53t-16 -104t36.5 -106t130.5 -68q84 -26 130.5 -56t66.5 -71t20 -102q0 -88 -19.5 -136t-65 -68t-129.5 -20q-63 0 -102.5 9z" />
         <glyph glyph-name="Sacute" unicode="Ś" d="M197.5 -5q-39.5 9 -66 30t-48.5 59l21 20q25 -50 69 -70t127 -20q70 0 109.5 18.5t57 60.5t17.5 117q0 51 -17 86.5t-56 61.5t-108 49q-79 26 -122.5 54t-62 63.5t-18.5 88.5q0 80 18 122.5t60.5 60.5t121.5 18q84 0 126.5 -18t73.5 -66l-19 -21q-25 43 -66 60t-115 17 q-65 0 -101.5 -16t-52.5 -53t-16 -104t36.5 -106t130.5 -68q84 -26 130.5 -56t66.5 -71t20 -102q0 -88 -19.5 -136t-65 -68t-129.5 -20q-63 0 -102.5 9zM411 984l-120 -106l-20 21l120 106z" />
         <glyph glyph-name="Scaron" unicode="Š" d="M197.5 -5q-39.5 9 -66 30t-48.5 59l21 20q25 -50 69 -70t127 -20q70 0 109.5 18.5t57 60.5t17.5 117q0 51 -17 86.5t-56 61.5t-108 49q-79 26 -122.5 54t-62 63.5t-18.5 88.5q0 80 18 122.5t60.5 60.5t121.5 18q84 0 126.5 -18t73.5 -66l-19 -21q-25 43 -66 60t-115 17 q-65 0 -101.5 -16t-52.5 -53t-16 -104t36.5 -106t130.5 -68q84 -26 130.5 -56t66.5 -71t20 -102q0 -88 -19.5 -136t-65 -68t-129.5 -20q-63 0 -102.5 9zM415 999l-115 -104l-116 102l23 18l93 -81l91 83z" />
         <glyph glyph-name="Scedilla" unicode="Ş" d="M496 76.5q-18 -47.5 -61 -68t-120 -22.5v-23q33 -8 53.5 -26.5t20.5 -41.5q0 -33 -26 -53t-69 -20q-17 0 -37.5 5.5t-35.5 14.5l13 32q14 -11 31 -17.5t29 -6.5q29 0 47 12.5t18 32.5q0 16 -20.5 26t-53.5 10v55q-84 1 -127.5 22.5t-74.5 75.5l21 20q25 -50 69 -70 t127 -20q70 0 109.5 18.5t57 60.5t17.5 117q0 51 -17 86.5t-56 61.5t-108 49q-79 26 -122.5 54t-62 63.5t-18.5 88.5q0 80 18 122.5t60.5 60.5t121.5 18q84 0 126.5 -18t73.5 -66l-19 -21q-25 43 -66 60t-115 17q-65 0 -101.5 -16t-52.5 -53t-16 -104t36.5 -106t130.5 -68 q84 -26 130.5 -56t66.5 -71t20 -102q0 -86 -18 -133.5z" />
         <glyph glyph-name="Scircumflex" unicode="Ŝ" d="M197.5 -5q-39.5 9 -66 30t-48.5 59l21 20q25 -50 69 -70t127 -20q70 0 109.5 18.5t57 60.5t17.5 117q0 51 -17 86.5t-56 61.5t-108 49q-79 26 -122.5 54t-62 63.5t-18.5 88.5q0 80 18 122.5t60.5 60.5t121.5 18q84 0 126.5 -18t73.5 -66l-19 -21q-25 43 -66 60t-115 17 q-65 0 -101.5 -16t-52.5 -53t-16 -104t36.5 -106t130.5 -68q84 -26 130.5 -56t66.5 -71t20 -102q0 -88 -19.5 -136t-65 -68t-129.5 -20q-63 0 -102.5 9zM415 900l-24 -18l-91 84l-92 -82l-23 18l115 102z" />
         <glyph glyph-name="uni0218" unicode="Ș" d="M197.5 -5q-39.5 9 -66 30t-48.5 59l21 20q25 -50 69 -70t127 -20q70 0 109.5 18.5t57 60.5t17.5 117q0 51 -17 86.5t-56 61.5t-108 49q-79 26 -122.5 54t-62 63.5t-18.5 88.5q0 80 18 122.5t60.5 60.5t121.5 18q84 0 126.5 -18t73.5 -66l-19 -21q-25 43 -66 60t-115 17 q-65 0 -101.5 -16t-52.5 -53t-16 -104t36.5 -106t130.5 -68q84 -26 130.5 -56t66.5 -71t20 -102q0 -88 -19.5 -136t-65 -68t-129.5 -20q-63 0 -102.5 9zM300 -127q-16 1 -22 8.5t-6 26.5q0 21 7 27.5t30 6.5q22 0 29 -6.5t7 -27.5q0 -26 -20 -68.5t-49 -85.5h-22z" />
         <glyph glyph-name="uni1E9E" unicode="ẞ" d="M383 471q77 0 119.5 -23t61 -75t18.5 -144q0 -97 -18.5 -149t-60.5 -73t-120 -21q-76 0 -118 12t-60 40.5t-18 79.5h30q0 -41 15 -63t50.5 -31.5t100.5 -9.5q66 0 102 18.5t51.5 64.5t15.5 132q0 82 -15.5 128t-52 66.5t-101.5 20.5h-59l200 328h-261q-83 0 -133 -55 t-50 -145v-572h-30v572q0 106 58.5 167t160.5 61h303l-198 -329h9z" />
         <glyph glyph-name="T" unicode="T" d="M558 800v-28h-243v-772h-30v772h-243v28h516z" />
         <glyph glyph-name="Tbar" unicode="Ŧ" d="M558 800v-28h-243v-335h177v-28h-177v-409h-30v409h-177v28h177v335h-243v28h516z" />
         <glyph glyph-name="Tcaron" unicode="Ť" d="M558 800v-28h-243v-772h-30v772h-243v28h516zM415 996l-115 -104l-116 102l23 18l93 -81l91 83z" />
         <glyph glyph-name="uni0162" unicode="Ţ" d="M315 -37q33 -8 53.5 -26.5t20.5 -41.5q0 -33 -26 -53t-69 -20q-17 0 -37.5 5.5t-35.5 14.5l13 32q14 -11 31 -17.5t29 -6.5q29 0 47 12.5t18 32.5q0 16 -20.5 26t-53.5 10v841h-243v28h516v-28h-243v-809z" />
         <glyph glyph-name="uni021A" unicode="Ț" d="M558 800v-28h-243v-772h-30v772h-243v28h516zM300 -127q-16 1 -22 8.5t-6 26.5q0 21 7 27.5t30 6.5q22 0 29 -6.5t7 -27.5q0 -26 -20 -68.5t-49 -85.5h-22z" />
         <glyph glyph-name="U" unicode="U" d="M178 13q-43 27 -61.5 91.5t-18.5 183.5v512h30v-512q0 -105 16 -164t53 -84.5t103 -25.5t103 25.5t53 84.5t16 164v512h30v-512q0 -119 -18.5 -183.5t-61.5 -91.5t-122 -27t-122 27z" />
         <glyph glyph-name="Uacute" unicode="Ú" d="M178 13q-43 27 -61.5 91.5t-18.5 183.5v512h30v-512q0 -105 16 -164t53 -84.5t103 -25.5t103 25.5t53 84.5t16 164v512h30v-512q0 -119 -18.5 -183.5t-61.5 -91.5t-122 -27t-122 27zM411 984l-120 -106l-20 21l120 106z" />
         <glyph glyph-name="Ubreve" unicode="Ŭ" d="M178 13q-43 27 -61.5 91.5t-18.5 183.5v512h30v-512q0 -105 16 -164t53 -84.5t103 -25.5t103 25.5t53 84.5t16 164v512h30v-512q0 -119 -18.5 -183.5t-61.5 -91.5t-122 -27t-122 27zM231 887.5q-24 8.5 -34.5 29.5t-12.5 59h30q1 -37 21 -53t64 -16q45 0 65 16t21 53h30 q-2 -38 -12.5 -59t-35 -29.5t-68.5 -8.5t-68 8.5z" />
         <glyph glyph-name="uni01D3" unicode="Ǔ" d="M178 13q-43 27 -61.5 91.5t-18.5 183.5v512h30v-512q0 -105 16 -164t53 -84.5t103 -25.5t103 25.5t53 84.5t16 164v512h30v-512q0 -119 -18.5 -183.5t-61.5 -91.5t-122 -27t-122 27zM415 999l-115 -104l-116 102l23 18l93 -81l91 83z" />
         <glyph glyph-name="Ucircumflex" unicode="Û" d="M178 13q-43 27 -61.5 91.5t-18.5 183.5v512h30v-512q0 -105 16 -164t53 -84.5t103 -25.5t103 25.5t53 84.5t16 164v512h30v-512q0 -119 -18.5 -183.5t-61.5 -91.5t-122 -27t-122 27zM415 900l-24 -18l-91 84l-92 -82l-23 18l115 102z" />
         <glyph glyph-name="Udieresis" unicode="Ü" d="M178 13q-43 27 -61.5 91.5t-18.5 183.5v512h30v-512q0 -105 16 -164t53 -84.5t103 -25.5t103 25.5t53 84.5t16 164v512h30v-512q0 -119 -18.5 -183.5t-61.5 -91.5t-122 -27t-122 27zM156 935.5q-9 8.5 -9 34.5q0 25 9 33t36 8t36 -8t9 -33q0 -26 -9 -34.5t-36 -8.5 t-36 8.5zM372 935.5q-9 8.5 -9 34.5q0 25 9 33t36 8t36 -8t9 -33q0 -26 -9 -34.5t-36 -8.5t-36 8.5z" />
         <glyph glyph-name="uni01D7" unicode="Ǘ" d="M178 13q-43 27 -61.5 91.5t-18.5 183.5v512h30v-512q0 -105 16 -164t53 -84.5t103 -25.5t103 25.5t53 84.5t16 164v512h30v-512q0 -119 -18.5 -183.5t-61.5 -91.5t-122 -27t-122 27zM156 838.5q-9 8.5 -9 34.5q0 25 9 33t36 8t36 -8t9 -33q0 -26 -9 -34.5t-36 -8.5 t-36 8.5zM372 838.5q-9 8.5 -9 34.5q0 25 9 33t36 8t36 -8t9 -33q0 -26 -9 -34.5t-36 -8.5t-36 8.5zM411 1039l-120 -106l-20 21l120 106z" />
         <glyph glyph-name="uni01D9" unicode="Ǚ" d="M178 13q-43 27 -61.5 91.5t-18.5 183.5v512h30v-512q0 -105 16 -164t53 -84.5t103 -25.5t103 25.5t53 84.5t16 164v512h30v-512q0 -119 -18.5 -183.5t-61.5 -91.5t-122 -27t-122 27zM156 838.5q-9 8.5 -9 34.5q0 25 9 33t36 8t36 -8t9 -33q0 -26 -9 -34.5t-36 -8.5 t-36 8.5zM372 838.5q-9 8.5 -9 34.5q0 25 9 33t36 8t36 -8t9 -33q0 -26 -9 -34.5t-36 -8.5t-36 8.5zM415 1045l-115 -104l-116 102l23 18l93 -81l91 83z" />
         <glyph glyph-name="uni01DB" unicode="Ǜ" d="M178 13q-43 27 -61.5 91.5t-18.5 183.5v512h30v-512q0 -105 16 -164t53 -84.5t103 -25.5t103 25.5t53 84.5t16 164v512h30v-512q0 -119 -18.5 -183.5t-61.5 -91.5t-122 -27t-122 27zM156 838.5q-9 8.5 -9 34.5q0 25 9 33t36 8t36 -8t9 -33q0 -26 -9 -34.5t-36 -8.5 t-36 8.5zM372 838.5q-9 8.5 -9 34.5q0 25 9 33t36 8t36 -8t9 -33q0 -26 -9 -34.5t-36 -8.5t-36 8.5zM329 954l-20 -21l-120 106l20 21z" />
         <glyph glyph-name="uni01D5" unicode="Ǖ" d="M178 13q-43 27 -61.5 91.5t-18.5 183.5v512h30v-512q0 -105 16 -164t53 -84.5t103 -25.5t103 25.5t53 84.5t16 164v512h30v-512q0 -119 -18.5 -183.5t-61.5 -91.5t-122 -27t-122 27zM156 838.5q-9 8.5 -9 34.5q0 25 9 33t36 8t36 -8t9 -33q0 -26 -9 -34.5t-36 -8.5 t-36 8.5zM372 838.5q-9 8.5 -9 34.5q0 25 9 33t36 8t36 -8t9 -33q0 -26 -9 -34.5t-36 -8.5t-36 8.5zM427 1036h-254v28h254v-28z" />
         <glyph glyph-name="uni1EE4" unicode="Ụ" d="M178 13q-43 27 -61.5 91.5t-18.5 183.5v512h30v-512q0 -105 16 -164t53 -84.5t103 -25.5t103 25.5t53 84.5t16 164v512h30v-512q0 -119 -18.5 -183.5t-61.5 -91.5t-122 -27t-122 27zM264.5 -205q-9.5 9 -9.5 34t9.5 34t35.5 9t35.5 -9t9.5 -34t-9.5 -34t-35.5 -9t-35.5 9 z" />
         <glyph glyph-name="Ugrave" unicode="Ù" d="M178 13q-43 27 -61.5 91.5t-18.5 183.5v512h30v-512q0 -105 16 -164t53 -84.5t103 -25.5t103 25.5t53 84.5t16 164v512h30v-512q0 -119 -18.5 -183.5t-61.5 -91.5t-122 -27t-122 27zM329 899l-20 -21l-120 106l20 21z" />
         <glyph glyph-name="uni1EE6" unicode="Ủ" d="M178 13q-43 27 -61.5 91.5t-18.5 183.5v512h30v-512q0 -105 16 -164t53 -84.5t103 -25.5t103 25.5t53 84.5t16 164v512h30v-512q0 -119 -18.5 -183.5t-61.5 -91.5t-122 -27t-122 27zM284 865q32 11 47 27t15 33t-13.5 28t-30.5 11q-23 0 -44.5 -9.5t-33.5 -19.5v35 q16 10 37.5 16t40.5 6q30 0 52 -20t22 -51q0 -26 -21.5 -48t-63.5 -34z" />
         <glyph glyph-name="Uhorn" unicode="Ư" d="M609 984h30v-121q0 -51 -26.5 -82t-70.5 -31q-18 0 -40 12v-474q0 -119 -18.5 -183.5t-61.5 -91.5t-122 -27t-122 27t-61.5 91.5t-18.5 183.5v512h30v-512q0 -105 16 -164t53 -84.5t103 -25.5t103 25.5t53 84.5t16 164v512h30v-13q18 -9 44 -9q27 0 45 23.5t18 61.5v121z " />
         <glyph glyph-name="uni1EE8" unicode="Ứ" d="M609 984h30v-121q0 -51 -26.5 -82t-70.5 -31q-18 0 -40 12v-474q0 -119 -18.5 -183.5t-61.5 -91.5t-122 -27t-122 27t-61.5 91.5t-18.5 183.5v512h30v-512q0 -105 16 -164t53 -84.5t103 -25.5t103 25.5t53 84.5t16 164v512h30v-13q18 -9 44 -9q27 0 45 23.5t18 61.5v121z M411 984l-120 -106l-20 21l120 106z" />
         <glyph glyph-name="uni1EF0" unicode="Ự" d="M609 984h30v-121q0 -51 -26.5 -82t-70.5 -31q-18 0 -40 12v-474q0 -119 -18.5 -183.5t-61.5 -91.5t-122 -27t-122 27t-61.5 91.5t-18.5 183.5v512h30v-512q0 -105 16 -164t53 -84.5t103 -25.5t103 25.5t53 84.5t16 164v512h30v-13q18 -9 44 -9q27 0 45 23.5t18 61.5v121z M264.5 -205q-9.5 9 -9.5 34t9.5 34t35.5 9t35.5 -9t9.5 -34t-9.5 -34t-35.5 -9t-35.5 9z" />
         <glyph glyph-name="uni1EEA" unicode="Ừ" d="M609 984h30v-121q0 -51 -26.5 -82t-70.5 -31q-18 0 -40 12v-474q0 -119 -18.5 -183.5t-61.5 -91.5t-122 -27t-122 27t-61.5 91.5t-18.5 183.5v512h30v-512q0 -105 16 -164t53 -84.5t103 -25.5t103 25.5t53 84.5t16 164v512h30v-13q18 -9 44 -9q27 0 45 23.5t18 61.5v121z M329 899l-20 -21l-120 106l20 21z" />
         <glyph glyph-name="uni1EEC" unicode="Ử" d="M609 984h30v-121q0 -51 -26.5 -82t-70.5 -31q-18 0 -40 12v-474q0 -119 -18.5 -183.5t-61.5 -91.5t-122 -27t-122 27t-61.5 91.5t-18.5 183.5v512h30v-512q0 -105 16 -164t53 -84.5t103 -25.5t103 25.5t53 84.5t16 164v512h30v-13q18 -9 44 -9q27 0 45 23.5t18 61.5v121z M284 865q32 11 47 27t15 33t-13.5 28t-30.5 11q-23 0 -44.5 -9.5t-33.5 -19.5v35q16 10 37.5 16t40.5 6q30 0 52 -20t22 -51q0 -26 -21.5 -48t-63.5 -34z" />
         <glyph glyph-name="uni1EEE" unicode="Ữ" d="M609 984h30v-121q0 -51 -26.5 -82t-70.5 -31q-18 0 -40 12v-474q0 -119 -18.5 -183.5t-61.5 -91.5t-122 -27t-122 27t-61.5 91.5t-18.5 183.5v512h30v-512q0 -105 16 -164t53 -84.5t103 -25.5t103 25.5t53 84.5t16 164v512h30v-13q18 -9 44 -9q27 0 45 23.5t18 61.5v121z M329.5 901.5q-15.5 10.5 -34.5 30.5q-18 18 -31.5 27t-30.5 9q-25 0 -32 -11t-11 -40h-28q3 36 22 57.5t49 21.5q19 0 34.5 -10t36.5 -30q18 -18 32 -27.5t31 -9.5q25 0 32 10.5t11 37.5h29q-4 -35 -23 -55.5t-49 -20.5q-22 0 -37.5 10.5z" />
         <glyph glyph-name="Uhungarumlaut" unicode="Ű" d="M178 13q-43 27 -61.5 91.5t-18.5 183.5v512h30v-512q0 -105 16 -164t53 -84.5t103 -25.5t103 25.5t53 84.5t16 164v512h30v-512q0 -119 -18.5 -183.5t-61.5 -91.5t-122 -27t-122 27zM298 984l-120 -106l-20 21l120 106zM442 984l-120 -106l-20 21l120 106z" />
         <glyph glyph-name="Umacron" unicode="Ū" d="M178 13q-43 27 -61.5 91.5t-18.5 183.5v512h30v-512q0 -105 16 -164t53 -84.5t103 -25.5t103 25.5t53 84.5t16 164v512h30v-512q0 -119 -18.5 -183.5t-61.5 -91.5t-122 -27t-122 27zM427 918h-254v28h254v-28z" />
         <glyph glyph-name="Uogonek" unicode="Ų" d="M472 800h30v-512q0 -106 -14 -167.5t-47.5 -92.5t-92.5 -39q-15 -10 -33 -21q-46 -28 -71.5 -49.5t-26.5 -43.5q0 -19 18.5 -31.5t46.5 -12.5q16 0 36.5 7.5t35.5 18.5l-1 -34q-13 -9 -32.5 -14.5t-38.5 -5.5q-95 0 -95 66q0 25 32 53t91 64h-10q-79 0 -122 27 t-61.5 91.5t-18.5 183.5v512h30v-512q0 -105 16 -164t53 -84.5t103 -25.5t103 25.5t53 84.5t16 164v512z" />
         <glyph glyph-name="Uring" unicode="Ů" d="M178 13q-43 27 -61.5 91.5t-18.5 183.5v512h30v-512q0 -105 16 -164t53 -84.5t103 -25.5t103 25.5t53 84.5t16 164v512h30v-512q0 -119 -18.5 -183.5t-61.5 -91.5t-122 -27t-122 27zM229.5 781.5q-24.5 9.5 -34.5 32t-10 64.5t10 64.5t34.5 32t69.5 9.5q46 0 70.5 -9.5 t35 -32.5t10.5 -64t-10.5 -64t-35 -32.5t-70.5 -9.5q-45 0 -69.5 9.5zM365.5 817.5q19.5 17.5 19.5 60.5t-19.5 60.5t-66.5 17.5q-46 0 -65 -17.5t-19 -60.5t19 -60.5t65 -17.5q47 0 66.5 17.5z" />
         <glyph glyph-name="Utilde" unicode="Ũ" d="M178 13q-43 27 -61.5 91.5t-18.5 183.5v512h30v-512q0 -105 16 -164t53 -84.5t103 -25.5t103 25.5t53 84.5t16 164v512h30v-512q0 -119 -18.5 -183.5t-61.5 -91.5t-122 -27t-122 27zM329.5 901.5q-15.5 10.5 -34.5 30.5q-18 18 -31.5 27t-30.5 9q-25 0 -32 -11t-11 -40 h-28q3 36 22 57.5t49 21.5q19 0 34.5 -10t36.5 -30q18 -18 32 -27.5t31 -9.5q25 0 32 10.5t11 37.5h29q-4 -35 -23 -55.5t-49 -20.5q-22 0 -37.5 10.5z" />
         <glyph glyph-name="V" unicode="V" d="M320 0h-40l-213 800h33l200 -748l200 748h33z" />
         <glyph glyph-name="W" unicode="W" d="M183 0h-32l-105 800h31l95 -740l111 467h34l111 -467l95 740h31l-105 -800h-34l-115 487z" />
         <glyph glyph-name="Wacute" unicode="Ẃ" d="M183 0h-32l-105 800h31l95 -740l111 467h34l111 -467l95 740h31l-105 -800h-34l-115 487zM411 984l-120 -106l-20 21l120 106z" />
         <glyph glyph-name="Wcircumflex" unicode="Ŵ" d="M183 0h-32l-105 800h31l95 -740l111 467h34l111 -467l95 740h31l-105 -800h-34l-115 487zM415 900l-24 -18l-91 84l-92 -82l-23 18l115 102z" />
         <glyph glyph-name="Wdieresis" unicode="Ẅ" d="M183 0h-32l-105 800h31l95 -740l111 467h34l111 -467l95 740h31l-105 -800h-34l-115 487zM156 935.5q-9 8.5 -9 34.5q0 25 9 33t36 8t36 -8t9 -33q0 -26 -9 -34.5t-36 -8.5t-36 8.5zM372 935.5q-9 8.5 -9 34.5q0 25 9 33t36 8t36 -8t9 -33q0 -26 -9 -34.5t-36 -8.5 t-36 8.5z" />
         <glyph glyph-name="Wgrave" unicode="Ẁ" d="M183 0h-32l-105 800h31l95 -740l111 467h34l111 -467l95 740h31l-105 -800h-34l-115 487zM329 899l-20 -21l-120 106l20 21z" />
         <glyph glyph-name="X" unicode="X" d="M490 800h33l-206 -400l206 -400h-33l-190 368l-190 -368h-33l207 400l-207 400h33l190 -368z" />
         <glyph glyph-name="Y" unicode="Y" d="M315 0h-30v314l-228 486h34l209 -449l209 449h34l-228 -486v-314z" />
         <glyph glyph-name="Yacute" unicode="Ý" d="M315 0h-30v314l-228 486h34l209 -449l209 449h34l-228 -486v-314zM411 984l-120 -106l-20 21l120 106z" />
         <glyph glyph-name="Ycircumflex" unicode="Ŷ" d="M315 0h-30v314l-228 486h34l209 -449l209 449h34l-228 -486v-314zM415 900l-24 -18l-91 84l-92 -82l-23 18l115 102z" />
         <glyph glyph-name="Ydieresis" unicode="Ÿ" d="M315 0h-30v314l-228 486h34l209 -449l209 449h34l-228 -486v-314zM156 935.5q-9 8.5 -9 34.5q0 25 9 33t36 8t36 -8t9 -33q0 -26 -9 -34.5t-36 -8.5t-36 8.5zM372 935.5q-9 8.5 -9 34.5q0 25 9 33t36 8t36 -8t9 -33q0 -26 -9 -34.5t-36 -8.5t-36 8.5z" />
         <glyph glyph-name="uni1EF4" unicode="Ỵ" d="M315 0h-30v314l-228 486h34l209 -449l209 449h34l-228 -486v-314zM264.5 -205q-9.5 9 -9.5 34t9.5 34t35.5 9t35.5 -9t9.5 -34t-9.5 -34t-35.5 -9t-35.5 9z" />
         <glyph glyph-name="Ygrave" unicode="Ỳ" d="M315 0h-30v314l-228 486h34l209 -449l209 449h34l-228 -486v-314zM329 899l-20 -21l-120 106l20 21z" />
         <glyph glyph-name="uni1EF6" unicode="Ỷ" d="M315 0h-30v314l-228 486h34l209 -449l209 449h34l-228 -486v-314zM284 865q32 11 47 27t15 33t-13.5 28t-30.5 11q-23 0 -44.5 -9.5t-33.5 -19.5v35q16 10 37.5 16t40.5 6q30 0 52 -20t22 -51q0 -26 -21.5 -48t-63.5 -34z" />
         <glyph glyph-name="uni1EF8" unicode="Ỹ" d="M315 0h-30v314l-228 486h34l209 -449l209 449h34l-228 -486v-314zM329.5 901.5q-15.5 10.5 -34.5 30.5q-18 18 -31.5 27t-30.5 9q-25 0 -32 -11t-11 -40h-28q3 36 22 57.5t49 21.5q19 0 34.5 -10t36.5 -30q18 -18 32 -27.5t31 -9.5q25 0 32 10.5t11 37.5h29 q-4 -35 -23 -55.5t-49 -20.5q-22 0 -37.5 10.5z" />
         <glyph glyph-name="Z" unicode="Z" d="M529 0h-460v29l430 743h-428v28h460v-30l-430 -742h428v-28z" />
         <glyph glyph-name="Zacute" unicode="Ź" d="M529 0h-460v29l430 743h-428v28h460v-30l-430 -742h428v-28zM411 981l-120 -106l-20 21l120 106z" />
         <glyph glyph-name="Zcaron" unicode="Ž" d="M529 0h-460v29l430 743h-428v28h460v-30l-430 -742h428v-28zM415 996l-115 -104l-116 102l23 18l93 -81l91 83z" />
         <glyph glyph-name="Zdotaccent" unicode="Ż" d="M529 0h-460v29l430 743h-428v28h460v-30l-430 -742h428v-28zM264.5 950q-9.5 9 -9.5 34t9.5 34t35.5 9t35.5 -9t9.5 -34t-9.5 -34t-35.5 -9t-35.5 9z" />
         <glyph glyph-name="a" unicode="a" d="M154 1.5q-42 15.5 -60 53t-18 106.5q0 71 18 110t60.5 56.5t119.5 17.5h168v78q0 71 -16 111t-52 57t-100 17q-66 0 -99.5 -21.5t-51.5 -76.5l-29 8q15 46 36.5 70.5t55 34t88.5 9.5q78 0 120 -18t60 -62.5t18 -128.5v-272q0 -66 17.5 -94.5t60.5 -29.5v-27q-36 1 -56 10 t-30 29.5t-14 59.5q-18 -44 -39 -68t-53 -34.5t-84 -10.5q-78 0 -120 15.5zM374 32.5q36 18.5 52 61t16 118.5v105h-168q-63 0 -99.5 -15.5t-52.5 -49t-16 -91.5q0 -57 16 -88.5t52 -45t100 -13.5t100 18.5z" />
         <glyph glyph-name="aacute" unicode="á" d="M154 1.5q-42 15.5 -60 53t-18 106.5q0 71 18 110t60.5 56.5t119.5 17.5h168v78q0 71 -16 111t-52 57t-100 17q-66 0 -99.5 -21.5t-51.5 -76.5l-29 8q15 46 36.5 70.5t55 34t88.5 9.5q78 0 120 -18t60 -62.5t18 -128.5v-272q0 -66 17.5 -94.5t60.5 -29.5v-27q-36 1 -56 10 t-30 29.5t-14 59.5q-18 -44 -39 -68t-53 -34.5t-84 -10.5q-78 0 -120 15.5zM374 32.5q36 18.5 52 61t16 118.5v105h-168q-63 0 -99.5 -15.5t-52.5 -49t-16 -91.5q0 -57 16 -88.5t52 -45t100 -13.5t100 18.5zM411 799l-120 -106l-20 21l120 106z" />
         <glyph glyph-name="abreve" unicode="ă" d="M154 1.5q-42 15.5 -60 53t-18 106.5q0 71 18 110t60.5 56.5t119.5 17.5h168v78q0 71 -16 111t-52 57t-100 17q-66 0 -99.5 -21.5t-51.5 -76.5l-29 8q15 46 36.5 70.5t55 34t88.5 9.5q78 0 120 -18t60 -62.5t18 -128.5v-272q0 -66 17.5 -94.5t60.5 -29.5v-27q-36 1 -56 10 t-30 29.5t-14 59.5q-18 -44 -39 -68t-53 -34.5t-84 -10.5q-78 0 -120 15.5zM374 32.5q36 18.5 52 61t16 118.5v105h-168q-63 0 -99.5 -15.5t-52.5 -49t-16 -91.5q0 -57 16 -88.5t52 -45t100 -13.5t100 18.5zM231 702.5q-24 8.5 -34.5 29.5t-12.5 59h30q1 -37 21 -53t64 -16 q45 0 65 16t21 53h30q-2 -38 -12.5 -59t-35 -29.5t-68.5 -8.5t-68 8.5z" />
         <glyph glyph-name="uni1EAF" unicode="ắ" d="M154 1.5q-42 15.5 -60 53t-18 106.5q0 71 18 110t60.5 56.5t119.5 17.5h168v78q0 71 -16 111t-52 57t-100 17q-66 0 -99.5 -21.5t-51.5 -76.5l-29 8q15 46 36.5 70.5t55 34t88.5 9.5q78 0 120 -18t60 -62.5t18 -128.5v-272q0 -66 17.5 -94.5t60.5 -29.5v-27q-36 1 -56 10 t-30 29.5t-14 59.5q-18 -44 -39 -68t-53 -34.5t-84 -10.5q-78 0 -120 15.5zM374 32.5q36 18.5 52 61t16 118.5v105h-168q-63 0 -99.5 -15.5t-52.5 -49t-16 -91.5q0 -57 16 -88.5t52 -45t100 -13.5t100 18.5zM231 702.5q-24 8.5 -34.5 29.5t-12.5 59h30q1 -37 21 -53t64 -16 q45 0 65 16t21 53h30q-2 -38 -12.5 -59t-35 -29.5t-68.5 -8.5t-68 8.5zM411 972l-120 -106l-20 21l120 106z" />
         <glyph glyph-name="uni1EB7" unicode="ặ" d="M154 1.5q-42 15.5 -60 53t-18 106.5q0 71 18 110t60.5 56.5t119.5 17.5h168v78q0 71 -16 111t-52 57t-100 17q-66 0 -99.5 -21.5t-51.5 -76.5l-29 8q15 46 36.5 70.5t55 34t88.5 9.5q78 0 120 -18t60 -62.5t18 -128.5v-272q0 -66 17.5 -94.5t60.5 -29.5v-27q-36 1 -56 10 t-30 29.5t-14 59.5q-18 -44 -39 -68t-53 -34.5t-84 -10.5q-78 0 -120 15.5zM374 32.5q36 18.5 52 61t16 118.5v105h-168q-63 0 -99.5 -15.5t-52.5 -49t-16 -91.5q0 -57 16 -88.5t52 -45t100 -13.5t100 18.5zM264.5 -202q-9.5 9 -9.5 34t9.5 34t35.5 9t35.5 -9t9.5 -34 t-9.5 -34t-35.5 -9t-35.5 9zM231 702.5q-24 8.5 -34.5 29.5t-12.5 59h30q1 -37 21 -53t64 -16q45 0 65 16t21 53h30q-2 -38 -12.5 -59t-35 -29.5t-68.5 -8.5t-68 8.5z" />
         <glyph glyph-name="uni1EB1" unicode="ằ" d="M154 1.5q-42 15.5 -60 53t-18 106.5q0 71 18 110t60.5 56.5t119.5 17.5h168v78q0 71 -16 111t-52 57t-100 17q-66 0 -99.5 -21.5t-51.5 -76.5l-29 8q15 46 36.5 70.5t55 34t88.5 9.5q78 0 120 -18t60 -62.5t18 -128.5v-272q0 -66 17.5 -94.5t60.5 -29.5v-27q-36 1 -56 10 t-30 29.5t-14 59.5q-18 -44 -39 -68t-53 -34.5t-84 -10.5q-78 0 -120 15.5zM374 32.5q36 18.5 52 61t16 118.5v105h-168q-63 0 -99.5 -15.5t-52.5 -49t-16 -91.5q0 -57 16 -88.5t52 -45t100 -13.5t100 18.5zM231 702.5q-24 8.5 -34.5 29.5t-12.5 59h30q1 -37 21 -53t64 -16 q45 0 65 16t21 53h30q-2 -38 -12.5 -59t-35 -29.5t-68.5 -8.5t-68 8.5zM329 887l-20 -21l-120 106l20 21z" />
         <glyph glyph-name="uni1EB3" unicode="ẳ" d="M154 1.5q-42 15.5 -60 53t-18 106.5q0 71 18 110t60.5 56.5t119.5 17.5h168v78q0 71 -16 111t-52 57t-100 17q-66 0 -99.5 -21.5t-51.5 -76.5l-29 8q15 46 36.5 70.5t55 34t88.5 9.5q78 0 120 -18t60 -62.5t18 -128.5v-272q0 -66 17.5 -94.5t60.5 -29.5v-27q-36 1 -56 10 t-30 29.5t-14 59.5q-18 -44 -39 -68t-53 -34.5t-84 -10.5q-78 0 -120 15.5zM374 32.5q36 18.5 52 61t16 118.5v105h-168q-63 0 -99.5 -15.5t-52.5 -49t-16 -91.5q0 -57 16 -88.5t52 -45t100 -13.5t100 18.5zM231 702.5q-24 8.5 -34.5 29.5t-12.5 59h30q1 -37 21 -53t64 -16 q45 0 65 16t21 53h30q-2 -38 -12.5 -59t-35 -29.5t-68.5 -8.5t-68 8.5zM284 853q32 11 47 27t15 33t-13.5 28t-30.5 11q-23 0 -44.5 -9.5t-33.5 -19.5v35q16 10 37.5 16t40.5 6q30 0 52 -20t22 -51q0 -26 -21.5 -48t-63.5 -34z" />
         <glyph glyph-name="uni1EB5" unicode="ẵ" d="M154 1.5q-42 15.5 -60 53t-18 106.5q0 71 18 110t60.5 56.5t119.5 17.5h168v78q0 71 -16 111t-52 57t-100 17q-66 0 -99.5 -21.5t-51.5 -76.5l-29 8q15 46 36.5 70.5t55 34t88.5 9.5q78 0 120 -18t60 -62.5t18 -128.5v-272q0 -66 17.5 -94.5t60.5 -29.5v-27q-36 1 -56 10 t-30 29.5t-14 59.5q-18 -44 -39 -68t-53 -34.5t-84 -10.5q-78 0 -120 15.5zM374 32.5q36 18.5 52 61t16 118.5v105h-168q-63 0 -99.5 -15.5t-52.5 -49t-16 -91.5q0 -57 16 -88.5t52 -45t100 -13.5t100 18.5zM231 702.5q-24 8.5 -34.5 29.5t-12.5 59h30q1 -37 21 -53t64 -16 q45 0 65 16t21 53h30q-2 -38 -12.5 -59t-35 -29.5t-68.5 -8.5t-68 8.5zM329.5 889.5q-15.5 10.5 -34.5 30.5q-18 18 -31.5 27t-30.5 9q-25 0 -32 -11t-11 -40h-28q3 36 22 57.5t49 21.5q19 0 34.5 -10t36.5 -30q18 -18 32 -27.5t31 -9.5q25 0 32 10.5t11 37.5h29 q-4 -35 -23 -55.5t-49 -20.5q-22 0 -37.5 10.5z" />
         <glyph glyph-name="uni01CE" unicode="ǎ" d="M154 1.5q-42 15.5 -60 53t-18 106.5q0 71 18 110t60.5 56.5t119.5 17.5h168v78q0 71 -16 111t-52 57t-100 17q-66 0 -99.5 -21.5t-51.5 -76.5l-29 8q15 46 36.5 70.5t55 34t88.5 9.5q78 0 120 -18t60 -62.5t18 -128.5v-272q0 -66 17.5 -94.5t60.5 -29.5v-27q-36 1 -56 10 t-30 29.5t-14 59.5q-18 -44 -39 -68t-53 -34.5t-84 -10.5q-78 0 -120 15.5zM374 32.5q36 18.5 52 61t16 118.5v105h-168q-63 0 -99.5 -15.5t-52.5 -49t-16 -91.5q0 -57 16 -88.5t52 -45t100 -13.5t100 18.5zM415 814l-115 -104l-116 102l23 18l93 -81l91 83z" />
         <glyph glyph-name="acircumflex" unicode="â" d="M154 1.5q-42 15.5 -60 53t-18 106.5q0 71 18 110t60.5 56.5t119.5 17.5h168v78q0 71 -16 111t-52 57t-100 17q-66 0 -99.5 -21.5t-51.5 -76.5l-29 8q15 46 36.5 70.5t55 34t88.5 9.5q78 0 120 -18t60 -62.5t18 -128.5v-272q0 -66 17.5 -94.5t60.5 -29.5v-27q-36 1 -56 10 t-30 29.5t-14 59.5q-18 -44 -39 -68t-53 -34.5t-84 -10.5q-78 0 -120 15.5zM374 32.5q36 18.5 52 61t16 118.5v105h-168q-63 0 -99.5 -15.5t-52.5 -49t-16 -91.5q0 -57 16 -88.5t52 -45t100 -13.5t100 18.5zM415 715l-24 -18l-91 84l-92 -82l-23 18l115 102z" />
         <glyph glyph-name="uni1EA5" unicode="ấ" d="M154 1.5q-42 15.5 -60 53t-18 106.5q0 71 18 110t60.5 56.5t119.5 17.5h168v78q0 71 -16 111t-52 57t-100 17q-66 0 -99.5 -21.5t-51.5 -76.5l-29 8q15 46 36.5 70.5t55 34t88.5 9.5q78 0 120 -18t60 -62.5t18 -128.5v-272q0 -66 17.5 -94.5t60.5 -29.5v-27q-36 1 -56 10 t-30 29.5t-14 59.5q-18 -44 -39 -68t-53 -34.5t-84 -10.5q-78 0 -120 15.5zM374 32.5q36 18.5 52 61t16 118.5v105h-168q-63 0 -99.5 -15.5t-52.5 -49t-16 -91.5q0 -57 16 -88.5t52 -45t100 -13.5t100 18.5zM415 715l-24 -18l-91 84l-92 -82l-23 18l115 102zM411 1004 l-120 -106l-20 21l120 106z" />
         <glyph glyph-name="uni1EAD" unicode="ậ" d="M154 1.5q-42 15.5 -60 53t-18 106.5q0 71 18 110t60.5 56.5t119.5 17.5h168v78q0 71 -16 111t-52 57t-100 17q-66 0 -99.5 -21.5t-51.5 -76.5l-29 8q15 46 36.5 70.5t55 34t88.5 9.5q78 0 120 -18t60 -62.5t18 -128.5v-272q0 -66 17.5 -94.5t60.5 -29.5v-27q-36 1 -56 10 t-30 29.5t-14 59.5q-18 -44 -39 -68t-53 -34.5t-84 -10.5q-78 0 -120 15.5zM374 32.5q36 18.5 52 61t16 118.5v105h-168q-63 0 -99.5 -15.5t-52.5 -49t-16 -91.5q0 -57 16 -88.5t52 -45t100 -13.5t100 18.5zM264.5 -202q-9.5 9 -9.5 34t9.5 34t35.5 9t35.5 -9t9.5 -34 t-9.5 -34t-35.5 -9t-35.5 9zM415 715l-24 -18l-91 84l-92 -82l-23 18l115 102z" />
         <glyph glyph-name="uni1EA7" unicode="ầ" d="M154 1.5q-42 15.5 -60 53t-18 106.5q0 71 18 110t60.5 56.5t119.5 17.5h168v78q0 71 -16 111t-52 57t-100 17q-66 0 -99.5 -21.5t-51.5 -76.5l-29 8q15 46 36.5 70.5t55 34t88.5 9.5q78 0 120 -18t60 -62.5t18 -128.5v-272q0 -66 17.5 -94.5t60.5 -29.5v-27q-36 1 -56 10 t-30 29.5t-14 59.5q-18 -44 -39 -68t-53 -34.5t-84 -10.5q-78 0 -120 15.5zM374 32.5q36 18.5 52 61t16 118.5v105h-168q-63 0 -99.5 -15.5t-52.5 -49t-16 -91.5q0 -57 16 -88.5t52 -45t100 -13.5t100 18.5zM415 715l-24 -18l-91 84l-92 -82l-23 18l115 102zM329 919 l-20 -21l-120 106l20 21z" />
         <glyph glyph-name="uni1EA9" unicode="ẩ" d="M154 1.5q-42 15.5 -60 53t-18 106.5q0 71 18 110t60.5 56.5t119.5 17.5h168v78q0 71 -16 111t-52 57t-100 17q-66 0 -99.5 -21.5t-51.5 -76.5l-29 8q15 46 36.5 70.5t55 34t88.5 9.5q78 0 120 -18t60 -62.5t18 -128.5v-272q0 -66 17.5 -94.5t60.5 -29.5v-27q-36 1 -56 10 t-30 29.5t-14 59.5q-18 -44 -39 -68t-53 -34.5t-84 -10.5q-78 0 -120 15.5zM374 32.5q36 18.5 52 61t16 118.5v105h-168q-63 0 -99.5 -15.5t-52.5 -49t-16 -91.5q0 -57 16 -88.5t52 -45t100 -13.5t100 18.5zM415 715l-24 -18l-91 84l-92 -82l-23 18l115 102zM284 885 q32 11 47 27t15 33t-13.5 28t-30.5 11q-23 0 -44.5 -9.5t-33.5 -19.5v35q16 10 37.5 16t40.5 6q30 0 52 -20t22 -51q0 -26 -21.5 -48t-63.5 -34z" />
         <glyph glyph-name="uni1EAB" unicode="ẫ" d="M154 1.5q-42 15.5 -60 53t-18 106.5q0 71 18 110t60.5 56.5t119.5 17.5h168v78q0 71 -16 111t-52 57t-100 17q-66 0 -99.5 -21.5t-51.5 -76.5l-29 8q15 46 36.5 70.5t55 34t88.5 9.5q78 0 120 -18t60 -62.5t18 -128.5v-272q0 -66 17.5 -94.5t60.5 -29.5v-27q-36 1 -56 10 t-30 29.5t-14 59.5q-18 -44 -39 -68t-53 -34.5t-84 -10.5q-78 0 -120 15.5zM374 32.5q36 18.5 52 61t16 118.5v105h-168q-63 0 -99.5 -15.5t-52.5 -49t-16 -91.5q0 -57 16 -88.5t52 -45t100 -13.5t100 18.5zM415 715l-24 -18l-91 84l-92 -82l-23 18l115 102zM329.5 921.5 q-15.5 10.5 -34.5 30.5q-18 18 -31.5 27t-30.5 9q-25 0 -32 -11t-11 -40h-28q3 36 22 57.5t49 21.5q19 0 34.5 -10t36.5 -30q18 -18 32 -27.5t31 -9.5q25 0 32 10.5t11 37.5h29q-4 -35 -23 -55.5t-49 -20.5q-22 0 -37.5 10.5z" />
         <glyph glyph-name="adieresis" unicode="ä" d="M154 1.5q-42 15.5 -60 53t-18 106.5q0 71 18 110t60.5 56.5t119.5 17.5h168v78q0 71 -16 111t-52 57t-100 17q-66 0 -99.5 -21.5t-51.5 -76.5l-29 8q15 46 36.5 70.5t55 34t88.5 9.5q78 0 120 -18t60 -62.5t18 -128.5v-272q0 -66 17.5 -94.5t60.5 -29.5v-27q-36 1 -56 10 t-30 29.5t-14 59.5q-18 -44 -39 -68t-53 -34.5t-84 -10.5q-78 0 -120 15.5zM374 32.5q36 18.5 52 61t16 118.5v105h-168q-63 0 -99.5 -15.5t-52.5 -49t-16 -91.5q0 -57 16 -88.5t52 -45t100 -13.5t100 18.5zM156 750.5q-9 8.5 -9 34.5q0 25 9 33t36 8t36 -8t9 -33 q0 -26 -9 -34.5t-36 -8.5t-36 8.5zM372 750.5q-9 8.5 -9 34.5q0 25 9 33t36 8t36 -8t9 -33q0 -26 -9 -34.5t-36 -8.5t-36 8.5z" />
         <glyph glyph-name="uni1EA1" unicode="ạ" d="M154 1.5q-42 15.5 -60 53t-18 106.5q0 71 18 110t60.5 56.5t119.5 17.5h168v78q0 71 -16 111t-52 57t-100 17q-66 0 -99.5 -21.5t-51.5 -76.5l-29 8q15 46 36.5 70.5t55 34t88.5 9.5q78 0 120 -18t60 -62.5t18 -128.5v-272q0 -66 17.5 -94.5t60.5 -29.5v-27q-36 1 -56 10 t-30 29.5t-14 59.5q-18 -44 -39 -68t-53 -34.5t-84 -10.5q-78 0 -120 15.5zM374 32.5q36 18.5 52 61t16 118.5v105h-168q-63 0 -99.5 -15.5t-52.5 -49t-16 -91.5q0 -57 16 -88.5t52 -45t100 -13.5t100 18.5zM264.5 -202q-9.5 9 -9.5 34t9.5 34t35.5 9t35.5 -9t9.5 -34 t-9.5 -34t-35.5 -9t-35.5 9z" />
         <glyph glyph-name="agrave" unicode="à" d="M154 1.5q-42 15.5 -60 53t-18 106.5q0 71 18 110t60.5 56.5t119.5 17.5h168v78q0 71 -16 111t-52 57t-100 17q-66 0 -99.5 -21.5t-51.5 -76.5l-29 8q15 46 36.5 70.5t55 34t88.5 9.5q78 0 120 -18t60 -62.5t18 -128.5v-272q0 -66 17.5 -94.5t60.5 -29.5v-27q-36 1 -56 10 t-30 29.5t-14 59.5q-18 -44 -39 -68t-53 -34.5t-84 -10.5q-78 0 -120 15.5zM374 32.5q36 18.5 52 61t16 118.5v105h-168q-63 0 -99.5 -15.5t-52.5 -49t-16 -91.5q0 -57 16 -88.5t52 -45t100 -13.5t100 18.5zM329 714l-20 -21l-120 106l20 21z" />
         <glyph glyph-name="uni1EA3" unicode="ả" d="M154 1.5q-42 15.5 -60 53t-18 106.5q0 71 18 110t60.5 56.5t119.5 17.5h168v78q0 71 -16 111t-52 57t-100 17q-66 0 -99.5 -21.5t-51.5 -76.5l-29 8q15 46 36.5 70.5t55 34t88.5 9.5q78 0 120 -18t60 -62.5t18 -128.5v-272q0 -66 17.5 -94.5t60.5 -29.5v-27q-36 1 -56 10 t-30 29.5t-14 59.5q-18 -44 -39 -68t-53 -34.5t-84 -10.5q-78 0 -120 15.5zM374 32.5q36 18.5 52 61t16 118.5v105h-168q-63 0 -99.5 -15.5t-52.5 -49t-16 -91.5q0 -57 16 -88.5t52 -45t100 -13.5t100 18.5zM284 680q32 11 47 27t15 33t-13.5 28t-30.5 11q-23 0 -44.5 -9.5 t-33.5 -19.5v35q16 10 37.5 16t40.5 6q30 0 52 -20t22 -51q0 -26 -21.5 -48t-63.5 -34z" />
         <glyph glyph-name="amacron" unicode="ā" d="M154 1.5q-42 15.5 -60 53t-18 106.5q0 71 18 110t60.5 56.5t119.5 17.5h168v78q0 71 -16 111t-52 57t-100 17q-66 0 -99.5 -21.5t-51.5 -76.5l-29 8q15 46 36.5 70.5t55 34t88.5 9.5q78 0 120 -18t60 -62.5t18 -128.5v-272q0 -66 17.5 -94.5t60.5 -29.5v-27q-36 1 -56 10 t-30 29.5t-14 59.5q-18 -44 -39 -68t-53 -34.5t-84 -10.5q-78 0 -120 15.5zM374 32.5q36 18.5 52 61t16 118.5v105h-168q-63 0 -99.5 -15.5t-52.5 -49t-16 -91.5q0 -57 16 -88.5t52 -45t100 -13.5t100 18.5zM427 733h-254v28h254v-28z" />
         <glyph glyph-name="aogonek" unicode="ą" d="M424.5 -155.5q18.5 -12.5 46.5 -12.5q16 0 36.5 7.5t35.5 18.5l-1 -34q-13 -9 -32.5 -14.5t-38.5 -5.5q-95 0 -95 66q0 28 36.5 57.5t110.5 74.5q-37 4 -52.5 25.5t-20.5 71.5q-18 -44 -39 -68t-53 -34.5t-84 -10.5q-78 0 -120 15.5t-60 53t-18 106.5q0 71 18 110 t60.5 56.5t119.5 17.5h168v78q0 71 -16 111t-52 57t-100 17q-66 0 -99.5 -21.5t-51.5 -76.5l-29 8q15 46 36.5 70.5t55 34t88.5 9.5q78 0 120 -18t60 -62.5t18 -128.5v-272q0 -66 17.5 -94.5t60.5 -29.5v-26l2 -1q-16 -13 -46 -30q-48 -30 -73.5 -51t-26.5 -43 q0 -19 18.5 -31.5zM442 317h-168q-63 0 -99.5 -15.5t-52.5 -49t-16 -91.5q0 -57 16 -88.5t52 -45t100 -13.5t100 18.5t52 61t16 118.5v105z" />
         <glyph glyph-name="aring" unicode="å" d="M154 1.5q-42 15.5 -60 53t-18 106.5q0 71 18 110t60.5 56.5t119.5 17.5h168v78q0 71 -16 111t-52 57t-100 17q-66 0 -99.5 -21.5t-51.5 -76.5l-29 8q15 46 36.5 70.5t55 34t88.5 9.5q78 0 120 -18t60 -62.5t18 -128.5v-272q0 -66 17.5 -94.5t60.5 -29.5v-27q-36 1 -56 10 t-30 29.5t-14 59.5q-18 -44 -39 -68t-53 -34.5t-84 -10.5q-78 0 -120 15.5zM374 32.5q36 18.5 52 61t16 118.5v105h-168q-63 0 -99.5 -15.5t-52.5 -49t-16 -91.5q0 -57 16 -88.5t52 -45t100 -13.5t100 18.5zM229.5 705.5q-24.5 9.5 -34.5 32t-10 64.5t10 64.5t34.5 32 t69.5 9.5q65 0 90.5 -23t25.5 -83q0 -41 -10.5 -64t-35 -32.5t-70.5 -9.5q-45 0 -69.5 9.5zM365.5 741.5q19.5 17.5 19.5 60.5t-19.5 60.5t-66.5 17.5q-46 0 -65 -17.5t-19 -60.5t19 -60.5t65 -17.5q47 0 66.5 17.5z" />
         <glyph glyph-name="atilde" unicode="ã" d="M154 1.5q-42 15.5 -60 53t-18 106.5q0 71 18 110t60.5 56.5t119.5 17.5h168v78q0 71 -16 111t-52 57t-100 17q-66 0 -99.5 -21.5t-51.5 -76.5l-29 8q15 46 36.5 70.5t55 34t88.5 9.5q78 0 120 -18t60 -62.5t18 -128.5v-272q0 -66 17.5 -94.5t60.5 -29.5v-27q-36 1 -56 10 t-30 29.5t-14 59.5q-18 -44 -39 -68t-53 -34.5t-84 -10.5q-78 0 -120 15.5zM374 32.5q36 18.5 52 61t16 118.5v105h-168q-63 0 -99.5 -15.5t-52.5 -49t-16 -91.5q0 -57 16 -88.5t52 -45t100 -13.5t100 18.5zM329.5 716.5q-15.5 10.5 -34.5 30.5q-18 18 -31.5 27t-30.5 9 q-25 0 -32 -11t-11 -40h-28q3 36 22 57.5t49 21.5q19 0 34.5 -10t36.5 -30q18 -18 32 -27.5t31 -9.5q25 0 32 10.5t11 37.5h29q-4 -35 -23 -55.5t-49 -20.5q-22 0 -37.5 10.5z" />
         <glyph glyph-name="ae" unicode="æ" d="M76 1.5q-29 15.5 -41.5 53t-12.5 107.5q0 71 15 110t50.5 56t100.5 17h96v75q0 71 -12 110.5t-39 56.5t-75 17q-41 0 -62 -21.5t-32 -75.5l-30 7q10 46 24.5 71.5t38 36t61.5 10.5q66 0 101.5 -30t44.5 -101q10 51 25.5 78.5t41.5 40t70 12.5q53 0 82 -28t41.5 -95.5 t13.5 -191.5h-264q-1 -117 11 -182t39.5 -93t76.5 -28q39 0 64.5 17.5t40.5 58.5l25 -16q-18 -50 -47.5 -69t-82.5 -19q-55 0 -88 29t-50 99q-9 -71 -44 -99.5t-101 -28.5q-53 0 -82 15.5zM548 345q0 101 -9.5 156t-32.5 79t-65 24q-49 0 -76.5 -24t-39.5 -79.5t-11 -155.5 h234zM233 32.5q27 18.5 39 61t12 118.5v105h-96q-76 0 -106 -35t-30 -120q0 -57 10 -88.5t33 -45.5t63 -14q48 0 75 18.5z" />
         <glyph glyph-name="b" unicode="b" d="M194.5 3q-42.5 17 -81.5 63v734h30v-274q18 57 61.5 81.5t107.5 24.5q77 0 119.5 -29t60.5 -98t18 -197q0 -127 -18 -196t-60.5 -97.5t-119.5 -28.5q-75 0 -117.5 17zM413 41q36 27 51.5 90t15.5 177t-15.5 177.5t-51.5 91t-101 27.5t-101 -17t-52 -56t-16 -108v-349 q34 -34 70 -47t99 -13q65 0 101 27z" />
         <glyph glyph-name="c" unicode="c" d="M182 15q-48 29 -68.5 98t-20.5 196t20.5 196t69.5 98t139 29q68 0 106 -19t75 -71l-25 -15q-31 43 -65.5 60t-90.5 17q-77 0 -119.5 -27t-61 -90.5t-18.5 -177.5t18 -177.5t60 -90.5t117 -27q56 0 91.5 17t68.5 61l25 -15q-37 -52 -76.5 -71.5t-108.5 -19.5 q-88 0 -136 29z" />
         <glyph glyph-name="cacute" unicode="ć" d="M182 15q-48 29 -68.5 98t-20.5 196t20.5 196t69.5 98t139 29q68 0 106 -19t75 -71l-25 -15q-31 43 -65.5 60t-90.5 17q-77 0 -119.5 -27t-61 -90.5t-18.5 -177.5t18 -177.5t60 -90.5t117 -27q56 0 91.5 17t68.5 61l25 -15q-37 -52 -76.5 -71.5t-108.5 -19.5 q-88 0 -136 29zM411 799l-120 -106l-20 21l120 106z" />
         <glyph glyph-name="ccaron" unicode="č" d="M182 15q-48 29 -68.5 98t-20.5 196t20.5 196t69.5 98t139 29q68 0 106 -19t75 -71l-25 -15q-31 43 -65.5 60t-90.5 17q-77 0 -119.5 -27t-61 -90.5t-18.5 -177.5t18 -177.5t60 -90.5t117 -27q56 0 91.5 17t68.5 61l25 -15q-37 -52 -76.5 -71.5t-108.5 -19.5 q-88 0 -136 29zM415 814l-115 -104l-116 102l23 18l93 -81l91 83z" />
         <glyph glyph-name="ccedilla" unicode="ç" d="M409.5 31q35.5 17 68.5 61l25 -15q-37 -52 -76.5 -71.5t-108.5 -19.5h-3v-23q33 -8 53.5 -26.5t20.5 -41.5q0 -33 -26 -53t-69 -20q-17 0 -37.5 5.5t-35.5 14.5l13 32q14 -11 31 -17.5t29 -6.5q29 0 47 12.5t18 32.5q0 16 -20.5 26t-53.5 10v56q-75 5 -116 37t-58.5 99 t-17.5 186q0 127 20.5 196t69.5 98t139 29q68 0 106 -19t75 -71l-25 -15q-31 43 -65.5 60t-90.5 17q-77 0 -119.5 -27t-61 -90.5t-18.5 -177.5t18 -177.5t60 -90.5t117 -27q56 0 91.5 17z" />
         <glyph glyph-name="ccircumflex" unicode="ĉ" d="M182 15q-48 29 -68.5 98t-20.5 196t20.5 196t69.5 98t139 29q68 0 106 -19t75 -71l-25 -15q-31 43 -65.5 60t-90.5 17q-77 0 -119.5 -27t-61 -90.5t-18.5 -177.5t18 -177.5t60 -90.5t117 -27q56 0 91.5 17t68.5 61l25 -15q-37 -52 -76.5 -71.5t-108.5 -19.5 q-88 0 -136 29zM415 715l-24 -18l-91 84l-92 -82l-23 18l115 102z" />
         <glyph glyph-name="cdotaccent" unicode="ċ" d="M182 15q-48 29 -68.5 98t-20.5 196t20.5 196t69.5 98t139 29q68 0 106 -19t75 -71l-25 -15q-31 43 -65.5 60t-90.5 17q-77 0 -119.5 -27t-61 -90.5t-18.5 -177.5t18 -177.5t60 -90.5t117 -27q56 0 91.5 17t68.5 61l25 -15q-37 -52 -76.5 -71.5t-108.5 -19.5 q-88 0 -136 29zM264.5 768q-9.5 9 -9.5 34t9.5 34t35.5 9t35.5 -9t9.5 -34t-9.5 -34t-35.5 -9t-35.5 9z" />
         <glyph glyph-name="d" unicode="d" d="M171.5 14.5q-43.5 28.5 -62.5 97.5t-19 196q0 128 19 197t62.5 98t123.5 29q70 0 114.5 -25t61.5 -85v278h30v-800h-30v66q-19 -44 -63.5 -62t-112.5 -18q-80 0 -123.5 28.5zM421 35.5q50 21.5 50 75.5v314q0 96 -47.5 137.5t-128.5 41.5q-67 0 -104.5 -27.5t-54 -91 t-16.5 -177.5t16.5 -177t54 -90t104.5 -27q76 0 126 21.5z" />
         <glyph glyph-name="eth" unicode="ð" d="M515 249q0 -104 -19.5 -160t-65.5 -79.5t-130 -23.5t-130 23.5t-65.5 79.5t-19.5 160t19.5 160t65.5 79.5t130 23.5q60 0 100 -11.5t64 -37.5q-34 156 -123 237l-137 -76l-14 24l128 71q-70 50 -161 53v28q109 -3 189 -66l119 66l14 -24l-110 -61q68 -65 106.5 -179.5 t39.5 -281.5v-5zM410.5 35.5q39.5 21.5 57 72t17.5 141.5t-17.5 141.5t-57 72t-110.5 21.5t-110.5 -21.5t-57 -72t-17.5 -141.5t17.5 -141.5t57 -72t110.5 -21.5t110.5 21.5z" />
         <glyph glyph-name="dcaron" unicode="ď" d="M147.5 14.5q-42.5 28.5 -61 97.5t-18.5 196t18.5 196.5t61 98.5t119.5 29q139 0 170 -110v278h30v-800h-30v66q-35 -80 -170 -80q-77 0 -119.5 28.5zM561 568h-25l-7 232h39zM387.5 35.5q49.5 21.5 49.5 75.5v314q0 95 -47 137t-123 42q-64 0 -100.5 -27.5t-52.5 -91 t-16 -177.5q0 -113 16 -176.5t52.5 -90.5t100.5 -27q71 0 120.5 21.5z" />
         <glyph glyph-name="dcroat" unicode="đ" d="M560 720v-28h-59v-692h-30v66q-19 -44 -63.5 -62t-112.5 -18q-80 0 -123.5 28.5t-62.5 97.5t-19 196q0 128 19 197t62.5 98t123.5 29q70 0 114.5 -25t61.5 -85v170h-129v28h129v80h30v-80h59zM471 425q0 96 -47.5 137.5t-128.5 41.5q-67 0 -104.5 -27.5t-54 -91 t-16.5 -177.5t16.5 -177t54 -90t104.5 -27q76 0 126 21.5t50 75.5v314z" />
         <glyph glyph-name="e" unicode="e" d="M398 31q37 17 72 60l24 -17q-39 -51 -79.5 -69.5t-111.5 -18.5q-87 0 -134.5 29t-67.5 98t-20 196t20 196t67.5 98t134.5 29q79 0 123 -28t63 -95.5t20 -191.5h-398q0 -117 18 -182t59 -93t115 -28q58 0 95 17zM191.5 580q-40.5 -24 -59.5 -79.5t-21 -155.5h367 q-4 100 -21.5 155.5t-54 79.5t-99.5 24q-71 0 -111.5 -24z" />
         <glyph glyph-name="eacute" unicode="é" d="M398 31q37 17 72 60l24 -17q-39 -51 -79.5 -69.5t-111.5 -18.5q-87 0 -134.5 29t-67.5 98t-20 196t20 196t67.5 98t134.5 29q79 0 123 -28t63 -95.5t20 -191.5h-398q0 -117 18 -182t59 -93t115 -28q58 0 95 17zM191.5 580q-40.5 -24 -59.5 -79.5t-21 -155.5h367 q-4 100 -21.5 155.5t-54 79.5t-99.5 24q-71 0 -111.5 -24zM411 799l-120 -106l-20 21l120 106z" />
         <glyph glyph-name="ecaron" unicode="ě" d="M398 31q37 17 72 60l24 -17q-39 -51 -79.5 -69.5t-111.5 -18.5q-87 0 -134.5 29t-67.5 98t-20 196t20 196t67.5 98t134.5 29q79 0 123 -28t63 -95.5t20 -191.5h-398q0 -117 18 -182t59 -93t115 -28q58 0 95 17zM191.5 580q-40.5 -24 -59.5 -79.5t-21 -155.5h367 q-4 100 -21.5 155.5t-54 79.5t-99.5 24q-71 0 -111.5 -24zM415 814l-115 -104l-116 102l23 18l93 -81l91 83z" />
         <glyph glyph-name="ecircumflex" unicode="ê" d="M398 31q37 17 72 60l24 -17q-39 -51 -79.5 -69.5t-111.5 -18.5q-87 0 -134.5 29t-67.5 98t-20 196t20 196t67.5 98t134.5 29q79 0 123 -28t63 -95.5t20 -191.5h-398q0 -117 18 -182t59 -93t115 -28q58 0 95 17zM191.5 580q-40.5 -24 -59.5 -79.5t-21 -155.5h367 q-4 100 -21.5 155.5t-54 79.5t-99.5 24q-71 0 -111.5 -24zM415 715l-24 -18l-91 84l-92 -82l-23 18l115 102z" />
         <glyph glyph-name="uni1EBF" unicode="ế" d="M398 31q37 17 72 60l24 -17q-39 -51 -79.5 -69.5t-111.5 -18.5q-87 0 -134.5 29t-67.5 98t-20 196t20 196t67.5 98t134.5 29q79 0 123 -28t63 -95.5t20 -191.5h-398q0 -117 18 -182t59 -93t115 -28q58 0 95 17zM191.5 580q-40.5 -24 -59.5 -79.5t-21 -155.5h367 q-4 100 -21.5 155.5t-54 79.5t-99.5 24q-71 0 -111.5 -24zM415 715l-24 -18l-91 84l-92 -82l-23 18l115 102zM411 1004l-120 -106l-20 21l120 106z" />
         <glyph glyph-name="uni1EC7" unicode="ệ" d="M398 31q37 17 72 60l24 -17q-39 -51 -79.5 -69.5t-111.5 -18.5q-87 0 -134.5 29t-67.5 98t-20 196t20 196t67.5 98t134.5 29q79 0 123 -28t63 -95.5t20 -191.5h-398q0 -117 18 -182t59 -93t115 -28q58 0 95 17zM191.5 580q-40.5 -24 -59.5 -79.5t-21 -155.5h367 q-4 100 -21.5 155.5t-54 79.5t-99.5 24q-71 0 -111.5 -24zM264.5 -202q-9.5 9 -9.5 34t9.5 34t35.5 9t35.5 -9t9.5 -34t-9.5 -34t-35.5 -9t-35.5 9zM415 715l-24 -18l-91 84l-92 -82l-23 18l115 102z" />
         <glyph glyph-name="uni1EC1" unicode="ề" d="M398 31q37 17 72 60l24 -17q-39 -51 -79.5 -69.5t-111.5 -18.5q-87 0 -134.5 29t-67.5 98t-20 196t20 196t67.5 98t134.5 29q79 0 123 -28t63 -95.5t20 -191.5h-398q0 -117 18 -182t59 -93t115 -28q58 0 95 17zM191.5 580q-40.5 -24 -59.5 -79.5t-21 -155.5h367 q-4 100 -21.5 155.5t-54 79.5t-99.5 24q-71 0 -111.5 -24zM415 715l-24 -18l-91 84l-92 -82l-23 18l115 102zM329 919l-20 -21l-120 106l20 21z" />
         <glyph glyph-name="uni1EC3" unicode="ể" d="M398 31q37 17 72 60l24 -17q-39 -51 -79.5 -69.5t-111.5 -18.5q-87 0 -134.5 29t-67.5 98t-20 196t20 196t67.5 98t134.5 29q79 0 123 -28t63 -95.5t20 -191.5h-398q0 -117 18 -182t59 -93t115 -28q58 0 95 17zM191.5 580q-40.5 -24 -59.5 -79.5t-21 -155.5h367 q-4 100 -21.5 155.5t-54 79.5t-99.5 24q-71 0 -111.5 -24zM415 715l-24 -18l-91 84l-92 -82l-23 18l115 102zM284 885q32 11 47 27t15 33t-13.5 28t-30.5 11q-23 0 -44.5 -9.5t-33.5 -19.5v35q16 10 37.5 16t40.5 6q30 0 52 -20t22 -51q0 -26 -21.5 -48t-63.5 -34z" />
         <glyph glyph-name="uni1EC5" unicode="ễ" d="M398 31q37 17 72 60l24 -17q-39 -51 -79.5 -69.5t-111.5 -18.5q-87 0 -134.5 29t-67.5 98t-20 196t20 196t67.5 98t134.5 29q79 0 123 -28t63 -95.5t20 -191.5h-398q0 -117 18 -182t59 -93t115 -28q58 0 95 17zM191.5 580q-40.5 -24 -59.5 -79.5t-21 -155.5h367 q-4 100 -21.5 155.5t-54 79.5t-99.5 24q-71 0 -111.5 -24zM415 715l-24 -18l-91 84l-92 -82l-23 18l115 102zM329.5 921.5q-15.5 10.5 -34.5 30.5q-18 18 -31.5 27t-30.5 9q-25 0 -32 -11t-11 -40h-28q3 36 22 57.5t49 21.5q19 0 34.5 -10t36.5 -30q18 -18 32 -27.5t31 -9.5 q25 0 32 10.5t11 37.5h29q-4 -35 -23 -55.5t-49 -20.5q-22 0 -37.5 10.5z" />
         <glyph glyph-name="edieresis" unicode="ë" d="M398 31q37 17 72 60l24 -17q-39 -51 -79.5 -69.5t-111.5 -18.5q-87 0 -134.5 29t-67.5 98t-20 196t20 196t67.5 98t134.5 29q79 0 123 -28t63 -95.5t20 -191.5h-398q0 -117 18 -182t59 -93t115 -28q58 0 95 17zM191.5 580q-40.5 -24 -59.5 -79.5t-21 -155.5h367 q-4 100 -21.5 155.5t-54 79.5t-99.5 24q-71 0 -111.5 -24zM156 750.5q-9 8.5 -9 34.5q0 25 9 33t36 8t36 -8t9 -33q0 -26 -9 -34.5t-36 -8.5t-36 8.5zM372 750.5q-9 8.5 -9 34.5q0 25 9 33t36 8t36 -8t9 -33q0 -26 -9 -34.5t-36 -8.5t-36 8.5z" />
         <glyph glyph-name="edotaccent" unicode="ė" d="M398 31q37 17 72 60l24 -17q-39 -51 -79.5 -69.5t-111.5 -18.5q-87 0 -134.5 29t-67.5 98t-20 196t20 196t67.5 98t134.5 29q79 0 123 -28t63 -95.5t20 -191.5h-398q0 -117 18 -182t59 -93t115 -28q58 0 95 17zM191.5 580q-40.5 -24 -59.5 -79.5t-21 -155.5h367 q-4 100 -21.5 155.5t-54 79.5t-99.5 24q-71 0 -111.5 -24zM264.5 768q-9.5 9 -9.5 34t9.5 34t35.5 9t35.5 -9t9.5 -34t-9.5 -34t-35.5 -9t-35.5 9z" />
         <glyph glyph-name="uni1EB9" unicode="ẹ" d="M398 31q37 17 72 60l24 -17q-39 -51 -79.5 -69.5t-111.5 -18.5q-87 0 -134.5 29t-67.5 98t-20 196t20 196t67.5 98t134.5 29q79 0 123 -28t63 -95.5t20 -191.5h-398q0 -117 18 -182t59 -93t115 -28q58 0 95 17zM191.5 580q-40.5 -24 -59.5 -79.5t-21 -155.5h367 q-4 100 -21.5 155.5t-54 79.5t-99.5 24q-71 0 -111.5 -24zM264.5 -202q-9.5 9 -9.5 34t9.5 34t35.5 9t35.5 -9t9.5 -34t-9.5 -34t-35.5 -9t-35.5 9z" />
         <glyph glyph-name="egrave" unicode="è" d="M398 31q37 17 72 60l24 -17q-39 -51 -79.5 -69.5t-111.5 -18.5q-87 0 -134.5 29t-67.5 98t-20 196t20 196t67.5 98t134.5 29q79 0 123 -28t63 -95.5t20 -191.5h-398q0 -117 18 -182t59 -93t115 -28q58 0 95 17zM191.5 580q-40.5 -24 -59.5 -79.5t-21 -155.5h367 q-4 100 -21.5 155.5t-54 79.5t-99.5 24q-71 0 -111.5 -24zM329 714l-20 -21l-120 106l20 21z" />
         <glyph glyph-name="uni1EBB" unicode="ẻ" d="M398 31q37 17 72 60l24 -17q-39 -51 -79.5 -69.5t-111.5 -18.5q-87 0 -134.5 29t-67.5 98t-20 196t20 196t67.5 98t134.5 29q79 0 123 -28t63 -95.5t20 -191.5h-398q0 -117 18 -182t59 -93t115 -28q58 0 95 17zM191.5 580q-40.5 -24 -59.5 -79.5t-21 -155.5h367 q-4 100 -21.5 155.5t-54 79.5t-99.5 24q-71 0 -111.5 -24zM284 680q32 11 47 27t15 33t-13.5 28t-30.5 11q-23 0 -44.5 -9.5t-33.5 -19.5v35q16 10 37.5 16t40.5 6q30 0 52 -20t22 -51q0 -26 -21.5 -48t-63.5 -34z" />
         <glyph glyph-name="emacron" unicode="ē" d="M398 31q37 17 72 60l24 -17q-39 -51 -79.5 -69.5t-111.5 -18.5q-87 0 -134.5 29t-67.5 98t-20 196t20 196t67.5 98t134.5 29q79 0 123 -28t63 -95.5t20 -191.5h-398q0 -117 18 -182t59 -93t115 -28q58 0 95 17zM191.5 580q-40.5 -24 -59.5 -79.5t-21 -155.5h367 q-4 100 -21.5 155.5t-54 79.5t-99.5 24q-71 0 -111.5 -24zM427 733h-254v28h254v-28z" />
         <glyph glyph-name="eogonek" unicode="ę" d="M398 31q37 17 72 60l24 -17q-23 -30 -45 -47.5t-48 -27.5q-13 -9 -45 -29q-48 -30 -73.5 -51t-26.5 -43q0 -19 18.5 -31.5t46.5 -12.5q16 0 36.5 7.5t35.5 18.5l-1 -34q-13 -9 -32.5 -14.5t-38.5 -5.5q-95 0 -95 66q0 26 31.5 53t93.5 65q-30 -2 -48 -2q-87 0 -134.5 29 t-67.5 98t-20 196t20 196t67.5 98t134.5 29q79 0 123 -28t63 -95.5t20 -191.5h-398q0 -117 18 -182t59 -93t115 -28q58 0 95 17zM191.5 580q-40.5 -24 -59.5 -79.5t-21 -155.5h367q-4 100 -21.5 155.5t-54 79.5t-99.5 24q-71 0 -111.5 -24z" />
         <glyph glyph-name="uni1EBD" unicode="ẽ" d="M398 31q37 17 72 60l24 -17q-39 -51 -79.5 -69.5t-111.5 -18.5q-87 0 -134.5 29t-67.5 98t-20 196t20 196t67.5 98t134.5 29q79 0 123 -28t63 -95.5t20 -191.5h-398q0 -117 18 -182t59 -93t115 -28q58 0 95 17zM191.5 580q-40.5 -24 -59.5 -79.5t-21 -155.5h367 q-4 100 -21.5 155.5t-54 79.5t-99.5 24q-71 0 -111.5 -24zM329.5 716.5q-15.5 10.5 -34.5 30.5q-18 18 -31.5 27t-30.5 9q-25 0 -32 -11t-11 -40h-28q3 36 22 57.5t49 21.5q19 0 34.5 -10t36.5 -30q18 -18 32 -27.5t31 -9.5q25 0 32 10.5t11 37.5h29q-4 -35 -23 -55.5 t-49 -20.5q-22 0 -37.5 10.5z" />
         <glyph glyph-name="f" unicode="f" d="M490 798.5q34 -15.5 53 -58.5l-29 -10q-13 31 -43 43.5t-89 12.5q-57 0 -89.5 -16t-46.5 -52t-14 -99v-136h178v-28h-178v-455h-30v455h-124v28h124v136q0 76 16.5 118t55 59.5t108.5 17.5q74 0 108 -15.5z" />
         <glyph glyph-name="g" unicode="g" d="M218.5 -186.5q-28.5 9.5 -56.5 35.5l22 19q21 -19 47 -27.5t67 -8.5q65 0 101 18.5t52 62t16 120.5v127q-17 -60 -61.5 -85t-114.5 -25q-80 0 -123.5 29t-62.5 97t-19 194q0 103 18.5 159t62.5 79.5t124 23.5q68 0 112.5 -18t63.5 -62v66h30v-576q0 -94 -18 -144.5 t-60.5 -72t-120.5 -21.5q-51 0 -79.5 9.5zM419.5 119.5q47.5 41.5 47.5 137.5v250q0 54 -50 75.5t-126 21.5q-67 0 -104.5 -21.5t-54 -72t-16.5 -140.5q0 -112 16.5 -175t54 -90t104.5 -27q81 0 128.5 41.5z" />
         <glyph glyph-name="gbreve" unicode="ğ" d="M218.5 -186.5q-28.5 9.5 -56.5 35.5l22 19q21 -19 47 -27.5t67 -8.5q65 0 101 18.5t52 62t16 120.5v127q-17 -60 -61.5 -85t-114.5 -25q-80 0 -123.5 29t-62.5 97t-19 194q0 103 18.5 159t62.5 79.5t124 23.5q68 0 112.5 -18t63.5 -62v66h30v-576q0 -94 -18 -144.5 t-60.5 -72t-120.5 -21.5q-51 0 -79.5 9.5zM419.5 119.5q47.5 41.5 47.5 137.5v250q0 54 -50 75.5t-126 21.5q-67 0 -104.5 -21.5t-54 -72t-16.5 -140.5q0 -112 16.5 -175t54 -90t104.5 -27q81 0 128.5 41.5zM231 702.5q-24 8.5 -34.5 29.5t-12.5 59h30q1 -37 21 -53t64 -16 q45 0 65 16t21 53h30q-2 -38 -12.5 -59t-35 -29.5t-68.5 -8.5t-68 8.5z" />
         <glyph glyph-name="gcircumflex" unicode="ĝ" d="M218.5 -186.5q-28.5 9.5 -56.5 35.5l22 19q21 -19 47 -27.5t67 -8.5q65 0 101 18.5t52 62t16 120.5v127q-17 -60 -61.5 -85t-114.5 -25q-80 0 -123.5 29t-62.5 97t-19 194q0 103 18.5 159t62.5 79.5t124 23.5q68 0 112.5 -18t63.5 -62v66h30v-576q0 -94 -18 -144.5 t-60.5 -72t-120.5 -21.5q-51 0 -79.5 9.5zM419.5 119.5q47.5 41.5 47.5 137.5v250q0 54 -50 75.5t-126 21.5q-67 0 -104.5 -21.5t-54 -72t-16.5 -140.5q0 -112 16.5 -175t54 -90t104.5 -27q81 0 128.5 41.5zM415 715l-24 -18l-91 84l-92 -82l-23 18l115 102z" />
         <glyph glyph-name="uni0123" unicode="ģ" d="M218.5 -186.5q-28.5 9.5 -56.5 35.5l22 19q21 -19 47 -27.5t67 -8.5q65 0 101 18.5t52 62t16 120.5v127q-17 -60 -61.5 -85t-114.5 -25q-80 0 -123.5 29t-62.5 97t-19 194q0 103 18.5 159t62.5 79.5t124 23.5q68 0 112.5 -18t63.5 -62v66h30v-576q0 -94 -18 -144.5 t-60.5 -72t-120.5 -21.5q-51 0 -79.5 9.5zM419.5 119.5q47.5 41.5 47.5 137.5v250q0 54 -50 75.5t-126 21.5q-67 0 -104.5 -21.5t-54 -72t-16.5 -140.5q0 -112 16.5 -175t54 -90t104.5 -27q81 0 128.5 41.5zM277 670.5q-7 6.5 -7 27.5q0 25 20 67t49 87h22l-45 -119 q15 -1 21 -8.5t6 -26.5q0 -21 -7 -27.5t-29 -6.5q-23 0 -30 6.5z" />
         <glyph glyph-name="gdotaccent" unicode="ġ" d="M218.5 -186.5q-28.5 9.5 -56.5 35.5l22 19q21 -19 47 -27.5t67 -8.5q65 0 101 18.5t52 62t16 120.5v127q-17 -60 -61.5 -85t-114.5 -25q-80 0 -123.5 29t-62.5 97t-19 194q0 103 18.5 159t62.5 79.5t124 23.5q68 0 112.5 -18t63.5 -62v66h30v-576q0 -94 -18 -144.5 t-60.5 -72t-120.5 -21.5q-51 0 -79.5 9.5zM419.5 119.5q47.5 41.5 47.5 137.5v250q0 54 -50 75.5t-126 21.5q-67 0 -104.5 -21.5t-54 -72t-16.5 -140.5q0 -112 16.5 -175t54 -90t104.5 -27q81 0 128.5 41.5zM264.5 768q-9.5 9 -9.5 34t9.5 34t35.5 9t35.5 -9t9.5 -34 t-9.5 -34t-35.5 -9t-35.5 9z" />
         <glyph glyph-name="h" unicode="h" d="M114 0v800h30v-267q13 54 55 76.5t111 22.5q77 0 119 -27t60 -91t18 -181v-333h-30v333q0 104 -15.5 162t-51.5 83.5t-100 25.5t-99.5 -15.5t-51 -54t-15.5 -111.5v-423h-30z" />
         <glyph glyph-name="hbar" unicode="ħ" d="M429 605q42 -27 60 -91t18 -181v-333h-30v333q0 104 -15.5 162t-51.5 83.5t-100 25.5t-99.5 -15.5t-51 -54t-15.5 -111.5v-423h-30v692h-74v28h74v80h30v-80h114v-28h-114v-159q13 54 55 76.5t111 22.5q77 0 119 -27z" />
         <glyph glyph-name="hcircumflex" unicode="ĥ" d="M114 0v800h30v-267q13 54 55 76.5t111 22.5q77 0 119 -27t60 -91t18 -181v-333h-30v333q0 104 -15.5 162t-51.5 83.5t-100 25.5t-99.5 -15.5t-51 -54t-15.5 -111.5v-423h-30zM247 839l-24 -18l-91 84l-92 -82l-23 18l115 102z" />
         <glyph glyph-name="i" unicode="i" d="M341 618v-590h175v-28h-380v28h175v562h-126v28h156zM272.5 768q-9.5 9 -9.5 34t9.5 34t35.5 9t35.5 -9t9.5 -34t-9.5 -34t-35.5 -9t-35.5 9z" />
         <glyph glyph-name="dotlessi" unicode="ı" d="M341 618v-590h175v-28h-380v28h175v562h-126v28h156z" />
         <glyph glyph-name="iacute" unicode="í" d="M341 618v-590h175v-28h-380v28h175v562h-126v28h156zM419 799l-120 -106l-20 21l120 106z" />
         <glyph glyph-name="uni01D0" unicode="ǐ" d="M341 618v-590h175v-28h-380v28h175v562h-126v28h156zM423 814l-115 -104l-116 102l23 18l93 -81l91 83z" />
         <glyph glyph-name="icircumflex" unicode="î" d="M341 618v-590h175v-28h-380v28h175v562h-126v28h156zM423 715l-24 -18l-91 84l-92 -82l-23 18l115 102z" />
         <glyph glyph-name="idieresis" unicode="ï" d="M341 618v-590h175v-28h-380v28h175v562h-126v28h156zM164 750.5q-9 8.5 -9 34.5q0 25 9 33t36 8t36 -8t9 -33q0 -26 -9 -34.5t-36 -8.5t-36 8.5zM380 750.5q-9 8.5 -9 34.5q0 25 9 33t36 8t36 -8t9 -33q0 -26 -9 -34.5t-36 -8.5t-36 8.5z" />
         <glyph glyph-name="i.loclTRK" d="M341 618v-590h175v-28h-380v28h175v562h-126v28h156zM272.5 768q-9.5 9 -9.5 34t9.5 34t35.5 9t35.5 -9t9.5 -34t-9.5 -34t-35.5 -9t-35.5 9z" />
         <glyph glyph-name="uni1ECB" unicode="ị" d="M341 618v-590h175v-28h-380v28h175v562h-126v28h156zM272.5 768q-9.5 9 -9.5 34t9.5 34t35.5 9t35.5 -9t9.5 -34t-9.5 -34t-35.5 -9t-35.5 9zM274.5 -202q-9.5 9 -9.5 34t9.5 34t35.5 9t35.5 -9t9.5 -34t-9.5 -34t-35.5 -9t-35.5 9z" />
         <glyph glyph-name="igrave" unicode="ì" d="M341 618v-590h175v-28h-380v28h175v562h-126v28h156zM337 714l-20 -21l-120 106l20 21z" />
         <glyph glyph-name="uni1EC9" unicode="ỉ" d="M341 618v-590h175v-28h-380v28h175v562h-126v28h156zM292 680q32 11 47 27t15 33t-13.5 28t-30.5 11q-23 0 -44.5 -9.5t-33.5 -19.5v35q16 10 37.5 16t40.5 6q30 0 52 -20t22 -51q0 -26 -21.5 -48t-63.5 -34z" />
         <glyph glyph-name="imacron" unicode="ī" d="M341 618v-590h175v-28h-380v28h175v562h-126v28h156zM435 733h-254v28h254v-28z" />
         <glyph glyph-name="iogonek" unicode="į" d="M272.5 768q-9.5 9 -9.5 34t9.5 34t35.5 9t35.5 -9t9.5 -34t-9.5 -34t-35.5 -9t-35.5 9zM341 28h175v-28h-125q-16 -13 -46 -30q-48 -30 -73.5 -51t-26.5 -43q0 -19 18.5 -31.5t46.5 -12.5q16 0 36.5 7.5t35.5 18.5l-1 -34q-13 -9 -32.5 -14.5t-38.5 -5.5q-95 0 -95 66 q0 28 36.5 57.5t107.5 72.5h-223v28h175v562h-126v28h156v-590z" />
         <glyph glyph-name="itilde" unicode="ĩ" d="M341 618v-590h175v-28h-380v28h175v562h-126v28h156zM337.5 716.5q-15.5 10.5 -34.5 30.5q-18 18 -31.5 27t-30.5 9q-25 0 -32 -11t-11 -40h-28q3 36 22 57.5t49 21.5q19 0 34.5 -10t36.5 -30q18 -18 32 -27.5t31 -9.5q25 0 32 10.5t11 37.5h29q-4 -35 -23 -55.5 t-49 -20.5q-22 0 -37.5 10.5z" />
         <glyph glyph-name="j" unicode="j" d="M158.5 -186.5q-28.5 9.5 -56.5 35.5l22 19q21 -19 47 -27.5t67 -8.5q65 0 101 19.5t52 63.5t16 123v552h-126v28h156v-580q0 -92 -18 -142t-60.5 -71t-120.5 -21q-51 0 -79.5 9.5zM362.5 768q-9.5 9 -9.5 34t9.5 34t35.5 9t35.5 -9t9.5 -34t-9.5 -34t-35.5 -9t-35.5 9z " />
         <glyph glyph-name="uni0237" unicode="ȷ" d="M158.5 -186.5q-28.5 9.5 -56.5 35.5l22 19q21 -19 47 -27.5t67 -8.5q65 0 101 19.5t52 63.5t16 123v552h-126v28h156v-580q0 -92 -18 -142t-60.5 -71t-120.5 -21q-51 0 -79.5 9.5z" />
         <glyph glyph-name="jcircumflex" unicode="ĵ" d="M158.5 -186.5q-28.5 9.5 -56.5 35.5l22 19q21 -19 47 -27.5t67 -8.5q65 0 101 19.5t52 63.5t16 123v552h-126v28h156v-580q0 -92 -18 -142t-60.5 -71t-120.5 -21q-51 0 -79.5 9.5zM513 715l-24 -18l-91 84l-92 -82l-23 18l115 102z" />
         <glyph glyph-name="k" unicode="k" d="M166 0h-30v800h30v-455h67l201 273h36l-209 -285l249 -333h-36l-237 317h-71v-317z" />
         <glyph glyph-name="uni0137" unicode="ķ" d="M166 0h-30v800h30v-455h67l201 273h36l-209 -285l249 -333h-36l-237 317h-71v-317zM300 -127q-16 1 -22 8.5t-6 26.5q0 21 7 27.5t30 6.5q22 0 29 -6.5t7 -27.5q0 -26 -20 -68.5t-49 -85.5h-22z" />
         <glyph glyph-name="l" unicode="l" d="M321.5 6.5q-30.5 20.5 -43.5 68.5t-13 135v562h-126v28h156v-590q0 -76 10 -118t34 -60t68 -18q24 0 41.5 6.5t40.5 25.5l18 -27q-35 -19 -56.5 -26t-43.5 -7q-55 0 -85.5 20.5z" />
         <glyph glyph-name="lacute" unicode="ĺ" d="M321.5 6.5q-30.5 20.5 -43.5 68.5t-13 135v562h-126v28h156v-590q0 -76 10 -118t34 -60t68 -18q24 0 41.5 6.5t40.5 25.5l18 -27q-35 -19 -56.5 -26t-43.5 -7q-55 0 -85.5 20.5zM411 981l-120 -106l-20 21l120 106z" />
         <glyph glyph-name="lcaron" unicode="ľ" d="M321.5 6.5q-30.5 20.5 -43.5 68.5t-13 135v562h-126v28h156v-590q0 -76 10 -118t34 -60t68 -18q24 0 41.5 6.5t40.5 25.5l18 -27q-35 -19 -56.5 -26t-43.5 -7q-55 0 -85.5 20.5zM387 568h-25l-7 232h39z" />
         <glyph glyph-name="uni013C" unicode="ļ" d="M321.5 6.5q-30.5 20.5 -43.5 68.5t-13 135v562h-126v28h156v-590q0 -76 10 -118t34 -60t68 -18q24 0 41.5 6.5t40.5 25.5l18 -27q-35 -19 -56.5 -26t-43.5 -7q-55 0 -85.5 20.5zM366 -127q-16 1 -22 8.5t-6 26.5q0 21 7 27.5t30 6.5q22 0 29 -6.5t7 -27.5 q0 -26 -20 -68.5t-49 -85.5h-22z" />
         <glyph glyph-name="lslash" unicode="ł" d="M507 19q-35 -19 -56.5 -26t-43.5 -7q-55 0 -85.5 20.5t-43.5 68.5t-13 135v254l-116 -47v27l116 47v281h-126v28h156v-296l116 47v-27l-116 -47v-267q0 -76 10 -118t34 -60t68 -18q24 0 41.5 6.5t40.5 25.5z" />
         <glyph glyph-name="m" unicode="m" d="M68 0v618h30v-77q18 52 42.5 71t71.5 19q38 0 57.5 -22.5t32.5 -83.5q25 61 52.5 83.5t74.5 22.5q40 0 62 -20t31.5 -66.5t9.5 -129.5v-415h-30v415q0 69 -7.5 107.5t-24.5 55t-47 16.5q-42 0 -65 -17t-33 -56.5t-10 -111.5v-409h-30v409q0 72 -7.5 111.5t-24 56.5 t-47.5 17q-41 0 -64.5 -17t-33.5 -57t-10 -111v-409h-30z" />
         <glyph glyph-name="n" unicode="n" d="M108 0v618h30v-79q29 52 69 72.5t121 20.5q68 0 105.5 -20.5t53.5 -67.5t16 -132v-412h-30v412q0 74 -13 115.5t-44.5 59t-87.5 17.5q-73 0 -113.5 -15t-58.5 -53.5t-18 -112.5v-423h-30z" />
         <glyph glyph-name="nacute" unicode="ń" d="M108 0v618h30v-79q29 52 69 72.5t121 20.5q68 0 105.5 -20.5t53.5 -67.5t16 -132v-412h-30v412q0 74 -13 115.5t-44.5 59t-87.5 17.5q-73 0 -113.5 -15t-58.5 -53.5t-18 -112.5v-423h-30zM411 799l-120 -106l-20 21l120 106z" />
         <glyph glyph-name="ncaron" unicode="ň" d="M108 0v618h30v-79q29 52 69 72.5t121 20.5q68 0 105.5 -20.5t53.5 -67.5t16 -132v-412h-30v412q0 74 -13 115.5t-44.5 59t-87.5 17.5q-73 0 -113.5 -15t-58.5 -53.5t-18 -112.5v-423h-30zM415 814l-115 -104l-116 102l23 18l93 -81l91 83z" />
         <glyph glyph-name="uni0146" unicode="ņ" d="M108 0v618h30v-79q29 52 69 72.5t121 20.5q68 0 105.5 -20.5t53.5 -67.5t16 -132v-412h-30v412q0 74 -13 115.5t-44.5 59t-87.5 17.5q-73 0 -113.5 -15t-58.5 -53.5t-18 -112.5v-423h-30zM300 -127q-16 1 -22 8.5t-6 26.5q0 21 7 27.5t30 6.5q22 0 29 -6.5t7 -27.5 q0 -26 -20 -68.5t-49 -85.5h-22z" />
         <glyph glyph-name="eng" unicode="ŋ" d="M433.5 611.5q37.5 -20.5 53.5 -67.5t16 -132v-412q0 -58 -11.5 -89t-37.5 -44t-73 -13v27q41 0 59 7t25.5 31.5t7.5 80.5v412q0 74 -13 115.5t-44.5 59t-87.5 17.5q-73 0 -113.5 -15t-58.5 -53.5t-18 -112.5v-423h-30v618h30v-79q29 52 69 72.5t121 20.5 q68 0 105.5 -20.5z" />
         <glyph glyph-name="ntilde" unicode="ñ" d="M108 0v618h30v-79q29 52 69 72.5t121 20.5q68 0 105.5 -20.5t53.5 -67.5t16 -132v-412h-30v412q0 74 -13 115.5t-44.5 59t-87.5 17.5q-73 0 -113.5 -15t-58.5 -53.5t-18 -112.5v-423h-30zM329.5 716.5q-15.5 10.5 -34.5 30.5q-18 18 -31.5 27t-30.5 9q-25 0 -32 -11 t-11 -40h-28q3 36 22 57.5t49 21.5q19 0 34.5 -10t36.5 -30q18 -18 32 -27.5t31 -9.5q25 0 32 10.5t11 37.5h29q-4 -35 -23 -55.5t-49 -20.5q-22 0 -37.5 10.5z" />
         <glyph glyph-name="o" unicode="o" d="M176.5 15q-43.5 29 -62.5 98t-19 196t19 196t62.5 98t123.5 29t123.5 -29t62.5 -98t19 -196t-19 -196t-62.5 -98t-123.5 -29t-123.5 29zM404.5 41q37.5 27 54 90.5t16.5 177.5t-16.5 177.5t-54 90.5t-104.5 27t-104.5 -27t-54 -90.5t-16.5 -177.5t16.5 -177.5t54 -90.5 t104.5 -27t104.5 27z" />
         <glyph glyph-name="oacute" unicode="ó" d="M176.5 15q-43.5 29 -62.5 98t-19 196t19 196t62.5 98t123.5 29t123.5 -29t62.5 -98t19 -196t-19 -196t-62.5 -98t-123.5 -29t-123.5 29zM404.5 41q37.5 27 54 90.5t16.5 177.5t-16.5 177.5t-54 90.5t-104.5 27t-104.5 -27t-54 -90.5t-16.5 -177.5t16.5 -177.5t54 -90.5 t104.5 -27t104.5 27zM411 799l-120 -106l-20 21l120 106z" />
         <glyph glyph-name="uni01D2" unicode="ǒ" d="M176.5 15q-43.5 29 -62.5 98t-19 196t19 196t62.5 98t123.5 29t123.5 -29t62.5 -98t19 -196t-19 -196t-62.5 -98t-123.5 -29t-123.5 29zM404.5 41q37.5 27 54 90.5t16.5 177.5t-16.5 177.5t-54 90.5t-104.5 27t-104.5 -27t-54 -90.5t-16.5 -177.5t16.5 -177.5t54 -90.5 t104.5 -27t104.5 27zM415 814l-115 -104l-116 102l23 18l93 -81l91 83z" />
         <glyph glyph-name="ocircumflex" unicode="ô" d="M176.5 15q-43.5 29 -62.5 98t-19 196t19 196t62.5 98t123.5 29t123.5 -29t62.5 -98t19 -196t-19 -196t-62.5 -98t-123.5 -29t-123.5 29zM404.5 41q37.5 27 54 90.5t16.5 177.5t-16.5 177.5t-54 90.5t-104.5 27t-104.5 -27t-54 -90.5t-16.5 -177.5t16.5 -177.5t54 -90.5 t104.5 -27t104.5 27zM415 715l-24 -18l-91 84l-92 -82l-23 18l115 102z" />
         <glyph glyph-name="uni1ED1" unicode="ố" d="M176.5 15q-43.5 29 -62.5 98t-19 196t19 196t62.5 98t123.5 29t123.5 -29t62.5 -98t19 -196t-19 -196t-62.5 -98t-123.5 -29t-123.5 29zM404.5 41q37.5 27 54 90.5t16.5 177.5t-16.5 177.5t-54 90.5t-104.5 27t-104.5 -27t-54 -90.5t-16.5 -177.5t16.5 -177.5t54 -90.5 t104.5 -27t104.5 27zM415 715l-24 -18l-91 84l-92 -82l-23 18l115 102zM411 1004l-120 -106l-20 21l120 106z" />
         <glyph glyph-name="uni1ED9" unicode="ộ" d="M176.5 15q-43.5 29 -62.5 98t-19 196t19 196t62.5 98t123.5 29t123.5 -29t62.5 -98t19 -196t-19 -196t-62.5 -98t-123.5 -29t-123.5 29zM404.5 41q37.5 27 54 90.5t16.5 177.5t-16.5 177.5t-54 90.5t-104.5 27t-104.5 -27t-54 -90.5t-16.5 -177.5t16.5 -177.5t54 -90.5 t104.5 -27t104.5 27zM264.5 -202q-9.5 9 -9.5 34t9.5 34t35.5 9t35.5 -9t9.5 -34t-9.5 -34t-35.5 -9t-35.5 9zM415 715l-24 -18l-91 84l-92 -82l-23 18l115 102z" />
         <glyph glyph-name="uni1ED3" unicode="ồ" d="M176.5 15q-43.5 29 -62.5 98t-19 196t19 196t62.5 98t123.5 29t123.5 -29t62.5 -98t19 -196t-19 -196t-62.5 -98t-123.5 -29t-123.5 29zM404.5 41q37.5 27 54 90.5t16.5 177.5t-16.5 177.5t-54 90.5t-104.5 27t-104.5 -27t-54 -90.5t-16.5 -177.5t16.5 -177.5t54 -90.5 t104.5 -27t104.5 27zM415 715l-24 -18l-91 84l-92 -82l-23 18l115 102zM329 919l-20 -21l-120 106l20 21z" />
         <glyph glyph-name="uni1ED5" unicode="ổ" d="M176.5 15q-43.5 29 -62.5 98t-19 196t19 196t62.5 98t123.5 29t123.5 -29t62.5 -98t19 -196t-19 -196t-62.5 -98t-123.5 -29t-123.5 29zM404.5 41q37.5 27 54 90.5t16.5 177.5t-16.5 177.5t-54 90.5t-104.5 27t-104.5 -27t-54 -90.5t-16.5 -177.5t16.5 -177.5t54 -90.5 t104.5 -27t104.5 27zM415 715l-24 -18l-91 84l-92 -82l-23 18l115 102zM284 885q32 11 47 27t15 33t-13.5 28t-30.5 11q-23 0 -44.5 -9.5t-33.5 -19.5v35q16 10 37.5 16t40.5 6q30 0 52 -20t22 -51q0 -26 -21.5 -48t-63.5 -34z" />
         <glyph glyph-name="uni1ED7" unicode="ỗ" d="M176.5 15q-43.5 29 -62.5 98t-19 196t19 196t62.5 98t123.5 29t123.5 -29t62.5 -98t19 -196t-19 -196t-62.5 -98t-123.5 -29t-123.5 29zM404.5 41q37.5 27 54 90.5t16.5 177.5t-16.5 177.5t-54 90.5t-104.5 27t-104.5 -27t-54 -90.5t-16.5 -177.5t16.5 -177.5t54 -90.5 t104.5 -27t104.5 27zM415 715l-24 -18l-91 84l-92 -82l-23 18l115 102zM329.5 921.5q-15.5 10.5 -34.5 30.5q-18 18 -31.5 27t-30.5 9q-25 0 -32 -11t-11 -40h-28q3 36 22 57.5t49 21.5q19 0 34.5 -10t36.5 -30q18 -18 32 -27.5t31 -9.5q25 0 32 10.5t11 37.5h29 q-4 -35 -23 -55.5t-49 -20.5q-22 0 -37.5 10.5z" />
         <glyph glyph-name="odieresis" unicode="ö" d="M176.5 15q-43.5 29 -62.5 98t-19 196t19 196t62.5 98t123.5 29t123.5 -29t62.5 -98t19 -196t-19 -196t-62.5 -98t-123.5 -29t-123.5 29zM404.5 41q37.5 27 54 90.5t16.5 177.5t-16.5 177.5t-54 90.5t-104.5 27t-104.5 -27t-54 -90.5t-16.5 -177.5t16.5 -177.5t54 -90.5 t104.5 -27t104.5 27zM156 750.5q-9 8.5 -9 34.5q0 25 9 33t36 8t36 -8t9 -33q0 -26 -9 -34.5t-36 -8.5t-36 8.5zM372 750.5q-9 8.5 -9 34.5q0 25 9 33t36 8t36 -8t9 -33q0 -26 -9 -34.5t-36 -8.5t-36 8.5z" />
         <glyph glyph-name="uni1ECD" unicode="ọ" d="M176.5 15q-43.5 29 -62.5 98t-19 196t19 196t62.5 98t123.5 29t123.5 -29t62.5 -98t19 -196t-19 -196t-62.5 -98t-123.5 -29t-123.5 29zM404.5 41q37.5 27 54 90.5t16.5 177.5t-16.5 177.5t-54 90.5t-104.5 27t-104.5 -27t-54 -90.5t-16.5 -177.5t16.5 -177.5t54 -90.5 t104.5 -27t104.5 27zM264.5 -202q-9.5 9 -9.5 34t9.5 34t35.5 9t35.5 -9t9.5 -34t-9.5 -34t-35.5 -9t-35.5 9z" />
         <glyph glyph-name="ograve" unicode="ò" d="M176.5 15q-43.5 29 -62.5 98t-19 196t19 196t62.5 98t123.5 29t123.5 -29t62.5 -98t19 -196t-19 -196t-62.5 -98t-123.5 -29t-123.5 29zM404.5 41q37.5 27 54 90.5t16.5 177.5t-16.5 177.5t-54 90.5t-104.5 27t-104.5 -27t-54 -90.5t-16.5 -177.5t16.5 -177.5t54 -90.5 t104.5 -27t104.5 27zM329 714l-20 -21l-120 106l20 21z" />
         <glyph glyph-name="uni1ECF" unicode="ỏ" d="M176.5 15q-43.5 29 -62.5 98t-19 196t19 196t62.5 98t123.5 29t123.5 -29t62.5 -98t19 -196t-19 -196t-62.5 -98t-123.5 -29t-123.5 29zM404.5 41q37.5 27 54 90.5t16.5 177.5t-16.5 177.5t-54 90.5t-104.5 27t-104.5 -27t-54 -90.5t-16.5 -177.5t16.5 -177.5t54 -90.5 t104.5 -27t104.5 27zM284 680q32 11 47 27t15 33t-13.5 28t-30.5 11q-23 0 -44.5 -9.5t-33.5 -19.5v35q16 10 37.5 16t40.5 6q30 0 52 -20t22 -51q0 -26 -21.5 -48t-63.5 -34z" />
         <glyph glyph-name="ohorn" unicode="ơ" d="M584 716h30v-121q0 -50 -26.5 -81t-70.5 -31q-10 0 -27 5q15 -61 15 -179q0 -127 -19 -196t-62.5 -98t-123.5 -29t-123.5 29t-62.5 98t-19 196t19 196t62.5 98t123.5 29q76 0 119 -26t64 -89q16 -7 38 -7q27 0 45 23.5t18 61.5v121zM404.5 41q37.5 27 54 90.5t16.5 177.5 t-16.5 177.5t-54 90.5t-104.5 27t-104.5 -27t-54 -90.5t-16.5 -177.5t16.5 -177.5t54 -90.5t104.5 -27t104.5 27z" />
         <glyph glyph-name="uni1EDB" unicode="ớ" d="M584 716h30v-121q0 -50 -26.5 -81t-70.5 -31q-10 0 -27 5q15 -61 15 -179q0 -127 -19 -196t-62.5 -98t-123.5 -29t-123.5 29t-62.5 98t-19 196t19 196t62.5 98t123.5 29q76 0 119 -26t64 -89q16 -7 38 -7q27 0 45 23.5t18 61.5v121zM404.5 41q37.5 27 54 90.5t16.5 177.5 t-16.5 177.5t-54 90.5t-104.5 27t-104.5 -27t-54 -90.5t-16.5 -177.5t16.5 -177.5t54 -90.5t104.5 -27t104.5 27zM411 799l-120 -106l-20 21l120 106z" />
         <glyph glyph-name="uni1EE3" unicode="ợ" d="M584 716h30v-121q0 -50 -26.5 -81t-70.5 -31q-10 0 -27 5q15 -61 15 -179q0 -127 -19 -196t-62.5 -98t-123.5 -29t-123.5 29t-62.5 98t-19 196t19 196t62.5 98t123.5 29q76 0 119 -26t64 -89q16 -7 38 -7q27 0 45 23.5t18 61.5v121zM404.5 41q37.5 27 54 90.5t16.5 177.5 t-16.5 177.5t-54 90.5t-104.5 27t-104.5 -27t-54 -90.5t-16.5 -177.5t16.5 -177.5t54 -90.5t104.5 -27t104.5 27zM264.5 -202q-9.5 9 -9.5 34t9.5 34t35.5 9t35.5 -9t9.5 -34t-9.5 -34t-35.5 -9t-35.5 9z" />
         <glyph glyph-name="uni1EDD" unicode="ờ" d="M584 716h30v-121q0 -50 -26.5 -81t-70.5 -31q-10 0 -27 5q15 -61 15 -179q0 -127 -19 -196t-62.5 -98t-123.5 -29t-123.5 29t-62.5 98t-19 196t19 196t62.5 98t123.5 29q76 0 119 -26t64 -89q16 -7 38 -7q27 0 45 23.5t18 61.5v121zM404.5 41q37.5 27 54 90.5t16.5 177.5 t-16.5 177.5t-54 90.5t-104.5 27t-104.5 -27t-54 -90.5t-16.5 -177.5t16.5 -177.5t54 -90.5t104.5 -27t104.5 27zM329 714l-20 -21l-120 106l20 21z" />
         <glyph glyph-name="uni1EDF" unicode="ở" d="M584 716h30v-121q0 -50 -26.5 -81t-70.5 -31q-10 0 -27 5q15 -61 15 -179q0 -127 -19 -196t-62.5 -98t-123.5 -29t-123.5 29t-62.5 98t-19 196t19 196t62.5 98t123.5 29q76 0 119 -26t64 -89q16 -7 38 -7q27 0 45 23.5t18 61.5v121zM404.5 41q37.5 27 54 90.5t16.5 177.5 t-16.5 177.5t-54 90.5t-104.5 27t-104.5 -27t-54 -90.5t-16.5 -177.5t16.5 -177.5t54 -90.5t104.5 -27t104.5 27zM284 680q32 11 47 27t15 33t-13.5 28t-30.5 11q-23 0 -44.5 -9.5t-33.5 -19.5v35q16 10 37.5 16t40.5 6q30 0 52 -20t22 -51q0 -26 -21.5 -48t-63.5 -34z" />
         <glyph glyph-name="uni1EE1" unicode="ỡ" d="M584 716h30v-121q0 -50 -26.5 -81t-70.5 -31q-10 0 -27 5q15 -61 15 -179q0 -127 -19 -196t-62.5 -98t-123.5 -29t-123.5 29t-62.5 98t-19 196t19 196t62.5 98t123.5 29q76 0 119 -26t64 -89q16 -7 38 -7q27 0 45 23.5t18 61.5v121zM404.5 41q37.5 27 54 90.5t16.5 177.5 t-16.5 177.5t-54 90.5t-104.5 27t-104.5 -27t-54 -90.5t-16.5 -177.5t16.5 -177.5t54 -90.5t104.5 -27t104.5 27zM329.5 716.5q-15.5 10.5 -34.5 30.5q-18 18 -31.5 27t-30.5 9q-25 0 -32 -11t-11 -40h-28q3 36 22 57.5t49 21.5q19 0 34.5 -10t36.5 -30q18 -18 32 -27.5 t31 -9.5q25 0 32 10.5t11 37.5h29q-4 -35 -23 -55.5t-49 -20.5q-22 0 -37.5 10.5z" />
         <glyph glyph-name="ohungarumlaut" unicode="ő" d="M176.5 15q-43.5 29 -62.5 98t-19 196t19 196t62.5 98t123.5 29t123.5 -29t62.5 -98t19 -196t-19 -196t-62.5 -98t-123.5 -29t-123.5 29zM404.5 41q37.5 27 54 90.5t16.5 177.5t-16.5 177.5t-54 90.5t-104.5 27t-104.5 -27t-54 -90.5t-16.5 -177.5t16.5 -177.5t54 -90.5 t104.5 -27t104.5 27zM298 799l-120 -106l-20 21l120 106zM442 799l-120 -106l-20 21l120 106z" />
         <glyph glyph-name="omacron" unicode="ō" d="M176.5 15q-43.5 29 -62.5 98t-19 196t19 196t62.5 98t123.5 29t123.5 -29t62.5 -98t19 -196t-19 -196t-62.5 -98t-123.5 -29t-123.5 29zM404.5 41q37.5 27 54 90.5t16.5 177.5t-16.5 177.5t-54 90.5t-104.5 27t-104.5 -27t-54 -90.5t-16.5 -177.5t16.5 -177.5t54 -90.5 t104.5 -27t104.5 27zM427 733h-254v28h254v-28z" />
         <glyph glyph-name="oslash" unicode="ø" d="M506 650l-46 -84q24 -36 34.5 -98t10.5 -159q0 -127 -19 -196t-62.5 -98t-123.5 -29q-48 0 -82 10t-58 32l-33 -59h-35l47 85q-23 36 -33.5 97.5t-10.5 157.5q0 127 19 196t62.5 98t123.5 29q48 0 81.5 -9.5t56.5 -31.5l33 59h35zM132.5 174.5q7.5 -53.5 25.5 -87.5 l264 475q-21 22 -50.5 32t-71.5 10q-67 0 -104.5 -27t-54 -90.5t-16.5 -177.5q0 -81 7.5 -134.5zM467 444.5q-8 54.5 -26 88.5l-264 -475q38 -44 123 -44q67 0 104.5 27t54 90.5t16.5 177.5q0 81 -8 135.5z" />
         <glyph glyph-name="otilde" unicode="õ" d="M176.5 15q-43.5 29 -62.5 98t-19 196t19 196t62.5 98t123.5 29t123.5 -29t62.5 -98t19 -196t-19 -196t-62.5 -98t-123.5 -29t-123.5 29zM404.5 41q37.5 27 54 90.5t16.5 177.5t-16.5 177.5t-54 90.5t-104.5 27t-104.5 -27t-54 -90.5t-16.5 -177.5t16.5 -177.5t54 -90.5 t104.5 -27t104.5 27zM329.5 716.5q-15.5 10.5 -34.5 30.5q-18 18 -31.5 27t-30.5 9q-25 0 -32 -11t-11 -40h-28q3 36 22 57.5t49 21.5q19 0 34.5 -10t36.5 -30q18 -18 32 -27.5t31 -9.5q25 0 32 10.5t11 37.5h29q-4 -35 -23 -55.5t-49 -20.5q-22 0 -37.5 10.5z" />
         <glyph glyph-name="oe" unicode="œ" d="M80.5 23.5q-31.5 28.5 -45 96t-13.5 189.5t13.5 189.5t45 96t89.5 28.5q38 0 61 -11.5t39.5 -38.5t30.5 -77q13 50 30 77t42.5 38.5t66.5 11.5q53 0 82.5 -28t42 -93.5t13.5 -184.5h-263q-1 -113 11 -176t39 -90.5t75 -27.5q31 0 52 17t44 59l25 -17q-28 -50 -53.5 -68.5 t-67.5 -18.5q-41 0 -66.5 11.5t-42.5 38.5t-30 77q-14 -50 -30.5 -77t-39.5 -38.5t-61 -11.5q-58 0 -89.5 28.5zM238.5 49.5q24.5 26.5 35.5 88t11 171.5t-11 171.5t-35.5 88t-68.5 26.5q-46 0 -71.5 -26.5t-36 -87.5t-10.5 -172t10.5 -172t36 -87.5t71.5 -26.5 q44 0 68.5 26.5zM547 345q0 96 -9.5 149.5t-32.5 77t-65 23.5q-48 0 -74.5 -23.5t-38.5 -77.5t-11 -149h231z" />
         <glyph glyph-name="p" unicode="p" d="M101 -182v800h30v-66q19 44 63.5 62t112.5 18q80 0 123.5 -28.5t62.5 -97.5t19 -196q0 -128 -19 -197t-62.5 -98t-123.5 -29q-70 0 -114.5 25t-61.5 85v-278h-30zM411.5 41.5q37.5 27.5 54 91t16.5 177.5t-16.5 177t-54 90t-104.5 27q-76 0 -126 -21.5t-50 -75.5v-314 q0 -96 47.5 -137.5t128.5 -41.5q67 0 104.5 27.5z" />
         <glyph glyph-name="thorn" unicode="þ" d="M101 -182v982h30v-248q19 44 63.5 62t112.5 18q80 0 123.5 -28.5t62.5 -97.5t19 -196q0 -128 -19 -197t-62.5 -98t-123.5 -29q-70 0 -114.5 25t-61.5 85v-278h-30zM411.5 41.5q37.5 27.5 54 91t16.5 177.5t-16.5 177t-54 90t-104.5 27q-76 0 -126 -21.5t-50 -75.5v-314 q0 -96 47.5 -137.5t128.5 -41.5q67 0 104.5 27.5z" />
         <glyph glyph-name="q" unicode="q" d="M469 96q-17 -60 -61.5 -85t-114.5 -25q-80 0 -123.5 29t-62.5 98t-19 197q0 127 19 196t62.5 97.5t123.5 28.5q68 0 112.5 -18t63.5 -62v66h30v-800h-30v278zM421.5 55.5q47.5 41.5 47.5 137.5v314q0 54 -50 75.5t-126 21.5q-67 0 -104.5 -27t-54 -90t-16.5 -177 t16.5 -177.5t54 -91t104.5 -27.5q81 0 128.5 41.5z" />
         <glyph glyph-name="r" unicode="r" d="M135 0v618h30v-143q10 40 36.5 76.5t65.5 58.5t85 22q64 0 98 -22t61 -81l-26 -12q-20 48 -50 67.5t-83 19.5q-65 0 -107 -42t-61 -97t-19 -92v-373h-30z" />
         <glyph glyph-name="racute" unicode="ŕ" d="M135 0v618h30v-143q10 40 36.5 76.5t65.5 58.5t85 22q64 0 98 -22t61 -81l-26 -12q-20 48 -50 67.5t-83 19.5q-65 0 -107 -42t-61 -97t-19 -92v-373h-30zM411 799l-120 -106l-20 21l120 106z" />
         <glyph glyph-name="rcaron" unicode="ř" d="M135 0v618h30v-143q10 40 36.5 76.5t65.5 58.5t85 22q64 0 98 -22t61 -81l-26 -12q-20 48 -50 67.5t-83 19.5q-65 0 -107 -42t-61 -97t-19 -92v-373h-30zM415 814l-115 -104l-116 102l23 18l93 -81l91 83z" />
         <glyph glyph-name="uni0157" unicode="ŗ" d="M135 0v618h30v-143q10 40 36.5 76.5t65.5 58.5t85 22q64 0 98 -22t61 -81l-26 -12q-20 48 -50 67.5t-83 19.5q-65 0 -107 -42t-61 -97t-19 -92v-373h-30zM300 -127q-16 1 -22 8.5t-6 26.5q0 21 7 27.5t30 6.5q22 0 29 -6.5t7 -27.5q0 -26 -20 -68.5t-49 -85.5h-22z" />
         <glyph glyph-name="s" unicode="s" d="M174 4.5q-35 18.5 -66 70.5l23 19q24 -44 56.5 -62t87.5 -18q79 0 123.5 13.5t64.5 45.5t20 90q0 47 -17 76.5t-55 46t-105 24.5q-109 13 -150.5 51.5t-41.5 102.5q0 67 19 102.5t64 50.5t128 15q68 0 105.5 -15.5t68.5 -58.5l-22 -20q-25 36 -59.5 51t-92.5 15 q-69 0 -108 -13t-56 -43t-17 -84q0 -50 36 -81.5t124 -42.5q81 -11 126 -31t64 -54.5t19 -91.5q0 -70 -21.5 -108t-72 -53.5t-144.5 -15.5q-66 0 -101 18.5z" />
         <glyph glyph-name="sacute" unicode="ś" d="M174 4.5q-35 18.5 -66 70.5l23 19q24 -44 56.5 -62t87.5 -18q79 0 123.5 13.5t64.5 45.5t20 90q0 47 -17 76.5t-55 46t-105 24.5q-109 13 -150.5 51.5t-41.5 102.5q0 67 19 102.5t64 50.5t128 15q68 0 105.5 -15.5t68.5 -58.5l-22 -20q-25 36 -59.5 51t-92.5 15 q-69 0 -108 -13t-56 -43t-17 -84q0 -50 36 -81.5t124 -42.5q81 -11 126 -31t64 -54.5t19 -91.5q0 -70 -21.5 -108t-72 -53.5t-144.5 -15.5q-66 0 -101 18.5zM411 799l-120 -106l-20 21l120 106z" />
         <glyph glyph-name="scaron" unicode="š" d="M174 4.5q-35 18.5 -66 70.5l23 19q24 -44 56.5 -62t87.5 -18q79 0 123.5 13.5t64.5 45.5t20 90q0 47 -17 76.5t-55 46t-105 24.5q-109 13 -150.5 51.5t-41.5 102.5q0 67 19 102.5t64 50.5t128 15q68 0 105.5 -15.5t68.5 -58.5l-22 -20q-25 36 -59.5 51t-92.5 15 q-69 0 -108 -13t-56 -43t-17 -84q0 -50 36 -81.5t124 -42.5q81 -11 126 -31t64 -54.5t19 -91.5q0 -70 -21.5 -108t-72 -53.5t-144.5 -15.5q-66 0 -101 18.5zM415 814l-115 -104l-116 102l23 18l93 -81l91 83z" />
         <glyph glyph-name="scedilla" unicode="ş" d="M495 61.5q-18 -36.5 -60.5 -54t-119.5 -20.5v-24q33 -8 53.5 -26.5t20.5 -41.5q0 -33 -26 -53t-69 -20q-17 0 -37.5 5.5t-35.5 14.5l13 32q14 -11 31 -17.5t29 -6.5q29 0 47 12.5t18 32.5q0 16 -20.5 26t-53.5 10v55h-10q-66 0 -101 18.5t-66 70.5l23 19q24 -44 56.5 -62 t87.5 -18q79 0 123.5 13.5t64.5 45.5t20 90q0 47 -17 76.5t-55 46t-105 24.5q-109 13 -150.5 51.5t-41.5 102.5q0 67 19 102.5t64 50.5t128 15q68 0 105.5 -15.5t68.5 -58.5l-22 -20q-25 36 -59.5 51t-92.5 15q-69 0 -108 -13t-56 -43t-17 -84q0 -50 36 -81.5t124 -42.5 q81 -11 126 -31t64 -54.5t19 -91.5q0 -65 -18 -101.5z" />
         <glyph glyph-name="scircumflex" unicode="ŝ" d="M174 4.5q-35 18.5 -66 70.5l23 19q24 -44 56.5 -62t87.5 -18q79 0 123.5 13.5t64.5 45.5t20 90q0 47 -17 76.5t-55 46t-105 24.5q-109 13 -150.5 51.5t-41.5 102.5q0 67 19 102.5t64 50.5t128 15q68 0 105.5 -15.5t68.5 -58.5l-22 -20q-25 36 -59.5 51t-92.5 15 q-69 0 -108 -13t-56 -43t-17 -84q0 -50 36 -81.5t124 -42.5q81 -11 126 -31t64 -54.5t19 -91.5q0 -70 -21.5 -108t-72 -53.5t-144.5 -15.5q-66 0 -101 18.5zM415 715l-24 -18l-91 84l-92 -82l-23 18l115 102z" />
         <glyph glyph-name="uni0219" unicode="ș" d="M174 4.5q-35 18.5 -66 70.5l23 19q24 -44 56.5 -62t87.5 -18q79 0 123.5 13.5t64.5 45.5t20 90q0 47 -17 76.5t-55 46t-105 24.5q-109 13 -150.5 51.5t-41.5 102.5q0 67 19 102.5t64 50.5t128 15q68 0 105.5 -15.5t68.5 -58.5l-22 -20q-25 36 -59.5 51t-92.5 15 q-69 0 -108 -13t-56 -43t-17 -84q0 -50 36 -81.5t124 -42.5q81 -11 126 -31t64 -54.5t19 -91.5q0 -70 -21.5 -108t-72 -53.5t-144.5 -15.5q-66 0 -101 18.5zM300 -127q-16 1 -22 8.5t-6 26.5q0 21 7 27.5t30 6.5q22 0 29 -6.5t7 -27.5q0 -26 -20 -68.5t-49 -85.5h-22z" />
         <glyph glyph-name="germandbls" unicode="ß" d="M99 606q0 82 16.5 126.5t54.5 63t109 18.5q80 0 124 -18.5t62.5 -63t18.5 -126.5q0 -76 -19.5 -114.5t-71.5 -62.5q45 -16 70 -40.5t35.5 -64t10.5 -104.5q0 -87 -18.5 -134t-62.5 -66.5t-124 -19.5h-53v28h53q67 0 104.5 18t54 59t16.5 115q0 71 -16.5 112t-54.5 60 t-104 19h-25v28q66 0 104 16.5t54.5 52.5t16.5 98q0 69 -16.5 107.5t-54 55.5t-104.5 17q-57 0 -89.5 -17t-46.5 -55.5t-14 -107.5v-606h-30v606z" />
         <glyph glyph-name="t" unicode="t" d="M268.5 7q-34.5 21 -49 66t-14.5 122v392h-124v27h124v186h30v-186h208v-27h-208v-392q0 -95 29 -138t101 -43q53 0 81 12.5t41 43.5l29 -10q-19 -43 -51 -58.5t-100 -15.5q-62 0 -96.5 21z" />
         <glyph glyph-name="tbar" unicode="ŧ" d="M516 60q-19 -43 -51 -58.5t-100 -15.5q-62 0 -96.5 21t-49 66t-14.5 122v177h-124v28h124v187h-124v27h124v186h30v-186h208v-27h-208v-187h208v-28h-208v-177q0 -95 29 -138t101 -43q53 0 81 12.5t41 43.5z" />
         <glyph glyph-name="tcaron" unicode="ť" d="M327 668h-25l-7 232h39zM268.5 7q-34.5 21 -49 66t-14.5 122v392h-124v27h124v186h30v-186h208v-27h-208v-392q0 -95 29 -138t101 -43q53 0 81 12.5t41 43.5l29 -10q-19 -43 -51 -58.5t-100 -15.5q-62 0 -96.5 21z" />
         <glyph glyph-name="uni0163" unicode="ţ" d="M516 60q-18 -41 -48.5 -57t-92.5 -17v-23q33 -8 53.5 -26.5t20.5 -41.5q0 -33 -26 -53t-69 -20q-17 0 -37.5 5.5t-35.5 14.5l13 32q14 -11 31 -17.5t29 -6.5q29 0 47 12.5t18 32.5q0 16 -20.5 26t-53.5 10v56q-54 3 -84.5 25.5t-43 66.5t-12.5 116v392h-124v27h124v186 h30v-186h208v-27h-208v-392q0 -95 29 -138t101 -43q53 0 81 12.5t41 43.5z" />
         <glyph glyph-name="uni021B" unicode="ț" d="M268.5 7q-34.5 21 -49 66t-14.5 122v392h-124v27h124v186h30v-186h208v-27h-208v-392q0 -95 29 -138t101 -43q53 0 81 12.5t41 43.5l29 -10q-19 -43 -51 -58.5t-100 -15.5q-62 0 -96.5 21zM360 -127q-16 1 -22 8.5t-6 26.5q0 21 7 27.5t30 6.5q22 0 29 -6.5t7 -27.5 q0 -26 -20 -68.5t-49 -85.5h-22z" />
         <glyph glyph-name="u" unicode="u" d="M176.5 5.5q-37.5 19.5 -53 65.5t-15.5 130v417h30v-417q0 -71 13.5 -111.5t44.5 -58t87 -17.5q72 0 113 15t59 49.5t18 95.5v444h30v-618h-30v74q-19 -34 -41.5 -53t-57.5 -27t-91 -8q-69 0 -106.5 19.5z" />
         <glyph glyph-name="uacute" unicode="ú" d="M176.5 5.5q-37.5 19.5 -53 65.5t-15.5 130v417h30v-417q0 -71 13.5 -111.5t44.5 -58t87 -17.5q72 0 113 15t59 49.5t18 95.5v444h30v-618h-30v74q-19 -34 -41.5 -53t-57.5 -27t-91 -8q-69 0 -106.5 19.5zM411 799l-120 -106l-20 21l120 106z" />
         <glyph glyph-name="ubreve" unicode="ŭ" d="M176.5 5.5q-37.5 19.5 -53 65.5t-15.5 130v417h30v-417q0 -71 13.5 -111.5t44.5 -58t87 -17.5q72 0 113 15t59 49.5t18 95.5v444h30v-618h-30v74q-19 -34 -41.5 -53t-57.5 -27t-91 -8q-69 0 -106.5 19.5zM231 702.5q-24 8.5 -34.5 29.5t-12.5 59h30q1 -37 21 -53t64 -16 q45 0 65 16t21 53h30q-2 -38 -12.5 -59t-35 -29.5t-68.5 -8.5t-68 8.5z" />
         <glyph glyph-name="uni01D4" unicode="ǔ" d="M176.5 5.5q-37.5 19.5 -53 65.5t-15.5 130v417h30v-417q0 -71 13.5 -111.5t44.5 -58t87 -17.5q72 0 113 15t59 49.5t18 95.5v444h30v-618h-30v74q-19 -34 -41.5 -53t-57.5 -27t-91 -8q-69 0 -106.5 19.5zM415 814l-115 -104l-116 102l23 18l93 -81l91 83z" />
         <glyph glyph-name="ucircumflex" unicode="û" d="M176.5 5.5q-37.5 19.5 -53 65.5t-15.5 130v417h30v-417q0 -71 13.5 -111.5t44.5 -58t87 -17.5q72 0 113 15t59 49.5t18 95.5v444h30v-618h-30v74q-19 -34 -41.5 -53t-57.5 -27t-91 -8q-69 0 -106.5 19.5zM415 715l-24 -18l-91 84l-92 -82l-23 18l115 102z" />
         <glyph glyph-name="udieresis" unicode="ü" d="M176.5 5.5q-37.5 19.5 -53 65.5t-15.5 130v417h30v-417q0 -71 13.5 -111.5t44.5 -58t87 -17.5q72 0 113 15t59 49.5t18 95.5v444h30v-618h-30v74q-19 -34 -41.5 -53t-57.5 -27t-91 -8q-69 0 -106.5 19.5zM156 750.5q-9 8.5 -9 34.5q0 25 9 33t36 8t36 -8t9 -33 q0 -26 -9 -34.5t-36 -8.5t-36 8.5zM372 750.5q-9 8.5 -9 34.5q0 25 9 33t36 8t36 -8t9 -33q0 -26 -9 -34.5t-36 -8.5t-36 8.5z" />
         <glyph glyph-name="uni01D8" unicode="ǘ" d="M176.5 5.5q-37.5 19.5 -53 65.5t-15.5 130v417h30v-417q0 -71 13.5 -111.5t44.5 -58t87 -17.5q72 0 113 15t59 49.5t18 95.5v444h30v-618h-30v74q-19 -34 -41.5 -53t-57.5 -27t-91 -8q-69 0 -106.5 19.5zM156 750.5q-9 8.5 -9 34.5q0 25 9 33t36 8t36 -8t9 -33 q0 -26 -9 -34.5t-36 -8.5t-36 8.5zM372 750.5q-9 8.5 -9 34.5q0 25 9 33t36 8t36 -8t9 -33q0 -26 -9 -34.5t-36 -8.5t-36 8.5zM411 1014l-120 -106l-20 21l120 106z" />
         <glyph glyph-name="uni01DA" unicode="ǚ" d="M176.5 5.5q-37.5 19.5 -53 65.5t-15.5 130v417h30v-417q0 -71 13.5 -111.5t44.5 -58t87 -17.5q72 0 113 15t59 49.5t18 95.5v444h30v-618h-30v74q-19 -34 -41.5 -53t-57.5 -27t-91 -8q-69 0 -106.5 19.5zM156 750.5q-9 8.5 -9 34.5q0 25 9 33t36 8t36 -8t9 -33 q0 -26 -9 -34.5t-36 -8.5t-36 8.5zM372 750.5q-9 8.5 -9 34.5q0 25 9 33t36 8t36 -8t9 -33q0 -26 -9 -34.5t-36 -8.5t-36 8.5zM415 1029l-115 -104l-116 102l23 18l93 -81l91 83z" />
         <glyph glyph-name="uni01DC" unicode="ǜ" d="M176.5 5.5q-37.5 19.5 -53 65.5t-15.5 130v417h30v-417q0 -71 13.5 -111.5t44.5 -58t87 -17.5q72 0 113 15t59 49.5t18 95.5v444h30v-618h-30v74q-19 -34 -41.5 -53t-57.5 -27t-91 -8q-69 0 -106.5 19.5zM156 750.5q-9 8.5 -9 34.5q0 25 9 33t36 8t36 -8t9 -33 q0 -26 -9 -34.5t-36 -8.5t-36 8.5zM372 750.5q-9 8.5 -9 34.5q0 25 9 33t36 8t36 -8t9 -33q0 -26 -9 -34.5t-36 -8.5t-36 8.5zM329 929l-20 -21l-120 106l20 21z" />
         <glyph glyph-name="uni01D6" unicode="ǖ" d="M176.5 5.5q-37.5 19.5 -53 65.5t-15.5 130v417h30v-417q0 -71 13.5 -111.5t44.5 -58t87 -17.5q72 0 113 15t59 49.5t18 95.5v444h30v-618h-30v74q-19 -34 -41.5 -53t-57.5 -27t-91 -8q-69 0 -106.5 19.5zM156 750.5q-9 8.5 -9 34.5q0 25 9 33t36 8t36 -8t9 -33 q0 -26 -9 -34.5t-36 -8.5t-36 8.5zM372 750.5q-9 8.5 -9 34.5q0 25 9 33t36 8t36 -8t9 -33q0 -26 -9 -34.5t-36 -8.5t-36 8.5zM427 948h-254v28h254v-28z" />
         <glyph glyph-name="uni1EE5" unicode="ụ" d="M176.5 5.5q-37.5 19.5 -53 65.5t-15.5 130v417h30v-417q0 -71 13.5 -111.5t44.5 -58t87 -17.5q72 0 113 15t59 49.5t18 95.5v444h30v-618h-30v74q-19 -34 -41.5 -53t-57.5 -27t-91 -8q-69 0 -106.5 19.5zM264.5 -202q-9.5 9 -9.5 34t9.5 34t35.5 9t35.5 -9t9.5 -34 t-9.5 -34t-35.5 -9t-35.5 9z" />
         <glyph glyph-name="ugrave" unicode="ù" d="M176.5 5.5q-37.5 19.5 -53 65.5t-15.5 130v417h30v-417q0 -71 13.5 -111.5t44.5 -58t87 -17.5q72 0 113 15t59 49.5t18 95.5v444h30v-618h-30v74q-19 -34 -41.5 -53t-57.5 -27t-91 -8q-69 0 -106.5 19.5zM329 714l-20 -21l-120 106l20 21z" />
         <glyph glyph-name="uni1EE7" unicode="ủ" d="M176.5 5.5q-37.5 19.5 -53 65.5t-15.5 130v417h30v-417q0 -71 13.5 -111.5t44.5 -58t87 -17.5q72 0 113 15t59 49.5t18 95.5v444h30v-618h-30v74q-19 -34 -41.5 -53t-57.5 -27t-91 -8q-69 0 -106.5 19.5zM284 680q32 11 47 27t15 33t-13.5 28t-30.5 11q-23 0 -44.5 -9.5 t-33.5 -19.5v35q16 10 37.5 16t40.5 6q30 0 52 -20t22 -51q0 -26 -21.5 -48t-63.5 -34z" />
         <glyph glyph-name="uhorn" unicode="ư" d="M609 802h30v-121q0 -51 -26.5 -82t-70.5 -31q-19 0 -39 12v-580h-30v74q-19 -34 -41.5 -53t-57.5 -27t-91 -8q-69 0 -106.5 19.5t-53 65.5t-15.5 130v417h30v-417q0 -71 13.5 -111.5t44.5 -58t87 -17.5q72 0 113 15t59 49.5t18 95.5v444h30v-13q18 -9 43 -9q27 0 45 23.5 t18 61.5v121z" />
         <glyph glyph-name="uni1EE9" unicode="ứ" d="M609 802h30v-121q0 -51 -26.5 -82t-70.5 -31q-19 0 -39 12v-580h-30v74q-19 -34 -41.5 -53t-57.5 -27t-91 -8q-69 0 -106.5 19.5t-53 65.5t-15.5 130v417h30v-417q0 -71 13.5 -111.5t44.5 -58t87 -17.5q72 0 113 15t59 49.5t18 95.5v444h30v-13q18 -9 43 -9q27 0 45 23.5 t18 61.5v121zM411 799l-120 -106l-20 21l120 106z" />
         <glyph glyph-name="uni1EF1" unicode="ự" d="M609 802h30v-121q0 -51 -26.5 -82t-70.5 -31q-19 0 -39 12v-580h-30v74q-19 -34 -41.5 -53t-57.5 -27t-91 -8q-69 0 -106.5 19.5t-53 65.5t-15.5 130v417h30v-417q0 -71 13.5 -111.5t44.5 -58t87 -17.5q72 0 113 15t59 49.5t18 95.5v444h30v-13q18 -9 43 -9q27 0 45 23.5 t18 61.5v121zM264.5 -202q-9.5 9 -9.5 34t9.5 34t35.5 9t35.5 -9t9.5 -34t-9.5 -34t-35.5 -9t-35.5 9z" />
         <glyph glyph-name="uni1EEB" unicode="ừ" d="M609 802h30v-121q0 -51 -26.5 -82t-70.5 -31q-19 0 -39 12v-580h-30v74q-19 -34 -41.5 -53t-57.5 -27t-91 -8q-69 0 -106.5 19.5t-53 65.5t-15.5 130v417h30v-417q0 -71 13.5 -111.5t44.5 -58t87 -17.5q72 0 113 15t59 49.5t18 95.5v444h30v-13q18 -9 43 -9q27 0 45 23.5 t18 61.5v121zM329 714l-20 -21l-120 106l20 21z" />
         <glyph glyph-name="uni1EED" unicode="ử" d="M609 802h30v-121q0 -51 -26.5 -82t-70.5 -31q-19 0 -39 12v-580h-30v74q-19 -34 -41.5 -53t-57.5 -27t-91 -8q-69 0 -106.5 19.5t-53 65.5t-15.5 130v417h30v-417q0 -71 13.5 -111.5t44.5 -58t87 -17.5q72 0 113 15t59 49.5t18 95.5v444h30v-13q18 -9 43 -9q27 0 45 23.5 t18 61.5v121zM284 680q32 11 47 27t15 33t-13.5 28t-30.5 11q-23 0 -44.5 -9.5t-33.5 -19.5v35q16 10 37.5 16t40.5 6q30 0 52 -20t22 -51q0 -26 -21.5 -48t-63.5 -34z" />
         <glyph glyph-name="uni1EEF" unicode="ữ" d="M609 802h30v-121q0 -51 -26.5 -82t-70.5 -31q-19 0 -39 12v-580h-30v74q-19 -34 -41.5 -53t-57.5 -27t-91 -8q-69 0 -106.5 19.5t-53 65.5t-15.5 130v417h30v-417q0 -71 13.5 -111.5t44.5 -58t87 -17.5q72 0 113 15t59 49.5t18 95.5v444h30v-13q18 -9 43 -9q27 0 45 23.5 t18 61.5v121zM329.5 716.5q-15.5 10.5 -34.5 30.5q-18 18 -31.5 27t-30.5 9q-25 0 -32 -11t-11 -40h-28q3 36 22 57.5t49 21.5q19 0 34.5 -10t36.5 -30q18 -18 32 -27.5t31 -9.5q25 0 32 10.5t11 37.5h29q-4 -35 -23 -55.5t-49 -20.5q-22 0 -37.5 10.5z" />
         <glyph glyph-name="uhungarumlaut" unicode="ű" d="M176.5 5.5q-37.5 19.5 -53 65.5t-15.5 130v417h30v-417q0 -71 13.5 -111.5t44.5 -58t87 -17.5q72 0 113 15t59 49.5t18 95.5v444h30v-618h-30v74q-19 -34 -41.5 -53t-57.5 -27t-91 -8q-69 0 -106.5 19.5zM298 806l-120 -106l-20 21l120 106zM442 806l-120 -106l-20 21 l120 106z" />
         <glyph glyph-name="umacron" unicode="ū" d="M176.5 5.5q-37.5 19.5 -53 65.5t-15.5 130v417h30v-417q0 -71 13.5 -111.5t44.5 -58t87 -17.5q72 0 113 15t59 49.5t18 95.5v444h30v-618h-30v74q-19 -34 -41.5 -53t-57.5 -27t-91 -8q-69 0 -106.5 19.5zM427 733h-254v28h254v-28z" />
         <glyph glyph-name="uogonek" unicode="ų" d="M503 0q-16 -12 -46 -30q-48 -30 -73.5 -51t-26.5 -43q0 -19 18.5 -31.5t46.5 -12.5q16 0 36.5 7.5t35.5 18.5l-1 -34q-13 -9 -32.5 -14.5t-38.5 -5.5q-95 0 -95 66q0 28 36 57t110 74v73q-19 -34 -41.5 -53t-57.5 -27t-91 -8q-69 0 -106.5 19.5t-53 65.5t-15.5 130v417 h30v-417q0 -71 13.5 -111.5t44.5 -58t87 -17.5q72 0 113 15t59 49.5t18 95.5v444h30v-618z" />
         <glyph glyph-name="uring" unicode="ů" d="M176.5 5.5q-37.5 19.5 -53 65.5t-15.5 130v417h30v-417q0 -71 13.5 -111.5t44.5 -58t87 -17.5q72 0 113 15t59 49.5t18 95.5v444h30v-618h-30v74q-19 -34 -41.5 -53t-57.5 -27t-91 -8q-69 0 -106.5 19.5zM229.5 705.5q-24.5 9.5 -34.5 32t-10 64.5t10 64.5t34.5 32 t69.5 9.5q65 0 90.5 -23t25.5 -83q0 -41 -10.5 -64t-35 -32.5t-70.5 -9.5q-45 0 -69.5 9.5zM365.5 741.5q19.5 17.5 19.5 60.5t-19.5 60.5t-66.5 17.5q-46 0 -65 -17.5t-19 -60.5t19 -60.5t65 -17.5q47 0 66.5 17.5z" />
         <glyph glyph-name="utilde" unicode="ũ" d="M176.5 5.5q-37.5 19.5 -53 65.5t-15.5 130v417h30v-417q0 -71 13.5 -111.5t44.5 -58t87 -17.5q72 0 113 15t59 49.5t18 95.5v444h30v-618h-30v74q-19 -34 -41.5 -53t-57.5 -27t-91 -8q-69 0 -106.5 19.5zM329.5 716.5q-15.5 10.5 -34.5 30.5q-18 18 -31.5 27t-30.5 9 q-25 0 -32 -11t-11 -40h-28q3 36 22 57.5t49 21.5q19 0 34.5 -10t36.5 -30q18 -18 32 -27.5t31 -9.5q25 0 32 10.5t11 37.5h29q-4 -35 -23 -55.5t-49 -20.5q-22 0 -37.5 10.5z" />
         <glyph glyph-name="v" unicode="v" d="M318 0h-38l-198 618h30l187 -562l187 562h31z" />
         <glyph glyph-name="w" unicode="w" d="M186 0h-34l-101 618h31l91 -564l110 355h34l109 -356l92 565h31l-102 -618h-34l-113 377z" />
         <glyph glyph-name="wacute" unicode="ẃ" d="M186 0h-34l-101 618h31l91 -564l110 355h34l109 -356l92 565h31l-102 -618h-34l-113 377zM411 799l-120 -106l-20 21l120 106z" />
         <glyph glyph-name="wcircumflex" unicode="ŵ" d="M186 0h-34l-101 618h31l91 -564l110 355h34l109 -356l92 565h31l-102 -618h-34l-113 377zM415 715l-24 -18l-91 84l-92 -82l-23 18l115 102z" />
         <glyph glyph-name="wdieresis" unicode="ẅ" d="M186 0h-34l-101 618h31l91 -564l110 355h34l109 -356l92 565h31l-102 -618h-34l-113 377zM156 750.5q-9 8.5 -9 34.5q0 25 9 33t36 8t36 -8t9 -33q0 -26 -9 -34.5t-36 -8.5t-36 8.5zM372 750.5q-9 8.5 -9 34.5q0 25 9 33t36 8t36 -8t9 -33q0 -26 -9 -34.5t-36 -8.5 t-36 8.5z" />
         <glyph glyph-name="wgrave" unicode="ẁ" d="M186 0h-34l-101 618h31l91 -564l110 355h34l109 -356l92 565h31l-102 -618h-34l-113 377zM329 714l-20 -21l-120 106l20 21z" />
         <glyph glyph-name="x" unicode="x" d="M464 618h34l-181 -309l181 -309h-34l-164 280l-164 -280h-34l181 309l-181 309h34l164 -280z" />
         <glyph glyph-name="y" unicode="y" d="M92 -192q-17 4 -36 15l12 25q31 -16 66 -16q47 0 78 14.5t53.5 48t41.5 93.5l-195 630h31l181 -580l183 580h30l-198 -626q-23 -73 -49 -113.5t-63 -57.5t-93 -17q-25 0 -42 4z" />
         <glyph glyph-name="yacute" unicode="ý" d="M92 -192q-17 4 -36 15l12 25q31 -16 66 -16q47 0 78 14.5t53.5 48t41.5 93.5l-195 630h31l181 -580l183 580h30l-198 -626q-23 -73 -49 -113.5t-63 -57.5t-93 -17q-25 0 -42 4zM411 799l-120 -106l-20 21l120 106z" />
         <glyph glyph-name="ycircumflex" unicode="ŷ" d="M92 -192q-17 4 -36 15l12 25q31 -16 66 -16q47 0 78 14.5t53.5 48t41.5 93.5l-195 630h31l181 -580l183 580h30l-198 -626q-23 -73 -49 -113.5t-63 -57.5t-93 -17q-25 0 -42 4zM415 715l-24 -18l-91 84l-92 -82l-23 18l115 102z" />
         <glyph glyph-name="ydieresis" unicode="ÿ" d="M92 -192q-17 4 -36 15l12 25q31 -16 66 -16q47 0 78 14.5t53.5 48t41.5 93.5l-195 630h31l181 -580l183 580h30l-198 -626q-23 -73 -49 -113.5t-63 -57.5t-93 -17q-25 0 -42 4zM156 750.5q-9 8.5 -9 34.5q0 25 9 33t36 8t36 -8t9 -33q0 -26 -9 -34.5t-36 -8.5t-36 8.5z M372 750.5q-9 8.5 -9 34.5q0 25 9 33t36 8t36 -8t9 -33q0 -26 -9 -34.5t-36 -8.5t-36 8.5z" />
         <glyph glyph-name="uni1EF5" unicode="ỵ" d="M92 -192q-17 4 -36 15l12 25q31 -16 66 -16q47 0 78 14.5t53.5 48t41.5 93.5l-195 630h31l181 -580l183 580h30l-198 -626q-23 -73 -49 -113.5t-63 -57.5t-93 -17q-25 0 -42 4zM374.5 -202q-9.5 9 -9.5 34t9.5 34t35.5 9t35.5 -9t9.5 -34t-9.5 -34t-35.5 -9t-35.5 9z" />
         <glyph glyph-name="ygrave" unicode="ỳ" d="M92 -192q-17 4 -36 15l12 25q31 -16 66 -16q47 0 78 14.5t53.5 48t41.5 93.5l-195 630h31l181 -580l183 580h30l-198 -626q-23 -73 -49 -113.5t-63 -57.5t-93 -17q-25 0 -42 4zM329 714l-20 -21l-120 106l20 21z" />
         <glyph glyph-name="uni1EF7" unicode="ỷ" d="M92 -192q-17 4 -36 15l12 25q31 -16 66 -16q47 0 78 14.5t53.5 48t41.5 93.5l-195 630h31l181 -580l183 580h30l-198 -626q-23 -73 -49 -113.5t-63 -57.5t-93 -17q-25 0 -42 4zM284 680q32 11 47 27t15 33t-13.5 28t-30.5 11q-23 0 -44.5 -9.5t-33.5 -19.5v35 q16 10 37.5 16t40.5 6q30 0 52 -20t22 -51q0 -26 -21.5 -48t-63.5 -34z" />
         <glyph glyph-name="uni1EF9" unicode="ỹ" d="M92 -192q-17 4 -36 15l12 25q31 -16 66 -16q47 0 78 14.5t53.5 48t41.5 93.5l-195 630h31l181 -580l183 580h30l-198 -626q-23 -73 -49 -113.5t-63 -57.5t-93 -17q-25 0 -42 4zM329.5 716.5q-15.5 10.5 -34.5 30.5q-18 18 -31.5 27t-30.5 9q-25 0 -32 -11t-11 -40h-28 q3 36 22 57.5t49 21.5q19 0 34.5 -10t36.5 -30q18 -18 32 -27.5t31 -9.5q25 0 32 10.5t11 37.5h29q-4 -35 -23 -55.5t-49 -20.5q-22 0 -37.5 10.5z" />
         <glyph glyph-name="z" unicode="z" d="M488 0h-377v19l335 571h-334v28h375v-19l-335 -571h336v-28z" />
         <glyph glyph-name="zacute" unicode="ź" d="M488 0h-377v19l335 571h-334v28h375v-19l-335 -571h336v-28zM411 799l-120 -106l-20 21l120 106z" />
         <glyph glyph-name="zcaron" unicode="ž" d="M488 0h-377v19l335 571h-334v28h375v-19l-335 -571h336v-28zM415 814l-115 -104l-116 102l23 18l93 -81l91 83z" />
         <glyph glyph-name="zdotaccent" unicode="ż" d="M488 0h-377v19l335 571h-334v28h375v-19l-335 -571h336v-28zM264.5 768q-9.5 9 -9.5 34t9.5 34t35.5 9t35.5 -9t9.5 -34t-9.5 -34t-35.5 -9t-35.5 9z" />
         <glyph glyph-name="ordfeminine" unicode="ª" d="M193.5 400q-30.5 11 -44 36t-13.5 71q0 42 13.5 65t44.5 33t86 10h113v59q0 64 -24.5 88t-88.5 24q-45 0 -66.5 -14t-34.5 -51l-30 4q18 51 45.5 70t85.5 19q55 0 85.5 -13t44 -43t13.5 -84v-204q0 -24 8 -33t30 -9v-30q-34 1 -47.5 16t-17.5 55q-17 -46 -42 -63t-74 -17 q-56 0 -86.5 11zM348 428.5q24 11.5 34.5 39t10.5 76.5v51h-113q-65 0 -89.5 -19t-24.5 -69q0 -52 24.5 -71t89.5 -19q44 0 68 11.5zM475 269h-340v27h340v-27z" />
         <glyph glyph-name="ordmasculine" unicode="º" d="M207 408.5q-33 19.5 -47.5 65.5t-14.5 128t14.5 127.5t47.5 65t93 19.5t93 -19.5t47.5 -65t14.5 -127.5t-14.5 -128t-47.5 -65.5t-93 -19.5t-93 19.5zM375 434q27 17 38.5 56.5t11.5 111.5q0 71 -11.5 110.5t-38.5 56.5t-75 17t-75 -17t-38.5 -56.5t-11.5 -110.5 q0 -72 11.5 -111.5t38.5 -56.5t75 -17t75 17zM470 269h-340v27h340v-27z" />
         <glyph glyph-name="uni2090" unicode="ₐ" d="M193.5 -53q-30.5 11 -44 36t-13.5 71q0 42 13.5 65t44.5 33t86 10h113v59q0 64 -24.5 88t-88.5 24q-44 0 -66 -14.5t-35 -51.5l-30 5q18 51 45.5 70t85.5 19q55 0 85.5 -13t44 -43t13.5 -84v-208q0 -24 8 -33t30 -10v-29q-33 0 -47 15.5t-18 55.5q-16 -43 -41 -59.5 t-75 -16.5q-56 0 -86.5 11zM348 -24.5q24 11.5 34.5 39t10.5 76.5v51h-113q-65 0 -89.5 -19t-24.5 -69q0 -52 24.5 -71t89.5 -19q44 0 68 11.5z" />
         <glyph glyph-name="uni2091" unicode="ₑ" d="M380.5 -21q23.5 15 41.5 54l24 -15q-23 -47 -51.5 -64.5t-81.5 -17.5q-63 0 -97.5 18.5t-49.5 62t-15 120.5q0 86 15 134t50 69t97 21q56 0 87.5 -20t45 -66.5t13.5 -129.5h-278q0 -70 12 -108.5t40.5 -55.5t79.5 -17q44 0 67.5 15zM237 318q-28 -15 -41 -49.5t-15 -96.5 h248q-6 62 -18.5 96.5t-35.5 49.5t-62 15q-48 0 -76 -15z" />
         <glyph glyph-name="uni2071" unicode="ⁱ" d="M279 809.5q-7 6.5 -7 25.5q0 18 7 24t27 6t27 -6t7 -24q0 -19 -7 -25.5t-27 -6.5t-27 6.5zM341 712v-378h115v-28h-260v28h115v350h-84v28h114z" />
         <glyph glyph-name="uni207F" unicode="ⁿ" d="M148 306v415h30v-60q17 37 47 51t93 14q52 0 81 -19.5t41.5 -64.5t12.5 -126v-210h-30v210q0 70 -9.5 109t-32 56t-63.5 17q-54 0 -84 -13t-43 -43.5t-13 -86.5v-249h-30z" />
         <glyph glyph-name="uni2092" unicode="ₒ" d="M207 -44.5q-33 19.5 -47.5 65.5t-14.5 128t14.5 127.5t47.5 65t93 19.5t93 -19.5t47.5 -65t14.5 -127.5t-14.5 -128t-47.5 -65.5t-93 -19.5t-93 19.5zM375 -19q27 17 38.5 56.5t11.5 111.5q0 71 -11.5 110.5t-38.5 56.5t-75 17t-75 -17t-38.5 -56.5t-11.5 -110.5 q0 -72 11.5 -111.5t38.5 -56.5t75 -17t75 17z" />
         <glyph glyph-name="uni2094" unicode="ₔ" d="M384.5 342.5q34.5 -18.5 49.5 -62t15 -120.5q0 -87 -15 -135t-49.5 -68.5t-97.5 -20.5q-56 0 -87.5 20t-45 66.5t-13.5 129.5h278q0 70 -12 108.5t-40.5 55.5t-79.5 17q-44 0 -67.5 -15t-41.5 -55l-24 16q23 47 51.5 64.5t81.5 17.5q63 0 97.5 -18.5zM362.5 -21.5 q27.5 14.5 41 49t15.5 96.5h-248q6 -62 18.5 -96.5t35.5 -49t62 -14.5q48 0 75.5 14.5z" />
         <glyph glyph-name="uni2093" unicode="ₓ" d="M414 356h34l-131 -207l131 -208h-34l-114 181l-114 -181h-34l131 208l-131 207h34l114 -181z" />
         <glyph glyph-name="uni0410" unicode="А" d="M540 0h-32l-61 225h-294l-61 -225h-32l222 800h36zM300 763l-139 -510h278z" />
         <glyph glyph-name="uni0411" unicode="Б" d="M104 0v800h330v-28h-300v-290h175q79 0 123 -22t63 -73.5t19 -144.5q0 -94 -19 -145.5t-63 -74t-123 -22.5h-205zM309 28q68 0 105.5 19.5t53.5 65.5t16 129q0 82 -16 127.5t-53.5 65t-105.5 19.5h-175v-426h175z" />
         <glyph glyph-name="uni0412" unicode="В" d="M104 0v800h180q80 0 124 -17.5t62.5 -59t18.5 -117.5q0 -56 -10.5 -90t-35 -54.5t-70.5 -34.5q55 -12 85.5 -35t43 -63t12.5 -109q0 -87 -18.5 -134t-62.5 -66.5t-124 -19.5h-205zM284 437q66 0 104 16.5t54.5 53t16.5 99.5q0 64 -16.5 100t-54 51t-104.5 15h-150v-335 h150zM309 28q67 0 104.5 18t54 59t16.5 115q0 70 -16.5 111t-54.5 59.5t-104 18.5h-175v-381h175z" />
         <glyph glyph-name="uni0413" unicode="Г" d="M113 800h404v-28h-374v-772h-30v800z" />
         <glyph glyph-name="uni0403" unicode="Ѓ" d="M113 800h404v-28h-374v-772h-30v800zM411 981l-120 -106l-20 21l120 106z" />
         <glyph glyph-name="uni0490" unicode="Ґ" d="M487 800v117h30v-145h-374v-772h-30v800h374z" />
         <glyph glyph-name="uni0414" unicode="Д" d="M512 28h50v-116h-30v88h-464v-88h-30v116h31q46 34 75.5 133t47 253t31.5 386h289v-772zM482 28v744h-233q-36 -642 -142 -744h375z" />
         <glyph glyph-name="uni0415" unicode="Е" d="M516 800v-28h-374v-335h240v-28h-240v-381h374v-28h-404v800h404z" />
         <glyph glyph-name="uni0400" unicode="Ѐ" d="M516 800v-28h-374v-335h240v-28h-240v-381h374v-28h-404v800h404zM343 899l-20 -21l-120 106l20 21z" />
         <glyph glyph-name="uni0401" unicode="Ё" d="M516 800v-28h-374v-335h240v-28h-240v-381h374v-28h-404v800h404zM170 935.5q-9 8.5 -9 34.5q0 25 9 33t36 8t36 -8t9 -33q0 -26 -9 -34.5t-36 -8.5t-36 8.5zM386 935.5q-9 8.5 -9 34.5q0 25 9 33t36 8t36 -8t9 -33q0 -26 -9 -34.5t-36 -8.5t-36 8.5z" />
         <glyph glyph-name="uni0416" unicode="Ж" d="M252 400l-252 400h33l252 -400l-252 -400h-33zM285 800h30v-800h-30v800zM567 800h33l-252 -400l252 -400h-33l-252 400z" />
         <glyph glyph-name="uni0417" unicode="З" d="M174.5 2.5q-44.5 16.5 -64 55.5t-19.5 110h30q0 -58 17.5 -91.5t56.5 -48t105 -14.5q68 0 106.5 17.5t55.5 58t17 113.5t-15 116t-49.5 64.5t-94.5 25.5h-60v28h60q60 4 94.5 22.5t49.5 55t15 97.5q0 66 -17 103.5t-55.5 54t-106.5 16.5q-66 0 -104.5 -13t-56.5 -42 t-18 -80h-30q0 64 19.5 99t64.5 49.5t125 14.5q82 0 126.5 -18t63.5 -61.5t19 -122.5q0 -81 -23 -122t-84 -67q41 -17 64 -43t33 -67.5t10 -109.5q0 -86 -19 -132t-63.5 -65.5t-126.5 -19.5q-81 0 -125.5 16.5z" />
         <glyph glyph-name="uni0418" unicode="И" d="M471 800h33v-800h-30v736l-345 -736h-33v800h30v-736z" />
         <glyph glyph-name="uni0419" unicode="Й" d="M471 800h33v-800h-30v736l-345 -736h-33v800h30v-736zM231.5 884.5q-24.5 8.5 -35 29.5t-11.5 59h40q-8 -21 -8 -32q0 -20 19 -28.5t63 -8.5q45 0 64.5 8.5t19.5 27.5q0 12 -8 33h40q-1 -38 -12 -59t-35.5 -29.5t-68.5 -8.5q-43 0 -67.5 8.5z" />
         <glyph glyph-name="uni040D" unicode="Ѝ" d="M471 800h33v-800h-30v736l-345 -736h-33v800h30v-736zM329 896l-20 -21l-120 106l20 21z" />
         <glyph glyph-name="uni041A" unicode="К" d="M524 0l-281 409h-101v-409h-30v800h30v-363h81q49 3 78 24t44.5 51.5t34.5 84.5q24 68 48.5 115t70.5 88h43q-51 -34 -78.5 -83t-53.5 -125q-20 -55 -34 -85.5t-38.5 -56t-62.5 -35.5l285 -415h-36z" />
         <glyph glyph-name="uni040C" unicode="Ќ" d="M524 0l-281 409h-101v-409h-30v800h30v-363h81q49 3 78 24t44.5 51.5t34.5 84.5q24 68 48.5 115t70.5 88h43q-51 -34 -78.5 -83t-53.5 -125q-20 -55 -34 -85.5t-38.5 -56t-62.5 -35.5l285 -415h-36zM411 981l-120 -106l-20 21l120 106z" />
         <glyph glyph-name="uni041B" unicode="Л" d="M536 0h-30v772h-260q-19 -347 -34.5 -493t-50 -212.5t-107.5 -66.5v27q58 0 87 65t42.5 196t31.5 437q2 48 4 75h317v-800z" />
         <glyph glyph-name="uni041C" unicode="М" d="M100 0h-30l14 800h34l182 -494l182 494h34l14 -800h-30l-13 727l-169 -456h-36l-169 456z" />
         <glyph glyph-name="uni041D" unicode="Н" d="M476 437v363h30v-800h-30v409h-352v-409h-30v800h30v-363h352z" />
         <glyph glyph-name="uni041E" unicode="О" d="M165.5 19.5q-47.5 33.5 -68 113.5t-20.5 227v80q0 147 20.5 227t68 113.5t134.5 33.5t134.5 -33.5t68 -113.5t20.5 -227v-80q0 -147 -20.5 -227t-68 -113.5t-134.5 -33.5t-134.5 33.5zM415.5 46q41.5 32 59.5 106t18 208v80q0 134 -18 208t-59.5 106t-115.5 32 q-75 0 -116.5 -32t-59.5 -106t-17 -208v-80q1 -134 19 -208t59 -106t115 -32t115.5 32z" />
         <glyph glyph-name="uni041F" unicode="П" d="M106 0h-30v800h448v-800h-30v772h-388v-772z" />
         <glyph glyph-name="uni0420" unicode="Р" d="M320 800q80 0 124 -19.5t62.5 -66t18.5 -132.5q0 -84 -18.5 -130.5t-62.5 -67t-124 -20.5h-174v-364h-30v800h204zM320 392q66 0 104 18.5t54.5 59.5t16.5 112q0 73 -16.5 114t-54 58.5t-104.5 17.5h-174v-380h174z" />
         <glyph glyph-name="uni0421" unicode="С" d="M175.5 23.5q-49.5 37.5 -70.5 126t-21 251.5q0 162 21 250.5t70.5 125.5t139.5 37q58 0 94 -13.5t60.5 -45t43.5 -88.5l-29 -11q-25 73 -62 101.5t-107 28.5q-78 0 -121 -35.5t-61.5 -118t-18.5 -231.5q0 -150 18.5 -233t61.5 -118.5t121 -35.5q70 0 107 28t62 99l29 -10 q-19 -57 -43 -88t-60.5 -44t-94.5 -13q-90 0 -139.5 37.5z" />
         <glyph glyph-name="uni0422" unicode="Т" d="M558 800v-28h-243v-772h-30v772h-243v28h516z" />
         <glyph glyph-name="uni0423" unicode="У" d="M529 800h30l-180 -628q-20 -72 -47.5 -112.5t-65.5 -57t-94 -16.5q-25 0 -42 4t-36 15l12 25q31 -16 66 -16q49 0 80 12t53 44l-244 730h31l233 -695q14 31 30 85z" />
         <glyph glyph-name="uni040E" unicode="Ў" d="M529 800h30l-180 -628q-20 -72 -47.5 -112.5t-65.5 -57t-94 -16.5q-25 0 -42 4t-36 15l12 25q31 -16 66 -16q49 0 80 12t53 44l-244 730h31l233 -695q14 31 30 85zM251.5 884.5q-24.5 8.5 -35 29.5t-11.5 59h40q-8 -21 -8 -32q0 -20 19 -28.5t63 -8.5q45 0 64.5 8.5 t19.5 27.5q0 12 -8 33h40q-1 -38 -12 -59t-35.5 -29.5t-68.5 -8.5q-43 0 -67.5 8.5z" />
         <glyph glyph-name="uni0424" unicode="Ф" d="M562 224.5q-25 -63.5 -83.5 -91.5t-163.5 -30v-103h-30v103q-105 2 -163.5 30.5t-83.5 92t-25 175.5t25 175t83.5 91.5t163.5 30.5v102h30v-102q105 -2 163.5 -30t83.5 -91.5t25 -175.5q0 -113 -25 -176.5zM315 131q93 2 145 27.5t74.5 83t22.5 159.5t-22.5 159 t-74.5 82.5t-145 27.5v-539zM65.5 242.5q22.5 -57.5 74.5 -83.5t145 -28v539q-93 -2 -145 -27.5t-74.5 -83t-22.5 -158.5t22.5 -158.5z" />
         <glyph glyph-name="uni0425" unicode="Х" d="M490 800h33l-206 -400l206 -400h-33l-190 368l-190 -368h-33l207 400l-207 400h33l190 -368z" />
         <glyph glyph-name="uni0427" unicode="Ч" d="M486 800v-800h-30v267q-13 -54 -55 -76.5t-111 -22.5q-77 0 -119 27t-60 91t-18 181v333h30v-333q0 -104 15.5 -162t51.5 -83.5t100 -25.5t99.5 15.5t51 54t15.5 111.5v423h30z" />
         <glyph glyph-name="uni0426" unicode="Ц" d="M497 800v-772h30v-146h-30v118h-418v800h30v-772h358v772h30z" />
         <glyph glyph-name="uni0428" unicode="Ш" d="M549 0h-498v800h30v-772h204v772h30v-772h204v772h30v-800z" />
         <glyph glyph-name="uni0429" unicode="Щ" d="M528 800v-772h30v-136h-30v108h-486v800h30v-772h198v772h30v-772h198v772h30z" />
         <glyph glyph-name="uni040F" unicode="Џ" d="M479 800h30v-800h-194v-118h-30v118h-194v800h30v-772h358v772z" />
         <glyph glyph-name="uni042C" unicode="Ь" d="M320 482q79 0 123 -22.5t63 -74t19 -144.5t-19 -144.5t-63 -74t-123 -22.5h-204v800h30v-318h174zM320 28q68 0 105.5 19.5t53.5 65.5t16 128t-16 128t-53.5 65.5t-105.5 19.5h-174v-426h174z" />
         <glyph glyph-name="uni042A" unicode="Ъ" d="M336 482q79 0 123 -22.5t63 -74t19 -144.5t-19 -144.5t-63 -74t-123 -22.5h-204v772h-101v28h131v-318h174zM336 28q68 0 105.5 19.5t53.5 65.5t16 128t-16 128t-53.5 65.5t-105.5 19.5h-174v-426h174z" />
         <glyph glyph-name="uni042B" unicode="Ы" d="M238 482q73 0 113.5 -22.5t58 -74t17.5 -144.5t-17.5 -144.5t-58 -74t-113.5 -22.5h-169v800h30v-318h139zM501 0v800h30v-800h-30zM238 28q61 0 95 19.5t49 65.5t15 128t-15 128t-49 65.5t-95 19.5h-139v-426h139z" />
         <glyph glyph-name="uni0409" unicode="Љ" d="M421 482q64 0 99 -22.5t50.5 -74t15.5 -144.5t-15.5 -144.5t-50.5 -74t-99 -22.5h-109v772h-120q-19 -347 -34.5 -493t-50 -212.5t-107.5 -66.5v27q58 0 87 65t42.5 196t31.5 437q2 48 4 75h177v-318h79zM421 28q52 0 81 19.5t41.5 65.5t12.5 128t-12.5 128t-41.5 65.5 t-81 19.5h-79v-426h79z" />
         <glyph glyph-name="uni040A" unicode="Њ" d="M417 482q65 0 101.5 -22.5t52 -74t15.5 -144.5t-15.5 -144.5t-52 -74t-101.5 -22.5h-134v454h-221v-454h-30v800h30v-318h221v318h30v-318h104zM417 28q54 0 83.5 19.5t42.5 65.5t13 128t-13 128t-42.5 65.5t-83.5 19.5h-104v-426h104z" />
         <glyph glyph-name="uni0405" unicode="Ѕ" d="M197.5 -5q-39.5 9 -66 30t-48.5 59l21 20q25 -50 69 -70t127 -20q70 0 109.5 18.5t57 60.5t17.5 117q0 51 -17 86.5t-56 61.5t-108 49q-79 26 -122.5 54t-62 63.5t-18.5 88.5q0 80 18 122.5t60.5 60.5t121.5 18q84 0 126.5 -18t73.5 -66l-19 -21q-25 43 -66 60t-115 17 q-65 0 -101.5 -16t-52.5 -53t-16 -104t36.5 -106t130.5 -68q84 -26 130.5 -56t66.5 -71t20 -102q0 -88 -19.5 -136t-65 -68t-129.5 -20q-63 0 -102.5 9z" />
         <glyph glyph-name="uni0404" unicode="Є" d="M394 32.5q38 18.5 60 60.5h37q-25 -59 -70 -83t-121 -24q-87 0 -134.5 33.5t-68 113.5t-20.5 227v80q0 147 20.5 227t68 113.5t134.5 33.5q76 0 121 -24t70 -83h-35q-22 42 -60.5 60.5t-95.5 18.5q-74 0 -115.5 -32t-59.5 -106t-18 -208v-26h245v-28h-245v-26 q0 -134 18 -208t59.5 -106t115.5 -32q56 0 94 18.5z" />
         <glyph glyph-name="uni042D" unicode="Э" d="M434.5 780.5q47.5 -33.5 68 -113.5t20.5 -227v-80q0 -147 -20.5 -227t-68 -113.5t-134.5 -33.5q-76 0 -121 24t-70 83h37q22 -42 60 -60.5t94 -18.5q74 0 115.5 32t59.5 106t18 208v26h-245v28h245v26q0 134 -18 208t-59.5 106t-115.5 32q-57 0 -95.5 -18.5t-60.5 -60.5 h-35q25 59 70 83t121 24q87 0 134.5 -33.5z" />
         <glyph glyph-name="uni0406" unicode="І" d="M477 800v-28h-162v-744h162v-28h-354v28h162v744h-162v28h354z" />
         <glyph glyph-name="uni0407" unicode="Ї" d="M477 800v-28h-162v-744h162v-28h-354v28h162v744h-162v28h354zM156 935.5q-9 8.5 -9 34.5q0 25 9 33t36 8t36 -8t9 -33q0 -26 -9 -34.5t-36 -8.5t-36 8.5zM372 935.5q-9 8.5 -9 34.5q0 25 9 33t36 8t36 -8t9 -33q0 -26 -9 -34.5t-36 -8.5t-36 8.5z" />
         <glyph glyph-name="uni0408" unicode="Ј" d="M170 -1q-36 13 -60 43.5t-43 86.5l28 8q22 -69 59.5 -96t109.5 -27q77 0 120 30.5t61.5 100t18.5 194.5v433h-131v28h161v-461q0 -138 -21 -213.5t-70.5 -107.5t-138.5 -32q-58 0 -94 13z" />
         <glyph glyph-name="uni040B" unicode="Ћ" d="M468 459.5q42 -22.5 60.5 -75t18.5 -146.5v-238h-30v238q0 84 -15.5 130t-51 66t-100.5 20q-64 0 -99.5 -15.5t-51 -53t-15.5 -108.5v-277h-30v772h-154v28h339v-28h-155v-390q13 55 55 77.5t111 22.5q76 0 118 -22.5z" />
         <glyph glyph-name="uni042E" unicode="Ю" d="M500 779.5q40 -34.5 57 -114.5t17 -225v-80q0 -145 -17 -225t-57 -114.5t-113 -34.5t-113 34.5t-57 114.5t-17 225v26h-125v-386h-30v800h30v-386h125v26q0 145 17 225t57 114.5t113 34.5t113 -34.5zM544 440q0 134 -14.5 208t-48 106t-94.5 32t-94.5 -32t-48 -106 t-14.5 -208v-80q0 -134 14.5 -208t48 -106t94.5 -32t94.5 32t48 106t14.5 208v80z" />
         <glyph glyph-name="uni042F" unicode="Я" d="M492 800v-800h-30v364h-125l-231 -364h-34l229 364h-13q-80 0 -124 20.5t-62.5 67t-18.5 130.5q0 86 18.5 132.5t62.5 66t124 19.5h204zM462 392v380h-174q-67 0 -104.5 -17.5t-54 -58.5t-16.5 -114q0 -71 16.5 -112t54.5 -59.5t104 -18.5h174z" />
         <glyph glyph-name="uni0402" unicode="Ђ" d="M480.5 459q42.5 -23 61 -76.5t18.5 -149.5q0 -95 -18 -148.5t-58.5 -76t-111.5 -22.5q-24 0 -37 2.5t-25 9.5v27q12 -6 25.5 -8.5t36.5 -2.5q59 0 93 20t49.5 67.5t15.5 131.5q0 86 -15.5 133t-51.5 67.5t-101 20.5q-64 0 -100.5 -17t-52.5 -55.5t-16 -107.5v-274h-30 v772h-163v28h359v-28h-166v-396q18 57 61.5 81.5t107.5 24.5q76 0 118.5 -23z" />
         <glyph glyph-name="uni0462" unicode="Ѣ" d="M344 482q79 0 123 -22.5t63 -74t19 -144.5t-19 -144.5t-63 -74t-123 -22.5h-204v636h-116v28h116v136h30v-136h193v-28h-193v-154h174zM344 28q68 0 105.5 19.5t53.5 65.5t16 128t-16 128t-53.5 65.5t-105.5 19.5h-174v-426h174z" />
         <glyph glyph-name="uni046A" unicode="Ѫ" d="M562.5 34.5q12.5 -25.5 29.5 -34.5h-27q-22 19 -33.5 43t-21.5 70q-35 151 -83.5 217t-126.5 66t-127 -66.5t-83 -216.5q-10 -46 -21.5 -70t-33.5 -43h-27q17 9 29.5 34.5t22.5 74.5q28 135 67 206.5t98 94.5l-187 362v28h524v-28l-187 -362q59 -23 98 -94.5t67 -206.5 q10 -49 22.5 -74.5zM254 419q19 4 46 4t46 -4l183 353h-458zM315 0h-30v391h30v-391z" />
         <glyph glyph-name="uni0498" unicode="Ҙ" d="M466 380q23 -26 33 -67.5t10 -109.5q0 -83 -18 -129t-59.5 -66t-116.5 -22v-23q33 -8 53.5 -26.5t20.5 -41.5q0 -33 -26 -53t-69 -20q-17 0 -37.5 5.5t-35.5 14.5l13 32q14 -11 31 -17.5t29 -6.5q29 0 47 12.5t18 32.5q0 16 -20.5 26t-53.5 10v55q-74 2 -115.5 19 t-60 55.5t-18.5 107.5h30q0 -58 17.5 -91.5t56.5 -48t105 -14.5q68 0 106.5 17.5t55.5 58t17 113.5t-15 116t-49.5 64.5t-94.5 25.5h-60v28h60q60 4 94.5 22.5t49.5 55t15 97.5q0 66 -17 103.5t-55.5 54t-106.5 16.5q-66 0 -104.5 -13t-56.5 -42t-18 -80h-30q0 64 19.5 99 t64.5 49.5t125 14.5q82 0 126.5 -18t63.5 -61.5t19 -122.5q0 -81 -23 -122t-84 -67q41 -17 64 -43z" />
         <glyph glyph-name="uni04C0" unicode="Ӏ" d="M477 800v-28h-162v-744h162v-28h-354v28h162v744h-162v28h354z" />
         <glyph glyph-name="uni04C1" unicode="Ӂ" d="M252 400l-252 400h33l252 -400l-252 -400h-33zM285 800h30v-800h-30v800zM567 800h33l-252 -400l252 -400h-33l-252 400zM231.5 884.5q-24.5 8.5 -35 29.5t-11.5 59h40q-8 -21 -8 -32q0 -20 19 -28.5t63 -8.5q45 0 64.5 8.5t19.5 27.5q0 12 -8 33h40q-1 -38 -12 -59 t-35.5 -29.5t-68.5 -8.5q-43 0 -67.5 8.5z" />
         <glyph glyph-name="uni04D0" unicode="Ӑ" d="M540 0h-32l-61 225h-294l-61 -225h-32l222 800h36zM300 763l-139 -510h278zM231.5 887.5q-24.5 8.5 -35 29.5t-11.5 59h40q-8 -21 -8 -32q0 -20 19 -28.5t63 -8.5q45 0 64.5 8.5t19.5 27.5q0 12 -8 33h40q-1 -38 -12 -59t-35.5 -29.5t-68.5 -8.5q-43 0 -67.5 8.5z" />
         <glyph glyph-name="uni04D2" unicode="Ӓ" d="M540 0h-32l-61 225h-294l-61 -225h-32l222 800h36zM300 763l-139 -510h278zM156 935.5q-9 8.5 -9 34.5q0 25 9 33t36 8t36 -8t9 -33q0 -26 -9 -34.5t-36 -8.5t-36 8.5zM372 935.5q-9 8.5 -9 34.5q0 25 9 33t36 8t36 -8t9 -33q0 -26 -9 -34.5t-36 -8.5t-36 8.5z" />
         <glyph glyph-name="uni04D4" unicode="Ӕ" d="M585 800v-28h-235v-381h151v-28h-151v-335h235v-28h-265v271h-204l-75 -271h-32l222 800h354zM254 772l-131 -473h197v473h-66z" />
         <glyph glyph-name="uni04D6" unicode="Ӗ" d="M516 800v-28h-374v-335h240v-28h-240v-381h374v-28h-404v800h404zM245.5 887.5q-24.5 8.5 -35 29.5t-11.5 59h40q-8 -21 -8 -32q0 -20 19 -28.5t63 -8.5q45 0 64.5 8.5t19.5 27.5q0 12 -8 33h40q-1 -38 -12 -59t-35.5 -29.5t-68.5 -8.5q-43 0 -67.5 8.5z" />
         <glyph glyph-name="uni04DC" unicode="Ӝ" d="M252 400l-252 400h33l252 -400l-252 -400h-33zM285 800h30v-800h-30v800zM567 800h33l-252 -400l252 -400h-33l-252 400zM156 932.5q-9 8.5 -9 34.5q0 25 9 33t36 8t36 -8t9 -33q0 -26 -9 -34.5t-36 -8.5t-36 8.5zM372 932.5q-9 8.5 -9 34.5q0 25 9 33t36 8t36 -8t9 -33 q0 -26 -9 -34.5t-36 -8.5t-36 8.5z" />
         <glyph glyph-name="uni04DE" unicode="Ӟ" d="M174.5 2.5q-44.5 16.5 -64 55.5t-19.5 110h30q0 -58 17.5 -91.5t56.5 -48t105 -14.5q68 0 106.5 17.5t55.5 58t17 113.5t-15 116t-49.5 64.5t-94.5 25.5h-60v28h60q60 4 94.5 22.5t49.5 55t15 97.5q0 66 -17 103.5t-55.5 54t-106.5 16.5q-66 0 -104.5 -13t-56.5 -42 t-18 -80h-30q0 64 19.5 99t64.5 49.5t125 14.5q82 0 126.5 -18t63.5 -61.5t19 -122.5q0 -81 -23 -122t-84 -67q41 -17 64 -43t33 -67.5t10 -109.5q0 -86 -19 -132t-63.5 -65.5t-126.5 -19.5q-81 0 -125.5 16.5zM156 932.5q-9 8.5 -9 34.5q0 25 9 33t36 8t36 -8t9 -33 q0 -26 -9 -34.5t-36 -8.5t-36 8.5zM372 932.5q-9 8.5 -9 34.5q0 25 9 33t36 8t36 -8t9 -33q0 -26 -9 -34.5t-36 -8.5t-36 8.5z" />
         <glyph glyph-name="uni04E2" unicode="Ӣ" d="M471 800h33v-800h-30v736l-345 -736h-33v800h30v-736zM427 915h-254v28h254v-28z" />
         <glyph glyph-name="uni04E4" unicode="Ӥ" d="M471 800h33v-800h-30v736l-345 -736h-33v800h30v-736zM156 932.5q-9 8.5 -9 34.5q0 25 9 33t36 8t36 -8t9 -33q0 -26 -9 -34.5t-36 -8.5t-36 8.5zM372 932.5q-9 8.5 -9 34.5q0 25 9 33t36 8t36 -8t9 -33q0 -26 -9 -34.5t-36 -8.5t-36 8.5z" />
         <glyph glyph-name="uni04E6" unicode="Ӧ" d="M165.5 19.5q-47.5 33.5 -68 113.5t-20.5 227v80q0 147 20.5 227t68 113.5t134.5 33.5t134.5 -33.5t68 -113.5t20.5 -227v-80q0 -147 -20.5 -227t-68 -113.5t-134.5 -33.5t-134.5 33.5zM415.5 46q41.5 32 59.5 106t18 208v80q0 134 -18 208t-59.5 106t-115.5 32 q-75 0 -116.5 -32t-59.5 -106t-17 -208v-80q1 -134 19 -208t59 -106t115 -32t115.5 32zM156 935.5q-9 8.5 -9 34.5q0 25 9 33t36 8t36 -8t9 -33q0 -26 -9 -34.5t-36 -8.5t-36 8.5zM372 935.5q-9 8.5 -9 34.5q0 25 9 33t36 8t36 -8t9 -33q0 -26 -9 -34.5t-36 -8.5t-36 8.5z " />
         <glyph glyph-name="uni04EC" unicode="Ӭ" d="M434.5 780.5q47.5 -33.5 68 -113.5t20.5 -227v-80q0 -147 -20.5 -227t-68 -113.5t-134.5 -33.5q-76 0 -121 24t-70 83h37q22 -42 60 -60.5t94 -18.5q74 0 115.5 32t59.5 106t18 208v26h-245v28h245v26q0 134 -18 208t-59.5 106t-115.5 32q-57 0 -95.5 -18.5t-60.5 -60.5 h-35q25 59 70 83t121 24q87 0 134.5 -33.5zM156 935.5q-9 8.5 -9 34.5q0 25 9 33t36 8t36 -8t9 -33q0 -26 -9 -34.5t-36 -8.5t-36 8.5zM372 935.5q-9 8.5 -9 34.5q0 25 9 33t36 8t36 -8t9 -33q0 -26 -9 -34.5t-36 -8.5t-36 8.5z" />
         <glyph glyph-name="uni04EE" unicode="Ӯ" d="M529 800h30l-180 -628q-20 -72 -47.5 -112.5t-65.5 -57t-94 -16.5q-25 0 -42 4t-36 15l12 25q31 -16 66 -16q49 0 80 12t53 44l-244 730h31l233 -695q14 31 30 85zM447 915h-254v28h254v-28z" />
         <glyph glyph-name="uni04F0" unicode="Ӱ" d="M529 800h30l-180 -628q-20 -72 -47.5 -112.5t-65.5 -57t-94 -16.5q-25 0 -42 4t-36 15l12 25q31 -16 66 -16q49 0 80 12t53 44l-244 730h31l233 -695q14 31 30 85zM176 932.5q-9 8.5 -9 34.5q0 25 9 33t36 8t36 -8t9 -33q0 -26 -9 -34.5t-36 -8.5t-36 8.5zM392 932.5 q-9 8.5 -9 34.5q0 25 9 33t36 8t36 -8t9 -33q0 -26 -9 -34.5t-36 -8.5t-36 8.5z" />
         <glyph glyph-name="uni04F2" unicode="Ӳ" d="M529 800h30l-180 -628q-20 -72 -47.5 -112.5t-65.5 -57t-94 -16.5q-25 0 -42 4t-36 15l12 25q31 -16 66 -16q49 0 80 12t53 44l-244 730h31l233 -695q14 31 30 85zM318 981l-120 -106l-20 21l120 106zM462 981l-120 -106l-20 21l120 106z" />
         <glyph glyph-name="uni04F4" unicode="Ӵ" d="M486 800v-800h-30v267q-13 -54 -55 -76.5t-111 -22.5q-77 0 -119 27t-60 91t-18 181v333h30v-333q0 -104 15.5 -162t51.5 -83.5t100 -25.5t99.5 15.5t51 54t15.5 111.5v423h30zM156 932.5q-9 8.5 -9 34.5q0 25 9 33t36 8t36 -8t9 -33q0 -26 -9 -34.5t-36 -8.5t-36 8.5z M372 932.5q-9 8.5 -9 34.5q0 25 9 33t36 8t36 -8t9 -33q0 -26 -9 -34.5t-36 -8.5t-36 8.5z" />
         <glyph glyph-name="uni04F8" unicode="Ӹ" d="M238 482q73 0 113.5 -22.5t58 -74t17.5 -144.5t-17.5 -144.5t-58 -74t-113.5 -22.5h-169v800h30v-318h139zM501 0v800h30v-800h-30zM238 28q61 0 95 19.5t49 65.5t15 128t-15 128t-49 65.5t-95 19.5h-139v-426h139zM156 932.5q-9 8.5 -9 34.5q0 25 9 33t36 8t36 -8t9 -33 q0 -26 -9 -34.5t-36 -8.5t-36 8.5zM372 932.5q-9 8.5 -9 34.5q0 25 9 33t36 8t36 -8t9 -33q0 -26 -9 -34.5t-36 -8.5t-36 8.5z" />
         <glyph glyph-name="uni0414.loclBGR" d="M322 800l219 -772h21v-116h-30v88h-464v-88h-30v116h21l219 772h44zM300 765l-208 -737h416z" />
         <glyph glyph-name="uni041B.loclBGR" d="M94 0h-29l213 800h44l213 -800h-29l-206 765z" />
         <glyph glyph-name="uni0424.loclBGR" d="M562 155.5q-25 -88.5 -83.5 -128t-163.5 -41.5v-113h-30v113q-105 3 -163.5 42.5t-83.5 127.5t-25 245q0 156 25 244t83.5 127t163.5 42v112h30v-112q105 -2 163.5 -41.5t83.5 -127.5t25 -244q0 -157 -25 -245.5zM315 14q93 3 145 39.5t74.5 119t22.5 228.5 q0 145 -22.5 227t-74.5 118.5t-145 39.5v-772zM65.5 173q22.5 -82 74.5 -119t145 -40v772q-93 -3 -145 -39.5t-74.5 -118.5t-22.5 -227q0 -146 22.5 -228z" />
         <glyph glyph-name="uni0430" unicode="а" d="M154 1.5q-42 15.5 -60 53t-18 106.5q0 71 18 110t60.5 56.5t119.5 17.5h168v78q0 71 -16 111t-52 57t-100 17q-66 0 -99.5 -21.5t-51.5 -76.5l-29 8q15 46 36.5 70.5t55 34t88.5 9.5q78 0 120 -18t60 -62.5t18 -128.5v-272q0 -66 17.5 -94.5t60.5 -29.5v-27q-36 1 -56 10 t-30 29.5t-14 59.5q-18 -44 -39 -68t-53 -34.5t-84 -10.5q-78 0 -120 15.5zM374 32.5q36 18.5 52 61t16 118.5v105h-168q-63 0 -99.5 -15.5t-52.5 -49t-16 -91.5q0 -57 16 -88.5t52 -45t100 -13.5t100 18.5z" />
         <glyph glyph-name="uni0431" unicode="б" d="M169.5 9q-46.5 23 -66 75.5t-19.5 148.5v247q0 81 27 142.5t75.5 95.5t112.5 34q86 0 137.5 13t51.5 35h28q0 -34 -59.5 -55t-157.5 -21q-55 0 -97 -30.5t-65 -86t-23 -127.5v-95q20 39 43 60t56 29.5t87 8.5q84 0 130.5 -23.5t66 -76.5t19.5 -149t-19.5 -149t-66 -76 t-130.5 -23t-130.5 23zM411 35.5q40 21.5 57.5 68.5t17.5 130t-17.5 130.5t-57.5 69t-111 21.5t-111 -21.5t-57.5 -69.5t-17.5 -131t17.5 -130t57.5 -68t111 -21t111 21.5z" />
         <glyph glyph-name="uni0432" unicode="в" d="M100 0v618h184q83 0 127.5 -13t63 -45t18.5 -91q0 -43 -11 -69t-37 -41t-73 -23q57 -7 88.5 -24t44.5 -49.5t13 -88.5q0 -69 -19 -106t-63.5 -52.5t-126.5 -15.5h-209zM284 346q67 0 106 12t56 38.5t17 72.5q0 47 -17 73t-55.5 37t-106.5 11h-154v-244h154zM309 28 q68 0 106.5 13.5t55.5 45t17 87.5q0 53 -17 84.5t-55.5 45.5t-106.5 14h-179v-290h179z" />
         <glyph glyph-name="uni0433" unicode="г" d="M113 618h404v-28h-374v-590h-30v618z" />
         <glyph glyph-name="uni0453" unicode="ѓ" d="M113 618h404v-28h-374v-590h-30v618zM411 799l-120 -106l-20 21l120 106z" />
         <glyph glyph-name="uni0491" unicode="ґ" d="M487 618v117h30v-145h-374v-590h-30v618h374z" />
         <glyph glyph-name="uni0434" unicode="д" d="M512 28h50v-116h-30v88h-464v-88h-30v116h31q47 35 76 106t47 186t31 298h289v-590zM482 28v562h-233q-16 -237 -50.5 -372.5t-91.5 -189.5h375z" />
         <glyph glyph-name="uni0435" unicode="е" d="M398 31q37 17 72 60l24 -17q-39 -51 -79.5 -69.5t-111.5 -18.5q-87 0 -134.5 29t-67.5 98t-20 196t20 196t67.5 98t134.5 29q79 0 123 -28t63 -95.5t20 -191.5h-398q0 -117 18 -182t59 -93t115 -28q58 0 95 17zM191.5 580q-40.5 -24 -59.5 -79.5t-21 -155.5h367 q-4 100 -21.5 155.5t-54 79.5t-99.5 24q-71 0 -111.5 -24z" />
         <glyph glyph-name="uni0450" unicode="ѐ" d="M398 31q37 17 72 60l24 -17q-39 -51 -79.5 -69.5t-111.5 -18.5q-87 0 -134.5 29t-67.5 98t-20 196t20 196t67.5 98t134.5 29q79 0 123 -28t63 -95.5t20 -191.5h-398q0 -117 18 -182t59 -93t115 -28q58 0 95 17zM191.5 580q-40.5 -24 -59.5 -79.5t-21 -155.5h367 q-4 100 -21.5 155.5t-54 79.5t-99.5 24q-71 0 -111.5 -24zM329 714l-20 -21l-120 106l20 21z" />
         <glyph glyph-name="uni0451" unicode="ё" d="M398 31q37 17 72 60l24 -17q-39 -51 -79.5 -69.5t-111.5 -18.5q-87 0 -134.5 29t-67.5 98t-20 196t20 196t67.5 98t134.5 29q79 0 123 -28t63 -95.5t20 -191.5h-398q0 -117 18 -182t59 -93t115 -28q58 0 95 17zM191.5 580q-40.5 -24 -59.5 -79.5t-21 -155.5h367 q-4 100 -21.5 155.5t-54 79.5t-99.5 24q-71 0 -111.5 -24zM156 750.5q-9 8.5 -9 34.5q0 25 9 33t36 8t36 -8t9 -33q0 -26 -9 -34.5t-36 -8.5t-36 8.5zM372 750.5q-9 8.5 -9 34.5q0 25 9 33t36 8t36 -8t9 -33q0 -26 -9 -34.5t-36 -8.5t-36 8.5z" />
         <glyph glyph-name="uni0436" unicode="ж" d="M244 309l-244 309h40l245 -309l-245 -309h-40zM285 618h30v-618h-30v618zM560 618h39l-245 -309l245 -309h-39l-245 309z" />
         <glyph glyph-name="uni0437" unicode="з" d="M174.5 -2q-44.5 12 -64 40.5t-19.5 79.5h30q0 -41 16.5 -63t55 -31.5t107.5 -9.5t107.5 12t55 39.5t16.5 77.5q0 56 -14.5 88.5t-48.5 48t-96 19.5h-60v28h60q62 4 96 19t48.5 45.5t14.5 84.5q0 49 -16.5 76.5t-55 39.5t-107.5 12t-107.5 -9t-55 -30.5t-16.5 -59.5h-30 q0 49 19.5 76t64.5 39t125 12t125 -14.5t64.5 -48t19.5 -93.5q0 -66 -23 -101t-84 -62q61 -26 84 -63t23 -107q0 -61 -19.5 -94.5t-64.5 -48t-125 -14.5q-81 0 -125.5 12z" />
         <glyph glyph-name="uni0438" unicode="и" d="M469 618h35v-618h-30v568l-343 -568h-35v618h30v-568z" />
         <glyph glyph-name="uni0439" unicode="й" d="M469 618h35v-618h-30v568l-343 -568h-35v618h30v-568zM231.5 702.5q-24.5 8.5 -35 29.5t-11.5 59h40q-8 -21 -8 -32q0 -20 19 -28.5t63 -8.5q45 0 64.5 8.5t19.5 27.5q0 12 -8 33h40q-1 -38 -12 -59t-35.5 -29.5t-68.5 -8.5q-43 0 -67.5 8.5z" />
         <glyph glyph-name="uni045D" unicode="ѝ" d="M469 618h35v-618h-30v568l-343 -568h-35v618h30v-568zM329 714l-20 -21l-120 106l20 21z" />
         <glyph glyph-name="uni043A" unicode="к" d="M557 0h-34l-284 317h-1h-96v-317h-30v618h30v-273h73q54 3 84 17t45.5 35t34.5 60q23 47 48 84t72 77h43q-53 -37 -81 -75.5t-57 -95.5q-19 -38 -33 -60t-38 -39.5t-62 -25.5z" />
         <glyph glyph-name="uni045C" unicode="ќ" d="M557 0h-34l-284 317h-1h-96v-317h-30v618h30v-273h73q54 3 84 17t45.5 35t34.5 60q23 47 48 84t72 77h43q-53 -37 -81 -75.5t-57 -95.5q-19 -38 -33 -60t-38 -39.5t-62 -25.5zM411 799l-120 -106l-20 21l120 106z" />
         <glyph glyph-name="uni043B" unicode="л" d="M536 0h-30v590h-260q-18 -290 -34 -403t-48.5 -150t-109.5 -37v27q64 0 91.5 41.5t41 150t32.5 399.5h317v-618z" />
         <glyph glyph-name="uni043C" unicode="м" d="M100 0h-30l14 618h31l185 -403l185 403h31l14 -618h-30l-13 545l-169 -364h-36l-169 364z" />
         <glyph glyph-name="uni043D" unicode="н" d="M476 346v272h30v-618h-30v318h-352v-318h-30v618h30v-272h352z" />
         <glyph glyph-name="uni043E" unicode="о" d="M176.5 15q-43.5 29 -62.5 98t-19 196t19 196t62.5 98t123.5 29t123.5 -29t62.5 -98t19 -196t-19 -196t-62.5 -98t-123.5 -29t-123.5 29zM404.5 41q37.5 27 54 90.5t16.5 177.5t-16.5 177.5t-54 90.5t-104.5 27t-104.5 -27t-54 -90.5t-16.5 -177.5t16.5 -177.5t54 -90.5 t104.5 -27t104.5 27z" />
         <glyph glyph-name="uni043F" unicode="п" d="M106 0h-30v618h448v-618h-30v590h-388v-590z" />
         <glyph glyph-name="uni0440" unicode="р" d="M101 -182v800h30v-66q19 44 63.5 62t112.5 18q80 0 123.5 -28.5t62.5 -97.5t19 -196q0 -128 -19 -197t-62.5 -98t-123.5 -29q-70 0 -114.5 25t-61.5 85v-278h-30zM411.5 41.5q37.5 27.5 54 91t16.5 177.5t-16.5 177t-54 90t-104.5 27q-76 0 -126 -21.5t-50 -75.5v-314 q0 -96 47.5 -137.5t128.5 -41.5q67 0 104.5 27.5z" />
         <glyph glyph-name="uni0441" unicode="с" d="M182 15q-48 29 -68.5 98t-20.5 196t20.5 196t69.5 98t139 29q68 0 106 -19t75 -71l-25 -15q-31 43 -65.5 60t-90.5 17q-77 0 -119.5 -27t-61 -90.5t-18.5 -177.5t18 -177.5t60 -90.5t117 -27q56 0 91.5 17t68.5 61l25 -15q-37 -52 -76.5 -71.5t-108.5 -19.5 q-88 0 -136 29z" />
         <glyph glyph-name="uni0442" unicode="т" d="M558 618v-28h-243v-590h-30v590h-243v28h516z" />
         <glyph glyph-name="uni0443" unicode="у" d="M92 -192q-17 4 -36 15l12 25q31 -16 66 -16q47 0 78 14.5t53.5 48t41.5 93.5l-195 630h31l181 -580l183 580h30l-198 -626q-23 -73 -49 -113.5t-63 -57.5t-93 -17q-25 0 -42 4z" />
         <glyph glyph-name="uni045E" unicode="ў" d="M92 -192q-17 4 -36 15l12 25q31 -16 66 -16q47 0 78 14.5t53.5 48t41.5 93.5l-195 630h31l181 -580l183 580h30l-198 -626q-23 -73 -49 -113.5t-63 -57.5t-93 -17q-25 0 -42 4zM261.5 702.5q-24.5 8.5 -35 29.5t-11.5 59h40q-8 -21 -8 -32q0 -20 19 -28.5t63 -8.5 q45 0 64.5 8.5t19.5 27.5q0 12 -8 33h40q-1 -38 -12 -59t-35.5 -29.5t-68.5 -8.5q-43 0 -67.5 8.5z" />
         <glyph glyph-name="uni0444" unicode="ф" d="M517.5 146q-20.5 -58 -68 -83.5t-134.5 -27.5v-217h-30v217q-86 2 -134 28t-68.5 84t-20.5 162t20.5 162t68.5 84t134 28v217h30v-217q87 -2 134.5 -27.5t68 -83.5t20.5 -163t-20.5 -163zM315 63q73 2 115 26t60 76.5t18 143.5t-18 143.5t-60 76.5t-115 26v-492z M110 165.5q18 -52.5 60 -76.5t115 -26v492q-73 -2 -115 -26t-60 -76.5t-18 -143.5t18 -143.5z" />
         <glyph glyph-name="uni0445" unicode="х" d="M464 618h34l-181 -309l181 -309h-34l-164 280l-164 -280h-34l181 309l-181 309h34l164 -280z" />
         <glyph glyph-name="uni0447" unicode="ч" d="M456 241q-13 -54 -55 -76.5t-111 -22.5q-80 0 -120.5 19t-58.5 75t-18 171v211h30v-211q0 -102 15.5 -152t50 -67.5t101.5 -17.5q63 0 99 17.5t51.5 58t15.5 113.5v259h30v-618h-30v241z" />
         <glyph glyph-name="uni0446" unicode="ц" d="M504 618v-590h30v-146h-30v118h-418v618h30v-590h358v590h30z" />
         <glyph glyph-name="uni0448" unicode="ш" d="M549 0h-498v618h30v-590h204v590h30v-590h204v590h30v-618z" />
         <glyph glyph-name="uni0449" unicode="щ" d="M528 618v-590h30v-136h-30v108h-486v618h30v-590h198v590h30v-590h198v590h30z" />
         <glyph glyph-name="uni045F" unicode="џ" d="M479 618h30v-618h-194v-118h-30v118h-194v618h30v-590h358v590z" />
         <glyph glyph-name="uni044C" unicode="ь" d="M320 376q79 0 123 -17.5t63 -57.5t19 -113t-19 -113t-63 -57.5t-123 -17.5h-204v618h30v-242h174zM320 28q68 0 105.5 14.5t53.5 49t16 96.5t-16 96.5t-53.5 49t-105.5 14.5h-174v-320h174z" />
         <glyph glyph-name="uni044A" unicode="ъ" d="M336 376q79 0 123 -17.5t63 -57.5t19 -113t-19 -113t-63 -57.5t-123 -17.5h-204v590h-101v28h131v-242h174zM336 28q68 0 105.5 14.5t53.5 49t16 96.5t-16 96.5t-53.5 49t-105.5 14.5h-174v-320h174z" />
         <glyph glyph-name="uni044B" unicode="ы" d="M238 376q73 0 113.5 -17.5t58 -57.5t17.5 -113t-17.5 -113t-58 -57.5t-113.5 -17.5h-169v618h30v-242h139zM501 0v618h30v-618h-30zM238 28q61 0 95 14.5t49 49t15 96.5t-15 96.5t-49 49t-95 14.5h-139v-320h139z" />
         <glyph glyph-name="uni0459" unicode="љ" d="M421 376q64 0 99 -17.5t50.5 -57.5t15.5 -113t-15.5 -113t-50.5 -57.5t-99 -17.5h-109v590h-120q-18 -290 -34 -403t-48.5 -150t-109.5 -37v27q64 0 91.5 41.5t41 150t32.5 399.5h177v-242h79zM421 28q52 0 81 14.5t41.5 49t12.5 96.5t-12.5 96.5t-41.5 49t-81 14.5h-79 v-320h79z" />
         <glyph glyph-name="uni045A" unicode="њ" d="M417 376q65 0 101.5 -17.5t52 -57.5t15.5 -113t-15.5 -113t-52 -57.5t-101.5 -17.5h-134v348h-221v-348h-30v618h30v-242h221v242h30v-242h104zM417 28q54 0 83.5 14.5t42.5 49t13 96.5t-13 96.5t-42.5 49t-83.5 14.5h-104v-320h104z" />
         <glyph glyph-name="uni0455" unicode="ѕ" d="M174 4.5q-35 18.5 -66 70.5l23 19q24 -44 56.5 -62t87.5 -18q79 0 123.5 13.5t64.5 45.5t20 90q0 47 -17 76.5t-55 46t-105 24.5q-109 13 -150.5 51.5t-41.5 102.5q0 67 19 102.5t64 50.5t128 15q68 0 105.5 -15.5t68.5 -58.5l-22 -20q-25 36 -59.5 51t-92.5 15 q-69 0 -108 -13t-56 -43t-17 -84q0 -50 36 -81.5t124 -42.5q81 -11 126 -31t64 -54.5t19 -91.5q0 -70 -21.5 -108t-72 -53.5t-144.5 -15.5q-66 0 -101 18.5z" />
         <glyph glyph-name="uni0454" unicode="є" d="M400 29q33 15 54 54h37q-24 -55 -65.5 -76t-125.5 -21q-86 0 -134 26t-68.5 87t-20.5 170v80q0 109 20.5 170t68.5 87t134 26q84 0 125.5 -21t65.5 -76h-35q-21 39 -55 54t-101 15q-75 0 -116.5 -23.5t-59 -78t-17.5 -153.5v-26h245v-28h-245v-26q0 -99 17.5 -153.5 t59 -78t116.5 -23.5q67 0 100 15z" />
         <glyph glyph-name="uni044D" unicode="э" d="M434 606q48 -26 68.5 -87t20.5 -170v-80q0 -109 -20.5 -170t-68.5 -87t-134 -26q-84 0 -125.5 21t-65.5 76h37q21 -39 54 -54t100 -15q75 0 116.5 23.5t59 78t17.5 153.5v26h-245v28h245v26q0 99 -17.5 153.5t-59 78t-116.5 23.5q-67 0 -101 -15t-55 -54h-35 q24 55 65.5 76t125.5 21q86 0 134 -26z" />
         <glyph glyph-name="uni0456" unicode="і" d="M341 618v-590h175v-28h-380v28h175v562h-126v28h156zM272.5 768q-9.5 9 -9.5 34t9.5 34t35.5 9t35.5 -9t9.5 -34t-9.5 -34t-35.5 -9t-35.5 9z" />
         <glyph glyph-name="uni0457" unicode="ї" d="M341 618v-590h175v-28h-380v28h175v562h-126v28h156zM164 750.5q-9 8.5 -9 34.5q0 25 9 33t36 8t36 -8t9 -33q0 -26 -9 -34.5t-36 -8.5t-36 8.5zM380 750.5q-9 8.5 -9 34.5q0 25 9 33t36 8t36 -8t9 -33q0 -26 -9 -34.5t-36 -8.5t-36 8.5z" />
         <glyph glyph-name="uni0458" unicode="ј" d="M158.5 -186.5q-28.5 9.5 -56.5 35.5l22 19q21 -19 47 -27.5t67 -8.5q65 0 101 19.5t52 63.5t16 123v552h-126v28h156v-580q0 -92 -18 -142t-60.5 -71t-120.5 -21q-51 0 -79.5 9.5zM362.5 768q-9.5 9 -9.5 34t9.5 34t35.5 9t35.5 -9t9.5 -34t-9.5 -34t-35.5 -9t-35.5 9z " />
         <glyph glyph-name="uni045B" unicode="ћ" d="M429 605q42 -27 60 -91t18 -181v-333h-30v333q0 104 -15.5 162t-51.5 83.5t-100 25.5t-99.5 -15.5t-51 -54t-15.5 -111.5v-423h-30v692h-74v28h74v80h30v-80h114v-28h-114v-159q13 54 55 76.5t111 22.5q77 0 119 -27z" />
         <glyph glyph-name="uni044E" unicode="ю" d="M500 606q40 -26 57 -86.5t17 -170.5v-80q0 -110 -17 -170.5t-57 -86.5t-113 -26t-113 26t-57 86.5t-17 170.5v26h-125v-295h-30v618h30v-295h125v26q0 110 17 170.5t57 86.5t113 26t113 -26zM544 349q0 99 -14.5 153.5t-48 78t-94.5 23.5t-94.5 -23.5t-48 -78 t-14.5 -153.5v-80q0 -99 14.5 -153.5t48 -78t94.5 -23.5t94.5 23.5t48 78t14.5 153.5v80z" />
         <glyph glyph-name="uni044F" unicode="я" d="M492 618v-618h-30v288h-126l-228 -288h-36l228 288h-12q-79 0 -123 15.5t-63 50.5t-19 99t19 99t63 50.5t123 15.5h204zM462 316v274h-174q-68 0 -105.5 -12.5t-53.5 -42t-16 -82.5t16 -82.5t53.5 -42t105.5 -12.5h174z" />
         <glyph glyph-name="uni0452" unicode="ђ" d="M429 605q42 -27 60 -91t18 -181v-333q0 -78 -27 -112t-95 -34v27q38 0 56 7t27 32t9 80v333q0 104 -15.5 162t-51.5 83.5t-100 25.5t-99.5 -15.5t-51 -54t-15.5 -111.5v-423h-30v692h-74v28h74v80h30v-80h114v-28h-114v-159q13 54 55 76.5t111 22.5q77 0 119 -27z" />
         <glyph glyph-name="uni0463" unicode="ѣ" d="M320 376q79 0 123 -17.5t63 -57.5t19 -113t-19 -113t-63 -57.5t-123 -17.5h-204v562h-92v28h92v210h30v-210h217v-28h-217v-186h174zM320 28q68 0 105.5 14.5t53.5 49t16 96.5t-16 96.5t-53.5 49t-105.5 14.5h-174v-320h174z" />
         <glyph glyph-name="uni046B" unicode="ѫ" d="M563 29.5q11 -20.5 29 -29.5h-27q-22 19 -32.5 38.5t-22.5 64.5q-28 101 -81 157t-129 56t-129.5 -56.5t-80.5 -156.5q-12 -45 -22.5 -64.5t-32.5 -38.5h-27q18 9 29 29.5t23 69.5q46 190 165 232l-187 259v28h524v-28l-187 -259q119 -42 165 -232q12 -49 23 -69.5z M253 339q20 4 47 4t47 -4l181 251h-456zM315 0h-30v311h30v-311z" />
         <glyph glyph-name="uni0499" unicode="ҙ" d="M486 250q23 -37 23 -107q0 -58 -18 -91.5t-60 -48.5t-116 -17v-23q33 -8 53.5 -26.5t20.5 -41.5q0 -33 -26 -53t-69 -20q-17 0 -37.5 5.5t-35.5 14.5l13 32q14 -11 31 -17.5t29 -6.5q29 0 47 12.5t18 32.5q0 16 -20.5 26t-53.5 10v55q-74 1 -116 13.5t-60 40.5t-18 78h30 q0 -41 16.5 -63t55 -31.5t107.5 -9.5t107.5 12t55 39.5t16.5 77.5q0 56 -14.5 88.5t-48.5 48t-96 19.5h-60v28h60q62 4 96 19t48.5 45.5t14.5 84.5q0 49 -16.5 76.5t-55 39.5t-107.5 12t-107.5 -9t-55 -30.5t-16.5 -59.5h-30q0 49 19.5 76t64.5 39t125 12t125 -14.5 t64.5 -48t19.5 -93.5q0 -66 -23 -101t-84 -62q61 -26 84 -63z" />
         <glyph glyph-name="uni04BB" unicode="һ" d="M114 0v800h30v-267q13 54 55 76.5t111 22.5q77 0 119 -27t60 -91t18 -181v-333h-30v333q0 104 -15.5 162t-51.5 83.5t-100 25.5t-99.5 -15.5t-51 -54t-15.5 -111.5v-423h-30z" />
         <glyph glyph-name="uni04C2" unicode="ӂ" d="M244 309l-244 309h40l245 -309l-245 -309h-40zM285 618h30v-618h-30v618zM560 618h39l-245 -309l245 -309h-39l-245 309zM231.5 702.5q-24.5 8.5 -35 29.5t-11.5 59h40q-8 -21 -8 -32q0 -20 19 -28.5t63 -8.5q45 0 64.5 8.5t19.5 27.5q0 12 -8 33h40q-1 -38 -12 -59 t-35.5 -29.5t-68.5 -8.5q-43 0 -67.5 8.5z" />
         <glyph glyph-name="uni04D1" unicode="ӑ" d="M154 1.5q-42 15.5 -60 53t-18 106.5q0 71 18 110t60.5 56.5t119.5 17.5h168v78q0 71 -16 111t-52 57t-100 17q-66 0 -99.5 -21.5t-51.5 -76.5l-29 8q15 46 36.5 70.5t55 34t88.5 9.5q78 0 120 -18t60 -62.5t18 -128.5v-272q0 -66 17.5 -94.5t60.5 -29.5v-27q-36 1 -56 10 t-30 29.5t-14 59.5q-18 -44 -39 -68t-53 -34.5t-84 -10.5q-78 0 -120 15.5zM374 32.5q36 18.5 52 61t16 118.5v105h-168q-63 0 -99.5 -15.5t-52.5 -49t-16 -91.5q0 -57 16 -88.5t52 -45t100 -13.5t100 18.5zM231.5 702.5q-24.5 8.5 -35 29.5t-11.5 59h40q-8 -21 -8 -32 q0 -20 19 -28.5t63 -8.5q45 0 64.5 8.5t19.5 27.5q0 12 -8 33h40q-1 -38 -12 -59t-35.5 -29.5t-68.5 -8.5q-43 0 -67.5 8.5z" />
         <glyph glyph-name="uni04D3" unicode="ӓ" d="M154 1.5q-42 15.5 -60 53t-18 106.5q0 71 18 110t60.5 56.5t119.5 17.5h168v78q0 71 -16 111t-52 57t-100 17q-66 0 -99.5 -21.5t-51.5 -76.5l-29 8q15 46 36.5 70.5t55 34t88.5 9.5q78 0 120 -18t60 -62.5t18 -128.5v-272q0 -66 17.5 -94.5t60.5 -29.5v-27q-36 1 -56 10 t-30 29.5t-14 59.5q-18 -44 -39 -68t-53 -34.5t-84 -10.5q-78 0 -120 15.5zM374 32.5q36 18.5 52 61t16 118.5v105h-168q-63 0 -99.5 -15.5t-52.5 -49t-16 -91.5q0 -57 16 -88.5t52 -45t100 -13.5t100 18.5zM156 750.5q-9 8.5 -9 34.5q0 25 9 33t36 8t36 -8t9 -33 q0 -26 -9 -34.5t-36 -8.5t-36 8.5zM372 750.5q-9 8.5 -9 34.5q0 25 9 33t36 8t36 -8t9 -33q0 -26 -9 -34.5t-36 -8.5t-36 8.5z" />
         <glyph glyph-name="uni04D5" unicode="ӕ" d="M76 1.5q-29 15.5 -41.5 53t-12.5 107.5q0 71 15 110t50.5 56t100.5 17h96v75q0 71 -12 110.5t-39 56.5t-75 17q-41 0 -62 -21.5t-32 -75.5l-30 7q10 46 24.5 71.5t38 36t61.5 10.5q66 0 101.5 -30t44.5 -101q10 51 25.5 78.5t41.5 40t70 12.5q53 0 82 -28t41.5 -95.5 t13.5 -191.5h-264q-1 -117 11 -182t39.5 -93t76.5 -28q39 0 64.5 17.5t40.5 58.5l25 -16q-18 -50 -47.5 -69t-82.5 -19q-55 0 -88 29t-50 99q-9 -71 -44 -99.5t-101 -28.5q-53 0 -82 15.5zM548 345q0 101 -9.5 156t-32.5 79t-65 24q-49 0 -76.5 -24t-39.5 -79.5t-11 -155.5 h234zM233 32.5q27 18.5 39 61t12 118.5v105h-96q-76 0 -106 -35t-30 -120q0 -57 10 -88.5t33 -45.5t63 -14q48 0 75 18.5z" />
         <glyph glyph-name="uni04D7" unicode="ӗ" d="M398 31q37 17 72 60l24 -17q-39 -51 -79.5 -69.5t-111.5 -18.5q-87 0 -134.5 29t-67.5 98t-20 196t20 196t67.5 98t134.5 29q79 0 123 -28t63 -95.5t20 -191.5h-398q0 -117 18 -182t59 -93t115 -28q58 0 95 17zM191.5 580q-40.5 -24 -59.5 -79.5t-21 -155.5h367 q-4 100 -21.5 155.5t-54 79.5t-99.5 24q-71 0 -111.5 -24zM231.5 702.5q-24.5 8.5 -35 29.5t-11.5 59h40q-8 -21 -8 -32q0 -20 19 -28.5t63 -8.5q45 0 64.5 8.5t19.5 27.5q0 12 -8 33h40q-1 -38 -12 -59t-35.5 -29.5t-68.5 -8.5q-43 0 -67.5 8.5z" />
         <glyph glyph-name="uni04DD" unicode="ӝ" d="M244 309l-244 309h40l245 -309l-245 -309h-40zM285 618h30v-618h-30v618zM560 618h39l-245 -309l245 -309h-39l-245 309zM156 750.5q-9 8.5 -9 34.5q0 25 9 33t36 8t36 -8t9 -33q0 -26 -9 -34.5t-36 -8.5t-36 8.5zM372 750.5q-9 8.5 -9 34.5q0 25 9 33t36 8t36 -8t9 -33 q0 -26 -9 -34.5t-36 -8.5t-36 8.5z" />
         <glyph glyph-name="uni04DF" unicode="ӟ" d="M174.5 -2q-44.5 12 -64 40.5t-19.5 79.5h30q0 -41 16.5 -63t55 -31.5t107.5 -9.5t107.5 12t55 39.5t16.5 77.5q0 56 -14.5 88.5t-48.5 48t-96 19.5h-60v28h60q62 4 96 19t48.5 45.5t14.5 84.5q0 49 -16.5 76.5t-55 39.5t-107.5 12t-107.5 -9t-55 -30.5t-16.5 -59.5h-30 q0 49 19.5 76t64.5 39t125 12t125 -14.5t64.5 -48t19.5 -93.5q0 -66 -23 -101t-84 -62q61 -26 84 -63t23 -107q0 -61 -19.5 -94.5t-64.5 -48t-125 -14.5q-81 0 -125.5 12zM156 750.5q-9 8.5 -9 34.5q0 25 9 33t36 8t36 -8t9 -33q0 -26 -9 -34.5t-36 -8.5t-36 8.5zM372 750.5 q-9 8.5 -9 34.5q0 25 9 33t36 8t36 -8t9 -33q0 -26 -9 -34.5t-36 -8.5t-36 8.5z" />
         <glyph glyph-name="uni04E3" unicode="ӣ" d="M469 618h35v-618h-30v568l-343 -568h-35v618h30v-568zM427 733h-254v28h254v-28z" />
         <glyph glyph-name="uni04E5" unicode="ӥ" d="M469 618h35v-618h-30v568l-343 -568h-35v618h30v-568zM156 750.5q-9 8.5 -9 34.5q0 25 9 33t36 8t36 -8t9 -33q0 -26 -9 -34.5t-36 -8.5t-36 8.5zM372 750.5q-9 8.5 -9 34.5q0 25 9 33t36 8t36 -8t9 -33q0 -26 -9 -34.5t-36 -8.5t-36 8.5z" />
         <glyph glyph-name="uni04E7" unicode="ӧ" d="M176.5 15q-43.5 29 -62.5 98t-19 196t19 196t62.5 98t123.5 29t123.5 -29t62.5 -98t19 -196t-19 -196t-62.5 -98t-123.5 -29t-123.5 29zM404.5 41q37.5 27 54 90.5t16.5 177.5t-16.5 177.5t-54 90.5t-104.5 27t-104.5 -27t-54 -90.5t-16.5 -177.5t16.5 -177.5t54 -90.5 t104.5 -27t104.5 27zM156 750.5q-9 8.5 -9 34.5q0 25 9 33t36 8t36 -8t9 -33q0 -26 -9 -34.5t-36 -8.5t-36 8.5zM372 750.5q-9 8.5 -9 34.5q0 25 9 33t36 8t36 -8t9 -33q0 -26 -9 -34.5t-36 -8.5t-36 8.5z" />
         <glyph glyph-name="uni04ED" unicode="ӭ" d="M434 606q48 -26 68.5 -87t20.5 -170v-80q0 -109 -20.5 -170t-68.5 -87t-134 -26q-84 0 -125.5 21t-65.5 76h37q21 -39 54 -54t100 -15q75 0 116.5 23.5t59 78t17.5 153.5v26h-245v28h245v26q0 99 -17.5 153.5t-59 78t-116.5 23.5q-67 0 -101 -15t-55 -54h-35 q24 55 65.5 76t125.5 21q86 0 134 -26zM156 750.5q-9 8.5 -9 34.5q0 25 9 33t36 8t36 -8t9 -33q0 -26 -9 -34.5t-36 -8.5t-36 8.5zM372 750.5q-9 8.5 -9 34.5q0 25 9 33t36 8t36 -8t9 -33q0 -26 -9 -34.5t-36 -8.5t-36 8.5z" />
         <glyph glyph-name="uni04EF" unicode="ӯ" d="M92 -192q-17 4 -36 15l12 25q31 -16 66 -16q47 0 78 14.5t53.5 48t41.5 93.5l-195 630h31l181 -580l183 580h30l-198 -626q-23 -73 -49 -113.5t-63 -57.5t-93 -17q-25 0 -42 4zM457 733h-254v28h254v-28z" />
         <glyph glyph-name="uni04F1" unicode="ӱ" d="M92 -192q-17 4 -36 15l12 25q31 -16 66 -16q47 0 78 14.5t53.5 48t41.5 93.5l-195 630h31l181 -580l183 580h30l-198 -626q-23 -73 -49 -113.5t-63 -57.5t-93 -17q-25 0 -42 4zM186 750.5q-9 8.5 -9 34.5q0 25 9 33t36 8t36 -8t9 -33q0 -26 -9 -34.5t-36 -8.5t-36 8.5z M402 750.5q-9 8.5 -9 34.5q0 25 9 33t36 8t36 -8t9 -33q0 -26 -9 -34.5t-36 -8.5t-36 8.5z" />
         <glyph glyph-name="uni04F3" unicode="ӳ" d="M92 -192q-17 4 -36 15l12 25q31 -16 66 -16q47 0 78 14.5t53.5 48t41.5 93.5l-195 630h31l181 -580l183 580h30l-198 -626q-23 -73 -49 -113.5t-63 -57.5t-93 -17q-25 0 -42 4zM328 799l-120 -106l-20 21l120 106zM472 799l-120 -106l-20 21l120 106z" />
         <glyph glyph-name="uni04F5" unicode="ӵ" d="M456 241q-13 -54 -55 -76.5t-111 -22.5q-80 0 -120.5 19t-58.5 75t-18 171v211h30v-211q0 -102 15.5 -152t50 -67.5t101.5 -17.5q63 0 99 17.5t51.5 58t15.5 113.5v259h30v-618h-30v241zM156 750.5q-9 8.5 -9 34.5q0 25 9 33t36 8t36 -8t9 -33q0 -26 -9 -34.5t-36 -8.5 t-36 8.5zM372 750.5q-9 8.5 -9 34.5q0 25 9 33t36 8t36 -8t9 -33q0 -26 -9 -34.5t-36 -8.5t-36 8.5z" />
         <glyph glyph-name="uni04F9" unicode="ӹ" d="M238 376q73 0 113.5 -17.5t58 -57.5t17.5 -113t-17.5 -113t-58 -57.5t-113.5 -17.5h-169v618h30v-242h139zM501 0v618h30v-618h-30zM238 28q61 0 95 14.5t49 49t15 96.5t-15 96.5t-49 49t-95 14.5h-139v-320h139zM156 750.5q-9 8.5 -9 34.5q0 25 9 33t36 8t36 -8t9 -33 q0 -26 -9 -34.5t-36 -8.5t-36 8.5zM372 750.5q-9 8.5 -9 34.5q0 25 9 33t36 8t36 -8t9 -33q0 -26 -9 -34.5t-36 -8.5t-36 8.5z" />
         <glyph glyph-name="uni0432.loclBGR" d="M469 414.5q38 -23.5 54 -65t16 -113.5q0 -94 -19 -145.5t-63.5 -73.5t-126.5 -22q-100 0 -150.5 24.5t-69.5 80t-19 160.5v326q0 111 42.5 165t146.5 54q74 0 114.5 -16.5t57.5 -55.5t17 -111q0 -50 -9.5 -81t-32.5 -51.5t-66 -38.5q70 -13 108 -36.5zM158 727.5 q-37 -49.5 -37 -141.5v-119h179q53 4 83 20t43 48t13 87q0 59 -15 92.5t-49.5 48t-94.5 14.5q-85 0 -122 -49.5zM436.5 43q38.5 20 55.5 66t17 127q0 72 -19.5 114t-64.5 63t-125 26h-179v-207q0 -83 19.5 -127.5t64.5 -63t125 -18.5q68 0 106.5 20z" />
         <glyph glyph-name="uni0433.loclBGR" d="M148 28.5q-52 42.5 -51 111.5q-1 46 25.5 79.5t65.5 56.5t102 52q52 24 83 41.5t52 41t21 52.5q1 64 -45 102.5t-121 38.5q-58 0 -96.5 -38t-43.5 -99l-28 4q5 73 50.5 117t116.5 44q89 0 143 -47t53 -123q-1 -40 -25.5 -69.5t-59.5 -49t-94 -45.5q-57 -26 -91.5 -45.5 t-58 -47.5t-23.5 -66q3 -57 47 -91t114 -34t116.5 40.5t52.5 105.5l31 -3q-7 -77 -62 -124t-137 -47q-85 0 -137 42.5z" />
         <glyph glyph-name="uni0434.loclBGR" d="M218.5 -186.5q-28.5 9.5 -56.5 35.5l22 19q21 -19 47 -27.5t67 -8.5q65 0 101 18.5t52 62t16 120.5v127q-17 -60 -61.5 -85t-114.5 -25q-80 0 -123.5 29t-62.5 97t-19 194q0 103 18.5 159t62.5 79.5t124 23.5q68 0 112.5 -18t63.5 -62v66h30v-576q0 -94 -18 -144.5 t-60.5 -72t-120.5 -21.5q-51 0 -79.5 9.5zM419.5 119.5q47.5 41.5 47.5 137.5v250q0 54 -50 75.5t-126 21.5q-67 0 -104.5 -21.5t-54 -72t-16.5 -140.5q0 -112 16.5 -175t54 -90t104.5 -27q81 0 128.5 41.5z" />
         <glyph glyph-name="uni0436.loclBGR" d="M285 800h30v-800h-30v800zM244 309l-244 309h40l245 -309l-245 -309h-40zM560 618h39l-245 -309l245 -309h-39l-245 309z" />
         <glyph glyph-name="uni0437.loclBGR" d="M180.5 -179q-42.5 17 -61 56t-18.5 109h30q0 -60 15.5 -93t51.5 -47t102 -14t102 17.5t51.5 58t15.5 113.5q0 76 -13.5 118.5t-45.5 63t-90 24.5h-60v28h60q58 4 90 21.5t45.5 54t13.5 99.5q0 67 -15.5 104.5t-51.5 53.5t-102 16t-102 -12.5t-51.5 -41.5t-15.5 -81h-30 q0 63 18.5 98t61 50t119.5 15t119.5 -18.5t61 -62t18.5 -121.5q0 -82 -23 -122.5t-84 -66.5q41 -17 64 -43t33 -67.5t10 -109.5q0 -84 -18.5 -130.5t-61 -66.5t-119.5 -20t-119.5 17z" />
         <glyph glyph-name="uni0438.loclBGR" d="M176.5 5.5q-37.5 19.5 -53 65.5t-15.5 130v417h30v-417q0 -71 13.5 -111.5t44.5 -58t87 -17.5q72 0 113 15t59 49.5t18 95.5v444h30v-618h-30v74q-19 -34 -41.5 -53t-57.5 -27t-91 -8q-69 0 -106.5 19.5z" />
         <glyph glyph-name="uni0439.loclBGR" d="M176.5 5.5q-37.5 19.5 -53 65.5t-15.5 130v417h30v-417q0 -71 13.5 -111.5t44.5 -58t87 -17.5q72 0 113 15t59 49.5t18 95.5v444h30v-618h-30v74q-19 -34 -41.5 -53t-57.5 -27t-91 -8q-69 0 -106.5 19.5zM231.5 702.5q-24.5 8.5 -35 29.5t-11.5 59h40q-8 -21 -8 -32 q0 -20 19 -28.5t63 -8.5q45 0 64.5 8.5t19.5 27.5q0 12 -8 33h40q-1 -38 -12 -59t-35.5 -29.5t-68.5 -8.5q-43 0 -67.5 8.5z" />
         <glyph glyph-name="uni045D.loclBGR" d="M176.5 5.5q-37.5 19.5 -53 65.5t-15.5 130v417h30v-417q0 -71 13.5 -111.5t44.5 -58t87 -17.5q72 0 113 15t59 49.5t18 95.5v444h30v-618h-30v74q-19 -34 -41.5 -53t-57.5 -27t-91 -8q-69 0 -106.5 19.5zM329 714l-20 -21l-120 106l20 21z" />
         <glyph glyph-name="uni043A.loclBGR" d="M166 0h-30v800h30v-455h67l201 273h36l-209 -285l249 -333h-36l-237 317h-71v-317z" />
         <glyph glyph-name="uni043B.loclBGR" d="M96 0h-31l213 618h44l213 -618h-31l-204 590z" />
         <glyph glyph-name="uni043F.loclBGR" d="M108 0v618h30v-79q29 52 69 72.5t121 20.5q68 0 105.5 -20.5t53.5 -67.5t16 -132v-412h-30v412q0 74 -13 115.5t-44.5 59t-87.5 17.5q-73 0 -113.5 -15t-58.5 -53.5t-18 -112.5v-423h-30z" />
         <glyph glyph-name="uni0442.loclBGR" d="M68 0v618h30v-77q18 52 42.5 71t71.5 19q38 0 57.5 -22.5t32.5 -83.5q25 61 52.5 83.5t74.5 22.5q40 0 62 -20t31.5 -66.5t9.5 -129.5v-415h-30v415q0 69 -7.5 107.5t-24.5 55t-47 16.5q-42 0 -65 -17t-33 -56.5t-10 -111.5v-409h-30v409q0 72 -7.5 111.5t-24 56.5 t-47.5 17q-41 0 -64.5 -17t-33.5 -57t-10 -111v-409h-30z" />
         <glyph glyph-name="uni0446.loclBGR" d="M497 28h22v-146h-30v118h-22v74q-19 -34 -41.5 -53t-57.5 -27t-91 -8q-69 0 -106.5 19.5t-53 65.5t-15.5 130v417h30v-417q0 -71 13.5 -111.5t44.5 -58t87 -17.5q72 0 113 15t59 49.5t18 95.5v444h30v-590z" />
         <glyph glyph-name="uni0448.loclBGR" d="M532 618v-618h-30v77q-18 -52 -42.5 -71t-71.5 -19q-38 0 -57.5 22.5t-32.5 83.5q-25 -61 -52.5 -83.5t-74.5 -22.5q-40 0 -62 20t-31.5 66.5t-9.5 129.5v415h30v-415q0 -69 7.5 -107.5t24.5 -55t47 -16.5q42 0 65 17t33 56.5t10 111.5v409h30v-409q0 -72 7.5 -111.5 t24 -56.5t47.5 -17q41 0 64.5 17t33.5 57t10 111v409h30z" />
         <glyph glyph-name="uni0449.loclBGR" d="M530 28h24v-146h-30v118h-24v77q-17 -52 -41.5 -71t-72.5 -19q-38 0 -57 22.5t-32 83.5q-25 -60 -52.5 -83t-74.5 -23q-40 0 -62 20t-31.5 66.5t-9.5 129.5v415h30v-415q0 -69 7.5 -107.5t24.5 -55t47 -16.5q41 0 64.5 17t33.5 57t10 111v409h30v-409q0 -72 7 -111.5 t24 -56.5t47 -17q42 0 65 17t33 56.5t10 111.5v409h30v-590z" />
         <glyph glyph-name="uni044C.loclBGR" d="M197 4q-44 18 -62.5 59.5t-18.5 116.5v438h30v-341q31 57 68 78t107 21q80 0 124 -18t62.5 -59.5t18.5 -117.5t-18.5 -117.5t-62.5 -59.5t-124 -18t-124 18zM426.5 29.5q37.5 15.5 53.5 51t16 100.5t-16 100.5t-53.5 51t-105.5 15.5t-105.5 -15.5t-53.5 -51.5t-16 -101 q0 -64 16 -99.5t53.5 -51t105.5 -15.5t105.5 15.5z" />
         <glyph glyph-name="uni044A.loclBGR" d="M461 358q44 -18 62.5 -59.5t18.5 -117.5t-18.5 -117.5t-62.5 -59.5t-124 -18t-124 18t-62.5 59.5t-18.5 116.5v410h-101v28h131v-341q31 57 68 78t107 21q80 0 124 -18zM442.5 29.5q37.5 15.5 53.5 51t16 100.5t-16 100.5t-53.5 51t-105.5 15.5t-105.5 -15.5t-53.5 -51.5 t-16 -101q0 -64 16 -99.5t53.5 -51t105.5 -15.5t105.5 15.5z" />
         <glyph glyph-name="uni044E.loclBGR" d="M500 606q40 -26 57 -86.5t17 -170.5v-80q0 -110 -17 -170.5t-57 -86.5t-113 -26t-113 26t-57 86.5t-17 170.5v26h-125v-295h-30v800h30v-477h125v26q0 110 17 170.5t57 86.5t113 26t113 -26zM544 349q0 99 -14.5 153.5t-48 78t-94.5 23.5t-94.5 -23.5t-48 -78 t-14.5 -153.5v-80q0 -99 14.5 -153.5t48 -78t94.5 -23.5t94.5 23.5t48 78t14.5 153.5v80z" />
         <glyph glyph-name="uni0431.loclSRB" d="M423 468.5q44 -23.5 63 -77.5t19 -152t-19 -152t-63 -77.5t-123 -23.5t-123 23.5t-63 77.5t-19 152q0 106 22.5 161.5t77.5 76.5q-40 17 -63 58t-23 98q0 64 49 103.5t129 39.5q73 0 120.5 6.5t52.5 17.5l21 -24q-17 -13 -70 -20.5t-124 -7.5q-67 0 -107.5 -31.5 t-40.5 -83.5q0 -61 36 -99.5t95 -42.5q10 1 30 1q79 0 123 -23.5zM405.5 34.5q37.5 20.5 53.5 69t16 135.5t-16 135.5t-53.5 69t-105.5 20.5t-105.5 -20.5t-53.5 -69t-16 -135.5t16 -135.5t53.5 -69t105.5 -20.5t105.5 20.5z" />
         <glyph glyph-name="uni0433.loclSRB" d="M113 618h404v-28h-374v-590h-30v618z" />
         <glyph glyph-name="uni0434.loclSRB" d="M512 28h50v-116h-30v88h-464v-88h-30v116h31q47 35 76 106t47 186t31 298h289v-590zM482 28v562h-233q-16 -237 -50.5 -372.5t-91.5 -189.5h375z" />
         <glyph glyph-name="uni043F.loclSRB" d="M106 0h-30v618h448v-618h-30v590h-388v-590z" />
         <glyph glyph-name="uni0442.loclSRB" d="M558 618v-28h-243v-590h-30v590h-243v28h516z" />
         <glyph glyph-name="uni0448.loclSRB" d="M549 0h-498v618h30v-590h204v590h30v-590h204v590h30v-618z" />
         <glyph glyph-name="Alpha" unicode="Α" d="M540 0h-32l-61 225h-294l-61 -225h-32l222 800h36zM300 763l-139 -510h278z" />
         <glyph glyph-name="Beta" unicode="Β" d="M104 0v800h180q80 0 124 -17.5t62.5 -59t18.5 -117.5q0 -56 -10.5 -90t-35 -54.5t-70.5 -34.5q55 -12 85.5 -35t43 -63t12.5 -109q0 -87 -18.5 -134t-62.5 -66.5t-124 -19.5h-205zM284 437q66 0 104 16.5t54.5 53t16.5 99.5q0 64 -16.5 100t-54 51t-104.5 15h-150v-335 h150zM309 28q67 0 104.5 18t54 59t16.5 115q0 70 -16.5 111t-54.5 59.5t-104 18.5h-175v-381h175z" />
         <glyph glyph-name="Gamma" unicode="Γ" d="M113 800h404v-28h-374v-772h-30v800z" />
         <glyph glyph-name="uni0394" unicode="Δ" d="M535 0h-470l214 800h42zM300 763l-198 -735h396z" />
         <glyph glyph-name="Epsilon" unicode="Ε" d="M516 800v-28h-374v-335h240v-28h-240v-381h374v-28h-404v800h404z" />
         <glyph glyph-name="Zeta" unicode="Ζ" d="M529 0h-460v29l430 743h-428v28h460v-30l-430 -742h428v-28z" />
         <glyph glyph-name="Eta" unicode="Η" d="M476 437v363h30v-800h-30v409h-352v-409h-30v800h30v-363h352z" />
         <glyph glyph-name="Theta" unicode="Θ" d="M165.5 19.5q-47.5 33.5 -68 113.5t-20.5 227v80q0 147 20.5 227t68 113.5t134.5 33.5t134.5 -33.5t68 -113.5t20.5 -227v-80q0 -147 -20.5 -227t-68 -113.5t-134.5 -33.5t-134.5 33.5zM415.5 46q41.5 32 59.5 106t18 208v80q0 134 -18 208t-59.5 106t-115.5 32 q-75 0 -116.5 -32t-59.5 -106t-17 -208v-80q1 -134 19 -208t59 -106t115 -32t115.5 32zM435 386h-270v28h270v-28z" />
         <glyph glyph-name="Iota" unicode="Ι" d="M477 800v-28h-162v-744h162v-28h-354v28h162v744h-162v28h354z" />
         <glyph glyph-name="Kappa" unicode="Κ" d="M542 0h-38l-295 409h-79v-409h-30v800h30v-363h76l291 363h37l-301 -376z" />
         <glyph glyph-name="Lambda" unicode="Λ" d="M94 0h-29l213 800h44l213 -800h-29l-206 765z" />
         <glyph glyph-name="Mu" unicode="Μ" d="M100 0h-30l14 800h34l182 -494l182 494h34l14 -800h-30l-13 727l-169 -456h-36l-169 456z" />
         <glyph glyph-name="Nu" unicode="Ν" d="M474 64v736h30v-800h-33l-345 736v-736h-30v800h33z" />
         <glyph glyph-name="Xi" unicode="Ξ" d="M540 772h-480v28h480v-28zM470 386h-340v28h340v-28zM540 0h-480v28h480v-28z" />
         <glyph glyph-name="Omicron" unicode="Ο" d="M165.5 19.5q-47.5 33.5 -68 113.5t-20.5 227v80q0 147 20.5 227t68 113.5t134.5 33.5t134.5 -33.5t68 -113.5t20.5 -227v-80q0 -147 -20.5 -227t-68 -113.5t-134.5 -33.5t-134.5 33.5zM415.5 46q41.5 32 59.5 106t18 208v80q0 134 -18 208t-59.5 106t-115.5 32 q-75 0 -116.5 -32t-59.5 -106t-17 -208v-80q1 -134 19 -208t59 -106t115 -32t115.5 32z" />
         <glyph glyph-name="Pi" unicode="Π" d="M106 0h-30v800h448v-800h-30v772h-388v-772z" />
         <glyph glyph-name="Rho" unicode="Ρ" d="M320 800q80 0 124 -19.5t62.5 -66t18.5 -132.5q0 -84 -18.5 -130.5t-62.5 -67t-124 -20.5h-174v-364h-30v800h204zM320 392q66 0 104 18.5t54.5 59.5t16.5 112q0 73 -16.5 114t-54 58.5t-104.5 17.5h-174v-380h174z" />
         <glyph glyph-name="Sigma" unicode="Σ" d="M540 0h-470v34l242 366l-242 366v34h470v-28h-442l246 -372l-246 -372h442v-28z" />
         <glyph glyph-name="Tau" unicode="Τ" d="M558 800v-28h-243v-772h-30v772h-243v28h516z" />
         <glyph glyph-name="Upsilon" unicode="Υ" d="M315 0h-30v314l-228 486h34l209 -449l209 449h34l-228 -486v-314z" />
         <glyph glyph-name="Phi" unicode="Φ" d="M562 230.5q-25 -61.5 -83.5 -88.5t-163.5 -29v-113h-30v113q-105 2 -163.5 29t-83.5 88.5t-25 170.5t25 170t83.5 88t163.5 29v112h30v-112q105 -2 163.5 -29t83.5 -88.5t25 -169.5q0 -109 -25 -170.5zM315 141q93 2 145 26.5t74.5 80t22.5 153.5t-22.5 153t-74.5 79.5 t-145 26.5v-519zM65.5 247.5q22.5 -55.5 74 -80t145.5 -26.5v519q-94 -2 -145.5 -26.5t-74 -79.5t-22.5 -153t22.5 -153.5z" />
         <glyph glyph-name="Chi" unicode="Χ" d="M490 800h33l-206 -400l206 -400h-33l-190 368l-190 -368h-33l207 400l-207 400h33l190 -368z" />
         <glyph glyph-name="Psi" unicode="Ψ" d="M534 800h30v-288q0 -100 -23 -156t-76.5 -81t-149.5 -27v-248h-30v248q-96 2 -149.5 27t-76.5 81t-23 156v288h30v-288q0 -89 20.5 -139t67.5 -72.5t131 -24.5v524h30v-524q84 2 131 24.5t67.5 72.5t20.5 139v288z" />
         <glyph glyph-name="uni03A9" unicode="Ω" d="M33 0v28h111q-28 28 -43.5 65.5t-22 99.5t-6.5 167v80q0 147 20.5 227t69 113.5t136.5 33.5q89 0 138 -33.5t69.5 -113.5t20.5 -227v-80q0 -105 -6.5 -167.5t-21.5 -100t-42 -64.5h111v-28h-200v27q48 -1 76 32t40.5 105.5t12.5 195.5v80q0 134 -18 208t-60.5 106 t-119.5 32q-76 0 -118 -32t-60 -106t-18 -208v-80q0 -123 12.5 -195.5t41 -105.5t77.5 -32v-27h-200z" />
         <glyph glyph-name="Alphatonos" unicode="Ά" d="M540 0h-32l-61 225h-294l-61 -225h-32l222 800h36zM300 763l-139 -510h278zM230 779l-120 -106l-20 21l120 106z" />
         <glyph glyph-name="Epsilontonos" unicode="Έ" d="M516 800v-28h-374v-335h240v-28h-240v-381h374v-28h-404v800h404zM67 779l-120 -106l-20 21l120 106z" />
         <glyph glyph-name="Etatonos" unicode="Ή" d="M476 437v363h30v-800h-30v409h-352v-409h-30v800h30v-363h352zM46 779l-120 -106l-20 21l120 106z" />
         <glyph glyph-name="Iotatonos" unicode="Ί" d="M477 800v-28h-162v-744h162v-28h-354v28h162v744h-162v28h354zM71 779l-120 -106l-20 21l120 106z" />
         <glyph glyph-name="Omicrontonos" unicode="Ό" d="M165.5 19.5q-47.5 33.5 -68 113.5t-20.5 227v80q0 147 20.5 227t68 113.5t134.5 33.5t134.5 -33.5t68 -113.5t20.5 -227v-80q0 -147 -20.5 -227t-68 -113.5t-134.5 -33.5t-134.5 33.5zM415.5 46q41.5 32 59.5 106t18 208v80q0 134 -18 208t-59.5 106t-115.5 32 q-75 0 -116.5 -32t-59.5 -106t-17 -208v-80q1 -134 19 -208t59 -106t115 -32t115.5 32zM69 779l-120 -106l-20 21l120 106z" />
         <glyph glyph-name="Upsilontonos" unicode="Ύ" d="M315 0h-30v314l-228 486h34l209 -449l209 449h34l-228 -486v-314zM-31 779l-120 -106l-20 21l120 106z" />
         <glyph glyph-name="Omegatonos" unicode="Ώ" d="M33 0v28h111q-28 28 -43.5 65.5t-22 99.5t-6.5 167v80q0 147 20.5 227t69 113.5t136.5 33.5q89 0 138 -33.5t69.5 -113.5t20.5 -227v-80q0 -105 -6.5 -167.5t-21.5 -100t-42 -64.5h111v-28h-200v27q48 -1 76 32t40.5 105.5t12.5 195.5v80q0 134 -18 208t-60.5 106 t-119.5 32q-76 0 -118 -32t-60 -106t-18 -208v-80q0 -123 12.5 -195.5t41 -105.5t77.5 -32v-27h-200zM69 779l-120 -106l-20 21l120 106z" />
         <glyph glyph-name="Iotadieresis" unicode="Ϊ" d="M477 800v-28h-162v-744h162v-28h-354v28h162v744h-162v28h354zM156 935.5q-9 8.5 -9 34.5q0 25 9 33t36 8t36 -8t9 -33q0 -26 -9 -34.5t-36 -8.5t-36 8.5zM372 935.5q-9 8.5 -9 34.5q0 25 9 33t36 8t36 -8t9 -33q0 -26 -9 -34.5t-36 -8.5t-36 8.5z" />
         <glyph glyph-name="Upsilondieresis" unicode="Ϋ" d="M315 0h-30v314l-228 486h34l209 -449l209 449h34l-228 -486v-314zM156 935.5q-9 8.5 -9 34.5q0 25 9 33t36 8t36 -8t9 -33q0 -26 -9 -34.5t-36 -8.5t-36 8.5zM372 935.5q-9 8.5 -9 34.5q0 25 9 33t36 8t36 -8t9 -33q0 -26 -9 -34.5t-36 -8.5t-36 8.5z" />
         <glyph glyph-name="uni03CF" unicode="Ϗ" d="M534 800l-301 -376l309 -424l-78 -111h-38l78 111l-295 409h-79v-409h-30v800h30v-363h76l291 363h37z" />
         <glyph glyph-name="alpha" unicode="α" d="M475 63q18 -43 55 -43v-20q-41 0 -65.5 31.5t-37.5 88.5q-27 -71 -67.5 -102.5t-99.5 -31.5q-68 0 -105 28t-53 94.5t-16 189.5q0 121 32 196t80.5 106.5t99.5 31.5q56 0 85 -51t39 -119t19 -191q21 125 29 347h30q-15 -292 -52 -431q9 -81 27 -124zM354.5 50.5 q38.5 36.5 63.5 118.5q-6 38 -9.5 85.5t-4.5 61.5q-6 95 -14 152t-29.5 96t-62.5 39q-45 0 -86 -29.5t-68.5 -97.5t-27.5 -178t13 -171t44 -87t87 -26t94.5 36.5z" />
         <glyph glyph-name="beta" unicode="β" d="M469 414.5q38 -23.5 54 -65t16 -113.5q0 -94 -19 -145.5t-63.5 -73.5t-126.5 -22q-85 0 -135 25t-74 77v-235h-30v760q0 72 17 111t57.5 55.5t114.5 16.5t114.5 -16.5t57.5 -55.5t17 -111q0 -50 -9.5 -81t-32.5 -51.5t-66 -38.5q70 -13 108 -36.5zM436.5 43 q38.5 20 55.5 66t17 127q0 72 -19.5 114t-64.5 63t-125 26h-80v28h80q53 4 83 20t43 48t13 87q0 59 -15 92.5t-49.5 48t-94.5 14.5t-94.5 -14.5t-49.5 -48t-15 -92.5v-382q0 -83 20 -130t65 -67t124 -20q68 0 106.5 20z" />
         <glyph glyph-name="gamma" unicode="γ" d="M497.5 340.5q-17.5 -62.5 -60 -139.5t-126.5 -201v-182h-30v182l-226 618h30l215 -583q73 109 113 183t56 133.5t16 123.5q0 47 -8 78t-29 65h34q18 -36 25.5 -67t7.5 -76q0 -72 -17.5 -134.5z" />
         <glyph glyph-name="delta" unicode="δ" d="M505 269q0 -112 -18.5 -172.5t-62.5 -85.5t-124 -25t-124 25t-62.5 85.5t-18.5 172.5t18.5 172.5t62.5 85.5t124 25q50 0 79 -8q-35 29 -102 64q-59 31 -87 55.5t-28 61.5q0 40 38.5 64.5t102.5 24.5q36 0 75 -6t72 -17l-12 -26q-34 10 -71 15.5t-64 5.5q-50 0 -80.5 -17 t-30.5 -44q0 -28 24.5 -47.5t78.5 -49.5q62 -34 103 -64.5t71.5 -81.5t32.5 -125q3 -39 3 -88zM404.5 37.5q37.5 23.5 54 78t16.5 153.5t-16.5 153.5t-54 78t-104.5 23.5t-104.5 -23.5t-54 -78t-16.5 -153.5t16.5 -153.5t54 -78t104.5 -23.5t104.5 23.5z" />
         <glyph glyph-name="epsilon" unicode="ε" d="M174 0.5q-45 14.5 -64 48t-19 94.5q0 70 23 107t84 63q-61 27 -84 62t-23 101q0 60 19 93.5t64 48t126 14.5q80 0 125 -12t64.5 -39t19.5 -76h-30q0 38 -16.5 59.5t-55 30.5t-107.5 9t-107.5 -12t-55 -39.5t-16.5 -76.5q0 -54 14.5 -84.5t48.5 -45.5t95 -19h61v-28h-61 q-61 -4 -95 -19.5t-48.5 -48t-14.5 -88.5q0 -50 16.5 -77.5t55 -39.5t107.5 -12t107.5 9.5t55 31.5t16.5 63h30q0 -51 -19.5 -79.5t-64 -40.5t-125.5 -12t-126 14.5z" />
         <glyph glyph-name="zeta" unicode="ζ" d="M169.5 163.5q35.5 -48.5 86 -74.5t128.5 -54q54 -20 84 -34t50 -34.5t20 -50.5q0 -24 -15.5 -50.5t-41.5 -47.5l-17 22q21 18 32.5 38t11.5 38q0 32 -32.5 51t-103.5 45q-82 29 -136 57t-93 81.5t-39 137.5t42.5 175.5t120 173t178.5 135.5h-285v28h344v-28 q-103 -50 -187.5 -130t-133.5 -173t-49 -181q0 -76 35.5 -124.5z" />
         <glyph glyph-name="eta" unicode="η" d="M451 613.5q32 -20.5 42 -66t10 -135.5v-594h-30v594q0 74 -11 115t-40 60t-84 19q-70 0 -107.5 -13.5t-55 -52.5t-17.5 -117v-423h-30v526q0 35 -2 47t-12 16.5t-38 4.5v24q28 0 44 -3t27 -16t11 -41q32 45 75.5 60.5t118.5 15.5q67 0 99 -20.5z" />
         <glyph glyph-name="theta" unicode="θ" d="M413 762.5q51 -51.5 80.5 -145.5t29.5 -217t-29.5 -217t-80.5 -145.5t-113 -51.5t-113 51.5t-80.5 145.5t-29.5 217t29.5 217t80.5 145.5t113 51.5t113 -51.5zM203.5 740q-43.5 -46 -69.5 -130.5t-27 -195.5h386q-1 111 -27 195.5t-69.5 130.5t-96.5 46t-96.5 -46z M396.5 60q43.5 46 69.5 130.5t27 195.5h-386q1 -111 27 -195.5t69.5 -130.5t96.5 -46t96.5 46z" />
         <glyph glyph-name="iota" unicode="ι" d="M277.5 6.5q-30.5 20.5 -43.5 68.5t-13 135v408h30v-408q0 -76 10 -118t34 -60t68 -18q24 0 41.5 6.5t40.5 25.5l18 -27q-35 -19 -56.5 -26t-43.5 -7q-55 0 -85.5 20.5z" />
         <glyph glyph-name="kappa" unicode="κ" d="M136 0v618h30v-273h67q36 19 57.5 52.5t45.5 89.5q19 45 34 70.5t39.5 43t60.5 17.5v-28q-30 0 -50.5 -15.5t-33.5 -39t-30 -65.5q-22 -53 -41.5 -85.5t-53.5 -51.5l249 -333h-36l-237 317h-71v-317h-30z" />
         <glyph glyph-name="lambda" unicode="λ" d="M560 28v-28h-40q-59 0 -99 55.5t-63.5 135t-53.5 213.5l-20 88l-199 -492h-30l217 541q-29 110 -65.5 170.5t-92.5 60.5h-34v28h40q58 0 97 -54.5t63 -133t53 -210.5q29 -127 50.5 -200t56.5 -123.5t86 -50.5h34z" />
         <glyph glyph-name="uni03BC" unicode="μ" d="M95 -182v800h30v-453q4 -84 38.5 -117.5t111.5 -33.5q39 0 84.5 18t77.5 56t32 94v436h30v-618h-30v102q-18 -58 -72.5 -87t-121.5 -29q-55 0 -91.5 11t-58.5 35v-214h-30z" />
         <glyph glyph-name="nu" unicode="ν" d="M482 618q18 -36 25.5 -67t7.5 -76q0 -72 -17.5 -134.5t-60.5 -140t-126 -200.5h-30l-226 618h30l215 -583q73 109 113 183t56 133.5t16 123.5q0 47 -8 78t-29 65h34z" />
         <glyph glyph-name="xi" unicode="ξ" d="M157 190.5q23 -23.5 58 -38.5t95 -35q74 -24 119 -45.5t77 -59t32 -96.5q0 -28 -12.5 -49.5t-44.5 -48.5l-18 22q25 22 35 38.5t10 37.5q0 49 -28.5 81.5t-69.5 51.5t-111 43q-64 21 -103 38.5t-65.5 46.5t-26.5 72q0 56 27.5 94.5t91 68.5t174.5 57q-90 5 -141.5 19.5 t-74 41.5t-22.5 70q0 42 22 72t71.5 54t134.5 46h-227v28h344v-29q-122 -25 -189.5 -48.5t-96.5 -52t-29 -70.5q0 -40 29 -62.5t97 -32.5t189 -10v-30q-143 -30 -222.5 -59.5t-113.5 -66.5t-34 -90q0 -35 23 -58.5z" />
         <glyph glyph-name="omicron" unicode="ο" d="M176.5 15q-43.5 29 -62.5 98t-19 196t19 196t62.5 98t123.5 29t123.5 -29t62.5 -98t19 -196t-19 -196t-62.5 -98t-123.5 -29t-123.5 29zM404.5 41q37.5 27 54 90.5t16.5 177.5t-16.5 177.5t-54 90.5t-104.5 27t-104.5 -27t-54 -90.5t-16.5 -177.5t16.5 -177.5t54 -90.5 t104.5 -27t104.5 27z" />
         <glyph glyph-name="pi" unicode="π" d="M539 590h-103v-463q0 -54 23.5 -76.5t79.5 -22.5v-28q-70 2 -101.5 31.5t-31.5 95.5v463h-225v-590h-30v590h-100v28h488v-28z" />
         <glyph glyph-name="rho" unicode="ρ" d="M423.5 603q43.5 -29 62.5 -98t19 -196t-19 -196t-62.5 -98t-123.5 -29q-127 0 -175 122v-290h-30v491q0 127 19 196t62.5 98t123.5 29t123.5 -29zM404.5 41q37.5 27 54 90.5t16.5 177.5t-16.5 177.5t-54 90.5t-104.5 27t-104.5 -27t-54 -90.5t-16.5 -177.5t16.5 -177.5 t54 -90.5t104.5 -27t104.5 27z" />
         <glyph glyph-name="uni03C2" unicode="ς" d="M367 -165q26 36 36 58t10 45q0 52 -22.5 85.5t-56 53.5t-90.5 44q-65 28 -103 51.5t-65 67.5t-27 114q0 108 25.5 167.5t84.5 85t166 25.5q91 0 141 -19.5t71.5 -65t21.5 -128.5h-30q0 72 -19 111.5t-62.5 56.5t-122.5 17q-95 0 -147.5 -23t-75.5 -76.5t-23 -150.5 q0 -62 25 -101t61 -61t97 -48q60 -26 96 -47.5t60.5 -60t24.5 -98.5q0 -28 -11 -53.5t-41 -66.5z" />
         <glyph glyph-name="sigma" unicode="σ" d="M570 632v-28h-135q38 -28 54 -95t16 -200q0 -127 -19 -196t-62.5 -98t-123.5 -29t-123.5 29t-62.5 98t-19 196t19 196t62.5 98t123.5 29h270zM458.5 486.5q-16.5 63.5 -54 90.5t-104.5 27t-104.5 -27t-54 -90.5t-16.5 -177.5t16.5 -177.5t54 -90.5t104.5 -27t104.5 27 t54 90.5t16.5 177.5t-16.5 177.5z" />
         <glyph glyph-name="tau" unicode="τ" d="M512 590h-217v-380q0 -76 10 -118t34 -60t68 -18q24 0 41.5 6.5t40.5 25.5l18 -27q-35 -19 -56.5 -26t-43.5 -7q-55 0 -85.5 20.5t-43.5 68.5t-13 135v380h-203v28h450v-28z" />
         <glyph glyph-name="upsilon" unicode="υ" d="M167.5 16q-46.5 30 -66.5 102.5t-20 205.5v294h30v-294q0 -120 17.5 -186.5t58 -95t113.5 -28.5t113.5 28.5t58 95t17.5 186.5q0 108 -15.5 177t-49.5 117h33q35 -50 48.5 -114t13.5 -180q0 -133 -20 -205.5t-66.5 -102.5t-132.5 -30t-132.5 30z" />
         <glyph glyph-name="phi" unicode="φ" d="M486.5 119.5q-18.5 -68.5 -62 -99.5t-121.5 -34q-1 -52 -1 -168h-30q0 116 1 168q-69 3 -107.5 34t-54.5 99.5t-16 189.5q0 90 18 161t50.5 113t75.5 47v-27q-34 -6 -59.5 -45.5t-40 -104t-14.5 -144.5q0 -108 13.5 -170.5t45.5 -92t89 -32.5q2 237 13 369t35 190.5 t68 58.5q45 0 70 -29t35.5 -98.5t10.5 -195.5q0 -121 -18.5 -189.5zM405.5 46q37.5 29 53.5 92t16 171q0 117 -7 179.5t-24 89t-49 26.5q-33 0 -52 -55t-28.5 -182t-11.5 -353q65 3 102.5 32z" />
         <glyph glyph-name="chi" unicode="χ" d="M560 -154v-28h-40q-57 0 -96 51.5t-64 130t-51 199.5l-211 -381h-33l234 423q-25 114 -47 185t-55.5 117.5t-82.5 46.5h-34v28h40q53 0 90 -45.5t61 -116.5t49 -178l188 340h33l-211 -382q30 -134 51.5 -209t57 -128t87.5 -53h34z" />
         <glyph glyph-name="psi" unicode="ψ" d="M541 174q-23 -56 -76.5 -81t-149.5 -27v-248h-30v248q-96 2 -149.5 27t-76.5 81t-23 156v188h30v-188q0 -89 20.5 -139t67.5 -72.5t131 -24.5v524h30v-524q84 2 131 24.5t67.5 72.5t20.5 139q0 71 -8.5 112t-31.5 76h30q23 -35 31.5 -76t8.5 -112q0 -100 -23 -156z" />
         <glyph glyph-name="omega" unicode="ω" d="M501 618q28 -41 45 -122t17 -172q0 -131 -13 -203.5t-43 -103.5t-83 -31q-51 0 -80.5 28.5t-43.5 95.5q-14 -67 -43.5 -95.5t-80.5 -28.5q-53 0 -83 31t-43 103.5t-13 203.5q0 91 17 172t45 122h31q-28 -43 -45.5 -124t-17.5 -170q0 -120 10 -186.5t33.5 -95t65.5 -28.5 t65.5 27.5t33.5 92.5t10 181h30q0 -116 10 -181t33.5 -92.5t65.5 -27.5t65.5 28.5t33.5 95t10 186.5q0 89 -17.5 170t-45.5 124h31z" />
         <glyph glyph-name="iotatonos" unicode="ί" d="M277.5 6.5q-30.5 20.5 -43.5 68.5t-13 135v408h30v-408q0 -76 10 -118t34 -60t68 -18q24 0 41.5 6.5t40.5 25.5l18 -27q-35 -19 -56.5 -26t-43.5 -7q-55 0 -85.5 20.5zM304 799l-120 -106l-20 21l120 106z" />
         <glyph glyph-name="iotadieresis" unicode="ϊ" d="M277.5 6.5q-30.5 20.5 -43.5 68.5t-13 135v408h30v-408q0 -76 10 -118t34 -60t68 -18q24 0 41.5 6.5t40.5 25.5l18 -27q-35 -19 -56.5 -26t-43.5 -7q-55 0 -85.5 20.5zM90 750.5q-9 8.5 -9 34.5q0 25 9 33t36 8t36 -8t9 -33q0 -26 -9 -34.5t-36 -8.5t-36 8.5zM306 750.5 q-9 8.5 -9 34.5q0 25 9 33t36 8t36 -8t9 -33q0 -26 -9 -34.5t-36 -8.5t-36 8.5z" />
         <glyph glyph-name="iotadieresistonos" unicode="ΐ" d="M277.5 6.5q-30.5 20.5 -43.5 68.5t-13 135v408h30v-408q0 -76 10 -118t34 -60t68 -18q24 0 41.5 6.5t40.5 25.5l18 -27q-35 -19 -56.5 -26t-43.5 -7q-55 0 -85.5 20.5zM305 849l-120 -106l-20 21l120 106zM60 721.5q-9 8.5 -9 34.5q0 25 9 33t36 8t36 -8t9 -33 q0 -26 -9 -34.5t-36 -8.5t-36 8.5zM336 721.5q-9 8.5 -9 34.5q0 25 9 33t36 8t36 -8t9 -33q0 -26 -9 -34.5t-36 -8.5t-36 8.5z" />
         <glyph glyph-name="upsilontonos" unicode="ύ" d="M167.5 16q-46.5 30 -66.5 102.5t-20 205.5v294h30v-294q0 -120 17.5 -186.5t58 -95t113.5 -28.5t113.5 28.5t58 95t17.5 186.5q0 108 -15.5 177t-49.5 117h33q35 -50 48.5 -114t13.5 -180q0 -133 -20 -205.5t-66.5 -102.5t-132.5 -30t-132.5 30zM360 799l-120 -106 l-20 21l120 106z" />
         <glyph glyph-name="upsilondieresis" unicode="ϋ" d="M167.5 16q-46.5 30 -66.5 102.5t-20 205.5v294h30v-294q0 -120 17.5 -186.5t58 -95t113.5 -28.5t113.5 28.5t58 95t17.5 186.5q0 108 -15.5 177t-49.5 117h33q35 -50 48.5 -114t13.5 -180q0 -133 -20 -205.5t-66.5 -102.5t-132.5 -30t-132.5 30zM146 750.5 q-9 8.5 -9 34.5q0 25 9 33t36 8t36 -8t9 -33q0 -26 -9 -34.5t-36 -8.5t-36 8.5zM362 750.5q-9 8.5 -9 34.5q0 25 9 33t36 8t36 -8t9 -33q0 -26 -9 -34.5t-36 -8.5t-36 8.5z" />
         <glyph glyph-name="upsilondieresistonos" unicode="ΰ" d="M167.5 16q-46.5 30 -66.5 102.5t-20 205.5v294h30v-294q0 -120 17.5 -186.5t58 -95t113.5 -28.5t113.5 28.5t58 95t17.5 186.5q0 108 -15.5 177t-49.5 117h33q35 -50 48.5 -114t13.5 -180q0 -133 -20 -205.5t-66.5 -102.5t-132.5 -30t-132.5 30zM361 849l-120 -106 l-20 21l120 106zM116 721.5q-9 8.5 -9 34.5q0 25 9 33t36 8t36 -8t9 -33q0 -26 -9 -34.5t-36 -8.5t-36 8.5zM392 721.5q-9 8.5 -9 34.5q0 25 9 33t36 8t36 -8t9 -33q0 -26 -9 -34.5t-36 -8.5t-36 8.5z" />
         <glyph glyph-name="omicrontonos" unicode="ό" d="M176.5 15q-43.5 29 -62.5 98t-19 196t19 196t62.5 98t123.5 29t123.5 -29t62.5 -98t19 -196t-19 -196t-62.5 -98t-123.5 -29t-123.5 29zM404.5 41q37.5 27 54 90.5t16.5 177.5t-16.5 177.5t-54 90.5t-104.5 27t-104.5 -27t-54 -90.5t-16.5 -177.5t16.5 -177.5t54 -90.5 t104.5 -27t104.5 27zM370 799l-120 -106l-20 21l120 106z" />
         <glyph glyph-name="omegatonos" unicode="ώ" d="M501 618q28 -41 45 -122t17 -172q0 -131 -13 -203.5t-43 -103.5t-83 -31q-51 0 -80.5 28.5t-43.5 95.5q-14 -67 -43.5 -95.5t-80.5 -28.5q-53 0 -83 31t-43 103.5t-13 203.5q0 91 17 172t45 122h31q-28 -43 -45.5 -124t-17.5 -170q0 -120 10 -186.5t33.5 -95t65.5 -28.5 t65.5 27.5t33.5 92.5t10 181h30q0 -116 10 -181t33.5 -92.5t65.5 -27.5t65.5 28.5t33.5 95t10 186.5q0 89 -17.5 170t-45.5 124h31zM370 799l-120 -106l-20 21l120 106z" />
         <glyph glyph-name="alphatonos" unicode="ά" d="M475 63q18 -43 55 -43v-20q-41 0 -65.5 31.5t-37.5 88.5q-27 -71 -67.5 -102.5t-99.5 -31.5q-68 0 -105 28t-53 94.5t-16 189.5q0 121 32 196t80.5 106.5t99.5 31.5q56 0 85 -51t39 -119t19 -191q21 125 29 347h30q-15 -292 -52 -431q9 -81 27 -124zM354.5 50.5 q38.5 36.5 63.5 118.5q-6 38 -9.5 85.5t-4.5 61.5q-6 95 -14 152t-29.5 96t-62.5 39q-45 0 -86 -29.5t-68.5 -97.5t-27.5 -178t13 -171t44 -87t87 -26t94.5 36.5zM370 799l-120 -106l-20 21l120 106z" />
         <glyph glyph-name="epsilontonos" unicode="έ" d="M174 0.5q-45 14.5 -64 48t-19 94.5q0 70 23 107t84 63q-61 27 -84 62t-23 101q0 60 19 93.5t64 48t126 14.5q80 0 125 -12t64.5 -39t19.5 -76h-30q0 38 -16.5 59.5t-55 30.5t-107.5 9t-107.5 -12t-55 -39.5t-16.5 -76.5q0 -54 14.5 -84.5t48.5 -45.5t95 -19h61v-28h-61 q-61 -4 -95 -19.5t-48.5 -48t-14.5 -88.5q0 -50 16.5 -77.5t55 -39.5t107.5 -12t107.5 9.5t55 31.5t16.5 63h30q0 -51 -19.5 -79.5t-64 -40.5t-125.5 -12t-126 14.5zM370 799l-120 -106l-20 21l120 106z" />
         <glyph glyph-name="etatonos" unicode="ή" d="M451 613.5q32 -20.5 42 -66t10 -135.5v-594h-30v594q0 74 -11 115t-40 60t-84 19q-70 0 -107.5 -13.5t-55 -52.5t-17.5 -117v-423h-30v526q0 35 -2 47t-12 16.5t-38 4.5v24q28 0 44 -3t27 -16t11 -41q32 45 75.5 60.5t118.5 15.5q67 0 99 -20.5zM370 799l-120 -106 l-20 21l120 106z" />
         <glyph glyph-name="uni03D7" unicode="ϗ" d="M378 306q0 -126 41 -201t121 -79v-79q0 -65 -25.5 -104t-66.5 -39q-26 0 -56 8t-57 21l15 24q26 -11 53 -18t45 -7q29 0 45.5 31.5t16.5 83.5v53q-46 -4 -83.5 35.5t-59 116.5t-19.5 179l-50 -40q-36 -28 -76 -61q-4 -126 -26 -185t-77 -59q-35 0 -53 14t-18 40 q0 33 27 80q10 18 39.5 46t78.5 70v42v89q0 97 -31 157t-86 68v26q43 -3 76.5 -35t52 -87.5t18.5 -128.5q0 -74 -1 -107q48 39 103 85l25 21q7 97 30 192q8 33 33.5 53.5t53.5 20.5q38 0 58 -15.5t20 -43.5q0 -23 -14 -54q-32 -66 -152 -164q-1 -17 -1 -49zM383 395 q101 90 118 131q9 21 9 38q0 18 -11 29t-32 11q-17 0 -35 -16t-24 -41q-20 -86 -25 -152zM175 62.5q15 48.5 18 143.5q-68 -58 -93 -100q-21 -33 -21 -57q0 -17 10.5 -26t29.5 -9q41 0 56 48.5z" />
         <glyph glyph-name="uni2095" unicode="ₕ" d="M160 -59v535h30v-215q13 57 41.5 78.5t92.5 21.5q56 0 86.5 -22.5t44 -74.5t13.5 -146v-177h-30v177q0 84 -10.5 130t-35 65.5t-68.5 19.5q-52 0 -80.5 -24.5t-41 -81.5t-12.5 -161v-125h-30z" />
         <glyph glyph-name="uni2096" unicode="ₖ" d="M217 -59h-30v535h30v-312h56l143 158h36l-151 -170l191 -211h-36l-179 195h-60v-195z" />
         <glyph glyph-name="uni2097" unicode="ₗ" d="M306 -46.5q-20 17.5 -28.5 58t-8.5 114.5v322h-87v28h117v-350q0 -63 6 -97.5t19.5 -49.5t37.5 -15q18 0 33.5 6.5t38.5 25.5l18 -27q-37 -19 -56.5 -26t-33.5 -7q-36 0 -56 17.5z" />
         <glyph glyph-name="uni2098" unicode="ₘ" d="M116 -59v415h30v-72q13 44 31.5 60.5t55.5 16.5q28 0 43 -20t26 -73q21 53 42.5 73t57.5 20q26 0 41 -15t21 -49.5t6 -97.5v-258h-30v258q0 71 -9.5 98t-34.5 27q-32 0 -49 -12t-24.5 -40t-7.5 -79v-252h-30v252q0 75 -12.5 103t-45.5 28q-32 0 -49 -12t-24.5 -40 t-7.5 -79v-252h-30z" />
         <glyph glyph-name="uni2099" unicode="ₙ" d="M144 -59v415h30v-89q29 53 59.5 73.5t82.5 20.5t81.5 -19t42 -63t12.5 -122v-216h-30v216q0 68 -10 105.5t-32.5 54t-63.5 16.5q-55 0 -85.5 -15.5t-43.5 -50.5t-13 -99v-227h-30z" />
         <glyph glyph-name="uni209A" unicode="ₚ" d="M151 -199v555h30v-64q18 40 45 54.5t81 14.5q60 0 93 -19.5t47.5 -65.5t14.5 -128t-14.5 -127.5t-47.5 -65t-93 -19.5q-58 0 -85.5 18.5t-40.5 67.5v-221h-30zM382 -19q27 17 38.5 56.5t11.5 110.5q0 72 -11.5 111.5t-38.5 56.5t-75 17q-49 0 -76 -10.5t-38.5 -34 t-11.5 -66.5v-89q0 -66 11.5 -102t38.5 -51.5t76 -15.5q48 0 75 17z" />
         <glyph glyph-name="uni209B" unicode="ₛ" d="M216 -45.5q-31 18.5 -60 68.5l23 19q23 -45 49 -61.5t71 -16.5q53 0 82.5 8t42 26.5t12.5 53.5q0 45 -28 66.5t-102 33.5q-56 8 -87 19.5t-44.5 31t-13.5 51.5q0 41 12.5 64t42 33t81.5 10q58 0 91 -15t62 -53l-21 -21q-23 35 -51 48t-81 13q-60 0 -83 -17t-23 -62 q0 -29 24 -44t89 -28q62 -12 97 -27.5t50 -40t15 -62.5q0 -45 -15.5 -70t-51.5 -35.5t-100 -10.5q-52 0 -83 18.5z" />
         <glyph glyph-name="uni209C" unicode="ₜ" d="M393 -24q18 12 31 44l29 -6q-19 -45 -42.5 -61.5t-68.5 -16.5q-36 0 -56 17.5t-28.5 58t-8.5 114.5v205h-92v25h92v120h30v-120h122v-25h-122v-205q0 -63 6 -97.5t19.5 -49.5t37.5 -15q33 0 51 12z" />
         <glyph glyph-name="zero" unicode="0" d="M187 37.5q-51 51.5 -80.5 145.5t-29.5 217t29.5 217t80.5 145.5t113 51.5t113 -51.5t80.5 -145.5t29.5 -217t-29.5 -217t-80.5 -145.5t-113 -51.5t-113 51.5zM398 61.5q44 47.5 69.5 135.5t25.5 203t-25.5 203t-69.5 135.5t-98 47.5t-98 -47.5t-69.5 -135.5t-25.5 -203 t25.5 -203t69.5 -135.5t98 -47.5t98 47.5zM271 372.5q-11 10.5 -11 27.5q0 16 11 26t29 10t29 -10t11 -26q0 -17 -11 -27.5t-29 -10.5t-29 10.5z" />
         <glyph glyph-name="one" unicode="1" d="M315 28h142v-28h-314v28h142v667q-25 -38 -67 -59.5t-95 -21.5v27q46 0 83 20.5t58 57t21 81.5h30v-772z" />
         <glyph glyph-name="two" unicode="2" d="M80 37q0 40 22.5 76.5t55 67.5t92.5 81q77 62 124.5 109.5t81.5 112t34 143.5q0 61 -18 95t-59 49t-114 15q-70 0 -110.5 -14t-59 -46.5t-19.5 -89.5h-30q1 70 21.5 108t67 54t130.5 16q87 0 134 -17t67 -57t20 -113q0 -86 -36 -155t-86 -118.5t-130 -113.5 q-58 -46 -90 -76t-52 -64.5t-17 -71.5h409v-28h-438v37z" />
         <glyph glyph-name="three" unicode="3" d="M174.5 2.5q-44.5 16.5 -64 55.5t-19.5 110h30q0 -58 17.5 -91.5t56.5 -48t105 -14.5q68 0 106.5 17.5t55.5 58t17 113.5t-15 116t-49.5 64.5t-94.5 25.5h-60v28h60q60 4 94.5 22.5t49.5 55t15 97.5q0 66 -17 103.5t-55.5 54t-106.5 16.5q-66 0 -104.5 -13t-56.5 -42 t-18 -80h-30q0 64 19.5 99t64.5 49.5t125 14.5q82 0 126.5 -18t63.5 -61.5t19 -122.5q0 -81 -23 -122t-84 -67q41 -17 64 -43t33 -67.5t10 -109.5q0 -86 -19 -132t-63.5 -65.5t-126.5 -19.5q-81 0 -125.5 16.5z" />
         <glyph glyph-name="four" unicode="4" d="M449 0h-30v220h-345v35l346 545h29v-552h74v-28h-74v-220zM419 752l-313 -504h313v504z" />
         <glyph glyph-name="five" unicode="5" d="M170.5 1q-46.5 15 -66.5 50t-20 99h30q0 -51 18 -80.5t58.5 -42.5t109.5 -13q76 0 118.5 20.5t61 67.5t18.5 131q0 82 -18.5 129t-61.5 68t-118 21q-42 0 -77 -13.5t-83 -48.5h-36v411h399v-27h-369v-367q38 42 73 57.5t93 15.5q89 0 138 -23t69.5 -75.5t20.5 -147.5 q0 -97 -20.5 -149.5t-69.5 -75t-138 -22.5q-83 0 -129.5 15z" />
         <glyph glyph-name="six" unicode="6" d="M169 8q-46 22 -65.5 75t-19.5 151v314q0 105 19.5 161.5t65.5 80.5t131 24q87 0 132.5 -17.5t64.5 -59t19 -119.5h-29q0 65 -17 101t-57 51.5t-113 15.5q-71 0 -111 -22t-57.5 -73.5t-17.5 -142.5v-163q20 39 43 60t56 29.5t87 8.5q84 0 130.5 -23.5t66 -76.5t19.5 -148 q0 -98 -19.5 -151t-65.5 -75.5t-131 -22.5t-131 22zM411 34.5q40 20.5 57.5 68t17.5 132.5q0 82 -17.5 129.5t-57.5 69t-111 21.5t-111 -21.5t-57.5 -69t-17.5 -130.5q0 -85 17.5 -132t57.5 -67.5t111 -20.5t111 20.5z" />
         <glyph glyph-name="seven" unicode="7" d="M173 0q113 428 313 772h-405v28h433v-28q-103 -178 -180.5 -376t-128.5 -396h-32z" />
         <glyph glyph-name="eight" unicode="8" d="M164.5 6q-47.5 20 -68 68.5t-20.5 137.5q0 65 11 105t37 65t72 42q-55 25 -76 65.5t-21 121.5q0 80 18.5 123.5t61 61.5t121.5 18t121.5 -18t61 -61.5t18.5 -123.5q0 -81 -21 -121.5t-76 -65.5q46 -17 72 -42t37 -65t11 -105q0 -89 -20.5 -137.5t-68 -68.5t-135.5 -20 t-135.5 20zM402 454q37 17 53 54.5t16 102.5q0 67 -16 104.5t-53 54t-102 16.5t-102 -16.5t-53 -54t-16 -104.5q0 -65 16 -102.5t53 -54.5t102 -17t102 17zM416 32.5q42 18.5 60 61t18 118.5q0 74 -18 116.5t-60 61.5t-116 19t-116 -19t-60 -61.5t-18 -116.5 q0 -76 18 -118.5t60 -61t116 -18.5t116 18.5z" />
         </font>
</defs>
</svg>
