<?xml version="1.0" encoding="UTF-8"?>
<!DOCTYPE svg PUBLIC "-//W3C//DTD SVG 1.1//EN" "http://www.w3.org/Graphics/SVG/1.1/DTD/svg11.dtd">
<svg xmlns="http://www.w3.org/2000/svg" xmlns:xlink="http://www.w3.org/1999/xlink" version="1.1">
   <metadata>Created by FontForge 20170812 at Tue Nov  3 11:52:57 2020
 By www-data
Copyright (c) 2019 by Rune Bjrneras. All rights reserved.</metadata>
   <defs>
      <font id="VictorMono-Light" horiz-adv-x="600">
         <font-face font-family="Victor Mono Light" font-weight="300" font-stretch="normal" units-per-em="1100" panose-1="0 0 4 9 0 0 0 0 0 0" ascent="880" descent="-220" x-height="618" cap-height="800" bbox="-1772 -529 679.042 1306" underline-thickness="50" underline-position="-100" unicode-range="U+0020-E0B3" />
         <missing-glyph d="M422 0h-354v814h354v-814zM123 763v-712h244v712h-244z" />
         <glyph glyph-name=".notdef" d="M422 0h-354v814h354v-814zM123 763v-712h244v712h-244z" />
         <glyph glyph-name=".null" horiz-adv-x="60" />
         <glyph glyph-name="nonmarkingreturn" />
         <glyph glyph-name="space" unicode=" " />
         <glyph glyph-name="A" unicode="A" d="M553 0h-57l-59 214h-274l-58 -214h-58l223 800h61zM300 716l-123 -452h247z" />
         <glyph glyph-name="Aacute" unicode="Á" d="M553 0h-57l-59 214h-274l-58 -214h-58l223 800h61zM300 716l-123 -452h247zM429 992l-139 -122l-36 39l138 121z" />
         <glyph glyph-name="Abreve" unicode="Ă" d="M553 0h-57l-59 214h-274l-58 -214h-58l223 800h61zM300 716l-123 -452h247zM223 879q-27 11 -39 36.5t-11 71.5h55q-1 -39 14.5 -54t56.5 -15q43 0 58.5 15t15.5 54h55q0 -46 -12 -71.5t-39.5 -36.5t-77.5 -11q-49 0 -76 11z" />
         <glyph glyph-name="uni1EAE" unicode="Ắ" d="M553 0h-57l-59 214h-274l-58 -214h-58l223 800h61zM300 716l-123 -452h247zM424 1044l-134 -117l-36 38l134 117zM223 843q-27 11 -39 36t-11 70h55q-1 -38 14.5 -52t56.5 -14q43 0 58.5 14t15.5 52h54q1 -45 -11 -70t-39.5 -36t-77.5 -11q-49 0 -76 11z" />
         <glyph glyph-name="uni1EB6" unicode="Ặ" d="M553 0h-57l-59 214h-274l-58 -214h-58l223 800h61zM300 716l-123 -452h247zM255 -212.5q-12 11.5 -12 42.5q0 32 12 43.5t45 11.5t45.5 -12t12.5 -43t-12.5 -42.5t-45.5 -11.5t-45 11.5zM223 879q-27 11 -39 36.5t-11 71.5h55q-1 -39 14.5 -54t56.5 -15q43 0 58.5 15 t15.5 54h55q0 -46 -12 -71.5t-39.5 -36.5t-77.5 -11q-49 0 -76 11z" />
         <glyph glyph-name="uni1EB0" unicode="Ằ" d="M553 0h-57l-59 214h-274l-58 -214h-58l223 800h61zM300 716l-123 -452h247zM346 965l-37 -38l-134 117l37 38zM223 843q-27 11 -39 36t-11 70h55q-1 -38 14.5 -52t56.5 -14q43 0 58.5 14t15.5 52h54q1 -45 -11 -70t-39.5 -36t-77.5 -11q-49 0 -76 11z" />
         <glyph glyph-name="uni1EB2" unicode="Ẳ" d="M553 0h-57l-59 214h-274l-58 -214h-58l223 800h61zM300 716l-123 -452h247zM450 930q32 8 48 21.5t16 29.5q0 14 -11 23t-25 9q-37 0 -86 -38v61q17 13 40.5 20.5t45.5 7.5q39 0 65 -23t26 -59q0 -35 -27.5 -62t-78.5 -39zM223 843q-27 11 -39 36t-11 70h55 q-1 -38 14.5 -52t56.5 -14q43 0 58.5 14t15.5 52h54q1 -46 -11 -71t-39.5 -35.5t-77.5 -10.5q-49 0 -76 11z" />
         <glyph glyph-name="uni1EB4" unicode="Ẵ" d="M553 0h-57l-59 214h-274l-58 -214h-58l223 800h61zM300 716l-123 -452h247zM551 974.5q-18 11.5 -42 33.5q-18 16 -30 24t-23 8q-19 0 -24 -12t-4 -39h-56q-1 46 22.5 74t61.5 28q20 0 37.5 -11t42.5 -33q19 -17 31 -25t23 -8q19 0 24 11.5t4 36.5h55q1 -44 -22 -71.5 t-61 -27.5q-21 0 -39 11.5zM223 842.5q-27 10.5 -39 35.5t-11 71h55q-1 -38 14.5 -52t56.5 -14q43 0 58.5 14t15.5 52h54q1 -46 -11 -71t-39.5 -35.5t-77.5 -10.5q-49 0 -76 10.5z" />
         <glyph glyph-name="uni01CD" unicode="Ǎ" d="M553 0h-57l-59 214h-274l-58 -214h-58l223 800h61zM300 716l-123 -452h247zM434 994l-134 -120l-134 118l42 33l92 -81l91 83z" />
         <glyph glyph-name="Acircumflex" unicode="Â" d="M553 0h-57l-59 214h-274l-58 -214h-58l223 800h61zM300 716l-123 -452h247zM434 900l-43 -33l-91 83l-92 -81l-42 33l134 118z" />
         <glyph glyph-name="uni1EA4" unicode="Ấ" d="M553 0h-57l-59 214h-274l-58 -214h-58l223 800h61zM300 716l-123 -452h247zM559 1026l-134 -117l-36 38l134 117zM434 868l-43 -33l-91 83l-92 -81l-42 33l134 118z" />
         <glyph glyph-name="uni1EAC" unicode="Ậ" d="M553 0h-57l-59 214h-274l-58 -214h-58l223 800h61zM300 716l-123 -452h247zM255 -212.5q-12 11.5 -12 42.5q0 32 12 43.5t45 11.5t45.5 -12t12.5 -43t-12.5 -42.5t-45.5 -11.5t-45 11.5zM434 900l-43 -33l-91 83l-92 -81l-42 33l134 118z" />
         <glyph glyph-name="uni1EA6" unicode="Ầ" d="M553 0h-57l-59 214h-274l-58 -214h-58l223 800h61zM300 716l-123 -452h247zM471 902l-116 106l40 34l119 -107zM434 868l-43 -33l-91 83l-92 -81l-42 33l134 118z" />
         <glyph glyph-name="uni1EA8" unicode="Ẩ" d="M553 0h-57l-59 214h-274l-58 -214h-58l223 800h61zM300 716l-123 -452h247zM434 868l-43 -33l-91 83l-92 -81l-42 33l134 118zM450 930q32 8 48.5 21.5t16.5 29.5q0 14 -11 23.5t-26 9.5q-21 0 -44 -11.5t-41 -27.5v61q16 13 39.5 20.5t45.5 7.5q40 0 66 -23t26 -59 q0 -34 -28.5 -61.5t-78.5 -39.5z" />
         <glyph glyph-name="uni1EAA" unicode="Ẫ" d="M553 0h-57l-59 214h-274l-58 -214h-58l223 800h61zM300 716l-123 -452h247zM434 868l-43 -33l-91 83l-92 -81l-42 33l134 118zM543 922.5q-18 11.5 -41 32.5q-19 17 -31 25t-23 8q-19 0 -24 -12t-4 -39h-55q-1 45 22 73t61 28q20 0 37.5 -11t42.5 -33q19 -17 31 -25 t23 -8q19 0 24 11.5t4 36.5h55q1 -44 -22 -71t-61 -27q-21 0 -39 11.5z" />
         <glyph glyph-name="Adieresis" unicode="Ä" d="M553 0h-57l-59 214h-274l-58 -214h-58l223 800h61zM300 716l-123 -452h247zM147.5 926q-12.5 12 -12.5 43q0 29 12.5 40.5t44.5 11.5t45 -11.5t13 -40.5q0 -31 -12.5 -43t-45.5 -12q-32 0 -44.5 12zM363.5 926q-12.5 12 -12.5 43q0 29 12.5 40.5t44.5 11.5t45 -11.5 t13 -40.5q0 -31 -12.5 -43t-45.5 -12q-32 0 -44.5 12z" />
         <glyph glyph-name="uni1EA0" unicode="Ạ" d="M553 0h-57l-59 214h-274l-58 -214h-58l223 800h61zM300 716l-123 -452h247zM255 -212.5q-12 11.5 -12 42.5q0 32 12 43.5t45 11.5t45.5 -12t12.5 -43t-12.5 -42.5t-45.5 -11.5t-45 11.5z" />
         <glyph glyph-name="Agrave" unicode="À" d="M553 0h-57l-59 214h-274l-58 -214h-58l223 800h61zM300 716l-123 -452h247zM347 909l-37 -39l-138 122l36 38z" />
         <glyph glyph-name="uni1EA2" unicode="Ả" d="M553 0h-57l-59 214h-274l-58 -214h-58l223 800h61zM300 716l-123 -452h247zM269 889q32 8 48.5 21.5t16.5 29.5q0 14 -11 23.5t-26 9.5q-21 0 -44 -11.5t-41 -27.5v61q16 13 39.5 20.5t45.5 7.5q40 0 66 -23t26 -59q0 -34 -28.5 -61.5t-78.5 -39.5z" />
         <glyph glyph-name="Amacron" unicode="Ā" d="M553 0h-57l-59 214h-274l-58 -214h-58l223 800h61zM300 716l-123 -452h247zM440 907h-279v50h279v-50z" />
         <glyph glyph-name="Aogonek" unicode="Ą" d="M554 -166q-15 -14 -39 -22t-49 -8q-50 0 -78.5 19t-28.5 56q0 31 38 63t99 60l-59 212h-274l-58 -214h-58l223 800h61l222 -800l-32 -18q-56 -32 -82 -51.5t-26 -40.5q1 -16 15 -25.5t38 -9.5q16 0 33 6.5t29 16.5zM300 716l-123 -452h247z" />
         <glyph glyph-name="Aring" unicode="Å" d="M496 0l-59 214h-274l-58 -214h-58l211 755q-47 7 -66 33t-19 83q0 66 27.5 91.5t98.5 25.5q50 0 77.5 -11t39.5 -36t12 -70q0 -56 -19 -82t-66 -33l210 -756h-57zM243 818.5q15 -14.5 56 -14.5q43 0 58.5 14.5t15.5 52.5t-15.5 52t-58.5 14q-40 0 -55.5 -14t-15.5 -52 t15 -52.5zM300 716l-123 -452h247z" />
         <glyph glyph-name="Atilde" unicode="Ã" d="M553 0h-57l-59 214h-274l-58 -214h-58l223 800h61zM300 716l-123 -452h247zM328 896.5q-18 11.5 -41 32.5q-19 17 -31 25t-23 8q-19 0 -24 -12t-4 -39h-55q-1 45 22 73t61 28q20 0 37.5 -11t42.5 -33q19 -17 31 -25t23 -8q19 0 24 11.5t4 36.5h55q1 -44 -22 -71t-61 -27 q-21 0 -39 11.5z" />
         <glyph glyph-name="AE" unicode="Æ" d="M588 800v-51h-225v-347h146v-50h-146v-301h225v-51h-280v260h-175l-69 -260h-57l214 800h367zM264 749l-117 -439h161v439h-44z" />
         <glyph glyph-name="B" unicode="B" d="M92 0v800h192q83 0 130 -18.5t67.5 -61.5t20.5 -119t-21.5 -113t-77.5 -60q48 -14 74.5 -37t38 -62t11.5 -104q0 -86 -20 -134.5t-67 -69.5t-131 -21h-217zM284 448q63 0 98 14t50 46.5t15 92.5q0 58 -15 89.5t-50 45t-98 13.5h-137v-301h137zM309 51q63 0 98 16t50 53.5 t15 104.5q0 68 -15 105t-50 52.5t-98 15.5h-162v-347h162z" />
         <glyph glyph-name="C" unicode="C" d="M169 24.5q-52 38.5 -74.5 127.5t-22.5 249q0 159 22.5 248t74.5 127t146 38q62 0 101.5 -15.5t65.5 -51t46 -99.5l-53 -18q-17 52 -36.5 80.5t-48.5 40.5t-75 12q-73 0 -113 -33t-57.5 -111t-17.5 -218q0 -141 17.5 -219t57.5 -111.5t113 -33.5q46 0 75 11.5t48.5 39.5 t36.5 79l53 -17q-20 -64 -46 -99t-65 -50t-102 -15q-94 0 -146 38.5z" />
         <glyph glyph-name="Cacute" unicode="Ć" d="M169 24.5q-52 38.5 -74.5 127.5t-22.5 249q0 159 22.5 248t74.5 127t146 38q62 0 101.5 -15.5t65.5 -51t46 -99.5l-53 -18q-17 52 -36.5 80.5t-48.5 40.5t-75 12q-73 0 -113 -33t-57.5 -111t-17.5 -218q0 -141 17.5 -219t57.5 -111.5t113 -33.5q46 0 75 11.5t48.5 39.5 t36.5 79l53 -17q-20 -64 -46 -99t-65 -50t-102 -15q-94 0 -146 38.5zM429 989l-139 -122l-36 39l138 121z" />
         <glyph glyph-name="Ccaron" unicode="Č" d="M169 24.5q-52 38.5 -74.5 127.5t-22.5 249q0 159 22.5 248t74.5 127t146 38q62 0 101.5 -15.5t65.5 -51t46 -99.5l-53 -18q-17 52 -36.5 80.5t-48.5 40.5t-75 12q-73 0 -113 -33t-57.5 -111t-17.5 -218q0 -141 17.5 -219t57.5 -111.5t113 -33.5q46 0 75 11.5t48.5 39.5 t36.5 79l53 -17q-20 -64 -46 -99t-65 -50t-102 -15q-94 0 -146 38.5zM434 991l-134 -120l-134 118l42 33l92 -81l91 83z" />
         <glyph glyph-name="Ccedilla" unicode="Ç" d="M390 48.5q29 11.5 48.5 39.5t36.5 79l53 -17q-19 -62 -43.5 -96.5t-61.5 -50t-95 -17.5v-27q33 -8 53.5 -28t20.5 -46q0 -38 -29.5 -62t-78.5 -24q-25 0 -49 8t-39 22l23 45q12 -11 30.5 -17.5t34.5 -6.5q24 0 38.5 9.5t14.5 25.5q0 15 -20.5 23.5t-53.5 8.5v71 q-77 8 -120.5 50.5t-62 129t-18.5 233.5q0 159 22.5 248t74.5 127t146 38q62 0 101.5 -15.5t65.5 -51t46 -99.5l-53 -18q-17 52 -36.5 80.5t-48.5 40.5t-75 12q-73 0 -113 -33t-57.5 -111t-17.5 -218q0 -141 17.5 -219t57.5 -111.5t113 -33.5q46 0 75 11.5z" />
         <glyph glyph-name="Ccircumflex" unicode="Ĉ" d="M169 24.5q-52 38.5 -74.5 127.5t-22.5 249q0 159 22.5 248t74.5 127t146 38q62 0 101.5 -15.5t65.5 -51t46 -99.5l-53 -18q-17 52 -36.5 80.5t-48.5 40.5t-75 12q-73 0 -113 -33t-57.5 -111t-17.5 -218q0 -141 17.5 -219t57.5 -111.5t113 -33.5q46 0 75 11.5t48.5 39.5 t36.5 79l53 -17q-20 -64 -46 -99t-65 -50t-102 -15q-94 0 -146 38.5zM434 897l-43 -33l-91 83l-92 -81l-42 33l134 118z" />
         <glyph glyph-name="Cdotaccent" unicode="Ċ" d="M169 24.5q-52 38.5 -74.5 127.5t-22.5 249q0 159 22.5 248t74.5 127t146 38q62 0 101.5 -15.5t65.5 -51t46 -99.5l-53 -18q-17 52 -36.5 80.5t-48.5 40.5t-75 12q-73 0 -113 -33t-57.5 -111t-17.5 -218q0 -141 17.5 -219t57.5 -111.5t113 -33.5q46 0 75 11.5t48.5 39.5 t36.5 79l53 -17q-20 -64 -46 -99t-65 -50t-102 -15q-94 0 -146 38.5zM255 937.5q-12 11.5 -12 42.5q0 32 12 43.5t45 11.5t45.5 -12t12.5 -43t-12.5 -42.5t-45.5 -11.5t-45 11.5z" />
         <glyph glyph-name="D" unicode="D" d="M313 800q89 0 138.5 -37t71 -123t21.5 -240t-21.5 -240t-71 -123t-138.5 -37h-230v800h230zM313 51q68 0 105.5 32t54 107t16.5 210t-16.5 210t-54 107t-105.5 32h-175v-698h175z" />
         <glyph glyph-name="Eth" unicode="Ð" d="M316 800q89 0 138.5 -37t71 -123t21.5 -240t-21.5 -240t-71 -123t-138.5 -37h-230v398h-52v50h52v352h230zM316 51q68 0 105.5 32t54 107t16.5 210t-16.5 210t-54 107t-105.5 32h-175v-301h144l1 -50h-145v-347h175z" />
         <glyph glyph-name="Dcaron" unicode="Ď" d="M313 800q89 0 138.5 -37t71 -123t21.5 -240t-21.5 -240t-71 -123t-138.5 -37h-230v800h230zM313 51q68 0 105.5 32t54 107t16.5 210t-16.5 210t-54 107t-105.5 32h-175v-698h175zM434 991l-134 -120l-134 118l42 33l92 -81l91 83z" />
         <glyph glyph-name="Dcroat" unicode="Đ" d="M316 800q89 0 138.5 -37t71 -123t21.5 -240t-21.5 -240t-71 -123t-138.5 -37h-230v398h-52v50h52v352h230zM316 51q68 0 105.5 32t54 107t16.5 210t-16.5 210t-54 107t-105.5 32h-175v-301h144l1 -50h-145v-347h175z" />
         <glyph glyph-name="E" unicode="E" d="M529 800v-51h-374v-301h240v-50h-240v-347h374v-51h-429v800h429z" />
         <glyph glyph-name="Eacute" unicode="É" d="M529 800v-51h-374v-301h240v-50h-240v-347h374v-51h-429v800h429zM443 992l-139 -122l-36 39l138 121z" />
         <glyph glyph-name="Ecaron" unicode="Ě" d="M529 800v-51h-374v-301h240v-50h-240v-347h374v-51h-429v800h429zM448 994l-134 -120l-134 118l42 33l92 -81l91 83z" />
         <glyph glyph-name="Ecircumflex" unicode="Ê" d="M529 800v-51h-374v-301h240v-50h-240v-347h374v-51h-429v800h429zM448 900l-43 -33l-91 83l-92 -81l-42 33l134 118z" />
         <glyph glyph-name="uni1EBE" unicode="Ế" d="M529 800v-51h-374v-301h240v-50h-240v-347h374v-51h-429v800h429zM573 1026l-134 -117l-36 38l134 117zM448 868l-43 -33l-91 83l-92 -81l-42 33l134 118z" />
         <glyph glyph-name="uni1EC6" unicode="Ệ" d="M529 800v-51h-374v-301h240v-50h-240v-347h374v-51h-429v800h429zM269 -212.5q-12 11.5 -12 42.5q0 32 12 43.5t45 11.5t45.5 -12t12.5 -43t-12.5 -42.5t-45.5 -11.5t-45 11.5zM448 900l-43 -33l-91 83l-92 -81l-42 33l134 118z" />
         <glyph glyph-name="uni1EC0" unicode="Ề" d="M529 800v-51h-374v-301h240v-50h-240v-347h374v-51h-429v800h429zM485 902l-116 106l40 34l119 -107zM448 868l-43 -33l-91 83l-92 -81l-42 33l134 118z" />
         <glyph glyph-name="uni1EC2" unicode="Ể" d="M529 800v-51h-374v-301h240v-50h-240v-347h374v-51h-429v800h429zM448 868l-43 -33l-91 83l-92 -81l-42 33l134 118zM464 930q32 8 48.5 21.5t16.5 29.5q0 14 -11 23.5t-26 9.5q-21 0 -44 -11.5t-41 -27.5v61q16 13 39.5 20.5t45.5 7.5q40 0 66 -23t26 -59 q0 -34 -28.5 -61.5t-78.5 -39.5z" />
         <glyph glyph-name="uni1EC4" unicode="Ễ" d="M529 800v-51h-374v-301h240v-50h-240v-347h374v-51h-429v800h429zM448 868l-43 -33l-91 83l-92 -81l-42 33l134 118zM557 922.5q-18 11.5 -41 32.5q-19 17 -31 25t-23 8q-19 0 -24 -12t-4 -39h-55q-1 45 22 73t61 28q20 0 37.5 -11t42.5 -33q19 -17 31 -25t23 -8 q19 0 24 11.5t4 36.5h55q1 -44 -22 -71t-61 -27q-21 0 -39 11.5z" />
         <glyph glyph-name="Edieresis" unicode="Ë" d="M529 800v-51h-374v-301h240v-50h-240v-347h374v-51h-429v800h429zM161.5 926q-12.5 12 -12.5 43q0 29 12.5 40.5t44.5 11.5t45 -11.5t13 -40.5q0 -31 -12.5 -43t-45.5 -12q-32 0 -44.5 12zM377.5 926q-12.5 12 -12.5 43q0 29 12.5 40.5t44.5 11.5t45 -11.5t13 -40.5 q0 -31 -12.5 -43t-45.5 -12q-32 0 -44.5 12z" />
         <glyph glyph-name="Edotaccent" unicode="Ė" d="M529 800v-51h-374v-301h240v-50h-240v-347h374v-51h-429v800h429zM269 940.5q-12 11.5 -12 42.5q0 32 12 43.5t45 11.5t45.5 -12t12.5 -43t-12.5 -42.5t-45.5 -11.5t-45 11.5z" />
         <glyph glyph-name="uni1EB8" unicode="Ẹ" d="M529 800v-51h-374v-301h240v-50h-240v-347h374v-51h-429v800h429zM269 -212.5q-12 11.5 -12 42.5q0 32 12 43.5t45 11.5t45.5 -12t12.5 -43t-12.5 -42.5t-45.5 -11.5t-45 11.5z" />
         <glyph glyph-name="Egrave" unicode="È" d="M529 800v-51h-374v-301h240v-50h-240v-347h374v-51h-429v800h429zM361 909l-37 -39l-138 122l36 38z" />
         <glyph glyph-name="uni1EBA" unicode="Ẻ" d="M529 800v-51h-374v-301h240v-50h-240v-347h374v-51h-429v800h429zM283 889q32 8 48.5 21.5t16.5 29.5q0 14 -11 23.5t-26 9.5q-21 0 -44 -11.5t-41 -27.5v61q16 13 39.5 20.5t45.5 7.5q40 0 66 -23t26 -59q0 -34 -28.5 -61.5t-78.5 -39.5z" />
         <glyph glyph-name="Emacron" unicode="Ē" d="M529 800v-51h-374v-301h240v-50h-240v-347h374v-51h-429v800h429zM454 907h-279v50h279v-50z" />
         <glyph glyph-name="Eogonek" unicode="Ę" d="M529 749h-374v-301h240v-50h-240v-347h374v-51h-1l-32 -18q-56 -32 -82 -51.5t-26 -40.5q1 -16 15 -25.5t38 -9.5q16 0 33 6.5t29 16.5l26 -44q-15 -14 -39 -22t-49 -8q-50 0 -78.5 19t-28.5 56q0 31 36.5 62t96.5 59h-367v800h429v-51z" />
         <glyph glyph-name="uni1EBC" unicode="Ẽ" d="M529 800v-51h-374v-301h240v-50h-240v-347h374v-51h-429v800h429zM342 896.5q-18 11.5 -41 32.5q-19 17 -31 25t-23 8q-19 0 -24 -12t-4 -39h-55q-1 45 22 73t61 28q20 0 37.5 -11t42.5 -33q19 -17 31 -25t23 -8q19 0 24 11.5t4 36.5h55q1 -44 -22 -71t-61 -27 q-21 0 -39 11.5z" />
         <glyph glyph-name="F" unicode="F" d="M530 800v-51h-374v-347h240v-50h-240v-352h-55v800h429z" />
         <glyph glyph-name="G" unicode="G" d="M167 24q-54 38 -77 127t-23 249t23 249t77 127t152 38q67 0 109 -17t69 -56t46 -110l-53 -13q-15 56 -35.5 87t-52.5 44.5t-83 13.5q-76 0 -118.5 -33t-60.5 -111t-18 -219t18 -218.5t60.5 -111t118.5 -33.5q68 0 102.5 26t59.5 95v194h-174v50h229v-252 q-21 -63 -47.5 -98.5t-66.5 -50.5t-103 -15q-98 0 -152 38z" />
         <glyph glyph-name="Gbreve" unicode="Ğ" d="M167 24q-54 38 -77 127t-23 249t23 249t77 127t152 38q67 0 109 -17t69 -56t46 -110l-53 -13q-15 56 -35.5 87t-52.5 44.5t-83 13.5q-76 0 -118.5 -33t-60.5 -111t-18 -219t18 -218.5t60.5 -111t118.5 -33.5q68 0 102.5 26t59.5 95v194h-174v50h229v-252 q-21 -63 -47.5 -98.5t-66.5 -50.5t-103 -15q-98 0 -152 38zM223 876q-27 11 -39 36.5t-11 71.5h55q-1 -39 14.5 -54t56.5 -15q43 0 58.5 15t15.5 54h55q0 -46 -12 -71.5t-39.5 -36.5t-77.5 -11q-49 0 -76 11z" />
         <glyph glyph-name="Gcircumflex" unicode="Ĝ" d="M167 24q-54 38 -77 127t-23 249t23 249t77 127t152 38q67 0 109 -17t69 -56t46 -110l-53 -13q-15 56 -35.5 87t-52.5 44.5t-83 13.5q-76 0 -118.5 -33t-60.5 -111t-18 -219t18 -218.5t60.5 -111t118.5 -33.5q68 0 102.5 26t59.5 95v194h-174v50h229v-252 q-21 -63 -47.5 -98.5t-66.5 -50.5t-103 -15q-98 0 -152 38zM434 897l-43 -33l-91 83l-92 -81l-42 33l134 118z" />
         <glyph glyph-name="uni0122" unicode="Ģ" d="M167 24q-54 38 -77 127t-23 249t23 249t77 127t152 38q67 0 109 -17t69 -56t46 -110l-53 -13q-15 56 -35.5 87t-52.5 44.5t-83 13.5q-76 0 -118.5 -33t-60.5 -111t-18 -219t18 -218.5t60.5 -111t118.5 -33.5q68 0 102.5 26t59.5 95v194h-174v50h229v-252 q-21 -63 -47.5 -98.5t-66.5 -50.5t-103 -15q-98 0 -152 38zM292 -124q-14 2 -20 11.5t-6 27.5q0 24 9.5 33t35.5 9q25 0 34.5 -9t9.5 -33q0 -27 -21 -71t-51 -90h-38z" />
         <glyph glyph-name="Gdotaccent" unicode="Ġ" d="M167 24q-54 38 -77 127t-23 249t23 249t77 127t152 38q67 0 109 -17t69 -56t46 -110l-53 -13q-15 56 -35.5 87t-52.5 44.5t-83 13.5q-76 0 -118.5 -33t-60.5 -111t-18 -219t18 -218.5t60.5 -111t118.5 -33.5q68 0 102.5 26t59.5 95v194h-174v50h229v-252 q-21 -63 -47.5 -98.5t-66.5 -50.5t-103 -15q-98 0 -152 38zM255 937.5q-12 11.5 -12 42.5q0 32 12 43.5t45 11.5t45.5 -12t12.5 -43t-12.5 -42.5t-45.5 -11.5t-45 11.5z" />
         <glyph glyph-name="H" unicode="H" d="M464 448v352h55v-800h-55v398h-327v-398h-55v800h55v-352h327z" />
         <glyph glyph-name="Hbar" unicode="Ħ" d="M519 603h53v-51h-53v-552h-55v398h-327v-398h-55v552h-53v51h53v197h55v-197h327v197h55v-197zM137 448h327v104h-327v-104z" />
         <glyph glyph-name="Hcircumflex" unicode="Ĥ" d="M464 448v352h55v-800h-55v398h-327v-398h-55v800h55v-352h327zM434 897l-43 -33l-91 83l-92 -81l-42 33l134 118z" />
         <glyph glyph-name="I" unicode="I" d="M490 800v-51h-162v-698h162v-51h-379v51h162v698h-162v51h379z" />
         <glyph glyph-name="Iacute" unicode="Í" d="M490 800v-51h-162v-698h162v-51h-379v51h162v698h-162v51h379zM429 992l-139 -122l-36 39l138 121z" />
         <glyph glyph-name="uni01CF" unicode="Ǐ" d="M490 800v-51h-162v-698h162v-51h-379v51h162v698h-162v51h379zM434 994l-134 -120l-134 118l42 33l92 -81l91 83z" />
         <glyph glyph-name="Icircumflex" unicode="Î" d="M490 800v-51h-162v-698h162v-51h-379v51h162v698h-162v51h379zM434 900l-43 -33l-91 83l-92 -81l-42 33l134 118z" />
         <glyph glyph-name="Idieresis" unicode="Ï" d="M490 800v-51h-162v-698h162v-51h-379v51h162v698h-162v51h379zM147.5 926q-12.5 12 -12.5 43q0 29 12.5 40.5t44.5 11.5t45 -11.5t13 -40.5q0 -31 -12.5 -43t-45.5 -12q-32 0 -44.5 12zM363.5 926q-12.5 12 -12.5 43q0 29 12.5 40.5t44.5 11.5t45 -11.5t13 -40.5 q0 -31 -12.5 -43t-45.5 -12q-32 0 -44.5 12z" />
         <glyph glyph-name="Idotaccent" unicode="İ" d="M490 800v-51h-162v-698h162v-51h-379v51h162v698h-162v51h379zM255 940.5q-12 11.5 -12 42.5q0 32 12 43.5t45 11.5t45.5 -12t12.5 -43t-12.5 -42.5t-45.5 -11.5t-45 11.5z" />
         <glyph glyph-name="uni1ECA" unicode="Ị" d="M490 800v-51h-162v-698h162v-51h-379v51h162v698h-162v51h379zM255 -212.5q-12 11.5 -12 42.5q0 32 12 43.5t45 11.5t45.5 -12t12.5 -43t-12.5 -42.5t-45.5 -11.5t-45 11.5z" />
         <glyph glyph-name="Igrave" unicode="Ì" d="M490 800v-51h-162v-698h162v-51h-379v51h162v698h-162v51h379zM347 909l-37 -39l-138 122l36 38z" />
         <glyph glyph-name="uni1EC8" unicode="Ỉ" d="M490 800v-51h-162v-698h162v-51h-379v51h162v698h-162v51h379zM269 889q32 8 48.5 21.5t16.5 29.5q0 14 -11 23.5t-26 9.5q-21 0 -44 -11.5t-41 -27.5v61q16 13 39.5 20.5t45.5 7.5q40 0 66 -23t26 -59q0 -34 -28.5 -61.5t-78.5 -39.5z" />
         <glyph glyph-name="Imacron" unicode="Ī" d="M490 800v-51h-162v-698h162v-51h-379v51h162v698h-162v51h379zM440 907h-279v50h279v-50z" />
         <glyph glyph-name="Iogonek" unicode="Į" d="M490 749h-162v-698h162v-51h-112l-32 -18q-56 -32 -82 -51.5t-26 -40.5q1 -16 15 -25.5t38 -9.5q16 0 33 6.5t29 16.5l26 -44q-15 -14 -39 -22t-49 -8q-50 0 -78.5 19t-28.5 56q0 31 36.5 62t96.5 59h-206v51h162v698h-162v51h379v-51z" />
         <glyph glyph-name="Itilde" unicode="Ĩ" d="M490 800v-51h-162v-698h162v-51h-379v51h162v698h-162v51h379zM328 896.5q-18 11.5 -41 32.5q-19 17 -31 25t-23 8q-19 0 -24 -12t-4 -39h-55q-1 45 22 73t61 28q20 0 37.5 -11t42.5 -33q19 -17 31 -25t23 -8q19 0 24 11.5t4 36.5h55q1 -44 -22 -71t-61 -27 q-21 0 -39 11.5z" />
         <glyph glyph-name="J" unicode="J" d="M162 1q-39 15 -65 50t-45 98l52 14q15 -49 34.5 -76t49 -38.5t76.5 -11.5q72 0 112.5 28.5t58 96t17.5 188.5v399h-131v51h186v-450q0 -140 -22.5 -218.5t-74.5 -112t-146 -33.5q-63 0 -102 15z" />
         <glyph glyph-name="Jcircumflex" unicode="Ĵ" d="M162 1q-39 15 -65 50t-45 98l52 14q15 -49 34.5 -76t49 -38.5t76.5 -11.5q72 0 112.5 28.5t58 96t17.5 188.5v399h-131v51h186v-450q0 -140 -22.5 -218.5t-74.5 -112t-146 -33.5q-63 0 -102 15zM551 897l-43 -33l-91 83l-92 -81l-42 33l134 118z" />
         <glyph glyph-name="K" unicode="K" d="M562 0h-65l-277 398h-77v-398h-55v800h55v-352h58l289 352h68l-299 -363z" />
         <glyph glyph-name="uni0136" unicode="Ķ" d="M562 0h-65l-277 398h-77v-398h-55v800h55v-352h58l289 352h68l-299 -363zM292 -124q-14 2 -20 11.5t-6 27.5q0 24 9.5 33t35.5 9q25 0 34.5 -9t9.5 -33q0 -27 -21 -71t-51 -90h-38z" />
         <glyph glyph-name="L" unicode="L" d="M509 0h-390v800h55v-749h335v-51z" />
         <glyph glyph-name="Lacute" unicode="Ĺ" d="M509 0h-390v800h55v-749h335v-51zM293 989l-139 -122l-36 39l138 121z" />
         <glyph glyph-name="Lcaron" unicode="Ľ" d="M509 0h-390v800h55v-749h335v-51zM347 550h-44l-8 250h60z" />
         <glyph glyph-name="uni013B" unicode="Ļ" d="M509 0h-390v800h55v-749h335v-51zM292 -124q-14 2 -20 11.5t-6 27.5q0 24 9.5 33t35.5 9q25 0 34.5 -9t9.5 -33q0 -27 -21 -71t-51 -90h-38z" />
         <glyph glyph-name="Lslash" unicode="Ł" d="M204 462v-411h335v-51h-390v440l-98 -40v52l98 40v308h55v-286l134 55v-52z" />
         <glyph glyph-name="M" unicode="M" d="M113 0h-55l14 800h55l173 -459l173 459h56l14 -800h-55l-12 661l-149 -401h-54l-149 401z" />
         <glyph glyph-name="N" unicode="N" d="M462 118v682h55v-800h-60l-318 682v-682h-55v800h59z" />
         <glyph glyph-name="Nacute" unicode="Ń" d="M462 118v682h55v-800h-60l-318 682v-682h-55v800h59zM429 992l-139 -122l-36 39l138 121z" />
         <glyph glyph-name="Ncaron" unicode="Ň" d="M462 118v682h55v-800h-60l-318 682v-682h-55v800h59zM434 994l-134 -120l-134 118l42 33l92 -81l91 83z" />
         <glyph glyph-name="uni0145" unicode="Ņ" d="M462 118v682h55v-800h-60l-318 682v-682h-55v800h59zM292 -127q-14 2 -20 11.5t-6 27.5q0 24 9.5 33t35.5 9q25 0 34.5 -9t9.5 -33q0 -27 -21 -71t-51 -90h-38z" />
         <glyph glyph-name="Eng" unicode="Ŋ" d="M462 800h55v-800q0 -62 -13.5 -95.5t-45 -47.5t-88.5 -14v50q45 0 69 15t24 51q0 17 -6 41l-318 682v-682h-55v800h59l319 -682v682z" />
         <glyph glyph-name="Ntilde" unicode="Ñ" d="M462 118v682h55v-800h-60l-318 682v-682h-55v800h59zM328 896.5q-18 11.5 -41 32.5q-19 17 -31 25t-23 8q-19 0 -24 -12t-4 -39h-55q-1 45 22 73t61 28q20 0 37.5 -11t42.5 -33q19 -17 31 -25t23 -8q19 0 24 11.5t4 36.5h55q1 -44 -22 -71t-61 -27q-21 0 -39 11.5z" />
         <glyph glyph-name="O" unicode="O" d="M158.5 20.5q-50.5 34.5 -72 115t-21.5 224.5v80q0 144 21.5 224.5t72 115t141.5 34.5t141.5 -34.5t72.5 -115t22 -224.5v-80q0 -144 -22 -224.5t-72.5 -115t-141.5 -34.5t-141.5 34.5zM408.5 66.5q38.5 29.5 55.5 99t17 194.5v80q0 125 -17 194.5t-55.5 99t-108.5 29.5 t-109 -29.5t-55.5 -99t-15.5 -194.5v-80q0 -125 16.5 -194.5t55.5 -99t108 -29.5q70 0 108.5 29.5z" />
         <glyph glyph-name="Oacute" unicode="Ó" d="M158.5 20.5q-50.5 34.5 -72 115t-21.5 224.5v80q0 144 21.5 224.5t72 115t141.5 34.5t141.5 -34.5t72.5 -115t22 -224.5v-80q0 -144 -22 -224.5t-72.5 -115t-141.5 -34.5t-141.5 34.5zM408.5 66.5q38.5 29.5 55.5 99t17 194.5v80q0 125 -17 194.5t-55.5 99t-108.5 29.5 t-109 -29.5t-55.5 -99t-15.5 -194.5v-80q0 -125 16.5 -194.5t55.5 -99t108 -29.5q70 0 108.5 29.5zM429 992l-139 -122l-36 39l138 121z" />
         <glyph glyph-name="uni01D1" unicode="Ǒ" d="M158.5 20.5q-50.5 34.5 -72 115t-21.5 224.5v80q0 144 21.5 224.5t72 115t141.5 34.5t141.5 -34.5t72.5 -115t22 -224.5v-80q0 -144 -22 -224.5t-72.5 -115t-141.5 -34.5t-141.5 34.5zM408.5 66.5q38.5 29.5 55.5 99t17 194.5v80q0 125 -17 194.5t-55.5 99t-108.5 29.5 t-109 -29.5t-55.5 -99t-15.5 -194.5v-80q0 -125 16.5 -194.5t55.5 -99t108 -29.5q70 0 108.5 29.5zM434 994l-134 -120l-134 118l42 33l92 -81l91 83z" />
         <glyph glyph-name="Ocircumflex" unicode="Ô" d="M158.5 20.5q-50.5 34.5 -72 115t-21.5 224.5v80q0 144 21.5 224.5t72 115t141.5 34.5t141.5 -34.5t72.5 -115t22 -224.5v-80q0 -144 -22 -224.5t-72.5 -115t-141.5 -34.5t-141.5 34.5zM408.5 66.5q38.5 29.5 55.5 99t17 194.5v80q0 125 -17 194.5t-55.5 99t-108.5 29.5 t-109 -29.5t-55.5 -99t-15.5 -194.5v-80q0 -125 16.5 -194.5t55.5 -99t108 -29.5q70 0 108.5 29.5zM434 900l-43 -33l-91 83l-92 -81l-42 33l134 118z" />
         <glyph glyph-name="uni1ED0" unicode="Ố" d="M158.5 20.5q-50.5 34.5 -72 115t-21.5 224.5v80q0 144 21.5 224.5t72 115t141.5 34.5t141.5 -34.5t72.5 -115t22 -224.5v-80q0 -144 -22 -224.5t-72.5 -115t-141.5 -34.5t-141.5 34.5zM408.5 66.5q38.5 29.5 55.5 99t17 194.5v80q0 125 -17 194.5t-55.5 99t-108.5 29.5 t-109 -29.5t-55.5 -99t-15.5 -194.5v-80q0 -125 16.5 -194.5t55.5 -99t108 -29.5q70 0 108.5 29.5zM559 1026l-134 -117l-36 38l134 117zM434 868l-43 -33l-91 83l-92 -81l-42 33l134 118z" />
         <glyph glyph-name="uni1ED8" unicode="Ộ" d="M158.5 20.5q-50.5 34.5 -72 115t-21.5 224.5v80q0 144 21.5 224.5t72 115t141.5 34.5t141.5 -34.5t72.5 -115t22 -224.5v-80q0 -144 -22 -224.5t-72.5 -115t-141.5 -34.5t-141.5 34.5zM408.5 66.5q38.5 29.5 55.5 99t17 194.5v80q0 125 -17 194.5t-55.5 99t-108.5 29.5 t-109 -29.5t-55.5 -99t-15.5 -194.5v-80q0 -125 16.5 -194.5t55.5 -99t108 -29.5q70 0 108.5 29.5zM255 -212.5q-12 11.5 -12 42.5q0 32 12 43.5t45 11.5t45.5 -12t12.5 -43t-12.5 -42.5t-45.5 -11.5t-45 11.5zM434 900l-43 -33l-91 83l-92 -81l-42 33l134 118z" />
         <glyph glyph-name="uni1ED2" unicode="Ồ" d="M158.5 20.5q-50.5 34.5 -72 115t-21.5 224.5v80q0 144 21.5 224.5t72 115t141.5 34.5t141.5 -34.5t72.5 -115t22 -224.5v-80q0 -144 -22 -224.5t-72.5 -115t-141.5 -34.5t-141.5 34.5zM408.5 66.5q38.5 29.5 55.5 99t17 194.5v80q0 125 -17 194.5t-55.5 99t-108.5 29.5 t-109 -29.5t-55.5 -99t-15.5 -194.5v-80q0 -125 16.5 -194.5t55.5 -99t108 -29.5q70 0 108.5 29.5zM471 902l-116 106l40 34l119 -107zM434 868l-43 -33l-91 83l-92 -81l-42 33l134 118z" />
         <glyph glyph-name="uni1ED4" unicode="Ổ" d="M158.5 20.5q-50.5 34.5 -72 115t-21.5 224.5v80q0 144 21.5 224.5t72 115t141.5 34.5t141.5 -34.5t72.5 -115t22 -224.5v-80q0 -144 -22 -224.5t-72.5 -115t-141.5 -34.5t-141.5 34.5zM408.5 66.5q38.5 29.5 55.5 99t17 194.5v80q0 125 -17 194.5t-55.5 99t-108.5 29.5 t-109 -29.5t-55.5 -99t-15.5 -194.5v-80q0 -125 16.5 -194.5t55.5 -99t108 -29.5q70 0 108.5 29.5zM434 868l-43 -33l-91 83l-92 -81l-42 33l134 118zM450 930q32 8 48.5 21.5t16.5 29.5q0 14 -11 23.5t-26 9.5q-21 0 -44 -11.5t-41 -27.5v61q16 13 39.5 20.5t45.5 7.5 q40 0 66 -23t26 -59q0 -34 -28.5 -61.5t-78.5 -39.5z" />
         <glyph glyph-name="uni1ED6" unicode="Ỗ" d="M158.5 20.5q-50.5 34.5 -72 115t-21.5 224.5v80q0 144 21.5 224.5t72 115t141.5 34.5t141.5 -34.5t72.5 -115t22 -224.5v-80q0 -144 -22 -224.5t-72.5 -115t-141.5 -34.5t-141.5 34.5zM408.5 66.5q38.5 29.5 55.5 99t17 194.5v80q0 125 -17 194.5t-55.5 99t-108.5 29.5 t-109 -29.5t-55.5 -99t-15.5 -194.5v-80q0 -125 16.5 -194.5t55.5 -99t108 -29.5q70 0 108.5 29.5zM434 868l-43 -33l-91 83l-92 -81l-42 33l134 118zM543 922.5q-18 11.5 -41 32.5q-19 17 -31 25t-23 8q-19 0 -24 -12t-4 -39h-55q-1 45 22 73t61 28q20 0 37.5 -11t42.5 -33 q19 -17 31 -25t23 -8q19 0 24 11.5t4 36.5h55q1 -44 -22 -71t-61 -27q-21 0 -39 11.5z" />
         <glyph glyph-name="Odieresis" unicode="Ö" d="M158.5 20.5q-50.5 34.5 -72 115t-21.5 224.5v80q0 144 21.5 224.5t72 115t141.5 34.5t141.5 -34.5t72.5 -115t22 -224.5v-80q0 -144 -22 -224.5t-72.5 -115t-141.5 -34.5t-141.5 34.5zM408.5 66.5q38.5 29.5 55.5 99t17 194.5v80q0 125 -17 194.5t-55.5 99t-108.5 29.5 t-109 -29.5t-55.5 -99t-15.5 -194.5v-80q0 -125 16.5 -194.5t55.5 -99t108 -29.5q70 0 108.5 29.5zM147.5 926q-12.5 12 -12.5 43q0 29 12.5 40.5t44.5 11.5t45 -11.5t13 -40.5q0 -31 -12.5 -43t-45.5 -12q-32 0 -44.5 12zM363.5 926q-12.5 12 -12.5 43q0 29 12.5 40.5 t44.5 11.5t45 -11.5t13 -40.5q0 -31 -12.5 -43t-45.5 -12q-32 0 -44.5 12z" />
         <glyph glyph-name="uni1ECC" unicode="Ọ" d="M158.5 20.5q-50.5 34.5 -72 115t-21.5 224.5v80q0 144 21.5 224.5t72 115t141.5 34.5t141.5 -34.5t72.5 -115t22 -224.5v-80q0 -144 -22 -224.5t-72.5 -115t-141.5 -34.5t-141.5 34.5zM408.5 66.5q38.5 29.5 55.5 99t17 194.5v80q0 125 -17 194.5t-55.5 99t-108.5 29.5 t-109 -29.5t-55.5 -99t-15.5 -194.5v-80q0 -125 16.5 -194.5t55.5 -99t108 -29.5q70 0 108.5 29.5zM255 -212.5q-12 11.5 -12 42.5q0 32 12 43.5t45 11.5t45.5 -12t12.5 -43t-12.5 -42.5t-45.5 -11.5t-45 11.5z" />
         <glyph glyph-name="Ograve" unicode="Ò" d="M158.5 20.5q-50.5 34.5 -72 115t-21.5 224.5v80q0 144 21.5 224.5t72 115t141.5 34.5t141.5 -34.5t72.5 -115t22 -224.5v-80q0 -144 -22 -224.5t-72.5 -115t-141.5 -34.5t-141.5 34.5zM408.5 66.5q38.5 29.5 55.5 99t17 194.5v80q0 125 -17 194.5t-55.5 99t-108.5 29.5 t-109 -29.5t-55.5 -99t-15.5 -194.5v-80q0 -125 16.5 -194.5t55.5 -99t108 -29.5q70 0 108.5 29.5zM347 909l-37 -39l-138 122l36 38z" />
         <glyph glyph-name="uni1ECE" unicode="Ỏ" d="M158.5 20.5q-50.5 34.5 -72 115t-21.5 224.5v80q0 144 21.5 224.5t72 115t141.5 34.5t141.5 -34.5t72.5 -115t22 -224.5v-80q0 -144 -22 -224.5t-72.5 -115t-141.5 -34.5t-141.5 34.5zM408.5 66.5q38.5 29.5 55.5 99t17 194.5v80q0 125 -17 194.5t-55.5 99t-108.5 29.5 t-109 -29.5t-55.5 -99t-15.5 -194.5v-80q0 -125 16.5 -194.5t55.5 -99t108 -29.5q70 0 108.5 29.5zM269 889q32 8 48.5 21.5t16.5 29.5q0 14 -11 23.5t-26 9.5q-21 0 -44 -11.5t-41 -27.5v61q16 13 39.5 20.5t45.5 7.5q40 0 66 -23t26 -59q0 -34 -28.5 -61.5t-78.5 -39.5z " />
         <glyph glyph-name="Ohorn" unicode="Ơ" d="M607 907h55v-132q0 -56 -30.5 -90t-79.5 -34q-16 0 -37 8q21 -77 21 -219v-80q0 -144 -22 -224.5t-72.5 -115t-141.5 -34.5t-141.5 34.5t-72 115t-21.5 224.5v80q0 144 21.5 224.5t72 115t141.5 34.5q72 0 118.5 -21t72.5 -69q10 -11 26 -17t34 -6q26 0 41 20t15 54v132z M481 440q0 125 -17 194.5t-55.5 99t-108.5 29.5t-109 -29.5t-55.5 -99t-15.5 -194.5v-80q0 -125 16.5 -194.5t55.5 -99t108 -29.5q70 0 108.5 29.5t55.5 99t17 194.5v80z" />
         <glyph glyph-name="uni1EDA" unicode="Ớ" d="M607 907h55v-132q0 -56 -30.5 -90t-79.5 -34q-16 0 -37 8q21 -77 21 -219v-80q0 -144 -22 -224.5t-72.5 -115t-141.5 -34.5t-141.5 34.5t-72 115t-21.5 224.5v80q0 144 21.5 224.5t72 115t141.5 34.5q72 0 118.5 -21t72.5 -69q10 -11 26 -17t34 -6q26 0 41 20t15 54v132z M481 440q0 125 -17 194.5t-55.5 99t-108.5 29.5t-109 -29.5t-55.5 -99t-15.5 -194.5v-80q0 -125 16.5 -194.5t55.5 -99t108 -29.5q70 0 108.5 29.5t55.5 99t17 194.5v80zM429 992l-139 -122l-36 39l138 121z" />
         <glyph glyph-name="uni1EE2" unicode="Ợ" d="M607 907h55v-132q0 -56 -30.5 -90t-79.5 -34q-16 0 -37 8q21 -77 21 -219v-80q0 -144 -22 -224.5t-72.5 -115t-141.5 -34.5t-141.5 34.5t-72 115t-21.5 224.5v80q0 144 21.5 224.5t72 115t141.5 34.5q72 0 118.5 -21t72.5 -69q10 -11 26 -17t34 -6q26 0 41 20t15 54v132z M481 440q0 125 -17 194.5t-55.5 99t-108.5 29.5t-109 -29.5t-55.5 -99t-15.5 -194.5v-80q0 -125 16.5 -194.5t55.5 -99t108 -29.5q70 0 108.5 29.5t55.5 99t17 194.5v80zM255 -212.5q-12 11.5 -12 42.5q0 32 12 43.5t45 11.5t45.5 -12t12.5 -43t-12.5 -42.5t-45.5 -11.5 t-45 11.5z" />
         <glyph glyph-name="uni1EDC" unicode="Ờ" d="M607 907h55v-132q0 -56 -30.5 -90t-79.5 -34q-16 0 -37 8q21 -77 21 -219v-80q0 -144 -22 -224.5t-72.5 -115t-141.5 -34.5t-141.5 34.5t-72 115t-21.5 224.5v80q0 144 21.5 224.5t72 115t141.5 34.5q72 0 118.5 -21t72.5 -69q10 -11 26 -17t34 -6q26 0 41 20t15 54v132z M481 440q0 125 -17 194.5t-55.5 99t-108.5 29.5t-109 -29.5t-55.5 -99t-15.5 -194.5v-80q0 -125 16.5 -194.5t55.5 -99t108 -29.5q70 0 108.5 29.5t55.5 99t17 194.5v80zM347 909l-37 -39l-138 122l36 38z" />
         <glyph glyph-name="uni1EDE" unicode="Ở" d="M607 907h55v-132q0 -56 -30.5 -90t-79.5 -34q-16 0 -37 8q21 -77 21 -219v-80q0 -144 -22 -224.5t-72.5 -115t-141.5 -34.5t-141.5 34.5t-72 115t-21.5 224.5v80q0 144 21.5 224.5t72 115t141.5 34.5q72 0 118.5 -21t72.5 -69q10 -11 26 -17t34 -6q26 0 41 20t15 54v132z M481 440q0 125 -17 194.5t-55.5 99t-108.5 29.5t-109 -29.5t-55.5 -99t-15.5 -194.5v-80q0 -125 16.5 -194.5t55.5 -99t108 -29.5q70 0 108.5 29.5t55.5 99t17 194.5v80zM269 889q32 8 48.5 21.5t16.5 29.5q0 14 -11 23.5t-26 9.5q-21 0 -44 -11.5t-41 -27.5v61 q16 13 39.5 20.5t45.5 7.5q40 0 66 -23t26 -59q0 -34 -28.5 -61.5t-78.5 -39.5z" />
         <glyph glyph-name="uni1EE0" unicode="Ỡ" d="M607 907h55v-132q0 -56 -30.5 -90t-79.5 -34q-16 0 -37 8q21 -77 21 -219v-80q0 -144 -22 -224.5t-72.5 -115t-141.5 -34.5t-141.5 34.5t-72 115t-21.5 224.5v80q0 144 21.5 224.5t72 115t141.5 34.5q72 0 118.5 -21t72.5 -69q10 -11 26 -17t34 -6q26 0 41 20t15 54v132z M481 440q0 125 -17 194.5t-55.5 99t-108.5 29.5t-109 -29.5t-55.5 -99t-15.5 -194.5v-80q0 -125 16.5 -194.5t55.5 -99t108 -29.5q70 0 108.5 29.5t55.5 99t17 194.5v80zM328 896.5q-18 11.5 -41 32.5q-19 17 -31 25t-23 8q-19 0 -24 -12t-4 -39h-55q-1 45 22 73t61 28 q20 0 37.5 -11t42.5 -33q19 -17 31 -25t23 -8q19 0 24 11.5t4 36.5h55q1 -44 -22 -71t-61 -27q-21 0 -39 11.5z" />
         <glyph glyph-name="Ohungarumlaut" unicode="Ő" d="M158.5 20.5q-50.5 34.5 -72 115t-21.5 224.5v80q0 144 21.5 224.5t72 115t141.5 34.5t141.5 -34.5t72.5 -115t22 -224.5v-80q0 -144 -22 -224.5t-72.5 -115t-141.5 -34.5t-141.5 34.5zM408.5 66.5q38.5 29.5 55.5 99t17 194.5v80q0 125 -17 194.5t-55.5 99t-108.5 29.5 t-109 -29.5t-55.5 -99t-15.5 -194.5v-80q0 -125 16.5 -194.5t55.5 -99t108 -29.5q70 0 108.5 29.5zM298 992l-139 -122l-36 39l139 121zM477 992l-139 -122l-36 39l139 121z" />
         <glyph glyph-name="Omacron" unicode="Ō" d="M158.5 20.5q-50.5 34.5 -72 115t-21.5 224.5v80q0 144 21.5 224.5t72 115t141.5 34.5t141.5 -34.5t72.5 -115t22 -224.5v-80q0 -144 -22 -224.5t-72.5 -115t-141.5 -34.5t-141.5 34.5zM408.5 66.5q38.5 29.5 55.5 99t17 194.5v80q0 125 -17 194.5t-55.5 99t-108.5 29.5 t-109 -29.5t-55.5 -99t-15.5 -194.5v-80q0 -125 16.5 -194.5t55.5 -99t108 -29.5q70 0 108.5 29.5zM440 907h-279v50h279v-50z" />
         <glyph glyph-name="Oslash" unicode="Ø" d="M539 850l-54 -117q27 -43 39 -113.5t12 -179.5v-80q0 -144 -22 -224.5t-72.5 -115t-141.5 -34.5q-94 0 -144 37l-34 -73h-61l54 117q-26 43 -38 114t-12 179v80q0 144 21.5 224.5t72 115t141.5 34.5q94 0 144 -37l34 73h61zM120 360q0 -158 26 -226l273 590 q-38 39 -119 39q-70 0 -108.5 -29.5t-55 -99t-16.5 -194.5v-80zM481 440q0 156 -27 227l-273 -590q20 -21 49 -30.5t70 -9.5q70 0 108.5 29.5t55.5 99t17 194.5v80z" />
         <glyph glyph-name="Otilde" unicode="Õ" d="M158.5 20.5q-50.5 34.5 -72 115t-21.5 224.5v80q0 144 21.5 224.5t72 115t141.5 34.5t141.5 -34.5t72.5 -115t22 -224.5v-80q0 -144 -22 -224.5t-72.5 -115t-141.5 -34.5t-141.5 34.5zM408.5 66.5q38.5 29.5 55.5 99t17 194.5v80q0 125 -17 194.5t-55.5 99t-108.5 29.5 t-109 -29.5t-55.5 -99t-15.5 -194.5v-80q0 -125 16.5 -194.5t55.5 -99t108 -29.5q70 0 108.5 29.5zM328 896.5q-18 11.5 -41 32.5q-19 17 -31 25t-23 8q-19 0 -24 -12t-4 -39h-55q-1 45 22 73t61 28q20 0 37.5 -11t42.5 -33q19 -17 31 -25t23 -8q19 0 24 11.5t4 36.5h55 q1 -44 -22 -71t-61 -27q-21 0 -39 11.5z" />
         <glyph glyph-name="OE" unicode="Œ" d="M598 749h-227v-301h137v-50h-137v-347h227v-51h-282v46q-21 -32 -53 -46t-77 -14q-71 0 -110.5 38.5t-56.5 127t-17 247.5q0 160 17 249t56.5 127.5t110.5 38.5q45 0 77 -15t53 -47v48h282v-51zM264 70.5q28 33.5 40 111t12 217.5q0 141 -12 219t-40 111.5t-78 33.5 q-49 0 -77 -33.5t-40 -112t-12 -218.5t12 -217.5t40 -111t77 -33.5q50 0 78 33.5z" />
         <glyph glyph-name="P" unicode="P" d="M320 800q83 0 130 -21t67.5 -69t20.5 -134q0 -87 -20.5 -135t-67 -69t-130.5 -21h-161v-351h-55v800h216zM320 402q63 0 98 15.5t50 53t15 105.5q0 67 -15 104t-50 53t-98 16h-161v-347h161z" />
         <glyph glyph-name="Thorn" unicode="Þ" d="M300 606q84 0 130.5 -19t67 -63.5t20.5 -123.5t-20.5 -123.5t-67 -63.5t-130.5 -19h-141v-194h-55v800h55v-194h141zM300 244q63 0 98 14.5t50 47.5t15 94t-15 94t-50 47.5t-98 14.5h-141v-312h141z" />
         <glyph glyph-name="Q" unicode="Q" d="M506 -103q5 1 24.5 5.5t36.5 6.5t31 2v-50q-38 0 -83 -14q-31 -8 -50.5 -11.5t-44.5 -3.5q-30 0 -52 7t-50 22t-52.5 22.5t-58.5 7.5h-30v51q57 -1 91 45q-78 6 -121.5 43.5t-62.5 116t-19 213.5v80q0 144 21.5 224.5t72 115t141.5 34.5t141.5 -34.5t72.5 -115t22 -224.5 v-80q0 -136 -19 -214.5t-63.5 -115.5t-122.5 -43q-5 -18 -16 -34t-24 -24q12 -3 42 -18q28 -14 48 -21t39 -7q28 0 86 14zM120 360q0 -125 16.5 -194.5t55.5 -99t108 -29.5q70 0 108.5 29.5t55.5 99t17 194.5v80q0 125 -17 194.5t-55.5 99t-108.5 29.5t-109 -29.5t-55.5 -99 t-15.5 -194.5v-80z" />
         <glyph glyph-name="R" unicode="R" d="M487 0l-230 351h-106v-351h-55v800h216q83 0 130 -21t67.5 -69t20.5 -134q0 -85 -19.5 -133t-64.5 -69.5t-124 -22.5l228 -351h-63zM151 749v-347h161q63 0 98 15.5t50 53t15 105.5q0 67 -15 104t-50 53t-98 16h-161z" />
         <glyph glyph-name="Racute" unicode="Ŕ" d="M487 0l-230 351h-106v-351h-55v800h216q83 0 130 -21t67.5 -69t20.5 -134q0 -85 -19.5 -133t-64.5 -69.5t-124 -22.5l228 -351h-63zM151 749v-347h161q63 0 98 15.5t50 53t15 105.5q0 67 -15 104t-50 53t-98 16h-161zM429 989l-139 -122l-36 39l138 121z" />
         <glyph glyph-name="Rcaron" unicode="Ř" d="M487 0l-230 351h-106v-351h-55v800h216q83 0 130 -21t67.5 -69t20.5 -134q0 -85 -19.5 -133t-64.5 -69.5t-124 -22.5l228 -351h-63zM151 749v-347h161q63 0 98 15.5t50 53t15 105.5q0 67 -15 104t-50 53t-98 16h-161zM434 991l-134 -120l-134 118l42 33l92 -81l91 83z " />
         <glyph glyph-name="uni0156" unicode="Ŗ" d="M487 0l-230 351h-106v-351h-55v800h216q83 0 130 -21t67.5 -69t20.5 -134q0 -85 -19.5 -133t-64.5 -69.5t-124 -22.5l228 -351h-63zM151 749v-347h161q63 0 98 15.5t50 53t15 105.5q0 67 -15 104t-50 53t-98 16h-161zM292 -124q-14 2 -20 11.5t-6 27.5q0 24 9.5 33 t35.5 9q25 0 34.5 -9t9.5 -33q0 -27 -21 -71t-51 -90h-38z" />
         <glyph glyph-name="S" unicode="S" d="M191 -3.5q-42 10.5 -71 34.5t-52 67l41 39q17 -39 40 -60.5t58.5 -30.5t92.5 -9q67 0 103.5 16.5t52.5 55t16 107.5q0 48 -16 79.5t-53 54.5t-104 46q-82 27 -127 55t-64.5 64.5t-19.5 91.5q0 80 19.5 124.5t65 63.5t127.5 19q90 0 136 -21t79 -76l-38 -41 q-25 50 -62.5 68.5t-114.5 18.5q-62 0 -95.5 -14.5t-47.5 -47.5t-14 -94q0 -42 14.5 -69.5t48 -48t95.5 -39.5q87 -27 135.5 -57t69.5 -71.5t21 -105.5q0 -89 -21 -138t-70 -70.5t-136 -21.5q-67 0 -109 10.5z" />
         <glyph glyph-name="Sacute" unicode="Ś" d="M191 -3.5q-42 10.5 -71 34.5t-52 67l41 39q17 -39 40 -60.5t58.5 -30.5t92.5 -9q67 0 103.5 16.5t52.5 55t16 107.5q0 48 -16 79.5t-53 54.5t-104 46q-82 27 -127 55t-64.5 64.5t-19.5 91.5q0 80 19.5 124.5t65 63.5t127.5 19q90 0 136 -21t79 -76l-38 -41 q-25 50 -62.5 68.5t-114.5 18.5q-62 0 -95.5 -14.5t-47.5 -47.5t-14 -94q0 -42 14.5 -69.5t48 -48t95.5 -39.5q87 -27 135.5 -57t69.5 -71.5t21 -105.5q0 -89 -21 -138t-70 -70.5t-136 -21.5q-67 0 -109 10.5zM429 992l-139 -122l-36 39l138 121z" />
         <glyph glyph-name="Scaron" unicode="Š" d="M191 -3.5q-42 10.5 -71 34.5t-52 67l41 39q17 -39 40 -60.5t58.5 -30.5t92.5 -9q67 0 103.5 16.5t52.5 55t16 107.5q0 48 -16 79.5t-53 54.5t-104 46q-82 27 -127 55t-64.5 64.5t-19.5 91.5q0 80 19.5 124.5t65 63.5t127.5 19q90 0 136 -21t79 -76l-38 -41 q-25 50 -62.5 68.5t-114.5 18.5q-62 0 -95.5 -14.5t-47.5 -47.5t-14 -94q0 -42 14.5 -69.5t48 -48t95.5 -39.5q87 -27 135.5 -57t69.5 -71.5t21 -105.5q0 -89 -21 -138t-70 -70.5t-136 -21.5q-67 0 -109 10.5zM434 994l-134 -120l-134 118l42 33l92 -81l91 83z" />
         <glyph glyph-name="Scedilla" unicode="Ş" d="M508.5 84q-18.5 -48 -61.5 -71t-119 -26v-28q33 -8 53.5 -28t20.5 -46q0 -38 -29.5 -62t-78.5 -24q-25 0 -49 8t-39 22l23 45q12 -11 30.5 -17.5t34.5 -6.5q24 0 38.5 9.5t14.5 25.5q0 15 -20.5 23.5t-53.5 8.5v69q-83 3 -127.5 27.5t-77.5 84.5l41 39q17 -39 40 -60.5 t58.5 -30.5t92.5 -9q67 0 103.5 16.5t52.5 55t16 107.5q0 48 -16 79.5t-53 54.5t-104 46q-82 27 -127 55t-64.5 64.5t-19.5 91.5q0 80 19.5 124.5t65 63.5t127.5 19q90 0 136 -21t79 -76l-38 -41q-25 50 -62.5 68.5t-114.5 18.5q-62 0 -95.5 -14.5t-47.5 -47.5t-14 -94 q0 -42 14.5 -69.5t48 -48t95.5 -39.5q87 -27 135.5 -57t69.5 -71.5t21 -105.5q0 -84 -18.5 -132z" />
         <glyph glyph-name="Scircumflex" unicode="Ŝ" d="M191 -3.5q-42 10.5 -71 34.5t-52 67l41 39q17 -39 40 -60.5t58.5 -30.5t92.5 -9q67 0 103.5 16.5t52.5 55t16 107.5q0 48 -16 79.5t-53 54.5t-104 46q-82 27 -127 55t-64.5 64.5t-19.5 91.5q0 80 19.5 124.5t65 63.5t127.5 19q90 0 136 -21t79 -76l-38 -41 q-25 50 -62.5 68.5t-114.5 18.5q-62 0 -95.5 -14.5t-47.5 -47.5t-14 -94q0 -42 14.5 -69.5t48 -48t95.5 -39.5q87 -27 135.5 -57t69.5 -71.5t21 -105.5q0 -89 -21 -138t-70 -70.5t-136 -21.5q-67 0 -109 10.5zM434 900l-43 -33l-91 83l-92 -81l-42 33l134 118z" />
         <glyph glyph-name="uni0218" unicode="Ș" d="M191 -3.5q-42 10.5 -71 34.5t-52 67l41 39q17 -39 40 -60.5t58.5 -30.5t92.5 -9q67 0 103.5 16.5t52.5 55t16 107.5q0 48 -16 79.5t-53 54.5t-104 46q-82 27 -127 55t-64.5 64.5t-19.5 91.5q0 80 19.5 124.5t65 63.5t127.5 19q90 0 136 -21t79 -76l-38 -41 q-25 50 -62.5 68.5t-114.5 18.5q-62 0 -95.5 -14.5t-47.5 -47.5t-14 -94q0 -42 14.5 -69.5t48 -48t95.5 -39.5q87 -27 135.5 -57t69.5 -71.5t21 -105.5q0 -89 -21 -138t-70 -70.5t-136 -21.5q-67 0 -109 10.5zM292 -124q-14 2 -20 11.5t-6 27.5q0 24 9.5 33t35.5 9 q25 0 34.5 -9t9.5 -33q0 -27 -21 -71t-51 -90h-38z" />
         <glyph glyph-name="uni1E9E" unicode="ẞ" d="M380 472q76 -2 119.5 -25.5t62 -75.5t18.5 -142q0 -97 -19.5 -149t-64.5 -73t-128 -21q-73 0 -113 14t-57 46t-17 90h55q0 -39 12 -60t40 -30t80 -9q62 0 95 16.5t47.5 57.5t14.5 118q0 73 -14.5 114.5t-48.5 60t-94 18.5h-82l203 327h-221q-82 0 -131 -50t-49 -133v-566 h-55v566q0 109 64 171.5t177 62.5h308z" />
         <glyph glyph-name="T" unicode="T" d="M571 800v-51h-243v-749h-55v749h-243v51h541z" />
         <glyph glyph-name="Tbar" unicode="Ŧ" d="M571 800v-51h-243v-301h162v-50h-162v-398h-55v398h-162v50h162v301h-243v51h541z" />
         <glyph glyph-name="Tcaron" unicode="Ť" d="M571 800v-51h-243v-749h-55v749h-243v51h541zM434 991l-134 -120l-134 118l42 33l92 -81l91 83z" />
         <glyph glyph-name="uni0162" unicode="Ţ" d="M328 -41q33 -8 53.5 -28t20.5 -46q0 -38 -29.5 -62t-78.5 -24q-25 0 -49 8t-39 22l23 45q12 -11 30.5 -17.5t34.5 -6.5q24 0 38.5 9.5t14.5 25.5q0 15 -20.5 23.5t-53.5 8.5v832h-243v51h541v-51h-243v-790z" />
         <glyph glyph-name="uni021A" unicode="Ț" d="M571 800v-51h-243v-749h-55v749h-243v51h541zM292 -124q-14 2 -20 11.5t-6 27.5q0 24 9.5 33t35.5 9q25 0 34.5 -9t9.5 -33q0 -27 -21 -71t-51 -90h-38z" />
         <glyph glyph-name="U" unicode="U" d="M171 14.5q-46 28.5 -65.5 94.5t-19.5 185v506h55v-506q0 -100 14.5 -155t48.5 -78.5t96 -23.5t96 23.5t49 78.5t15 155v506h55v-506q0 -119 -20 -185t-66 -94.5t-129 -28.5t-129 28.5z" />
         <glyph glyph-name="Uacute" unicode="Ú" d="M171 14.5q-46 28.5 -65.5 94.5t-19.5 185v506h55v-506q0 -100 14.5 -155t48.5 -78.5t96 -23.5t96 23.5t49 78.5t15 155v506h55v-506q0 -119 -20 -185t-66 -94.5t-129 -28.5t-129 28.5zM429 992l-139 -122l-36 39l138 121z" />
         <glyph glyph-name="Ubreve" unicode="Ŭ" d="M171 14.5q-46 28.5 -65.5 94.5t-19.5 185v506h55v-506q0 -100 14.5 -155t48.5 -78.5t96 -23.5t96 23.5t49 78.5t15 155v506h55v-506q0 -119 -20 -185t-66 -94.5t-129 -28.5t-129 28.5zM223 879q-27 11 -39 36.5t-11 71.5h55q-1 -39 14.5 -54t56.5 -15q43 0 58.5 15 t15.5 54h55q0 -46 -12 -71.5t-39.5 -36.5t-77.5 -11q-49 0 -76 11z" />
         <glyph glyph-name="uni01D3" unicode="Ǔ" d="M171 14.5q-46 28.5 -65.5 94.5t-19.5 185v506h55v-506q0 -100 14.5 -155t48.5 -78.5t96 -23.5t96 23.5t49 78.5t15 155v506h55v-506q0 -119 -20 -185t-66 -94.5t-129 -28.5t-129 28.5zM434 994l-134 -120l-134 118l42 33l92 -81l91 83z" />
         <glyph glyph-name="Ucircumflex" unicode="Û" d="M171 14.5q-46 28.5 -65.5 94.5t-19.5 185v506h55v-506q0 -100 14.5 -155t48.5 -78.5t96 -23.5t96 23.5t49 78.5t15 155v506h55v-506q0 -119 -20 -185t-66 -94.5t-129 -28.5t-129 28.5zM434 900l-43 -33l-91 83l-92 -81l-42 33l134 118z" />
         <glyph glyph-name="Udieresis" unicode="Ü" d="M171 14.5q-46 28.5 -65.5 94.5t-19.5 185v506h55v-506q0 -100 14.5 -155t48.5 -78.5t96 -23.5t96 23.5t49 78.5t15 155v506h55v-506q0 -119 -20 -185t-66 -94.5t-129 -28.5t-129 28.5zM147.5 926q-12.5 12 -12.5 43q0 29 12.5 40.5t44.5 11.5t45 -11.5t13 -40.5 q0 -31 -12.5 -43t-45.5 -12q-32 0 -44.5 12zM363.5 926q-12.5 12 -12.5 43q0 29 12.5 40.5t44.5 11.5t45 -11.5t13 -40.5q0 -31 -12.5 -43t-45.5 -12q-32 0 -44.5 12z" />
         <glyph glyph-name="uni01D7" unicode="Ǘ" d="M171 14.5q-46 28.5 -65.5 94.5t-19.5 185v506h55v-506q0 -100 14.5 -155t48.5 -78.5t96 -23.5t96 23.5t49 78.5t15 155v506h55v-506q0 -119 -20 -185t-66 -94.5t-129 -28.5t-129 28.5zM147.5 834q-12.5 12 -12.5 43q0 29 12.5 40.5t44.5 11.5t45 -11.5t13 -40.5 q0 -31 -12.5 -43t-45.5 -12q-32 0 -44.5 12zM363.5 834q-12.5 12 -12.5 43q0 29 12.5 40.5t44.5 11.5t45 -11.5t13 -40.5q0 -31 -12.5 -43t-45.5 -12q-32 0 -44.5 12zM429 1052l-139 -122l-36 39l138 121z" />
         <glyph glyph-name="uni01D9" unicode="Ǚ" d="M171 14.5q-46 28.5 -65.5 94.5t-19.5 185v506h55v-506q0 -100 14.5 -155t48.5 -78.5t96 -23.5t96 23.5t49 78.5t15 155v506h55v-506q0 -119 -20 -185t-66 -94.5t-129 -28.5t-129 28.5zM147.5 834q-12.5 12 -12.5 43q0 29 12.5 40.5t44.5 11.5t45 -11.5t13 -40.5 q0 -31 -12.5 -43t-45.5 -12q-32 0 -44.5 12zM363.5 834q-12.5 12 -12.5 43q0 29 12.5 40.5t44.5 11.5t45 -11.5t13 -40.5q0 -31 -12.5 -43t-45.5 -12q-32 0 -44.5 12zM434 1060l-134 -120l-134 118l42 33l92 -81l91 83z" />
         <glyph glyph-name="uni01DB" unicode="Ǜ" d="M171 14.5q-46 28.5 -65.5 94.5t-19.5 185v506h55v-506q0 -100 14.5 -155t48.5 -78.5t96 -23.5t96 23.5t49 78.5t15 155v506h55v-506q0 -119 -20 -185t-66 -94.5t-129 -28.5t-129 28.5zM147.5 834q-12.5 12 -12.5 43q0 29 12.5 40.5t44.5 11.5t45 -11.5t13 -40.5 q0 -31 -12.5 -43t-45.5 -12q-32 0 -44.5 12zM363.5 834q-12.5 12 -12.5 43q0 29 12.5 40.5t44.5 11.5t45 -11.5t13 -40.5q0 -31 -12.5 -43t-45.5 -12q-32 0 -44.5 12zM347 969l-37 -39l-138 122l36 38z" />
         <glyph glyph-name="uni01D5" unicode="Ǖ" d="M171 14.5q-46 28.5 -65.5 94.5t-19.5 185v506h55v-506q0 -100 14.5 -155t48.5 -78.5t96 -23.5t96 23.5t49 78.5t15 155v506h55v-506q0 -119 -20 -185t-66 -94.5t-129 -28.5t-129 28.5zM147.5 834q-12.5 12 -12.5 43q0 29 12.5 40.5t44.5 11.5t45 -11.5t13 -40.5 q0 -31 -12.5 -43t-45.5 -12q-32 0 -44.5 12zM363.5 834q-12.5 12 -12.5 43q0 29 12.5 40.5t44.5 11.5t45 -11.5t13 -40.5q0 -31 -12.5 -43t-45.5 -12q-32 0 -44.5 12zM440 1030h-279v50h279v-50z" />
         <glyph glyph-name="uni1EE4" unicode="Ụ" d="M171 14.5q-46 28.5 -65.5 94.5t-19.5 185v506h55v-506q0 -100 14.5 -155t48.5 -78.5t96 -23.5t96 23.5t49 78.5t15 155v506h55v-506q0 -119 -20 -185t-66 -94.5t-129 -28.5t-129 28.5zM255 -212.5q-12 11.5 -12 42.5q0 32 12 43.5t45 11.5t45.5 -12t12.5 -43t-12.5 -42.5 t-45.5 -11.5t-45 11.5z" />
         <glyph glyph-name="Ugrave" unicode="Ù" d="M171 14.5q-46 28.5 -65.5 94.5t-19.5 185v506h55v-506q0 -100 14.5 -155t48.5 -78.5t96 -23.5t96 23.5t49 78.5t15 155v506h55v-506q0 -119 -20 -185t-66 -94.5t-129 -28.5t-129 28.5zM347 909l-37 -39l-138 122l36 38z" />
         <glyph glyph-name="uni1EE6" unicode="Ủ" d="M171 14.5q-46 28.5 -65.5 94.5t-19.5 185v506h55v-506q0 -100 14.5 -155t48.5 -78.5t96 -23.5t96 23.5t49 78.5t15 155v506h55v-506q0 -119 -20 -185t-66 -94.5t-129 -28.5t-129 28.5zM269 889q32 8 48.5 21.5t16.5 29.5q0 14 -11 23.5t-26 9.5q-21 0 -44 -11.5 t-41 -27.5v61q16 13 39.5 20.5t45.5 7.5q40 0 66 -23t26 -59q0 -34 -28.5 -61.5t-78.5 -39.5z" />
         <glyph glyph-name="Uhorn" unicode="Ư" d="M607 977h55v-133q0 -56 -30.5 -90t-79.5 -34q-19 0 -37 9v-435q0 -119 -20 -185t-66 -94.5t-129 -28.5t-129 28.5t-65.5 94.5t-19.5 185v506h55v-506q0 -100 14.5 -155t48.5 -78.5t96 -23.5t96 23.5t49 78.5t15 155v506h55v-22q15 -7 36 -7q25 0 40.5 20t15.5 53v133z " />
         <glyph glyph-name="uni1EE8" unicode="Ứ" d="M607 977h55v-133q0 -56 -30.5 -90t-79.5 -34q-19 0 -37 9v-435q0 -119 -20 -185t-66 -94.5t-129 -28.5t-129 28.5t-65.5 94.5t-19.5 185v506h55v-506q0 -100 14.5 -155t48.5 -78.5t96 -23.5t96 23.5t49 78.5t15 155v506h55v-22q15 -7 36 -7q25 0 40.5 20t15.5 53v133z M429 992l-139 -122l-36 39l138 121z" />
         <glyph glyph-name="uni1EF0" unicode="Ự" d="M607 977h55v-133q0 -56 -30.5 -90t-79.5 -34q-19 0 -37 9v-435q0 -119 -20 -185t-66 -94.5t-129 -28.5t-129 28.5t-65.5 94.5t-19.5 185v506h55v-506q0 -100 14.5 -155t48.5 -78.5t96 -23.5t96 23.5t49 78.5t15 155v506h55v-22q15 -7 36 -7q25 0 40.5 20t15.5 53v133z M255 -212.5q-12 11.5 -12 42.5q0 32 12 43.5t45 11.5t45.5 -12t12.5 -43t-12.5 -42.5t-45.5 -11.5t-45 11.5z" />
         <glyph glyph-name="uni1EEA" unicode="Ừ" d="M607 977h55v-133q0 -56 -30.5 -90t-79.5 -34q-19 0 -37 9v-435q0 -119 -20 -185t-66 -94.5t-129 -28.5t-129 28.5t-65.5 94.5t-19.5 185v506h55v-506q0 -100 14.5 -155t48.5 -78.5t96 -23.5t96 23.5t49 78.5t15 155v506h55v-22q15 -7 36 -7q25 0 40.5 20t15.5 53v133z M347 909l-37 -39l-138 122l36 38z" />
         <glyph glyph-name="uni1EEC" unicode="Ử" d="M607 977h55v-133q0 -56 -30.5 -90t-79.5 -34q-19 0 -37 9v-435q0 -119 -20 -185t-66 -94.5t-129 -28.5t-129 28.5t-65.5 94.5t-19.5 185v506h55v-506q0 -100 14.5 -155t48.5 -78.5t96 -23.5t96 23.5t49 78.5t15 155v506h55v-22q15 -7 36 -7q25 0 40.5 20t15.5 53v133z M269 889q32 8 48.5 21.5t16.5 29.5q0 14 -11 23.5t-26 9.5q-21 0 -44 -11.5t-41 -27.5v61q16 13 39.5 20.5t45.5 7.5q40 0 66 -23t26 -59q0 -34 -28.5 -61.5t-78.5 -39.5z" />
         <glyph glyph-name="uni1EEE" unicode="Ữ" d="M607 977h55v-133q0 -56 -30.5 -90t-79.5 -34q-19 0 -37 9v-435q0 -119 -20 -185t-66 -94.5t-129 -28.5t-129 28.5t-65.5 94.5t-19.5 185v506h55v-506q0 -100 14.5 -155t48.5 -78.5t96 -23.5t96 23.5t49 78.5t15 155v506h55v-22q15 -7 36 -7q25 0 40.5 20t15.5 53v133z M328 896.5q-18 11.5 -41 32.5q-19 17 -31 25t-23 8q-19 0 -24 -12t-4 -39h-55q-1 45 22 73t61 28q20 0 37.5 -11t42.5 -33q19 -17 31 -25t23 -8q19 0 24 11.5t4 36.5h55q1 -44 -22 -71t-61 -27q-21 0 -39 11.5z" />
         <glyph glyph-name="Uhungarumlaut" unicode="Ű" d="M171 14.5q-46 28.5 -65.5 94.5t-19.5 185v506h55v-506q0 -100 14.5 -155t48.5 -78.5t96 -23.5t96 23.5t49 78.5t15 155v506h55v-506q0 -119 -20 -185t-66 -94.5t-129 -28.5t-129 28.5zM298 992l-139 -122l-36 39l139 121zM477 992l-139 -122l-36 39l139 121z" />
         <glyph glyph-name="Umacron" unicode="Ū" d="M171 14.5q-46 28.5 -65.5 94.5t-19.5 185v506h55v-506q0 -100 14.5 -155t48.5 -78.5t96 -23.5t96 23.5t49 78.5t15 155v506h55v-506q0 -119 -20 -185t-66 -94.5t-129 -28.5t-129 28.5zM440 907h-279v50h279v-50z" />
         <glyph glyph-name="Uogonek" unicode="Ų" d="M460 800h55v-506q0 -101 -14 -163t-46.5 -95.5t-88.5 -44.5l-23 -13q-54 -31 -79 -49.5t-25 -39.5q1 -16 15 -25.5t38 -9.5q16 0 33 6.5t29 16.5l26 -44q-15 -14 -39 -22t-49 -8q-50 0 -78.5 19t-28.5 56q0 51 107 108q-80 2 -124 31t-63 94.5t-19 182.5v506h55v-506 q0 -100 14.5 -155t48.5 -78.5t96 -23.5t96 23.5t49 78.5t15 155v506z" />
         <glyph glyph-name="Uring" unicode="Ů" d="M171 14.5q-46 28.5 -65.5 94.5t-19.5 185v506h55v-506q0 -100 14.5 -155t48.5 -78.5t96 -23.5t96 23.5t49 78.5t15 155v506h55v-506q0 -119 -20 -185t-66 -94.5t-129 -28.5t-129 28.5zM200.5 778.5q-27.5 25.5 -27.5 92.5q0 66 27.5 91.5t98.5 25.5q50 0 77.5 -11 t39.5 -36t12 -70t-12 -70.5t-39.5 -36.5t-77.5 -11q-71 0 -98.5 25.5zM357.5 818.5q15.5 14.5 15.5 52.5t-15.5 52t-58.5 14q-40 0 -55.5 -14t-15.5 -52t15 -52.5t56 -14.5q43 0 58.5 14.5z" />
         <glyph glyph-name="Utilde" unicode="Ũ" d="M171 14.5q-46 28.5 -65.5 94.5t-19.5 185v506h55v-506q0 -100 14.5 -155t48.5 -78.5t96 -23.5t96 23.5t49 78.5t15 155v506h55v-506q0 -119 -20 -185t-66 -94.5t-129 -28.5t-129 28.5zM328 896.5q-18 11.5 -41 32.5q-19 17 -31 25t-23 8q-19 0 -24 -12t-4 -39h-55 q-1 45 22 73t61 28q20 0 37.5 -11t42.5 -33q19 -17 31 -25t23 -8q19 0 24 11.5t4 36.5h55q1 -44 -22 -71t-61 -27q-21 0 -39 11.5z" />
         <glyph glyph-name="V" unicode="V" d="M330 0h-60l-219 800h59l190 -700l190 700h59z" />
         <glyph glyph-name="W" unicode="W" d="M196 0h-56l-108 800h56l88 -671l97 409h54l97 -409l88 671h56l-108 -800h-55l-105 434z" />
         <glyph glyph-name="Wacute" unicode="Ẃ" d="M196 0h-56l-108 800h56l88 -671l97 409h54l97 -409l88 671h56l-108 -800h-55l-105 434zM429 992l-139 -122l-36 39l138 121z" />
         <glyph glyph-name="Wcircumflex" unicode="Ŵ" d="M196 0h-56l-108 800h56l88 -671l97 409h54l97 -409l88 671h56l-108 -800h-55l-105 434zM434 900l-43 -33l-91 83l-92 -81l-42 33l134 118z" />
         <glyph glyph-name="Wdieresis" unicode="Ẅ" d="M196 0h-56l-108 800h56l88 -671l97 409h54l97 -409l88 671h56l-108 -800h-55l-105 434zM147.5 926q-12.5 12 -12.5 43q0 29 12.5 40.5t44.5 11.5t45 -11.5t13 -40.5q0 -31 -12.5 -43t-45.5 -12q-32 0 -44.5 12zM363.5 926q-12.5 12 -12.5 43q0 29 12.5 40.5t44.5 11.5 t45 -11.5t13 -40.5q0 -31 -12.5 -43t-45.5 -12q-32 0 -44.5 12z" />
         <glyph glyph-name="Wgrave" unicode="Ẁ" d="M196 0h-56l-108 800h56l88 -671l97 409h54l97 -409l88 671h56l-108 -800h-55l-105 434zM347 909l-37 -39l-138 122l36 38z" />
         <glyph glyph-name="X" unicode="X" d="M482 800h61l-212 -400l212 -400h-61l-182 343l-182 -343h-61l213 400l-213 400h61l182 -343z" />
         <glyph glyph-name="Y" unicode="Y" d="M328 0h-55v307l-235 493h61l201 -425l201 425h61l-234 -493v-307z" />
         <glyph glyph-name="Yacute" unicode="Ý" d="M328 0h-55v307l-235 493h61l201 -425l201 425h61l-234 -493v-307zM429 992l-139 -122l-36 39l138 121z" />
         <glyph glyph-name="Ycircumflex" unicode="Ŷ" d="M328 0h-55v307l-235 493h61l201 -425l201 425h61l-234 -493v-307zM434 900l-43 -33l-91 83l-92 -81l-42 33l134 118z" />
         <glyph glyph-name="Ydieresis" unicode="Ÿ" d="M328 0h-55v307l-235 493h61l201 -425l201 425h61l-234 -493v-307zM147.5 926q-12.5 12 -12.5 43q0 29 12.5 40.5t44.5 11.5t45 -11.5t13 -40.5q0 -31 -12.5 -43t-45.5 -12q-32 0 -44.5 12zM363.5 926q-12.5 12 -12.5 43q0 29 12.5 40.5t44.5 11.5t45 -11.5t13 -40.5 q0 -31 -12.5 -43t-45.5 -12q-32 0 -44.5 12z" />
         <glyph glyph-name="uni1EF4" unicode="Ỵ" d="M328 0h-55v307l-235 493h61l201 -425l201 425h61l-234 -493v-307zM255 -212.5q-12 11.5 -12 42.5q0 32 12 43.5t45 11.5t45.5 -12t12.5 -43t-12.5 -42.5t-45.5 -11.5t-45 11.5z" />
         <glyph glyph-name="Ygrave" unicode="Ỳ" d="M328 0h-55v307l-235 493h61l201 -425l201 425h61l-234 -493v-307zM347 909l-37 -39l-138 122l36 38z" />
         <glyph glyph-name="uni1EF6" unicode="Ỷ" d="M328 0h-55v307l-235 493h61l201 -425l201 425h61l-234 -493v-307zM269 889q32 8 48.5 21.5t16.5 29.5q0 14 -11 23.5t-26 9.5q-21 0 -44 -11.5t-41 -27.5v61q16 13 39.5 20.5t45.5 7.5q40 0 66 -23t26 -59q0 -34 -28.5 -61.5t-78.5 -39.5z" />
         <glyph glyph-name="uni1EF8" unicode="Ỹ" d="M328 0h-55v307l-235 493h61l201 -425l201 425h61l-234 -493v-307zM328 896.5q-18 11.5 -41 32.5q-19 17 -31 25t-23 8q-19 0 -24 -12t-4 -39h-55q-1 45 22 73t61 28q20 0 37.5 -11t42.5 -33q19 -17 31 -25t23 -8q19 0 24 11.5t4 36.5h55q1 -44 -22 -71t-61 -27 q-21 0 -39 11.5z" />
         <glyph glyph-name="Z" unicode="Z" d="M542 0h-485v44l421 705h-419v51h485v-45l-422 -704h420v-51z" />
         <glyph glyph-name="Zacute" unicode="Ź" d="M542 0h-485v44l421 705h-419v51h485v-45l-422 -704h420v-51zM429 989l-139 -122l-36 39l138 121z" />
         <glyph glyph-name="Zcaron" unicode="Ž" d="M542 0h-485v44l421 705h-419v51h485v-45l-422 -704h420v-51zM434 991l-134 -120l-134 118l42 33l92 -81l91 83z" />
         <glyph glyph-name="Zdotaccent" unicode="Ż" d="M542 0h-485v44l421 705h-419v51h485v-45l-422 -704h420v-51zM255 937.5q-12 11.5 -12 42.5q0 32 12 43.5t45 11.5t45.5 -12t12.5 -43t-12.5 -42.5t-45.5 -11.5t-45 11.5z" />
         <glyph glyph-name="a" unicode="a" d="M148 3q-45 17 -64.5 55.5t-19.5 108.5q0 74 19.5 114.5t64.5 57.5t126 17h156v62q0 63 -14.5 97.5t-47.5 49.5t-94 15q-65 0 -95 -21t-47 -79l-53 13q16 53 39 83t60 43t96 13q81 0 126.5 -20t65 -66t19.5 -128v-261q0 -42 7 -65t23.5 -32.5t47.5 -8.5v-51 q-56 0 -81 17.5t-35 64.5q-27 -55 -64.5 -75.5t-108.5 -20.5q-81 0 -126 17zM368 53.5q33 16.5 47.5 55t14.5 108.5v89h-156q-61 0 -94 -12.5t-47 -42t-14 -84.5q0 -51 14 -78.5t47 -39.5t94 -12t94 16.5z" />
         <glyph glyph-name="aacute" unicode="á" d="M148 3q-45 17 -64.5 55.5t-19.5 108.5q0 74 19.5 114.5t64.5 57.5t126 17h156v62q0 63 -14.5 97.5t-47.5 49.5t-94 15q-65 0 -95 -21t-47 -79l-53 13q16 53 39 83t60 43t96 13q81 0 126.5 -20t65 -66t19.5 -128v-261q0 -42 7 -65t23.5 -32.5t47.5 -8.5v-51 q-56 0 -81 17.5t-35 64.5q-27 -55 -64.5 -75.5t-108.5 -20.5q-81 0 -126 17zM368 53.5q33 16.5 47.5 55t14.5 108.5v89h-156q-61 0 -94 -12.5t-47 -42t-14 -84.5q0 -51 14 -78.5t47 -39.5t94 -12t94 16.5zM429 807l-139 -122l-36 39l138 121z" />
         <glyph glyph-name="abreve" unicode="ă" d="M148 3q-45 17 -64.5 55.5t-19.5 108.5q0 74 19.5 114.5t64.5 57.5t126 17h156v62q0 63 -14.5 97.5t-47.5 49.5t-94 15q-65 0 -95 -21t-47 -79l-53 13q16 53 39 83t60 43t96 13q81 0 126.5 -20t65 -66t19.5 -128v-261q0 -42 7 -65t23.5 -32.5t47.5 -8.5v-51 q-56 0 -81 17.5t-35 64.5q-27 -55 -64.5 -75.5t-108.5 -20.5q-81 0 -126 17zM368 53.5q33 16.5 47.5 55t14.5 108.5v89h-156q-61 0 -94 -12.5t-47 -42t-14 -84.5q0 -51 14 -78.5t47 -39.5t94 -12t94 16.5zM223 694q-27 11 -39 36.5t-11 71.5h55q-1 -39 14.5 -54t56.5 -15 q43 0 58.5 15t15.5 54h55q0 -46 -12 -71.5t-39.5 -36.5t-77.5 -11q-49 0 -76 11z" />
         <glyph glyph-name="uni1EAF" unicode="ắ" d="M148 3q-45 17 -64.5 55.5t-19.5 108.5q0 74 19.5 114.5t64.5 57.5t126 17h156v62q0 63 -14.5 97.5t-47.5 49.5t-94 15q-65 0 -95 -21t-47 -79l-53 13q16 53 39 83t60 43t96 13q81 0 126.5 -20t65 -66t19.5 -128v-261q0 -42 7 -65t23.5 -32.5t47.5 -8.5v-51 q-56 0 -81 17.5t-35 64.5q-27 -55 -64.5 -75.5t-108.5 -20.5q-81 0 -126 17zM368 53.5q33 16.5 47.5 55t14.5 108.5v89h-156q-61 0 -94 -12.5t-47 -42t-14 -84.5q0 -51 14 -78.5t47 -39.5t94 -12t94 16.5zM223 694q-27 11 -39 36.5t-11 71.5h55q-1 -39 14.5 -54t56.5 -15 q43 0 58.5 15t15.5 54h55q0 -46 -12 -71.5t-39.5 -36.5t-77.5 -11q-49 0 -76 11zM429 991l-139 -122l-36 39l138 121z" />
         <glyph glyph-name="uni1EB7" unicode="ặ" d="M148 3q-45 17 -64.5 55.5t-19.5 108.5q0 74 19.5 114.5t64.5 57.5t126 17h156v62q0 63 -14.5 97.5t-47.5 49.5t-94 15q-65 0 -95 -21t-47 -79l-53 13q16 53 39 83t60 43t96 13q81 0 126.5 -20t65 -66t19.5 -128v-261q0 -42 7 -65t23.5 -32.5t47.5 -8.5v-51 q-56 0 -81 17.5t-35 64.5q-27 -55 -64.5 -75.5t-108.5 -20.5q-81 0 -126 17zM368 53.5q33 16.5 47.5 55t14.5 108.5v89h-156q-61 0 -94 -12.5t-47 -42t-14 -84.5q0 -51 14 -78.5t47 -39.5t94 -12t94 16.5zM255 -209.5q-12 11.5 -12 42.5q0 32 12 43.5t45 11.5t45.5 -12 t12.5 -43t-12.5 -42.5t-45.5 -11.5t-45 11.5zM223 694q-27 11 -39 36.5t-11 71.5h55q-1 -39 14.5 -54t56.5 -15q43 0 58.5 15t15.5 54h55q0 -46 -12 -71.5t-39.5 -36.5t-77.5 -11q-49 0 -76 11z" />
         <glyph glyph-name="uni1EB1" unicode="ằ" d="M148 3q-45 17 -64.5 55.5t-19.5 108.5q0 74 19.5 114.5t64.5 57.5t126 17h156v62q0 63 -14.5 97.5t-47.5 49.5t-94 15q-65 0 -95 -21t-47 -79l-53 13q16 53 39 83t60 43t96 13q81 0 126.5 -20t65 -66t19.5 -128v-261q0 -42 7 -65t23.5 -32.5t47.5 -8.5v-51 q-56 0 -81 17.5t-35 64.5q-27 -55 -64.5 -75.5t-108.5 -20.5q-81 0 -126 17zM368 53.5q33 16.5 47.5 55t14.5 108.5v89h-156q-61 0 -94 -12.5t-47 -42t-14 -84.5q0 -51 14 -78.5t47 -39.5t94 -12t94 16.5zM223 694q-27 11 -39 36.5t-11 71.5h55q-1 -39 14.5 -54t56.5 -15 q43 0 58.5 15t15.5 54h55q0 -46 -12 -71.5t-39.5 -36.5t-77.5 -11q-49 0 -76 11zM347 908l-37 -39l-138 122l36 38z" />
         <glyph glyph-name="uni1EB3" unicode="ẳ" d="M148 3q-45 17 -64.5 55.5t-19.5 108.5q0 74 19.5 114.5t64.5 57.5t126 17h156v62q0 63 -14.5 97.5t-47.5 49.5t-94 15q-65 0 -95 -21t-47 -79l-53 13q16 53 39 83t60 43t96 13q81 0 126.5 -20t65 -66t19.5 -128v-261q0 -42 7 -65t23.5 -32.5t47.5 -8.5v-51 q-56 0 -81 17.5t-35 64.5q-27 -55 -64.5 -75.5t-108.5 -20.5q-81 0 -126 17zM368 53.5q33 16.5 47.5 55t14.5 108.5v89h-156q-61 0 -94 -12.5t-47 -42t-14 -84.5q0 -51 14 -78.5t47 -39.5t94 -12t94 16.5zM223 694q-27 11 -39 36.5t-11 71.5h55q-1 -39 14.5 -54t56.5 -15 q43 0 58.5 15t15.5 54h55q0 -46 -12 -71.5t-39.5 -36.5t-77.5 -11q-49 0 -76 11zM269 888q32 8 48.5 21.5t16.5 29.5q0 14 -11 23.5t-26 9.5q-21 0 -44 -11.5t-41 -27.5v61q16 13 39.5 20.5t45.5 7.5q40 0 66 -23t26 -59q0 -34 -28.5 -61.5t-78.5 -39.5z" />
         <glyph glyph-name="uni1EB5" unicode="ẵ" d="M148 3q-45 17 -64.5 55.5t-19.5 108.5q0 74 19.5 114.5t64.5 57.5t126 17h156v62q0 63 -14.5 97.5t-47.5 49.5t-94 15q-65 0 -95 -21t-47 -79l-53 13q16 53 39 83t60 43t96 13q81 0 126.5 -20t65 -66t19.5 -128v-261q0 -42 7 -65t23.5 -32.5t47.5 -8.5v-51 q-56 0 -81 17.5t-35 64.5q-27 -55 -64.5 -75.5t-108.5 -20.5q-81 0 -126 17zM368 53.5q33 16.5 47.5 55t14.5 108.5v89h-156q-61 0 -94 -12.5t-47 -42t-14 -84.5q0 -51 14 -78.5t47 -39.5t94 -12t94 16.5zM223 694q-27 11 -39 36.5t-11 71.5h55q-1 -39 14.5 -54t56.5 -15 q43 0 58.5 15t15.5 54h55q0 -46 -12 -71.5t-39.5 -36.5t-77.5 -11q-49 0 -76 11zM328 895.5q-18 11.5 -41 32.5q-19 17 -31 25t-23 8q-19 0 -24 -12t-4 -39h-55q-1 45 22 73t61 28q20 0 37.5 -11t42.5 -33q19 -17 31 -25t23 -8q19 0 24 11.5t4 36.5h55q1 -44 -22 -71 t-61 -27q-21 0 -39 11.5z" />
         <glyph glyph-name="uni01CE" unicode="ǎ" d="M148 3q-45 17 -64.5 55.5t-19.5 108.5q0 74 19.5 114.5t64.5 57.5t126 17h156v62q0 63 -14.5 97.5t-47.5 49.5t-94 15q-65 0 -95 -21t-47 -79l-53 13q16 53 39 83t60 43t96 13q81 0 126.5 -20t65 -66t19.5 -128v-261q0 -42 7 -65t23.5 -32.5t47.5 -8.5v-51 q-56 0 -81 17.5t-35 64.5q-27 -55 -64.5 -75.5t-108.5 -20.5q-81 0 -126 17zM368 53.5q33 16.5 47.5 55t14.5 108.5v89h-156q-61 0 -94 -12.5t-47 -42t-14 -84.5q0 -51 14 -78.5t47 -39.5t94 -12t94 16.5zM434 809l-134 -120l-134 118l42 33l92 -81l91 83z" />
         <glyph glyph-name="acircumflex" unicode="â" d="M148 3q-45 17 -64.5 55.5t-19.5 108.5q0 74 19.5 114.5t64.5 57.5t126 17h156v62q0 63 -14.5 97.5t-47.5 49.5t-94 15q-65 0 -95 -21t-47 -79l-53 13q16 53 39 83t60 43t96 13q81 0 126.5 -20t65 -66t19.5 -128v-261q0 -42 7 -65t23.5 -32.5t47.5 -8.5v-51 q-56 0 -81 17.5t-35 64.5q-27 -55 -64.5 -75.5t-108.5 -20.5q-81 0 -126 17zM368 53.5q33 16.5 47.5 55t14.5 108.5v89h-156q-61 0 -94 -12.5t-47 -42t-14 -84.5q0 -51 14 -78.5t47 -39.5t94 -12t94 16.5zM434 715l-43 -33l-91 83l-92 -81l-42 33l134 118z" />
         <glyph glyph-name="uni1EA5" unicode="ấ" d="M148 3q-45 17 -64.5 55.5t-19.5 108.5q0 74 19.5 114.5t64.5 57.5t126 17h156v62q0 63 -14.5 97.5t-47.5 49.5t-94 15q-65 0 -95 -21t-47 -79l-53 13q16 53 39 83t60 43t96 13q81 0 126.5 -20t65 -66t19.5 -128v-261q0 -42 7 -65t23.5 -32.5t47.5 -8.5v-51 q-56 0 -81 17.5t-35 64.5q-27 -55 -64.5 -75.5t-108.5 -20.5q-81 0 -126 17zM368 53.5q33 16.5 47.5 55t14.5 108.5v89h-156q-61 0 -94 -12.5t-47 -42t-14 -84.5q0 -51 14 -78.5t47 -39.5t94 -12t94 16.5zM434 715l-43 -33l-91 83l-92 -81l-42 33l134 118zM429 1012 l-139 -122l-36 39l138 121z" />
         <glyph glyph-name="uni1EAD" unicode="ậ" d="M148 3q-45 17 -64.5 55.5t-19.5 108.5q0 74 19.5 114.5t64.5 57.5t126 17h156v62q0 63 -14.5 97.5t-47.5 49.5t-94 15q-65 0 -95 -21t-47 -79l-53 13q16 53 39 83t60 43t96 13q81 0 126.5 -20t65 -66t19.5 -128v-261q0 -42 7 -65t23.5 -32.5t47.5 -8.5v-51 q-56 0 -81 17.5t-35 64.5q-27 -55 -64.5 -75.5t-108.5 -20.5q-81 0 -126 17zM368 53.5q33 16.5 47.5 55t14.5 108.5v89h-156q-61 0 -94 -12.5t-47 -42t-14 -84.5q0 -51 14 -78.5t47 -39.5t94 -12t94 16.5zM255 -209.5q-12 11.5 -12 42.5q0 32 12 43.5t45 11.5t45.5 -12 t12.5 -43t-12.5 -42.5t-45.5 -11.5t-45 11.5zM434 715l-43 -33l-91 83l-92 -81l-42 33l134 118z" />
         <glyph glyph-name="uni1EA7" unicode="ầ" d="M148 3q-45 17 -64.5 55.5t-19.5 108.5q0 74 19.5 114.5t64.5 57.5t126 17h156v62q0 63 -14.5 97.5t-47.5 49.5t-94 15q-65 0 -95 -21t-47 -79l-53 13q16 53 39 83t60 43t96 13q81 0 126.5 -20t65 -66t19.5 -128v-261q0 -42 7 -65t23.5 -32.5t47.5 -8.5v-51 q-56 0 -81 17.5t-35 64.5q-27 -55 -64.5 -75.5t-108.5 -20.5q-81 0 -126 17zM368 53.5q33 16.5 47.5 55t14.5 108.5v89h-156q-61 0 -94 -12.5t-47 -42t-14 -84.5q0 -51 14 -78.5t47 -39.5t94 -12t94 16.5zM434 715l-43 -33l-91 83l-92 -81l-42 33l134 118zM347 929l-37 -39 l-138 122l36 38z" />
         <glyph glyph-name="uni1EA9" unicode="ẩ" d="M148 3q-45 17 -64.5 55.5t-19.5 108.5q0 74 19.5 114.5t64.5 57.5t126 17h156v62q0 63 -14.5 97.5t-47.5 49.5t-94 15q-65 0 -95 -21t-47 -79l-53 13q16 53 39 83t60 43t96 13q81 0 126.5 -20t65 -66t19.5 -128v-261q0 -42 7 -65t23.5 -32.5t47.5 -8.5v-51 q-56 0 -81 17.5t-35 64.5q-27 -55 -64.5 -75.5t-108.5 -20.5q-81 0 -126 17zM368 53.5q33 16.5 47.5 55t14.5 108.5v89h-156q-61 0 -94 -12.5t-47 -42t-14 -84.5q0 -51 14 -78.5t47 -39.5t94 -12t94 16.5zM434 715l-43 -33l-91 83l-92 -81l-42 33l134 118zM269 909 q32 8 48.5 21.5t16.5 29.5q0 14 -11 23.5t-26 9.5q-21 0 -44 -11.5t-41 -27.5v61q16 13 39.5 20.5t45.5 7.5q40 0 66 -23t26 -59q0 -34 -28.5 -61.5t-78.5 -39.5z" />
         <glyph glyph-name="uni1EAB" unicode="ẫ" d="M148 3q-45 17 -64.5 55.5t-19.5 108.5q0 74 19.5 114.5t64.5 57.5t126 17h156v62q0 63 -14.5 97.5t-47.5 49.5t-94 15q-65 0 -95 -21t-47 -79l-53 13q16 53 39 83t60 43t96 13q81 0 126.5 -20t65 -66t19.5 -128v-261q0 -42 7 -65t23.5 -32.5t47.5 -8.5v-51 q-56 0 -81 17.5t-35 64.5q-27 -55 -64.5 -75.5t-108.5 -20.5q-81 0 -126 17zM368 53.5q33 16.5 47.5 55t14.5 108.5v89h-156q-61 0 -94 -12.5t-47 -42t-14 -84.5q0 -51 14 -78.5t47 -39.5t94 -12t94 16.5zM434 715l-43 -33l-91 83l-92 -81l-42 33l134 118zM328 916.5 q-18 11.5 -41 32.5q-19 17 -31 25t-23 8q-19 0 -24 -12t-4 -39h-55q-1 45 22 73t61 28q20 0 37.5 -11t42.5 -33q19 -17 31 -25t23 -8q19 0 24 11.5t4 36.5h55q1 -44 -22 -71t-61 -27q-21 0 -39 11.5z" />
         <glyph glyph-name="adieresis" unicode="ä" d="M148 3q-45 17 -64.5 55.5t-19.5 108.5q0 74 19.5 114.5t64.5 57.5t126 17h156v62q0 63 -14.5 97.5t-47.5 49.5t-94 15q-65 0 -95 -21t-47 -79l-53 13q16 53 39 83t60 43t96 13q81 0 126.5 -20t65 -66t19.5 -128v-261q0 -42 7 -65t23.5 -32.5t47.5 -8.5v-51 q-56 0 -81 17.5t-35 64.5q-27 -55 -64.5 -75.5t-108.5 -20.5q-81 0 -126 17zM368 53.5q33 16.5 47.5 55t14.5 108.5v89h-156q-61 0 -94 -12.5t-47 -42t-14 -84.5q0 -51 14 -78.5t47 -39.5t94 -12t94 16.5zM147.5 741q-12.5 12 -12.5 43q0 29 12.5 40.5t44.5 11.5t45 -11.5 t13 -40.5q0 -31 -12.5 -43t-45.5 -12q-32 0 -44.5 12zM363.5 741q-12.5 12 -12.5 43q0 29 12.5 40.5t44.5 11.5t45 -11.5t13 -40.5q0 -31 -12.5 -43t-45.5 -12q-32 0 -44.5 12z" />
         <glyph glyph-name="uni1EA1" unicode="ạ" d="M148 3q-45 17 -64.5 55.5t-19.5 108.5q0 74 19.5 114.5t64.5 57.5t126 17h156v62q0 63 -14.5 97.5t-47.5 49.5t-94 15q-65 0 -95 -21t-47 -79l-53 13q16 53 39 83t60 43t96 13q81 0 126.5 -20t65 -66t19.5 -128v-261q0 -42 7 -65t23.5 -32.5t47.5 -8.5v-51 q-56 0 -81 17.5t-35 64.5q-27 -55 -64.5 -75.5t-108.5 -20.5q-81 0 -126 17zM368 53.5q33 16.5 47.5 55t14.5 108.5v89h-156q-61 0 -94 -12.5t-47 -42t-14 -84.5q0 -51 14 -78.5t47 -39.5t94 -12t94 16.5zM255 -209.5q-12 11.5 -12 42.5q0 32 12 43.5t45 11.5t45.5 -12 t12.5 -43t-12.5 -42.5t-45.5 -11.5t-45 11.5z" />
         <glyph glyph-name="agrave" unicode="à" d="M148 3q-45 17 -64.5 55.5t-19.5 108.5q0 74 19.5 114.5t64.5 57.5t126 17h156v62q0 63 -14.5 97.5t-47.5 49.5t-94 15q-65 0 -95 -21t-47 -79l-53 13q16 53 39 83t60 43t96 13q81 0 126.5 -20t65 -66t19.5 -128v-261q0 -42 7 -65t23.5 -32.5t47.5 -8.5v-51 q-56 0 -81 17.5t-35 64.5q-27 -55 -64.5 -75.5t-108.5 -20.5q-81 0 -126 17zM368 53.5q33 16.5 47.5 55t14.5 108.5v89h-156q-61 0 -94 -12.5t-47 -42t-14 -84.5q0 -51 14 -78.5t47 -39.5t94 -12t94 16.5zM347 724l-37 -39l-138 122l36 38z" />
         <glyph glyph-name="uni1EA3" unicode="ả" d="M148 3q-45 17 -64.5 55.5t-19.5 108.5q0 74 19.5 114.5t64.5 57.5t126 17h156v62q0 63 -14.5 97.5t-47.5 49.5t-94 15q-65 0 -95 -21t-47 -79l-53 13q16 53 39 83t60 43t96 13q81 0 126.5 -20t65 -66t19.5 -128v-261q0 -42 7 -65t23.5 -32.5t47.5 -8.5v-51 q-56 0 -81 17.5t-35 64.5q-27 -55 -64.5 -75.5t-108.5 -20.5q-81 0 -126 17zM368 53.5q33 16.5 47.5 55t14.5 108.5v89h-156q-61 0 -94 -12.5t-47 -42t-14 -84.5q0 -51 14 -78.5t47 -39.5t94 -12t94 16.5zM269 704q32 8 48.5 21.5t16.5 29.5q0 14 -11 23.5t-26 9.5 q-21 0 -44 -11.5t-41 -27.5v61q16 13 39.5 20.5t45.5 7.5q40 0 66 -23t26 -59q0 -34 -28.5 -61.5t-78.5 -39.5z" />
         <glyph glyph-name="amacron" unicode="ā" d="M148 3q-45 17 -64.5 55.5t-19.5 108.5q0 74 19.5 114.5t64.5 57.5t126 17h156v62q0 63 -14.5 97.5t-47.5 49.5t-94 15q-65 0 -95 -21t-47 -79l-53 13q16 53 39 83t60 43t96 13q81 0 126.5 -20t65 -66t19.5 -128v-261q0 -42 7 -65t23.5 -32.5t47.5 -8.5v-51 q-56 0 -81 17.5t-35 64.5q-27 -55 -64.5 -75.5t-108.5 -20.5q-81 0 -126 17zM368 53.5q33 16.5 47.5 55t14.5 108.5v89h-156q-61 0 -94 -12.5t-47 -42t-14 -84.5q0 -51 14 -78.5t47 -39.5t94 -12t94 16.5zM440 722h-279v50h279v-50z" />
         <glyph glyph-name="aogonek" unicode="ą" d="M564 -166q-15 -14 -39 -22t-49 -8q-50 0 -78.5 19t-28.5 56q0 32 39.5 64.5t103.5 61.5q-28 7 -42.5 24.5t-22.5 52.5q-27 -55 -64.5 -75.5t-108.5 -20.5q-81 0 -126 17t-64.5 55.5t-19.5 108.5q0 74 19.5 114.5t64.5 57.5t126 17h156v62q0 63 -14.5 97.5t-47.5 49.5 t-94 15q-65 0 -95 -21t-47 -79l-53 13q16 53 39 83t60 43t96 13q81 0 126.5 -20t65 -66t19.5 -128v-261q0 -42 7 -65t23.5 -32.5t47.5 -8.5v-51l-32 -18q-56 -32 -82 -51.5t-26 -40.5q1 -16 15 -25.5t38 -9.5q16 0 33 6.5t29 16.5zM430 306h-156q-61 0 -94 -12.5t-47 -42 t-14 -84.5q0 -51 14 -78.5t47 -39.5t94 -12t94 16.5t47.5 55t14.5 108.5v89z" />
         <glyph glyph-name="aring" unicode="å" d="M148 3q-45 17 -64.5 55.5t-19.5 108.5q0 74 19.5 114.5t64.5 57.5t126 17h156v62q0 63 -14.5 97.5t-47.5 49.5t-94 15q-65 0 -95 -21t-47 -79l-53 13q16 53 39 83t60 43t96 13q81 0 126.5 -20t65 -66t19.5 -128v-261q0 -42 7 -65t23.5 -32.5t47.5 -8.5v-51 q-56 0 -81 17.5t-35 64.5q-27 -55 -64.5 -75.5t-108.5 -20.5q-81 0 -126 17zM368 53.5q33 16.5 47.5 55t14.5 108.5v89h-156q-61 0 -94 -12.5t-47 -42t-14 -84.5q0 -51 14 -78.5t47 -39.5t94 -12t94 16.5zM200.5 720.5q-27.5 25.5 -27.5 91.5t27.5 91.5t98.5 25.5 q72 0 100.5 -25.5t28.5 -91.5q0 -45 -12 -70t-39.5 -36t-77.5 -11q-71 0 -98.5 25.5zM357.5 759.5q15.5 14.5 15.5 52.5t-15.5 52.5t-58.5 14.5q-41 0 -56 -14.5t-15 -52.5t15 -52.5t56 -14.5q43 0 58.5 14.5z" />
         <glyph glyph-name="atilde" unicode="ã" d="M148 3q-45 17 -64.5 55.5t-19.5 108.5q0 74 19.5 114.5t64.5 57.5t126 17h156v62q0 63 -14.5 97.5t-47.5 49.5t-94 15q-65 0 -95 -21t-47 -79l-53 13q16 53 39 83t60 43t96 13q81 0 126.5 -20t65 -66t19.5 -128v-261q0 -42 7 -65t23.5 -32.5t47.5 -8.5v-51 q-56 0 -81 17.5t-35 64.5q-27 -55 -64.5 -75.5t-108.5 -20.5q-81 0 -126 17zM368 53.5q33 16.5 47.5 55t14.5 108.5v89h-156q-61 0 -94 -12.5t-47 -42t-14 -84.5q0 -51 14 -78.5t47 -39.5t94 -12t94 16.5zM328 711.5q-18 11.5 -41 32.5q-19 17 -31 25t-23 8q-19 0 -24 -12 t-4 -39h-55q-1 45 22 73t61 28q20 0 37.5 -11t42.5 -33q19 -17 31 -25t23 -8q19 0 24 11.5t4 36.5h55q1 -44 -22 -71t-61 -27q-21 0 -39 11.5z" />
         <glyph glyph-name="ae" unicode="æ" d="M72.5 3q-31.5 17 -45 55.5t-13.5 108.5q0 73 16.5 113.5t54 58t105.5 17.5h82v63q0 63 -10 97.5t-34 49.5t-68 15q-35 0 -52.5 -21t-28.5 -79l-55 13q11 53 27 83t41.5 42.5t67.5 12.5q61 0 95 -24.5t48 -83.5q17 60 46.5 84t89.5 24q56 0 88 -30.5t45.5 -100.5 t13.5 -195h-259q0 -104 10.5 -162t34.5 -82.5t67 -24.5q34 0 57.5 18t40.5 64l45 -30q-20 -57 -53 -80t-90 -23q-52 0 -84 24.5t-52 84.5q-13 -60 -47 -84.5t-96 -24.5q-56 0 -87.5 17zM531 356q-1 87 -9.5 135.5t-28 69t-54.5 20.5q-43 0 -67 -20.5t-34.5 -69t-10.5 -135.5 h204zM228 53.5q24 16.5 34 55t10 108.5v89h-82q-47 0 -73 -12.5t-37 -42.5t-11 -84q0 -51 8.5 -78.5t28 -39.5t54.5 -12q44 0 68 16.5z" />
         <glyph glyph-name="b" unicode="b" d="M187.5 5q-45.5 19 -86.5 69v726h55v-249q20 44 59.5 62.5t96.5 18.5q81 0 126.5 -30t65 -99.5t19.5 -194.5q0 -124 -19.5 -193t-65 -99t-126.5 -30q-79 0 -124.5 19zM405.5 62q33.5 25 48 83t14.5 163q0 106 -14.5 164.5t-48 83.5t-93.5 25q-61 0 -94 -15.5t-47.5 -51.5 t-14.5 -102v-322q31 -31 64 -42t92 -11q60 0 93.5 25z" />
         <glyph glyph-name="c" unicode="c" d="M175 16q-51 30 -72.5 99.5t-21.5 193.5t22 193.5t74 99.5t145 30q73 0 115.5 -22.5t82.5 -82.5l-46 -27q-32 47 -64 64t-88 17q-72 0 -112 -25t-57 -83t-17 -164t16.5 -164t55.5 -83t110 -25q55 0 88.5 18t67.5 65l46 -28q-41 -60 -84.5 -83t-117.5 -23q-92 0 -143 30z " />
         <glyph glyph-name="cacute" unicode="ć" d="M175 16q-51 30 -72.5 99.5t-21.5 193.5t22 193.5t74 99.5t145 30q73 0 115.5 -22.5t82.5 -82.5l-46 -27q-32 47 -64 64t-88 17q-72 0 -112 -25t-57 -83t-17 -164t16.5 -164t55.5 -83t110 -25q55 0 88.5 18t67.5 65l46 -28q-41 -60 -84.5 -83t-117.5 -23q-92 0 -143 30z M429 807l-139 -122l-36 39l138 121z" />
         <glyph glyph-name="ccaron" unicode="č" d="M175 16q-51 30 -72.5 99.5t-21.5 193.5t22 193.5t74 99.5t145 30q73 0 115.5 -22.5t82.5 -82.5l-46 -27q-32 47 -64 64t-88 17q-72 0 -112 -25t-57 -83t-17 -164t16.5 -164t55.5 -83t110 -25q55 0 88.5 18t67.5 65l46 -28q-41 -60 -84.5 -83t-117.5 -23q-92 0 -143 30z M434 809l-134 -120l-134 118l42 33l92 -81l91 83z" />
         <glyph glyph-name="ccedilla" unicode="ç" d="M406.5 55q33.5 18 67.5 65l46 -28q-39 -58 -81 -81.5t-111 -24.5v-27q33 -8 53.5 -28t20.5 -46q0 -38 -29.5 -62t-78.5 -24q-25 0 -49 8t-39 22l23 45q12 -11 30.5 -17.5t34.5 -6.5q24 0 38.5 9.5t14.5 25.5q0 15 -20.5 23.5t-53.5 8.5v71q-73 7 -114.5 40t-59.5 100.5 t-18 180.5q0 124 22 193.5t74 99.5t145 30q73 0 115.5 -22.5t82.5 -82.5l-46 -27q-32 47 -64 64t-88 17q-72 0 -112 -25t-57 -83t-17 -164t16.5 -164t55.5 -83t110 -25q55 0 88.5 18z" />
         <glyph glyph-name="ccircumflex" unicode="ĉ" d="M175 16q-51 30 -72.5 99.5t-21.5 193.5t22 193.5t74 99.5t145 30q73 0 115.5 -22.5t82.5 -82.5l-46 -27q-32 47 -64 64t-88 17q-72 0 -112 -25t-57 -83t-17 -164t16.5 -164t55.5 -83t110 -25q55 0 88.5 18t67.5 65l46 -28q-41 -60 -84.5 -83t-117.5 -23q-92 0 -143 30z M434 715l-43 -33l-91 83l-92 -81l-42 33l134 118z" />
         <glyph glyph-name="cdotaccent" unicode="ċ" d="M175 16q-51 30 -72.5 99.5t-21.5 193.5t22 193.5t74 99.5t145 30q73 0 115.5 -22.5t82.5 -82.5l-46 -27q-32 47 -64 64t-88 17q-72 0 -112 -25t-57 -83t-17 -164t16.5 -164t55.5 -83t110 -25q55 0 88.5 18t67.5 65l46 -28q-41 -60 -84.5 -83t-117.5 -23q-92 0 -143 30z M255 755.5q-12 11.5 -12 42.5q0 32 12 43.5t45 11.5t45.5 -12t12.5 -43t-12.5 -42.5t-45.5 -11.5t-45 11.5z" />
         <glyph glyph-name="d" unicode="d" d="M164.5 16q-46.5 30 -66.5 99t-20 193q0 125 20 194.5t66.5 99.5t130.5 30q61 0 102.5 -19.5t61.5 -65.5v253h55v-800h-55v49q-21 -34 -62.5 -48.5t-101.5 -14.5q-84 0 -130.5 30zM414 57q45 20 45 65v292q0 167 -164 167q-63 0 -97.5 -25t-49.5 -83.5t-15 -164.5 q0 -105 15 -163t49.5 -83t97.5 -25q74 0 119 20z" />
         <glyph glyph-name="eth" unicode="ð" d="M528 248q0 -101 -21 -157t-70 -80.5t-137 -24.5q-87 0 -136 24.5t-70 81t-21 157.5t21 157.5t70 81t136 24.5q95 0 146 -29q-32 120 -102 189l-145 -80l-26 44l128 70q-68 45 -156 43v51q121 2 208 -65l117 65l26 -44l-103 -57q64 -67 99 -178t36 -264v0v-8v-1v0z M404 56.5q37 19.5 53 65t16 126.5v6q-1 80 -17 125t-53 64t-103 19q-67 0 -103.5 -19.5t-52.5 -65t-16 -128.5q0 -82 16 -127.5t52.5 -65t103.5 -19.5t104 19.5z" />
         <glyph glyph-name="dcaron" unicode="ď" d="M129.5 16q-44.5 30 -64 99t-19.5 193t19.5 194t64 100t122.5 30q116 0 153 -85v253h55v-800h-55v49q-39 -63 -153 -63q-78 0 -122.5 30zM570 550h-44l-8 250h60zM361.5 57q43.5 20 43.5 65v292q0 87 -41.5 127t-111.5 40q-57 0 -89.5 -25t-47 -84t-14.5 -164t14.5 -163 t47 -83t89.5 -25q66 0 109.5 20z" />
         <glyph glyph-name="dcroat" unicode="đ" d="M573 730v-50h-59v-680h-55v49q-21 -34 -62.5 -48.5t-101.5 -14.5q-84 0 -130.5 30t-66.5 99t-20 193q0 125 20 194.5t66.5 99.5t130.5 30q61 0 102.5 -19.5t61.5 -65.5v133h-132v50h132v70h55v-70h59zM459 414q0 167 -164 167q-63 0 -97.5 -25t-49.5 -83.5t-15 -164.5 q0 -105 15 -163t49.5 -83t97.5 -25q74 0 119 20t45 65v292z" />
         <glyph glyph-name="e" unicode="e" d="M395.5 54.5q34.5 17.5 71.5 64.5l44 -30q-42 -59 -87 -81t-121 -22q-90 0 -140.5 30t-72 99.5t-21.5 193.5t21.5 193.5t72 99.5t140.5 30q84 0 131 -30.5t67.5 -100.5t20.5 -195h-398q1 -104 18 -162t55 -82.5t106 -24.5q58 0 92.5 17.5zM200.5 560q-37.5 -21 -55 -69.5 t-20.5 -134.5h340q-5 87 -21 135.5t-49.5 69t-91.5 20.5q-65 0 -102.5 -21z" />
         <glyph glyph-name="eacute" unicode="é" d="M395.5 54.5q34.5 17.5 71.5 64.5l44 -30q-42 -59 -87 -81t-121 -22q-90 0 -140.5 30t-72 99.5t-21.5 193.5t21.5 193.5t72 99.5t140.5 30q84 0 131 -30.5t67.5 -100.5t20.5 -195h-398q1 -104 18 -162t55 -82.5t106 -24.5q58 0 92.5 17.5zM200.5 560q-37.5 -21 -55 -69.5 t-20.5 -134.5h340q-5 87 -21 135.5t-49.5 69t-91.5 20.5q-65 0 -102.5 -21zM429 807l-139 -122l-36 39l138 121z" />
         <glyph glyph-name="ecaron" unicode="ě" d="M395.5 54.5q34.5 17.5 71.5 64.5l44 -30q-42 -59 -87 -81t-121 -22q-90 0 -140.5 30t-72 99.5t-21.5 193.5t21.5 193.5t72 99.5t140.5 30q84 0 131 -30.5t67.5 -100.5t20.5 -195h-398q1 -104 18 -162t55 -82.5t106 -24.5q58 0 92.5 17.5zM200.5 560q-37.5 -21 -55 -69.5 t-20.5 -134.5h340q-5 87 -21 135.5t-49.5 69t-91.5 20.5q-65 0 -102.5 -21zM434 809l-134 -120l-134 118l42 33l92 -81l91 83z" />
         <glyph glyph-name="ecircumflex" unicode="ê" d="M395.5 54.5q34.5 17.5 71.5 64.5l44 -30q-42 -59 -87 -81t-121 -22q-90 0 -140.5 30t-72 99.5t-21.5 193.5t21.5 193.5t72 99.5t140.5 30q84 0 131 -30.5t67.5 -100.5t20.5 -195h-398q1 -104 18 -162t55 -82.5t106 -24.5q58 0 92.5 17.5zM200.5 560q-37.5 -21 -55 -69.5 t-20.5 -134.5h340q-5 87 -21 135.5t-49.5 69t-91.5 20.5q-65 0 -102.5 -21zM434 715l-43 -33l-91 83l-92 -81l-42 33l134 118z" />
         <glyph glyph-name="uni1EBF" unicode="ế" d="M395.5 54.5q34.5 17.5 71.5 64.5l44 -30q-42 -59 -87 -81t-121 -22q-90 0 -140.5 30t-72 99.5t-21.5 193.5t21.5 193.5t72 99.5t140.5 30q84 0 131 -30.5t67.5 -100.5t20.5 -195h-398q1 -104 18 -162t55 -82.5t106 -24.5q58 0 92.5 17.5zM200.5 560q-37.5 -21 -55 -69.5 t-20.5 -134.5h340q-5 87 -21 135.5t-49.5 69t-91.5 20.5q-65 0 -102.5 -21zM434 715l-43 -33l-91 83l-92 -81l-42 33l134 118zM429 1012l-139 -122l-36 39l138 121z" />
         <glyph glyph-name="uni1EC7" unicode="ệ" d="M395.5 54.5q34.5 17.5 71.5 64.5l44 -30q-42 -59 -87 -81t-121 -22q-90 0 -140.5 30t-72 99.5t-21.5 193.5t21.5 193.5t72 99.5t140.5 30q84 0 131 -30.5t67.5 -100.5t20.5 -195h-398q1 -104 18 -162t55 -82.5t106 -24.5q58 0 92.5 17.5zM200.5 560q-37.5 -21 -55 -69.5 t-20.5 -134.5h340q-5 87 -21 135.5t-49.5 69t-91.5 20.5q-65 0 -102.5 -21zM255 -209.5q-12 11.5 -12 42.5q0 32 12 43.5t45 11.5t45.5 -12t12.5 -43t-12.5 -42.5t-45.5 -11.5t-45 11.5zM434 715l-43 -33l-91 83l-92 -81l-42 33l134 118z" />
         <glyph glyph-name="uni1EC1" unicode="ề" d="M395.5 54.5q34.5 17.5 71.5 64.5l44 -30q-42 -59 -87 -81t-121 -22q-90 0 -140.5 30t-72 99.5t-21.5 193.5t21.5 193.5t72 99.5t140.5 30q84 0 131 -30.5t67.5 -100.5t20.5 -195h-398q1 -104 18 -162t55 -82.5t106 -24.5q58 0 92.5 17.5zM200.5 560q-37.5 -21 -55 -69.5 t-20.5 -134.5h340q-5 87 -21 135.5t-49.5 69t-91.5 20.5q-65 0 -102.5 -21zM434 715l-43 -33l-91 83l-92 -81l-42 33l134 118zM347 929l-37 -39l-138 122l36 38z" />
         <glyph glyph-name="uni1EC3" unicode="ể" d="M395.5 54.5q34.5 17.5 71.5 64.5l44 -30q-42 -59 -87 -81t-121 -22q-90 0 -140.5 30t-72 99.5t-21.5 193.5t21.5 193.5t72 99.5t140.5 30q84 0 131 -30.5t67.5 -100.5t20.5 -195h-398q1 -104 18 -162t55 -82.5t106 -24.5q58 0 92.5 17.5zM200.5 560q-37.5 -21 -55 -69.5 t-20.5 -134.5h340q-5 87 -21 135.5t-49.5 69t-91.5 20.5q-65 0 -102.5 -21zM434 715l-43 -33l-91 83l-92 -81l-42 33l134 118zM269 909q32 8 48.5 21.5t16.5 29.5q0 14 -11 23.5t-26 9.5q-21 0 -44 -11.5t-41 -27.5v61q16 13 39.5 20.5t45.5 7.5q40 0 66 -23t26 -59 q0 -34 -28.5 -61.5t-78.5 -39.5z" />
         <glyph glyph-name="uni1EC5" unicode="ễ" d="M395.5 54.5q34.5 17.5 71.5 64.5l44 -30q-42 -59 -87 -81t-121 -22q-90 0 -140.5 30t-72 99.5t-21.5 193.5t21.5 193.5t72 99.5t140.5 30q84 0 131 -30.5t67.5 -100.5t20.5 -195h-398q1 -104 18 -162t55 -82.5t106 -24.5q58 0 92.5 17.5zM200.5 560q-37.5 -21 -55 -69.5 t-20.5 -134.5h340q-5 87 -21 135.5t-49.5 69t-91.5 20.5q-65 0 -102.5 -21zM434 715l-43 -33l-91 83l-92 -81l-42 33l134 118zM328 916.5q-18 11.5 -41 32.5q-19 17 -31 25t-23 8q-19 0 -24 -12t-4 -39h-55q-1 45 22 73t61 28q20 0 37.5 -11t42.5 -33q19 -17 31 -25t23 -8 q19 0 24 11.5t4 36.5h55q1 -44 -22 -71t-61 -27q-21 0 -39 11.5z" />
         <glyph glyph-name="edieresis" unicode="ë" d="M395.5 54.5q34.5 17.5 71.5 64.5l44 -30q-42 -59 -87 -81t-121 -22q-90 0 -140.5 30t-72 99.5t-21.5 193.5t21.5 193.5t72 99.5t140.5 30q84 0 131 -30.5t67.5 -100.5t20.5 -195h-398q1 -104 18 -162t55 -82.5t106 -24.5q58 0 92.5 17.5zM200.5 560q-37.5 -21 -55 -69.5 t-20.5 -134.5h340q-5 87 -21 135.5t-49.5 69t-91.5 20.5q-65 0 -102.5 -21zM147.5 741q-12.5 12 -12.5 43q0 29 12.5 40.5t44.5 11.5t45 -11.5t13 -40.5q0 -31 -12.5 -43t-45.5 -12q-32 0 -44.5 12zM363.5 741q-12.5 12 -12.5 43q0 29 12.5 40.5t44.5 11.5t45 -11.5 t13 -40.5q0 -31 -12.5 -43t-45.5 -12q-32 0 -44.5 12z" />
         <glyph glyph-name="edotaccent" unicode="ė" d="M395.5 54.5q34.5 17.5 71.5 64.5l44 -30q-42 -59 -87 -81t-121 -22q-90 0 -140.5 30t-72 99.5t-21.5 193.5t21.5 193.5t72 99.5t140.5 30q84 0 131 -30.5t67.5 -100.5t20.5 -195h-398q1 -104 18 -162t55 -82.5t106 -24.5q58 0 92.5 17.5zM200.5 560q-37.5 -21 -55 -69.5 t-20.5 -134.5h340q-5 87 -21 135.5t-49.5 69t-91.5 20.5q-65 0 -102.5 -21zM255 755.5q-12 11.5 -12 42.5q0 32 12 43.5t45 11.5t45.5 -12t12.5 -43t-12.5 -42.5t-45.5 -11.5t-45 11.5z" />
         <glyph glyph-name="uni1EB9" unicode="ẹ" d="M395.5 54.5q34.5 17.5 71.5 64.5l44 -30q-42 -59 -87 -81t-121 -22q-90 0 -140.5 30t-72 99.5t-21.5 193.5t21.5 193.5t72 99.5t140.5 30q84 0 131 -30.5t67.5 -100.5t20.5 -195h-398q1 -104 18 -162t55 -82.5t106 -24.5q58 0 92.5 17.5zM200.5 560q-37.5 -21 -55 -69.5 t-20.5 -134.5h340q-5 87 -21 135.5t-49.5 69t-91.5 20.5q-65 0 -102.5 -21zM255 -209.5q-12 11.5 -12 42.5q0 32 12 43.5t45 11.5t45.5 -12t12.5 -43t-12.5 -42.5t-45.5 -11.5t-45 11.5z" />
         <glyph glyph-name="egrave" unicode="è" d="M395.5 54.5q34.5 17.5 71.5 64.5l44 -30q-42 -59 -87 -81t-121 -22q-90 0 -140.5 30t-72 99.5t-21.5 193.5t21.5 193.5t72 99.5t140.5 30q84 0 131 -30.5t67.5 -100.5t20.5 -195h-398q1 -104 18 -162t55 -82.5t106 -24.5q58 0 92.5 17.5zM200.5 560q-37.5 -21 -55 -69.5 t-20.5 -134.5h340q-5 87 -21 135.5t-49.5 69t-91.5 20.5q-65 0 -102.5 -21zM347 724l-37 -39l-138 122l36 38z" />
         <glyph glyph-name="uni1EBB" unicode="ẻ" d="M395.5 54.5q34.5 17.5 71.5 64.5l44 -30q-42 -59 -87 -81t-121 -22q-90 0 -140.5 30t-72 99.5t-21.5 193.5t21.5 193.5t72 99.5t140.5 30q84 0 131 -30.5t67.5 -100.5t20.5 -195h-398q1 -104 18 -162t55 -82.5t106 -24.5q58 0 92.5 17.5zM200.5 560q-37.5 -21 -55 -69.5 t-20.5 -134.5h340q-5 87 -21 135.5t-49.5 69t-91.5 20.5q-65 0 -102.5 -21zM269 704q32 8 48.5 21.5t16.5 29.5q0 14 -11 23.5t-26 9.5q-21 0 -44 -11.5t-41 -27.5v61q16 13 39.5 20.5t45.5 7.5q40 0 66 -23t26 -59q0 -34 -28.5 -61.5t-78.5 -39.5z" />
         <glyph glyph-name="emacron" unicode="ē" d="M395.5 54.5q34.5 17.5 71.5 64.5l44 -30q-42 -59 -87 -81t-121 -22q-90 0 -140.5 30t-72 99.5t-21.5 193.5t21.5 193.5t72 99.5t140.5 30q84 0 131 -30.5t67.5 -100.5t20.5 -195h-398q1 -104 18 -162t55 -82.5t106 -24.5q58 0 92.5 17.5zM200.5 560q-37.5 -21 -55 -69.5 t-20.5 -134.5h340q-5 87 -21 135.5t-49.5 69t-91.5 20.5q-65 0 -102.5 -21zM440 722h-279v50h279v-50z" />
         <glyph glyph-name="eogonek" unicode="ę" d="M395.5 54.5q34.5 17.5 71.5 64.5l44 -30q-26 -36 -51.5 -57.5t-56.5 -32.5l-28 -15q-57 -32 -84 -52.5t-27 -41.5q1 -16 15 -25.5t38 -9.5q16 0 33 6.5t29 16.5l26 -44q-15 -14 -39 -22t-49 -8q-50 0 -78.5 19t-28.5 56q0 27 28.5 54.5t76.5 52.5h-12q-90 0 -140.5 30 t-72 99.5t-21.5 193.5t21.5 193.5t72 99.5t140.5 30q84 0 131 -30.5t67.5 -100.5t20.5 -195h-398q1 -104 18 -162t55 -82.5t106 -24.5q58 0 92.5 17.5zM200.5 560q-37.5 -21 -55 -69.5t-20.5 -134.5h340q-5 87 -21 135.5t-49.5 69t-91.5 20.5q-65 0 -102.5 -21z" />
         <glyph glyph-name="uni1EBD" unicode="ẽ" d="M395.5 54.5q34.5 17.5 71.5 64.5l44 -30q-42 -59 -87 -81t-121 -22q-90 0 -140.5 30t-72 99.5t-21.5 193.5t21.5 193.5t72 99.5t140.5 30q84 0 131 -30.5t67.5 -100.5t20.5 -195h-398q1 -104 18 -162t55 -82.5t106 -24.5q58 0 92.5 17.5zM200.5 560q-37.5 -21 -55 -69.5 t-20.5 -134.5h340q-5 87 -21 135.5t-49.5 69t-91.5 20.5q-65 0 -102.5 -21zM328 711.5q-18 11.5 -41 32.5q-19 17 -31 25t-23 8q-19 0 -24 -12t-4 -39h-55q-1 45 22 73t61 28q20 0 37.5 -11t42.5 -33q19 -17 31 -25t23 -8q19 0 24 11.5t4 36.5h55q1 -44 -22 -71t-61 -27 q-21 0 -39 11.5z" />
         <glyph glyph-name="f" unicode="f" d="M501 794q38 -20 57 -73l-52 -17q-13 34 -39 46.5t-85 12.5q-53 0 -82.5 -14t-42 -47.5t-12.5 -93.5v-114h178v-50h-178v-444h-55v444h-124v50h124v114q0 79 18 123.5t59 63.5t115 19q81 0 119 -20z" />
         <glyph glyph-name="g" unicode="g" d="M209.5 -183.5q-32.5 12.5 -64.5 44.5l40 35q23 -23 47.5 -32t65.5 -9q61 0 94.5 17t48 56t14.5 111v91q-20 -46 -61.5 -65.5t-102.5 -19.5q-84 0 -130.5 30t-66.5 100t-20 195q0 101 20 157t67 80.5t130 24.5q60 0 101.5 -14t62.5 -48v48h55v-570q0 -94 -19.5 -146.5 t-65 -75t-127.5 -22.5q-56 0 -88.5 12.5zM455 263v233q0 45 -45 65t-119 20q-63 0 -97.5 -19.5t-49.5 -64.5t-15 -127q0 -106 15 -165t49.5 -84t97.5 -25q164 0 164 167z" />
         <glyph glyph-name="gbreve" unicode="ğ" d="M209.5 -183.5q-32.5 12.5 -64.5 44.5l40 35q23 -23 47.5 -32t65.5 -9q61 0 94.5 17t48 56t14.5 111v91q-20 -46 -61.5 -65.5t-102.5 -19.5q-84 0 -130.5 30t-66.5 100t-20 195q0 101 20 157t67 80.5t130 24.5q60 0 101.5 -14t62.5 -48v48h55v-570q0 -94 -19.5 -146.5 t-65 -75t-127.5 -22.5q-56 0 -88.5 12.5zM455 263v233q0 45 -45 65t-119 20q-63 0 -97.5 -19.5t-49.5 -64.5t-15 -127q0 -106 15 -165t49.5 -84t97.5 -25q164 0 164 167zM223 694q-27 11 -39 36.5t-11 71.5h55q-1 -39 14.5 -54t56.5 -15q43 0 58.5 15t15.5 54h55 q0 -46 -12 -71.5t-39.5 -36.5t-77.5 -11q-49 0 -76 11z" />
         <glyph glyph-name="gcircumflex" unicode="ĝ" d="M209.5 -183.5q-32.5 12.5 -64.5 44.5l40 35q23 -23 47.5 -32t65.5 -9q61 0 94.5 17t48 56t14.5 111v91q-20 -46 -61.5 -65.5t-102.5 -19.5q-84 0 -130.5 30t-66.5 100t-20 195q0 101 20 157t67 80.5t130 24.5q60 0 101.5 -14t62.5 -48v48h55v-570q0 -94 -19.5 -146.5 t-65 -75t-127.5 -22.5q-56 0 -88.5 12.5zM455 263v233q0 45 -45 65t-119 20q-63 0 -97.5 -19.5t-49.5 -64.5t-15 -127q0 -106 15 -165t49.5 -84t97.5 -25q164 0 164 167zM434 715l-43 -33l-91 83l-92 -81l-42 33l134 118z" />
         <glyph glyph-name="uni0123" unicode="ģ" d="M209.5 -183.5q-32.5 12.5 -64.5 44.5l40 35q23 -23 47.5 -32t65.5 -9q61 0 94.5 17t48 56t14.5 111v91q-20 -46 -61.5 -65.5t-102.5 -19.5q-84 0 -130.5 30t-66.5 100t-20 195q0 101 20 157t67 80.5t130 24.5q60 0 101.5 -14t62.5 -48v48h55v-570q0 -94 -19.5 -146.5 t-65 -75t-127.5 -22.5q-56 0 -88.5 12.5zM455 263v233q0 45 -45 65t-119 20q-63 0 -97.5 -19.5t-49.5 -64.5t-15 -127q0 -106 15 -165t49.5 -84t97.5 -25q164 0 164 167zM267.5 668q-9.5 9 -9.5 33q0 27 21 71t51 90h38l-47 -122q14 -2 20 -11.5t6 -27.5q0 -24 -9.5 -33 t-35.5 -9q-25 0 -34.5 9z" />
         <glyph glyph-name="gdotaccent" unicode="ġ" d="M209.5 -183.5q-32.5 12.5 -64.5 44.5l40 35q23 -23 47.5 -32t65.5 -9q61 0 94.5 17t48 56t14.5 111v91q-20 -46 -61.5 -65.5t-102.5 -19.5q-84 0 -130.5 30t-66.5 100t-20 195q0 101 20 157t67 80.5t130 24.5q60 0 101.5 -14t62.5 -48v48h55v-570q0 -94 -19.5 -146.5 t-65 -75t-127.5 -22.5q-56 0 -88.5 12.5zM455 263v233q0 45 -45 65t-119 20q-63 0 -97.5 -19.5t-49.5 -64.5t-15 -127q0 -106 15 -165t49.5 -84t97.5 -25q164 0 164 167zM255 755.5q-12 11.5 -12 42.5q0 32 12 43.5t45 11.5t45.5 -12t12.5 -43t-12.5 -42.5t-45.5 -11.5 t-45 11.5z" />
         <glyph glyph-name="h" unicode="h" d="M102 0v800h55v-243q16 41 54.5 58t98.5 17q81 0 126 -28.5t64.5 -95t19.5 -186.5v-322h-55v322q0 101 -14.5 156.5t-47.5 79t-93 23.5q-61 0 -93.5 -14t-46 -50t-13.5 -105v-412h-55z" />
         <glyph glyph-name="hbar" unicode="ħ" d="M436 603.5q45 -28.5 64.5 -95t19.5 -186.5v-322h-55v322q0 101 -14.5 156.5t-47.5 79t-93 23.5q-61 0 -93.5 -14t-46 -50t-13.5 -105v-412h-55v680h-74v50h74v70h55v-70h116v-50h-116v-123q16 41 54.5 58t98.5 17q81 0 126 -28.5z" />
         <glyph glyph-name="hcircumflex" unicode="ĥ" d="M102 0v800h55v-243q16 41 54.5 58t98.5 17q81 0 126 -28.5t64.5 -95t19.5 -186.5v-322h-55v322q0 101 -14.5 156.5t-47.5 79t-93 23.5q-61 0 -93.5 -14t-46 -50t-13.5 -105v-412h-55zM266 849l-43 -33l-91 83l-92 -81l-42 33l134 118z" />
         <glyph glyph-name="i" unicode="i" d="M354 618v-567h175v-51h-405v51h175v516h-126v51h181zM263 755.5q-12 11.5 -12 42.5q0 32 12 43.5t45 11.5t45.5 -12t12.5 -43t-12.5 -42.5t-45.5 -11.5t-45 11.5z" />
         <glyph glyph-name="dotlessi" unicode="ı" d="M354 618v-567h175v-51h-405v51h175v516h-126v51h181z" />
         <glyph glyph-name="iacute" unicode="í" d="M354 618v-567h175v-51h-405v51h175v516h-126v51h181zM437 807l-139 -122l-36 39l138 121z" />
         <glyph glyph-name="uni01D0" unicode="ǐ" d="M354 618v-567h175v-51h-405v51h175v516h-126v51h181zM442 809l-134 -120l-134 118l42 33l92 -81l91 83z" />
         <glyph glyph-name="icircumflex" unicode="î" d="M354 618v-567h175v-51h-405v51h175v516h-126v51h181zM442 715l-43 -33l-91 83l-92 -81l-42 33l134 118z" />
         <glyph glyph-name="idieresis" unicode="ï" d="M354 618v-567h175v-51h-405v51h175v516h-126v51h181zM155.5 741q-12.5 12 -12.5 43q0 29 12.5 40.5t44.5 11.5t45 -11.5t13 -40.5q0 -31 -12.5 -43t-45.5 -12q-32 0 -44.5 12zM371.5 741q-12.5 12 -12.5 43q0 29 12.5 40.5t44.5 11.5t45 -11.5t13 -40.5q0 -31 -12.5 -43 t-45.5 -12q-32 0 -44.5 12z" />
         <glyph glyph-name="i.loclTRK" d="M354 618v-567h175v-51h-405v51h175v516h-126v51h181zM263 755.5q-12 11.5 -12 42.5q0 32 12 43.5t45 11.5t45.5 -12t12.5 -43t-12.5 -42.5t-45.5 -11.5t-45 11.5z" />
         <glyph glyph-name="uni1ECB" unicode="ị" d="M354 618v-567h175v-51h-405v51h175v516h-126v51h181zM263 755.5q-12 11.5 -12 42.5q0 32 12 43.5t45 11.5t45.5 -12t12.5 -43t-12.5 -42.5t-45.5 -11.5t-45 11.5zM265 -209.5q-12 11.5 -12 42.5q0 32 12 43.5t45 11.5t45.5 -12t12.5 -43t-12.5 -42.5t-45.5 -11.5 t-45 11.5z" />
         <glyph glyph-name="igrave" unicode="ì" d="M354 618v-567h175v-51h-405v51h175v516h-126v51h181zM355 724l-37 -39l-138 122l36 38z" />
         <glyph glyph-name="uni1EC9" unicode="ỉ" d="M354 618v-567h175v-51h-405v51h175v516h-126v51h181zM277 704q32 8 48.5 21.5t16.5 29.5q0 14 -11 23.5t-26 9.5q-21 0 -44 -11.5t-41 -27.5v61q16 13 39.5 20.5t45.5 7.5q40 0 66 -23t26 -59q0 -34 -28.5 -61.5t-78.5 -39.5z" />
         <glyph glyph-name="imacron" unicode="ī" d="M354 618v-567h175v-51h-405v51h175v516h-126v51h181zM448 722h-279v50h279v-50z" />
         <glyph glyph-name="iogonek" unicode="į" d="M263 755.5q-12 11.5 -12 42.5q0 32 12 43.5t45 11.5t45.5 -12t12.5 -43t-12.5 -42.5t-45.5 -11.5t-45 11.5zM403 0l-32 -18q-56 -32 -82 -51.5t-26 -40.5q1 -16 15 -25.5t38 -9.5q16 0 33 6.5t29 16.5l26 -44q-15 -14 -39 -22t-49 -8q-50 0 -78.5 19t-28.5 56 q0 31 36.5 62t96.5 59h-218v51h175v516h-126v51h181v-567h175v-51h-126z" />
         <glyph glyph-name="itilde" unicode="ĩ" d="M354 618v-567h175v-51h-405v51h175v516h-126v51h181zM336 711.5q-18 11.5 -41 32.5q-19 17 -31 25t-23 8q-19 0 -24 -12t-4 -39h-55q-1 45 22 73t61 28q20 0 37.5 -11t42.5 -33q19 -17 31 -25t23 -8q19 0 24 11.5t4 36.5h55q1 -44 -22 -71t-61 -27q-21 0 -39 11.5z" />
         <glyph glyph-name="j" unicode="j" d="M149.5 -183.5q-32.5 12.5 -64.5 44.5l40 35q23 -23 47.5 -32t65.5 -9q61 0 94.5 17.5t48 59t14.5 117.5v518h-126v51h181v-569q0 -95 -19.5 -147.5t-65 -75t-127.5 -22.5q-56 0 -88.5 12.5zM353 755.5q-12 11.5 -12 42.5q0 32 12 43.5t45 11.5t45.5 -12t12.5 -43 t-12.5 -42.5t-45.5 -11.5t-45 11.5z" />
         <glyph glyph-name="uni0237" unicode="ȷ" d="M149.5 -183.5q-32.5 12.5 -64.5 44.5l40 35q23 -23 47.5 -32t65.5 -9q61 0 94.5 17.5t48 59t14.5 117.5v518h-126v51h181v-569q0 -95 -19.5 -147.5t-65 -75t-127.5 -22.5q-56 0 -88.5 12.5z" />
         <glyph glyph-name="jcircumflex" unicode="ĵ" d="M149.5 -183.5q-32.5 12.5 -64.5 44.5l40 35q23 -23 47.5 -32t65.5 -9q61 0 94.5 17.5t48 59t14.5 117.5v518h-126v51h181v-569q0 -95 -19.5 -147.5t-65 -75t-127.5 -22.5q-56 0 -88.5 12.5zM532 715l-43 -33l-91 83l-92 -81l-42 33l134 118z" />
         <glyph glyph-name="k" unicode="k" d="M179 0h-55v800h55v-444h48l201 262h66l-218 -285l258 -333h-66l-237 306h-52v-306z" />
         <glyph glyph-name="uni0137" unicode="ķ" d="M179 0h-55v800h55v-444h48l201 262h66l-218 -285l258 -333h-66l-237 306h-52v-306zM292 -124q-14 2 -20 11.5t-6 27.5q0 24 9.5 33t35.5 9q25 0 34.5 -9t9.5 -33q0 -27 -21 -71t-51 -90h-38z" />
         <glyph glyph-name="l" unicode="l" d="M313.5 6.5q-32.5 20.5 -46.5 69t-14 135.5v538h-126v51h181v-589q0 -67 9 -104.5t30 -53.5t59 -16q22 0 40.5 8.5t45.5 30.5l31 -48q-37 -24 -62.5 -33t-54.5 -9q-60 0 -92.5 20.5z" />
         <glyph glyph-name="lacute" unicode="ĺ" d="M313.5 6.5q-32.5 20.5 -46.5 69t-14 135.5v538h-126v51h181v-589q0 -67 9 -104.5t30 -53.5t59 -16q22 0 40.5 8.5t45.5 30.5l31 -48q-37 -24 -62.5 -33t-54.5 -9q-60 0 -92.5 20.5zM429 989l-139 -122l-36 39l138 121z" />
         <glyph glyph-name="lcaron" unicode="ľ" d="M313.5 6.5q-32.5 20.5 -46.5 69t-14 135.5v538h-126v51h181v-589q0 -67 9 -104.5t30 -53.5t59 -16q22 0 40.5 8.5t45.5 30.5l31 -48q-37 -24 -62.5 -33t-54.5 -9q-60 0 -92.5 20.5zM416 550h-44l-8 250h60z" />
         <glyph glyph-name="uni013C" unicode="ļ" d="M313.5 6.5q-32.5 20.5 -46.5 69t-14 135.5v538h-126v51h181v-589q0 -67 9 -104.5t30 -53.5t59 -16q22 0 40.5 8.5t45.5 30.5l31 -48q-37 -24 -62.5 -33t-54.5 -9q-60 0 -92.5 20.5zM363 -124q-14 2 -20 11.5t-6 27.5q0 24 9.5 33t35.5 9q25 0 34.5 -9t9.5 -33 q0 -27 -21 -71t-51 -90h-38z" />
         <glyph glyph-name="lslash" unicode="ł" d="M523 28q-37 -24 -62.5 -33t-54.5 -9q-60 0 -92.5 20.5t-46.5 69t-14 135.5v236l-116 -47v52l116 47v250h-126v51h181v-278l116 47v-52l-116 -47v-259q0 -67 9 -104.5t30 -53.5t59 -16q22 0 40.5 8.5t45.5 30.5z" />
         <glyph glyph-name="m" unicode="m" d="M55 0v618h55v-53q20 38 41.5 52t60.5 14q38 0 58 -19t35 -71q25 52 51.5 71t72.5 19q45 0 70 -21t35.5 -69.5t10.5 -136.5v-404h-55v404q0 64 -6.5 100t-20.5 51.5t-40 15.5q-37 0 -57 -15.5t-29 -51.5t-9 -101v-403h-55v398q0 67 -6.5 104t-20.5 53t-40 16 q-37 0 -57.5 -15.5t-29.5 -51.5t-9 -101v-403h-55z" />
         <glyph glyph-name="n" unicode="n" d="M96 0v618h55v-60q28 40 67 57t110 17q73 0 113 -21t57.5 -70.5t17.5 -139.5v-401h-55v401q0 70 -12.5 108.5t-41 55t-79.5 16.5q-71 0 -108 -14t-53 -49.5t-16 -105.5v-412h-55z" />
         <glyph glyph-name="nacute" unicode="ń" d="M96 0v618h55v-60q28 40 67 57t110 17q73 0 113 -21t57.5 -70.5t17.5 -139.5v-401h-55v401q0 70 -12.5 108.5t-41 55t-79.5 16.5q-71 0 -108 -14t-53 -49.5t-16 -105.5v-412h-55zM429 807l-139 -122l-36 39l138 121z" />
         <glyph glyph-name="ncaron" unicode="ň" d="M96 0v618h55v-60q28 40 67 57t110 17q73 0 113 -21t57.5 -70.5t17.5 -139.5v-401h-55v401q0 70 -12.5 108.5t-41 55t-79.5 16.5q-71 0 -108 -14t-53 -49.5t-16 -105.5v-412h-55zM434 809l-134 -120l-134 118l42 33l92 -81l91 83z" />
         <glyph glyph-name="uni0146" unicode="ņ" d="M96 0v618h55v-60q28 40 67 57t110 17q73 0 113 -21t57.5 -70.5t17.5 -139.5v-401h-55v401q0 70 -12.5 108.5t-41 55t-79.5 16.5q-71 0 -108 -14t-53 -49.5t-16 -105.5v-412h-55zM292 -124q-14 2 -20 11.5t-6 27.5q0 24 9.5 33t35.5 9q25 0 34.5 -9t9.5 -33q0 -27 -21 -71 t-51 -90h-38z" />
         <glyph glyph-name="eng" unicode="ŋ" d="M441 611q40 -21 57.5 -70.5t17.5 -139.5v-401q0 -61 -13.5 -94.5t-45 -48t-88.5 -14.5v50q40 0 58.5 7.5t26 29.5t7.5 70v401q0 70 -12.5 108.5t-41 55t-79.5 16.5q-71 0 -108 -14t-53 -49.5t-16 -105.5v-412h-55v618h55v-60q28 40 67 57t110 17q73 0 113 -21z" />
         <glyph glyph-name="ntilde" unicode="ñ" d="M96 0v618h55v-60q28 40 67 57t110 17q73 0 113 -21t57.5 -70.5t17.5 -139.5v-401h-55v401q0 70 -12.5 108.5t-41 55t-79.5 16.5q-71 0 -108 -14t-53 -49.5t-16 -105.5v-412h-55zM328 711.5q-18 11.5 -41 32.5q-19 17 -31 25t-23 8q-19 0 -24 -12t-4 -39h-55q-1 45 22 73 t61 28q20 0 37.5 -11t42.5 -33q19 -17 31 -25t23 -8q19 0 24 11.5t4 36.5h55q1 -44 -22 -71t-61 -27q-21 0 -39 11.5z" />
         <glyph glyph-name="o" unicode="o" d="M169.5 16q-46.5 30 -66.5 99.5t-20 193.5t20 193.5t66.5 99.5t130.5 30t131 -30t67 -99.5t20 -193.5t-20 -193.5t-67 -99.5t-131 -30t-130.5 30zM398 62q35 25 50 83t15 164t-15 164t-50 83t-98 25t-97.5 -25t-49.5 -83t-15 -164t15 -164t49.5 -83t97.5 -25t98 25z" />
         <glyph glyph-name="oacute" unicode="ó" d="M169.5 16q-46.5 30 -66.5 99.5t-20 193.5t20 193.5t66.5 99.5t130.5 30t131 -30t67 -99.5t20 -193.5t-20 -193.5t-67 -99.5t-131 -30t-130.5 30zM398 62q35 25 50 83t15 164t-15 164t-50 83t-98 25t-97.5 -25t-49.5 -83t-15 -164t15 -164t49.5 -83t97.5 -25t98 25z M429 807l-139 -122l-36 39l138 121z" />
         <glyph glyph-name="uni01D2" unicode="ǒ" d="M169.5 16q-46.5 30 -66.5 99.5t-20 193.5t20 193.5t66.5 99.5t130.5 30t131 -30t67 -99.5t20 -193.5t-20 -193.5t-67 -99.5t-131 -30t-130.5 30zM398 62q35 25 50 83t15 164t-15 164t-50 83t-98 25t-97.5 -25t-49.5 -83t-15 -164t15 -164t49.5 -83t97.5 -25t98 25z M434 809l-134 -120l-134 118l42 33l92 -81l91 83z" />
         <glyph glyph-name="ocircumflex" unicode="ô" d="M169.5 16q-46.5 30 -66.5 99.5t-20 193.5t20 193.5t66.5 99.5t130.5 30t131 -30t67 -99.5t20 -193.5t-20 -193.5t-67 -99.5t-131 -30t-130.5 30zM398 62q35 25 50 83t15 164t-15 164t-50 83t-98 25t-97.5 -25t-49.5 -83t-15 -164t15 -164t49.5 -83t97.5 -25t98 25z M434 715l-43 -33l-91 83l-92 -81l-42 33l134 118z" />
         <glyph glyph-name="uni1ED1" unicode="ố" d="M169.5 16q-46.5 30 -66.5 99.5t-20 193.5t20 193.5t66.5 99.5t130.5 30t131 -30t67 -99.5t20 -193.5t-20 -193.5t-67 -99.5t-131 -30t-130.5 30zM398 62q35 25 50 83t15 164t-15 164t-50 83t-98 25t-97.5 -25t-49.5 -83t-15 -164t15 -164t49.5 -83t97.5 -25t98 25z M434 715l-43 -33l-91 83l-92 -81l-42 33l134 118zM429 1012l-139 -122l-36 39l138 121z" />
         <glyph glyph-name="uni1ED9" unicode="ộ" d="M169.5 16q-46.5 30 -66.5 99.5t-20 193.5t20 193.5t66.5 99.5t130.5 30t131 -30t67 -99.5t20 -193.5t-20 -193.5t-67 -99.5t-131 -30t-130.5 30zM398 62q35 25 50 83t15 164t-15 164t-50 83t-98 25t-97.5 -25t-49.5 -83t-15 -164t15 -164t49.5 -83t97.5 -25t98 25z M255 -209.5q-12 11.5 -12 42.5q0 32 12 43.5t45 11.5t45.5 -12t12.5 -43t-12.5 -42.5t-45.5 -11.5t-45 11.5zM434 715l-43 -33l-91 83l-92 -81l-42 33l134 118z" />
         <glyph glyph-name="uni1ED3" unicode="ồ" d="M169.5 16q-46.5 30 -66.5 99.5t-20 193.5t20 193.5t66.5 99.5t130.5 30t131 -30t67 -99.5t20 -193.5t-20 -193.5t-67 -99.5t-131 -30t-130.5 30zM398 62q35 25 50 83t15 164t-15 164t-50 83t-98 25t-97.5 -25t-49.5 -83t-15 -164t15 -164t49.5 -83t97.5 -25t98 25z M434 715l-43 -33l-91 83l-92 -81l-42 33l134 118zM347 929l-37 -39l-138 122l36 38z" />
         <glyph glyph-name="uni1ED5" unicode="ổ" d="M169.5 16q-46.5 30 -66.5 99.5t-20 193.5t20 193.5t66.5 99.5t130.5 30t131 -30t67 -99.5t20 -193.5t-20 -193.5t-67 -99.5t-131 -30t-130.5 30zM398 62q35 25 50 83t15 164t-15 164t-50 83t-98 25t-97.5 -25t-49.5 -83t-15 -164t15 -164t49.5 -83t97.5 -25t98 25z M434 715l-43 -33l-91 83l-92 -81l-42 33l134 118zM269 909q32 8 48.5 21.5t16.5 29.5q0 14 -11 23.5t-26 9.5q-21 0 -44 -11.5t-41 -27.5v61q16 13 39.5 20.5t45.5 7.5q40 0 66 -23t26 -59q0 -34 -28.5 -61.5t-78.5 -39.5z" />
         <glyph glyph-name="uni1ED7" unicode="ỗ" d="M169.5 16q-46.5 30 -66.5 99.5t-20 193.5t20 193.5t66.5 99.5t130.5 30t131 -30t67 -99.5t20 -193.5t-20 -193.5t-67 -99.5t-131 -30t-130.5 30zM398 62q35 25 50 83t15 164t-15 164t-50 83t-98 25t-97.5 -25t-49.5 -83t-15 -164t15 -164t49.5 -83t97.5 -25t98 25z M434 715l-43 -33l-91 83l-92 -81l-42 33l134 118zM328 916.5q-18 11.5 -41 32.5q-19 17 -31 25t-23 8q-19 0 -24 -12t-4 -39h-55q-1 45 22 73t61 28q20 0 37.5 -11t42.5 -33q19 -17 31 -25t23 -8q19 0 24 11.5t4 36.5h55q1 -44 -22 -71t-61 -27q-21 0 -39 11.5z" />
         <glyph glyph-name="odieresis" unicode="ö" d="M169.5 16q-46.5 30 -66.5 99.5t-20 193.5t20 193.5t66.5 99.5t130.5 30t131 -30t67 -99.5t20 -193.5t-20 -193.5t-67 -99.5t-131 -30t-130.5 30zM398 62q35 25 50 83t15 164t-15 164t-50 83t-98 25t-97.5 -25t-49.5 -83t-15 -164t15 -164t49.5 -83t97.5 -25t98 25z M147.5 741q-12.5 12 -12.5 43q0 29 12.5 40.5t44.5 11.5t45 -11.5t13 -40.5q0 -31 -12.5 -43t-45.5 -12q-32 0 -44.5 12zM363.5 741q-12.5 12 -12.5 43q0 29 12.5 40.5t44.5 11.5t45 -11.5t13 -40.5q0 -31 -12.5 -43t-45.5 -12q-32 0 -44.5 12z" />
         <glyph glyph-name="uni1ECD" unicode="ọ" d="M169.5 16q-46.5 30 -66.5 99.5t-20 193.5t20 193.5t66.5 99.5t130.5 30t131 -30t67 -99.5t20 -193.5t-20 -193.5t-67 -99.5t-131 -30t-130.5 30zM398 62q35 25 50 83t15 164t-15 164t-50 83t-98 25t-97.5 -25t-49.5 -83t-15 -164t15 -164t49.5 -83t97.5 -25t98 25z M255 -209.5q-12 11.5 -12 42.5q0 32 12 43.5t45 11.5t45.5 -12t12.5 -43t-12.5 -42.5t-45.5 -11.5t-45 11.5z" />
         <glyph glyph-name="ograve" unicode="ò" d="M169.5 16q-46.5 30 -66.5 99.5t-20 193.5t20 193.5t66.5 99.5t130.5 30t131 -30t67 -99.5t20 -193.5t-20 -193.5t-67 -99.5t-131 -30t-130.5 30zM398 62q35 25 50 83t15 164t-15 164t-50 83t-98 25t-97.5 -25t-49.5 -83t-15 -164t15 -164t49.5 -83t97.5 -25t98 25z M347 724l-37 -39l-138 122l36 38z" />
         <glyph glyph-name="uni1ECF" unicode="ỏ" d="M169.5 16q-46.5 30 -66.5 99.5t-20 193.5t20 193.5t66.5 99.5t130.5 30t131 -30t67 -99.5t20 -193.5t-20 -193.5t-67 -99.5t-131 -30t-130.5 30zM398 62q35 25 50 83t15 164t-15 164t-50 83t-98 25t-97.5 -25t-49.5 -83t-15 -164t15 -164t49.5 -83t97.5 -25t98 25z M269 704q32 8 48.5 21.5t16.5 29.5q0 14 -11 23.5t-26 9.5q-21 0 -44 -11.5t-41 -27.5v61q16 13 39.5 20.5t45.5 7.5q40 0 66 -23t26 -59q0 -34 -28.5 -61.5t-78.5 -39.5z" />
         <glyph glyph-name="ohorn" unicode="ơ" d="M582 722h55v-132q0 -56 -30.5 -90t-79.5 -34q-10 0 -21 3q12 -64 12 -160q0 -124 -20 -193.5t-67 -99.5t-131 -30t-130.5 30t-66.5 99.5t-20 193.5t20 193.5t66.5 99.5t130.5 30q78 0 123.5 -25.5t67.5 -84.5q16 -6 35 -6q26 0 41 20t15 54v132zM398 62q35 25 50 83 t15 164t-15 164t-50 83t-98 25t-97.5 -25t-49.5 -83t-15 -164t15 -164t49.5 -83t97.5 -25t98 25z" />
         <glyph glyph-name="uni1EDB" unicode="ớ" d="M582 722h55v-132q0 -56 -30.5 -90t-79.5 -34q-10 0 -21 3q12 -64 12 -160q0 -124 -20 -193.5t-67 -99.5t-131 -30t-130.5 30t-66.5 99.5t-20 193.5t20 193.5t66.5 99.5t130.5 30q78 0 123.5 -25.5t67.5 -84.5q16 -6 35 -6q26 0 41 20t15 54v132zM398 62q35 25 50 83 t15 164t-15 164t-50 83t-98 25t-97.5 -25t-49.5 -83t-15 -164t15 -164t49.5 -83t97.5 -25t98 25zM429 807l-139 -122l-36 39l138 121z" />
         <glyph glyph-name="uni1EE3" unicode="ợ" d="M582 722h55v-132q0 -56 -30.5 -90t-79.5 -34q-10 0 -21 3q12 -64 12 -160q0 -124 -20 -193.5t-67 -99.5t-131 -30t-130.5 30t-66.5 99.5t-20 193.5t20 193.5t66.5 99.5t130.5 30q78 0 123.5 -25.5t67.5 -84.5q16 -6 35 -6q26 0 41 20t15 54v132zM398 62q35 25 50 83 t15 164t-15 164t-50 83t-98 25t-97.5 -25t-49.5 -83t-15 -164t15 -164t49.5 -83t97.5 -25t98 25zM255 -209.5q-12 11.5 -12 42.5q0 32 12 43.5t45 11.5t45.5 -12t12.5 -43t-12.5 -42.5t-45.5 -11.5t-45 11.5z" />
         <glyph glyph-name="uni1EDD" unicode="ờ" d="M582 722h55v-132q0 -56 -30.5 -90t-79.5 -34q-10 0 -21 3q12 -64 12 -160q0 -124 -20 -193.5t-67 -99.5t-131 -30t-130.5 30t-66.5 99.5t-20 193.5t20 193.5t66.5 99.5t130.5 30q78 0 123.5 -25.5t67.5 -84.5q16 -6 35 -6q26 0 41 20t15 54v132zM398 62q35 25 50 83 t15 164t-15 164t-50 83t-98 25t-97.5 -25t-49.5 -83t-15 -164t15 -164t49.5 -83t97.5 -25t98 25zM347 724l-37 -39l-138 122l36 38z" />
         <glyph glyph-name="uni1EDF" unicode="ở" d="M582 722h55v-132q0 -56 -30.5 -90t-79.5 -34q-10 0 -21 3q12 -64 12 -160q0 -124 -20 -193.5t-67 -99.5t-131 -30t-130.5 30t-66.5 99.5t-20 193.5t20 193.5t66.5 99.5t130.5 30q78 0 123.5 -25.5t67.5 -84.5q16 -6 35 -6q26 0 41 20t15 54v132zM398 62q35 25 50 83 t15 164t-15 164t-50 83t-98 25t-97.5 -25t-49.5 -83t-15 -164t15 -164t49.5 -83t97.5 -25t98 25zM269 704q32 8 48.5 21.5t16.5 29.5q0 14 -11 23.5t-26 9.5q-21 0 -44 -11.5t-41 -27.5v61q16 13 39.5 20.5t45.5 7.5q40 0 66 -23t26 -59q0 -34 -28.5 -61.5t-78.5 -39.5z" />
         <glyph glyph-name="uni1EE1" unicode="ỡ" d="M582 722h55v-132q0 -56 -30.5 -90t-79.5 -34q-10 0 -21 3q12 -64 12 -160q0 -124 -20 -193.5t-67 -99.5t-131 -30t-130.5 30t-66.5 99.5t-20 193.5t20 193.5t66.5 99.5t130.5 30q78 0 123.5 -25.5t67.5 -84.5q16 -6 35 -6q26 0 41 20t15 54v132zM398 62q35 25 50 83 t15 164t-15 164t-50 83t-98 25t-97.5 -25t-49.5 -83t-15 -164t15 -164t49.5 -83t97.5 -25t98 25zM328 711.5q-18 11.5 -41 32.5q-19 17 -31 25t-23 8q-19 0 -24 -12t-4 -39h-55q-1 45 22 73t61 28q20 0 37.5 -11t42.5 -33q19 -17 31 -25t23 -8q19 0 24 11.5t4 36.5h55 q1 -44 -22 -71t-61 -27q-21 0 -39 11.5z" />
         <glyph glyph-name="ohungarumlaut" unicode="ő" d="M169.5 16q-46.5 30 -66.5 99.5t-20 193.5t20 193.5t66.5 99.5t130.5 30t131 -30t67 -99.5t20 -193.5t-20 -193.5t-67 -99.5t-131 -30t-130.5 30zM398 62q35 25 50 83t15 164t-15 164t-50 83t-98 25t-97.5 -25t-49.5 -83t-15 -164t15 -164t49.5 -83t97.5 -25t98 25z M298 807l-139 -122l-36 39l139 121zM477 807l-139 -122l-36 39l139 121z" />
         <glyph glyph-name="omacron" unicode="ō" d="M169.5 16q-46.5 30 -66.5 99.5t-20 193.5t20 193.5t66.5 99.5t130.5 30t131 -30t67 -99.5t20 -193.5t-20 -193.5t-67 -99.5t-131 -30t-130.5 30zM398 62q35 25 50 83t15 164t-15 164t-50 83t-98 25t-97.5 -25t-49.5 -83t-15 -164t15 -164t49.5 -83t97.5 -25t98 25z M440 722h-279v50h279v-50z" />
         <glyph glyph-name="oslash" unicode="ø" d="M526 650l-53 -92q24 -37 34.5 -97.5t10.5 -151.5q0 -124 -20 -193.5t-67 -99.5t-131 -30q-89 0 -136 34l-29 -51h-63l54 93q-23 37 -33 97t-10 150q0 124 20 193.5t66.5 99.5t130.5 30q88 0 135 -33l29 51h62zM160 122l246 427q-35 32 -106 32q-63 0 -97.5 -25t-49.5 -83 t-15 -164q0 -129 22 -187zM439 499l-246 -429q34 -33 107 -33q63 0 98 25t50 83t15 164q0 131 -24 190z" />
         <glyph glyph-name="otilde" unicode="õ" d="M169.5 16q-46.5 30 -66.5 99.5t-20 193.5t20 193.5t66.5 99.5t130.5 30t131 -30t67 -99.5t20 -193.5t-20 -193.5t-67 -99.5t-131 -30t-130.5 30zM398 62q35 25 50 83t15 164t-15 164t-50 83t-98 25t-97.5 -25t-49.5 -83t-15 -164t15 -164t49.5 -83t97.5 -25t98 25z M328 711.5q-18 11.5 -41 32.5q-19 17 -31 25t-23 8q-19 0 -24 -12t-4 -39h-55q-1 45 22 73t61 28q20 0 37.5 -11t42.5 -33q19 -17 31 -25t23 -8q19 0 24 11.5t4 36.5h55q1 -44 -22 -71t-61 -27q-21 0 -39 11.5z" />
         <glyph glyph-name="oe" unicode="œ" d="M77 14q-34 30 -48.5 100t-14.5 195t14.5 195t48.5 100t95 30q52 0 80 -23t49 -84q20 61 49.5 84t87.5 23q57 0 89 -30.5t45.5 -100.5t13.5 -197h-258q0 -105 10.5 -163.5t34 -83.5t65.5 -25q26 0 45 17.5t44 65.5l45 -31q-30 -58 -59 -80t-75 -22q-58 0 -87.5 23 t-49.5 84q-21 -61 -49 -84t-80 -23q-61 0 -95 30zM232.5 59q21.5 25 31 84t9.5 166t-9.5 166t-31 84t-60.5 25q-40 0 -62 -25t-31.5 -84t-9.5 -166t9.5 -166t31.5 -84t62 -25q39 0 60.5 25zM530 356q-1 88 -9.5 137t-28 70t-54.5 21q-42 0 -65.5 -21t-33.5 -70t-10 -137h201 z" />
         <glyph glyph-name="p" unicode="p" d="M89 -182v800h55v-48q21 34 62 48t101 14q84 0 131 -30t67 -99t20 -193q0 -125 -20 -194.5t-67 -99.5t-131 -30q-62 0 -103 19.5t-60 65.5v-253h-55zM405 62q35 25 50 83.5t15 164.5q0 105 -15 163t-50 83t-98 25q-73 0 -118 -20t-45 -65v-292q0 -167 163 -167q63 0 98 25 z" />
         <glyph glyph-name="thorn" unicode="þ" d="M89 -182v982h55v-230q21 34 62 48t101 14q84 0 131 -30t67 -99t20 -193q0 -125 -20 -194.5t-67 -99.5t-131 -30q-62 0 -103 19.5t-60 65.5v-253h-55zM405 62q35 25 50 83.5t15 164.5q0 105 -15 163t-50 83t-98 25q-73 0 -118 -20t-45 -65v-292q0 -167 163 -167 q63 0 98 25z" />
         <glyph glyph-name="q" unicode="q" d="M457 71q-20 -46 -61.5 -65.5t-102.5 -19.5q-84 0 -130.5 30t-66.5 99.5t-20 194.5q0 124 20 193t66.5 99t130.5 30q60 0 101.5 -14t62.5 -48v48h55v-800h-55v253zM457 204v292q0 45 -45 65t-119 20q-63 0 -97.5 -25t-49.5 -83t-15 -163q0 -106 15 -164.5t49.5 -83.5 t97.5 -25q164 0 164 167z" />
         <glyph glyph-name="r" unicode="r" d="M123 0v618h55v-116q17 52 65 91t109 39q70 0 107.5 -26t66.5 -94l-48 -22q-20 52 -47 71.5t-79 19.5q-61 0 -100.5 -37t-56.5 -89t-17 -98v-357h-55z" />
         <glyph glyph-name="racute" unicode="ŕ" d="M123 0v618h55v-116q17 52 65 91t109 39q70 0 107.5 -26t66.5 -94l-48 -22q-20 52 -47 71.5t-79 19.5q-61 0 -100.5 -37t-56.5 -89t-17 -98v-357h-55zM429 807l-139 -122l-36 39l138 121z" />
         <glyph glyph-name="rcaron" unicode="ř" d="M123 0v618h55v-116q17 52 65 91t109 39q70 0 107.5 -26t66.5 -94l-48 -22q-20 52 -47 71.5t-79 19.5q-61 0 -100.5 -37t-56.5 -89t-17 -98v-357h-55zM434 809l-134 -120l-134 118l42 33l92 -81l91 83z" />
         <glyph glyph-name="uni0157" unicode="ŗ" d="M123 0v618h55v-116q17 52 65 91t109 39q70 0 107.5 -26t66.5 -94l-48 -22q-20 52 -47 71.5t-79 19.5q-61 0 -100.5 -37t-56.5 -89t-17 -98v-357h-55zM292 -124q-14 2 -20 11.5t-6 27.5q0 24 9.5 33t35.5 9q25 0 34.5 -9t9.5 -33q0 -27 -21 -71t-51 -90h-38z" />
         <glyph glyph-name="s" unicode="s" d="M165.5 8q-39.5 22 -72.5 81l43 35q25 -50 54.5 -68.5t84.5 -18.5q76 0 118 12t60 40t18 79q0 44 -15 69t-50.5 39.5t-100.5 22.5q-112 14 -157.5 52.5t-45.5 107.5q0 67 20.5 104t68.5 53t134 16q74 0 114.5 -18.5t74.5 -68.5l-40 -38q-26 42 -58 58t-91 16 q-66 0 -102 -11t-51 -37.5t-15 -73.5q0 -45 33 -71t115 -37q86 -11 133 -31.5t67.5 -56t20.5 -95.5q0 -70 -23.5 -109t-77.5 -56t-150 -17q-70 0 -109.5 22z" />
         <glyph glyph-name="sacute" unicode="ś" d="M165.5 8q-39.5 22 -72.5 81l43 35q25 -50 54.5 -68.5t84.5 -18.5q76 0 118 12t60 40t18 79q0 44 -15 69t-50.5 39.5t-100.5 22.5q-112 14 -157.5 52.5t-45.5 107.5q0 67 20.5 104t68.5 53t134 16q74 0 114.5 -18.5t74.5 -68.5l-40 -38q-26 42 -58 58t-91 16 q-66 0 -102 -11t-51 -37.5t-15 -73.5q0 -45 33 -71t115 -37q86 -11 133 -31.5t67.5 -56t20.5 -95.5q0 -70 -23.5 -109t-77.5 -56t-150 -17q-70 0 -109.5 22zM429 807l-139 -122l-36 39l138 121z" />
         <glyph glyph-name="scaron" unicode="š" d="M165.5 8q-39.5 22 -72.5 81l43 35q25 -50 54.5 -68.5t84.5 -18.5q76 0 118 12t60 40t18 79q0 44 -15 69t-50.5 39.5t-100.5 22.5q-112 14 -157.5 52.5t-45.5 107.5q0 67 20.5 104t68.5 53t134 16q74 0 114.5 -18.5t74.5 -68.5l-40 -38q-26 42 -58 58t-91 16 q-66 0 -102 -11t-51 -37.5t-15 -73.5q0 -45 33 -71t115 -37q86 -11 133 -31.5t67.5 -56t20.5 -95.5q0 -70 -23.5 -109t-77.5 -56t-150 -17q-70 0 -109.5 22zM434 809l-134 -120l-134 118l42 33l92 -81l91 83z" />
         <glyph glyph-name="scedilla" unicode="ş" d="M507 67.5q-19 -37.5 -61.5 -56.5t-117.5 -24v-28q33 -8 53.5 -28t20.5 -46q0 -38 -29.5 -62t-78.5 -24q-25 0 -49 8t-39 22l23 45q12 -11 30.5 -17.5t34.5 -6.5q24 0 38.5 9.5t14.5 25.5q0 15 -20.5 23.5t-53.5 8.5v69q-69 0 -108 22.5t-72 80.5l43 35q25 -50 54.5 -68.5 t84.5 -18.5q76 0 118 12t60 40t18 79q0 44 -15 69t-50.5 39.5t-100.5 22.5q-112 14 -157.5 52.5t-45.5 107.5q0 67 20.5 104t68.5 53t134 16q74 0 114.5 -18.5t74.5 -68.5l-40 -38q-26 42 -58 58t-91 16q-66 0 -102 -11t-51 -37.5t-15 -73.5q0 -45 33 -71t115 -37 q86 -11 133 -31.5t67.5 -56t20.5 -95.5q0 -63 -19 -100.5z" />
         <glyph glyph-name="scircumflex" unicode="ŝ" d="M165.5 8q-39.5 22 -72.5 81l43 35q25 -50 54.5 -68.5t84.5 -18.5q76 0 118 12t60 40t18 79q0 44 -15 69t-50.5 39.5t-100.5 22.5q-112 14 -157.5 52.5t-45.5 107.5q0 67 20.5 104t68.5 53t134 16q74 0 114.5 -18.5t74.5 -68.5l-40 -38q-26 42 -58 58t-91 16 q-66 0 -102 -11t-51 -37.5t-15 -73.5q0 -45 33 -71t115 -37q86 -11 133 -31.5t67.5 -56t20.5 -95.5q0 -70 -23.5 -109t-77.5 -56t-150 -17q-70 0 -109.5 22zM434 715l-43 -33l-91 83l-92 -81l-42 33l134 118z" />
         <glyph glyph-name="uni0219" unicode="ș" d="M165.5 8q-39.5 22 -72.5 81l43 35q25 -50 54.5 -68.5t84.5 -18.5q76 0 118 12t60 40t18 79q0 44 -15 69t-50.5 39.5t-100.5 22.5q-112 14 -157.5 52.5t-45.5 107.5q0 67 20.5 104t68.5 53t134 16q74 0 114.5 -18.5t74.5 -68.5l-40 -38q-26 42 -58 58t-91 16 q-66 0 -102 -11t-51 -37.5t-15 -73.5q0 -45 33 -71t115 -37q86 -11 133 -31.5t67.5 -56t20.5 -95.5q0 -70 -23.5 -109t-77.5 -56t-150 -17q-70 0 -109.5 22zM292 -124q-14 2 -20 11.5t-6 27.5q0 24 9.5 33t35.5 9q25 0 34.5 -9t9.5 -33q0 -27 -21 -71t-51 -90h-38z" />
         <glyph glyph-name="germandbls" unicode="ß" d="M87 601q0 82 18 127.5t59 65.5t115 20q83 0 130 -20t67.5 -65.5t20.5 -127.5q0 -72 -17.5 -108.5t-62.5 -62.5q40 -17 62.5 -41.5t32.5 -63t10 -100.5q0 -86 -20 -134.5t-67 -69.5t-131 -21h-55v51h55q63 0 98 16t50 53.5t15 104.5q0 68 -15 105.5t-50 53.5t-98 16h-37 v50h12q63 0 98 13.5t50 46t15 91.5q0 63 -15 97.5t-50 49.5t-98 15q-53 0 -82.5 -15t-42 -49.5t-12.5 -97.5v-601h-55v601z" />
         <glyph glyph-name="t" unicode="t" d="M262.5 8.5q-37.5 22.5 -53.5 70t-16 127.5v362h-124v51h124v181h55v-181h208v-51h-208v-362q0 -91 26 -130t91 -39q53 0 77 12.5t37 46.5l52 -17q-19 -53 -55 -73t-111 -20q-65 0 -102.5 22.5z" />
         <glyph glyph-name="tbar" unicode="ŧ" d="M531 79q-19 -53 -55 -73t-111 -20q-65 0 -102.5 22.5t-53.5 70t-16 127.5v143h-124v51h124v168h-124v51h124v181h55v-181h208v-51h-208v-168h208v-51h-208v-143q0 -91 26 -130t91 -39q53 0 77 12.5t37 46.5z" />
         <glyph glyph-name="tcaron" unicode="ť" d="M356 671h-44l-8 250h60zM262.5 8.5q-37.5 22.5 -53.5 70t-16 127.5v362h-124v51h124v181h55v-181h208v-51h-208v-362q0 -91 26 -130t91 -39q53 0 77 12.5t37 46.5l52 -17q-19 -53 -55 -73t-111 -20q-65 0 -102.5 22.5z" />
         <glyph glyph-name="uni0163" unicode="ţ" d="M531 79q-18 -49 -49.5 -69.5t-93.5 -23.5v-27q33 -8 53.5 -28t20.5 -46q0 -38 -29.5 -62t-78.5 -24q-25 0 -49 8t-39 22l23 45q12 -11 30.5 -17.5t34.5 -6.5q24 0 38.5 9.5t14.5 25.5q0 15 -20.5 23.5t-53.5 8.5v70q-77 8 -108.5 59t-31.5 160v362h-124v51h124v181h55 v-181h208v-51h-208v-362q0 -91 26 -130t91 -39q53 0 77 12.5t37 46.5z" />
         <glyph glyph-name="uni021B" unicode="ț" d="M262.5 8.5q-37.5 22.5 -53.5 70t-16 127.5v362h-124v51h124v181h55v-181h208v-51h-208v-362q0 -91 26 -130t91 -39q53 0 77 12.5t37 46.5l52 -17q-19 -53 -55 -73t-111 -20q-65 0 -102.5 22.5zM352 -124q-14 2 -20 11.5t-6 27.5q0 24 9.5 33t35.5 9q25 0 34.5 -9t9.5 -33 q0 -27 -21 -71t-51 -90h-38z" />
         <glyph glyph-name="u" unicode="u" d="M171 7q-40 21 -57.5 69.5t-17.5 135.5v406h55v-406q0 -68 12 -105.5t40.5 -53.5t79.5 -16q69 0 107 13.5t54.5 45t16.5 89.5v433h55v-618h-55v55q-28 -39 -66.5 -54t-111.5 -15q-72 0 -112 21z" />
         <glyph glyph-name="uacute" unicode="ú" d="M171 7q-40 21 -57.5 69.5t-17.5 135.5v406h55v-406q0 -68 12 -105.5t40.5 -53.5t79.5 -16q69 0 107 13.5t54.5 45t16.5 89.5v433h55v-618h-55v55q-28 -39 -66.5 -54t-111.5 -15q-72 0 -112 21zM429 807l-139 -122l-36 39l138 121z" />
         <glyph glyph-name="ubreve" unicode="ŭ" d="M171 7q-40 21 -57.5 69.5t-17.5 135.5v406h55v-406q0 -68 12 -105.5t40.5 -53.5t79.5 -16q69 0 107 13.5t54.5 45t16.5 89.5v433h55v-618h-55v55q-28 -39 -66.5 -54t-111.5 -15q-72 0 -112 21zM223 694q-27 11 -39 36.5t-11 71.5h55q-1 -39 14.5 -54t56.5 -15 q43 0 58.5 15t15.5 54h55q0 -46 -12 -71.5t-39.5 -36.5t-77.5 -11q-49 0 -76 11z" />
         <glyph glyph-name="uni01D4" unicode="ǔ" d="M171 7q-40 21 -57.5 69.5t-17.5 135.5v406h55v-406q0 -68 12 -105.5t40.5 -53.5t79.5 -16q69 0 107 13.5t54.5 45t16.5 89.5v433h55v-618h-55v55q-28 -39 -66.5 -54t-111.5 -15q-72 0 -112 21zM434 809l-134 -120l-134 118l42 33l92 -81l91 83z" />
         <glyph glyph-name="ucircumflex" unicode="û" d="M171 7q-40 21 -57.5 69.5t-17.5 135.5v406h55v-406q0 -68 12 -105.5t40.5 -53.5t79.5 -16q69 0 107 13.5t54.5 45t16.5 89.5v433h55v-618h-55v55q-28 -39 -66.5 -54t-111.5 -15q-72 0 -112 21zM434 715l-43 -33l-91 83l-92 -81l-42 33l134 118z" />
         <glyph glyph-name="udieresis" unicode="ü" d="M171 7q-40 21 -57.5 69.5t-17.5 135.5v406h55v-406q0 -68 12 -105.5t40.5 -53.5t79.5 -16q69 0 107 13.5t54.5 45t16.5 89.5v433h55v-618h-55v55q-28 -39 -66.5 -54t-111.5 -15q-72 0 -112 21zM147.5 741q-12.5 12 -12.5 43q0 29 12.5 40.5t44.5 11.5t45 -11.5t13 -40.5 q0 -31 -12.5 -43t-45.5 -12q-32 0 -44.5 12zM363.5 741q-12.5 12 -12.5 43q0 29 12.5 40.5t44.5 11.5t45 -11.5t13 -40.5q0 -31 -12.5 -43t-45.5 -12q-32 0 -44.5 12z" />
         <glyph glyph-name="uni01D8" unicode="ǘ" d="M171 7q-40 21 -57.5 69.5t-17.5 135.5v406h55v-406q0 -68 12 -105.5t40.5 -53.5t79.5 -16q69 0 107 13.5t54.5 45t16.5 89.5v433h55v-618h-55v55q-28 -39 -66.5 -54t-111.5 -15q-72 0 -112 21zM147.5 741q-12.5 12 -12.5 43q0 29 12.5 40.5t44.5 11.5t45 -11.5t13 -40.5 q0 -31 -12.5 -43t-45.5 -12q-32 0 -44.5 12zM363.5 741q-12.5 12 -12.5 43q0 29 12.5 40.5t44.5 11.5t45 -11.5t13 -40.5q0 -31 -12.5 -43t-45.5 -12q-32 0 -44.5 12zM429 1022l-139 -122l-36 39l138 121z" />
         <glyph glyph-name="uni01DA" unicode="ǚ" d="M171 7q-40 21 -57.5 69.5t-17.5 135.5v406h55v-406q0 -68 12 -105.5t40.5 -53.5t79.5 -16q69 0 107 13.5t54.5 45t16.5 89.5v433h55v-618h-55v55q-28 -39 -66.5 -54t-111.5 -15q-72 0 -112 21zM147.5 741q-12.5 12 -12.5 43q0 29 12.5 40.5t44.5 11.5t45 -11.5t13 -40.5 q0 -31 -12.5 -43t-45.5 -12q-32 0 -44.5 12zM363.5 741q-12.5 12 -12.5 43q0 29 12.5 40.5t44.5 11.5t45 -11.5t13 -40.5q0 -31 -12.5 -43t-45.5 -12q-32 0 -44.5 12zM434 1024l-134 -120l-134 118l42 33l92 -81l91 83z" />
         <glyph glyph-name="uni01DC" unicode="ǜ" d="M171 7q-40 21 -57.5 69.5t-17.5 135.5v406h55v-406q0 -68 12 -105.5t40.5 -53.5t79.5 -16q69 0 107 13.5t54.5 45t16.5 89.5v433h55v-618h-55v55q-28 -39 -66.5 -54t-111.5 -15q-72 0 -112 21zM147.5 741q-12.5 12 -12.5 43q0 29 12.5 40.5t44.5 11.5t45 -11.5t13 -40.5 q0 -31 -12.5 -43t-45.5 -12q-32 0 -44.5 12zM363.5 741q-12.5 12 -12.5 43q0 29 12.5 40.5t44.5 11.5t45 -11.5t13 -40.5q0 -31 -12.5 -43t-45.5 -12q-32 0 -44.5 12zM347 939l-37 -39l-138 122l36 38z" />
         <glyph glyph-name="uni01D6" unicode="ǖ" d="M171 7q-40 21 -57.5 69.5t-17.5 135.5v406h55v-406q0 -68 12 -105.5t40.5 -53.5t79.5 -16q69 0 107 13.5t54.5 45t16.5 89.5v433h55v-618h-55v55q-28 -39 -66.5 -54t-111.5 -15q-72 0 -112 21zM147.5 741q-12.5 12 -12.5 43q0 29 12.5 40.5t44.5 11.5t45 -11.5t13 -40.5 q0 -31 -12.5 -43t-45.5 -12q-32 0 -44.5 12zM363.5 741q-12.5 12 -12.5 43q0 29 12.5 40.5t44.5 11.5t45 -11.5t13 -40.5q0 -31 -12.5 -43t-45.5 -12q-32 0 -44.5 12zM440 937h-279v50h279v-50z" />
         <glyph glyph-name="uni1EE5" unicode="ụ" d="M171 7q-40 21 -57.5 69.5t-17.5 135.5v406h55v-406q0 -68 12 -105.5t40.5 -53.5t79.5 -16q69 0 107 13.5t54.5 45t16.5 89.5v433h55v-618h-55v55q-28 -39 -66.5 -54t-111.5 -15q-72 0 -112 21zM255 -209.5q-12 11.5 -12 42.5q0 32 12 43.5t45 11.5t45.5 -12t12.5 -43 t-12.5 -42.5t-45.5 -11.5t-45 11.5z" />
         <glyph glyph-name="ugrave" unicode="ù" d="M171 7q-40 21 -57.5 69.5t-17.5 135.5v406h55v-406q0 -68 12 -105.5t40.5 -53.5t79.5 -16q69 0 107 13.5t54.5 45t16.5 89.5v433h55v-618h-55v55q-28 -39 -66.5 -54t-111.5 -15q-72 0 -112 21zM347 724l-37 -39l-138 122l36 38z" />
         <glyph glyph-name="uni1EE7" unicode="ủ" d="M171 7q-40 21 -57.5 69.5t-17.5 135.5v406h55v-406q0 -68 12 -105.5t40.5 -53.5t79.5 -16q69 0 107 13.5t54.5 45t16.5 89.5v433h55v-618h-55v55q-28 -39 -66.5 -54t-111.5 -15q-72 0 -112 21zM269 704q32 8 48.5 21.5t16.5 29.5q0 14 -11 23.5t-26 9.5q-21 0 -44 -11.5 t-41 -27.5v61q16 13 39.5 20.5t45.5 7.5q40 0 66 -23t26 -59q0 -34 -28.5 -61.5t-78.5 -39.5z" />
         <glyph glyph-name="uhorn" unicode="ư" d="M607 795h55v-133q0 -56 -30.5 -90t-79.5 -34q-18 0 -36 9v-547h-55v55q-28 -39 -66.5 -54t-111.5 -15q-72 0 -112 21t-57.5 69.5t-17.5 135.5v406h55v-406q0 -68 12 -105.5t40.5 -53.5t79.5 -16q69 0 107 13.5t54.5 45t16.5 89.5v433h55v-23q17 -6 35 -6q25 0 40.5 20 t15.5 53v133z" />
         <glyph glyph-name="uni1EE9" unicode="ứ" d="M607 795h55v-133q0 -56 -30.5 -90t-79.5 -34q-18 0 -36 9v-547h-55v55q-28 -39 -66.5 -54t-111.5 -15q-72 0 -112 21t-57.5 69.5t-17.5 135.5v406h55v-406q0 -68 12 -105.5t40.5 -53.5t79.5 -16q69 0 107 13.5t54.5 45t16.5 89.5v433h55v-23q17 -6 35 -6q25 0 40.5 20 t15.5 53v133zM429 807l-139 -122l-36 39l138 121z" />
         <glyph glyph-name="uni1EF1" unicode="ự" d="M607 795h55v-133q0 -56 -30.5 -90t-79.5 -34q-18 0 -36 9v-547h-55v55q-28 -39 -66.5 -54t-111.5 -15q-72 0 -112 21t-57.5 69.5t-17.5 135.5v406h55v-406q0 -68 12 -105.5t40.5 -53.5t79.5 -16q69 0 107 13.5t54.5 45t16.5 89.5v433h55v-23q17 -6 35 -6q25 0 40.5 20 t15.5 53v133zM255 -209.5q-12 11.5 -12 42.5q0 32 12 43.5t45 11.5t45.5 -12t12.5 -43t-12.5 -42.5t-45.5 -11.5t-45 11.5z" />
         <glyph glyph-name="uni1EEB" unicode="ừ" d="M607 795h55v-133q0 -56 -30.5 -90t-79.5 -34q-18 0 -36 9v-547h-55v55q-28 -39 -66.5 -54t-111.5 -15q-72 0 -112 21t-57.5 69.5t-17.5 135.5v406h55v-406q0 -68 12 -105.5t40.5 -53.5t79.5 -16q69 0 107 13.5t54.5 45t16.5 89.5v433h55v-23q17 -6 35 -6q25 0 40.5 20 t15.5 53v133zM347 724l-37 -39l-138 122l36 38z" />
         <glyph glyph-name="uni1EED" unicode="ử" d="M607 795h55v-133q0 -56 -30.5 -90t-79.5 -34q-18 0 -36 9v-547h-55v55q-28 -39 -66.5 -54t-111.5 -15q-72 0 -112 21t-57.5 69.5t-17.5 135.5v406h55v-406q0 -68 12 -105.5t40.5 -53.5t79.5 -16q69 0 107 13.5t54.5 45t16.5 89.5v433h55v-23q17 -6 35 -6q25 0 40.5 20 t15.5 53v133zM269 704q32 8 48.5 21.5t16.5 29.5q0 14 -11 23.5t-26 9.5q-21 0 -44 -11.5t-41 -27.5v61q16 13 39.5 20.5t45.5 7.5q40 0 66 -23t26 -59q0 -34 -28.5 -61.5t-78.5 -39.5z" />
         <glyph glyph-name="uni1EEF" unicode="ữ" d="M607 795h55v-133q0 -56 -30.5 -90t-79.5 -34q-18 0 -36 9v-547h-55v55q-28 -39 -66.5 -54t-111.5 -15q-72 0 -112 21t-57.5 69.5t-17.5 135.5v406h55v-406q0 -68 12 -105.5t40.5 -53.5t79.5 -16q69 0 107 13.5t54.5 45t16.5 89.5v433h55v-23q17 -6 35 -6q25 0 40.5 20 t15.5 53v133zM328 711.5q-18 11.5 -41 32.5q-19 17 -31 25t-23 8q-19 0 -24 -12t-4 -39h-55q-1 45 22 73t61 28q20 0 37.5 -11t42.5 -33q19 -17 31 -25t23 -8q19 0 24 11.5t4 36.5h55q1 -44 -22 -71t-61 -27q-21 0 -39 11.5z" />
         <glyph glyph-name="uhungarumlaut" unicode="ű" d="M171 7q-40 21 -57.5 69.5t-17.5 135.5v406h55v-406q0 -68 12 -105.5t40.5 -53.5t79.5 -16q69 0 107 13.5t54.5 45t16.5 89.5v433h55v-618h-55v55q-28 -39 -66.5 -54t-111.5 -15q-72 0 -112 21zM298 805l-139 -121l-36 38l139 121zM477 805l-139 -121l-36 38l139 121z" />
         <glyph glyph-name="umacron" unicode="ū" d="M171 7q-40 21 -57.5 69.5t-17.5 135.5v406h55v-406q0 -68 12 -105.5t40.5 -53.5t79.5 -16q69 0 107 13.5t54.5 45t16.5 89.5v433h55v-618h-55v55q-28 -39 -66.5 -54t-111.5 -15q-72 0 -112 21zM440 722h-279v50h279v-50z" />
         <glyph glyph-name="uogonek" unicode="ų" d="M515 0l-32 -18q-56 -32 -82 -51.5t-26 -40.5q1 -16 15 -25.5t38 -9.5q16 0 33 6.5t29 16.5l26 -44q-15 -14 -39 -22t-49 -8q-50 0 -78.5 19t-28.5 56q0 32 39 64t101 60v52q-28 -39 -66.5 -54t-111.5 -15q-72 0 -112 21t-57.5 69.5t-17.5 135.5v406h55v-406 q0 -68 12 -105.5t40.5 -53.5t79.5 -16q69 0 107 13.5t54.5 45t16.5 89.5v433h55v-618h-1z" />
         <glyph glyph-name="uring" unicode="ů" d="M171 7q-40 21 -57.5 69.5t-17.5 135.5v406h55v-406q0 -68 12 -105.5t40.5 -53.5t79.5 -16q69 0 107 13.5t54.5 45t16.5 89.5v433h55v-618h-55v55q-28 -39 -66.5 -54t-111.5 -15q-72 0 -112 21zM200.5 720.5q-27.5 25.5 -27.5 91.5t27.5 91.5t98.5 25.5q72 0 100.5 -25.5 t28.5 -91.5q0 -45 -12 -70t-39.5 -36t-77.5 -11q-71 0 -98.5 25.5zM357.5 759.5q15.5 14.5 15.5 52.5t-15.5 52.5t-58.5 14.5q-41 0 -56 -14.5t-15 -52.5t15 -52.5t56 -14.5q43 0 58.5 14.5z" />
         <glyph glyph-name="utilde" unicode="ũ" d="M171 7q-40 21 -57.5 69.5t-17.5 135.5v406h55v-406q0 -68 12 -105.5t40.5 -53.5t79.5 -16q69 0 107 13.5t54.5 45t16.5 89.5v433h55v-618h-55v55q-28 -39 -66.5 -54t-111.5 -15q-72 0 -112 21zM328 711.5q-18 11.5 -41 32.5q-19 17 -31 25t-23 8q-19 0 -24 -12t-4 -39 h-55q-1 45 22 73t61 28q20 0 37.5 -11t42.5 -33q19 -17 31 -25t23 -8q19 0 24 11.5t4 36.5h55q1 -44 -22 -71t-61 -27q-21 0 -39 11.5z" />
         <glyph glyph-name="v" unicode="v" d="M328 0h-58l-205 618h56l178 -528l178 528h57z" />
         <glyph glyph-name="w" unicode="w" d="M196 0h-54l-106 618h56l85 -510l96 312h54l95 -312l86 510h56l-107 -618h-54l-103 335z" />
         <glyph glyph-name="wacute" unicode="ẃ" d="M196 0h-54l-106 618h56l85 -510l96 312h54l95 -312l86 510h56l-107 -618h-54l-103 335zM429 807l-139 -122l-36 39l138 121z" />
         <glyph glyph-name="wcircumflex" unicode="ŵ" d="M196 0h-54l-106 618h56l85 -510l96 312h54l95 -312l86 510h56l-107 -618h-54l-103 335zM434 715l-43 -33l-91 83l-92 -81l-42 33l134 118z" />
         <glyph glyph-name="wdieresis" unicode="ẅ" d="M196 0h-54l-106 618h56l85 -510l96 312h54l95 -312l86 510h56l-107 -618h-54l-103 335zM147.5 741q-12.5 12 -12.5 43q0 29 12.5 40.5t44.5 11.5t45 -11.5t13 -40.5q0 -31 -12.5 -43t-45.5 -12q-32 0 -44.5 12zM363.5 741q-12.5 12 -12.5 43q0 29 12.5 40.5t44.5 11.5 t45 -11.5t13 -40.5q0 -31 -12.5 -43t-45.5 -12q-32 0 -44.5 12z" />
         <glyph glyph-name="wgrave" unicode="ẁ" d="M196 0h-54l-106 618h56l85 -510l96 312h54l95 -312l86 510h56l-107 -618h-54l-103 335zM347 724l-37 -39l-138 122l36 38z" />
         <glyph glyph-name="x" unicode="x" d="M457 618h62l-187 -309l187 -309h-62l-157 258l-156 -258h-63l188 309l-188 309h63l156 -258z" />
         <glyph glyph-name="y" unicode="y" d="M84 -190.5q-20 5.5 -43 20.5l22 47q22 -13 37.5 -17.5t33.5 -4.5q44 0 72.5 13t49 44t38.5 87l-198 619h57l171 -539l173 539h57l-203 -618q-24 -75 -52 -117t-67 -60.5t-98 -18.5q-30 0 -50 5.5z" />
         <glyph glyph-name="yacute" unicode="ý" d="M84 -190.5q-20 5.5 -43 20.5l22 47q22 -13 37.5 -17.5t33.5 -4.5q44 0 72.5 13t49 44t38.5 87l-198 619h57l171 -539l173 539h57l-203 -618q-24 -75 -52 -117t-67 -60.5t-98 -18.5q-30 0 -50 5.5zM429 807l-139 -122l-36 39l138 121z" />
         <glyph glyph-name="ycircumflex" unicode="ŷ" d="M84 -190.5q-20 5.5 -43 20.5l22 47q22 -13 37.5 -17.5t33.5 -4.5q44 0 72.5 13t49 44t38.5 87l-198 619h57l171 -539l173 539h57l-203 -618q-24 -75 -52 -117t-67 -60.5t-98 -18.5q-30 0 -50 5.5zM434 715l-43 -33l-91 83l-92 -81l-42 33l134 118z" />
         <glyph glyph-name="ydieresis" unicode="ÿ" d="M84 -190.5q-20 5.5 -43 20.5l22 47q22 -13 37.5 -17.5t33.5 -4.5q44 0 72.5 13t49 44t38.5 87l-198 619h57l171 -539l173 539h57l-203 -618q-24 -75 -52 -117t-67 -60.5t-98 -18.5q-30 0 -50 5.5zM147.5 741q-12.5 12 -12.5 43q0 29 12.5 40.5t44.5 11.5t45 -11.5 t13 -40.5q0 -31 -12.5 -43t-45.5 -12q-32 0 -44.5 12zM363.5 741q-12.5 12 -12.5 43q0 29 12.5 40.5t44.5 11.5t45 -11.5t13 -40.5q0 -31 -12.5 -43t-45.5 -12q-32 0 -44.5 12z" />
         <glyph glyph-name="uni1EF5" unicode="ỵ" d="M84 -190.5q-20 5.5 -43 20.5l22 47q22 -13 37.5 -17.5t33.5 -4.5q44 0 72.5 13t49 44t38.5 87l-198 619h57l171 -539l173 539h57l-203 -618q-24 -75 -52 -117t-67 -60.5t-98 -18.5q-30 0 -50 5.5zM390 -209.5q-12 11.5 -12 42.5q0 32 12 43.5t45 11.5t45.5 -12t12.5 -43 t-12.5 -42.5t-45.5 -11.5t-45 11.5z" />
         <glyph glyph-name="ygrave" unicode="ỳ" d="M84 -190.5q-20 5.5 -43 20.5l22 47q22 -13 37.5 -17.5t33.5 -4.5q44 0 72.5 13t49 44t38.5 87l-198 619h57l171 -539l173 539h57l-203 -618q-24 -75 -52 -117t-67 -60.5t-98 -18.5q-30 0 -50 5.5zM347 724l-37 -39l-138 122l36 38z" />
         <glyph glyph-name="uni1EF7" unicode="ỷ" d="M84 -190.5q-20 5.5 -43 20.5l22 47q22 -13 37.5 -17.5t33.5 -4.5q44 0 72.5 13t49 44t38.5 87l-198 619h57l171 -539l173 539h57l-203 -618q-24 -75 -52 -117t-67 -60.5t-98 -18.5q-30 0 -50 5.5zM269 704q32 8 48.5 21.5t16.5 29.5q0 14 -11 23.5t-26 9.5 q-21 0 -44 -11.5t-41 -27.5v61q16 13 39.5 20.5t45.5 7.5q40 0 66 -23t26 -59q0 -34 -28.5 -61.5t-78.5 -39.5z" />
         <glyph glyph-name="uni1EF9" unicode="ỹ" d="M84 -190.5q-20 5.5 -43 20.5l22 47q22 -13 37.5 -17.5t33.5 -4.5q44 0 72.5 13t49 44t38.5 87l-198 619h57l171 -539l173 539h57l-203 -618q-24 -75 -52 -117t-67 -60.5t-98 -18.5q-30 0 -50 5.5zM328 711.5q-18 11.5 -41 32.5q-19 17 -31 25t-23 8q-19 0 -24 -12t-4 -39 h-55q-1 45 22 73t61 28q20 0 37.5 -11t42.5 -33q19 -17 31 -25t23 -8q19 0 24 11.5t4 36.5h55q1 -44 -22 -71t-61 -27q-21 0 -39 11.5z" />
         <glyph glyph-name="z" unicode="z" d="M501 0h-402v34l326 533h-325v51h400v-34l-327 -533h328v-51z" />
         <glyph glyph-name="zacute" unicode="ź" d="M501 0h-402v34l326 533h-325v51h400v-34l-327 -533h328v-51zM429 807l-139 -122l-36 39l138 121z" />
         <glyph glyph-name="zcaron" unicode="ž" d="M501 0h-402v34l326 533h-325v51h400v-34l-327 -533h328v-51zM434 809l-134 -120l-134 118l42 33l92 -81l91 83z" />
         <glyph glyph-name="zdotaccent" unicode="ż" d="M501 0h-402v34l326 533h-325v51h400v-34l-327 -533h328v-51zM255 755.5q-12 11.5 -12 42.5q0 32 12 43.5t45 11.5t45.5 -12t12.5 -43t-12.5 -42.5t-45.5 -11.5t-45 11.5z" />
         <glyph glyph-name="ordfeminine" unicode="ª" d="M191 378q-33 12 -47.5 40t-14.5 78q0 46 14.5 71.5t48 36.5t93.5 11h101v48q0 57 -22 78.5t-79 21.5q-41 0 -60.5 -14.5t-31.5 -52.5l-54 9q18 62 49.5 85.5t96.5 23.5q60 0 93.5 -14t48 -46.5t14.5 -90.5v-204q0 -17 8 -24t30 -8v-51q-40 -1 -57.5 11.5t-24.5 44.5 q-20 -38 -44 -52t-68 -14q-61 0 -94 12zM364 441q22 24 22 87v44h-101q-58 0 -79.5 -16.5t-21.5 -59.5q0 -45 21.5 -62t79.5 -17q57 0 79 24zM488 228h-365v50h365v-50z" />
         <glyph glyph-name="ordmasculine" unicode="º" d="M199.5 386.5q-35.5 20.5 -51 69t-15.5 135.5q0 86 15.5 134t51 68.5t100.5 20.5t101 -20.5t51.5 -68.5t15.5 -134q0 -87 -15.5 -135t-51.5 -69t-101 -21t-100.5 20.5zM367.5 433q24.5 16 35 53.5t10.5 104.5q0 66 -10.5 103t-35 53t-67.5 16t-67 -16t-34.5 -52.5 t-10.5 -103.5t10.5 -104.5t34.5 -53.5t67 -16t67.5 16zM483 228h-365v50h365v-50z" />
         <glyph glyph-name="uni2090" unicode="ₐ" d="M191 -52q-33 12 -47.5 39.5t-14.5 77.5q0 46 14.5 72t47.5 37t94 11h101v47q0 58 -22 79.5t-79 21.5q-41 0 -60.5 -14.5t-31.5 -52.5l-54 9q18 62 49.5 85.5t96.5 23.5q60 0 93.5 -14t48 -47t14.5 -91v-208q0 -17 8 -23.5t30 -8.5v-51q-40 0 -57.5 12t-24.5 44 q-18 -35 -42 -48t-70 -13q-61 0 -94 12zM364 10.5q22 23.5 22 86.5v45h-101q-58 0 -79.5 -16.5t-21.5 -60.5q0 -45 21.5 -61.5t79.5 -16.5q57 0 79 23.5z" />
         <glyph glyph-name="uni2091" unicode="ₑ" d="M376.5 2.5q22.5 15.5 40.5 55.5l44 -30q-24 -53 -55.5 -72.5t-92.5 -19.5q-68 0 -105 20t-53 65.5t-16 128.5q0 90 16 140.5t53 72t105 21.5q62 0 96 -22t48.5 -73t14.5 -143h-278q1 -61 12.5 -95.5t36.5 -49t70 -14.5q41 0 63.5 15.5zM225 303.5q-26 -29.5 -30 -106.5 h220q-6 53 -17 82t-31 41.5t-54 12.5q-62 0 -88 -29.5z" />
         <glyph glyph-name="uni2071" unicode="ⁱ" d="M277.5 802q-9.5 9 -9.5 32q0 22 9.5 30t33.5 8t33.5 -8t9.5 -30q0 -23 -9.5 -32t-33.5 -9t-33.5 9zM354 707v-378h115v-51h-285v51h115v327h-84v51h139z" />
         <glyph glyph-name="uni207F" unicode="ⁿ" d="M136 278v438h55v-51q23 32 50.5 44t76.5 12q57 0 89 -20.5t45.5 -68t13.5 -132.5v-222h-55v222q0 65 -8.5 102t-28.5 52.5t-56 15.5q-49 0 -76.5 -13t-39 -43t-11.5 -85v-251h-55z" />
         <glyph glyph-name="uni2092" unicode="ₒ" d="M199.5 -43.5q-35.5 20.5 -51 68.5t-15.5 135t15.5 135t51 68.5t100.5 20.5t101 -20.5t51.5 -69t15.5 -134.5t-15.5 -134.5t-51.5 -69t-101 -20.5t-100.5 20.5zM367.5 3q24.5 16 35 53t10.5 104t-10.5 104t-35 53t-67.5 16t-67 -16t-34.5 -53t-10.5 -104t10.5 -104 t34.5 -53t67 -16t67.5 16z" />
         <glyph glyph-name="uni2094" unicode="ₔ" d="M392.5 364q37.5 -20 53.5 -65.5t16 -128.5q0 -91 -16 -141t-53.5 -71.5t-105.5 -21.5q-62 0 -95.5 22t-48 72.5t-14.5 142.5h278q-1 62 -12.5 96.5t-37 49t-70.5 14.5q-41 0 -63.5 -15.5t-40.5 -55.5l-44 30q24 52 56 72t92 20q68 0 105.5 -20zM375.5 16.5 q26.5 29.5 30.5 106.5h-221q6 -53 17 -82t31 -41.5t54 -12.5q62 0 88.5 29.5z" />
         <glyph glyph-name="uni2093" unicode="ₓ" d="M407 379h62l-137 -219l137 -219h-62l-107 169l-106 -169h-63l138 219l-138 219h63l106 -169z" />
         <glyph glyph-name="uni0410" unicode="А" d="M553 0h-57l-59 214h-274l-58 -214h-58l223 800h61zM300 716l-123 -452h247z" />
         <glyph glyph-name="uni0411" unicode="Б" d="M92 0v800h355v-51h-300v-254h162q84 0 131 -23t67 -76t20 -148q0 -96 -20 -149t-67 -76t-131 -23h-217zM309 51q63 0 98 18t50 60.5t15 118.5t-15 118t-50 60t-98 18h-162v-393h162z" />
         <glyph glyph-name="uni0412" unicode="В" d="M92 0v800h192q83 0 130 -18.5t67.5 -61.5t20.5 -119t-21.5 -113t-77.5 -60q48 -14 74.5 -37t38 -62t11.5 -104q0 -86 -20 -134.5t-67 -69.5t-131 -21h-217zM284 448q63 0 98 14t50 46.5t15 92.5q0 58 -15 89.5t-50 45t-98 13.5h-137v-301h137zM309 51q63 0 98 16t50 53.5 t15 104.5q0 68 -15 105t-50 52.5t-98 15.5h-162v-347h162z" />
         <glyph glyph-name="uni0413" unicode="Г" d="M101 800h429v-51h-374v-749h-55v800z" />
         <glyph glyph-name="uni0403" unicode="Ѓ" d="M101 800h429v-51h-374v-749h-55v800zM429 989l-139 -122l-36 39l138 121z" />
         <glyph glyph-name="uni0490" unicode="Ґ" d="M475 800v127h55v-178h-374v-749h-55v800h374z" />
         <glyph glyph-name="uni0414" unicode="Д" d="M517 51h50v-139h-55v88h-424v-88h-55v139h31q51 34 79.5 119.5t44.5 229t31 400.5h298v-749zM462 51v698h-193q-18 -321 -47 -484.5t-82 -213.5h322z" />
         <glyph glyph-name="uni0415" unicode="Е" d="M529 800v-51h-374v-301h240v-50h-240v-347h374v-51h-429v800h429z" />
         <glyph glyph-name="uni0400" unicode="Ѐ" d="M529 800v-51h-374v-301h240v-50h-240v-347h374v-51h-429v800h429zM361 909l-37 -39l-138 122l36 38z" />
         <glyph glyph-name="uni0401" unicode="Ё" d="M529 800v-51h-374v-301h240v-50h-240v-347h374v-51h-429v800h429zM161.5 926q-12.5 12 -12.5 43q0 29 12.5 40.5t44.5 11.5t45 -11.5t13 -40.5q0 -31 -12.5 -43t-45.5 -12q-32 0 -44.5 12zM377.5 926q-12.5 12 -12.5 43q0 29 12.5 40.5t44.5 11.5t45 -11.5t13 -40.5 q0 -31 -12.5 -43t-45.5 -12q-32 0 -44.5 12z" />
         <glyph glyph-name="uni0416" unicode="Ж" d="M212 400l-212 400h61l212 -400l-212 -400h-61zM273 800h55v-800h-55v800zM539 800h61l-212 -400l212 -400h-61l-211 400z" />
         <glyph glyph-name="uni0417" unicode="З" d="M167.5 4.5q-47.5 18.5 -68 61.5t-20.5 120h55q0 -58 15 -90t50.5 -45.5t100.5 -13.5t100.5 16t51 52.5t15.5 103.5q0 70 -13.5 109t-45 57.5t-88.5 22.5h-72v50h72q57 4 88.5 19.5t45 48t13.5 90.5q0 61 -15.5 94.5t-51 48t-100.5 14.5t-100.5 -12t-50.5 -41t-15 -82h-55 q0 72 20.5 112t67.5 57t133 17q85 0 132.5 -19.5t68.5 -64t21 -124.5q0 -77 -21 -116.5t-75 -66.5q37 -18 57.5 -43.5t29.5 -66t9 -104.5q0 -86 -20.5 -134t-68.5 -68.5t-133 -20.5t-132.5 18.5z" />
         <glyph glyph-name="uni0418" unicode="И" d="M457 800h60v-800h-55v682l-319 -682h-59v800h55v-682z" />
         <glyph glyph-name="uni0419" unicode="Й" d="M457 800h60v-800h-55v682l-319 -682h-59v800h55v-682zM223 876q-27 11 -39 36.5t-11 71.5h65q-10 -25 -10 -37q0 -18 16 -25t55 -7q40 0 56.5 7.5t16.5 24.5q0 15 -9 37h64q1 -46 -11 -71.5t-39.5 -36.5t-77.5 -11q-49 0 -76 11z" />
         <glyph glyph-name="uni040D" unicode="Ѝ" d="M457 800h60v-800h-55v682l-319 -682h-59v800h55v-682zM347 906l-37 -39l-138 122l36 38z" />
         <glyph glyph-name="uni041A" unicode="К" d="M492 0l-281 398h-72v-398h-55v800h55v-352h58q48 2 78.5 25t48.5 55.5t41 90.5q27 68 50 109.5t63 71.5h78q-53 -35 -84 -85t-64 -128q-21 -52 -37.5 -83.5t-41 -57.5t-59.5 -38l288 -408h-66z" />
         <glyph glyph-name="uni040C" unicode="Ќ" d="M492 0l-281 398h-72v-398h-55v800h55v-352h58q48 2 78.5 25t48.5 55.5t41 90.5q27 68 50 109.5t63 71.5h78q-53 -35 -84 -85t-64 -128q-21 -52 -37.5 -83.5t-41 -57.5t-59.5 -38l288 -408h-66zM429 989l-139 -122l-36 39l138 121z" />
         <glyph glyph-name="uni041B" unicode="Л" d="M541 0h-55v749h-221q-19 -337 -36 -480.5t-56 -206t-124 -62.5v51q59 0 88 62.5t44.5 210.5t32.5 476h327v-800z" />
         <glyph glyph-name="uni041C" unicode="М" d="M113 0h-55l14 800h55l173 -459l173 459h56l14 -800h-55l-12 661l-149 -401h-54l-149 401z" />
         <glyph glyph-name="uni041D" unicode="Н" d="M464 448v352h55v-800h-55v398h-327v-398h-55v800h55v-352h327z" />
         <glyph glyph-name="uni041E" unicode="О" d="M158.5 20.5q-50.5 34.5 -72 115t-21.5 224.5v80q0 144 21.5 224.5t72 115t141.5 34.5t141.5 -34.5t72.5 -115t22 -224.5v-80q0 -144 -22 -224.5t-72.5 -115t-141.5 -34.5t-141.5 34.5zM408.5 66.5q38.5 29.5 55.5 99t17 194.5v80q0 125 -17 194.5t-55.5 99t-108.5 29.5 t-109 -29.5t-55.5 -99t-15.5 -194.5v-80q0 -125 16.5 -194.5t55.5 -99t108 -29.5q70 0 108.5 29.5z" />
         <glyph glyph-name="uni041F" unicode="П" d="M124 0h-55v800h463v-800h-55v749h-353v-749z" />
         <glyph glyph-name="uni0420" unicode="Р" d="M320 800q83 0 130 -21t67.5 -69t20.5 -134q0 -87 -20.5 -135t-67 -69t-130.5 -21h-161v-351h-55v800h216zM320 402q63 0 98 15.5t50 53t15 105.5q0 67 -15 104t-50 53t-98 16h-161v-347h161z" />
         <glyph glyph-name="uni0421" unicode="С" d="M169 24.5q-52 38.5 -74.5 127.5t-22.5 249q0 159 22.5 248t74.5 127t146 38q62 0 101.5 -15.5t65.5 -51t46 -99.5l-53 -18q-17 52 -36.5 80.5t-48.5 40.5t-75 12q-73 0 -113 -33t-57.5 -111t-17.5 -218q0 -141 17.5 -219t57.5 -111.5t113 -33.5q46 0 75 11.5t48.5 39.5 t36.5 79l53 -17q-20 -64 -46 -99t-65 -50t-102 -15q-94 0 -146 38.5z" />
         <glyph glyph-name="uni0422" unicode="Т" d="M571 800v-51h-243v-749h-55v749h-243v51h541z" />
         <glyph glyph-name="uni0423" unicode="У" d="M509 800h56l-174 -619q-20 -74 -48.5 -116.5t-69.5 -60.5t-101 -18q-30 0 -50 5.5t-43 21.5l22 46q22 -13 37.5 -17.5t33.5 -4.5q44 0 72 10t47 36l-237 717h57l215 -650q5 14 17 55z" />
         <glyph glyph-name="uni040E" unicode="Ў" d="M509 800h56l-174 -619q-20 -74 -48.5 -116.5t-69.5 -60.5t-101 -18q-30 0 -50 5.5t-43 21.5l22 46q22 -13 37.5 -17.5t33.5 -4.5q44 0 72 10t47 36l-237 717h57l215 -650q5 14 17 55zM243 876q-27 11 -39 36.5t-11 71.5h65q-10 -25 -10 -37q0 -18 16 -25t55 -7 q40 0 56.5 7.5t16.5 24.5q0 15 -9 37h64q1 -46 -11 -71.5t-39.5 -36.5t-77.5 -11q-49 0 -76 11z" />
         <glyph glyph-name="uni0424" unicode="Ф" d="M564 224q-24 -64 -80 -94t-156 -33v-97h-55v97q-100 4 -156.5 33.5t-80.5 93.5t-24 177t24 176.5t80 93t157 33.5v96h55v-96q100 -3 156 -32.5t80 -93.5t24 -177t-24 -177zM328 148q78 3 122.5 28t63.5 78.5t19 146.5t-19 146t-63 78t-123 28v-505zM86 254.5 q19 -53.5 63.5 -78.5t123.5 -28v505q-79 -3 -123.5 -28t-63.5 -78t-19 -146t19 -146.5z" />
         <glyph glyph-name="uni0425" unicode="Х" d="M482 800h61l-212 -400l212 -400h-61l-182 343l-182 -343h-61l213 400l-213 400h61l182 -343z" />
         <glyph glyph-name="uni0427" unicode="Ч" d="M499 800v-800h-55v243q-16 -41 -55 -58t-99 -17q-81 0 -126 28.5t-64 95t-19 186.5v322h55v-322q0 -101 14 -156.5t47 -79t93 -23.5q61 0 93.5 14t46.5 50t14 105v412h55z" />
         <glyph glyph-name="uni0426" unicode="Ц" d="M495 800v-749h55v-169h-55v118h-433v800h55v-749h323v749h55z" />
         <glyph glyph-name="uni0428" unicode="Ш" d="M557 0h-513v800h55v-749h174v749h55v-749h174v749h55v-800z" />
         <glyph glyph-name="uni0429" unicode="Щ" d="M518 800v-749h55v-159h-55v108h-491v800h55v-749h163v749h55v-749h163v749h55z" />
         <glyph glyph-name="uni040F" unicode="Џ" d="M462 800h55v-800h-189v-118h-55v118h-189v800h55v-749h323v749z" />
         <glyph glyph-name="uni042C" unicode="Ь" d="M320 495q84 0 131 -23t67 -76t20 -149t-20 -149t-67 -75.5t-131 -22.5h-216v800h55v-305h161zM320 51q63 0 98 18t50 60t15 118t-15 118.5t-50 60.5t-98 18h-161v-393h161z" />
         <glyph glyph-name="uni042A" unicode="Ъ" d="M341 495q84 0 131 -23t67 -76t20 -149t-20 -149t-67 -75.5t-131 -22.5h-216v749h-101v51h156v-305h161zM341 51q63 0 98 18t50 60t15 118t-15 118.5t-50 60.5t-98 18h-161v-393h161z" />
         <glyph glyph-name="uni042B" unicode="Ы" d="M228 495q76 0 118 -23t60.5 -76t18.5 -149t-18.5 -149t-60.5 -75.5t-118 -22.5h-176v800h55v-305h121zM494 0v800h55v-800h-55zM228 51q55 0 85 18t43.5 60t13.5 118t-13.5 118.5t-43.5 60.5t-85 18h-121v-393h121z" />
         <glyph glyph-name="uni0409" unicode="Љ" d="M426 495q64 0 99 -23t50.5 -76t15.5 -149t-15.5 -149t-50.5 -75.5t-99 -22.5h-116v749h-94q-19 -337 -36 -480.5t-56 -206t-124 -62.5v51q59 0 88 62.5t44.5 210.5t32.5 476h200v-305h61zM426 51q42 0 65.5 18t34 60t10.5 118t-10 118.5t-34 60.5t-66 18h-61v-393h61z " />
         <glyph glyph-name="uni040A" unicode="Њ" d="M415 495q68 0 106 -23t54 -76t16 -149t-16 -149t-54 -75.5t-106 -22.5h-146v444h-192v-444h-55v800h55v-305h192v305h55v-305h91zM415 51q47 0 73 18t37 60t11 118t-11 118.5t-37 60.5t-73 18h-91v-393h91z" />
         <glyph glyph-name="uni0405" unicode="Ѕ" d="M191 -3.5q-42 10.5 -71 34.5t-52 67l41 39q17 -39 40 -60.5t58.5 -30.5t92.5 -9q67 0 103.5 16.5t52.5 55t16 107.5q0 48 -16 79.5t-53 54.5t-104 46q-82 27 -127 55t-64.5 64.5t-19.5 91.5q0 80 19.5 124.5t65 63.5t127.5 19q90 0 136 -21t79 -76l-38 -41 q-25 50 -62.5 68.5t-114.5 18.5q-62 0 -95.5 -14.5t-47.5 -47.5t-14 -94q0 -42 14.5 -69.5t48 -48t95.5 -39.5q87 -27 135.5 -57t69.5 -71.5t21 -105.5q0 -89 -21 -138t-70 -70.5t-136 -21.5q-67 0 -109 10.5z" />
         <glyph glyph-name="uni0404" unicode="Є" d="M390.5 55.5q34.5 18.5 54.5 60.5h62q-24 -69 -73 -99.5t-134 -30.5q-91 0 -141.5 34.5t-72 115t-21.5 224.5v80q0 144 21.5 224.5t72 115t141.5 34.5q85 0 134 -30.5t73 -99.5h-60q-20 42 -55.5 60.5t-91.5 18.5q-70 0 -108.5 -29.5t-55 -99t-16.5 -194.5v-15h245v-50 h-245v-15q0 -125 16.5 -194.5t55 -99t108.5 -29.5q56 0 90.5 18.5z" />
         <glyph glyph-name="uni042D" unicode="Э" d="M441.5 779.5q50.5 -34.5 72.5 -115t22 -224.5v-80q0 -144 -22 -224.5t-72.5 -115t-141.5 -34.5q-84 0 -133.5 30t-73.5 100h62q20 -42 54.5 -60.5t90.5 -18.5q70 0 108.5 29.5t55.5 99t17 194.5v15h-245v50h245v15q0 125 -17 194.5t-55.5 99t-108.5 29.5 q-56 0 -91.5 -18.5t-55.5 -60.5h-60q24 70 73.5 100t133.5 30q91 0 141.5 -34.5z" />
         <glyph glyph-name="uni0406" unicode="І" d="M490 800v-51h-162v-698h162v-51h-379v51h162v698h-162v51h379z" />
         <glyph glyph-name="uni0407" unicode="Ї" d="M490 800v-51h-162v-698h162v-51h-379v51h162v698h-162v51h379zM147.5 926q-12.5 12 -12.5 43q0 29 12.5 40.5t44.5 11.5t45 -11.5t13 -40.5q0 -31 -12.5 -43t-45.5 -12q-32 0 -44.5 12zM363.5 926q-12.5 12 -12.5 43q0 29 12.5 40.5t44.5 11.5t45 -11.5t13 -40.5 q0 -31 -12.5 -43t-45.5 -12q-32 0 -44.5 12z" />
         <glyph glyph-name="uni0408" unicode="Ј" d="M162 1q-39 15 -65 50t-45 98l52 14q15 -49 34.5 -76t49 -38.5t76.5 -11.5q72 0 112.5 28.5t58 96t17.5 188.5v399h-131v51h186v-450q0 -140 -22.5 -218.5t-74.5 -112t-146 -33.5q-63 0 -102 15z" />
         <glyph glyph-name="uni040B" unicode="Ћ" d="M476 471q45 -24 64.5 -80.5t19.5 -157.5v-233h-55v233q0 81 -14.5 126.5t-47.5 65t-93 19.5q-61 0 -93.5 -14t-46 -50.5t-13.5 -106.5v-273h-55v749h-142v51h339v-51h-142v-330q16 41 54.5 58.5t98.5 17.5q81 0 126 -24z" />
         <glyph glyph-name="uni042E" unicode="Ю" d="M504 779.5q42 -34.5 60 -114.5t18 -225v-80q0 -145 -18 -225t-60 -114.5t-117 -34.5t-116.5 34.5t-59.5 114.5t-18 225v15h-105v-375h-55v800h55v-375h105v15q0 145 18 225t59.5 114.5t116.5 34.5t117 -34.5zM527 440q0 125 -13 194.5t-43 99t-84 29.5t-84 -29.5 t-42.5 -99t-12.5 -194.5v-80q0 -125 12.5 -194t42.5 -99t84 -30t84 30t43 99t13 194v80z" />
         <glyph glyph-name="uni042F" unicode="Я" d="M505 800v-800h-55v351h-107l-230 -351h-63l228 351q-79 1 -123.5 22.5t-64 69.5t-19.5 133q0 86 20 134t67 69t130 21h217zM450 402v347h-162q-63 0 -97.5 -16t-49.5 -53t-15 -104q0 -68 15 -105.5t49.5 -53t97.5 -15.5h162z" />
         <glyph glyph-name="uni0402" unicode="Ђ" d="M488.5 471.5q45.5 -23.5 65 -78.5t19.5 -154q0 -98 -19 -152.5t-62 -77.5t-120 -23q-25 0 -37.5 2.5t-24.5 9.5v51q12 -7 24.5 -9.5t37.5 -2.5q56 0 87 18.5t45 62t14 121.5q0 79 -14.5 123t-48 63t-93.5 19q-61 0 -94 -15.5t-47.5 -52t-14.5 -102.5v-274h-55v749h-151 v51h359v-51h-153v-335q20 44 59.5 62.5t96.5 18.5q81 0 126.5 -23.5z" />
         <glyph glyph-name="uni0462" unicode="Ѣ" d="M339 495q84 0 131 -23t67 -76t20 -149t-20 -149t-67 -75.5t-131 -22.5h-216v630h-104v50h104v120h55v-120h180v-50h-180v-135h161zM339 51q63 0 98 18t50 60t15 118t-15 118.5t-50 60.5t-98 18h-161v-393h161z" />
         <glyph glyph-name="uni046A" unicode="Ѫ" d="M558.5 48q11.5 -25 32.5 -48h-56q-19 22 -30 47.5t-22 73.5q-21 93 -42 147.5t-48 81t-65 32.5v-382h-55v382q-39 -6 -66 -32.5t-48 -80.5t-42 -148q-11 -48 -22 -73.5t-30 -47.5h-56q21 23 32.5 48t21.5 74q28 133 61.5 201.5t84.5 92.5l-183 333v51h549v-51l-183 -333 q51 -25 84 -93t61 -201q10 -49 21.5 -74zM86 749l175 -318q18 3 39 3t39 -3l175 318h-428z" />
         <glyph glyph-name="uni0498" unicode="Ҙ" d="M483.5 379.5q20.5 -25.5 29.5 -66t9 -104.5q0 -81 -18 -128t-60 -69t-116 -25v-28q33 -8 53.5 -28t20.5 -46q0 -38 -29.5 -62t-78.5 -24q-25 0 -49 8t-39 22l23 45q12 -11 30.5 -17.5t34.5 -6.5q24 0 38.5 9.5t14.5 25.5q0 15 -20.5 23.5t-53.5 8.5v69q-74 3 -116 23 t-60 62t-18 115h55q0 -58 15 -90t50.5 -45.5t100.5 -13.5t100.5 16t51 52.5t15.5 103.5q0 70 -13.5 109t-45 57.5t-88.5 22.5h-72v50h72q57 4 88.5 19.5t45 48t13.5 90.5q0 61 -15.5 94.5t-51 48t-100.5 14.5t-100.5 -12t-50.5 -41t-15 -82h-55q0 72 20.5 112t67.5 57 t133 17q85 0 132.5 -19.5t68.5 -64t21 -124.5q0 -77 -21 -116.5t-75 -66.5q37 -18 57.5 -43.5z" />
         <glyph glyph-name="uni04C0" unicode="Ӏ" d="M490 800v-51h-162v-698h162v-51h-379v51h162v698h-162v51h379z" />
         <glyph glyph-name="uni04C1" unicode="Ӂ" d="M212 400l-212 400h61l212 -400l-212 -400h-61zM273 800h55v-800h-55v800zM539 800h61l-212 -400l212 -400h-61l-211 400zM223 876q-27 11 -39 36.5t-11 71.5h65q-10 -25 -10 -37q0 -18 16 -25t55 -7q40 0 56.5 7.5t16.5 24.5q0 15 -9 37h64q1 -46 -11 -71.5t-39.5 -36.5 t-77.5 -11q-49 0 -76 11z" />
         <glyph glyph-name="uni04D0" unicode="Ӑ" d="M553 0h-57l-59 214h-274l-58 -214h-58l223 800h61zM300 716l-123 -452h247zM223 879q-27 11 -39 36.5t-11 71.5h65q-10 -25 -10 -37q0 -18 16 -25t55 -7q40 0 56.5 7.5t16.5 24.5q0 15 -9 37h64q1 -46 -11 -71.5t-39.5 -36.5t-77.5 -11q-49 0 -76 11z" />
         <glyph glyph-name="uni04D2" unicode="Ӓ" d="M553 0h-57l-59 214h-274l-58 -214h-58l223 800h61zM300 716l-123 -452h247zM147.5 926q-12.5 12 -12.5 43q0 29 12.5 40.5t44.5 11.5t45 -11.5t13 -40.5q0 -31 -12.5 -43t-45.5 -12q-32 0 -44.5 12zM363.5 926q-12.5 12 -12.5 43q0 29 12.5 40.5t44.5 11.5t45 -11.5 t13 -40.5q0 -31 -12.5 -43t-45.5 -12q-32 0 -44.5 12z" />
         <glyph glyph-name="uni04D4" unicode="Ӕ" d="M588 800v-51h-225v-347h146v-50h-146v-301h225v-51h-280v260h-175l-69 -260h-57l214 800h367zM264 749l-117 -439h161v439h-44z" />
         <glyph glyph-name="uni04D6" unicode="Ӗ" d="M529 800v-51h-374v-301h240v-50h-240v-347h374v-51h-429v800h429zM237 879q-27 11 -39 36.5t-11 71.5h65q-10 -25 -10 -37q0 -18 16 -25t55 -7q40 0 56.5 7.5t16.5 24.5q0 15 -9 37h64q1 -46 -11 -71.5t-39.5 -36.5t-77.5 -11q-49 0 -76 11z" />
         <glyph glyph-name="uni04DC" unicode="Ӝ" d="M212 400l-212 400h61l212 -400l-212 -400h-61zM273 800h55v-800h-55v800zM539 800h61l-212 -400l212 -400h-61l-211 400zM147.5 923q-12.5 12 -12.5 43q0 29 12.5 40.5t44.5 11.5t45 -11.5t13 -40.5q0 -31 -12.5 -43t-45.5 -12q-32 0 -44.5 12zM363.5 923 q-12.5 12 -12.5 43q0 29 12.5 40.5t44.5 11.5t45 -11.5t13 -40.5q0 -31 -12.5 -43t-45.5 -12q-32 0 -44.5 12z" />
         <glyph glyph-name="uni04DE" unicode="Ӟ" d="M167.5 4.5q-47.5 18.5 -68 61.5t-20.5 120h55q0 -58 15 -90t50.5 -45.5t100.5 -13.5t100.5 16t51 52.5t15.5 103.5q0 70 -13.5 109t-45 57.5t-88.5 22.5h-72v50h72q57 4 88.5 19.5t45 48t13.5 90.5q0 61 -15.5 94.5t-51 48t-100.5 14.5t-100.5 -12t-50.5 -41t-15 -82h-55 q0 72 20.5 112t67.5 57t133 17q85 0 132.5 -19.5t68.5 -64t21 -124.5q0 -77 -21 -116.5t-75 -66.5q37 -18 57.5 -43.5t29.5 -66t9 -104.5q0 -86 -20.5 -134t-68.5 -68.5t-133 -20.5t-132.5 18.5zM147.5 923q-12.5 12 -12.5 43q0 29 12.5 40.5t44.5 11.5t45 -11.5t13 -40.5 q0 -31 -12.5 -43t-45.5 -12q-32 0 -44.5 12zM363.5 923q-12.5 12 -12.5 43q0 29 12.5 40.5t44.5 11.5t45 -11.5t13 -40.5q0 -31 -12.5 -43t-45.5 -12q-32 0 -44.5 12z" />
         <glyph glyph-name="uni04E2" unicode="Ӣ" d="M457 800h60v-800h-55v682l-319 -682h-59v800h55v-682zM440 904h-279v50h279v-50z" />
         <glyph glyph-name="uni04E4" unicode="Ӥ" d="M457 800h60v-800h-55v682l-319 -682h-59v800h55v-682zM147.5 923q-12.5 12 -12.5 43q0 29 12.5 40.5t44.5 11.5t45 -11.5t13 -40.5q0 -31 -12.5 -43t-45.5 -12q-32 0 -44.5 12zM363.5 923q-12.5 12 -12.5 43q0 29 12.5 40.5t44.5 11.5t45 -11.5t13 -40.5q0 -31 -12.5 -43 t-45.5 -12q-32 0 -44.5 12z" />
         <glyph glyph-name="uni04E6" unicode="Ӧ" d="M158.5 20.5q-50.5 34.5 -72 115t-21.5 224.5v80q0 144 21.5 224.5t72 115t141.5 34.5t141.5 -34.5t72.5 -115t22 -224.5v-80q0 -144 -22 -224.5t-72.5 -115t-141.5 -34.5t-141.5 34.5zM408.5 66.5q38.5 29.5 55.5 99t17 194.5v80q0 125 -17 194.5t-55.5 99t-108.5 29.5 t-109 -29.5t-55.5 -99t-15.5 -194.5v-80q0 -125 16.5 -194.5t55.5 -99t108 -29.5q70 0 108.5 29.5zM147.5 926q-12.5 12 -12.5 43q0 29 12.5 40.5t44.5 11.5t45 -11.5t13 -40.5q0 -31 -12.5 -43t-45.5 -12q-32 0 -44.5 12zM363.5 926q-12.5 12 -12.5 43q0 29 12.5 40.5 t44.5 11.5t45 -11.5t13 -40.5q0 -31 -12.5 -43t-45.5 -12q-32 0 -44.5 12z" />
         <glyph glyph-name="uni04EC" unicode="Ӭ" d="M441.5 779.5q50.5 -34.5 72.5 -115t22 -224.5v-80q0 -144 -22 -224.5t-72.5 -115t-141.5 -34.5q-84 0 -133.5 30t-73.5 100h62q20 -42 54.5 -60.5t90.5 -18.5q70 0 108.5 29.5t55.5 99t17 194.5v15h-245v50h245v15q0 125 -17 194.5t-55.5 99t-108.5 29.5 q-56 0 -91.5 -18.5t-55.5 -60.5h-60q24 70 73.5 100t133.5 30q91 0 141.5 -34.5zM147.5 926q-12.5 12 -12.5 43q0 29 12.5 40.5t44.5 11.5t45 -11.5t13 -40.5q0 -31 -12.5 -43t-45.5 -12q-32 0 -44.5 12zM363.5 926q-12.5 12 -12.5 43q0 29 12.5 40.5t44.5 11.5t45 -11.5 t13 -40.5q0 -31 -12.5 -43t-45.5 -12q-32 0 -44.5 12z" />
         <glyph glyph-name="uni04EE" unicode="Ӯ" d="M509 800h56l-174 -619q-20 -74 -48.5 -116.5t-69.5 -60.5t-101 -18q-30 0 -50 5.5t-43 21.5l22 46q22 -13 37.5 -17.5t33.5 -4.5q44 0 72 10t47 36l-237 717h57l215 -650q5 14 17 55zM460 904h-279v50h279v-50z" />
         <glyph glyph-name="uni04F0" unicode="Ӱ" d="M509 800h56l-174 -619q-20 -74 -48.5 -116.5t-69.5 -60.5t-101 -18q-30 0 -50 5.5t-43 21.5l22 46q22 -13 37.5 -17.5t33.5 -4.5q44 0 72 10t47 36l-237 717h57l215 -650q5 14 17 55zM167.5 923q-12.5 12 -12.5 43q0 29 12.5 40.5t44.5 11.5t45 -11.5t13 -40.5 q0 -31 -12.5 -43t-45.5 -12q-32 0 -44.5 12zM383.5 923q-12.5 12 -12.5 43q0 29 12.5 40.5t44.5 11.5t45 -11.5t13 -40.5q0 -31 -12.5 -43t-45.5 -12q-32 0 -44.5 12z" />
         <glyph glyph-name="uni04F2" unicode="Ӳ" d="M509 800h56l-174 -619q-20 -74 -48.5 -116.5t-69.5 -60.5t-101 -18q-30 0 -50 5.5t-43 21.5l22 46q22 -13 37.5 -17.5t33.5 -4.5q44 0 72 10t47 36l-237 717h57l215 -650q5 14 17 55zM318 989l-139 -122l-36 39l139 121zM497 989l-139 -122l-36 39l139 121z" />
         <glyph glyph-name="uni04F4" unicode="Ӵ" d="M499 800v-800h-55v243q-16 -41 -55 -58t-99 -17q-81 0 -126 28.5t-64 95t-19 186.5v322h55v-322q0 -101 14 -156.5t47 -79t93 -23.5q61 0 93.5 14t46.5 50t14 105v412h55zM147.5 923q-12.5 12 -12.5 43q0 29 12.5 40.5t44.5 11.5t45 -11.5t13 -40.5q0 -31 -12.5 -43 t-45.5 -12q-32 0 -44.5 12zM363.5 923q-12.5 12 -12.5 43q0 29 12.5 40.5t44.5 11.5t45 -11.5t13 -40.5q0 -31 -12.5 -43t-45.5 -12q-32 0 -44.5 12z" />
         <glyph glyph-name="uni04F8" unicode="Ӹ" d="M228 495q76 0 118 -23t60.5 -76t18.5 -149t-18.5 -149t-60.5 -75.5t-118 -22.5h-176v800h55v-305h121zM494 0v800h55v-800h-55zM228 51q55 0 85 18t43.5 60t13.5 118t-13.5 118.5t-43.5 60.5t-85 18h-121v-393h121zM147.5 923q-12.5 12 -12.5 43q0 29 12.5 40.5 t44.5 11.5t45 -11.5t13 -40.5q0 -31 -12.5 -43t-45.5 -12q-32 0 -44.5 12zM363.5 923q-12.5 12 -12.5 43q0 29 12.5 40.5t44.5 11.5t45 -11.5t13 -40.5q0 -31 -12.5 -43t-45.5 -12q-32 0 -44.5 12z" />
         <glyph glyph-name="uni0414.loclBGR" d="M332 800l205 -749h30v-139h-55v88h-424v-88h-55v139h30l205 749h64zM300 715l-182 -664h364z" />
         <glyph glyph-name="uni041B.loclBGR" d="M104 0h-55l219 800h64l219 -800h-55l-196 715z" />
         <glyph glyph-name="uni0424.loclBGR" d="M564 159.5q-24 -87.5 -80 -128t-156 -44.5v-108h-55v108q-100 4 -156.5 44.5t-80.5 128t-24 241.5q0 153 24 240t80.5 127.5t156.5 44.5v107h55v-107q100 -4 156 -44t80 -127.5t24 -240.5q0 -154 -24 -241.5zM328 38q78 5 122.5 41t63.5 112.5t19 209.5t-19 209 t-63 111.5t-123 40.5v-724zM86 191.5q19 -76.5 63.5 -112.5t123.5 -41v724q-79 -5 -123.5 -40.5t-63.5 -111.5t-19 -209t19 -209.5z" />
         <glyph glyph-name="uni0430" unicode="а" d="M148 3q-45 17 -64.5 55.5t-19.5 108.5q0 74 19.5 114.5t64.5 57.5t126 17h156v62q0 63 -14.5 97.5t-47.5 49.5t-94 15q-65 0 -95 -21t-47 -79l-53 13q16 53 39 83t60 43t96 13q81 0 126.5 -20t65 -66t19.5 -128v-261q0 -42 7 -65t23.5 -32.5t47.5 -8.5v-51 q-56 0 -81 17.5t-35 64.5q-27 -55 -64.5 -75.5t-108.5 -20.5q-81 0 -126 17zM368 53.5q33 16.5 47.5 55t14.5 108.5v89h-156q-61 0 -94 -12.5t-47 -42t-14 -84.5q0 -51 14 -78.5t47 -39.5t94 -12t94 16.5z" />
         <glyph glyph-name="uni0431" unicode="б" d="M163 9q-49 23 -70 77.5t-21 152.5v241q0 81 28.5 143t80 96t118.5 34q78 0 125.5 13t47.5 34h55q0 -44 -62.5 -70.5t-165.5 -26.5q-51 0 -90 -28t-60.5 -78.5t-21.5 -116.5v-62q28 43 66 59.5t107 16.5q89 0 138 -23t70 -77.5t21 -153.5q0 -98 -21 -152.5t-70 -78 t-138 -23.5q-88 0 -137 23zM404.5 55.5q37.5 18.5 53.5 62t16 122.5t-16 123t-53.5 62.5t-104.5 18.5t-104 -18.5t-53 -62.5t-16 -124q0 -79 16 -122.5t53 -61.5t104 -18t104.5 18.5z" />
         <glyph glyph-name="uni0432" unicode="в" d="M93 0v618h191q83 0 129.5 -14.5t67 -47.5t20.5 -92q0 -57 -21 -84.5t-77 -42.5q47 -9 73.5 -26.5t38 -48.5t11.5 -83q0 -69 -20.5 -107.5t-67 -55t-129.5 -16.5h-216zM284 357q63 0 97.5 9.5t49.5 32.5t15 65q0 40 -15 62t-49.5 31.5t-97.5 9.5h-136v-210h136zM309 51 q63 0 97.5 12t49.5 39.5t15 76.5q0 50 -15 77.5t-49.5 39t-97.5 11.5h-161v-256h161z" />
         <glyph glyph-name="uni0433" unicode="г" d="M101 618h429v-51h-374v-567h-55v618z" />
         <glyph glyph-name="uni0453" unicode="ѓ" d="M101 618h429v-51h-374v-567h-55v618zM429 807l-139 -122l-36 39l138 121z" />
         <glyph glyph-name="uni0491" unicode="ґ" d="M475 618v127h55v-178h-374v-567h-55v618h374z" />
         <glyph glyph-name="uni0434" unicode="д" d="M517 51h50v-139h-55v88h-424v-88h-55v139h31q51 34 79.5 101.5t44.5 173.5t31 292h298v-567zM462 51v516h-193q-18 -221 -47 -343.5t-82 -172.5h322z" />
         <glyph glyph-name="uni0435" unicode="е" d="M395.5 54.5q34.5 17.5 71.5 64.5l44 -30q-42 -59 -87 -81t-121 -22q-90 0 -140.5 30t-72 99.5t-21.5 193.5t21.5 193.5t72 99.5t140.5 30q84 0 131 -30.5t67.5 -100.5t20.5 -195h-398q1 -104 18 -162t55 -82.5t106 -24.5q58 0 92.5 17.5zM200.5 560q-37.5 -21 -55 -69.5 t-20.5 -134.5h340q-5 87 -21 135.5t-49.5 69t-91.5 20.5q-65 0 -102.5 -21z" />
         <glyph glyph-name="uni0450" unicode="ѐ" d="M395.5 54.5q34.5 17.5 71.5 64.5l44 -30q-42 -59 -87 -81t-121 -22q-90 0 -140.5 30t-72 99.5t-21.5 193.5t21.5 193.5t72 99.5t140.5 30q84 0 131 -30.5t67.5 -100.5t20.5 -195h-398q1 -104 18 -162t55 -82.5t106 -24.5q58 0 92.5 17.5zM200.5 560q-37.5 -21 -55 -69.5 t-20.5 -134.5h340q-5 87 -21 135.5t-49.5 69t-91.5 20.5q-65 0 -102.5 -21zM347 724l-37 -39l-138 122l36 38z" />
         <glyph glyph-name="uni0451" unicode="ё" d="M395.5 54.5q34.5 17.5 71.5 64.5l44 -30q-42 -59 -87 -81t-121 -22q-90 0 -140.5 30t-72 99.5t-21.5 193.5t21.5 193.5t72 99.5t140.5 30q84 0 131 -30.5t67.5 -100.5t20.5 -195h-398q1 -104 18 -162t55 -82.5t106 -24.5q58 0 92.5 17.5zM200.5 560q-37.5 -21 -55 -69.5 t-20.5 -134.5h340q-5 87 -21 135.5t-49.5 69t-91.5 20.5q-65 0 -102.5 -21zM147.5 741q-12.5 12 -12.5 43q0 29 12.5 40.5t44.5 11.5t45 -11.5t13 -40.5q0 -31 -12.5 -43t-45.5 -12q-32 0 -44.5 12zM363.5 741q-12.5 12 -12.5 43q0 29 12.5 40.5t44.5 11.5t45 -11.5 t13 -40.5q0 -31 -12.5 -43t-45.5 -12q-32 0 -44.5 12z" />
         <glyph glyph-name="uni0436" unicode="ж" d="M209 309l-208 309h64l208 -309l-208 -309h-64zM273 618h55v-618h-55v618zM535 618h63l-208 -309l208 -309h-63l-207 309z" />
         <glyph glyph-name="uni0437" unicode="з" d="M167 0q-47 14 -67.5 46t-20.5 90h55q0 -39 15.5 -60t51 -30t99.5 -9t100 10.5t51.5 34.5t15.5 67q0 50 -13.5 78.5t-45 42.5t-88.5 18h-72v50h72q57 4 88.5 17.5t45 40.5t13.5 74q0 43 -15.5 66.5t-51.5 34t-100 10.5t-99.5 -8.5t-51 -28.5t-15.5 -57h-55q0 56 20.5 87 t68 44.5t132.5 13.5q86 0 133.5 -15t68 -49.5t20.5 -97.5q0 -62 -21 -96t-75 -61q54 -27 75 -62.5t21 -101.5q0 -63 -20.5 -98t-68 -50t-133.5 -15t-133 14z" />
         <glyph glyph-name="uni0438" unicode="и" d="M454 618h63v-618h-55v526l-316 -526h-62v618h55v-526z" />
         <glyph glyph-name="uni0439" unicode="й" d="M454 618h63v-618h-55v526l-316 -526h-62v618h55v-526zM223 694q-27 11 -39 36.5t-11 71.5h65q-10 -25 -10 -37q0 -18 16 -25t55 -7q40 0 56.5 7.5t16.5 24.5q0 15 -9 37h64q1 -46 -11 -71.5t-39.5 -36.5t-77.5 -11q-49 0 -76 11z" />
         <glyph glyph-name="uni045D" unicode="ѝ" d="M454 618h63v-618h-55v526l-316 -526h-62v618h55v-526zM347 724l-37 -39l-138 122l36 38z" />
         <glyph glyph-name="uni043A" unicode="к" d="M492 0l-274 306h-79v-306h-55v618h55v-262h60q49 2 80.5 18.5t49.5 40t41 65.5q26 46 48.5 77.5t59.5 60.5h78q-50 -32 -80.5 -71.5t-61.5 -95.5q-32 -58 -60 -89.5t-76 -46.5l280 -315h-66z" />
         <glyph glyph-name="uni045C" unicode="ќ" d="M492 0l-274 306h-79v-306h-55v618h55v-262h60q49 2 80.5 18.5t49.5 40t41 65.5q26 46 48.5 77.5t59.5 60.5h78q-50 -32 -80.5 -71.5t-61.5 -95.5q-32 -58 -60 -89.5t-76 -46.5l280 -315h-66zM429 807l-139 -122l-36 39l138 121z" />
         <glyph glyph-name="uni043B" unicode="л" d="M541 0h-55v567h-221q-18 -270 -35.5 -379t-55.5 -148.5t-125 -39.5v51q61 0 89.5 39t43.5 151t32 377h327v-618z" />
         <glyph glyph-name="uni043C" unicode="м" d="M113 0h-55l14 618h47l181 -384l181 384h48l14 -618h-55l-12 479l-149 -310h-54l-149 310z" />
         <glyph glyph-name="uni043D" unicode="н" d="M464 357v261h55v-618h-55v307h-327v-307h-55v618h55v-261h327z" />
         <glyph glyph-name="uni043E" unicode="о" d="M169.5 16q-46.5 30 -66.5 99.5t-20 193.5t20 193.5t66.5 99.5t130.5 30t131 -30t67 -99.5t20 -193.5t-20 -193.5t-67 -99.5t-131 -30t-130.5 30zM398 62q35 25 50 83t15 164t-15 164t-50 83t-98 25t-97.5 -25t-49.5 -83t-15 -164t15 -164t49.5 -83t97.5 -25t98 25z" />
         <glyph glyph-name="uni043F" unicode="п" d="M124 0h-55v618h463v-618h-55v567h-353v-567z" />
         <glyph glyph-name="uni0440" unicode="р" d="M89 -182v800h55v-48q21 34 62 48t101 14q84 0 131 -30t67 -99t20 -193q0 -125 -20 -194.5t-67 -99.5t-131 -30q-62 0 -103 19.5t-60 65.5v-253h-55zM405 62q35 25 50 83.5t15 164.5q0 105 -15 163t-50 83t-98 25q-73 0 -118 -20t-45 -65v-292q0 -167 163 -167q63 0 98 25 z" />
         <glyph glyph-name="uni0441" unicode="с" d="M175 16q-51 30 -72.5 99.5t-21.5 193.5t22 193.5t74 99.5t145 30q73 0 115.5 -22.5t82.5 -82.5l-46 -27q-32 47 -64 64t-88 17q-72 0 -112 -25t-57 -83t-17 -164t16.5 -164t55.5 -83t110 -25q55 0 88.5 18t67.5 65l46 -28q-41 -60 -84.5 -83t-117.5 -23q-92 0 -143 30z " />
         <glyph glyph-name="uni0442" unicode="т" d="M571 618v-51h-243v-567h-55v567h-243v51h541z" />
         <glyph glyph-name="uni0443" unicode="у" d="M84 -190.5q-20 5.5 -43 20.5l22 47q22 -13 37.5 -17.5t33.5 -4.5q44 0 72.5 13t49 44t38.5 87l-198 619h57l171 -539l173 539h57l-203 -618q-24 -75 -52 -117t-67 -60.5t-98 -18.5q-30 0 -50 5.5z" />
         <glyph glyph-name="uni045E" unicode="ў" d="M84 -190.5q-20 5.5 -43 20.5l22 47q22 -13 37.5 -17.5t33.5 -4.5q44 0 72.5 13t49 44t38.5 87l-198 619h57l171 -539l173 539h57l-203 -618q-24 -75 -52 -117t-67 -60.5t-98 -18.5q-30 0 -50 5.5zM253 694q-27 11 -39 36.5t-11 71.5h65q-10 -25 -10 -37q0 -18 16 -25 t55 -7q40 0 56.5 7.5t16.5 24.5q0 15 -9 37h64q1 -46 -11 -71.5t-39.5 -36.5t-77.5 -11q-49 0 -76 11z" />
         <glyph glyph-name="uni0444" unicode="ф" d="M530.5 144q-20.5 -60 -69 -88t-133.5 -31v-207h-55v207q-85 3 -133 31t-69 88.5t-21 164.5t21 164.5t69 88.5t133 31v207h55v-207q85 -3 133.5 -31t69 -88t20.5 -165t-20.5 -165zM328 75q64 4 100.5 27t52 72t15.5 135t-15.5 135t-52 72t-100.5 27v-468zM120.5 174.5 q15.5 -49.5 52 -72.5t100.5 -27v468q-64 -4 -100.5 -27t-52 -72.5t-15.5 -134.5t15.5 -134.5z" />
         <glyph glyph-name="uni0445" unicode="х" d="M457 618h62l-187 -309l187 -309h-62l-157 258l-156 -258h-63l188 309l-188 309h63l156 -258z" />
         <glyph glyph-name="uni0447" unicode="ч" d="M444 212q-16 -41 -55 -58t-99 -17q-84 0 -127.5 22t-62.5 81.5t-19 177.5v200h55v-200q0 -99 14 -147.5t46 -65.5t94 -17q61 0 93.5 13.5t46.5 49t14 104.5v263h55v-618h-55v212z" />
         <glyph glyph-name="uni0446" unicode="ц" d="M499 618v-567h55v-169h-55v118h-433v618h55v-567h323v567h55z" />
         <glyph glyph-name="uni0448" unicode="ш" d="M557 0h-513v618h55v-567h174v567h55v-567h174v567h55v-618z" />
         <glyph glyph-name="uni0449" unicode="щ" d="M518 618v-567h55v-159h-55v108h-491v618h55v-567h163v567h55v-567h163v567h55z" />
         <glyph glyph-name="uni045F" unicode="џ" d="M462 618h55v-618h-189v-118h-55v118h-189v618h55v-567h323v567z" />
         <glyph glyph-name="uni044C" unicode="ь" d="M320 389q84 0 131 -18t67 -60t20 -117t-20 -116.5t-67 -59.5t-131 -18h-216v618h55v-229h161zM320 51q63 0 98 13t50 44t15 86q0 56 -15 87t-50 44t-98 13h-161v-287h161z" />
         <glyph glyph-name="uni044A" unicode="ъ" d="M341 389q84 0 130.5 -18t66.5 -60t20 -117t-20 -116.5t-66.5 -59.5t-130.5 -18h-217v567h-100v51h156v-51h-1v-178h162zM341 51q63 0 97.5 13t49.5 44t15 86q0 56 -15 87t-49.5 44t-97.5 13h-162v-287h162z" />
         <glyph glyph-name="uni044B" unicode="ы" d="M228 389q76 0 118 -18t60.5 -60t18.5 -117t-18.5 -116.5t-60.5 -59.5t-118 -18h-176v618h55v-229h121zM494 0v618h55v-618h-55zM228 51q55 0 85 13t43.5 44t13.5 86q0 56 -13.5 87t-43.5 44t-85 13h-121v-287h121z" />
         <glyph glyph-name="uni0459" unicode="љ" d="M426 389q64 0 99 -18t50.5 -60t15.5 -117t-15.5 -116.5t-50.5 -59.5t-99 -18h-116v567h-94q-18 -270 -35.5 -379t-55.5 -148.5t-125 -39.5v51q61 0 89.5 39t43.5 151t32 377h200v-229h61zM426 51q42 0 66 13t34 44t10 86q0 56 -10 87t-34 44t-66 13h-61v-287h61z" />
         <glyph glyph-name="uni045A" unicode="њ" d="M415 389q68 0 106 -18t54 -60t16 -117t-16 -116.5t-54 -59.5t-106 -18h-146v338h-192v-338h-55v618h55v-229h192v229h55v-229h91zM415 51q47 0 73 13t37 44t11 86q0 56 -11 87t-37 44t-73 13h-91v-287h91z" />
         <glyph glyph-name="uni0455" unicode="ѕ" d="M165.5 8q-39.5 22 -72.5 81l43 35q25 -50 54.5 -68.5t84.5 -18.5q76 0 118 12t60 40t18 79q0 44 -15 69t-50.5 39.5t-100.5 22.5q-112 14 -157.5 52.5t-45.5 107.5q0 67 20.5 104t68.5 53t134 16q74 0 114.5 -18.5t74.5 -68.5l-40 -38q-26 42 -58 58t-91 16 q-66 0 -102 -11t-51 -37.5t-15 -73.5q0 -45 33 -71t115 -37q86 -11 133 -31.5t67.5 -56t20.5 -95.5q0 -70 -23.5 -109t-77.5 -56t-150 -17q-70 0 -109.5 22z" />
         <glyph glyph-name="uni0454" unicode="є" d="M395 52q31 15 50 54h62q-16 -46 -40.5 -72t-63.5 -37t-103 -11q-91 0 -141.5 26t-72 86.5t-21.5 170.5v80q0 110 21.5 170.5t72 86.5t141.5 26q64 0 103 -11t63.5 -37t40.5 -72h-60q-19 39 -51 54t-96 15q-70 0 -108.5 -21.5t-55 -71t-16.5 -139.5v-15h245v-50h-245v-15 q0 -90 16.5 -139.5t55 -71t108.5 -21.5q64 0 95 15z" />
         <glyph glyph-name="uni044D" unicode="э" d="M441.5 606q50.5 -26 72.5 -87t22 -170v-80q0 -109 -22 -170t-72.5 -87t-141.5 -26q-64 0 -103 11t-63.5 37t-40.5 72h62q19 -39 50 -54t95 -15q70 0 108.5 21.5t55.5 71t17 139.5v15h-245v50h245v15q0 90 -17 139.5t-55.5 71t-108.5 21.5q-64 0 -96 -15t-51 -54h-60 q16 46 40.5 72t63.5 37t103 11q91 0 141.5 -26z" />
         <glyph glyph-name="uni0456" unicode="і" d="M354 618v-567h175v-51h-405v51h175v516h-126v51h181zM263 755.5q-12 11.5 -12 42.5q0 32 12 43.5t45 11.5t45.5 -12t12.5 -43t-12.5 -42.5t-45.5 -11.5t-45 11.5z" />
         <glyph glyph-name="uni0457" unicode="ї" d="M354 618v-567h175v-51h-405v51h175v516h-126v51h181zM155.5 741q-12.5 12 -12.5 43q0 29 12.5 40.5t44.5 11.5t45 -11.5t13 -40.5q0 -31 -12.5 -43t-45.5 -12q-32 0 -44.5 12zM371.5 741q-12.5 12 -12.5 43q0 29 12.5 40.5t44.5 11.5t45 -11.5t13 -40.5q0 -31 -12.5 -43 t-45.5 -12q-32 0 -44.5 12z" />
         <glyph glyph-name="uni0458" unicode="ј" d="M149.5 -183.5q-32.5 12.5 -64.5 44.5l40 35q23 -23 47.5 -32t65.5 -9q61 0 94.5 17.5t48 59t14.5 117.5v518h-126v51h181v-569q0 -95 -19.5 -147.5t-65 -75t-127.5 -22.5q-56 0 -88.5 12.5zM353 755.5q-12 11.5 -12 42.5q0 32 12 43.5t45 11.5t45.5 -12t12.5 -43 t-12.5 -42.5t-45.5 -11.5t-45 11.5z" />
         <glyph glyph-name="uni045B" unicode="ћ" d="M436 603.5q45 -28.5 64.5 -95t19.5 -186.5v-322h-55v322q0 101 -14.5 156.5t-47.5 79t-93 23.5q-61 0 -93.5 -14t-46 -50t-13.5 -105v-412h-55v680h-74v50h74v70h55v-70h116v-50h-116v-123q16 41 54.5 58t98.5 17q81 0 126 -28.5z" />
         <glyph glyph-name="uni044E" unicode="ю" d="M504 606q42 -26 60 -87t18 -170v-80q0 -109 -18 -170t-60 -87t-117 -26t-116.5 26t-59.5 86.5t-18 170.5v15h-105v-284h-55v618h55v-284h105v15q0 110 18 170.5t59.5 86.5t116.5 26t117 -26zM527 349q0 90 -13 139.5t-43 71t-84 21.5t-84 -21.5t-42.5 -71t-12.5 -139.5 v-80q0 -90 12.5 -139.5t42.5 -71t84 -21.5t84 21.5t43 71t13 139.5v80z" />
         <glyph glyph-name="uni044F" unicode="я" d="M505 618v-618h-55v268h-107l-225 -268h-68l224 268q-78 2 -121.5 18.5t-62.5 53.5t-19 103q0 68 20 105.5t66.5 53.5t130.5 16h217zM450 319v248h-162q-63 0 -97.5 -11.5t-49.5 -38t-15 -74.5t15 -74.5t49.5 -38t97.5 -11.5h162z" />
         <glyph glyph-name="uni0452" unicode="ђ" d="M436 603.5q45 -28.5 64.5 -95t19.5 -186.5v-322q0 -62 -13.5 -95.5t-45 -47.5t-88.5 -14v50q39 0 57.5 6.5t26.5 28.5t8 72v322q0 101 -14.5 156.5t-47.5 79t-93 23.5q-61 0 -93.5 -14t-46 -50t-13.5 -105v-412h-55v680h-74v50h74v70h55v-70h116v-50h-116v-123 q16 41 54.5 58t98.5 17q81 0 126 -28.5z" />
         <glyph glyph-name="uni0463" unicode="ѣ" d="M320 389q84 0 131 -18t67 -60t20 -117t-20 -116.5t-67 -59.5t-131 -18h-216v549h-85v51h85v200h55v-200h199v-51h-199v-160h161zM320 51q63 0 98 13t50 44t15 86q0 56 -15 87t-50 44t-98 13h-161v-287h161z" />
         <glyph glyph-name="uni046B" unicode="ѫ" d="M559 44q10 -20 32 -44h-56q-20 22 -30 42.5t-22 68.5q-24 91 -60.5 137t-94.5 54v-302h-55v302q-58 -7 -95 -53t-61 -138q-13 -47 -22.5 -68t-29.5 -43h-56q22 24 32 44t22 68q23 93 56.5 147.5t85.5 77.5l-179 230v51h549v-51l-179 -231q52 -22 85.5 -76.5t55.5 -147.5 q12 -48 22 -68zM89 567l167 -216q21 3 44 3t44 -3l167 216h-422z" />
         <glyph glyph-name="uni0499" unicode="ҙ" d="M501 250.5q21 -35.5 21 -101.5q0 -60 -18 -94t-60 -50t-116 -19v-27q33 -8 53.5 -28t20.5 -46q0 -38 -29.5 -62t-78.5 -24q-25 0 -49 8t-39 22l23 45q12 -11 30.5 -17.5t34.5 -6.5q24 0 38.5 9.5t14.5 25.5q0 15 -20.5 23.5t-53.5 8.5v69q-74 2 -116 17t-60 46.5 t-18 86.5h55q0 -39 15.5 -60t51 -30t99.5 -9t100 10.5t51.5 34.5t15.5 67q0 50 -13.5 78.5t-45 42.5t-88.5 18h-72v50h72q57 4 88.5 17.5t45 40.5t13.5 74q0 43 -15.5 66.5t-51.5 34t-100 10.5t-99.5 -8.5t-51 -28.5t-15.5 -57h-55q0 56 20.5 87t68 44.5t132.5 13.5 q86 0 133.5 -15t68 -49.5t20.5 -97.5q0 -62 -21 -96t-75 -61q54 -27 75 -62.5z" />
         <glyph glyph-name="uni04BB" unicode="һ" d="M102 0v800h55v-243q16 41 54.5 58t98.5 17q81 0 126 -28.5t64.5 -95t19.5 -186.5v-322h-55v322q0 101 -14.5 156.5t-47.5 79t-93 23.5q-61 0 -93.5 -14t-46 -50t-13.5 -105v-412h-55z" />
         <glyph glyph-name="uni04C2" unicode="ӂ" d="M209 309l-208 309h64l208 -309l-208 -309h-64zM273 618h55v-618h-55v618zM535 618h63l-208 -309l208 -309h-63l-207 309zM223 694q-27 11 -39 36.5t-11 71.5h65q-10 -25 -10 -37q0 -18 16 -25t55 -7q40 0 56.5 7.5t16.5 24.5q0 15 -9 37h64q1 -46 -11 -71.5t-39.5 -36.5 t-77.5 -11q-49 0 -76 11z" />
         <glyph glyph-name="uni04D1" unicode="ӑ" d="M148 3q-45 17 -64.5 55.5t-19.5 108.5q0 74 19.5 114.5t64.5 57.5t126 17h156v62q0 63 -14.5 97.5t-47.5 49.5t-94 15q-65 0 -95 -21t-47 -79l-53 13q16 53 39 83t60 43t96 13q81 0 126.5 -20t65 -66t19.5 -128v-261q0 -42 7 -65t23.5 -32.5t47.5 -8.5v-51 q-56 0 -81 17.5t-35 64.5q-27 -55 -64.5 -75.5t-108.5 -20.5q-81 0 -126 17zM368 53.5q33 16.5 47.5 55t14.5 108.5v89h-156q-61 0 -94 -12.5t-47 -42t-14 -84.5q0 -51 14 -78.5t47 -39.5t94 -12t94 16.5zM223 694q-27 11 -39 36.5t-11 71.5h65q-10 -25 -10 -37 q0 -18 16 -25t55 -7q40 0 56.5 7.5t16.5 24.5q0 15 -9 37h64q1 -46 -11 -71.5t-39.5 -36.5t-77.5 -11q-49 0 -76 11z" />
         <glyph glyph-name="uni04D3" unicode="ӓ" d="M148 3q-45 17 -64.5 55.5t-19.5 108.5q0 74 19.5 114.5t64.5 57.5t126 17h156v62q0 63 -14.5 97.5t-47.5 49.5t-94 15q-65 0 -95 -21t-47 -79l-53 13q16 53 39 83t60 43t96 13q81 0 126.5 -20t65 -66t19.5 -128v-261q0 -42 7 -65t23.5 -32.5t47.5 -8.5v-51 q-56 0 -81 17.5t-35 64.5q-27 -55 -64.5 -75.5t-108.5 -20.5q-81 0 -126 17zM368 53.5q33 16.5 47.5 55t14.5 108.5v89h-156q-61 0 -94 -12.5t-47 -42t-14 -84.5q0 -51 14 -78.5t47 -39.5t94 -12t94 16.5zM147.5 741q-12.5 12 -12.5 43q0 29 12.5 40.5t44.5 11.5t45 -11.5 t13 -40.5q0 -31 -12.5 -43t-45.5 -12q-32 0 -44.5 12zM363.5 741q-12.5 12 -12.5 43q0 29 12.5 40.5t44.5 11.5t45 -11.5t13 -40.5q0 -31 -12.5 -43t-45.5 -12q-32 0 -44.5 12z" />
         <glyph glyph-name="uni04D5" unicode="ӕ" d="M72.5 3q-31.5 17 -45 55.5t-13.5 108.5q0 73 16.5 113.5t54 58t105.5 17.5h82v63q0 63 -10 97.5t-34 49.5t-68 15q-35 0 -52.5 -21t-28.5 -79l-55 13q11 53 27 83t41.5 42.5t67.5 12.5q61 0 95 -24.5t48 -83.5q17 60 46.5 84t89.5 24q56 0 88 -30.5t45.5 -100.5 t13.5 -195h-259q0 -104 10.5 -162t34.5 -82.5t67 -24.5q34 0 57.5 18t40.5 64l45 -30q-20 -57 -53 -80t-90 -23q-52 0 -84 24.5t-52 84.5q-13 -60 -47 -84.5t-96 -24.5q-56 0 -87.5 17zM531 356q-1 87 -9.5 135.5t-28 69t-54.5 20.5q-43 0 -67 -20.5t-34.5 -69t-10.5 -135.5 h204zM228 53.5q24 16.5 34 55t10 108.5v89h-82q-47 0 -73 -12.5t-37 -42.5t-11 -84q0 -51 8.5 -78.5t28 -39.5t54.5 -12q44 0 68 16.5z" />
         <glyph glyph-name="uni04D7" unicode="ӗ" d="M395.5 54.5q34.5 17.5 71.5 64.5l44 -30q-42 -59 -87 -81t-121 -22q-90 0 -140.5 30t-72 99.5t-21.5 193.5t21.5 193.5t72 99.5t140.5 30q84 0 131 -30.5t67.5 -100.5t20.5 -195h-398q1 -104 18 -162t55 -82.5t106 -24.5q58 0 92.5 17.5zM200.5 560q-37.5 -21 -55 -69.5 t-20.5 -134.5h340q-5 87 -21 135.5t-49.5 69t-91.5 20.5q-65 0 -102.5 -21zM223 694q-27 11 -39 36.5t-11 71.5h65q-10 -25 -10 -37q0 -18 16 -25t55 -7q40 0 56.5 7.5t16.5 24.5q0 15 -9 37h64q1 -46 -11 -71.5t-39.5 -36.5t-77.5 -11q-49 0 -76 11z" />
         <glyph glyph-name="uni04DD" unicode="ӝ" d="M209 309l-208 309h64l208 -309l-208 -309h-64zM273 618h55v-618h-55v618zM535 618h63l-208 -309l208 -309h-63l-207 309zM147.5 741q-12.5 12 -12.5 43q0 29 12.5 40.5t44.5 11.5t45 -11.5t13 -40.5q0 -31 -12.5 -43t-45.5 -12q-32 0 -44.5 12zM363.5 741 q-12.5 12 -12.5 43q0 29 12.5 40.5t44.5 11.5t45 -11.5t13 -40.5q0 -31 -12.5 -43t-45.5 -12q-32 0 -44.5 12z" />
         <glyph glyph-name="uni04DF" unicode="ӟ" d="M167 0q-47 14 -67.5 46t-20.5 90h55q0 -39 15.5 -60t51 -30t99.5 -9t100 10.5t51.5 34.5t15.5 67q0 50 -13.5 78.5t-45 42.5t-88.5 18h-72v50h72q57 4 88.5 17.5t45 40.5t13.5 74q0 43 -15.5 66.5t-51.5 34t-100 10.5t-99.5 -8.5t-51 -28.5t-15.5 -57h-55q0 56 20.5 87 t68 44.5t132.5 13.5q86 0 133.5 -15t68 -49.5t20.5 -97.5q0 -62 -21 -96t-75 -61q54 -27 75 -62.5t21 -101.5q0 -63 -20.5 -98t-68 -50t-133.5 -15t-133 14zM147.5 741q-12.5 12 -12.5 43q0 29 12.5 40.5t44.5 11.5t45 -11.5t13 -40.5q0 -31 -12.5 -43t-45.5 -12 q-32 0 -44.5 12zM363.5 741q-12.5 12 -12.5 43q0 29 12.5 40.5t44.5 11.5t45 -11.5t13 -40.5q0 -31 -12.5 -43t-45.5 -12q-32 0 -44.5 12z" />
         <glyph glyph-name="uni04E3" unicode="ӣ" d="M454 618h63v-618h-55v526l-316 -526h-62v618h55v-526zM440 722h-279v50h279v-50z" />
         <glyph glyph-name="uni04E5" unicode="ӥ" d="M454 618h63v-618h-55v526l-316 -526h-62v618h55v-526zM147.5 741q-12.5 12 -12.5 43q0 29 12.5 40.5t44.5 11.5t45 -11.5t13 -40.5q0 -31 -12.5 -43t-45.5 -12q-32 0 -44.5 12zM363.5 741q-12.5 12 -12.5 43q0 29 12.5 40.5t44.5 11.5t45 -11.5t13 -40.5q0 -31 -12.5 -43 t-45.5 -12q-32 0 -44.5 12z" />
         <glyph glyph-name="uni04E7" unicode="ӧ" d="M169.5 16q-46.5 30 -66.5 99.5t-20 193.5t20 193.5t66.5 99.5t130.5 30t131 -30t67 -99.5t20 -193.5t-20 -193.5t-67 -99.5t-131 -30t-130.5 30zM398 62q35 25 50 83t15 164t-15 164t-50 83t-98 25t-97.5 -25t-49.5 -83t-15 -164t15 -164t49.5 -83t97.5 -25t98 25z M147.5 741q-12.5 12 -12.5 43q0 29 12.5 40.5t44.5 11.5t45 -11.5t13 -40.5q0 -31 -12.5 -43t-45.5 -12q-32 0 -44.5 12zM363.5 741q-12.5 12 -12.5 43q0 29 12.5 40.5t44.5 11.5t45 -11.5t13 -40.5q0 -31 -12.5 -43t-45.5 -12q-32 0 -44.5 12z" />
         <glyph glyph-name="uni04ED" unicode="ӭ" d="M441.5 606q50.5 -26 72.5 -87t22 -170v-80q0 -109 -22 -170t-72.5 -87t-141.5 -26q-64 0 -103 11t-63.5 37t-40.5 72h62q19 -39 50 -54t95 -15q70 0 108.5 21.5t55.5 71t17 139.5v15h-245v50h245v15q0 90 -17 139.5t-55.5 71t-108.5 21.5q-64 0 -96 -15t-51 -54h-60 q16 46 40.5 72t63.5 37t103 11q91 0 141.5 -26zM147.5 741q-12.5 12 -12.5 43q0 29 12.5 40.5t44.5 11.5t45 -11.5t13 -40.5q0 -31 -12.5 -43t-45.5 -12q-32 0 -44.5 12zM363.5 741q-12.5 12 -12.5 43q0 29 12.5 40.5t44.5 11.5t45 -11.5t13 -40.5q0 -31 -12.5 -43 t-45.5 -12q-32 0 -44.5 12z" />
         <glyph glyph-name="uni04EF" unicode="ӯ" d="M84 -190.5q-20 5.5 -43 20.5l22 47q22 -13 37.5 -17.5t33.5 -4.5q44 0 72.5 13t49 44t38.5 87l-198 619h57l171 -539l173 539h57l-203 -618q-24 -75 -52 -117t-67 -60.5t-98 -18.5q-30 0 -50 5.5zM470 722h-279v50h279v-50z" />
         <glyph glyph-name="uni04F1" unicode="ӱ" d="M84 -190.5q-20 5.5 -43 20.5l22 47q22 -13 37.5 -17.5t33.5 -4.5q44 0 72.5 13t49 44t38.5 87l-198 619h57l171 -539l173 539h57l-203 -618q-24 -75 -52 -117t-67 -60.5t-98 -18.5q-30 0 -50 5.5zM177.5 741q-12.5 12 -12.5 43q0 29 12.5 40.5t44.5 11.5t45 -11.5 t13 -40.5q0 -31 -12.5 -43t-45.5 -12q-32 0 -44.5 12zM393.5 741q-12.5 12 -12.5 43q0 29 12.5 40.5t44.5 11.5t45 -11.5t13 -40.5q0 -31 -12.5 -43t-45.5 -12q-32 0 -44.5 12z" />
         <glyph glyph-name="uni04F3" unicode="ӳ" d="M84 -190.5q-20 5.5 -43 20.5l22 47q22 -13 37.5 -17.5t33.5 -4.5q44 0 72.5 13t49 44t38.5 87l-198 619h57l171 -539l173 539h57l-203 -618q-24 -75 -52 -117t-67 -60.5t-98 -18.5q-30 0 -50 5.5zM328 807l-139 -122l-36 39l139 121zM507 807l-139 -122l-36 39l139 121z " />
         <glyph glyph-name="uni04F5" unicode="ӵ" d="M444 212q-16 -41 -55 -58t-99 -17q-84 0 -127.5 22t-62.5 81.5t-19 177.5v200h55v-200q0 -99 14 -147.5t46 -65.5t94 -17q61 0 93.5 13.5t46.5 49t14 104.5v263h55v-618h-55v212zM147.5 741q-12.5 12 -12.5 43q0 29 12.5 40.5t44.5 11.5t45 -11.5t13 -40.5 q0 -31 -12.5 -43t-45.5 -12q-32 0 -44.5 12zM363.5 741q-12.5 12 -12.5 43q0 29 12.5 40.5t44.5 11.5t45 -11.5t13 -40.5q0 -31 -12.5 -43t-45.5 -12q-32 0 -44.5 12z" />
         <glyph glyph-name="uni04F9" unicode="ӹ" d="M228 389q76 0 118 -18t60.5 -60t18.5 -117t-18.5 -116.5t-60.5 -59.5t-118 -18h-176v618h55v-229h121zM494 0v618h55v-618h-55zM228 51q55 0 85 13t43.5 44t13.5 86q0 56 -13.5 87t-43.5 44t-85 13h-121v-287h121zM147.5 741q-12.5 12 -12.5 43q0 29 12.5 40.5t44.5 11.5 t45 -11.5t13 -40.5q0 -31 -12.5 -43t-45.5 -12q-32 0 -44.5 12zM363.5 741q-12.5 12 -12.5 43q0 29 12.5 40.5t44.5 11.5t45 -11.5t13 -40.5q0 -31 -12.5 -43t-45.5 -12q-32 0 -44.5 12z" />
         <glyph glyph-name="uni0432.loclBGR" d="M487 414.5q35 -25.5 50 -67.5t15 -111q0 -97 -20.5 -151t-68.5 -77.5t-133 -23.5q-105 0 -158.5 30.5t-73 96.5t-19.5 189v281q0 116 46 175.5t155 59.5q77 0 120.5 -18t62.5 -59.5t19 -116.5q0 -69 -20 -105t-72 -62q62 -15 97 -40.5zM167 718q-33 -48 -33 -137v-103 h166q49 4 76 18.5t39 44t12 81.5q0 56 -13.5 87t-45 44t-88.5 13q-80 0 -113 -48zM430 52.5q36 18.5 51.5 62t15.5 121.5q0 69 -18 108.5t-60.5 59t-118.5 24.5h-166v-183q0 -82 18 -127t60 -64.5t118 -19.5q64 0 100 18.5z" />
         <glyph glyph-name="uni0433.loclBGR" d="M136.5 32q-55.5 46 -54.5 120q0 49 28.5 83.5t69.5 55.5t107 47q76 29 112.5 52.5t37.5 61.5q0 58 -42.5 93.5t-111.5 35.5q-55 0 -90.5 -36.5t-38.5 -97.5l-53 9q3 79 52.5 127.5t127.5 48.5q63 0 111 -22.5t73 -64t24 -95.5q-1 -44 -27.5 -74t-64 -48.5t-98.5 -41.5 q-56 -21 -89 -37t-55 -40.5t-22 -58.5q2 -51 42.5 -82t105.5 -31q68 0 111.5 39t47.5 103l55 -5q-3 -55 -30.5 -98t-74.5 -66.5t-107 -23.5q-91 0 -146.5 46z" />
         <glyph glyph-name="uni0434.loclBGR" d="M209.5 -183.5q-32.5 12.5 -64.5 44.5l40 35q23 -23 47.5 -32t65.5 -9q61 0 94.5 17t48 56t14.5 111v91q-20 -46 -61.5 -65.5t-102.5 -19.5q-84 0 -130.5 30t-66.5 100t-20 195q0 101 20 157t67 80.5t130 24.5q60 0 101.5 -14t62.5 -48v48h55v-570q0 -94 -19.5 -146.5 t-65 -75t-127.5 -22.5q-56 0 -88.5 12.5zM455 263v233q0 45 -45 65t-119 20q-63 0 -97.5 -19.5t-49.5 -64.5t-15 -127q0 -106 15 -165t49.5 -84t97.5 -25q164 0 164 167z" />
         <glyph glyph-name="uni0436.loclBGR" d="M273 800h55v-800h-55v800zM209 309l-208 309h64l208 -309l-208 -309h-64zM535 618h63l-208 -309l208 -309h-63l-207 309z" />
         <glyph glyph-name="uni0437.loclBGR" d="M173 -177.5q-45 18.5 -64.5 61.5t-19.5 120h55q0 -58 14.5 -90t47.5 -45.5t94 -13.5t94.5 16t48 52.5t14.5 103.5q0 69 -12.5 108.5t-42 58t-82.5 22.5h-72v50h72q53 4 82.5 20t42 48.5t12.5 89.5q0 61 -14.5 94.5t-48 48t-94.5 14.5t-94 -12.5t-47.5 -41.5t-14.5 -81 h-55q0 72 19.5 112t64.5 57t127 17t127.5 -19t65 -64t19.5 -125q0 -77 -21 -116.5t-75 -66.5q37 -19 57.5 -44.5t29.5 -65.5t9 -104q0 -86 -19.5 -134t-65 -68.5t-127.5 -20.5t-127 18.5z" />
         <glyph glyph-name="uni0438.loclBGR" d="M171 7q-40 21 -57.5 69.5t-17.5 135.5v406h55v-406q0 -68 12 -105.5t40.5 -53.5t79.5 -16q69 0 107 13.5t54.5 45t16.5 89.5v433h55v-618h-55v55q-28 -39 -66.5 -54t-111.5 -15q-72 0 -112 21z" />
         <glyph glyph-name="uni0439.loclBGR" d="M171 7q-40 21 -57.5 69.5t-17.5 135.5v406h55v-406q0 -68 12 -105.5t40.5 -53.5t79.5 -16q69 0 107 13.5t54.5 45t16.5 89.5v433h55v-618h-55v55q-28 -39 -66.5 -54t-111.5 -15q-72 0 -112 21zM223 694q-27 11 -39 36.5t-11 71.5h65q-10 -25 -10 -37q0 -18 16 -25t55 -7 q40 0 56.5 7.5t16.5 24.5q0 15 -9 37h64q1 -46 -11 -71.5t-39.5 -36.5t-77.5 -11q-49 0 -76 11z" />
         <glyph glyph-name="uni045D.loclBGR" d="M171 7q-40 21 -57.5 69.5t-17.5 135.5v406h55v-406q0 -68 12 -105.5t40.5 -53.5t79.5 -16q69 0 107 13.5t54.5 45t16.5 89.5v433h55v-618h-55v55q-28 -39 -66.5 -54t-111.5 -15q-72 0 -112 21zM347 724l-37 -39l-138 122l36 38z" />
         <glyph glyph-name="uni043A.loclBGR" d="M179 0h-55v800h55v-444h48l201 262h66l-218 -285l258 -333h-66l-237 306h-52v-306z" />
         <glyph glyph-name="uni043B.loclBGR" d="M105 0h-56l219 618h64l219 -618h-56l-195 550z" />
         <glyph glyph-name="uni043F.loclBGR" d="M96 0v618h55v-60q28 40 67 57t110 17q73 0 113 -21t57.5 -70.5t17.5 -139.5v-401h-55v401q0 70 -12.5 108.5t-41 55t-79.5 16.5q-71 0 -108 -14t-53 -49.5t-16 -105.5v-412h-55z" />
         <glyph glyph-name="uni0442.loclBGR" d="M55 0v618h55v-53q20 38 41.5 52t60.5 14q38 0 58 -19t35 -71q25 52 51.5 71t72.5 19q45 0 70 -21t35.5 -69.5t10.5 -136.5v-404h-55v404q0 64 -6.5 100t-20.5 51.5t-40 15.5q-37 0 -57 -15.5t-29 -51.5t-9 -101v-403h-55v398q0 67 -6.5 104t-20.5 53t-40 16 q-37 0 -57.5 -15.5t-29.5 -51.5t-9 -101v-403h-55z" />
         <glyph glyph-name="uni0446.loclBGR" d="M505 49h39v-167h-55v118h-39v55q-28 -39 -66.5 -54t-111.5 -15q-72 0 -112 21t-57.5 69.5t-17.5 135.5v406h55v-406q0 -68 12 -105.5t40.5 -53.5t79.5 -16q69 0 107 13.5t54.5 45t16.5 89.5v433h55v-569z" />
         <glyph glyph-name="uni0448.loclBGR" d="M545 618v-618h-55v53q-20 -38 -41.5 -52t-60.5 -14q-38 0 -58 19t-35 71q-25 -52 -51.5 -71t-72.5 -19q-45 0 -70 21t-35.5 69.5t-10.5 136.5v404h55v-404q0 -64 6.5 -100t20.5 -51.5t40 -15.5q37 0 57.5 15.5t29.5 51.5t9 101v403h55v-398q0 -67 6 -104t20.5 -53 t39.5 -16q37 0 57.5 15.5t29.5 51.5t9 101v403h55z" />
         <glyph glyph-name="uni0449.loclBGR" d="M532 49h38v-167h-55v118h-38v53q-19 -38 -40.5 -52t-60.5 -14q-38 0 -58 19t-35 71q-25 -52 -52 -71t-72 -19t-70 21t-35.5 69.5t-10.5 136.5v404h55v-404q0 -64 6.5 -100t20.5 -51.5t40 -15.5q37 0 57 15.5t29 51.5t9 101v403h55v-398q0 -67 6.5 -104t20.5 -53t40 -16 q37 0 57 15.5t29 51.5t9 101v403h55v-569z" />
         <glyph glyph-name="uni044C.loclBGR" d="M190.5 4.5q-46.5 18.5 -66.5 61t-20 120.5v432h55v-306q28 44 63 60.5t99 16.5q84 0 131 -18.5t67 -62t20 -121.5t-20 -121t-66.5 -61.5t-131.5 -18.5q-84 0 -130.5 18.5zM419 51q35 14 50 46t15 90q0 59 -15 91t-50 46t-98 14t-97.5 -14t-49.5 -46.5t-15 -91.5 q0 -58 15 -89.5t49.5 -45.5t97.5 -14t98 14z" />
         <glyph glyph-name="uni044A.loclBGR" d="M473 370.5q47 -18.5 67 -62t20 -121.5t-20 -121t-66.5 -61.5t-131.5 -18.5q-84 0 -130.5 18.5t-66.5 61t-20 120.5v381h-101v51h156v-306q28 44 63 60.5t99 16.5q84 0 131 -18.5zM440 51q35 14 50 46t15 90q0 59 -15 91t-50 46t-98 14t-97.5 -14t-49.5 -46.5t-15 -91.5 q0 -58 15 -89.5t49.5 -45.5t97.5 -14t98 14z" />
         <glyph glyph-name="uni044E.loclBGR" d="M504 606q42 -26 60 -87t18 -170v-80q0 -109 -18 -170t-60 -87t-117 -26t-116.5 26t-59.5 86.5t-18 170.5v15h-105v-284h-55v800h55v-466h105v15q0 110 18 170.5t59.5 86.5t116.5 26t117 -26zM527 349q0 90 -13 139.5t-43 71t-84 21.5t-84 -21.5t-42.5 -71t-12.5 -139.5 v-80q0 -90 12.5 -139.5t42.5 -71t84 -21.5t84 21.5t43 71t13 139.5v80z" />
         <glyph glyph-name="uni0431.loclSRB" d="M431 468.5q47 -23.5 67 -77.5t20 -152t-20 -152t-67 -77.5t-131 -23.5t-130.5 23.5t-66.5 77.5t-20 152q0 101 21 155.5t72 77.5q-38 22 -58.5 59.5t-20.5 85.5q0 69 52.5 111.5t137.5 42.5q71 0 119 8t55 21l35 -39q-11 -18 -69 -29.5t-140 -11.5q-61 0 -98 -28.5 t-37 -74.5q0 -51 35.5 -85t94.5 -40h18q84 0 131 -23.5zM398 55.5q35 18.5 50 62t15 121.5t-15 121.5t-50 62t-98 18.5t-97.5 -18.5t-49.5 -62t-15 -121.5t15 -121.5t49.5 -62t97.5 -18.5t98 18.5z" />
         <glyph glyph-name="uni0433.loclSRB" d="M101 618h429v-51h-374v-567h-55v618z" />
         <glyph glyph-name="uni0434.loclSRB" d="M517 51h50v-139h-55v88h-424v-88h-55v139h31q51 34 79.5 101.5t44.5 173.5t31 292h298v-567zM462 51v516h-193q-18 -221 -47 -343.5t-82 -172.5h322z" />
         <glyph glyph-name="uni043F.loclSRB" d="M124 0h-55v618h463v-618h-55v567h-353v-567z" />
         <glyph glyph-name="uni0442.loclSRB" d="M571 618v-51h-243v-567h-55v567h-243v51h541z" />
         <glyph glyph-name="uni0448.loclSRB" d="M557 0h-513v618h55v-567h174v567h55v-567h174v567h55v-618z" />
         <glyph glyph-name="Alpha" unicode="Α" d="M553 0h-57l-59 214h-274l-58 -214h-58l223 800h61zM300 716l-123 -452h247z" />
         <glyph glyph-name="Beta" unicode="Β" d="M92 0v800h192q83 0 130 -18.5t67.5 -61.5t20.5 -119t-21.5 -113t-77.5 -60q48 -14 74.5 -37t38 -62t11.5 -104q0 -86 -20 -134.5t-67 -69.5t-131 -21h-217zM284 448q63 0 98 14t50 46.5t15 92.5q0 58 -15 89.5t-50 45t-98 13.5h-137v-301h137zM309 51q63 0 98 16t50 53.5 t15 104.5q0 68 -15 105t-50 52.5t-98 15.5h-162v-347h162z" />
         <glyph glyph-name="Gamma" unicode="Γ" d="M101 800h429v-51h-374v-749h-55v800z" />
         <glyph glyph-name="uni0394" unicode="Δ" d="M551 0h-502l219 800h64zM300 716l-182 -665h364z" />
         <glyph glyph-name="Epsilon" unicode="Ε" d="M529 800v-51h-374v-301h240v-50h-240v-347h374v-51h-429v800h429z" />
         <glyph glyph-name="Zeta" unicode="Ζ" d="M542 0h-485v44l421 705h-419v51h485v-45l-422 -704h420v-51z" />
         <glyph glyph-name="Eta" unicode="Η" d="M464 448v352h55v-800h-55v398h-327v-398h-55v800h55v-352h327z" />
         <glyph glyph-name="Theta" unicode="Θ" d="M158.5 20.5q-50.5 34.5 -72 115t-21.5 224.5v80q0 144 21.5 224.5t72 115t141.5 34.5t141.5 -34.5t72.5 -115t22 -224.5v-80q0 -144 -22 -224.5t-72.5 -115t-141.5 -34.5t-141.5 34.5zM408.5 66.5q38.5 29.5 55.5 99t17 194.5v80q0 125 -17 194.5t-55.5 99t-108.5 29.5 t-109 -29.5t-55.5 -99t-15.5 -194.5v-80q0 -125 16.5 -194.5t55.5 -99t108 -29.5q70 0 108.5 29.5zM425 375h-250v50h250v-50z" />
         <glyph glyph-name="Iota" unicode="Ι" d="M490 800v-51h-162v-698h162v-51h-379v51h162v698h-162v51h379z" />
         <glyph glyph-name="Kappa" unicode="Κ" d="M562 0h-65l-277 398h-77v-398h-55v800h55v-352h58l289 352h68l-299 -363z" />
         <glyph glyph-name="Lambda" unicode="Λ" d="M104 0h-55l219 800h64l219 -800h-55l-196 715z" />
         <glyph glyph-name="Mu" unicode="Μ" d="M113 0h-55l14 800h55l173 -459l173 459h56l14 -800h-55l-12 661l-149 -401h-54l-149 401z" />
         <glyph glyph-name="Nu" unicode="Ν" d="M462 118v682h55v-800h-60l-318 682v-682h-55v800h59z" />
         <glyph glyph-name="Xi" unicode="Ξ" d="M553 749h-505v51h505v-51zM483 375h-365v50h365v-50zM553 0h-505v51h505v-51z" />
         <glyph glyph-name="Omicron" unicode="Ο" d="M158.5 20.5q-50.5 34.5 -72 115t-21.5 224.5v80q0 144 21.5 224.5t72 115t141.5 34.5t141.5 -34.5t72.5 -115t22 -224.5v-80q0 -144 -22 -224.5t-72.5 -115t-141.5 -34.5t-141.5 34.5zM408.5 66.5q38.5 29.5 55.5 99t17 194.5v80q0 125 -17 194.5t-55.5 99t-108.5 29.5 t-109 -29.5t-55.5 -99t-15.5 -194.5v-80q0 -125 16.5 -194.5t55.5 -99t108 -29.5q70 0 108.5 29.5z" />
         <glyph glyph-name="Pi" unicode="Π" d="M124 0h-55v800h463v-800h-55v749h-353v-749z" />
         <glyph glyph-name="Rho" unicode="Ρ" d="M320 800q83 0 130 -21t67.5 -69t20.5 -134q0 -87 -20.5 -135t-67 -69t-130.5 -21h-161v-351h-55v800h216zM320 402q63 0 98 15.5t50 53t15 105.5q0 67 -15 104t-50 53t-98 16h-161v-347h161z" />
         <glyph glyph-name="Sigma" unicode="Σ" d="M553 0h-495v49l239 351l-239 351v49h495v-51h-427l238 -349l-238 -349h427v-51z" />
         <glyph glyph-name="Tau" unicode="Τ" d="M571 800v-51h-243v-749h-55v749h-243v51h541z" />
         <glyph glyph-name="Upsilon" unicode="Υ" d="M328 0h-55v307l-235 493h61l201 -425l201 425h61l-234 -493v-307z" />
         <glyph glyph-name="Phi" unicode="Φ" d="M564 229.5q-24 -62.5 -80 -91t-156 -31.5v-107h-55v107q-100 3 -156.5 31.5t-80.5 91t-24 171.5t24 171t80.5 90.5t156.5 31.5v106h55v-106q100 -3 156 -31.5t80 -90.5t24 -171t-24 -171.5zM328 158q78 3 122.5 27t63.5 75.5t19 140.5t-19 140t-63 75t-123 28v-486z M86 260.5q19 -51.5 63.5 -75.5t123.5 -27v485q-79 -3 -123.5 -27t-63.5 -75t-19 -140t19 -140.5z" />
         <glyph glyph-name="Chi" unicode="Χ" d="M482 800h61l-212 -400l212 -400h-61l-182 343l-182 -343h-61l213 400l-213 400h61l182 -343z" />
         <glyph glyph-name="Psi" unicode="Ψ" d="M517 800h55v-283q0 -103 -23 -162t-75.5 -86.5t-145.5 -31.5v-237h-55v237q-94 3 -146.5 30.5t-75 86.5t-22.5 163v283h55v-283q0 -84 17.5 -132.5t58.5 -71t113 -25.5v512h55v-512q72 3 112.5 25.5t58.5 71t18 132.5v283z" />
         <glyph glyph-name="uni03A9" unicode="Ω" d="M26 0v51h100q-35 41 -48 107.5t-13 201.5v80q0 144 21.5 224.5t71.5 115t140 34.5q91 0 141.5 -34.5t72.5 -115t22 -224.5v-80q0 -134 -13 -201t-47 -108h101v-51h-220v51q48 0 74.5 28t38 94t11.5 187v80q0 125 -17 194.5t-55.5 99t-108.5 29.5q-69 0 -107 -29.5 t-54.5 -99t-16.5 -194.5v-80q0 -121 11.5 -187t38.5 -94t76 -28v-51h-220z" />
         <glyph glyph-name="Alphatonos" unicode="Ά" d="M553 0h-57l-59 214h-274l-58 -214h-58l223 800h61zM300 716l-123 -452h247zM225 762l-139 -122l-36 39l138 121z" />
         <glyph glyph-name="Epsilontonos" unicode="Έ" d="M529 800v-51h-374v-301h240v-50h-240v-347h374v-51h-429v800h429zM60 762l-139 -122l-36 39l138 121z" />
         <glyph glyph-name="Etatonos" unicode="Ή" d="M464 448v352h55v-800h-55v398h-327v-398h-55v800h55v-352h327zM41 762l-139 -122l-36 39l138 121z" />
         <glyph glyph-name="Iotatonos" unicode="Ί" d="M490 800v-51h-162v-698h162v-51h-379v51h162v698h-162v51h379zM67 762l-139 -122l-36 39l138 121z" />
         <glyph glyph-name="Omicrontonos" unicode="Ό" d="M158.5 20.5q-50.5 34.5 -72 115t-21.5 224.5v80q0 144 21.5 224.5t72 115t141.5 34.5t141.5 -34.5t72.5 -115t22 -224.5v-80q0 -144 -22 -224.5t-72.5 -115t-141.5 -34.5t-141.5 34.5zM408.5 66.5q38.5 29.5 55.5 99t17 194.5v80q0 125 -17 194.5t-55.5 99t-108.5 29.5 t-109 -29.5t-55.5 -99t-15.5 -194.5v-80q0 -125 16.5 -194.5t55.5 -99t108 -29.5q70 0 108.5 29.5zM77 762l-139 -122l-36 39l138 121z" />
         <glyph glyph-name="Upsilontonos" unicode="Ύ" d="M328 0h-55v307l-235 493h61l201 -425l201 425h61l-234 -493v-307zM-23 762l-139 -122l-36 39l138 121z" />
         <glyph glyph-name="Omegatonos" unicode="Ώ" d="M26 0v51h100q-35 41 -48 107.5t-13 201.5v80q0 144 21.5 224.5t71.5 115t140 34.5q91 0 141.5 -34.5t72.5 -115t22 -224.5v-80q0 -134 -13 -201t-47 -108h101v-51h-220v51q48 0 74.5 28t38 94t11.5 187v80q0 125 -17 194.5t-55.5 99t-108.5 29.5q-69 0 -107 -29.5 t-54.5 -99t-16.5 -194.5v-80q0 -121 11.5 -187t38.5 -94t76 -28v-51h-220zM77 762l-139 -122l-36 39l138 121z" />
         <glyph glyph-name="Iotadieresis" unicode="Ϊ" d="M490 800v-51h-162v-698h162v-51h-379v51h162v698h-162v51h379zM147.5 926q-12.5 12 -12.5 43q0 29 12.5 40.5t44.5 11.5t45 -11.5t13 -40.5q0 -31 -12.5 -43t-45.5 -12q-32 0 -44.5 12zM363.5 926q-12.5 12 -12.5 43q0 29 12.5 40.5t44.5 11.5t45 -11.5t13 -40.5 q0 -31 -12.5 -43t-45.5 -12q-32 0 -44.5 12z" />
         <glyph glyph-name="Upsilondieresis" unicode="Ϋ" d="M328 0h-55v307l-235 493h61l201 -425l201 425h61l-234 -493v-307zM147.5 926q-12.5 12 -12.5 43q0 29 12.5 40.5t44.5 11.5t45 -11.5t13 -40.5q0 -31 -12.5 -43t-45.5 -12q-32 0 -44.5 12zM363.5 926q-12.5 12 -12.5 43q0 29 12.5 40.5t44.5 11.5t45 -11.5t13 -40.5 q0 -31 -12.5 -43t-45.5 -12q-32 0 -44.5 12z" />
         <glyph glyph-name="uni03CF" unicode="Ϗ" d="M558 800l-299 -363l303 -437l-89 -127h-66l90 127l-277 398h-77v-398h-55v800h55v-352h58l289 352h68z" />
         <glyph glyph-name="alpha" unicode="α" d="M491 89.5q18 -37.5 52 -37.5v-52q-41 0 -67.5 28t-42.5 80q-29 -65 -70.5 -93.5t-102.5 -28.5q-72 0 -112 29t-57 96t-17 187q0 178 59 256t155 78q74 0 107.5 -67t47.5 -185q11 101 15 238h55q-15 -284 -50 -420q10 -71 28 -108.5zM352.5 75q37.5 38 60.5 125 q-6 36 -14 112q-10 91 -19.5 144t-31.5 89t-60 36q-69 0 -114 -66t-45 -217q0 -101 12 -157t40 -80t79 -24q55 0 92.5 38z" />
         <glyph glyph-name="beta" unicode="β" d="M487 414.5q35 -25.5 50 -67.5t15 -111q0 -97 -20.5 -151t-68.5 -77.5t-133 -23.5q-72 0 -120 19.5t-76 59.5v-212h-55v771q0 75 18.5 116.5t62 59.5t120.5 18t120.5 -18t62.5 -59.5t19 -116.5q0 -69 -20 -105t-72 -62q62 -15 97 -40.5zM430 52.5q36 18.5 51.5 62 t15.5 121.5q0 69 -18 108.5t-60.5 59t-118.5 24.5h-67v50h67q49 4 76 18.5t39 44t12 81.5q0 56 -13.5 87t-45 44t-88.5 13t-88 -13t-44.5 -44t-13.5 -87v-379q0 -82 18 -126.5t60 -63.5t118 -19q64 0 100 18.5z" />
         <glyph glyph-name="gamma" unicode="γ" d="M515 336q-18 -62 -61.5 -140.5t-124.5 -195.5v-182h-55v182l-231 618h57l208 -555q97 141 133.5 229.5t36.5 171.5q0 47 -10 80t-37 74h64q21 -40 29.5 -73t8.5 -81q0 -66 -18 -128z" />
         <glyph glyph-name="delta" unicode="δ" d="M518 269q0 -109 -20 -169.5t-67 -87t-131 -26.5t-130.5 26.5t-66.5 87t-20 169.5t20 169.5t66.5 87t130.5 26.5q17 0 25 -1q-17 10 -51 28q-43 23 -67.5 39t-40.5 39t-16 53q0 47 42 75.5t111 28.5q42 0 86.5 -8t75.5 -21l-20 -46q-36 11 -75 17.5t-67 6.5 q-45 0 -71.5 -14.5t-26.5 -38.5q0 -21 22 -38t69 -42q64 -35 106 -65.5t72 -77.5q21 -30 31 -75q4 -15 6 -33q7 -45 7 -110zM398 58.5q35 21.5 50 71t15 139.5q0 25 -2 65h-1v8q-8 89 -44.5 124t-115.5 35q-63 0 -97.5 -21.5t-49.5 -71t-15 -139.5t15 -139.5t49.5 -71 t97.5 -21.5t98 21.5z" />
         <glyph glyph-name="epsilon" unicode="ε" d="M167 1q-47 15 -67.5 50t-20.5 98q0 66 20.5 101.5t74.5 62.5q-54 27 -74.5 61t-20.5 96q0 63 20.5 97.5t68 49.5t132.5 15q86 0 133.5 -13.5t68 -44.5t20.5 -87h-55q0 37 -15.5 57t-51.5 28.5t-100 8.5t-99.5 -10.5t-51 -34t-15.5 -66.5q0 -47 13.5 -74t44.5 -40.5 t88 -17.5h73v-50h-73q-57 -4 -88 -18t-44.5 -42.5t-13.5 -78.5q0 -43 15.5 -67t51 -34.5t99.5 -10.5t100 9t51.5 30t15.5 60h55q0 -58 -20.5 -90t-68 -46t-133.5 -14t-133 15z" />
         <glyph glyph-name="zeta" unicode="ζ" d="M180.5 182.5q33.5 -43.5 80 -67.5t122.5 -51q58 -20 91 -35.5t55 -39t22 -57.5q0 -28 -20.5 -59.5t-52.5 -54.5l-33 42q22 14 36.5 34.5t14.5 37.5q0 26 -30.5 43t-96.5 39q-83 29 -138.5 57.5t-97 83t-41.5 138.5q0 83 39 168t110.5 160t165.5 128h-259v51h369v-51 q-105 -47 -189.5 -121t-132.5 -162t-48 -173q0 -67 33.5 -110.5z" />
         <glyph glyph-name="eta" unicode="η" d="M454 610q36 -22 49 -70t13 -139v-583h-55v583q0 70 -10 108t-36 55t-77 17q-65 0 -100.5 -14.5t-51 -50.5t-15.5 -104v-412h-55v504q0 34 -2.5 46.5t-12.5 17t-37 4.5v46q47 0 67 -3t30 -16.5t10 -45.5q26 40 68 59.5t108 19.5q71 0 107 -22z" />
         <glyph glyph-name="theta" unicode="θ" d="M420 761.5q54 -52.5 85 -146.5t31 -215t-31 -215t-85 -146.5t-120 -52.5t-119.5 52t-84.5 146.5t-31 215.5t31 215.5t84.5 146.5t119.5 52t120 -52.5zM213 720.5q-40 -42.5 -65 -119.5t-28 -176h361q-3 99 -28 176t-65.5 119.5t-87.5 42.5t-87 -42.5zM387.5 79.5 q40.5 42.5 65.5 119.5t28 176h-361q3 -99 28 -176t65 -119.5t87 -42.5t87.5 42.5z" />
         <glyph glyph-name="iota" unicode="ι" d="M274.5 6.5q-32.5 20.5 -46.5 69t-14 135.5v407h55v-407q0 -67 9 -104.5t30 -53.5t59 -16q22 0 40.5 8.5t45.5 30.5l31 -48q-37 -24 -62.5 -33t-54.5 -9q-60 0 -92.5 20.5z" />
         <glyph glyph-name="kappa" unicode="κ" d="M124 0v618h55v-262h48q32 19 52.5 48t47.5 78q25 46 43.5 72.5t49 45t74.5 18.5v-51q-33 0 -56 -15.5t-38 -38.5t-35 -62q-21 -44 -40.5 -72.5t-48.5 -45.5l258 -333h-66l-237 306h-52v-306h-55z" />
         <glyph glyph-name="lambda" unicode="λ" d="M573 51v-51h-53q-63 0 -105.5 56t-68 136t-56.5 212q-3 16 -11 48l-185 -452h-57l221 537q-29 102 -63.5 157t-85.5 55h-41v51h52q61 0 103 -55t67 -134t56 -210q29 -120 50 -188t54 -115t81 -47h42z" />
         <glyph glyph-name="uni03BC" unicode="μ" d="M83 -182v800h55v-441q3 -54 17 -84t42.5 -43t77.5 -13q40 0 82.5 18.5t71 54t28.5 83.5v425h55v-618h-55v80q-22 -47 -72 -70.5t-110 -23.5q-48 0 -81.5 8.5t-55.5 27.5v-204h-55z" />
         <glyph glyph-name="nu" unicode="ν" d="M495 618q21 -40 29.5 -73t8.5 -81q0 -65 -18 -127.5t-62 -141t-124 -195.5h-55l-231 618h57l208 -555q97 141 133.5 229.5t36.5 171.5q0 47 -10 80t-37 74h64z" />
         <glyph glyph-name="xi" unicode="ξ" d="M168 205.5q21 -19.5 52.5 -32t88.5 -30.5q78 -24 125.5 -45.5t82 -61.5t34.5 -104q0 -36 -15.5 -60.5t-57.5 -53.5l-33 42q29 19 40 34.5t11 37.5q0 45 -27 74.5t-66.5 46.5t-107.5 39q-68 21 -108 38.5t-67.5 47.5t-27.5 76q0 51 22.5 88t73 65.5t136.5 52.5 q-97 12 -137 42.5t-40 89.5q0 54 36.5 90.5t123.5 66.5h-159v51h364l5 1v-52h-5q-120 -24 -186.5 -46.5t-95 -48.5t-28.5 -62q0 -34 29 -53.5t95.5 -28.5t184.5 -9l6 1v-51q-143 -32 -222.5 -60t-113.5 -60t-34 -77q0 -29 21 -48.5z" />
         <glyph glyph-name="omicron" unicode="ο" d="M169.5 16q-46.5 30 -66.5 99.5t-20 193.5t20 193.5t66.5 99.5t130.5 30t131 -30t67 -99.5t20 -193.5t-20 -193.5t-67 -99.5t-131 -30t-130.5 30zM398 62q35 25 50 83t15 164t-15 164t-50 83t-98 25t-97.5 -25t-49.5 -83t-15 -164t15 -164t49.5 -83t97.5 -25t98 25z" />
         <glyph glyph-name="pi" unicode="π" d="M552 567h-103v-429q0 -51 22 -69.5t81 -17.5v-51q-82 -1 -120 32t-38 106v429h-200v-567h-55v567h-100v51h513v-51z" />
         <glyph glyph-name="rho" unicode="ρ" d="M431 602q47 -30 67 -99.5t20 -193.5t-20 -193.5t-67 -99.5t-131 -30q-49 0 -91 20.5t-71 64.5v-253h-55v491q0 124 20 193.5t66.5 99.5t130.5 30t131 -30zM398 62q35 25 50 83t15 164t-15 164t-50 83t-98 25t-97.5 -25t-49.5 -83t-15 -164t15 -164t49.5 -83t97.5 -25 t98 25z" />
         <glyph glyph-name="uni03C2" unicode="ς" d="M350 -151q29 39 40 61.5t11 43.5q0 49 -21 79.5t-52.5 47t-86.5 36.5q-65 24 -104.5 46t-67 67.5t-27.5 120.5q0 109 26 169t86.5 86t170.5 26q93 0 145 -21t74 -70.5t22 -138.5h-55q0 70 -17 108t-57 54.5t-112 16.5q-88 0 -137 -21t-70 -70.5t-21 -138.5 q0 -58 23.5 -93.5t58 -54.5t92.5 -40q61 -23 97.5 -43.5t62 -60.5t25.5 -105q0 -31 -13.5 -59.5t-48.5 -76.5z" />
         <glyph glyph-name="sigma" unicode="σ" d="M570 632v-51h-108q30 -34 43 -98t13 -174q0 -124 -20 -193.5t-67 -99.5t-131 -30t-130.5 30t-66.5 99.5t-20 193.5t20 193.5t66.5 99.5t130.5 30h270zM448 473q-15 58 -50 83t-98 25t-97.5 -25t-49.5 -83t-15 -164t15 -164t49.5 -83t97.5 -25t98 25t50 83t15 164t-15 164 z" />
         <glyph glyph-name="tau" unicode="τ" d="M523 28q-37 -24 -62.5 -33t-54.5 -9q-60 0 -92.5 20.5t-46.5 69t-14 135.5v356h-193v51h455v-51h-207v-356q0 -67 9 -104.5t30 -53.5t59 -16q22 0 40.5 8.5t45.5 30.5z" />
         <glyph glyph-name="upsilon" unicode="υ" d="M164.5 17.5q-48.5 31.5 -69.5 104t-21 202.5v294h55v-294q0 -111 15.5 -172.5t52.5 -88t103 -26.5t103 26.5t53 88t16 172.5q0 110 -17 174.5t-58 119.5h61q39 -54 54 -117t15 -177q0 -130 -21 -202.5t-69.5 -104t-136.5 -31.5q-87 0 -135.5 31.5z" />
         <glyph glyph-name="phi" unicode="φ" d="M499 123q-19 -68 -63 -100t-121 -36v-169h-55v169q-68 5 -106 37t-54.5 99.5t-16.5 185.5q0 89 19 159t54 112.5t81 48.5v-52q-45 -10 -72 -84t-27 -184q0 -98 11.5 -154.5t38 -84t73.5 -32.5q3 234 15 360.5t38.5 180t74.5 53.5q50 0 77.5 -30t39.5 -99.5t12 -193.5 q0 -118 -19 -186zM352 529.5q-16 -51.5 -24.5 -169.5t-11.5 -322q56 5 87.5 32t45.5 84t14 155q0 105 -6.5 163.5t-21 83.5t-40.5 25q-27 0 -43 -51.5z" />
         <glyph glyph-name="chi" unicode="χ" d="M573 -131v-51h-53q-57 0 -97 46t-66 118t-52 179l-184 -343h-61l227 422q-25 107 -46.5 173.5t-53.5 110t-78 43.5h-41v51h52q76 0 121.5 -80.5t82.5 -227.5l166 308h61l-208 -386q30 -127 51 -196.5t54.5 -118t82.5 -48.5h42z" />
         <glyph glyph-name="psi" unicode="ψ" d="M549 173q-23 -59 -75.5 -86.5t-145.5 -31.5v-237h-55v237q-94 3 -146.5 30.5t-75 86.5t-22.5 163v183h55v-183q0 -84 17.5 -132.5t58.5 -71t113 -25.5v512h55v-512q72 3 112.5 25.5t58.5 71t18 132.5q0 69 -8.5 108.5t-31.5 74.5h55q23 -35 31.5 -74.5t8.5 -108.5 q0 -103 -23 -162z" />
         <glyph glyph-name="omega" unicode="ω" d="M497 618q31 -43 50 -124t19 -170q0 -131 -13.5 -203.5t-45 -103.5t-88.5 -31q-45 0 -74 19.5t-45 63.5q-16 -44 -45 -63.5t-74 -19.5q-57 0 -88 31t-44.5 103.5t-13.5 203.5q0 89 18.5 170t49.5 124h62q-34 -47 -54.5 -127.5t-20.5 -166.5q0 -111 8.5 -172.5t28 -88 t54.5 -26.5t54.5 25.5t28 85.5t9.5 167v11h55v-13q0 -106 8.5 -165.5t28 -85t54.5 -25.5t55 26.5t28.5 88t8.5 172.5q0 86 -21 167t-55 127h62z" />
         <glyph glyph-name="iotatonos" unicode="ί" d="M274.5 6.5q-32.5 20.5 -46.5 69t-14 135.5v407h55v-407q0 -67 9 -104.5t30 -53.5t59 -16q22 0 40.5 8.5t45.5 30.5l31 -48q-37 -24 -62.5 -33t-54.5 -9q-60 0 -92.5 20.5zM327 807l-139 -122l-36 39l138 121z" />
         <glyph glyph-name="iotadieresis" unicode="ϊ" d="M274.5 6.5q-32.5 20.5 -46.5 69t-14 135.5v407h55v-407q0 -67 9 -104.5t30 -53.5t59 -16q22 0 40.5 8.5t45.5 30.5l31 -48q-37 -24 -62.5 -33t-54.5 -9q-60 0 -92.5 20.5zM86.5 741q-12.5 12 -12.5 43q0 29 12.5 40.5t44.5 11.5t45 -11.5t13 -40.5q0 -31 -12.5 -43 t-45.5 -12q-32 0 -44.5 12zM302.5 741q-12.5 12 -12.5 43q0 29 12.5 40.5t44.5 11.5t45 -11.5t13 -40.5q0 -31 -12.5 -43t-45.5 -12q-32 0 -44.5 12z" />
         <glyph glyph-name="iotadieresistonos" unicode="ΐ" d="M274.5 6.5q-32.5 20.5 -46.5 69t-14 135.5v407h55v-407q0 -67 9 -104.5t30 -53.5t59 -16q22 0 40.5 8.5t45.5 30.5l31 -48q-37 -24 -62.5 -33t-54.5 -9q-60 0 -92.5 20.5zM328 857l-139 -122l-36 39l138 121zM31.5 722.5q-12.5 11.5 -12.5 42.5q0 29 12.5 40.5t44.5 11.5 t45 -11.5t13 -40.5q0 -31 -13 -42.5t-45 -11.5t-44.5 11.5zM357.5 722.5q-12.5 11.5 -12.5 42.5q0 29 12.5 40.5t44.5 11.5t45 -11.5t13 -40.5q0 -31 -13 -42.5t-45 -11.5t-44.5 11.5z" />
         <glyph glyph-name="upsilontonos" unicode="ύ" d="M164.5 17.5q-48.5 31.5 -69.5 104t-21 202.5v294h55v-294q0 -111 15.5 -172.5t52.5 -88t103 -26.5t103 26.5t53 88t16 172.5q0 110 -17 174.5t-58 119.5h61q39 -54 54 -117t15 -177q0 -130 -21 -202.5t-69.5 -104t-136.5 -31.5q-87 0 -135.5 31.5zM378 807l-139 -122 l-36 39l138 121z" />
         <glyph glyph-name="upsilondieresis" unicode="ϋ" d="M164.5 17.5q-48.5 31.5 -69.5 104t-21 202.5v294h55v-294q0 -111 15.5 -172.5t52.5 -88t103 -26.5t103 26.5t53 88t16 172.5q0 110 -17 174.5t-58 119.5h61q39 -54 54 -117t15 -177q0 -130 -21 -202.5t-69.5 -104t-136.5 -31.5q-87 0 -135.5 31.5zM137.5 741 q-12.5 12 -12.5 43q0 29 12.5 40.5t44.5 11.5t45 -11.5t13 -40.5q0 -31 -12.5 -43t-45.5 -12q-32 0 -44.5 12zM353.5 741q-12.5 12 -12.5 43q0 29 12.5 40.5t44.5 11.5t45 -11.5t13 -40.5q0 -31 -12.5 -43t-45.5 -12q-32 0 -44.5 12z" />
         <glyph glyph-name="upsilondieresistonos" unicode="ΰ" d="M164.5 17.5q-48.5 31.5 -69.5 104t-21 202.5v294h55v-294q0 -111 15.5 -172.5t52.5 -88t103 -26.5t103 26.5t53 88t16 172.5q0 110 -17 174.5t-58 119.5h61q39 -54 54 -117t15 -177q0 -130 -21 -202.5t-69.5 -104t-136.5 -31.5q-87 0 -135.5 31.5zM379 857l-139 -122 l-36 39l138 121zM82.5 722.5q-12.5 11.5 -12.5 42.5q0 29 12.5 40.5t44.5 11.5t45 -11.5t13 -40.5q0 -31 -13 -42.5t-45 -11.5t-44.5 11.5zM408.5 722.5q-12.5 11.5 -12.5 42.5q0 29 12.5 40.5t44.5 11.5t45 -11.5t13 -40.5q0 -31 -13 -42.5t-45 -11.5t-44.5 11.5z" />
         <glyph glyph-name="omicrontonos" unicode="ό" d="M169.5 16q-46.5 30 -66.5 99.5t-20 193.5t20 193.5t66.5 99.5t130.5 30t131 -30t67 -99.5t20 -193.5t-20 -193.5t-67 -99.5t-131 -30t-130.5 30zM398 62q35 25 50 83t15 164t-15 164t-50 83t-98 25t-97.5 -25t-49.5 -83t-15 -164t15 -164t49.5 -83t97.5 -25t98 25z M388 807l-139 -122l-36 39l138 121z" />
         <glyph glyph-name="omegatonos" unicode="ώ" d="M497 618q31 -43 50 -124t19 -170q0 -131 -13.5 -203.5t-45 -103.5t-88.5 -31q-45 0 -74 19.5t-45 63.5q-16 -44 -45 -63.5t-74 -19.5q-57 0 -88 31t-44.5 103.5t-13.5 203.5q0 89 18.5 170t49.5 124h62q-34 -47 -54.5 -127.5t-20.5 -166.5q0 -111 8.5 -172.5t28 -88 t54.5 -26.5t54.5 25.5t28 85.5t9.5 167v11h55v-13q0 -106 8.5 -165.5t28 -85t54.5 -25.5t55 26.5t28.5 88t8.5 172.5q0 86 -21 167t-55 127h62zM388 807l-139 -122l-36 39l138 121z" />
         <glyph glyph-name="alphatonos" unicode="ά" d="M491 89.5q18 -37.5 52 -37.5v-52q-41 0 -67.5 28t-42.5 80q-29 -65 -70.5 -93.5t-102.5 -28.5q-72 0 -112 29t-57 96t-17 187q0 178 59 256t155 78q74 0 107.5 -67t47.5 -185q11 101 15 238h55q-15 -284 -50 -420q10 -71 28 -108.5zM352.5 75q37.5 38 60.5 125 q-6 36 -14 112q-10 91 -19.5 144t-31.5 89t-60 36q-69 0 -114 -66t-45 -217q0 -101 12 -157t40 -80t79 -24q55 0 92.5 38zM388 807l-139 -122l-36 39l138 121z" />
         <glyph glyph-name="epsilontonos" unicode="έ" d="M167 1q-47 15 -67.5 50t-20.5 98q0 66 20.5 101.5t74.5 62.5q-54 27 -74.5 61t-20.5 96q0 63 20.5 97.5t68 49.5t132.5 15q86 0 133.5 -13.5t68 -44.5t20.5 -87h-55q0 37 -15.5 57t-51.5 28.5t-100 8.5t-99.5 -10.5t-51 -34t-15.5 -66.5q0 -47 13.5 -74t44.5 -40.5 t88 -17.5h73v-50h-73q-57 -4 -88 -18t-44.5 -42.5t-13.5 -78.5q0 -43 15.5 -67t51 -34.5t99.5 -10.5t100 9t51.5 30t15.5 60h55q0 -58 -20.5 -90t-68 -46t-133.5 -14t-133 15zM388 807l-139 -122l-36 39l138 121z" />
         <glyph glyph-name="etatonos" unicode="ή" d="M454 610q36 -22 49 -70t13 -139v-583h-55v583q0 70 -10 108t-36 55t-77 17q-65 0 -100.5 -14.5t-51 -50.5t-15.5 -104v-412h-55v504q0 34 -2.5 46.5t-12.5 17t-37 4.5v46q47 0 67 -3t30 -16.5t10 -45.5q26 40 68 59.5t108 19.5q71 0 107 -22zM388 807l-139 -122l-36 39 l138 121z" />
         <glyph glyph-name="uni03D7" unicode="ϗ" d="M390 301q0 -120 41.5 -186.5t121.5 -65.5v-92q0 -69 -29 -111t-76 -42q-30 0 -65.5 10t-63.5 27l26 43q28 -13 56.5 -21t46.5 -8q22 0 36 28.5t14 73.5v43q-47 1 -83.5 38.5t-57.5 106.5t-21 160q-76 -54 -102 -74q-4 -124 -28.5 -184.5t-86.5 -60.5q-41 0 -62.5 17.5 t-21.5 48.5q0 36 29 86q18 31 117 109v116q0 93 -32.5 149.5t-84.5 54.5v51q50 1 89 -31t61 -90t22 -134v-73l24 18q64 49 78 61q6 85 30 180q9 37 37.5 60t61.5 23q44 0 67.5 -18.5t23.5 -51.5q0 -27 -16 -59q-33 -69 -151 -157q-1 -15 -1 -45zM398 418q75 64 92 101 q8 19 8 33t-8 21.5t-23 7.5q-14 0 -28 -13.5t-19 -34.5q-16 -70 -22 -115zM163 73q13 36 16 114q-51 -45 -69 -76q-18 -30 -18 -49q0 -25 27 -25q31 0 44 36z" />
         <glyph glyph-name="uni2095" unicode="ₕ" d="M146 -59v565h55v-198q18 43 43 59.5t75 16.5q62 0 96.5 -23t49 -77t14.5 -150v-193h-55v193q0 77 -9.5 120t-32 61t-63.5 18q-45 0 -70.5 -19.5t-36.5 -65t-11 -126.5v-181h-55z" />
         <glyph glyph-name="uni2096" unicode="ₖ" d="M226 -59h-55v565h55v-316h41l131 152h67l-149 -175l189 -226h-67l-167 199h-45v-199z" />
         <glyph glyph-name="uni2097" unicode="ₗ" d="M298 -45q-25 19 -35.5 62.5t-10.5 122.5v316h-82v50h137v-366q0 -60 5.5 -92.5t18.5 -46.5t36 -14q17 0 33 8.5t43 30.5l32 -48q-40 -24 -63 -33t-45 -9q-44 0 -69 19z" />
         <glyph glyph-name="uni2098" unicode="ₘ" d="M96 -59v438h55v-53q16 33 33 45.5t43 12.5q31 0 47.5 -17.5t30.5 -63.5q23 46 44 63.5t54 17.5q36 0 55.5 -17.5t28 -58t8.5 -113.5v-254h-55v254q0 74 -9 101.5t-34 27.5q-27 0 -41.5 -12t-21 -39.5t-6.5 -78.5v-253h-55v248q0 77 -11.5 106t-40.5 29q-27 0 -42 -12 t-21.5 -40t-6.5 -78v-253h-55z" />
         <glyph glyph-name="uni2099" unicode="ₙ" d="M133 -59v438h55v-70q30 43 58 59t72 16q57 0 89 -20t45.5 -67t13.5 -131v-225h-55v225q0 64 -8.5 100t-28.5 51.5t-56 15.5q-50 0 -78 -14.5t-40 -48t-12 -93.5v-236h-55z" />
         <glyph glyph-name="uni209A" unicode="ₚ" d="M139 -204v583h55v-48q19 30 43 41.5t70 11.5q65 0 100.5 -20.5t51 -68.5t15.5 -135t-15.5 -135t-51 -68.5t-100.5 -20.5q-48 0 -72.5 14.5t-40.5 51.5v-206h-55zM374 3q24 16 34.5 53t10.5 104t-10.5 104t-34.5 53t-67 16q-64 0 -88.5 -20.5t-24.5 -74.5v-96 q0 -60 10.5 -93.5t34.5 -47.5t68 -14q43 0 67 16z" />
         <glyph glyph-name="uni209B" unicode="ₛ" d="M203 -44.5q-33 19.5 -62 71.5l43 35q22 -43 45.5 -59t64.5 -16q50 0 77 6.5t38.5 22.5t11.5 45q0 35 -25 54t-91 32q-60 13 -93 28t-47.5 36.5t-14.5 55.5q0 45 14.5 70t48.5 36t94 11t94.5 -16.5t63.5 -59.5l-40 -39q-22 37 -47.5 50.5t-70.5 13.5q-58 0 -80 -14.5 t-22 -51.5q0 -26 21.5 -40t78.5 -27q66 -15 103 -32.5t52.5 -42.5t15.5 -64q0 -48 -17 -75t-56 -38.5t-109 -11.5q-58 0 -91 19.5z" />
         <glyph glyph-name="uni209C" unicode="ₜ" d="M392 -0.5q16 12.5 29 46.5l52 -18q-20 -53 -47 -72.5t-79 -19.5q-44 0 -69 19t-35.5 62.5t-10.5 122.5v187h-90v52h90v127h55v-127h119v-52h-119v-187q0 -60 5.5 -92.5t18.5 -46.5t36 -14q29 0 45 12.5z" />
         <glyph glyph-name="zero" unicode="0" d="M180.5 38q-53.5 52 -84.5 146.5t-31 215.5t31 215.5t84.5 146.5t119.5 52t120 -52.5t85 -146.5t31 -215t-31 -215t-85 -146.5t-120 -52.5t-119.5 52zM390.5 83q41.5 46 66 128.5t24.5 188.5t-24.5 188.5t-66 128.5t-90.5 46t-90 -46t-65.5 -128.5t-24.5 -188.5 t24.5 -188.5t65.5 -128.5t90 -46t90.5 46zM262.5 364.5q-14.5 13.5 -14.5 35.5q0 21 14.5 34t37.5 13t38 -13t15 -34q0 -22 -15 -35.5t-38 -13.5t-37.5 13.5z" />
         <glyph glyph-name="one" unicode="1" d="M328 51h142v-51h-339v51h142v603q-29 -30 -70.5 -46t-91.5 -16v50q73 0 117 43t44 115h56v-749z" />
         <glyph glyph-name="two" unicode="2" d="M68 48q0 44 24 83.5t60.5 73t97.5 82.5q75 60 120 103t76.5 100.5t31.5 125.5q0 57 -16.5 88.5t-54.5 45t-108 13.5q-69 0 -107 -13.5t-54 -45.5t-15 -91h-55q-1 78 20.5 121t71 61.5t139.5 18.5t140.5 -18.5t72 -61t21.5 -118.5q0 -82 -36 -148.5t-86 -114t-129 -109.5 q-55 -43 -86 -70.5t-51.5 -58.5t-21.5 -64h408v-51h-463v48z" />
         <glyph glyph-name="three" unicode="3" d="M167.5 4.5q-47.5 18.5 -68 61.5t-20.5 120h55q0 -58 15 -90t50.5 -45.5t100.5 -13.5t100.5 16t51 52.5t15.5 103.5q0 70 -13.5 109t-45 57.5t-88.5 22.5h-72v50h72q57 4 88.5 19.5t45 48t13.5 90.5q0 61 -15.5 94.5t-51 48t-100.5 14.5t-100.5 -12t-50.5 -41t-15 -82h-55 q0 72 20.5 112t67.5 57t133 17q85 0 132.5 -19.5t68.5 -64t21 -124.5q0 -77 -21 -116.5t-75 -66.5q37 -18 57.5 -43.5t29.5 -66t9 -104.5q0 -86 -20.5 -134t-68.5 -68.5t-133 -20.5t-132.5 18.5z" />
         </font>
</defs>
</svg>
