<?xml version="1.0" encoding="UTF-8"?>
<!DOCTYPE svg PUBLIC "-//W3C//DTD SVG 1.1//EN" "http://www.w3.org/Graphics/SVG/1.1/DTD/svg11.dtd">
<svg xmlns="http://www.w3.org/2000/svg" xmlns:xlink="http://www.w3.org/1999/xlink" version="1.1">
   <metadata>Created by FontForge 20170812 at Tue Nov  3 11:52:41 2020
 By www-data
Copyright (c) 2019 by Rune Bjrneras. All rights reserved.</metadata>
   <defs>
      <font id="VictorMono-ExtraLightItalic" horiz-adv-x="600">
         <font-face font-family="Victor Mono ExtraLight" font-weight="200" font-style="italic" font-stretch="normal" units-per-em="1100" panose-1="0 0 3 9 0 0 0 0 0 0" ascent="880" descent="-220" x-height="618" cap-height="800" bbox="-1780 -529 826 1306" underline-thickness="50" underline-position="-100" slope="-12" unicode-range="U+0020-E0B3" />
         <missing-glyph d="M356 0h-354l173 814h354zM210 775l-158 -736h270l158 736h-270z" />
         <glyph glyph-name=".notdef" d="M356 0h-354l173 814h354zM210 775l-158 -736h270l158 736h-270z" />
         <glyph glyph-name=".null" horiz-adv-x="0" />
         <glyph glyph-name="nonmarkingreturn" />
         <glyph glyph-name="space" unicode=" " />
         <glyph glyph-name="A" unicode="A" d="M480 0h-43l-13 220h-284l-107 -220h-45l392 800h48zM392 740l-234 -482h263z" />
         <glyph glyph-name="Aacute" unicode="Á" d="M480 0h-43l-13 220h-284l-107 -220h-45l392 800h48zM392 740l-234 -482h263zM563 988l-151 -113l-23 29l151 113z" />
         <glyph glyph-name="Abreve" unicode="Ă" d="M480 0h-43l-13 220h-284l-107 -220h-45l392 800h48zM392 740l-234 -482h263zM345 909q-24 15 -24 52q0 15 5 40h41q-3 -15 -3 -26q0 -24 15 -33.5t49 -9.5q45 0 67.5 16t30.5 53h41q-9 -42 -24.5 -65t-42.5 -32.5t-74 -9.5q-57 0 -81 15z" />
         <glyph glyph-name="uni1EAE" unicode="Ắ" d="M480 0h-43l-13 220h-284l-107 -220h-45l392 800h48zM392 740l-234 -482h263zM581 1047l-162 -119l-21 29l160 120zM334 853.5q-24 16.5 -24 54.5q0 15 5 42h41q-3 -18 -3 -30q0 -25 14.5 -34.5t48.5 -9.5q45 0 67.5 17t31.5 57h41q-14 -65 -44 -89t-98 -24 q-56 0 -80 16.5z" />
         <glyph glyph-name="uni1EB6" unicode="Ặ" d="M480 0h-43l-13 220h-284l-107 -220h-45l392 800h48zM392 740l-234 -482h263zM155 -213q-11 7 -11 23q0 9 3 21q7 27 19.5 37t39.5 10q26 0 37 -7t11 -23q0 -9 -3 -21q-6 -26 -18.5 -36.5t-40.5 -10.5q-26 0 -37 7zM345 909q-24 15 -24 52q0 15 5 40h41q-3 -15 -3 -26 q0 -24 15 -33.5t49 -9.5q45 0 67.5 16t30.5 53h41q-9 -42 -24.5 -65t-42.5 -32.5t-74 -9.5q-57 0 -81 15z" />
         <glyph glyph-name="uni1EB0" unicode="Ằ" d="M480 0h-43l-13 220h-284l-107 -220h-45l392 800h48zM392 740l-234 -482h263zM477 957l-34 -29l-112 119l33 30zM334 853.5q-24 16.5 -24 54.5q0 15 5 42h41q-3 -18 -3 -30q0 -25 14.5 -34.5t48.5 -9.5q45 0 67.5 17t31.5 57h41q-14 -65 -44 -89t-98 -24q-56 0 -80 16.5z " />
         <glyph glyph-name="uni1EB2" unicode="Ẳ" d="M480 0h-43l-13 220h-284l-107 -220h-45l392 800h48zM392 740l-234 -482h263zM576 924q38 10 58 28t20 37q0 12 -9 19t-21 7q-24 0 -49 -11t-43 -24l8 49q18 11 41.5 18t43.5 7q30 0 50 -17.5t20 -44.5q0 -6 -2 -18q-5 -28 -34 -52t-77 -36zM334 853.5q-24 16.5 -24 54.5 q0 15 5 42h41q-3 -18 -3 -30q0 -25 14.5 -34.5t48.5 -9.5q45 0 67.5 17t31.5 57h41q-14 -64 -44 -88.5t-98 -24.5q-56 0 -80 16.5z" />
         <glyph glyph-name="uni1EB4" unicode="Ẵ" d="M480 0h-43l-13 220h-284l-107 -220h-45l392 800h48zM392 740l-234 -482h263zM698 984q-15 11 -33 32q-13 17 -23.5 25.5t-24.5 8.5q-23 0 -33 -12t-18 -39h-41q11 41 35.5 65t57.5 24q21 0 35.5 -11t32.5 -32q15 -17 26 -25.5t24 -8.5q23 0 33 12t16 36h41 q-9 -40 -34 -63t-57 -23q-22 0 -37 11zM334 853.5q-24 16.5 -24 54.5q0 15 5 42h41q-3 -16 -3 -30q0 -24 14.5 -34t48.5 -10q45 0 67.5 17t31.5 57h41q-14 -65 -44 -89t-98 -24q-56 0 -80 16.5z" />
         <glyph glyph-name="uni01CD" unicode="Ǎ" d="M480 0h-43l-13 220h-284l-107 -220h-45l392 800h48zM392 740l-234 -482h263zM571 996l-147 -112l-103 110l37 25l75 -81l109 83z" />
         <glyph glyph-name="Acircumflex" unicode="Â" d="M480 0h-43l-13 220h-284l-107 -220h-45l392 800h48zM392 740l-234 -482h263zM549 900l-37 -25l-73 83l-109 -81l-28 25l146 110z" />
         <glyph glyph-name="uni1EA4" unicode="Ấ" d="M480 0h-43l-13 220h-284l-107 -220h-45l392 800h48zM392 740l-234 -482h263zM700 1024l-161 -120l-23 30l162 120zM541 861l-37 -26l-73 84l-109 -82l-28 26l146 109z" />
         <glyph glyph-name="uni1EAC" unicode="Ậ" d="M480 0h-43l-13 220h-284l-107 -220h-45l392 800h48zM392 740l-234 -482h263zM155 -213q-11 7 -11 23q0 9 3 21q7 27 19.5 37t39.5 10q26 0 37 -7t11 -23q0 -9 -3 -21q-6 -26 -18.5 -36.5t-40.5 -10.5q-26 0 -37 7zM549 900l-37 -25l-73 83l-109 -81l-28 25l146 110z" />
         <glyph glyph-name="uni1EA6" unicode="Ầ" d="M480 0h-43l-13 220h-284l-107 -220h-45l392 800h48zM392 740l-234 -482h263zM587 897l-90 103l34 25l93 -103zM549 900l-37 -25l-73 83l-109 -81l-28 25l146 110z" />
         <glyph glyph-name="uni1EA8" unicode="Ẩ" d="M480 0h-43l-13 220h-284l-107 -220h-45l392 800h48zM392 740l-234 -482h263zM541 861l-37 -25l-73 83l-109 -81l-28 25l146 110zM577 924q34 10 53.5 25.5t23.5 33.5q3 14 -6.5 23t-23.5 9q-24 0 -49 -11t-42 -24l7 50q19 11 42.5 17.5t42.5 6.5q31 0 51 -17.5t20 -45.5 q0 -5 -2 -17q-5 -28 -34.5 -51.5t-77.5 -35.5z" />
         <glyph glyph-name="uni1EAA" unicode="Ẫ" d="M480 0h-43l-13 220h-284l-107 -220h-45l392 800h48zM392 740l-234 -482h263zM541 861l-37 -25l-73 83l-109 -81l-28 25l146 110zM659.5 915q-14.5 11 -32.5 33q-14 17 -24 25t-24 8q-23 0 -33 -12t-18 -39h-41q11 42 35.5 66t57.5 24q21 0 35.5 -11t32.5 -32 q15 -17 26 -25.5t24 -8.5q23 0 33 12t16 36h41q-10 -40 -34.5 -63.5t-56.5 -23.5q-23 0 -37.5 11z" />
         <glyph glyph-name="Adieresis" unicode="Ä" d="M480 0h-43l-13 220h-284l-107 -220h-45l392 800h48zM392 740l-234 -482h263zM289.5 927.5q-10.5 6.5 -10.5 23.5q0 9 3 22q5 26 16.5 34.5t39.5 8.5q25 0 36 -7t11 -23q0 -8 -3 -20q-5 -27 -16.5 -36t-40.5 -9q-25 0 -35.5 6.5zM505.5 927.5q-10.5 6.5 -10.5 23.5 q0 9 3 22q5 26 16.5 34.5t39.5 8.5q25 0 36 -7t11 -23q0 -8 -3 -20q-5 -27 -16.5 -36t-40.5 -9q-25 0 -35.5 6.5z" />
         <glyph glyph-name="uni1EA0" unicode="Ạ" d="M480 0h-43l-13 220h-284l-107 -220h-45l392 800h48zM392 740l-234 -482h263zM155 -213q-11 7 -11 23q0 9 3 21q7 27 19.5 37t39.5 10q26 0 37 -7t11 -23q0 -9 -3 -21q-6 -26 -18.5 -36.5t-40.5 -10.5q-26 0 -37 7z" />
         <glyph glyph-name="Agrave" unicode="À" d="M480 0h-43l-13 220h-284l-107 -220h-45l392 800h48zM392 740l-234 -482h263zM464 904l-33 -29l-107 113l33 29z" />
         <glyph glyph-name="uni1EA2" unicode="Ả" d="M480 0h-43l-13 220h-284l-107 -220h-45l392 800h48zM392 740l-234 -482h263zM396 877q34 10 53.5 25.5t23.5 33.5q3 14 -6.5 23t-23.5 9q-24 0 -49 -11t-42 -24l7 50q19 11 42.5 17.5t42.5 6.5q31 0 51 -17.5t20 -45.5q0 -5 -2 -17q-5 -28 -34.5 -51.5t-77.5 -35.5z" />
         <glyph glyph-name="Amacron" unicode="Ā" d="M480 0h-43l-13 220h-284l-107 -220h-45l392 800h48zM392 740l-234 -482h263zM561 913h-266l8 38h266z" />
         <glyph glyph-name="Aogonek" unicode="Ą" d="M431 -150q19 7 32 18l13 -39q-15 -11 -36.5 -18t-43.5 -7q-48 0 -74.5 17t-26.5 53q0 30 38 61t104 67l-13 218h-284l-107 -220h-45l392 800h48l52 -800l-39 -24q-52 -30 -78 -51t-26 -42q0 -18 16.5 -29t42.5 -11q16 0 35 7zM392 740l-234 -482h263z" />
         <glyph glyph-name="Aring" unicode="Å" d="M521.5 970.5q24.5 -15.5 24.5 -53.5q0 -19 -6 -46q-11 -55 -35 -79t-75 -28l50 -764h-43l-13 220h-284l-107 -220h-45l375 765q-37 4 -53 20t-16 48q0 17 5 45q10 43 25.5 65.5t42 32.5t72.5 10q58 0 82.5 -15.5zM503 906q0 22 -15 31.5t-50 9.5q-45 0 -67 -17t-31 -59 q-3 -15 -3 -27q0 -23 14.5 -32.5t48.5 -9.5q46 0 68.5 17t30.5 59q4 15 4 28zM392 740l-234 -482h263z" />
         <glyph glyph-name="Atilde" unicode="Ã" d="M480 0h-43l-13 220h-284l-107 -220h-45l392 800h48zM392 740l-234 -482h263zM456.5 899q-14.5 11 -32.5 33q-14 17 -24 25t-24 8q-23 0 -33 -12t-18 -39h-41q11 42 35.5 66t57.5 24q21 0 35.5 -11t32.5 -32q15 -17 26 -25.5t24 -8.5q23 0 33 12t16 36h41 q-10 -40 -34.5 -63.5t-56.5 -23.5q-23 0 -37.5 11z" />
         <glyph glyph-name="AE" unicode="Æ" d="M690 800l-7 -39h-230l-79 -365h149l-8 -38h-148l-69 -319h231l-9 -39h-272l57 266h-189l-129 -266h-45l388 800h360zM134 304h179l98 457h-56z" />
         <glyph glyph-name="B" unicode="B" d="M32 0l170 800h184q97 0 138.5 -26.5t41.5 -91.5q0 -36 -10 -82q-16 -78 -46 -115t-97 -58q53 -14 76 -41.5t23 -77.5q0 -34 -11 -89q-18 -86 -47 -132.5t-78 -66.5t-131 -20h-213zM311 442q64 0 104 15.5t64 51.5t37 98q8 38 8 63q0 51 -32.5 71t-109.5 20h-145l-69 -319 h143zM250 39q65 0 105.5 17.5t65.5 58t40 111.5q10 50 10 76q0 56 -32.5 79t-108.5 23h-170l-78 -365h168z" />
         <glyph glyph-name="C" unicode="C" d="M110 28q-43 42 -43 142q0 84 31 234q34 160 74 248t98 125t149 37q60 0 95.5 -15t54 -48.5t25.5 -94.5l-43 -11q-6 50 -20 78t-40.5 40t-72.5 12q-76 0 -126.5 -35t-86.5 -116t-66 -226q-30 -139 -30 -220q0 -83 33.5 -118t108.5 -35q70 0 112 28.5t83 101.5l39 -17 q-32 -60 -64 -92.5t-72 -46t-99 -13.5q-97 0 -140 42z" />
         <glyph glyph-name="Cacute" unicode="Ć" d="M110 28q-43 42 -43 142q0 84 31 234q34 160 74 248t98 125t149 37q60 0 95.5 -15t54 -48.5t25.5 -94.5l-43 -11q-6 50 -20 78t-40.5 40t-72.5 12q-76 0 -126.5 -35t-86.5 -116t-66 -226q-30 -139 -30 -220q0 -83 33.5 -118t108.5 -35q70 0 112 28.5t83 101.5l39 -17 q-32 -60 -64 -92.5t-72 -46t-99 -13.5q-97 0 -140 42zM562 985l-151 -113l-23 29l151 113z" />
         <glyph glyph-name="Ccaron" unicode="Č" d="M110 28q-43 42 -43 142q0 84 31 234q34 160 74 248t98 125t149 37q60 0 95.5 -15t54 -48.5t25.5 -94.5l-43 -11q-6 50 -20 78t-40.5 40t-72.5 12q-76 0 -126.5 -35t-86.5 -116t-66 -226q-30 -139 -30 -220q0 -83 33.5 -118t108.5 -35q70 0 112 28.5t83 101.5l39 -17 q-32 -60 -64 -92.5t-72 -46t-99 -13.5q-97 0 -140 42zM570 993l-147 -112l-103 110l37 25l75 -81l109 83z" />
         <glyph glyph-name="Ccedilla" unicode="Ç" d="M514.5 799q35.5 -15 54 -48.5t25.5 -94.5l-43 -11q-6 50 -20 78t-40.5 40t-72.5 12q-76 0 -126.5 -35t-86.5 -116t-66 -226q-30 -139 -30 -220q0 -83 33.5 -118t108.5 -35q70 0 112 28.5t83 101.5l39 -17q-32 -60 -64 -92.5t-72 -46t-99 -13.5h-3l-6 -25q28 -7 44 -23.5 t16 -37.5q0 -9 -1 -13q-7 -35 -37.5 -55.5t-74.5 -20.5q-22 0 -43 7t-35 19l24 36q11 -10 26 -16.5t28 -6.5q28 0 48 12t24 31q3 15 -15 23t-51 8l13 64q-73 8 -106.5 51t-33.5 132q0 83 31 233q34 160 74 248t98 125t149 37q60 0 95.5 -15z" />
         <glyph glyph-name="Ccircumflex" unicode="Ĉ" d="M110 28q-43 42 -43 142q0 84 31 234q34 160 74 248t98 125t149 37q60 0 95.5 -15t54 -48.5t25.5 -94.5l-43 -11q-6 50 -20 78t-40.5 40t-72.5 12q-76 0 -126.5 -35t-86.5 -116t-66 -226q-30 -139 -30 -220q0 -83 33.5 -118t108.5 -35q70 0 112 28.5t83 101.5l39 -17 q-32 -60 -64 -92.5t-72 -46t-99 -13.5q-97 0 -140 42zM548 897l-37 -25l-73 83l-109 -81l-28 25l146 110z" />
         <glyph glyph-name="Cdotaccent" unicode="Ċ" d="M110 28q-43 42 -43 142q0 84 31 234q34 160 74 248t98 125t149 37q60 0 95.5 -15t54 -48.5t25.5 -94.5l-43 -11q-6 50 -20 78t-40.5 40t-72.5 12q-76 0 -126.5 -35t-86.5 -116t-66 -226q-30 -139 -30 -220q0 -83 33.5 -118t108.5 -35q70 0 112 28.5t83 101.5l39 -17 q-32 -60 -64 -92.5t-72 -46t-99 -13.5q-97 0 -140 42zM398 940q-11 7 -11 23q0 9 3 21q7 27 19.5 37t39.5 10q26 0 37 -7t11 -23q0 -9 -3 -21q-6 -26 -18.5 -36.5t-40.5 -10.5q-26 0 -37 7z" />
         <glyph glyph-name="D" unicode="D" d="M415 800q90 0 131 -40t41 -136q0 -80 -31 -227q-33 -155 -71.5 -240t-93.5 -121t-142 -36h-226l170 800h222zM544 617q0 78 -31.5 111t-101.5 33h-184l-153 -722h180q70 0 117 33.5t81 112t63 218.5q29 139 29 214z" />
         <glyph glyph-name="Eth" unicode="Ð" d="M418 800q90 0 131 -40t41 -136q0 -80 -31 -227q-33 -155 -71.5 -240t-93.5 -121t-142 -36h-226l86 404h-52l8 38h52l76 358h222zM547 617q0 78 -31.5 111t-101.5 33h-184l-68 -319h144l-7 -38h-145l-77 -365h180q70 0 117 33.5t81 112t63 218.5q29 139 29 214z" />
         <glyph glyph-name="Dcaron" unicode="Ď" d="M415 800q90 0 131 -40t41 -136q0 -80 -31 -227q-33 -155 -71.5 -240t-93.5 -121t-142 -36h-226l170 800h222zM544 617q0 78 -31.5 111t-101.5 33h-184l-153 -722h180q70 0 117 33.5t81 112t63 218.5q29 139 29 214zM570 993l-147 -112l-103 110l37 25l75 -81l109 83z" />
         <glyph glyph-name="Dcroat" unicode="Đ" d="M418 800q90 0 131 -40t41 -136q0 -80 -31 -227q-33 -155 -71.5 -240t-93.5 -121t-142 -36h-226l86 404h-52l8 38h52l76 358h222zM547 617q0 78 -31.5 111t-101.5 33h-184l-68 -319h144l-7 -38h-145l-77 -365h180q70 0 117 33.5t81 112t63 218.5q29 139 29 214z" />
         <glyph glyph-name="E" unicode="E" d="M626 800l-7 -39h-376l-67 -319h240l-8 -38h-241l-76 -365h373l-8 -39h-416l170 800h416z" />
         <glyph glyph-name="Eacute" unicode="É" d="M626 800l-7 -39h-376l-67 -319h240l-8 -38h-241l-76 -365h373l-8 -39h-416l170 800h416zM577 988l-151 -113l-23 29l151 113z" />
         <glyph glyph-name="Ecaron" unicode="Ě" d="M626 800l-7 -39h-376l-67 -319h240l-8 -38h-241l-76 -365h373l-8 -39h-416l170 800h416zM585 996l-147 -112l-103 110l37 25l75 -81l109 83z" />
         <glyph glyph-name="Ecircumflex" unicode="Ê" d="M626 800l-7 -39h-376l-67 -319h240l-8 -38h-241l-76 -365h373l-8 -39h-416l170 800h416zM563 900l-37 -25l-73 83l-109 -81l-28 25l146 110z" />
         <glyph glyph-name="uni1EBE" unicode="Ế" d="M626 800l-7 -39h-376l-67 -319h240l-8 -38h-241l-76 -365h373l-8 -39h-416l170 800h416zM714 1024l-161 -120l-23 30l162 120zM555 861l-37 -26l-73 84l-109 -82l-28 26l146 109z" />
         <glyph glyph-name="uni1EC6" unicode="Ệ" d="M626 800l-7 -39h-376l-67 -319h240l-8 -38h-241l-76 -365h373l-8 -39h-416l170 800h416zM169 -213q-11 7 -11 23q0 9 3 21q7 27 19.5 37t39.5 10q26 0 37 -7t11 -23q0 -9 -3 -21q-6 -26 -18.5 -36.5t-40.5 -10.5q-26 0 -37 7zM563 900l-37 -25l-73 83l-109 -81l-28 25 l146 110z" />
         <glyph glyph-name="uni1EC0" unicode="Ề" d="M626 800l-7 -39h-376l-67 -319h240l-8 -38h-241l-76 -365h373l-8 -39h-416l170 800h416zM601 897l-90 103l34 25l93 -103zM563 900l-37 -25l-73 83l-109 -81l-28 25l146 110z" />
         <glyph glyph-name="uni1EC2" unicode="Ể" d="M626 800l-7 -39h-376l-67 -319h240l-8 -38h-241l-76 -365h373l-8 -39h-416l170 800h416zM555 861l-37 -25l-73 83l-109 -81l-28 25l146 110zM591 924q34 10 53.5 25.5t23.5 33.5q3 14 -6.5 23t-23.5 9q-24 0 -49 -11t-42 -24l7 50q19 11 42.5 17.5t42.5 6.5 q31 0 51 -17.5t20 -45.5q0 -5 -2 -17q-5 -28 -34.5 -51.5t-77.5 -35.5z" />
         <glyph glyph-name="uni1EC4" unicode="Ễ" d="M626 800l-7 -39h-376l-67 -319h240l-8 -38h-241l-76 -365h373l-8 -39h-416l170 800h416zM555 861l-37 -25l-73 83l-109 -81l-28 25l146 110zM673.5 915q-14.5 11 -32.5 33q-14 17 -24 25t-24 8q-23 0 -33 -12t-18 -39h-41q11 42 35.5 66t57.5 24q21 0 35.5 -11t32.5 -32 q15 -17 26 -25.5t24 -8.5q23 0 33 12t16 36h41q-10 -40 -34.5 -63.5t-56.5 -23.5q-23 0 -37.5 11z" />
         <glyph glyph-name="Edieresis" unicode="Ë" d="M626 800l-7 -39h-376l-67 -319h240l-8 -38h-241l-76 -365h373l-8 -39h-416l170 800h416zM303.5 927.5q-10.5 6.5 -10.5 23.5q0 9 3 22q5 26 16.5 34.5t39.5 8.5q25 0 36 -7t11 -23q0 -8 -3 -20q-5 -27 -16.5 -36t-40.5 -9q-25 0 -35.5 6.5zM519.5 927.5 q-10.5 6.5 -10.5 23.5q0 9 3 22q5 26 16.5 34.5t39.5 8.5q25 0 36 -7t11 -23q0 -8 -3 -20q-5 -27 -16.5 -36t-40.5 -9q-25 0 -35.5 6.5z" />
         <glyph glyph-name="Edotaccent" unicode="Ė" d="M626 800l-7 -39h-376l-67 -319h240l-8 -38h-241l-76 -365h373l-8 -39h-416l170 800h416zM413 943q-11 7 -11 23q0 9 3 21q7 27 19.5 37t39.5 10q26 0 37 -7t11 -23q0 -9 -3 -21q-6 -26 -18.5 -36.5t-40.5 -10.5q-26 0 -37 7z" />
         <glyph glyph-name="uni1EB8" unicode="Ẹ" d="M626 800l-7 -39h-376l-67 -319h240l-8 -38h-241l-76 -365h373l-8 -39h-416l170 800h416zM169 -213q-11 7 -11 23q0 9 3 21q7 27 19.5 37t39.5 10q26 0 37 -7t11 -23q0 -9 -3 -21q-6 -26 -18.5 -36.5t-40.5 -10.5q-26 0 -37 7z" />
         <glyph glyph-name="Egrave" unicode="È" d="M626 800l-7 -39h-376l-67 -319h240l-8 -38h-241l-76 -365h373l-8 -39h-416l170 800h416zM478 904l-33 -29l-107 113l33 29z" />
         <glyph glyph-name="uni1EBA" unicode="Ẻ" d="M626 800l-7 -39h-376l-67 -319h240l-8 -38h-241l-76 -365h373l-8 -39h-416l170 800h416zM410 877q34 10 53.5 25.5t23.5 33.5q3 14 -6.5 23t-23.5 9q-24 0 -49 -11t-42 -24l7 50q19 11 42.5 17.5t42.5 6.5q31 0 51 -17.5t20 -45.5q0 -5 -2 -17q-5 -28 -34.5 -51.5 t-77.5 -35.5z" />
         <glyph glyph-name="Emacron" unicode="Ē" d="M626 800l-7 -39h-376l-67 -319h240l-8 -38h-241l-76 -365h373l-8 -39h-416l170 800h416zM575 913h-266l8 38h266z" />
         <glyph glyph-name="Eogonek" unicode="Ę" d="M619 761h-376l-67 -319h240l-8 -38h-241l-76 -365h373l-8 -39h-2l-39 -24q-52 -30 -78 -51t-26 -42q0 -18 16.5 -29t42.5 -11q16 0 35 7t32 18l13 -39q-15 -11 -36.5 -18t-43.5 -7q-48 0 -74.5 17t-26.5 53q0 29 37 60.5t101 65.5h-367l170 800h416z" />
         <glyph glyph-name="uni1EBC" unicode="Ẽ" d="M626 800l-7 -39h-376l-67 -319h240l-8 -38h-241l-76 -365h373l-8 -39h-416l170 800h416zM470.5 899q-14.5 11 -32.5 33q-14 17 -24 25t-24 8q-23 0 -33 -12t-18 -39h-41q11 42 35.5 66t57.5 24q21 0 35.5 -11t32.5 -32q15 -17 26 -25.5t24 -8.5q23 0 33 12t16 36h41 q-10 -40 -34.5 -63.5t-56.5 -23.5q-23 0 -37.5 11z" />
         <glyph glyph-name="F" unicode="F" d="M627 800l-7 -39h-376l-75 -365h238l-7 -38h-242l-75 -358h-42l170 800h416z" />
         <glyph glyph-name="G" unicode="G" d="M108 29q-45 43 -45 146q0 87 30 228q34 160 75 248t100.5 125.5t154.5 37.5q65 0 102.5 -16.5t56 -53.5t23.5 -104l-40 -7q-4 55 -18.5 85.5t-43.5 43.5t-81 13q-80 0 -132 -35t-89 -116t-67 -227q-30 -144 -30 -216q0 -85 36 -120.5t115 -35.5q71 0 114 28t84 99l45 206 h-174l7 38h216l-53 -254q-32 -61 -65 -94.5t-74 -47.5t-101 -14q-101 0 -146 43z" />
         <glyph glyph-name="Gbreve" unicode="Ğ" d="M108 29q-45 43 -45 146q0 87 30 228q34 160 75 248t100.5 125.5t154.5 37.5q65 0 102.5 -16.5t56 -53.5t23.5 -104l-40 -7q-4 55 -18.5 85.5t-43.5 43.5t-81 13q-80 0 -132 -35t-89 -116t-67 -227q-30 -144 -30 -216q0 -85 36 -120.5t115 -35.5q71 0 114 28t84 99l45 206 h-174l7 38h216l-53 -254q-32 -61 -65 -94.5t-74 -47.5t-101 -14q-101 0 -146 43zM344 906q-24 15 -24 52q0 15 5 40h41q-3 -15 -3 -26q0 -24 15 -33.5t49 -9.5q45 0 67.5 16t30.5 53h41q-9 -42 -24.5 -65t-42.5 -32.5t-74 -9.5q-57 0 -81 15z" />
         <glyph glyph-name="Gcircumflex" unicode="Ĝ" d="M108 29q-45 43 -45 146q0 87 30 228q34 160 75 248t100.5 125.5t154.5 37.5q65 0 102.5 -16.5t56 -53.5t23.5 -104l-40 -7q-4 55 -18.5 85.5t-43.5 43.5t-81 13q-80 0 -132 -35t-89 -116t-67 -227q-30 -144 -30 -216q0 -85 36 -120.5t115 -35.5q71 0 114 28t84 99l45 206 h-174l7 38h216l-53 -254q-32 -61 -65 -94.5t-74 -47.5t-101 -14q-101 0 -146 43zM548 897l-37 -25l-73 83l-109 -81l-28 25l146 110z" />
         <glyph glyph-name="uni0122" unicode="Ģ" d="M108 29q-45 43 -45 146q0 87 30 228q34 160 75 248t100.5 125.5t154.5 37.5q65 0 102.5 -16.5t56 -53.5t23.5 -104l-40 -7q-4 55 -18.5 85.5t-43.5 43.5t-81 13q-80 0 -132 -35t-89 -116t-67 -227q-30 -144 -30 -216q0 -85 36 -120.5t115 -35.5q71 0 114 28t84 99l45 206 h-174l7 38h216l-53 -254q-32 -61 -65 -94.5t-74 -47.5t-101 -14q-101 0 -146 43zM206 -126q-11 2 -16.5 7.5t-5.5 17.5l2 16q4 21 12.5 27.5t31.5 6.5q20 0 28.5 -5.5t8.5 -18.5q0 -3 -2 -17q-6 -25 -35.5 -69t-66.5 -87l-32 2z" />
         <glyph glyph-name="Gdotaccent" unicode="Ġ" d="M108 29q-45 43 -45 146q0 87 30 228q34 160 75 248t100.5 125.5t154.5 37.5q65 0 102.5 -16.5t56 -53.5t23.5 -104l-40 -7q-4 55 -18.5 85.5t-43.5 43.5t-81 13q-80 0 -132 -35t-89 -116t-67 -227q-30 -144 -30 -216q0 -85 36 -120.5t115 -35.5q71 0 114 28t84 99l45 206 h-174l7 38h216l-53 -254q-32 -61 -65 -94.5t-74 -47.5t-101 -14q-101 0 -146 43zM398 940q-11 7 -11 23q0 9 3 21q7 27 19.5 37t39.5 10q26 0 37 -7t11 -23q0 -9 -3 -21q-6 -26 -18.5 -36.5t-40.5 -10.5q-26 0 -37 7z" />
         <glyph glyph-name="H" unicode="H" d="M498 442l76 358h42l-170 -800h-42l86 404h-340l-86 -404h-42l170 800h42l-76 -358h340z" />
         <glyph glyph-name="Hbar" unicode="Ħ" d="M572 591h55l-7 -39h-57l-117 -552h-42l86 404h-340l-86 -404h-42l117 552h-55l8 39h56l44 209h42l-44 -209h340l44 209h42zM158 442h340l23 110h-340z" />
         <glyph glyph-name="Hcircumflex" unicode="Ĥ" d="M498 442l76 358h42l-170 -800h-42l86 404h-340l-86 -404h-42l170 800h42l-76 -358h340zM548 897l-37 -25l-73 83l-109 -81l-28 25l146 110z" />
         <glyph glyph-name="I" unicode="I" d="M587 800l-7 -39h-163l-154 -722h162l-8 -39h-366l8 39h162l154 722h-161l7 39h366z" />
         <glyph glyph-name="Iacute" unicode="Í" d="M587 800l-7 -39h-163l-154 -722h162l-8 -39h-366l8 39h162l154 722h-161l7 39h366zM563 988l-151 -113l-23 29l151 113z" />
         <glyph glyph-name="uni01CF" unicode="Ǐ" d="M587 800l-7 -39h-163l-154 -722h162l-8 -39h-366l8 39h162l154 722h-161l7 39h366zM571 996l-147 -112l-103 110l37 25l75 -81l109 83z" />
         <glyph glyph-name="Icircumflex" unicode="Î" d="M587 800l-7 -39h-163l-154 -722h162l-8 -39h-366l8 39h162l154 722h-161l7 39h366zM549 900l-37 -25l-73 83l-109 -81l-28 25l146 110z" />
         <glyph glyph-name="Idieresis" unicode="Ï" d="M587 800l-7 -39h-163l-154 -722h162l-8 -39h-366l8 39h162l154 722h-161l7 39h366zM289.5 927.5q-10.5 6.5 -10.5 23.5q0 9 3 22q5 26 16.5 34.5t39.5 8.5q25 0 36 -7t11 -23q0 -8 -3 -20q-5 -27 -16.5 -36t-40.5 -9q-25 0 -35.5 6.5zM505.5 927.5q-10.5 6.5 -10.5 23.5 q0 9 3 22q5 26 16.5 34.5t39.5 8.5q25 0 36 -7t11 -23q0 -8 -3 -20q-5 -27 -16.5 -36t-40.5 -9q-25 0 -35.5 6.5z" />
         <glyph glyph-name="Idotaccent" unicode="İ" d="M587 800l-7 -39h-163l-154 -722h162l-8 -39h-366l8 39h162l154 722h-161l7 39h366zM399 943q-11 7 -11 23q0 9 3 21q7 27 19.5 37t39.5 10q26 0 37 -7t11 -23q0 -9 -3 -21q-6 -26 -18.5 -36.5t-40.5 -10.5q-26 0 -37 7z" />
         <glyph glyph-name="uni1ECA" unicode="Ị" d="M587 800l-7 -39h-163l-154 -722h162l-8 -39h-366l8 39h162l154 722h-161l7 39h366zM155 -213q-11 7 -11 23q0 9 3 21q7 27 19.5 37t39.5 10q26 0 37 -7t11 -23q0 -9 -3 -21q-6 -26 -18.5 -36.5t-40.5 -10.5q-26 0 -37 7z" />
         <glyph glyph-name="Igrave" unicode="Ì" d="M587 800l-7 -39h-163l-154 -722h162l-8 -39h-366l8 39h162l154 722h-161l7 39h366zM464 904l-33 -29l-107 113l33 29z" />
         <glyph glyph-name="uni1EC8" unicode="Ỉ" d="M587 800l-7 -39h-163l-154 -722h162l-8 -39h-366l8 39h162l154 722h-161l7 39h366zM396 877q34 10 53.5 25.5t23.5 33.5q3 14 -6.5 23t-23.5 9q-24 0 -49 -11t-42 -24l7 50q19 11 42.5 17.5t42.5 6.5q31 0 51 -17.5t20 -45.5q0 -5 -2 -17q-5 -28 -34.5 -51.5t-77.5 -35.5 z" />
         <glyph glyph-name="Imacron" unicode="Ī" d="M587 800l-7 -39h-163l-154 -722h162l-8 -39h-366l8 39h162l154 722h-161l7 39h366zM561 913h-266l8 38h266z" />
         <glyph glyph-name="Iogonek" unicode="Į" d="M580 761h-163l-154 -722h162l-8 -39h-107l-39 -24q-52 -30 -78 -51t-26 -42q0 -18 16.5 -29t42.5 -11q16 0 35 7t32 18l13 -39q-15 -11 -36.5 -18t-43.5 -7q-48 0 -74.5 17t-26.5 53q0 29 37 60.5t101 65.5h-212l8 39h162l154 722h-161l7 39h366z" />
         <glyph glyph-name="Itilde" unicode="Ĩ" d="M587 800l-7 -39h-163l-154 -722h162l-8 -39h-366l8 39h162l154 722h-161l7 39h366zM456.5 899q-14.5 11 -32.5 33q-14 17 -24 25t-24 8q-23 0 -33 -12t-18 -39h-41q11 42 35.5 66t57.5 24q21 0 35.5 -11t32.5 -32q15 -17 26 -25.5t24 -8.5q23 0 33 12t16 36h41 q-10 -40 -34.5 -63.5t-56.5 -23.5q-23 0 -37.5 11z" />
         <glyph glyph-name="J" unicode="J" d="M102.5 0.5q-35.5 14.5 -53.5 47.5t-25 92l41 8q5 -48 19 -74.5t41.5 -37.5t74.5 -11q76 0 125 30t82 99t59 192l89 415h-131l7 39h173l-97 -457q-30 -139 -67.5 -215.5t-94 -109t-146.5 -32.5q-61 0 -96.5 14.5z" />
         <glyph glyph-name="Jcircumflex" unicode="Ĵ" d="M102.5 0.5q-35.5 14.5 -53.5 47.5t-25 92l41 8q5 -48 19 -74.5t41.5 -37.5t74.5 -11q76 0 125 30t82 99t59 192l89 415h-131l7 39h173l-97 -457q-30 -139 -67.5 -215.5t-94 -109t-146.5 -32.5q-61 0 -96.5 14.5zM663 897l-37 -25l-73 83l-109 -81l-28 25l146 110z" />
         <glyph glyph-name="K" unicode="K" d="M598 800h52l-380 -371l216 -429h-51l-201 404h-78l-86 -404h-42l170 800h42l-76 -358h67z" />
         <glyph glyph-name="uni0136" unicode="Ķ" d="M598 800h52l-380 -371l216 -429h-51l-201 404h-78l-86 -404h-42l170 800h42l-76 -358h67zM206 -126q-11 2 -16.5 7.5t-5.5 17.5l2 16q4 21 12.5 27.5t31.5 6.5q20 0 28.5 -5.5t8.5 -18.5q0 -3 -2 -17q-6 -25 -35.5 -69t-66.5 -87l-32 2z" />
         <glyph glyph-name="L" unicode="L" d="M436 0h-377l170 800h42l-162 -761h335z" />
         <glyph glyph-name="Lacute" unicode="Ĺ" d="M436 0h-377l170 800h42l-162 -761h335zM424 985l-151 -113l-23 29l151 113z" />
         <glyph glyph-name="Lcaron" unicode="Ľ" d="M436 0h-377l170 800h42l-162 -761h335zM400 559h-34l43 241h50z" />
         <glyph glyph-name="uni013B" unicode="Ļ" d="M436 0h-377l170 800h42l-162 -761h335zM206 -126q-11 2 -16.5 7.5t-5.5 17.5l2 16q4 21 12.5 27.5t31.5 6.5q20 0 28.5 -5.5t8.5 -18.5q0 -3 -2 -17q-6 -25 -35.5 -69t-66.5 -87l-32 2z" />
         <glyph glyph-name="Lslash" unicode="Ł" d="M230 466l-91 -427h335l-8 -39h-377l95 449l-106 -40l9 39l106 39l66 313h42l-63 -296l146 55l-8 -39z" />
         <glyph glyph-name="M" unicode="M" d="M40 0h-42l184 800h44l76 -477l280 477h44l-156 -800h-42l136 695l-250 -429h-44l-69 429z" />
         <glyph glyph-name="N" unicode="N" d="M421 90l151 710h42l-170 -800h-45l-182 712l-151 -712h-42l170 800h46z" />
         <glyph glyph-name="Nacute" unicode="Ń" d="M421 90l151 710h42l-170 -800h-45l-182 712l-151 -712h-42l170 800h46zM563 988l-151 -113l-23 29l151 113z" />
         <glyph glyph-name="Ncaron" unicode="Ň" d="M421 90l151 710h42l-170 -800h-45l-182 712l-151 -712h-42l170 800h46zM571 996l-147 -112l-103 110l37 25l75 -81l109 83z" />
         <glyph glyph-name="uni0145" unicode="Ņ" d="M421 90l151 710h42l-170 -800h-45l-182 712l-151 -712h-42l170 800h46zM206 -129q-11 2 -16.5 7.5t-5.5 17.5l2 16q4 21 12.5 27.5t31.5 6.5q20 0 28.5 -5.5t8.5 -18.5q0 -3 -2 -17q-6 -25 -35.5 -69t-66.5 -87l-32 2z" />
         <glyph glyph-name="Eng" unicode="Ŋ" d="M614 800l-170 -800h-22l22 -2q-12 -57 -31 -89t-50.5 -46t-82.5 -14l5 38q113 0 114 113l-182 712l-151 -712h-42l170 800h46l181 -710l151 710h42z" />
         <glyph glyph-name="Ntilde" unicode="Ñ" d="M421 90l151 710h42l-170 -800h-45l-182 712l-151 -712h-42l170 800h46zM456.5 899q-14.5 11 -32.5 33q-14 17 -24 25t-24 8q-23 0 -33 -12t-18 -39h-41q11 42 35.5 66t57.5 24q21 0 35.5 -11t32.5 -32q15 -17 26 -25.5t24 -8.5q23 0 33 12t16 36h41q-10 -40 -34.5 -63.5 t-56.5 -23.5q-23 0 -37.5 11z" />
         <glyph glyph-name="O" unicode="O" d="M97.5 25.5q-42.5 39.5 -42.5 133.5q0 77 27 203l17 80q31 146 68.5 225.5t93 113t143.5 33.5q95 0 137 -39t42 -133q0 -78 -27 -204l-17 -80q-31 -145 -68 -225t-92.5 -113.5t-143.5 -33.5q-95 0 -137.5 39.5zM356.5 56.5q47.5 31.5 81 103.5t60.5 202l17 80 q26 122 26 192q0 77 -32.5 109t-105.5 32q-74 0 -122 -31.5t-81 -104t-60 -201.5l-17 -80q-25 -116 -25 -189q0 -79 32.5 -111.5t105.5 -32.5t120.5 31.5z" />
         <glyph glyph-name="Oacute" unicode="Ó" d="M97.5 25.5q-42.5 39.5 -42.5 133.5q0 77 27 203l17 80q31 146 68.5 225.5t93 113t143.5 33.5q95 0 137 -39t42 -133q0 -78 -27 -204l-17 -80q-31 -145 -68 -225t-92.5 -113.5t-143.5 -33.5q-95 0 -137.5 39.5zM356.5 56.5q47.5 31.5 81 103.5t60.5 202l17 80 q26 122 26 192q0 77 -32.5 109t-105.5 32q-74 0 -122 -31.5t-81 -104t-60 -201.5l-17 -80q-25 -116 -25 -189q0 -79 32.5 -111.5t105.5 -32.5t120.5 31.5zM563 988l-151 -113l-23 29l151 113z" />
         <glyph glyph-name="uni01D1" unicode="Ǒ" d="M97.5 25.5q-42.5 39.5 -42.5 133.5q0 77 27 203l17 80q31 146 68.5 225.5t93 113t143.5 33.5q95 0 137 -39t42 -133q0 -78 -27 -204l-17 -80q-31 -145 -68 -225t-92.5 -113.5t-143.5 -33.5q-95 0 -137.5 39.5zM356.5 56.5q47.5 31.5 81 103.5t60.5 202l17 80 q26 122 26 192q0 77 -32.5 109t-105.5 32q-74 0 -122 -31.5t-81 -104t-60 -201.5l-17 -80q-25 -116 -25 -189q0 -79 32.5 -111.5t105.5 -32.5t120.5 31.5zM571 996l-147 -112l-103 110l37 25l75 -81l109 83z" />
         <glyph glyph-name="Ocircumflex" unicode="Ô" d="M97.5 25.5q-42.5 39.5 -42.5 133.5q0 77 27 203l17 80q31 146 68.5 225.5t93 113t143.5 33.5q95 0 137 -39t42 -133q0 -78 -27 -204l-17 -80q-31 -145 -68 -225t-92.5 -113.5t-143.5 -33.5q-95 0 -137.5 39.5zM356.5 56.5q47.5 31.5 81 103.5t60.5 202l17 80 q26 122 26 192q0 77 -32.5 109t-105.5 32q-74 0 -122 -31.5t-81 -104t-60 -201.5l-17 -80q-25 -116 -25 -189q0 -79 32.5 -111.5t105.5 -32.5t120.5 31.5zM549 900l-37 -25l-73 83l-109 -81l-28 25l146 110z" />
         <glyph glyph-name="uni1ED0" unicode="Ố" d="M97.5 25.5q-42.5 39.5 -42.5 133.5q0 77 27 203l17 80q31 146 68.5 225.5t93 113t143.5 33.5q95 0 137 -39t42 -133q0 -78 -27 -204l-17 -80q-31 -145 -68 -225t-92.5 -113.5t-143.5 -33.5q-95 0 -137.5 39.5zM356.5 56.5q47.5 31.5 81 103.5t60.5 202l17 80 q26 122 26 192q0 77 -32.5 109t-105.5 32q-74 0 -122 -31.5t-81 -104t-60 -201.5l-17 -80q-25 -116 -25 -189q0 -79 32.5 -111.5t105.5 -32.5t120.5 31.5zM700 1024l-161 -120l-23 30l162 120zM541 861l-37 -26l-73 84l-109 -82l-28 26l146 109z" />
         <glyph glyph-name="uni1ED8" unicode="Ộ" d="M97.5 25.5q-42.5 39.5 -42.5 133.5q0 77 27 203l17 80q31 146 68.5 225.5t93 113t143.5 33.5q95 0 137 -39t42 -133q0 -78 -27 -204l-17 -80q-31 -145 -68 -225t-92.5 -113.5t-143.5 -33.5q-95 0 -137.5 39.5zM356.5 56.5q47.5 31.5 81 103.5t60.5 202l17 80 q26 122 26 192q0 77 -32.5 109t-105.5 32q-74 0 -122 -31.5t-81 -104t-60 -201.5l-17 -80q-25 -116 -25 -189q0 -79 32.5 -111.5t105.5 -32.5t120.5 31.5zM155 -213q-11 7 -11 23q0 9 3 21q7 27 19.5 37t39.5 10q26 0 37 -7t11 -23q0 -9 -3 -21q-6 -26 -18.5 -36.5 t-40.5 -10.5q-26 0 -37 7zM549 900l-37 -25l-73 83l-109 -81l-28 25l146 110z" />
         <glyph glyph-name="uni1ED2" unicode="Ồ" d="M97.5 25.5q-42.5 39.5 -42.5 133.5q0 77 27 203l17 80q31 146 68.5 225.5t93 113t143.5 33.5q95 0 137 -39t42 -133q0 -78 -27 -204l-17 -80q-31 -145 -68 -225t-92.5 -113.5t-143.5 -33.5q-95 0 -137.5 39.5zM356.5 56.5q47.5 31.5 81 103.5t60.5 202l17 80 q26 122 26 192q0 77 -32.5 109t-105.5 32q-74 0 -122 -31.5t-81 -104t-60 -201.5l-17 -80q-25 -116 -25 -189q0 -79 32.5 -111.5t105.5 -32.5t120.5 31.5zM587 897l-90 103l34 25l93 -103zM549 900l-37 -25l-73 83l-109 -81l-28 25l146 110z" />
         <glyph glyph-name="uni1ED4" unicode="Ổ" d="M97.5 25.5q-42.5 39.5 -42.5 133.5q0 77 27 203l17 80q31 146 68.5 225.5t93 113t143.5 33.5q95 0 137 -39t42 -133q0 -78 -27 -204l-17 -80q-31 -145 -68 -225t-92.5 -113.5t-143.5 -33.5q-95 0 -137.5 39.5zM356.5 56.5q47.5 31.5 81 103.5t60.5 202l17 80 q26 122 26 192q0 77 -32.5 109t-105.5 32q-74 0 -122 -31.5t-81 -104t-60 -201.5l-17 -80q-25 -116 -25 -189q0 -79 32.5 -111.5t105.5 -32.5t120.5 31.5zM541 861l-37 -25l-73 83l-109 -81l-28 25l146 110zM577 924q34 10 53.5 25.5t23.5 33.5q3 14 -6.5 23t-23.5 9 q-24 0 -49 -11t-42 -24l7 50q19 11 42.5 17.5t42.5 6.5q31 0 51 -17.5t20 -45.5q0 -5 -2 -17q-5 -28 -34.5 -51.5t-77.5 -35.5z" />
         <glyph glyph-name="uni1ED6" unicode="Ỗ" d="M97.5 25.5q-42.5 39.5 -42.5 133.5q0 77 27 203l17 80q31 146 68.5 225.5t93 113t143.5 33.5q95 0 137 -39t42 -133q0 -78 -27 -204l-17 -80q-31 -145 -68 -225t-92.5 -113.5t-143.5 -33.5q-95 0 -137.5 39.5zM356.5 56.5q47.5 31.5 81 103.5t60.5 202l17 80 q26 122 26 192q0 77 -32.5 109t-105.5 32q-74 0 -122 -31.5t-81 -104t-60 -201.5l-17 -80q-25 -116 -25 -189q0 -79 32.5 -111.5t105.5 -32.5t120.5 31.5zM541 861l-37 -25l-73 83l-109 -81l-28 25l146 110zM659.5 915q-14.5 11 -32.5 33q-14 17 -24 25t-24 8q-23 0 -33 -12 t-18 -39h-41q11 42 35.5 66t57.5 24q21 0 35.5 -11t32.5 -32q15 -17 26 -25.5t24 -8.5q23 0 33 12t16 36h41q-10 -40 -34.5 -63.5t-56.5 -23.5q-23 0 -37.5 11z" />
         <glyph glyph-name="Odieresis" unicode="Ö" d="M97.5 25.5q-42.5 39.5 -42.5 133.5q0 77 27 203l17 80q31 146 68.5 225.5t93 113t143.5 33.5q95 0 137 -39t42 -133q0 -78 -27 -204l-17 -80q-31 -145 -68 -225t-92.5 -113.5t-143.5 -33.5q-95 0 -137.5 39.5zM356.5 56.5q47.5 31.5 81 103.5t60.5 202l17 80 q26 122 26 192q0 77 -32.5 109t-105.5 32q-74 0 -122 -31.5t-81 -104t-60 -201.5l-17 -80q-25 -116 -25 -189q0 -79 32.5 -111.5t105.5 -32.5t120.5 31.5zM289.5 927.5q-10.5 6.5 -10.5 23.5q0 9 3 22q5 26 16.5 34.5t39.5 8.5q25 0 36 -7t11 -23q0 -8 -3 -20 q-5 -27 -16.5 -36t-40.5 -9q-25 0 -35.5 6.5zM505.5 927.5q-10.5 6.5 -10.5 23.5q0 9 3 22q5 26 16.5 34.5t39.5 8.5q25 0 36 -7t11 -23q0 -8 -3 -20q-5 -27 -16.5 -36t-40.5 -9q-25 0 -35.5 6.5z" />
         <glyph glyph-name="uni1ECC" unicode="Ọ" d="M97.5 25.5q-42.5 39.5 -42.5 133.5q0 77 27 203l17 80q31 146 68.5 225.5t93 113t143.5 33.5q95 0 137 -39t42 -133q0 -78 -27 -204l-17 -80q-31 -145 -68 -225t-92.5 -113.5t-143.5 -33.5q-95 0 -137.5 39.5zM356.5 56.5q47.5 31.5 81 103.5t60.5 202l17 80 q26 122 26 192q0 77 -32.5 109t-105.5 32q-74 0 -122 -31.5t-81 -104t-60 -201.5l-17 -80q-25 -116 -25 -189q0 -79 32.5 -111.5t105.5 -32.5t120.5 31.5zM155 -213q-11 7 -11 23q0 9 3 21q7 27 19.5 37t39.5 10q26 0 37 -7t11 -23q0 -9 -3 -21q-6 -26 -18.5 -36.5 t-40.5 -10.5q-26 0 -37 7z" />
         <glyph glyph-name="Ograve" unicode="Ò" d="M97.5 25.5q-42.5 39.5 -42.5 133.5q0 77 27 203l17 80q31 146 68.5 225.5t93 113t143.5 33.5q95 0 137 -39t42 -133q0 -78 -27 -204l-17 -80q-31 -145 -68 -225t-92.5 -113.5t-143.5 -33.5q-95 0 -137.5 39.5zM356.5 56.5q47.5 31.5 81 103.5t60.5 202l17 80 q26 122 26 192q0 77 -32.5 109t-105.5 32q-74 0 -122 -31.5t-81 -104t-60 -201.5l-17 -80q-25 -116 -25 -189q0 -79 32.5 -111.5t105.5 -32.5t120.5 31.5zM464 904l-33 -29l-107 113l33 29z" />
         <glyph glyph-name="uni1ECE" unicode="Ỏ" d="M97.5 25.5q-42.5 39.5 -42.5 133.5q0 77 27 203l17 80q31 146 68.5 225.5t93 113t143.5 33.5q95 0 137 -39t42 -133q0 -78 -27 -204l-17 -80q-31 -145 -68 -225t-92.5 -113.5t-143.5 -33.5q-95 0 -137.5 39.5zM356.5 56.5q47.5 31.5 81 103.5t60.5 202l17 80 q26 122 26 192q0 77 -32.5 109t-105.5 32q-74 0 -122 -31.5t-81 -104t-60 -201.5l-17 -80q-25 -116 -25 -189q0 -79 32.5 -111.5t105.5 -32.5t120.5 31.5zM396 877q34 10 53.5 25.5t23.5 33.5q3 14 -6.5 23t-23.5 9q-24 0 -49 -11t-42 -24l7 50q19 11 42.5 17.5t42.5 6.5 q31 0 51 -17.5t20 -45.5q0 -5 -2 -17q-5 -28 -34.5 -51.5t-77.5 -35.5z" />
         <glyph glyph-name="Ohorn" unicode="Ơ" d="M734 904h42l-27 -128q-10 -53 -44.5 -85t-79.5 -32q-23 0 -43 14q1 -10 1 -33q0 -77 -27 -202l-17 -80q-31 -145 -68 -225t-92.5 -113.5t-143.5 -33.5q-95 0 -137.5 39.5t-42.5 133.5q0 77 27 203l17 80q31 146 68.5 225.5t93 113t143.5 33.5q72 0 113 -21.5t56 -70.5 q3 -10 18 -17t36 -7q28 0 50.5 22.5t30.5 58.5zM515 442q26 122 26 192q0 77 -32.5 109t-105.5 32q-74 0 -122 -31.5t-81 -104t-60 -201.5l-17 -80q-25 -116 -25 -189q0 -79 32.5 -111.5t105.5 -32.5t120.5 31.5t81 103.5t60.5 202z" />
         <glyph glyph-name="uni1EDA" unicode="Ớ" d="M734 904h42l-27 -128q-10 -53 -44.5 -85t-79.5 -32q-23 0 -43 14q1 -10 1 -33q0 -77 -27 -202l-17 -80q-31 -145 -68 -225t-92.5 -113.5t-143.5 -33.5q-95 0 -137.5 39.5t-42.5 133.5q0 77 27 203l17 80q31 146 68.5 225.5t93 113t143.5 33.5q72 0 113 -21.5t56 -70.5 q3 -10 18 -17t36 -7q28 0 50.5 22.5t30.5 58.5zM515 442q26 122 26 192q0 77 -32.5 109t-105.5 32q-74 0 -122 -31.5t-81 -104t-60 -201.5l-17 -80q-25 -116 -25 -189q0 -79 32.5 -111.5t105.5 -32.5t120.5 31.5t81 103.5t60.5 202zM563 988l-151 -113l-23 29l151 113z" />
         <glyph glyph-name="uni1EE2" unicode="Ợ" d="M734 904h42l-27 -128q-10 -53 -44.5 -85t-79.5 -32q-23 0 -43 14q1 -10 1 -33q0 -77 -27 -202l-17 -80q-31 -145 -68 -225t-92.5 -113.5t-143.5 -33.5q-95 0 -137.5 39.5t-42.5 133.5q0 77 27 203l17 80q31 146 68.5 225.5t93 113t143.5 33.5q72 0 113 -21.5t56 -70.5 q3 -10 18 -17t36 -7q28 0 50.5 22.5t30.5 58.5zM515 442q26 122 26 192q0 77 -32.5 109t-105.5 32q-74 0 -122 -31.5t-81 -104t-60 -201.5l-17 -80q-25 -116 -25 -189q0 -79 32.5 -111.5t105.5 -32.5t120.5 31.5t81 103.5t60.5 202zM155 -213q-11 7 -11 23q0 9 3 21 q7 27 19.5 37t39.5 10q26 0 37 -7t11 -23q0 -9 -3 -21q-6 -26 -18.5 -36.5t-40.5 -10.5q-26 0 -37 7z" />
         <glyph glyph-name="uni1EDC" unicode="Ờ" d="M734 904h42l-27 -128q-10 -53 -44.5 -85t-79.5 -32q-23 0 -43 14q1 -10 1 -33q0 -77 -27 -202l-17 -80q-31 -145 -68 -225t-92.5 -113.5t-143.5 -33.5q-95 0 -137.5 39.5t-42.5 133.5q0 77 27 203l17 80q31 146 68.5 225.5t93 113t143.5 33.5q72 0 113 -21.5t56 -70.5 q3 -10 18 -17t36 -7q28 0 50.5 22.5t30.5 58.5zM515 442q26 122 26 192q0 77 -32.5 109t-105.5 32q-74 0 -122 -31.5t-81 -104t-60 -201.5l-17 -80q-25 -116 -25 -189q0 -79 32.5 -111.5t105.5 -32.5t120.5 31.5t81 103.5t60.5 202zM464 904l-33 -29l-107 113l33 29z" />
         <glyph glyph-name="uni1EDE" unicode="Ở" d="M734 904h42l-27 -128q-10 -53 -44.5 -85t-79.5 -32q-23 0 -43 14q1 -10 1 -33q0 -77 -27 -202l-17 -80q-31 -145 -68 -225t-92.5 -113.5t-143.5 -33.5q-95 0 -137.5 39.5t-42.5 133.5q0 77 27 203l17 80q31 146 68.5 225.5t93 113t143.5 33.5q72 0 113 -21.5t56 -70.5 q3 -10 18 -17t36 -7q28 0 50.5 22.5t30.5 58.5zM515 442q26 122 26 192q0 77 -32.5 109t-105.5 32q-74 0 -122 -31.5t-81 -104t-60 -201.5l-17 -80q-25 -116 -25 -189q0 -79 32.5 -111.5t105.5 -32.5t120.5 31.5t81 103.5t60.5 202zM396 877q34 10 53.5 25.5t23.5 33.5 q3 14 -6.5 23t-23.5 9q-24 0 -49 -11t-42 -24l7 50q19 11 42.5 17.5t42.5 6.5q31 0 51 -17.5t20 -45.5q0 -5 -2 -17q-5 -28 -34.5 -51.5t-77.5 -35.5z" />
         <glyph glyph-name="uni1EE0" unicode="Ỡ" d="M734 904h42l-27 -128q-10 -53 -44.5 -85t-79.5 -32q-23 0 -43 14q1 -10 1 -33q0 -77 -27 -202l-17 -80q-31 -145 -68 -225t-92.5 -113.5t-143.5 -33.5q-95 0 -137.5 39.5t-42.5 133.5q0 77 27 203l17 80q31 146 68.5 225.5t93 113t143.5 33.5q72 0 113 -21.5t56 -70.5 q3 -10 18 -17t36 -7q28 0 50.5 22.5t30.5 58.5zM515 442q26 122 26 192q0 77 -32.5 109t-105.5 32q-74 0 -122 -31.5t-81 -104t-60 -201.5l-17 -80q-25 -116 -25 -189q0 -79 32.5 -111.5t105.5 -32.5t120.5 31.5t81 103.5t60.5 202zM456.5 899q-14.5 11 -32.5 33 q-14 17 -24 25t-24 8q-23 0 -33 -12t-18 -39h-41q11 42 35.5 66t57.5 24q21 0 35.5 -11t32.5 -32q15 -17 26 -25.5t24 -8.5q23 0 33 12t16 36h41q-10 -40 -34.5 -63.5t-56.5 -23.5q-23 0 -37.5 11z" />
         <glyph glyph-name="Ohungarumlaut" unicode="Ő" d="M97.5 25.5q-42.5 39.5 -42.5 133.5q0 77 27 203l17 80q31 146 68.5 225.5t93 113t143.5 33.5q95 0 137 -39t42 -133q0 -78 -27 -204l-17 -80q-31 -145 -68 -225t-92.5 -113.5t-143.5 -33.5q-95 0 -137.5 39.5zM356.5 56.5q47.5 31.5 81 103.5t60.5 202l17 80 q26 122 26 192q0 77 -32.5 109t-105.5 32q-74 0 -122 -31.5t-81 -104t-60 -201.5l-17 -80q-25 -116 -25 -189q0 -79 32.5 -111.5t105.5 -32.5t120.5 31.5zM442 988l-152 -113l-22 29l151 113zM602 988l-151 -113l-23 29l151 113z" />
         <glyph glyph-name="Omacron" unicode="Ō" d="M97.5 25.5q-42.5 39.5 -42.5 133.5q0 77 27 203l17 80q31 146 68.5 225.5t93 113t143.5 33.5q95 0 137 -39t42 -133q0 -78 -27 -204l-17 -80q-31 -145 -68 -225t-92.5 -113.5t-143.5 -33.5q-95 0 -137.5 39.5zM356.5 56.5q47.5 31.5 81 103.5t60.5 202l17 80 q26 122 26 192q0 77 -32.5 109t-105.5 32q-74 0 -122 -31.5t-81 -104t-60 -201.5l-17 -80q-25 -116 -25 -189q0 -79 32.5 -111.5t105.5 -32.5t120.5 31.5zM561 913h-266l8 38h266z" />
         <glyph glyph-name="Oslash" unicode="Ø" d="M645 850l-77 -115q16 -35 16 -93q0 -73 -28 -204l-17 -80q-31 -145 -68 -225t-92.5 -113.5t-143.5 -33.5q-51 0 -85.5 10t-55.5 33l-53 -79h-47l77 114q-16 36 -16 95q0 70 27 203l17 80q31 146 68.5 225.5t93 113t143.5 33.5q50 0 84.5 -10t55.5 -32l53 78h48zM123 358 q-26 -121 -26 -190q0 -32 6 -56l415 620q-16 23 -44.5 33t-70.5 10q-73 0 -121 -31.5t-81.5 -104t-60.5 -201.5zM515 442q26 124 26 192q0 29 -5 54l-415 -619q30 -44 115 -44q73 0 120.5 31.5t81 103.5t60.5 202z" />
         <glyph glyph-name="Otilde" unicode="Õ" d="M97.5 25.5q-42.5 39.5 -42.5 133.5q0 77 27 203l17 80q31 146 68.5 225.5t93 113t143.5 33.5q95 0 137 -39t42 -133q0 -78 -27 -204l-17 -80q-31 -145 -68 -225t-92.5 -113.5t-143.5 -33.5q-95 0 -137.5 39.5zM356.5 56.5q47.5 31.5 81 103.5t60.5 202l17 80 q26 122 26 192q0 77 -32.5 109t-105.5 32q-74 0 -122 -31.5t-81 -104t-60 -201.5l-17 -80q-25 -116 -25 -189q0 -79 32.5 -111.5t105.5 -32.5t120.5 31.5zM456.5 899q-14.5 11 -32.5 33q-14 17 -24 25t-24 8q-23 0 -33 -12t-18 -39h-41q11 42 35.5 66t57.5 24q21 0 35.5 -11 t32.5 -32q15 -17 26 -25.5t24 -8.5q23 0 33 12t16 36h41q-10 -40 -34.5 -63.5t-56.5 -23.5q-23 0 -37.5 11z" />
         <glyph glyph-name="OE" unicode="Œ" d="M694 761h-235l-66 -319h140l-8 -38h-141q0 -3 -2 -11l-12 -56l-64 -298h234l-8 -39h-276l13 63q-29 -41 -65.5 -59t-85.5 -18q-69 0 -100.5 35.5t-31.5 120.5q0 92 36 260q34 160 68.5 248.5t81 126t115.5 37.5q52 0 82 -20.5t42 -66.5l15 73h276zM206 55 q36 30 65.5 99.5t57.5 191.5l25 114q24 123 24 193q0 66 -22 94t-70 28q-55 0 -93.5 -35t-69 -116.5t-61.5 -227.5q-36 -166 -36 -249q0 -66 22.5 -94t70.5 -28q51 0 87 30z" />
         <glyph glyph-name="P" unicode="P" d="M422 800q95 0 136 -28.5t41 -98.5q0 -40 -12 -97q-17 -85 -46 -131.5t-78 -66.5t-130 -20h-171l-76 -358h-42l170 800h208zM557 662q0 55 -32 77t-107 22h-170l-78 -364h167q64 0 105 17.5t65.5 57.5t39.5 110q10 44 10 80z" />
         <glyph glyph-name="Thorn" unicode="Þ" d="M361 600q96 0 137.5 -27t41.5 -93q0 -37 -10 -83q-17 -78 -45 -120t-76.5 -59.5t-130.5 -17.5h-149l-43 -200h-42l170 800h42l-42 -200h147zM497 468q0 52 -32.5 73t-109.5 21h-150l-68 -324h147q64 0 104 15.5t64 51.5t37 98q8 40 8 65z" />
         <glyph glyph-name="Q" unicode="Q" d="M553 -132q33 12 79 37q47 27 87.5 42t105.5 19l-7 -39q-54 -5 -89.5 -19t-80.5 -39q-48 -26 -84.5 -39t-93.5 -13q-54 0 -90.5 20.5t-82.5 62.5q-43 39 -69 57q-13 -7 -42 -27q-27 -18 -42.5 -25.5t-36.5 -7.5q-36 0 -55 15t-19 41q0 19 8 36q14 36 45 49q-31 40 -31 120 q0 78 27 204l17 80q32 146 69 225.5t92 113t143 33.5q96 0 138.5 -39.5t42.5 -133.5q0 -74 -28 -203l-17 -80q-27 -126 -58 -201.5t-74.5 -115t-106.5 -50.5q-11 -4 -19 -7.5t-13 -5.5q22 -16 57 -49q42 -38 71.5 -55.5t71.5 -17.5q52 0 85 12zM123 358q-25 -118 -25 -190 q0 -78 32 -110.5t105 -32.5t120.5 31.5t81 104t61.5 201.5l17 80q26 124 26 192q0 77 -32 109t-105 32q-74 0 -122 -31.5t-81.5 -103.5t-60.5 -202zM129.5 -59q11.5 6 31.5 21l27 19l-31 14q-6 1 -18 5q-10 2 -16 2q-16 0 -28 -7.5t-18 -20.5q-4 -8 -4 -16q0 -11 8.5 -17 t23.5 -6q13 0 24.5 6z" />
         <glyph glyph-name="R" unicode="R" d="M414 800q95 0 136 -28.5t41 -98.5q0 -40 -12 -97q-17 -85 -46 -131.5t-78 -66.5t-130 -20h-6l154 -358h-48l-155 358h-115l-77 -358h-42l170 800h208zM549 662q0 55 -32 77t-107 22h-169l-78 -364h166q64 0 105 17.5t65.5 57.5t39.5 110q10 44 10 80z" />
         <glyph glyph-name="Racute" unicode="Ŕ" d="M414 800q95 0 136 -28.5t41 -98.5q0 -40 -12 -97q-17 -85 -46 -131.5t-78 -66.5t-130 -20h-6l154 -358h-48l-155 358h-115l-77 -358h-42l170 800h208zM549 662q0 55 -32 77t-107 22h-169l-78 -364h166q64 0 105 17.5t65.5 57.5t39.5 110q10 44 10 80zM562 985l-151 -113 l-23 29l151 113z" />
         <glyph glyph-name="Rcaron" unicode="Ř" d="M414 800q95 0 136 -28.5t41 -98.5q0 -40 -12 -97q-17 -85 -46 -131.5t-78 -66.5t-130 -20h-6l154 -358h-48l-155 358h-115l-77 -358h-42l170 800h208zM549 662q0 55 -32 77t-107 22h-169l-78 -364h166q64 0 105 17.5t65.5 57.5t39.5 110q10 44 10 80zM570 993l-147 -112 l-103 110l37 25l75 -81l109 83z" />
         <glyph glyph-name="uni0156" unicode="Ŗ" d="M414 800q95 0 136 -28.5t41 -98.5q0 -40 -12 -97q-17 -85 -46 -131.5t-78 -66.5t-130 -20h-6l154 -358h-48l-155 358h-115l-77 -358h-42l170 800h208zM549 662q0 55 -32 77t-107 22h-169l-78 -364h166q64 0 105 17.5t65.5 57.5t39.5 110q10 44 10 80zM206 -126 q-11 2 -16.5 7.5t-5.5 17.5l2 16q4 21 12.5 27.5t31.5 6.5q20 0 28.5 -5.5t8.5 -18.5q0 -3 -2 -17q-6 -25 -35.5 -69t-66.5 -87l-32 2z" />
         <glyph glyph-name="S" unicode="S" d="M130.5 -4q-39.5 10 -63 33t-37.5 63l35 26q14 -53 51.5 -73t119.5 -20q69 0 112 18t69 59t42 114q6 26 6 48q0 48 -32.5 79.5t-108.5 58.5q-94 33 -133 69.5t-39 91.5q0 23 6 50q17 79 44.5 122t74.5 61t127 18q87 0 128.5 -20.5t62.5 -71.5l-33 -27q-15 46 -49.5 63 t-109.5 17q-64 0 -103.5 -15.5t-63 -52t-36.5 -100.5q-5 -25 -5 -42q0 -43 29.5 -70t99.5 -51q98 -33 140 -72t42 -101q0 -30 -7 -61q-18 -87 -48 -135t-81 -68.5t-135 -20.5q-65 0 -104.5 10z" />
         <glyph glyph-name="Sacute" unicode="Ś" d="M130.5 -4q-39.5 10 -63 33t-37.5 63l35 26q14 -53 51.5 -73t119.5 -20q69 0 112 18t69 59t42 114q6 26 6 48q0 48 -32.5 79.5t-108.5 58.5q-94 33 -133 69.5t-39 91.5q0 23 6 50q17 79 44.5 122t74.5 61t127 18q87 0 128.5 -20.5t62.5 -71.5l-33 -27q-15 46 -49.5 63 t-109.5 17q-64 0 -103.5 -15.5t-63 -52t-36.5 -100.5q-5 -25 -5 -42q0 -43 29.5 -70t99.5 -51q98 -33 140 -72t42 -101q0 -30 -7 -61q-18 -87 -48 -135t-81 -68.5t-135 -20.5q-65 0 -104.5 10zM563 988l-151 -113l-23 29l151 113z" />
         <glyph glyph-name="Scaron" unicode="Š" d="M130.5 -4q-39.5 10 -63 33t-37.5 63l35 26q14 -53 51.5 -73t119.5 -20q69 0 112 18t69 59t42 114q6 26 6 48q0 48 -32.5 79.5t-108.5 58.5q-94 33 -133 69.5t-39 91.5q0 23 6 50q17 79 44.5 122t74.5 61t127 18q87 0 128.5 -20.5t62.5 -71.5l-33 -27q-15 46 -49.5 63 t-109.5 17q-64 0 -103.5 -15.5t-63 -52t-36.5 -100.5q-5 -25 -5 -42q0 -43 29.5 -70t99.5 -51q98 -33 140 -72t42 -101q0 -30 -7 -61q-18 -87 -48 -135t-81 -68.5t-135 -20.5q-65 0 -104.5 10zM571 996l-147 -112l-103 110l37 25l75 -81l109 83z" />
         <glyph glyph-name="Scedilla" unicode="Ş" d="M532.5 793.5q41.5 -20.5 62.5 -71.5l-33 -27q-15 46 -49.5 63t-109.5 17q-64 0 -103.5 -15.5t-63 -52t-36.5 -100.5q-5 -25 -5 -42q0 -43 29.5 -70t99.5 -51q98 -33 140 -72t42 -101q0 -30 -7 -61q-18 -85 -47 -132.5t-77 -68.5t-128 -23l-6 -25q28 -7 44 -23.5t16 -37.5 q0 -9 -1 -13q-7 -35 -37.5 -55.5t-74.5 -20.5q-22 0 -43 7t-35 19l24 36q11 -10 26 -16.5t28 -6.5q28 0 48 12t24 31q3 15 -15 23t-51 8l12 63q-79 3 -117.5 26.5t-58.5 78.5l35 26q14 -53 51.5 -73t119.5 -20q69 0 112 18t69 59t42 114q6 26 6 48q0 48 -32.5 79.5 t-108.5 58.5q-94 33 -133 69.5t-39 91.5q0 23 6 50q17 79 44.5 122t74.5 61t127 18q87 0 128.5 -20.5z" />
         <glyph glyph-name="Scircumflex" unicode="Ŝ" d="M130.5 -4q-39.5 10 -63 33t-37.5 63l35 26q14 -53 51.5 -73t119.5 -20q69 0 112 18t69 59t42 114q6 26 6 48q0 48 -32.5 79.5t-108.5 58.5q-94 33 -133 69.5t-39 91.5q0 23 6 50q17 79 44.5 122t74.5 61t127 18q87 0 128.5 -20.5t62.5 -71.5l-33 -27q-15 46 -49.5 63 t-109.5 17q-64 0 -103.5 -15.5t-63 -52t-36.5 -100.5q-5 -25 -5 -42q0 -43 29.5 -70t99.5 -51q98 -33 140 -72t42 -101q0 -30 -7 -61q-18 -87 -48 -135t-81 -68.5t-135 -20.5q-65 0 -104.5 10zM549 900l-37 -25l-73 83l-109 -81l-28 25l146 110z" />
         <glyph glyph-name="uni0218" unicode="Ș" d="M130.5 -4q-39.5 10 -63 33t-37.5 63l35 26q14 -53 51.5 -73t119.5 -20q69 0 112 18t69 59t42 114q6 26 6 48q0 48 -32.5 79.5t-108.5 58.5q-94 33 -133 69.5t-39 91.5q0 23 6 50q17 79 44.5 122t74.5 61t127 18q87 0 128.5 -20.5t62.5 -71.5l-33 -27q-15 46 -49.5 63 t-109.5 17q-64 0 -103.5 -15.5t-63 -52t-36.5 -100.5q-5 -25 -5 -42q0 -43 29.5 -70t99.5 -51q98 -33 140 -72t42 -101q0 -30 -7 -61q-18 -87 -48 -135t-81 -68.5t-135 -20.5q-65 0 -104.5 10zM206 -126q-11 2 -16.5 7.5t-5.5 17.5l2 16q4 21 12.5 27.5t31.5 6.5 q20 0 28.5 -5.5t8.5 -18.5q0 -3 -2 -17q-6 -25 -35.5 -69t-66.5 -87l-32 2z" />
         <glyph glyph-name="uni1E9E" unicode="ẞ" d="M413 472q88 -1 126.5 -32t38.5 -102q0 -40 -15 -113q-20 -96 -49.5 -147t-76.5 -71.5t-126 -20.5q-93 0 -132 21t-39 72q0 21 6 49l41 -3q-4 -17 -4 -35q0 -37 28.5 -51t100.5 -14q65 0 104 18t63.5 62t42.5 127q13 62 13 97q0 56 -30.5 80t-100.5 24h-72l271 328h-239 q-83 0 -145 -53.5t-81 -140.5l-120 -567h-42l121 571q23 107 96.5 168t180.5 61h308z" />
         <glyph glyph-name="T" unicode="T" d="M668 800l-7 -39h-244l-162 -761h-42l162 761h-242l7 39h528z" />
         <glyph glyph-name="Tbar" unicode="Ŧ" d="M668 800l-7 -39h-244l-68 -319h170l-8 -38h-170l-86 -404h-42l86 404h-170l8 38h170l68 319h-242l7 39h528z" />
         <glyph glyph-name="Tcaron" unicode="Ť" d="M668 800l-7 -39h-244l-162 -761h-42l162 761h-242l7 39h528zM570 993l-147 -112l-103 110l37 25l75 -81l109 83z" />
         <glyph glyph-name="uni0162" unicode="Ţ" d="M255 0l-9 -39q28 -7 44 -23.5t16 -38.5q0 -8 -1 -12q-8 -35 -38.5 -55.5t-74.5 -20.5q-22 0 -43 7t-35 19l24 36q11 -10 26 -16.5t29 -6.5q28 0 47.5 12t23.5 31q4 15 -14 23t-52 8l15 76v1l1 4l161 756h-242l7 39h528l-7 -39h-244z" />
         <glyph glyph-name="uni021A" unicode="Ț" d="M668 800l-7 -39h-244l-162 -761h-42l162 761h-242l7 39h528zM206 -126q-11 2 -16.5 7.5t-5.5 17.5l2 16q4 21 12.5 27.5t31.5 6.5q20 0 28.5 -5.5t8.5 -18.5q0 -3 -2 -17q-6 -25 -35.5 -69t-66.5 -87l-32 2z" />
         <glyph glyph-name="U" unicode="U" d="M107 20q-39 34 -39 115q0 55 21 158l107 507h42l-108 -511q-20 -92 -20 -144q0 -66 29.5 -93t96.5 -27q65 0 107 25t70 82.5t50 160.5l107 507h42l-108 -511q-25 -118 -57.5 -183t-82 -92.5t-129.5 -27.5q-89 0 -128 34z" />
         <glyph glyph-name="Uacute" unicode="Ú" d="M107 20q-39 34 -39 115q0 55 21 158l107 507h42l-108 -511q-20 -92 -20 -144q0 -66 29.5 -93t96.5 -27q65 0 107 25t70 82.5t50 160.5l107 507h42l-108 -511q-25 -118 -57.5 -183t-82 -92.5t-129.5 -27.5q-89 0 -128 34zM563 988l-151 -113l-23 29l151 113z" />
         <glyph glyph-name="Ubreve" unicode="Ŭ" d="M107 20q-39 34 -39 115q0 55 21 158l107 507h42l-108 -511q-20 -92 -20 -144q0 -66 29.5 -93t96.5 -27q65 0 107 25t70 82.5t50 160.5l107 507h42l-108 -511q-25 -118 -57.5 -183t-82 -92.5t-129.5 -27.5q-89 0 -128 34zM345 909q-24 15 -24 52q0 15 5 40h41 q-3 -15 -3 -26q0 -24 15 -33.5t49 -9.5q45 0 67.5 16t30.5 53h41q-9 -42 -24.5 -65t-42.5 -32.5t-74 -9.5q-57 0 -81 15z" />
         <glyph glyph-name="uni01D3" unicode="Ǔ" d="M107 20q-39 34 -39 115q0 55 21 158l107 507h42l-108 -511q-20 -92 -20 -144q0 -66 29.5 -93t96.5 -27q65 0 107 25t70 82.5t50 160.5l107 507h42l-108 -511q-25 -118 -57.5 -183t-82 -92.5t-129.5 -27.5q-89 0 -128 34zM571 996l-147 -112l-103 110l37 25l75 -81l109 83 z" />
         <glyph glyph-name="Ucircumflex" unicode="Û" d="M107 20q-39 34 -39 115q0 55 21 158l107 507h42l-108 -511q-20 -92 -20 -144q0 -66 29.5 -93t96.5 -27q65 0 107 25t70 82.5t50 160.5l107 507h42l-108 -511q-25 -118 -57.5 -183t-82 -92.5t-129.5 -27.5q-89 0 -128 34zM549 900l-37 -25l-73 83l-109 -81l-28 25l146 110 z" />
         <glyph glyph-name="Udieresis" unicode="Ü" d="M107 20q-39 34 -39 115q0 55 21 158l107 507h42l-108 -511q-20 -92 -20 -144q0 -66 29.5 -93t96.5 -27q65 0 107 25t70 82.5t50 160.5l107 507h42l-108 -511q-25 -118 -57.5 -183t-82 -92.5t-129.5 -27.5q-89 0 -128 34zM289.5 927.5q-10.5 6.5 -10.5 23.5q0 9 3 22 q5 26 16.5 34.5t39.5 8.5q25 0 36 -7t11 -23q0 -8 -3 -20q-5 -27 -16.5 -36t-40.5 -9q-25 0 -35.5 6.5zM505.5 927.5q-10.5 6.5 -10.5 23.5q0 9 3 22q5 26 16.5 34.5t39.5 8.5q25 0 36 -7t11 -23q0 -8 -3 -20q-5 -27 -16.5 -36t-40.5 -9q-25 0 -35.5 6.5z" />
         <glyph glyph-name="uni01D7" unicode="Ǘ" d="M107 20q-39 34 -39 115q0 55 21 158l107 507h42l-108 -511q-20 -92 -20 -144q0 -66 29.5 -93t96.5 -27q65 0 107 25t70 82.5t50 160.5l107 507h42l-108 -511q-25 -118 -57.5 -183t-82 -92.5t-129.5 -27.5q-89 0 -128 34zM270.5 832.5q-10.5 6.5 -10.5 23.5q0 9 3 22 q5 26 16.5 34.5t39.5 8.5q25 0 36 -7t11 -23q0 -8 -3 -20q-5 -27 -16.5 -36t-40.5 -9q-25 0 -35.5 6.5zM486.5 832.5q-10.5 6.5 -10.5 23.5q0 9 3 22q5 26 16.5 34.5t39.5 8.5q25 0 36 -7t11 -23q0 -8 -3 -20q-5 -27 -16.5 -36t-40.5 -9q-25 0 -35.5 6.5zM576 1045 l-151 -113l-23 29l151 113z" />
         <glyph glyph-name="uni01D9" unicode="Ǚ" d="M107 20q-39 34 -39 115q0 55 21 158l107 507h42l-108 -511q-20 -92 -20 -144q0 -66 29.5 -93t96.5 -27q65 0 107 25t70 82.5t50 160.5l107 507h42l-108 -511q-25 -118 -57.5 -183t-82 -92.5t-129.5 -27.5q-89 0 -128 34zM270.5 832.5q-10.5 6.5 -10.5 23.5q0 9 3 22 q5 26 16.5 34.5t39.5 8.5q25 0 36 -7t11 -23q0 -8 -3 -20q-5 -27 -16.5 -36t-40.5 -9q-25 0 -35.5 6.5zM486.5 832.5q-10.5 6.5 -10.5 23.5q0 9 3 22q5 26 16.5 34.5t39.5 8.5q25 0 36 -7t11 -23q0 -8 -3 -20q-5 -27 -16.5 -36t-40.5 -9q-25 0 -35.5 6.5zM584 1052 l-147 -112l-103 110l37 25l75 -81l109 83z" />
         <glyph glyph-name="uni01DB" unicode="Ǜ" d="M107 20q-39 34 -39 115q0 55 21 158l107 507h42l-108 -511q-20 -92 -20 -144q0 -66 29.5 -93t96.5 -27q65 0 107 25t70 82.5t50 160.5l107 507h42l-108 -511q-25 -118 -57.5 -183t-82 -92.5t-129.5 -27.5q-89 0 -128 34zM270.5 832.5q-10.5 6.5 -10.5 23.5q0 9 3 22 q5 26 16.5 34.5t39.5 8.5q25 0 36 -7t11 -23q0 -8 -3 -20q-5 -27 -16.5 -36t-40.5 -9q-25 0 -35.5 6.5zM486.5 832.5q-10.5 6.5 -10.5 23.5q0 9 3 22q5 26 16.5 34.5t39.5 8.5q25 0 36 -7t11 -23q0 -8 -3 -20q-5 -27 -16.5 -36t-40.5 -9q-25 0 -35.5 6.5zM477 961l-33 -29 l-107 113l33 29z" />
         <glyph glyph-name="uni01D5" unicode="Ǖ" d="M107 20q-39 34 -39 115q0 55 21 158l107 507h42l-108 -511q-20 -92 -20 -144q0 -66 29.5 -93t96.5 -27q65 0 107 25t70 82.5t50 160.5l107 507h42l-108 -511q-25 -118 -57.5 -183t-82 -92.5t-129.5 -27.5q-89 0 -128 34zM270.5 832.5q-10.5 6.5 -10.5 23.5q0 9 3 22 q5 26 16.5 34.5t39.5 8.5q25 0 36 -7t11 -23q0 -8 -3 -20q-5 -27 -16.5 -36t-40.5 -9q-25 0 -35.5 6.5zM486.5 832.5q-10.5 6.5 -10.5 23.5q0 9 3 22q5 26 16.5 34.5t39.5 8.5q25 0 36 -7t11 -23q0 -8 -3 -20q-5 -27 -16.5 -36t-40.5 -9q-25 0 -35.5 6.5zM587 1033h-266 l8 38h266z" />
         <glyph glyph-name="uni1EE4" unicode="Ụ" d="M107 20q-39 34 -39 115q0 55 21 158l107 507h42l-108 -511q-20 -92 -20 -144q0 -66 29.5 -93t96.5 -27q65 0 107 25t70 82.5t50 160.5l107 507h42l-108 -511q-25 -118 -57.5 -183t-82 -92.5t-129.5 -27.5q-89 0 -128 34zM155 -213q-11 7 -11 23q0 9 3 21q7 27 19.5 37 t39.5 10q26 0 37 -7t11 -23q0 -9 -3 -21q-6 -26 -18.5 -36.5t-40.5 -10.5q-26 0 -37 7z" />
         <glyph glyph-name="Ugrave" unicode="Ù" d="M107 20q-39 34 -39 115q0 55 21 158l107 507h42l-108 -511q-20 -92 -20 -144q0 -66 29.5 -93t96.5 -27q65 0 107 25t70 82.5t50 160.5l107 507h42l-108 -511q-25 -118 -57.5 -183t-82 -92.5t-129.5 -27.5q-89 0 -128 34zM464 904l-33 -29l-107 113l33 29z" />
         <glyph glyph-name="uni1EE6" unicode="Ủ" d="M107 20q-39 34 -39 115q0 55 21 158l107 507h42l-108 -511q-20 -92 -20 -144q0 -66 29.5 -93t96.5 -27q65 0 107 25t70 82.5t50 160.5l107 507h42l-108 -511q-25 -118 -57.5 -183t-82 -92.5t-129.5 -27.5q-89 0 -128 34zM396 877q34 10 53.5 25.5t23.5 33.5q3 14 -6.5 23 t-23.5 9q-24 0 -49 -11t-42 -24l7 50q19 11 42.5 17.5t42.5 6.5q31 0 51 -17.5t20 -45.5q0 -5 -2 -17q-5 -28 -34.5 -51.5t-77.5 -35.5z" />
         <glyph glyph-name="Uhorn" unicode="Ư" d="M750 980h42l-27 -128q-10 -53 -44.5 -84.5t-79.5 -31.5q-22 0 -40 12l-97 -459q-25 -118 -57.5 -183t-82 -92.5t-129.5 -27.5q-89 0 -128 34t-39 115q0 55 21 158l107 507h42l-108 -511q-20 -92 -20 -144q0 -66 29.5 -93t96.5 -27q65 0 107 25t70 82.5t50 160.5l107 507 h42l-4 -19q16 -7 35 -7q28 0 50.5 23t30.5 59z" />
         <glyph glyph-name="uni1EE8" unicode="Ứ" d="M750 980h42l-27 -128q-10 -53 -44.5 -84.5t-79.5 -31.5q-22 0 -40 12l-97 -459q-25 -118 -57.5 -183t-82 -92.5t-129.5 -27.5q-89 0 -128 34t-39 115q0 55 21 158l107 507h42l-108 -511q-20 -92 -20 -144q0 -66 29.5 -93t96.5 -27q65 0 107 25t70 82.5t50 160.5l107 507 h42l-4 -19q16 -7 35 -7q28 0 50.5 23t30.5 59zM563 988l-151 -113l-23 29l151 113z" />
         <glyph glyph-name="uni1EF0" unicode="Ự" d="M750 980h42l-27 -128q-10 -53 -44.5 -84.5t-79.5 -31.5q-22 0 -40 12l-97 -459q-25 -118 -57.5 -183t-82 -92.5t-129.5 -27.5q-89 0 -128 34t-39 115q0 55 21 158l107 507h42l-108 -511q-20 -92 -20 -144q0 -66 29.5 -93t96.5 -27q65 0 107 25t70 82.5t50 160.5l107 507 h42l-4 -19q16 -7 35 -7q28 0 50.5 23t30.5 59zM155 -213q-11 7 -11 23q0 9 3 21q7 27 19.5 37t39.5 10q26 0 37 -7t11 -23q0 -9 -3 -21q-6 -26 -18.5 -36.5t-40.5 -10.5q-26 0 -37 7z" />
         <glyph glyph-name="uni1EEA" unicode="Ừ" d="M750 980h42l-27 -128q-10 -53 -44.5 -84.5t-79.5 -31.5q-22 0 -40 12l-97 -459q-25 -118 -57.5 -183t-82 -92.5t-129.5 -27.5q-89 0 -128 34t-39 115q0 55 21 158l107 507h42l-108 -511q-20 -92 -20 -144q0 -66 29.5 -93t96.5 -27q65 0 107 25t70 82.5t50 160.5l107 507 h42l-4 -19q16 -7 35 -7q28 0 50.5 23t30.5 59zM464 904l-33 -29l-107 113l33 29z" />
         <glyph glyph-name="uni1EEC" unicode="Ử" d="M750 980h42l-27 -128q-10 -53 -44.5 -84.5t-79.5 -31.5q-22 0 -40 12l-97 -459q-25 -118 -57.5 -183t-82 -92.5t-129.5 -27.5q-89 0 -128 34t-39 115q0 55 21 158l107 507h42l-108 -511q-20 -92 -20 -144q0 -66 29.5 -93t96.5 -27q65 0 107 25t70 82.5t50 160.5l107 507 h42l-4 -19q16 -7 35 -7q28 0 50.5 23t30.5 59zM396 877q34 10 53.5 25.5t23.5 33.5q3 14 -6.5 23t-23.5 9q-24 0 -49 -11t-42 -24l7 50q19 11 42.5 17.5t42.5 6.5q31 0 51 -17.5t20 -45.5q0 -5 -2 -17q-5 -28 -34.5 -51.5t-77.5 -35.5z" />
         <glyph glyph-name="uni1EEE" unicode="Ữ" d="M750 980h42l-27 -128q-10 -53 -44.5 -84.5t-79.5 -31.5q-22 0 -40 12l-97 -459q-25 -118 -57.5 -183t-82 -92.5t-129.5 -27.5q-89 0 -128 34t-39 115q0 55 21 158l107 507h42l-108 -511q-20 -92 -20 -144q0 -66 29.5 -93t96.5 -27q65 0 107 25t70 82.5t50 160.5l107 507 h42l-4 -19q16 -7 35 -7q28 0 50.5 23t30.5 59zM456.5 899q-14.5 11 -32.5 33q-14 17 -24 25t-24 8q-23 0 -33 -12t-18 -39h-41q11 42 35.5 66t57.5 24q21 0 35.5 -11t32.5 -32q15 -17 26 -25.5t24 -8.5q23 0 33 12t16 36h41q-10 -40 -34.5 -63.5t-56.5 -23.5q-23 0 -37.5 11 z" />
         <glyph glyph-name="Uhungarumlaut" unicode="Ű" d="M107 20q-39 34 -39 115q0 55 21 158l107 507h42l-108 -511q-20 -92 -20 -144q0 -66 29.5 -93t96.5 -27q65 0 107 25t70 82.5t50 160.5l107 507h42l-108 -511q-25 -118 -57.5 -183t-82 -92.5t-129.5 -27.5q-89 0 -128 34zM442 988l-152 -113l-22 29l151 113zM602 988 l-151 -113l-23 29l151 113z" />
         <glyph glyph-name="Umacron" unicode="Ū" d="M107 20q-39 34 -39 115q0 55 21 158l107 507h42l-108 -511q-20 -92 -20 -144q0 -66 29.5 -93t96.5 -27q65 0 107 25t70 82.5t50 160.5l107 507h42l-108 -511q-25 -118 -57.5 -183t-82 -92.5t-129.5 -27.5q-89 0 -128 34zM561 913h-266l8 38h266z" />
         <glyph glyph-name="Uogonek" unicode="Ų" d="M570 800h42l-108 -511q-22 -104 -49 -165.5t-66.5 -93.5t-98.5 -40l-22 -13q-51 -30 -77.5 -51.5t-26.5 -42.5q0 -18 16.5 -29t42.5 -11q16 0 35 7t32 18l13 -39q-15 -11 -36.5 -18t-43.5 -7q-48 0 -74.5 17t-26.5 53q0 26 30 54t83 58q-89 0 -128 34t-39 115 q0 55 21 158l107 507h42l-108 -511q-20 -92 -20 -144q0 -66 29.5 -93t96.5 -27q65 0 107 25t70 82.5t50 160.5z" />
         <glyph glyph-name="Uring" unicode="Ů" d="M107 20q-39 34 -39 115q0 55 21 158l107 507h42l-108 -511q-20 -92 -20 -144q0 -66 29.5 -93t96.5 -27q65 0 107 25t70 82.5t50 160.5l107 507h42l-108 -511q-25 -118 -57.5 -183t-82 -92.5t-129.5 -27.5q-89 0 -128 34zM317.5 778.5q-23.5 15.5 -23.5 54.5q0 17 5 45 q10 43 25.5 65.5t42 32.5t72.5 10q58 0 82.5 -15.5t24.5 -53.5q0 -19 -6 -46q-9 -42 -24 -65t-43 -33t-75 -10q-57 0 -80.5 15.5zM468.5 819q22.5 17 30.5 59q4 15 4 28q0 22 -15 31.5t-50 9.5q-45 0 -67 -17t-31 -59q-3 -15 -3 -27q0 -23 14.5 -32.5t48.5 -9.5 q46 0 68.5 17z" />
         <glyph glyph-name="Utilde" unicode="Ũ" d="M107 20q-39 34 -39 115q0 55 21 158l107 507h42l-108 -511q-20 -92 -20 -144q0 -66 29.5 -93t96.5 -27q65 0 107 25t70 82.5t50 160.5l107 507h42l-108 -511q-25 -118 -57.5 -183t-82 -92.5t-129.5 -27.5q-89 0 -128 34zM456.5 899q-14.5 11 -32.5 33q-14 17 -24 25 t-24 8q-23 0 -33 -12t-18 -39h-41q11 42 35.5 66t57.5 24q21 0 35.5 -11t32.5 -32q15 -17 26 -25.5t24 -8.5q23 0 33 12t16 36h41q-10 -40 -34.5 -63.5t-56.5 -23.5q-23 0 -37.5 11z" />
         <glyph glyph-name="V" unicode="V" d="M260 0h-50l-46 800h45l40 -725l350 725h47z" />
         <glyph glyph-name="W" unicode="W" d="M124 0h-43l63 800h42l-59 -707l199 439h43l10 -439l243 707h44l-277 -800h-44l-11 462z" />
         <glyph glyph-name="Wacute" unicode="Ẃ" d="M124 0h-43l63 800h42l-59 -707l199 439h43l10 -439l243 707h44l-277 -800h-44l-11 462zM563 988l-151 -113l-23 29l151 113z" />
         <glyph glyph-name="Wcircumflex" unicode="Ŵ" d="M124 0h-43l63 800h42l-59 -707l199 439h43l10 -439l243 707h44l-277 -800h-44l-11 462zM549 900l-37 -25l-73 83l-109 -81l-28 25l146 110z" />
         <glyph glyph-name="Wdieresis" unicode="Ẅ" d="M124 0h-43l63 800h42l-59 -707l199 439h43l10 -439l243 707h44l-277 -800h-44l-11 462zM289.5 927.5q-10.5 6.5 -10.5 23.5q0 9 3 22q5 26 16.5 34.5t39.5 8.5q25 0 36 -7t11 -23q0 -8 -3 -20q-5 -27 -16.5 -36t-40.5 -9q-25 0 -35.5 6.5zM505.5 927.5 q-10.5 6.5 -10.5 23.5q0 9 3 22q5 26 16.5 34.5t39.5 8.5q25 0 36 -7t11 -23q0 -8 -3 -20q-5 -27 -16.5 -36t-40.5 -9q-25 0 -35.5 6.5z" />
         <glyph glyph-name="Wgrave" unicode="Ẁ" d="M124 0h-43l63 800h42l-59 -707l199 439h43l10 -439l243 707h44l-277 -800h-44l-11 462zM464 904l-33 -29l-107 113l33 29z" />
         <glyph glyph-name="X" unicode="X" d="M591 800h46l-294 -400l124 -400h-46l-111 356l-262 -356h-46l295 400l-125 400h46l111 -356z" />
         <glyph glyph-name="Y" unicode="Y" d="M255 0h-42l67 310l-127 490h46l112 -438l299 438h47l-335 -490z" />
         <glyph glyph-name="Yacute" unicode="Ý" d="M255 0h-42l67 310l-127 490h46l112 -438l299 438h47l-335 -490zM563 988l-151 -113l-23 29l151 113z" />
         <glyph glyph-name="Ycircumflex" unicode="Ŷ" d="M255 0h-42l67 310l-127 490h46l112 -438l299 438h47l-335 -490zM549 900l-37 -25l-73 83l-109 -81l-28 25l146 110z" />
         <glyph glyph-name="Ydieresis" unicode="Ÿ" d="M255 0h-42l67 310l-127 490h46l112 -438l299 438h47l-335 -490zM289.5 927.5q-10.5 6.5 -10.5 23.5q0 9 3 22q5 26 16.5 34.5t39.5 8.5q25 0 36 -7t11 -23q0 -8 -3 -20q-5 -27 -16.5 -36t-40.5 -9q-25 0 -35.5 6.5zM505.5 927.5q-10.5 6.5 -10.5 23.5q0 9 3 22 q5 26 16.5 34.5t39.5 8.5q25 0 36 -7t11 -23q0 -8 -3 -20q-5 -27 -16.5 -36t-40.5 -9q-25 0 -35.5 6.5z" />
         <glyph glyph-name="uni1EF4" unicode="Ỵ" d="M255 0h-42l67 310l-127 490h46l112 -438l299 438h47l-335 -490zM155 -213q-11 7 -11 23q0 9 3 21q7 27 19.5 37t39.5 10q26 0 37 -7t11 -23q0 -9 -3 -21q-6 -26 -18.5 -36.5t-40.5 -10.5q-26 0 -37 7z" />
         <glyph glyph-name="Ygrave" unicode="Ỳ" d="M255 0h-42l67 310l-127 490h46l112 -438l299 438h47l-335 -490zM464 904l-33 -29l-107 113l33 29z" />
         <glyph glyph-name="uni1EF6" unicode="Ỷ" d="M255 0h-42l67 310l-127 490h46l112 -438l299 438h47l-335 -490zM396 877q34 10 53.5 25.5t23.5 33.5q3 14 -6.5 23t-23.5 9q-24 0 -49 -11t-42 -24l7 50q19 11 42.5 17.5t42.5 6.5q31 0 51 -17.5t20 -45.5q0 -5 -2 -17q-5 -28 -34.5 -51.5t-77.5 -35.5z" />
         <glyph glyph-name="uni1EF8" unicode="Ỹ" d="M255 0h-42l67 310l-127 490h46l112 -438l299 438h47l-335 -490zM456.5 899q-14.5 11 -32.5 33q-14 17 -24 25t-24 8q-23 0 -33 -12t-18 -39h-41q11 42 35.5 66t57.5 24q21 0 35.5 -11t32.5 -32q15 -17 26 -25.5t24 -8.5q23 0 33 12t16 36h41q-10 -40 -34.5 -63.5 t-56.5 -23.5q-23 0 -37.5 11z" />
         <glyph glyph-name="Z" unicode="Z" d="M391 -54q-28 9 -69 26q-50 20 -83 30t-72 10q-15 0 -36 -3q-61 -9 -134 -9l7 36l580 725h-423l8 39h472l-7 -37l-580 -726q29 0 60 7q5 1 23.5 4t38.5 3q43 0 77 -10.5t81 -30.5q43 -18 68.5 -26t54.5 -8q33 0 59 8t62 24q33 15 56.5 22.5t52.5 8.5l-7 -39 q-17 -1 -33 -6.5t-45 -17.5q-40 -19 -74 -29t-79 -10q-30 0 -58 9z" />
         <glyph glyph-name="Zacute" unicode="Ź" d="M391 -54q-28 9 -69 26q-50 20 -83 30t-72 10q-15 0 -36 -3q-61 -9 -134 -9l7 36l580 725h-423l8 39h472l-7 -37l-580 -726q29 0 60 7q5 1 23.5 4t38.5 3q43 0 77 -10.5t81 -30.5q43 -18 68.5 -26t54.5 -8q33 0 59 8t62 24q33 15 56.5 22.5t52.5 8.5l-7 -39 q-17 -1 -33 -6.5t-45 -17.5q-40 -19 -74 -29t-79 -10q-30 0 -58 9zM562 985l-151 -113l-23 29l151 113z" />
         <glyph glyph-name="Zcaron" unicode="Ž" d="M391 -54q-28 9 -69 26q-50 20 -83 30t-72 10q-15 0 -36 -3q-61 -9 -134 -9l7 36l580 725h-423l8 39h472l-7 -37l-580 -726q29 0 60 7q5 1 23.5 4t38.5 3q43 0 77 -10.5t81 -30.5q43 -18 68.5 -26t54.5 -8q33 0 59 8t62 24q33 15 56.5 22.5t52.5 8.5l-7 -39 q-17 -1 -33 -6.5t-45 -17.5q-40 -19 -74 -29t-79 -10q-30 0 -58 9zM570 993l-147 -112l-103 110l37 25l75 -81l109 83z" />
         <glyph glyph-name="Zdotaccent" unicode="Ż" d="M391 -54q-28 9 -69 26q-50 20 -83 30t-72 10q-15 0 -36 -3q-61 -9 -134 -9l7 36l580 725h-423l8 39h472l-7 -37l-580 -726q29 0 60 7q5 1 23.5 4t38.5 3q43 0 77 -10.5t81 -30.5q43 -18 68.5 -26t54.5 -8q33 0 59 8t62 24q33 15 56.5 22.5t52.5 8.5l-7 -39 q-17 -1 -33 -6.5t-45 -17.5q-40 -19 -74 -29t-79 -10q-30 0 -58 9zM398 940q-11 7 -11 23q0 9 3 21q7 27 19.5 37t39.5 10q26 0 37 -7t11 -23q0 -9 -3 -21q-6 -26 -18.5 -36.5t-40.5 -10.5q-26 0 -37 7z" />
         <glyph glyph-name="a" unicode="a" d="M514 12q-15 -12 -37.5 -19t-45.5 -7q-29 0 -47.5 15.5t-18.5 40.5q1 51 11 81q-29 -62 -77 -99.5t-99 -37.5q-74 0 -119.5 47t-45.5 123q0 98 51 210.5t128 189t149 76.5q67 0 104.5 -18.5t37.5 -65.5q0 -11 -22.5 -121.5t-70.5 -335.5q-3 -16 -3 -29q0 -19 8.5 -28 t29.5 -9q26 0 46 17zM316.5 88q56.5 63 88.5 169q27 120 42 198t15 91q0 27 -22.5 37t-74.5 10q-60 0 -127.5 -71.5t-113.5 -175.5t-46 -191q0 -59 32.5 -94.5t87.5 -35.5q62 0 118.5 63z" />
         <glyph glyph-name="aacute" unicode="á" d="M514 12q-15 -12 -37.5 -19t-45.5 -7q-29 0 -47.5 15.5t-18.5 40.5q1 51 11 81q-29 -62 -77 -99.5t-99 -37.5q-74 0 -119.5 47t-45.5 123q0 98 51 210.5t128 189t149 76.5q67 0 104.5 -18.5t37.5 -65.5q0 -11 -22.5 -121.5t-70.5 -335.5q-3 -16 -3 -29q0 -19 8.5 -28 t29.5 -9q26 0 46 17zM316.5 88q56.5 63 88.5 169q27 120 42 198t15 91q0 27 -22.5 37t-74.5 10q-60 0 -127.5 -71.5t-113.5 -175.5t-46 -191q0 -59 32.5 -94.5t87.5 -35.5q62 0 118.5 63zM524 803l-151 -113l-23 29l151 113z" />
         <glyph glyph-name="abreve" unicode="ă" d="M514 12q-15 -12 -37.5 -19t-45.5 -7q-29 0 -47.5 15.5t-18.5 40.5q1 51 11 81q-29 -62 -77 -99.5t-99 -37.5q-74 0 -119.5 47t-45.5 123q0 98 51 210.5t128 189t149 76.5q67 0 104.5 -18.5t37.5 -65.5q0 -11 -22.5 -121.5t-70.5 -335.5q-3 -16 -3 -29q0 -19 8.5 -28 t29.5 -9q26 0 46 17zM316.5 88q56.5 63 88.5 169q27 120 42 198t15 91q0 27 -22.5 37t-74.5 10q-60 0 -127.5 -71.5t-113.5 -175.5t-46 -191q0 -59 32.5 -94.5t87.5 -35.5q62 0 118.5 63zM306 724q-24 15 -24 52q0 15 5 40h41q-3 -15 -3 -26q0 -24 15 -33.5t49 -9.5 q45 0 67.5 16t30.5 53h41q-9 -42 -24.5 -65t-42.5 -32.5t-74 -9.5q-57 0 -81 15z" />
         <glyph glyph-name="uni1EAF" unicode="ắ" d="M514 12q-15 -12 -37.5 -19t-45.5 -7q-29 0 -47.5 15.5t-18.5 40.5q1 51 11 81q-29 -62 -77 -99.5t-99 -37.5q-74 0 -119.5 47t-45.5 123q0 98 51 210.5t128 189t149 76.5q67 0 104.5 -18.5t37.5 -65.5q0 -11 -22.5 -121.5t-70.5 -335.5q-3 -16 -3 -29q0 -19 8.5 -28 t29.5 -9q26 0 46 17zM316.5 88q56.5 63 88.5 169q27 120 42 198t15 91q0 27 -22.5 37t-74.5 10q-60 0 -127.5 -71.5t-113.5 -175.5t-46 -191q0 -59 32.5 -94.5t87.5 -35.5q62 0 118.5 63zM306 724q-24 15 -24 52q0 15 5 40h41q-3 -15 -3 -26q0 -24 15 -33.5t49 -9.5 q45 0 67.5 16t30.5 53h41q-9 -42 -24.5 -65t-42.5 -32.5t-74 -9.5q-57 0 -81 15zM561 981l-151 -113l-23 29l151 113z" />
         <glyph glyph-name="uni1EB7" unicode="ặ" d="M514 12q-15 -12 -37.5 -19t-45.5 -7q-29 0 -47.5 15.5t-18.5 40.5q1 51 11 81q-29 -62 -77 -99.5t-99 -37.5q-74 0 -119.5 47t-45.5 123q0 98 51 210.5t128 189t149 76.5q67 0 104.5 -18.5t37.5 -65.5q0 -11 -22.5 -121.5t-70.5 -335.5q-3 -16 -3 -29q0 -19 8.5 -28 t29.5 -9q26 0 46 17zM316.5 88q56.5 63 88.5 169q27 120 42 198t15 91q0 27 -22.5 37t-74.5 10q-60 0 -127.5 -71.5t-113.5 -175.5t-46 -191q0 -59 32.5 -94.5t87.5 -35.5q62 0 118.5 63zM155 -210q-11 7 -11 23q0 9 3 21q7 27 19.5 37t39.5 10q26 0 37 -7t11 -23 q0 -9 -3 -21q-6 -26 -18.5 -36.5t-40.5 -10.5q-26 0 -37 7zM306 724q-24 15 -24 52q0 15 5 40h41q-3 -15 -3 -26q0 -24 15 -33.5t49 -9.5q45 0 67.5 16t30.5 53h41q-9 -42 -24.5 -65t-42.5 -32.5t-74 -9.5q-57 0 -81 15z" />
         <glyph glyph-name="uni1EB1" unicode="ằ" d="M514 12q-15 -12 -37.5 -19t-45.5 -7q-29 0 -47.5 15.5t-18.5 40.5q1 51 11 81q-29 -62 -77 -99.5t-99 -37.5q-74 0 -119.5 47t-45.5 123q0 98 51 210.5t128 189t149 76.5q67 0 104.5 -18.5t37.5 -65.5q0 -11 -22.5 -121.5t-70.5 -335.5q-3 -16 -3 -29q0 -19 8.5 -28 t29.5 -9q26 0 46 17zM316.5 88q56.5 63 88.5 169q27 120 42 198t15 91q0 27 -22.5 37t-74.5 10q-60 0 -127.5 -71.5t-113.5 -175.5t-46 -191q0 -59 32.5 -94.5t87.5 -35.5q62 0 118.5 63zM306 724q-24 15 -24 52q0 15 5 40h41q-3 -15 -3 -26q0 -24 15 -33.5t49 -9.5 q45 0 67.5 16t30.5 53h41q-9 -42 -24.5 -65t-42.5 -32.5t-74 -9.5q-57 0 -81 15zM462 897l-33 -29l-107 113l33 29z" />
         <glyph glyph-name="uni1EB3" unicode="ẳ" d="M514 12q-15 -12 -37.5 -19t-45.5 -7q-29 0 -47.5 15.5t-18.5 40.5q1 51 11 81q-29 -62 -77 -99.5t-99 -37.5q-74 0 -119.5 47t-45.5 123q0 98 51 210.5t128 189t149 76.5q67 0 104.5 -18.5t37.5 -65.5q0 -11 -22.5 -121.5t-70.5 -335.5q-3 -16 -3 -29q0 -19 8.5 -28 t29.5 -9q26 0 46 17zM316.5 88q56.5 63 88.5 169q27 120 42 198t15 91q0 27 -22.5 37t-74.5 10q-60 0 -127.5 -71.5t-113.5 -175.5t-46 -191q0 -59 32.5 -94.5t87.5 -35.5q62 0 118.5 63zM306 724q-24 15 -24 52q0 15 5 40h41q-3 -15 -3 -26q0 -24 15 -33.5t49 -9.5 q45 0 67.5 16t30.5 53h41q-9 -42 -24.5 -65t-42.5 -32.5t-74 -9.5q-57 0 -81 15zM394 870q34 10 53.5 25.5t23.5 33.5q3 14 -6.5 23t-23.5 9q-24 0 -49 -11t-42 -24l7 50q19 11 42.5 17.5t42.5 6.5q31 0 51 -17.5t20 -45.5q0 -5 -2 -17q-5 -28 -34.5 -51.5t-77.5 -35.5z" />
         <glyph glyph-name="uni1EB5" unicode="ẵ" d="M514 12q-15 -12 -37.5 -19t-45.5 -7q-29 0 -47.5 15.5t-18.5 40.5q1 51 11 81q-29 -62 -77 -99.5t-99 -37.5q-74 0 -119.5 47t-45.5 123q0 98 51 210.5t128 189t149 76.5q67 0 104.5 -18.5t37.5 -65.5q0 -11 -22.5 -121.5t-70.5 -335.5q-3 -16 -3 -29q0 -19 8.5 -28 t29.5 -9q26 0 46 17zM316.5 88q56.5 63 88.5 169q27 120 42 198t15 91q0 27 -22.5 37t-74.5 10q-60 0 -127.5 -71.5t-113.5 -175.5t-46 -191q0 -59 32.5 -94.5t87.5 -35.5q62 0 118.5 63zM306 724q-24 15 -24 52q0 15 5 40h41q-3 -15 -3 -26q0 -24 15 -33.5t49 -9.5 q45 0 67.5 16t30.5 53h41q-9 -42 -24.5 -65t-42.5 -32.5t-74 -9.5q-57 0 -81 15zM454.5 892q-14.5 11 -32.5 33q-14 17 -24 25t-24 8q-23 0 -33 -12t-18 -39h-41q11 42 35.5 66t57.5 24q21 0 35.5 -11t32.5 -32q15 -17 26 -25.5t24 -8.5q23 0 33 12t16 36h41 q-10 -40 -34.5 -63.5t-56.5 -23.5q-23 0 -37.5 11z" />
         <glyph glyph-name="uni01CE" unicode="ǎ" d="M514 12q-15 -12 -37.5 -19t-45.5 -7q-29 0 -47.5 15.5t-18.5 40.5q1 51 11 81q-29 -62 -77 -99.5t-99 -37.5q-74 0 -119.5 47t-45.5 123q0 98 51 210.5t128 189t149 76.5q67 0 104.5 -18.5t37.5 -65.5q0 -11 -22.5 -121.5t-70.5 -335.5q-3 -16 -3 -29q0 -19 8.5 -28 t29.5 -9q26 0 46 17zM316.5 88q56.5 63 88.5 169q27 120 42 198t15 91q0 27 -22.5 37t-74.5 10q-60 0 -127.5 -71.5t-113.5 -175.5t-46 -191q0 -59 32.5 -94.5t87.5 -35.5q62 0 118.5 63zM532 811l-147 -112l-103 110l37 25l75 -81l109 83z" />
         <glyph glyph-name="acircumflex" unicode="â" d="M514 12q-15 -12 -37.5 -19t-45.5 -7q-29 0 -47.5 15.5t-18.5 40.5q1 51 11 81q-29 -62 -77 -99.5t-99 -37.5q-74 0 -119.5 47t-45.5 123q0 98 51 210.5t128 189t149 76.5q67 0 104.5 -18.5t37.5 -65.5q0 -11 -22.5 -121.5t-70.5 -335.5q-3 -16 -3 -29q0 -19 8.5 -28 t29.5 -9q26 0 46 17zM316.5 88q56.5 63 88.5 169q27 120 42 198t15 91q0 27 -22.5 37t-74.5 10q-60 0 -127.5 -71.5t-113.5 -175.5t-46 -191q0 -59 32.5 -94.5t87.5 -35.5q62 0 118.5 63zM510 715l-37 -25l-73 83l-109 -81l-28 25l146 110z" />
         <glyph glyph-name="uni1EA5" unicode="ấ" d="M514 12q-15 -12 -37.5 -19t-45.5 -7q-29 0 -47.5 15.5t-18.5 40.5q1 51 11 81q-29 -62 -77 -99.5t-99 -37.5q-74 0 -119.5 47t-45.5 123q0 98 51 210.5t128 189t149 76.5q67 0 104.5 -18.5t37.5 -65.5q0 -11 -22.5 -121.5t-70.5 -335.5q-3 -16 -3 -29q0 -19 8.5 -28 t29.5 -9q26 0 46 17zM316.5 88q56.5 63 88.5 169q27 120 42 198t15 91q0 27 -22.5 37t-74.5 10q-60 0 -127.5 -71.5t-113.5 -175.5t-46 -191q0 -59 32.5 -94.5t87.5 -35.5q62 0 118.5 63zM510 715l-37 -25l-73 83l-109 -81l-28 25l146 110zM567 1008l-151 -113l-23 29 l151 113z" />
         <glyph glyph-name="uni1EAD" unicode="ậ" d="M514 12q-15 -12 -37.5 -19t-45.5 -7q-29 0 -47.5 15.5t-18.5 40.5q1 51 11 81q-29 -62 -77 -99.5t-99 -37.5q-74 0 -119.5 47t-45.5 123q0 98 51 210.5t128 189t149 76.5q67 0 104.5 -18.5t37.5 -65.5q0 -11 -22.5 -121.5t-70.5 -335.5q-3 -16 -3 -29q0 -19 8.5 -28 t29.5 -9q26 0 46 17zM316.5 88q56.5 63 88.5 169q27 120 42 198t15 91q0 27 -22.5 37t-74.5 10q-60 0 -127.5 -71.5t-113.5 -175.5t-46 -191q0 -59 32.5 -94.5t87.5 -35.5q62 0 118.5 63zM155 -210q-11 7 -11 23q0 9 3 21q7 27 19.5 37t39.5 10q26 0 37 -7t11 -23 q0 -9 -3 -21q-6 -26 -18.5 -36.5t-40.5 -10.5q-26 0 -37 7zM510 715l-37 -25l-73 83l-109 -81l-28 25l146 110z" />
         <glyph glyph-name="uni1EA7" unicode="ầ" d="M514 12q-15 -12 -37.5 -19t-45.5 -7q-29 0 -47.5 15.5t-18.5 40.5q1 51 11 81q-29 -62 -77 -99.5t-99 -37.5q-74 0 -119.5 47t-45.5 123q0 98 51 210.5t128 189t149 76.5q67 0 104.5 -18.5t37.5 -65.5q0 -11 -22.5 -121.5t-70.5 -335.5q-3 -16 -3 -29q0 -19 8.5 -28 t29.5 -9q26 0 46 17zM316.5 88q56.5 63 88.5 169q27 120 42 198t15 91q0 27 -22.5 37t-74.5 10q-60 0 -127.5 -71.5t-113.5 -175.5t-46 -191q0 -59 32.5 -94.5t87.5 -35.5q62 0 118.5 63zM510 715l-37 -25l-73 83l-109 -81l-28 25l146 110zM468 924l-33 -29l-107 113l33 29z " />
         <glyph glyph-name="uni1EA9" unicode="ẩ" d="M514 12q-15 -12 -37.5 -19t-45.5 -7q-29 0 -47.5 15.5t-18.5 40.5q1 51 11 81q-29 -62 -77 -99.5t-99 -37.5q-74 0 -119.5 47t-45.5 123q0 98 51 210.5t128 189t149 76.5q67 0 104.5 -18.5t37.5 -65.5q0 -11 -22.5 -121.5t-70.5 -335.5q-3 -16 -3 -29q0 -19 8.5 -28 t29.5 -9q26 0 46 17zM316.5 88q56.5 63 88.5 169q27 120 42 198t15 91q0 27 -22.5 37t-74.5 10q-60 0 -127.5 -71.5t-113.5 -175.5t-46 -191q0 -59 32.5 -94.5t87.5 -35.5q62 0 118.5 63zM510 715l-37 -25l-73 83l-109 -81l-28 25l146 110zM400 897q34 10 53.5 25.5 t23.5 33.5q3 14 -6.5 23t-23.5 9q-24 0 -49 -11t-42 -24l7 50q19 11 42.5 17.5t42.5 6.5q31 0 51 -17.5t20 -45.5q0 -5 -2 -17q-5 -28 -34.5 -51.5t-77.5 -35.5z" />
         <glyph glyph-name="uni1EAB" unicode="ẫ" d="M514 12q-15 -12 -37.5 -19t-45.5 -7q-29 0 -47.5 15.5t-18.5 40.5q1 51 11 81q-29 -62 -77 -99.5t-99 -37.5q-74 0 -119.5 47t-45.5 123q0 98 51 210.5t128 189t149 76.5q67 0 104.5 -18.5t37.5 -65.5q0 -11 -22.5 -121.5t-70.5 -335.5q-3 -16 -3 -29q0 -19 8.5 -28 t29.5 -9q26 0 46 17zM316.5 88q56.5 63 88.5 169q27 120 42 198t15 91q0 27 -22.5 37t-74.5 10q-60 0 -127.5 -71.5t-113.5 -175.5t-46 -191q0 -59 32.5 -94.5t87.5 -35.5q62 0 118.5 63zM510 715l-37 -25l-73 83l-109 -81l-28 25l146 110zM460.5 919q-14.5 11 -32.5 33 q-14 17 -24 25t-24 8q-23 0 -33 -12t-18 -39h-41q11 42 35.5 66t57.5 24q21 0 35.5 -11t32.5 -32q15 -17 26 -25.5t24 -8.5q23 0 33 12t16 36h41q-10 -40 -34.5 -63.5t-56.5 -23.5q-23 0 -37.5 11z" />
         <glyph glyph-name="adieresis" unicode="ä" d="M514 12q-15 -12 -37.5 -19t-45.5 -7q-29 0 -47.5 15.5t-18.5 40.5q1 51 11 81q-29 -62 -77 -99.5t-99 -37.5q-74 0 -119.5 47t-45.5 123q0 98 51 210.5t128 189t149 76.5q67 0 104.5 -18.5t37.5 -65.5q0 -11 -22.5 -121.5t-70.5 -335.5q-3 -16 -3 -29q0 -19 8.5 -28 t29.5 -9q26 0 46 17zM316.5 88q56.5 63 88.5 169q27 120 42 198t15 91q0 27 -22.5 37t-74.5 10q-60 0 -127.5 -71.5t-113.5 -175.5t-46 -191q0 -59 32.5 -94.5t87.5 -35.5q62 0 118.5 63zM250.5 742.5q-10.5 6.5 -10.5 23.5q0 9 3 22q5 26 16.5 34.5t39.5 8.5q25 0 36 -7 t11 -23q0 -8 -3 -20q-5 -27 -16.5 -36t-40.5 -9q-25 0 -35.5 6.5zM466.5 742.5q-10.5 6.5 -10.5 23.5q0 9 3 22q5 26 16.5 34.5t39.5 8.5q25 0 36 -7t11 -23q0 -8 -3 -20q-5 -27 -16.5 -36t-40.5 -9q-25 0 -35.5 6.5z" />
         <glyph glyph-name="uni1EA1" unicode="ạ" d="M514 12q-15 -12 -37.5 -19t-45.5 -7q-29 0 -47.5 15.5t-18.5 40.5q1 51 11 81q-29 -62 -77 -99.5t-99 -37.5q-74 0 -119.5 47t-45.5 123q0 98 51 210.5t128 189t149 76.5q67 0 104.5 -18.5t37.5 -65.5q0 -11 -22.5 -121.5t-70.5 -335.5q-3 -16 -3 -29q0 -19 8.5 -28 t29.5 -9q26 0 46 17zM316.5 88q56.5 63 88.5 169q27 120 42 198t15 91q0 27 -22.5 37t-74.5 10q-60 0 -127.5 -71.5t-113.5 -175.5t-46 -191q0 -59 32.5 -94.5t87.5 -35.5q62 0 118.5 63zM155 -210q-11 7 -11 23q0 9 3 21q7 27 19.5 37t39.5 10q26 0 37 -7t11 -23 q0 -9 -3 -21q-6 -26 -18.5 -36.5t-40.5 -10.5q-26 0 -37 7z" />
         <glyph glyph-name="agrave" unicode="à" d="M514 12q-15 -12 -37.5 -19t-45.5 -7q-29 0 -47.5 15.5t-18.5 40.5q1 51 11 81q-29 -62 -77 -99.5t-99 -37.5q-74 0 -119.5 47t-45.5 123q0 98 51 210.5t128 189t149 76.5q67 0 104.5 -18.5t37.5 -65.5q0 -11 -22.5 -121.5t-70.5 -335.5q-3 -16 -3 -29q0 -19 8.5 -28 t29.5 -9q26 0 46 17zM316.5 88q56.5 63 88.5 169q27 120 42 198t15 91q0 27 -22.5 37t-74.5 10q-60 0 -127.5 -71.5t-113.5 -175.5t-46 -191q0 -59 32.5 -94.5t87.5 -35.5q62 0 118.5 63zM425 719l-33 -29l-107 113l33 29z" />
         <glyph glyph-name="uni1EA3" unicode="ả" d="M514 12q-15 -12 -37.5 -19t-45.5 -7q-29 0 -47.5 15.5t-18.5 40.5q1 51 11 81q-29 -62 -77 -99.5t-99 -37.5q-74 0 -119.5 47t-45.5 123q0 98 51 210.5t128 189t149 76.5q67 0 104.5 -18.5t37.5 -65.5q0 -11 -22.5 -121.5t-70.5 -335.5q-3 -16 -3 -29q0 -19 8.5 -28 t29.5 -9q26 0 46 17zM316.5 88q56.5 63 88.5 169q27 120 42 198t15 91q0 27 -22.5 37t-74.5 10q-60 0 -127.5 -71.5t-113.5 -175.5t-46 -191q0 -59 32.5 -94.5t87.5 -35.5q62 0 118.5 63zM357 692q34 10 53.5 25.5t23.5 33.5q3 14 -6.5 23t-23.5 9q-24 0 -49 -11t-42 -24 l7 50q19 11 42.5 17.5t42.5 6.5q31 0 51 -17.5t20 -45.5q0 -5 -2 -17q-5 -28 -34.5 -51.5t-77.5 -35.5z" />
         <glyph glyph-name="amacron" unicode="ā" d="M514 12q-15 -12 -37.5 -19t-45.5 -7q-29 0 -47.5 15.5t-18.5 40.5q1 51 11 81q-29 -62 -77 -99.5t-99 -37.5q-74 0 -119.5 47t-45.5 123q0 98 51 210.5t128 189t149 76.5q67 0 104.5 -18.5t37.5 -65.5q0 -11 -22.5 -121.5t-70.5 -335.5q-3 -16 -3 -29q0 -19 8.5 -28 t29.5 -9q26 0 46 17zM316.5 88q56.5 63 88.5 169q27 120 42 198t15 91q0 27 -22.5 37t-74.5 10q-60 0 -127.5 -71.5t-113.5 -175.5t-46 -191q0 -59 32.5 -94.5t87.5 -35.5q62 0 118.5 63zM522 728h-266l8 38h266z" />
         <glyph glyph-name="aogonek" unicode="ą" d="M445 -149q19 7 32 18l13 -39q-15 -11 -36.5 -18t-43.5 -7q-48 0 -74.5 17t-26.5 53q0 26 30 53.5t82 57.5q-25 3 -40.5 18t-15.5 38q1 51 11 81q-29 -62 -77 -99.5t-99 -37.5q-74 0 -119.5 47t-45.5 123q0 98 51 210.5t128 189t149 76.5q67 0 104.5 -18.5t37.5 -65.5 q0 -11 -22.5 -121.5t-70.5 -335.5q-3 -16 -3 -29q0 -19 8.5 -28t29.5 -9q26 0 46 17l21 -30q-10 -9 -26 -15l-34 -20q-52 -31 -77.5 -51t-25.5 -42q0 -18 16.5 -29t42.5 -11q16 0 35 7zM316.5 88q56.5 63 88.5 169q27 120 42 198t15 91q0 27 -22.5 37t-74.5 10 q-60 0 -127.5 -71.5t-113.5 -175.5t-46 -191q0 -59 32.5 -94.5t87.5 -35.5q62 0 118.5 63z" />
         <glyph glyph-name="aring" unicode="å" d="M514 12q-15 -12 -37.5 -19t-45.5 -7q-29 0 -47.5 15.5t-18.5 40.5q1 51 11 81q-29 -62 -77 -99.5t-99 -37.5q-74 0 -119.5 47t-45.5 123q0 98 51 210.5t128 189t149 76.5q67 0 104.5 -18.5t37.5 -65.5q0 -11 -22.5 -121.5t-70.5 -335.5q-3 -16 -3 -29q0 -19 8.5 -28 t29.5 -9q26 0 46 17zM316.5 88q56.5 63 88.5 169q27 120 42 198t15 91q0 27 -22.5 37t-74.5 10q-60 0 -127.5 -71.5t-113.5 -175.5t-46 -191q0 -59 32.5 -94.5t87.5 -35.5q62 0 118.5 63zM303.5 710.5q-24.5 15.5 -24.5 53.5q0 21 6 46q9 42 24.5 65t42.5 33t73 10 q57 0 82 -16t25 -56q0 -16 -5 -43q-9 -42 -24.5 -65t-43 -33t-74.5 -10q-57 0 -81.5 15.5zM454.5 751q22.5 17 30.5 59q4 15 4 28q0 22 -15 31.5t-50 9.5q-45 0 -67 -17t-30 -59q-4 -15 -4 -28q0 -22 15 -31.5t48 -9.5q46 0 68.5 17z" />
         <glyph glyph-name="atilde" unicode="ã" d="M514 12q-15 -12 -37.5 -19t-45.5 -7q-29 0 -47.5 15.5t-18.5 40.5q1 51 11 81q-29 -62 -77 -99.5t-99 -37.5q-74 0 -119.5 47t-45.5 123q0 98 51 210.5t128 189t149 76.5q67 0 104.5 -18.5t37.5 -65.5q0 -11 -22.5 -121.5t-70.5 -335.5q-3 -16 -3 -29q0 -19 8.5 -28 t29.5 -9q26 0 46 17zM316.5 88q56.5 63 88.5 169q27 120 42 198t15 91q0 27 -22.5 37t-74.5 10q-60 0 -127.5 -71.5t-113.5 -175.5t-46 -191q0 -59 32.5 -94.5t87.5 -35.5q62 0 118.5 63zM417.5 714q-14.5 11 -32.5 33q-14 17 -24 25t-24 8q-23 0 -33 -12t-18 -39h-41 q11 42 35.5 66t57.5 24q21 0 35.5 -11t32.5 -32q15 -17 26 -25.5t24 -8.5q23 0 33 12t16 36h41q-10 -40 -34.5 -63.5t-56.5 -23.5q-23 0 -37.5 11z" />
         <glyph glyph-name="ae" unicode="æ" d="M13 19.5q-30 33.5 -30 92.5q0 25 6 55q17 82 74 131.5t133 49.5h91l15 73q8 42 8 71q0 48 -17 74.5t-48 26.5q-34 0 -70 -27.5t-62 -73.5l-41 14q31 57 78 91.5t94 34.5q41 0 70 -34t33 -90q28 55 71.5 89.5t84.5 34.5q45 0 70 -44.5t25 -124.5q0 -67 -18 -153h-260 q-21 -105 -21 -167q0 -58 20 -88t67 -30q29 0 63 23t46 57l32 -26q-19 -40 -62.5 -66.5t-79.5 -26.5q-53 0 -86 37t-34 101q-14 -39 -42.5 -70.5t-62.5 -49.5t-64 -18q-53 0 -83 33.5zM547 348q12 69 12 121q0 59 -14.5 91.5t-40.5 32.5q-56 0 -104.5 -67t-71.5 -178h219z M194.5 77q44.5 52 63.5 139l20 96h-85q-59 0 -103.5 -42.5t-58.5 -110.5q-5 -28 -5 -46q0 -41 18 -64.5t51 -23.5q55 0 99.5 52z" />
         <glyph glyph-name="b" unicode="b" d="M576 396h-57q-28 -123 -73.5 -215.5t-101 -143.5t-113.5 -51q-85 0 -121.5 41.5t-36.5 120.5q0 42 12 112l116 540h42l-115 -540q-14 -77 -14 -117q0 -58 26 -88t90 -30q47 0 93.5 46.5t86.5 131t67 196.5q-48 -1 -76 21.5t-28 64.5q0 33 21 54.5t59 21.5q41 0 59 -20.5 t18 -64.5q0 -18 -3 -41q17 -1 55 -1zM430 451q19 -12 52 -12q4 26 4 39q0 50 -36 50q-20 0 -29.5 -12t-9.5 -29q0 -24 19 -36z" />
         <glyph glyph-name="c" unicode="c" d="M461 82q-50 -55 -98 -75.5t-133 -20.5q-88 0 -129 36t-41 123q0 64 23 168q21 93 68.5 166t109 113t121.5 40q71 0 108 -21.5t65 -78.5l-38 -16q-22 44 -51 60.5t-83 16.5q-51 0 -104 -36t-94.5 -101.5t-59.5 -150.5q-20 -97 -20 -152q0 -70 29.5 -99t94.5 -29 q70 0 111.5 17.5t86.5 64.5z" />
         <glyph glyph-name="cacute" unicode="ć" d="M461 82q-50 -55 -98 -75.5t-133 -20.5q-88 0 -129 36t-41 123q0 64 23 168q21 93 68.5 166t109 113t121.5 40q71 0 108 -21.5t65 -78.5l-38 -16q-22 44 -51 60.5t-83 16.5q-51 0 -104 -36t-94.5 -101.5t-59.5 -150.5q-20 -97 -20 -152q0 -70 29.5 -99t94.5 -29 q70 0 111.5 17.5t86.5 64.5zM524 803l-151 -113l-23 29l151 113z" />
         <glyph glyph-name="ccaron" unicode="č" d="M461 82q-50 -55 -98 -75.5t-133 -20.5q-88 0 -129 36t-41 123q0 64 23 168q21 93 68.5 166t109 113t121.5 40q71 0 108 -21.5t65 -78.5l-38 -16q-22 44 -51 60.5t-83 16.5q-51 0 -104 -36t-94.5 -101.5t-59.5 -150.5q-20 -97 -20 -152q0 -70 29.5 -99t94.5 -29 q70 0 111.5 17.5t86.5 64.5zM532 811l-147 -112l-103 110l37 25l75 -81l109 83z" />
         <glyph glyph-name="ccedilla" unicode="ç" d="M490 610.5q37 -21.5 65 -78.5l-38 -16q-22 44 -51 60.5t-83 16.5q-51 0 -104 -36t-94.5 -101.5t-59.5 -150.5q-20 -97 -20 -152q0 -70 29.5 -99t94.5 -29q70 0 111.5 17.5t86.5 64.5l34 -25q-48 -53 -93 -73.5t-121 -22.5l-6 -25q28 -7 44 -23.5t16 -37.5q0 -9 -1 -13 q-7 -35 -37.5 -55.5t-74.5 -20.5q-22 0 -43 7t-35 19l24 36q11 -10 26 -16.5t28 -6.5q28 0 48 12t24 31q3 15 -15 23t-51 8l12 63q-76 4 -111 40.5t-35 117.5q0 64 23 168q21 93 68.5 166t109 113t121.5 40q71 0 108 -21.5z" />
         <glyph glyph-name="ccircumflex" unicode="ĉ" d="M461 82q-50 -55 -98 -75.5t-133 -20.5q-88 0 -129 36t-41 123q0 64 23 168q21 93 68.5 166t109 113t121.5 40q71 0 108 -21.5t65 -78.5l-38 -16q-22 44 -51 60.5t-83 16.5q-51 0 -104 -36t-94.5 -101.5t-59.5 -150.5q-20 -97 -20 -152q0 -70 29.5 -99t94.5 -29 q70 0 111.5 17.5t86.5 64.5zM510 715l-37 -25l-73 83l-109 -81l-28 25l146 110z" />
         <glyph glyph-name="cdotaccent" unicode="ċ" d="M461 82q-50 -55 -98 -75.5t-133 -20.5q-88 0 -129 36t-41 123q0 64 23 168q21 93 68.5 166t109 113t121.5 40q71 0 108 -21.5t65 -78.5l-38 -16q-22 44 -51 60.5t-83 16.5q-51 0 -104 -36t-94.5 -101.5t-59.5 -150.5q-20 -97 -20 -152q0 -70 29.5 -99t94.5 -29 q70 0 111.5 17.5t86.5 64.5zM360 758q-11 7 -11 23q0 9 3 21q7 27 19.5 37t39.5 10q26 0 37 -7t11 -23q0 -9 -3 -21q-6 -26 -18.5 -36.5t-40.5 -10.5q-26 0 -37 7z" />
         <glyph glyph-name="d" unicode="d" d="M522 42l21 -30q-15 -12 -37.5 -19t-45.5 -7q-66 0 -66 69q-51 -69 -203 -69q-79 0 -114.5 34t-35.5 117q0 65 23 175q31 146 109.5 233t185.5 87q53 0 89.5 -27.5t43.5 -72.5l57 268h42l-150 -709q-3 -16 -3 -30q0 -18 8.5 -27t29.5 -9q26 0 46 17zM323.5 50.5 q58.5 25.5 79.5 67.5l66 302q3 21 3 41q0 61 -30 96.5t-82 35.5q-92 0 -159.5 -78.5t-95.5 -210.5q-21 -100 -21 -160q0 -65 25.5 -92t80.5 -27q75 0 133.5 25.5z" />
         <glyph glyph-name="eth" unicode="ð" d="M585 765l-90 -44q51 -61 51 -188q0 -107 -37 -284h-1l-1 -5q-32 -129 -105.5 -193.5t-195.5 -64.5q-82 0 -119 30.5t-37 106.5q0 54 16 128q25 117 103.5 188t189.5 71q103 0 141 -45q2 38 2 53q0 124 -52 180l-184 -91l-14 33l168 83q-60 38 -170 38l3 39q146 0 215 -53 l102 51zM372.5 82.5q65.5 59.5 93.5 168.5l4 15l9 48q4 34 4 46q0 59 -31 85.5t-93 26.5q-96 0 -163 -63t-89 -166q-13 -64 -13 -109q0 -61 26.5 -86t84.5 -25q102 0 167.5 59.5z" />
         <glyph glyph-name="dcaron" unicode="ď" d="M522 42l21 -30q-15 -12 -37.5 -19t-45.5 -7q-66 0 -66 69q-51 -69 -203 -69q-79 0 -114.5 34t-35.5 117q0 65 23 175q31 146 109.5 233t185.5 87q53 0 89.5 -27.5t43.5 -72.5l57 268h42l-150 -709q-3 -16 -3 -30q0 -18 8.5 -27t29.5 -9q26 0 46 17zM634 558h-34l43 241 h49zM323.5 50.5q58.5 25.5 79.5 67.5l66 302q3 21 3 41q0 61 -30 96.5t-82 35.5q-92 0 -159.5 -78.5t-95.5 -210.5q-21 -100 -21 -160q0 -65 25.5 -92t80.5 -27q75 0 133.5 25.5z" />
         <glyph glyph-name="dcroat" unicode="đ" d="M567 686l-126 -595q-3 -16 -3 -30q0 -18 8.5 -27t29.5 -9q26 0 46 17l21 -30q-15 -12 -37.5 -19t-45.5 -7q-66 0 -66 69q-51 -69 -203 -69q-79 0 -114.5 34t-35.5 117q0 65 23 175q31 146 109.5 233t185.5 87q53 0 89.5 -27.5t43.5 -72.5l33 154h-110l8 39h110l16 75h42 l-16 -75h79l-8 -39h-79zM469 420q3 21 3 41q0 61 -30 96.5t-82 35.5q-92 0 -159.5 -78.5t-95.5 -210.5q-21 -100 -21 -160q0 -65 25.5 -92t80.5 -27q75 0 133.5 25.5t79.5 67.5z" />
         <glyph glyph-name="e" unicode="e" d="M364.5 51q55.5 23 98.5 62l23 -35q-47 -41 -110.5 -66.5t-121.5 -25.5q-45 0 -81.5 22t-58 62t-21.5 91v26q-39 -13 -51 -26l-22 35q19 17 76 35q10 116 51.5 207.5t107.5 142.5t146 51q60 0 94.5 -30.5t34.5 -94.5q0 -88 -56 -146.5t-129.5 -89.5t-180.5 -62l-27 -8 q-1 -15 -1 -46q0 -55 35.5 -91t86.5 -36t106.5 23zM280.5 549q-55.5 -44 -92 -123.5t-47.5 -180.5q105 30 173 57.5t120.5 78.5t52.5 128q0 41 -25 62.5t-60 21.5q-66 0 -121.5 -44z" />
         <glyph glyph-name="eacute" unicode="é" d="M364.5 51q55.5 23 98.5 62l23 -35q-47 -41 -110.5 -66.5t-121.5 -25.5q-45 0 -81.5 22t-58 62t-21.5 91v26q-39 -13 -51 -26l-22 35q19 17 76 35q10 116 51.5 207.5t107.5 142.5t146 51q60 0 94.5 -30.5t34.5 -94.5q0 -88 -56 -146.5t-129.5 -89.5t-180.5 -62l-27 -8 q-1 -15 -1 -46q0 -55 35.5 -91t86.5 -36t106.5 23zM280.5 549q-55.5 -44 -92 -123.5t-47.5 -180.5q105 30 173 57.5t120.5 78.5t52.5 128q0 41 -25 62.5t-60 21.5q-66 0 -121.5 -44zM524 803l-151 -113l-23 29l151 113z" />
         <glyph glyph-name="ecaron" unicode="ě" d="M364.5 51q55.5 23 98.5 62l23 -35q-47 -41 -110.5 -66.5t-121.5 -25.5q-45 0 -81.5 22t-58 62t-21.5 91v26q-39 -13 -51 -26l-22 35q19 17 76 35q10 116 51.5 207.5t107.5 142.5t146 51q60 0 94.5 -30.5t34.5 -94.5q0 -88 -56 -146.5t-129.5 -89.5t-180.5 -62l-27 -8 q-1 -15 -1 -46q0 -55 35.5 -91t86.5 -36t106.5 23zM280.5 549q-55.5 -44 -92 -123.5t-47.5 -180.5q105 30 173 57.5t120.5 78.5t52.5 128q0 41 -25 62.5t-60 21.5q-66 0 -121.5 -44zM532 811l-147 -112l-103 110l37 25l75 -81l109 83z" />
         <glyph glyph-name="ecircumflex" unicode="ê" d="M364.5 51q55.5 23 98.5 62l23 -35q-47 -41 -110.5 -66.5t-121.5 -25.5q-45 0 -81.5 22t-58 62t-21.5 91v26q-39 -13 -51 -26l-22 35q19 17 76 35q10 116 51.5 207.5t107.5 142.5t146 51q60 0 94.5 -30.5t34.5 -94.5q0 -88 -56 -146.5t-129.5 -89.5t-180.5 -62l-27 -8 q-1 -15 -1 -46q0 -55 35.5 -91t86.5 -36t106.5 23zM280.5 549q-55.5 -44 -92 -123.5t-47.5 -180.5q105 30 173 57.5t120.5 78.5t52.5 128q0 41 -25 62.5t-60 21.5q-66 0 -121.5 -44zM510 715l-37 -25l-73 83l-109 -81l-28 25l146 110z" />
         <glyph glyph-name="uni1EBF" unicode="ế" d="M364.5 51q55.5 23 98.5 62l23 -35q-47 -41 -110.5 -66.5t-121.5 -25.5q-45 0 -81.5 22t-58 62t-21.5 91v26q-39 -13 -51 -26l-22 35q19 17 76 35q10 116 51.5 207.5t107.5 142.5t146 51q60 0 94.5 -30.5t34.5 -94.5q0 -88 -56 -146.5t-129.5 -89.5t-180.5 -62l-27 -8 q-1 -15 -1 -46q0 -55 35.5 -91t86.5 -36t106.5 23zM280.5 549q-55.5 -44 -92 -123.5t-47.5 -180.5q105 30 173 57.5t120.5 78.5t52.5 128q0 41 -25 62.5t-60 21.5q-66 0 -121.5 -44zM510 715l-37 -25l-73 83l-109 -81l-28 25l146 110zM567 1008l-151 -113l-23 29l151 113z " />
         <glyph glyph-name="uni1EC7" unicode="ệ" d="M364.5 51q55.5 23 98.5 62l23 -35q-47 -41 -110.5 -66.5t-121.5 -25.5q-45 0 -81.5 22t-58 62t-21.5 91v26q-39 -13 -51 -26l-22 35q19 17 76 35q10 116 51.5 207.5t107.5 142.5t146 51q60 0 94.5 -30.5t34.5 -94.5q0 -88 -56 -146.5t-129.5 -89.5t-180.5 -62l-27 -8 q-1 -15 -1 -46q0 -55 35.5 -91t86.5 -36t106.5 23zM280.5 549q-55.5 -44 -92 -123.5t-47.5 -180.5q105 30 173 57.5t120.5 78.5t52.5 128q0 41 -25 62.5t-60 21.5q-66 0 -121.5 -44zM155 -210q-11 7 -11 23q0 9 3 21q7 27 19.5 37t39.5 10q26 0 37 -7t11 -23q0 -9 -3 -21 q-6 -26 -18.5 -36.5t-40.5 -10.5q-26 0 -37 7zM510 715l-37 -25l-73 83l-109 -81l-28 25l146 110z" />
         <glyph glyph-name="uni1EC1" unicode="ề" d="M364.5 51q55.5 23 98.5 62l23 -35q-47 -41 -110.5 -66.5t-121.5 -25.5q-45 0 -81.5 22t-58 62t-21.5 91v26q-39 -13 -51 -26l-22 35q19 17 76 35q10 116 51.5 207.5t107.5 142.5t146 51q60 0 94.5 -30.5t34.5 -94.5q0 -88 -56 -146.5t-129.5 -89.5t-180.5 -62l-27 -8 q-1 -15 -1 -46q0 -55 35.5 -91t86.5 -36t106.5 23zM280.5 549q-55.5 -44 -92 -123.5t-47.5 -180.5q105 30 173 57.5t120.5 78.5t52.5 128q0 41 -25 62.5t-60 21.5q-66 0 -121.5 -44zM510 715l-37 -25l-73 83l-109 -81l-28 25l146 110zM468 924l-33 -29l-107 113l33 29z" />
         <glyph glyph-name="uni1EC3" unicode="ể" d="M364.5 51q55.5 23 98.5 62l23 -35q-47 -41 -110.5 -66.5t-121.5 -25.5q-45 0 -81.5 22t-58 62t-21.5 91v26q-39 -13 -51 -26l-22 35q19 17 76 35q10 116 51.5 207.5t107.5 142.5t146 51q60 0 94.5 -30.5t34.5 -94.5q0 -88 -56 -146.5t-129.5 -89.5t-180.5 -62l-27 -8 q-1 -15 -1 -46q0 -55 35.5 -91t86.5 -36t106.5 23zM280.5 549q-55.5 -44 -92 -123.5t-47.5 -180.5q105 30 173 57.5t120.5 78.5t52.5 128q0 41 -25 62.5t-60 21.5q-66 0 -121.5 -44zM510 715l-37 -25l-73 83l-109 -81l-28 25l146 110zM400 897q34 10 53.5 25.5t23.5 33.5 q3 14 -6.5 23t-23.5 9q-24 0 -49 -11t-42 -24l7 50q19 11 42.5 17.5t42.5 6.5q31 0 51 -17.5t20 -45.5q0 -5 -2 -17q-5 -28 -34.5 -51.5t-77.5 -35.5z" />
         <glyph glyph-name="uni1EC5" unicode="ễ" d="M364.5 51q55.5 23 98.5 62l23 -35q-47 -41 -110.5 -66.5t-121.5 -25.5q-45 0 -81.5 22t-58 62t-21.5 91v26q-39 -13 -51 -26l-22 35q19 17 76 35q10 116 51.5 207.5t107.5 142.5t146 51q60 0 94.5 -30.5t34.5 -94.5q0 -88 -56 -146.5t-129.5 -89.5t-180.5 -62l-27 -8 q-1 -15 -1 -46q0 -55 35.5 -91t86.5 -36t106.5 23zM280.5 549q-55.5 -44 -92 -123.5t-47.5 -180.5q105 30 173 57.5t120.5 78.5t52.5 128q0 41 -25 62.5t-60 21.5q-66 0 -121.5 -44zM510 715l-37 -25l-73 83l-109 -81l-28 25l146 110zM460.5 919q-14.5 11 -32.5 33 q-14 17 -24 25t-24 8q-23 0 -33 -12t-18 -39h-41q11 42 35.5 66t57.5 24q21 0 35.5 -11t32.5 -32q15 -17 26 -25.5t24 -8.5q23 0 33 12t16 36h41q-10 -40 -34.5 -63.5t-56.5 -23.5q-23 0 -37.5 11z" />
         <glyph glyph-name="edieresis" unicode="ë" d="M364.5 51q55.5 23 98.5 62l23 -35q-47 -41 -110.5 -66.5t-121.5 -25.5q-45 0 -81.5 22t-58 62t-21.5 91v26q-39 -13 -51 -26l-22 35q19 17 76 35q10 116 51.5 207.5t107.5 142.5t146 51q60 0 94.5 -30.5t34.5 -94.5q0 -88 -56 -146.5t-129.5 -89.5t-180.5 -62l-27 -8 q-1 -15 -1 -46q0 -55 35.5 -91t86.5 -36t106.5 23zM280.5 549q-55.5 -44 -92 -123.5t-47.5 -180.5q105 30 173 57.5t120.5 78.5t52.5 128q0 41 -25 62.5t-60 21.5q-66 0 -121.5 -44zM250.5 742.5q-10.5 6.5 -10.5 23.5q0 9 3 22q5 26 16.5 34.5t39.5 8.5q25 0 36 -7t11 -23 q0 -8 -3 -20q-5 -27 -16.5 -36t-40.5 -9q-25 0 -35.5 6.5zM466.5 742.5q-10.5 6.5 -10.5 23.5q0 9 3 22q5 26 16.5 34.5t39.5 8.5q25 0 36 -7t11 -23q0 -8 -3 -20q-5 -27 -16.5 -36t-40.5 -9q-25 0 -35.5 6.5z" />
         <glyph glyph-name="edotaccent" unicode="ė" d="M364.5 51q55.5 23 98.5 62l23 -35q-47 -41 -110.5 -66.5t-121.5 -25.5q-45 0 -81.5 22t-58 62t-21.5 91v26q-39 -13 -51 -26l-22 35q19 17 76 35q10 116 51.5 207.5t107.5 142.5t146 51q60 0 94.5 -30.5t34.5 -94.5q0 -88 -56 -146.5t-129.5 -89.5t-180.5 -62l-27 -8 q-1 -15 -1 -46q0 -55 35.5 -91t86.5 -36t106.5 23zM280.5 549q-55.5 -44 -92 -123.5t-47.5 -180.5q105 30 173 57.5t120.5 78.5t52.5 128q0 41 -25 62.5t-60 21.5q-66 0 -121.5 -44zM360 758q-11 7 -11 23q0 9 3 21q7 27 19.5 37t39.5 10q26 0 37 -7t11 -23q0 -9 -3 -21 q-6 -26 -18.5 -36.5t-40.5 -10.5q-26 0 -37 7z" />
         <glyph glyph-name="uni1EB9" unicode="ẹ" d="M364.5 51q55.5 23 98.5 62l23 -35q-47 -41 -110.5 -66.5t-121.5 -25.5q-45 0 -81.5 22t-58 62t-21.5 91v26q-39 -13 -51 -26l-22 35q19 17 76 35q10 116 51.5 207.5t107.5 142.5t146 51q60 0 94.5 -30.5t34.5 -94.5q0 -88 -56 -146.5t-129.5 -89.5t-180.5 -62l-27 -8 q-1 -15 -1 -46q0 -55 35.5 -91t86.5 -36t106.5 23zM280.5 549q-55.5 -44 -92 -123.5t-47.5 -180.5q105 30 173 57.5t120.5 78.5t52.5 128q0 41 -25 62.5t-60 21.5q-66 0 -121.5 -44zM155 -210q-11 7 -11 23q0 9 3 21q7 27 19.5 37t39.5 10q26 0 37 -7t11 -23q0 -9 -3 -21 q-6 -26 -18.5 -36.5t-40.5 -10.5q-26 0 -37 7z" />
         <glyph glyph-name="egrave" unicode="è" d="M364.5 51q55.5 23 98.5 62l23 -35q-47 -41 -110.5 -66.5t-121.5 -25.5q-45 0 -81.5 22t-58 62t-21.5 91v26q-39 -13 -51 -26l-22 35q19 17 76 35q10 116 51.5 207.5t107.5 142.5t146 51q60 0 94.5 -30.5t34.5 -94.5q0 -88 -56 -146.5t-129.5 -89.5t-180.5 -62l-27 -8 q-1 -15 -1 -46q0 -55 35.5 -91t86.5 -36t106.5 23zM280.5 549q-55.5 -44 -92 -123.5t-47.5 -180.5q105 30 173 57.5t120.5 78.5t52.5 128q0 41 -25 62.5t-60 21.5q-66 0 -121.5 -44zM425 719l-33 -29l-107 113l33 29z" />
         <glyph glyph-name="uni1EBB" unicode="ẻ" d="M364.5 51q55.5 23 98.5 62l23 -35q-47 -41 -110.5 -66.5t-121.5 -25.5q-45 0 -81.5 22t-58 62t-21.5 91v26q-39 -13 -51 -26l-22 35q19 17 76 35q10 116 51.5 207.5t107.5 142.5t146 51q60 0 94.5 -30.5t34.5 -94.5q0 -88 -56 -146.5t-129.5 -89.5t-180.5 -62l-27 -8 q-1 -15 -1 -46q0 -55 35.5 -91t86.5 -36t106.5 23zM280.5 549q-55.5 -44 -92 -123.5t-47.5 -180.5q105 30 173 57.5t120.5 78.5t52.5 128q0 41 -25 62.5t-60 21.5q-66 0 -121.5 -44zM357 692q34 10 53.5 25.5t23.5 33.5q3 14 -6.5 23t-23.5 9q-24 0 -49 -11t-42 -24l7 50 q19 11 42.5 17.5t42.5 6.5q31 0 51 -17.5t20 -45.5q0 -5 -2 -17q-5 -28 -34.5 -51.5t-77.5 -35.5z" />
         <glyph glyph-name="emacron" unicode="ē" d="M364.5 51q55.5 23 98.5 62l23 -35q-47 -41 -110.5 -66.5t-121.5 -25.5q-45 0 -81.5 22t-58 62t-21.5 91v26q-39 -13 -51 -26l-22 35q19 17 76 35q10 116 51.5 207.5t107.5 142.5t146 51q60 0 94.5 -30.5t34.5 -94.5q0 -88 -56 -146.5t-129.5 -89.5t-180.5 -62l-27 -8 q-1 -15 -1 -46q0 -55 35.5 -91t86.5 -36t106.5 23zM280.5 549q-55.5 -44 -92 -123.5t-47.5 -180.5q105 30 173 57.5t120.5 78.5t52.5 128q0 41 -25 62.5t-60 21.5q-66 0 -121.5 -44zM522 728h-266l8 38h266z" />
         <glyph glyph-name="eogonek" unicode="ę" d="M486 78q-49 -43 -111 -67h1l-39 -24q-52 -30 -78 -51t-26 -42q0 -18 16.5 -29t42.5 -11q16 0 35 7t32 18l13 -39q-15 -11 -36.5 -18t-43.5 -7q-48 0 -74.5 17t-26.5 53q0 45 98 103q-24 -2 -35 -2q-45 0 -81.5 22t-58 62t-21.5 91v26q-39 -13 -51 -26l-22 35q19 17 76 35 q10 116 51.5 207.5t107.5 142.5t146 51q60 0 94.5 -30.5t34.5 -94.5q0 -88 -56 -146.5t-129.5 -89.5t-180.5 -62l-27 -8q-1 -15 -1 -46q0 -55 35.5 -91t86.5 -36t106.5 23t98.5 62zM280.5 549q-55.5 -44 -92 -123.5t-47.5 -180.5q105 30 173 57.5t120.5 78.5t52.5 128 q0 41 -25 62.5t-60 21.5q-66 0 -121.5 -44z" />
         <glyph glyph-name="uni1EBD" unicode="ẽ" d="M364.5 51q55.5 23 98.5 62l23 -35q-47 -41 -110.5 -66.5t-121.5 -25.5q-45 0 -81.5 22t-58 62t-21.5 91v26q-39 -13 -51 -26l-22 35q19 17 76 35q10 116 51.5 207.5t107.5 142.5t146 51q60 0 94.5 -30.5t34.5 -94.5q0 -88 -56 -146.5t-129.5 -89.5t-180.5 -62l-27 -8 q-1 -15 -1 -46q0 -55 35.5 -91t86.5 -36t106.5 23zM280.5 549q-55.5 -44 -92 -123.5t-47.5 -180.5q105 30 173 57.5t120.5 78.5t52.5 128q0 41 -25 62.5t-60 21.5q-66 0 -121.5 -44zM417.5 714q-14.5 11 -32.5 33q-14 17 -24 25t-24 8q-23 0 -33 -12t-18 -39h-41 q11 42 35.5 66t57.5 24q21 0 35.5 -11t32.5 -32q15 -17 26 -25.5t24 -8.5q23 0 33 12t16 36h41q-10 -40 -34.5 -63.5t-56.5 -23.5q-23 0 -37.5 11z" />
         <glyph glyph-name="f" unicode="f" horiz-adv-x="602" d="M120.5 -178.5q-25.5 27.5 -25.5 72.5q0 66 21 182t55 236q-53 31 -78 51.5t-25 42.5q0 32 70 32h74q39 128 70.5 206t73.5 124t98 46q69 0 103.5 -34t45.5 -97l-38 -12q-8 51 -29.5 77.5t-71.5 26.5q-49 0 -83.5 -41t-60 -105t-66.5 -191h251l-8 -38h-257 q-12 -37 -21 -68q72 -54 111 -117t39 -139q0 -84 -22.5 -148t-64 -99t-95.5 -35q-41 0 -66.5 27.5zM198 397q-8 -1 -22 1t-20 3q-7 1 -16.5 2t-19.5 1q-11 0 -13 -3q-4 -6 11 -15.5t44 -23.5q4 -1 21 -10zM259 -136.5q32 30.5 49.5 85.5t17.5 128q0 66 -31 117t-90 98 q-30 -111 -48.5 -223t-18.5 -179q0 -25 13 -41t33 -16q43 0 75 30.5z" />
         <glyph glyph-name="g" unicode="g" d="M39.5 -187.5q-28.5 18.5 -28.5 48.5q0 52 97.5 82t266.5 30q27 41 44 139q-9 -28 -67.5 -47t-116.5 -19q-74 0 -119.5 47.5t-45.5 125.5q0 98 53.5 194.5t133 157.5t152.5 61q67 0 104.5 -18.5t37.5 -65.5q0 -24 -28 -160.5t-60 -267.5t-42 -147h21.5t33 1.5t30.5 5.5 l-7 -37q-22 -6 -43 -7t-54 -1q-36 -64 -115 -102.5t-172 -38.5q-47 0 -75.5 18.5zM338 94.5q40 9.5 66 38.5t38 86l11 51q24 107 39.5 182t15.5 91q0 25 -10 35.5t-28 12.5t-59 2q-61 0 -131 -56.5t-118.5 -144.5t-48.5 -174q0 -59 33 -96t87 -37q65 0 105 9.5zM255.5 -139 q64.5 28 102.5 74q-139 -3 -222 -23.5t-82 -51.5q0 -13 19 -20t52 -7q66 0 130.5 28z" />
         <glyph glyph-name="gbreve" unicode="ğ" d="M39.5 -187.5q-28.5 18.5 -28.5 48.5q0 52 97.5 82t266.5 30q27 41 44 139q-9 -28 -67.5 -47t-116.5 -19q-74 0 -119.5 47.5t-45.5 125.5q0 98 53.5 194.5t133 157.5t152.5 61q67 0 104.5 -18.5t37.5 -65.5q0 -24 -28 -160.5t-60 -267.5t-42 -147h21.5t33 1.5t30.5 5.5 l-7 -37q-22 -6 -43 -7t-54 -1q-36 -64 -115 -102.5t-172 -38.5q-47 0 -75.5 18.5zM338 94.5q40 9.5 66 38.5t38 86l11 51q24 107 39.5 182t15.5 91q0 25 -10 35.5t-28 12.5t-59 2q-61 0 -131 -56.5t-118.5 -144.5t-48.5 -174q0 -59 33 -96t87 -37q65 0 105 9.5zM255.5 -139 q64.5 28 102.5 74q-139 -3 -222 -23.5t-82 -51.5q0 -13 19 -20t52 -7q66 0 130.5 28zM316 724q-24 15 -24 52q0 15 5 40h41q-3 -15 -3 -26q0 -24 15 -33.5t49 -9.5q45 0 67.5 16t30.5 53h41q-9 -42 -24.5 -65t-42.5 -32.5t-74 -9.5q-57 0 -81 15z" />
         <glyph glyph-name="gcircumflex" unicode="ĝ" d="M39.5 -187.5q-28.5 18.5 -28.5 48.5q0 52 97.5 82t266.5 30q27 41 44 139q-9 -28 -67.5 -47t-116.5 -19q-74 0 -119.5 47.5t-45.5 125.5q0 98 53.5 194.5t133 157.5t152.5 61q67 0 104.5 -18.5t37.5 -65.5q0 -24 -28 -160.5t-60 -267.5t-42 -147h21.5t33 1.5t30.5 5.5 l-7 -37q-22 -6 -43 -7t-54 -1q-36 -64 -115 -102.5t-172 -38.5q-47 0 -75.5 18.5zM338 94.5q40 9.5 66 38.5t38 86l11 51q24 107 39.5 182t15.5 91q0 25 -10 35.5t-28 12.5t-59 2q-61 0 -131 -56.5t-118.5 -144.5t-48.5 -174q0 -59 33 -96t87 -37q65 0 105 9.5zM255.5 -139 q64.5 28 102.5 74q-139 -3 -222 -23.5t-82 -51.5q0 -13 19 -20t52 -7q66 0 130.5 28zM520 715l-37 -25l-73 83l-109 -81l-28 25l146 110z" />
         <glyph glyph-name="uni0123" unicode="ģ" d="M39.5 -187.5q-28.5 18.5 -28.5 48.5q0 52 97.5 82t266.5 30q27 41 44 139q-9 -28 -67.5 -47t-116.5 -19q-74 0 -119.5 47.5t-45.5 125.5q0 98 53.5 194.5t133 157.5t152.5 61q67 0 104.5 -18.5t37.5 -65.5q0 -24 -28 -160.5t-60 -267.5t-42 -147h21.5t33 1.5t30.5 5.5 l-7 -37q-22 -6 -43 -7t-54 -1q-36 -64 -115 -102.5t-172 -38.5q-47 0 -75.5 18.5zM338 94.5q40 9.5 66 38.5t38 86l11 51q24 107 39.5 182t15.5 91q0 25 -10 35.5t-28 12.5t-59 2q-61 0 -131 -56.5t-118.5 -144.5t-48.5 -174q0 -59 33 -96t87 -37q65 0 105 9.5zM255.5 -139 q64.5 28 102.5 74q-139 -3 -222 -23.5t-82 -51.5q0 -13 19 -20t52 -7q66 0 130.5 28zM354.5 667.5q-8.5 5.5 -8.5 18.5q0 3 2 17q6 25 35 68t67 88l32 -2l-75 -120q22 -3 22 -24q0 -3 -2 -17q-4 -21 -12.5 -27.5t-31.5 -6.5q-20 0 -28.5 5.5z" />
         <glyph glyph-name="gdotaccent" unicode="ġ" d="M39.5 -187.5q-28.5 18.5 -28.5 48.5q0 52 97.5 82t266.5 30q27 41 44 139q-9 -28 -67.5 -47t-116.5 -19q-74 0 -119.5 47.5t-45.5 125.5q0 98 53.5 194.5t133 157.5t152.5 61q67 0 104.5 -18.5t37.5 -65.5q0 -24 -28 -160.5t-60 -267.5t-42 -147h21.5t33 1.5t30.5 5.5 l-7 -37q-22 -6 -43 -7t-54 -1q-36 -64 -115 -102.5t-172 -38.5q-47 0 -75.5 18.5zM338 94.5q40 9.5 66 38.5t38 86l11 51q24 107 39.5 182t15.5 91q0 25 -10 35.5t-28 12.5t-59 2q-61 0 -131 -56.5t-118.5 -144.5t-48.5 -174q0 -59 33 -96t87 -37q65 0 105 9.5zM255.5 -139 q64.5 28 102.5 74q-139 -3 -222 -23.5t-82 -51.5q0 -13 19 -20t52 -7q66 0 130.5 28zM370 758q-11 7 -11 23q0 9 3 21q7 27 19.5 37t39.5 10q26 0 37 -7t11 -23q0 -9 -3 -21q-6 -26 -18.5 -36.5t-40.5 -10.5q-26 0 -37 7z" />
         <glyph glyph-name="h" unicode="h" d="M528 12q-15 -12 -37.5 -19t-45.5 -7q-31 0 -49.5 15t-18.5 40q0 43 23 145t60 221q17 55 17 97q0 47 -23.5 68t-68.5 21q-53 0 -109.5 -50.5t-98 -122.5t-53.5 -130l-62 -290h-43l170 800h42l-78 -366q45 90 105 144t126 54q140 0 140 -119q0 -44 -21 -109 q-36 -112 -58.5 -207t-22.5 -136q0 -16 11 -26t28 -10q26 0 46 17z" />
         <glyph glyph-name="hbar" unicode="ħ" d="M528 12q-15 -12 -37.5 -19t-45.5 -7q-31 0 -49.5 15t-18.5 40q0 43 23 145t60 221q17 55 17 97q0 47 -23.5 68t-68.5 21q-53 0 -109.5 -50.5t-98 -122.5t-53.5 -130l-62 -290h-43l146 686h-62l8 39h62l16 75h42l-16 -75h128l-9 -39h-127l-54 -252q45 90 105 144t126 54 q140 0 140 -119q0 -44 -21 -109q-36 -112 -58.5 -207t-22.5 -136q0 -16 11 -26t28 -10q26 0 46 17z" />
         <glyph glyph-name="hcircumflex" unicode="ĥ" d="M528 12q-15 -12 -37.5 -19t-45.5 -7q-31 0 -49.5 15t-18.5 40q0 43 23 145t60 221q17 55 17 97q0 47 -23.5 68t-68.5 21q-53 0 -109.5 -50.5t-98 -122.5t-53.5 -130l-62 -290h-43l170 800h42l-78 -366q45 90 105 144t126 54q140 0 140 -119q0 -44 -21 -109 q-36 -112 -58.5 -207t-22.5 -136q0 -16 11 -26t28 -10q26 0 46 17zM345 844l-37 -25l-73 83l-109 -81l-28 25l146 110z" />
         <glyph glyph-name="i" unicode="i" d="M218.5 17q-39.5 31 -39.5 104q0 59 23 141l65 235q3 14 3 26q0 46 -51 56l10 39q84 -18 84 -89q0 -13 -1 -19l-67 -248q-21 -78 -21 -127q0 -59 28 -84.5t86 -25.5q38 0 65 16t58 58l35 -24q-40 -50 -73.5 -69.5t-82.5 -19.5q-82 0 -121.5 31zM297 758q-11 7 -11 23 q0 9 3 21q7 27 19.5 37t39.5 10q26 0 37 -7t11 -23q0 -9 -3 -21q-6 -26 -18.5 -36.5t-40.5 -10.5q-26 0 -37 7z" />
         <glyph glyph-name="dotlessi" unicode="ı" d="M218.5 17q-39.5 31 -39.5 104q0 59 23 141l65 235q3 14 3 26q0 46 -51 56l10 39q84 -18 84 -89q0 -13 -1 -19l-67 -248q-21 -78 -21 -127q0 -59 28 -84.5t86 -25.5q38 0 65 16t58 58l35 -24q-40 -50 -73.5 -69.5t-82.5 -19.5q-82 0 -121.5 31z" />
         <glyph glyph-name="iacute" unicode="í" d="M218.5 17q-39.5 31 -39.5 104q0 59 23 141l65 235q3 14 3 26q0 46 -51 56l10 39q84 -18 84 -89q0 -13 -1 -19l-67 -248q-21 -78 -21 -127q0 -59 28 -84.5t86 -25.5q38 0 65 16t58 58l35 -24q-40 -50 -73.5 -69.5t-82.5 -19.5q-82 0 -121.5 31zM461 803l-151 -113l-23 29 l151 113z" />
         <glyph glyph-name="uni01D0" unicode="ǐ" d="M218.5 17q-39.5 31 -39.5 104q0 59 23 141l65 235q3 14 3 26q0 46 -51 56l10 39q84 -18 84 -89q0 -13 -1 -19l-67 -248q-21 -78 -21 -127q0 -59 28 -84.5t86 -25.5q38 0 65 16t58 58l35 -24q-40 -50 -73.5 -69.5t-82.5 -19.5q-82 0 -121.5 31zM469 811l-147 -112 l-103 110l37 25l75 -81l109 83z" />
         <glyph glyph-name="icircumflex" unicode="î" d="M218.5 17q-39.5 31 -39.5 104q0 59 23 141l65 235q3 14 3 26q0 46 -51 56l10 39q84 -18 84 -89q0 -13 -1 -19l-67 -248q-21 -78 -21 -127q0 -59 28 -84.5t86 -25.5q38 0 65 16t58 58l35 -24q-40 -50 -73.5 -69.5t-82.5 -19.5q-82 0 -121.5 31zM447 715l-37 -25l-73 83 l-109 -81l-28 25l146 110z" />
         <glyph glyph-name="idieresis" unicode="ï" d="M218.5 17q-39.5 31 -39.5 104q0 59 23 141l65 235q3 14 3 26q0 46 -51 56l10 39q84 -18 84 -89q0 -13 -1 -19l-67 -248q-21 -78 -21 -127q0 -59 28 -84.5t86 -25.5q38 0 65 16t58 58l35 -24q-40 -50 -73.5 -69.5t-82.5 -19.5q-82 0 -121.5 31zM187.5 742.5 q-10.5 6.5 -10.5 23.5q0 9 3 22q5 26 16.5 34.5t39.5 8.5q25 0 36 -7t11 -23q0 -8 -3 -20q-5 -27 -16.5 -36t-40.5 -9q-25 0 -35.5 6.5zM403.5 742.5q-10.5 6.5 -10.5 23.5q0 9 3 22q5 26 16.5 34.5t39.5 8.5q25 0 36 -7t11 -23q0 -8 -3 -20q-5 -27 -16.5 -36t-40.5 -9 q-25 0 -35.5 6.5z" />
         <glyph glyph-name="i.loclTRK" d="M218.5 17q-39.5 31 -39.5 104q0 59 23 141l65 235q3 14 3 26q0 46 -51 56l10 39q84 -18 84 -89q0 -13 -1 -19l-67 -248q-21 -78 -21 -127q0 -59 28 -84.5t86 -25.5q38 0 65 16t58 58l35 -24q-40 -50 -73.5 -69.5t-82.5 -19.5q-82 0 -121.5 31zM297 758q-11 7 -11 23 q0 9 3 21q7 27 19.5 37t39.5 10q26 0 37 -7t11 -23q0 -9 -3 -21q-6 -26 -18.5 -36.5t-40.5 -10.5q-26 0 -37 7z" />
         <glyph glyph-name="uni1ECB" unicode="ị" d="M218.5 17q-39.5 31 -39.5 104q0 59 23 141l65 235q3 14 3 26q0 46 -51 56l10 39q84 -18 84 -89q0 -13 -1 -19l-67 -248q-21 -78 -21 -127q0 -59 28 -84.5t86 -25.5q38 0 65 16t58 58l35 -24q-40 -50 -73.5 -69.5t-82.5 -19.5q-82 0 -121.5 31zM297 758q-11 7 -11 23 q0 9 3 21q7 27 19.5 37t39.5 10q26 0 37 -7t11 -23q0 -9 -3 -21q-6 -26 -18.5 -36.5t-40.5 -10.5q-26 0 -37 7zM228 -210q-11 7 -11 23q0 9 3 21q7 27 19.5 37t39.5 10q26 0 37 -7t11 -23q0 -9 -3 -21q-6 -26 -18.5 -36.5t-40.5 -10.5q-26 0 -37 7z" />
         <glyph glyph-name="igrave" unicode="ì" d="M218.5 17q-39.5 31 -39.5 104q0 59 23 141l65 235q3 14 3 26q0 46 -51 56l10 39q84 -18 84 -89q0 -13 -1 -19l-67 -248q-21 -78 -21 -127q0 -59 28 -84.5t86 -25.5q38 0 65 16t58 58l35 -24q-40 -50 -73.5 -69.5t-82.5 -19.5q-82 0 -121.5 31zM362 719l-33 -29l-107 113 l33 29z" />
         <glyph glyph-name="uni1EC9" unicode="ỉ" d="M218.5 17q-39.5 31 -39.5 104q0 59 23 141l65 235q3 14 3 26q0 46 -51 56l10 39q84 -18 84 -89q0 -13 -1 -19l-67 -248q-21 -78 -21 -127q0 -59 28 -84.5t86 -25.5q38 0 65 16t58 58l35 -24q-40 -50 -73.5 -69.5t-82.5 -19.5q-82 0 -121.5 31zM294 692q34 10 53.5 25.5 t23.5 33.5q3 14 -6.5 23t-23.5 9q-24 0 -49 -11t-42 -24l7 50q19 11 42.5 17.5t42.5 6.5q31 0 51 -17.5t20 -45.5q0 -5 -2 -17q-5 -28 -34.5 -51.5t-77.5 -35.5z" />
         <glyph glyph-name="imacron" unicode="ī" d="M218.5 17q-39.5 31 -39.5 104q0 59 23 141l65 235q3 14 3 26q0 46 -51 56l10 39q84 -18 84 -89q0 -13 -1 -19l-67 -248q-21 -78 -21 -127q0 -59 28 -84.5t86 -25.5q38 0 65 16t58 58l35 -24q-40 -50 -73.5 -69.5t-82.5 -19.5q-82 0 -121.5 31zM459 728h-266l8 38h266z " />
         <glyph glyph-name="iogonek" unicode="į" d="M297 758q-11 7 -11 23q0 9 3 21q7 27 19.5 37t39.5 10q26 0 37 -7t11 -23q0 -9 -3 -21q-6 -26 -18.5 -36.5t-40.5 -10.5q-26 0 -37 7zM496 75q-27 -33 -49.5 -52t-46.5 -28l-39 -24q-52 -30 -78 -51t-26 -42q0 -18 16.5 -29t42.5 -11q16 0 35 7t32 18l13 -39 q-15 -11 -36.5 -18t-43.5 -7q-48 0 -74.5 17t-26.5 53q0 27 32.5 56t89.5 61q-81 1 -120 32t-39 103q0 56 24 141l65 235q3 14 3 26q0 46 -51 56l10 39q84 -18 84 -89q0 -13 -1 -19l-67 -248q-21 -78 -21 -127q0 -59 28 -84.5t86 -25.5q38 0 65 16t58 58z" />
         <glyph glyph-name="itilde" unicode="ĩ" d="M218.5 17q-39.5 31 -39.5 104q0 59 23 141l65 235q3 14 3 26q0 46 -51 56l10 39q84 -18 84 -89q0 -13 -1 -19l-67 -248q-21 -78 -21 -127q0 -59 28 -84.5t86 -25.5q38 0 65 16t58 58l35 -24q-40 -50 -73.5 -69.5t-82.5 -19.5q-82 0 -121.5 31zM354.5 714 q-14.5 11 -32.5 33q-14 17 -24 25t-24 8q-23 0 -33 -12t-18 -39h-41q11 42 35.5 66t57.5 24q21 0 35.5 -11t32.5 -32q15 -17 26 -25.5t24 -8.5q23 0 33 12t16 36h41q-10 -40 -34.5 -63.5t-56.5 -23.5q-23 0 -37.5 11z" />
         <glyph glyph-name="j" unicode="j" d="M-20.5 -187.5q-28.5 18.5 -28.5 48.5q0 53 97.5 82.5t267.5 28.5q21 31 120 519q3 15 3 28q0 21 -11 35t-38 21l12 38q81 -21 81 -87q0 -16 -2 -24q-51 -255 -78.5 -377.5t-43.5 -151.5q59 0 87 6l-7 -36q-22 -6 -43 -7t-54 -1q-36 -64 -115 -102.5t-172 -38.5 q-47 0 -75.5 18.5zM195.5 -139q64.5 28 102.5 74q-139 -3 -222 -23.5t-82 -51.5q0 -13 19 -20t52 -7q66 0 130.5 28zM456 758q-11 7 -11 23q0 9 3 21q7 27 19.5 37t39.5 10q26 0 37 -7t11 -23q0 -9 -3 -21q-6 -26 -18.5 -36.5t-40.5 -10.5q-26 0 -37 7z" />
         <glyph glyph-name="uni0237" unicode="ȷ" d="M-20.5 -187.5q-28.5 18.5 -28.5 48.5q0 53 97.5 82.5t267.5 28.5q21 31 120 519q3 15 3 28q0 21 -11 35t-38 21l12 38q81 -21 81 -87q0 -16 -2 -24q-51 -255 -78.5 -377.5t-43.5 -151.5q59 0 87 6l-7 -36q-22 -6 -43 -7t-54 -1q-36 -64 -115 -102.5t-172 -38.5 q-47 0 -75.5 18.5zM195.5 -139q64.5 28 102.5 74q-139 -3 -222 -23.5t-82 -51.5q0 -13 19 -20t52 -7q66 0 130.5 28z" />
         <glyph glyph-name="jcircumflex" unicode="ĵ" d="M-20.5 -187.5q-28.5 18.5 -28.5 48.5q0 53 97.5 82.5t267.5 28.5q21 31 120 519q3 15 3 28q0 21 -11 35t-38 21l12 38q81 -21 81 -87q0 -16 -2 -24q-51 -255 -78.5 -377.5t-43.5 -151.5q59 0 87 6l-7 -36q-22 -6 -43 -7t-54 -1q-36 -64 -115 -102.5t-172 -38.5 q-47 0 -75.5 18.5zM195.5 -139q64.5 28 102.5 74q-139 -3 -222 -23.5t-82 -51.5q0 -13 19 -20t52 -7q66 0 130.5 28zM606 715l-37 -25l-73 83l-109 -81l-28 25l146 110z" />
         <glyph glyph-name="k" unicode="k" d="M446 42q23 17 36 38l29 -29q-26 -34 -47 -49.5t-53 -15.5q-46 0 -65 46.5t-17 134.5q0 34 -13.5 68.5t-36.5 56.5l18 35q67 0 118.5 23t80 63t28.5 93q0 38 -29 62t-69 24q-52 0 -105.5 -36t-96 -101t-63.5 -148l-65 -307h-43l65 303h-1q1 6 5 18l102 479h42l-66 -312 q47 67 107 104.5t119 37.5t100 -34t41 -87q-1 -88 -63.5 -148t-165.5 -72q17 -23 27.5 -56.5t10.5 -64.5v-40q0 -53 6.5 -78t26.5 -25q14 0 37 17z" />
         <glyph glyph-name="uni0137" unicode="ķ" d="M446 42q23 17 36 38l29 -29q-26 -34 -47 -49.5t-53 -15.5q-46 0 -65 46.5t-17 134.5q0 34 -13.5 68.5t-36.5 56.5l18 35q67 0 118.5 23t80 63t28.5 93q0 38 -29 62t-69 24q-52 0 -105.5 -36t-96 -101t-63.5 -148l-65 -307h-43l65 303h-1q1 6 5 18l102 479h42l-66 -312 q47 67 107 104.5t119 37.5t100 -34t41 -87q-1 -88 -63.5 -148t-165.5 -72q17 -23 27.5 -56.5t10.5 -64.5v-40q0 -53 6.5 -78t26.5 -25q14 0 37 17zM205 -126q-11 2 -16.5 7.5t-5.5 17.5l2 16q4 21 12.5 27.5t31.5 6.5q20 0 28.5 -5.5t8.5 -18.5q0 -3 -2 -17 q-6 -25 -35.5 -69t-66.5 -87l-32 2z" />
         <glyph glyph-name="l" unicode="l" d="M396.5 45q33.5 20 59.5 54l34 -24q-32 -40 -74.5 -64.5t-81.5 -24.5q-57 0 -92 41.5t-35 108.5v7q-102 -95 -211 -143l-18 36q118 53 229 164q5 291 52 452.5t143 161.5q43 0 67.5 -33.5t24.5 -91.5q0 -118 -67 -254t-177 -250v-21q-1 -63 22 -101t61 -38q30 0 63.5 20z M325.5 710.5q-30.5 -63.5 -50.5 -183t-24 -280.5q92 104 146.5 222t54.5 220q0 40 -15.5 62.5t-42.5 22.5q-38 0 -68.5 -63.5z" />
         <glyph glyph-name="lacute" unicode="ĺ" d="M396.5 45q33.5 20 59.5 54l34 -24q-32 -40 -74.5 -64.5t-81.5 -24.5q-57 0 -92 41.5t-35 108.5v7q-102 -95 -211 -143l-18 36q118 53 229 164q5 291 52 452.5t143 161.5q43 0 67.5 -33.5t24.5 -91.5q0 -118 -67 -254t-177 -250v-21q-1 -63 22 -101t61 -38q30 0 63.5 20z M325.5 710.5q-30.5 -63.5 -50.5 -183t-24 -280.5q92 104 146.5 222t54.5 220q0 40 -15.5 62.5t-42.5 22.5q-38 0 -68.5 -63.5zM565 985l-151 -113l-23 29l151 113z" />
         <glyph glyph-name="lcaron" unicode="ľ" d="M250 164q-1 -63 22 -101t61 -38q30 0 63.5 20t59.5 54l34 -24q-32 -40 -74.5 -64.5t-81.5 -24.5q-57 0 -92 41.5t-35 108.5v7q-102 -95 -211 -143l-18 36q118 53 229 164q5 291 52 452.5t143 161.5q43 0 67.5 -33.5t24.5 -91.5q0 -118 -67 -254t-177 -250v-21zM537 558 l42 241h50l-59 -241h-33zM325.5 710.5q-30.5 -63.5 -50.5 -183t-24 -280.5q92 104 146.5 222t54.5 220q0 40 -15.5 62.5t-42.5 22.5q-38 0 -68.5 -63.5z" />
         <glyph glyph-name="uni013C" unicode="ļ" d="M396.5 45q33.5 20 59.5 54l34 -24q-32 -40 -74.5 -64.5t-81.5 -24.5q-57 0 -92 41.5t-35 108.5v7q-102 -95 -211 -143l-18 36q118 53 229 164q5 291 52 452.5t143 161.5q43 0 67.5 -33.5t24.5 -91.5q0 -118 -67 -254t-177 -250v-21q-1 -63 22 -101t61 -38q30 0 63.5 20z M325.5 710.5q-30.5 -63.5 -50.5 -183t-24 -280.5q92 104 146.5 222t54.5 220q0 40 -15.5 62.5t-42.5 22.5q-38 0 -68.5 -63.5zM196 -126q-11 2 -16.5 7.5t-5.5 17.5l2 16q4 21 12.5 27.5t31.5 6.5q20 0 28.5 -5.5t8.5 -18.5q0 -3 -2 -17q-6 -25 -35.5 -69t-66.5 -87l-32 2z " />
         <glyph glyph-name="lslash" unicode="ł" d="M250 164q-1 -63 22 -101t61 -38q30 0 63.5 20t59.5 54l34 -24q-32 -40 -74.5 -64.5t-81.5 -24.5q-57 0 -92 41.5t-35 108.5v7q-102 -95 -211 -143l-18 36q118 53 229 164q3 149 14 248l-54 -20l9 41l50 19q42 326 176 326q43 0 67.5 -33.5t24.5 -91.5q0 -53 -13 -105 l61 23l-11 -41l-61 -23q-28 -92 -85.5 -185t-134.5 -173v-21zM323 703.5q-32 -70.5 -51 -198.5l162 61q18 63 18 123q0 40 -15.5 62.5t-42.5 22.5q-39 0 -71 -70.5zM267 466q-11 -92 -16 -219q57 64 100.5 135t68.5 142z" />
         <glyph glyph-name="m" unicode="m" d="M446.5 1q-18.5 15 -18.5 40q0 42 23.5 144.5t60.5 221.5q28 90 28 136q0 26 -10 38t-30 12q-43 0 -71.5 -21t-54 -85t-52.5 -191l-62 -296h-42l85 407l5 24q19 85 19 114q0 25 -10.5 36.5t-33.5 11.5q-41 0 -67 -22t-49 -85t-51 -192l-63 -294h-43l115 537l2 20 q1 17 -8 26.5t-27 9.5q-12 0 -27.5 -5.5t-22.5 -12.5l-21 31q15 12 37.5 19t45.5 7q33 0 46.5 -16.5t13.5 -46.5q0 -15 -3 -33q12 34 45.5 65t75.5 31q45 0 61.5 -18.5t16.5 -51.5q0 -16 -1 -27.5t-2 -18.5q27 57 63 86.5t79 29.5q42 0 63 -21.5t21 -67.5q0 -54 -28 -139 q-36 -112 -58.5 -207t-23.5 -136q0 -16 11 -26t29 -10q11 0 23.5 4.5t21.5 12.5l21 -30q-15 -12 -37.5 -19t-45.5 -7q-31 0 -49.5 15z" />
         <glyph glyph-name="n" unicode="n" d="M535 12q-16 -12 -38 -19t-45 -7q-31 0 -50 15t-19 40q1 41 24 142t60 223q17 57 17 99q0 88 -83 88q-49 0 -102.5 -51t-95 -124t-53.5 -131l-61 -287h-43l114 537l2 22q0 15 -11 24.5t-29 9.5q-11 0 -24.5 -5.5t-20.5 -12.5l-21 31q15 12 37.5 19t45.5 7q26 0 46 -18 t20 -50q0 -14 -2 -22l-22 -107q45 88 103 142.5t117 54.5q130 0 130 -117q0 -45 -21 -111q-36 -111 -58.5 -206.5t-23.5 -136.5q0 -16 11 -26t29 -10q25 0 45 17z" />
         <glyph glyph-name="nacute" unicode="ń" d="M535 12q-16 -12 -38 -19t-45 -7q-31 0 -50 15t-19 40q1 41 24 142t60 223q17 57 17 99q0 88 -83 88q-49 0 -102.5 -51t-95 -124t-53.5 -131l-61 -287h-43l114 537l2 22q0 15 -11 24.5t-29 9.5q-11 0 -24.5 -5.5t-20.5 -12.5l-21 31q15 12 37.5 19t45.5 7q26 0 46 -18 t20 -50q0 -14 -2 -22l-22 -107q45 88 103 142.5t117 54.5q130 0 130 -117q0 -45 -21 -111q-36 -111 -58.5 -206.5t-23.5 -136.5q0 -16 11 -26t29 -10q25 0 45 17zM524 803l-151 -113l-23 29l151 113z" />
         <glyph glyph-name="ncaron" unicode="ň" d="M535 12q-16 -12 -38 -19t-45 -7q-31 0 -50 15t-19 40q1 41 24 142t60 223q17 57 17 99q0 88 -83 88q-49 0 -102.5 -51t-95 -124t-53.5 -131l-61 -287h-43l114 537l2 22q0 15 -11 24.5t-29 9.5q-11 0 -24.5 -5.5t-20.5 -12.5l-21 31q15 12 37.5 19t45.5 7q26 0 46 -18 t20 -50q0 -14 -2 -22l-22 -107q45 88 103 142.5t117 54.5q130 0 130 -117q0 -45 -21 -111q-36 -111 -58.5 -206.5t-23.5 -136.5q0 -16 11 -26t29 -10q25 0 45 17zM532 811l-147 -112l-103 110l37 25l75 -81l109 83z" />
         <glyph glyph-name="uni0146" unicode="ņ" d="M535 12q-16 -12 -38 -19t-45 -7q-31 0 -50 15t-19 40q1 41 24 142t60 223q17 57 17 99q0 88 -83 88q-49 0 -102.5 -51t-95 -124t-53.5 -131l-61 -287h-43l114 537l2 22q0 15 -11 24.5t-29 9.5q-11 0 -24.5 -5.5t-20.5 -12.5l-21 31q15 12 37.5 19t45.5 7q26 0 46 -18 t20 -50q0 -14 -2 -22l-22 -107q45 88 103 142.5t117 54.5q130 0 130 -117q0 -45 -21 -111q-36 -111 -58.5 -206.5t-23.5 -136.5q0 -16 11 -26t29 -10q25 0 45 17zM206 -126q-11 2 -16.5 7.5t-5.5 17.5l2 16q4 21 12.5 27.5t31.5 6.5q20 0 28.5 -5.5t8.5 -18.5q0 -3 -2 -17 q-6 -25 -35.5 -69t-66.5 -87l-32 2z" />
         <glyph glyph-name="eng" unicode="ŋ" d="M535 12q-20 -16 -56 -24q-13 -55 -31.5 -84.5t-49 -42t-80.5 -12.5l4 38q38 0 58.5 7t33 28t23.5 65q-25 4 -39.5 18t-14.5 36q1 41 24 142t60 223q17 57 17 99q0 88 -83 88q-49 0 -102.5 -51t-95 -124t-53.5 -131l-61 -287h-43l114 537l2 22q0 15 -11 24.5t-29 9.5 q-11 0 -24.5 -5.5t-20.5 -12.5l-21 31q15 12 37.5 19t45.5 7q26 0 46 -18t20 -50q0 -14 -2 -22l-22 -107q45 88 103 142.5t117 54.5q130 0 130 -117q0 -45 -21 -111q-36 -111 -58.5 -206.5t-23.5 -136.5q0 -16 11 -26t29 -10q25 0 45 17z" />
         <glyph glyph-name="ntilde" unicode="ñ" d="M535 12q-16 -12 -38 -19t-45 -7q-31 0 -50 15t-19 40q1 41 24 142t60 223q17 57 17 99q0 88 -83 88q-49 0 -102.5 -51t-95 -124t-53.5 -131l-61 -287h-43l114 537l2 22q0 15 -11 24.5t-29 9.5q-11 0 -24.5 -5.5t-20.5 -12.5l-21 31q15 12 37.5 19t45.5 7q26 0 46 -18 t20 -50q0 -14 -2 -22l-22 -107q45 88 103 142.5t117 54.5q130 0 130 -117q0 -45 -21 -111q-36 -111 -58.5 -206.5t-23.5 -136.5q0 -16 11 -26t29 -10q25 0 45 17zM417.5 714q-14.5 11 -32.5 33q-14 17 -24 25t-24 8q-23 0 -33 -12t-18 -39h-41q11 42 35.5 66t57.5 24 q21 0 35.5 -11t32.5 -32q15 -17 26 -25.5t24 -8.5q23 0 33 12t16 36h41q-10 -40 -34.5 -63.5t-56.5 -23.5q-23 0 -37.5 11z" />
         <glyph glyph-name="o" unicode="o" d="M106 21.5q-40 35.5 -40 120.5q0 64 23 171q20 95 61.5 167.5t97 112t116.5 39.5q90 0 129.5 -35.5t39.5 -121.5q0 -62 -22 -170q-20 -95 -61 -167.5t-96.5 -112t-117.5 -39.5q-90 0 -130 35.5zM333.5 60.5q46.5 35.5 82 100.5t53.5 152q21 99 21 157q0 68 -29 95.5 t-96 27.5q-52 0 -99 -35.5t-82 -100.5t-53 -152q-21 -97 -21 -157q0 -68 29 -95.5t96 -27.5q52 0 98.5 35.5z" />
         <glyph glyph-name="oacute" unicode="ó" d="M106 21.5q-40 35.5 -40 120.5q0 64 23 171q20 95 61.5 167.5t97 112t116.5 39.5q90 0 129.5 -35.5t39.5 -121.5q0 -62 -22 -170q-20 -95 -61 -167.5t-96.5 -112t-117.5 -39.5q-90 0 -130 35.5zM333.5 60.5q46.5 35.5 82 100.5t53.5 152q21 99 21 157q0 68 -29 95.5 t-96 27.5q-52 0 -99 -35.5t-82 -100.5t-53 -152q-21 -97 -21 -157q0 -68 29 -95.5t96 -27.5q52 0 98.5 35.5zM524 803l-151 -113l-23 29l151 113z" />
         <glyph glyph-name="uni01D2" unicode="ǒ" d="M106 21.5q-40 35.5 -40 120.5q0 64 23 171q20 95 61.5 167.5t97 112t116.5 39.5q90 0 129.5 -35.5t39.5 -121.5q0 -62 -22 -170q-20 -95 -61 -167.5t-96.5 -112t-117.5 -39.5q-90 0 -130 35.5zM333.5 60.5q46.5 35.5 82 100.5t53.5 152q21 99 21 157q0 68 -29 95.5 t-96 27.5q-52 0 -99 -35.5t-82 -100.5t-53 -152q-21 -97 -21 -157q0 -68 29 -95.5t96 -27.5q52 0 98.5 35.5zM532 811l-147 -112l-103 110l37 25l75 -81l109 83z" />
         <glyph glyph-name="ocircumflex" unicode="ô" d="M106 21.5q-40 35.5 -40 120.5q0 64 23 171q20 95 61.5 167.5t97 112t116.5 39.5q90 0 129.5 -35.5t39.5 -121.5q0 -62 -22 -170q-20 -95 -61 -167.5t-96.5 -112t-117.5 -39.5q-90 0 -130 35.5zM333.5 60.5q46.5 35.5 82 100.5t53.5 152q21 99 21 157q0 68 -29 95.5 t-96 27.5q-52 0 -99 -35.5t-82 -100.5t-53 -152q-21 -97 -21 -157q0 -68 29 -95.5t96 -27.5q52 0 98.5 35.5zM510 715l-37 -25l-73 83l-109 -81l-28 25l146 110z" />
         <glyph glyph-name="uni1ED1" unicode="ố" d="M106 21.5q-40 35.5 -40 120.5q0 64 23 171q20 95 61.5 167.5t97 112t116.5 39.5q90 0 129.5 -35.5t39.5 -121.5q0 -62 -22 -170q-20 -95 -61 -167.5t-96.5 -112t-117.5 -39.5q-90 0 -130 35.5zM333.5 60.5q46.5 35.5 82 100.5t53.5 152q21 99 21 157q0 68 -29 95.5 t-96 27.5q-52 0 -99 -35.5t-82 -100.5t-53 -152q-21 -97 -21 -157q0 -68 29 -95.5t96 -27.5q52 0 98.5 35.5zM510 715l-37 -25l-73 83l-109 -81l-28 25l146 110zM567 1008l-151 -113l-23 29l151 113z" />
         <glyph glyph-name="uni1ED9" unicode="ộ" d="M106 21.5q-40 35.5 -40 120.5q0 64 23 171q20 95 61.5 167.5t97 112t116.5 39.5q90 0 129.5 -35.5t39.5 -121.5q0 -62 -22 -170q-20 -95 -61 -167.5t-96.5 -112t-117.5 -39.5q-90 0 -130 35.5zM333.5 60.5q46.5 35.5 82 100.5t53.5 152q21 99 21 157q0 68 -29 95.5 t-96 27.5q-52 0 -99 -35.5t-82 -100.5t-53 -152q-21 -97 -21 -157q0 -68 29 -95.5t96 -27.5q52 0 98.5 35.5zM155 -210q-11 7 -11 23q0 9 3 21q7 27 19.5 37t39.5 10q26 0 37 -7t11 -23q0 -9 -3 -21q-6 -26 -18.5 -36.5t-40.5 -10.5q-26 0 -37 7zM510 715l-37 -25l-73 83 l-109 -81l-28 25l146 110z" />
         <glyph glyph-name="uni1ED3" unicode="ồ" d="M106 21.5q-40 35.5 -40 120.5q0 64 23 171q20 95 61.5 167.5t97 112t116.5 39.5q90 0 129.5 -35.5t39.5 -121.5q0 -62 -22 -170q-20 -95 -61 -167.5t-96.5 -112t-117.5 -39.5q-90 0 -130 35.5zM333.5 60.5q46.5 35.5 82 100.5t53.5 152q21 99 21 157q0 68 -29 95.5 t-96 27.5q-52 0 -99 -35.5t-82 -100.5t-53 -152q-21 -97 -21 -157q0 -68 29 -95.5t96 -27.5q52 0 98.5 35.5zM510 715l-37 -25l-73 83l-109 -81l-28 25l146 110zM468 924l-33 -29l-107 113l33 29z" />
         <glyph glyph-name="uni1ED5" unicode="ổ" d="M106 21.5q-40 35.5 -40 120.5q0 64 23 171q20 95 61.5 167.5t97 112t116.5 39.5q90 0 129.5 -35.5t39.5 -121.5q0 -62 -22 -170q-20 -95 -61 -167.5t-96.5 -112t-117.5 -39.5q-90 0 -130 35.5zM333.5 60.5q46.5 35.5 82 100.5t53.5 152q21 99 21 157q0 68 -29 95.5 t-96 27.5q-52 0 -99 -35.5t-82 -100.5t-53 -152q-21 -97 -21 -157q0 -68 29 -95.5t96 -27.5q52 0 98.5 35.5zM510 715l-37 -25l-73 83l-109 -81l-28 25l146 110zM400 897q34 10 53.5 25.5t23.5 33.5q3 14 -6.5 23t-23.5 9q-24 0 -49 -11t-42 -24l7 50q19 11 42.5 17.5 t42.5 6.5q31 0 51 -17.5t20 -45.5q0 -5 -2 -17q-5 -28 -34.5 -51.5t-77.5 -35.5z" />
         <glyph glyph-name="uni1ED7" unicode="ỗ" d="M106 21.5q-40 35.5 -40 120.5q0 64 23 171q20 95 61.5 167.5t97 112t116.5 39.5q90 0 129.5 -35.5t39.5 -121.5q0 -62 -22 -170q-20 -95 -61 -167.5t-96.5 -112t-117.5 -39.5q-90 0 -130 35.5zM333.5 60.5q46.5 35.5 82 100.5t53.5 152q21 99 21 157q0 68 -29 95.5 t-96 27.5q-52 0 -99 -35.5t-82 -100.5t-53 -152q-21 -97 -21 -157q0 -68 29 -95.5t96 -27.5q52 0 98.5 35.5zM510 715l-37 -25l-73 83l-109 -81l-28 25l146 110zM460.5 919q-14.5 11 -32.5 33q-14 17 -24 25t-24 8q-23 0 -33 -12t-18 -39h-41q11 42 35.5 66t57.5 24 q21 0 35.5 -11t32.5 -32q15 -17 26 -25.5t24 -8.5q23 0 33 12t16 36h41q-10 -40 -34.5 -63.5t-56.5 -23.5q-23 0 -37.5 11z" />
         <glyph glyph-name="odieresis" unicode="ö" d="M106 21.5q-40 35.5 -40 120.5q0 64 23 171q20 95 61.5 167.5t97 112t116.5 39.5q90 0 129.5 -35.5t39.5 -121.5q0 -62 -22 -170q-20 -95 -61 -167.5t-96.5 -112t-117.5 -39.5q-90 0 -130 35.5zM333.5 60.5q46.5 35.5 82 100.5t53.5 152q21 99 21 157q0 68 -29 95.5 t-96 27.5q-52 0 -99 -35.5t-82 -100.5t-53 -152q-21 -97 -21 -157q0 -68 29 -95.5t96 -27.5q52 0 98.5 35.5zM250.5 742.5q-10.5 6.5 -10.5 23.5q0 9 3 22q5 26 16.5 34.5t39.5 8.5q25 0 36 -7t11 -23q0 -8 -3 -20q-5 -27 -16.5 -36t-40.5 -9q-25 0 -35.5 6.5zM466.5 742.5 q-10.5 6.5 -10.5 23.5q0 9 3 22q5 26 16.5 34.5t39.5 8.5q25 0 36 -7t11 -23q0 -8 -3 -20q-5 -27 -16.5 -36t-40.5 -9q-25 0 -35.5 6.5z" />
         <glyph glyph-name="uni1ECD" unicode="ọ" d="M106 21.5q-40 35.5 -40 120.5q0 64 23 171q20 95 61.5 167.5t97 112t116.5 39.5q90 0 129.5 -35.5t39.5 -121.5q0 -62 -22 -170q-20 -95 -61 -167.5t-96.5 -112t-117.5 -39.5q-90 0 -130 35.5zM333.5 60.5q46.5 35.5 82 100.5t53.5 152q21 99 21 157q0 68 -29 95.5 t-96 27.5q-52 0 -99 -35.5t-82 -100.5t-53 -152q-21 -97 -21 -157q0 -68 29 -95.5t96 -27.5q52 0 98.5 35.5zM155 -210q-11 7 -11 23q0 9 3 21q7 27 19.5 37t39.5 10q26 0 37 -7t11 -23q0 -9 -3 -21q-6 -26 -18.5 -36.5t-40.5 -10.5q-26 0 -37 7z" />
         <glyph glyph-name="ograve" unicode="ò" d="M106 21.5q-40 35.5 -40 120.5q0 64 23 171q20 95 61.5 167.5t97 112t116.5 39.5q90 0 129.5 -35.5t39.5 -121.5q0 -62 -22 -170q-20 -95 -61 -167.5t-96.5 -112t-117.5 -39.5q-90 0 -130 35.5zM333.5 60.5q46.5 35.5 82 100.5t53.5 152q21 99 21 157q0 68 -29 95.5 t-96 27.5q-52 0 -99 -35.5t-82 -100.5t-53 -152q-21 -97 -21 -157q0 -68 29 -95.5t96 -27.5q52 0 98.5 35.5zM425 719l-33 -29l-107 113l33 29z" />
         <glyph glyph-name="uni1ECF" unicode="ỏ" d="M106 21.5q-40 35.5 -40 120.5q0 64 23 171q20 95 61.5 167.5t97 112t116.5 39.5q90 0 129.5 -35.5t39.5 -121.5q0 -62 -22 -170q-20 -95 -61 -167.5t-96.5 -112t-117.5 -39.5q-90 0 -130 35.5zM333.5 60.5q46.5 35.5 82 100.5t53.5 152q21 99 21 157q0 68 -29 95.5 t-96 27.5q-52 0 -99 -35.5t-82 -100.5t-53 -152q-21 -97 -21 -157q0 -68 29 -95.5t96 -27.5q52 0 98.5 35.5zM357 692q34 10 53.5 25.5t23.5 33.5q3 14 -6.5 23t-23.5 9q-24 0 -49 -11t-42 -24l7 50q19 11 42.5 17.5t42.5 6.5q31 0 51 -17.5t20 -45.5q0 -5 -2 -17 q-5 -28 -34.5 -51.5t-77.5 -35.5z" />
         <glyph glyph-name="ohorn" unicode="ơ" d="M670 719h42l-27 -128q-10 -53 -44.5 -85t-79.5 -32q-14 0 -28 6q1 -63 -22 -175q-20 -95 -61 -167.5t-96.5 -112t-117.5 -39.5q-90 0 -130 35.5t-40 120.5q0 64 23 171q20 95 61.5 167.5t97 112t116.5 39.5q78 0 117.5 -26t48.5 -87q14 -6 33 -6q28 0 50.5 22.5 t30.5 58.5zM490 470q0 68 -29 95.5t-96 27.5q-52 0 -99 -35.5t-82 -100.5t-53 -152q-21 -97 -21 -157q0 -68 29 -95.5t96 -27.5q52 0 98.5 35.5t82 100.5t53.5 152q21 99 21 157z" />
         <glyph glyph-name="uni1EDB" unicode="ớ" d="M670 719h42l-27 -128q-10 -53 -44.5 -85t-79.5 -32q-14 0 -28 6q1 -63 -22 -175q-20 -95 -61 -167.5t-96.5 -112t-117.5 -39.5q-90 0 -130 35.5t-40 120.5q0 64 23 171q20 95 61.5 167.5t97 112t116.5 39.5q78 0 117.5 -26t48.5 -87q14 -6 33 -6q28 0 50.5 22.5 t30.5 58.5zM490 470q0 68 -29 95.5t-96 27.5q-52 0 -99 -35.5t-82 -100.5t-53 -152q-21 -97 -21 -157q0 -68 29 -95.5t96 -27.5q52 0 98.5 35.5t82 100.5t53.5 152q21 99 21 157zM524 803l-151 -113l-23 29l151 113z" />
         <glyph glyph-name="uni1EE3" unicode="ợ" d="M670 719h42l-27 -128q-10 -53 -44.5 -85t-79.5 -32q-14 0 -28 6q1 -63 -22 -175q-20 -95 -61 -167.5t-96.5 -112t-117.5 -39.5q-90 0 -130 35.5t-40 120.5q0 64 23 171q20 95 61.5 167.5t97 112t116.5 39.5q78 0 117.5 -26t48.5 -87q14 -6 33 -6q28 0 50.5 22.5 t30.5 58.5zM490 470q0 68 -29 95.5t-96 27.5q-52 0 -99 -35.5t-82 -100.5t-53 -152q-21 -97 -21 -157q0 -68 29 -95.5t96 -27.5q52 0 98.5 35.5t82 100.5t53.5 152q21 99 21 157zM155 -210q-11 7 -11 23q0 9 3 21q7 27 19.5 37t39.5 10q26 0 37 -7t11 -23q0 -9 -3 -21 q-6 -26 -18.5 -36.5t-40.5 -10.5q-26 0 -37 7z" />
         <glyph glyph-name="uni1EDD" unicode="ờ" d="M670 719h42l-27 -128q-10 -53 -44.5 -85t-79.5 -32q-14 0 -28 6q1 -63 -22 -175q-20 -95 -61 -167.5t-96.5 -112t-117.5 -39.5q-90 0 -130 35.5t-40 120.5q0 64 23 171q20 95 61.5 167.5t97 112t116.5 39.5q78 0 117.5 -26t48.5 -87q14 -6 33 -6q28 0 50.5 22.5 t30.5 58.5zM490 470q0 68 -29 95.5t-96 27.5q-52 0 -99 -35.5t-82 -100.5t-53 -152q-21 -97 -21 -157q0 -68 29 -95.5t96 -27.5q52 0 98.5 35.5t82 100.5t53.5 152q21 99 21 157zM425 719l-33 -29l-107 113l33 29z" />
         <glyph glyph-name="uni1EDF" unicode="ở" d="M670 719h42l-27 -128q-10 -53 -44.5 -85t-79.5 -32q-14 0 -28 6q1 -63 -22 -175q-20 -95 -61 -167.5t-96.5 -112t-117.5 -39.5q-90 0 -130 35.5t-40 120.5q0 64 23 171q20 95 61.5 167.5t97 112t116.5 39.5q78 0 117.5 -26t48.5 -87q14 -6 33 -6q28 0 50.5 22.5 t30.5 58.5zM490 470q0 68 -29 95.5t-96 27.5q-52 0 -99 -35.5t-82 -100.5t-53 -152q-21 -97 -21 -157q0 -68 29 -95.5t96 -27.5q52 0 98.5 35.5t82 100.5t53.5 152q21 99 21 157zM357 692q34 10 53.5 25.5t23.5 33.5q3 14 -6.5 23t-23.5 9q-24 0 -49 -11t-42 -24l7 50 q19 11 42.5 17.5t42.5 6.5q31 0 51 -17.5t20 -45.5q0 -5 -2 -17q-5 -28 -34.5 -51.5t-77.5 -35.5z" />
         <glyph glyph-name="uni1EE1" unicode="ỡ" d="M670 719h42l-27 -128q-10 -53 -44.5 -85t-79.5 -32q-14 0 -28 6q1 -63 -22 -175q-20 -95 -61 -167.5t-96.5 -112t-117.5 -39.5q-90 0 -130 35.5t-40 120.5q0 64 23 171q20 95 61.5 167.5t97 112t116.5 39.5q78 0 117.5 -26t48.5 -87q14 -6 33 -6q28 0 50.5 22.5 t30.5 58.5zM490 470q0 68 -29 95.5t-96 27.5q-52 0 -99 -35.5t-82 -100.5t-53 -152q-21 -97 -21 -157q0 -68 29 -95.5t96 -27.5q52 0 98.5 35.5t82 100.5t53.5 152q21 99 21 157zM417.5 714q-14.5 11 -32.5 33q-14 17 -24 25t-24 8q-23 0 -33 -12t-18 -39h-41q11 42 35.5 66 t57.5 24q21 0 35.5 -11t32.5 -32q15 -17 26 -25.5t24 -8.5q23 0 33 12t16 36h41q-10 -40 -34.5 -63.5t-56.5 -23.5q-23 0 -37.5 11z" />
         <glyph glyph-name="ohungarumlaut" unicode="ő" d="M106 21.5q-40 35.5 -40 120.5q0 64 23 171q20 95 61.5 167.5t97 112t116.5 39.5q90 0 129.5 -35.5t39.5 -121.5q0 -62 -22 -170q-20 -95 -61 -167.5t-96.5 -112t-117.5 -39.5q-90 0 -130 35.5zM333.5 60.5q46.5 35.5 82 100.5t53.5 152q21 99 21 157q0 68 -29 95.5 t-96 27.5q-52 0 -99 -35.5t-82 -100.5t-53 -152q-21 -97 -21 -157q0 -68 29 -95.5t96 -27.5q52 0 98.5 35.5zM403 803l-152 -113l-22 29l151 113zM563 803l-151 -113l-23 29l151 113z" />
         <glyph glyph-name="omacron" unicode="ō" d="M106 21.5q-40 35.5 -40 120.5q0 64 23 171q20 95 61.5 167.5t97 112t116.5 39.5q90 0 129.5 -35.5t39.5 -121.5q0 -62 -22 -170q-20 -95 -61 -167.5t-96.5 -112t-117.5 -39.5q-90 0 -130 35.5zM333.5 60.5q46.5 35.5 82 100.5t53.5 152q21 99 21 157q0 68 -29 95.5 t-96 27.5q-52 0 -99 -35.5t-82 -100.5t-53 -152q-21 -97 -21 -157q0 -68 29 -95.5t96 -27.5q52 0 98.5 35.5zM522 728h-266l8 38h266z" />
         <glyph glyph-name="oslash" unicode="ø" d="M600 646l-78 -95q11 -33 11 -76q0 -62 -22 -170q-20 -95 -61 -167.5t-96.5 -112t-117.5 -39.5q-52 0 -86 11t-54 35l-48 -59h-50l78 95q-10 29 -10 74q0 64 23 171q20 95 61.5 167.5t97 112t116.5 39.5q51 0 85 -10.5t54 -34.5l48 59h49zM110 146q0 -14 2 -34l361 439 q-27 42 -108 42q-52 0 -99 -35.5t-82 -100.5t-53 -152q-21 -100 -21 -159zM491 472q0 21 -3 37l-361 -440q13 -23 39.5 -33.5t68.5 -10.5q52 0 98.5 35.5t82 100.5t53.5 152q22 104 22 159z" />
         <glyph glyph-name="otilde" unicode="õ" d="M106 21.5q-40 35.5 -40 120.5q0 64 23 171q20 95 61.5 167.5t97 112t116.5 39.5q90 0 129.5 -35.5t39.5 -121.5q0 -62 -22 -170q-20 -95 -61 -167.5t-96.5 -112t-117.5 -39.5q-90 0 -130 35.5zM333.5 60.5q46.5 35.5 82 100.5t53.5 152q21 99 21 157q0 68 -29 95.5 t-96 27.5q-52 0 -99 -35.5t-82 -100.5t-53 -152q-21 -97 -21 -157q0 -68 29 -95.5t96 -27.5q52 0 98.5 35.5zM417.5 714q-14.5 11 -32.5 33q-14 17 -24 25t-24 8q-23 0 -33 -12t-18 -39h-41q11 42 35.5 66t57.5 24q21 0 35.5 -11t32.5 -32q15 -17 26 -25.5t24 -8.5 q23 0 33 12t16 36h41q-10 -40 -34.5 -63.5t-56.5 -23.5q-23 0 -37.5 11z" />
         <glyph glyph-name="oe" unicode="œ" d="M573 587.5q25 -44.5 25 -124.5q0 -67 -18 -153h-257q-24 -103 -24 -170q0 -56 16 -85.5t46 -29.5q23 0 56.5 22t67.5 59l32 -28q-37 -41 -79.5 -66.5t-75.5 -25.5q-42 0 -71 32t-33 84q-25 -52 -70 -84t-91 -32q-48 0 -73.5 43.5t-25.5 121.5q0 73 22 162q23 95 60 167.5 t81 112t90 39.5q94 0 91 -144q25 64 69.5 104t90.5 40t71 -44.5zM202.5 94q47.5 69 76.5 219q20 105 20 173q0 107 -47 107q-55 0 -107 -78t-83 -210q-22 -92 -22 -161q0 -56 15 -87.5t41 -31.5q59 0 106.5 69zM546 347q12 69 12 123q0 58 -14 90.5t-41 32.5 q-52 0 -98 -66.5t-72 -178.5z" />
         <glyph glyph-name="p" unicode="p" d="M514 599q37 -33 37 -113q0 -68 -24 -181q-31 -146 -101.5 -232.5t-163.5 -86.5q-65 0 -107.5 16t-41.5 49l-50 -233h-42l100 469q1 8 5 26q1 7 5 21l42 203q4 15 2 20q1 16 -10 26t-29 10q-26 0 -46 -17l-21 30q15 12 37.5 19t45.5 7q28 0 47 -17.5t19 -54.5 q0 -17 -2 -27q17 44 68.5 71.5t105.5 27.5q87 0 124 -33zM509 481q0 61 -27.5 86.5t-90.5 25.5q-53 0 -92.5 -21t-71.5 -77.5t-54 -159.5l-17 -83q-18 -88 -18 -135q0 -42 13.5 -61.5t38 -25t71.5 -5.5q78 0 137.5 77.5t86.5 210.5q24 114 24 168z" />
         <glyph glyph-name="thorn" unicode="þ" d="M494 598.5q37 -33.5 37 -113.5q0 -60 -24 -180q-30 -146 -101 -232.5t-164 -86.5q-65 0 -107.5 16t-41.5 49l-50 -233h-42l208 982h42l-58 -271q17 46 69.5 74.5t107.5 28.5q87 0 124 -33.5zM489 481q0 61 -27.5 86.5t-90.5 25.5q-56 0 -96 -23t-72.5 -85.5t-56.5 -179.5 q-27 -132 -27 -190q0 -41 12.5 -60.5t37 -24.5t72.5 -5q78 0 137 77.5t87 210.5q24 114 24 168z" />
         <glyph glyph-name="q" unicode="q" d="M515 618h42l-170 -800h-42l56 264q-14 -38 -66.5 -67t-108.5 -29q-87 0 -124 33t-37 113q0 69 24 181q31 146 101.5 232.5t163.5 86.5q72 0 108.5 -24t36.5 -60zM318.5 45.5q39.5 20.5 71.5 79.5t56 169l14 67q18 84 18 132q0 41 -13 62.5t-39 29.5t-71 8 q-78 0 -137.5 -77.5t-86.5 -210.5q-24 -114 -24 -168q0 -61 27.5 -86.5t90.5 -25.5q54 0 93.5 20.5z" />
         <glyph glyph-name="r" unicode="r" d="M440.5 43q25.5 18 39.5 48l40 -17q-19 -40 -54.5 -64t-76.5 -24q-43 0 -69 28.5t-26 74.5q0 88 41.5 208.5t106.5 224.5q-50 -27 -105 -44t-95 -17q-15 0 -22 1q-34 -83 -102 -161l-27 34q59 64 86 133q-45 10 -70.5 33.5t-25.5 55.5q1 34 23.5 54.5t60.5 20.5 q33 0 53.5 -25t20.5 -65q0 -19 -6 -42h7q45 0 114.5 26.5t138.5 70.5l32 -22q-84 -125 -136 -262t-52 -228q0 -27 14 -43.5t36 -16.5q28 0 53.5 18zM144.5 525q16.5 -13 44.5 -20q5 23 5 38q0 45 -34 45q-13 0 -22.5 -9t-9.5 -24q0 -17 16.5 -30z" />
         <glyph glyph-name="racute" unicode="ŕ" d="M440.5 43q25.5 18 39.5 48l40 -17q-19 -40 -54.5 -64t-76.5 -24q-43 0 -69 28.5t-26 74.5q0 88 41.5 208.5t106.5 224.5q-50 -27 -105 -44t-95 -17q-15 0 -22 1q-34 -83 -102 -161l-27 34q59 64 86 133q-45 10 -70.5 33.5t-25.5 55.5q1 34 23.5 54.5t60.5 20.5 q33 0 53.5 -25t20.5 -65q0 -19 -6 -42h7q45 0 114.5 26.5t138.5 70.5l32 -22q-84 -125 -136 -262t-52 -228q0 -27 14 -43.5t36 -16.5q28 0 53.5 18zM144.5 525q16.5 -13 44.5 -20q5 23 5 38q0 45 -34 45q-13 0 -22.5 -9t-9.5 -24q0 -17 16.5 -30zM524 803l-151 -113l-23 29 l151 113z" />
         <glyph glyph-name="rcaron" unicode="ř" d="M440.5 43q25.5 18 39.5 48l40 -17q-19 -40 -54.5 -64t-76.5 -24q-43 0 -69 28.5t-26 74.5q0 88 41.5 208.5t106.5 224.5q-50 -27 -105 -44t-95 -17q-15 0 -22 1q-34 -83 -102 -161l-27 34q59 64 86 133q-45 10 -70.5 33.5t-25.5 55.5q1 34 23.5 54.5t60.5 20.5 q33 0 53.5 -25t20.5 -65q0 -19 -6 -42h7q45 0 114.5 26.5t138.5 70.5l32 -22q-84 -125 -136 -262t-52 -228q0 -27 14 -43.5t36 -16.5q28 0 53.5 18zM144.5 525q16.5 -13 44.5 -20q5 23 5 38q0 45 -34 45q-13 0 -22.5 -9t-9.5 -24q0 -17 16.5 -30zM532 811l-147 -112 l-103 110l37 25l75 -81l109 83z" />
         <glyph glyph-name="uni0157" unicode="ŗ" d="M440.5 43q25.5 18 39.5 48l40 -17q-19 -40 -54.5 -64t-76.5 -24q-43 0 -69 28.5t-26 74.5q0 88 41.5 208.5t106.5 224.5q-50 -27 -105 -44t-95 -17q-15 0 -22 1q-34 -83 -102 -161l-27 34q59 64 86 133q-45 10 -70.5 33.5t-25.5 55.5q1 34 23.5 54.5t60.5 20.5 q33 0 53.5 -25t20.5 -65q0 -19 -6 -42h7q45 0 114.5 26.5t138.5 70.5l32 -22q-84 -125 -136 -262t-52 -228q0 -27 14 -43.5t36 -16.5q28 0 53.5 18zM144.5 525q16.5 -13 44.5 -20q5 23 5 38q0 45 -34 45q-13 0 -22.5 -9t-9.5 -24q0 -17 16.5 -30zM336 -126q-11 2 -16.5 7.5 t-5.5 17.5l2 16q4 21 12.5 27.5t31.5 6.5q20 0 28.5 -5.5t8.5 -18.5q0 -3 -2 -17q-6 -25 -35.5 -69t-66.5 -87l-32 2z" />
         <glyph glyph-name="s" unicode="s" d="M102 14.5q-51 28.5 -82 78.5l37 16q23 -38 63.5 -61t84.5 -23q60 0 103.5 36.5t66 96.5t22.5 131q0 38 -11 78t-29 64q-37 -52 -102 -90t-134 -47l-9 38q65 8 124.5 44.5t93.5 88.5q-27 26 -42.5 54t-16.5 47q1 30 18.5 48t48.5 18q34 0 54 -19t20 -51q0 -21 -9 -47 t-25 -48q28 -34 44.5 -86t16.5 -100q0 -71 -24 -132.5t-69 -106.5q39 12 82.5 34.5t62.5 44.5l27 -27q-44 -49 -126.5 -78.5t-174.5 -29.5q-64 0 -115 28.5zM368 558q0 36 -25 36q-28 0 -28 -28q0 -16 9 -31.5t27 -35.5q17 34 17 59z" />
         <glyph glyph-name="sacute" unicode="ś" d="M102 14.5q-51 28.5 -82 78.5l37 16q23 -38 63.5 -61t84.5 -23q60 0 103.5 36.5t66 96.5t22.5 131q0 38 -11 78t-29 64q-37 -52 -102 -90t-134 -47l-9 38q65 8 124.5 44.5t93.5 88.5q-27 26 -42.5 54t-16.5 47q1 30 18.5 48t48.5 18q34 0 54 -19t20 -51q0 -21 -9 -47 t-25 -48q28 -34 44.5 -86t16.5 -100q0 -71 -24 -132.5t-69 -106.5q39 12 82.5 34.5t62.5 44.5l27 -27q-44 -49 -126.5 -78.5t-174.5 -29.5q-64 0 -115 28.5zM368 558q0 36 -25 36q-28 0 -28 -28q0 -16 9 -31.5t27 -35.5q17 34 17 59zM511 803l-151 -113l-23 29l151 113z" />
         <glyph glyph-name="scaron" unicode="š" d="M102 14.5q-51 28.5 -82 78.5l37 16q23 -38 63.5 -61t84.5 -23q60 0 103.5 36.5t66 96.5t22.5 131q0 38 -11 78t-29 64q-37 -52 -102 -90t-134 -47l-9 38q65 8 124.5 44.5t93.5 88.5q-27 26 -42.5 54t-16.5 47q1 30 18.5 48t48.5 18q34 0 54 -19t20 -51q0 -21 -9 -47 t-25 -48q28 -34 44.5 -86t16.5 -100q0 -71 -24 -132.5t-69 -106.5q39 12 82.5 34.5t62.5 44.5l27 -27q-44 -49 -126.5 -78.5t-174.5 -29.5q-64 0 -115 28.5zM368 558q0 36 -25 36q-28 0 -28 -28q0 -16 9 -31.5t27 -35.5q17 34 17 59zM519 811l-147 -112l-103 110l37 25 l75 -81l109 83z" />
         <glyph glyph-name="scedilla" unicode="ş" d="M518 94q-42 -46 -119 -75.5t-165 -32.5l-6 -25q28 -7 44 -23.5t16 -37.5q0 -9 -1 -13q-7 -34 -38 -55t-75 -21q-21 0 -42 7t-35 19l24 36q10 -10 25.5 -16.5t28.5 -6.5q28 0 48 12t24 31q3 15 -15 23t-51 8l12 63q-56 5 -101 33t-72 73l37 16q23 -38 63.5 -61t84.5 -23 q60 0 103.5 36.5t66 96.5t22.5 131q0 38 -11 78t-29 64q-37 -52 -102 -90t-134 -47l-9 38q65 8 124.5 44.5t93.5 88.5q-27 26 -42.5 54t-16.5 47q1 30 18.5 48t48.5 18q34 0 54 -19t20 -51q0 -21 -9 -47t-25 -48q28 -34 44.5 -86t16.5 -100q0 -71 -24 -132.5t-69 -106.5 q39 12 82.5 34.5t62.5 44.5zM368 558q0 36 -25 36q-28 0 -28 -28q0 -16 9 -31.5t27 -35.5q17 34 17 59z" />
         <glyph glyph-name="scircumflex" unicode="ŝ" d="M102 14.5q-51 28.5 -82 78.5l37 16q23 -38 63.5 -61t84.5 -23q60 0 103.5 36.5t66 96.5t22.5 131q0 38 -11 78t-29 64q-37 -52 -102 -90t-134 -47l-9 38q65 8 124.5 44.5t93.5 88.5q-27 26 -42.5 54t-16.5 47q1 30 18.5 48t48.5 18q34 0 54 -19t20 -51q0 -21 -9 -47 t-25 -48q28 -34 44.5 -86t16.5 -100q0 -71 -24 -132.5t-69 -106.5q39 12 82.5 34.5t62.5 44.5l27 -27q-44 -49 -126.5 -78.5t-174.5 -29.5q-64 0 -115 28.5zM368 558q0 36 -25 36q-28 0 -28 -28q0 -16 9 -31.5t27 -35.5q17 34 17 59zM497 715l-37 -25l-73 83l-109 -81 l-28 25l146 110z" />
         <glyph glyph-name="uni0219" unicode="ș" d="M102 14.5q-51 28.5 -82 78.5l37 16q23 -38 63.5 -61t84.5 -23q60 0 103.5 36.5t66 96.5t22.5 131q0 38 -11 78t-29 64q-37 -52 -102 -90t-134 -47l-9 38q65 8 124.5 44.5t93.5 88.5q-27 26 -42.5 54t-16.5 47q1 30 18.5 48t48.5 18q34 0 54 -19t20 -51q0 -21 -9 -47 t-25 -48q28 -34 44.5 -86t16.5 -100q0 -71 -24 -132.5t-69 -106.5q39 12 82.5 34.5t62.5 44.5l27 -27q-44 -49 -126.5 -78.5t-174.5 -29.5q-64 0 -115 28.5zM368 558q0 36 -25 36q-28 0 -28 -28q0 -16 9 -31.5t27 -35.5q17 34 17 59zM193 -126q-11 2 -16.5 7.5t-5.5 17.5 l2 16q4 21 12.5 27.5t31.5 6.5q20 0 28.5 -5.5t8.5 -18.5q0 -3 -2 -17q-6 -25 -35.5 -69t-66.5 -87l-32 2z" />
         <glyph glyph-name="germandbls" unicode="ß" d="M489.5 383.5q18.5 -26.5 18.5 -71.5q0 -38 -12 -94q-18 -86 -47 -132.5t-78 -66t-131 -19.5h-53l8 39h49q65 0 106 17.5t65.5 58t39.5 111.5q10 52 10 79q0 55 -32 78t-106 23h-33l8 38h3q64 0 104.5 16t64.5 51.5t37 96.5q9 42 9 72q0 53 -31.5 74t-105.5 21 q-56 0 -91.5 -16t-57.5 -53.5t-36 -103.5l-129 -602h-42l129 606q17 82 43 126.5t68.5 63t114.5 18.5q98 0 139.5 -27.5t41.5 -96.5q0 -35 -11 -90q-15 -73 -41 -110t-81 -62q41 -18 59.5 -44.5z" />
         <glyph glyph-name="t" unicode="t" d="M195.5 14q-32.5 28 -32.5 90q0 36 13 98l80 377h-124l9 39h124l38 182h42l-38 -182h208l-8 -39h-208l-81 -381q-11 -53 -11 -85q0 -46 22 -67t71 -21q54 0 84 13.5t50 45.5l39 -17q-30 -47 -66 -64t-106 -17q-73 0 -105.5 28z" />
         <glyph glyph-name="tbar" unicode="ŧ" d="M507 579h-208l-38 -179h207l-7 -39h-208l-35 -163q-11 -53 -11 -85q0 -46 22 -67t71 -21q54 0 84 13.5t50 45.5l39 -17q-30 -47 -66 -64t-106 -17q-73 0 -105.5 28t-32.5 90q0 36 13 98l34 159h-123l7 39h124l38 179h-124l9 39h124l38 182h42l-38 -182h208z" />
         <glyph glyph-name="tcaron" unicode="ť" d="M431 670h-34l43 240h49zM195.5 14q-32.5 28 -32.5 90q0 36 13 98l80 377h-124l9 39h124l38 182h42l-38 -182h208l-8 -39h-208l-81 -381q-11 -53 -11 -85q0 -46 22 -67t71 -21q54 0 84 13.5t50 45.5l39 -17q-30 -47 -66 -64t-106 -17q-73 0 -105.5 28z" />
         <glyph glyph-name="uni0163" unicode="ţ" d="M299 579l-81 -381q-11 -53 -11 -85q0 -46 22 -67t71 -21q54 0 84 13.5t50 45.5l39 -17q-30 -47 -66 -64t-106 -17h-4l-6 -25q28 -7 44 -23.5t16 -37.5q0 -9 -1 -13q-7 -35 -37.5 -55.5t-74.5 -20.5q-22 0 -43 7t-35 19l24 36q11 -10 26 -16.5t28 -6.5q28 0 48 12t24 31 q3 15 -15 23t-51 8l13 65q-49 7 -71.5 35t-22.5 80q0 36 13 98l80 377h-124l9 39h124l38 182h42l-38 -182h208l-8 -39h-208z" />
         <glyph glyph-name="uni021B" unicode="ț" d="M195.5 14q-32.5 28 -32.5 90q0 36 13 98l80 377h-124l9 39h124l38 182h42l-38 -182h208l-8 -39h-208l-81 -381q-11 -53 -11 -85q0 -46 22 -67t71 -21q54 0 84 13.5t50 45.5l39 -17q-30 -47 -66 -64t-106 -17q-73 0 -105.5 28zM256 -126q-11 2 -16.5 7.5t-5.5 17.5l2 16 q4 21 12.5 27.5t31.5 6.5q20 0 28.5 -5.5t8.5 -18.5q0 -3 -2 -17q-6 -25 -35.5 -69t-66.5 -87l-32 2z" />
         <glyph glyph-name="u" unicode="u" d="M57 606q15 12 37.5 19t45.5 7q30 0 49 -14.5t19 -38.5q0 -41 -23 -143.5t-60 -223.5q-17 -55 -17 -98q0 -47 23.5 -68t68.5 -21q49 0 100.5 51t90 123.5t51.5 131.5l61 287h43l-114 -537q-2 -9 -2 -22q0 -16 11 -25t28 -9q11 0 24.5 5t20.5 13l22 -31q-15 -12 -37.5 -19 t-45.5 -7q-27 0 -47 18.5t-20 51.5q0 6 2 20l23 107q-46 -91 -99 -144t-111 -53q-140 0 -140 119q0 45 21 109q36 112 58.5 207t22.5 136q0 16 -11 26t-28 10q-26 0 -46 -17z" />
         <glyph glyph-name="uacute" unicode="ú" d="M57 606q15 12 37.5 19t45.5 7q30 0 49 -14.5t19 -38.5q0 -41 -23 -143.5t-60 -223.5q-17 -55 -17 -98q0 -47 23.5 -68t68.5 -21q49 0 100.5 51t90 123.5t51.5 131.5l61 287h43l-114 -537q-2 -9 -2 -22q0 -16 11 -25t28 -9q11 0 24.5 5t20.5 13l22 -31q-15 -12 -37.5 -19 t-45.5 -7q-27 0 -47 18.5t-20 51.5q0 6 2 20l23 107q-46 -91 -99 -144t-111 -53q-140 0 -140 119q0 45 21 109q36 112 58.5 207t22.5 136q0 16 -11 26t-28 10q-26 0 -46 -17zM512 803l-151 -113l-23 29l151 113z" />
         <glyph glyph-name="ubreve" unicode="ŭ" d="M57 606q15 12 37.5 19t45.5 7q30 0 49 -14.5t19 -38.5q0 -41 -23 -143.5t-60 -223.5q-17 -55 -17 -98q0 -47 23.5 -68t68.5 -21q49 0 100.5 51t90 123.5t51.5 131.5l61 287h43l-114 -537q-2 -9 -2 -22q0 -16 11 -25t28 -9q11 0 24.5 5t20.5 13l22 -31q-15 -12 -37.5 -19 t-45.5 -7q-27 0 -47 18.5t-20 51.5q0 6 2 20l23 107q-46 -91 -99 -144t-111 -53q-140 0 -140 119q0 45 21 109q36 112 58.5 207t22.5 136q0 16 -11 26t-28 10q-26 0 -46 -17zM294 724q-24 15 -24 52q0 15 5 40h41q-3 -15 -3 -26q0 -24 15 -33.5t49 -9.5q45 0 67.5 16 t30.5 53h41q-9 -42 -24.5 -65t-42.5 -32.5t-74 -9.5q-57 0 -81 15z" />
         <glyph glyph-name="uni01D4" unicode="ǔ" d="M57 606q15 12 37.5 19t45.5 7q30 0 49 -14.5t19 -38.5q0 -41 -23 -143.5t-60 -223.5q-17 -55 -17 -98q0 -47 23.5 -68t68.5 -21q49 0 100.5 51t90 123.5t51.5 131.5l61 287h43l-114 -537q-2 -9 -2 -22q0 -16 11 -25t28 -9q11 0 24.5 5t20.5 13l22 -31q-15 -12 -37.5 -19 t-45.5 -7q-27 0 -47 18.5t-20 51.5q0 6 2 20l23 107q-46 -91 -99 -144t-111 -53q-140 0 -140 119q0 45 21 109q36 112 58.5 207t22.5 136q0 16 -11 26t-28 10q-26 0 -46 -17zM520 811l-147 -112l-103 110l37 25l75 -81l109 83z" />
         <glyph glyph-name="ucircumflex" unicode="û" d="M57 606q15 12 37.5 19t45.5 7q30 0 49 -14.5t19 -38.5q0 -41 -23 -143.5t-60 -223.5q-17 -55 -17 -98q0 -47 23.5 -68t68.5 -21q49 0 100.5 51t90 123.5t51.5 131.5l61 287h43l-114 -537q-2 -9 -2 -22q0 -16 11 -25t28 -9q11 0 24.5 5t20.5 13l22 -31q-15 -12 -37.5 -19 t-45.5 -7q-27 0 -47 18.5t-20 51.5q0 6 2 20l23 107q-46 -91 -99 -144t-111 -53q-140 0 -140 119q0 45 21 109q36 112 58.5 207t22.5 136q0 16 -11 26t-28 10q-26 0 -46 -17zM498 715l-37 -25l-73 83l-109 -81l-28 25l146 110z" />
         <glyph glyph-name="udieresis" unicode="ü" d="M57 606q15 12 37.5 19t45.5 7q30 0 49 -14.5t19 -38.5q0 -41 -23 -143.5t-60 -223.5q-17 -55 -17 -98q0 -47 23.5 -68t68.5 -21q49 0 100.5 51t90 123.5t51.5 131.5l61 287h43l-114 -537q-2 -9 -2 -22q0 -16 11 -25t28 -9q11 0 24.5 5t20.5 13l22 -31q-15 -12 -37.5 -19 t-45.5 -7q-27 0 -47 18.5t-20 51.5q0 6 2 20l23 107q-46 -91 -99 -144t-111 -53q-140 0 -140 119q0 45 21 109q36 112 58.5 207t22.5 136q0 16 -11 26t-28 10q-26 0 -46 -17zM238.5 742.5q-10.5 6.5 -10.5 23.5q0 9 3 22q5 26 16.5 34.5t39.5 8.5q25 0 36 -7t11 -23 q0 -8 -3 -20q-5 -27 -16.5 -36t-40.5 -9q-25 0 -35.5 6.5zM454.5 742.5q-10.5 6.5 -10.5 23.5q0 9 3 22q5 26 16.5 34.5t39.5 8.5q25 0 36 -7t11 -23q0 -8 -3 -20q-5 -27 -16.5 -36t-40.5 -9q-25 0 -35.5 6.5z" />
         <glyph glyph-name="uni01D8" unicode="ǘ" d="M57 606q15 12 37.5 19t45.5 7q30 0 49 -14.5t19 -38.5q0 -41 -23 -143.5t-60 -223.5q-17 -55 -17 -98q0 -47 23.5 -68t68.5 -21q49 0 100.5 51t90 123.5t51.5 131.5l61 287h43l-114 -537q-2 -9 -2 -22q0 -16 11 -25t28 -9q11 0 24.5 5t20.5 13l22 -31q-15 -12 -37.5 -19 t-45.5 -7q-27 0 -47 18.5t-20 51.5q0 6 2 20l23 107q-46 -91 -99 -144t-111 -53q-140 0 -140 119q0 45 21 109q36 112 58.5 207t22.5 136q0 16 -11 26t-28 10q-26 0 -46 -17zM238.5 742.5q-10.5 6.5 -10.5 23.5q0 9 3 22q5 26 16.5 34.5t39.5 8.5q25 0 36 -7t11 -23 q0 -8 -3 -20q-5 -27 -16.5 -36t-40.5 -9q-25 0 -35.5 6.5zM454.5 742.5q-10.5 6.5 -10.5 23.5q0 9 3 22q5 26 16.5 34.5t39.5 8.5q25 0 36 -7t11 -23q0 -8 -3 -20q-5 -27 -16.5 -36t-40.5 -9q-25 0 -35.5 6.5zM557 1018l-151 -113l-23 29l151 113z" />
         <glyph glyph-name="uni01DA" unicode="ǚ" d="M57 606q15 12 37.5 19t45.5 7q30 0 49 -14.5t19 -38.5q0 -41 -23 -143.5t-60 -223.5q-17 -55 -17 -98q0 -47 23.5 -68t68.5 -21q49 0 100.5 51t90 123.5t51.5 131.5l61 287h43l-114 -537q-2 -9 -2 -22q0 -16 11 -25t28 -9q11 0 24.5 5t20.5 13l22 -31q-15 -12 -37.5 -19 t-45.5 -7q-27 0 -47 18.5t-20 51.5q0 6 2 20l23 107q-46 -91 -99 -144t-111 -53q-140 0 -140 119q0 45 21 109q36 112 58.5 207t22.5 136q0 16 -11 26t-28 10q-26 0 -46 -17zM238.5 742.5q-10.5 6.5 -10.5 23.5q0 9 3 22q5 26 16.5 34.5t39.5 8.5q25 0 36 -7t11 -23 q0 -8 -3 -20q-5 -27 -16.5 -36t-40.5 -9q-25 0 -35.5 6.5zM454.5 742.5q-10.5 6.5 -10.5 23.5q0 9 3 22q5 26 16.5 34.5t39.5 8.5q25 0 36 -7t11 -23q0 -8 -3 -20q-5 -27 -16.5 -36t-40.5 -9q-25 0 -35.5 6.5zM565 1026l-147 -112l-103 110l37 25l75 -81l109 83z" />
         <glyph glyph-name="uni01DC" unicode="ǜ" d="M57 606q15 12 37.5 19t45.5 7q30 0 49 -14.5t19 -38.5q0 -41 -23 -143.5t-60 -223.5q-17 -55 -17 -98q0 -47 23.5 -68t68.5 -21q49 0 100.5 51t90 123.5t51.5 131.5l61 287h43l-114 -537q-2 -9 -2 -22q0 -16 11 -25t28 -9q11 0 24.5 5t20.5 13l22 -31q-15 -12 -37.5 -19 t-45.5 -7q-27 0 -47 18.5t-20 51.5q0 6 2 20l23 107q-46 -91 -99 -144t-111 -53q-140 0 -140 119q0 45 21 109q36 112 58.5 207t22.5 136q0 16 -11 26t-28 10q-26 0 -46 -17zM238.5 742.5q-10.5 6.5 -10.5 23.5q0 9 3 22q5 26 16.5 34.5t39.5 8.5q25 0 36 -7t11 -23 q0 -8 -3 -20q-5 -27 -16.5 -36t-40.5 -9q-25 0 -35.5 6.5zM454.5 742.5q-10.5 6.5 -10.5 23.5q0 9 3 22q5 26 16.5 34.5t39.5 8.5q25 0 36 -7t11 -23q0 -8 -3 -20q-5 -27 -16.5 -36t-40.5 -9q-25 0 -35.5 6.5zM458 934l-33 -29l-107 113l33 29z" />
         <glyph glyph-name="uni01D6" unicode="ǖ" d="M57 606q15 12 37.5 19t45.5 7q30 0 49 -14.5t19 -38.5q0 -41 -23 -143.5t-60 -223.5q-17 -55 -17 -98q0 -47 23.5 -68t68.5 -21q49 0 100.5 51t90 123.5t51.5 131.5l61 287h43l-114 -537q-2 -9 -2 -22q0 -16 11 -25t28 -9q11 0 24.5 5t20.5 13l22 -31q-15 -12 -37.5 -19 t-45.5 -7q-27 0 -47 18.5t-20 51.5q0 6 2 20l23 107q-46 -91 -99 -144t-111 -53q-140 0 -140 119q0 45 21 109q36 112 58.5 207t22.5 136q0 16 -11 26t-28 10q-26 0 -46 -17zM238.5 742.5q-10.5 6.5 -10.5 23.5q0 9 3 22q5 26 16.5 34.5t39.5 8.5q25 0 36 -7t11 -23 q0 -8 -3 -20q-5 -27 -16.5 -36t-40.5 -9q-25 0 -35.5 6.5zM454.5 742.5q-10.5 6.5 -10.5 23.5q0 9 3 22q5 26 16.5 34.5t39.5 8.5q25 0 36 -7t11 -23q0 -8 -3 -20q-5 -27 -16.5 -36t-40.5 -9q-25 0 -35.5 6.5zM555 943h-266l8 38h266z" />
         <glyph glyph-name="uni1EE5" unicode="ụ" d="M57 606q15 12 37.5 19t45.5 7q30 0 49 -14.5t19 -38.5q0 -41 -23 -143.5t-60 -223.5q-17 -55 -17 -98q0 -47 23.5 -68t68.5 -21q49 0 100.5 51t90 123.5t51.5 131.5l61 287h43l-114 -537q-2 -9 -2 -22q0 -16 11 -25t28 -9q11 0 24.5 5t20.5 13l22 -31q-15 -12 -37.5 -19 t-45.5 -7q-27 0 -47 18.5t-20 51.5q0 6 2 20l23 107q-46 -91 -99 -144t-111 -53q-140 0 -140 119q0 45 21 109q36 112 58.5 207t22.5 136q0 16 -11 26t-28 10q-26 0 -46 -17zM115 -210q-11 7 -11 23q0 9 3 21q7 27 19.5 37t39.5 10q26 0 37 -7t11 -23q0 -9 -3 -21 q-6 -26 -18.5 -36.5t-40.5 -10.5q-26 0 -37 7z" />
         <glyph glyph-name="ugrave" unicode="ù" d="M57 606q15 12 37.5 19t45.5 7q30 0 49 -14.5t19 -38.5q0 -41 -23 -143.5t-60 -223.5q-17 -55 -17 -98q0 -47 23.5 -68t68.5 -21q49 0 100.5 51t90 123.5t51.5 131.5l61 287h43l-114 -537q-2 -9 -2 -22q0 -16 11 -25t28 -9q11 0 24.5 5t20.5 13l22 -31q-15 -12 -37.5 -19 t-45.5 -7q-27 0 -47 18.5t-20 51.5q0 6 2 20l23 107q-46 -91 -99 -144t-111 -53q-140 0 -140 119q0 45 21 109q36 112 58.5 207t22.5 136q0 16 -11 26t-28 10q-26 0 -46 -17zM413 719l-33 -29l-107 113l33 29z" />
         <glyph glyph-name="uni1EE7" unicode="ủ" d="M57 606q15 12 37.5 19t45.5 7q30 0 49 -14.5t19 -38.5q0 -41 -23 -143.5t-60 -223.5q-17 -55 -17 -98q0 -47 23.5 -68t68.5 -21q49 0 100.5 51t90 123.5t51.5 131.5l61 287h43l-114 -537q-2 -9 -2 -22q0 -16 11 -25t28 -9q11 0 24.5 5t20.5 13l22 -31q-15 -12 -37.5 -19 t-45.5 -7q-27 0 -47 18.5t-20 51.5q0 6 2 20l23 107q-46 -91 -99 -144t-111 -53q-140 0 -140 119q0 45 21 109q36 112 58.5 207t22.5 136q0 16 -11 26t-28 10q-26 0 -46 -17zM345 692q34 10 53.5 25.5t23.5 33.5q3 14 -6.5 23t-23.5 9q-24 0 -49 -11t-42 -24l7 50 q19 11 42.5 17.5t42.5 6.5q31 0 51 -17.5t20 -45.5q0 -5 -2 -17q-5 -28 -34.5 -51.5t-77.5 -35.5z" />
         <glyph glyph-name="uhorn" unicode="ư" d="M682 800h42l-27 -128q-11 -53 -45 -84.5t-79 -31.5q-18 0 -38 10l-103 -485q-2 -9 -2 -22q0 -16 11 -25t28 -9q11 0 24.5 5t20.5 13l22 -31q-15 -12 -37.5 -19t-45.5 -7q-27 0 -47 18.5t-20 51.5q0 6 2 20l23 107q-46 -91 -99 -144t-111 -53q-140 0 -140 119q0 45 21 109 q36 112 58.5 207t22.5 136q0 16 -11 26t-28 10q-26 0 -46 -17l-21 30q15 12 37.5 19t45.5 7q30 0 49 -14.5t19 -38.5q0 -41 -23 -143.5t-60 -223.5q-17 -55 -17 -98q0 -47 23.5 -68t68.5 -21q49 0 100.5 51t90 123.5t51.5 131.5l61 287h43l-4 -18q14 -6 33 -6q28 0 50.5 23 t30.5 59z" />
         <glyph glyph-name="uni1EE9" unicode="ứ" d="M682 800h42l-27 -128q-11 -53 -45 -84.5t-79 -31.5q-18 0 -38 10l-103 -485q-2 -9 -2 -22q0 -16 11 -25t28 -9q11 0 24.5 5t20.5 13l22 -31q-15 -12 -37.5 -19t-45.5 -7q-27 0 -47 18.5t-20 51.5q0 6 2 20l23 107q-46 -91 -99 -144t-111 -53q-140 0 -140 119q0 45 21 109 q36 112 58.5 207t22.5 136q0 16 -11 26t-28 10q-26 0 -46 -17l-21 30q15 12 37.5 19t45.5 7q30 0 49 -14.5t19 -38.5q0 -41 -23 -143.5t-60 -223.5q-17 -55 -17 -98q0 -47 23.5 -68t68.5 -21q49 0 100.5 51t90 123.5t51.5 131.5l61 287h43l-4 -18q14 -6 33 -6q28 0 50.5 23 t30.5 59zM512 803l-151 -113l-23 29l151 113z" />
         <glyph glyph-name="uni1EF1" unicode="ự" d="M682 800h42l-27 -128q-11 -53 -45 -84.5t-79 -31.5q-18 0 -38 10l-103 -485q-2 -9 -2 -22q0 -16 11 -25t28 -9q11 0 24.5 5t20.5 13l22 -31q-15 -12 -37.5 -19t-45.5 -7q-27 0 -47 18.5t-20 51.5q0 6 2 20l23 107q-46 -91 -99 -144t-111 -53q-140 0 -140 119q0 45 21 109 q36 112 58.5 207t22.5 136q0 16 -11 26t-28 10q-26 0 -46 -17l-21 30q15 12 37.5 19t45.5 7q30 0 49 -14.5t19 -38.5q0 -41 -23 -143.5t-60 -223.5q-17 -55 -17 -98q0 -47 23.5 -68t68.5 -21q49 0 100.5 51t90 123.5t51.5 131.5l61 287h43l-4 -18q14 -6 33 -6q28 0 50.5 23 t30.5 59zM115 -210q-11 7 -11 23q0 9 3 21q7 27 19.5 37t39.5 10q26 0 37 -7t11 -23q0 -9 -3 -21q-6 -26 -18.5 -36.5t-40.5 -10.5q-26 0 -37 7z" />
         <glyph glyph-name="uni1EEB" unicode="ừ" d="M682 800h42l-27 -128q-11 -53 -45 -84.5t-79 -31.5q-18 0 -38 10l-103 -485q-2 -9 -2 -22q0 -16 11 -25t28 -9q11 0 24.5 5t20.5 13l22 -31q-15 -12 -37.5 -19t-45.5 -7q-27 0 -47 18.5t-20 51.5q0 6 2 20l23 107q-46 -91 -99 -144t-111 -53q-140 0 -140 119q0 45 21 109 q36 112 58.5 207t22.5 136q0 16 -11 26t-28 10q-26 0 -46 -17l-21 30q15 12 37.5 19t45.5 7q30 0 49 -14.5t19 -38.5q0 -41 -23 -143.5t-60 -223.5q-17 -55 -17 -98q0 -47 23.5 -68t68.5 -21q49 0 100.5 51t90 123.5t51.5 131.5l61 287h43l-4 -18q14 -6 33 -6q28 0 50.5 23 t30.5 59zM413 719l-33 -29l-107 113l33 29z" />
         <glyph glyph-name="uni1EED" unicode="ử" d="M682 800h42l-27 -128q-11 -53 -45 -84.5t-79 -31.5q-18 0 -38 10l-103 -485q-2 -9 -2 -22q0 -16 11 -25t28 -9q11 0 24.5 5t20.5 13l22 -31q-15 -12 -37.5 -19t-45.5 -7q-27 0 -47 18.5t-20 51.5q0 6 2 20l23 107q-46 -91 -99 -144t-111 -53q-140 0 -140 119q0 45 21 109 q36 112 58.5 207t22.5 136q0 16 -11 26t-28 10q-26 0 -46 -17l-21 30q15 12 37.5 19t45.5 7q30 0 49 -14.5t19 -38.5q0 -41 -23 -143.5t-60 -223.5q-17 -55 -17 -98q0 -47 23.5 -68t68.5 -21q49 0 100.5 51t90 123.5t51.5 131.5l61 287h43l-4 -18q14 -6 33 -6q28 0 50.5 23 t30.5 59zM345 692q34 10 53.5 25.5t23.5 33.5q3 14 -6.5 23t-23.5 9q-24 0 -49 -11t-42 -24l7 50q19 11 42.5 17.5t42.5 6.5q31 0 51 -17.5t20 -45.5q0 -5 -2 -17q-5 -28 -34.5 -51.5t-77.5 -35.5z" />
         <glyph glyph-name="uni1EEF" unicode="ữ" d="M682 800h42l-27 -128q-11 -53 -45 -84.5t-79 -31.5q-18 0 -38 10l-103 -485q-2 -9 -2 -22q0 -16 11 -25t28 -9q11 0 24.5 5t20.5 13l22 -31q-15 -12 -37.5 -19t-45.5 -7q-27 0 -47 18.5t-20 51.5q0 6 2 20l23 107q-46 -91 -99 -144t-111 -53q-140 0 -140 119q0 45 21 109 q36 112 58.5 207t22.5 136q0 16 -11 26t-28 10q-26 0 -46 -17l-21 30q15 12 37.5 19t45.5 7q30 0 49 -14.5t19 -38.5q0 -41 -23 -143.5t-60 -223.5q-17 -55 -17 -98q0 -47 23.5 -68t68.5 -21q49 0 100.5 51t90 123.5t51.5 131.5l61 287h43l-4 -18q14 -6 33 -6q28 0 50.5 23 t30.5 59zM405.5 714q-14.5 11 -32.5 33q-14 17 -24 25t-24 8q-23 0 -33 -12t-18 -39h-41q11 42 35.5 66t57.5 24q21 0 35.5 -11t32.5 -32q15 -17 26 -25.5t24 -8.5q23 0 33 12t16 36h41q-10 -40 -34.5 -63.5t-56.5 -23.5q-23 0 -37.5 11z" />
         <glyph glyph-name="uhungarumlaut" unicode="ű" d="M57 606q15 12 37.5 19t45.5 7q30 0 49 -14.5t19 -38.5q0 -41 -23 -143.5t-60 -223.5q-17 -55 -17 -98q0 -47 23.5 -68t68.5 -21q49 0 100.5 51t90 123.5t51.5 131.5l61 287h43l-114 -537q-2 -9 -2 -22q0 -16 11 -25t28 -9q11 0 24.5 5t20.5 13l22 -31q-15 -12 -37.5 -19 t-45.5 -7q-27 0 -47 18.5t-20 51.5q0 6 2 20l23 107q-46 -91 -99 -144t-111 -53q-140 0 -140 119q0 45 21 109q36 112 58.5 207t22.5 136q0 16 -11 26t-28 10q-26 0 -46 -17zM391 803l-152 -113l-22 29l151 113zM551 803l-151 -113l-23 29l151 113z" />
         <glyph glyph-name="umacron" unicode="ū" d="M57 606q15 12 37.5 19t45.5 7q30 0 49 -14.5t19 -38.5q0 -41 -23 -143.5t-60 -223.5q-17 -55 -17 -98q0 -47 23.5 -68t68.5 -21q49 0 100.5 51t90 123.5t51.5 131.5l61 287h43l-114 -537q-2 -9 -2 -22q0 -16 11 -25t28 -9q11 0 24.5 5t20.5 13l22 -31q-15 -12 -37.5 -19 t-45.5 -7q-27 0 -47 18.5t-20 51.5q0 6 2 20l23 107q-46 -91 -99 -144t-111 -53q-140 0 -140 119q0 45 21 109q36 112 58.5 207t22.5 136q0 16 -11 26t-28 10q-26 0 -46 -17zM510 728h-266l8 38h266z" />
         <glyph glyph-name="uogonek" unicode="ų" d="M531 19l8 -3l-4 -3l1 -1q-9 -8 -31 -17q-55 -32 -82 -53t-27 -43q0 -18 16.5 -29t42.5 -11q16 0 35 7t32 18l13 -39q-15 -11 -36.5 -18t-43.5 -7q-48 0 -74.5 17t-26.5 53q0 42 88 97q-24 3 -40 21t-16 48q0 6 2 20l23 107q-46 -91 -99 -144t-111 -53q-140 0 -140 119 q0 45 21 109q36 112 58.5 207t22.5 136q0 16 -11 26t-28 10q-26 0 -46 -17l-21 30q15 12 37.5 19t45.5 7q30 0 49 -14.5t19 -38.5q0 -41 -23 -143.5t-60 -223.5q-17 -55 -17 -98q0 -47 23.5 -68t68.5 -21q49 0 100.5 51t90 123.5t51.5 131.5l61 287h43l-114 -537 q-2 -9 -2 -22q0 -16 11 -25t28 -9q11 0 24.5 5t20.5 13z" />
         <glyph glyph-name="uring" unicode="ů" d="M57 606q15 12 37.5 19t45.5 7q30 0 49 -14.5t19 -38.5q0 -41 -23 -143.5t-60 -223.5q-17 -55 -17 -98q0 -47 23.5 -68t68.5 -21q49 0 100.5 51t90 123.5t51.5 131.5l61 287h43l-114 -537q-2 -9 -2 -22q0 -16 11 -25t28 -9q11 0 24.5 5t20.5 13l22 -31q-15 -12 -37.5 -19 t-45.5 -7q-27 0 -47 18.5t-20 51.5q0 6 2 20l23 107q-46 -91 -99 -144t-111 -53q-140 0 -140 119q0 45 21 109q36 112 58.5 207t22.5 136q0 16 -11 26t-28 10q-26 0 -46 -17zM291.5 710.5q-24.5 15.5 -24.5 53.5q0 21 6 46q9 42 24.5 65t42.5 33t73 10q57 0 82 -16t25 -56 q0 -16 -5 -43q-9 -42 -24.5 -65t-43 -33t-74.5 -10q-57 0 -81.5 15.5zM442.5 751q22.5 17 30.5 59q4 15 4 28q0 22 -15 31.5t-50 9.5q-45 0 -67 -17t-30 -59q-4 -15 -4 -28q0 -22 15 -31.5t48 -9.5q46 0 68.5 17z" />
         <glyph glyph-name="utilde" unicode="ũ" d="M57 606q15 12 37.5 19t45.5 7q30 0 49 -14.5t19 -38.5q0 -41 -23 -143.5t-60 -223.5q-17 -55 -17 -98q0 -47 23.5 -68t68.5 -21q49 0 100.5 51t90 123.5t51.5 131.5l61 287h43l-114 -537q-2 -9 -2 -22q0 -16 11 -25t28 -9q11 0 24.5 5t20.5 13l22 -31q-15 -12 -37.5 -19 t-45.5 -7q-27 0 -47 18.5t-20 51.5q0 6 2 20l23 107q-46 -91 -99 -144t-111 -53q-140 0 -140 119q0 45 21 109q36 112 58.5 207t22.5 136q0 16 -11 26t-28 10q-26 0 -46 -17zM405.5 714q-14.5 11 -32.5 33q-14 17 -24 25t-24 8q-23 0 -33 -12t-18 -39h-41q11 42 35.5 66 t57.5 24q21 0 35.5 -11t32.5 -32q15 -17 26 -25.5t24 -8.5q23 0 33 12t16 36h41q-10 -40 -34.5 -63.5t-56.5 -23.5q-23 0 -37.5 11z" />
         <glyph glyph-name="v" unicode="v" d="M210 0l-71 618h42l68 -554q36 68 111 182q80 124 125 207.5t63 164.5h45q-24 -93 -74.5 -186t-139.5 -233q-87 -137 -121 -199h-48z" />
         <glyph glyph-name="w" unicode="w" d="M623 618q-21 -93 -57 -185.5t-101 -242.5q-60 -138 -81 -190h-40l-31 328q-19 -43 -44 -86.5t-66 -108.5q-52 -84 -79 -133h-41l27 618h42l-25 -541l27 43q61 97 96.5 163t50.5 131h43l32 -334l51 121q62 145 96.5 235.5t55.5 181.5h44z" />
         <glyph glyph-name="wacute" unicode="ẃ" d="M623 618q-21 -93 -57 -185.5t-101 -242.5q-60 -138 -81 -190h-40l-31 328q-19 -43 -44 -86.5t-66 -108.5q-52 -84 -79 -133h-41l27 618h42l-25 -541l27 43q61 97 96.5 163t50.5 131h43l32 -334l51 121q62 145 96.5 235.5t55.5 181.5h44zM524 803l-151 -113l-23 29 l151 113z" />
         <glyph glyph-name="wcircumflex" unicode="ŵ" d="M623 618q-21 -93 -57 -185.5t-101 -242.5q-60 -138 -81 -190h-40l-31 328q-19 -43 -44 -86.5t-66 -108.5q-52 -84 -79 -133h-41l27 618h42l-25 -541l27 43q61 97 96.5 163t50.5 131h43l32 -334l51 121q62 145 96.5 235.5t55.5 181.5h44zM510 715l-37 -25l-73 83l-109 -81 l-28 25l146 110z" />
         <glyph glyph-name="wdieresis" unicode="ẅ" d="M623 618q-21 -93 -57 -185.5t-101 -242.5q-60 -138 -81 -190h-40l-31 328q-19 -43 -44 -86.5t-66 -108.5q-52 -84 -79 -133h-41l27 618h42l-25 -541l27 43q61 97 96.5 163t50.5 131h43l32 -334l51 121q62 145 96.5 235.5t55.5 181.5h44zM250.5 742.5 q-10.5 6.5 -10.5 23.5q0 9 3 22q5 26 16.5 34.5t39.5 8.5q25 0 36 -7t11 -23q0 -8 -3 -20q-5 -27 -16.5 -36t-40.5 -9q-25 0 -35.5 6.5zM466.5 742.5q-10.5 6.5 -10.5 23.5q0 9 3 22q5 26 16.5 34.5t39.5 8.5q25 0 36 -7t11 -23q0 -8 -3 -20q-5 -27 -16.5 -36t-40.5 -9 q-25 0 -35.5 6.5z" />
         <glyph glyph-name="wgrave" unicode="ẁ" d="M623 618q-21 -93 -57 -185.5t-101 -242.5q-60 -138 -81 -190h-40l-31 328q-19 -43 -44 -86.5t-66 -108.5q-52 -84 -79 -133h-41l27 618h42l-25 -541l27 43q61 97 96.5 163t50.5 131h43l32 -334l51 121q62 145 96.5 235.5t55.5 181.5h44zM425 719l-33 -29l-107 113l33 29z " />
         <glyph glyph-name="x" unicode="x" d="M577 618q-32 -70 -91.5 -142.5t-158.5 -175.5l115 -300h-47l-102 265q-80 -84 -132.5 -145t-86.5 -120h-50q39 66 97 131.5t159 169.5l-122 317h47l108 -282q80 84 132.5 151t80.5 131h51z" />
         <glyph glyph-name="y" unicode="y" d="M39.5 -187.5q-28.5 18.5 -28.5 48.5q0 53 97.5 82.5t267.5 28.5q15 25 28 68t18 71q-8 -34 -56.5 -49.5t-100.5 -15.5q-42 0 -74 18t-49.5 48t-17.5 64q0 20 6 39q35 109 57 204t22 138q0 16 -11 26t-28 10q-26 0 -46 -17l-21 30q15 12 37.5 19t45.5 7q29 0 47.5 -15 t18.5 -40q0 -46 -22 -146.5t-57 -214.5q-7 -21 -7 -43q0 -41 27 -64.5t70 -23.5q46 0 79.5 8.5t60.5 37t39 84.5l85 403h42q-68 -326 -100.5 -470.5t-49.5 -174.5q59 0 87 6l-7 -36q-22 -6 -43 -7t-54 -1q-36 -64 -115 -102.5t-172 -38.5q-47 0 -75.5 18.5zM255.5 -139 q64.5 28 102.5 74q-139 -3 -222 -23.5t-82 -51.5q0 -13 19 -20t52 -7q66 0 130.5 28z" />
         <glyph glyph-name="yacute" unicode="ý" d="M39.5 -187.5q-28.5 18.5 -28.5 48.5q0 53 97.5 82.5t267.5 28.5q15 25 28 68t18 71q-8 -34 -56.5 -49.5t-100.5 -15.5q-42 0 -74 18t-49.5 48t-17.5 64q0 20 6 39q35 109 57 204t22 138q0 16 -11 26t-28 10q-26 0 -46 -17l-21 30q15 12 37.5 19t45.5 7q29 0 47.5 -15 t18.5 -40q0 -46 -22 -146.5t-57 -214.5q-7 -21 -7 -43q0 -41 27 -64.5t70 -23.5q46 0 79.5 8.5t60.5 37t39 84.5l85 403h42q-68 -326 -100.5 -470.5t-49.5 -174.5q59 0 87 6l-7 -36q-22 -6 -43 -7t-54 -1q-36 -64 -115 -102.5t-172 -38.5q-47 0 -75.5 18.5zM255.5 -139 q64.5 28 102.5 74q-139 -3 -222 -23.5t-82 -51.5q0 -13 19 -20t52 -7q66 0 130.5 28zM524 803l-151 -113l-23 29l151 113z" />
         <glyph glyph-name="ycircumflex" unicode="ŷ" d="M39.5 -187.5q-28.5 18.5 -28.5 48.5q0 53 97.5 82.5t267.5 28.5q15 25 28 68t18 71q-8 -34 -56.5 -49.5t-100.5 -15.5q-42 0 -74 18t-49.5 48t-17.5 64q0 20 6 39q35 109 57 204t22 138q0 16 -11 26t-28 10q-26 0 -46 -17l-21 30q15 12 37.5 19t45.5 7q29 0 47.5 -15 t18.5 -40q0 -46 -22 -146.5t-57 -214.5q-7 -21 -7 -43q0 -41 27 -64.5t70 -23.5q46 0 79.5 8.5t60.5 37t39 84.5l85 403h42q-68 -326 -100.5 -470.5t-49.5 -174.5q59 0 87 6l-7 -36q-22 -6 -43 -7t-54 -1q-36 -64 -115 -102.5t-172 -38.5q-47 0 -75.5 18.5zM255.5 -139 q64.5 28 102.5 74q-139 -3 -222 -23.5t-82 -51.5q0 -13 19 -20t52 -7q66 0 130.5 28zM510 715l-37 -25l-73 83l-109 -81l-28 25l146 110z" />
         <glyph glyph-name="ydieresis" unicode="ÿ" d="M39.5 -187.5q-28.5 18.5 -28.5 48.5q0 53 97.5 82.5t267.5 28.5q15 25 28 68t18 71q-8 -34 -56.5 -49.5t-100.5 -15.5q-42 0 -74 18t-49.5 48t-17.5 64q0 20 6 39q35 109 57 204t22 138q0 16 -11 26t-28 10q-26 0 -46 -17l-21 30q15 12 37.5 19t45.5 7q29 0 47.5 -15 t18.5 -40q0 -46 -22 -146.5t-57 -214.5q-7 -21 -7 -43q0 -41 27 -64.5t70 -23.5q46 0 79.5 8.5t60.5 37t39 84.5l85 403h42q-68 -326 -100.5 -470.5t-49.5 -174.5q59 0 87 6l-7 -36q-22 -6 -43 -7t-54 -1q-36 -64 -115 -102.5t-172 -38.5q-47 0 -75.5 18.5zM255.5 -139 q64.5 28 102.5 74q-139 -3 -222 -23.5t-82 -51.5q0 -13 19 -20t52 -7q66 0 130.5 28zM250.5 742.5q-10.5 6.5 -10.5 23.5q0 9 3 22q5 26 16.5 34.5t39.5 8.5q25 0 36 -7t11 -23q0 -8 -3 -20q-5 -27 -16.5 -36t-40.5 -9q-25 0 -35.5 6.5zM466.5 742.5q-10.5 6.5 -10.5 23.5 q0 9 3 22q5 26 16.5 34.5t39.5 8.5q25 0 36 -7t11 -23q0 -8 -3 -20q-5 -27 -16.5 -36t-40.5 -9q-25 0 -35.5 6.5z" />
         <glyph glyph-name="uni1EF5" unicode="ỵ" d="M39.5 -187.5q-28.5 18.5 -28.5 48.5q0 53 97.5 82.5t267.5 28.5q15 25 28 68t18 71q-8 -34 -56.5 -49.5t-100.5 -15.5q-42 0 -74 18t-49.5 48t-17.5 64q0 20 6 39q35 109 57 204t22 138q0 16 -11 26t-28 10q-26 0 -46 -17l-21 30q15 12 37.5 19t45.5 7q29 0 47.5 -15 t18.5 -40q0 -46 -22 -146.5t-57 -214.5q-7 -21 -7 -43q0 -41 27 -64.5t70 -23.5q46 0 79.5 8.5t60.5 37t39 84.5l85 403h42q-68 -326 -100.5 -470.5t-49.5 -174.5q59 0 87 6l-7 -36q-22 -6 -43 -7t-54 -1q-36 -64 -115 -102.5t-172 -38.5q-47 0 -75.5 18.5zM255.5 -139 q64.5 28 102.5 74q-139 -3 -222 -23.5t-82 -51.5q0 -13 19 -20t52 -7q66 0 130.5 28zM371 -256q-11 7 -11 23q0 9 3 21q7 27 19.5 37t39.5 10q26 0 37 -7t11 -23q0 -9 -3 -21q-6 -26 -18.5 -36.5t-40.5 -10.5q-26 0 -37 7z" />
         <glyph glyph-name="ygrave" unicode="ỳ" d="M39.5 -187.5q-28.5 18.5 -28.5 48.5q0 53 97.5 82.5t267.5 28.5q15 25 28 68t18 71q-8 -34 -56.5 -49.5t-100.5 -15.5q-42 0 -74 18t-49.5 48t-17.5 64q0 20 6 39q35 109 57 204t22 138q0 16 -11 26t-28 10q-26 0 -46 -17l-21 30q15 12 37.5 19t45.5 7q29 0 47.5 -15 t18.5 -40q0 -46 -22 -146.5t-57 -214.5q-7 -21 -7 -43q0 -41 27 -64.5t70 -23.5q46 0 79.5 8.5t60.5 37t39 84.5l85 403h42q-68 -326 -100.5 -470.5t-49.5 -174.5q59 0 87 6l-7 -36q-22 -6 -43 -7t-54 -1q-36 -64 -115 -102.5t-172 -38.5q-47 0 -75.5 18.5zM255.5 -139 q64.5 28 102.5 74q-139 -3 -222 -23.5t-82 -51.5q0 -13 19 -20t52 -7q66 0 130.5 28zM425 719l-33 -29l-107 113l33 29z" />
         <glyph glyph-name="uni1EF7" unicode="ỷ" d="M39.5 -187.5q-28.5 18.5 -28.5 48.5q0 53 97.5 82.5t267.5 28.5q15 25 28 68t18 71q-8 -34 -56.5 -49.5t-100.5 -15.5q-42 0 -74 18t-49.5 48t-17.5 64q0 20 6 39q35 109 57 204t22 138q0 16 -11 26t-28 10q-26 0 -46 -17l-21 30q15 12 37.5 19t45.5 7q29 0 47.5 -15 t18.5 -40q0 -46 -22 -146.5t-57 -214.5q-7 -21 -7 -43q0 -41 27 -64.5t70 -23.5q46 0 79.5 8.5t60.5 37t39 84.5l85 403h42q-68 -326 -100.5 -470.5t-49.5 -174.5q59 0 87 6l-7 -36q-22 -6 -43 -7t-54 -1q-36 -64 -115 -102.5t-172 -38.5q-47 0 -75.5 18.5zM255.5 -139 q64.5 28 102.5 74q-139 -3 -222 -23.5t-82 -51.5q0 -13 19 -20t52 -7q66 0 130.5 28zM357 692q34 10 53.5 25.5t23.5 33.5q3 14 -6.5 23t-23.5 9q-24 0 -49 -11t-42 -24l7 50q19 11 42.5 17.5t42.5 6.5q31 0 51 -17.5t20 -45.5q0 -5 -2 -17q-5 -28 -34.5 -51.5t-77.5 -35.5z " />
         <glyph glyph-name="uni1EF9" unicode="ỹ" d="M39.5 -187.5q-28.5 18.5 -28.5 48.5q0 53 97.5 82.5t267.5 28.5q15 25 28 68t18 71q-8 -34 -56.5 -49.5t-100.5 -15.5q-42 0 -74 18t-49.5 48t-17.5 64q0 20 6 39q35 109 57 204t22 138q0 16 -11 26t-28 10q-26 0 -46 -17l-21 30q15 12 37.5 19t45.5 7q29 0 47.5 -15 t18.5 -40q0 -46 -22 -146.5t-57 -214.5q-7 -21 -7 -43q0 -41 27 -64.5t70 -23.5q46 0 79.5 8.5t60.5 37t39 84.5l85 403h42q-68 -326 -100.5 -470.5t-49.5 -174.5q59 0 87 6l-7 -36q-22 -6 -43 -7t-54 -1q-36 -64 -115 -102.5t-172 -38.5q-47 0 -75.5 18.5zM255.5 -139 q64.5 28 102.5 74q-139 -3 -222 -23.5t-82 -51.5q0 -13 19 -20t52 -7q66 0 130.5 28zM417.5 714q-14.5 11 -32.5 33q-14 17 -24 25t-24 8q-23 0 -33 -12t-18 -39h-41q11 42 35.5 66t57.5 24q21 0 35.5 -11t32.5 -32q15 -17 26 -25.5t24 -8.5q23 0 33 12t16 36h41 q-10 -40 -34.5 -63.5t-56.5 -23.5q-23 0 -37.5 11z" />
         <glyph glyph-name="z" unicode="z" d="M473.5 2q29.5 6 64.5 18q31 10 53 14.5t48 4.5l-7 -39q-18 0 -33.5 -4t-38.5 -12q-40 -13 -74.5 -20t-87.5 -7q-28 0 -53 7t-61 20q-30 12 -52.5 18.5t-46.5 6.5q-13 0 -33 -3q-5 0 -33 -3t-80 -3l5 26l449 553h-330l9 39h387l-5 -26l-449 -555l22 3q35 7 67 7 q26 0 49 -6.5t54 -18.5q32 -13 56.5 -19.5t52.5 -6.5q38 0 67.5 6z" />
         <glyph glyph-name="zacute" unicode="ź" d="M473.5 2q29.5 6 64.5 18q31 10 53 14.5t48 4.5l-7 -39q-18 0 -33.5 -4t-38.5 -12q-40 -13 -74.5 -20t-87.5 -7q-28 0 -53 7t-61 20q-30 12 -52.5 18.5t-46.5 6.5q-13 0 -33 -3q-5 0 -33 -3t-80 -3l5 26l449 553h-330l9 39h387l-5 -26l-449 -555l22 3q35 7 67 7 q26 0 49 -6.5t54 -18.5q32 -13 56.5 -19.5t52.5 -6.5q38 0 67.5 6zM524 803l-151 -113l-23 29l151 113z" />
         <glyph glyph-name="zcaron" unicode="ž" d="M473.5 2q29.5 6 64.5 18q31 10 53 14.5t48 4.5l-7 -39q-18 0 -33.5 -4t-38.5 -12q-40 -13 -74.5 -20t-87.5 -7q-28 0 -53 7t-61 20q-30 12 -52.5 18.5t-46.5 6.5q-13 0 -33 -3q-5 0 -33 -3t-80 -3l5 26l449 553h-330l9 39h387l-5 -26l-449 -555l22 3q35 7 67 7 q26 0 49 -6.5t54 -18.5q32 -13 56.5 -19.5t52.5 -6.5q38 0 67.5 6zM532 811l-147 -112l-103 110l37 25l75 -81l109 83z" />
         <glyph glyph-name="zdotaccent" unicode="ż" d="M473.5 2q29.5 6 64.5 18q31 10 53 14.5t48 4.5l-7 -39q-18 0 -33.5 -4t-38.5 -12q-40 -13 -74.5 -20t-87.5 -7q-28 0 -53 7t-61 20q-30 12 -52.5 18.5t-46.5 6.5q-13 0 -33 -3q-5 0 -33 -3t-80 -3l5 26l449 553h-330l9 39h387l-5 -26l-449 -555l22 3q35 7 67 7 q26 0 49 -6.5t54 -18.5q32 -13 56.5 -19.5t52.5 -6.5q38 0 67.5 6zM360 758q-11 7 -11 23q0 9 3 21q7 27 19.5 37t39.5 10q26 0 37 -7t11 -23q0 -9 -3 -21q-6 -26 -18.5 -36.5t-40.5 -10.5q-26 0 -37 7z" />
         <glyph glyph-name="Q_j.liga" d="M544 842q11 -7 11 -23q0 -9 -3 -21q-6 -26 -18.5 -36.5t-40.5 -10.5q-26 0 -37 7t-11 23q0 9 3 21q7 27 19.5 37t39.5 10q26 0 37 -7zM402 613q81 -21 81 -87q0 -16 -2 -24q-51 -255 -78.5 -377.5t-43.5 -151.5q59 0 87 6l-7 -36q-22 -6 -43 -7t-54 -1 q-36 -64 -115 -102.5t-172 -38.5q-45 0 -73.5 17t-30.5 46q-38 -21 -64.5 -30.5t-56.5 -9.5q-37 0 -63 10.5t-43.5 26.5t-39.5 43q-4 5 -21 24t-37 35q-11 -7 -20.5 -13.5t-18.5 -11.5q-26 -18 -42 -26t-38 -8q-36 0 -55 15t-19 41q0 19 8 36q14 36 45 49q-31 40 -31 120 q0 78 27 204l17 80q32 146 69 225.5t92 113t143 33.5q96 0 138.5 -39.5t42.5 -133.5q0 -74 -28 -203l-17 -80q-27 -126 -58 -201.5t-74.5 -115t-106.5 -50.5l-36 -15q21 -19 48 -52q29 -36 52.5 -52t63.5 -16q25 0 49.5 9t62.5 29q48 24 59 29q33 19 92 31q39 8 75 11 q62 7 150 7q21 31 120 519q3 15 3 28q0 21 -11 35t-38 21zM-477 358q-25 -118 -25 -190q0 -78 32 -110.5t105 -32.5t120.5 31.5t81 104t61.5 201.5l17 80q26 124 26 192q0 77 -32 109t-105 32q-74 0 -122 -31.5t-81.5 -103.5t-60.5 -202zM-470.5 -59q11.5 6 31.5 21l27 19 l-31 14q-5 1 -18 5q-10 2 -16 2q-16 0 -28 -7.5t-18 -20.5q-4 -8 -4 -16q0 -11 8.5 -17t23.5 -6q13 0 24.5 6zM195.5 -139q64.5 28 102.5 74q-65 -1 -128 -8l-11 -1l-44 -6q-52 -10 -100 -31q-21 -14 -21 -29q0 -13 19 -20t52 -7q66 0 130.5 28z" />
         <glyph glyph-name="a_e.liga" d="M364.5 51q55.5 23 98.5 62l23 -35q-47 -41 -110.5 -66.5t-121.5 -25.5q-45 0 -81.5 22t-58 62t-21.5 91v27q-55 -20 -75 -41q-21 -21 -55 -61q-43 -52 -73.5 -76t-70.5 -24q-21 0 -37.5 16t-16.5 40q1 51 11 81q-29 -62 -77 -99.5t-99 -37.5q-74 0 -119.5 47t-45.5 123 q0 98 51 210.5t128 189t149 76.5q67 0 104.5 -18.5t37.5 -65.5q0 -11 -22.5 -121.5t-70.5 -335.5q-3 -18 -3 -32q0 -17 6 -25.5t21 -8.5q17 0 37.5 19t58.5 62q33 39 59 66q27 28 105 57q10 117 51.5 208.5t107.5 143t146 51.5q60 0 94.5 -30.5t34.5 -94.5 q0 -85 -51.5 -140.5t-121 -86t-177.5 -64.5q-13 -3 -23.5 -6.5l-19.5 -6.5q-1 -16 -1 -48q0 -55 35.5 -91t86.5 -36t106.5 23zM-283.5 88q56.5 63 88.5 169q27 120 42 198t15 91q0 27 -22.5 37t-74.5 10q-60 0 -127.5 -71.5t-113.5 -175.5t-46 -191q0 -59 32.5 -94.5 t87.5 -35.5q62 0 118.5 63zM280.5 548.5q-55.5 -44.5 -92 -123.5t-47.5 -181l30 10q98 32 161.5 60.5t109 76.5t45.5 118q0 41 -25 62.5t-60 21.5q-66 0 -121.5 -44.5z" />
         <glyph glyph-name="a_l.liga" d="M396.5 45q33.5 20 59.5 54l34 -24q-32 -40 -74.5 -64.5t-81.5 -24.5q-57 0 -92 41.5t-35 108.5v11q-102 -84 -217 -136q-29 -13 -67.5 -19t-68.5 -6q-32 0 -60.5 16t-28.5 40q1 51 11 81q-29 -62 -77 -99.5t-99 -37.5q-74 0 -119.5 47t-45.5 123q0 98 51 210.5t128 189 t149 76.5q67 0 104.5 -18.5t37.5 -65.5q0 -11 -22.5 -121.5t-70.5 -335.5q-1 -4 -1 -12q0 -24 16 -39t44 -15q48 0 100 21q129 60 236 155q5 295 53.5 454t157.5 159q42 0 67 -31.5t25 -83.5q0 -139 -70.5 -272.5t-189.5 -242.5v-20q-1 -63 22 -101t61 -38q30 0 63.5 20z M298.5 633q-41.5 -141 -47.5 -391q100 99 158.5 217t58.5 240q0 33 -15.5 54t-42.5 21q-70 0 -111.5 -141zM-283.5 88q56.5 63 88.5 169q27 120 42 198t15 91q0 27 -22.5 37t-74.5 10q-60 0 -127.5 -71.5t-113.5 -175.5t-46 -191q0 -59 32.5 -94.5t87.5 -35.5q62 0 118.5 63 z" />
         <glyph glyph-name="d_e.liga" d="M364.5 51q55.5 23 98.5 62l23 -35q-47 -41 -110.5 -66.5t-121.5 -25.5q-44 0 -80.5 21.5t-58 61t-22.5 89.5q-71 -36 -100 -71q-50 -62 -78 -81.5t-55 -19.5q-66 0 -66 69q-51 -69 -203 -69q-79 0 -114.5 34t-35.5 117q0 65 23 175q31 146 109.5 233t185.5 87 q53 0 89.5 -27.5t43.5 -72.5l57 268h42l-150 -709q-3 -16 -3 -30q0 -18 8.5 -27t29.5 -9q12 0 33 20t62 74q37 46 123 86q6 123 47.5 220t109 152t150.5 55q60 0 94.5 -30.5t34.5 -94.5q0 -79 -45.5 -134.5t-110 -90t-168.5 -76.5q-13 -5 -30.5 -12t-39.5 -17v-22 q0 -55 35.5 -91t86.5 -36t106.5 23zM-131 420q3 21 3 41q0 61 -30 96.5t-82 35.5q-92 0 -159.5 -78.5t-95.5 -210.5q-21 -100 -21 -160q0 -65 25.5 -92t80.5 -27q75 0 133.5 25.5t79.5 67.5zM277.5 546q-56.5 -47 -93 -131t-45.5 -190l53 22q96 39 154.5 70t99.5 78.5 t41 113.5q0 41 -25 62.5t-60 21.5q-68 0 -124.5 -47z" />
         <glyph glyph-name="d_l.liga" d="M406.5 45q33.5 20 59.5 54l35 -24q-32 -40 -75 -64.5t-81 -24.5q-58 0 -93 41t-35 109v11q-103 -83 -217 -135q-28 -13 -68.5 -19.5t-71.5 -6.5q-66 0 -66 69q-51 -69 -203 -69q-79 0 -114.5 34t-35.5 117q0 65 23 175q31 146 109.5 233t185.5 87q53 0 89.5 -27.5 t43.5 -72.5l57 268h42l-150 -709q-3 -16 -3 -29q0 -19 8.5 -28t29.5 -9q52 0 106 22q124 56 236 154q5 295 53.5 454t157.5 159q42 0 66.5 -31.5t24.5 -83.5q0 -139 -70.5 -272.5t-189.5 -241.5v-21q0 -63 22.5 -101t60.5 -38q30 0 63.5 20zM309.5 633.5 q-41.5 -140.5 -48.5 -391.5q100 99 158.5 217t58.5 240q0 34 -15 54.5t-42 20.5q-70 0 -111.5 -140.5zM-131 420q3 21 3 41q0 61 -30 96.5t-82 35.5q-92 0 -159.5 -78.5t-95.5 -210.5q-21 -100 -21 -160q0 -65 25.5 -92t80.5 -27q75 0 133.5 25.5t79.5 67.5z" />
         <glyph glyph-name="e_e.liga" d="M364.5 51q55.5 23 98.5 62l23 -35q-47 -41 -110.5 -66.5t-121.5 -25.5q-45 0 -81.5 22t-58 62t-21.5 91v16q-88 -29 -128 -57q-105 -71 -178.5 -102.5t-132.5 -31.5q-45 0 -81.5 22t-58 62t-21.5 91v26q-39 -13 -51 -26l-22 35q19 17 76 35q10 116 51.5 207.5 t107.5 142.5t146 51q60 0 94.5 -30.5t34.5 -94.5q0 -88 -56 -146.5t-129.5 -89.5t-180.5 -62l-27 -8q-1 -15 -1 -46q0 -55 35.5 -91t86.5 -36q52 0 118 29t166 98q26 18 61.5 33t91.5 35q9 118 51 211t108 145.5t147 52.5q60 0 94.5 -30.5t34.5 -94.5q0 -89 -57 -148.5 t-132.5 -92t-203.5 -74.5q-1 -12 -1 -37q0 -55 35.5 -91t86.5 -36t106.5 23zM-319.5 549q-55.5 -44 -92 -123.5t-47.5 -180.5q105 30 173 57.5t120.5 78.5t52.5 128q0 41 -25 62.5t-60 21.5q-66 0 -121.5 -44zM279 547.5q-56 -45.5 -92 -126t-47 -183.5q113 37 181.5 67 t117 80t48.5 124q0 41 -25 62.5t-60 21.5q-67 0 -123 -45.5z" />
         <glyph glyph-name="f_f.liga" d="M557.5 780q34.5 -34 45.5 -97l-38 -12q-8 51 -29.5 77.5t-71.5 26.5q-49 0 -83.5 -41t-60 -105t-66.5 -191h251l-8 -38h-257q-12 -37 -21 -68q72 -54 111 -117t39 -139q0 -84 -22.5 -148t-64 -99t-95.5 -35q-41 0 -66.5 27.5t-25.5 72.5q0 66 21 182t55 236 q-51 30 -75 49t-27 39h-429q-12 -37 -21 -68q72 -54 111 -117t39 -139q0 -84 -22.5 -148t-64 -99t-95.5 -35q-41 0 -66.5 27.5t-25.5 72.5q0 66 21 182t55 236q-53 31 -78 51.5t-25 42.5q0 32 70 32h74q39 128 70.5 206t73.5 124t98 46q69 0 103.5 -34t45.5 -97l-38 -12 q-8 51 -29.5 77.5t-71.5 26.5q-49 0 -83.5 -41t-60 -105t-66.5 -191h558q39 128 70.5 206t73.5 124t98 46q69 0 103.5 -34zM-482 385.5q15 -9.5 44 -23.5q4 -1 21 -10l15 45q-8 -1 -22 1t-20 3q-7 1 -16.5 2t-19.5 1q-12 0 -13 -3q-4 -6 11 -15.5zM106 400q-3 -9 53 -36 l24 -12l15 45q-16 0 -37 3h-55zM-305 194q-31 51 -90 98q-30 -110 -48.5 -222t-18.5 -180q0 -25 13 -41t33 -16q43 0 75 30.5t49.5 85.5t17.5 128q0 66 -31 117zM295 194q-31 51 -90 98q-30 -111 -48.5 -223t-18.5 -179q0 -25 13 -41t33 -16q43 0 75 30.5t49.5 85.5 t17.5 128q0 66 -31 117z" />
         <glyph glyph-name="f_f_i.liga" d="M295 758q-11 7 -11 23q0 9 3 21q7 27 20 37t39 10t37 -6.5t11 -23.5q0 -9 -3 -21q-5 -26 -18 -36.5t-41 -10.5q-26 0 -37 7zM492 75q-40 -51 -73.5 -70t-82.5 -19q-82 0 -120.5 31.5t-38.5 104.5q0 56 22 140l65 249q-40 -47 -118 -71.5t-146.5 -32t-102.5 -7.5h-257 q-12 -37 -21 -68q72 -54 111 -117t39 -139q0 -84 -22.5 -148t-64 -99t-95.5 -35q-41 0 -66.5 27.5t-25.5 72.5q0 66 21 182t55 236q-51 30 -75 49t-27 39h-429q-12 -37 -21 -68q72 -54 111 -117t39 -139q0 -84 -22.5 -148t-64 -99t-95.5 -35q-41 0 -66.5 27.5t-25.5 72.5 q0 66 21 182t55 236q-53 31 -78 51.5t-25 42.5q0 32 70 32h74q39 128 70.5 206t73.5 124t98 46q69 0 103.5 -34t45.5 -97l-38 -12q-8 51 -29.5 77.5t-71.5 26.5q-49 0 -83.5 -41t-60 -105t-66.5 -191h558q39 128 70.5 206t73.5 124t98 46q69 0 103.5 -34t45.5 -97l-38 -12 q-8 51 -29.5 77.5t-71.5 26.5q-49 0 -83.5 -41t-60 -105t-66.5 -191h251q48 0 128 12.5t158 52.5t96 115h43l-88 -356q-20 -80 -20 -128q0 -58 27.5 -83.5t85.5 -25.5q38 0 65 16t58 58zM-1082 385.5q15 -9.5 44 -23.5q4 -1 21 -10l15 45q-8 -1 -22 1t-20 3q-7 1 -16.5 2 t-19.5 1q-12 0 -13 -3q-4 -6 11 -15.5zM-494 400q-3 -9 53 -36l24 -12l15 45q-16 0 -37 3h-55zM-905 194q-31 51 -90 98q-30 -110 -48.5 -222t-18.5 -180q0 -25 13 -41t33 -16q43 0 75 30.5t49.5 85.5t17.5 128q0 66 -31 117zM-305 194q-31 51 -90 98q-30 -110 -48.5 -222 t-18.5 -180q0 -25 13 -41t33 -16q43 0 75 30.5t49.5 85.5t17.5 128q0 66 -31 117z" />
         <glyph glyph-name="f_i.liga" d="M298 757.5q-11 6.5 -11 22.5q0 9 3 22q6 27 18.5 37t39.5 10q26 0 37 -6.5t11 -22.5q0 -8 -3 -22q-5 -26 -17.5 -36.5t-40.5 -10.5q-26 0 -37 6.5zM492 75q-40 -51 -73.5 -70t-82.5 -19q-82 0 -120.5 31.5t-38.5 104.5q0 56 22 140l65 249q-40 -47 -118 -71.5t-146.5 -32 t-102.5 -7.5h-257q-12 -37 -21 -68q72 -54 111 -117t39 -139q0 -84 -22.5 -148t-64 -99t-95.5 -35q-41 0 -66.5 27.5t-25.5 72.5q0 66 21 182t55 236q-53 31 -78 51.5t-25 42.5q0 32 70 32h74q39 128 70.5 206t73.5 124t98 46q69 0 103.5 -34t45.5 -97l-38 -12 q-8 51 -29.5 77.5t-71.5 26.5q-49 0 -83.5 -41t-60 -105t-66.5 -191h251q48 0 128 12.5t158 52.5t96 115h43l-88 -356q-20 -80 -20 -128q0 -58 27.5 -83.5t85.5 -25.5q38 0 65 16t58 58zM-482 385.5q15 -9.5 44 -23.5q4 -1 21 -10l15 45q-8 -1 -22 1t-20 3q-7 1 -16.5 2 t-19.5 1q-12 0 -13 -3q-4 -6 11 -15.5zM-305 194q-31 51 -90 98q-30 -110 -48.5 -222t-18.5 -180q0 -25 13 -41t33 -16q43 0 75 30.5t49.5 85.5t17.5 128q0 66 -31 117z" />
         <glyph glyph-name="f_j.liga" d="M557.5 851q13.5 -8 13.5 -28q0 -6 -4 -26q-6 -33 -21 -44.5t-50 -11.5q-30 0 -43.5 8t-13.5 28q0 6 4 26q7 34 21.5 45t49.5 11q30 0 43.5 -8zM501 618q-35 -145 -57.5 -253.5t-46.5 -237.5q-11 -57 -19.5 -99t-15.5 -55q58 0 86 6l-6 -36q-22 -6 -43 -7t-54 -1 q-36 -64 -115.5 -102.5t-172.5 -38.5q-47 0 -75.5 18.5t-28.5 48.5q0 52 97.5 82t267.5 29q6 9 16 54t26 134q41 220 75 366q-41 -46 -157.5 -74.5t-231 -40t-149.5 -11.5h-257q-12 -37 -21 -68q72 -54 111 -117t39 -139q0 -84 -22.5 -148t-64 -99t-95.5 -35 q-41 0 -66.5 27.5t-25.5 72.5q0 66 21 182t55 236q-53 31 -78 51.5t-25 42.5q0 32 70 32h74q39 128 70.5 206t73.5 124t98 46q69 0 103.5 -34t45.5 -97l-38 -12q-8 51 -29.5 77.5t-71.5 26.5q-49 0 -83.5 -41t-60 -105t-66.5 -191h251q61 0 180.5 12.5t235 51.5t136.5 111 l1 5h43zM-482 385.5q15 -9.5 44 -23.5q4 -1 21 -10l15 45q-8 -1 -22 1t-20 3q-7 1 -16.5 2t-19.5 1q-12 0 -13 -3q-4 -6 11 -15.5zM-305 194q-31 51 -90 98q-30 -110 -48.5 -222t-18.5 -180q0 -25 13 -41t33 -16q43 0 75 30.5t49.5 85.5t17.5 128q0 66 -31 117zM197.5 -139 q64.5 28 102.5 74q-139 -3 -221.5 -23.5t-82.5 -51.5q0 -13 19.5 -20t52.5 -7q65 0 129.5 28z" />
         <glyph glyph-name="f_r.liga" d="M443 43q25 18 40 48l39 -17q-18 -40 -53.5 -64t-77.5 -24q-43 0 -69 28.5t-26 74.5q0 88 41.5 208.5t106.5 224.5q-50 -27 -105 -44t-95 -17q-20 0 -30 1q-28 -37 -88 -60.5t-161 -23.5q-32 0 -68 3l-257 19q-12 -37 -21 -68q72 -54 111 -117t39 -139q0 -84 -22.5 -148 t-64 -99t-95.5 -35q-41 0 -66.5 27.5t-25.5 72.5q0 66 21 182t55 236q-53 31 -78 51.5t-25 42.5q0 32 70 32h74q39 128 70.5 206t73.5 124t98 46q69 0 103.5 -34t45.5 -97l-38 -12q-8 51 -29.5 77.5t-71.5 26.5q-49 0 -83.5 -41t-60 -105t-66.5 -191l251 -18q23 -2 65 -2 q144 0 197 53q-39 11 -61 33.5t-23 52.5q1 34 24 54.5t60 20.5q33 0 53.5 -24.5t21.5 -65.5q0 -21 -7 -42h7q45 0 114.5 26.5t138.5 70.5l32 -22q-84 -125 -136 -260.5t-52 -226.5q0 -29 14 -46t37 -17q28 0 53 18zM146 526q16 -13 43 -20q7 17 7 37q0 45 -34 45 q-13 0 -22.5 -9t-9.5 -24q0 -16 16 -29zM-482 385.5q15 -9.5 44 -23.5q4 -1 21 -10l15 45q-8 -1 -22 1t-20 3q-7 1 -16.5 2t-19.5 1q-12 0 -13 -3q-4 -6 11 -15.5zM-305 194q-31 51 -90 98q-30 -110 -48.5 -222t-18.5 -180q0 -25 13 -41t33 -16q43 0 75 30.5t49.5 85.5 t17.5 128q0 66 -31 117z" />
         <glyph glyph-name="f_s.liga" d="M521 94q-44 -49 -127 -78.5t-175 -29.5q-64 0 -114.5 28.5t-81.5 78.5l36 16q24 -38 64.5 -61t84.5 -23q60 0 103 36.5t65.5 96.5t22.5 131q0 39 -11 79t-29 63q-28 -24 -64 -33t-88 -9q-26 0 -108 4q-131 7 -202 7h-257q-12 -37 -21 -68q72 -54 111 -117t39 -139 q0 -84 -22.5 -148t-64 -99t-95.5 -35q-41 0 -66.5 27.5t-25.5 72.5q0 66 21 182t55 236q-53 31 -78 51.5t-25 42.5q0 32 70 32h74q39 128 70.5 206t73.5 124t98 46q69 0 103.5 -34t45.5 -97l-38 -12q-8 51 -29.5 77.5t-71.5 26.5q-49 0 -83.5 -41t-60 -105t-66.5 -191h251 q86 -1 188 -9q68 -5 106 -5q45 0 76.5 9t56.5 32q-27 26 -42.5 54t-15.5 47q0 30 17.5 48t48.5 18q35 0 55 -19t20 -51q-1 -21 -9.5 -47.5t-24.5 -47.5q27 -34 43.5 -85.5t17.5 -100.5q0 -71 -24.5 -132.5t-69.5 -106.5q39 11 82.5 34t63.5 45zM370 554q0 40 -25 40 q-27 0 -27 -28q0 -16 8.5 -31.5t26.5 -35.5q17 31 17 55zM-482 385.5q15 -9.5 44 -23.5q4 -1 21 -10l15 45q-8 -1 -22 1t-20 3q-7 1 -16.5 2t-19.5 1q-12 0 -13 -3q-4 -6 11 -15.5zM-305 194q-31 51 -90 98q-30 -110 -48.5 -222t-18.5 -180q0 -25 13 -41t33 -16 q43 0 75 30.5t49.5 85.5t17.5 128q0 66 -31 117z" />
         <glyph glyph-name="f_y.liga" d="M233.5 617q20.5 -15 21.5 -40q-1 -46 -23 -146.5t-57 -214.5q-7 -21 -7 -43q0 -41 27 -64.5t71 -23.5q46 0 79.5 8.5t60 37t38.5 84.5l85 403h43l-6 -29q-66 -314 -97 -450.5t-47 -165.5q58 0 86 6l-6 -36q-22 -6 -43 -7t-54 -1q-36 -64 -115.5 -102.5t-172.5 -38.5 q-47 0 -75.5 18.5t-28.5 48.5q0 53 97.5 82.5t267.5 28.5q16 25 29 68.5t17 70.5q-8 -34 -56.5 -49.5t-100.5 -15.5q-42 0 -74 18t-49.5 48t-17.5 64q0 20 6 39q36 110 58 205t22 137q0 16 -11 26t-29 10q-17 0 -37 -11t-59 -37q-59 -41 -113 -70.5t-136 -52t-187 -22.5 q-12 -37 -21 -68q72 -54 111 -117t39 -139q0 -84 -22.5 -148t-64 -99t-95.5 -35q-41 0 -66.5 27.5t-25.5 72.5q0 66 21 182t55 236q-53 31 -78 51.5t-25 42.5q0 32 70 32h74q39 128 70.5 206t73.5 124t98 46q69 0 103.5 -34t45.5 -97l-38 -12q-8 51 -29.5 77.5t-71.5 26.5 q-49 0 -83.5 -41t-60 -105t-66.5 -191q89 0 160 19.5t120 46t108 66.5q49 33 78 47.5t58 14.5q35 0 55.5 -15zM-402 397q-8 -1 -22 1t-20 3q-7 1 -16.5 2t-19.5 1q-12 0 -13 -3q-4 -6 11 -15.5t44 -23.5q4 -1 21 -10zM-341 -136.5q32 30.5 49.5 85.5t17.5 128q0 66 -31 117 t-90 98q-30 -110 -48.5 -222t-18.5 -180q0 -25 13 -41t33 -16q43 0 75 30.5zM257.5 -139q64.5 28 102.5 74q-139 -3 -221.5 -23.5t-82.5 -51.5q0 -13 19.5 -20t52.5 -7q65 0 129.5 28z" />
         <glyph glyph-name="h_e.liga" d="M364.5 51q55.5 23 98.5 62l23 -35q-47 -41 -110.5 -66.5t-121.5 -25.5q-45 0 -81.5 22t-58 62t-21.5 91q-80 -37 -115 -74q-57 -62 -87.5 -81.5t-58.5 -19.5q-31 0 -49.5 15t-18.5 40q0 43 23 145t60 221q17 55 17 97q0 47 -23.5 68t-68.5 21q-53 0 -109.5 -50.5 t-98 -122.5t-53.5 -130l-62 -290h-43l170 800h42l-78 -366q45 90 105 144t126 54q140 0 140 -119q0 -44 -21 -109q-36 -112 -58.5 -207t-22.5 -136q0 -16 11 -26t28 -10q14 0 35.5 17t72.5 77q22 26 56.5 48t82.5 44q7 121 48 217t108.5 150t149.5 54q60 0 94.5 -30.5 t34.5 -94.5q0 -80 -47 -136t-113 -90.5t-175 -77.5q-26 -9 -59 -23v-25q0 -55 35.5 -91t86.5 -36t106.5 23zM278 546.5q-56 -46.5 -92 -129t-46 -187.5q16 7 30 12.5t26 10.5q97 38 154 68t97 76t40 112q0 41 -25 62.5t-60 21.5q-68 0 -124 -46.5z" />
         <glyph glyph-name="h_l.liga" d="M396.5 45q33.5 20 59.5 54l34 -24q-32 -40 -74.5 -64.5t-81.5 -24.5q-56 0 -91 40t-36 105q-83 -69 -178.5 -107t-196.5 -38q-31 0 -49.5 15t-18.5 40q0 43 23 145t60 221q17 55 17 97q0 47 -23.5 68t-68.5 21q-53 0 -109.5 -50.5t-98 -122.5t-53.5 -130l-62 -290h-43 l170 800h42l-78 -366q45 90 105 144t126 54q140 0 140 -119q0 -44 -21 -109q-36 -112 -58.5 -207t-22.5 -136q0 -16 11 -26t28 -10q93 0 185.5 42.5t173.5 116.5q3 304 51.5 467t159.5 163q42 0 67 -31.5t25 -83.5q0 -85 -32 -180t-91 -186.5t-137 -164.5v-4q-1 -63 22 -101 t61 -38q30 0 63.5 20zM297.5 629q-41.5 -145 -46.5 -403q98 104 157.5 232.5t59.5 240.5q0 33 -15.5 54t-42.5 21q-71 0 -112.5 -145z" />
         <glyph glyph-name="i_e.liga" d="M-311 749.5q-13 8.5 -13 28.5q0 10 3 25q7 34 21.5 45t49.5 11q31 0 44 -8.5t13 -28.5q0 -10 -3 -25q-7 -33 -21.5 -44.5t-49.5 -11.5q-31 0 -44 8.5zM364.5 51q55.5 23 98.5 62l23 -35q-47 -41 -110.5 -66.5t-121.5 -25.5q-45 0 -81.5 22t-58 62t-21.5 91v21 q-88 -32 -125 -64q-65 -57 -102 -84.5t-64.5 -37.5t-61.5 -10q-82 0 -121.5 31t-39.5 104q0 59 23 141l65 235q3 14 3 26q0 46 -51 56l10 39q84 -18 84 -89q0 -13 -1 -19l-67 -248q-21 -78 -21 -127q0 -59 28 -84.5t86 -25.5q27 0 49.5 9t56 34t96.5 80q48 42 156 80 q9 117 51 209t108 143.5t146 51.5q60 0 94.5 -30.5t34.5 -94.5q0 -83 -51 -138.5t-122 -88.5t-185 -71l-35 -12q-1 -13 -1 -42q0 -55 35.5 -91t86.5 -36t106.5 23zM280.5 548.5q-55.5 -44.5 -92 -123.5t-47.5 -181l30 10q104 36 166.5 64.5t106 75t43.5 115.5q0 41 -25 62.5 t-60 21.5q-66 0 -121.5 -44.5z" />
         <glyph glyph-name="i_l.liga" d="M-311 749.5q-13 8.5 -13 28.5q0 10 3 25q7 34 21.5 45t49.5 11q31 0 44 -8.5t13 -28.5q0 -10 -3 -25q-7 -33 -21.5 -44.5t-49.5 -11.5q-31 0 -44 8.5zM396.5 45q33.5 20 59.5 54l34 -24q-32 -40 -74.5 -64.5t-81.5 -24.5q-57 0 -92 41.5t-35 108.5v59q-112 -95 -235 -152 t-232 -57q-82 0 -121.5 31t-39.5 104q0 59 23 141l65 235q3 14 3 26q0 46 -51 56l10 39q84 -18 84 -89q0 -13 -1 -19l-67 -248q-21 -78 -21 -127q0 -59 28 -84.5t86 -25.5q104 0 230.5 63.5t240.5 166.5q7 269 56 414t153 145q42 0 67 -31.5t25 -83.5q0 -107 -71 -231 t-188 -234q-1 -24 -1 -74q0 -61 22.5 -98t60.5 -37q30 0 63.5 20zM303.5 648.5q-40.5 -125.5 -50.5 -351.5q98 99 156.5 204.5t58.5 197.5q0 33 -15.5 54t-42.5 21q-66 0 -106.5 -125.5z" />
         <glyph glyph-name="k_e.liga" d="M364.5 51q55.5 23 98.5 62l23 -35q-47 -41 -110.5 -66.5t-121.5 -25.5q-45 0 -81.5 22t-58 62t-21.5 91v12q-81 -31 -117 -66q-58 -58 -81 -79.5t-42 -31.5t-42 -10q-46 0 -65 46.5t-17 134.5q0 34 -13.5 68.5t-36.5 56.5l18 35q67 0 118.5 23t80 63t28.5 93q0 38 -29 62 t-69 24q-52 0 -105.5 -36t-96 -101t-63.5 -148l-65 -307h-43l65 303h-1q1 6 5 18l102 479h42l-66 -312q47 67 107 104.5t119 37.5t100 -34t41 -87q-1 -88 -63.5 -148t-165.5 -72q17 -23 27.5 -56.5t10.5 -64.5v-40q0 -53 6.5 -78t26.5 -25q15 0 47.5 25.5t94.5 88.5 q43 43 144 83q9 119 50.5 212t108 145.5t147.5 52.5q60 0 94.5 -30.5t34.5 -94.5q0 -82 -49 -138t-117.5 -89t-179.5 -73q-10 -4 -22 -8t-25 -9q-1 -11 -1 -35q0 -55 35.5 -91t86.5 -36t106.5 23zM279.5 548q-55.5 -45 -92 -125.5t-47.5 -183.5l39 14q101 36 162 65.5 t103.5 76t42.5 114.5q0 41 -25 62.5t-60 21.5q-67 0 -122.5 -45z" />
         <glyph glyph-name="k_l.liga" d="M396.5 45q33.5 20 59.5 54l34 -24q-32 -40 -74.5 -64.5t-81.5 -24.5q-57 0 -92 41.5t-35 108.5q-88 -71 -188.5 -110.5t-207.5 -39.5q-46 0 -65 46.5t-17 134.5q0 34 -13.5 68.5t-36.5 56.5l18 35q67 0 118.5 23t80 63t28.5 93q0 38 -29 62t-69 24q-52 0 -105.5 -36 t-96 -101t-63.5 -148l-65 -307h-43l65 303h-1q1 6 5 18l102 479h42l-66 -312q47 67 107 104.5t119 37.5t100 -34t41 -87q-1 -88 -63.5 -148t-165.5 -72q17 -23 27.5 -56.5t10.5 -64.5v-40q0 -53 6.5 -78t26.5 -25q106 0 208 45.5t190 124.5q4 298 52.5 458.5t158.5 160.5 q42 0 67 -31.5t25 -83.5q0 -128 -70.5 -272t-189.5 -254v-9q-1 -63 22 -101t61 -38q30 0 63.5 20zM298.5 632q-41.5 -142 -47.5 -395q99 103 158 227.5t59 234.5q0 33 -15.5 54t-42.5 21q-70 0 -111.5 -142z" />
         <glyph glyph-name="l_e.liga" d="M364.5 51q55.5 23 98.5 62l23 -35q-47 -41 -110.5 -66.5t-121.5 -25.5q-45 0 -81.5 22t-58 62t-21.5 91v19q-87 -30 -127 -62q-89 -72 -141 -102t-91 -30q-56 0 -91 40.5t-36 107.5q-101 -84 -211 -134l-18 36q120 54 229 152q3 301 52 463.5t159 162.5q42 0 67 -31.5 t25 -83.5q0 -141 -71 -278.5t-189 -248.5v-8q-1 -63 22 -101t61 -38q30 0 74.5 26.5t130.5 96.5q27 22 65 40t93 38q9 117 51 209.5t108 144.5t146 52q60 0 94.5 -30.5t34.5 -94.5q0 -84 -51.5 -140.5t-123.5 -89.5t-186 -71q-7 -3 -15 -5.5t-17 -5.5q-1 -13 -1 -40 q0 -55 35.5 -91t86.5 -36t106.5 23zM-302.5 630q-41.5 -144 -46.5 -400q100 102 158.5 223.5t58.5 245.5q0 33 -15.5 54t-42.5 21q-71 0 -112.5 -144zM279.5 548q-55.5 -45 -91.5 -124.5t-47 -182.5l21 7q106 36 170.5 65.5t109.5 77.5t45 118q0 41 -25 62.5t-60 21.5 q-67 0 -122.5 -45z" />
         <glyph glyph-name="l_l.liga" d="M396.5 45q33.5 20 59.5 54l34 -24q-32 -40 -74.5 -64.5t-81.5 -24.5q-57 0 -92 41.5t-35 108.5v58q-112 -95 -236.5 -151.5t-236.5 -56.5q-56 0 -91 40.5t-36 107.5q-101 -84 -211 -134l-18 36q120 54 229 152q3 301 52 463.5t159 162.5q42 0 67 -31.5t25 -83.5 q0 -141 -71 -278.5t-189 -248.5v-8q-1 -63 22 -101t61 -38q105 0 233 64t243 168q7 268 56 412.5t153 144.5q42 0 67 -31.5t25 -83.5q0 -107 -71 -232t-188 -234q-1 -23 -1 -73q0 -61 22.5 -98t60.5 -37q30 0 63.5 20zM-302.5 630q-41.5 -144 -46.5 -400 q100 102 158.5 223.5t58.5 245.5q0 33 -15.5 54t-42.5 21q-71 0 -112.5 -144zM304 649q-41 -125 -51 -350q98 99 156.5 204t58.5 196q0 33 -15.5 54t-42.5 21q-65 0 -106 -125z" />
         <glyph glyph-name="m_e.liga" d="M364.5 51q55.5 23 98.5 62l23 -35q-47 -41 -110.5 -66.5t-121.5 -25.5q-45 0 -81.5 22t-58 62t-21.5 91q-36 -25 -50 -54q-34 -69 -64 -95t-83 -26q-31 0 -49.5 15t-18.5 40q0 42 23.5 144.5t60.5 221.5q28 90 28 136q0 26 -10 38t-30 12q-43 0 -71.5 -21t-54 -85 t-52.5 -191l-62 -296h-42l85 407l5 24q19 85 19 114q0 25 -10.5 36.5t-33.5 11.5q-41 0 -67 -22t-49 -85t-51 -192l-63 -294h-43l115 537l2 20q1 17 -8 26.5t-27 9.5q-12 0 -27.5 -5.5t-22.5 -12.5l-21 31q15 12 37.5 19t45.5 7q33 0 46.5 -16.5t13.5 -46.5q0 -15 -3 -33 q12 34 45.5 65t75.5 31q45 0 61.5 -18.5t16.5 -51.5q0 -16 -1 -27.5t-2 -18.5q27 57 63 86.5t79 29.5q42 0 63 -21.5t21 -67.5q0 -54 -28 -139q-36 -112 -58.5 -207t-23.5 -136q0 -16 11 -26t29 -10q42 0 87 94q22 46 94 87q7 122 48 219t108.5 152t150.5 55 q60 0 94.5 -30.5t34.5 -94.5q0 -75 -40 -126t-96.5 -81.5t-148.5 -66.5q-76 -30 -108 -46q-1 -10 -1 -32q0 -55 35.5 -91t86.5 -36t106.5 23zM277.5 546.5q-56.5 -46.5 -92.5 -129.5t-46 -188q13 6 83 36q87 36 139.5 64.5t89 73t36.5 106.5q0 41 -25 62.5t-60 21.5 q-68 0 -124.5 -46.5z" />
         <glyph glyph-name="m_l.liga" d="M396.5 45q33.5 20 59.5 54l34 -24q-32 -40 -74.5 -64.5t-81.5 -24.5q-56 0 -90.5 40t-36.5 106q-77 -68 -157 -107t-154 -39q-31 0 -49.5 15t-18.5 40q0 42 23.5 144.5t60.5 221.5q28 90 28 136q0 26 -10 38t-30 12q-43 0 -71.5 -21t-54 -85t-52.5 -191l-62 -296h-42 l85 407l5 24q19 85 19 114q0 25 -10.5 36.5t-33.5 11.5q-41 0 -67 -22t-49 -85t-51 -192l-63 -294h-43l115 537l2 20q1 17 -8 26.5t-27 9.5q-12 0 -27.5 -5.5t-22.5 -12.5l-21 31q15 12 37.5 19t45.5 7q33 0 46.5 -16.5t13.5 -46.5q0 -15 -3 -33q12 34 45.5 65t75.5 31 q45 0 61.5 -18.5t16.5 -51.5q0 -16 -1 -27.5t-2 -18.5q27 57 63 86.5t79 29.5q42 0 63 -21.5t21 -67.5q0 -54 -28 -139q-36 -112 -58.5 -207t-23.5 -136q0 -16 11 -26t29 -10q63 0 140.5 46t153.5 124q4 298 52.5 458.5t158.5 160.5q42 0 67 -31.5t25 -83.5q0 -124 -73 -268 t-187 -259v-8q-1 -63 22 -101t61 -38q30 0 63.5 20zM298.5 633q-41.5 -141 -47.5 -391q95 109 156 233.5t61 223.5q0 33 -15.5 54t-42.5 21q-70 0 -111.5 -141z" />
         <glyph glyph-name="n_e.liga" d="M364.5 51q55.5 23 98.5 62l23 -35q-47 -41 -110.5 -66.5t-121.5 -25.5q-45 0 -81.5 22t-58 61.5t-21.5 89.5q-75 -36 -105 -72q-50 -62 -79 -81.5t-57 -19.5q-31 0 -50 15t-19 40q1 41 24 142t60 223q17 57 17 99q0 88 -83 88q-49 0 -102.5 -51t-95 -124t-53.5 -131 l-61 -287h-43l114 537l2 22q0 15 -11 24.5t-29 9.5q-11 0 -24.5 -5.5t-20.5 -12.5l-21 31q15 12 37.5 19t45.5 7q26 0 46 -18t20 -50q0 -14 -2 -22l-22 -107q45 88 103 142.5t117 54.5q130 0 130 -117q0 -45 -21 -111q-36 -111 -58.5 -206.5t-23.5 -136.5q0 -16 11 -26 t29 -10q14 0 33.5 17t64.5 77q39 44 128 85q6 123 47.5 220.5t109 152.5t150.5 55q60 0 94.5 -30.5t34.5 -94.5q0 -79 -46 -134.5t-111 -90t-170 -76.5l-67 -27v-24q0 -55 35.5 -91t86.5 -36t106.5 23zM276.5 546q-56.5 -47 -92.5 -131t-45 -191q16 7 30 12.5t26 10.5 q95 39 153.5 69.5t98.5 78t40 114.5q0 41 -25 62.5t-60 21.5q-69 0 -125.5 -47z" />
         <glyph glyph-name="n_l.liga" d="M396.5 45q33.5 20 59.5 54l34 -24q-32 -40 -74.5 -64.5t-81.5 -24.5q-55 0 -90 39t-37 104q-81 -67 -171.5 -105t-183.5 -38q-31 0 -50 15t-19 40q1 41 24 142t60 223q17 57 17 99q0 88 -83 88q-49 0 -102.5 -51t-95 -124t-53.5 -131l-61 -287h-43l114 537l2 22 q0 15 -11 24.5t-29 9.5q-11 0 -24.5 -5.5t-20.5 -12.5l-21 31q15 12 37.5 19t45.5 7q26 0 46 -18t20 -50q0 -14 -2 -22l-22 -107q45 88 103 142.5t117 54.5q130 0 130 -117q0 -45 -21 -111q-36 -111 -58.5 -206.5t-23.5 -136.5q0 -16 11 -26t29 -10q83 0 171 43.5t168 119.5 q3 301 52 463.5t159 162.5q42 0 67 -31.5t25 -83.5q0 -85 -32.5 -180.5t-91.5 -187t-136 -164.5v-3q-1 -63 22 -101t61 -38q30 0 63.5 20zM297.5 630.5q-41.5 -143.5 -46.5 -399.5q97 105 157 231.5t60 236.5q0 33 -15.5 54t-42.5 21q-71 0 -112.5 -143.5z" />
         <glyph glyph-name="r_e.liga" d="M364.5 51q55.5 23 98.5 62l23 -35q-47 -41 -110.5 -66.5t-121.5 -25.5q-45 0 -81.5 22t-58 62t-21.5 91v19q-79 -30 -112 -62q-57 -56 -86.5 -82t-54 -38t-51.5 -12q-43 0 -69 28.5t-26 74.5q0 88 41.5 208.5t106.5 224.5q-50 -27 -105 -44t-95 -17q-15 0 -22 1 q-34 -83 -102 -161l-27 34q59 64 86 133q-45 10 -70.5 33.5t-25.5 55.5q1 34 23.5 54.5t60.5 20.5q33 0 53.5 -25t20.5 -65q0 -19 -6 -42h7q45 0 114.5 26.5t138.5 70.5l32 -22q-84 -125 -136 -262t-52 -228q0 -27 14 -43.5t36 -16.5q28 0 62.5 25t100.5 94q24 24 60 44 t86 39q9 117 51 209t108 144t146 52q60 0 94.5 -30.5t34.5 -94.5q0 -82 -50 -137.5t-119 -88t-180 -70.5l-44 -15q-1 -13 -1 -41q0 -55 35.5 -91t86.5 -36t106.5 23zM280.5 548.5q-55.5 -44.5 -92 -123.5t-47.5 -181l39 14q100 35 161 63.5t103.5 74.5t42.5 113 q0 41 -25 62.5t-60 21.5q-66 0 -121.5 -44.5zM-455.5 525q16.5 -13 44.5 -20q5 23 5 38q0 45 -34 45q-13 0 -22.5 -9t-9.5 -24q0 -17 16.5 -30z" />
         <glyph glyph-name="r_l.liga" d="M396.5 45q33.5 20 59.5 54l34 -24q-32 -40 -74.5 -64.5t-81.5 -24.5q-57 0 -92 41t-35 108q-90 -70 -195.5 -109.5t-222.5 -39.5q-43 0 -69 28.5t-26 74.5q0 88 41.5 208.5t106.5 224.5q-50 -27 -105 -44t-95 -17q-15 0 -22 1q-34 -83 -102 -161l-27 34q59 64 86 133 q-45 10 -70.5 33.5t-25.5 55.5q1 34 23.5 54.5t60.5 20.5q33 0 53.5 -25t20.5 -65q0 -19 -6 -42h7q45 0 114.5 26.5t138.5 70.5l32 -22q-84 -125 -136 -262t-52 -228q0 -27 14 -43.5t36 -16.5q117 0 223.5 44.5t196.5 122.5q4 299 52.5 460.5t158.5 161.5q42 0 67 -31.5 t25 -83.5q0 -85 -31 -179t-90 -184.5t-139 -163.5v-8q-1 -63 22 -101t61 -38q30 0 63.5 20zM297.5 630.5q-41.5 -143.5 -46.5 -398.5q101 102 159 228t58 239q0 33 -15.5 54t-42.5 21q-71 0 -112.5 -143.5zM-455.5 525q16.5 -13 44.5 -20q5 23 5 38q0 45 -34 45 q-13 0 -22.5 -9t-9.5 -24q0 -17 16.5 -30z" />
         <glyph glyph-name="s_e.liga" d="M364.5 51q55.5 23 98.5 62l23 -35q-47 -41 -110.5 -66.5t-121.5 -25.5q-45 0 -81.5 22t-58 62t-21.5 91v16q-78 -25 -113 -50q-99 -68 -187.5 -104.5t-175.5 -36.5q-64 0 -115 28.5t-82 78.5l37 16q23 -38 63.5 -61t84.5 -23q60 0 103.5 36.5t66 96.5t22.5 131 q0 38 -11 78t-29 64q-37 -52 -102 -90t-134 -47l-9 38q65 8 124.5 44.5t93.5 88.5q-27 26 -42.5 54t-16.5 47q1 30 18.5 48t48.5 18q34 0 54 -19t20 -51q0 -21 -9 -47t-25 -48q28 -34 44.5 -86t16.5 -100q0 -71 -24 -132.5t-69 -106.5q77 23 210 117q42 29 139 63 q9 119 50.5 212t108 145.5t147.5 52.5q60 0 94.5 -30.5t34.5 -94.5q0 -90 -57.5 -149.5t-133.5 -92t-202 -73.5q-1 -12 -1 -37q0 -55 35.5 -91t86.5 -36t106.5 23zM-232 558q0 36 -25 36q-28 0 -28 -28q0 -16 9 -31.5t27 -35.5q17 34 17 59zM279 547.5q-56 -45.5 -92 -126 t-47 -184.5q112 37 180 67t117.5 80.5t49.5 124.5q0 41 -25 62.5t-60 21.5q-67 0 -123 -45.5z" />
         <glyph glyph-name="s_l.liga" d="M396.5 45q33.5 20 59.5 54l34 -24q-32 -40 -74.5 -64.5t-81.5 -24.5q-57 0 -92 41.5t-35 108.5v14q-111 -77 -258.5 -120.5t-331.5 -43.5q-64 0 -115 28.5t-82 78.5l37 16q23 -38 63.5 -61t84.5 -23q60 0 103.5 36.5t66 96.5t22.5 131q0 38 -11 78t-29 64 q-37 -52 -102 -90t-134 -47l-9 38q65 8 124.5 44.5t93.5 88.5q-27 26 -42.5 54t-16.5 47q1 30 18.5 48t48.5 18q34 0 54 -19t20 -51q0 -21 -9 -47t-25 -48q28 -34 44.5 -86t16.5 -100q0 -72 -30.5 -144t-78.5 -109q145 12 265 57t212 117q5 295 53.5 453.5t157.5 158.5 q42 0 67 -31.5t25 -83.5q0 -133 -65.5 -272.5t-194.5 -243.5v-19q-1 -63 22 -101t61 -38q30 0 63.5 20zM298.5 632q-41.5 -142 -47.5 -394q106 97 161.5 219.5t55.5 241.5q0 33 -15.5 54t-42.5 21q-70 0 -111.5 -142zM-232 558q0 36 -25 36q-28 0 -28 -28q0 -16 9 -31.5 t27 -35.5q17 34 17 59z" />
         <glyph glyph-name="t_e.liga" d="M364.5 51q55.5 23 98.5 62l23 -35q-47 -41 -110.5 -66.5t-121.5 -25.5q-45 0 -81.5 22t-58 62t-21.5 91v25q-98 -37 -135 -71q-64 -57 -103 -84t-72 -36t-82 -9q-73 0 -105.5 28t-32.5 90q0 36 13 98l80 377h-124l9 39h124l38 182h42l-38 -182h208l-8 -39h-208l-81 -381 q-11 -53 -11 -85q0 -46 22 -67t71 -21q42 0 68.5 6t62.5 30.5t96 78.5q53 48 169 90q10 117 51.5 208t107.5 142.5t146 51.5q60 0 94.5 -30.5t34.5 -94.5q0 -82 -50.5 -137t-120.5 -86.5t-185 -70.5l-37 -12q-1 -15 -1 -46q0 -55 35.5 -91t86.5 -36t106.5 23zM280.5 549 q-55.5 -44 -91.5 -122.5t-48 -179.5q22 8 33 11q104 35 166 63.5t104.5 74t42.5 113.5q0 41 -25 62.5t-60 21.5q-66 0 -121.5 -44z" />
         <glyph glyph-name="t_l.liga" d="M396.5 45q33.5 20 59.5 54l34 -24q-32 -40 -74.5 -64.5t-81.5 -24.5q-57 0 -92 41.5t-35 108.5v9q-101 -75 -228 -117t-278 -42q-73 0 -105.5 28t-32.5 90q0 36 13 98l80 377h-124l9 39h124l38 182h42l-38 -182h208l-8 -39h-208l-81 -381q-11 -53 -11 -85q0 -46 22 -67 t71 -21q152 0 280 46.5t227 128.5q5 296 53.5 455t157.5 159q42 0 67 -31.5t25 -83.5q0 -131 -67.5 -272.5t-192.5 -247.5v-15q-1 -63 22 -101t61 -38q30 0 63.5 20zM298.5 632q-41.5 -142 -47.5 -394q104 99 160.5 223t56.5 238q0 33 -15.5 54t-42.5 21q-70 0 -111.5 -142z " />
         <glyph glyph-name="t_t.liga" d="M299 579l-81 -381q-11 -53 -11 -85q0 -46 22 -67t71 -21q54 0 84 13.5t50 45.5l39 -17q-30 -47 -66 -64t-106 -17q-73 0 -105.5 28t-32.5 90q0 36 13 98l80 377h-557l-81 -381q-11 -53 -11 -85q0 -46 22 -67t71 -21q54 0 84 13.5t50 45.5l39 -17q-30 -47 -66 -64 t-106 -17q-73 0 -105.5 28t-32.5 90q0 36 13 98l80 377h-124l9 39h124l38 182h42l-38 -182h558l38 182h42l-38 -182h208l-8 -39h-208z" />
         <glyph glyph-name="u_e.liga" d="M364.5 51q55.5 23 98.5 62l23 -35q-47 -41 -110.5 -66.5t-121.5 -25.5q-45 0 -81.5 22t-58 62t-21.5 90q-74 -35 -104 -73q-50 -62 -79 -81.5t-57 -19.5q-27 0 -47 18.5t-20 51.5q0 6 2 20l23 107q-46 -91 -99 -144t-111 -53q-140 0 -140 119q0 45 21 109 q36 112 58.5 207t22.5 136q0 16 -11 26t-28 10q-26 0 -46 -17l-21 30q15 12 37.5 19t45.5 7q30 0 49 -14.5t19 -38.5q0 -41 -23 -143.5t-60 -223.5q-17 -55 -17 -98q0 -47 23.5 -68t68.5 -21q49 0 100.5 51t90 123.5t51.5 131.5l61 287h43l-114 -537q-2 -9 -2 -22 q0 -16 11 -25t28 -9q13 0 34 18.5t64 76.5q37 48 127 91q7 121 48.5 217t109 150t149.5 54q60 0 94.5 -30.5t34.5 -94.5q0 -79 -45.5 -134t-111 -89.5t-169.5 -75.5l-68 -28v-25q0 -55 35.5 -91t86.5 -36t106.5 23zM278 547q-56 -46 -92 -128.5t-46 -187.5l63 26 q94 38 150 67t95 74.5t39 110.5q0 41 -25 62.5t-60 21.5q-68 0 -124 -46z" />
         <glyph glyph-name="u_l.liga" d="M396.5 45q33.5 20 59.5 54l34 -24q-32 -40 -74.5 -64.5t-81.5 -24.5q-55 0 -90 39t-37 104q-81 -67 -171.5 -105t-182.5 -38q-27 0 -47 18.5t-20 51.5q0 6 2 20l23 107q-46 -91 -99 -144t-111 -53q-140 0 -140 119q0 45 21 109q36 112 58.5 207t22.5 136q0 16 -11 26 t-28 10q-26 0 -46 -17l-21 30q15 12 37.5 19t45.5 7q30 0 49 -14.5t19 -38.5q0 -41 -23 -143.5t-60 -223.5q-17 -55 -17 -98q0 -47 23.5 -68t68.5 -21q49 0 100.5 51t90 123.5t51.5 131.5l61 287h43l-114 -537q-2 -9 -2 -22q0 -16 11 -25t28 -9q84 0 171 42.5t167 116.5 q3 303 52 466.5t159 163.5q42 0 67 -31.5t25 -83.5q0 -128 -71.5 -274t-188.5 -257v-4q-1 -63 22 -101t61 -38q30 0 63.5 20zM297.5 629q-41.5 -145 -46.5 -401q97 105 157 232.5t60 238.5q0 33 -15.5 54t-42.5 21q-71 0 -112.5 -145z" />
         <glyph glyph-name="ordfeminine" unicode="ª" d="M198.5 396q-30.5 18 -30.5 62q0 20 6 47q10 43 28.5 66.5t52 33.5t91.5 10h108l12 55q6 27 6 47q0 32 -20 45t-67 13q-44 0 -69.5 -15t-44.5 -53l-40 10q29 56 62 76.5t93 20.5q69 0 99 -20t30 -67q0 -23 -8 -60l-43 -204q-2 -12 -2 -15q0 -12 6.5 -16t24.5 -5l-5 -40 q-37 1 -50 15t-10 49q-28 -43 -55 -58t-73 -15q-71 0 -101.5 18zM394 443.5q30 26.5 45 94.5l9 46h-105q-62 0 -90 -18.5t-39 -67.5q-3 -16 -3 -29q0 -30 20.5 -41t70.5 -11q62 0 92 26.5zM468 249h-352l8 39h352z" />
         <glyph glyph-name="ordmasculine" unicode="º" d="M217.5 403.5q-30.5 25.5 -30.5 87.5q0 41 14 109q17 83 41 129t62 65.5t100 19.5q70 0 101 -26t31 -88q0 -40 -14 -107q-18 -84 -42.5 -130t-62.5 -65.5t-99 -19.5q-70 0 -100.5 25.5zM396 434q30 17 50 56.5t35 109.5q12 57 12 93q0 45 -21 63.5t-69 18.5q-47 0 -77 -17 t-50 -56t-34 -109q-13 -56 -13 -95q0 -44 21.5 -62.5t69.5 -18.5q46 0 76 17zM463 249h-352l8 39h352z" />
         <glyph glyph-name="uni2090" unicode="ₐ" d="M105.5 -46.5q-30.5 17.5 -30.5 61.5q0 21 6 48q9 43 27 66.5t51.5 33.5t91.5 10h110l12 55q5 28 5 44q0 34 -20 47.5t-67 13.5q-44 0 -69 -15t-45 -53l-41 10q30 56 63.5 76.5t93.5 20.5q69 0 98.5 -20t29.5 -68q0 -27 -7 -59l-44 -208q-3 -10 -3 -17q0 -10 7 -14t24 -5 l-5 -40q-36 0 -50 14.5t-10 48.5q-27 -40 -53 -54t-73 -14q-71 0 -101.5 17.5zM299.5 1.5q30.5 26.5 44.5 94.5l10 46h-105q-62 0 -90 -19t-38 -67q-4 -16 -4 -31q0 -28 20.5 -39t69.5 -11q62 0 92.5 26.5z" />
         <glyph glyph-name="uni2091" unicode="ₑ" d="M153 146q-12 -54 -12 -88q0 -45 22.5 -64t74.5 -19q44 0 71.5 16t53.5 56l29 -26q-33 -49 -66 -67t-89 -18q-74 0 -106.5 25.5t-32.5 87.5q0 40 12 97q18 88 43.5 136t65.5 69t104 21q65 0 93.5 -25.5t28.5 -86.5q0 -45 -15 -116zM219 300q-35 -33 -57 -116l235 2 q4 44 4 56q0 51 -18.5 71t-61.5 20q-67 0 -102 -33z" />
         <glyph glyph-name="uni2071" unicode="ⁱ" d="M388.5 803.5q-7.5 5.5 -7.5 19.5q0 9 1 15q5 19 13 25t29 6q19 0 27 -6t8 -19q0 -8 -1 -13q-4 -20 -13 -26.5t-30 -6.5q-19 0 -26.5 5.5zM432 710l-80 -378h114l-7 -39h-272l7 39h116l72 339h-84l8 39h126z" />
         <glyph glyph-name="uni207F" unicode="ⁿ" d="M139 293l90 426h42l-12 -54q28 34 58.5 46.5t85.5 12.5q60 0 86.5 -24t26.5 -81q0 -37 -15 -112l-45 -214h-42l46 217q14 65 14 101q0 41 -17 57.5t-56 16.5q-52 0 -84.5 -13.5t-52 -44.5t-31.5 -86l-52 -248h-42z" />
         <glyph glyph-name="uni2092" unicode="ₒ" d="M124 -38q-31 26 -31 87q0 41 14 109q18 83 42 129t62 65.5t99 19.5q70 0 100.5 -25.5t30.5 -86.5q0 -41 -14 -109q-17 -84 -41 -130t-62 -65.5t-100 -19.5q-69 0 -100 26zM302 -8q30 17 50 56.5t35 109.5q13 62 13 93q0 45 -21.5 63.5t-70.5 18.5q-46 0 -76 -17t-50 -56 t-35 -109q-12 -57 -12 -93q0 -46 21 -64.5t69 -18.5q47 0 77 17z" />
         <glyph glyph-name="uni2094" unicode="ₔ" d="M403.5 347q32.5 -25 32.5 -86q0 -42 -13 -100q-18 -87 -43 -135.5t-64.5 -69t-104.5 -20.5t-93.5 25t-28.5 86q0 40 16 117l277 -2q11 48 11 87q0 47 -22.5 65.5t-75.5 18.5q-43 0 -70.5 -16t-53.5 -56l-30 26q35 49 68 67t88 18q74 0 106.5 -25zM315.5 7.5 q35.5 32.5 57.5 115.5l-235 -1q-4 -31 -4 -60q0 -49 17.5 -68t60.5 -19q68 0 103.5 32.5z" />
         <glyph glyph-name="uni2093" unicode="ₓ" d="M424 367h46l-178 -212l89 -214h-49l-74 175l-147 -175h-46l178 211l-90 215h50l73 -175z" />
         <glyph glyph-name="uni0410" unicode="А" d="M546 150q-32 -9 -40 -11l10 -139h-42q-9 68 -32 125q-53 -8 -89 -8q-82 0 -142 29q-41 -85 -74 -122.5t-65 -37.5q-44 0 -63.5 35.5t-19.5 110.5h43q0 -107 38 -107q20 0 46 34t60 108q-27 21 -40.5 46t-13.5 47q0 37 25.5 57t68.5 20q12 0 30 -2q58 148 172 465h41 l44 -618l32 10zM425 712q-84 -244 -138 -384q110 -30 175 -149zM171.5 235q7.5 -15 21.5 -29q20 45 38 92h-15q-52 0 -52 -38q0 -10 7.5 -25zM345 158q38 0 79 7q-57 101 -151 126q-22 -57 -45 -109q48 -24 117 -24z" />
         <glyph glyph-name="uni0411" unicode="Б" d="M184 766.5q56 23.5 144.5 28.5t266.5 5l-7 -39q-185 0 -274.5 -7t-118.5 -22t-27 -44q1 -11 11.5 -23.5t25.5 -22.5l-25 -30q-23 14 -37.5 36t-14.5 42q0 53 56 76.5zM486 461.5q48 -41.5 48 -117.5q0 -104 -37.5 -185.5t-105 -127t-156.5 -45.5q-78 0 -116 51 q-25 -51 -45 -51q-48 0 -48 135q0 132 44 220t127 128q39 157 58 253h40q-7 -31 -19 -91q-34 -150 -32 -143q51 15 112 15q82 0 130 -41.5zM369.5 66q58.5 41 90.5 113.5t32 164.5q0 59 -37 90t-99 31q-68 0 -122 -21q-57 -254 -95 -356q10 -31 32 -47t64 -16q76 0 134.5 41 zM112 152.5q36 127.5 71 263.5q-115 -84 -115 -295q0 -64 1 -80t5 -16q2 0 38 127.5z" />
         <glyph glyph-name="uni0412" unicode="В" d="M494.5 355.5q42.5 -47.5 42.5 -101.5q0 -80 -32 -140.5t-90.5 -94t-135.5 -33.5q-47 0 -86 8.5t-64 23.5l24 30q41 -23 126 -23q64 0 113 28.5t76 80.5t27 120q0 69 -59 111t-156 43l8 38q73 0 129 25.5t87 71.5t31 105q0 57 -33.5 92t-88.5 35q-75 0 -135 -46 q-90 -390 -124 -529.5t-48 -176.5t-31 -37q-11 0 -18.5 42.5t-7.5 110.5q0 104 19 220.5t62.5 222.5t112.5 167l11 51h41l-4 -17q56 31 122 31q74 0 119 -45.5t45 -120.5q0 -50 -25 -95.5t-67 -79t-90 -48.5q57 -22 99.5 -69.5zM99 102.5q10 36.5 37.5 160.5t68.5 314l22 99 q-57 -74 -89.5 -185.5t-44.5 -216t-12 -175.5q0 -33 2 -33q6 0 16 36.5z" />
         <glyph glyph-name="uni0413" unicode="Г" d="M619 761l-340 -1l-46 -219q-50 -240 -75 -344t-50.5 -157.5t-60.5 -53.5q-20 0 -29 9.5t-12 26.5t-6 51l42 3q4 -51 14 -51q13 0 52.5 158t128.5 577h-10q-36 0 -49.5 -4.5t-13.5 -17.5q0 -6 4 -13t15 -20l-33 -26q-30 36 -30 60q0 32 28 46.5t89 14.5h390z" />
         <glyph glyph-name="uni0403" unicode="Ѓ" d="M619 761l-340 -1l-46 -219q-50 -240 -75 -344t-50.5 -157.5t-60.5 -53.5q-20 0 -29 9.5t-12 26.5t-6 51l42 3q4 -51 14 -51q13 0 52.5 158t128.5 577h-10q-36 0 -49.5 -4.5t-13.5 -17.5q0 -6 4 -13t15 -20l-33 -26q-30 36 -30 60q0 32 28 46.5t89 14.5h390zM562 985 l-151 -113l-23 29l151 113z" />
         <glyph glyph-name="uni0490" unicode="Ґ" d="M610 922h42l-33 -161l-340 -1l-46 -219q-50 -240 -75 -344t-50.5 -157.5t-60.5 -53.5q-20 0 -29 9.5t-12 26.5t-6 51l42 3q4 -51 14 -51q13 0 52.5 158t128.5 577h-10q-36 0 -49.5 -4.5t-13.5 -17.5q0 -6 4 -13t15 -20l-33 -26q-30 36 -30 60q0 32 28 46.5t89 14.5h348z " />
         <glyph glyph-name="uni0414" unicode="Д" d="M490 781.5q45 -32.5 69.5 -86.5t24.5 -116q0 -169 -48 -304.5t-129 -212t-177 -76.5q-33 0 -61 16.5t-61 45.5q-36 -62 -71 -62q-32 0 -50.5 19.5t-18.5 52.5q0 32 20.5 52t54.5 20q23 0 54 -21q58 148 124 509h42q-67 -379 -136 -533q28 -28 55.5 -44t47.5 -16 q83 0 155 71.5t114.5 198t42.5 284.5q0 51 -19.5 96t-55 72.5t-79.5 27.5q-73 0 -138 -24t-99 -64l-33 24q38 46 112.5 74.5t157.5 28.5q57 0 102 -32.5zM81 72q-25 21 -38 21q-16 0 -25.5 -9.5t-9.5 -25.5t8 -26t21 -10q20 0 44 50z" />
         <glyph glyph-name="uni0415" unicode="Е" d="M100.5 29.5q-45.5 43.5 -45.5 118.5q0 50 20.5 107.5t56 103t77.5 62.5q-33 17 -50.5 53t-17.5 82q0 71 36 130t97.5 93.5t134.5 34.5q83 0 131 -37.5t48 -101.5q0 -16 -3 -36h-43q3 15 3 28q0 50 -41 79t-111 29q-60 0 -107.5 -28t-74 -76.5t-26.5 -105.5q0 -53 28 -86 t77 -37l-9 -38q-51 -4 -93 -42t-65.5 -93t-23.5 -108q0 -63 38 -99.5t105 -36.5q76 0 131.5 42t69.5 111h43q-19 -86 -90.5 -139t-169.5 -53q-80 0 -125.5 43.5z" />
         <glyph glyph-name="uni0400" unicode="Ѐ" d="M100.5 29.5q-45.5 43.5 -45.5 118.5q0 50 20.5 107.5t56 103t77.5 62.5q-33 17 -50.5 53t-17.5 82q0 71 36 130t97.5 93.5t134.5 34.5q83 0 131 -37.5t48 -101.5q0 -16 -3 -36h-43q3 15 3 28q0 50 -41 79t-111 29q-60 0 -107.5 -28t-74 -76.5t-26.5 -105.5q0 -53 28 -86 t77 -37l-9 -38q-51 -4 -93 -42t-65.5 -93t-23.5 -108q0 -63 38 -99.5t105 -36.5q76 0 131.5 42t69.5 111h43q-19 -86 -90.5 -139t-169.5 -53q-80 0 -125.5 43.5zM478 904l-33 -29l-107 113l33 29z" />
         <glyph glyph-name="uni0401" unicode="Ё" d="M100.5 29.5q-45.5 43.5 -45.5 118.5q0 50 20.5 107.5t56 103t77.5 62.5q-33 17 -50.5 53t-17.5 82q0 71 36 130t97.5 93.5t134.5 34.5q83 0 131 -37.5t48 -101.5q0 -16 -3 -36h-43q3 15 3 28q0 50 -41 79t-111 29q-60 0 -107.5 -28t-74 -76.5t-26.5 -105.5q0 -53 28 -86 t77 -37l-9 -38q-51 -4 -93 -42t-65.5 -93t-23.5 -108q0 -63 38 -99.5t105 -36.5q76 0 131.5 42t69.5 111h43q-19 -86 -90.5 -139t-169.5 -53q-80 0 -125.5 43.5zM303.5 927.5q-10.5 6.5 -10.5 23.5q0 9 3 22q5 26 16.5 34.5t39.5 8.5q25 0 36 -7t11 -23q0 -8 -3 -20 q-5 -27 -16.5 -36t-40.5 -9q-25 0 -35.5 6.5zM519.5 927.5q-10.5 6.5 -10.5 23.5q0 9 3 22q5 26 16.5 34.5t39.5 8.5q25 0 36 -7t11 -23q0 -8 -3 -20q-5 -27 -16.5 -36t-40.5 -9q-25 0 -35.5 6.5z" />
         <glyph glyph-name="uni0416" unicode="Ж" d="M496.5 31.5q3.5 6.5 10.5 25.5l44 -9q-8 -32 -25 -47t-47 -15q-42 0 -61.5 48.5t-19.5 132.5q0 114 31 249q-47 -28 -92 -34l-81 -382h-43l80 379q-43 -7 -96 -45q-38 -147 -93.5 -247.5t-111.5 -100.5q-28 0 -41.5 13.5t-13.5 41.5q0 19 31 75t81.5 120.5t106.5 110.5 q19 80 29.5 159t10.5 141q0 59 -10.5 93.5t-31.5 34.5q-9 0 -12.5 -6.5t-10.5 -25.5l-44 9q8 32 25 47t47 15q42 0 61.5 -48.5t19.5 -132.5q0 -114 -31 -249q47 28 92 34l81 382h43l-80 -379q45 7 96 45q38 147 93.5 247.5t111.5 100.5q28 0 41.5 -13.5t13.5 -41.5 q0 -19 -31 -75t-81.5 -120.5t-106.5 -110.5q-19 -80 -29.5 -159t-10.5 -141q0 -59 10.5 -93.5t31.5 -34.5q9 0 12.5 6.5zM570 702q-41 -72 -73 -187q43 43 80.5 95t60 95.5t22.5 60.5q0 8 -6 8q-43 0 -84 -72zM68 98q41 72 72 186q-43 -43 -80 -95t-59 -95t-22 -60 q0 -8 5 -8q43 0 84 72z" />
         <glyph glyph-name="uni0417" unicode="З" d="M101 26q-49 40 -49 109q0 18 5 43h43q-4 -17 -4 -36q0 -54 37 -85.5t103 -31.5t120 36.5t80 99.5q23 54 23 107q0 56 -26 94t-75 42l7 38q51 4 92.5 37t64.5 86q19 45 19 86q0 56 -36 90t-101 34q-70 0 -123.5 -29t-74.5 -79q-7 -17 -9 -28h-43q4 20 12 36 q27 64 91 101.5t147 37.5q84 0 132.5 -44t48.5 -115q0 -48 -22 -99q-20 -46 -53 -82t-72 -53q31 -15 47 -54t16 -90q0 -68 -26 -129q-32 -75 -95.5 -118.5t-143.5 -43.5q-86 0 -135 40z" />
         <glyph glyph-name="uni0418" unicode="И" d="M504.5 30.5q13.5 5.5 20.5 12.5l20 -31q-13 -12 -36 -19t-47 -7q-25 0 -41 16t-16 46q0 11 3 26l3 16q-39 -52 -88 -78t-105 -26q-161 0 -161 162q0 60 23 142l118 429q2 12 2 20q0 16 -11 26t-30 10q-11 0 -24.5 -5t-20.5 -13l-20 31q15 12 37.5 19t45.5 7 q27 0 47.5 -16.5t20.5 -46.5q0 -10 -3 -24l-120 -439q-26 -95 -26 -149q0 -62 32.5 -88t102.5 -26q84 0 137 60.5t83 205.5l107 509h42l-107 -512q1 0 -4 -19t-13 -50q-35 -143 -37 -158q-3 -16 9.5 -26t31.5 -10q11 0 24.5 5.5z" />
         <glyph glyph-name="uni0419" unicode="Й" d="M504.5 30.5q13.5 5.5 20.5 12.5l20 -31q-13 -12 -36 -19t-47 -7q-25 0 -41 16t-16 46q0 11 3 26l3 16q-39 -52 -88 -78t-105 -26q-161 0 -161 162q0 60 23 142l118 429q2 12 2 20q0 16 -11 26t-30 10q-11 0 -24.5 -5t-20.5 -13l-20 31q15 12 37.5 19t45.5 7 q27 0 47.5 -16.5t20.5 -46.5q0 -10 -3 -24l-120 -439q-26 -95 -26 -149q0 -62 32.5 -88t102.5 -26q84 0 137 60.5t83 205.5l107 509h42l-107 -512q1 0 -4 -19t-13 -50q-35 -143 -37 -158q-3 -16 9.5 -26t31.5 -10q11 0 24.5 5.5zM340.5 886.5q-24.5 15.5 -24.5 51.5 q0 15 5 40h52q-17 -29 -17 -44q0 -13 15.5 -19t51.5 -6q50 0 70 11t20 37q0 5 -2 21h52q-10 -43 -26 -65.5t-43 -32t-73 -9.5q-56 0 -80.5 15.5z" />
         <glyph glyph-name="uni040D" unicode="Ѝ" d="M504.5 30.5q13.5 5.5 20.5 12.5l20 -31q-13 -12 -36 -19t-47 -7q-25 0 -41 16t-16 46q0 11 3 26l3 16q-39 -52 -88 -78t-105 -26q-161 0 -161 162q0 60 23 142l118 429q2 12 2 20q0 16 -11 26t-30 10q-11 0 -24.5 -5t-20.5 -13l-20 31q15 12 37.5 19t45.5 7 q27 0 47.5 -16.5t20.5 -46.5q0 -10 -3 -24l-120 -439q-26 -95 -26 -149q0 -62 32.5 -88t102.5 -26q84 0 137 60.5t83 205.5l107 509h42l-107 -512q1 0 -4 -19t-13 -50q-35 -143 -37 -158q-3 -16 9.5 -26t31.5 -10q11 0 24.5 5.5zM463 901l-33 -29l-107 113l33 29z" />
         <glyph glyph-name="uni041A" unicode="К" d="M623.5 790.5q22.5 -23.5 22.5 -60.5q0 -12 -3 -26l-40 8q2 12 2 18q0 20 -10 32.5t-26 12.5q-39 0 -67 -22t-47.5 -54t-46.5 -89q-35 -73 -63 -116t-72 -69q78 -20 121 -78.5t43 -157.5q0 -60 -16 -131q-1 -3 -1 -8q0 -14 10.5 -19.5t29.5 -5.5q37 0 57 18l19 -31 q-15 -12 -36 -19t-41 -7q-29 0 -54 12.5t-25 43.5q0 4 2 16q15 74 15 129q0 109 -52.5 157.5t-145.5 53.5q-38 -164 -65.5 -251t-54.5 -124t-62 -37q-24 0 -40 19t-26 55l39 10q8 -21 17.5 -33t13.5 -12q25 0 51 65t62.5 213.5t104.5 455.5q1 8 -7.5 12t-21.5 4 q-17 0 -31 -5t-19 -13l-36 21q13 16 37 26t50 10q30 0 49 -14.5t19 -37.5q0 -7 -1 -11l-26 -116q-33 -152 -44 -197q37 7 64 29.5t44.5 52t42.5 80.5l16 33q40 82 82.5 131.5t105.5 49.5q38 0 60.5 -23.5z" />
         </font>
</defs>
</svg>
