<?xml version="1.0" encoding="UTF-8"?>
<!DOCTYPE svg PUBLIC "-//W3C//DTD SVG 1.1//EN" "http://www.w3.org/Graphics/SVG/1.1/DTD/svg11.dtd">
<svg xmlns="http://www.w3.org/2000/svg" xmlns:xlink="http://www.w3.org/1999/xlink" version="1.1">
   <metadata>Created by FontForge 20170812 at Tue Nov  3 11:52:42 2020
 By www-data
Copyright (c) 2019 by Rune Bjrneras. All rights reserved.</metadata>
   <defs>
      <font id="VictorMono-LightItalic" horiz-adv-x="600">
         <font-face font-family="Victor Mono Light" font-weight="300" font-style="italic" font-stretch="normal" units-per-em="1100" panose-1="0 0 4 9 0 0 0 0 0 0" ascent="880" descent="-220" x-height="618" cap-height="800" bbox="-1787 -529 835 1306" underline-thickness="50" underline-position="-100" slope="-12" unicode-range="U+0020-E0B3" />
         <missing-glyph d="M356 0h-354l173 814h354zM220 763l-152 -712h244l152 712h-244z" />
         <glyph glyph-name=".notdef" d="M356 0h-354l173 814h354zM220 763l-152 -712h244l152 712h-244z" />
         <glyph glyph-name=".null" horiz-adv-x="60" />
         <glyph glyph-name="nonmarkingreturn" />
         <glyph glyph-name="space" unicode=" " />
         <glyph glyph-name="A" unicode="A" d="M487 0h-56l-13 214h-274l-104 -214h-59l392 800h61zM387 716l-219 -452h247z" />
         <glyph glyph-name="Aacute" unicode="Á" d="M487 0h-56l-13 214h-274l-104 -214h-59l392 800h61zM387 716l-219 -452h247zM573 992l-162 -122l-30 39l162 121z" />
         <glyph glyph-name="Abreve" unicode="Ă" d="M487 0h-56l-13 214h-274l-104 -214h-59l392 800h61zM387 716l-219 -452h247zM341 905q-26 17 -26 56q0 19 6 46h54q-4 -24 -4 -31q0 -22 12.5 -30t44.5 -8q44 0 64.5 15.5t28.5 53.5h54q-9 -47 -25.5 -72.5t-45.5 -36t-78 -10.5q-59 0 -85 17z" />
         <glyph glyph-name="uni1EAE" unicode="Ắ" d="M487 0h-56l-13 214h-274l-104 -214h-59l392 800h61zM387 716l-219 -452h247zM580 1044l-158 -117l-29 38l157 117zM329 848q-26 16 -26 55q0 19 6 46h54q-4 -24 -4 -30q0 -21 13 -28.5t44 -7.5q44 0 64.5 14.5t28.5 51.5h53q-9 -47 -25 -72t-45 -35t-78 -10q-59 0 -85 16 z" />
         <glyph glyph-name="uni1EB6" unicode="Ặ" d="M487 0h-56l-13 214h-274l-104 -214h-59l392 800h61zM387 716l-219 -452h247zM151 -216.5q-12 7.5 -12 26.5q0 11 3 24q7 28 21 39t43 11t41 -7.5t12 -26.5q0 -9 -3 -23q-6 -29 -20 -40t-44 -11q-29 0 -41 7.5zM341 905q-26 17 -26 56q0 19 6 46h54q-4 -24 -4 -31 q0 -22 12.5 -30t44.5 -8q44 0 64.5 15.5t28.5 53.5h54q-9 -47 -25.5 -72.5t-45.5 -36t-78 -10.5q-59 0 -85 17z" />
         <glyph glyph-name="uni1EB0" unicode="Ằ" d="M487 0h-56l-13 214h-274l-104 -214h-59l392 800h61zM387 716l-219 -452h247zM485 965l-44 -38l-110 117l43 38zM329 848q-26 16 -26 55q0 19 6 46h54q-4 -24 -4 -30q0 -21 13 -28.5t44 -7.5q44 0 64.5 14.5t28.5 51.5h53q-9 -47 -25 -72t-45 -35t-78 -10q-59 0 -85 16z " />
         <glyph glyph-name="uni1EB2" unicode="Ẳ" d="M487 0h-56l-13 214h-274l-104 -214h-59l392 800h61zM387 716l-219 -452h247zM579 930q37 10 58 26t21 34q0 10 -7.5 16.5t-18.5 6.5q-22 0 -48 -12t-49 -28l10 64q18 12 43 19.5t45 7.5q35 0 57.5 -18.5t22.5 -49.5q0 -38 -33 -70t-93 -45zM329 848q-26 16 -26 55 q0 19 6 46h54q-4 -24 -4 -30q0 -21 13 -28.5t44 -7.5q44 0 64.5 14.5t28.5 51.5h53q-9 -47 -25.5 -72t-45 -35t-77.5 -10q-59 0 -85 16z" />
         <glyph glyph-name="uni1EB4" unicode="Ẵ" d="M487 0h-56l-13 214h-274l-104 -214h-59l392 800h61zM387 716l-219 -452h247zM694.5 975q-16.5 12 -35.5 34q-16 17 -24.5 24t-19.5 7q-20 0 -29.5 -13t-14.5 -38h-54q9 47 36 74.5t64 27.5q21 0 37.5 -12t35.5 -33q16 -17 25.5 -24.5t19.5 -7.5q20 0 29.5 12.5t13.5 35.5 h54q-8 -45 -35.5 -72t-63.5 -27q-22 0 -38.5 12zM329 848q-26 16 -26 55q0 19 6 46h54q-4 -24 -4 -30q0 -21 13 -28.5t44 -7.5q44 0 64.5 14.5t28.5 51.5h53q-9 -47 -25 -72t-45 -35t-78 -10q-59 0 -85 16z" />
         <glyph glyph-name="uni01CD" unicode="Ǎ" d="M487 0h-56l-13 214h-274l-104 -214h-59l392 800h61zM387 716l-219 -452h247zM579 994l-158 -120l-110 118l47 33l75 -81l109 83z" />
         <glyph glyph-name="Acircumflex" unicode="Â" d="M487 0h-56l-13 214h-274l-104 -214h-59l392 800h61zM387 716l-219 -452h247zM559 900l-49 -33l-72 83l-109 -81l-37 33l158 118z" />
         <glyph glyph-name="uni1EA4" unicode="Ấ" d="M487 0h-56l-13 214h-274l-104 -214h-59l392 800h61zM387 716l-219 -452h247zM711 1026l-157 -117l-30 38l158 117zM552 868l-48 -33l-73 83l-109 -81l-36 33l157 118z" />
         <glyph glyph-name="uni1EAC" unicode="Ậ" d="M487 0h-56l-13 214h-274l-104 -214h-59l392 800h61zM387 716l-219 -452h247zM151 -216.5q-12 7.5 -12 26.5q0 11 3 24q7 28 21 39t43 11t41 -7.5t12 -26.5q0 -9 -3 -23q-6 -29 -20 -40t-44 -11q-29 0 -41 7.5zM559 900l-49 -33l-72 83l-109 -81l-37 33l158 118z" />
         <glyph glyph-name="uni1EA6" unicode="Ầ" d="M487 0h-56l-13 214h-274l-104 -214h-59l392 800h61zM387 716l-219 -452h247zM598 902l-94 106l45 34l98 -107zM559 900l-49 -33l-72 83l-109 -81l-37 33l158 118z" />
         <glyph glyph-name="uni1EA8" unicode="Ẩ" d="M487 0h-56l-13 214h-274l-104 -214h-59l392 800h61zM387 716l-219 -452h247zM553 868l-49 -33l-72 83l-109 -81l-37 33l158 118zM579 931q37 9 58 25.5t21 34.5q0 10 -8 16.5t-18 6.5q-23 0 -49.5 -12t-47.5 -28l10 63q18 12 43 19.5t45 7.5q35 0 57 -18t22 -49 q0 -12 -2 -19q-6 -33 -38.5 -59t-84.5 -38z" />
         <glyph glyph-name="uni1EAA" unicode="Ẫ" d="M487 0h-56l-13 214h-274l-104 -214h-59l392 800h61zM387 716l-219 -452h247zM553 868l-49 -33l-72 83l-109 -81l-37 33l158 118zM677.5 922.5q-15.5 11.5 -37.5 34.5q-16 17 -24.5 24t-18.5 7q-20 0 -29.5 -13t-14.5 -38h-55q10 47 36.5 74t63.5 27q21 0 37 -11.5 t37 -33.5q14 -16 24 -24t20 -8q21 0 30.5 12.5t13.5 35.5h54q-8 -45 -35.5 -71.5t-63.5 -26.5q-22 0 -37.5 11.5z" />
         <glyph glyph-name="Adieresis" unicode="Ä" d="M487 0h-56l-13 214h-274l-104 -214h-59l392 800h61zM387 716l-219 -452h247zM285.5 922.5q-12.5 8.5 -12.5 27.5q0 10 3 23q5 28 18 38t44 10q28 0 40.5 -8t12.5 -27q0 -10 -3 -22q-6 -29 -19 -39.5t-44 -10.5q-27 0 -39.5 8.5zM501.5 922.5q-12.5 8.5 -12.5 27.5 q0 10 3 23q5 28 18 38t44 10q28 0 40.5 -8t12.5 -27q0 -10 -3 -22q-6 -29 -19 -39.5t-44 -10.5q-27 0 -39.5 8.5z" />
         <glyph glyph-name="uni1EA0" unicode="Ạ" d="M487 0h-56l-13 214h-274l-104 -214h-59l392 800h61zM387 716l-219 -452h247zM151 -216.5q-12 7.5 -12 26.5q0 11 3 24q7 28 21 39t43 11t41 -7.5t12 -26.5q0 -9 -3 -23q-6 -29 -20 -40t-44 -11q-29 0 -41 7.5z" />
         <glyph glyph-name="Agrave" unicode="À" d="M487 0h-56l-13 214h-274l-104 -214h-59l392 800h61zM387 716l-219 -452h247zM474 909l-43 -39l-115 122l43 38z" />
         <glyph glyph-name="uni1EA2" unicode="Ả" d="M487 0h-56l-13 214h-274l-104 -214h-59l392 800h61zM387 716l-219 -452h247zM390 890q37 9 58 25.5t21 34.5q0 10 -8 16.5t-18 6.5q-23 0 -49.5 -12t-47.5 -28l10 63q18 12 43 19.5t45 7.5q35 0 57 -18t22 -49q0 -12 -2 -19q-6 -33 -38.5 -59t-84.5 -38z" />
         <glyph glyph-name="Amacron" unicode="Ā" d="M487 0h-56l-13 214h-274l-104 -214h-59l392 800h61zM387 716l-219 -452h247zM566 907h-279l11 50h279z" />
         <glyph glyph-name="Aogonek" unicode="Ą" d="M432 -138.5q17 6.5 29 16.5l26 -44q-15 -14 -39 -22t-49 -8q-50 0 -78.5 19t-28.5 56q0 32 38.5 64t100.5 60l-13 211h-274l-104 -214h-59l392 800h61l53 -800h-1l-32 -18q-56 -32 -82 -51.5t-26 -40.5q1 -16 15 -25.5t38 -9.5q16 0 33 6.5zM387 716l-219 -452h247z" />
         <glyph glyph-name="Aring" unicode="Å" d="M525.5 971q26.5 -17 26.5 -57q0 -21 -6 -48q-11 -55 -35.5 -80.5t-73.5 -30.5l50 -755h-56l-13 214h-274l-104 -214h-59l371 756q-34 6 -49.5 23.5t-15.5 49.5q0 25 5 46q10 44 26.5 68t45 34.5t75.5 10.5q60 0 86.5 -17zM496 902q0 19 -13.5 27t-44.5 8 q-43 0 -63.5 -15.5t-28.5 -55.5q-3 -15 -3 -26q0 -20 13 -28t44 -8q44 0 64 15.5t28 55.5q4 22 4 27zM387 716l-219 -452h247z" />
         <glyph glyph-name="Atilde" unicode="Ã" d="M487 0h-56l-13 214h-274l-104 -214h-59l392 800h61zM387 716l-219 -452h247zM456.5 896.5q-15.5 11.5 -37.5 34.5q-16 17 -24.5 24t-18.5 7q-20 0 -29.5 -13t-14.5 -38h-55q10 47 36.5 74t63.5 27q21 0 37 -11.5t37 -33.5q14 -16 24 -24t20 -8q21 0 30.5 12.5t13.5 35.5 h54q-8 -45 -35.5 -71.5t-63.5 -26.5q-22 0 -37.5 11.5z" />
         <glyph glyph-name="AE" unicode="Æ" d="M692 800l-10 -51h-225l-75 -347h146l-10 -50h-146l-64 -301h225l-11 -51h-280l56 260h-175l-125 -260h-58l385 800h367zM147 310h161l94 439h-44z" />
         <glyph glyph-name="B" unicode="B" d="M26 0l170 800h190q99 0 142.5 -28t43.5 -95q0 -36 -10 -80q-15 -75 -43.5 -111.5t-90.5 -58.5q48 -15 69.5 -42.5t21.5 -76.5q0 -34 -11 -87q-18 -86 -48 -133t-80.5 -67.5t-134.5 -20.5h-219zM311 448q63 0 101.5 14.5t61 48t35.5 94.5q8 37 8 60q0 47 -31 65.5 t-106 18.5h-139l-65 -301h135zM252 51q63 0 102 16.5t62.5 55.5t38.5 107q10 48 10 75q0 52 -31 72.5t-104 20.5h-165l-73 -347h160z" />
         <glyph glyph-name="C" unicode="C" d="M106 29.5q-45 43.5 -45 146.5q0 83 31 229q34 159 74 246.5t99.5 125t152.5 37.5q63 0 100 -16t55.5 -52t25.5 -100l-55 -14q-5 52 -18 80t-38.5 39.5t-71.5 11.5q-74 0 -122.5 -34t-83.5 -112.5t-65 -219.5q-29 -137 -29 -213q0 -80 32 -113.5t105 -33.5q47 0 79 12.5 t58 40.5t54 80l51 -22q-33 -63 -66 -98t-75 -49.5t-103 -14.5q-100 0 -145 43.5z" />
         <glyph glyph-name="Cacute" unicode="Ć" d="M106 29.5q-45 43.5 -45 146.5q0 83 31 229q34 159 74 246.5t99.5 125t152.5 37.5q63 0 100 -16t55.5 -52t25.5 -100l-55 -14q-5 52 -18 80t-38.5 39.5t-71.5 11.5q-74 0 -122.5 -34t-83.5 -112.5t-65 -219.5q-29 -137 -29 -213q0 -80 32 -113.5t105 -33.5q47 0 79 12.5 t58 40.5t54 80l51 -22q-33 -63 -66 -98t-75 -49.5t-103 -14.5q-100 0 -145 43.5zM572 989l-162 -122l-30 39l162 121z" />
         <glyph glyph-name="Ccaron" unicode="Č" d="M106 29.5q-45 43.5 -45 146.5q0 83 31 229q34 159 74 246.5t99.5 125t152.5 37.5q63 0 100 -16t55.5 -52t25.5 -100l-55 -14q-5 52 -18 80t-38.5 39.5t-71.5 11.5q-74 0 -122.5 -34t-83.5 -112.5t-65 -219.5q-29 -137 -29 -213q0 -80 32 -113.5t105 -33.5q47 0 79 12.5 t58 40.5t54 80l51 -22q-33 -63 -66 -98t-75 -49.5t-103 -14.5q-100 0 -145 43.5zM578 991l-158 -120l-110 118l47 33l75 -81l109 83z" />
         <glyph glyph-name="Ccedilla" unicode="Ç" d="M518 798q37 -16 55.5 -52t25.5 -100l-55 -14q-5 52 -18 80t-38.5 39.5t-71.5 11.5q-74 0 -122.5 -34t-83.5 -112.5t-65 -219.5q-29 -137 -29 -213q0 -80 32 -113.5t105 -33.5q47 0 79 12.5t58 40.5t54 80l51 -22q-33 -63 -65.5 -97.5t-74 -49t-101.5 -15.5l-7 -27 q28 -7 44 -24t16 -40q0 -9 -1 -14q-7 -37 -39.5 -59.5t-79.5 -22.5q-27 0 -50 9t-35 23l29 42q10 -10 26 -16.5t31 -6.5q27 0 46 12t19 31q0 11 -17.5 17.5t-48.5 6.5l14 72q-73 10 -106.5 54t-33.5 133q0 83 31 229q34 159 74 246.5t99.5 125t152.5 37.5q63 0 100 -16z" />
         <glyph glyph-name="Ccircumflex" unicode="Ĉ" d="M106 29.5q-45 43.5 -45 146.5q0 83 31 229q34 159 74 246.5t99.5 125t152.5 37.5q63 0 100 -16t55.5 -52t25.5 -100l-55 -14q-5 52 -18 80t-38.5 39.5t-71.5 11.5q-74 0 -122.5 -34t-83.5 -112.5t-65 -219.5q-29 -137 -29 -213q0 -80 32 -113.5t105 -33.5q47 0 79 12.5 t58 40.5t54 80l51 -22q-33 -63 -66 -98t-75 -49.5t-103 -14.5q-100 0 -145 43.5zM558 897l-49 -33l-72 83l-109 -81l-37 33l158 118z" />
         <glyph glyph-name="Cdotaccent" unicode="Ċ" d="M106 29.5q-45 43.5 -45 146.5q0 83 31 229q34 159 74 246.5t99.5 125t152.5 37.5q63 0 100 -16t55.5 -52t25.5 -100l-55 -14q-5 52 -18 80t-38.5 39.5t-71.5 11.5q-74 0 -122.5 -34t-83.5 -112.5t-65 -219.5q-29 -137 -29 -213q0 -80 32 -113.5t105 -33.5q47 0 79 12.5 t58 40.5t54 80l51 -22q-33 -63 -66 -98t-75 -49.5t-103 -14.5q-100 0 -145 43.5zM394 933.5q-12 7.5 -12 26.5q0 11 3 24q7 28 21 39t43 11t41 -7.5t12 -26.5q0 -9 -3 -23q-6 -29 -20 -40t-44 -11q-29 0 -41 7.5z" />
         <glyph glyph-name="D" unicode="D" d="M415 800q93 0 135 -41.5t42 -139.5q0 -85 -30 -223q-33 -154 -71.5 -238.5t-95.5 -121t-146 -36.5h-232l170 800h228zM538 610q0 76 -30.5 107.5t-98.5 31.5h-179l-146 -698h172q68 0 113 33t78 109t62 211q29 134 29 206z" />
         <glyph glyph-name="Eth" unicode="Ð" d="M418 800q93 0 135 -41.5t42 -139.5q0 -85 -30 -223q-33 -154 -71.5 -238.5t-95.5 -121t-146 -36.5h-232l85 398h-53l11 50h52l75 352h228zM541 610q0 76 -30.5 107.5t-98.5 31.5h-179l-63 -301h144l-10 -50h-144l-73 -347h172q68 0 113 33t78 109t62 211q29 134 29 206z " />
         <glyph glyph-name="Dcaron" unicode="Ď" d="M415 800q93 0 135 -41.5t42 -139.5q0 -85 -30 -223q-33 -154 -71.5 -238.5t-95.5 -121t-146 -36.5h-232l170 800h228zM538 610q0 76 -30.5 107.5t-98.5 31.5h-179l-146 -698h172q68 0 113 33t78 109t62 211q29 134 29 206zM578 991l-158 -120l-110 118l47 33l75 -81 l109 83z" />
         <glyph glyph-name="Dcroat" unicode="Đ" d="M418 800q93 0 135 -41.5t42 -139.5q0 -85 -30 -223q-33 -154 -71.5 -238.5t-95.5 -121t-146 -36.5h-232l85 398h-53l11 50h52l75 352h228zM541 610q0 76 -30.5 107.5t-98.5 31.5h-179l-63 -301h144l-10 -50h-144l-73 -347h172q68 0 113 33t78 109t62 211q29 134 29 206z " />
         <glyph glyph-name="E" unicode="E" d="M633 800l-10 -51h-376l-63 -301h240l-11 -50h-240l-72 -347h373l-11 -51h-429l170 800h429z" />
         <glyph glyph-name="Eacute" unicode="É" d="M633 800l-10 -51h-376l-63 -301h240l-11 -50h-240l-72 -347h373l-11 -51h-429l170 800h429zM587 992l-162 -122l-30 39l162 121z" />
         <glyph glyph-name="Ecaron" unicode="Ě" d="M633 800l-10 -51h-376l-63 -301h240l-11 -50h-240l-72 -347h373l-11 -51h-429l170 800h429zM593 994l-158 -120l-110 118l47 33l75 -81l109 83z" />
         <glyph glyph-name="Ecircumflex" unicode="Ê" d="M633 800l-10 -51h-376l-63 -301h240l-11 -50h-240l-72 -347h373l-11 -51h-429l170 800h429zM573 900l-49 -33l-72 83l-109 -81l-37 33l158 118z" />
         <glyph glyph-name="uni1EBE" unicode="Ế" d="M633 800l-10 -51h-376l-63 -301h240l-11 -50h-240l-72 -347h373l-11 -51h-429l170 800h429zM725 1026l-157 -117l-30 38l158 117zM566 868l-48 -33l-73 83l-109 -81l-36 33l157 118z" />
         <glyph glyph-name="uni1EC6" unicode="Ệ" d="M633 800l-10 -51h-376l-63 -301h240l-11 -50h-240l-72 -347h373l-11 -51h-429l170 800h429zM165 -216.5q-12 7.5 -12 26.5q0 11 3 24q7 28 21 39t43 11t41 -7.5t12 -26.5q0 -9 -3 -23q-6 -29 -20 -40t-44 -11q-29 0 -41 7.5zM573 900l-49 -33l-72 83l-109 -81l-37 33 l158 118z" />
         <glyph glyph-name="uni1EC0" unicode="Ề" d="M633 800l-10 -51h-376l-63 -301h240l-11 -50h-240l-72 -347h373l-11 -51h-429l170 800h429zM612 902l-94 106l45 34l98 -107zM573 900l-49 -33l-72 83l-109 -81l-37 33l158 118z" />
         <glyph glyph-name="uni1EC2" unicode="Ể" d="M633 800l-10 -51h-376l-63 -301h240l-11 -50h-240l-72 -347h373l-11 -51h-429l170 800h429zM567 868l-49 -33l-72 83l-109 -81l-37 33l158 118zM593 931q37 9 58 25.5t21 34.5q0 10 -8 16.5t-18 6.5q-23 0 -49.5 -12t-47.5 -28l10 63q18 12 43 19.5t45 7.5q35 0 57 -18 t22 -49q0 -12 -2 -19q-6 -33 -38.5 -59t-84.5 -38z" />
         <glyph glyph-name="uni1EC4" unicode="Ễ" d="M633 800l-10 -51h-376l-63 -301h240l-11 -50h-240l-72 -347h373l-11 -51h-429l170 800h429zM567 868l-49 -33l-72 83l-109 -81l-37 33l158 118zM691.5 922.5q-15.5 11.5 -37.5 34.5q-16 17 -24.5 24t-18.5 7q-20 0 -29.5 -13t-14.5 -38h-55q10 47 36.5 74t63.5 27 q21 0 37 -11.5t37 -33.5q14 -16 24 -24t20 -8q21 0 30.5 12.5t13.5 35.5h54q-8 -45 -35.5 -71.5t-63.5 -26.5q-22 0 -37.5 11.5z" />
         <glyph glyph-name="Edieresis" unicode="Ë" d="M633 800l-10 -51h-376l-63 -301h240l-11 -50h-240l-72 -347h373l-11 -51h-429l170 800h429zM299.5 922.5q-12.5 8.5 -12.5 27.5q0 10 3 23q5 28 18 38t44 10q28 0 40.5 -8t12.5 -27q0 -10 -3 -22q-6 -29 -19 -39.5t-44 -10.5q-27 0 -39.5 8.5zM515.5 922.5 q-12.5 8.5 -12.5 27.5q0 10 3 23q5 28 18 38t44 10q28 0 40.5 -8t12.5 -27q0 -10 -3 -22q-6 -29 -19 -39.5t-44 -10.5q-27 0 -39.5 8.5z" />
         <glyph glyph-name="Edotaccent" unicode="Ė" d="M633 800l-10 -51h-376l-63 -301h240l-11 -50h-240l-72 -347h373l-11 -51h-429l170 800h429zM409 936.5q-12 7.5 -12 26.5q0 11 3 24q7 28 21 39t43 11t41 -7.5t12 -26.5q0 -9 -3 -23q-6 -29 -20 -40t-44 -11q-29 0 -41 7.5z" />
         <glyph glyph-name="uni1EB8" unicode="Ẹ" d="M633 800l-10 -51h-376l-63 -301h240l-11 -50h-240l-72 -347h373l-11 -51h-429l170 800h429zM165 -216.5q-12 7.5 -12 26.5q0 11 3 24q7 28 21 39t43 11t41 -7.5t12 -26.5q0 -9 -3 -23q-6 -29 -20 -40t-44 -11q-29 0 -41 7.5z" />
         <glyph glyph-name="Egrave" unicode="È" d="M633 800l-10 -51h-376l-63 -301h240l-11 -50h-240l-72 -347h373l-11 -51h-429l170 800h429zM488 909l-43 -39l-115 122l43 38z" />
         <glyph glyph-name="uni1EBA" unicode="Ẻ" d="M633 800l-10 -51h-376l-63 -301h240l-11 -50h-240l-72 -347h373l-11 -51h-429l170 800h429zM404 890q37 9 58 25.5t21 34.5q0 10 -8 16.5t-18 6.5q-23 0 -49.5 -12t-47.5 -28l10 63q18 12 43 19.5t45 7.5q35 0 57 -18t22 -49q0 -12 -2 -19q-6 -33 -38.5 -59t-84.5 -38z " />
         <glyph glyph-name="Emacron" unicode="Ē" d="M633 800l-10 -51h-376l-63 -301h240l-11 -50h-240l-72 -347h373l-11 -51h-429l170 800h429zM580 907h-279l11 50h279z" />
         <glyph glyph-name="Eogonek" unicode="Ę" d="M623 749h-376l-63 -301h240l-11 -50h-240l-72 -347h373l-11 -51h-1l-32 -18q-56 -32 -82 -51.5t-26 -40.5q1 -16 15 -25.5t38 -9.5q16 0 33 6.5t29 16.5l26 -44q-15 -14 -39 -22t-49 -8q-50 0 -78.5 19t-28.5 56q0 31 36.5 62t96.5 59h-367l170 800h429z" />
         <glyph glyph-name="uni1EBC" unicode="Ẽ" d="M633 800l-10 -51h-376l-63 -301h240l-11 -50h-240l-72 -347h373l-11 -51h-429l170 800h429zM470.5 896.5q-15.5 11.5 -37.5 34.5q-16 17 -24.5 24t-18.5 7q-20 0 -29.5 -13t-14.5 -38h-55q10 47 36.5 74t63.5 27q21 0 37 -11.5t37 -33.5q14 -16 24 -24t20 -8 q21 0 30.5 12.5t13.5 35.5h54q-8 -45 -35.5 -71.5t-63.5 -26.5q-22 0 -37.5 11.5z" />
         <glyph glyph-name="F" unicode="F" d="M634 800l-10 -51h-376l-72 -347h239l-10 -50h-241l-74 -352h-55l170 800h429z" />
         <glyph glyph-name="G" unicode="G" d="M103.5 29.5q-46.5 43.5 -46.5 148.5q0 87 30 226q34 160 75 247.5t102 125t158 37.5q68 0 107 -17.5t57.5 -57t23.5 -110.5l-53 -9q-4 56 -17.5 86.5t-41.5 43.5t-78 13q-77 0 -128 -34t-86.5 -113t-65.5 -220q-29 -134 -29 -209q0 -82 34.5 -116t111.5 -34q68 0 110 27 t81 96l42 192h-174l10 50h229l-53 -254q-34 -63 -67.5 -98t-75.5 -49.5t-104 -14.5q-105 0 -151.5 43.5z" />
         <glyph glyph-name="Gbreve" unicode="Ğ" d="M103.5 29.5q-46.5 43.5 -46.5 148.5q0 87 30 226q34 160 75 247.5t102 125t158 37.5q68 0 107 -17.5t57.5 -57t23.5 -110.5l-53 -9q-4 56 -17.5 86.5t-41.5 43.5t-78 13q-77 0 -128 -34t-86.5 -113t-65.5 -220q-29 -134 -29 -209q0 -82 34.5 -116t111.5 -34q68 0 110 27 t81 96l42 192h-174l10 50h229l-53 -254q-34 -63 -67.5 -98t-75.5 -49.5t-104 -14.5q-105 0 -151.5 43.5zM340 902q-26 17 -26 56q0 19 6 46h54q-4 -24 -4 -31q0 -22 12.5 -30t44.5 -8q44 0 64.5 15.5t28.5 53.5h54q-9 -47 -25.5 -72.5t-45.5 -36t-78 -10.5q-59 0 -85 17z " />
         <glyph glyph-name="Gcircumflex" unicode="Ĝ" d="M103.5 29.5q-46.5 43.5 -46.5 148.5q0 87 30 226q34 160 75 247.5t102 125t158 37.5q68 0 107 -17.5t57.5 -57t23.5 -110.5l-53 -9q-4 56 -17.5 86.5t-41.5 43.5t-78 13q-77 0 -128 -34t-86.5 -113t-65.5 -220q-29 -134 -29 -209q0 -82 34.5 -116t111.5 -34q68 0 110 27 t81 96l42 192h-174l10 50h229l-53 -254q-34 -63 -67.5 -98t-75.5 -49.5t-104 -14.5q-105 0 -151.5 43.5zM558 897l-49 -33l-72 83l-109 -81l-37 33l158 118z" />
         <glyph glyph-name="uni0122" unicode="Ģ" d="M103.5 29.5q-46.5 43.5 -46.5 148.5q0 87 30 226q34 160 75 247.5t102 125t158 37.5q68 0 107 -17.5t57.5 -57t23.5 -110.5l-53 -9q-4 56 -17.5 86.5t-41.5 43.5t-78 13q-77 0 -128 -34t-86.5 -113t-65.5 -220q-29 -134 -29 -209q0 -82 34.5 -116t111.5 -34q68 0 110 27 t81 96l42 192h-174l10 50h229l-53 -254q-34 -63 -67.5 -98t-75.5 -49.5t-104 -14.5q-105 0 -151.5 43.5zM202 -124q-20 3 -20 27q0 5 2 17q5 22 14 29.5t33 7.5q22 0 32 -6.5t10 -22.5q0 -5 -2 -17q-6 -26 -36 -70t-69 -89l-40 2z" />
         <glyph glyph-name="Gdotaccent" unicode="Ġ" d="M103.5 29.5q-46.5 43.5 -46.5 148.5q0 87 30 226q34 160 75 247.5t102 125t158 37.5q68 0 107 -17.5t57.5 -57t23.5 -110.5l-53 -9q-4 56 -17.5 86.5t-41.5 43.5t-78 13q-77 0 -128 -34t-86.5 -113t-65.5 -220q-29 -134 -29 -209q0 -82 34.5 -116t111.5 -34q68 0 110 27 t81 96l42 192h-174l10 50h229l-53 -254q-34 -63 -67.5 -98t-75.5 -49.5t-104 -14.5q-105 0 -151.5 43.5zM394 933.5q-12 7.5 -12 26.5q0 11 3 24q7 28 21 39t43 11t41 -7.5t12 -26.5q0 -9 -3 -23q-6 -29 -20 -40t-44 -11q-29 0 -41 7.5z" />
         <glyph glyph-name="H" unicode="H" d="M493 448l75 352h55l-170 -800h-55l85 398h-327l-85 -398h-55l170 800h55l-75 -352h327z" />
         <glyph glyph-name="Hbar" unicode="Ħ" d="M581 603h53l-10 -51h-54l-117 -552h-55l85 398h-327l-85 -398h-55l117 552h-52l10 51h53l42 197h55l-42 -197h327l42 197h55zM166 448h327l22 104h-327z" />
         <glyph glyph-name="Hcircumflex" unicode="Ĥ" d="M493 448l75 352h55l-170 -800h-55l85 398h-327l-85 -398h-55l170 800h55l-75 -352h327zM558 897l-49 -33l-72 83l-109 -81l-37 33l158 118z" />
         <glyph glyph-name="I" unicode="I" d="M594 800l-10 -51h-163l-148 -698h162l-11 -51h-379l11 51h162l148 698h-161l10 51h379z" />
         <glyph glyph-name="Iacute" unicode="Í" d="M594 800l-10 -51h-163l-148 -698h162l-11 -51h-379l11 51h162l148 698h-161l10 51h379zM573 992l-162 -122l-30 39l162 121z" />
         <glyph glyph-name="uni01CF" unicode="Ǐ" d="M594 800l-10 -51h-163l-148 -698h162l-11 -51h-379l11 51h162l148 698h-161l10 51h379zM579 994l-158 -120l-110 118l47 33l75 -81l109 83z" />
         <glyph glyph-name="Icircumflex" unicode="Î" d="M594 800l-10 -51h-163l-148 -698h162l-11 -51h-379l11 51h162l148 698h-161l10 51h379zM559 900l-49 -33l-72 83l-109 -81l-37 33l158 118z" />
         <glyph glyph-name="Idieresis" unicode="Ï" d="M594 800l-10 -51h-163l-148 -698h162l-11 -51h-379l11 51h162l148 698h-161l10 51h379zM285.5 922.5q-12.5 8.5 -12.5 27.5q0 10 3 23q5 28 18 38t44 10q28 0 40.5 -8t12.5 -27q0 -10 -3 -22q-6 -29 -19 -39.5t-44 -10.5q-27 0 -39.5 8.5zM501.5 922.5 q-12.5 8.5 -12.5 27.5q0 10 3 23q5 28 18 38t44 10q28 0 40.5 -8t12.5 -27q0 -10 -3 -22q-6 -29 -19 -39.5t-44 -10.5q-27 0 -39.5 8.5z" />
         <glyph glyph-name="Idotaccent" unicode="İ" d="M594 800l-10 -51h-163l-148 -698h162l-11 -51h-379l11 51h162l148 698h-161l10 51h379zM395 936.5q-12 7.5 -12 26.5q0 11 3 24q7 28 21 39t43 11t41 -7.5t12 -26.5q0 -9 -3 -23q-6 -29 -20 -40t-44 -11q-29 0 -41 7.5z" />
         <glyph glyph-name="uni1ECA" unicode="Ị" d="M594 800l-10 -51h-163l-148 -698h162l-11 -51h-379l11 51h162l148 698h-161l10 51h379zM151 -216.5q-12 7.5 -12 26.5q0 11 3 24q7 28 21 39t43 11t41 -7.5t12 -26.5q0 -9 -3 -23q-6 -29 -20 -40t-44 -11q-29 0 -41 7.5z" />
         <glyph glyph-name="Igrave" unicode="Ì" d="M594 800l-10 -51h-163l-148 -698h162l-11 -51h-379l11 51h162l148 698h-161l10 51h379zM474 909l-43 -39l-115 122l43 38z" />
         <glyph glyph-name="uni1EC8" unicode="Ỉ" d="M594 800l-10 -51h-163l-148 -698h162l-11 -51h-379l11 51h162l148 698h-161l10 51h379zM390 890q37 9 58 25.5t21 34.5q0 10 -8 16.5t-18 6.5q-23 0 -49.5 -12t-47.5 -28l10 63q18 12 43 19.5t45 7.5q35 0 57 -18t22 -49q0 -12 -2 -19q-6 -33 -38.5 -59t-84.5 -38z" />
         <glyph glyph-name="Imacron" unicode="Ī" d="M594 800l-10 -51h-163l-148 -698h162l-11 -51h-379l11 51h162l148 698h-161l10 51h379zM566 907h-279l11 50h279z" />
         <glyph glyph-name="Iogonek" unicode="Į" d="M584 749h-163l-148 -698h162l-11 -51h-111l-32 -18q-56 -32 -82 -51.5t-26 -40.5q1 -16 15 -25.5t38 -9.5q16 0 33 6.5t29 16.5l26 -44q-15 -14 -39 -22t-49 -8q-50 0 -78.5 19t-28.5 56q0 31 36.5 62t96.5 59h-207l11 51h162l148 698h-161l10 51h379z" />
         <glyph glyph-name="Itilde" unicode="Ĩ" d="M594 800l-10 -51h-163l-148 -698h162l-11 -51h-379l11 51h162l148 698h-161l10 51h379zM456.5 896.5q-15.5 11.5 -37.5 34.5q-16 17 -24.5 24t-18.5 7q-20 0 -29.5 -13t-14.5 -38h-55q10 47 36.5 74t63.5 27q21 0 37 -11.5t37 -33.5q14 -16 24 -24t20 -8q21 0 30.5 12.5 t13.5 35.5h54q-8 -45 -35.5 -71.5t-63.5 -26.5q-22 0 -37.5 11.5z" />
         <glyph glyph-name="J" unicode="J" d="M99 1.5q-37 15.5 -55.5 51t-24.5 98.5l53 10q5 -49 18 -75.5t39 -37.5t73 -11q73 0 120.5 29.5t80 97.5t58.5 189l85 396h-131l10 51h186l-96 -452q-30 -141 -68.5 -218.5t-96.5 -110.5t-150 -33q-64 0 -101 15.5z" />
         <glyph glyph-name="Jcircumflex" unicode="Ĵ" d="M99 1.5q-37 15.5 -55.5 51t-24.5 98.5l53 10q5 -49 18 -75.5t39 -37.5t73 -11q73 0 120.5 29.5t80 97.5t58.5 189l85 396h-131l10 51h186l-96 -452q-30 -141 -68.5 -218.5t-96.5 -110.5t-150 -33q-64 0 -101 15.5zM674 897l-49 -33l-72 83l-109 -81l-37 33l158 118z" />
         <glyph glyph-name="K" unicode="K" d="M593 800h70l-378 -365l211 -435h-64l-192 398h-78l-85 -398h-55l170 800h55l-75 -352h57z" />
         <glyph glyph-name="uni0136" unicode="Ķ" d="M593 800h70l-378 -365l211 -435h-64l-192 398h-78l-85 -398h-55l170 800h55l-75 -352h57zM202 -124q-20 3 -20 27q0 5 2 17q5 22 14 29.5t33 7.5q22 0 32 -6.5t10 -22.5q0 -5 -2 -17q-6 -26 -36 -70t-69 -89l-40 2z" />
         <glyph glyph-name="L" unicode="L" d="M443 0h-390l170 800h55l-159 -749h335z" />
         <glyph glyph-name="Lacute" unicode="Ĺ" d="M443 0h-390l170 800h55l-159 -749h335zM436 989l-162 -122l-30 39l162 121z" />
         <glyph glyph-name="Lcaron" unicode="Ľ" d="M443 0h-390l170 800h55l-159 -749h335zM412 550h-44l44 250h61z" />
         <glyph glyph-name="uni013B" unicode="Ļ" d="M443 0h-390l170 800h55l-159 -749h335zM202 -124q-20 3 -20 27q0 5 2 17q5 22 14 29.5t33 7.5q22 0 32 -6.5t10 -22.5q0 -5 -2 -17q-6 -26 -36 -70t-69 -89l-40 2z" />
         <glyph glyph-name="Lslash" unicode="Ł" d="M236 462l-87 -411h335l-11 -51h-390l93 440l-106 -40l11 52l107 40l65 308h55l-61 -285l145 54l-10 -52z" />
         <glyph glyph-name="M" unicode="M" d="M47 0h-56l185 800h55l74 -459l272 459h56l-156 -800h-55l129 661l-234 -401h-53l-64 401z" />
         <glyph glyph-name="N" unicode="N" d="M421 116l145 684h55l-170 -800h-59l-174 684l-145 -684h-55l170 800h59z" />
         <glyph glyph-name="Nacute" unicode="Ń" d="M421 116l145 684h55l-170 -800h-59l-174 684l-145 -684h-55l170 800h59zM573 992l-162 -122l-30 39l162 121z" />
         <glyph glyph-name="Ncaron" unicode="Ň" d="M421 116l145 684h55l-170 -800h-59l-174 684l-145 -684h-55l170 800h59zM579 994l-158 -120l-110 118l47 33l75 -81l109 83z" />
         <glyph glyph-name="uni0145" unicode="Ņ" d="M421 116l145 684h55l-170 -800h-59l-174 684l-145 -684h-55l170 800h59zM202 -127q-20 3 -20 27q0 5 2 17q5 22 14 29.5t33 7.5q22 0 32 -6.5t10 -22.5q0 -5 -2 -17q-6 -26 -36 -70t-69 -89l-40 2z" />
         <glyph glyph-name="Eng" unicode="Ŋ" d="M451 0h-29l29 -2q-13 -62 -33.5 -95t-54 -46.5t-90.5 -13.5l6 50q56 0 86 24.5t27 82.5l-174 684l-145 -684h-55l170 800h59l174 -684l145 684h55z" />
         <glyph glyph-name="Ntilde" unicode="Ñ" d="M421 116l145 684h55l-170 -800h-59l-174 684l-145 -684h-55l170 800h59zM456.5 896.5q-15.5 11.5 -37.5 34.5q-16 17 -24.5 24t-18.5 7q-20 0 -29.5 -13t-14.5 -38h-55q10 47 36.5 74t63.5 27q21 0 37 -11.5t37 -33.5q14 -16 24 -24t20 -8q21 0 30.5 12.5t13.5 35.5h54 q-8 -45 -35.5 -71.5t-63.5 -26.5q-22 0 -37.5 11.5z" />
         <glyph glyph-name="O" unicode="O" d="M94 26.5q-44 40.5 -44 137.5q0 74 26 198l17 80q31 144 68.5 224t94.5 114t147 34q98 0 142 -40.5t44 -137.5q0 -74 -26 -198l-17 -80q-31 -144 -69 -224t-94.5 -114t-146.5 -34q-98 0 -142 40.5zM355 67.5q46 30.5 78 100t59 194.5l17 80q25 122 25 185q0 74 -31.5 105 t-101.5 31q-71 0 -117.5 -30.5t-78.5 -100.5t-58 -194l-17 -80q-25 -120 -25 -184q0 -75 31.5 -106t101.5 -31q71 0 117 30.5z" />
         <glyph glyph-name="Oacute" unicode="Ó" d="M94 26.5q-44 40.5 -44 137.5q0 74 26 198l17 80q31 144 68.5 224t94.5 114t147 34q98 0 142 -40.5t44 -137.5q0 -74 -26 -198l-17 -80q-31 -144 -69 -224t-94.5 -114t-146.5 -34q-98 0 -142 40.5zM355 67.5q46 30.5 78 100t59 194.5l17 80q25 122 25 185q0 74 -31.5 105 t-101.5 31q-71 0 -117.5 -30.5t-78.5 -100.5t-58 -194l-17 -80q-25 -120 -25 -184q0 -75 31.5 -106t101.5 -31q71 0 117 30.5zM573 992l-162 -122l-30 39l162 121z" />
         <glyph glyph-name="uni01D1" unicode="Ǒ" d="M94 26.5q-44 40.5 -44 137.5q0 74 26 198l17 80q31 144 68.5 224t94.5 114t147 34q98 0 142 -40.5t44 -137.5q0 -74 -26 -198l-17 -80q-31 -144 -69 -224t-94.5 -114t-146.5 -34q-98 0 -142 40.5zM355 67.5q46 30.5 78 100t59 194.5l17 80q25 122 25 185q0 74 -31.5 105 t-101.5 31q-71 0 -117.5 -30.5t-78.5 -100.5t-58 -194l-17 -80q-25 -120 -25 -184q0 -75 31.5 -106t101.5 -31q71 0 117 30.5zM579 994l-158 -120l-110 118l47 33l75 -81l109 83z" />
         <glyph glyph-name="Ocircumflex" unicode="Ô" d="M94 26.5q-44 40.5 -44 137.5q0 74 26 198l17 80q31 144 68.5 224t94.5 114t147 34q98 0 142 -40.5t44 -137.5q0 -74 -26 -198l-17 -80q-31 -144 -69 -224t-94.5 -114t-146.5 -34q-98 0 -142 40.5zM355 67.5q46 30.5 78 100t59 194.5l17 80q25 122 25 185q0 74 -31.5 105 t-101.5 31q-71 0 -117.5 -30.5t-78.5 -100.5t-58 -194l-17 -80q-25 -120 -25 -184q0 -75 31.5 -106t101.5 -31q71 0 117 30.5zM559 900l-49 -33l-72 83l-109 -81l-37 33l158 118z" />
         <glyph glyph-name="uni1ED0" unicode="Ố" d="M94 26.5q-44 40.5 -44 137.5q0 74 26 198l17 80q31 144 68.5 224t94.5 114t147 34q98 0 142 -40.5t44 -137.5q0 -74 -26 -198l-17 -80q-31 -144 -69 -224t-94.5 -114t-146.5 -34q-98 0 -142 40.5zM355 67.5q46 30.5 78 100t59 194.5l17 80q25 122 25 185q0 74 -31.5 105 t-101.5 31q-71 0 -117.5 -30.5t-78.5 -100.5t-58 -194l-17 -80q-25 -120 -25 -184q0 -75 31.5 -106t101.5 -31q71 0 117 30.5zM711 1026l-157 -117l-30 38l158 117zM552 868l-48 -33l-73 83l-109 -81l-36 33l157 118z" />
         <glyph glyph-name="uni1ED8" unicode="Ộ" d="M94 26.5q-44 40.5 -44 137.5q0 74 26 198l17 80q31 144 68.5 224t94.5 114t147 34q98 0 142 -40.5t44 -137.5q0 -74 -26 -198l-17 -80q-31 -144 -69 -224t-94.5 -114t-146.5 -34q-98 0 -142 40.5zM355 67.5q46 30.5 78 100t59 194.5l17 80q25 122 25 185q0 74 -31.5 105 t-101.5 31q-71 0 -117.5 -30.5t-78.5 -100.5t-58 -194l-17 -80q-25 -120 -25 -184q0 -75 31.5 -106t101.5 -31q71 0 117 30.5zM151 -216.5q-12 7.5 -12 26.5q0 11 3 24q7 28 21 39t43 11t41 -7.5t12 -26.5q0 -9 -3 -23q-6 -29 -20 -40t-44 -11q-29 0 -41 7.5zM559 900 l-49 -33l-72 83l-109 -81l-37 33l158 118z" />
         <glyph glyph-name="uni1ED2" unicode="Ồ" d="M94 26.5q-44 40.5 -44 137.5q0 74 26 198l17 80q31 144 68.5 224t94.5 114t147 34q98 0 142 -40.5t44 -137.5q0 -74 -26 -198l-17 -80q-31 -144 -69 -224t-94.5 -114t-146.5 -34q-98 0 -142 40.5zM355 67.5q46 30.5 78 100t59 194.5l17 80q25 122 25 185q0 74 -31.5 105 t-101.5 31q-71 0 -117.5 -30.5t-78.5 -100.5t-58 -194l-17 -80q-25 -120 -25 -184q0 -75 31.5 -106t101.5 -31q71 0 117 30.5zM598 902l-94 106l45 34l98 -107zM559 900l-49 -33l-72 83l-109 -81l-37 33l158 118z" />
         <glyph glyph-name="uni1ED4" unicode="Ổ" d="M94 26.5q-44 40.5 -44 137.5q0 74 26 198l17 80q31 144 68.5 224t94.5 114t147 34q98 0 142 -40.5t44 -137.5q0 -74 -26 -198l-17 -80q-31 -144 -69 -224t-94.5 -114t-146.5 -34q-98 0 -142 40.5zM355 67.5q46 30.5 78 100t59 194.5l17 80q25 122 25 185q0 74 -31.5 105 t-101.5 31q-71 0 -117.5 -30.5t-78.5 -100.5t-58 -194l-17 -80q-25 -120 -25 -184q0 -75 31.5 -106t101.5 -31q71 0 117 30.5zM553 868l-49 -33l-72 83l-109 -81l-37 33l158 118zM579 931q37 9 58 25.5t21 34.5q0 10 -8 16.5t-18 6.5q-23 0 -49.5 -12t-47.5 -28l10 63 q18 12 43 19.5t45 7.5q35 0 57 -18t22 -49q0 -12 -2 -19q-6 -33 -38.5 -59t-84.5 -38z" />
         <glyph glyph-name="uni1ED6" unicode="Ỗ" d="M94 26.5q-44 40.5 -44 137.5q0 74 26 198l17 80q31 144 68.5 224t94.5 114t147 34q98 0 142 -40.5t44 -137.5q0 -74 -26 -198l-17 -80q-31 -144 -69 -224t-94.5 -114t-146.5 -34q-98 0 -142 40.5zM355 67.5q46 30.5 78 100t59 194.5l17 80q25 122 25 185q0 74 -31.5 105 t-101.5 31q-71 0 -117.5 -30.5t-78.5 -100.5t-58 -194l-17 -80q-25 -120 -25 -184q0 -75 31.5 -106t101.5 -31q71 0 117 30.5zM553 868l-49 -33l-72 83l-109 -81l-37 33l158 118zM677.5 922.5q-15.5 11.5 -37.5 34.5q-16 17 -24.5 24t-18.5 7q-20 0 -29.5 -13t-14.5 -38h-55 q10 47 36.5 74t63.5 27q21 0 37 -11.5t37 -33.5q14 -16 24 -24t20 -8q21 0 30.5 12.5t13.5 35.5h54q-8 -45 -35.5 -71.5t-63.5 -26.5q-22 0 -37.5 11.5z" />
         <glyph glyph-name="Odieresis" unicode="Ö" d="M94 26.5q-44 40.5 -44 137.5q0 74 26 198l17 80q31 144 68.5 224t94.5 114t147 34q98 0 142 -40.5t44 -137.5q0 -74 -26 -198l-17 -80q-31 -144 -69 -224t-94.5 -114t-146.5 -34q-98 0 -142 40.5zM355 67.5q46 30.5 78 100t59 194.5l17 80q25 122 25 185q0 74 -31.5 105 t-101.5 31q-71 0 -117.5 -30.5t-78.5 -100.5t-58 -194l-17 -80q-25 -120 -25 -184q0 -75 31.5 -106t101.5 -31q71 0 117 30.5zM285.5 922.5q-12.5 8.5 -12.5 27.5q0 10 3 23q5 28 18 38t44 10q28 0 40.5 -8t12.5 -27q0 -10 -3 -22q-6 -29 -19 -39.5t-44 -10.5 q-27 0 -39.5 8.5zM501.5 922.5q-12.5 8.5 -12.5 27.5q0 10 3 23q5 28 18 38t44 10q28 0 40.5 -8t12.5 -27q0 -10 -3 -22q-6 -29 -19 -39.5t-44 -10.5q-27 0 -39.5 8.5z" />
         <glyph glyph-name="uni1ECC" unicode="Ọ" d="M94 26.5q-44 40.5 -44 137.5q0 74 26 198l17 80q31 144 68.5 224t94.5 114t147 34q98 0 142 -40.5t44 -137.5q0 -74 -26 -198l-17 -80q-31 -144 -69 -224t-94.5 -114t-146.5 -34q-98 0 -142 40.5zM355 67.5q46 30.5 78 100t59 194.5l17 80q25 122 25 185q0 74 -31.5 105 t-101.5 31q-71 0 -117.5 -30.5t-78.5 -100.5t-58 -194l-17 -80q-25 -120 -25 -184q0 -75 31.5 -106t101.5 -31q71 0 117 30.5zM151 -216.5q-12 7.5 -12 26.5q0 11 3 24q7 28 21 39t43 11t41 -7.5t12 -26.5q0 -9 -3 -23q-6 -29 -20 -40t-44 -11q-29 0 -41 7.5z" />
         <glyph glyph-name="Ograve" unicode="Ò" d="M94 26.5q-44 40.5 -44 137.5q0 74 26 198l17 80q31 144 68.5 224t94.5 114t147 34q98 0 142 -40.5t44 -137.5q0 -74 -26 -198l-17 -80q-31 -144 -69 -224t-94.5 -114t-146.5 -34q-98 0 -142 40.5zM355 67.5q46 30.5 78 100t59 194.5l17 80q25 122 25 185q0 74 -31.5 105 t-101.5 31q-71 0 -117.5 -30.5t-78.5 -100.5t-58 -194l-17 -80q-25 -120 -25 -184q0 -75 31.5 -106t101.5 -31q71 0 117 30.5zM474 909l-43 -39l-115 122l43 38z" />
         <glyph glyph-name="uni1ECE" unicode="Ỏ" d="M94 26.5q-44 40.5 -44 137.5q0 74 26 198l17 80q31 144 68.5 224t94.5 114t147 34q98 0 142 -40.5t44 -137.5q0 -74 -26 -198l-17 -80q-31 -144 -69 -224t-94.5 -114t-146.5 -34q-98 0 -142 40.5zM355 67.5q46 30.5 78 100t59 194.5l17 80q25 122 25 185q0 74 -31.5 105 t-101.5 31q-71 0 -117.5 -30.5t-78.5 -100.5t-58 -194l-17 -80q-25 -120 -25 -184q0 -75 31.5 -106t101.5 -31q71 0 117 30.5zM390 890q37 9 58 25.5t21 34.5q0 10 -8 16.5t-18 6.5q-23 0 -49.5 -12t-47.5 -28l10 63q18 12 43 19.5t45 7.5q35 0 57 -18t22 -49q0 -12 -2 -19 q-6 -33 -38.5 -59t-84.5 -38z" />
         <glyph glyph-name="Ohorn" unicode="Ơ" d="M734 907h55l-29 -134q-11 -56 -46.5 -89t-83.5 -33q-23 0 -42 12q1 -9 1 -27q0 -76 -26 -198l-17 -80q-31 -144 -69 -224t-94.5 -114t-146.5 -34q-98 0 -142 40.5t-44 137.5q0 74 26 198l17 80q31 144 68.5 224t94.5 114t147 34q73 0 115.5 -21.5t58.5 -70.5 q15 -21 53 -21q27 0 48 21t28 55zM509 442q25 122 25 185q0 74 -31.5 105t-101.5 31q-71 0 -117.5 -30.5t-78.5 -100.5t-58 -194l-17 -80q-25 -120 -25 -184q0 -75 31.5 -106t101.5 -31q71 0 117 30.5t78 100t59 194.5z" />
         <glyph glyph-name="uni1EDA" unicode="Ớ" d="M734 907h55l-29 -134q-11 -56 -46.5 -89t-83.5 -33q-23 0 -42 12q1 -9 1 -27q0 -76 -26 -198l-17 -80q-31 -144 -69 -224t-94.5 -114t-146.5 -34q-98 0 -142 40.5t-44 137.5q0 74 26 198l17 80q31 144 68.5 224t94.5 114t147 34q73 0 115.5 -21.5t58.5 -70.5 q15 -21 53 -21q27 0 48 21t28 55zM509 442q25 122 25 185q0 74 -31.5 105t-101.5 31q-71 0 -117.5 -30.5t-78.5 -100.5t-58 -194l-17 -80q-25 -120 -25 -184q0 -75 31.5 -106t101.5 -31q71 0 117 30.5t78 100t59 194.5zM573 992l-162 -122l-30 39l162 121z" />
         <glyph glyph-name="uni1EE2" unicode="Ợ" d="M734 907h55l-29 -134q-11 -56 -46.5 -89t-83.5 -33q-23 0 -42 12q1 -9 1 -27q0 -76 -26 -198l-17 -80q-31 -144 -69 -224t-94.5 -114t-146.5 -34q-98 0 -142 40.5t-44 137.5q0 74 26 198l17 80q31 144 68.5 224t94.5 114t147 34q73 0 115.5 -21.5t58.5 -70.5 q15 -21 53 -21q27 0 48 21t28 55zM509 442q25 122 25 185q0 74 -31.5 105t-101.5 31q-71 0 -117.5 -30.5t-78.5 -100.5t-58 -194l-17 -80q-25 -120 -25 -184q0 -75 31.5 -106t101.5 -31q71 0 117 30.5t78 100t59 194.5zM151 -216.5q-12 7.5 -12 26.5q0 11 3 24q7 28 21 39 t43 11t41 -7.5t12 -26.5q0 -9 -3 -23q-6 -29 -20 -40t-44 -11q-29 0 -41 7.5z" />
         <glyph glyph-name="uni1EDC" unicode="Ờ" d="M734 907h55l-29 -134q-11 -56 -46.5 -89t-83.5 -33q-23 0 -42 12q1 -9 1 -27q0 -76 -26 -198l-17 -80q-31 -144 -69 -224t-94.5 -114t-146.5 -34q-98 0 -142 40.5t-44 137.5q0 74 26 198l17 80q31 144 68.5 224t94.5 114t147 34q73 0 115.5 -21.5t58.5 -70.5 q15 -21 53 -21q27 0 48 21t28 55zM509 442q25 122 25 185q0 74 -31.5 105t-101.5 31q-71 0 -117.5 -30.5t-78.5 -100.5t-58 -194l-17 -80q-25 -120 -25 -184q0 -75 31.5 -106t101.5 -31q71 0 117 30.5t78 100t59 194.5zM474 909l-43 -39l-115 122l43 38z" />
         <glyph glyph-name="uni1EDE" unicode="Ở" d="M734 907h55l-29 -134q-11 -56 -46.5 -89t-83.5 -33q-23 0 -42 12q1 -9 1 -27q0 -76 -26 -198l-17 -80q-31 -144 -69 -224t-94.5 -114t-146.5 -34q-98 0 -142 40.5t-44 137.5q0 74 26 198l17 80q31 144 68.5 224t94.5 114t147 34q73 0 115.5 -21.5t58.5 -70.5 q15 -21 53 -21q27 0 48 21t28 55zM509 442q25 122 25 185q0 74 -31.5 105t-101.5 31q-71 0 -117.5 -30.5t-78.5 -100.5t-58 -194l-17 -80q-25 -120 -25 -184q0 -75 31.5 -106t101.5 -31q71 0 117 30.5t78 100t59 194.5zM390 890q37 9 58 25.5t21 34.5q0 10 -8 16.5t-18 6.5 q-23 0 -49.5 -12t-47.5 -28l10 63q18 12 43 19.5t45 7.5q35 0 57 -18t22 -49q0 -12 -2 -19q-6 -33 -38.5 -59t-84.5 -38z" />
         <glyph glyph-name="uni1EE0" unicode="Ỡ" d="M734 907h55l-29 -134q-11 -56 -46.5 -89t-83.5 -33q-23 0 -42 12q1 -9 1 -27q0 -76 -26 -198l-17 -80q-31 -144 -69 -224t-94.5 -114t-146.5 -34q-98 0 -142 40.5t-44 137.5q0 74 26 198l17 80q31 144 68.5 224t94.5 114t147 34q73 0 115.5 -21.5t58.5 -70.5 q15 -21 53 -21q27 0 48 21t28 55zM509 442q25 122 25 185q0 74 -31.5 105t-101.5 31q-71 0 -117.5 -30.5t-78.5 -100.5t-58 -194l-17 -80q-25 -120 -25 -184q0 -75 31.5 -106t101.5 -31q71 0 117 30.5t78 100t59 194.5zM456.5 896.5q-15.5 11.5 -37.5 34.5q-16 17 -24.5 24 t-18.5 7q-20 0 -29.5 -13t-14.5 -38h-55q10 47 36.5 74t63.5 27q21 0 37 -11.5t37 -33.5q14 -16 24 -24t20 -8q21 0 30.5 12.5t13.5 35.5h54q-8 -45 -35.5 -71.5t-63.5 -26.5q-22 0 -37.5 11.5z" />
         <glyph glyph-name="Ohungarumlaut" unicode="Ő" d="M94 26.5q-44 40.5 -44 137.5q0 74 26 198l17 80q31 144 68.5 224t94.5 114t147 34q98 0 142 -40.5t44 -137.5q0 -74 -26 -198l-17 -80q-31 -144 -69 -224t-94.5 -114t-146.5 -34q-98 0 -142 40.5zM355 67.5q46 30.5 78 100t59 194.5l17 80q25 122 25 185q0 74 -31.5 105 t-101.5 31q-71 0 -117.5 -30.5t-78.5 -100.5t-58 -194l-17 -80q-25 -120 -25 -184q0 -75 31.5 -106t101.5 -31q71 0 117 30.5zM442 992l-162 -122l-30 39l163 121zM621 992l-162 -122l-30 39l163 121z" />
         <glyph glyph-name="Omacron" unicode="Ō" d="M94 26.5q-44 40.5 -44 137.5q0 74 26 198l17 80q31 144 68.5 224t94.5 114t147 34q98 0 142 -40.5t44 -137.5q0 -74 -26 -198l-17 -80q-31 -144 -69 -224t-94.5 -114t-146.5 -34q-98 0 -142 40.5zM355 67.5q46 30.5 78 100t59 194.5l17 80q25 122 25 185q0 74 -31.5 105 t-101.5 31q-71 0 -117.5 -30.5t-78.5 -100.5t-58 -194l-17 -80q-25 -120 -25 -184q0 -75 31.5 -106t101.5 -31q71 0 117 30.5zM566 907h-279l11 50h279z" />
         <glyph glyph-name="Oslash" unicode="Ø" d="M655 850l-81 -120q15 -37 15 -95q0 -75 -26 -197l-17 -80q-31 -144 -69 -224t-94.5 -114t-146.5 -34q-96 0 -140 38l-50 -74h-62l81 120q-15 38 -15 95q0 75 26 197l17 80q31 144 68.5 224t94.5 114t147 34q97 0 139 -38l50 74h63zM130 358q-25 -115 -25 -186 q0 -27 2 -39l401 593q-30 37 -107 37q-71 0 -117 -30.5t-78.5 -100.5t-58.5 -194zM509 442q25 120 25 182q0 24 -3 43l-401 -593q31 -37 108 -37q71 0 117 30.5t78 100t59 194.5z" />
         <glyph glyph-name="Otilde" unicode="Õ" d="M94 26.5q-44 40.5 -44 137.5q0 74 26 198l17 80q31 144 68.5 224t94.5 114t147 34q98 0 142 -40.5t44 -137.5q0 -74 -26 -198l-17 -80q-31 -144 -69 -224t-94.5 -114t-146.5 -34q-98 0 -142 40.5zM355 67.5q46 30.5 78 100t59 194.5l17 80q25 122 25 185q0 74 -31.5 105 t-101.5 31q-71 0 -117.5 -30.5t-78.5 -100.5t-58 -194l-17 -80q-25 -120 -25 -184q0 -75 31.5 -106t101.5 -31q71 0 117 30.5zM456.5 896.5q-15.5 11.5 -37.5 34.5q-16 17 -24.5 24t-18.5 7q-20 0 -29.5 -13t-14.5 -38h-55q10 47 36.5 74t63.5 27q21 0 37 -11.5t37 -33.5 q14 -16 24 -24t20 -8q21 0 30.5 12.5t13.5 35.5h54q-8 -45 -35.5 -71.5t-63.5 -26.5q-22 0 -37.5 11.5z" />
         <glyph glyph-name="OE" unicode="Œ" d="M692 749h-229l-62 -301h137l-11 -50h-138l-1 -6l-7 -34l-65 -307h227l-11 -51h-282l9 42q-26 -29 -59.5 -42.5t-76.5 -13.5q-71 0 -103.5 37t-32.5 124q0 90 35 256q34 159 69 247t81.5 126t116.5 38q47 0 76 -15.5t44 -49.5l11 51h282zM207.5 68q34.5 31 63 101.5 t57.5 196.5l17 83q27 132 27 202q0 60 -20 86t-64 26q-51 0 -87.5 -34.5t-66 -113.5t-59.5 -220q-35 -167 -35 -245q0 -61 20 -87t64 -26q49 0 83.5 31z" />
         <glyph glyph-name="P" unicode="P" d="M422 800q98 0 140.5 -30t42.5 -103q0 -40 -12 -96q-18 -86 -47.5 -133t-79.5 -67t-134 -20h-165l-74 -351h-55l170 800h214zM550 657q0 52 -30.5 72t-103.5 20h-165l-73 -347h159q63 0 102.5 16.5t63 54.5t37.5 107q10 50 10 77z" />
         <glyph glyph-name="Thorn" unicode="Þ" d="M361 606q99 0 142.5 -28.5t43.5 -96.5q0 -33 -11 -85q-17 -78 -46 -121.5t-78.5 -62t-133.5 -18.5h-144l-41 -194h-55l170 800h55l-41 -194h139zM491 467q0 50 -31 69.5t-105 19.5h-144l-66 -312h139q63 0 101.5 15t61.5 49.5t36 95.5q8 40 8 63z" />
         <glyph glyph-name="Q" unicode="Q" d="M555 -120q34 12 78 37q53 28 94 43t108 19l-11 -52q-52 -4 -87 -17.5t-79 -38.5q-49 -27 -88 -40.5t-100 -13.5q-41 0 -74 12.5t-58.5 31t-61.5 49.5q-8 7 -23.5 20t-27.5 22q-8 -5 -27 -19q-31 -21 -50 -30t-44 -9q-38 0 -59 17t-21 47q0 18 7 36q13 37 45 53 q-26 40 -26 117q0 74 26 198l17 80q31 144 68.5 224t94.5 114t147 34q98 0 142 -40.5t44 -136.5q0 -77 -27 -199l-17 -80q-26 -125 -57.5 -200.5t-75.5 -115t-109 -51.5q-10 -3 -28 -11l30 -27q49 -44 83.5 -64.5t82.5 -20.5q50 0 84 12zM129 358q-24 -114 -24 -183 q0 -75 31.5 -106.5t101.5 -31.5q71 0 117 30t78.5 100t58.5 195l17 80q25 122 25 185q0 74 -31.5 105t-101.5 31q-71 0 -118 -30t-79 -100t-58 -195zM128 -49q11 6 28 19l19 14q-18 9 -33 14q-11 4 -24 4q-28 0 -38 -22q-3 -8 -3 -15q0 -20 28 -20q12 0 23 6z" />
         <glyph glyph-name="R" unicode="R" d="M414 800q98 0 140.5 -30t42.5 -103q0 -40 -12 -96q-18 -85 -47 -132t-78 -67t-130 -21l154 -351h-62l-155 351h-107l-75 -351h-55l170 800h214zM542 657q0 52 -30.5 72t-103.5 20h-163l-74 -347h158q63 0 102.5 16.5t63 54.5t37.5 107q10 50 10 77z" />
         <glyph glyph-name="Racute" unicode="Ŕ" d="M414 800q98 0 140.5 -30t42.5 -103q0 -40 -12 -96q-18 -85 -47 -132t-78 -67t-130 -21l154 -351h-62l-155 351h-107l-75 -351h-55l170 800h214zM542 657q0 52 -30.5 72t-103.5 20h-163l-74 -347h158q63 0 102.5 16.5t63 54.5t37.5 107q10 50 10 77zM572 989l-162 -122 l-30 39l162 121z" />
         <glyph glyph-name="Rcaron" unicode="Ř" d="M414 800q98 0 140.5 -30t42.5 -103q0 -40 -12 -96q-18 -85 -47 -132t-78 -67t-130 -21l154 -351h-62l-155 351h-107l-75 -351h-55l170 800h214zM542 657q0 52 -30.5 72t-103.5 20h-163l-74 -347h158q63 0 102.5 16.5t63 54.5t37.5 107q10 50 10 77zM578 991l-158 -120 l-110 118l47 33l75 -81l109 83z" />
         <glyph glyph-name="uni0156" unicode="Ŗ" d="M414 800q98 0 140.5 -30t42.5 -103q0 -40 -12 -96q-18 -85 -47 -132t-78 -67t-130 -21l154 -351h-62l-155 351h-107l-75 -351h-55l170 800h214zM542 657q0 52 -30.5 72t-103.5 20h-163l-74 -347h158q63 0 102.5 16.5t63 54.5t37.5 107q10 50 10 77zM202 -124 q-20 3 -20 27q0 5 2 17q5 22 14 29.5t33 7.5q22 0 32 -6.5t10 -22.5q0 -5 -2 -17q-6 -26 -36 -70t-69 -89l-40 2z" />
         <glyph glyph-name="S" unicode="S" d="M128 -3q-41 11 -65.5 35.5t-38.5 67.5l47 34q9 -38 27 -59t50.5 -29.5t89.5 -8.5q67 0 108.5 17t66.5 56.5t40 110.5q6 26 6 46q0 45 -31 73.5t-106 56.5q-96 33 -136.5 70t-40.5 93q0 24 6 51q17 79 45 122.5t77 62t130 18.5q90 0 133 -22t65 -77l-44 -36 q-10 34 -27.5 51.5t-47.5 25t-81 7.5q-62 0 -100 -15t-60.5 -49.5t-35.5 -96.5q-5 -23 -5 -38q0 -40 28.5 -66t97.5 -49q101 -34 144 -73t43 -103q0 -29 -7 -61q-18 -88 -49 -136t-83 -69t-138 -21q-67 0 -108 11z" />
         <glyph glyph-name="Sacute" unicode="Ś" d="M128 -3q-41 11 -65.5 35.5t-38.5 67.5l47 34q9 -38 27 -59t50.5 -29.5t89.5 -8.5q67 0 108.5 17t66.5 56.5t40 110.5q6 26 6 46q0 45 -31 73.5t-106 56.5q-96 33 -136.5 70t-40.5 93q0 24 6 51q17 79 45 122.5t77 62t130 18.5q90 0 133 -22t65 -77l-44 -36 q-10 34 -27.5 51.5t-47.5 25t-81 7.5q-62 0 -100 -15t-60.5 -49.5t-35.5 -96.5q-5 -23 -5 -38q0 -40 28.5 -66t97.5 -49q101 -34 144 -73t43 -103q0 -29 -7 -61q-18 -88 -49 -136t-83 -69t-138 -21q-67 0 -108 11zM573 992l-162 -122l-30 39l162 121z" />
         <glyph glyph-name="Scaron" unicode="Š" d="M128 -3q-41 11 -65.5 35.5t-38.5 67.5l47 34q9 -38 27 -59t50.5 -29.5t89.5 -8.5q67 0 108.5 17t66.5 56.5t40 110.5q6 26 6 46q0 45 -31 73.5t-106 56.5q-96 33 -136.5 70t-40.5 93q0 24 6 51q17 79 45 122.5t77 62t130 18.5q90 0 133 -22t65 -77l-44 -36 q-10 34 -27.5 51.5t-47.5 25t-81 7.5q-62 0 -100 -15t-60.5 -49.5t-35.5 -96.5q-5 -23 -5 -38q0 -40 28.5 -66t97.5 -49q101 -34 144 -73t43 -103q0 -29 -7 -61q-18 -88 -49 -136t-83 -69t-138 -21q-67 0 -108 11zM579 994l-158 -120l-110 118l47 33l75 -81l109 83z" />
         <glyph glyph-name="Scedilla" unicode="Ş" d="M536 792q43 -22 65 -77l-44 -36q-10 34 -27.5 51.5t-47.5 25t-81 7.5q-62 0 -100 -15t-60.5 -49.5t-35.5 -96.5q-5 -23 -5 -38q0 -40 28.5 -66t97.5 -49q101 -34 144 -73t43 -103q0 -29 -7 -61q-18 -85 -47 -132.5t-77.5 -69.5t-127.5 -24l-7 -27q28 -7 44 -24t16 -40 q0 -9 -1 -14q-7 -37 -39.5 -59.5t-79.5 -22.5q-27 0 -50 9t-35 23l29 42q10 -10 26 -16.5t31 -6.5q27 0 46 12t19 31q0 11 -17.5 17.5t-48.5 6.5l13 70q-79 4 -118 29.5t-58 83.5l47 34q9 -38 27 -59t50.5 -29.5t89.5 -8.5q67 0 108.5 17t66.5 56.5t40 110.5q6 26 6 46 q0 45 -31 73.5t-106 56.5q-96 33 -136.5 70t-40.5 93q0 24 6 51q17 79 45 122.5t77 62t130 18.5q90 0 133 -22z" />
         <glyph glyph-name="Scircumflex" unicode="Ŝ" d="M128 -3q-41 11 -65.5 35.5t-38.5 67.5l47 34q9 -38 27 -59t50.5 -29.5t89.5 -8.5q67 0 108.5 17t66.5 56.5t40 110.5q6 26 6 46q0 45 -31 73.5t-106 56.5q-96 33 -136.5 70t-40.5 93q0 24 6 51q17 79 45 122.5t77 62t130 18.5q90 0 133 -22t65 -77l-44 -36 q-10 34 -27.5 51.5t-47.5 25t-81 7.5q-62 0 -100 -15t-60.5 -49.5t-35.5 -96.5q-5 -23 -5 -38q0 -40 28.5 -66t97.5 -49q101 -34 144 -73t43 -103q0 -29 -7 -61q-18 -88 -49 -136t-83 -69t-138 -21q-67 0 -108 11zM559 900l-49 -33l-72 83l-109 -81l-37 33l158 118z" />
         <glyph glyph-name="uni0218" unicode="Ș" d="M128 -3q-41 11 -65.5 35.5t-38.5 67.5l47 34q9 -38 27 -59t50.5 -29.5t89.5 -8.5q67 0 108.5 17t66.5 56.5t40 110.5q6 26 6 46q0 45 -31 73.5t-106 56.5q-96 33 -136.5 70t-40.5 93q0 24 6 51q17 79 45 122.5t77 62t130 18.5q90 0 133 -22t65 -77l-44 -36 q-10 34 -27.5 51.5t-47.5 25t-81 7.5q-62 0 -100 -15t-60.5 -49.5t-35.5 -96.5q-5 -23 -5 -38q0 -40 28.5 -66t97.5 -49q101 -34 144 -73t43 -103q0 -29 -7 -61q-18 -88 -49 -136t-83 -69t-138 -21q-67 0 -108 11zM202 -124q-20 3 -20 27q0 5 2 17q5 22 14 29.5t33 7.5 q22 0 32 -6.5t10 -22.5q0 -5 -2 -17q-6 -26 -36 -70t-69 -89l-40 2z" />
         <glyph glyph-name="uni1E9E" unicode="ẞ" d="M415 472q85 -2 123 -34t38 -103q0 -43 -14 -110q-20 -96 -50 -147t-78 -71.5t-129 -20.5q-90 0 -128.5 22t-38.5 75q0 26 7 55l53 -5q-4 -17 -4 -35q0 -35 25 -48t87 -13t100 17t62 59t41 121q12 53 12 89q0 54 -29.5 76.5t-97.5 22.5h-85l273 327h-218q-81 0 -143 -51.5 t-80 -133.5l-119 -564h-56l121 568q23 109 99.5 170.5t189.5 61.5h311z" />
         <glyph glyph-name="T" unicode="T" d="M675 800l-10 -51h-244l-159 -749h-55l159 749h-242l10 51h541z" />
         <glyph glyph-name="Tbar" unicode="Ŧ" d="M675 800l-10 -51h-244l-64 -301h162l-11 -50h-161l-85 -398h-55l85 398h-163l11 50h162l64 301h-242l10 51h541z" />
         <glyph glyph-name="Tcaron" unicode="Ť" d="M675 800l-10 -51h-244l-159 -749h-55l159 749h-242l10 51h541zM578 991l-158 -120l-110 118l47 33l75 -81l109 83z" />
         <glyph glyph-name="uni0162" unicode="Ţ" d="M262 0l-11 -41q28 -7 44 -24t16 -40q0 -9 -1 -14q-7 -37 -40 -59.5t-80 -22.5q-26 0 -49 9t-35 23l29 42q10 -10 26 -16.5t31 -6.5q25 0 43 11t22 28q3 13 -15 20.5t-51 7.5l16 83v2l1 3l158 744h-242l10 51h541l-10 -51h-244z" />
         <glyph glyph-name="uni021A" unicode="Ț" d="M675 800l-10 -51h-244l-159 -749h-55l159 749h-242l10 51h541zM202 -124q-20 3 -20 27q0 5 2 17q5 22 14 29.5t33 7.5q22 0 32 -6.5t10 -22.5q0 -5 -2 -17q-6 -26 -36 -70t-69 -89l-40 2z" />
         <glyph glyph-name="U" unicode="U" d="M103.5 21.5q-40.5 35.5 -40.5 119.5q0 59 20 156l107 503h55l-108 -508q-19 -86 -19 -141q0 -63 28 -88.5t92 -25.5q63 0 103 24.5t67.5 80t48.5 155.5l107 503h55l-108 -508q-25 -119 -58 -184.5t-84.5 -93.5t-132.5 -28q-92 0 -132.5 35.5z" />
         <glyph glyph-name="Uacute" unicode="Ú" d="M103.5 21.5q-40.5 35.5 -40.5 119.5q0 59 20 156l107 503h55l-108 -508q-19 -86 -19 -141q0 -63 28 -88.5t92 -25.5q63 0 103 24.5t67.5 80t48.5 155.5l107 503h55l-108 -508q-25 -119 -58 -184.5t-84.5 -93.5t-132.5 -28q-92 0 -132.5 35.5zM573 992l-162 -122l-30 39 l162 121z" />
         <glyph glyph-name="Ubreve" unicode="Ŭ" d="M103.5 21.5q-40.5 35.5 -40.5 119.5q0 59 20 156l107 503h55l-108 -508q-19 -86 -19 -141q0 -63 28 -88.5t92 -25.5q63 0 103 24.5t67.5 80t48.5 155.5l107 503h55l-108 -508q-25 -119 -58 -184.5t-84.5 -93.5t-132.5 -28q-92 0 -132.5 35.5zM341 905q-26 17 -26 56 q0 19 6 46h54q-4 -24 -4 -31q0 -22 12.5 -30t44.5 -8q44 0 64.5 15.5t28.5 53.5h54q-9 -47 -25.5 -72.5t-45.5 -36t-78 -10.5q-59 0 -85 17z" />
         <glyph glyph-name="uni01D3" unicode="Ǔ" d="M103.5 21.5q-40.5 35.5 -40.5 119.5q0 59 20 156l107 503h55l-108 -508q-19 -86 -19 -141q0 -63 28 -88.5t92 -25.5q63 0 103 24.5t67.5 80t48.5 155.5l107 503h55l-108 -508q-25 -119 -58 -184.5t-84.5 -93.5t-132.5 -28q-92 0 -132.5 35.5zM579 994l-158 -120l-110 118 l47 33l75 -81l109 83z" />
         <glyph glyph-name="Ucircumflex" unicode="Û" d="M103.5 21.5q-40.5 35.5 -40.5 119.5q0 59 20 156l107 503h55l-108 -508q-19 -86 -19 -141q0 -63 28 -88.5t92 -25.5q63 0 103 24.5t67.5 80t48.5 155.5l107 503h55l-108 -508q-25 -119 -58 -184.5t-84.5 -93.5t-132.5 -28q-92 0 -132.5 35.5zM559 900l-49 -33l-72 83 l-109 -81l-37 33l158 118z" />
         <glyph glyph-name="Udieresis" unicode="Ü" d="M103.5 21.5q-40.5 35.5 -40.5 119.5q0 59 20 156l107 503h55l-108 -508q-19 -86 -19 -141q0 -63 28 -88.5t92 -25.5q63 0 103 24.5t67.5 80t48.5 155.5l107 503h55l-108 -508q-25 -119 -58 -184.5t-84.5 -93.5t-132.5 -28q-92 0 -132.5 35.5zM285.5 922.5 q-12.5 8.5 -12.5 27.5q0 10 3 23q5 28 18 38t44 10q28 0 40.5 -8t12.5 -27q0 -10 -3 -22q-6 -29 -19 -39.5t-44 -10.5q-27 0 -39.5 8.5zM501.5 922.5q-12.5 8.5 -12.5 27.5q0 10 3 23q5 28 18 38t44 10q28 0 40.5 -8t12.5 -27q0 -10 -3 -22q-6 -29 -19 -39.5t-44 -10.5 q-27 0 -39.5 8.5z" />
         <glyph glyph-name="uni01D7" unicode="Ǘ" d="M103.5 21.5q-40.5 35.5 -40.5 119.5q0 59 20 156l107 503h55l-108 -508q-19 -86 -19 -141q0 -63 28 -88.5t92 -25.5q63 0 103 24.5t67.5 80t48.5 155.5l107 503h55l-108 -508q-25 -119 -58 -184.5t-84.5 -93.5t-132.5 -28q-92 0 -132.5 35.5zM266.5 830.5 q-12.5 8.5 -12.5 27.5q0 10 3 23q5 28 18 38t44 10q28 0 40.5 -8t12.5 -27q0 -10 -3 -22q-6 -29 -19 -39.5t-44 -10.5q-27 0 -39.5 8.5zM482.5 830.5q-12.5 8.5 -12.5 27.5q0 10 3 23q5 28 18 38t44 10q28 0 40.5 -8t12.5 -27q0 -10 -3 -22q-6 -29 -19 -39.5t-44 -10.5 q-27 0 -39.5 8.5zM586 1052l-162 -122l-30 39l162 121z" />
         <glyph glyph-name="uni01D9" unicode="Ǚ" d="M103.5 21.5q-40.5 35.5 -40.5 119.5q0 59 20 156l107 503h55l-108 -508q-19 -86 -19 -141q0 -63 28 -88.5t92 -25.5q63 0 103 24.5t67.5 80t48.5 155.5l107 503h55l-108 -508q-25 -119 -58 -184.5t-84.5 -93.5t-132.5 -28q-92 0 -132.5 35.5zM266.5 830.5 q-12.5 8.5 -12.5 27.5q0 10 3 23q5 28 18 38t44 10q28 0 40.5 -8t12.5 -27q0 -10 -3 -22q-6 -29 -19 -39.5t-44 -10.5q-27 0 -39.5 8.5zM482.5 830.5q-12.5 8.5 -12.5 27.5q0 10 3 23q5 28 18 38t44 10q28 0 40.5 -8t12.5 -27q0 -10 -3 -22q-6 -29 -19 -39.5t-44 -10.5 q-27 0 -39.5 8.5zM594 1060l-158 -120l-110 118l47 33l75 -81l109 83z" />
         <glyph glyph-name="uni01DB" unicode="Ǜ" d="M103.5 21.5q-40.5 35.5 -40.5 119.5q0 59 20 156l107 503h55l-108 -508q-19 -86 -19 -141q0 -63 28 -88.5t92 -25.5q63 0 103 24.5t67.5 80t48.5 155.5l107 503h55l-108 -508q-25 -119 -58 -184.5t-84.5 -93.5t-132.5 -28q-92 0 -132.5 35.5zM266.5 830.5 q-12.5 8.5 -12.5 27.5q0 10 3 23q5 28 18 38t44 10q28 0 40.5 -8t12.5 -27q0 -10 -3 -22q-6 -29 -19 -39.5t-44 -10.5q-27 0 -39.5 8.5zM482.5 830.5q-12.5 8.5 -12.5 27.5q0 10 3 23q5 28 18 38t44 10q28 0 40.5 -8t12.5 -27q0 -10 -3 -22q-6 -29 -19 -39.5t-44 -10.5 q-27 0 -39.5 8.5zM487 969l-43 -39l-115 122l43 38z" />
         <glyph glyph-name="uni01D5" unicode="Ǖ" d="M103.5 21.5q-40.5 35.5 -40.5 119.5q0 59 20 156l107 503h55l-108 -508q-19 -86 -19 -141q0 -63 28 -88.5t92 -25.5q63 0 103 24.5t67.5 80t48.5 155.5l107 503h55l-108 -508q-25 -119 -58 -184.5t-84.5 -93.5t-132.5 -28q-92 0 -132.5 35.5zM266.5 830.5 q-12.5 8.5 -12.5 27.5q0 10 3 23q5 28 18 38t44 10q28 0 40.5 -8t12.5 -27q0 -10 -3 -22q-6 -29 -19 -39.5t-44 -10.5q-27 0 -39.5 8.5zM482.5 830.5q-12.5 8.5 -12.5 27.5q0 10 3 23q5 28 18 38t44 10q28 0 40.5 -8t12.5 -27q0 -10 -3 -22q-6 -29 -19 -39.5t-44 -10.5 q-27 0 -39.5 8.5zM592 1030h-279l11 50h279z" />
         <glyph glyph-name="uni1EE4" unicode="Ụ" d="M103.5 21.5q-40.5 35.5 -40.5 119.5q0 59 20 156l107 503h55l-108 -508q-19 -86 -19 -141q0 -63 28 -88.5t92 -25.5q63 0 103 24.5t67.5 80t48.5 155.5l107 503h55l-108 -508q-25 -119 -58 -184.5t-84.5 -93.5t-132.5 -28q-92 0 -132.5 35.5zM151 -216.5 q-12 7.5 -12 26.5q0 11 3 24q7 28 21 39t43 11t41 -7.5t12 -26.5q0 -9 -3 -23q-6 -29 -20 -40t-44 -11q-29 0 -41 7.5z" />
         <glyph glyph-name="Ugrave" unicode="Ù" d="M103.5 21.5q-40.5 35.5 -40.5 119.5q0 59 20 156l107 503h55l-108 -508q-19 -86 -19 -141q0 -63 28 -88.5t92 -25.5q63 0 103 24.5t67.5 80t48.5 155.5l107 503h55l-108 -508q-25 -119 -58 -184.5t-84.5 -93.5t-132.5 -28q-92 0 -132.5 35.5zM474 909l-43 -39l-115 122 l43 38z" />
         <glyph glyph-name="uni1EE6" unicode="Ủ" d="M103.5 21.5q-40.5 35.5 -40.5 119.5q0 59 20 156l107 503h55l-108 -508q-19 -86 -19 -141q0 -63 28 -88.5t92 -25.5q63 0 103 24.5t67.5 80t48.5 155.5l107 503h55l-108 -508q-25 -119 -58 -184.5t-84.5 -93.5t-132.5 -28q-92 0 -132.5 35.5zM390 890q37 9 58 25.5 t21 34.5q0 10 -8 16.5t-18 6.5q-23 0 -49.5 -12t-47.5 -28l10 63q18 12 43 19.5t45 7.5q35 0 57 -18t22 -49q0 -12 -2 -19q-6 -33 -38.5 -59t-84.5 -38z" />
         <glyph glyph-name="Uhorn" unicode="Ư" d="M748 977h55l-28 -135q-12 -55 -48 -88.5t-83 -33.5q-20 0 -40 11l-93 -439q-25 -119 -58 -184.5t-84.5 -93.5t-132.5 -28q-92 0 -132.5 35.5t-40.5 119.5q0 59 20 156l107 503h55l-108 -508q-19 -86 -19 -141q0 -63 28 -88.5t92 -25.5q63 0 103 24.5t67.5 80t48.5 155.5 l107 503h55l-5 -24q11 -5 30 -5q27 0 48 21t29 54z" />
         <glyph glyph-name="uni1EE8" unicode="Ứ" d="M748 977h55l-28 -135q-12 -55 -48 -88.5t-83 -33.5q-20 0 -40 11l-93 -439q-25 -119 -58 -184.5t-84.5 -93.5t-132.5 -28q-92 0 -132.5 35.5t-40.5 119.5q0 59 20 156l107 503h55l-108 -508q-19 -86 -19 -141q0 -63 28 -88.5t92 -25.5q63 0 103 24.5t67.5 80t48.5 155.5 l107 503h55l-5 -24q11 -5 30 -5q27 0 48 21t29 54zM573 992l-162 -122l-30 39l162 121z" />
         <glyph glyph-name="uni1EF0" unicode="Ự" d="M748 977h55l-28 -135q-12 -55 -48 -88.5t-83 -33.5q-20 0 -40 11l-93 -439q-25 -119 -58 -184.5t-84.5 -93.5t-132.5 -28q-92 0 -132.5 35.5t-40.5 119.5q0 59 20 156l107 503h55l-108 -508q-19 -86 -19 -141q0 -63 28 -88.5t92 -25.5q63 0 103 24.5t67.5 80t48.5 155.5 l107 503h55l-5 -24q11 -5 30 -5q27 0 48 21t29 54zM151 -216.5q-12 7.5 -12 26.5q0 11 3 24q7 28 21 39t43 11t41 -7.5t12 -26.5q0 -9 -3 -23q-6 -29 -20 -40t-44 -11q-29 0 -41 7.5z" />
         <glyph glyph-name="uni1EEA" unicode="Ừ" d="M748 977h55l-28 -135q-12 -55 -48 -88.5t-83 -33.5q-20 0 -40 11l-93 -439q-25 -119 -58 -184.5t-84.5 -93.5t-132.5 -28q-92 0 -132.5 35.5t-40.5 119.5q0 59 20 156l107 503h55l-108 -508q-19 -86 -19 -141q0 -63 28 -88.5t92 -25.5q63 0 103 24.5t67.5 80t48.5 155.5 l107 503h55l-5 -24q11 -5 30 -5q27 0 48 21t29 54zM474 909l-43 -39l-115 122l43 38z" />
         <glyph glyph-name="uni1EEC" unicode="Ử" d="M748 977h55l-28 -135q-12 -55 -48 -88.5t-83 -33.5q-20 0 -40 11l-93 -439q-25 -119 -58 -184.5t-84.5 -93.5t-132.5 -28q-92 0 -132.5 35.5t-40.5 119.5q0 59 20 156l107 503h55l-108 -508q-19 -86 -19 -141q0 -63 28 -88.5t92 -25.5q63 0 103 24.5t67.5 80t48.5 155.5 l107 503h55l-5 -24q11 -5 30 -5q27 0 48 21t29 54zM390 890q37 9 58 25.5t21 34.5q0 10 -8 16.5t-18 6.5q-23 0 -49.5 -12t-47.5 -28l10 63q18 12 43 19.5t45 7.5q35 0 57 -18t22 -49q0 -12 -2 -19q-6 -33 -38.5 -59t-84.5 -38z" />
         <glyph glyph-name="uni1EEE" unicode="Ữ" d="M748 977h55l-28 -135q-12 -55 -48 -88.5t-83 -33.5q-20 0 -40 11l-93 -439q-25 -119 -58 -184.5t-84.5 -93.5t-132.5 -28q-92 0 -132.5 35.5t-40.5 119.5q0 59 20 156l107 503h55l-108 -508q-19 -86 -19 -141q0 -63 28 -88.5t92 -25.5q63 0 103 24.5t67.5 80t48.5 155.5 l107 503h55l-5 -24q11 -5 30 -5q27 0 48 21t29 54zM456.5 896.5q-15.5 11.5 -37.5 34.5q-16 17 -24.5 24t-18.5 7q-20 0 -29.5 -13t-14.5 -38h-55q10 47 36.5 74t63.5 27q21 0 37 -11.5t37 -33.5q14 -16 24 -24t20 -8q21 0 30.5 12.5t13.5 35.5h54q-8 -45 -35.5 -71.5 t-63.5 -26.5q-22 0 -37.5 11.5z" />
         <glyph glyph-name="Uhungarumlaut" unicode="Ű" d="M103.5 21.5q-40.5 35.5 -40.5 119.5q0 59 20 156l107 503h55l-108 -508q-19 -86 -19 -141q0 -63 28 -88.5t92 -25.5q63 0 103 24.5t67.5 80t48.5 155.5l107 503h55l-108 -508q-25 -119 -58 -184.5t-84.5 -93.5t-132.5 -28q-92 0 -132.5 35.5zM442 992l-162 -122l-30 39 l163 121zM621 992l-162 -122l-30 39l163 121z" />
         <glyph glyph-name="Umacron" unicode="Ū" d="M103.5 21.5q-40.5 35.5 -40.5 119.5q0 59 20 156l107 503h55l-108 -508q-19 -86 -19 -141q0 -63 28 -88.5t92 -25.5q63 0 103 24.5t67.5 80t48.5 155.5l107 503h55l-108 -508q-25 -119 -58 -184.5t-84.5 -93.5t-132.5 -28q-92 0 -132.5 35.5zM566 907h-279l11 50h279z " />
         <glyph glyph-name="Uogonek" unicode="Ų" d="M564 800h55l-108 -508q-21 -102 -48.5 -164t-66.5 -94.5t-97 -42.5q-67 -38 -95.5 -58.5t-28.5 -42.5q1 -16 15 -25.5t38 -9.5q16 0 33 6.5t29 16.5l26 -44q-15 -14 -39 -22t-49 -8q-50 0 -78.5 19t-28.5 56q0 27 28.5 54.5t76.5 52.5q-86 2 -124.5 37.5t-38.5 118.5 q0 60 20 155l107 503h55l-108 -508q-19 -86 -19 -141q0 -63 28 -88.5t92 -25.5q63 0 103 24.5t67.5 80t48.5 155.5z" />
         <glyph glyph-name="Uring" unicode="Ů" d="M103.5 21.5q-40.5 35.5 -40.5 119.5q0 59 20 156l107 503h55l-108 -508q-19 -86 -19 -141q0 -63 28 -88.5t92 -25.5q63 0 103 24.5t67.5 80t48.5 155.5l107 503h55l-108 -508q-25 -119 -58 -184.5t-84.5 -93.5t-132.5 -28q-92 0 -132.5 35.5zM312.5 770 q-25.5 17 -25.5 59q0 16 5 46q10 44 26.5 68t45 34.5t75.5 10.5q60 0 86.5 -17t26.5 -57q0 -21 -6 -48q-9 -44 -25.5 -68t-45.5 -34.5t-77 -10.5q-60 0 -85.5 17zM464 819.5q20 15.5 28 55.5q4 22 4 27q0 19 -13.5 27t-44.5 8q-43 0 -63.5 -15.5t-28.5 -55.5q-3 -15 -3 -26 q0 -20 13 -28t44 -8q44 0 64 15.5z" />
         <glyph glyph-name="Utilde" unicode="Ũ" d="M103.5 21.5q-40.5 35.5 -40.5 119.5q0 59 20 156l107 503h55l-108 -508q-19 -86 -19 -141q0 -63 28 -88.5t92 -25.5q63 0 103 24.5t67.5 80t48.5 155.5l107 503h55l-108 -508q-25 -119 -58 -184.5t-84.5 -93.5t-132.5 -28q-92 0 -132.5 35.5zM456.5 896.5 q-15.5 11.5 -37.5 34.5q-16 17 -24.5 24t-18.5 7q-20 0 -29.5 -13t-14.5 -38h-55q10 47 36.5 74t63.5 27q21 0 37 -11.5t37 -33.5q14 -16 24 -24t20 -8q21 0 30.5 12.5t13.5 35.5h54q-8 -45 -35.5 -71.5t-63.5 -26.5q-22 0 -37.5 11.5z" />
         <glyph glyph-name="V" unicode="V" d="M265 0h-60l-49 800h58l40 -700l340 700h60z" />
         <glyph glyph-name="W" unicode="W" d="M131 0h-56l62 800h55l-55 -671l184 409h54l10 -409l231 671h57l-278 -800h-55l-12 434z" />
         <glyph glyph-name="Wacute" unicode="Ẃ" d="M131 0h-56l62 800h55l-55 -671l184 409h54l10 -409l231 671h57l-278 -800h-55l-12 434zM573 992l-162 -122l-30 39l162 121z" />
         <glyph glyph-name="Wcircumflex" unicode="Ŵ" d="M131 0h-56l62 800h55l-55 -671l184 409h54l10 -409l231 671h57l-278 -800h-55l-12 434zM559 900l-49 -33l-72 83l-109 -81l-37 33l158 118z" />
         <glyph glyph-name="Wdieresis" unicode="Ẅ" d="M131 0h-56l62 800h55l-55 -671l184 409h54l10 -409l231 671h57l-278 -800h-55l-12 434zM285.5 922.5q-12.5 8.5 -12.5 27.5q0 10 3 23q5 28 18 38t44 10q28 0 40.5 -8t12.5 -27q0 -10 -3 -22q-6 -29 -19 -39.5t-44 -10.5q-27 0 -39.5 8.5zM501.5 922.5 q-12.5 8.5 -12.5 27.5q0 10 3 23q5 28 18 38t44 10q28 0 40.5 -8t12.5 -27q0 -10 -3 -22q-6 -29 -19 -39.5t-44 -10.5q-27 0 -39.5 8.5z" />
         <glyph glyph-name="Wgrave" unicode="Ẁ" d="M131 0h-56l62 800h55l-55 -671l184 409h54l10 -409l231 671h57l-278 -800h-55l-12 434zM474 909l-43 -39l-115 122l43 38z" />
         <glyph glyph-name="X" unicode="X" d="M588 800h59l-297 -399l128 -401h-62l-109 343l-255 -343h-60l297 399l-128 401h62l109 -343z" />
         <glyph glyph-name="Y" unicode="Y" d="M262 0h-55l66 307l-130 493h60l110 -425l292 425h62l-339 -493z" />
         <glyph glyph-name="Yacute" unicode="Ý" d="M262 0h-55l66 307l-130 493h60l110 -425l292 425h62l-339 -493zM573 992l-162 -122l-30 39l162 121z" />
         <glyph glyph-name="Ycircumflex" unicode="Ŷ" d="M262 0h-55l66 307l-130 493h60l110 -425l292 425h62l-339 -493zM559 900l-49 -33l-72 83l-109 -81l-37 33l158 118z" />
         <glyph glyph-name="Ydieresis" unicode="Ÿ" d="M262 0h-55l66 307l-130 493h60l110 -425l292 425h62l-339 -493zM285.5 922.5q-12.5 8.5 -12.5 27.5q0 10 3 23q5 28 18 38t44 10q28 0 40.5 -8t12.5 -27q0 -10 -3 -22q-6 -29 -19 -39.5t-44 -10.5q-27 0 -39.5 8.5zM501.5 922.5q-12.5 8.5 -12.5 27.5q0 10 3 23 q5 28 18 38t44 10q28 0 40.5 -8t12.5 -27q0 -10 -3 -22q-6 -29 -19 -39.5t-44 -10.5q-27 0 -39.5 8.5z" />
         <glyph glyph-name="uni1EF4" unicode="Ỵ" d="M262 0h-55l66 307l-130 493h60l110 -425l292 425h62l-339 -493zM151 -216.5q-12 7.5 -12 26.5q0 11 3 24q7 28 21 39t43 11t41 -7.5t12 -26.5q0 -9 -3 -23q-6 -29 -20 -40t-44 -11q-29 0 -41 7.5z" />
         <glyph glyph-name="Ygrave" unicode="Ỳ" d="M262 0h-55l66 307l-130 493h60l110 -425l292 425h62l-339 -493zM474 909l-43 -39l-115 122l43 38z" />
         <glyph glyph-name="uni1EF6" unicode="Ỷ" d="M262 0h-55l66 307l-130 493h60l110 -425l292 425h62l-339 -493zM390 890q37 9 58 25.5t21 34.5q0 10 -8 16.5t-18 6.5q-23 0 -49.5 -12t-47.5 -28l10 63q18 12 43 19.5t45 7.5q35 0 57 -18t22 -49q0 -12 -2 -19q-6 -33 -38.5 -59t-84.5 -38z" />
         <glyph glyph-name="uni1EF8" unicode="Ỹ" d="M262 0h-55l66 307l-130 493h60l110 -425l292 425h62l-339 -493zM456.5 896.5q-15.5 11.5 -37.5 34.5q-16 17 -24.5 24t-18.5 7q-20 0 -29.5 -13t-14.5 -38h-55q10 47 36.5 74t63.5 27q21 0 37 -11.5t37 -33.5q14 -16 24 -24t20 -8q21 0 30.5 12.5t13.5 35.5h54 q-8 -45 -35.5 -71.5t-63.5 -26.5q-22 0 -37.5 11.5z" />
         <glyph glyph-name="Z" unicode="Z" d="M389 -54q-29 9 -71 26q-46 20 -80.5 30t-73.5 10q-13 0 -34 -3q-58 -9 -140 -9l9 44l572 705h-418l9 51h486l-9 -45l-570 -704q19 0 49 6q34 6 58 6q43 0 79.5 -10.5t83.5 -30.5q37 -17 64.5 -25.5t56.5 -8.5q31 0 56 7.5t59 23.5q36 17 62 25t60 7l-12 -51q-19 1 -37 -5 t-42 -19q-41 -19 -74.5 -29t-82.5 -10q-31 0 -60 9z" />
         <glyph glyph-name="Zacute" unicode="Ź" d="M389 -54q-29 9 -71 26q-46 20 -80.5 30t-73.5 10q-13 0 -34 -3q-58 -9 -140 -9l9 44l572 705h-418l9 51h486l-9 -45l-570 -704q19 0 49 6q34 6 58 6q43 0 79.5 -10.5t83.5 -30.5q37 -17 64.5 -25.5t56.5 -8.5q31 0 56 7.5t59 23.5q36 17 62 25t60 7l-12 -51q-19 1 -37 -5 t-42 -19q-41 -19 -74.5 -29t-82.5 -10q-31 0 -60 9zM572 989l-162 -122l-30 39l162 121z" />
         <glyph glyph-name="Zcaron" unicode="Ž" d="M389 -54q-29 9 -71 26q-46 20 -80.5 30t-73.5 10q-13 0 -34 -3q-58 -9 -140 -9l9 44l572 705h-418l9 51h486l-9 -45l-570 -704q19 0 49 6q34 6 58 6q43 0 79.5 -10.5t83.5 -30.5q37 -17 64.5 -25.5t56.5 -8.5q31 0 56 7.5t59 23.5q36 17 62 25t60 7l-12 -51q-19 1 -37 -5 t-42 -19q-41 -19 -74.5 -29t-82.5 -10q-31 0 -60 9zM578 991l-158 -120l-110 118l47 33l75 -81l109 83z" />
         <glyph glyph-name="Zdotaccent" unicode="Ż" d="M389 -54q-29 9 -71 26q-46 20 -80.5 30t-73.5 10q-13 0 -34 -3q-58 -9 -140 -9l9 44l572 705h-418l9 51h486l-9 -45l-570 -704q19 0 49 6q34 6 58 6q43 0 79.5 -10.5t83.5 -30.5q37 -17 64.5 -25.5t56.5 -8.5q31 0 56 7.5t59 23.5q36 17 62 25t60 7l-12 -51q-19 1 -37 -5 t-42 -19q-41 -19 -74.5 -29t-82.5 -10q-31 0 -60 9zM394 933.5q-12 7.5 -12 26.5q0 11 3 24q7 28 21 39t43 11t41 -7.5t12 -26.5q0 -9 -3 -23q-6 -29 -20 -40t-44 -11q-29 0 -41 7.5z" />
         <glyph glyph-name="a" unicode="a" d="M522 18q-14 -14 -39.5 -23t-51.5 -9q-32 0 -51.5 16.5t-19.5 42.5q0 41 8 62q-28 -55 -74.5 -88t-93.5 -33q-76 0 -123 48t-47 127q0 101 51.5 211.5t129.5 185t152 74.5q71 0 109 -20t38 -69q0 -11 -22 -117t-69 -328q-3 -16 -3 -30q0 -16 7.5 -23.5t26.5 -7.5 q11 0 23.5 6t23.5 17zM314 98q55 61 86 159l8 36q7 32 27 129.5t20 114.5q0 26 -21 35t-72 9q-58 0 -123 -68t-109.5 -167t-44.5 -184q0 -56 32 -90.5t84 -34.5q58 0 113 61z" />
         <glyph glyph-name="aacute" unicode="á" d="M522 18q-14 -14 -39.5 -23t-51.5 -9q-32 0 -51.5 16.5t-19.5 42.5q0 41 8 62q-28 -55 -74.5 -88t-93.5 -33q-76 0 -123 48t-47 127q0 101 51.5 211.5t129.5 185t152 74.5q71 0 109 -20t38 -69q0 -11 -22 -117t-69 -328q-3 -16 -3 -30q0 -16 7.5 -23.5t26.5 -7.5 q11 0 23.5 6t23.5 17zM314 98q55 61 86 159l8 36q7 32 27 129.5t20 114.5q0 26 -21 35t-72 9q-58 0 -123 -68t-109.5 -167t-44.5 -184q0 -56 32 -90.5t84 -34.5q58 0 113 61zM534 807l-162 -122l-30 39l162 121z" />
         <glyph glyph-name="abreve" unicode="ă" d="M522 18q-14 -14 -39.5 -23t-51.5 -9q-32 0 -51.5 16.5t-19.5 42.5q0 41 8 62q-28 -55 -74.5 -88t-93.5 -33q-76 0 -123 48t-47 127q0 101 51.5 211.5t129.5 185t152 74.5q71 0 109 -20t38 -69q0 -11 -22 -117t-69 -328q-3 -16 -3 -30q0 -16 7.5 -23.5t26.5 -7.5 q11 0 23.5 6t23.5 17zM314 98q55 61 86 159l8 36q7 32 27 129.5t20 114.5q0 26 -21 35t-72 9q-58 0 -123 -68t-109.5 -167t-44.5 -184q0 -56 32 -90.5t84 -34.5q58 0 113 61zM302 720q-26 17 -26 56q0 19 6 46h54q-4 -24 -4 -31q0 -22 12.5 -30t44.5 -8q44 0 64.5 15.5 t28.5 53.5h54q-9 -47 -25.5 -72.5t-45.5 -36t-78 -10.5q-59 0 -85 17z" />
         <glyph glyph-name="uni1EAF" unicode="ắ" d="M522 18q-14 -14 -39.5 -23t-51.5 -9q-32 0 -51.5 16.5t-19.5 42.5q0 41 8 62q-28 -55 -74.5 -88t-93.5 -33q-76 0 -123 48t-47 127q0 101 51.5 211.5t129.5 185t152 74.5q71 0 109 -20t38 -69q0 -11 -22 -117t-69 -328q-3 -16 -3 -30q0 -16 7.5 -23.5t26.5 -7.5 q11 0 23.5 6t23.5 17zM314 98q55 61 86 159l8 36q7 32 27 129.5t20 114.5q0 26 -21 35t-72 9q-58 0 -123 -68t-109.5 -167t-44.5 -184q0 -56 32 -90.5t84 -34.5q58 0 113 61zM302 720q-26 17 -26 56q0 19 6 46h54q-4 -24 -4 -31q0 -22 12.5 -30t44.5 -8q44 0 64.5 15.5 t28.5 53.5h54q-9 -47 -25.5 -72.5t-45.5 -36t-78 -10.5q-59 0 -85 17zM572 991l-162 -122l-30 39l162 121z" />
         <glyph glyph-name="uni1EB7" unicode="ặ" d="M522 18q-14 -14 -39.5 -23t-51.5 -9q-32 0 -51.5 16.5t-19.5 42.5q0 41 8 62q-28 -55 -74.5 -88t-93.5 -33q-76 0 -123 48t-47 127q0 101 51.5 211.5t129.5 185t152 74.5q71 0 109 -20t38 -69q0 -11 -22 -117t-69 -328q-3 -16 -3 -30q0 -16 7.5 -23.5t26.5 -7.5 q11 0 23.5 6t23.5 17zM314 98q55 61 86 159l8 36q7 32 27 129.5t20 114.5q0 26 -21 35t-72 9q-58 0 -123 -68t-109.5 -167t-44.5 -184q0 -56 32 -90.5t84 -34.5q58 0 113 61zM151 -213.5q-12 7.5 -12 26.5q0 11 3 24q7 28 21 39t43 11t41 -7.5t12 -26.5q0 -9 -3 -23 q-6 -29 -20 -40t-44 -11q-29 0 -41 7.5zM302 720q-26 17 -26 56q0 19 6 46h54q-4 -24 -4 -31q0 -22 12.5 -30t44.5 -8q44 0 64.5 15.5t28.5 53.5h54q-9 -47 -25.5 -72.5t-45.5 -36t-78 -10.5q-59 0 -85 17z" />
         <glyph glyph-name="uni1EB1" unicode="ằ" d="M522 18q-14 -14 -39.5 -23t-51.5 -9q-32 0 -51.5 16.5t-19.5 42.5q0 41 8 62q-28 -55 -74.5 -88t-93.5 -33q-76 0 -123 48t-47 127q0 101 51.5 211.5t129.5 185t152 74.5q71 0 109 -20t38 -69q0 -11 -22 -117t-69 -328q-3 -16 -3 -30q0 -16 7.5 -23.5t26.5 -7.5 q11 0 23.5 6t23.5 17zM314 98q55 61 86 159l8 36q7 32 27 129.5t20 114.5q0 26 -21 35t-72 9q-58 0 -123 -68t-109.5 -167t-44.5 -184q0 -56 32 -90.5t84 -34.5q58 0 113 61zM302 720q-26 17 -26 56q0 19 6 46h54q-4 -24 -4 -31q0 -22 12.5 -30t44.5 -8q44 0 64.5 15.5 t28.5 53.5h54q-9 -47 -25.5 -72.5t-45.5 -36t-78 -10.5q-59 0 -85 17zM473 908l-43 -39l-115 122l43 38z" />
         <glyph glyph-name="uni1EB3" unicode="ẳ" d="M522 18q-14 -14 -39.5 -23t-51.5 -9q-32 0 -51.5 16.5t-19.5 42.5q0 41 8 62q-28 -55 -74.5 -88t-93.5 -33q-76 0 -123 48t-47 127q0 101 51.5 211.5t129.5 185t152 74.5q71 0 109 -20t38 -69q0 -11 -22 -117t-69 -328q-3 -16 -3 -30q0 -16 7.5 -23.5t26.5 -7.5 q11 0 23.5 6t23.5 17zM314 98q55 61 86 159l8 36q7 32 27 129.5t20 114.5q0 26 -21 35t-72 9q-58 0 -123 -68t-109.5 -167t-44.5 -184q0 -56 32 -90.5t84 -34.5q58 0 113 61zM302 720q-26 17 -26 56q0 19 6 46h54q-4 -24 -4 -31q0 -22 12.5 -30t44.5 -8q44 0 64.5 15.5 t28.5 53.5h54q-9 -47 -25.5 -72.5t-45.5 -36t-78 -10.5q-59 0 -85 17zM389 889q37 9 58 25.5t21 34.5q0 10 -8 16.5t-18 6.5q-23 0 -49.5 -12t-47.5 -28l10 63q18 12 43 19.5t45 7.5q35 0 57 -18t22 -49q0 -12 -2 -19q-6 -33 -38.5 -59t-84.5 -38z" />
         <glyph glyph-name="uni1EB5" unicode="ẵ" d="M522 18q-14 -14 -39.5 -23t-51.5 -9q-32 0 -51.5 16.5t-19.5 42.5q0 41 8 62q-28 -55 -74.5 -88t-93.5 -33q-76 0 -123 48t-47 127q0 101 51.5 211.5t129.5 185t152 74.5q71 0 109 -20t38 -69q0 -11 -22 -117t-69 -328q-3 -16 -3 -30q0 -16 7.5 -23.5t26.5 -7.5 q11 0 23.5 6t23.5 17zM314 98q55 61 86 159l8 36q7 32 27 129.5t20 114.5q0 26 -21 35t-72 9q-58 0 -123 -68t-109.5 -167t-44.5 -184q0 -56 32 -90.5t84 -34.5q58 0 113 61zM302 720q-26 17 -26 56q0 19 6 46h54q-4 -24 -4 -31q0 -22 12.5 -30t44.5 -8q44 0 64.5 15.5 t28.5 53.5h54q-9 -47 -25.5 -72.5t-45.5 -36t-78 -10.5q-59 0 -85 17zM455.5 895.5q-15.5 11.5 -37.5 34.5q-16 17 -24.5 24t-18.5 7q-20 0 -29.5 -13t-14.5 -38h-55q10 47 36.5 74t63.5 27q21 0 37 -11.5t37 -33.5q14 -16 24 -24t20 -8q21 0 30.5 12.5t13.5 35.5h54 q-8 -45 -35.5 -71.5t-63.5 -26.5q-22 0 -37.5 11.5z" />
         <glyph glyph-name="uni01CE" unicode="ǎ" d="M522 18q-14 -14 -39.5 -23t-51.5 -9q-32 0 -51.5 16.5t-19.5 42.5q0 41 8 62q-28 -55 -74.5 -88t-93.5 -33q-76 0 -123 48t-47 127q0 101 51.5 211.5t129.5 185t152 74.5q71 0 109 -20t38 -69q0 -11 -22 -117t-69 -328q-3 -16 -3 -30q0 -16 7.5 -23.5t26.5 -7.5 q11 0 23.5 6t23.5 17zM314 98q55 61 86 159l8 36q7 32 27 129.5t20 114.5q0 26 -21 35t-72 9q-58 0 -123 -68t-109.5 -167t-44.5 -184q0 -56 32 -90.5t84 -34.5q58 0 113 61zM540 809l-158 -120l-110 118l47 33l75 -81l109 83z" />
         <glyph glyph-name="acircumflex" unicode="â" d="M522 18q-14 -14 -39.5 -23t-51.5 -9q-32 0 -51.5 16.5t-19.5 42.5q0 41 8 62q-28 -55 -74.5 -88t-93.5 -33q-76 0 -123 48t-47 127q0 101 51.5 211.5t129.5 185t152 74.5q71 0 109 -20t38 -69q0 -11 -22 -117t-69 -328q-3 -16 -3 -30q0 -16 7.5 -23.5t26.5 -7.5 q11 0 23.5 6t23.5 17zM314 98q55 61 86 159l8 36q7 32 27 129.5t20 114.5q0 26 -21 35t-72 9q-58 0 -123 -68t-109.5 -167t-44.5 -184q0 -56 32 -90.5t84 -34.5q58 0 113 61zM520 715l-49 -33l-72 83l-109 -81l-37 33l158 118z" />
         <glyph glyph-name="uni1EA5" unicode="ấ" d="M522 18q-14 -14 -39.5 -23t-51.5 -9q-32 0 -51.5 16.5t-19.5 42.5q0 41 8 62q-28 -55 -74.5 -88t-93.5 -33q-76 0 -123 48t-47 127q0 101 51.5 211.5t129.5 185t152 74.5q71 0 109 -20t38 -69q0 -11 -22 -117t-69 -328q-3 -16 -3 -30q0 -16 7.5 -23.5t26.5 -7.5 q11 0 23.5 6t23.5 17zM314 98q55 61 86 159l8 36q7 32 27 129.5t20 114.5q0 26 -21 35t-72 9q-58 0 -123 -68t-109.5 -167t-44.5 -184q0 -56 32 -90.5t84 -34.5q58 0 113 61zM520 715l-49 -33l-72 83l-109 -81l-37 33l158 118zM577 1012l-162 -122l-30 39l162 121z" />
         <glyph glyph-name="uni1EAD" unicode="ậ" d="M522 18q-14 -14 -39.5 -23t-51.5 -9q-32 0 -51.5 16.5t-19.5 42.5q0 41 8 62q-28 -55 -74.5 -88t-93.5 -33q-76 0 -123 48t-47 127q0 101 51.5 211.5t129.5 185t152 74.5q71 0 109 -20t38 -69q0 -11 -22 -117t-69 -328q-3 -16 -3 -30q0 -16 7.5 -23.5t26.5 -7.5 q11 0 23.5 6t23.5 17zM314 98q55 61 86 159l8 36q7 32 27 129.5t20 114.5q0 26 -21 35t-72 9q-58 0 -123 -68t-109.5 -167t-44.5 -184q0 -56 32 -90.5t84 -34.5q58 0 113 61zM151 -213.5q-12 7.5 -12 26.5q0 11 3 24q7 28 21 39t43 11t41 -7.5t12 -26.5q0 -9 -3 -23 q-6 -29 -20 -40t-44 -11q-29 0 -41 7.5zM520 715l-49 -33l-72 83l-109 -81l-37 33l158 118z" />
         <glyph glyph-name="uni1EA7" unicode="ầ" d="M522 18q-14 -14 -39.5 -23t-51.5 -9q-32 0 -51.5 16.5t-19.5 42.5q0 41 8 62q-28 -55 -74.5 -88t-93.5 -33q-76 0 -123 48t-47 127q0 101 51.5 211.5t129.5 185t152 74.5q71 0 109 -20t38 -69q0 -11 -22 -117t-69 -328q-3 -16 -3 -30q0 -16 7.5 -23.5t26.5 -7.5 q11 0 23.5 6t23.5 17zM314 98q55 61 86 159l8 36q7 32 27 129.5t20 114.5q0 26 -21 35t-72 9q-58 0 -123 -68t-109.5 -167t-44.5 -184q0 -56 32 -90.5t84 -34.5q58 0 113 61zM520 715l-49 -33l-72 83l-109 -81l-37 33l158 118zM478 929l-43 -39l-115 122l43 38z" />
         <glyph glyph-name="uni1EA9" unicode="ẩ" d="M522 18q-14 -14 -39.5 -23t-51.5 -9q-32 0 -51.5 16.5t-19.5 42.5q0 41 8 62q-28 -55 -74.5 -88t-93.5 -33q-76 0 -123 48t-47 127q0 101 51.5 211.5t129.5 185t152 74.5q71 0 109 -20t38 -69q0 -11 -22 -117t-69 -328q-3 -16 -3 -30q0 -16 7.5 -23.5t26.5 -7.5 q11 0 23.5 6t23.5 17zM314 98q55 61 86 159l8 36q7 32 27 129.5t20 114.5q0 26 -21 35t-72 9q-58 0 -123 -68t-109.5 -167t-44.5 -184q0 -56 32 -90.5t84 -34.5q58 0 113 61zM520 715l-49 -33l-72 83l-109 -81l-37 33l158 118zM394 910q37 9 58 25.5t21 34.5q0 10 -8 16.5 t-18 6.5q-23 0 -49.5 -12t-47.5 -28l10 63q18 12 43 19.5t45 7.5q35 0 57 -18t22 -49q0 -12 -2 -19q-6 -33 -38.5 -59t-84.5 -38z" />
         <glyph glyph-name="uni1EAB" unicode="ẫ" d="M522 18q-14 -14 -39.5 -23t-51.5 -9q-32 0 -51.5 16.5t-19.5 42.5q0 41 8 62q-28 -55 -74.5 -88t-93.5 -33q-76 0 -123 48t-47 127q0 101 51.5 211.5t129.5 185t152 74.5q71 0 109 -20t38 -69q0 -11 -22 -117t-69 -328q-3 -16 -3 -30q0 -16 7.5 -23.5t26.5 -7.5 q11 0 23.5 6t23.5 17zM314 98q55 61 86 159l8 36q7 32 27 129.5t20 114.5q0 26 -21 35t-72 9q-58 0 -123 -68t-109.5 -167t-44.5 -184q0 -56 32 -90.5t84 -34.5q58 0 113 61zM520 715l-49 -33l-72 83l-109 -81l-37 33l158 118zM460.5 916.5q-15.5 11.5 -37.5 34.5 q-16 17 -24.5 24t-18.5 7q-20 0 -29.5 -13t-14.5 -38h-55q10 47 36.5 74t63.5 27q21 0 37 -11.5t37 -33.5q14 -16 24 -24t20 -8q21 0 30.5 12.5t13.5 35.5h54q-8 -45 -35.5 -71.5t-63.5 -26.5q-22 0 -37.5 11.5z" />
         <glyph glyph-name="adieresis" unicode="ä" d="M522 18q-14 -14 -39.5 -23t-51.5 -9q-32 0 -51.5 16.5t-19.5 42.5q0 41 8 62q-28 -55 -74.5 -88t-93.5 -33q-76 0 -123 48t-47 127q0 101 51.5 211.5t129.5 185t152 74.5q71 0 109 -20t38 -69q0 -11 -22 -117t-69 -328q-3 -16 -3 -30q0 -16 7.5 -23.5t26.5 -7.5 q11 0 23.5 6t23.5 17zM314 98q55 61 86 159l8 36q7 32 27 129.5t20 114.5q0 26 -21 35t-72 9q-58 0 -123 -68t-109.5 -167t-44.5 -184q0 -56 32 -90.5t84 -34.5q58 0 113 61zM246.5 737.5q-12.5 8.5 -12.5 27.5q0 10 3 23q5 28 18 38t44 10q28 0 40.5 -8t12.5 -27 q0 -10 -3 -22q-6 -29 -19 -39.5t-44 -10.5q-27 0 -39.5 8.5zM462.5 737.5q-12.5 8.5 -12.5 27.5q0 10 3 23q5 28 18 38t44 10q28 0 40.5 -8t12.5 -27q0 -10 -3 -22q-6 -29 -19 -39.5t-44 -10.5q-27 0 -39.5 8.5z" />
         <glyph glyph-name="uni1EA1" unicode="ạ" d="M522 18q-14 -14 -39.5 -23t-51.5 -9q-32 0 -51.5 16.5t-19.5 42.5q0 41 8 62q-28 -55 -74.5 -88t-93.5 -33q-76 0 -123 48t-47 127q0 101 51.5 211.5t129.5 185t152 74.5q71 0 109 -20t38 -69q0 -11 -22 -117t-69 -328q-3 -16 -3 -30q0 -16 7.5 -23.5t26.5 -7.5 q11 0 23.5 6t23.5 17zM314 98q55 61 86 159l8 36q7 32 27 129.5t20 114.5q0 26 -21 35t-72 9q-58 0 -123 -68t-109.5 -167t-44.5 -184q0 -56 32 -90.5t84 -34.5q58 0 113 61zM151 -213.5q-12 7.5 -12 26.5q0 11 3 24q7 28 21 39t43 11t41 -7.5t12 -26.5q0 -9 -3 -23 q-6 -29 -20 -40t-44 -11q-29 0 -41 7.5z" />
         <glyph glyph-name="agrave" unicode="à" d="M522 18q-14 -14 -39.5 -23t-51.5 -9q-32 0 -51.5 16.5t-19.5 42.5q0 41 8 62q-28 -55 -74.5 -88t-93.5 -33q-76 0 -123 48t-47 127q0 101 51.5 211.5t129.5 185t152 74.5q71 0 109 -20t38 -69q0 -11 -22 -117t-69 -328q-3 -16 -3 -30q0 -16 7.5 -23.5t26.5 -7.5 q11 0 23.5 6t23.5 17zM314 98q55 61 86 159l8 36q7 32 27 129.5t20 114.5q0 26 -21 35t-72 9q-58 0 -123 -68t-109.5 -167t-44.5 -184q0 -56 32 -90.5t84 -34.5q58 0 113 61zM435 724l-43 -39l-115 122l43 38z" />
         <glyph glyph-name="uni1EA3" unicode="ả" d="M522 18q-14 -14 -39.5 -23t-51.5 -9q-32 0 -51.5 16.5t-19.5 42.5q0 41 8 62q-28 -55 -74.5 -88t-93.5 -33q-76 0 -123 48t-47 127q0 101 51.5 211.5t129.5 185t152 74.5q71 0 109 -20t38 -69q0 -11 -22 -117t-69 -328q-3 -16 -3 -30q0 -16 7.5 -23.5t26.5 -7.5 q11 0 23.5 6t23.5 17zM314 98q55 61 86 159l8 36q7 32 27 129.5t20 114.5q0 26 -21 35t-72 9q-58 0 -123 -68t-109.5 -167t-44.5 -184q0 -56 32 -90.5t84 -34.5q58 0 113 61zM351 705q37 9 58 25.5t21 34.5q0 10 -8 16.5t-18 6.5q-23 0 -49.5 -12t-47.5 -28l10 63 q18 12 43 19.5t45 7.5q35 0 57 -18t22 -49q0 -12 -2 -19q-6 -33 -38.5 -59t-84.5 -38z" />
         <glyph glyph-name="amacron" unicode="ā" d="M522 18q-14 -14 -39.5 -23t-51.5 -9q-32 0 -51.5 16.5t-19.5 42.5q0 41 8 62q-28 -55 -74.5 -88t-93.5 -33q-76 0 -123 48t-47 127q0 101 51.5 211.5t129.5 185t152 74.5q71 0 109 -20t38 -69q0 -11 -22 -117t-69 -328q-3 -16 -3 -30q0 -16 7.5 -23.5t26.5 -7.5 q11 0 23.5 6t23.5 17zM314 98q55 61 86 159l8 36q7 32 27 129.5t20 114.5q0 26 -21 35t-72 9q-58 0 -123 -68t-109.5 -167t-44.5 -184q0 -56 32 -90.5t84 -34.5q58 0 113 61zM527 722h-279l11 50h279z" />
         <glyph glyph-name="aogonek" unicode="ą" d="M446 -135.5q17 6.5 29 16.5l26 -44q-15 -14 -39 -22t-49 -8q-50 0 -78.5 19t-28.5 56q0 26 28.5 53.5t75.5 52.5q-23 5 -36.5 20t-13.5 37q0 41 8 62q-28 -55 -74.5 -88t-93.5 -33q-76 0 -123 48t-47 127q0 101 51.5 211.5t129.5 185t152 74.5q71 0 109 -20t38 -69 q0 -11 -22 -117t-69 -328q-3 -16 -3 -30q0 -16 7.5 -23.5t26.5 -7.5q11 0 23.5 6t23.5 17l25 -42q-11 -11 -28 -19l-22 -12q-57 -31 -84.5 -52t-27.5 -42q1 -16 15 -25.5t38 -9.5q16 0 33 6.5zM314 98q55 61 86 159l8 36q7 32 27 129.5t20 114.5q0 26 -21 35t-72 9 q-58 0 -123 -68t-109.5 -167t-44.5 -184q0 -56 32 -90.5t84 -34.5q58 0 113 61z" />
         <glyph glyph-name="aring" unicode="å" d="M522 18q-14 -14 -39.5 -23t-51.5 -9q-32 0 -51.5 16.5t-19.5 42.5q0 41 8 62q-28 -55 -74.5 -88t-93.5 -33q-76 0 -123 48t-47 127q0 101 51.5 211.5t129.5 185t152 74.5q71 0 109 -20t38 -69q0 -11 -22 -117t-69 -328q-3 -16 -3 -30q0 -16 7.5 -23.5t26.5 -7.5 q11 0 23.5 6t23.5 17zM314 98q55 61 86 159l8 36q7 32 27 129.5t20 114.5q0 26 -21 35t-72 9q-58 0 -123 -68t-109.5 -167t-44.5 -184q0 -56 32 -90.5t84 -34.5q58 0 113 61zM301 712q-26 17 -26 56q0 21 6 48q13 65 44.5 89t101.5 24q59 0 86 -17t27 -58q0 -20 -6 -46 q-9 -44 -25.5 -68.5t-45 -34.5t-77.5 -10q-59 0 -85 17zM452.5 761q20.5 16 28.5 55q3 15 3 26q0 21 -13 29t-46 8q-43 0 -63 -15.5t-28 -55.5q-3 -15 -3 -26q0 -21 13 -29t44 -8q44 0 64.5 16z" />
         <glyph glyph-name="atilde" unicode="ã" d="M522 18q-14 -14 -39.5 -23t-51.5 -9q-32 0 -51.5 16.5t-19.5 42.5q0 41 8 62q-28 -55 -74.5 -88t-93.5 -33q-76 0 -123 48t-47 127q0 101 51.5 211.5t129.5 185t152 74.5q71 0 109 -20t38 -69q0 -11 -22 -117t-69 -328q-3 -16 -3 -30q0 -16 7.5 -23.5t26.5 -7.5 q11 0 23.5 6t23.5 17zM314 98q55 61 86 159l8 36q7 32 27 129.5t20 114.5q0 26 -21 35t-72 9q-58 0 -123 -68t-109.5 -167t-44.5 -184q0 -56 32 -90.5t84 -34.5q58 0 113 61zM417.5 711.5q-15.5 11.5 -37.5 34.5q-16 17 -24.5 24t-18.5 7q-20 0 -29.5 -13t-14.5 -38h-55 q10 47 36.5 74t63.5 27q21 0 37 -11.5t37 -33.5q14 -16 24 -24t20 -8q21 0 30.5 12.5t13.5 35.5h54q-8 -45 -35.5 -71.5t-63.5 -26.5q-22 0 -37.5 11.5z" />
         <glyph glyph-name="ae" unicode="æ" d="M9.5 21.5q-31.5 35.5 -31.5 95.5q0 27 6 55q19 84 77 133t137 49h84l14 67q7 32 7 64q0 45 -16 70.5t-45 25.5q-32 0 -67.5 -28t-59.5 -74l-53 17q32 62 81.5 99t100.5 37q40 0 69 -31.5t36 -82.5q29 51 71.5 82.5t82.5 31.5q48 0 74 -46t26 -128q0 -68 -18 -154h-260 q-20 -100 -20 -155t19.5 -83.5t63.5 -28.5q28 0 62.5 24.5t46.5 59.5l40 -34q-21 -43 -67.5 -72t-84.5 -29q-52 0 -84.5 34.5t-37.5 93.5q-24 -55 -73.5 -91.5t-93.5 -36.5q-55 0 -86.5 35.5zM542 354q10 57 10 108q0 56 -13 87.5t-38 31.5q-52 0 -97.5 -63t-67.5 -164h206z M193 87q43 50 60 132l18 87h-79q-57 0 -99 -38.5t-55 -103.5q-5 -25 -5 -43q0 -39 17 -61.5t48 -22.5q52 0 95 50z" />
         <glyph glyph-name="b" unicode="b" d="M581 390q-40 0 -57 -1q-28 -119 -74.5 -210.5t-103 -142t-115.5 -50.5q-87 0 -125 42t-38 124q0 50 12 111l115 537h54l-114 -537q-13 -70 -13 -113q0 -56 25.5 -84.5t85.5 -28.5q44 0 88.5 44.5t83.5 125.5t65 187q-48 1 -75.5 24t-27.5 66q0 36 23.5 59.5t64.5 23.5 q42 0 61.5 -22.5t19.5 -70.5q0 -10 -2 -34h56zM429 453.5q18 -11.5 50 -11.5q4 26 4 38q0 47 -35 47q-18 0 -27.5 -11.5t-9.5 -27.5q0 -23 18 -34.5z" />
         <glyph glyph-name="c" unicode="c" d="M471 90q-36 -41 -68.5 -63t-72.5 -31.5t-100 -9.5q-91 0 -133 36.5t-42 123.5q0 64 23 167q20 92 68 165t110.5 113.5t125.5 40.5q75 0 113 -23t67 -84l-50 -24q-22 46 -50 63t-82 17q-50 0 -101 -35t-91.5 -98t-57.5 -143q-19 -88 -19 -145q0 -67 28.5 -95t92.5 -28 q70 0 110 17.5t87 67.5z" />
         <glyph glyph-name="cacute" unicode="ć" d="M471 90q-36 -41 -68.5 -63t-72.5 -31.5t-100 -9.5q-91 0 -133 36.5t-42 123.5q0 64 23 167q20 92 68 165t110.5 113.5t125.5 40.5q75 0 113 -23t67 -84l-50 -24q-22 46 -50 63t-82 17q-50 0 -101 -35t-91.5 -98t-57.5 -143q-19 -88 -19 -145q0 -67 28.5 -95t92.5 -28 q70 0 110 17.5t87 67.5zM534 807l-162 -122l-30 39l162 121z" />
         <glyph glyph-name="ccaron" unicode="č" d="M471 90q-36 -41 -68.5 -63t-72.5 -31.5t-100 -9.5q-91 0 -133 36.5t-42 123.5q0 64 23 167q20 92 68 165t110.5 113.5t125.5 40.5q75 0 113 -23t67 -84l-50 -24q-22 46 -50 63t-82 17q-50 0 -101 -35t-91.5 -98t-57.5 -143q-19 -88 -19 -145q0 -67 28.5 -95t92.5 -28 q70 0 110 17.5t87 67.5zM540 809l-158 -120l-110 118l47 33l75 -81l109 83z" />
         <glyph glyph-name="ccedilla" unicode="ç" d="M495 609q38 -23 67 -84l-50 -24q-22 46 -50 63t-82 17q-50 0 -101 -35t-91.5 -98t-57.5 -143q-19 -88 -19 -145q0 -67 28.5 -95t92.5 -28q70 0 110 17.5t87 67.5l42 -32q-50 -56 -96 -78.5t-121 -25.5l-7 -27q28 -7 44 -24t16 -40q0 -9 -1 -14q-7 -37 -39.5 -59.5 t-79.5 -22.5q-27 0 -50 9t-35 23l29 42q10 -10 26 -16.5t31 -6.5q27 0 46 12t19 31q0 11 -17.5 17.5t-48.5 6.5l14 70q-76 5 -111 42.5t-35 117.5q0 63 23 166q20 92 68 165t110.5 113.5t125.5 40.5q75 0 113 -23z" />
         <glyph glyph-name="ccircumflex" unicode="ĉ" d="M471 90q-36 -41 -68.5 -63t-72.5 -31.5t-100 -9.5q-91 0 -133 36.5t-42 123.5q0 64 23 167q20 92 68 165t110.5 113.5t125.5 40.5q75 0 113 -23t67 -84l-50 -24q-22 46 -50 63t-82 17q-50 0 -101 -35t-91.5 -98t-57.5 -143q-19 -88 -19 -145q0 -67 28.5 -95t92.5 -28 q70 0 110 17.5t87 67.5zM520 715l-49 -33l-72 83l-109 -81l-37 33l158 118z" />
         <glyph glyph-name="cdotaccent" unicode="ċ" d="M471 90q-36 -41 -68.5 -63t-72.5 -31.5t-100 -9.5q-91 0 -133 36.5t-42 123.5q0 64 23 167q20 92 68 165t110.5 113.5t125.5 40.5q75 0 113 -23t67 -84l-50 -24q-22 46 -50 63t-82 17q-50 0 -101 -35t-91.5 -98t-57.5 -143q-19 -88 -19 -145q0 -67 28.5 -95t92.5 -28 q70 0 110 17.5t87 67.5zM356 751.5q-12 7.5 -12 26.5q0 11 3 24q7 28 21 39t43 11t41 -7.5t12 -26.5q0 -9 -3 -23q-6 -29 -20 -40t-44 -11q-29 0 -41 7.5z" />
         <glyph glyph-name="d" unicode="d" d="M502.5 43q12.5 6 23.5 17l25 -42q-14 -14 -39.5 -23t-51.5 -9q-71 0 -71 67q-50 -67 -198 -67q-81 0 -117.5 35t-36.5 118q0 69 22 173q20 96 62.5 168.5t103.5 112t134 39.5q49 0 84 -24t44 -63l56 255h54l-149 -703q-3 -15 -3 -28q0 -16 7.5 -24t26.5 -8q11 0 23.5 6z M322.5 61q56.5 24 75.5 64l64 292q3 20 3 38q0 58 -29 92t-79 34q-88 0 -153.5 -75t-92.5 -202q-20 -98 -20 -152q0 -62 24.5 -88.5t77.5 -26.5q73 0 129.5 24z" />
         <glyph glyph-name="eth" unicode="ð" d="M592 757l-87 -43q47 -62 47 -183q0 -109 -38 -285h-1q-65 -260 -307 -260q-85 0 -123 32.5t-38 109.5q0 53 16 126q25 118 104.5 188.5t193.5 70.5q93 0 135 -36q1 13 1 36q0 118 -48 172l-186 -92l-19 44l163 81q-56 31 -165 31l7 51q151 0 222 -51l104 52zM370 93.5 q64 55.5 90 157.5l12 57l4 22q1 10 1 27q0 57 -29.5 81t-90.5 24q-93 0 -157.5 -58t-86.5 -158q-13 -59 -13 -103q0 -57 26 -81t82 -24q98 0 162 55.5z" />
         <glyph glyph-name="dcaron" unicode="ď" d="M502.5 43q12.5 6 23.5 17l25 -42q-14 -14 -39.5 -23t-51.5 -9q-71 0 -71 67q-50 -67 -198 -67q-81 0 -117.5 35t-36.5 118q0 69 22 173q20 96 62.5 168.5t103.5 112t134 39.5q49 0 84 -24t44 -63l56 255h54l-149 -703q-3 -15 -3 -28q0 -16 7.5 -24t26.5 -8q11 0 23.5 6z M641 549h-44l45 250h60zM322.5 61q56.5 24 75.5 64l64 292q3 20 3 38q0 58 -29 92t-79 34q-88 0 -153.5 -75t-92.5 -202q-20 -98 -20 -152q0 -62 24.5 -88.5t77.5 -26.5q73 0 129.5 24z" />
         <glyph glyph-name="dcroat" unicode="đ" d="M572 680l-124 -583q-3 -15 -3 -28q0 -16 7.5 -24t26.5 -8q11 0 23.5 6t23.5 17l25 -42q-14 -14 -39.5 -23t-51.5 -9q-71 0 -71 67q-50 -67 -198 -67q-81 0 -117.5 35t-36.5 118q0 69 22 173q20 96 62.5 168.5t103.5 112t134 39.5q49 0 84 -24t44 -63l30 135h-111l11 50 h111l15 70h54l-15 -70h80l-11 -50h-79zM462 417q3 20 3 38q0 58 -29 92t-79 34q-88 0 -153.5 -75t-92.5 -202q-20 -98 -20 -152q0 -62 24.5 -88.5t77.5 -26.5q73 0 129.5 24t75.5 64z" />
         <glyph glyph-name="e" unicode="e" d="M368 64.5q57 24.5 100 64.5l28 -45q-49 -44 -115.5 -71t-126.5 -27q-46 0 -84 22.5t-60 63.5t-22 93v17q-35 -13 -48 -26l-25 45q19 20 76 38q11 115 53 204.5t108.5 139t148.5 49.5q63 0 98.5 -32t35.5 -98q0 -87 -55 -144.5t-128 -88t-179 -61.5l-29 -9q-1 -12 -1 -37 q0 -53 34 -87.5t84 -34.5t107 24.5zM283.5 540q-52.5 -41 -87.5 -114.5t-47 -168.5q104 29 168 53.5t113.5 71.5t49.5 119q0 39 -23 59.5t-58 20.5q-63 0 -115.5 -41z" />
         <glyph glyph-name="eacute" unicode="é" d="M368 64.5q57 24.5 100 64.5l28 -45q-49 -44 -115.5 -71t-126.5 -27q-46 0 -84 22.5t-60 63.5t-22 93v17q-35 -13 -48 -26l-25 45q19 20 76 38q11 115 53 204.5t108.5 139t148.5 49.5q63 0 98.5 -32t35.5 -98q0 -87 -55 -144.5t-128 -88t-179 -61.5l-29 -9q-1 -12 -1 -37 q0 -53 34 -87.5t84 -34.5t107 24.5zM283.5 540q-52.5 -41 -87.5 -114.5t-47 -168.5q104 29 168 53.5t113.5 71.5t49.5 119q0 39 -23 59.5t-58 20.5q-63 0 -115.5 -41zM534 807l-162 -122l-30 39l162 121z" />
         <glyph glyph-name="ecaron" unicode="ě" d="M368 64.5q57 24.5 100 64.5l28 -45q-49 -44 -115.5 -71t-126.5 -27q-46 0 -84 22.5t-60 63.5t-22 93v17q-35 -13 -48 -26l-25 45q19 20 76 38q11 115 53 204.5t108.5 139t148.5 49.5q63 0 98.5 -32t35.5 -98q0 -87 -55 -144.5t-128 -88t-179 -61.5l-29 -9q-1 -12 -1 -37 q0 -53 34 -87.5t84 -34.5t107 24.5zM283.5 540q-52.5 -41 -87.5 -114.5t-47 -168.5q104 29 168 53.5t113.5 71.5t49.5 119q0 39 -23 59.5t-58 20.5q-63 0 -115.5 -41zM540 809l-158 -120l-110 118l47 33l75 -81l109 83z" />
         <glyph glyph-name="ecircumflex" unicode="ê" d="M368 64.5q57 24.5 100 64.5l28 -45q-49 -44 -115.5 -71t-126.5 -27q-46 0 -84 22.5t-60 63.5t-22 93v17q-35 -13 -48 -26l-25 45q19 20 76 38q11 115 53 204.5t108.5 139t148.5 49.5q63 0 98.5 -32t35.5 -98q0 -87 -55 -144.5t-128 -88t-179 -61.5l-29 -9q-1 -12 -1 -37 q0 -53 34 -87.5t84 -34.5t107 24.5zM283.5 540q-52.5 -41 -87.5 -114.5t-47 -168.5q104 29 168 53.5t113.5 71.5t49.5 119q0 39 -23 59.5t-58 20.5q-63 0 -115.5 -41zM520 715l-49 -33l-72 83l-109 -81l-37 33l158 118z" />
         <glyph glyph-name="uni1EBF" unicode="ế" d="M368 64.5q57 24.5 100 64.5l28 -45q-49 -44 -115.5 -71t-126.5 -27q-46 0 -84 22.5t-60 63.5t-22 93v17q-35 -13 -48 -26l-25 45q19 20 76 38q11 115 53 204.5t108.5 139t148.5 49.5q63 0 98.5 -32t35.5 -98q0 -87 -55 -144.5t-128 -88t-179 -61.5l-29 -9q-1 -12 -1 -37 q0 -53 34 -87.5t84 -34.5t107 24.5zM283.5 540q-52.5 -41 -87.5 -114.5t-47 -168.5q104 29 168 53.5t113.5 71.5t49.5 119q0 39 -23 59.5t-58 20.5q-63 0 -115.5 -41zM520 715l-49 -33l-72 83l-109 -81l-37 33l158 118zM577 1012l-162 -122l-30 39l162 121z" />
         <glyph glyph-name="uni1EC7" unicode="ệ" d="M368 64.5q57 24.5 100 64.5l28 -45q-49 -44 -115.5 -71t-126.5 -27q-46 0 -84 22.5t-60 63.5t-22 93v17q-35 -13 -48 -26l-25 45q19 20 76 38q11 115 53 204.5t108.5 139t148.5 49.5q63 0 98.5 -32t35.5 -98q0 -87 -55 -144.5t-128 -88t-179 -61.5l-29 -9q-1 -12 -1 -37 q0 -53 34 -87.5t84 -34.5t107 24.5zM283.5 540q-52.5 -41 -87.5 -114.5t-47 -168.5q104 29 168 53.5t113.5 71.5t49.5 119q0 39 -23 59.5t-58 20.5q-63 0 -115.5 -41zM151 -213.5q-12 7.5 -12 26.5q0 11 3 24q7 28 21 39t43 11t41 -7.5t12 -26.5q0 -9 -3 -23q-6 -29 -20 -40 t-44 -11q-29 0 -41 7.5zM520 715l-49 -33l-72 83l-109 -81l-37 33l158 118z" />
         <glyph glyph-name="uni1EC1" unicode="ề" d="M368 64.5q57 24.5 100 64.5l28 -45q-49 -44 -115.5 -71t-126.5 -27q-46 0 -84 22.5t-60 63.5t-22 93v17q-35 -13 -48 -26l-25 45q19 20 76 38q11 115 53 204.5t108.5 139t148.5 49.5q63 0 98.5 -32t35.5 -98q0 -87 -55 -144.5t-128 -88t-179 -61.5l-29 -9q-1 -12 -1 -37 q0 -53 34 -87.5t84 -34.5t107 24.5zM283.5 540q-52.5 -41 -87.5 -114.5t-47 -168.5q104 29 168 53.5t113.5 71.5t49.5 119q0 39 -23 59.5t-58 20.5q-63 0 -115.5 -41zM520 715l-49 -33l-72 83l-109 -81l-37 33l158 118zM478 929l-43 -39l-115 122l43 38z" />
         <glyph glyph-name="uni1EC3" unicode="ể" d="M368 64.5q57 24.5 100 64.5l28 -45q-49 -44 -115.5 -71t-126.5 -27q-46 0 -84 22.5t-60 63.5t-22 93v17q-35 -13 -48 -26l-25 45q19 20 76 38q11 115 53 204.5t108.5 139t148.5 49.5q63 0 98.5 -32t35.5 -98q0 -87 -55 -144.5t-128 -88t-179 -61.5l-29 -9q-1 -12 -1 -37 q0 -53 34 -87.5t84 -34.5t107 24.5zM283.5 540q-52.5 -41 -87.5 -114.5t-47 -168.5q104 29 168 53.5t113.5 71.5t49.5 119q0 39 -23 59.5t-58 20.5q-63 0 -115.5 -41zM520 715l-49 -33l-72 83l-109 -81l-37 33l158 118zM394 910q37 9 58 25.5t21 34.5q0 10 -8 16.5t-18 6.5 q-23 0 -49.5 -12t-47.5 -28l10 63q18 12 43 19.5t45 7.5q35 0 57 -18t22 -49q0 -12 -2 -19q-6 -33 -38.5 -59t-84.5 -38z" />
         <glyph glyph-name="uni1EC5" unicode="ễ" d="M368 64.5q57 24.5 100 64.5l28 -45q-49 -44 -115.5 -71t-126.5 -27q-46 0 -84 22.5t-60 63.5t-22 93v17q-35 -13 -48 -26l-25 45q19 20 76 38q11 115 53 204.5t108.5 139t148.5 49.5q63 0 98.5 -32t35.5 -98q0 -87 -55 -144.5t-128 -88t-179 -61.5l-29 -9q-1 -12 -1 -37 q0 -53 34 -87.5t84 -34.5t107 24.5zM283.5 540q-52.5 -41 -87.5 -114.5t-47 -168.5q104 29 168 53.5t113.5 71.5t49.5 119q0 39 -23 59.5t-58 20.5q-63 0 -115.5 -41zM520 715l-49 -33l-72 83l-109 -81l-37 33l158 118zM460.5 916.5q-15.5 11.5 -37.5 34.5q-16 17 -24.5 24 t-18.5 7q-20 0 -29.5 -13t-14.5 -38h-55q10 47 36.5 74t63.5 27q21 0 37 -11.5t37 -33.5q14 -16 24 -24t20 -8q21 0 30.5 12.5t13.5 35.5h54q-8 -45 -35.5 -71.5t-63.5 -26.5q-22 0 -37.5 11.5z" />
         <glyph glyph-name="edieresis" unicode="ë" d="M368 64.5q57 24.5 100 64.5l28 -45q-49 -44 -115.5 -71t-126.5 -27q-46 0 -84 22.5t-60 63.5t-22 93v17q-35 -13 -48 -26l-25 45q19 20 76 38q11 115 53 204.5t108.5 139t148.5 49.5q63 0 98.5 -32t35.5 -98q0 -87 -55 -144.5t-128 -88t-179 -61.5l-29 -9q-1 -12 -1 -37 q0 -53 34 -87.5t84 -34.5t107 24.5zM283.5 540q-52.5 -41 -87.5 -114.5t-47 -168.5q104 29 168 53.5t113.5 71.5t49.5 119q0 39 -23 59.5t-58 20.5q-63 0 -115.5 -41zM246.5 737.5q-12.5 8.5 -12.5 27.5q0 10 3 23q5 28 18 38t44 10q28 0 40.5 -8t12.5 -27q0 -10 -3 -22 q-6 -29 -19 -39.5t-44 -10.5q-27 0 -39.5 8.5zM462.5 737.5q-12.5 8.5 -12.5 27.5q0 10 3 23q5 28 18 38t44 10q28 0 40.5 -8t12.5 -27q0 -10 -3 -22q-6 -29 -19 -39.5t-44 -10.5q-27 0 -39.5 8.5z" />
         <glyph glyph-name="edotaccent" unicode="ė" d="M368 64.5q57 24.5 100 64.5l28 -45q-49 -44 -115.5 -71t-126.5 -27q-46 0 -84 22.5t-60 63.5t-22 93v17q-35 -13 -48 -26l-25 45q19 20 76 38q11 115 53 204.5t108.5 139t148.5 49.5q63 0 98.5 -32t35.5 -98q0 -87 -55 -144.5t-128 -88t-179 -61.5l-29 -9q-1 -12 -1 -37 q0 -53 34 -87.5t84 -34.5t107 24.5zM283.5 540q-52.5 -41 -87.5 -114.5t-47 -168.5q104 29 168 53.5t113.5 71.5t49.5 119q0 39 -23 59.5t-58 20.5q-63 0 -115.5 -41zM356 751.5q-12 7.5 -12 26.5q0 11 3 24q7 28 21 39t43 11t41 -7.5t12 -26.5q0 -9 -3 -23q-6 -29 -20 -40 t-44 -11q-29 0 -41 7.5z" />
         <glyph glyph-name="uni1EB9" unicode="ẹ" d="M368 64.5q57 24.5 100 64.5l28 -45q-49 -44 -115.5 -71t-126.5 -27q-46 0 -84 22.5t-60 63.5t-22 93v17q-35 -13 -48 -26l-25 45q19 20 76 38q11 115 53 204.5t108.5 139t148.5 49.5q63 0 98.5 -32t35.5 -98q0 -87 -55 -144.5t-128 -88t-179 -61.5l-29 -9q-1 -12 -1 -37 q0 -53 34 -87.5t84 -34.5t107 24.5zM283.5 540q-52.5 -41 -87.5 -114.5t-47 -168.5q104 29 168 53.5t113.5 71.5t49.5 119q0 39 -23 59.5t-58 20.5q-63 0 -115.5 -41zM151 -213.5q-12 7.5 -12 26.5q0 11 3 24q7 28 21 39t43 11t41 -7.5t12 -26.5q0 -9 -3 -23q-6 -29 -20 -40 t-44 -11q-29 0 -41 7.5z" />
         <glyph glyph-name="egrave" unicode="è" d="M368 64.5q57 24.5 100 64.5l28 -45q-49 -44 -115.5 -71t-126.5 -27q-46 0 -84 22.5t-60 63.5t-22 93v17q-35 -13 -48 -26l-25 45q19 20 76 38q11 115 53 204.5t108.5 139t148.5 49.5q63 0 98.5 -32t35.5 -98q0 -87 -55 -144.5t-128 -88t-179 -61.5l-29 -9q-1 -12 -1 -37 q0 -53 34 -87.5t84 -34.5t107 24.5zM283.5 540q-52.5 -41 -87.5 -114.5t-47 -168.5q104 29 168 53.5t113.5 71.5t49.5 119q0 39 -23 59.5t-58 20.5q-63 0 -115.5 -41zM435 724l-43 -39l-115 122l43 38z" />
         <glyph glyph-name="uni1EBB" unicode="ẻ" d="M368 64.5q57 24.5 100 64.5l28 -45q-49 -44 -115.5 -71t-126.5 -27q-46 0 -84 22.5t-60 63.5t-22 93v17q-35 -13 -48 -26l-25 45q19 20 76 38q11 115 53 204.5t108.5 139t148.5 49.5q63 0 98.5 -32t35.5 -98q0 -87 -55 -144.5t-128 -88t-179 -61.5l-29 -9q-1 -12 -1 -37 q0 -53 34 -87.5t84 -34.5t107 24.5zM283.5 540q-52.5 -41 -87.5 -114.5t-47 -168.5q104 29 168 53.5t113.5 71.5t49.5 119q0 39 -23 59.5t-58 20.5q-63 0 -115.5 -41zM351 705q37 9 58 25.5t21 34.5q0 10 -8 16.5t-18 6.5q-23 0 -49.5 -12t-47.5 -28l10 63q18 12 43 19.5 t45 7.5q35 0 57 -18t22 -49q0 -12 -2 -19q-6 -33 -38.5 -59t-84.5 -38z" />
         <glyph glyph-name="emacron" unicode="ē" d="M368 64.5q57 24.5 100 64.5l28 -45q-49 -44 -115.5 -71t-126.5 -27q-46 0 -84 22.5t-60 63.5t-22 93v17q-35 -13 -48 -26l-25 45q19 20 76 38q11 115 53 204.5t108.5 139t148.5 49.5q63 0 98.5 -32t35.5 -98q0 -87 -55 -144.5t-128 -88t-179 -61.5l-29 -9q-1 -12 -1 -37 q0 -53 34 -87.5t84 -34.5t107 24.5zM283.5 540q-52.5 -41 -87.5 -114.5t-47 -168.5q104 29 168 53.5t113.5 71.5t49.5 119q0 39 -23 59.5t-58 20.5q-63 0 -115.5 -41zM527 722h-279l11 50h279z" />
         <glyph glyph-name="eogonek" unicode="ę" d="M361 1q-57 -32 -84 -52.5t-27 -41.5q1 -16 15 -25.5t38 -9.5q16 0 33 6.5t29 16.5l26 -44q-15 -14 -39 -22t-49 -8q-50 0 -78.5 19t-28.5 56q0 43 76 91q-6 -1 -18 -1q-46 0 -84 22.5t-60 63.5t-22 93v17q-35 -13 -48 -26l-25 45q19 20 76 38q11 115 53 204.5t108.5 139 t148.5 49.5q63 0 98.5 -32t35.5 -98q0 -87 -55 -144.5t-128 -88t-179 -61.5l-29 -9q-1 -12 -1 -37q0 -53 34 -87.5t84 -34.5t107 24.5t100 64.5l28 -45q-43 -40 -107 -68zM283.5 540q-52.5 -41 -87.5 -114.5t-47 -168.5q104 29 168 53.5t113.5 71.5t49.5 119q0 39 -23 59.5 t-58 20.5q-63 0 -115.5 -41z" />
         <glyph glyph-name="uni1EBD" unicode="ẽ" d="M368 64.5q57 24.5 100 64.5l28 -45q-49 -44 -115.5 -71t-126.5 -27q-46 0 -84 22.5t-60 63.5t-22 93v17q-35 -13 -48 -26l-25 45q19 20 76 38q11 115 53 204.5t108.5 139t148.5 49.5q63 0 98.5 -32t35.5 -98q0 -87 -55 -144.5t-128 -88t-179 -61.5l-29 -9q-1 -12 -1 -37 q0 -53 34 -87.5t84 -34.5t107 24.5zM283.5 540q-52.5 -41 -87.5 -114.5t-47 -168.5q104 29 168 53.5t113.5 71.5t49.5 119q0 39 -23 59.5t-58 20.5q-63 0 -115.5 -41zM417.5 711.5q-15.5 11.5 -37.5 34.5q-16 17 -24.5 24t-18.5 7q-20 0 -29.5 -13t-14.5 -38h-55 q10 47 36.5 74t63.5 27q21 0 37 -11.5t37 -33.5q14 -16 24 -24t20 -8q21 0 30.5 12.5t13.5 35.5h54q-8 -45 -35.5 -71.5t-63.5 -26.5q-22 0 -37.5 11.5z" />
         <glyph glyph-name="f" unicode="f" horiz-adv-x="602" d="M116.5 -177q-26.5 29 -26.5 76q0 66 20 178.5t54 231.5q-52 31 -77 52.5t-25 43.5q0 18 20 28.5t58 10.5h67q39 127 72.5 205t76 121.5t98.5 43.5q72 0 108.5 -35.5t46.5 -103.5l-51 -19q-7 55 -27.5 81t-69.5 26q-44 0 -76 -36.5t-57.5 -99.5t-65.5 -183h251l-11 -50 h-257l-19 -59q149 -114 149 -255q0 -85 -23 -150t-66 -100.5t-99 -35.5q-44 0 -70.5 29zM192 396q-8 0 -36 4q-26 4 -37 4q-10 0 -12 -3q-5 -6 10.5 -15.5t34.5 -18.5t26 -12zM257 -126q30 29 47 82t17 123q0 59 -29 107t-84 93q-28 -105 -45.5 -209t-17.5 -170 q0 -25 11.5 -40t30.5 -15q40 0 70 29z" />
         <glyph glyph-name="g" unicode="g" d="M36 -186q-30 20 -30 52q0 55 99 87t270 32q20 33 37 120q-14 -25 -69 -42t-108 -17q-77 0 -123.5 48t-46.5 127q0 98 53.5 193.5t134.5 156.5t156 61q71 0 109 -20t38 -69q0 -23 -26.5 -152t-56.5 -255.5t-42 -151.5q30 1 46.5 2.5t39.5 8.5l-12 -50q-32 -10 -98 -10 q-38 -64 -118.5 -102.5t-173.5 -38.5q-49 0 -79 20zM339.5 105.5q38.5 8.5 62.5 35t35 78.5l22 104q18 85 30 143.5t12 70.5q0 21 -9 30.5t-26.5 11.5t-57.5 2q-59 0 -127.5 -54.5t-115 -139t-46.5 -167.5q1 -56 33 -89.5t84 -33.5q65 0 103.5 8.5zM247 -130.5 q59 24.5 97 65.5q-127 -5 -205 -23.5t-78 -44.5q0 -10 19 -16t48 -6q60 0 119 24.5z" />
         <glyph glyph-name="gbreve" unicode="ğ" d="M36 -186q-30 20 -30 52q0 55 99 87t270 32q20 33 37 120q-14 -25 -69 -42t-108 -17q-77 0 -123.5 48t-46.5 127q0 98 53.5 193.5t134.5 156.5t156 61q71 0 109 -20t38 -69q0 -23 -26.5 -152t-56.5 -255.5t-42 -151.5q30 1 46.5 2.5t39.5 8.5l-12 -50q-32 -10 -98 -10 q-38 -64 -118.5 -102.5t-173.5 -38.5q-49 0 -79 20zM339.5 105.5q38.5 8.5 62.5 35t35 78.5l22 104q18 85 30 143.5t12 70.5q0 21 -9 30.5t-26.5 11.5t-57.5 2q-59 0 -127.5 -54.5t-115 -139t-46.5 -167.5q1 -56 33 -89.5t84 -33.5q65 0 103.5 8.5zM247 -130.5 q59 24.5 97 65.5q-127 -5 -205 -23.5t-78 -44.5q0 -10 19 -16t48 -6q60 0 119 24.5zM312 720q-26 17 -26 56q0 19 6 46h54q-4 -24 -4 -31q0 -22 12.5 -30t44.5 -8q44 0 64.5 15.5t28.5 53.5h54q-9 -47 -25.5 -72.5t-45.5 -36t-78 -10.5q-59 0 -85 17z" />
         <glyph glyph-name="gcircumflex" unicode="ĝ" d="M36 -186q-30 20 -30 52q0 55 99 87t270 32q20 33 37 120q-14 -25 -69 -42t-108 -17q-77 0 -123.5 48t-46.5 127q0 98 53.5 193.5t134.5 156.5t156 61q71 0 109 -20t38 -69q0 -23 -26.5 -152t-56.5 -255.5t-42 -151.5q30 1 46.5 2.5t39.5 8.5l-12 -50q-32 -10 -98 -10 q-38 -64 -118.5 -102.5t-173.5 -38.5q-49 0 -79 20zM339.5 105.5q38.5 8.5 62.5 35t35 78.5l22 104q18 85 30 143.5t12 70.5q0 21 -9 30.5t-26.5 11.5t-57.5 2q-59 0 -127.5 -54.5t-115 -139t-46.5 -167.5q1 -56 33 -89.5t84 -33.5q65 0 103.5 8.5zM247 -130.5 q59 24.5 97 65.5q-127 -5 -205 -23.5t-78 -44.5q0 -10 19 -16t48 -6q60 0 119 24.5zM530 715l-49 -33l-72 83l-109 -81l-37 33l158 118z" />
         <glyph glyph-name="uni0123" unicode="ģ" d="M36 -186q-30 20 -30 52q0 55 99 87t270 32q20 33 37 120q-14 -25 -69 -42t-108 -17q-77 0 -123.5 48t-46.5 127q0 98 53.5 193.5t134.5 156.5t156 61q71 0 109 -20t38 -69q0 -23 -26.5 -152t-56.5 -255.5t-42 -151.5q30 1 46.5 2.5t39.5 8.5l-12 -50q-32 -10 -98 -10 q-38 -64 -118.5 -102.5t-173.5 -38.5q-49 0 -79 20zM339.5 105.5q38.5 8.5 62.5 35t35 78.5l22 104q18 85 30 143.5t12 70.5q0 21 -9 30.5t-26.5 11.5t-57.5 2q-59 0 -127.5 -54.5t-115 -139t-46.5 -167.5q1 -56 33 -89.5t84 -33.5q65 0 103.5 8.5zM247 -130.5 q59 24.5 97 65.5q-127 -5 -205 -23.5t-78 -44.5q0 -10 19 -16t48 -6q60 0 119 24.5zM349.5 665.5q-9.5 6.5 -9.5 21.5q0 4 2 18q6 26 36.5 71t68.5 88l40 -2l-77 -122q21 -3 21 -26q0 -4 -2 -18q-5 -22 -14.5 -29.5t-33.5 -7.5q-22 0 -31.5 6.5z" />
         <glyph glyph-name="gdotaccent" unicode="ġ" d="M36 -186q-30 20 -30 52q0 55 99 87t270 32q20 33 37 120q-14 -25 -69 -42t-108 -17q-77 0 -123.5 48t-46.5 127q0 98 53.5 193.5t134.5 156.5t156 61q71 0 109 -20t38 -69q0 -23 -26.5 -152t-56.5 -255.5t-42 -151.5q30 1 46.5 2.5t39.5 8.5l-12 -50q-32 -10 -98 -10 q-38 -64 -118.5 -102.5t-173.5 -38.5q-49 0 -79 20zM339.5 105.5q38.5 8.5 62.5 35t35 78.5l22 104q18 85 30 143.5t12 70.5q0 21 -9 30.5t-26.5 11.5t-57.5 2q-59 0 -127.5 -54.5t-115 -139t-46.5 -167.5q1 -56 33 -89.5t84 -33.5q65 0 103.5 8.5zM247 -130.5 q59 24.5 97 65.5q-127 -5 -205 -23.5t-78 -44.5q0 -10 19 -16t48 -6q60 0 119 24.5zM366 751.5q-12 7.5 -12 26.5q0 11 3 24q7 28 21 39t43 11t41 -7.5t12 -26.5q0 -9 -3 -23q-6 -29 -20 -40t-44 -11q-29 0 -41 7.5z" />
         <glyph glyph-name="h" unicode="h" d="M536 18q-14 -14 -39.5 -23t-51.5 -9q-33 0 -53 16.5t-20 43.5q0 42 22.5 139.5t59.5 218.5q17 57 17 92q0 85 -89 85q-50 0 -104.5 -48t-95.5 -117.5t-53 -128.5l-61 -287h-55l170 800h54l-73 -343q45 80 102 127.5t118 47.5q144 0 144 -124q0 -48 -20 -109 q-36 -111 -57.5 -201t-21.5 -130q0 -14 9.5 -22.5t25.5 -8.5q11 0 23.5 6t23.5 17z" />
         <glyph glyph-name="hbar" unicode="ħ" d="M536 18q-14 -14 -39.5 -23t-51.5 -9q-33 0 -53 16.5t-20 43.5q0 42 22.5 139.5t59.5 218.5q17 57 17 92q0 85 -89 85q-50 0 -104.5 -48t-95.5 -117.5t-53 -128.5l-61 -287h-55l145 680h-61l11 50h60l15 70h54l-15 -70h131l-11 -50h-131l-47 -223q45 80 102 127.5 t118 47.5q144 0 144 -124q0 -48 -20 -109q-36 -111 -57.5 -201t-21.5 -130q0 -14 9.5 -22.5t25.5 -8.5q11 0 23.5 6t23.5 17z" />
         <glyph glyph-name="hcircumflex" unicode="ĥ" d="M536 18q-14 -14 -39.5 -23t-51.5 -9q-33 0 -53 16.5t-20 43.5q0 42 22.5 139.5t59.5 218.5q17 57 17 92q0 85 -89 85q-50 0 -104.5 -48t-95.5 -117.5t-53 -128.5l-61 -287h-55l170 800h54l-73 -343q45 80 102 127.5t118 47.5q144 0 144 -124q0 -48 -20 -109 q-36 -111 -57.5 -201t-21.5 -130q0 -14 9.5 -22.5t25.5 -8.5q11 0 23.5 6t23.5 17zM356 849l-49 -33l-72 83l-109 -81l-37 33l158 118z" />
         <glyph glyph-name="i" unicode="i" d="M211.5 17.5q-40.5 31.5 -40.5 104.5q0 54 23 140l63 228q3 14 3 25q0 21 -11 33.5t-38 18.5l13 51q92 -18 92 -92q0 -7 -2 -23l-66 -241q-20 -71 -20 -121q0 -56 27 -80t83 -24q37 0 63 16.5t58 60.5l44 -31q-42 -55 -78 -76t-88 -21q-85 0 -125.5 31.5zM293 751.5 q-12 7.5 -12 26.5q0 11 3 24q7 28 21 39t43 11t41 -7.5t12 -26.5q0 -9 -3 -23q-6 -29 -20 -40t-44 -11q-29 0 -41 7.5z" />
         <glyph glyph-name="dotlessi" unicode="ı" d="M211.5 17.5q-40.5 31.5 -40.5 104.5q0 54 23 140l63 228q3 14 3 25q0 21 -11 33.5t-38 18.5l13 51q92 -18 92 -92q0 -7 -2 -23l-66 -241q-20 -71 -20 -121q0 -56 27 -80t83 -24q37 0 63 16.5t58 60.5l44 -31q-42 -55 -78 -76t-88 -21q-85 0 -125.5 31.5z" />
         <glyph glyph-name="iacute" unicode="í" d="M211.5 17.5q-40.5 31.5 -40.5 104.5q0 54 23 140l63 228q3 14 3 25q0 21 -11 33.5t-38 18.5l13 51q92 -18 92 -92q0 -7 -2 -23l-66 -241q-20 -71 -20 -121q0 -56 27 -80t83 -24q37 0 63 16.5t58 60.5l44 -31q-42 -55 -78 -76t-88 -21q-85 0 -125.5 31.5zM471 807 l-162 -122l-30 39l162 121z" />
         <glyph glyph-name="uni01D0" unicode="ǐ" d="M211.5 17.5q-40.5 31.5 -40.5 104.5q0 54 23 140l63 228q3 14 3 25q0 21 -11 33.5t-38 18.5l13 51q92 -18 92 -92q0 -7 -2 -23l-66 -241q-20 -71 -20 -121q0 -56 27 -80t83 -24q37 0 63 16.5t58 60.5l44 -31q-42 -55 -78 -76t-88 -21q-85 0 -125.5 31.5zM477 809 l-158 -120l-110 118l47 33l75 -81l109 83z" />
         <glyph glyph-name="icircumflex" unicode="î" d="M211.5 17.5q-40.5 31.5 -40.5 104.5q0 54 23 140l63 228q3 14 3 25q0 21 -11 33.5t-38 18.5l13 51q92 -18 92 -92q0 -7 -2 -23l-66 -241q-20 -71 -20 -121q0 -56 27 -80t83 -24q37 0 63 16.5t58 60.5l44 -31q-42 -55 -78 -76t-88 -21q-85 0 -125.5 31.5zM457 715l-49 -33 l-72 83l-109 -81l-37 33l158 118z" />
         <glyph glyph-name="idieresis" unicode="ï" d="M211.5 17.5q-40.5 31.5 -40.5 104.5q0 54 23 140l63 228q3 14 3 25q0 21 -11 33.5t-38 18.5l13 51q92 -18 92 -92q0 -7 -2 -23l-66 -241q-20 -71 -20 -121q0 -56 27 -80t83 -24q37 0 63 16.5t58 60.5l44 -31q-42 -55 -78 -76t-88 -21q-85 0 -125.5 31.5zM183.5 737.5 q-12.5 8.5 -12.5 27.5q0 10 3 23q5 28 18 38t44 10q28 0 40.5 -8t12.5 -27q0 -10 -3 -22q-6 -29 -19 -39.5t-44 -10.5q-27 0 -39.5 8.5zM399.5 737.5q-12.5 8.5 -12.5 27.5q0 10 3 23q5 28 18 38t44 10q28 0 40.5 -8t12.5 -27q0 -10 -3 -22q-6 -29 -19 -39.5t-44 -10.5 q-27 0 -39.5 8.5z" />
         <glyph glyph-name="i.loclTRK" d="M211.5 17.5q-40.5 31.5 -40.5 104.5q0 54 23 140l63 228q3 14 3 25q0 21 -11 33.5t-38 18.5l13 51q92 -18 92 -92q0 -7 -2 -23l-66 -241q-20 -71 -20 -121q0 -56 27 -80t83 -24q37 0 63 16.5t58 60.5l44 -31q-42 -55 -78 -76t-88 -21q-85 0 -125.5 31.5zM293 751.5 q-12 7.5 -12 26.5q0 11 3 24q7 28 21 39t43 11t41 -7.5t12 -26.5q0 -9 -3 -23q-6 -29 -20 -40t-44 -11q-29 0 -41 7.5z" />
         <glyph glyph-name="uni1ECB" unicode="ị" d="M211.5 17.5q-40.5 31.5 -40.5 104.5q0 54 23 140l63 228q3 14 3 25q0 21 -11 33.5t-38 18.5l13 51q92 -18 92 -92q0 -7 -2 -23l-66 -241q-20 -71 -20 -121q0 -56 27 -80t83 -24q37 0 63 16.5t58 60.5l44 -31q-42 -55 -78 -76t-88 -21q-85 0 -125.5 31.5zM293 751.5 q-12 7.5 -12 26.5q0 11 3 24q7 28 21 39t43 11t41 -7.5t12 -26.5q0 -9 -3 -23q-6 -29 -20 -40t-44 -11q-29 0 -41 7.5zM221 -213.5q-12 7.5 -12 26.5q0 11 3 24q7 28 21 39t43 11t41 -7.5t12 -26.5q0 -9 -3 -23q-6 -29 -20 -40t-44 -11q-29 0 -41 7.5z" />
         <glyph glyph-name="igrave" unicode="ì" d="M211.5 17.5q-40.5 31.5 -40.5 104.5q0 54 23 140l63 228q3 14 3 25q0 21 -11 33.5t-38 18.5l13 51q92 -18 92 -92q0 -7 -2 -23l-66 -241q-20 -71 -20 -121q0 -56 27 -80t83 -24q37 0 63 16.5t58 60.5l44 -31q-42 -55 -78 -76t-88 -21q-85 0 -125.5 31.5zM372 724l-43 -39 l-115 122l43 38z" />
         <glyph glyph-name="uni1EC9" unicode="ỉ" d="M211.5 17.5q-40.5 31.5 -40.5 104.5q0 54 23 140l63 228q3 14 3 25q0 21 -11 33.5t-38 18.5l13 51q92 -18 92 -92q0 -7 -2 -23l-66 -241q-20 -71 -20 -121q0 -56 27 -80t83 -24q37 0 63 16.5t58 60.5l44 -31q-42 -55 -78 -76t-88 -21q-85 0 -125.5 31.5zM288 705 q37 9 58 25.5t21 34.5q0 10 -8 16.5t-18 6.5q-23 0 -49.5 -12t-47.5 -28l10 63q18 12 43 19.5t45 7.5q35 0 57 -18t22 -49q0 -12 -2 -19q-6 -33 -38.5 -59t-84.5 -38z" />
         <glyph glyph-name="imacron" unicode="ī" d="M211.5 17.5q-40.5 31.5 -40.5 104.5q0 54 23 140l63 228q3 14 3 25q0 21 -11 33.5t-38 18.5l13 51q92 -18 92 -92q0 -7 -2 -23l-66 -241q-20 -71 -20 -121q0 -56 27 -80t83 -24q37 0 63 16.5t58 60.5l44 -31q-42 -55 -78 -76t-88 -21q-85 0 -125.5 31.5zM464 722h-279 l11 50h279z" />
         <glyph glyph-name="iogonek" unicode="į" d="M293 751.5q-12 7.5 -12 26.5q0 11 3 24q7 28 21 39t43 11t41 -7.5t12 -26.5q0 -9 -3 -23q-6 -29 -20 -40t-44 -11q-29 0 -41 7.5zM377 -18q-57 -32 -84 -52.5t-27 -41.5q1 -16 15 -25.5t38 -9.5q16 0 33 6.5t29 16.5l26 -44q-15 -14 -39 -22t-49 -8q-50 0 -78.5 19 t-28.5 56q0 52 109 109q-77 3 -113.5 34.5t-36.5 101.5q0 54 23 140l63 228q3 14 3 25q0 21 -11 33.5t-38 18.5l13 51q92 -18 92 -92q0 -7 -2 -23l-66 -241q-20 -71 -20 -121q0 -56 27 -80t83 -24q37 0 63 16.5t58 60.5l44 -31q-26 -35 -49.5 -55.5t-48.5 -30.5z" />
         <glyph glyph-name="itilde" unicode="ĩ" d="M211.5 17.5q-40.5 31.5 -40.5 104.5q0 54 23 140l63 228q3 14 3 25q0 21 -11 33.5t-38 18.5l13 51q92 -18 92 -92q0 -7 -2 -23l-66 -241q-20 -71 -20 -121q0 -56 27 -80t83 -24q37 0 63 16.5t58 60.5l44 -31q-42 -55 -78 -76t-88 -21q-85 0 -125.5 31.5zM354.5 711.5 q-15.5 11.5 -37.5 34.5q-16 17 -24.5 24t-18.5 7q-20 0 -29.5 -13t-14.5 -38h-55q10 47 36.5 74t63.5 27q21 0 37 -11.5t37 -33.5q14 -16 24 -24t20 -8q21 0 30.5 12.5t13.5 35.5h54q-8 -45 -35.5 -71.5t-63.5 -26.5q-22 0 -37.5 11.5z" />
         <glyph glyph-name="j" unicode="j" d="M-24 -186q-30 20 -30 52q0 36 44.5 63t127.5 41.5t196 14.5q14 25 48 176.5t69 323.5q3 15 3 27q0 19 -10.5 32t-36.5 20l15 49q89 -21 89 -91q0 -12 -3 -26q-47 -234 -74.5 -356t-44.5 -156q32 1 50 3t38 8l-12 -50q-32 -10 -98 -10q-38 -64 -118.5 -102.5t-173.5 -38.5 q-49 0 -79 20zM187 -130.5q59 24.5 97 65.5q-127 -5 -205 -23.5t-78 -44.5q0 -10 19 -16t48 -6q60 0 119 24.5zM455 751.5q-12 7.5 -12 26.5q0 11 3 24q7 28 21 39t43 11t41 -7.5t12 -26.5q0 -9 -3 -23q-6 -29 -20 -40t-44 -11q-29 0 -41 7.5z" />
         <glyph glyph-name="uni0237" unicode="ȷ" d="M-24 -186q-30 20 -30 52q0 36 44.5 63t127.5 41.5t196 14.5q14 25 48 176.5t69 323.5q3 15 3 27q0 19 -10.5 32t-36.5 20l15 49q89 -21 89 -91q0 -12 -3 -26q-47 -234 -74.5 -356t-44.5 -156q32 1 50 3t38 8l-12 -50q-32 -10 -98 -10q-38 -64 -118.5 -102.5t-173.5 -38.5 q-49 0 -79 20zM187 -130.5q59 24.5 97 65.5q-127 -5 -205 -23.5t-78 -44.5q0 -10 19 -16t48 -6q60 0 119 24.5z" />
         <glyph glyph-name="jcircumflex" unicode="ĵ" d="M-24 -186q-30 20 -30 52q0 36 44.5 63t127.5 41.5t196 14.5q14 25 48 176.5t69 323.5q3 15 3 27q0 19 -10.5 32t-36.5 20l15 49q89 -21 89 -91q0 -12 -3 -26q-47 -234 -74.5 -356t-44.5 -156q32 1 50 3t38 8l-12 -50q-32 -10 -98 -10q-38 -64 -118.5 -102.5t-173.5 -38.5 q-49 0 -79 20zM187 -130.5q59 24.5 97 65.5q-127 -5 -205 -23.5t-78 -44.5q0 -10 19 -16t48 -6q60 0 119 24.5zM619 715l-49 -33l-72 83l-109 -81l-37 33l158 118z" />
         <glyph glyph-name="k" unicode="k" d="M447 55.5q21 18.5 33 43.5l38 -41q-29 -37 -53.5 -54.5t-56.5 -17.5q-46 0 -66 47t-21 134q0 34 -14.5 68t-37.5 55l23 44q66 0 116.5 20.5t78.5 58.5t28 88q-1 36 -29 58.5t-65 22.5q-53 0 -105 -34.5t-92 -98t-60 -145.5l-65 -304h-54l63 298h-1q2 10 8 30l100 472h54 l-61 -287q46 57 102 88.5t114 31.5q61 0 103 -35.5t42 -90.5q0 -56 -28 -103t-78.5 -78t-116.5 -40q15 -23 24 -54.5t9 -60.5q1 -73 6.5 -103.5t25.5 -30.5q15 0 36 18.5z" />
         <glyph glyph-name="uni0137" unicode="ķ" d="M447 55.5q21 18.5 33 43.5l38 -41q-29 -37 -53.5 -54.5t-56.5 -17.5q-46 0 -66 47t-21 134q0 34 -14.5 68t-37.5 55l23 44q66 0 116.5 20.5t78.5 58.5t28 88q-1 36 -29 58.5t-65 22.5q-53 0 -105 -34.5t-92 -98t-60 -145.5l-65 -304h-54l63 298h-1q2 10 8 30l100 472h54 l-61 -287q46 57 102 88.5t114 31.5q61 0 103 -35.5t42 -90.5q0 -56 -28 -103t-78.5 -78t-116.5 -40q15 -23 24 -54.5t9 -60.5q1 -73 6.5 -103.5t25.5 -30.5q15 0 36 18.5zM204 -124q-20 3 -20 27q0 5 2 17q5 22 14 29.5t33 7.5q22 0 32 -6.5t10 -22.5q0 -5 -2 -17 q-6 -26 -36 -70t-69 -89l-40 2z" />
         <glyph glyph-name="l" unicode="l" d="M395.5 58q33.5 21 59.5 56l43 -31q-33 -44 -78.5 -70.5t-87.5 -26.5q-58 0 -94 41t-37 108q-96 -84 -210 -135l-21 46q122 55 231 160q4 290 52 449t147 159q47 0 74 -35t27 -96q0 -120 -67 -253.5t-179 -245.5v-12q0 -61 21.5 -98t56.5 -37q29 0 62.5 21zM327 699.5 q-29 -62.5 -48 -175.5t-23 -260q87 99 138.5 210t51.5 208q0 40 -14 60t-40 20q-36 0 -65 -62.5z" />
         <glyph glyph-name="lacute" unicode="ĺ" d="M395.5 58q33.5 21 59.5 56l43 -31q-33 -44 -78.5 -70.5t-87.5 -26.5q-58 0 -94 41t-37 108q-96 -84 -210 -135l-21 46q122 55 231 160q4 290 52 449t147 159q47 0 74 -35t27 -96q0 -120 -67 -253.5t-179 -245.5v-12q0 -61 21.5 -98t56.5 -37q29 0 62.5 21zM327 699.5 q-29 -62.5 -48 -175.5t-23 -260q87 99 138.5 210t51.5 208q0 40 -14 60t-40 20q-36 0 -65 -62.5zM580 989l-162 -122l-30 39l162 121z" />
         <glyph glyph-name="lcaron" unicode="ľ" d="M434 429.5q-67 -133.5 -179 -245.5v-12q0 -61 21.5 -98t56.5 -37q29 0 62.5 21t59.5 56l43 -31q-33 -44 -78.5 -70.5t-87.5 -26.5q-58 0 -94 41t-37 108q-96 -84 -210 -135l-21 46q122 55 231 160q4 290 52 449t147 159q47 0 74 -35t27 -96q0 -120 -67 -253.5zM539 549 l45 250h60l-61 -250h-44zM327 699.5q-29 -62.5 -48 -175.5t-23 -260q87 99 138.5 210t51.5 208q0 40 -14 60t-40 20q-36 0 -65 -62.5z" />
         <glyph glyph-name="uni013C" unicode="ļ" d="M395.5 58q33.5 21 59.5 56l43 -31q-33 -44 -78.5 -70.5t-87.5 -26.5q-58 0 -94 41t-37 108q-96 -84 -210 -135l-21 46q122 55 231 160q4 290 52 449t147 159q47 0 74 -35t27 -96q0 -120 -67 -253.5t-179 -245.5v-12q0 -61 21.5 -98t56.5 -37q29 0 62.5 21zM327 699.5 q-29 -62.5 -48 -175.5t-23 -260q87 99 138.5 210t51.5 208q0 40 -14 60t-40 20q-36 0 -65 -62.5zM192 -124q-20 3 -20 27q0 5 2 17q5 22 14 29.5t33 7.5q22 0 32 -6.5t10 -22.5q0 -5 -2 -17q-6 -26 -36 -70t-69 -89l-40 2z" />
         <glyph glyph-name="lslash" unicode="ł" d="M477 537q-28 -91 -85.5 -182.5t-136.5 -170.5v-12q0 -61 21.5 -98t56.5 -37q29 0 62.5 21t59.5 56l43 -31q-33 -44 -78.5 -70.5t-87.5 -26.5q-58 0 -94 41t-37 108q-96 -84 -210 -135l-21 46q122 55 231 160q2 126 12 231l-54 -21l12 55l48 18q41 325 181 325 q47 0 74 -35t27 -96q0 -48 -10 -92l61 23l-15 -54zM325.5 695.5q-30.5 -66.5 -48.5 -184.5l152 57q17 60 17 114q0 40 -14 60t-40 20q-36 0 -66.5 -66.5zM270 458q-11 -92 -14 -194q104 116 155 248z" />
         <glyph glyph-name="m" unicode="m" d="M439.5 2.5q-19.5 16.5 -19.5 43.5q0 41 22.5 138.5t59.5 219.5q27 90 27 131q0 46 -35 46q-42 0 -68.5 -21t-49.5 -82t-48 -182l-62 -296h-54l84 404q9 43 16 79t7 55q0 22 -9 32.5t-30 10.5q-38 0 -61.5 -21t-44.5 -81t-48 -185l-63 -294h-55l114 531q2 12 2 19 q-2 31 -32 31q-11 0 -25 -5.5t-25 -16.5l-26 41q14 14 39.5 23t52.5 9q62 0 62 -66q0 -12 -1 -19q16 33 46 59t67 26q41 0 58 -15t19.5 -32.5t2.5 -56.5q54 104 134 104q44 0 66 -22.5t22 -69.5q0 -51 -29 -141q-36 -110 -57.5 -200t-21.5 -131q0 -14 10 -22.5t26 -8.5 q11 0 23.5 6.5t22.5 16.5l26 -42q-14 -14 -39.5 -23t-51.5 -9q-34 0 -53.5 16.5z" />
         <glyph glyph-name="n" unicode="n" d="M543 18q-13 -14 -38.5 -23t-52.5 -9q-33 0 -52.5 17t-19.5 46q0 43 22 140.5t59 214.5q17 54 17 94q0 83 -79 83q-45 0 -97 -48t-92.5 -117t-52.5 -127l-61 -289h-56l113 531q3 16 2 19q0 14 -9.5 22.5t-25.5 8.5q-11 0 -23.5 -5.5t-22.5 -16.5l-26 41q14 14 39.5 23 t51.5 9q30 0 51.5 -19t21.5 -51q0 -11 -3 -23l-18 -83q44 80 100 128t110 48q135 0 135 -121q0 -46 -21 -112q-36 -113 -57.5 -200.5t-21.5 -128.5q0 -15 9.5 -24t25.5 -9q11 0 24 6.5t23 16.5z" />
         <glyph glyph-name="nacute" unicode="ń" d="M543 18q-13 -14 -38.5 -23t-52.5 -9q-33 0 -52.5 17t-19.5 46q0 43 22 140.5t59 214.5q17 54 17 94q0 83 -79 83q-45 0 -97 -48t-92.5 -117t-52.5 -127l-61 -289h-56l113 531q3 16 2 19q0 14 -9.5 22.5t-25.5 8.5q-11 0 -23.5 -5.5t-22.5 -16.5l-26 41q14 14 39.5 23 t51.5 9q30 0 51.5 -19t21.5 -51q0 -11 -3 -23l-18 -83q44 80 100 128t110 48q135 0 135 -121q0 -46 -21 -112q-36 -113 -57.5 -200.5t-21.5 -128.5q0 -15 9.5 -24t25.5 -9q11 0 24 6.5t23 16.5zM534 807l-162 -122l-30 39l162 121z" />
         <glyph glyph-name="ncaron" unicode="ň" d="M543 18q-13 -14 -38.5 -23t-52.5 -9q-33 0 -52.5 17t-19.5 46q0 43 22 140.5t59 214.5q17 54 17 94q0 83 -79 83q-45 0 -97 -48t-92.5 -117t-52.5 -127l-61 -289h-56l113 531q3 16 2 19q0 14 -9.5 22.5t-25.5 8.5q-11 0 -23.5 -5.5t-22.5 -16.5l-26 41q14 14 39.5 23 t51.5 9q30 0 51.5 -19t21.5 -51q0 -11 -3 -23l-18 -83q44 80 100 128t110 48q135 0 135 -121q0 -46 -21 -112q-36 -113 -57.5 -200.5t-21.5 -128.5q0 -15 9.5 -24t25.5 -9q11 0 24 6.5t23 16.5zM540 809l-158 -120l-110 118l47 33l75 -81l109 83z" />
         <glyph glyph-name="uni0146" unicode="ņ" d="M543 18q-13 -14 -38.5 -23t-52.5 -9q-33 0 -52.5 17t-19.5 46q0 43 22 140.5t59 214.5q17 54 17 94q0 83 -79 83q-45 0 -97 -48t-92.5 -117t-52.5 -127l-61 -289h-56l113 531q3 16 2 19q0 14 -9.5 22.5t-25.5 8.5q-11 0 -23.5 -5.5t-22.5 -16.5l-26 41q14 14 39.5 23 t51.5 9q30 0 51.5 -19t21.5 -51q0 -11 -3 -23l-18 -83q44 80 100 128t110 48q135 0 135 -121q0 -46 -21 -112q-36 -113 -57.5 -200.5t-21.5 -128.5q0 -15 9.5 -24t25.5 -9q11 0 24 6.5t23 16.5zM202 -124q-20 3 -20 27q0 5 2 17q5 22 14 29.5t33 7.5q22 0 32 -6.5t10 -22.5 q0 -5 -2 -17q-6 -26 -36 -70t-69 -89l-40 2z" />
         <glyph glyph-name="eng" unicode="ŋ" d="M543 18q-18 -18 -54 -28q-13 -57 -33.5 -88.5t-54 -45t-88.5 -13.5l6 50q38 0 58.5 7t33.5 27t23 60q-25 4 -39.5 20.5t-14.5 41.5q0 43 22 140.5t59 214.5q17 54 17 94q0 83 -79 83q-45 0 -97 -48t-92.5 -117t-52.5 -127l-61 -289h-56l113 531q3 16 2 19q0 14 -9.5 22.5 t-25.5 8.5q-11 0 -23.5 -5.5t-22.5 -16.5l-26 41q14 14 39.5 23t51.5 9q30 0 51.5 -19t21.5 -51q0 -11 -3 -23l-18 -83q44 80 100 128t110 48q135 0 135 -121q0 -46 -21 -112q-36 -113 -57.5 -200.5t-21.5 -128.5q0 -15 9.5 -24t25.5 -9q11 0 24 6.5t23 16.5z" />
         <glyph glyph-name="ntilde" unicode="ñ" d="M543 18q-13 -14 -38.5 -23t-52.5 -9q-33 0 -52.5 17t-19.5 46q0 43 22 140.5t59 214.5q17 54 17 94q0 83 -79 83q-45 0 -97 -48t-92.5 -117t-52.5 -127l-61 -289h-56l113 531q3 16 2 19q0 14 -9.5 22.5t-25.5 8.5q-11 0 -23.5 -5.5t-22.5 -16.5l-26 41q14 14 39.5 23 t51.5 9q30 0 51.5 -19t21.5 -51q0 -11 -3 -23l-18 -83q44 80 100 128t110 48q135 0 135 -121q0 -46 -21 -112q-36 -113 -57.5 -200.5t-21.5 -128.5q0 -15 9.5 -24t25.5 -9q11 0 24 6.5t23 16.5zM417.5 711.5q-15.5 11.5 -37.5 34.5q-16 17 -24.5 24t-18.5 7q-20 0 -29.5 -13 t-14.5 -38h-55q10 47 36.5 74t63.5 27q21 0 37 -11.5t37 -33.5q14 -16 24 -24t20 -8q21 0 30.5 12.5t13.5 35.5h54q-8 -45 -35.5 -71.5t-63.5 -26.5q-22 0 -37.5 11.5z" />
         <glyph glyph-name="o" unicode="o" d="M102.5 22q-40.5 36 -40.5 123q0 61 22 168q19 94 60.5 166.5t98.5 112.5t121 40q92 0 133 -36t41 -123q0 -68 -22 -168q-20 -94 -61.5 -166.5t-98 -112.5t-120.5 -40q-93 0 -133.5 36zM332.5 71.5q45.5 34.5 80 97t51.5 144.5q20 95 20 149q0 66 -28.5 92.5t-93.5 26.5 q-49 0 -94.5 -34.5t-79.5 -97t-52 -144.5q-20 -95 -20 -149q0 -65 28.5 -92t93.5 -27q49 0 94.5 34.5z" />
         <glyph glyph-name="oacute" unicode="ó" d="M102.5 22q-40.5 36 -40.5 123q0 61 22 168q19 94 60.5 166.5t98.5 112.5t121 40q92 0 133 -36t41 -123q0 -68 -22 -168q-20 -94 -61.5 -166.5t-98 -112.5t-120.5 -40q-93 0 -133.5 36zM332.5 71.5q45.5 34.5 80 97t51.5 144.5q20 95 20 149q0 66 -28.5 92.5t-93.5 26.5 q-49 0 -94.5 -34.5t-79.5 -97t-52 -144.5q-20 -95 -20 -149q0 -65 28.5 -92t93.5 -27q49 0 94.5 34.5zM534 807l-162 -122l-30 39l162 121z" />
         <glyph glyph-name="uni01D2" unicode="ǒ" d="M102.5 22q-40.5 36 -40.5 123q0 61 22 168q19 94 60.5 166.5t98.5 112.5t121 40q92 0 133 -36t41 -123q0 -68 -22 -168q-20 -94 -61.5 -166.5t-98 -112.5t-120.5 -40q-93 0 -133.5 36zM332.5 71.5q45.5 34.5 80 97t51.5 144.5q20 95 20 149q0 66 -28.5 92.5t-93.5 26.5 q-49 0 -94.5 -34.5t-79.5 -97t-52 -144.5q-20 -95 -20 -149q0 -65 28.5 -92t93.5 -27q49 0 94.5 34.5zM540 809l-158 -120l-110 118l47 33l75 -81l109 83z" />
         <glyph glyph-name="ocircumflex" unicode="ô" d="M102.5 22q-40.5 36 -40.5 123q0 61 22 168q19 94 60.5 166.5t98.5 112.5t121 40q92 0 133 -36t41 -123q0 -68 -22 -168q-20 -94 -61.5 -166.5t-98 -112.5t-120.5 -40q-93 0 -133.5 36zM332.5 71.5q45.5 34.5 80 97t51.5 144.5q20 95 20 149q0 66 -28.5 92.5t-93.5 26.5 q-49 0 -94.5 -34.5t-79.5 -97t-52 -144.5q-20 -95 -20 -149q0 -65 28.5 -92t93.5 -27q49 0 94.5 34.5zM520 715l-49 -33l-72 83l-109 -81l-37 33l158 118z" />
         <glyph glyph-name="uni1ED1" unicode="ố" d="M102.5 22q-40.5 36 -40.5 123q0 61 22 168q19 94 60.5 166.5t98.5 112.5t121 40q92 0 133 -36t41 -123q0 -68 -22 -168q-20 -94 -61.5 -166.5t-98 -112.5t-120.5 -40q-93 0 -133.5 36zM332.5 71.5q45.5 34.5 80 97t51.5 144.5q20 95 20 149q0 66 -28.5 92.5t-93.5 26.5 q-49 0 -94.5 -34.5t-79.5 -97t-52 -144.5q-20 -95 -20 -149q0 -65 28.5 -92t93.5 -27q49 0 94.5 34.5zM520 715l-49 -33l-72 83l-109 -81l-37 33l158 118zM577 1012l-162 -122l-30 39l162 121z" />
         <glyph glyph-name="uni1ED9" unicode="ộ" d="M102.5 22q-40.5 36 -40.5 123q0 61 22 168q19 94 60.5 166.5t98.5 112.5t121 40q92 0 133 -36t41 -123q0 -68 -22 -168q-20 -94 -61.5 -166.5t-98 -112.5t-120.5 -40q-93 0 -133.5 36zM332.5 71.5q45.5 34.5 80 97t51.5 144.5q20 95 20 149q0 66 -28.5 92.5t-93.5 26.5 q-49 0 -94.5 -34.5t-79.5 -97t-52 -144.5q-20 -95 -20 -149q0 -65 28.5 -92t93.5 -27q49 0 94.5 34.5zM151 -213.5q-12 7.5 -12 26.5q0 11 3 24q7 28 21 39t43 11t41 -7.5t12 -26.5q0 -9 -3 -23q-6 -29 -20 -40t-44 -11q-29 0 -41 7.5zM520 715l-49 -33l-72 83l-109 -81 l-37 33l158 118z" />
         <glyph glyph-name="uni1ED3" unicode="ồ" d="M102.5 22q-40.5 36 -40.5 123q0 61 22 168q19 94 60.5 166.5t98.5 112.5t121 40q92 0 133 -36t41 -123q0 -68 -22 -168q-20 -94 -61.5 -166.5t-98 -112.5t-120.5 -40q-93 0 -133.5 36zM332.5 71.5q45.5 34.5 80 97t51.5 144.5q20 95 20 149q0 66 -28.5 92.5t-93.5 26.5 q-49 0 -94.5 -34.5t-79.5 -97t-52 -144.5q-20 -95 -20 -149q0 -65 28.5 -92t93.5 -27q49 0 94.5 34.5zM520 715l-49 -33l-72 83l-109 -81l-37 33l158 118zM478 929l-43 -39l-115 122l43 38z" />
         <glyph glyph-name="uni1ED5" unicode="ổ" d="M102.5 22q-40.5 36 -40.5 123q0 61 22 168q19 94 60.5 166.5t98.5 112.5t121 40q92 0 133 -36t41 -123q0 -68 -22 -168q-20 -94 -61.5 -166.5t-98 -112.5t-120.5 -40q-93 0 -133.5 36zM332.5 71.5q45.5 34.5 80 97t51.5 144.5q20 95 20 149q0 66 -28.5 92.5t-93.5 26.5 q-49 0 -94.5 -34.5t-79.5 -97t-52 -144.5q-20 -95 -20 -149q0 -65 28.5 -92t93.5 -27q49 0 94.5 34.5zM520 715l-49 -33l-72 83l-109 -81l-37 33l158 118zM394 910q37 9 58 25.5t21 34.5q0 10 -8 16.5t-18 6.5q-23 0 -49.5 -12t-47.5 -28l10 63q18 12 43 19.5t45 7.5 q35 0 57 -18t22 -49q0 -12 -2 -19q-6 -33 -38.5 -59t-84.5 -38z" />
         <glyph glyph-name="uni1ED7" unicode="ỗ" d="M102.5 22q-40.5 36 -40.5 123q0 61 22 168q19 94 60.5 166.5t98.5 112.5t121 40q92 0 133 -36t41 -123q0 -68 -22 -168q-20 -94 -61.5 -166.5t-98 -112.5t-120.5 -40q-93 0 -133.5 36zM332.5 71.5q45.5 34.5 80 97t51.5 144.5q20 95 20 149q0 66 -28.5 92.5t-93.5 26.5 q-49 0 -94.5 -34.5t-79.5 -97t-52 -144.5q-20 -95 -20 -149q0 -65 28.5 -92t93.5 -27q49 0 94.5 34.5zM520 715l-49 -33l-72 83l-109 -81l-37 33l158 118zM460.5 916.5q-15.5 11.5 -37.5 34.5q-16 17 -24.5 24t-18.5 7q-20 0 -29.5 -13t-14.5 -38h-55q10 47 36.5 74t63.5 27 q21 0 37 -11.5t37 -33.5q14 -16 24 -24t20 -8q21 0 30.5 12.5t13.5 35.5h54q-8 -45 -35.5 -71.5t-63.5 -26.5q-22 0 -37.5 11.5z" />
         <glyph glyph-name="odieresis" unicode="ö" d="M102.5 22q-40.5 36 -40.5 123q0 61 22 168q19 94 60.5 166.5t98.5 112.5t121 40q92 0 133 -36t41 -123q0 -68 -22 -168q-20 -94 -61.5 -166.5t-98 -112.5t-120.5 -40q-93 0 -133.5 36zM332.5 71.5q45.5 34.5 80 97t51.5 144.5q20 95 20 149q0 66 -28.5 92.5t-93.5 26.5 q-49 0 -94.5 -34.5t-79.5 -97t-52 -144.5q-20 -95 -20 -149q0 -65 28.5 -92t93.5 -27q49 0 94.5 34.5zM246.5 737.5q-12.5 8.5 -12.5 27.5q0 10 3 23q5 28 18 38t44 10q28 0 40.5 -8t12.5 -27q0 -10 -3 -22q-6 -29 -19 -39.5t-44 -10.5q-27 0 -39.5 8.5zM462.5 737.5 q-12.5 8.5 -12.5 27.5q0 10 3 23q5 28 18 38t44 10q28 0 40.5 -8t12.5 -27q0 -10 -3 -22q-6 -29 -19 -39.5t-44 -10.5q-27 0 -39.5 8.5z" />
         <glyph glyph-name="uni1ECD" unicode="ọ" d="M102.5 22q-40.5 36 -40.5 123q0 61 22 168q19 94 60.5 166.5t98.5 112.5t121 40q92 0 133 -36t41 -123q0 -68 -22 -168q-20 -94 -61.5 -166.5t-98 -112.5t-120.5 -40q-93 0 -133.5 36zM332.5 71.5q45.5 34.5 80 97t51.5 144.5q20 95 20 149q0 66 -28.5 92.5t-93.5 26.5 q-49 0 -94.5 -34.5t-79.5 -97t-52 -144.5q-20 -95 -20 -149q0 -65 28.5 -92t93.5 -27q49 0 94.5 34.5zM151 -213.5q-12 7.5 -12 26.5q0 11 3 24q7 28 21 39t43 11t41 -7.5t12 -26.5q0 -9 -3 -23q-6 -29 -20 -40t-44 -11q-29 0 -41 7.5z" />
         <glyph glyph-name="ograve" unicode="ò" d="M102.5 22q-40.5 36 -40.5 123q0 61 22 168q19 94 60.5 166.5t98.5 112.5t121 40q92 0 133 -36t41 -123q0 -68 -22 -168q-20 -94 -61.5 -166.5t-98 -112.5t-120.5 -40q-93 0 -133.5 36zM332.5 71.5q45.5 34.5 80 97t51.5 144.5q20 95 20 149q0 66 -28.5 92.5t-93.5 26.5 q-49 0 -94.5 -34.5t-79.5 -97t-52 -144.5q-20 -95 -20 -149q0 -65 28.5 -92t93.5 -27q49 0 94.5 34.5zM435 724l-43 -39l-115 122l43 38z" />
         <glyph glyph-name="uni1ECF" unicode="ỏ" d="M102.5 22q-40.5 36 -40.5 123q0 61 22 168q19 94 60.5 166.5t98.5 112.5t121 40q92 0 133 -36t41 -123q0 -68 -22 -168q-20 -94 -61.5 -166.5t-98 -112.5t-120.5 -40q-93 0 -133.5 36zM332.5 71.5q45.5 34.5 80 97t51.5 144.5q20 95 20 149q0 66 -28.5 92.5t-93.5 26.5 q-49 0 -94.5 -34.5t-79.5 -97t-52 -144.5q-20 -95 -20 -149q0 -65 28.5 -92t93.5 -27q49 0 94.5 34.5zM351 705q37 9 58 25.5t21 34.5q0 10 -8 16.5t-18 6.5q-23 0 -49.5 -12t-47.5 -28l10 63q18 12 43 19.5t45 7.5q35 0 57 -18t22 -49q0 -12 -2 -19q-6 -33 -38.5 -59 t-84.5 -38z" />
         <glyph glyph-name="ohorn" unicode="ơ" d="M670 722h55l-29 -134q-11 -56 -46.5 -89t-83.5 -33q-13 0 -28 5q0 -61 -22 -166q-20 -94 -61.5 -166.5t-98 -112.5t-120.5 -40q-93 0 -133.5 36t-40.5 123q0 61 22 168q19 94 60.5 166.5t98.5 112.5t121 40q79 0 120 -25.5t51 -85.5q15 -5 31 -5q27 0 48 21t28 55z M484 462q0 66 -28.5 92.5t-93.5 26.5q-49 0 -94.5 -34.5t-79.5 -97t-52 -144.5q-20 -95 -20 -149q0 -65 28.5 -92t93.5 -27q49 0 94.5 34.5t80 97t51.5 144.5q20 95 20 149z" />
         <glyph glyph-name="uni1EDB" unicode="ớ" d="M670 722h55l-29 -134q-11 -56 -46.5 -89t-83.5 -33q-13 0 -28 5q0 -61 -22 -166q-20 -94 -61.5 -166.5t-98 -112.5t-120.5 -40q-93 0 -133.5 36t-40.5 123q0 61 22 168q19 94 60.5 166.5t98.5 112.5t121 40q79 0 120 -25.5t51 -85.5q15 -5 31 -5q27 0 48 21t28 55z M484 462q0 66 -28.5 92.5t-93.5 26.5q-49 0 -94.5 -34.5t-79.5 -97t-52 -144.5q-20 -95 -20 -149q0 -65 28.5 -92t93.5 -27q49 0 94.5 34.5t80 97t51.5 144.5q20 95 20 149zM534 807l-162 -122l-30 39l162 121z" />
         <glyph glyph-name="uni1EE3" unicode="ợ" d="M670 722h55l-29 -134q-11 -56 -46.5 -89t-83.5 -33q-13 0 -28 5q0 -61 -22 -166q-20 -94 -61.5 -166.5t-98 -112.5t-120.5 -40q-93 0 -133.5 36t-40.5 123q0 61 22 168q19 94 60.5 166.5t98.5 112.5t121 40q79 0 120 -25.5t51 -85.5q15 -5 31 -5q27 0 48 21t28 55z M484 462q0 66 -28.5 92.5t-93.5 26.5q-49 0 -94.5 -34.5t-79.5 -97t-52 -144.5q-20 -95 -20 -149q0 -65 28.5 -92t93.5 -27q49 0 94.5 34.5t80 97t51.5 144.5q20 95 20 149zM151 -213.5q-12 7.5 -12 26.5q0 11 3 24q7 28 21 39t43 11t41 -7.5t12 -26.5q0 -9 -3 -23 q-6 -29 -20 -40t-44 -11q-29 0 -41 7.5z" />
         <glyph glyph-name="uni1EDD" unicode="ờ" d="M670 722h55l-29 -134q-11 -56 -46.5 -89t-83.5 -33q-13 0 -28 5q0 -61 -22 -166q-20 -94 -61.5 -166.5t-98 -112.5t-120.5 -40q-93 0 -133.5 36t-40.5 123q0 61 22 168q19 94 60.5 166.5t98.5 112.5t121 40q79 0 120 -25.5t51 -85.5q15 -5 31 -5q27 0 48 21t28 55z M484 462q0 66 -28.5 92.5t-93.5 26.5q-49 0 -94.5 -34.5t-79.5 -97t-52 -144.5q-20 -95 -20 -149q0 -65 28.5 -92t93.5 -27q49 0 94.5 34.5t80 97t51.5 144.5q20 95 20 149zM435 724l-43 -39l-115 122l43 38z" />
         <glyph glyph-name="uni1EDF" unicode="ở" d="M670 722h55l-29 -134q-11 -56 -46.5 -89t-83.5 -33q-13 0 -28 5q0 -61 -22 -166q-20 -94 -61.5 -166.5t-98 -112.5t-120.5 -40q-93 0 -133.5 36t-40.5 123q0 61 22 168q19 94 60.5 166.5t98.5 112.5t121 40q79 0 120 -25.5t51 -85.5q15 -5 31 -5q27 0 48 21t28 55z M484 462q0 66 -28.5 92.5t-93.5 26.5q-49 0 -94.5 -34.5t-79.5 -97t-52 -144.5q-20 -95 -20 -149q0 -65 28.5 -92t93.5 -27q49 0 94.5 34.5t80 97t51.5 144.5q20 95 20 149zM351 705q37 9 58 25.5t21 34.5q0 10 -8 16.5t-18 6.5q-23 0 -49.5 -12t-47.5 -28l10 63 q18 12 43 19.5t45 7.5q35 0 57 -18t22 -49q0 -12 -2 -19q-6 -33 -38.5 -59t-84.5 -38z" />
         <glyph glyph-name="uni1EE1" unicode="ỡ" d="M670 722h55l-29 -134q-11 -56 -46.5 -89t-83.5 -33q-13 0 -28 5q0 -61 -22 -166q-20 -94 -61.5 -166.5t-98 -112.5t-120.5 -40q-93 0 -133.5 36t-40.5 123q0 61 22 168q19 94 60.5 166.5t98.5 112.5t121 40q79 0 120 -25.5t51 -85.5q15 -5 31 -5q27 0 48 21t28 55z M484 462q0 66 -28.5 92.5t-93.5 26.5q-49 0 -94.5 -34.5t-79.5 -97t-52 -144.5q-20 -95 -20 -149q0 -65 28.5 -92t93.5 -27q49 0 94.5 34.5t80 97t51.5 144.5q20 95 20 149zM417.5 711.5q-15.5 11.5 -37.5 34.5q-16 17 -24.5 24t-18.5 7q-20 0 -29.5 -13t-14.5 -38h-55 q10 47 36.5 74t63.5 27q21 0 37 -11.5t37 -33.5q14 -16 24 -24t20 -8q21 0 30.5 12.5t13.5 35.5h54q-8 -45 -35.5 -71.5t-63.5 -26.5q-22 0 -37.5 11.5z" />
         <glyph glyph-name="ohungarumlaut" unicode="ő" d="M102.5 22q-40.5 36 -40.5 123q0 61 22 168q19 94 60.5 166.5t98.5 112.5t121 40q92 0 133 -36t41 -123q0 -68 -22 -168q-20 -94 -61.5 -166.5t-98 -112.5t-120.5 -40q-93 0 -133.5 36zM332.5 71.5q45.5 34.5 80 97t51.5 144.5q20 95 20 149q0 66 -28.5 92.5t-93.5 26.5 q-49 0 -94.5 -34.5t-79.5 -97t-52 -144.5q-20 -95 -20 -149q0 -65 28.5 -92t93.5 -27q49 0 94.5 34.5zM403 807l-162 -122l-30 39l163 121zM582 807l-162 -122l-30 39l163 121z" />
         <glyph glyph-name="omacron" unicode="ō" d="M102.5 22q-40.5 36 -40.5 123q0 61 22 168q19 94 60.5 166.5t98.5 112.5t121 40q92 0 133 -36t41 -123q0 -68 -22 -168q-20 -94 -61.5 -166.5t-98 -112.5t-120.5 -40q-93 0 -133.5 36zM332.5 71.5q45.5 34.5 80 97t51.5 144.5q20 95 20 149q0 66 -28.5 92.5t-93.5 26.5 q-49 0 -94.5 -34.5t-79.5 -97t-52 -144.5q-20 -95 -20 -149q0 -65 28.5 -92t93.5 -27q49 0 94.5 34.5zM527 722h-279l11 50h279z" />
         <glyph glyph-name="oslash" unicode="ø" d="M592 652l-69 -91q16 -33 16 -88q0 -64 -23 -168q-20 -94 -61.5 -166.5t-98 -112.5t-120.5 -40q-88 0 -127 31l-38 -50h-65l70 93q-14 31 -14 85q0 68 22 168q19 94 60.5 166.5t98.5 112.5t121 40q85 0 126 -30l38 50h64zM117 158q0 -24 3 -42l334 439q-27 26 -92 26 q-49 0 -94.5 -34.5t-79.5 -97t-52 -144.5q-19 -89 -19 -147zM484 462q0 27 -4 43l-335 -441q28 -27 93 -27q49 0 94.5 34.5t80 97t51.5 144.5q20 95 20 149z" />
         <glyph glyph-name="otilde" unicode="õ" d="M102.5 22q-40.5 36 -40.5 123q0 61 22 168q19 94 60.5 166.5t98.5 112.5t121 40q92 0 133 -36t41 -123q0 -68 -22 -168q-20 -94 -61.5 -166.5t-98 -112.5t-120.5 -40q-93 0 -133.5 36zM332.5 71.5q45.5 34.5 80 97t51.5 144.5q20 95 20 149q0 66 -28.5 92.5t-93.5 26.5 q-49 0 -94.5 -34.5t-79.5 -97t-52 -144.5q-20 -95 -20 -149q0 -65 28.5 -92t93.5 -27q49 0 94.5 34.5zM417.5 711.5q-15.5 11.5 -37.5 34.5q-16 17 -24.5 24t-18.5 7q-20 0 -29.5 -13t-14.5 -38h-55q10 47 36.5 74t63.5 27q21 0 37 -11.5t37 -33.5q14 -16 24 -24t20 -8 q21 0 30.5 12.5t13.5 35.5h54q-8 -45 -35.5 -71.5t-63.5 -26.5q-22 0 -37.5 11.5z" />
         <glyph glyph-name="oe" unicode="œ" d="M577 586q26 -46 26 -129q0 -67 -18 -153h-257q-21 -93 -21 -156q0 -54 15 -82.5t42 -28.5q22 0 56 23.5t67 60.5l40 -35q-38 -45 -84 -72.5t-81 -27.5q-42 0 -71 29.5t-35 78.5q-28 -49 -71.5 -78.5t-87.5 -29.5q-50 0 -76.5 44.5t-26.5 123.5q0 69 21 159 q22 94 59 166.5t83 112.5t94 40q93 0 95 -130q27 59 69.5 94.5t86.5 35.5q49 0 75 -46zM200.5 106q46.5 69 73.5 207q18 96 18 162q0 51 -11 78.5t-32 27.5q-51 0 -101 -76t-81 -200q-21 -88 -21 -153q0 -54 14 -84.5t39 -30.5q55 0 101.5 69zM541 355q11 64 11 110 q0 54 -13.5 85t-38.5 31q-47 0 -91 -62.5t-69 -164.5z" />
         <glyph glyph-name="p" unicode="p" d="M517.5 598q38.5 -34 38.5 -116q0 -60 -24 -177q-19 -95 -58.5 -167t-94 -112t-117.5 -40q-60 0 -100 13.5t-44 41.5l-48 -223h-55l100 469q1 8 5 26q1 7 5 21l41 197l2 19q0 14 -9.5 22.5t-25.5 8.5q-12 0 -24.5 -6t-21.5 -17l-26 42q14 14 39.5 23t51.5 9q32 0 51 -16.5 t19 -52.5q0 -13 -1 -20q21 41 69.5 65t99.5 24q89 0 127.5 -34zM503 473q0 59 -26.5 83.5t-88.5 24.5q-52 0 -90.5 -21t-68.5 -75t-50 -150l-17 -83q-17 -88 -17 -129q0 -38 12.5 -56.5t36.5 -24t70 -5.5q74 0 131.5 75t84.5 201q23 104 23 160z" />
         <glyph glyph-name="thorn" unicode="þ" d="M497.5 598q38.5 -34 38.5 -116q0 -60 -24 -177q-20 -95 -59.5 -167t-93.5 -112t-117 -40q-60 0 -100 13.5t-44 41.5l-48 -223h-55l208 982h54l-56 -258q21 41 69.5 65.5t99.5 24.5q89 0 127.5 -34zM482 473q0 59 -26.5 83.5t-87.5 24.5q-55 0 -93.5 -23t-69 -83 t-53.5 -170q-27 -127 -27 -182q0 -39 12.5 -57.5t36.5 -23.5t70 -5q74 0 131.5 75t84.5 201q22 107 22 160z" />
         <glyph glyph-name="q" unicode="q" d="M509 618h54l-169 -800h-55l54 251q-18 -34 -67 -58.5t-100 -24.5q-89 0 -127.5 34t-38.5 116q0 60 24 177q20 95 59.5 167t93.5 112t117 40q65 0 100.5 -20.5t39.5 -51.5zM320 57.5q39 20.5 69 77t51 159.5l12 61q17 87 17 131q0 39 -12 59.5t-37 28t-68 7.5 q-74 0 -131.5 -75t-84.5 -201q-23 -104 -23 -160q0 -59 26.5 -83.5t88.5 -24.5q53 0 92 20.5z" />
         <glyph glyph-name="r" unicode="r" d="M441 55.5q24 18.5 37 48.5l50 -19q-17 -44 -55.5 -71.5t-83.5 -27.5t-72.5 29.5t-27.5 78.5q0 85 38 196.5t101 213.5q-49 -25 -100.5 -40t-88.5 -15h-17q-37 -85 -107 -164l-34 44q59 61 89 128q-45 11 -70.5 35t-25.5 58q0 37 25 59.5t66 22.5q35 0 57 -26t22 -69 q0 -15 -5 -37h1q45 0 114.5 27t138.5 72l39 -27q-85 -127 -136.5 -257t-51.5 -220q0 -26 12.5 -42t33.5 -16q27 0 51 18.5zM142 522.5q16 -12.5 44 -17.5q5 20 5 35q0 20 -8.5 32.5t-24.5 12.5q-13 0 -22.5 -9.5t-9.5 -23.5q0 -17 16 -29.5z" />
         <glyph glyph-name="racute" unicode="ŕ" d="M441 55.5q24 18.5 37 48.5l50 -19q-17 -44 -55.5 -71.5t-83.5 -27.5t-72.5 29.5t-27.5 78.5q0 85 38 196.5t101 213.5q-49 -25 -100.5 -40t-88.5 -15h-17q-37 -85 -107 -164l-34 44q59 61 89 128q-45 11 -70.5 35t-25.5 58q0 37 25 59.5t66 22.5q35 0 57 -26t22 -69 q0 -15 -5 -37h1q45 0 114.5 27t138.5 72l39 -27q-85 -127 -136.5 -257t-51.5 -220q0 -26 12.5 -42t33.5 -16q27 0 51 18.5zM142 522.5q16 -12.5 44 -17.5q5 20 5 35q0 20 -8.5 32.5t-24.5 12.5q-13 0 -22.5 -9.5t-9.5 -23.5q0 -17 16 -29.5zM534 807l-162 -122l-30 39 l162 121z" />
         <glyph glyph-name="rcaron" unicode="ř" d="M441 55.5q24 18.5 37 48.5l50 -19q-17 -44 -55.5 -71.5t-83.5 -27.5t-72.5 29.5t-27.5 78.5q0 85 38 196.5t101 213.5q-49 -25 -100.5 -40t-88.5 -15h-17q-37 -85 -107 -164l-34 44q59 61 89 128q-45 11 -70.5 35t-25.5 58q0 37 25 59.5t66 22.5q35 0 57 -26t22 -69 q0 -15 -5 -37h1q45 0 114.5 27t138.5 72l39 -27q-85 -127 -136.5 -257t-51.5 -220q0 -26 12.5 -42t33.5 -16q27 0 51 18.5zM142 522.5q16 -12.5 44 -17.5q5 20 5 35q0 20 -8.5 32.5t-24.5 12.5q-13 0 -22.5 -9.5t-9.5 -23.5q0 -17 16 -29.5zM540 809l-158 -120l-110 118 l47 33l75 -81l109 83z" />
         <glyph glyph-name="uni0157" unicode="ŗ" d="M441 55.5q24 18.5 37 48.5l50 -19q-17 -44 -55.5 -71.5t-83.5 -27.5t-72.5 29.5t-27.5 78.5q0 85 38 196.5t101 213.5q-49 -25 -100.5 -40t-88.5 -15h-17q-37 -85 -107 -164l-34 44q59 61 89 128q-45 11 -70.5 35t-25.5 58q0 37 25 59.5t66 22.5q35 0 57 -26t22 -69 q0 -15 -5 -37h1q45 0 114.5 27t138.5 72l39 -27q-85 -127 -136.5 -257t-51.5 -220q0 -26 12.5 -42t33.5 -16q27 0 51 18.5zM142 522.5q16 -12.5 44 -17.5q5 20 5 35q0 20 -8.5 32.5t-24.5 12.5q-13 0 -22.5 -9.5t-9.5 -23.5q0 -17 16 -29.5zM332 -124q-20 3 -20 27q0 5 2 17 q5 22 14 29.5t33 7.5q22 0 32 -6.5t10 -22.5q0 -5 -2 -17q-6 -26 -36 -70t-69 -89l-40 2z" />
         <glyph glyph-name="s" unicode="s" d="M97.5 17q-53.5 31 -84.5 84l49 23q22 -39 62 -63t84 -24q57 0 98.5 34t63 91t21.5 126q0 34 -10 68.5t-27 58.5q-40 -52 -106 -89t-135 -45l-9 51q64 6 123 40.5t94 85.5q-26 25 -41.5 53.5t-15.5 47.5q0 33 20 53t54 20q36 0 57.5 -20.5t21.5 -54.5q0 -21 -8.5 -47.5 t-24.5 -47.5q28 -35 44.5 -83.5t16.5 -95.5q0 -134 -83 -223q36 12 74.5 33.5t57.5 42.5l34 -35q-44 -52 -130 -83.5t-181 -31.5q-66 0 -119.5 31zM366 556q0 33 -26 33q-12 0 -18.5 -7.5t-6.5 -20.5q0 -16 8 -30.5t25 -34.5q18 31 18 60z" />
         <glyph glyph-name="sacute" unicode="ś" d="M97.5 17q-53.5 31 -84.5 84l49 23q22 -39 62 -63t84 -24q57 0 98.5 34t63 91t21.5 126q0 34 -10 68.5t-27 58.5q-40 -52 -106 -89t-135 -45l-9 51q64 6 123 40.5t94 85.5q-26 25 -41.5 53.5t-15.5 47.5q0 33 20 53t54 20q36 0 57.5 -20.5t21.5 -54.5q0 -21 -8.5 -47.5 t-24.5 -47.5q28 -35 44.5 -83.5t16.5 -95.5q0 -134 -83 -223q36 12 74.5 33.5t57.5 42.5l34 -35q-44 -52 -130 -83.5t-181 -31.5q-66 0 -119.5 31zM366 556q0 33 -26 33q-12 0 -18.5 -7.5t-6.5 -20.5q0 -16 8 -30.5t25 -34.5q18 31 18 60zM526 807l-162 -122l-30 39l162 121 z" />
         <glyph glyph-name="scaron" unicode="š" d="M97.5 17q-53.5 31 -84.5 84l49 23q22 -39 62 -63t84 -24q57 0 98.5 34t63 91t21.5 126q0 34 -10 68.5t-27 58.5q-40 -52 -106 -89t-135 -45l-9 51q64 6 123 40.5t94 85.5q-26 25 -41.5 53.5t-15.5 47.5q0 33 20 53t54 20q36 0 57.5 -20.5t21.5 -54.5q0 -21 -8.5 -47.5 t-24.5 -47.5q28 -35 44.5 -83.5t16.5 -95.5q0 -134 -83 -223q36 12 74.5 33.5t57.5 42.5l34 -35q-44 -52 -130 -83.5t-181 -31.5q-66 0 -119.5 31zM366 556q0 33 -26 33q-12 0 -18.5 -7.5t-6.5 -20.5q0 -16 8 -30.5t25 -34.5q18 31 18 60zM532 809l-158 -120l-110 118l47 33 l75 -81l109 83z" />
         <glyph glyph-name="scedilla" unicode="ş" d="M528 101q-40 -48 -117 -78.5t-165 -35.5l-7 -28q28 -7 44 -24t16 -40q0 -9 -1 -14q-7 -37 -39.5 -59.5t-79.5 -22.5q-27 0 -50 9t-35 23l29 42q10 -10 26 -16.5t31 -6.5q27 0 46 12t19 31q0 11 -17.5 17.5t-48.5 6.5l14 70q-59 6 -106 36t-74 78l49 23q22 -39 62 -63 t84 -24q57 0 98.5 34t63 91t21.5 126q0 34 -10 68.5t-27 58.5q-40 -52 -106 -89t-135 -45l-9 51q64 6 123 40.5t94 85.5q-26 25 -41.5 53.5t-15.5 47.5q0 33 20 53t54 20q36 0 57.5 -20.5t21.5 -54.5q0 -21 -8.5 -47.5t-24.5 -47.5q28 -35 44.5 -83.5t16.5 -95.5 q0 -134 -83 -223q36 12 74.5 33.5t57.5 42.5zM340 589q-12 0 -18.5 -7.5t-6.5 -20.5q0 -16 8 -30.5t25 -34.5q18 31 18 60q0 33 -26 33z" />
         <glyph glyph-name="scircumflex" unicode="ŝ" d="M97.5 17q-53.5 31 -84.5 84l49 23q22 -39 62 -63t84 -24q57 0 98.5 34t63 91t21.5 126q0 34 -10 68.5t-27 58.5q-40 -52 -106 -89t-135 -45l-9 51q64 6 123 40.5t94 85.5q-26 25 -41.5 53.5t-15.5 47.5q0 33 20 53t54 20q36 0 57.5 -20.5t21.5 -54.5q0 -21 -8.5 -47.5 t-24.5 -47.5q28 -35 44.5 -83.5t16.5 -95.5q0 -134 -83 -223q36 12 74.5 33.5t57.5 42.5l34 -35q-44 -52 -130 -83.5t-181 -31.5q-66 0 -119.5 31zM366 556q0 33 -26 33q-12 0 -18.5 -7.5t-6.5 -20.5q0 -16 8 -30.5t25 -34.5q18 31 18 60zM512 715l-49 -33l-72 83l-109 -81 l-37 33l158 118z" />
         <glyph glyph-name="uni0219" unicode="ș" d="M97.5 17q-53.5 31 -84.5 84l49 23q22 -39 62 -63t84 -24q57 0 98.5 34t63 91t21.5 126q0 34 -10 68.5t-27 58.5q-40 -52 -106 -89t-135 -45l-9 51q64 6 123 40.5t94 85.5q-26 25 -41.5 53.5t-15.5 47.5q0 33 20 53t54 20q36 0 57.5 -20.5t21.5 -54.5q0 -21 -8.5 -47.5 t-24.5 -47.5q28 -35 44.5 -83.5t16.5 -95.5q0 -134 -83 -223q36 12 74.5 33.5t57.5 42.5l34 -35q-44 -52 -130 -83.5t-181 -31.5q-66 0 -119.5 31zM366 556q0 33 -26 33q-12 0 -18.5 -7.5t-6.5 -20.5q0 -16 8 -30.5t25 -34.5q18 31 18 60zM194 -124q-20 3 -20 27q0 5 2 17 q5 22 14 29.5t33 7.5q22 0 32 -6.5t10 -22.5q0 -5 -2 -17q-6 -26 -36 -70t-69 -89l-40 2z" />
         <glyph glyph-name="germandbls" unicode="ß" d="M497 385q17 -26 17 -70q0 -38 -12 -94q-18 -86 -47.5 -133t-80 -67.5t-134.5 -20.5h-59l11 51h55q63 0 102 16.5t62.5 55t38.5 106.5q10 50 10 77q0 52 -31 73t-103 21h-40l11 50h10q63 0 101.5 14.5t61 47.5t35.5 93q8 42 8 68q0 50 -30.5 70t-102.5 20 q-54 0 -87.5 -15.5t-54.5 -50.5t-35 -98l-128 -599h-54l128 603q18 82 45 127t71 64.5t117 19.5q99 0 142.5 -29t43.5 -99q0 -36 -11 -89q-15 -71 -39.5 -107t-75.5 -62q38 -17 55 -43z" />
         <glyph glyph-name="t" unicode="t" d="M192.5 15.5q-33.5 29.5 -33.5 94.5q0 41 12 98l77 359h-124l11 51h124l38 182h54l-38 -182h208l-11 -51h-208l-77 -363q-11 -52 -11 -83q0 -44 21 -64t68 -20q54 0 82.5 13.5t48.5 47.5l49 -21q-31 -53 -70 -72t-112 -19q-75 0 -108.5 29.5z" />
         <glyph glyph-name="tbar" unicode="ŧ" d="M510 567h-208l-35 -167h208l-10 -51h-209l-31 -145q-11 -52 -11 -83q0 -44 21 -64t68 -20q54 0 82.5 13.5t48.5 47.5l49 -21q-31 -53 -70 -72t-112 -19q-75 0 -108.5 29.5t-33.5 94.5q0 41 12 98l30 141h-123l10 51h124l36 167h-124l11 51h124l38 182h54l-38 -182h208z " />
         <glyph glyph-name="tcaron" unicode="ť" d="M446 671h-44l45 250h60zM192.5 15.5q-33.5 29.5 -33.5 94.5q0 41 12 98l77 359h-124l11 51h124l38 182h54l-38 -182h208l-11 -51h-208l-77 -363q-11 -52 -11 -83q0 -44 21 -64t68 -20q54 0 82.5 13.5t48.5 47.5l49 -21q-31 -53 -70 -72t-112 -19q-75 0 -108.5 29.5z" />
         <glyph glyph-name="uni0163" unicode="ţ" d="M302 567l-77 -363q-11 -52 -11 -83q0 -44 21 -64t68 -20q54 0 82.5 13.5t48.5 47.5l49 -21q-31 -52 -69.5 -71.5t-109.5 -19.5l-7 -27q28 -7 44 -24t16 -40q0 -9 -1 -14q-7 -37 -39.5 -59.5t-79.5 -22.5q-27 0 -50 9t-35 23l29 42q10 -10 26 -16.5t31 -6.5q27 0 46 12 t19 31q0 11 -17.5 17.5t-48.5 6.5l14 73q-48 8 -70 37.5t-22 82.5q0 41 12 98l77 359h-124l11 51h124l38 182h54l-38 -182h208l-11 -51h-208z" />
         <glyph glyph-name="uni021B" unicode="ț" d="M192.5 15.5q-33.5 29.5 -33.5 94.5q0 41 12 98l77 359h-124l11 51h124l38 182h54l-38 -182h208l-11 -51h-208l-77 -363q-11 -52 -11 -83q0 -44 21 -64t68 -20q54 0 82.5 13.5t48.5 47.5l49 -21q-31 -53 -70 -72t-112 -19q-75 0 -108.5 29.5zM252 -124q-20 3 -20 27 q0 5 2 17q5 22 14 29.5t33 7.5q22 0 32 -6.5t10 -22.5q0 -5 -2 -17q-6 -26 -36 -70t-69 -89l-40 2z" />
         <glyph glyph-name="u" unicode="u" d="M49 600q14 14 39.5 23t51.5 9q33 0 53 -16.5t20 -43.5q0 -42 -22.5 -140.5t-59.5 -217.5q-17 -57 -17 -92q0 -85 89 -85q45 0 94.5 47.5t88 117t50.5 127.5l61 289h55l-113 -531q-2 -12 -2 -19q0 -14 9.5 -22.5t25.5 -8.5q11 0 23.5 6t23.5 16l25 -41q-14 -14 -39.5 -23 t-51.5 -9q-30 0 -51.5 19t-21.5 52q0 11 3 23l18 82q-97 -176 -200 -176q-145 0 -145 123q0 45 21 110q36 110 57.5 198.5t21.5 129.5q0 16 -9.5 25t-25.5 9q-12 0 -24.5 -6t-21.5 -17z" />
         <glyph glyph-name="uacute" unicode="ú" d="M49 600q14 14 39.5 23t51.5 9q33 0 53 -16.5t20 -43.5q0 -42 -22.5 -140.5t-59.5 -217.5q-17 -57 -17 -92q0 -85 89 -85q45 0 94.5 47.5t88 117t50.5 127.5l61 289h55l-113 -531q-2 -12 -2 -19q0 -14 9.5 -22.5t25.5 -8.5q11 0 23.5 6t23.5 16l25 -41q-14 -14 -39.5 -23 t-51.5 -9q-30 0 -51.5 19t-21.5 52q0 11 3 23l18 82q-97 -176 -200 -176q-145 0 -145 123q0 45 21 110q36 110 57.5 198.5t21.5 129.5q0 16 -9.5 25t-25.5 9q-12 0 -24.5 -6t-21.5 -17zM525 807l-162 -122l-30 39l162 121z" />
         <glyph glyph-name="ubreve" unicode="ŭ" d="M49 600q14 14 39.5 23t51.5 9q33 0 53 -16.5t20 -43.5q0 -42 -22.5 -140.5t-59.5 -217.5q-17 -57 -17 -92q0 -85 89 -85q45 0 94.5 47.5t88 117t50.5 127.5l61 289h55l-113 -531q-2 -12 -2 -19q0 -14 9.5 -22.5t25.5 -8.5q11 0 23.5 6t23.5 16l25 -41q-14 -14 -39.5 -23 t-51.5 -9q-30 0 -51.5 19t-21.5 52q0 11 3 23l18 82q-97 -176 -200 -176q-145 0 -145 123q0 45 21 110q36 110 57.5 198.5t21.5 129.5q0 16 -9.5 25t-25.5 9q-12 0 -24.5 -6t-21.5 -17zM293 720q-26 17 -26 56q0 19 6 46h54q-4 -24 -4 -31q0 -22 12.5 -30t44.5 -8 q44 0 64.5 15.5t28.5 53.5h54q-9 -47 -25.5 -72.5t-45.5 -36t-78 -10.5q-59 0 -85 17z" />
         <glyph glyph-name="uni01D4" unicode="ǔ" d="M49 600q14 14 39.5 23t51.5 9q33 0 53 -16.5t20 -43.5q0 -42 -22.5 -140.5t-59.5 -217.5q-17 -57 -17 -92q0 -85 89 -85q45 0 94.5 47.5t88 117t50.5 127.5l61 289h55l-113 -531q-2 -12 -2 -19q0 -14 9.5 -22.5t25.5 -8.5q11 0 23.5 6t23.5 16l25 -41q-14 -14 -39.5 -23 t-51.5 -9q-30 0 -51.5 19t-21.5 52q0 11 3 23l18 82q-97 -176 -200 -176q-145 0 -145 123q0 45 21 110q36 110 57.5 198.5t21.5 129.5q0 16 -9.5 25t-25.5 9q-12 0 -24.5 -6t-21.5 -17zM531 809l-158 -120l-110 118l47 33l75 -81l109 83z" />
         <glyph glyph-name="ucircumflex" unicode="û" d="M49 600q14 14 39.5 23t51.5 9q33 0 53 -16.5t20 -43.5q0 -42 -22.5 -140.5t-59.5 -217.5q-17 -57 -17 -92q0 -85 89 -85q45 0 94.5 47.5t88 117t50.5 127.5l61 289h55l-113 -531q-2 -12 -2 -19q0 -14 9.5 -22.5t25.5 -8.5q11 0 23.5 6t23.5 16l25 -41q-14 -14 -39.5 -23 t-51.5 -9q-30 0 -51.5 19t-21.5 52q0 11 3 23l18 82q-97 -176 -200 -176q-145 0 -145 123q0 45 21 110q36 110 57.5 198.5t21.5 129.5q0 16 -9.5 25t-25.5 9q-12 0 -24.5 -6t-21.5 -17zM511 715l-49 -33l-72 83l-109 -81l-37 33l158 118z" />
         <glyph glyph-name="udieresis" unicode="ü" d="M49 600q14 14 39.5 23t51.5 9q33 0 53 -16.5t20 -43.5q0 -42 -22.5 -140.5t-59.5 -217.5q-17 -57 -17 -92q0 -85 89 -85q45 0 94.5 47.5t88 117t50.5 127.5l61 289h55l-113 -531q-2 -12 -2 -19q0 -14 9.5 -22.5t25.5 -8.5q11 0 23.5 6t23.5 16l25 -41q-14 -14 -39.5 -23 t-51.5 -9q-30 0 -51.5 19t-21.5 52q0 11 3 23l18 82q-97 -176 -200 -176q-145 0 -145 123q0 45 21 110q36 110 57.5 198.5t21.5 129.5q0 16 -9.5 25t-25.5 9q-12 0 -24.5 -6t-21.5 -17zM237.5 737.5q-12.5 8.5 -12.5 27.5q0 10 3 23q5 28 18 38t44 10q28 0 40.5 -8t12.5 -27 q0 -10 -3 -22q-6 -29 -19 -39.5t-44 -10.5q-27 0 -39.5 8.5zM453.5 737.5q-12.5 8.5 -12.5 27.5q0 10 3 23q5 28 18 38t44 10q28 0 40.5 -8t12.5 -27q0 -10 -3 -22q-6 -29 -19 -39.5t-44 -10.5q-27 0 -39.5 8.5z" />
         <glyph glyph-name="uni01D8" unicode="ǘ" d="M49 600q14 14 39.5 23t51.5 9q33 0 53 -16.5t20 -43.5q0 -42 -22.5 -140.5t-59.5 -217.5q-17 -57 -17 -92q0 -85 89 -85q45 0 94.5 47.5t88 117t50.5 127.5l61 289h55l-113 -531q-2 -12 -2 -19q0 -14 9.5 -22.5t25.5 -8.5q11 0 23.5 6t23.5 16l25 -41q-14 -14 -39.5 -23 t-51.5 -9q-30 0 -51.5 19t-21.5 52q0 11 3 23l18 82q-97 -176 -200 -176q-145 0 -145 123q0 45 21 110q36 110 57.5 198.5t21.5 129.5q0 16 -9.5 25t-25.5 9q-12 0 -24.5 -6t-21.5 -17zM237.5 737.5q-12.5 8.5 -12.5 27.5q0 10 3 23q5 28 18 38t44 10q28 0 40.5 -8t12.5 -27 q0 -10 -3 -22q-6 -29 -19 -39.5t-44 -10.5q-27 0 -39.5 8.5zM453.5 737.5q-12.5 8.5 -12.5 27.5q0 10 3 23q5 28 18 38t44 10q28 0 40.5 -8t12.5 -27q0 -10 -3 -22q-6 -29 -19 -39.5t-44 -10.5q-27 0 -39.5 8.5zM570 1022l-162 -122l-30 39l162 121z" />
         <glyph glyph-name="uni01DA" unicode="ǚ" d="M49 600q14 14 39.5 23t51.5 9q33 0 53 -16.5t20 -43.5q0 -42 -22.5 -140.5t-59.5 -217.5q-17 -57 -17 -92q0 -85 89 -85q45 0 94.5 47.5t88 117t50.5 127.5l61 289h55l-113 -531q-2 -12 -2 -19q0 -14 9.5 -22.5t25.5 -8.5q11 0 23.5 6t23.5 16l25 -41q-14 -14 -39.5 -23 t-51.5 -9q-30 0 -51.5 19t-21.5 52q0 11 3 23l18 82q-97 -176 -200 -176q-145 0 -145 123q0 45 21 110q36 110 57.5 198.5t21.5 129.5q0 16 -9.5 25t-25.5 9q-12 0 -24.5 -6t-21.5 -17zM237.5 737.5q-12.5 8.5 -12.5 27.5q0 10 3 23q5 28 18 38t44 10q28 0 40.5 -8t12.5 -27 q0 -10 -3 -22q-6 -29 -19 -39.5t-44 -10.5q-27 0 -39.5 8.5zM453.5 737.5q-12.5 8.5 -12.5 27.5q0 10 3 23q5 28 18 38t44 10q28 0 40.5 -8t12.5 -27q0 -10 -3 -22q-6 -29 -19 -39.5t-44 -10.5q-27 0 -39.5 8.5zM576 1024l-158 -120l-110 118l47 33l75 -81l109 83z" />
         <glyph glyph-name="uni01DC" unicode="ǜ" d="M49 600q14 14 39.5 23t51.5 9q33 0 53 -16.5t20 -43.5q0 -42 -22.5 -140.5t-59.5 -217.5q-17 -57 -17 -92q0 -85 89 -85q45 0 94.5 47.5t88 117t50.5 127.5l61 289h55l-113 -531q-2 -12 -2 -19q0 -14 9.5 -22.5t25.5 -8.5q11 0 23.5 6t23.5 16l25 -41q-14 -14 -39.5 -23 t-51.5 -9q-30 0 -51.5 19t-21.5 52q0 11 3 23l18 82q-97 -176 -200 -176q-145 0 -145 123q0 45 21 110q36 110 57.5 198.5t21.5 129.5q0 16 -9.5 25t-25.5 9q-12 0 -24.5 -6t-21.5 -17zM237.5 737.5q-12.5 8.5 -12.5 27.5q0 10 3 23q5 28 18 38t44 10q28 0 40.5 -8t12.5 -27 q0 -10 -3 -22q-6 -29 -19 -39.5t-44 -10.5q-27 0 -39.5 8.5zM453.5 737.5q-12.5 8.5 -12.5 27.5q0 10 3 23q5 28 18 38t44 10q28 0 40.5 -8t12.5 -27q0 -10 -3 -22q-6 -29 -19 -39.5t-44 -10.5q-27 0 -39.5 8.5zM471 939l-43 -39l-115 122l43 38z" />
         <glyph glyph-name="uni01D6" unicode="ǖ" d="M49 600q14 14 39.5 23t51.5 9q33 0 53 -16.5t20 -43.5q0 -42 -22.5 -140.5t-59.5 -217.5q-17 -57 -17 -92q0 -85 89 -85q45 0 94.5 47.5t88 117t50.5 127.5l61 289h55l-113 -531q-2 -12 -2 -19q0 -14 9.5 -22.5t25.5 -8.5q11 0 23.5 6t23.5 16l25 -41q-14 -14 -39.5 -23 t-51.5 -9q-30 0 -51.5 19t-21.5 52q0 11 3 23l18 82q-97 -176 -200 -176q-145 0 -145 123q0 45 21 110q36 110 57.5 198.5t21.5 129.5q0 16 -9.5 25t-25.5 9q-12 0 -24.5 -6t-21.5 -17zM237.5 737.5q-12.5 8.5 -12.5 27.5q0 10 3 23q5 28 18 38t44 10q28 0 40.5 -8t12.5 -27 q0 -10 -3 -22q-6 -29 -19 -39.5t-44 -10.5q-27 0 -39.5 8.5zM453.5 737.5q-12.5 8.5 -12.5 27.5q0 10 3 23q5 28 18 38t44 10q28 0 40.5 -8t12.5 -27q0 -10 -3 -22q-6 -29 -19 -39.5t-44 -10.5q-27 0 -39.5 8.5zM563 937h-279l11 50h279z" />
         <glyph glyph-name="uni1EE5" unicode="ụ" d="M49 600q14 14 39.5 23t51.5 9q33 0 53 -16.5t20 -43.5q0 -42 -22.5 -140.5t-59.5 -217.5q-17 -57 -17 -92q0 -85 89 -85q45 0 94.5 47.5t88 117t50.5 127.5l61 289h55l-113 -531q-2 -12 -2 -19q0 -14 9.5 -22.5t25.5 -8.5q11 0 23.5 6t23.5 16l25 -41q-14 -14 -39.5 -23 t-51.5 -9q-30 0 -51.5 19t-21.5 52q0 11 3 23l18 82q-97 -176 -200 -176q-145 0 -145 123q0 45 21 110q36 110 57.5 198.5t21.5 129.5q0 16 -9.5 25t-25.5 9q-12 0 -24.5 -6t-21.5 -17zM111 -213.5q-12 7.5 -12 26.5q0 11 3 24q7 28 21 39t43 11t41 -7.5t12 -26.5 q0 -9 -3 -23q-6 -29 -20 -40t-44 -11q-29 0 -41 7.5z" />
         <glyph glyph-name="ugrave" unicode="ù" d="M49 600q14 14 39.5 23t51.5 9q33 0 53 -16.5t20 -43.5q0 -42 -22.5 -140.5t-59.5 -217.5q-17 -57 -17 -92q0 -85 89 -85q45 0 94.5 47.5t88 117t50.5 127.5l61 289h55l-113 -531q-2 -12 -2 -19q0 -14 9.5 -22.5t25.5 -8.5q11 0 23.5 6t23.5 16l25 -41q-14 -14 -39.5 -23 t-51.5 -9q-30 0 -51.5 19t-21.5 52q0 11 3 23l18 82q-97 -176 -200 -176q-145 0 -145 123q0 45 21 110q36 110 57.5 198.5t21.5 129.5q0 16 -9.5 25t-25.5 9q-12 0 -24.5 -6t-21.5 -17zM426 724l-43 -39l-115 122l43 38z" />
         <glyph glyph-name="uni1EE7" unicode="ủ" d="M49 600q14 14 39.5 23t51.5 9q33 0 53 -16.5t20 -43.5q0 -42 -22.5 -140.5t-59.5 -217.5q-17 -57 -17 -92q0 -85 89 -85q45 0 94.5 47.5t88 117t50.5 127.5l61 289h55l-113 -531q-2 -12 -2 -19q0 -14 9.5 -22.5t25.5 -8.5q11 0 23.5 6t23.5 16l25 -41q-14 -14 -39.5 -23 t-51.5 -9q-30 0 -51.5 19t-21.5 52q0 11 3 23l18 82q-97 -176 -200 -176q-145 0 -145 123q0 45 21 110q36 110 57.5 198.5t21.5 129.5q0 16 -9.5 25t-25.5 9q-12 0 -24.5 -6t-21.5 -17zM342 705q37 9 58 25.5t21 34.5q0 10 -8 16.5t-18 6.5q-23 0 -49.5 -12t-47.5 -28l10 63 q18 12 43 19.5t45 7.5q35 0 57 -18t22 -49q0 -12 -2 -19q-6 -33 -38.5 -59t-84.5 -38z" />
         <glyph glyph-name="uhorn" unicode="ư" d="M680 797h55l-28 -135q-11 -55 -47 -88.5t-84 -33.5q-18 0 -38 10l-99 -463q-2 -12 -2 -19q0 -14 9.5 -22.5t25.5 -8.5q11 0 23.5 6t23.5 16l25 -41q-14 -14 -39.5 -23t-51.5 -9q-30 0 -51.5 19t-21.5 52q0 11 3 23l18 82q-97 -176 -200 -176q-145 0 -145 123q0 45 21 110 q36 110 57.5 198.5t21.5 129.5q0 16 -9.5 25t-25.5 9q-12 0 -24.5 -6t-21.5 -17l-26 42q14 14 39.5 23t51.5 9q33 0 53 -16.5t20 -43.5q0 -42 -22.5 -140.5t-59.5 -217.5q-17 -57 -17 -92q0 -85 89 -85q45 0 94.5 47.5t88 117t50.5 127.5l61 289h55l-5 -23q12 -4 30 -4 q26 0 47 21t29 54z" />
         <glyph glyph-name="uni1EE9" unicode="ứ" d="M680 797h55l-28 -135q-11 -55 -47 -88.5t-84 -33.5q-18 0 -38 10l-99 -463q-2 -12 -2 -19q0 -14 9.5 -22.5t25.5 -8.5q11 0 23.5 6t23.5 16l25 -41q-14 -14 -39.5 -23t-51.5 -9q-30 0 -51.5 19t-21.5 52q0 11 3 23l18 82q-97 -176 -200 -176q-145 0 -145 123q0 45 21 110 q36 110 57.5 198.5t21.5 129.5q0 16 -9.5 25t-25.5 9q-12 0 -24.5 -6t-21.5 -17l-26 42q14 14 39.5 23t51.5 9q33 0 53 -16.5t20 -43.5q0 -42 -22.5 -140.5t-59.5 -217.5q-17 -57 -17 -92q0 -85 89 -85q45 0 94.5 47.5t88 117t50.5 127.5l61 289h55l-5 -23q12 -4 30 -4 q26 0 47 21t29 54zM525 807l-162 -122l-30 39l162 121z" />
         <glyph glyph-name="uni1EF1" unicode="ự" d="M680 797h55l-28 -135q-11 -55 -47 -88.5t-84 -33.5q-18 0 -38 10l-99 -463q-2 -12 -2 -19q0 -14 9.5 -22.5t25.5 -8.5q11 0 23.5 6t23.5 16l25 -41q-14 -14 -39.5 -23t-51.5 -9q-30 0 -51.5 19t-21.5 52q0 11 3 23l18 82q-97 -176 -200 -176q-145 0 -145 123q0 45 21 110 q36 110 57.5 198.5t21.5 129.5q0 16 -9.5 25t-25.5 9q-12 0 -24.5 -6t-21.5 -17l-26 42q14 14 39.5 23t51.5 9q33 0 53 -16.5t20 -43.5q0 -42 -22.5 -140.5t-59.5 -217.5q-17 -57 -17 -92q0 -85 89 -85q45 0 94.5 47.5t88 117t50.5 127.5l61 289h55l-5 -23q12 -4 30 -4 q26 0 47 21t29 54zM111 -213.5q-12 7.5 -12 26.5q0 11 3 24q7 28 21 39t43 11t41 -7.5t12 -26.5q0 -9 -3 -23q-6 -29 -20 -40t-44 -11q-29 0 -41 7.5z" />
         <glyph glyph-name="uni1EEB" unicode="ừ" d="M680 797h55l-28 -135q-11 -55 -47 -88.5t-84 -33.5q-18 0 -38 10l-99 -463q-2 -12 -2 -19q0 -14 9.5 -22.5t25.5 -8.5q11 0 23.5 6t23.5 16l25 -41q-14 -14 -39.5 -23t-51.5 -9q-30 0 -51.5 19t-21.5 52q0 11 3 23l18 82q-97 -176 -200 -176q-145 0 -145 123q0 45 21 110 q36 110 57.5 198.5t21.5 129.5q0 16 -9.5 25t-25.5 9q-12 0 -24.5 -6t-21.5 -17l-26 42q14 14 39.5 23t51.5 9q33 0 53 -16.5t20 -43.5q0 -42 -22.5 -140.5t-59.5 -217.5q-17 -57 -17 -92q0 -85 89 -85q45 0 94.5 47.5t88 117t50.5 127.5l61 289h55l-5 -23q12 -4 30 -4 q26 0 47 21t29 54zM426 724l-43 -39l-115 122l43 38z" />
         <glyph glyph-name="uni1EED" unicode="ử" d="M680 797h55l-28 -135q-11 -55 -47 -88.5t-84 -33.5q-18 0 -38 10l-99 -463q-2 -12 -2 -19q0 -14 9.5 -22.5t25.5 -8.5q11 0 23.5 6t23.5 16l25 -41q-14 -14 -39.5 -23t-51.5 -9q-30 0 -51.5 19t-21.5 52q0 11 3 23l18 82q-97 -176 -200 -176q-145 0 -145 123q0 45 21 110 q36 110 57.5 198.5t21.5 129.5q0 16 -9.5 25t-25.5 9q-12 0 -24.5 -6t-21.5 -17l-26 42q14 14 39.5 23t51.5 9q33 0 53 -16.5t20 -43.5q0 -42 -22.5 -140.5t-59.5 -217.5q-17 -57 -17 -92q0 -85 89 -85q45 0 94.5 47.5t88 117t50.5 127.5l61 289h55l-5 -23q12 -4 30 -4 q26 0 47 21t29 54zM342 705q37 9 58 25.5t21 34.5q0 10 -8 16.5t-18 6.5q-23 0 -49.5 -12t-47.5 -28l10 63q18 12 43 19.5t45 7.5q35 0 57 -18t22 -49q0 -12 -2 -19q-6 -33 -38.5 -59t-84.5 -38z" />
         <glyph glyph-name="uni1EEF" unicode="ữ" d="M680 797h55l-28 -135q-11 -55 -47 -88.5t-84 -33.5q-18 0 -38 10l-99 -463q-2 -12 -2 -19q0 -14 9.5 -22.5t25.5 -8.5q11 0 23.5 6t23.5 16l25 -41q-14 -14 -39.5 -23t-51.5 -9q-30 0 -51.5 19t-21.5 52q0 11 3 23l18 82q-97 -176 -200 -176q-145 0 -145 123q0 45 21 110 q36 110 57.5 198.5t21.5 129.5q0 16 -9.5 25t-25.5 9q-12 0 -24.5 -6t-21.5 -17l-26 42q14 14 39.5 23t51.5 9q33 0 53 -16.5t20 -43.5q0 -42 -22.5 -140.5t-59.5 -217.5q-17 -57 -17 -92q0 -85 89 -85q45 0 94.5 47.5t88 117t50.5 127.5l61 289h55l-5 -23q12 -4 30 -4 q26 0 47 21t29 54zM408.5 711.5q-15.5 11.5 -37.5 34.5q-16 17 -24.5 24t-18.5 7q-20 0 -29.5 -13t-14.5 -38h-55q10 47 36.5 74t63.5 27q21 0 37 -11.5t37 -33.5q14 -16 24 -24t20 -8q21 0 30.5 12.5t13.5 35.5h54q-8 -45 -35.5 -71.5t-63.5 -26.5q-22 0 -37.5 11.5z" />
         <glyph glyph-name="uhungarumlaut" unicode="ű" d="M49 600q14 14 39.5 23t51.5 9q33 0 53 -16.5t20 -43.5q0 -42 -22.5 -140.5t-59.5 -217.5q-17 -57 -17 -92q0 -85 89 -85q45 0 94.5 47.5t88 117t50.5 127.5l61 289h55l-113 -531q-2 -12 -2 -19q0 -14 9.5 -22.5t25.5 -8.5q11 0 23.5 6t23.5 16l25 -41q-14 -14 -39.5 -23 t-51.5 -9q-30 0 -51.5 19t-21.5 52q0 11 3 23l18 82q-97 -176 -200 -176q-145 0 -145 123q0 45 21 110q36 110 57.5 198.5t21.5 129.5q0 16 -9.5 25t-25.5 9q-12 0 -24.5 -6t-21.5 -17zM394 807l-162 -122l-30 39l163 121zM573 807l-162 -122l-30 39l163 121z" />
         <glyph glyph-name="umacron" unicode="ū" d="M49 600q14 14 39.5 23t51.5 9q33 0 53 -16.5t20 -43.5q0 -42 -22.5 -140.5t-59.5 -217.5q-17 -57 -17 -92q0 -85 89 -85q45 0 94.5 47.5t88 117t50.5 127.5l61 289h55l-113 -531q-2 -12 -2 -19q0 -14 9.5 -22.5t25.5 -8.5q11 0 23.5 6t23.5 16l25 -41q-14 -14 -39.5 -23 t-51.5 -9q-30 0 -51.5 19t-21.5 52q0 11 3 23l18 82q-97 -176 -200 -176q-145 0 -145 123q0 45 21 110q36 110 57.5 198.5t21.5 129.5q0 16 -9.5 25t-25.5 9q-12 0 -24.5 -6t-21.5 -17zM518 722h-279l11 50h279z" />
         <glyph glyph-name="uogonek" unicode="ų" d="M425.5 -54.5q-25.5 -19.5 -25.5 -40.5q1 -16 15 -25.5t38 -9.5q16 0 33 6.5t29 16.5l26 -44q-15 -14 -39 -22t-49 -8q-50 0 -78.5 19t-28.5 56q0 45 84 95q-22 6 -36 24t-14 44q0 11 3 23l18 82q-97 -176 -200 -176q-145 0 -145 123q0 45 21 110q36 110 57.5 198.5 t21.5 129.5q0 16 -9.5 25t-25.5 9q-12 0 -24.5 -6t-21.5 -17l-26 42q14 14 39.5 23t51.5 9q33 0 53 -16.5t20 -43.5q0 -42 -22.5 -140.5t-59.5 -217.5q-17 -57 -17 -92q0 -85 89 -85q45 0 94.5 47.5t88 117t50.5 127.5l61 289h55l-113 -531q-2 -12 -2 -19q0 -14 9.5 -22.5 t25.5 -8.5q11 0 23.5 6t23.5 16l25 -41q-13 -13 -39 -23q-54 -30 -79.5 -49.5z" />
         <glyph glyph-name="uring" unicode="ů" d="M49 600q14 14 39.5 23t51.5 9q33 0 53 -16.5t20 -43.5q0 -42 -22.5 -140.5t-59.5 -217.5q-17 -57 -17 -92q0 -85 89 -85q45 0 94.5 47.5t88 117t50.5 127.5l61 289h55l-113 -531q-2 -12 -2 -19q0 -14 9.5 -22.5t25.5 -8.5q11 0 23.5 6t23.5 16l25 -41q-14 -14 -39.5 -23 t-51.5 -9q-30 0 -51.5 19t-21.5 52q0 11 3 23l18 82q-97 -176 -200 -176q-145 0 -145 123q0 45 21 110q36 110 57.5 198.5t21.5 129.5q0 16 -9.5 25t-25.5 9q-12 0 -24.5 -6t-21.5 -17zM292 712q-26 17 -26 56q0 21 6 48q13 65 44.5 89t101.5 24q59 0 86 -17t27 -58 q0 -20 -6 -46q-9 -44 -25.5 -68.5t-45 -34.5t-77.5 -10q-59 0 -85 17zM443.5 761q20.5 16 28.5 55q3 15 3 26q0 21 -13 29t-46 8q-43 0 -63 -15.5t-28 -55.5q-3 -15 -3 -26q0 -21 13 -29t44 -8q44 0 64.5 16z" />
         <glyph glyph-name="utilde" unicode="ũ" d="M49 600q14 14 39.5 23t51.5 9q33 0 53 -16.5t20 -43.5q0 -42 -22.5 -140.5t-59.5 -217.5q-17 -57 -17 -92q0 -85 89 -85q45 0 94.5 47.5t88 117t50.5 127.5l61 289h55l-113 -531q-2 -12 -2 -19q0 -14 9.5 -22.5t25.5 -8.5q11 0 23.5 6t23.5 16l25 -41q-14 -14 -39.5 -23 t-51.5 -9q-30 0 -51.5 19t-21.5 52q0 11 3 23l18 82q-97 -176 -200 -176q-145 0 -145 123q0 45 21 110q36 110 57.5 198.5t21.5 129.5q0 16 -9.5 25t-25.5 9q-12 0 -24.5 -6t-21.5 -17zM408.5 711.5q-15.5 11.5 -37.5 34.5q-16 17 -24.5 24t-18.5 7q-20 0 -29.5 -13 t-14.5 -38h-55q10 47 36.5 74t63.5 27q21 0 37 -11.5t37 -33.5q14 -16 24 -24t20 -8q21 0 30.5 12.5t13.5 35.5h54q-8 -45 -35.5 -71.5t-63.5 -26.5q-22 0 -37.5 11.5z" />
         <glyph glyph-name="v" unicode="v" d="M205 0l-74 618h55l67 -533q27 50 63 105t43 66q78 120 122 201.5t61 160.5h57q-23 -91 -72.5 -182.5t-136.5 -227.5q-84 -129 -127 -208h-58z" />
         <glyph glyph-name="w" unicode="w" d="M629 618q-21 -94 -57 -188t-94 -224q-13 -30 -40 -93.5t-46 -112.5h-53l-30 306q-30 -62 -96 -166q-11 -18 -37 -61.5t-45 -78.5h-53l24 618h55l-22 -518q20 33 23 38q59 94 92 156.5t46 125.5h54l31 -314q28 66 43 99q61 142 94.5 231.5t54.5 181.5h56z" />
         <glyph glyph-name="wacute" unicode="ẃ" d="M629 618q-21 -94 -57 -188t-94 -224q-13 -30 -40 -93.5t-46 -112.5h-53l-30 306q-30 -62 -96 -166q-11 -18 -37 -61.5t-45 -78.5h-53l24 618h55l-22 -518q20 33 23 38q59 94 92 156.5t46 125.5h54l31 -314q28 66 43 99q61 142 94.5 231.5t54.5 181.5h56zM534 807 l-162 -122l-30 39l162 121z" />
         <glyph glyph-name="wcircumflex" unicode="ŵ" d="M629 618q-21 -94 -57 -188t-94 -224q-13 -30 -40 -93.5t-46 -112.5h-53l-30 306q-30 -62 -96 -166q-11 -18 -37 -61.5t-45 -78.5h-53l24 618h55l-22 -518q20 33 23 38q59 94 92 156.5t46 125.5h54l31 -314q28 66 43 99q61 142 94.5 231.5t54.5 181.5h56zM520 715l-49 -33 l-72 83l-109 -81l-37 33l158 118z" />
         <glyph glyph-name="wdieresis" unicode="ẅ" d="M629 618q-21 -94 -57 -188t-94 -224q-13 -30 -40 -93.5t-46 -112.5h-53l-30 306q-30 -62 -96 -166q-11 -18 -37 -61.5t-45 -78.5h-53l24 618h55l-22 -518q20 33 23 38q59 94 92 156.5t46 125.5h54l31 -314q28 66 43 99q61 142 94.5 231.5t54.5 181.5h56zM246.5 737.5 q-12.5 8.5 -12.5 27.5q0 10 3 23q5 28 18 38t44 10q28 0 40.5 -8t12.5 -27q0 -10 -3 -22q-6 -29 -19 -39.5t-44 -10.5q-27 0 -39.5 8.5zM462.5 737.5q-12.5 8.5 -12.5 27.5q0 10 3 23q5 28 18 38t44 10q28 0 40.5 -8t12.5 -27q0 -10 -3 -22q-6 -29 -19 -39.5t-44 -10.5 q-27 0 -39.5 8.5z" />
         <glyph glyph-name="wgrave" unicode="ẁ" d="M629 618q-21 -94 -57 -188t-94 -224q-13 -30 -40 -93.5t-46 -112.5h-53l-30 306q-30 -62 -96 -166q-11 -18 -37 -61.5t-45 -78.5h-53l24 618h55l-22 -518q20 33 23 38q59 94 92 156.5t46 125.5h54l31 -314q28 66 43 99q61 142 94.5 231.5t54.5 181.5h56zM435 724l-43 -39 l-115 122l43 38z" />
         <glyph glyph-name="x" unicode="x" d="M584 618q-29 -72 -89 -144t-160 -174l118 -300h-61l-101 255q-75 -75 -127 -135.5t-85 -119.5h-63q38 67 95 131.5t161 170.5l-125 316h62l107 -271q77 80 128 144.5t77 126.5h63z" />
         <glyph glyph-name="y" unicode="y" d="M36 -186q-30 20 -30 52q0 36 44.5 63t128 41.5t196.5 14.5q12 22 23.5 57.5t15.5 60.5q-11 -30 -55.5 -43.5t-93.5 -13.5q-43 0 -76.5 18.5t-51.5 49.5t-18 67q0 20 6 41q35 104 56 194.5t21 133.5q0 14 -9.5 22.5t-25.5 8.5q-12 0 -24.5 -6t-21.5 -17l-26 42 q14 14 39.5 23t51.5 9q32 0 51.5 -16.5t19.5 -43.5q0 -46 -21 -142.5t-56 -208.5q-7 -21 -7 -41q0 -38 25.5 -60.5t67.5 -22.5q46 0 79 9t57 36t35 79l84 397h54q-4 -19 -7 -31q-63 -306 -93 -438t-46 -165q32 1 50 3t38 8l-12 -50q-32 -10 -98 -10q-38 -64 -118.5 -102.5 t-173.5 -38.5q-49 0 -79 20zM247 -130.5q59 24.5 97 65.5q-127 -5 -205 -23.5t-78 -44.5q0 -10 19 -16t48 -6q60 0 119 24.5z" />
         <glyph glyph-name="yacute" unicode="ý" d="M36 -186q-30 20 -30 52q0 36 44.5 63t128 41.5t196.5 14.5q12 22 23.5 57.5t15.5 60.5q-11 -30 -55.5 -43.5t-93.5 -13.5q-43 0 -76.5 18.5t-51.5 49.5t-18 67q0 20 6 41q35 104 56 194.5t21 133.5q0 14 -9.5 22.5t-25.5 8.5q-12 0 -24.5 -6t-21.5 -17l-26 42 q14 14 39.5 23t51.5 9q32 0 51.5 -16.5t19.5 -43.5q0 -46 -21 -142.5t-56 -208.5q-7 -21 -7 -41q0 -38 25.5 -60.5t67.5 -22.5q46 0 79 9t57 36t35 79l84 397h54q-4 -19 -7 -31q-63 -306 -93 -438t-46 -165q32 1 50 3t38 8l-12 -50q-32 -10 -98 -10q-38 -64 -118.5 -102.5 t-173.5 -38.5q-49 0 -79 20zM247 -130.5q59 24.5 97 65.5q-127 -5 -205 -23.5t-78 -44.5q0 -10 19 -16t48 -6q60 0 119 24.5zM534 807l-162 -122l-30 39l162 121z" />
         <glyph glyph-name="ycircumflex" unicode="ŷ" d="M36 -186q-30 20 -30 52q0 36 44.5 63t128 41.5t196.5 14.5q12 22 23.5 57.5t15.5 60.5q-11 -30 -55.5 -43.5t-93.5 -13.5q-43 0 -76.5 18.5t-51.5 49.5t-18 67q0 20 6 41q35 104 56 194.5t21 133.5q0 14 -9.5 22.5t-25.5 8.5q-12 0 -24.5 -6t-21.5 -17l-26 42 q14 14 39.5 23t51.5 9q32 0 51.5 -16.5t19.5 -43.5q0 -46 -21 -142.5t-56 -208.5q-7 -21 -7 -41q0 -38 25.5 -60.5t67.5 -22.5q46 0 79 9t57 36t35 79l84 397h54q-4 -19 -7 -31q-63 -306 -93 -438t-46 -165q32 1 50 3t38 8l-12 -50q-32 -10 -98 -10q-38 -64 -118.5 -102.5 t-173.5 -38.5q-49 0 -79 20zM247 -130.5q59 24.5 97 65.5q-127 -5 -205 -23.5t-78 -44.5q0 -10 19 -16t48 -6q60 0 119 24.5zM520 715l-49 -33l-72 83l-109 -81l-37 33l158 118z" />
         <glyph glyph-name="ydieresis" unicode="ÿ" d="M36 -186q-30 20 -30 52q0 36 44.5 63t128 41.5t196.5 14.5q12 22 23.5 57.5t15.5 60.5q-11 -30 -55.5 -43.5t-93.5 -13.5q-43 0 -76.5 18.5t-51.5 49.5t-18 67q0 20 6 41q35 104 56 194.5t21 133.5q0 14 -9.5 22.5t-25.5 8.5q-12 0 -24.5 -6t-21.5 -17l-26 42 q14 14 39.5 23t51.5 9q32 0 51.5 -16.5t19.5 -43.5q0 -46 -21 -142.5t-56 -208.5q-7 -21 -7 -41q0 -38 25.5 -60.5t67.5 -22.5q46 0 79 9t57 36t35 79l84 397h54q-4 -19 -7 -31q-63 -306 -93 -438t-46 -165q32 1 50 3t38 8l-12 -50q-32 -10 -98 -10q-38 -64 -118.5 -102.5 t-173.5 -38.5q-49 0 -79 20zM247 -130.5q59 24.5 97 65.5q-127 -5 -205 -23.5t-78 -44.5q0 -10 19 -16t48 -6q60 0 119 24.5zM246.5 737.5q-12.5 8.5 -12.5 27.5q0 10 3 23q5 28 18 38t44 10q28 0 40.5 -8t12.5 -27q0 -10 -3 -22q-6 -29 -19 -39.5t-44 -10.5 q-27 0 -39.5 8.5zM462.5 737.5q-12.5 8.5 -12.5 27.5q0 10 3 23q5 28 18 38t44 10q28 0 40.5 -8t12.5 -27q0 -10 -3 -22q-6 -29 -19 -39.5t-44 -10.5q-27 0 -39.5 8.5z" />
         <glyph glyph-name="uni1EF5" unicode="ỵ" d="M36 -186q-30 20 -30 52q0 36 44.5 63t128 41.5t196.5 14.5q12 22 23.5 57.5t15.5 60.5q-11 -30 -55.5 -43.5t-93.5 -13.5q-43 0 -76.5 18.5t-51.5 49.5t-18 67q0 20 6 41q35 104 56 194.5t21 133.5q0 14 -9.5 22.5t-25.5 8.5q-12 0 -24.5 -6t-21.5 -17l-26 42 q14 14 39.5 23t51.5 9q32 0 51.5 -16.5t19.5 -43.5q0 -46 -21 -142.5t-56 -208.5q-7 -21 -7 -41q0 -38 25.5 -60.5t67.5 -22.5q46 0 79 9t57 36t35 79l84 397h54q-4 -19 -7 -31q-63 -306 -93 -438t-46 -165q32 1 50 3t38 8l-12 -50q-32 -10 -98 -10q-38 -64 -118.5 -102.5 t-173.5 -38.5q-49 0 -79 20zM247 -130.5q59 24.5 97 65.5q-127 -5 -205 -23.5t-78 -44.5q0 -10 19 -16t48 -6q60 0 119 24.5zM367 -261.5q-12 7.5 -12 26.5q0 11 3 24q7 28 21 39t43 11t41 -7.5t12 -26.5q0 -9 -3 -23q-6 -29 -20 -40t-44 -11q-29 0 -41 7.5z" />
         <glyph glyph-name="ygrave" unicode="ỳ" d="M36 -186q-30 20 -30 52q0 36 44.5 63t128 41.5t196.5 14.5q12 22 23.5 57.5t15.5 60.5q-11 -30 -55.5 -43.5t-93.5 -13.5q-43 0 -76.5 18.5t-51.5 49.5t-18 67q0 20 6 41q35 104 56 194.5t21 133.5q0 14 -9.5 22.5t-25.5 8.5q-12 0 -24.5 -6t-21.5 -17l-26 42 q14 14 39.5 23t51.5 9q32 0 51.5 -16.5t19.5 -43.5q0 -46 -21 -142.5t-56 -208.5q-7 -21 -7 -41q0 -38 25.5 -60.5t67.5 -22.5q46 0 79 9t57 36t35 79l84 397h54q-4 -19 -7 -31q-63 -306 -93 -438t-46 -165q32 1 50 3t38 8l-12 -50q-32 -10 -98 -10q-38 -64 -118.5 -102.5 t-173.5 -38.5q-49 0 -79 20zM247 -130.5q59 24.5 97 65.5q-127 -5 -205 -23.5t-78 -44.5q0 -10 19 -16t48 -6q60 0 119 24.5zM435 724l-43 -39l-115 122l43 38z" />
         <glyph glyph-name="uni1EF7" unicode="ỷ" d="M36 -186q-30 20 -30 52q0 36 44.5 63t128 41.5t196.5 14.5q12 22 23.5 57.5t15.5 60.5q-11 -30 -55.5 -43.5t-93.5 -13.5q-43 0 -76.5 18.5t-51.5 49.5t-18 67q0 20 6 41q35 104 56 194.5t21 133.5q0 14 -9.5 22.5t-25.5 8.5q-12 0 -24.5 -6t-21.5 -17l-26 42 q14 14 39.5 23t51.5 9q32 0 51.5 -16.5t19.5 -43.5q0 -46 -21 -142.5t-56 -208.5q-7 -21 -7 -41q0 -38 25.5 -60.5t67.5 -22.5q46 0 79 9t57 36t35 79l84 397h54q-4 -19 -7 -31q-63 -306 -93 -438t-46 -165q32 1 50 3t38 8l-12 -50q-32 -10 -98 -10q-38 -64 -118.5 -102.5 t-173.5 -38.5q-49 0 -79 20zM247 -130.5q59 24.5 97 65.5q-127 -5 -205 -23.5t-78 -44.5q0 -10 19 -16t48 -6q60 0 119 24.5zM351 705q37 9 58 25.5t21 34.5q0 10 -8 16.5t-18 6.5q-23 0 -49.5 -12t-47.5 -28l10 63q18 12 43 19.5t45 7.5q35 0 57 -18t22 -49q0 -12 -2 -19 q-6 -33 -38.5 -59t-84.5 -38z" />
         <glyph glyph-name="uni1EF9" unicode="ỹ" d="M36 -186q-30 20 -30 52q0 36 44.5 63t128 41.5t196.5 14.5q12 22 23.5 57.5t15.5 60.5q-11 -30 -55.5 -43.5t-93.5 -13.5q-43 0 -76.5 18.5t-51.5 49.5t-18 67q0 20 6 41q35 104 56 194.5t21 133.5q0 14 -9.5 22.5t-25.5 8.5q-12 0 -24.5 -6t-21.5 -17l-26 42 q14 14 39.5 23t51.5 9q32 0 51.5 -16.5t19.5 -43.5q0 -46 -21 -142.5t-56 -208.5q-7 -21 -7 -41q0 -38 25.5 -60.5t67.5 -22.5q46 0 79 9t57 36t35 79l84 397h54q-4 -19 -7 -31q-63 -306 -93 -438t-46 -165q32 1 50 3t38 8l-12 -50q-32 -10 -98 -10q-38 -64 -118.5 -102.5 t-173.5 -38.5q-49 0 -79 20zM247 -130.5q59 24.5 97 65.5q-127 -5 -205 -23.5t-78 -44.5q0 -10 19 -16t48 -6q60 0 119 24.5zM417.5 711.5q-15.5 11.5 -37.5 34.5q-16 17 -24.5 24t-18.5 7q-20 0 -29.5 -13t-14.5 -38h-55q10 47 36.5 74t63.5 27q21 0 37 -11.5t37 -33.5 q14 -16 24 -24t20 -8q21 0 30.5 12.5t13.5 35.5h54q-8 -45 -35.5 -71.5t-63.5 -26.5q-22 0 -37.5 11.5z" />
         <glyph glyph-name="z" unicode="z" d="M475.5 13.5q26.5 5.5 61.5 16.5q31 10 55.5 15.5t56.5 5.5l-12 -51q-19 0 -35 -4t-40 -12q-39 -13 -73 -20t-86 -7q-30 0 -56 7t-60 21q-32 12 -52 18t-43 6q-8 0 -32 -2q-56 -7 -128 -7l7 34l441 533h-325l11 51h400l-7 -34l-439 -532l25 3q25 5 59 5q28 0 50 -6.5 t55 -19.5q32 -13 55 -19.5t50 -6.5q35 0 61.5 5.5z" />
         <glyph glyph-name="zacute" unicode="ź" d="M475.5 13.5q26.5 5.5 61.5 16.5q31 10 55.5 15.5t56.5 5.5l-12 -51q-19 0 -35 -4t-40 -12q-39 -13 -73 -20t-86 -7q-30 0 -56 7t-60 21q-32 12 -52 18t-43 6q-8 0 -32 -2q-56 -7 -128 -7l7 34l441 533h-325l11 51h400l-7 -34l-439 -532l25 3q25 5 59 5q28 0 50 -6.5 t55 -19.5q32 -13 55 -19.5t50 -6.5q35 0 61.5 5.5zM534 807l-162 -122l-30 39l162 121z" />
         <glyph glyph-name="zcaron" unicode="ž" d="M475.5 13.5q26.5 5.5 61.5 16.5q31 10 55.5 15.5t56.5 5.5l-12 -51q-19 0 -35 -4t-40 -12q-39 -13 -73 -20t-86 -7q-30 0 -56 7t-60 21q-32 12 -52 18t-43 6q-8 0 -32 -2q-56 -7 -128 -7l7 34l441 533h-325l11 51h400l-7 -34l-439 -532l25 3q25 5 59 5q28 0 50 -6.5 t55 -19.5q32 -13 55 -19.5t50 -6.5q35 0 61.5 5.5zM540 809l-158 -120l-110 118l47 33l75 -81l109 83z" />
         <glyph glyph-name="zdotaccent" unicode="ż" d="M475.5 13.5q26.5 5.5 61.5 16.5q31 10 55.5 15.5t56.5 5.5l-12 -51q-19 0 -35 -4t-40 -12q-39 -13 -73 -20t-86 -7q-30 0 -56 7t-60 21q-32 12 -52 18t-43 6q-8 0 -32 -2q-56 -7 -128 -7l7 34l441 533h-325l11 51h400l-7 -34l-439 -532l25 3q25 5 59 5q28 0 50 -6.5 t55 -19.5q32 -13 55 -19.5t50 -6.5q35 0 61.5 5.5zM356 751.5q-12 7.5 -12 26.5q0 11 3 24q7 28 21 39t43 11t41 -7.5t12 -26.5q0 -9 -3 -23q-6 -29 -20 -40t-44 -11q-29 0 -41 7.5z" />
         <glyph glyph-name="Q_j.liga" d="M551 844.5q12 -7.5 12 -26.5q0 -9 -3 -23q-6 -29 -20 -40t-44 -11q-29 0 -41 7.5t-12 26.5q0 11 3 24q7 28 21 39t43 11t41 -7.5zM402 613q89 -21 89 -91q0 -12 -3 -26q-47 -234 -74.5 -356t-44.5 -156q32 1 50 3t38 8l-12 -50q-32 -10 -98 -10q-38 -64 -118.5 -102.5 t-173.5 -38.5q-43 0 -72 16t-36 43q-32 -18 -58.5 -27t-58.5 -9q-40 0 -69.5 12t-50 29.5t-46.5 47.5q-22 25 -42 44q-12 -7 -21 -15q-30 -21 -50.5 -31t-46.5 -10q-38 0 -59 17t-21 47q0 18 7 36q13 37 45 53q-26 40 -26 117q0 74 26 198l17 80q31 144 68.5 224t94.5 114 t147 34q98 0 142 -40.5t44 -136.5q0 -77 -27 -199l-17 -80q-26 -125 -57.5 -200.5t-75.5 -115t-109 -51.5q-13 -4 -35 -14q10 -10 24 -28q36 -42 64.5 -61.5t74.5 -19.5q28 0 52.5 9.5t63.5 29.5q33 18 54 28q27 14 58 22q54 17 119 22q62 6 136 6q14 25 48 176.5t69 323.5 q3 15 3 27q0 19 -10.5 32t-36.5 20zM-471 358q-24 -114 -24 -183q0 -75 31.5 -106.5t101.5 -31.5q71 0 117 30t78.5 100t58.5 195l17 80q25 122 25 185q0 74 -31.5 105t-101.5 31q-71 0 -118 -30t-79 -100t-58 -195zM-472 -49q11 6 28 19l19 14q-18 9 -33 14q-11 4 -24 4 q-28 0 -38 -22q-4 -7 -4 -15q0 -9 7.5 -14.5t21.5 -5.5q12 0 23 6zM187 -130.5q59 24.5 97 65.5q-57 -1 -111 -8h-5q-50 -6 -88 -15q-26 -7 -62 -22q-17 -11 -17 -23q0 -10 19 -16t48 -6q60 0 119 24.5z" />
         <glyph glyph-name="a_e.liga" d="M368 64.5q57 24.5 100 64.5l28 -45q-49 -44 -115.5 -71t-126.5 -27q-46 0 -84 22.5t-60 63.5t-22 93v16q-47 -20 -69 -40q-22 -22 -54 -60q-42 -49 -71.5 -72t-71.5 -23q-25 0 -43.5 16.5t-18.5 42.5q0 41 8 62q-28 -55 -74.5 -88t-93.5 -33q-77 0 -123.5 48t-46.5 127 q0 101 51.5 211.5t129.5 185t152 74.5q71 0 109 -20t38 -69q0 -11 -22 -117t-69 -328q-3 -19 -3 -32q0 -15 5.5 -22t19.5 -7q16 0 34 17t54 57q30 37 60 67t102 57q10 116 52 206.5t109 140.5t149 50q63 0 98.5 -32t35.5 -98q0 -83 -49 -138t-117 -85t-174 -63q2 0 -51 -16 q-1 -12 -1 -38q0 -53 34 -87.5t84 -34.5t107 24.5zM-286 98q55 61 86 159l8 36q7 32 27 129.5t20 114.5q0 26 -21 35t-72 9q-58 0 -123 -68t-109.5 -167t-44.5 -184q0 -56 32 -90.5t84 -34.5q58 0 113 61zM282.5 540q-52.5 -41 -87.5 -115t-47 -171l32 10q96 30 156 55.5 t102 70t42 111.5q0 39 -23 59.5t-58 20.5q-64 0 -116.5 -41z" />
         <glyph glyph-name="a_l.liga" d="M395.5 58q33.5 21 59.5 56l43 -31q-33 -44 -78.5 -70.5t-87.5 -26.5q-58 0 -93.5 41t-37.5 109q-99 -75 -209 -123q-32 -14 -71.5 -20.5t-71.5 -6.5q-33 0 -61 17t-28 42q0 41 8 62q-28 -55 -74.5 -88t-93.5 -33q-77 0 -123.5 48t-46.5 127q0 101 51.5 211.5t129.5 185 t152 74.5q71 0 109 -20t38 -69q0 -11 -22 -117t-69 -328q-1 -5 -1 -14q0 -23 12.5 -35t37.5 -12q49 0 103 22q126 56 230 145q4 296 53.5 453t161.5 157q46 0 73.5 -33.5t27.5 -87.5q0 -143 -70.5 -274.5t-191.5 -238.5v-8q0 -61 21.5 -98t56.5 -37q29 0 62.5 21zM330 699 q-33 -63 -51.5 -178t-22.5 -268q96 95 151 207.5t55 231.5q0 33 -14 51.5t-40 18.5q-45 0 -78 -63zM-286 98q55 61 86 159l8 36q7 32 27 129.5t20 114.5q0 26 -21 35t-72 9q-58 0 -123 -68t-109.5 -167t-44.5 -184q0 -56 32 -90.5t84 -34.5q58 0 113 61z" />
         <glyph glyph-name="d_e.liga" d="M368 64.5q57 24.5 100 64.5l28 -45q-49 -44 -115.5 -71t-126.5 -27q-44 0 -81 21t-59.5 59t-25.5 87q-64 -33 -92 -66q-49 -60 -78 -80.5t-58 -20.5q-71 0 -71 67q-50 -67 -198 -67q-81 0 -118 35t-37 118q0 64 23 173q20 96 62.5 168.5t103.5 112t134 39.5q49 0 84 -24 t44 -63l55 255h55l-149 -703q-3 -15 -3 -28q0 -16 7.5 -24t26.5 -8q11 0 30 19t62 74q33 43 118 83q7 122 49 217.5t110 148.5t153 53q63 0 98.5 -32t35.5 -98q0 -79 -46 -134.5t-112 -90t-170 -74.5l-64 -26v-15q0 -53 34 -87.5t84 -34.5t107 24.5zM-138 417q3 20 3 38 q0 58 -29 92t-79 34q-88 0 -153.5 -75t-92.5 -202q-21 -96 -21 -153q0 -62 24.5 -88t78.5 -26q73 0 129.5 24t75.5 64zM280 537.5q-54 -43.5 -88.5 -121.5t-44.5 -179l51 20q92 35 148.5 63.5t95 73t38.5 107.5q0 39 -23 59.5t-58 20.5q-65 0 -119 -43.5z" />
         <glyph glyph-name="d_l.liga" d="M403.5 58q33.5 21 59.5 56l43 -31q-32 -43 -78 -70t-88 -27q-58 0 -93.5 41t-37.5 108q-99 -75 -209 -123q-32 -14 -70.5 -20t-69.5 -6q-71 0 -71 67q-50 -67 -198 -67q-81 0 -118 35t-37 118q0 64 23 173q20 96 62.5 168.5t103.5 112t134 39.5q49 0 84 -24t44 -63 l55 255h55l-149 -702q-3 -16 -3 -30q0 -16 7.5 -23.5t26.5 -7.5q46 0 100 22q125 56 230 144q4 296 53.5 453.5t161.5 157.5q46 0 73.5 -33.5t27.5 -87.5q0 -143 -70.5 -274.5t-191.5 -238.5v-8q1 -61 22.5 -98t55.5 -37q29 0 62.5 21zM338 699q-33 -63 -51.5 -178 t-22.5 -268q96 95 151 207.5t55 231.5q0 33 -14 51.5t-40 18.5q-45 0 -78 -63zM-138 417q3 20 3 38q0 58 -29 92t-79 34q-88 0 -153.5 -75t-92.5 -202q-21 -96 -21 -153q0 -62 24.5 -88t78.5 -26q73 0 129.5 24t75.5 64z" />
         <glyph glyph-name="e_e.liga" d="M368 64.5q57 24.5 100 64.5l28 -45q-49 -44 -115.5 -71t-126.5 -27q-46 0 -84 22.5t-60 63.5t-22 93v9q-84 -29 -120 -54q-101 -70 -177 -102t-137 -32q-46 0 -84 22.5t-60 63.5t-22 93v17q-35 -13 -48 -26l-25 45q18 19 76 39q11 115 53 204t108.5 138.5t148.5 49.5 q63 0 98.5 -32t35.5 -98q0 -87 -55 -144.5t-128 -88t-179 -61.5l-29 -9q-1 -12 -1 -37q0 -53 34 -87.5t84 -34.5q51 0 117.5 29.5t163.5 95.5q25 18 61 32.5t88 31.5q9 118 51 209.5t109 142.5t150 51q63 0 98.5 -32t35.5 -98q0 -88 -57 -147t-133 -91t-201 -72 q-1 -10 -1 -30q0 -53 34 -87.5t84 -34.5t107 24.5zM-316.5 540q-52.5 -41 -87.5 -114.5t-47 -168.5q104 29 168 53.5t113.5 71.5t49.5 119q0 39 -23.5 59.5t-57.5 20.5q-63 0 -115.5 -41zM282 539q-53 -42 -88 -118t-46 -174q108 34 173.5 62t112 75t46.5 117q0 39 -23 59.5 t-58 20.5q-64 0 -117 -42z" />
         <glyph glyph-name="f_f.liga" d="M562.5 778.5q36.5 -35.5 46.5 -103.5l-51 -19q-7 55 -27.5 81t-69.5 26q-44 0 -76 -36.5t-57.5 -99.5t-65.5 -183h251l-11 -50h-257l-19 -59q149 -114 149 -255q0 -85 -23 -150t-66 -100.5t-99 -35.5q-44 0 -70.5 29t-26.5 76q0 66 20 178.5t54 231.5q-46 27 -70 46.5 t-30 38.5h-419q-12 -34 -19 -59q149 -116 149 -255q0 -85 -23 -150t-66 -100.5t-99 -35.5q-44 0 -70.5 29t-26.5 76q0 66 20 178.5t54 231.5q-52 31 -77 52.5t-25 43.5q0 18 20 28.5t58 10.5h67q39 127 72.5 205t76 121.5t98.5 43.5q72 0 108.5 -35.5t46.5 -103.5l-51 -19 q-6 54 -27.5 80.5t-69.5 26.5q-44 0 -76 -36.5t-57.5 -99.5t-65.5 -183h545q39 127 72.5 205t76 121.5t98.5 43.5q72 0 108.5 -35.5zM-482.5 385.5q15.5 -9.5 34.5 -18.5t26 -12l14 41q-8 0 -36 4q-26 4 -37 4t-12 -3q-5 -6 10.5 -15.5zM108 394q7 -9 35.5 -22.5t34.5 -16.5 l13 39h-83zM-308 186q-29 48 -84 93q-28 -105 -45.5 -209t-17.5 -170q0 -25 11.5 -40t30.5 -15q40 0 70 29t47 82t17 123q0 59 -29 107zM292 186q-29 48 -84 93q-28 -105 -45.5 -209t-17.5 -170q0 -25 11.5 -40t30.5 -15q40 0 70 29t47 82t17 123q0 59 -29 107z" />
         <glyph glyph-name="f_f_i.liga" d="M296 751.5q-12 7.5 -12 26.5q0 11 3 24q7 29 20.5 39.5t43.5 10.5q29 0 41 -7.5t12 -26.5q0 -9 -3 -23q-7 -29 -20.5 -40t-43.5 -11q-29 0 -41 7.5zM505 83q-42 -55 -78 -76t-88 -21q-85 0 -125.5 32t-40.5 105q0 53 23 139l61 230q-60 -61 -170 -79.5t-185 -18.5h-257 q-12 -34 -19 -59q149 -116 149 -255q0 -85 -23 -150t-66 -100.5t-99 -35.5q-44 0 -70.5 29t-26.5 76q0 66 20 178.5t54 231.5q-46 27 -70 46.5t-30 38.5h-419q-12 -34 -19 -59q149 -116 149 -255q0 -85 -23 -150t-66 -100.5t-99 -35.5q-44 0 -70.5 29t-26.5 76 q0 66 20 178.5t54 231.5q-52 31 -77 52.5t-25 43.5q0 18 20 28.5t58 10.5h67q39 127 72.5 205t76 121.5t98.5 43.5q72 0 108.5 -35.5t46.5 -103.5l-51 -19q-6 54 -27.5 80.5t-69.5 26.5q-44 0 -76 -36.5t-57.5 -99.5t-65.5 -183h545q39 127 72.5 205t76 121.5t98.5 43.5 q72 0 108.5 -35.5t46.5 -103.5l-51 -19q-6 54 -27.5 80.5t-69.5 26.5q-44 0 -76 -36.5t-57.5 -99.5t-65.5 -183h251q53 0 130 11t151.5 49.5t89.5 113.5h54l-88 -356q-18 -75 -18 -121q0 -56 26.5 -80t81.5 -24q37 0 63 16.5t58 60.5zM-1082.5 385.5q15.5 -9.5 34.5 -18.5 t26 -12l14 41q-8 0 -36 4q-26 4 -37 4t-12 -3q-5 -6 10.5 -15.5zM-492 394q7 -9 35.5 -22.5t34.5 -16.5l13 39h-83zM-908 186q-29 48 -84 93q-28 -105 -45.5 -209t-17.5 -170q0 -25 11.5 -40t30.5 -15q40 0 70 29t47 82t17 123q0 59 -29 107zM-308 186q-29 48 -84 93 q-28 -105 -45.5 -209t-17.5 -170q0 -25 11.5 -40t30.5 -15q40 0 70 29t47 82t17 123q0 59 -29 107z" />
         <glyph glyph-name="f_i.liga" d="M298 751.5q-12 7.5 -12 26.5q0 11 3 24q7 29 20.5 39.5t43.5 10.5q29 0 41 -7.5t12 -26.5q0 -9 -3 -23q-7 -29 -20.5 -40t-43.5 -11q-29 0 -41 7.5zM505 83q-42 -55 -78 -76t-88 -21q-85 0 -125.5 32t-40.5 105q0 53 23 139l61 230q-60 -61 -170 -79.5t-185 -18.5h-257 q-12 -34 -19 -59q149 -116 149 -255q0 -85 -23 -150t-66 -100.5t-99 -35.5q-44 0 -70.5 29t-26.5 76q0 66 20 178.5t54 231.5q-52 31 -77 52.5t-25 43.5q0 18 20 28.5t58 10.5h67q39 127 72.5 205t76 121.5t98.5 43.5q72 0 108.5 -35.5t46.5 -103.5l-51 -19 q-6 54 -27.5 80.5t-69.5 26.5q-44 0 -76 -36.5t-57.5 -99.5t-65.5 -183h251q53 0 130 11t151.5 49.5t89.5 113.5h54l-88 -356q-18 -75 -18 -121q0 -56 26.5 -80t81.5 -24q37 0 63 16.5t58 60.5zM-482.5 385.5q15.5 -9.5 34.5 -18.5t26 -12l14 41q-8 0 -36 4q-26 4 -37 4 t-12 -3q-5 -6 10.5 -15.5zM-308 186q-29 48 -84 93q-28 -105 -45.5 -209t-17.5 -170q0 -25 11.5 -40t30.5 -15q40 0 70 29t47 82t17 123q0 59 -29 107z" />
         <glyph glyph-name="f_j.liga" d="M563.5 854q14.5 -10 14.5 -34q0 -11 -3 -26q-7 -35 -23 -48t-54 -13q-33 0 -48 10t-15 33q0 12 3 27q7 35 23.5 48t54.5 13q33 0 47.5 -10zM509 618q-43 -185 -94 -444q-3 -16 -14 -70.5t-18 -81t-13 -38.5q32 1 50.5 3t38.5 8l-12 -50q-32 -10 -99 -10 q-38 -64 -118 -102.5t-173 -38.5q-49 0 -79 20t-30 52q0 36 44.5 63t127.5 41.5t196 14.5q12 21 47 208q6 32 25.5 128t39.5 183q-42 -42 -155 -66.5t-222 -34t-149 -9.5h-257q-12 -34 -19 -59q149 -116 149 -255q0 -85 -23 -150t-66 -100.5t-99 -35.5q-44 0 -70.5 29 t-26.5 76q0 66 20 178.5t54 231.5q-52 31 -77 52.5t-25 43.5q0 18 20 28.5t58 10.5h67q39 127 72.5 205t76 121.5t98.5 43.5q72 0 108.5 -35.5t46.5 -103.5l-51 -19q-6 54 -27.5 80.5t-69.5 26.5q-44 0 -76 -36.5t-57.5 -99.5t-65.5 -183h251q67 0 181 10.5t226 47.5 t133 109l2 7h54zM-482.5 385.5q15.5 -9.5 34.5 -18.5t26 -12l14 41q-8 0 -36 4q-26 4 -37 4t-12 -3q-5 -6 10.5 -15.5zM-308 186q-29 48 -84 93q-28 -105 -45.5 -209t-17.5 -170q0 -25 11.5 -40t30.5 -15q40 0 70 29t47 82t17 123q0 59 -29 107zM189 -130.5q59 24.5 96 65.5 q-126 -5 -204 -23.5t-78 -44.5q0 -10 18.5 -16t48.5 -6q60 0 119 24.5z" />
         <glyph glyph-name="f_r.liga" d="M442.5 55.5q24.5 18.5 37.5 48.5l50 -19q-18 -44 -56 -71.5t-83 -27.5t-72.5 29.5t-27.5 78.5q0 85 37.5 196.5t100.5 213.5q-48 -25 -99.5 -40t-88.5 -15q-19 0 -28 1q-31 -36 -89.5 -58t-152.5 -22q-31 0 -69 3l-257 21q-12 -34 -19 -59q149 -116 149 -255 q0 -85 -23 -150t-66 -100.5t-99 -35.5q-44 0 -70.5 29t-26.5 76q0 66 20 178.5t54 231.5q-52 31 -77 52.5t-25 43.5q0 18 20 28.5t58 10.5h67q39 127 72.5 205t76 121.5t98.5 43.5q72 0 108.5 -35.5t46.5 -103.5l-51 -19q-6 54 -27.5 80.5t-69.5 26.5q-44 0 -76 -36.5 t-57.5 -99.5t-65.5 -183l251 -21q38 -3 69 -3q119 0 172 42q-37 12 -57.5 35t-20.5 53q0 37 25 59.5t66 22.5q35 0 57 -26t22 -69q0 -17 -6 -37h2q45 0 114.5 27t138.5 72l39 -27q-86 -126 -137.5 -256t-51.5 -221q1 -26 13.5 -42t33.5 -16q26 0 50.5 18.5zM187 505 q6 18 6 35q0 20 -8.5 32.5t-24.5 12.5q-13 0 -22.5 -9.5t-9.5 -23.5q0 -34 59 -47zM-482.5 385.5q15.5 -9.5 34.5 -18.5t26 -12l14 41q-8 0 -36 4q-26 4 -37 4t-12 -3q-5 -6 10.5 -15.5zM-308 186q-29 48 -84 93q-28 -105 -45.5 -209t-17.5 -170q0 -25 11.5 -40t30.5 -15 q40 0 70 29t47 82t17 123q0 59 -29 107z" />
         <glyph glyph-name="f_s.liga" d="M529 101q-44 -52 -129.5 -83.5t-180.5 -31.5q-66 0 -119.5 31t-84.5 84l49 23q22 -39 62 -63t84 -24q57 0 98.5 34t63 91t21.5 126q-1 35 -11 69t-26 58q-24 -21 -54 -29.5t-72 -8.5q-25 0 -107 6q-130 11 -221 11h-257q-12 -34 -19 -59q149 -116 149 -255 q0 -85 -23 -150t-66 -100.5t-99 -35.5q-44 0 -70.5 29t-26.5 76q0 66 20 178.5t54 231.5q-52 31 -77 52.5t-25 43.5q0 18 20 28.5t58 10.5h67q39 127 72.5 205t76 121.5t98.5 43.5q72 0 108.5 -35.5t46.5 -103.5l-51 -19q-6 54 -27.5 80.5t-69.5 26.5q-44 0 -76 -36.5 t-57.5 -99.5t-65.5 -183h251q74 -1 135 -6.5t70 -6.5q62 -8 101 -8q34 0 58.5 8t44.5 27q-26 26 -41 54t-15 47q0 33 19.5 53t54.5 20q36 0 57.5 -20.5t21.5 -54.5q0 -21 -8.5 -47.5t-24.5 -47.5q28 -35 44.5 -83.5t16.5 -95.5q0 -132 -83 -223q36 12 74.5 33.5t57.5 42.5z M368 553q0 36 -27 36q-11 0 -17.5 -7.5t-6.5 -20.5q0 -16 8 -30.5t25 -34.5q18 31 18 57zM-482.5 385.5q15.5 -9.5 34.5 -18.5t26 -12l14 41q-8 0 -36 4q-26 4 -37 4t-12 -3q-5 -6 10.5 -15.5zM-308 186q-29 48 -84 93q-28 -105 -45.5 -209t-17.5 -170q0 -25 11.5 -40 t30.5 -15q40 0 70 29t47 82t17 123q0 59 -29 107z" />
         <glyph glyph-name="f_y.liga" d="M237 615.5q22 -16.5 22 -43.5q0 -46 -21.5 -142t-56.5 -209q-6 -21 -6 -40q0 -39 25.5 -61.5t67.5 -22.5q70 0 112.5 24.5t58.5 99.5l83 397h55q-69 -330 -99.5 -465.5t-47.5 -168.5q32 1 50.5 3t38.5 8l-12 -50q-32 -10 -99 -10q-38 -64 -118 -102.5t-173 -38.5 q-49 0 -79 20t-30 52q0 36 44.5 63t127.5 41.5t196 14.5q13 22 24 57.5t16 60.5q-11 -30 -55.5 -43.5t-93.5 -13.5q-43 0 -76.5 18.5t-51.5 49.5t-18 67q0 20 6 41q35 106 56 196t21 132q0 14 -9.5 22.5t-25.5 8.5q-17 0 -35 -10t-57 -36q-58 -40 -111 -68.5t-135 -50.5 t-186 -22q-12 -34 -19 -59q149 -116 149 -255q0 -85 -23 -150t-66 -100.5t-99 -35.5q-44 0 -70.5 29t-26.5 76q0 66 20 178.5t54 231.5q-52 31 -77 52.5t-25 43.5q0 18 20 28.5t58 10.5h67q39 127 72.5 205t76 121.5t98.5 43.5q72 0 108.5 -35.5t46.5 -103.5l-51 -19 q-6 54 -27.5 80.5t-69.5 26.5q-44 0 -76 -36.5t-57.5 -99.5t-65.5 -183q86 0 155 18.5t116.5 44t105.5 63.5q50 33 79.5 47.5t59.5 14.5q37 0 59 -16.5zM-408 396q-8 0 -36 4q-26 4 -37 4t-12 -3q-5 -6 10.5 -15.5t34.5 -18.5t26 -12zM-343 -126q30 29 47 82t17 123 q0 59 -29 107t-84 93q-28 -105 -45.5 -209t-17.5 -170q0 -25 11.5 -40t30.5 -15q40 0 70 29zM249 -130q59 25 96 65q-126 -5 -204 -23.5t-78 -44.5q0 -10 18.5 -16t48.5 -6q60 0 119 25z" />
         <glyph glyph-name="h_e.liga" d="M368 64.5q57 24.5 100 64.5l28 -45q-49 -44 -115.5 -71t-126.5 -27q-45 0 -82.5 22t-60 61t-23.5 89q-77 -36 -107 -71q-53 -61 -86 -81t-63 -20q-33 0 -53 16.5t-20 43.5q0 42 22.5 139.5t59.5 218.5q17 57 17 92q0 85 -89 85q-50 0 -104.5 -48t-95.5 -117.5t-53 -128.5 l-61 -287h-55l169 800h55l-73 -343q45 80 102 127.5t118 47.5q144 0 144 -124q0 -48 -20 -109q-36 -111 -57.5 -201t-21.5 -130q0 -14 9.5 -22.5t25.5 -8.5q13 0 34 17.5t71 75.5q39 47 134 88q8 121 49.5 215t109.5 146.5t152 52.5q63 0 98.5 -32t35.5 -98 q0 -79 -46.5 -134t-113 -89t-172.5 -74q-56 -21 -60 -23v-20q0 -53 34 -87.5t84 -34.5t107 24.5zM280.5 538.5q-53.5 -42.5 -88.5 -119.5t-45 -177q39 15 49 19q93 34 149.5 62t95.5 71.5t39 106.5q0 39 -23 59.5t-58 20.5q-65 0 -118.5 -42.5z" />
         <glyph glyph-name="h_l.liga" d="M395.5 58q33.5 21 59.5 56l43 -31q-33 -44 -78.5 -70.5t-87.5 -26.5q-55 0 -90 37t-40 99q-84 -64 -178 -100t-192 -36q-33 0 -53 16.5t-20 43.5q0 42 22.5 139.5t59.5 218.5q17 57 17 92q0 85 -89 85q-50 0 -104.5 -48t-95.5 -117.5t-53 -128.5l-61 -287h-55l169 800h55 l-73 -343q45 80 102 127.5t118 47.5q144 0 144 -124q0 -48 -20 -109q-36 -111 -57.5 -201t-21.5 -130q0 -14 9.5 -22.5t25.5 -8.5q90 0 180 40.5t170 110.5q2 304 51.5 465t163.5 161q46 0 73.5 -33.5t27.5 -87.5q0 -129 -71.5 -273t-190.5 -253q1 -58 22.5 -94t55.5 -36 q29 0 62.5 21zM329.5 697q-33.5 -65 -52 -182.5t-21.5 -273.5q94 100 150 222t56 229q0 33 -14 51.5t-40 18.5q-45 0 -78.5 -65z" />
         <glyph glyph-name="i_e.liga" d="M-316 743q-15 10 -15 33q0 12 3 27q7 35 23.5 48t54.5 13q33 0 47.5 -10t14.5 -34q0 -11 -3 -26q-7 -35 -23 -48t-54 -13q-33 0 -48 10zM368 64.5q57 24.5 100 64.5l28 -45q-49 -44 -115.5 -71t-126.5 -27q-46 0 -84 22.5t-60 63.5t-22 93v15q-84 -31 -117 -60 q-65 -57 -102.5 -85t-66.5 -38.5t-65 -10.5q-85 0 -125.5 31.5t-40.5 104.5q0 54 23 140l63 228q3 14 3 25q0 21 -11 33.5t-38 18.5l13 51q92 -18 92 -92q0 -7 -2 -23l-66 -241q-20 -71 -20 -122q0 -55 27 -79t83 -24q26 0 48 9t54.5 33.5t96.5 78.5q26 22 64 40t90 36 q10 117 52 207t109 140.5t149 50.5q63 0 98.5 -32t35.5 -98q0 -82 -51 -137t-122.5 -87t-185.5 -69l-32 -10q-1 -12 -1 -37q0 -53 34 -87.5t84 -34.5t107 24.5zM282.5 540q-52.5 -41 -87.5 -115.5t-47 -171.5l19 6q103 33 165 60t105 71.5t43 110.5q0 39 -23 59.5t-58 20.5 q-64 0 -116.5 -41z" />
         <glyph glyph-name="i_l.liga" d="M-316 743q-15 10 -15 33q0 12 3 27q7 35 23.5 48t54.5 13q33 0 47.5 -10t14.5 -34q0 -11 -3 -26q-7 -35 -23 -48t-54 -13q-33 0 -48 10zM395.5 58q33.5 21 59.5 56l43 -31q-33 -44 -78.5 -70.5t-87.5 -26.5q-59 0 -95 42.5t-36 112.5v40q-111 -90 -232.5 -142.5 t-231.5 -52.5q-85 0 -125.5 31.5t-40.5 104.5q0 54 23 140l63 228q3 14 3 25q0 21 -11 33.5t-38 18.5l13 51q92 -18 92 -92q0 -7 -2 -23l-66 -241q-20 -71 -20 -122q0 -55 27 -79t83 -24q105 0 229 60t235 158q7 271 57 415t157 144q46 0 73.5 -33.5t27.5 -87.5 q0 -109 -72 -233.5t-190 -232.5v-55q0 -61 21.5 -98t56.5 -37q29 0 62.5 21zM306 640q-39 -122 -48 -333q93 94 148.5 195.5t55.5 189.5q0 33 -14 51.5t-40 18.5q-63 0 -102 -122z" />
         <glyph glyph-name="k_e.liga" d="M368 64.5q57 24.5 100 64.5l28 -45q-49 -44 -115.5 -71t-126.5 -27q-46 0 -84 22.5t-60 63.5t-22 93v4q-76 -30 -109 -62q-56 -54 -81.5 -77t-46 -33.5t-43.5 -10.5q-46 0 -66 47t-21 134q0 34 -14.5 68t-37.5 55l23 44q65 0 115.5 20t78.5 58t28 87q0 36 -27.5 59.5 t-65.5 23.5q-53 0 -105 -34.5t-92 -98t-60 -145.5l-65 -304h-54l63 298h-1l6 24l101 478h55l-61 -287q46 57 102 88.5t114 31.5q61 0 103 -35.5t42 -90.5q0 -56 -28 -103t-78.5 -78t-116.5 -40q15 -23 24 -54.5t9 -60.5q1 -73 6.5 -103.5t25.5 -30.5q14 0 43 24.5t93 88.5 q23 24 58.5 42.5t85.5 37.5q9 118 51 209t109 142t150 51q63 0 98.5 -32t35.5 -98q0 -82 -50.5 -138t-120.5 -89t-183 -72l-38 -13v-28q0 -53 34 -87.5t84 -34.5t107 24.5zM282 539.5q-53 -41.5 -88 -116.5t-46 -172l28 9q100 34 160 61t102 71t42 109q0 39 -23 59.5 t-58 20.5q-64 0 -117 -41.5z" />
         <glyph glyph-name="k_l.liga" d="M395.5 58q33.5 21 59.5 56l43 -31q-33 -44 -78.5 -70.5t-87.5 -26.5q-56 0 -91 38t-40 102q-86 -66 -186 -103t-207 -37q-46 0 -66 47t-21 134q0 34 -14.5 68t-37.5 55l23 44q65 0 115.5 20t78.5 58t28 87q0 36 -27.5 59.5t-65.5 23.5q-53 0 -105 -34.5t-92 -98 t-60 -145.5l-65 -304h-54l63 298h-1l6 24l101 478h55l-61 -287q46 57 102 88.5t114 31.5q61 0 103 -35.5t42 -90.5q0 -56 -28 -103t-78.5 -78t-116.5 -40q15 -23 24 -54.5t9 -60.5q1 -73 6.5 -103.5t25.5 -30.5q104 0 204 42.5t186 117.5q3 299 53 458t162 159 q46 0 73.5 -33.5t27.5 -87.5q0 -129 -71 -271.5t-191 -250.5q0 -60 21.5 -97t56.5 -37q29 0 62.5 21zM300.5 623q-39.5 -139 -44.5 -374q94 99 150 218t56 225q0 33 -14 51.5t-40 18.5q-68 0 -107.5 -139z" />
         <glyph glyph-name="l_e.liga" d="M368 64.5q57 24.5 100 64.5l28 -45q-49 -44 -115.5 -71t-126.5 -27q-46 0 -84 22.5t-60 63.5t-22 93v13q-84 -29 -119 -58q-88 -72 -142 -103t-95 -31q-56 0 -91 38.5t-40 102.5q-97 -77 -210 -127l-21 46q125 55 231 148q3 301 52.5 460.5t162.5 159.5q46 0 73 -33 t27 -88q0 -143 -70.5 -278t-190.5 -243q0 -61 21.5 -98t56.5 -37q29 0 72 26t130 95q47 37 156 74q9 117 51 208t109 141.5t150 50.5q63 0 98.5 -32t35.5 -98q0 -84 -52.5 -140.5t-125.5 -88t-190 -69.5l-23 -7q-1 -12 -1 -35q0 -53 34 -87.5t84 -34.5t107 24.5zM-270.5 698 q-33.5 -64 -52 -181t-21.5 -272q96 98 151 213t55 234q0 33 -14 51.5t-40 18.5q-45 0 -78.5 -64zM282 539.5q-53 -41.5 -88 -116.5t-46 -172q112 36 176 62.5t110 72.5t46 115q0 39 -23 59.5t-58 20.5q-64 0 -117 -41.5z" />
         <glyph glyph-name="l_l.liga" d="M395.5 58q33.5 21 59.5 56l43 -31q-33 -44 -78.5 -70.5t-87.5 -26.5q-59 0 -95 42.5t-36 112.5v41q-111 -90 -234 -143t-235 -53q-56 0 -91 38.5t-40 102.5q-97 -77 -210 -127l-21 46q125 55 231 148q3 301 52.5 460.5t162.5 159.5q46 0 73 -33t27 -88q0 -143 -70.5 -278 t-190.5 -243q0 -61 21.5 -98t56.5 -37q105 0 231 61t238 160q7 270 57 413t157 143q46 0 73.5 -33.5t27.5 -87.5q0 -109 -72 -233.5t-190 -231.5v-56q0 -61 21.5 -98t56.5 -37q29 0 62.5 21zM-270.5 698q-33.5 -64 -52 -181t-21.5 -272q96 98 151 213t55 234q0 33 -14 51.5 t-40 18.5q-45 0 -78.5 -64zM306 640q-39 -122 -48 -330q93 94 148.5 194t55.5 188q0 33 -14 51.5t-40 18.5q-63 0 -102 -122z" />
         <glyph glyph-name="m_e.liga" d="M368 64.5q57 24.5 100 64.5l28 -45q-49 -44 -115.5 -71t-126.5 -27q-45 0 -82.5 22t-60 61.5t-23.5 89.5q-33 -24 -46 -52q-34 -69 -64.5 -95t-85.5 -26q-33 0 -52.5 16.5t-19.5 43.5q0 41 22.5 138.5t59.5 219.5q27 90 27 131q0 46 -36 46q-41 0 -67.5 -21t-49.5 -82 t-48 -182l-62 -296h-54l84 404q9 43 16 79t7 55q0 22 -9 32.5t-30 10.5q-38 0 -61.5 -21t-44.5 -81t-48 -185l-63 -294h-55l114 531q2 12 2 19q-2 31 -32 31q-11 0 -25 -5.5t-25 -16.5l-26 41q14 14 39.5 23t51.5 9q63 0 63 -66q0 -12 -1 -19q16 33 46 59t67 26q41 0 58 -15 t19.5 -32.5t2.5 -56.5q27 52 59.5 78t73.5 26q89 0 89 -92q0 -51 -29 -141q-36 -110 -57.5 -200t-21.5 -131q0 -14 10 -22.5t25 -8.5q40 0 84 93q23 48 95 86q7 121 49 215.5t110 147.5t152 53q63 0 98.5 -32t35.5 -98q0 -75 -41 -125.5t-99 -80.5t-150 -64 q-77 -30 -102 -42v-28q0 -53 34 -87.5t84 -34.5t107 24.5zM280.5 538.5q-53.5 -42.5 -88.5 -119.5t-45 -176l69 27q87 34 139 60.5t88.5 68.5t36.5 102q0 39 -23 59.5t-58 20.5q-65 0 -118.5 -42.5z" />
         <glyph glyph-name="m_l.liga" d="M395.5 58q33.5 21 59.5 56l43 -31q-33 -44 -78.5 -70.5t-87.5 -26.5q-55 0 -90 37t-40 100q-78 -64 -157.5 -100.5t-152.5 -36.5q-33 0 -52.5 16.5t-19.5 43.5q0 41 22.5 138.5t59.5 219.5q27 90 27 131q0 46 -36 46q-41 0 -67.5 -21t-49.5 -82t-48 -182l-62 -296h-54 l84 404q9 43 16 79t7 55q0 22 -9 32.5t-30 10.5q-38 0 -61.5 -21t-44.5 -81t-48 -185l-63 -294h-55l114 531q2 12 2 19q-2 31 -32 31q-11 0 -25 -5.5t-25 -16.5l-26 41q14 14 39.5 23t51.5 9q63 0 63 -66q0 -12 -1 -19q16 33 46 59t67 26q41 0 58 -15t19.5 -32.5t2.5 -56.5 q27 52 59.5 78t73.5 26q89 0 89 -92q0 -51 -29 -141q-36 -110 -57.5 -200t-21.5 -131q0 -14 10 -22.5t25 -8.5q63 0 139 43.5t151 117.5q3 299 53 457.5t162 158.5q46 0 73.5 -33.5t27.5 -87.5q0 -124 -73.5 -266.5t-188.5 -254.5q0 -61 21.5 -98t56.5 -37q29 0 62.5 21z M301 625q-40 -137 -45 -369q91 106 148.5 223.5t57.5 212.5q0 33 -14 51.5t-40 18.5q-67 0 -107 -137z" />
         <glyph glyph-name="n_e.liga" d="M368 64.5q57 24.5 100 64.5l28 -45q-49 -44 -115.5 -71t-126.5 -27q-45 0 -82 21t-59.5 59.5t-24.5 87.5q-66 -31 -97 -67q-46 -61 -77.5 -81t-61.5 -20q-33 0 -52.5 16.5t-20.5 43.5q0 43 22.5 141.5t59.5 216.5q17 54 17 94q0 83 -79 83q-45 0 -97 -48t-92.5 -117 t-52.5 -127l-61 -289h-56l113 531q3 16 2 19q0 14 -9.5 22.5t-25.5 8.5q-11 0 -23.5 -5.5t-22.5 -16.5l-26 41q14 14 39.5 23t51.5 9q30 0 51.5 -19t21.5 -51q0 -11 -3 -23l-18 -83q44 80 99.5 128t110.5 48q135 0 135 -121q0 -46 -21 -112q-36 -110 -57.5 -198.5 t-21.5 -129.5q0 -16 9.5 -25t25.5 -9q13 0 33 18t62 75q36 45 123 84q7 122 49 217t110 148t153 53q63 0 98.5 -32t35.5 -98q0 -79 -46.5 -134.5t-112.5 -89.5t-172 -75l-61 -24v-17q0 -53 34 -87.5t84 -34.5t107 24.5zM280 538q-54 -43 -88.5 -121t-44.5 -178l48 18 q96 37 151.5 64.5t94.5 72t39 107.5q0 39 -23 59.5t-58 20.5q-65 0 -119 -43z" />
         <glyph glyph-name="n_l.liga" d="M395.5 58q33.5 21 59.5 56l43 -31q-33 -44 -78.5 -70.5t-87.5 -26.5q-55 0 -90 37t-40 99q-82 -64 -171 -100t-179 -36q-33 0 -52.5 16.5t-20.5 43.5q0 43 22.5 141.5t59.5 216.5q17 54 17 94q0 83 -79 83q-45 0 -97 -48t-92.5 -117t-52.5 -127l-61 -289h-56l113 531 q3 16 2 19q0 14 -9.5 22.5t-25.5 8.5q-11 0 -23.5 -5.5t-22.5 -16.5l-26 41q14 14 39.5 23t51.5 9q30 0 51.5 -19t21.5 -51q0 -11 -3 -23l-18 -83q44 80 99.5 128t110.5 48q135 0 135 -121q0 -46 -21 -112q-36 -110 -57.5 -198.5t-21.5 -129.5q0 -16 9.5 -25t25.5 -9 q80 0 165.5 42t164.5 114q3 301 52.5 461t162.5 160q46 0 73.5 -33.5t27.5 -87.5q0 -128 -72 -271t-190 -254q1 -59 22.5 -95t55.5 -36q29 0 62.5 21zM329.5 698q-33.5 -64 -52 -180.5t-21.5 -270.5q93 101 149.5 220.5t56.5 224.5q0 33 -14 51.5t-40 18.5q-45 0 -78.5 -64z " />
         <glyph glyph-name="r_e.liga" d="M368 64.5q57 24.5 100 64.5l28 -45q-49 -44 -115.5 -71t-126.5 -27q-46 0 -84 22.5t-60 63.5t-22 93v13q-75 -29 -104 -57q-57 -57 -85.5 -82.5t-54.5 -39t-55 -13.5q-45 0 -72.5 29.5t-27.5 78.5q0 85 38 196.5t101 213.5q-49 -25 -100.5 -40t-88.5 -15h-17 q-37 -85 -107 -164l-34 44q59 61 89 128q-45 11 -70.5 35t-25.5 58q0 37 25 59.5t66 22.5q35 0 57 -26t22 -69q0 -15 -5 -37h1q45 0 114.5 27t138.5 72l39 -27q-85 -127 -136.5 -256t-51.5 -219q0 -27 12.5 -43.5t33.5 -16.5q26 0 59 24.5t97 90.5q23 24 58 43t87 39 q10 116 52 206.5t109 141t149 50.5q63 0 98.5 -32t35.5 -98q0 -82 -50.5 -137t-121 -86.5t-180.5 -67.5q-13 -5 -39 -13q-1 -12 -1 -36q0 -53 34 -87.5t84 -34.5t107 24.5zM-458 522.5q16 -12.5 44 -17.5q5 20 5 35q0 20 -8.5 32.5t-24.5 12.5q-13 0 -22.5 -9.5t-9.5 -23.5 q0 -17 16 -29.5zM282.5 540q-52.5 -41 -87.5 -115t-47 -171l30 10q98 32 158.5 58.5t102 70.5t41.5 108q0 39 -23 59.5t-58 20.5q-64 0 -116.5 -41z" />
         <glyph glyph-name="r_l.liga" d="M395.5 58q33.5 21 59.5 56l43 -31q-33 -44 -78.5 -70.5t-87.5 -26.5q-56 0 -91 38t-40 102q-89 -66 -193 -103t-219 -37q-45 0 -72.5 29.5t-27.5 78.5q0 85 38 196.5t101 213.5q-49 -25 -100.5 -40t-88.5 -15h-17q-37 -85 -107 -164l-34 44q59 61 89 128q-45 11 -70.5 35 t-25.5 58q0 37 25 59.5t66 22.5q35 0 57 -26t22 -69q0 -15 -5 -37h1q45 0 114.5 27t138.5 72l39 -27q-85 -127 -136.5 -256t-51.5 -219q0 -27 12.5 -43.5t33.5 -16.5q114 0 218.5 42t192.5 116q3 301 52.5 460t162.5 159q46 0 73.5 -33.5t27.5 -87.5q0 -130 -70.5 -272.5 t-191.5 -250.5q1 -60 22.5 -96.5t55.5 -36.5q29 0 62.5 21zM329.5 698q-33.5 -64 -52 -180.5t-21.5 -271.5q96 98 151 218t55 228q0 33 -14 51.5t-40 18.5q-45 0 -78.5 -64zM-458 522.5q16 -12.5 44 -17.5q5 20 5 35q0 20 -8.5 32.5t-24.5 12.5q-13 0 -22.5 -9.5t-9.5 -23.5 q0 -17 16 -29.5z" />
         <glyph glyph-name="s_e.liga" d="M368 64.5q57 24.5 100 64.5l28 -45q-49 -44 -115.5 -71t-126.5 -27q-46 0 -84 22.5t-60 63.5t-22 93v11q-74 -26 -105 -48q-193 -142 -366 -142q-66 0 -119.5 31t-84.5 84l49 23q22 -39 62 -63t84 -24q57 0 98.5 34t63 91t21.5 126q0 34 -10 68.5t-27 58.5 q-40 -52 -106 -89t-135 -45l-9 51q63 6 122.5 40.5t93.5 85.5q-26 26 -41 54t-15 47q0 33 20 53t54 20q36 0 57.5 -20.5t21.5 -54.5q0 -21 -8.5 -47.5t-24.5 -47.5q28 -35 44.5 -83.5t16.5 -95.5q0 -132 -83 -223q85 29 192 109q40 29 137 61q9 118 51 209t109 142t150 51 q63 0 98.5 -32t35.5 -98q0 -89 -57.5 -147.5t-132.5 -90t-201 -70.5q-1 -11 -1 -32q0 -53 34 -87.5t84 -34.5t107 24.5zM-241 580.5q-7 8.5 -19 8.5t-18.5 -7.5t-6.5 -20.5q0 -16 8 -30.5t25 -34.5q18 31 18 60q0 16 -7 24.5zM282 539q-53 -42 -88 -117t-46 -173 q107 33 172.5 60.5t112.5 74.5t47 117q0 39 -23 59.5t-58 20.5q-64 0 -117 -42z" />
         <glyph glyph-name="s_l.liga" d="M395.5 58q33.5 21 59.5 56l43 -31q-33 -44 -78.5 -70.5t-87.5 -26.5q-59 0 -95 42.5t-36 112.5q-111 -73 -257 -114t-327 -41q-66 0 -119.5 31t-84.5 84l49 23q22 -39 62 -63t84 -24q57 0 98.5 34t63 91t21.5 126q0 34 -10 68.5t-27 58.5q-40 -52 -106 -89t-135 -45 l-9 51q63 6 122.5 40.5t93.5 85.5q-26 26 -41 54t-15 47q0 33 20 53t54 20q36 0 57.5 -20.5t21.5 -54.5q0 -21 -8.5 -47.5t-24.5 -47.5q28 -35 44.5 -83.5t16.5 -95.5q0 -69 -27 -138t-72 -106q137 12 251.5 55t203.5 111q4 295 53.5 452t161.5 157q46 0 73.5 -33.5 t27.5 -87.5q0 -134 -66 -272t-196 -241v-8q0 -61 21.5 -98t56.5 -37q29 0 62.5 21zM330 698.5q-33 -63.5 -51.5 -179t-22.5 -268.5q100 94 153 210.5t53 230.5q0 33 -14 51.5t-40 18.5q-45 0 -78 -63.5zM-241 580.5q-7 8.5 -19 8.5t-18.5 -7.5t-6.5 -20.5q0 -16 8 -30.5 t25 -34.5q18 31 18 60q0 16 -7 24.5z" />
         <glyph glyph-name="t_e.liga" d="M368 64.5q57 24.5 100 64.5l28 -45q-49 -44 -115.5 -71t-126.5 -27q-46 0 -84 22.5t-60 63.5t-22 93v18q-44 -16 -75.5 -31.5t-51.5 -34.5q-62 -57 -100.5 -84t-73.5 -37t-86 -10q-75 0 -108.5 29.5t-33.5 94.5q0 41 12 98l77 359h-124l11 51h124l37 182h55l-38 -182h208 l-11 -51h-208l-77 -363q-11 -52 -11 -83q0 -44 21 -64t68 -20q42 0 68 6t61 30t92 77q52 48 167 88q10 116 52.5 205.5t109 139t148.5 49.5q63 0 98.5 -32t35.5 -98q0 -81 -50 -135.5t-120.5 -85.5t-183.5 -67l-37 -12q-1 -13 -1 -40q0 -53 34 -87.5t84 -34.5t107 24.5z M283.5 540.5q-52.5 -40.5 -87.5 -114t-47 -169.5l25 8q101 32 162 58.5t102.5 70t41.5 107.5q0 39 -23 59.5t-58 20.5q-63 0 -115.5 -40.5z" />
         <glyph glyph-name="t_l.liga" d="M395.5 58q33.5 21 59.5 56l43 -31q-33 -44 -78.5 -70.5t-87.5 -26.5q-58 0 -93.5 41t-37.5 109q-101 -71 -226.5 -110.5t-273.5 -39.5q-75 0 -108.5 29.5t-33.5 94.5q0 41 12 98l77 359h-124l11 51h124l37 182h55l-38 -182h208l-11 -51h-208l-77 -363q-11 -52 -11 -83 q0 -44 21 -64t68 -20q149 0 274.5 44t223.5 122q4 296 53.5 453.5t161.5 157.5q46 0 73.5 -33.5t27.5 -87.5q0 -131 -68.5 -271t-193.5 -245v-5q0 -61 21.5 -98t56.5 -37q29 0 62.5 21zM330 698.5q-33 -63.5 -51.5 -179t-22.5 -268.5q99 95 152.5 213t53.5 228 q0 33 -14 51.5t-40 18.5q-45 0 -78 -63.5z" />
         <glyph glyph-name="t_t.liga" d="M302 567l-77 -363q-11 -52 -11 -83q0 -44 21 -64t68 -20q54 0 82.5 13.5t48.5 47.5l49 -21q-31 -53 -70 -72t-112 -19q-75 0 -108.5 29.5t-33.5 94.5q0 41 12 98l77 359h-546l-77 -363q-11 -52 -11 -83q0 -44 21 -64t68 -20q54 0 82.5 13.5t48.5 47.5l49 -21 q-31 -53 -70 -72t-112 -19q-75 0 -108.5 29.5t-33.5 94.5q0 41 12 98l77 359h-124l11 51h124l37 182h55l-38 -182h546l38 182h54l-38 -182h208l-11 -51h-208z" />
         <glyph glyph-name="u_e.liga" d="M368 64.5q57 24.5 100 64.5l28 -45q-49 -44 -115.5 -71t-126.5 -27q-45 0 -82.5 21.5t-59.5 60.5t-24 89q-67 -33 -96 -70q-46 -61 -77.5 -81t-61.5 -20t-51.5 19t-21.5 52q0 11 3 23l18 82q-97 -176 -200 -176q-145 0 -145 123q0 46 21 110q36 110 57.5 198.5 t21.5 129.5q0 16 -9.5 25t-25.5 9q-12 0 -24.5 -6t-22.5 -17l-25 42q14 14 39.5 23t51.5 9q33 0 52.5 -16.5t20.5 -43.5q0 -42 -22.5 -140.5t-59.5 -217.5q-17 -57 -17 -92q0 -85 89 -85q45 0 94.5 47.5t88 117t50.5 127.5l61 289h55l-113 -531q-2 -12 -2 -19 q0 -14 9.5 -22.5t25.5 -8.5q13 0 33 17t62 76q32 46 123 88q8 121 49.5 215t109.5 146.5t152 52.5q63 0 98.5 -32t35.5 -98q0 -79 -46 -133t-111 -87.5t-170 -73.5q-14 -6 -30.5 -12t-34.5 -14v-20q0 -53 34 -87.5t84 -34.5t107 24.5zM280.5 538.5q-53.5 -42.5 -88.5 -119.5 t-45 -177q30 12 53 20q94 36 148.5 63t93 70.5t38.5 105.5q0 39 -23 59.5t-58 20.5q-65 0 -118.5 -42.5z" />
         <glyph glyph-name="u_l.liga" d="M395.5 58q33.5 21 59.5 56l43 -31q-33 -44 -78.5 -70.5t-87.5 -26.5q-55 0 -90 36.5t-40 98.5q-81 -64 -170 -99.5t-179 -35.5q-30 0 -51.5 19t-21.5 52q0 11 3 23l18 82q-97 -176 -200 -176q-145 0 -145 123q0 46 21 110q36 110 57.5 198.5t21.5 129.5q0 16 -9.5 25 t-25.5 9q-12 0 -24.5 -6t-22.5 -17l-25 42q14 14 39.5 23t51.5 9q33 0 52.5 -16.5t20.5 -43.5q0 -42 -22.5 -140.5t-59.5 -217.5q-17 -57 -17 -92q0 -85 89 -85q45 0 94.5 47.5t88 117t50.5 127.5l61 289h55l-113 -531q-2 -12 -2 -19q0 -14 9.5 -22.5t25.5 -8.5 q82 0 166.5 40t162.5 111q2 303 51.5 464.5t163.5 161.5q46 0 73.5 -33.5t27.5 -87.5q0 -128 -72 -272t-190 -254q1 -58 22.5 -94t55.5 -36q29 0 62.5 21zM329.5 697.5q-33.5 -64.5 -52 -182t-21.5 -273.5q93 101 149.5 222t56.5 228q0 33 -14 51.5t-40 18.5 q-45 0 -78.5 -64.5z" />
         <glyph glyph-name="ordfeminine" unicode="ª" d="M195 385q-32 19 -32 65q0 22 6 50q10 45 29 69.5t54 35t96 10.5h103l10 50q6 26 6 44q0 30 -18.5 42t-62.5 12q-42 0 -66 -15.5t-44 -53.5l-53 13q31 62 66 84.5t99 22.5q72 0 103.5 -21t31.5 -71q0 -24 -8 -61l-43 -204l-2 -13q0 -9 6.5 -12.5t24.5 -4.5l-6 -51 q-39 -1 -55 12t-15 44q-28 -38 -54 -52t-69 -14q-75 0 -107 19zM391 441.5q28 24.5 42 88.5l9 42h-99q-58 0 -84.5 -17.5t-36.5 -63.5q-3 -15 -3 -27q0 -27 19 -37t66 -10q59 0 87 24.5zM470 228h-365l11 50h365z" />
         <glyph glyph-name="ordmasculine" unicode="º" d="M211 393q-32 27 -32 91q0 43 14 111q18 86 43 132.5t64 66.5t103 20q73 0 105.5 -27t32.5 -91q0 -42 -14 -110q-18 -86 -43 -133t-64.5 -67t-102.5 -20q-74 0 -106 27zM392 433.5q29 16.5 48 55t33 106.5q12 57 12 91q0 42 -19.5 59.5t-64.5 17.5q-44 0 -73 -16.5 t-48 -54.5t-33 -106q-13 -62 -13 -92q0 -42 20 -59.5t65 -17.5q44 0 73 16.5zM465 228h-365l11 50h365z" />
         <glyph glyph-name="uni2090" unicode="ₐ" d="M104 -45q-32 19 -32 65q0 22 6 50q9 45 28 69.5t54 35t96 10.5h103l11 50q5 21 5 43q0 31 -18.5 43t-62.5 12q-42 0 -66 -15t-44 -54l-53 13q31 62 66.5 84.5t99.5 22.5q72 0 103.5 -21t31.5 -71q0 -24 -8 -62l-44 -208q-2 -10 -2 -13q0 -9 7 -12t24 -5l-6 -51 q-40 0 -55.5 12.5t-14.5 43.5q-27 -36 -52.5 -48.5t-70.5 -12.5q-74 0 -106 19zM299.5 11.5q28.5 24.5 41.5 88.5l10 42h-99q-58 0 -84.5 -18t-36.5 -63q-4 -22 -4 -29q0 -25 19.5 -35t65.5 -10q59 0 87.5 24.5z" />
         <glyph glyph-name="uni2091" unicode="ₑ" d="M159 146q-10 -46 -10 -80q0 -44 21 -61.5t70 -17.5q42 0 69.5 16t53.5 57l39 -34q-35 -52 -69.5 -71t-94.5 -19q-78 0 -112 27t-34 91q0 35 13 100q19 89 45 138.5t67 70.5t108 21q68 0 98 -27t30 -91q0 -44 -16 -122zM226.5 303q-33.5 -30 -54.5 -106l220 2q3 29 3 51 q0 47 -16.5 65t-56.5 18q-62 0 -95.5 -30z" />
         <glyph glyph-name="uni2071" unicode="ⁱ" d="M387.5 799.5q-9.5 6.5 -9.5 22.5q0 4 2 16q4 20 13.5 27t32.5 7q21 0 31 -6.5t10 -21.5q0 -5 -2 -15q-4 -21 -14 -28.5t-33 -7.5q-21 0 -30.5 6.5zM438 707l-80 -378h114l-10 -51h-285l10 51h116l69 327h-84l11 51h139z" />
         <glyph glyph-name="uni207F" unicode="ⁿ" d="M129 278l93 438h55l-12 -49q31 31 59.5 42.5t76.5 11.5q63 0 91 -25.5t28 -85.5q0 -42 -14 -112l-47 -220h-55l48 224q13 61 13 99t-15.5 53.5t-50.5 15.5q-74 0 -110 -31.5t-53 -111.5l-52 -249h-55z" />
         <glyph glyph-name="uni2092" unicode="ₒ" d="M119.5 -37q-32.5 27 -32.5 91q0 44 15 111q18 85 43 132t64 67t103 20q73 0 105 -27t32 -91q0 -42 -14 -110q-18 -86 -43 -133t-64 -67t-103 -20q-73 0 -105.5 27zM300 3.5q29 16.5 48 55t34 106.5q12 56 12 90q0 43 -20 60.5t-65 17.5q-44 0 -72.5 -16.5t-47.5 -54.5 t-34 -106q-12 -57 -12 -92q0 -42 19.5 -59.5t64.5 -17.5q44 0 73 16.5z" />
         <glyph glyph-name="uni2094" unicode="ₔ" d="M410 357.5q34 -26.5 34 -89.5q0 -44 -13 -102q-19 -90 -44.5 -139t-66.5 -70t-108 -21q-68 0 -98 26.5t-30 90.5q0 43 16 123l278 -3q10 46 10 80q0 44 -21.5 62t-70.5 18q-42 0 -69 -16t-53 -57l-39 34q35 52 70 71t94 19q77 0 111 -26.5zM310.5 17q33.5 30 55.5 106 l-221 -2q-4 -42 -4 -54q0 -45 16.5 -62.5t56.5 -17.5q63 0 96.5 30z" />
         <glyph glyph-name="uni2093" unicode="ₓ" d="M423 379h60l-183 -217l92 -221h-65l-70 169l-143 -169h-60l183 217l-92 221h65l70 -169z" />
         <glyph glyph-name="uni0410" unicode="А" d="M551 155q-28 -10 -42 -14l10 -141h-55q-6 66 -27 124q-50 -10 -96 -10q-72 0 -129 25q-39 -81 -72 -117t-66 -36q-47 0 -67 37.5t-20 120.5h55q0 -107 33 -107t92 129q-25 20 -38 44.5t-13 46.5q0 40 29 62.5t76 22.5q13 0 20 -1q53 131 172 459h51l41 -603l30 11z M420 683q-74 -214 -127 -350q97 -26 157 -120zM190 217l31 75q-51 0 -51 -35q0 -17 20 -40zM335 165q39 0 79 8q-53 90 -139 113q-21 -53 -42 -100q44 -21 102 -21z" />
         <glyph glyph-name="uni0411" unicode="Б" d="M172.5 764q53.5 24 149 30t281.5 6l-10 -51q-186 0 -273.5 -5.5t-116 -18.5t-28.5 -39q0 -10 7 -22.5t20 -24.5l-33 -40q-23 19 -36.5 42.5t-13.5 45.5q0 53 53.5 77zM490.5 466q50.5 -43 50.5 -119q0 -105 -38 -187t-107.5 -128t-160.5 -46q-76 0 -117 49 q-24 -49 -44 -49q-29 0 -41.5 39.5t-12.5 101.5q0 128 44 215.5t126 129.5q37 151 57 240h53q-24 -114 -48 -216q46 13 104 13q84 0 134.5 -43zM366 76.5q57 39.5 88.5 110t31.5 160.5q0 53 -35 82.5t-95 29.5q-66 0 -117 -21q-56 -235 -94 -339q10 -30 30.5 -46t59.5 -16 q74 0 131 39.5zM110.5 166.5q27.5 100.5 60.5 229.5q-96 -85 -96 -269q0 -73 -1 -90q9 29 36.5 129.5z" />
         <glyph glyph-name="uni0412" unicode="В" d="M506 355.5q38 -46.5 38 -98.5q0 -81 -33 -142.5t-93 -95t-139 -33.5q-51 0 -93 10t-65 27l32 41q33 -27 126 -27q62 0 110 27.5t74 77.5t26 115q0 66 -58 105.5t-152 39.5l11 50q71 0 125 24t84 67.5t30 101.5q0 53 -32 85.5t-84 32.5q-76 0 -135 -51 q-90 -387 -122.5 -519t-47.5 -169.5t-33 -37.5q-11 0 -18 42.5t-7 110.5q0 100 17 213t57.5 217.5t104.5 167.5q6 22 8 37l6 26h55l-3 -15q52 29 118 29q77 0 124 -46.5t47 -122.5q0 -73 -49 -134t-120 -86q53 -23 91 -69.5zM143 336q-4 -19 62 287q-54 -91 -82 -215 t-36.5 -231.5t-3.5 -107.5q3 0 60 267z" />
         <glyph glyph-name="uni0413" unicode="Г" d="M622 749l-331 -1l-26 -124q-60 -291 -88 -408.5t-56 -173.5t-68 -56q-32 0 -43.5 24t-13.5 76l56 2q1 -52 12 -52q13 0 49.5 149.5t122.5 562.5h-9q-35 0 -48.5 -4t-13.5 -14q0 -6 5 -14t18 -22l-41 -33q-34 40 -34 72q0 67 124 67h395z" />
         <glyph glyph-name="uni0403" unicode="Ѓ" d="M622 749l-331 -1l-26 -124q-60 -291 -88 -408.5t-56 -173.5t-68 -56q-32 0 -43.5 24t-13.5 76l56 2q1 -52 12 -52q13 0 49.5 149.5t122.5 562.5h-9q-35 0 -48.5 -4t-13.5 -14q0 -6 5 -14t18 -22l-41 -33q-34 40 -34 72q0 67 124 67h395zM572 989l-162 -122l-30 39 l162 121z" />
         <glyph glyph-name="uni0490" unicode="Ґ" d="M603 927h55l-26 -127l-10 -51l-331 -1l-26 -124q-60 -291 -88 -408.5t-56 -173.5t-68 -56q-32 0 -43.5 24t-13.5 76l56 2q1 -52 12 -52q13 0 49.5 149.5t122.5 562.5h-9q-35 0 -48.5 -4t-13.5 -14q0 -6 5 -14t18 -22l-41 -33q-34 40 -34 72q0 67 124 67h340z" />
         <glyph glyph-name="uni0414" unicode="Д" d="M493 781q46 -33 72 -88.5t26 -119.5q0 -168 -48.5 -302t-130.5 -209.5t-179 -75.5q-32 0 -60.5 16t-59.5 43q-35 -59 -73 -59q-34 0 -54.5 21.5t-20.5 56.5t22.5 56.5t58.5 21.5q23 0 52 -18q55 151 117 494h55q-64 -373 -132 -526q26 -25 52 -40t43 -15q81 0 150.5 69 t111 191.5t41.5 275.5q0 50 -18.5 93.5t-52.5 70t-77 26.5q-71 0 -134 -23t-96 -61l-41 34q39 45 114 73t157 28q59 0 105 -33zM78 76q-22 17 -32 17q-13 0 -21.5 -8t-8.5 -21t6.5 -21t17.5 -8q17 0 38 41z" />
         <glyph glyph-name="uni0415" unicode="Е" d="M95.5 30q-46.5 44 -46.5 120q0 49 20 105.5t53.5 102t73.5 63.5q-30 17 -46.5 51.5t-16.5 78.5q0 73 37 133t101 95t139 35q85 0 134 -39.5t49 -105.5q0 -22 -4 -41h-56q3 15 3 29q0 49 -39.5 77.5t-106.5 28.5q-57 0 -102.5 -26.5t-71 -71.5t-25.5 -100 q0 -50 26.5 -81.5t72.5 -35.5l-12 -50q-48 -4 -87.5 -40t-61.5 -88.5t-22 -102.5q0 -60 36.5 -95t101.5 -35q73 0 126 40.5t67 108.5h56q-13 -59 -51 -104.5t-94.5 -70.5t-123.5 -25q-83 0 -129.5 44z" />
         <glyph glyph-name="uni0400" unicode="Ѐ" d="M95.5 30q-46.5 44 -46.5 120q0 49 20 105.5t53.5 102t73.5 63.5q-30 17 -46.5 51.5t-16.5 78.5q0 73 37 133t101 95t139 35q85 0 134 -39.5t49 -105.5q0 -22 -4 -41h-56q3 15 3 29q0 49 -39.5 77.5t-106.5 28.5q-57 0 -102.5 -26.5t-71 -71.5t-25.5 -100 q0 -50 26.5 -81.5t72.5 -35.5l-12 -50q-48 -4 -87.5 -40t-61.5 -88.5t-22 -102.5q0 -60 36.5 -95t101.5 -35q73 0 126 40.5t67 108.5h56q-13 -59 -51 -104.5t-94.5 -70.5t-123.5 -25q-83 0 -129.5 44zM488 909l-43 -39l-115 122l43 38z" />
         <glyph glyph-name="uni0401" unicode="Ё" d="M95.5 30q-46.5 44 -46.5 120q0 49 20 105.5t53.5 102t73.5 63.5q-30 17 -46.5 51.5t-16.5 78.5q0 73 37 133t101 95t139 35q85 0 134 -39.5t49 -105.5q0 -22 -4 -41h-56q3 15 3 29q0 49 -39.5 77.5t-106.5 28.5q-57 0 -102.5 -26.5t-71 -71.5t-25.5 -100 q0 -50 26.5 -81.5t72.5 -35.5l-12 -50q-48 -4 -87.5 -40t-61.5 -88.5t-22 -102.5q0 -60 36.5 -95t101.5 -35q73 0 126 40.5t67 108.5h56q-13 -59 -51 -104.5t-94.5 -70.5t-123.5 -25q-83 0 -129.5 44zM299.5 922.5q-12.5 8.5 -12.5 27.5q0 10 3 23q5 28 18 38t44 10 q28 0 40.5 -8t12.5 -27q0 -10 -3 -22q-6 -29 -19 -39.5t-44 -10.5q-27 0 -39.5 8.5zM515.5 922.5q-12.5 8.5 -12.5 27.5q0 10 3 23q5 28 18 38t44 10q28 0 40.5 -8t12.5 -27q0 -10 -3 -22q-6 -29 -19 -39.5t-44 -10.5q-27 0 -39.5 8.5z" />
         <glyph glyph-name="uni0416" unicode="Ж" d="M498 44.5q5 7.5 11 25.5l50 -11q-8 -38 -27.5 -55.5t-52.5 -17.5q-43 0 -64 50t-21 135q0 105 28 233q-39 -21 -81 -27l-80 -377h-54l79 372q-40 -8 -85 -39q-39 -147 -95.5 -247t-113.5 -100q-55 0 -55 61q0 21 29.5 77.5t79 120.5t106.5 109q19 81 30 159t11 137 q0 113 -39 113q-9 0 -14 -7.5t-11 -25.5l-50 11q8 38 27.5 55.5t52.5 17.5q43 0 64 -50t21 -135q0 -105 -28 -233q39 21 81 27l80 377h54l-79 -372q40 8 85 39q39 147 95.5 247t113.5 100q55 0 55 -61q0 -21 -29.5 -77.5t-79 -120.5t-106.5 -110q-19 -80 -30 -158t-11 -137 q0 -113 39 -113q9 0 14 7.5zM575 698q-37 -66 -67 -171q39 40 72.5 87t53 86.5t19.5 55.5q0 8 -6 8q-35 0 -72 -66zM63 102q37 66 67 171q-39 -40 -72.5 -87t-53 -86.5t-19.5 -55.5q0 -8 6 -8q35 0 72 66z" />
         <glyph glyph-name="uni0417" unicode="З" d="M97.5 28q-50.5 42 -50.5 113q0 18 5 45h56q-4 -17 -4 -37q0 -52 35.5 -82t97.5 -30q65 0 116.5 35t77.5 95q21 50 21 102q0 53 -24 89t-70 40l9 50q49 4 88 35.5t61 81.5q18 44 18 81q0 53 -35 85t-97 32q-68 0 -119.5 -28.5t-71.5 -77.5q-3 -6 -10 -29h-56q3 16 13 41 q29 66 94.5 105.5t150.5 39.5q86 0 136.5 -45t50.5 -118q0 -47 -22 -100q-19 -44 -50 -78.5t-69 -51.5q29 -17 43.5 -54.5t14.5 -87.5q0 -70 -25 -129q-32 -76 -97.5 -120t-148.5 -44q-88 0 -138.5 42z" />
         <glyph glyph-name="uni0418" unicode="И" d="M522 59l26 -41q-14 -14 -39 -23t-52 -9q-28 0 -45 17.5t-17 50.5q0 12 1 18q-75 -86 -181 -86q-74 0 -117.5 40.5t-43.5 127.5q0 59 24 144l118 416q2 12 2 19q0 13 -9.5 21.5t-24.5 8.5q-25 0 -47 -22l-26 41q13 14 38.5 23t52.5 9q30 0 52 -19t22 -50q0 -14 -4 -26 l-120 -426q-26 -95 -26 -147q0 -59 30.5 -84t96.5 -25q54 0 92 24.5t66.5 81.5t49.5 155l107 502h55l-108 -507q-8 -36 -13 -53q-40 -157 -41 -173q-2 -13 8 -21.5t26 -8.5q25 0 47 22z" />
         <glyph glyph-name="uni0419" unicode="Й" d="M522 59l26 -41q-14 -14 -39 -23t-52 -9q-28 0 -45 17.5t-17 50.5q0 12 1 18q-75 -86 -181 -86q-74 0 -117.5 40.5t-43.5 127.5q0 59 24 144l118 416q2 12 2 19q0 13 -9.5 21.5t-24.5 8.5q-25 0 -47 -22l-26 41q13 14 38.5 23t52.5 9q30 0 52 -19t22 -50q0 -14 -4 -26 l-120 -426q-26 -95 -26 -147q0 -59 30.5 -84t96.5 -25q54 0 92 24.5t66.5 81.5t49.5 155l107 502h55l-108 -507q-8 -36 -13 -53q-40 -157 -41 -173q-2 -13 8 -21.5t26 -8.5q25 0 47 22zM336 881.5q-26 16.5 -26 55.5q0 20 6 47h65q-19 -33 -19 -47q0 -12 14 -17t47 -5 q48 0 66.5 10.5t18.5 36.5q0 6 -2 22h64q-10 -47 -26.5 -72.5t-45 -36t-77.5 -10.5q-59 0 -85 16.5z" />
         <glyph glyph-name="uni040D" unicode="Ѝ" d="M522 59l26 -41q-14 -14 -39 -23t-52 -9q-28 0 -45 17.5t-17 50.5q0 12 1 18q-75 -86 -181 -86q-74 0 -117.5 40.5t-43.5 127.5q0 59 24 144l118 416q2 12 2 19q0 13 -9.5 21.5t-24.5 8.5q-25 0 -47 -22l-26 41q13 14 38.5 23t52.5 9q30 0 52 -19t22 -50q0 -14 -4 -26 l-120 -426q-26 -95 -26 -147q0 -59 30.5 -84t96.5 -25q54 0 92 24.5t66.5 81.5t49.5 155l107 502h55l-108 -507q-8 -36 -13 -53q-40 -157 -41 -173q-2 -13 8 -21.5t26 -8.5q25 0 47 22zM473 906l-43 -39l-115 122l43 38z" />
         <glyph glyph-name="uni041A" unicode="К" d="M622.5 789q24.5 -25 24.5 -66q0 -17 -4 -32l-53 11q2 7 2 21q0 19 -8.5 29.5t-24.5 10.5q-36 0 -61.5 -20.5t-43.5 -50.5t-44 -85q-32 -69 -58.5 -110.5t-66.5 -69.5q75 -23 115 -81.5t40 -153.5q0 -59 -14 -122q-1 -3 -1 -9q0 -24 36 -24t56 23l27 -42 q-13 -14 -37.5 -23t-47.5 -9q-33 0 -59 16t-26 50q0 4 2 18q13 64 13 116q0 104 -49.5 151.5t-137.5 54.5q-39 -166 -65.5 -250.5t-52.5 -120t-62 -35.5q-28 0 -45.5 21.5t-28.5 62.5l53 13q5 -21 13 -33.5t12 -12.5q22 0 46 64.5t57.5 205t101.5 447.5q0 9 -22 9 q-34 0 -48 -20l-45 27q11 20 36.5 32t55.5 12q32 0 53 -16.5t21 -41.5q0 -8 -1 -12l-67 -298q33 7 56.5 27.5t39.5 47t38 73.5q5 12 17 36q43 87 86.5 135.5t106.5 48.5q40 0 64.5 -25z" />
         </font>
</defs>
</svg>
