<?xml version="1.0" encoding="UTF-8"?>
<!DOCTYPE svg PUBLIC "-//W3C//DTD SVG 1.1//EN" "http://www.w3.org/Graphics/SVG/1.1/DTD/svg11.dtd">
<svg xmlns="http://www.w3.org/2000/svg" xmlns:xlink="http://www.w3.org/1999/xlink" version="1.1">
   <metadata>Created by FontForge 20170812 at Tue Nov  3 11:52:49 2020
 By www-data
Copyright (c) 2019 by Rune Bjrneras. All rights reserved.</metadata>
   <defs>
      <font id="VictorMono-MediumOblique" horiz-adv-x="600">
         <font-face font-family="Victor Mono Medium" font-weight="500" font-style="oblique" font-stretch="normal" units-per-em="1100" panose-1="0 0 6 9 0 0 0 0 0 0" ascent="880" descent="-220" x-height="618" cap-height="800" bbox="-1803 -529 886 1306" underline-thickness="50" underline-position="-100" slope="-12" unicode-range="U+0020-E0B3" />
         <missing-glyph d="M356 0h-354l173 814h354zM243 737l-140 -660h186l140 660h-186z" />
         <glyph glyph-name=".notdef" d="M356 0h-354l173 814h354zM243 737l-140 -660h186l140 660h-186z" />
         <glyph glyph-name=".null" horiz-adv-x="408" />
         <glyph glyph-name="nonmarkingreturn" />
         <glyph glyph-name="space" unicode=" " />
         <glyph glyph-name="A" unicode="A" d="M501 0h-85l-12 200h-253l-97 -200h-88l392 800h90zM376 661l-187 -383h210z" />
         <glyph glyph-name="Aacute" unicode="Á" d="M501 0h-85l-12 200h-253l-97 -200h-88l392 800h90zM376 661l-187 -383h210zM595 1000l-187 -139l-45 59l187 139z" />
         <glyph glyph-name="Abreve" unicode="Ă" d="M501 0h-85l-12 200h-253l-97 -200h-88l392 800h90zM376 661l-187 -383h210zM331 894q-30 20 -30 65q0 22 10 62h83q-8 -34 -8 -46q0 -14 9 -18.5t34 -4.5q29 0 44.5 6t23 20t13.5 43h82q-9 -57 -27.5 -88.5t-50.5 -45t-87 -13.5q-66 0 -96 20z" />
         <glyph glyph-name="uni1EAE" unicode="Ắ" d="M501 0h-85l-12 200h-253l-97 -200h-88l392 800h90zM376 661l-187 -383h210zM577 1035l-149 -111l-45 58l149 112zM316 836q-30 16 -30 57q0 19 8 53h83q-5 -20 -5 -28q0 -12 9.5 -16t35.5 -4q41 0 56 11t21 37h82q-9 -52 -26 -79t-48 -37t-88 -10q-68 0 -98 16z" />
         <glyph glyph-name="uni1EB6" unicode="Ặ" d="M501 0h-85l-12 200h-253l-97 -200h-88l392 800h90zM376 661l-187 -383h210zM142.5 -223.5q-14.5 9.5 -14.5 32.5q0 13 3 29q7 34 23.5 46.5t52.5 12.5q34 0 49 -9.5t15 -31.5q0 -14 -4 -29q-7 -34 -23 -47t-52 -13q-35 0 -49.5 9.5zM331 894q-30 20 -30 65q0 22 10 62h83 q-8 -34 -8 -46q0 -14 9 -18.5t34 -4.5q29 0 44.5 6t23 20t13.5 43h82q-9 -57 -27.5 -88.5t-50.5 -45t-87 -13.5q-66 0 -96 20z" />
         <glyph glyph-name="uni1EB0" unicode="Ằ" d="M501 0h-85l-12 200h-253l-97 -200h-88l392 800h90zM376 661l-187 -383h210zM503 982l-66 -58l-107 111l66 59zM316 836q-30 16 -30 57q0 19 8 53h83q-5 -20 -5 -28q0 -12 9.5 -16t35.5 -4q41 0 56 11t21 37h82q-9 -52 -26 -79t-48 -37t-88 -10q-68 0 -98 16z" />
         <glyph glyph-name="uni1EB2" unicode="Ẳ" d="M501 0h-85l-12 200h-253l-97 -200h-88l392 800h90zM376 661l-187 -383h210zM585 944q34 5 56.5 18t25.5 29l1 5q0 7 -5 10.5t-13 3.5q-19 0 -48.5 -14.5t-60.5 -37.5l15 96q20 15 47 24t49 9q46 0 73 -21.5t27 -58.5q0 -50 -42 -88t-112 -50zM316 836q-30 16 -30 57 q0 19 8 53h83q-5 -20 -5 -28q0 -12 9.5 -16t35.5 -4q41 0 56 11t21 37h82q-9 -55 -26 -81.5t-47.5 -35.5t-88.5 -9q-68 0 -98 16z" />
         <glyph glyph-name="uni1EB4" unicode="Ẵ" d="M501 0h-85l-12 200h-253l-97 -200h-88l392 800h90zM376 661l-187 -383h210zM685.5 959q-22.5 16 -46.5 40q-2 2 -12.5 11.5t-14.5 9.5q-14 0 -22.5 -15t-8.5 -36h-83q7 58 39 93t77 35q23 0 44 -15t44 -39q9 -9 17 -16t13 -7q14 0 22 14t8 34h83q-6 -57 -37.5 -91 t-77.5 -34q-22 0 -44.5 16zM316 836q-30 16 -30 57q0 19 8 53h83q-5 -20 -5 -28q0 -13 9.5 -17t35.5 -4q40 0 55 11t22 38h82q-9 -53 -26 -79.5t-48 -36.5t-88 -10q-68 0 -98 16z" />
         <glyph glyph-name="uni01CD" unicode="Ǎ" d="M501 0h-85l-12 200h-253l-97 -200h-88l392 800h90zM376 661l-187 -383h210zM599 988l-183 -139l-127 137l72 51l74 -81l107 83z" />
         <glyph glyph-name="Acircumflex" unicode="Â" d="M501 0h-85l-12 200h-253l-97 -200h-88l392 800h90zM376 661l-187 -383h210zM580 899l-73 -50l-72 82l-109 -80l-56 50l182 138z" />
         <glyph glyph-name="uni1EA4" unicode="Ấ" d="M501 0h-85l-12 200h-253l-97 -200h-88l392 800h90zM376 661l-187 -383h210zM736 1028l-149 -110l-46 58l149 111zM577 883l-73 -50l-72 82l-109 -80l-56 50l182 138z" />
         <glyph glyph-name="uni1EAC" unicode="Ậ" d="M501 0h-85l-12 200h-253l-97 -200h-88l392 800h90zM376 661l-187 -383h210zM142.5 -223.5q-14.5 9.5 -14.5 32.5q0 13 3 29q7 34 23.5 46.5t52.5 12.5q34 0 49 -9.5t15 -31.5q0 -14 -4 -29q-7 -34 -23 -47t-52 -13q-35 0 -49.5 9.5zM580 899l-73 -50l-72 82l-109 -80 l-56 50l182 138z" />
         <glyph glyph-name="uni1EA6" unicode="Ầ" d="M501 0h-85l-12 200h-253l-97 -200h-88l392 800h90zM376 661l-187 -383h210zM624 912l-104 113l70 54l108 -117zM580 899l-73 -50l-72 82l-109 -80l-56 50l182 138z" />
         <glyph glyph-name="uni1EA8" unicode="Ẩ" d="M501 0h-85l-12 200h-253l-97 -200h-88l392 800h90zM376 661l-187 -383h210zM577 883l-73 -50l-72 82l-109 -80l-56 50l182 138zM585 944q33 5 55.5 18t26.5 29v4q0 15 -17 15q-37 0 -109 -52l15 95q20 16 47 25t49 9q46 0 72.5 -22t26.5 -59q0 -49 -42 -87.5t-111 -50.5z " />
         <glyph glyph-name="uni1EAA" unicode="Ẫ" d="M501 0h-85l-12 200h-253l-97 -200h-88l392 800h90zM376 661l-187 -383h210zM577 883l-73 -50l-72 82l-109 -80l-56 50l182 138zM712.5 939q-22.5 16 -46.5 40q-2 2 -12.5 11.5t-14.5 9.5q-14 0 -22.5 -15t-8.5 -36h-84q7 59 39.5 93.5t77.5 34.5q22 0 42.5 -14.5 t45.5 -39.5q9 -9 17 -16t13 -7q14 0 22 14t8 34h83q-6 -56 -38 -90.5t-77 -34.5q-22 0 -44.5 16z" />
         <glyph glyph-name="Adieresis" unicode="Ä" d="M501 0h-85l-12 200h-253l-97 -200h-88l392 800h90zM376 661l-187 -383h210zM274 911q-16 12 -16 37q0 11 3 26q7 32 24.5 45.5t52.5 13.5t51 -12t16 -37q0 -10 -3 -24q-8 -34 -25 -47.5t-53 -13.5q-34 0 -50 12zM490 911q-16 12 -16 37q0 11 3 26q7 32 24.5 45.5 t52.5 13.5t51 -12t16 -37q0 -10 -3 -24q-8 -34 -25 -47.5t-53 -13.5q-34 0 -50 12z" />
         <glyph glyph-name="uni1EA0" unicode="Ạ" d="M501 0h-85l-12 200h-253l-97 -200h-88l392 800h90zM376 661l-187 -383h210zM142.5 -223.5q-14.5 9.5 -14.5 32.5q0 13 3 29q7 34 23.5 46.5t52.5 12.5q34 0 49 -9.5t15 -31.5q0 -14 -4 -29q-7 -34 -23 -47t-52 -13q-35 0 -49.5 9.5z" />
         <glyph glyph-name="Agrave" unicode="À" d="M501 0h-85l-12 200h-253l-97 -200h-88l392 800h90zM376 661l-187 -383h210zM497 920l-66 -59l-134 139l66 59z" />
         <glyph glyph-name="uni1EA2" unicode="Ả" d="M501 0h-85l-12 200h-253l-97 -200h-88l392 800h90zM376 661l-187 -383h210zM376 917q33 5 55.5 18t26.5 29v4q0 15 -17 15q-37 0 -109 -52l15 95q20 16 47 25t49 9q46 0 72.5 -22t26.5 -59q0 -49 -42 -87.5t-111 -50.5z" />
         <glyph glyph-name="Amacron" unicode="Ā" d="M501 0h-85l-12 200h-253l-97 -200h-88l392 800h90zM376 661l-187 -383h210zM578 893h-308l16 78h308z" />
         <glyph glyph-name="Aogonek" unicode="Ą" d="M515 -154q-17 -19 -47 -30.5t-61 -11.5q-55 0 -88.5 23t-33.5 62q0 35 38.5 68t92.5 49l-12 194h-253l-97 -200h-88l392 800h90l53 -800q-74 -35 -103.5 -54.5t-29.5 -38.5q0 -26 40 -26q14 0 27.5 5.5t21.5 14.5zM376 661l-187 -383h210z" />
         <glyph glyph-name="Aring" unicode="Å" d="M535 972q30 -20 30 -67q0 -21 -6 -50q-12 -56 -36.5 -84t-70.5 -36l49 -735h-85l-12 200h-253l-97 -200h-88l362 739q-29 9 -43 29t-14 52q0 22 6 49q16 69 51 96t110 27q67 0 97 -20zM481 893q0 13 -9.5 17.5t-35.5 4.5q-38 0 -53.5 -12.5t-23.5 -47.5q-4 -20 -4 -24 q0 -14 9.5 -18.5t34.5 -4.5q39 0 55 13t23 48q4 20 4 24zM376 661l-187 -383h210z" />
         <glyph glyph-name="Atilde" unicode="Ã" d="M501 0h-85l-12 200h-253l-97 -200h-88l392 800h90zM376 661l-187 -383h210zM450.5 893q-22.5 16 -46.5 40q-2 2 -12.5 11.5t-14.5 9.5q-14 0 -22.5 -15t-8.5 -36h-84q7 59 39.5 93.5t77.5 34.5q22 0 42.5 -14.5t45.5 -39.5q9 -9 17 -16t13 -7q14 0 22 14t8 34h83 q-6 -56 -38 -90.5t-77 -34.5q-22 0 -44.5 16z" />
         <glyph glyph-name="AE" unicode="Æ" d="M694 800l-15 -77h-214l-66 -307h141l-16 -78h-140l-56 -261h213l-17 -77h-297l52 246h-139l-115 -246h-87l375 800h381zM177 324h119l85 399h-17z" />
         <glyph glyph-name="B" unicode="B" d="M11 0l170 800h204q106 0 152.5 -31.5t46.5 -103.5q0 -33 -9 -77q-14 -68 -38 -102t-75 -59q37 -16 54.5 -43t17.5 -71q0 -33 -11 -88q-18 -86 -49.5 -134t-85 -69.5t-141.5 -21.5h-236zM313 462q60 0 94.5 11.5t54.5 41t32 86.5q7 35 7 51q0 40 -27.5 55.5t-97.5 15.5 h-127l-56 -261h120zM256 77q59 0 94.5 15t57 49.5t34.5 96.5q9 44 9 71q0 45 -27 60t-95 15h-152l-65 -307h144z" />
         <glyph glyph-name="C" unicode="C" d="M97.5 33.5q-48.5 47.5 -48.5 155.5q0 85 29 219q33 154 74.5 241.5t103.5 126t159 38.5q69 0 109.5 -18.5t60.5 -60t26 -112.5l-82 -21q-5 56 -16.5 84.5t-34 39.5t-65.5 11q-69 0 -115 -32t-78.5 -105.5t-60.5 -205.5q-28 -131 -28 -198q0 -72 29.5 -102.5t95.5 -30.5 q46 0 76.5 12.5t55.5 41.5t53 84l76 -33q-36 -71 -71.5 -110t-80.5 -55.5t-111 -16.5q-108 0 -156.5 47.5z" />
         <glyph glyph-name="Cacute" unicode="Ć" d="M97.5 33.5q-48.5 47.5 -48.5 155.5q0 85 29 219q33 154 74.5 241.5t103.5 126t159 38.5q69 0 109.5 -18.5t60.5 -60t26 -112.5l-82 -21q-5 56 -16.5 84.5t-34 39.5t-65.5 11q-69 0 -115 -32t-78.5 -105.5t-60.5 -205.5q-28 -131 -28 -198q0 -72 29.5 -102.5t95.5 -30.5 q46 0 76.5 12.5t55.5 41.5t53 84l76 -33q-36 -71 -71.5 -110t-80.5 -55.5t-111 -16.5q-108 0 -156.5 47.5zM594 997l-187 -139l-45 59l187 139z" />
         <glyph glyph-name="Ccaron" unicode="Č" d="M97.5 33.5q-48.5 47.5 -48.5 155.5q0 85 29 219q33 154 74.5 241.5t103.5 126t159 38.5q69 0 109.5 -18.5t60.5 -60t26 -112.5l-82 -21q-5 56 -16.5 84.5t-34 39.5t-65.5 11q-69 0 -115 -32t-78.5 -105.5t-60.5 -205.5q-28 -131 -28 -198q0 -72 29.5 -102.5t95.5 -30.5 q46 0 76.5 12.5t55.5 41.5t53 84l76 -33q-36 -71 -71.5 -110t-80.5 -55.5t-111 -16.5q-108 0 -156.5 47.5zM598 985l-183 -139l-127 137l72 51l74 -81l107 83z" />
         <glyph glyph-name="Ccedilla" unicode="Ç" d="M298 705q-46 -32 -78.5 -105.5t-60.5 -205.5q-28 -131 -28 -198q0 -72 29.5 -102.5t95.5 -30.5q46 0 76.5 12.5t55.5 41.5t53 84l76 -33q-35 -68 -69 -106.5t-76 -56t-102 -19.5l-9 -31q28 -7 44 -26.5t16 -46.5q0 -10 -1 -15q-9 -42 -46.5 -68t-89.5 -26q-35 0 -62 12.5 t-39 31.5l42 55q7 -10 24 -15.5t38 -5.5t36 9.5t15 22.5q0 9 -17.5 14t-48.5 5l16 89q-72 14 -105.5 61t-33.5 137q0 85 29 219q33 154 74.5 241.5t103.5 126t159 38.5q69 0 109.5 -18.5t60.5 -60t26 -112.5l-82 -21q-5 56 -16.5 84.5t-34 39.5t-65.5 11q-69 0 -115 -32z " />
         <glyph glyph-name="Ccircumflex" unicode="Ĉ" d="M97.5 33.5q-48.5 47.5 -48.5 155.5q0 85 29 219q33 154 74.5 241.5t103.5 126t159 38.5q69 0 109.5 -18.5t60.5 -60t26 -112.5l-82 -21q-5 56 -16.5 84.5t-34 39.5t-65.5 11q-69 0 -115 -32t-78.5 -105.5t-60.5 -205.5q-28 -131 -28 -198q0 -72 29.5 -102.5t95.5 -30.5 q46 0 76.5 12.5t55.5 41.5t53 84l76 -33q-36 -71 -71.5 -110t-80.5 -55.5t-111 -16.5q-108 0 -156.5 47.5zM579 896l-73 -50l-72 82l-109 -80l-56 50l182 138z" />
         <glyph glyph-name="Cdotaccent" unicode="Ċ" d="M97.5 33.5q-48.5 47.5 -48.5 155.5q0 85 29 219q33 154 74.5 241.5t103.5 126t159 38.5q69 0 109.5 -18.5t60.5 -60t26 -112.5l-82 -21q-5 56 -16.5 84.5t-34 39.5t-65.5 11q-69 0 -115 -32t-78.5 -105.5t-60.5 -205.5q-28 -131 -28 -198q0 -72 29.5 -102.5t95.5 -30.5 q46 0 76.5 12.5t55.5 41.5t53 84l76 -33q-36 -71 -71.5 -110t-80.5 -55.5t-111 -16.5q-108 0 -156.5 47.5zM384.5 920.5q-14.5 9.5 -14.5 32.5q0 13 3 29q7 34 23.5 46.5t52.5 12.5q34 0 49 -9.5t15 -31.5q0 -14 -4 -29q-7 -34 -23 -47t-52 -13q-35 0 -49.5 9.5z" />
         <glyph glyph-name="D" unicode="D" d="M414 800q99 0 144.5 -45.5t45.5 -148.5q0 -79 -28 -213q-32 -150 -72 -234t-100 -121.5t-153 -37.5h-249l170 800h242zM521 598q0 69 -27 97t-89 28h-166l-136 -646h157q63 0 105 30.5t72.5 101.5t57.5 198q26 125 26 191z" />
         <glyph glyph-name="Eth" unicode="Ð" d="M417 800q99 0 144.5 -45.5t45.5 -148.5q0 -79 -28 -213q-32 -150 -72 -234t-100 -121.5t-153 -37.5h-249l82 384h-52l16 78h52l72 338h242zM524 598q0 69 -27 97t-89 28h-166l-55 -261h144l-15 -78h-145l-65 -307h157q63 0 105 30.5t72.5 101.5t57.5 198q26 125 26 191z " />
         <glyph glyph-name="Dcaron" unicode="Ď" d="M414 800q99 0 144.5 -45.5t45.5 -148.5q0 -79 -28 -213q-32 -150 -72 -234t-100 -121.5t-153 -37.5h-249l170 800h242zM521 598q0 69 -27 97t-89 28h-166l-136 -646h157q63 0 105 30.5t72.5 101.5t57.5 198q26 125 26 191zM598 985l-183 -139l-127 137l72 51l74 -81 l107 83z" />
         <glyph glyph-name="Dcroat" unicode="Đ" d="M417 800q99 0 144.5 -45.5t45.5 -148.5q0 -79 -28 -213q-32 -150 -72 -234t-100 -121.5t-153 -37.5h-249l82 384h-52l16 78h52l72 338h242zM524 598q0 69 -27 97t-89 28h-166l-55 -261h144l-15 -78h-145l-65 -307h157q63 0 105 30.5t72.5 101.5t57.5 198q26 125 26 191z " />
         <glyph glyph-name="E" unicode="E" d="M647 800l-16 -77h-375l-53 -261h238l-16 -78h-242l-63 -307h374l-17 -77h-458l170 800h458z" />
         <glyph glyph-name="Eacute" unicode="É" d="M647 800l-16 -77h-375l-53 -261h238l-16 -78h-242l-63 -307h374l-17 -77h-458l170 800h458zM609 1000l-187 -139l-45 59l187 139z" />
         <glyph glyph-name="Ecaron" unicode="Ě" d="M647 800l-16 -77h-375l-53 -261h238l-16 -78h-242l-63 -307h374l-17 -77h-458l170 800h458zM613 988l-183 -139l-127 137l72 51l74 -81l107 83z" />
         <glyph glyph-name="Ecircumflex" unicode="Ê" d="M647 800l-16 -77h-375l-53 -261h238l-16 -78h-242l-63 -307h374l-17 -77h-458l170 800h458zM594 899l-73 -50l-72 82l-109 -80l-56 50l182 138z" />
         <glyph glyph-name="uni1EBE" unicode="Ế" d="M647 800l-16 -77h-375l-53 -261h238l-16 -78h-242l-63 -307h374l-17 -77h-458l170 800h458zM750 1028l-149 -110l-46 58l149 111zM591 883l-73 -50l-72 82l-109 -80l-56 50l182 138z" />
         <glyph glyph-name="uni1EC6" unicode="Ệ" d="M647 800l-16 -77h-375l-53 -261h238l-16 -78h-242l-63 -307h374l-17 -77h-458l170 800h458zM156.5 -223.5q-14.5 9.5 -14.5 32.5q0 13 3 29q7 34 23.5 46.5t52.5 12.5q34 0 49 -9.5t15 -31.5q0 -14 -4 -29q-7 -34 -23 -47t-52 -13q-35 0 -49.5 9.5zM594 899l-73 -50 l-72 82l-109 -80l-56 50l182 138z" />
         <glyph glyph-name="uni1EC0" unicode="Ề" d="M647 800l-16 -77h-375l-53 -261h238l-16 -78h-242l-63 -307h374l-17 -77h-458l170 800h458zM638 912l-104 113l70 54l108 -117zM594 899l-73 -50l-72 82l-109 -80l-56 50l182 138z" />
         <glyph glyph-name="uni1EC2" unicode="Ể" d="M647 800l-16 -77h-375l-53 -261h238l-16 -78h-242l-63 -307h374l-17 -77h-458l170 800h458zM591 883l-73 -50l-72 82l-109 -80l-56 50l182 138zM599 944q33 5 55.5 18t26.5 29v4q0 15 -17 15q-37 0 -109 -52l15 95q20 16 47 25t49 9q46 0 72.5 -22t26.5 -59 q0 -49 -42 -87.5t-111 -50.5z" />
         <glyph glyph-name="uni1EC4" unicode="Ễ" d="M647 800l-16 -77h-375l-53 -261h238l-16 -78h-242l-63 -307h374l-17 -77h-458l170 800h458zM591 883l-73 -50l-72 82l-109 -80l-56 50l182 138zM726.5 939q-22.5 16 -46.5 40q-2 2 -12.5 11.5t-14.5 9.5q-14 0 -22.5 -15t-8.5 -36h-84q7 59 39.5 93.5t77.5 34.5 q22 0 42.5 -14.5t45.5 -39.5q9 -9 17 -16t13 -7q14 0 22 14t8 34h83q-6 -56 -38 -90.5t-77 -34.5q-22 0 -44.5 16z" />
         <glyph glyph-name="Edieresis" unicode="Ë" d="M647 800l-16 -77h-375l-53 -261h238l-16 -78h-242l-63 -307h374l-17 -77h-458l170 800h458zM288 911q-16 12 -16 37q0 11 3 26q7 32 24.5 45.5t52.5 13.5t51 -12t16 -37q0 -10 -3 -24q-8 -34 -25 -47.5t-53 -13.5q-34 0 -50 12zM504 911q-16 12 -16 37q0 11 3 26 q7 32 24.5 45.5t52.5 13.5t51 -12t16 -37q0 -10 -3 -24q-8 -34 -25 -47.5t-53 -13.5q-34 0 -50 12z" />
         <glyph glyph-name="Edotaccent" unicode="Ė" d="M647 800l-16 -77h-375l-53 -261h238l-16 -78h-242l-63 -307h374l-17 -77h-458l170 800h458zM399.5 923.5q-14.5 9.5 -14.5 32.5q0 13 3 29q7 34 23.5 46.5t52.5 12.5q34 0 49 -9.5t15 -31.5q0 -14 -4 -29q-7 -34 -23 -47t-52 -13q-35 0 -49.5 9.5z" />
         <glyph glyph-name="uni1EB8" unicode="Ẹ" d="M647 800l-16 -77h-375l-53 -261h238l-16 -78h-242l-63 -307h374l-17 -77h-458l170 800h458zM156.5 -223.5q-14.5 9.5 -14.5 32.5q0 13 3 29q7 34 23.5 46.5t52.5 12.5q34 0 49 -9.5t15 -31.5q0 -14 -4 -29q-7 -34 -23 -47t-52 -13q-35 0 -49.5 9.5z" />
         <glyph glyph-name="Egrave" unicode="È" d="M647 800l-16 -77h-375l-53 -261h238l-16 -78h-242l-63 -307h374l-17 -77h-458l170 800h458zM511 920l-66 -59l-134 139l66 59z" />
         <glyph glyph-name="uni1EBA" unicode="Ẻ" d="M647 800l-16 -77h-375l-53 -261h238l-16 -78h-242l-63 -307h374l-17 -77h-458l170 800h458zM390 917q33 5 55.5 18t26.5 29v4q0 15 -17 15q-37 0 -109 -52l15 95q20 16 47 25t49 9q46 0 72.5 -22t26.5 -59q0 -49 -42 -87.5t-111 -50.5z" />
         <glyph glyph-name="Emacron" unicode="Ē" d="M647 800l-16 -77h-375l-53 -261h238l-16 -78h-242l-63 -307h374l-17 -77h-458l170 800h458zM592 893h-308l16 78h308z" />
         <glyph glyph-name="Eogonek" unicode="Ę" d="M631 723h-375l-53 -261h238l-16 -78h-242l-63 -307h374l-17 -77q-74 -35 -103.5 -54.5t-29.5 -38.5q0 -26 40 -26q14 0 27.5 5.5t21.5 14.5l58 -55q-17 -19 -47 -30.5t-61 -11.5q-55 0 -88.5 23t-33.5 62q0 32 32.5 62.5t80.5 48.5h-355l170 800h458z" />
         <glyph glyph-name="uni1EBC" unicode="Ẽ" d="M647 800l-16 -77h-375l-53 -261h238l-16 -78h-242l-63 -307h374l-17 -77h-458l170 800h458zM464.5 893q-22.5 16 -46.5 40q-2 2 -12.5 11.5t-14.5 9.5q-14 0 -22.5 -15t-8.5 -36h-84q7 59 39.5 93.5t77.5 34.5q22 0 42.5 -14.5t45.5 -39.5q9 -9 17 -16t13 -7q14 0 22 14 t8 34h83q-6 -56 -38 -90.5t-77 -34.5q-22 0 -44.5 16z" />
         <glyph glyph-name="F" unicode="F" d="M648 800l-16 -77h-375l-64 -307h239l-15 -78h-242l-71 -338h-84l170 800h458z" />
         <glyph glyph-name="G" unicode="G" d="M94.5 31.5q-50.5 45.5 -50.5 154.5q0 84 29 221q34 159 76 246t105.5 124t164.5 37q75 0 117.5 -20t62 -65.5t23.5 -126.5l-82 -13q-3 58 -15 90t-37 45t-71 13q-73 0 -120.5 -32t-81 -106t-61.5 -206q-27 -130 -27 -194q0 -74 31.5 -105t101.5 -31q63 0 102 26t75 90 l36 159h-174l15 78h258l-53 -255q-37 -69 -72 -106.5t-79.5 -53t-109.5 -15.5q-113 0 -163.5 45.5z" />
         <glyph glyph-name="Gbreve" unicode="Ğ" d="M94.5 31.5q-50.5 45.5 -50.5 154.5q0 84 29 221q34 159 76 246t105.5 124t164.5 37q75 0 117.5 -20t62 -65.5t23.5 -126.5l-82 -13q-3 58 -15 90t-37 45t-71 13q-73 0 -120.5 -32t-81 -106t-61.5 -206q-27 -130 -27 -194q0 -74 31.5 -105t101.5 -31q63 0 102 26t75 90 l36 159h-174l15 78h258l-53 -255q-37 -69 -72 -106.5t-79.5 -53t-109.5 -15.5q-113 0 -163.5 45.5zM330 891q-30 20 -30 65q0 22 10 62h83q-8 -34 -8 -46q0 -14 9 -18.5t34 -4.5q29 0 44.5 6t23 20t13.5 43h82q-9 -57 -27.5 -88.5t-50.5 -45t-87 -13.5q-66 0 -96 20z" />
         <glyph glyph-name="Gcircumflex" unicode="Ĝ" d="M94.5 31.5q-50.5 45.5 -50.5 154.5q0 84 29 221q34 159 76 246t105.5 124t164.5 37q75 0 117.5 -20t62 -65.5t23.5 -126.5l-82 -13q-3 58 -15 90t-37 45t-71 13q-73 0 -120.5 -32t-81 -106t-61.5 -206q-27 -130 -27 -194q0 -74 31.5 -105t101.5 -31q63 0 102 26t75 90 l36 159h-174l15 78h258l-53 -255q-37 -69 -72 -106.5t-79.5 -53t-109.5 -15.5q-113 0 -163.5 45.5zM579 896l-73 -50l-72 82l-109 -80l-56 50l182 138z" />
         <glyph glyph-name="uni0122" unicode="Ģ" d="M94.5 31.5q-50.5 45.5 -50.5 154.5q0 84 29 221q34 159 76 246t105.5 124t164.5 37q75 0 117.5 -20t62 -65.5t23.5 -126.5l-82 -13q-3 58 -15 90t-37 45t-71 13q-73 0 -120.5 -32t-81 -106t-61.5 -206q-27 -130 -27 -194q0 -74 31.5 -105t101.5 -31q63 0 102 26t75 90 l36 159h-174l15 78h258l-53 -255q-37 -69 -72 -106.5t-79.5 -53t-109.5 -15.5q-113 0 -163.5 45.5zM194 -120q-18 8 -18 33q0 4 2 18q5 25 17.5 34t39.5 9q26 0 38.5 -9t12.5 -29q0 -5 -2 -19q-6 -27 -38 -72t-73 -94l-59 3z" />
         <glyph glyph-name="Gdotaccent" unicode="Ġ" d="M94.5 31.5q-50.5 45.5 -50.5 154.5q0 84 29 221q34 159 76 246t105.5 124t164.5 37q75 0 117.5 -20t62 -65.5t23.5 -126.5l-82 -13q-3 58 -15 90t-37 45t-71 13q-73 0 -120.5 -32t-81 -106t-61.5 -206q-27 -130 -27 -194q0 -74 31.5 -105t101.5 -31q63 0 102 26t75 90 l36 159h-174l15 78h258l-53 -255q-37 -69 -72 -106.5t-79.5 -53t-109.5 -15.5q-113 0 -163.5 45.5zM384.5 920.5q-14.5 9.5 -14.5 32.5q0 13 3 29q7 34 23.5 46.5t52.5 12.5q34 0 49 -9.5t15 -31.5q0 -14 -4 -29q-7 -34 -23 -47t-52 -13q-35 0 -49.5 9.5z" />
         <glyph glyph-name="H" unicode="H" d="M481 462l72 338h84l-170 -800h-84l82 384h-298l-82 -384h-84l170 800h84l-72 -338h298z" />
         <glyph glyph-name="Hbar" unicode="Ħ" d="M601 629h47l-16 -77h-48l-117 -552h-84l82 384h-298l-82 -384h-84l117 552h-46l16 77h47l36 171h84l-36 -171h298l36 171h84zM183 462h298l19 90h-298z" />
         <glyph glyph-name="Hcircumflex" unicode="Ĥ" d="M481 462l72 338h84l-170 -800h-84l82 384h-298l-82 -384h-84l170 800h84l-72 -338h298zM579 896l-73 -50l-72 82l-109 -80l-56 50l182 138z" />
         <glyph glyph-name="I" unicode="I" d="M608 800l-16 -77h-162l-138 -646h163l-17 -77h-408l17 77h161l138 646h-162l16 77h408z" />
         <glyph glyph-name="Iacute" unicode="Í" d="M608 800l-16 -77h-162l-138 -646h163l-17 -77h-408l17 77h161l138 646h-162l16 77h408zM595 1000l-187 -139l-45 59l187 139z" />
         <glyph glyph-name="uni01CF" unicode="Ǐ" d="M608 800l-16 -77h-162l-138 -646h163l-17 -77h-408l17 77h161l138 646h-162l16 77h408zM599 988l-183 -139l-127 137l72 51l74 -81l107 83z" />
         <glyph glyph-name="Icircumflex" unicode="Î" d="M608 800l-16 -77h-162l-138 -646h163l-17 -77h-408l17 77h161l138 646h-162l16 77h408zM580 899l-73 -50l-72 82l-109 -80l-56 50l182 138z" />
         <glyph glyph-name="Idieresis" unicode="Ï" d="M608 800l-16 -77h-162l-138 -646h163l-17 -77h-408l17 77h161l138 646h-162l16 77h408zM274 911q-16 12 -16 37q0 11 3 26q7 32 24.5 45.5t52.5 13.5t51 -12t16 -37q0 -10 -3 -24q-8 -34 -25 -47.5t-53 -13.5q-34 0 -50 12zM490 911q-16 12 -16 37q0 11 3 26 q7 32 24.5 45.5t52.5 13.5t51 -12t16 -37q0 -10 -3 -24q-8 -34 -25 -47.5t-53 -13.5q-34 0 -50 12z" />
         <glyph glyph-name="Idotaccent" unicode="İ" d="M608 800l-16 -77h-162l-138 -646h163l-17 -77h-408l17 77h161l138 646h-162l16 77h408zM385.5 923.5q-14.5 9.5 -14.5 32.5q0 13 3 29q7 34 23.5 46.5t52.5 12.5q34 0 49 -9.5t15 -31.5q0 -14 -4 -29q-7 -34 -23 -47t-52 -13q-35 0 -49.5 9.5z" />
         <glyph glyph-name="uni1ECA" unicode="Ị" d="M608 800l-16 -77h-162l-138 -646h163l-17 -77h-408l17 77h161l138 646h-162l16 77h408zM142.5 -223.5q-14.5 9.5 -14.5 32.5q0 13 3 29q7 34 23.5 46.5t52.5 12.5q34 0 49 -9.5t15 -31.5q0 -14 -4 -29q-7 -34 -23 -47t-52 -13q-35 0 -49.5 9.5z" />
         <glyph glyph-name="Igrave" unicode="Ì" d="M608 800l-16 -77h-162l-138 -646h163l-17 -77h-408l17 77h161l138 646h-162l16 77h408zM497 920l-66 -59l-134 139l66 59z" />
         <glyph glyph-name="uni1EC8" unicode="Ỉ" d="M608 800l-16 -77h-162l-138 -646h163l-17 -77h-408l17 77h161l138 646h-162l16 77h408zM376 917q33 5 55.5 18t26.5 29v4q0 15 -17 15q-37 0 -109 -52l15 95q20 16 47 25t49 9q46 0 72.5 -22t26.5 -59q0 -49 -42 -87.5t-111 -50.5z" />
         <glyph glyph-name="Imacron" unicode="Ī" d="M608 800l-16 -77h-162l-138 -646h163l-17 -77h-408l17 77h161l138 646h-162l16 77h408zM578 893h-308l16 78h308z" />
         <glyph glyph-name="Iogonek" unicode="Į" d="M592 723h-162l-138 -646h163l-17 -77h-129q-74 -35 -103.5 -54.5t-29.5 -38.5q0 -26 40 -26q14 0 27.5 5.5t21.5 14.5l58 -55q-17 -19 -47 -30.5t-61 -11.5q-55 0 -88.5 23t-33.5 62q0 32 32.5 62.5t80.5 48.5h-176l17 77h161l138 646h-162l16 77h408z" />
         <glyph glyph-name="Itilde" unicode="Ĩ" d="M608 800l-16 -77h-162l-138 -646h163l-17 -77h-408l17 77h161l138 646h-162l16 77h408zM450.5 893q-22.5 16 -46.5 40q-2 2 -12.5 11.5t-14.5 9.5q-14 0 -22.5 -15t-8.5 -36h-84q7 59 39.5 93.5t77.5 34.5q22 0 42.5 -14.5t45.5 -39.5q9 -9 17 -16t13 -7q14 0 22 14t8 34 h83q-6 -56 -38 -90.5t-77 -34.5q-22 0 -44.5 16z" />
         <glyph glyph-name="J" unicode="J" d="M92.5 4.5q-40.5 18.5 -60.5 59t-25 111.5l80 15q5 -53 16 -79.5t34.5 -37t67.5 -10.5q69 0 113.5 27.5t75 93t55.5 183.5l76 356h-131l16 77h215l-93 -440q-31 -144 -71 -224t-101 -115t-157 -35q-70 0 -110.5 18.5z" />
         <glyph glyph-name="Jcircumflex" unicode="Ĵ" d="M92.5 4.5q-40.5 18.5 -60.5 59t-25 111.5l80 15q5 -53 16 -79.5t34.5 -37t67.5 -10.5q69 0 113.5 27.5t75 93t55.5 183.5l76 356h-131l16 77h215l-93 -440q-31 -144 -71 -224t-101 -115t-157 -35q-70 0 -110.5 18.5zM698 896l-73 -50l-72 82l-109 -80l-56 50l182 138z " />
         <glyph glyph-name="K" unicode="K" d="M584 800h107l-374 -353l202 -447h-96l-173 384h-77l-82 -384h-84l170 800h84l-72 -338h37z" />
         <glyph glyph-name="uni0136" unicode="Ķ" d="M584 800h107l-374 -353l202 -447h-96l-173 384h-77l-82 -384h-84l170 800h84l-72 -338h37zM194 -120q-18 8 -18 33q0 4 2 18q5 25 17.5 34t39.5 9q26 0 38.5 -9t12.5 -29q0 -5 -2 -19q-6 -27 -38 -72t-73 -94l-59 3z" />
         <glyph glyph-name="L" unicode="L" d="M457 0h-419l170 800h84l-153 -723h335z" />
         <glyph glyph-name="Lacute" unicode="Ĺ" d="M457 0h-419l170 800h84l-153 -723h335zM462 997l-187 -139l-45 59l187 139z" />
         <glyph glyph-name="Lcaron" unicode="Ľ" d="M457 0h-419l170 800h84l-153 -723h335zM437 529h-67l49 271h85z" />
         <glyph glyph-name="uni013B" unicode="Ļ" d="M457 0h-419l170 800h84l-153 -723h335zM194 -120q-18 8 -18 33q0 4 2 18q5 25 17.5 34t39.5 9q26 0 38.5 -9t12.5 -29q0 -5 -2 -19q-6 -27 -38 -72t-73 -94l-59 3z" />
         <glyph glyph-name="Lslash" unicode="Ł" d="M249 453l-80 -376h335l-17 -77h-419l89 419l-106 -40l17 81l106 40l64 300h84l-56 -266l145 55l-16 -81z" />
         <glyph glyph-name="M" unicode="M" d="M61 0h-84l184 800h80l73 -418l252 418h81l-156 -800h-84l115 584l-197 -338h-75l-53 338z" />
         <glyph glyph-name="N" unicode="N" d="M419 178l132 622h84l-170 -800h-88l-157 624l-133 -624h-84l170 800h89z" />
         <glyph glyph-name="Nacute" unicode="Ń" d="M419 178l132 622h84l-170 -800h-88l-157 624l-133 -624h-84l170 800h89zM595 1000l-187 -139l-45 59l187 139z" />
         <glyph glyph-name="Ncaron" unicode="Ň" d="M419 178l132 622h84l-170 -800h-88l-157 624l-133 -624h-84l170 800h89zM599 988l-183 -139l-127 137l72 51l74 -81l107 83z" />
         <glyph glyph-name="uni0145" unicode="Ņ" d="M419 178l132 622h84l-170 -800h-88l-157 624l-133 -624h-84l170 800h89zM194 -123q-18 8 -18 33q0 4 2 18q5 25 17.5 34t39.5 9q26 0 38.5 -9t12.5 -29q0 -5 -2 -19q-6 -27 -38 -72t-73 -94l-59 3z" />
         <glyph glyph-name="Eng" unicode="Ŋ" d="M465 0h-44l44 -3q-16 -73 -38 -108t-60 -47t-110 -12l9 77q57 0 85.5 13.5t28.5 54.5q0 16 -2 25h-1l-157 624l-133 -624h-84l170 800h89l157 -622l132 622h84z" />
         <glyph glyph-name="Ntilde" unicode="Ñ" d="M419 178l132 622h84l-170 -800h-88l-157 624l-133 -624h-84l170 800h89zM450.5 893q-22.5 16 -46.5 40q-2 2 -12.5 11.5t-14.5 9.5q-14 0 -22.5 -15t-8.5 -36h-84q7 59 39.5 93.5t77.5 34.5q22 0 42.5 -14.5t45.5 -39.5q9 -9 17 -16t13 -7q14 0 22 14t8 34h83 q-6 -56 -38 -90.5t-77 -34.5q-22 0 -44.5 16z" />
         <glyph glyph-name="O" unicode="O" d="M85 30.5q-48 44.5 -48 145.5q0 70 25 187l17 80q30 141 69 220.5t98.5 115t153.5 35.5q106 0 153.5 -44.5t47.5 -145.5q0 -76 -24 -187l-17 -80q-30 -141 -69 -220.5t-98.5 -115t-153.5 -35.5q-106 0 -154 44.5zM350 91q43 28 73 92.5t55 179.5l17 80q23 110 23 171 q0 68 -28 95.5t-92 27.5q-67 0 -110 -28t-73 -92.5t-54 -179.5l-17 -80q-23 -110 -23 -171q0 -67 28.5 -95t91.5 -28q66 0 109 28z" />
         <glyph glyph-name="Oacute" unicode="Ó" d="M85 30.5q-48 44.5 -48 145.5q0 70 25 187l17 80q30 141 69 220.5t98.5 115t153.5 35.5q106 0 153.5 -44.5t47.5 -145.5q0 -76 -24 -187l-17 -80q-30 -141 -69 -220.5t-98.5 -115t-153.5 -35.5q-106 0 -154 44.5zM350 91q43 28 73 92.5t55 179.5l17 80q23 110 23 171 q0 68 -28 95.5t-92 27.5q-67 0 -110 -28t-73 -92.5t-54 -179.5l-17 -80q-23 -110 -23 -171q0 -67 28.5 -95t91.5 -28q66 0 109 28zM595 1000l-187 -139l-45 59l187 139z" />
         <glyph glyph-name="uni01D1" unicode="Ǒ" d="M85 30.5q-48 44.5 -48 145.5q0 70 25 187l17 80q30 141 69 220.5t98.5 115t153.5 35.5q106 0 153.5 -44.5t47.5 -145.5q0 -76 -24 -187l-17 -80q-30 -141 -69 -220.5t-98.5 -115t-153.5 -35.5q-106 0 -154 44.5zM350 91q43 28 73 92.5t55 179.5l17 80q23 110 23 171 q0 68 -28 95.5t-92 27.5q-67 0 -110 -28t-73 -92.5t-54 -179.5l-17 -80q-23 -110 -23 -171q0 -67 28.5 -95t91.5 -28q66 0 109 28zM599 988l-183 -139l-127 137l72 51l74 -81l107 83z" />
         <glyph glyph-name="Ocircumflex" unicode="Ô" d="M85 30.5q-48 44.5 -48 145.5q0 70 25 187l17 80q30 141 69 220.5t98.5 115t153.5 35.5q106 0 153.5 -44.5t47.5 -145.5q0 -76 -24 -187l-17 -80q-30 -141 -69 -220.5t-98.5 -115t-153.5 -35.5q-106 0 -154 44.5zM350 91q43 28 73 92.5t55 179.5l17 80q23 110 23 171 q0 68 -28 95.5t-92 27.5q-67 0 -110 -28t-73 -92.5t-54 -179.5l-17 -80q-23 -110 -23 -171q0 -67 28.5 -95t91.5 -28q66 0 109 28zM580 899l-73 -50l-72 82l-109 -80l-56 50l182 138z" />
         <glyph glyph-name="uni1ED0" unicode="Ố" d="M85 30.5q-48 44.5 -48 145.5q0 70 25 187l17 80q30 141 69 220.5t98.5 115t153.5 35.5q106 0 153.5 -44.5t47.5 -145.5q0 -76 -24 -187l-17 -80q-30 -141 -69 -220.5t-98.5 -115t-153.5 -35.5q-106 0 -154 44.5zM350 91q43 28 73 92.5t55 179.5l17 80q23 110 23 171 q0 68 -28 95.5t-92 27.5q-67 0 -110 -28t-73 -92.5t-54 -179.5l-17 -80q-23 -110 -23 -171q0 -67 28.5 -95t91.5 -28q66 0 109 28zM736 1028l-149 -110l-46 58l149 111zM577 883l-73 -50l-72 82l-109 -80l-56 50l182 138z" />
         <glyph glyph-name="uni1ED8" unicode="Ộ" d="M85 30.5q-48 44.5 -48 145.5q0 70 25 187l17 80q30 141 69 220.5t98.5 115t153.5 35.5q106 0 153.5 -44.5t47.5 -145.5q0 -76 -24 -187l-17 -80q-30 -141 -69 -220.5t-98.5 -115t-153.5 -35.5q-106 0 -154 44.5zM350 91q43 28 73 92.5t55 179.5l17 80q23 110 23 171 q0 68 -28 95.5t-92 27.5q-67 0 -110 -28t-73 -92.5t-54 -179.5l-17 -80q-23 -110 -23 -171q0 -67 28.5 -95t91.5 -28q66 0 109 28zM142.5 -223.5q-14.5 9.5 -14.5 32.5q0 13 3 29q7 34 23.5 46.5t52.5 12.5q34 0 49 -9.5t15 -31.5q0 -14 -4 -29q-7 -34 -23 -47t-52 -13 q-35 0 -49.5 9.5zM580 899l-73 -50l-72 82l-109 -80l-56 50l182 138z" />
         <glyph glyph-name="uni1ED2" unicode="Ồ" d="M85 30.5q-48 44.5 -48 145.5q0 70 25 187l17 80q30 141 69 220.5t98.5 115t153.5 35.5q106 0 153.5 -44.5t47.5 -145.5q0 -76 -24 -187l-17 -80q-30 -141 -69 -220.5t-98.5 -115t-153.5 -35.5q-106 0 -154 44.5zM350 91q43 28 73 92.5t55 179.5l17 80q23 110 23 171 q0 68 -28 95.5t-92 27.5q-67 0 -110 -28t-73 -92.5t-54 -179.5l-17 -80q-23 -110 -23 -171q0 -67 28.5 -95t91.5 -28q66 0 109 28zM624 912l-104 113l70 54l108 -117zM580 899l-73 -50l-72 82l-109 -80l-56 50l182 138z" />
         <glyph glyph-name="uni1ED4" unicode="Ổ" d="M85 30.5q-48 44.5 -48 145.5q0 70 25 187l17 80q30 141 69 220.5t98.5 115t153.5 35.5q106 0 153.5 -44.5t47.5 -145.5q0 -76 -24 -187l-17 -80q-30 -141 -69 -220.5t-98.5 -115t-153.5 -35.5q-106 0 -154 44.5zM350 91q43 28 73 92.5t55 179.5l17 80q23 110 23 171 q0 68 -28 95.5t-92 27.5q-67 0 -110 -28t-73 -92.5t-54 -179.5l-17 -80q-23 -110 -23 -171q0 -67 28.5 -95t91.5 -28q66 0 109 28zM577 883l-73 -50l-72 82l-109 -80l-56 50l182 138zM585 944q33 5 55.5 18t26.5 29v4q0 15 -17 15q-37 0 -109 -52l15 95q20 16 47 25t49 9 q46 0 72.5 -22t26.5 -59q0 -49 -42 -87.5t-111 -50.5z" />
         <glyph glyph-name="uni1ED6" unicode="Ỗ" d="M85 30.5q-48 44.5 -48 145.5q0 70 25 187l17 80q30 141 69 220.5t98.5 115t153.5 35.5q106 0 153.5 -44.5t47.5 -145.5q0 -76 -24 -187l-17 -80q-30 -141 -69 -220.5t-98.5 -115t-153.5 -35.5q-106 0 -154 44.5zM350 91q43 28 73 92.5t55 179.5l17 80q23 110 23 171 q0 68 -28 95.5t-92 27.5q-67 0 -110 -28t-73 -92.5t-54 -179.5l-17 -80q-23 -110 -23 -171q0 -67 28.5 -95t91.5 -28q66 0 109 28zM577 883l-73 -50l-72 82l-109 -80l-56 50l182 138zM712.5 939q-22.5 16 -46.5 40q-2 2 -12.5 11.5t-14.5 9.5q-14 0 -22.5 -15t-8.5 -36h-84 q7 59 39.5 93.5t77.5 34.5q22 0 42.5 -14.5t45.5 -39.5q9 -9 17 -16t13 -7q14 0 22 14t8 34h83q-6 -56 -38 -90.5t-77 -34.5q-22 0 -44.5 16z" />
         <glyph glyph-name="Odieresis" unicode="Ö" d="M85 30.5q-48 44.5 -48 145.5q0 70 25 187l17 80q30 141 69 220.5t98.5 115t153.5 35.5q106 0 153.5 -44.5t47.5 -145.5q0 -76 -24 -187l-17 -80q-30 -141 -69 -220.5t-98.5 -115t-153.5 -35.5q-106 0 -154 44.5zM350 91q43 28 73 92.5t55 179.5l17 80q23 110 23 171 q0 68 -28 95.5t-92 27.5q-67 0 -110 -28t-73 -92.5t-54 -179.5l-17 -80q-23 -110 -23 -171q0 -67 28.5 -95t91.5 -28q66 0 109 28zM274 911q-16 12 -16 37q0 11 3 26q7 32 24.5 45.5t52.5 13.5t51 -12t16 -37q0 -10 -3 -24q-8 -34 -25 -47.5t-53 -13.5q-34 0 -50 12z M490 911q-16 12 -16 37q0 11 3 26q7 32 24.5 45.5t52.5 13.5t51 -12t16 -37q0 -10 -3 -24q-8 -34 -25 -47.5t-53 -13.5q-34 0 -50 12z" />
         <glyph glyph-name="uni1ECC" unicode="Ọ" d="M85 30.5q-48 44.5 -48 145.5q0 70 25 187l17 80q30 141 69 220.5t98.5 115t153.5 35.5q106 0 153.5 -44.5t47.5 -145.5q0 -76 -24 -187l-17 -80q-30 -141 -69 -220.5t-98.5 -115t-153.5 -35.5q-106 0 -154 44.5zM350 91q43 28 73 92.5t55 179.5l17 80q23 110 23 171 q0 68 -28 95.5t-92 27.5q-67 0 -110 -28t-73 -92.5t-54 -179.5l-17 -80q-23 -110 -23 -171q0 -67 28.5 -95t91.5 -28q66 0 109 28zM142.5 -223.5q-14.5 9.5 -14.5 32.5q0 13 3 29q7 34 23.5 46.5t52.5 12.5q34 0 49 -9.5t15 -31.5q0 -14 -4 -29q-7 -34 -23 -47t-52 -13 q-35 0 -49.5 9.5z" />
         <glyph glyph-name="Ograve" unicode="Ò" d="M85 30.5q-48 44.5 -48 145.5q0 70 25 187l17 80q30 141 69 220.5t98.5 115t153.5 35.5q106 0 153.5 -44.5t47.5 -145.5q0 -76 -24 -187l-17 -80q-30 -141 -69 -220.5t-98.5 -115t-153.5 -35.5q-106 0 -154 44.5zM350 91q43 28 73 92.5t55 179.5l17 80q23 110 23 171 q0 68 -28 95.5t-92 27.5q-67 0 -110 -28t-73 -92.5t-54 -179.5l-17 -80q-23 -110 -23 -171q0 -67 28.5 -95t91.5 -28q66 0 109 28zM497 920l-66 -59l-134 139l66 59z" />
         <glyph glyph-name="uni1ECE" unicode="Ỏ" d="M85 30.5q-48 44.5 -48 145.5q0 70 25 187l17 80q30 141 69 220.5t98.5 115t153.5 35.5q106 0 153.5 -44.5t47.5 -145.5q0 -76 -24 -187l-17 -80q-30 -141 -69 -220.5t-98.5 -115t-153.5 -35.5q-106 0 -154 44.5zM350 91q43 28 73 92.5t55 179.5l17 80q23 110 23 171 q0 68 -28 95.5t-92 27.5q-67 0 -110 -28t-73 -92.5t-54 -179.5l-17 -80q-23 -110 -23 -171q0 -67 28.5 -95t91.5 -28q66 0 109 28zM376 917q33 5 55.5 18t26.5 29v4q0 15 -17 15q-37 0 -109 -52l15 95q20 16 47 25t49 9q46 0 72.5 -22t26.5 -59q0 -49 -42 -87.5t-111 -50.5z " />
         <glyph glyph-name="Ohorn" unicode="Ơ" d="M733 914h84l-32 -149q-13 -61 -52.5 -97.5t-92.5 -36.5q-21 0 -39 9q3 -79 -24 -203l-17 -80q-30 -141 -69 -220.5t-98.5 -115t-153.5 -35.5q-106 0 -154 44.5t-48 145.5q0 70 25 187l17 80q30 141 69 220.5t98.5 115t153.5 35.5q71 0 115 -19.5t66 -61.5q21 -25 55 -25 q25 0 43 18t24 46zM495 443q23 110 23 171q0 68 -28 95.5t-92 27.5q-67 0 -110 -28t-73 -92.5t-54 -179.5l-17 -80q-23 -110 -23 -171q0 -67 28.5 -95t91.5 -28q66 0 109 28t73 92.5t55 179.5z" />
         <glyph glyph-name="uni1EDA" unicode="Ớ" d="M733 914h84l-32 -149q-13 -61 -52.5 -97.5t-92.5 -36.5q-21 0 -39 9q3 -79 -24 -203l-17 -80q-30 -141 -69 -220.5t-98.5 -115t-153.5 -35.5q-106 0 -154 44.5t-48 145.5q0 70 25 187l17 80q30 141 69 220.5t98.5 115t153.5 35.5q71 0 115 -19.5t66 -61.5q21 -25 55 -25 q25 0 43 18t24 46zM495 443q23 110 23 171q0 68 -28 95.5t-92 27.5q-67 0 -110 -28t-73 -92.5t-54 -179.5l-17 -80q-23 -110 -23 -171q0 -67 28.5 -95t91.5 -28q66 0 109 28t73 92.5t55 179.5zM595 1000l-187 -139l-45 59l187 139z" />
         <glyph glyph-name="uni1EE2" unicode="Ợ" d="M733 914h84l-32 -149q-13 -61 -52.5 -97.5t-92.5 -36.5q-21 0 -39 9q3 -79 -24 -203l-17 -80q-30 -141 -69 -220.5t-98.5 -115t-153.5 -35.5q-106 0 -154 44.5t-48 145.5q0 70 25 187l17 80q30 141 69 220.5t98.5 115t153.5 35.5q71 0 115 -19.5t66 -61.5q21 -25 55 -25 q25 0 43 18t24 46zM495 443q23 110 23 171q0 68 -28 95.5t-92 27.5q-67 0 -110 -28t-73 -92.5t-54 -179.5l-17 -80q-23 -110 -23 -171q0 -67 28.5 -95t91.5 -28q66 0 109 28t73 92.5t55 179.5zM142.5 -223.5q-14.5 9.5 -14.5 32.5q0 13 3 29q7 34 23.5 46.5t52.5 12.5 q34 0 49 -9.5t15 -31.5q0 -14 -4 -29q-7 -34 -23 -47t-52 -13q-35 0 -49.5 9.5z" />
         <glyph glyph-name="uni1EDC" unicode="Ờ" d="M733 914h84l-32 -149q-13 -61 -52.5 -97.5t-92.5 -36.5q-21 0 -39 9q3 -79 -24 -203l-17 -80q-30 -141 -69 -220.5t-98.5 -115t-153.5 -35.5q-106 0 -154 44.5t-48 145.5q0 70 25 187l17 80q30 141 69 220.5t98.5 115t153.5 35.5q71 0 115 -19.5t66 -61.5q21 -25 55 -25 q25 0 43 18t24 46zM495 443q23 110 23 171q0 68 -28 95.5t-92 27.5q-67 0 -110 -28t-73 -92.5t-54 -179.5l-17 -80q-23 -110 -23 -171q0 -67 28.5 -95t91.5 -28q66 0 109 28t73 92.5t55 179.5zM497 920l-66 -59l-134 139l66 59z" />
         <glyph glyph-name="uni1EDE" unicode="Ở" d="M733 914h84l-32 -149q-13 -61 -52.5 -97.5t-92.5 -36.5q-21 0 -39 9q3 -79 -24 -203l-17 -80q-30 -141 -69 -220.5t-98.5 -115t-153.5 -35.5q-106 0 -154 44.5t-48 145.5q0 70 25 187l17 80q30 141 69 220.5t98.5 115t153.5 35.5q71 0 115 -19.5t66 -61.5q21 -25 55 -25 q25 0 43 18t24 46zM495 443q23 110 23 171q0 68 -28 95.5t-92 27.5q-67 0 -110 -28t-73 -92.5t-54 -179.5l-17 -80q-23 -110 -23 -171q0 -67 28.5 -95t91.5 -28q66 0 109 28t73 92.5t55 179.5zM376 917q33 5 55.5 18t26.5 29v4q0 15 -17 15q-37 0 -109 -52l15 95 q20 16 47 25t49 9q46 0 72.5 -22t26.5 -59q0 -49 -42 -87.5t-111 -50.5z" />
         <glyph glyph-name="uni1EE0" unicode="Ỡ" d="M733 914h84l-32 -149q-13 -61 -52.5 -97.5t-92.5 -36.5q-21 0 -39 9q3 -79 -24 -203l-17 -80q-30 -141 -69 -220.5t-98.5 -115t-153.5 -35.5q-106 0 -154 44.5t-48 145.5q0 70 25 187l17 80q30 141 69 220.5t98.5 115t153.5 35.5q71 0 115 -19.5t66 -61.5q21 -25 55 -25 q25 0 43 18t24 46zM495 443q23 110 23 171q0 68 -28 95.5t-92 27.5q-67 0 -110 -28t-73 -92.5t-54 -179.5l-17 -80q-23 -110 -23 -171q0 -67 28.5 -95t91.5 -28q66 0 109 28t73 92.5t55 179.5zM450.5 893q-22.5 16 -46.5 40q-2 2 -12.5 11.5t-14.5 9.5q-14 0 -22.5 -15 t-8.5 -36h-84q7 59 39.5 93.5t77.5 34.5q22 0 42.5 -14.5t45.5 -39.5q9 -9 17 -16t13 -7q14 0 22 14t8 34h83q-6 -56 -38 -90.5t-77 -34.5q-22 0 -44.5 16z" />
         <glyph glyph-name="Ohungarumlaut" unicode="Ő" d="M85 30.5q-48 44.5 -48 145.5q0 70 25 187l17 80q30 141 69 220.5t98.5 115t153.5 35.5q106 0 153.5 -44.5t47.5 -145.5q0 -76 -24 -187l-17 -80q-30 -141 -69 -220.5t-98.5 -115t-153.5 -35.5q-106 0 -154 44.5zM350 91q43 28 73 92.5t55 179.5l17 80q23 110 23 171 q0 68 -28 95.5t-92 27.5q-67 0 -110 -28t-73 -92.5t-54 -179.5l-17 -80q-23 -110 -23 -171q0 -67 28.5 -95t91.5 -28q66 0 109 28zM444 1000l-187 -139l-45 59l187 139zM664 1000l-187 -139l-45 59l187 139z" />
         <glyph glyph-name="Omacron" unicode="Ō" d="M85 30.5q-48 44.5 -48 145.5q0 70 25 187l17 80q30 141 69 220.5t98.5 115t153.5 35.5q106 0 153.5 -44.5t47.5 -145.5q0 -76 -24 -187l-17 -80q-30 -141 -69 -220.5t-98.5 -115t-153.5 -35.5q-106 0 -154 44.5zM350 91q43 28 73 92.5t55 179.5l17 80q23 110 23 171 q0 68 -28 95.5t-92 27.5q-67 0 -110 -28t-73 -92.5t-54 -179.5l-17 -80q-23 -110 -23 -171q0 -67 28.5 -95t91.5 -28q66 0 109 28zM578 893h-308l16 78h308z" />
         <glyph glyph-name="Oslash" unicode="Ø" d="M677 850l-90 -131q15 -39 15 -95q0 -71 -25 -187l-17 -80q-30 -141 -69 -220.5t-98.5 -115t-153.5 -35.5q-88 0 -137 31l-46 -67h-95l91 132q-15 39 -15 94q0 71 25 187l17 80q30 141 69 220.5t98.5 115t153.5 35.5q89 0 136 -31l46 67h95zM144 357q-24 -112 -24 -176 l367 531q-28 25 -89 25q-66 0 -109.5 -28t-73.5 -92.5t-54 -179.5zM495 443q24 114 23 177l-367 -532q28 -25 90 -25q66 0 109 28t73 92.5t55 179.5z" />
         <glyph glyph-name="Otilde" unicode="Õ" d="M85 30.5q-48 44.5 -48 145.5q0 70 25 187l17 80q30 141 69 220.5t98.5 115t153.5 35.5q106 0 153.5 -44.5t47.5 -145.5q0 -76 -24 -187l-17 -80q-30 -141 -69 -220.5t-98.5 -115t-153.5 -35.5q-106 0 -154 44.5zM350 91q43 28 73 92.5t55 179.5l17 80q23 110 23 171 q0 68 -28 95.5t-92 27.5q-67 0 -110 -28t-73 -92.5t-54 -179.5l-17 -80q-23 -110 -23 -171q0 -67 28.5 -95t91.5 -28q66 0 109 28zM450.5 893q-22.5 16 -46.5 40q-2 2 -12.5 11.5t-14.5 9.5q-14 0 -22.5 -15t-8.5 -36h-84q7 59 39.5 93.5t77.5 34.5q22 0 42.5 -14.5 t45.5 -39.5q9 -9 17 -16t13 -7q14 0 22 14t8 34h83q-6 -56 -38 -90.5t-77 -34.5q-22 0 -44.5 16z" />
         <glyph glyph-name="OE" unicode="Œ" d="M687 723h-215l-53 -261h129l-17 -78h-130l-12 -52l-52 -255h212l-16 -77h-298l3 13q-43 -27 -106 -27q-74 0 -109 40.5t-35 131.5q0 87 34 248q33 155 69 243t83.5 126.5t118.5 38.5q73 0 108 -35l4 21h298zM205.5 90q29.5 27 53.5 88t50 170l27 128q22 118 22 171 q0 48 -16 69t-51 21q-42 0 -73.5 -32.5t-59 -107.5t-55.5 -205q-34 -164 -34 -232q0 -52 16 -74.5t49 -22.5q42 0 71.5 27z" />
         <glyph glyph-name="P" unicode="P" d="M421 800q103 0 149.5 -34t46.5 -111q0 -44 -11 -94q-19 -88 -50.5 -136.5t-84.5 -68.5t-142 -20h-151l-71 -336h-84l170 800h228zM534 642q0 46 -27.5 63.5t-94.5 17.5h-152l-66 -309h144q60 0 95 13.5t56.5 47.5t35.5 100q9 41 9 67z" />
         <glyph glyph-name="Thorn" unicode="Þ" d="M362 620q105 0 151.5 -32.5t46.5 -107.5q0 -40 -10 -87q-17 -81 -48.5 -127t-85 -66t-140.5 -20h-131l-38 -180h-84l170 800h84l-38 -180h123zM477 467q0 43 -27.5 59t-96.5 16h-131l-60 -284h123q59 0 94.5 13.5t56 45t33.5 90.5q8 38 8 60z" />
         <glyph glyph-name="Q" unicode="Q" d="M553.5 769.5q47.5 -44.5 47.5 -145.5q0 -76 -24 -187l-17 -80q-28 -132 -63.5 -209.5t-88 -115.5t-132.5 -45q-16 -26 -38 -43q4 -2 27 -13q23 -12 36 -17t27 -5q27 0 87 14q43 9 66.5 12.5t47.5 0.5l-9 -76q-7 1 -20 1q-28 0 -74 -13q-28 -8 -50.5 -12t-49.5 -4 q-37 0 -60 7.5t-52 23.5q-25 14 -44.5 21t-48.5 7h-48l13 78l14 -1q40 0 72 23q-70 13 -102 57t-32 128q0 75 24 187l17 80q30 141 69 220.5t98.5 115t153.5 35.5q106 0 153.5 -44.5zM495 443q23 110 23 171q0 68 -28 95.5t-92 27.5q-67 0 -110 -28t-73 -92.5t-54 -179.5 l-17 -80q-23 -110 -23 -171q0 -67 28.5 -95t91.5 -28q66 0 109 28t73 92.5t55 179.5z" />
         <glyph glyph-name="R" unicode="R" d="M413 800q103 0 149.5 -34t46.5 -111q0 -44 -11 -94q-18 -83 -46.5 -130t-75.5 -69t-123 -25l156 -337h-95l-156 336h-87l-72 -336h-84l170 800h228zM526 642q0 46 -27.5 63.5t-94.5 17.5h-151l-66 -309h143q60 0 95 13.5t56.5 47.5t35.5 100q9 41 9 67z" />
         <glyph glyph-name="Racute" unicode="Ŕ" d="M413 800q103 0 149.5 -34t46.5 -111q0 -44 -11 -94q-18 -83 -46.5 -130t-75.5 -69t-123 -25l156 -337h-95l-156 336h-87l-72 -336h-84l170 800h228zM526 642q0 46 -27.5 63.5t-94.5 17.5h-151l-66 -309h143q60 0 95 13.5t56.5 47.5t35.5 100q9 41 9 67zM594 997 l-187 -139l-45 59l187 139z" />
         <glyph glyph-name="Rcaron" unicode="Ř" d="M413 800q103 0 149.5 -34t46.5 -111q0 -44 -11 -94q-18 -83 -46.5 -130t-75.5 -69t-123 -25l156 -337h-95l-156 336h-87l-72 -336h-84l170 800h228zM526 642q0 46 -27.5 63.5t-94.5 17.5h-151l-66 -309h143q60 0 95 13.5t56.5 47.5t35.5 100q9 41 9 67zM598 985 l-183 -139l-127 137l72 51l74 -81l107 83z" />
         <glyph glyph-name="uni0156" unicode="Ŗ" d="M413 800q103 0 149.5 -34t46.5 -111q0 -44 -11 -94q-18 -83 -46.5 -130t-75.5 -69t-123 -25l156 -337h-95l-156 336h-87l-72 -336h-84l170 800h228zM526 642q0 46 -27.5 63.5t-94.5 17.5h-151l-66 -309h143q60 0 95 13.5t56.5 47.5t35.5 100q9 41 9 67zM194 -120 q-18 8 -18 33q0 4 2 18q5 25 17.5 34t39.5 9q26 0 38.5 -9t12.5 -29q0 -5 -2 -19q-6 -27 -38 -72t-73 -94l-59 3z" />
         <glyph glyph-name="S" unicode="S" d="M121.5 -1.5q-44.5 12.5 -70.5 40.5t-41 78l75 54q8 -45 23 -67.5t45 -31.5t88 -9q63 0 101.5 15.5t61 51.5t36.5 100q5 27 5 42q0 39 -27.5 62.5t-99.5 50.5q-102 35 -145 72t-43 97q0 23 6 53q17 79 47 123.5t81.5 64t135.5 19.5q67 0 108 -11t66 -35.5t41 -67.5 l-70 -59q-9 40 -23.5 60t-42.5 28t-81 8q-59 0 -94 -13.5t-55 -44t-32 -86.5q-4 -17 -4 -34q0 -34 25 -54.5t92 -43.5q108 -35 153.5 -74.5t45.5 -106.5q0 -26 -8 -64q-18 -87 -50.5 -136.5t-87.5 -71.5t-144 -22q-73 0 -117.5 12.5z" />
         <glyph glyph-name="Sacute" unicode="Ś" d="M121.5 -1.5q-44.5 12.5 -70.5 40.5t-41 78l75 54q8 -45 23 -67.5t45 -31.5t88 -9q63 0 101.5 15.5t61 51.5t36.5 100q5 27 5 42q0 39 -27.5 62.5t-99.5 50.5q-102 35 -145 72t-43 97q0 23 6 53q17 79 47 123.5t81.5 64t135.5 19.5q67 0 108 -11t66 -35.5t41 -67.5 l-70 -59q-9 40 -23.5 60t-42.5 28t-81 8q-59 0 -94 -13.5t-55 -44t-32 -86.5q-4 -17 -4 -34q0 -34 25 -54.5t92 -43.5q108 -35 153.5 -74.5t45.5 -106.5q0 -26 -8 -64q-18 -87 -50.5 -136.5t-87.5 -71.5t-144 -22q-73 0 -117.5 12.5zM595 1000l-187 -139l-45 59l187 139z " />
         <glyph glyph-name="Scaron" unicode="Š" d="M121.5 -1.5q-44.5 12.5 -70.5 40.5t-41 78l75 54q8 -45 23 -67.5t45 -31.5t88 -9q63 0 101.5 15.5t61 51.5t36.5 100q5 27 5 42q0 39 -27.5 62.5t-99.5 50.5q-102 35 -145 72t-43 97q0 23 6 53q17 79 47 123.5t81.5 64t135.5 19.5q67 0 108 -11t66 -35.5t41 -67.5 l-70 -59q-9 40 -23.5 60t-42.5 28t-81 8q-59 0 -94 -13.5t-55 -44t-32 -86.5q-4 -17 -4 -34q0 -34 25 -54.5t92 -43.5q108 -35 153.5 -74.5t45.5 -106.5q0 -26 -8 -64q-18 -87 -50.5 -136.5t-87.5 -71.5t-144 -22q-73 0 -117.5 12.5zM599 988l-183 -139l-127 137l72 51 l74 -81l107 83z" />
         <glyph glyph-name="Scedilla" unicode="Ş" d="M304 723.5q-35 -13.5 -55 -44t-32 -86.5q-4 -17 -4 -34q0 -34 25 -54.5t92 -43.5q108 -35 153.5 -74.5t45.5 -106.5q0 -26 -8 -64q-17 -82 -46.5 -130.5t-78.5 -72t-126 -26.5l-9 -32q28 -7 44 -26.5t16 -46.5q0 -10 -1 -15q-9 -42 -46.5 -68t-89.5 -26q-35 0 -62 12.5 t-39 31.5l42 55q7 -10 24 -15.5t38 -5.5t36 9.5t15 22.5q0 9 -17.5 14t-48.5 5l15 86q-78 6 -118 35.5t-59 93.5l75 54q8 -45 23 -67.5t45 -31.5t88 -9q63 0 101.5 15.5t61 51.5t36.5 100q5 27 5 42q0 39 -27.5 62.5t-99.5 50.5q-102 35 -145 72t-43 97q0 23 6 53 q17 79 47 123.5t81.5 64t135.5 19.5q67 0 108 -11t66 -35.5t41 -67.5l-70 -59q-9 40 -23.5 60t-42.5 28t-81 8q-59 0 -94 -13.5z" />
         <glyph glyph-name="Scircumflex" unicode="Ŝ" d="M121.5 -1.5q-44.5 12.5 -70.5 40.5t-41 78l75 54q8 -45 23 -67.5t45 -31.5t88 -9q63 0 101.5 15.5t61 51.5t36.5 100q5 27 5 42q0 39 -27.5 62.5t-99.5 50.5q-102 35 -145 72t-43 97q0 23 6 53q17 79 47 123.5t81.5 64t135.5 19.5q67 0 108 -11t66 -35.5t41 -67.5 l-70 -59q-9 40 -23.5 60t-42.5 28t-81 8q-59 0 -94 -13.5t-55 -44t-32 -86.5q-4 -17 -4 -34q0 -34 25 -54.5t92 -43.5q108 -35 153.5 -74.5t45.5 -106.5q0 -26 -8 -64q-18 -87 -50.5 -136.5t-87.5 -71.5t-144 -22q-73 0 -117.5 12.5zM580 899l-73 -50l-72 82l-109 -80 l-56 50l182 138z" />
         <glyph glyph-name="uni0218" unicode="Ș" d="M121.5 -1.5q-44.5 12.5 -70.5 40.5t-41 78l75 54q8 -45 23 -67.5t45 -31.5t88 -9q63 0 101.5 15.5t61 51.5t36.5 100q5 27 5 42q0 39 -27.5 62.5t-99.5 50.5q-102 35 -145 72t-43 97q0 23 6 53q17 79 47 123.5t81.5 64t135.5 19.5q67 0 108 -11t66 -35.5t41 -67.5 l-70 -59q-9 40 -23.5 60t-42.5 28t-81 8q-59 0 -94 -13.5t-55 -44t-32 -86.5q-4 -17 -4 -34q0 -34 25 -54.5t92 -43.5q108 -35 153.5 -74.5t45.5 -106.5q0 -26 -8 -64q-18 -87 -50.5 -136.5t-87.5 -71.5t-144 -22q-73 0 -117.5 12.5zM194 -120q-18 8 -18 33q0 4 2 18 q5 25 17.5 34t39.5 9q26 0 38.5 -9t12.5 -29q0 -5 -2 -19q-6 -27 -38 -72t-73 -94l-59 3z" />
         <glyph glyph-name="uni1E9E" unicode="ẞ" d="M423 472q79 -6 114 -39t35 -103q0 -46 -13 -107q-20 -96 -50.5 -146.5t-81 -70.5t-137.5 -20q-84 0 -120.5 24t-36.5 81q0 30 9 69l82 -7q-5 -27 -5 -41q0 -27 16.5 -38t56.5 -11q58 0 93 15t56.5 52t36.5 106q10 50 10 75q0 47 -26.5 66t-87.5 19h-114l276 327h-170 q-80 0 -141 -47t-77 -121l-118 -555h-84l120 562q24 112 107 175t208 63h318z" />
         <glyph glyph-name="T" unicode="T" d="M689 800l-16 -77h-243l-154 -723h-84l154 723h-243l16 77h570z" />
         <glyph glyph-name="Tbar" unicode="Ŧ" d="M689 800l-16 -77h-243l-56 -261h145l-17 -78h-144l-82 -384h-84l82 384h-145l17 78h144l56 261h-243l16 77h570z" />
         <glyph glyph-name="Tcaron" unicode="Ť" d="M689 800l-16 -77h-243l-154 -723h-84l154 723h-243l16 77h570zM598 985l-183 -139l-127 137l72 51l74 -81l107 83z" />
         <glyph glyph-name="uni0162" unicode="Ţ" d="M673 723h-243l-153 -718h1l-15 -50q27 -7 44 -26.5t17 -45.5q0 -4 -2 -16q-9 -42 -46 -68t-89 -26q-35 0 -62.5 12.5t-38.5 31.5l41 55q8 -10 25 -15.5t37 -5.5q19 0 34 8.5t18 21.5q2 10 -15.5 15.5t-50.5 5.5l17 98l1 3v2l153 718h-243l16 77h570z" />
         <glyph glyph-name="uni021A" unicode="Ț" d="M689 800l-16 -77h-243l-154 -723h-84l154 723h-243l16 77h570zM194 -120q-18 8 -18 33q0 4 2 18q5 25 17.5 34t39.5 9q26 0 38.5 -9t12.5 -29q0 -5 -2 -19q-6 -27 -38 -72t-73 -94l-59 3z" />
         <glyph glyph-name="U" unicode="U" d="M95.5 25.5q-44.5 39.5 -44.5 128.5q0 65 19 151l105 495h84l-106 -502q-18 -84 -18 -134q0 -56 24.5 -78.5t81.5 -22.5q58 0 95.5 22.5t62.5 74.5t45 145l105 495h84l-106 -502q-25 -119 -60 -186t-89 -96.5t-139 -29.5q-99 0 -143.5 39.5z" />
         <glyph glyph-name="Uacute" unicode="Ú" d="M95.5 25.5q-44.5 39.5 -44.5 128.5q0 65 19 151l105 495h84l-106 -502q-18 -84 -18 -134q0 -56 24.5 -78.5t81.5 -22.5q58 0 95.5 22.5t62.5 74.5t45 145l105 495h84l-106 -502q-25 -119 -60 -186t-89 -96.5t-139 -29.5q-99 0 -143.5 39.5zM595 1000l-187 -139l-45 59 l187 139z" />
         <glyph glyph-name="Ubreve" unicode="Ŭ" d="M95.5 25.5q-44.5 39.5 -44.5 128.5q0 65 19 151l105 495h84l-106 -502q-18 -84 -18 -134q0 -56 24.5 -78.5t81.5 -22.5q58 0 95.5 22.5t62.5 74.5t45 145l105 495h84l-106 -502q-25 -119 -60 -186t-89 -96.5t-139 -29.5q-99 0 -143.5 39.5zM331 894q-30 20 -30 65 q0 22 10 62h83q-8 -34 -8 -46q0 -14 9 -18.5t34 -4.5q29 0 44.5 6t23 20t13.5 43h82q-9 -57 -27.5 -88.5t-50.5 -45t-87 -13.5q-66 0 -96 20z" />
         <glyph glyph-name="uni01D3" unicode="Ǔ" d="M95.5 25.5q-44.5 39.5 -44.5 128.5q0 65 19 151l105 495h84l-106 -502q-18 -84 -18 -134q0 -56 24.5 -78.5t81.5 -22.5q58 0 95.5 22.5t62.5 74.5t45 145l105 495h84l-106 -502q-25 -119 -60 -186t-89 -96.5t-139 -29.5q-99 0 -143.5 39.5zM599 988l-183 -139l-127 137 l72 51l74 -81l107 83z" />
         <glyph glyph-name="Ucircumflex" unicode="Û" d="M95.5 25.5q-44.5 39.5 -44.5 128.5q0 65 19 151l105 495h84l-106 -502q-18 -84 -18 -134q0 -56 24.5 -78.5t81.5 -22.5q58 0 95.5 22.5t62.5 74.5t45 145l105 495h84l-106 -502q-25 -119 -60 -186t-89 -96.5t-139 -29.5q-99 0 -143.5 39.5zM580 899l-73 -50l-72 82 l-109 -80l-56 50l182 138z" />
         <glyph glyph-name="Udieresis" unicode="Ü" d="M95.5 25.5q-44.5 39.5 -44.5 128.5q0 65 19 151l105 495h84l-106 -502q-18 -84 -18 -134q0 -56 24.5 -78.5t81.5 -22.5q58 0 95.5 22.5t62.5 74.5t45 145l105 495h84l-106 -502q-25 -119 -60 -186t-89 -96.5t-139 -29.5q-99 0 -143.5 39.5zM274 911q-16 12 -16 37 q0 11 3 26q7 32 24.5 45.5t52.5 13.5t51 -12t16 -37q0 -10 -3 -24q-8 -34 -25 -47.5t-53 -13.5q-34 0 -50 12zM490 911q-16 12 -16 37q0 11 3 26q7 32 24.5 45.5t52.5 13.5t51 -12t16 -37q0 -10 -3 -24q-8 -34 -25 -47.5t-53 -13.5q-34 0 -50 12z" />
         <glyph glyph-name="uni01D7" unicode="Ǘ" d="M95.5 25.5q-44.5 39.5 -44.5 128.5q0 65 19 151l105 495h84l-106 -502q-18 -84 -18 -134q0 -56 24.5 -78.5t81.5 -22.5q58 0 95.5 22.5t62.5 74.5t45 145l105 495h84l-106 -502q-25 -119 -60 -186t-89 -96.5t-139 -29.5q-99 0 -143.5 39.5zM256 825q-16 12 -16 37 q0 11 3 26q7 32 24.5 45.5t52.5 13.5t51 -12t16 -37q0 -10 -3 -24q-8 -34 -25 -47.5t-53 -13.5q-34 0 -50 12zM472 825q-16 12 -16 37q0 11 3 26q7 32 24.5 45.5t52.5 13.5t51 -12t16 -37q0 -10 -3 -24q-8 -34 -25 -47.5t-53 -13.5q-34 0 -50 12zM609 1066l-187 -139l-45 59 l187 139z" />
         <glyph glyph-name="uni01D9" unicode="Ǚ" d="M95.5 25.5q-44.5 39.5 -44.5 128.5q0 65 19 151l105 495h84l-106 -502q-18 -84 -18 -134q0 -56 24.5 -78.5t81.5 -22.5q58 0 95.5 22.5t62.5 74.5t45 145l105 495h84l-106 -502q-25 -119 -60 -186t-89 -96.5t-139 -29.5q-99 0 -143.5 39.5zM256 825q-16 12 -16 37 q0 11 3 26q7 32 24.5 45.5t52.5 13.5t51 -12t16 -37q0 -10 -3 -24q-8 -34 -25 -47.5t-53 -13.5q-34 0 -50 12zM472 825q-16 12 -16 37q0 11 3 26q7 32 24.5 45.5t52.5 13.5t51 -12t16 -37q0 -10 -3 -24q-8 -34 -25 -47.5t-53 -13.5q-34 0 -50 12zM618 1077l-183 -139 l-127 137l72 51l74 -81l107 83z" />
         <glyph glyph-name="uni01DB" unicode="Ǜ" d="M95.5 25.5q-44.5 39.5 -44.5 128.5q0 65 19 151l105 495h84l-106 -502q-18 -84 -18 -134q0 -56 24.5 -78.5t81.5 -22.5q58 0 95.5 22.5t62.5 74.5t45 145l105 495h84l-106 -502q-25 -119 -60 -186t-89 -96.5t-139 -29.5q-99 0 -143.5 39.5zM256 825q-16 12 -16 37 q0 11 3 26q7 32 24.5 45.5t52.5 13.5t51 -12t16 -37q0 -10 -3 -24q-8 -34 -25 -47.5t-53 -13.5q-34 0 -50 12zM472 825q-16 12 -16 37q0 11 3 26q7 32 24.5 45.5t52.5 13.5t51 -12t16 -37q0 -10 -3 -24q-8 -34 -25 -47.5t-53 -13.5q-34 0 -50 12zM511 986l-66 -59l-134 139 l66 59z" />
         <glyph glyph-name="uni01D5" unicode="Ǖ" d="M95.5 25.5q-44.5 39.5 -44.5 128.5q0 65 19 151l105 495h84l-106 -502q-18 -84 -18 -134q0 -56 24.5 -78.5t81.5 -22.5q58 0 95.5 22.5t62.5 74.5t45 145l105 495h84l-106 -502q-25 -119 -60 -186t-89 -96.5t-139 -29.5q-99 0 -143.5 39.5zM256 825q-16 12 -16 37 q0 11 3 26q7 32 24.5 45.5t52.5 13.5t51 -12t16 -37q0 -10 -3 -24q-8 -34 -25 -47.5t-53 -13.5q-34 0 -50 12zM472 825q-16 12 -16 37q0 11 3 26q7 32 24.5 45.5t52.5 13.5t51 -12t16 -37q0 -10 -3 -24q-8 -34 -25 -47.5t-53 -13.5q-34 0 -50 12zM605 1022h-308l16 78h308z " />
         <glyph glyph-name="uni1EE4" unicode="Ụ" d="M95.5 25.5q-44.5 39.5 -44.5 128.5q0 65 19 151l105 495h84l-106 -502q-18 -84 -18 -134q0 -56 24.5 -78.5t81.5 -22.5q58 0 95.5 22.5t62.5 74.5t45 145l105 495h84l-106 -502q-25 -119 -60 -186t-89 -96.5t-139 -29.5q-99 0 -143.5 39.5zM142.5 -223.5 q-14.5 9.5 -14.5 32.5q0 13 3 29q7 34 23.5 46.5t52.5 12.5q34 0 49 -9.5t15 -31.5q0 -14 -4 -29q-7 -34 -23 -47t-52 -13q-35 0 -49.5 9.5z" />
         <glyph glyph-name="Ugrave" unicode="Ù" d="M95.5 25.5q-44.5 39.5 -44.5 128.5q0 65 19 151l105 495h84l-106 -502q-18 -84 -18 -134q0 -56 24.5 -78.5t81.5 -22.5q58 0 95.5 22.5t62.5 74.5t45 145l105 495h84l-106 -502q-25 -119 -60 -186t-89 -96.5t-139 -29.5q-99 0 -143.5 39.5zM497 920l-66 -59l-134 139 l66 59z" />
         <glyph glyph-name="uni1EE6" unicode="Ủ" d="M95.5 25.5q-44.5 39.5 -44.5 128.5q0 65 19 151l105 495h84l-106 -502q-18 -84 -18 -134q0 -56 24.5 -78.5t81.5 -22.5q58 0 95.5 22.5t62.5 74.5t45 145l105 495h84l-106 -502q-25 -119 -60 -186t-89 -96.5t-139 -29.5q-99 0 -143.5 39.5zM376 917q33 5 55.5 18t26.5 29 v4q0 15 -17 15q-37 0 -109 -52l15 95q20 16 47 25t49 9q46 0 72.5 -22t26.5 -59q0 -49 -42 -87.5t-111 -50.5z" />
         <glyph glyph-name="Uhorn" unicode="Ư" d="M744 968h84l-32 -149q-13 -61 -52.5 -97.5t-92.5 -36.5q-18 0 -40 9l-84 -396q-25 -119 -60 -186t-89 -96.5t-139 -29.5q-99 0 -143.5 39.5t-44.5 128.5q0 65 19 151l105 495h84l-106 -502q-18 -84 -18 -134q0 -56 24.5 -78.5t81.5 -22.5q58 0 95.5 22.5t62.5 74.5 t45 145l105 495h84l-8 -36q9 -2 22 -2q25 0 43 17.5t24 46.5z" />
         <glyph glyph-name="uni1EE8" unicode="Ứ" d="M744 968h84l-32 -149q-13 -61 -52.5 -97.5t-92.5 -36.5q-18 0 -40 9l-84 -396q-25 -119 -60 -186t-89 -96.5t-139 -29.5q-99 0 -143.5 39.5t-44.5 128.5q0 65 19 151l105 495h84l-106 -502q-18 -84 -18 -134q0 -56 24.5 -78.5t81.5 -22.5q58 0 95.5 22.5t62.5 74.5 t45 145l105 495h84l-8 -36q9 -2 22 -2q25 0 43 17.5t24 46.5zM595 1000l-187 -139l-45 59l187 139z" />
         <glyph glyph-name="uni1EF0" unicode="Ự" d="M744 968h84l-32 -149q-13 -61 -52.5 -97.5t-92.5 -36.5q-18 0 -40 9l-84 -396q-25 -119 -60 -186t-89 -96.5t-139 -29.5q-99 0 -143.5 39.5t-44.5 128.5q0 65 19 151l105 495h84l-106 -502q-18 -84 -18 -134q0 -56 24.5 -78.5t81.5 -22.5q58 0 95.5 22.5t62.5 74.5 t45 145l105 495h84l-8 -36q9 -2 22 -2q25 0 43 17.5t24 46.5zM142.5 -223.5q-14.5 9.5 -14.5 32.5q0 13 3 29q7 34 23.5 46.5t52.5 12.5q34 0 49 -9.5t15 -31.5q0 -14 -4 -29q-7 -34 -23 -47t-52 -13q-35 0 -49.5 9.5z" />
         <glyph glyph-name="uni1EEA" unicode="Ừ" d="M744 968h84l-32 -149q-13 -61 -52.5 -97.5t-92.5 -36.5q-18 0 -40 9l-84 -396q-25 -119 -60 -186t-89 -96.5t-139 -29.5q-99 0 -143.5 39.5t-44.5 128.5q0 65 19 151l105 495h84l-106 -502q-18 -84 -18 -134q0 -56 24.5 -78.5t81.5 -22.5q58 0 95.5 22.5t62.5 74.5 t45 145l105 495h84l-8 -36q9 -2 22 -2q25 0 43 17.5t24 46.5zM497 920l-66 -59l-134 139l66 59z" />
         <glyph glyph-name="uni1EEC" unicode="Ử" d="M744 968h84l-32 -149q-13 -61 -52.5 -97.5t-92.5 -36.5q-18 0 -40 9l-84 -396q-25 -119 -60 -186t-89 -96.5t-139 -29.5q-99 0 -143.5 39.5t-44.5 128.5q0 65 19 151l105 495h84l-106 -502q-18 -84 -18 -134q0 -56 24.5 -78.5t81.5 -22.5q58 0 95.5 22.5t62.5 74.5 t45 145l105 495h84l-8 -36q9 -2 22 -2q25 0 43 17.5t24 46.5zM376 917q33 5 55.5 18t26.5 29v4q0 15 -17 15q-37 0 -109 -52l15 95q20 16 47 25t49 9q46 0 72.5 -22t26.5 -59q0 -49 -42 -87.5t-111 -50.5z" />
         <glyph glyph-name="uni1EEE" unicode="Ữ" d="M744 968h84l-32 -149q-13 -61 -52.5 -97.5t-92.5 -36.5q-18 0 -40 9l-84 -396q-25 -119 -60 -186t-89 -96.5t-139 -29.5q-99 0 -143.5 39.5t-44.5 128.5q0 65 19 151l105 495h84l-106 -502q-18 -84 -18 -134q0 -56 24.5 -78.5t81.5 -22.5q58 0 95.5 22.5t62.5 74.5 t45 145l105 495h84l-8 -36q9 -2 22 -2q25 0 43 17.5t24 46.5zM450.5 893q-22.5 16 -46.5 40q-2 2 -12.5 11.5t-14.5 9.5q-14 0 -22.5 -15t-8.5 -36h-84q7 59 39.5 93.5t77.5 34.5q22 0 42.5 -14.5t45.5 -39.5q9 -9 17 -16t13 -7q14 0 22 14t8 34h83q-6 -56 -38 -90.5 t-77 -34.5q-22 0 -44.5 16z" />
         <glyph glyph-name="Uhungarumlaut" unicode="Ű" d="M95.5 25.5q-44.5 39.5 -44.5 128.5q0 65 19 151l105 495h84l-106 -502q-18 -84 -18 -134q0 -56 24.5 -78.5t81.5 -22.5q58 0 95.5 22.5t62.5 74.5t45 145l105 495h84l-106 -502q-25 -119 -60 -186t-89 -96.5t-139 -29.5q-99 0 -143.5 39.5zM444 1000l-187 -139l-45 59 l187 139zM664 1000l-187 -139l-45 59l187 139z" />
         <glyph glyph-name="Umacron" unicode="Ū" d="M95.5 25.5q-44.5 39.5 -44.5 128.5q0 65 19 151l105 495h84l-106 -502q-18 -84 -18 -134q0 -56 24.5 -78.5t81.5 -22.5q58 0 95.5 22.5t62.5 74.5t45 145l105 495h84l-106 -502q-25 -119 -60 -186t-89 -96.5t-139 -29.5q-99 0 -143.5 39.5zM578 893h-308l16 78h308z" />
         <glyph glyph-name="Uogonek" unicode="Ų" d="M549 800h84l-106 -502q-30 -145 -77 -215.5t-130 -88.5q-65 -31 -92.5 -49.5t-27.5 -37.5q0 -26 40 -26q14 0 27.5 5.5t21.5 14.5l58 -55q-17 -19 -47 -30.5t-61 -11.5q-55 0 -88.5 23t-33.5 62q0 27 23.5 53t61.5 45q-79 7 -115 46.5t-36 120.5q0 65 19 151l105 495h84 l-106 -502q-18 -84 -18 -134q0 -56 24.5 -78.5t81.5 -22.5q58 0 95.5 22.5t62.5 74.5t45 145z" />
         <glyph glyph-name="Uring" unicode="Ů" d="M95.5 25.5q-44.5 39.5 -44.5 128.5q0 65 19 151l105 495h84l-106 -502q-18 -84 -18 -134q0 -56 24.5 -78.5t81.5 -22.5q58 0 95.5 22.5t62.5 74.5t45 145l105 495h84l-106 -502q-25 -119 -60 -186t-89 -96.5t-139 -29.5q-99 0 -143.5 39.5zM300.5 751.5 q-29.5 20.5 -29.5 68.5q0 22 6 49q16 69 51 96t110 27q67 0 97 -20t30 -67q0 -21 -6 -50q-15 -70 -50.5 -97t-111.5 -27q-67 0 -96.5 20.5zM454 821q16 13 23 48q4 20 4 24q0 13 -9.5 17.5t-35.5 4.5q-38 0 -53.5 -12.5t-23.5 -47.5q-4 -20 -4 -24q0 -14 9.5 -18.5 t34.5 -4.5q39 0 55 13z" />
         <glyph glyph-name="Utilde" unicode="Ũ" d="M95.5 25.5q-44.5 39.5 -44.5 128.5q0 65 19 151l105 495h84l-106 -502q-18 -84 -18 -134q0 -56 24.5 -78.5t81.5 -22.5q58 0 95.5 22.5t62.5 74.5t45 145l105 495h84l-106 -502q-25 -119 -60 -186t-89 -96.5t-139 -29.5q-99 0 -143.5 39.5zM450.5 893q-22.5 16 -46.5 40 q-2 2 -12.5 11.5t-14.5 9.5q-14 0 -22.5 -15t-8.5 -36h-84q7 59 39.5 93.5t77.5 34.5q22 0 42.5 -14.5t45.5 -39.5q9 -9 17 -16t13 -7q14 0 22 14t8 34h83q-6 -56 -38 -90.5t-77 -34.5q-22 0 -44.5 16z" />
         <glyph glyph-name="V" unicode="V" d="M277 0h-84l-56 800h88l41 -645l316 645h91z" />
         <glyph glyph-name="W" unicode="W" d="M145 0h-83l59 800h84l-48 -591l155 343h77l9 -343l205 591h86l-281 -800h-80l-13 373z" />
         <glyph glyph-name="Wacute" unicode="Ẃ" d="M145 0h-83l59 800h84l-48 -591l155 343h77l9 -343l205 591h86l-281 -800h-80l-13 373zM595 1000l-187 -139l-45 59l187 139z" />
         <glyph glyph-name="Wcircumflex" unicode="Ŵ" d="M145 0h-83l59 800h84l-48 -591l155 343h77l9 -343l205 591h86l-281 -800h-80l-13 373zM580 899l-73 -50l-72 82l-109 -80l-56 50l182 138z" />
         <glyph glyph-name="Wdieresis" unicode="Ẅ" d="M145 0h-83l59 800h84l-48 -591l155 343h77l9 -343l205 591h86l-281 -800h-80l-13 373zM274 911q-16 12 -16 37q0 11 3 26q7 32 24.5 45.5t52.5 13.5t51 -12t16 -37q0 -10 -3 -24q-8 -34 -25 -47.5t-53 -13.5q-34 0 -50 12zM490 911q-16 12 -16 37q0 11 3 26 q7 32 24.5 45.5t52.5 13.5t51 -12t16 -37q0 -10 -3 -24q-8 -34 -25 -47.5t-53 -13.5q-34 0 -50 12z" />
         <glyph glyph-name="Wgrave" unicode="Ẁ" d="M145 0h-83l59 800h84l-48 -591l155 343h77l9 -343l205 591h86l-281 -800h-80l-13 373zM497 920l-66 -59l-134 139l66 59z" />
         <glyph glyph-name="X" unicode="X" d="M579 800h91l-303 -398l135 -402h-96l-106 315l-240 -315h-91l303 398l-135 402h96l106 -315z" />
         <glyph glyph-name="Y" unicode="Y" d="M276 0h-84l65 298l-135 502h89l106 -397l278 397h95l-349 -502z" />
         <glyph glyph-name="Yacute" unicode="Ý" d="M276 0h-84l65 298l-135 502h89l106 -397l278 397h95l-349 -502zM595 1000l-187 -139l-45 59l187 139z" />
         <glyph glyph-name="Ycircumflex" unicode="Ŷ" d="M276 0h-84l65 298l-135 502h89l106 -397l278 397h95l-349 -502zM580 899l-73 -50l-72 82l-109 -80l-56 50l182 138z" />
         <glyph glyph-name="Ydieresis" unicode="Ÿ" d="M276 0h-84l65 298l-135 502h89l106 -397l278 397h95l-349 -502zM274 911q-16 12 -16 37q0 11 3 26q7 32 24.5 45.5t52.5 13.5t51 -12t16 -37q0 -10 -3 -24q-8 -34 -25 -47.5t-53 -13.5q-34 0 -50 12zM490 911q-16 12 -16 37q0 11 3 26q7 32 24.5 45.5t52.5 13.5t51 -12 t16 -37q0 -10 -3 -24q-8 -34 -25 -47.5t-53 -13.5q-34 0 -50 12z" />
         <glyph glyph-name="uni1EF4" unicode="Ỵ" d="M276 0h-84l65 298l-135 502h89l106 -397l278 397h95l-349 -502zM142.5 -223.5q-14.5 9.5 -14.5 32.5q0 13 3 29q7 34 23.5 46.5t52.5 12.5q34 0 49 -9.5t15 -31.5q0 -14 -4 -29q-7 -34 -23 -47t-52 -13q-35 0 -49.5 9.5z" />
         <glyph glyph-name="Ygrave" unicode="Ỳ" d="M276 0h-84l65 298l-135 502h89l106 -397l278 397h95l-349 -502zM497 920l-66 -59l-134 139l66 59z" />
         <glyph glyph-name="uni1EF6" unicode="Ỷ" d="M276 0h-84l65 298l-135 502h89l106 -397l278 397h95l-349 -502zM376 917q33 5 55.5 18t26.5 29v4q0 15 -17 15q-37 0 -109 -52l15 95q20 16 47 25t49 9q46 0 72.5 -22t26.5 -59q0 -49 -42 -87.5t-111 -50.5z" />
         <glyph glyph-name="uni1EF8" unicode="Ỹ" d="M276 0h-84l65 298l-135 502h89l106 -397l278 397h95l-349 -502zM450.5 893q-22.5 16 -46.5 40q-2 2 -12.5 11.5t-14.5 9.5q-14 0 -22.5 -15t-8.5 -36h-84q7 59 39.5 93.5t77.5 34.5q22 0 42.5 -14.5t45.5 -39.5q9 -9 17 -16t13 -7q14 0 22 14t8 34h83q-6 -56 -38 -90.5 t-77 -34.5q-22 0 -44.5 16z" />
         <glyph glyph-name="Z" unicode="Z" d="M490 0h-514l12 61l552 662h-408l16 77h514l-11 -62l-553 -661h409z" />
         <glyph glyph-name="Zacute" unicode="Ź" d="M490 0h-514l12 61l552 662h-408l16 77h514l-11 -62l-553 -661h409zM594 997l-187 -139l-45 59l187 139z" />
         <glyph glyph-name="Zcaron" unicode="Ž" d="M490 0h-514l12 61l552 662h-408l16 77h514l-11 -62l-553 -661h409zM598 985l-183 -139l-127 137l72 51l74 -81l107 83z" />
         <glyph glyph-name="Zdotaccent" unicode="Ż" d="M490 0h-514l12 61l552 662h-408l16 77h514l-11 -62l-553 -661h409zM384.5 920.5q-14.5 9.5 -14.5 32.5q0 13 3 29q7 34 23.5 46.5t52.5 12.5q34 0 49 -9.5t15 -31.5q0 -14 -4 -29q-7 -34 -23 -47t-52 -13q-35 0 -49.5 9.5z" />
         <glyph glyph-name="a" unicode="a" d="M60 15.5q-47 29.5 -47 96.5q0 30 9 69q16 75 45 115.5t79.5 57t136.5 16.5h145l10 46q8 37 8 59q0 41 -25.5 57t-88.5 16q-45 0 -73 -9.5t-48 -32.5t-40 -65l-76 27q30 62 61.5 97t74 51t104.5 16q103 0 149 -34t46 -107q0 -38 -10 -82l-53 -248q-7 -37 -7 -49 q0 -23 13.5 -29.5t50.5 -4.5l-9 -77q-57 -2 -86 12t-34 48q-38 -43 -78 -59t-104 -16q-106 0 -153 29.5zM307 78q35 15 56 50t34 98l15 66h-138q-58 0 -90.5 -10t-51 -36.5t-29.5 -78.5q-5 -27 -5 -42q0 -35 25.5 -48.5t91.5 -13.5q57 0 92 15z" />
         <glyph glyph-name="aacute" unicode="á" d="M60 15.5q-47 29.5 -47 96.5q0 30 9 69q16 75 45 115.5t79.5 57t136.5 16.5h145l10 46q8 37 8 59q0 41 -25.5 57t-88.5 16q-45 0 -73 -9.5t-48 -32.5t-40 -65l-76 27q30 62 61.5 97t74 51t104.5 16q103 0 149 -34t46 -107q0 -38 -10 -82l-53 -248q-7 -37 -7 -49 q0 -23 13.5 -29.5t50.5 -4.5l-9 -77q-57 -2 -86 12t-34 48q-38 -43 -78 -59t-104 -16q-106 0 -153 29.5zM307 78q35 15 56 50t34 98l15 66h-138q-58 0 -90.5 -10t-51 -36.5t-29.5 -78.5q-5 -27 -5 -42q0 -35 25.5 -48.5t91.5 -13.5q57 0 92 15zM556 815l-187 -139l-45 59 l187 139z" />
         <glyph glyph-name="abreve" unicode="ă" d="M60 15.5q-47 29.5 -47 96.5q0 30 9 69q16 75 45 115.5t79.5 57t136.5 16.5h145l10 46q8 37 8 59q0 41 -25.5 57t-88.5 16q-45 0 -73 -9.5t-48 -32.5t-40 -65l-76 27q30 62 61.5 97t74 51t104.5 16q103 0 149 -34t46 -107q0 -38 -10 -82l-53 -248q-7 -37 -7 -49 q0 -23 13.5 -29.5t50.5 -4.5l-9 -77q-57 -2 -86 12t-34 48q-38 -43 -78 -59t-104 -16q-106 0 -153 29.5zM307 78q35 15 56 50t34 98l15 66h-138q-58 0 -90.5 -10t-51 -36.5t-29.5 -78.5q-5 -27 -5 -42q0 -35 25.5 -48.5t91.5 -13.5q57 0 92 15zM292 709q-30 20 -30 65 q0 22 10 62h83q-8 -34 -8 -46q0 -14 9 -18.5t34 -4.5q29 0 44.5 6t23 20t13.5 43h82q-9 -57 -27.5 -88.5t-50.5 -45t-87 -13.5q-66 0 -96 20z" />
         <glyph glyph-name="uni1EAF" unicode="ắ" d="M60 15.5q-47 29.5 -47 96.5q0 30 9 69q16 75 45 115.5t79.5 57t136.5 16.5h145l10 46q8 37 8 59q0 41 -25.5 57t-88.5 16q-45 0 -73 -9.5t-48 -32.5t-40 -65l-76 27q30 62 61.5 97t74 51t104.5 16q103 0 149 -34t46 -107q0 -38 -10 -82l-53 -248q-7 -37 -7 -49 q0 -23 13.5 -29.5t50.5 -4.5l-9 -77q-57 -2 -86 12t-34 48q-38 -43 -78 -59t-104 -16q-106 0 -153 29.5zM307 78q35 15 56 50t34 98l15 66h-138q-58 0 -90.5 -10t-51 -36.5t-29.5 -78.5q-5 -27 -5 -42q0 -35 25.5 -48.5t91.5 -13.5q57 0 92 15zM292 709q-30 20 -30 65 q0 22 10 62h83q-8 -34 -8 -46q0 -14 9 -18.5t34 -4.5q29 0 44.5 6t23 20t13.5 43h82q-9 -57 -27.5 -88.5t-50.5 -45t-87 -13.5q-66 0 -96 20zM597 1013l-187 -139l-45 59l187 139z" />
         <glyph glyph-name="uni1EB7" unicode="ặ" d="M60 15.5q-47 29.5 -47 96.5q0 30 9 69q16 75 45 115.5t79.5 57t136.5 16.5h145l10 46q8 37 8 59q0 41 -25.5 57t-88.5 16q-45 0 -73 -9.5t-48 -32.5t-40 -65l-76 27q30 62 61.5 97t74 51t104.5 16q103 0 149 -34t46 -107q0 -38 -10 -82l-53 -248q-7 -37 -7 -49 q0 -23 13.5 -29.5t50.5 -4.5l-9 -77q-57 -2 -86 12t-34 48q-38 -43 -78 -59t-104 -16q-106 0 -153 29.5zM307 78q35 15 56 50t34 98l15 66h-138q-58 0 -90.5 -10t-51 -36.5t-29.5 -78.5q-5 -27 -5 -42q0 -35 25.5 -48.5t91.5 -13.5q57 0 92 15zM142.5 -220.5 q-14.5 9.5 -14.5 32.5q0 13 3 29q7 34 23.5 46.5t52.5 12.5q34 0 49 -9.5t15 -31.5q0 -14 -4 -29q-7 -34 -23 -47t-52 -13q-35 0 -49.5 9.5zM292 709q-30 20 -30 65q0 22 10 62h83q-8 -34 -8 -46q0 -14 9 -18.5t34 -4.5q29 0 44.5 6t23 20t13.5 43h82q-9 -57 -27.5 -88.5 t-50.5 -45t-87 -13.5q-66 0 -96 20z" />
         <glyph glyph-name="uni1EB1" unicode="ằ" d="M60 15.5q-47 29.5 -47 96.5q0 30 9 69q16 75 45 115.5t79.5 57t136.5 16.5h145l10 46q8 37 8 59q0 41 -25.5 57t-88.5 16q-45 0 -73 -9.5t-48 -32.5t-40 -65l-76 27q30 62 61.5 97t74 51t104.5 16q103 0 149 -34t46 -107q0 -38 -10 -82l-53 -248q-7 -37 -7 -49 q0 -23 13.5 -29.5t50.5 -4.5l-9 -77q-57 -2 -86 12t-34 48q-38 -43 -78 -59t-104 -16q-106 0 -153 29.5zM307 78q35 15 56 50t34 98l15 66h-138q-58 0 -90.5 -10t-51 -36.5t-29.5 -78.5q-5 -27 -5 -42q0 -35 25.5 -48.5t91.5 -13.5q57 0 92 15zM292 709q-30 20 -30 65 q0 22 10 62h83q-8 -34 -8 -46q0 -14 9 -18.5t34 -4.5q29 0 44.5 6t23 20t13.5 43h82q-9 -57 -27.5 -88.5t-50.5 -45t-87 -13.5q-66 0 -96 20zM499 933l-66 -59l-134 139l66 59z" />
         <glyph glyph-name="uni1EB3" unicode="ẳ" d="M60 15.5q-47 29.5 -47 96.5q0 30 9 69q16 75 45 115.5t79.5 57t136.5 16.5h145l10 46q8 37 8 59q0 41 -25.5 57t-88.5 16q-45 0 -73 -9.5t-48 -32.5t-40 -65l-76 27q30 62 61.5 97t74 51t104.5 16q103 0 149 -34t46 -107q0 -38 -10 -82l-53 -248q-7 -37 -7 -49 q0 -23 13.5 -29.5t50.5 -4.5l-9 -77q-57 -2 -86 12t-34 48q-38 -43 -78 -59t-104 -16q-106 0 -153 29.5zM307 78q35 15 56 50t34 98l15 66h-138q-58 0 -90.5 -10t-51 -36.5t-29.5 -78.5q-5 -27 -5 -42q0 -35 25.5 -48.5t91.5 -13.5q57 0 92 15zM292 709q-30 20 -30 65 q0 22 10 62h83q-8 -34 -8 -46q0 -14 9 -18.5t34 -4.5q29 0 44.5 6t23 20t13.5 43h82q-9 -57 -27.5 -88.5t-50.5 -45t-87 -13.5q-66 0 -96 20zM378 930q33 5 55.5 18t26.5 29v4q0 15 -17 15q-37 0 -109 -52l15 95q20 16 47 25t49 9q46 0 72.5 -22t26.5 -59q0 -49 -42 -87.5 t-111 -50.5z" />
         <glyph glyph-name="uni1EB5" unicode="ẵ" d="M60 15.5q-47 29.5 -47 96.5q0 30 9 69q16 75 45 115.5t79.5 57t136.5 16.5h145l10 46q8 37 8 59q0 41 -25.5 57t-88.5 16q-45 0 -73 -9.5t-48 -32.5t-40 -65l-76 27q30 62 61.5 97t74 51t104.5 16q103 0 149 -34t46 -107q0 -38 -10 -82l-53 -248q-7 -37 -7 -49 q0 -23 13.5 -29.5t50.5 -4.5l-9 -77q-57 -2 -86 12t-34 48q-38 -43 -78 -59t-104 -16q-106 0 -153 29.5zM307 78q35 15 56 50t34 98l15 66h-138q-58 0 -90.5 -10t-51 -36.5t-29.5 -78.5q-5 -27 -5 -42q0 -35 25.5 -48.5t91.5 -13.5q57 0 92 15zM292 709q-30 20 -30 65 q0 22 10 62h83q-8 -34 -8 -46q0 -14 9 -18.5t34 -4.5q29 0 44.5 6t23 20t13.5 43h82q-9 -57 -27.5 -88.5t-50.5 -45t-87 -13.5q-66 0 -96 20zM452.5 906q-22.5 16 -46.5 40q-2 2 -12.5 11.5t-14.5 9.5q-14 0 -22.5 -15t-8.5 -36h-84q7 59 39.5 93.5t77.5 34.5 q22 0 42.5 -14.5t45.5 -39.5q9 -9 17 -16t13 -7q14 0 22 14t8 34h83q-6 -56 -38 -90.5t-77 -34.5q-22 0 -44.5 16z" />
         <glyph glyph-name="uni01CE" unicode="ǎ" d="M60 15.5q-47 29.5 -47 96.5q0 30 9 69q16 75 45 115.5t79.5 57t136.5 16.5h145l10 46q8 37 8 59q0 41 -25.5 57t-88.5 16q-45 0 -73 -9.5t-48 -32.5t-40 -65l-76 27q30 62 61.5 97t74 51t104.5 16q103 0 149 -34t46 -107q0 -38 -10 -82l-53 -248q-7 -37 -7 -49 q0 -23 13.5 -29.5t50.5 -4.5l-9 -77q-57 -2 -86 12t-34 48q-38 -43 -78 -59t-104 -16q-106 0 -153 29.5zM307 78q35 15 56 50t34 98l15 66h-138q-58 0 -90.5 -10t-51 -36.5t-29.5 -78.5q-5 -27 -5 -42q0 -35 25.5 -48.5t91.5 -13.5q57 0 92 15zM560 803l-183 -139l-127 137 l72 51l74 -81l107 83z" />
         <glyph glyph-name="acircumflex" unicode="â" d="M60 15.5q-47 29.5 -47 96.5q0 30 9 69q16 75 45 115.5t79.5 57t136.5 16.5h145l10 46q8 37 8 59q0 41 -25.5 57t-88.5 16q-45 0 -73 -9.5t-48 -32.5t-40 -65l-76 27q30 62 61.5 97t74 51t104.5 16q103 0 149 -34t46 -107q0 -38 -10 -82l-53 -248q-7 -37 -7 -49 q0 -23 13.5 -29.5t50.5 -4.5l-9 -77q-57 -2 -86 12t-34 48q-38 -43 -78 -59t-104 -16q-106 0 -153 29.5zM307 78q35 15 56 50t34 98l15 66h-138q-58 0 -90.5 -10t-51 -36.5t-29.5 -78.5q-5 -27 -5 -42q0 -35 25.5 -48.5t91.5 -13.5q57 0 92 15zM541 714l-73 -50l-72 82 l-109 -80l-56 50l182 138z" />
         <glyph glyph-name="uni1EA5" unicode="ấ" d="M60 15.5q-47 29.5 -47 96.5q0 30 9 69q16 75 45 115.5t79.5 57t136.5 16.5h145l10 46q8 37 8 59q0 41 -25.5 57t-88.5 16q-45 0 -73 -9.5t-48 -32.5t-40 -65l-76 27q30 62 61.5 97t74 51t104.5 16q103 0 149 -34t46 -107q0 -38 -10 -82l-53 -248q-7 -37 -7 -49 q0 -23 13.5 -29.5t50.5 -4.5l-9 -77q-57 -2 -86 12t-34 48q-38 -43 -78 -59t-104 -16q-106 0 -153 29.5zM307 78q35 15 56 50t34 98l15 66h-138q-58 0 -90.5 -10t-51 -36.5t-29.5 -78.5q-5 -27 -5 -42q0 -35 25.5 -48.5t91.5 -13.5q57 0 92 15zM541 714l-73 -50l-72 82 l-109 -80l-56 50l182 138zM599 1020l-187 -139l-45 59l187 139z" />
         <glyph glyph-name="uni1EAD" unicode="ậ" d="M60 15.5q-47 29.5 -47 96.5q0 30 9 69q16 75 45 115.5t79.5 57t136.5 16.5h145l10 46q8 37 8 59q0 41 -25.5 57t-88.5 16q-45 0 -73 -9.5t-48 -32.5t-40 -65l-76 27q30 62 61.5 97t74 51t104.5 16q103 0 149 -34t46 -107q0 -38 -10 -82l-53 -248q-7 -37 -7 -49 q0 -23 13.5 -29.5t50.5 -4.5l-9 -77q-57 -2 -86 12t-34 48q-38 -43 -78 -59t-104 -16q-106 0 -153 29.5zM307 78q35 15 56 50t34 98l15 66h-138q-58 0 -90.5 -10t-51 -36.5t-29.5 -78.5q-5 -27 -5 -42q0 -35 25.5 -48.5t91.5 -13.5q57 0 92 15zM142.5 -220.5 q-14.5 9.5 -14.5 32.5q0 13 3 29q7 34 23.5 46.5t52.5 12.5q34 0 49 -9.5t15 -31.5q0 -14 -4 -29q-7 -34 -23 -47t-52 -13q-35 0 -49.5 9.5zM541 714l-73 -50l-72 82l-109 -80l-56 50l182 138z" />
         <glyph glyph-name="uni1EA7" unicode="ầ" d="M60 15.5q-47 29.5 -47 96.5q0 30 9 69q16 75 45 115.5t79.5 57t136.5 16.5h145l10 46q8 37 8 59q0 41 -25.5 57t-88.5 16q-45 0 -73 -9.5t-48 -32.5t-40 -65l-76 27q30 62 61.5 97t74 51t104.5 16q103 0 149 -34t46 -107q0 -38 -10 -82l-53 -248q-7 -37 -7 -49 q0 -23 13.5 -29.5t50.5 -4.5l-9 -77q-57 -2 -86 12t-34 48q-38 -43 -78 -59t-104 -16q-106 0 -153 29.5zM307 78q35 15 56 50t34 98l15 66h-138q-58 0 -90.5 -10t-51 -36.5t-29.5 -78.5q-5 -27 -5 -42q0 -35 25.5 -48.5t91.5 -13.5q57 0 92 15zM541 714l-73 -50l-72 82 l-109 -80l-56 50l182 138zM501 940l-66 -59l-134 139l66 59z" />
         <glyph glyph-name="uni1EA9" unicode="ẩ" d="M60 15.5q-47 29.5 -47 96.5q0 30 9 69q16 75 45 115.5t79.5 57t136.5 16.5h145l10 46q8 37 8 59q0 41 -25.5 57t-88.5 16q-45 0 -73 -9.5t-48 -32.5t-40 -65l-76 27q30 62 61.5 97t74 51t104.5 16q103 0 149 -34t46 -107q0 -38 -10 -82l-53 -248q-7 -37 -7 -49 q0 -23 13.5 -29.5t50.5 -4.5l-9 -77q-57 -2 -86 12t-34 48q-38 -43 -78 -59t-104 -16q-106 0 -153 29.5zM307 78q35 15 56 50t34 98l15 66h-138q-58 0 -90.5 -10t-51 -36.5t-29.5 -78.5q-5 -27 -5 -42q0 -35 25.5 -48.5t91.5 -13.5q57 0 92 15zM541 714l-73 -50l-72 82 l-109 -80l-56 50l182 138zM380 937q33 5 55.5 18t26.5 29v4q0 15 -17 15q-37 0 -109 -52l15 95q20 16 47 25t49 9q46 0 72.5 -22t26.5 -59q0 -49 -42 -87.5t-111 -50.5z" />
         <glyph glyph-name="uni1EAB" unicode="ẫ" d="M60 15.5q-47 29.5 -47 96.5q0 30 9 69q16 75 45 115.5t79.5 57t136.5 16.5h145l10 46q8 37 8 59q0 41 -25.5 57t-88.5 16q-45 0 -73 -9.5t-48 -32.5t-40 -65l-76 27q30 62 61.5 97t74 51t104.5 16q103 0 149 -34t46 -107q0 -38 -10 -82l-53 -248q-7 -37 -7 -49 q0 -23 13.5 -29.5t50.5 -4.5l-9 -77q-57 -2 -86 12t-34 48q-38 -43 -78 -59t-104 -16q-106 0 -153 29.5zM307 78q35 15 56 50t34 98l15 66h-138q-58 0 -90.5 -10t-51 -36.5t-29.5 -78.5q-5 -27 -5 -42q0 -35 25.5 -48.5t91.5 -13.5q57 0 92 15zM541 714l-73 -50l-72 82 l-109 -80l-56 50l182 138zM454.5 913q-22.5 16 -46.5 40q-2 2 -12.5 11.5t-14.5 9.5q-14 0 -22.5 -15t-8.5 -36h-84q7 59 39.5 93.5t77.5 34.5q22 0 42.5 -14.5t45.5 -39.5q9 -9 17 -16t13 -7q14 0 22 14t8 34h83q-6 -56 -38 -90.5t-77 -34.5q-22 0 -44.5 16z" />
         <glyph glyph-name="adieresis" unicode="ä" d="M60 15.5q-47 29.5 -47 96.5q0 30 9 69q16 75 45 115.5t79.5 57t136.5 16.5h145l10 46q8 37 8 59q0 41 -25.5 57t-88.5 16q-45 0 -73 -9.5t-48 -32.5t-40 -65l-76 27q30 62 61.5 97t74 51t104.5 16q103 0 149 -34t46 -107q0 -38 -10 -82l-53 -248q-7 -37 -7 -49 q0 -23 13.5 -29.5t50.5 -4.5l-9 -77q-57 -2 -86 12t-34 48q-38 -43 -78 -59t-104 -16q-106 0 -153 29.5zM307 78q35 15 56 50t34 98l15 66h-138q-58 0 -90.5 -10t-51 -36.5t-29.5 -78.5q-5 -27 -5 -42q0 -35 25.5 -48.5t91.5 -13.5q57 0 92 15zM235 726q-16 12 -16 37 q0 11 3 26q7 32 24.5 45.5t52.5 13.5t51 -12t16 -37q0 -10 -3 -24q-8 -34 -25 -47.5t-53 -13.5q-34 0 -50 12zM451 726q-16 12 -16 37q0 11 3 26q7 32 24.5 45.5t52.5 13.5t51 -12t16 -37q0 -10 -3 -24q-8 -34 -25 -47.5t-53 -13.5q-34 0 -50 12z" />
         <glyph glyph-name="uni1EA1" unicode="ạ" d="M60 15.5q-47 29.5 -47 96.5q0 30 9 69q16 75 45 115.5t79.5 57t136.5 16.5h145l10 46q8 37 8 59q0 41 -25.5 57t-88.5 16q-45 0 -73 -9.5t-48 -32.5t-40 -65l-76 27q30 62 61.5 97t74 51t104.5 16q103 0 149 -34t46 -107q0 -38 -10 -82l-53 -248q-7 -37 -7 -49 q0 -23 13.5 -29.5t50.5 -4.5l-9 -77q-57 -2 -86 12t-34 48q-38 -43 -78 -59t-104 -16q-106 0 -153 29.5zM307 78q35 15 56 50t34 98l15 66h-138q-58 0 -90.5 -10t-51 -36.5t-29.5 -78.5q-5 -27 -5 -42q0 -35 25.5 -48.5t91.5 -13.5q57 0 92 15zM142.5 -220.5 q-14.5 9.5 -14.5 32.5q0 13 3 29q7 34 23.5 46.5t52.5 12.5q34 0 49 -9.5t15 -31.5q0 -14 -4 -29q-7 -34 -23 -47t-52 -13q-35 0 -49.5 9.5z" />
         <glyph glyph-name="agrave" unicode="à" d="M60 15.5q-47 29.5 -47 96.5q0 30 9 69q16 75 45 115.5t79.5 57t136.5 16.5h145l10 46q8 37 8 59q0 41 -25.5 57t-88.5 16q-45 0 -73 -9.5t-48 -32.5t-40 -65l-76 27q30 62 61.5 97t74 51t104.5 16q103 0 149 -34t46 -107q0 -38 -10 -82l-53 -248q-7 -37 -7 -49 q0 -23 13.5 -29.5t50.5 -4.5l-9 -77q-57 -2 -86 12t-34 48q-38 -43 -78 -59t-104 -16q-106 0 -153 29.5zM307 78q35 15 56 50t34 98l15 66h-138q-58 0 -90.5 -10t-51 -36.5t-29.5 -78.5q-5 -27 -5 -42q0 -35 25.5 -48.5t91.5 -13.5q57 0 92 15zM458 735l-66 -59l-134 139 l66 59z" />
         <glyph glyph-name="uni1EA3" unicode="ả" d="M60 15.5q-47 29.5 -47 96.5q0 30 9 69q16 75 45 115.5t79.5 57t136.5 16.5h145l10 46q8 37 8 59q0 41 -25.5 57t-88.5 16q-45 0 -73 -9.5t-48 -32.5t-40 -65l-76 27q30 62 61.5 97t74 51t104.5 16q103 0 149 -34t46 -107q0 -38 -10 -82l-53 -248q-7 -37 -7 -49 q0 -23 13.5 -29.5t50.5 -4.5l-9 -77q-57 -2 -86 12t-34 48q-38 -43 -78 -59t-104 -16q-106 0 -153 29.5zM307 78q35 15 56 50t34 98l15 66h-138q-58 0 -90.5 -10t-51 -36.5t-29.5 -78.5q-5 -27 -5 -42q0 -35 25.5 -48.5t91.5 -13.5q57 0 92 15zM337 732q33 5 55.5 18 t26.5 29v4q0 15 -17 15q-37 0 -109 -52l15 95q20 16 47 25t49 9q46 0 72.5 -22t26.5 -59q0 -49 -42 -87.5t-111 -50.5z" />
         <glyph glyph-name="amacron" unicode="ā" d="M60 15.5q-47 29.5 -47 96.5q0 30 9 69q16 75 45 115.5t79.5 57t136.5 16.5h145l10 46q8 37 8 59q0 41 -25.5 57t-88.5 16q-45 0 -73 -9.5t-48 -32.5t-40 -65l-76 27q30 62 61.5 97t74 51t104.5 16q103 0 149 -34t46 -107q0 -38 -10 -82l-53 -248q-7 -37 -7 -49 q0 -23 13.5 -29.5t50.5 -4.5l-9 -77q-57 -2 -86 12t-34 48q-38 -43 -78 -59t-104 -16q-106 0 -153 29.5zM307 78q35 15 56 50t34 98l15 66h-138q-58 0 -90.5 -10t-51 -36.5t-29.5 -78.5q-5 -27 -5 -42q0 -35 25.5 -48.5t91.5 -13.5q57 0 92 15zM539 708h-308l16 78h308z" />
         <glyph glyph-name="aogonek" unicode="ą" d="M449.5 -112.5q13.5 5.5 21.5 14.5l58 -55q-17 -19 -47 -30.5t-61 -11.5q-55 0 -88.5 23t-33.5 62q0 36 41 70t98 49q-37 13 -43 52q-38 -43 -78 -59t-104 -16q-106 0 -153 29.5t-47 96.5q0 30 9 69q16 75 45 115.5t79.5 57t136.5 16.5h145l10 46q8 37 8 59q0 41 -25.5 57 t-88.5 16q-45 0 -73 -9.5t-48 -32.5t-40 -65l-76 27q30 62 61.5 97t74 51t104.5 16q103 0 149 -34t46 -107q0 -38 -10 -82l-53 -248q-7 -37 -7 -49q0 -23 13.5 -29.5t50.5 -4.5l-9 -77q-74 -35 -103.5 -54.5t-29.5 -38.5q0 -26 40 -26q14 0 27.5 5.5zM412 292h-138 q-58 0 -90.5 -10t-51 -36.5t-29.5 -78.5q-5 -27 -5 -42q0 -35 25.5 -48.5t91.5 -13.5q57 0 92 15t56 50t34 98z" />
         <glyph glyph-name="aring" unicode="å" d="M60 15.5q-47 29.5 -47 96.5q0 30 9 69q16 75 45 115.5t79.5 57t136.5 16.5h145l10 46q8 37 8 59q0 41 -25.5 57t-88.5 16q-45 0 -73 -9.5t-48 -32.5t-40 -65l-76 27q30 62 61.5 97t74 51t104.5 16q103 0 149 -34t46 -107q0 -38 -10 -82l-53 -248q-7 -37 -7 -49 q0 -23 13.5 -29.5t50.5 -4.5l-9 -77q-57 -2 -86 12t-34 48q-38 -43 -78 -59t-104 -16q-106 0 -153 29.5zM307 78q35 15 56 50t34 98l15 66h-138q-58 0 -90.5 -10t-51 -36.5t-29.5 -78.5q-5 -27 -5 -42q0 -35 25.5 -48.5t91.5 -13.5q57 0 92 15zM292.5 713.5 q-29.5 20.5 -29.5 67.5q0 21 6 49q15 69 50.5 96.5t110.5 27.5q66 0 96 -20.5t30 -66.5q0 -22 -6 -51q-14 -69 -49.5 -96t-112.5 -27q-66 0 -95.5 20.5zM446 782.5q16 12.5 23 47.5q4 20 4 24q0 14 -10 18.5t-36 4.5q-37 0 -53 -13t-24 -48q-3 -13 -3 -23q0 -14 9.5 -18.5 t34.5 -4.5q39 0 55 12.5z" />
         <glyph glyph-name="atilde" unicode="ã" d="M60 15.5q-47 29.5 -47 96.5q0 30 9 69q16 75 45 115.5t79.5 57t136.5 16.5h145l10 46q8 37 8 59q0 41 -25.5 57t-88.5 16q-45 0 -73 -9.5t-48 -32.5t-40 -65l-76 27q30 62 61.5 97t74 51t104.5 16q103 0 149 -34t46 -107q0 -38 -10 -82l-53 -248q-7 -37 -7 -49 q0 -23 13.5 -29.5t50.5 -4.5l-9 -77q-57 -2 -86 12t-34 48q-38 -43 -78 -59t-104 -16q-106 0 -153 29.5zM307 78q35 15 56 50t34 98l15 66h-138q-58 0 -90.5 -10t-51 -36.5t-29.5 -78.5q-5 -27 -5 -42q0 -35 25.5 -48.5t91.5 -13.5q57 0 92 15zM411.5 708q-22.5 16 -46.5 40 q-2 2 -12.5 11.5t-14.5 9.5q-14 0 -22.5 -15t-8.5 -36h-84q7 59 39.5 93.5t77.5 34.5q22 0 42.5 -14.5t45.5 -39.5q9 -9 17 -16t13 -7q14 0 22 14t8 34h83q-6 -56 -38 -90.5t-77 -34.5q-22 0 -44.5 16z" />
         <glyph glyph-name="ae" unicode="æ" d="M-0.5 12q-31.5 26 -31.5 85q0 37 10 83q16 75 41.5 115.5t68.5 57.5t114 17h68l11 50q11 52 11 77q0 33 -16 45.5t-54 12.5q-31 0 -51 -22.5t-45 -85.5l-79 27q24 62 48 95.5t54.5 48t74.5 14.5q57 0 86.5 -19.5t38.5 -62.5q30 46 62.5 64t85.5 18q63 0 92.5 -33.5 t29.5 -107.5t-29 -202h-253q-21 -99 -21 -150q0 -41 14.5 -58.5t46.5 -17.5q36 0 62.5 20t51.5 71l62 -50q-32 -66 -73 -92t-106 -26q-50 0 -77.5 20.5t-40.5 66.5q-29 -49 -64.5 -68t-90.5 -19q-70 0 -101.5 26zM524 373q16 79 16 121q0 33 -10.5 47t-34.5 14 q-38 0 -63.5 -18t-44 -58.5t-34.5 -112.5zM168.5 78q24.5 15 40.5 50t30 99l15 65h-61q-42 0 -67 -10t-40.5 -36.5t-26.5 -78.5q-8 -40 -8 -59q0 -26 12 -35.5t41 -9.5q40 0 64.5 15z" />
         <glyph glyph-name="b" unicode="b" d="M119 8q-46 22 -79 77l150 715h84l-49 -219q54 51 148 51q97 0 140 -39.5t43 -129.5q0 -66 -21 -162q-26 -119 -60 -187t-87 -98t-137 -30q-86 0 -132 22zM346.5 86.5q36.5 23.5 62 77.5t45.5 151q19 92 19 139q0 55 -24 78t-78 23q-58 0 -93 -14.5t-55.5 -48.5t-33.5 -97 l-65 -289q22 -26 49 -34.5t80 -8.5q57 0 93.5 23.5z" />
         <glyph glyph-name="c" unicode="c" d="M97.5 27.5q-49.5 41.5 -49.5 136.5q0 60 20 152q25 119 62.5 187t97 98.5t155.5 30.5q82 0 125 -27.5t73 -97.5l-75 -37q-16 35 -31 53t-36.5 25t-57.5 7q-69 0 -112.5 -23.5t-71.5 -77.5t-49 -152q-17 -80 -17 -127q0 -62 29.5 -87t98.5 -25q56 0 92.5 19t83.5 72 l64 -47q-60 -69 -112 -95t-130 -26q-110 0 -159.5 41.5z" />
         <glyph glyph-name="cacute" unicode="ć" d="M97.5 27.5q-49.5 41.5 -49.5 136.5q0 60 20 152q25 119 62.5 187t97 98.5t155.5 30.5q82 0 125 -27.5t73 -97.5l-75 -37q-16 35 -31 53t-36.5 25t-57.5 7q-69 0 -112.5 -23.5t-71.5 -77.5t-49 -152q-17 -80 -17 -127q0 -62 29.5 -87t98.5 -25q56 0 92.5 19t83.5 72 l64 -47q-60 -69 -112 -95t-130 -26q-110 0 -159.5 41.5zM556 815l-187 -139l-45 59l187 139z" />
         <glyph glyph-name="ccaron" unicode="č" d="M97.5 27.5q-49.5 41.5 -49.5 136.5q0 60 20 152q25 119 62.5 187t97 98.5t155.5 30.5q82 0 125 -27.5t73 -97.5l-75 -37q-16 35 -31 53t-36.5 25t-57.5 7q-69 0 -112.5 -23.5t-71.5 -77.5t-49 -152q-17 -80 -17 -127q0 -62 29.5 -87t98.5 -25q56 0 92.5 19t83.5 72 l64 -47q-60 -69 -112 -95t-130 -26q-110 0 -159.5 41.5zM560 803l-183 -139l-127 137l72 51l74 -81l107 83z" />
         <glyph glyph-name="ccedilla" unicode="ç" d="M268.5 531.5q-43.5 -23.5 -71.5 -77.5t-49 -152q-17 -80 -17 -127q0 -62 29.5 -87t98.5 -25q56 0 92.5 19t83.5 72l64 -47q-58 -67 -107.5 -93.5t-121.5 -27.5l-9 -31q28 -7 44 -26.5t16 -46.5q0 -10 -1 -15q-9 -42 -46.5 -68t-89.5 -26q-35 0 -62 12.5t-39 31.5l42 55 q7 -10 24 -15.5t38 -5.5t36 9.5t15 22.5q0 9 -17.5 14t-48.5 5l16 89q-73 11 -106.5 52.5t-33.5 120.5q0 60 20 152q25 119 62.5 187t97 98.5t155.5 30.5q82 0 125 -27.5t73 -97.5l-75 -37q-16 35 -31 53t-36.5 25t-57.5 7q-69 0 -112.5 -23.5z" />
         <glyph glyph-name="ccircumflex" unicode="ĉ" d="M97.5 27.5q-49.5 41.5 -49.5 136.5q0 60 20 152q25 119 62.5 187t97 98.5t155.5 30.5q82 0 125 -27.5t73 -97.5l-75 -37q-16 35 -31 53t-36.5 25t-57.5 7q-69 0 -112.5 -23.5t-71.5 -77.5t-49 -152q-17 -80 -17 -127q0 -62 29.5 -87t98.5 -25q56 0 92.5 19t83.5 72 l64 -47q-60 -69 -112 -95t-130 -26q-110 0 -159.5 41.5zM541 714l-73 -50l-72 82l-109 -80l-56 50l182 138z" />
         <glyph glyph-name="cdotaccent" unicode="ċ" d="M97.5 27.5q-49.5 41.5 -49.5 136.5q0 60 20 152q25 119 62.5 187t97 98.5t155.5 30.5q82 0 125 -27.5t73 -97.5l-75 -37q-16 35 -31 53t-36.5 25t-57.5 7q-69 0 -112.5 -23.5t-71.5 -77.5t-49 -152q-17 -80 -17 -127q0 -62 29.5 -87t98.5 -25q56 0 92.5 19t83.5 72 l64 -47q-60 -69 -112 -95t-130 -26q-110 0 -159.5 41.5zM346.5 738.5q-14.5 9.5 -14.5 32.5q0 13 3 29q7 34 23.5 46.5t52.5 12.5q34 0 49 -9.5t15 -31.5q0 -14 -4 -29q-7 -34 -23 -47t-52 -13q-35 0 -49.5 9.5z" />
         <glyph glyph-name="d" unicode="d" d="M89 26q-45 40 -45 132q0 62 20 157q26 120 61 188t90 98.5t141 30.5q108 0 142 -57l50 225h84l-170 -800h-85l10 26q-52 -40 -153 -40q-100 0 -145 40zM354.5 82.5q45.5 19.5 53.5 56.5l56 265q6 30 6 54q0 51 -29 74t-87 23q-59 0 -97.5 -23.5t-64.5 -78.5t-47 -152 q-18 -82 -18 -133q0 -58 25.5 -81.5t83.5 -23.5q73 0 118.5 19.5z" />
         <glyph glyph-name="eth" unicode="ð" d="M606 733l-109 -54q56 -88 56 -230q0 -98 -26 -212q-21 -94 -54.5 -148.5t-89.5 -78.5t-144 -24q-109 0 -157.5 37t-48.5 121q0 45 14 112q20 97 53.5 152.5t89.5 80t146 24.5q83 0 131 -21q-8 92 -47 148l-172 -86l-28 68l143 71q-57 34 -141 30l9 77q135 4 217 -64 l129 64zM341.5 80q38.5 17 62.5 56t40 108l9 43q5 26 5 55q0 52 -28 72.5t-96 20.5q-64 0 -103 -18t-63 -59.5t-40 -115.5q-11 -55 -11 -87q0 -51 28 -71.5t96 -20.5q62 0 100.5 17z" />
         <glyph glyph-name="dcaron" unicode="ď" d="M41.5 25.5q-41.5 39.5 -41.5 130.5q0 62 20 159q25 119 60 187.5t86.5 99t129.5 30.5q90 0 125 -57l50 225h84l-170 -800h-85l9 26q-51 -40 -136 -40q-90 0 -131.5 39.5zM639 529h-66l49 271h85zM280 83q43 20 51 56l56 265q7 37 7 56q0 95 -100 95q-51 0 -86 -23.5 t-60 -78.5t-46 -152q-19 -92 -19 -138q0 -54 22.5 -77t70.5 -23q61 0 104 20z" />
         <glyph glyph-name="dcroat" unicode="đ" d="M679 742l-16 -77h-60l-141 -665h-85l10 26q-52 -40 -153 -40q-100 0 -145 40t-45 132q0 62 20 157q26 120 61 188t90 98.5t141 30.5q108 0 142 -57l20 90h-133l17 77h133l13 58h84l-12 -58h59zM464 404q6 30 6 54q0 51 -29 74t-87 23q-59 0 -97.5 -23.5t-64.5 -78.5 t-47 -152q-18 -82 -18 -133q0 -58 25.5 -81.5t83.5 -23.5q73 0 118.5 19.5t53.5 56.5z" />
         <glyph glyph-name="e" unicode="e" d="M134 292q-14 -72 -14 -115q0 -63 29 -88.5t95 -25.5q59 0 96.5 18.5t87.5 71.5l61 -50q-60 -67 -113.5 -92t-133.5 -25q-109 0 -157.5 41.5t-48.5 136.5q0 60 20 152q25 119 62 187t95.5 98.5t150.5 30.5q101 0 146 -40.5t45 -132.5q0 -66 -23 -170zM264.5 537.5 q-38.5 -17.5 -65 -57.5t-46.5 -110l311 3q7 53 7 76q0 59 -25 82.5t-84 23.5t-97.5 -17.5z" />
         <glyph glyph-name="eacute" unicode="é" d="M134 292q-14 -72 -14 -115q0 -63 29 -88.5t95 -25.5q59 0 96.5 18.5t87.5 71.5l61 -50q-60 -67 -113.5 -92t-133.5 -25q-109 0 -157.5 41.5t-48.5 136.5q0 60 20 152q25 119 62 187t95.5 98.5t150.5 30.5q101 0 146 -40.5t45 -132.5q0 -66 -23 -170zM264.5 537.5 q-38.5 -17.5 -65 -57.5t-46.5 -110l311 3q7 53 7 76q0 59 -25 82.5t-84 23.5t-97.5 -17.5zM556 815l-187 -139l-45 59l187 139z" />
         <glyph glyph-name="ecaron" unicode="ě" d="M134 292q-14 -72 -14 -115q0 -63 29 -88.5t95 -25.5q59 0 96.5 18.5t87.5 71.5l61 -50q-60 -67 -113.5 -92t-133.5 -25q-109 0 -157.5 41.5t-48.5 136.5q0 60 20 152q25 119 62 187t95.5 98.5t150.5 30.5q101 0 146 -40.5t45 -132.5q0 -66 -23 -170zM264.5 537.5 q-38.5 -17.5 -65 -57.5t-46.5 -110l311 3q7 53 7 76q0 59 -25 82.5t-84 23.5t-97.5 -17.5zM560 803l-183 -139l-127 137l72 51l74 -81l107 83z" />
         <glyph glyph-name="ecircumflex" unicode="ê" d="M134 292q-14 -72 -14 -115q0 -63 29 -88.5t95 -25.5q59 0 96.5 18.5t87.5 71.5l61 -50q-60 -67 -113.5 -92t-133.5 -25q-109 0 -157.5 41.5t-48.5 136.5q0 60 20 152q25 119 62 187t95.5 98.5t150.5 30.5q101 0 146 -40.5t45 -132.5q0 -66 -23 -170zM264.5 537.5 q-38.5 -17.5 -65 -57.5t-46.5 -110l311 3q7 53 7 76q0 59 -25 82.5t-84 23.5t-97.5 -17.5zM541 714l-73 -50l-72 82l-109 -80l-56 50l182 138z" />
         <glyph glyph-name="uni1EBF" unicode="ế" d="M134 292q-14 -72 -14 -115q0 -63 29 -88.5t95 -25.5q59 0 96.5 18.5t87.5 71.5l61 -50q-60 -67 -113.5 -92t-133.5 -25q-109 0 -157.5 41.5t-48.5 136.5q0 60 20 152q25 119 62 187t95.5 98.5t150.5 30.5q101 0 146 -40.5t45 -132.5q0 -66 -23 -170zM264.5 537.5 q-38.5 -17.5 -65 -57.5t-46.5 -110l311 3q7 53 7 76q0 59 -25 82.5t-84 23.5t-97.5 -17.5zM541 714l-73 -50l-72 82l-109 -80l-56 50l182 138zM599 1020l-187 -139l-45 59l187 139z" />
         <glyph glyph-name="uni1EC7" unicode="ệ" d="M134 292q-14 -72 -14 -115q0 -63 29 -88.5t95 -25.5q59 0 96.5 18.5t87.5 71.5l61 -50q-60 -67 -113.5 -92t-133.5 -25q-109 0 -157.5 41.5t-48.5 136.5q0 60 20 152q25 119 62 187t95.5 98.5t150.5 30.5q101 0 146 -40.5t45 -132.5q0 -66 -23 -170zM264.5 537.5 q-38.5 -17.5 -65 -57.5t-46.5 -110l311 3q7 53 7 76q0 59 -25 82.5t-84 23.5t-97.5 -17.5zM142.5 -220.5q-14.5 9.5 -14.5 32.5q0 13 3 29q7 34 23.5 46.5t52.5 12.5q34 0 49 -9.5t15 -31.5q0 -14 -4 -29q-7 -34 -23 -47t-52 -13q-35 0 -49.5 9.5zM541 714l-73 -50l-72 82 l-109 -80l-56 50l182 138z" />
         <glyph glyph-name="uni1EC1" unicode="ề" d="M134 292q-14 -72 -14 -115q0 -63 29 -88.5t95 -25.5q59 0 96.5 18.5t87.5 71.5l61 -50q-60 -67 -113.5 -92t-133.5 -25q-109 0 -157.5 41.5t-48.5 136.5q0 60 20 152q25 119 62 187t95.5 98.5t150.5 30.5q101 0 146 -40.5t45 -132.5q0 -66 -23 -170zM264.5 537.5 q-38.5 -17.5 -65 -57.5t-46.5 -110l311 3q7 53 7 76q0 59 -25 82.5t-84 23.5t-97.5 -17.5zM541 714l-73 -50l-72 82l-109 -80l-56 50l182 138zM501 940l-66 -59l-134 139l66 59z" />
         <glyph glyph-name="uni1EC3" unicode="ể" d="M134 292q-14 -72 -14 -115q0 -63 29 -88.5t95 -25.5q59 0 96.5 18.5t87.5 71.5l61 -50q-60 -67 -113.5 -92t-133.5 -25q-109 0 -157.5 41.5t-48.5 136.5q0 60 20 152q25 119 62 187t95.5 98.5t150.5 30.5q101 0 146 -40.5t45 -132.5q0 -66 -23 -170zM264.5 537.5 q-38.5 -17.5 -65 -57.5t-46.5 -110l311 3q7 53 7 76q0 59 -25 82.5t-84 23.5t-97.5 -17.5zM541 714l-73 -50l-72 82l-109 -80l-56 50l182 138zM380 937q33 5 55.5 18t26.5 29v4q0 15 -17 15q-37 0 -109 -52l15 95q20 16 47 25t49 9q46 0 72.5 -22t26.5 -59q0 -49 -42 -87.5 t-111 -50.5z" />
         <glyph glyph-name="uni1EC5" unicode="ễ" d="M134 292q-14 -72 -14 -115q0 -63 29 -88.5t95 -25.5q59 0 96.5 18.5t87.5 71.5l61 -50q-60 -67 -113.5 -92t-133.5 -25q-109 0 -157.5 41.5t-48.5 136.5q0 60 20 152q25 119 62 187t95.5 98.5t150.5 30.5q101 0 146 -40.5t45 -132.5q0 -66 -23 -170zM264.5 537.5 q-38.5 -17.5 -65 -57.5t-46.5 -110l311 3q7 53 7 76q0 59 -25 82.5t-84 23.5t-97.5 -17.5zM541 714l-73 -50l-72 82l-109 -80l-56 50l182 138zM454.5 913q-22.5 16 -46.5 40q-2 2 -12.5 11.5t-14.5 9.5q-14 0 -22.5 -15t-8.5 -36h-84q7 59 39.5 93.5t77.5 34.5 q22 0 42.5 -14.5t45.5 -39.5q9 -9 17 -16t13 -7q14 0 22 14t8 34h83q-6 -56 -38 -90.5t-77 -34.5q-22 0 -44.5 16z" />
         <glyph glyph-name="edieresis" unicode="ë" d="M134 292q-14 -72 -14 -115q0 -63 29 -88.5t95 -25.5q59 0 96.5 18.5t87.5 71.5l61 -50q-60 -67 -113.5 -92t-133.5 -25q-109 0 -157.5 41.5t-48.5 136.5q0 60 20 152q25 119 62 187t95.5 98.5t150.5 30.5q101 0 146 -40.5t45 -132.5q0 -66 -23 -170zM264.5 537.5 q-38.5 -17.5 -65 -57.5t-46.5 -110l311 3q7 53 7 76q0 59 -25 82.5t-84 23.5t-97.5 -17.5zM235 726q-16 12 -16 37q0 11 3 26q7 32 24.5 45.5t52.5 13.5t51 -12t16 -37q0 -10 -3 -24q-8 -34 -25 -47.5t-53 -13.5q-34 0 -50 12zM451 726q-16 12 -16 37q0 11 3 26 q7 32 24.5 45.5t52.5 13.5t51 -12t16 -37q0 -10 -3 -24q-8 -34 -25 -47.5t-53 -13.5q-34 0 -50 12z" />
         <glyph glyph-name="edotaccent" unicode="ė" d="M134 292q-14 -72 -14 -115q0 -63 29 -88.5t95 -25.5q59 0 96.5 18.5t87.5 71.5l61 -50q-60 -67 -113.5 -92t-133.5 -25q-109 0 -157.5 41.5t-48.5 136.5q0 60 20 152q25 119 62 187t95.5 98.5t150.5 30.5q101 0 146 -40.5t45 -132.5q0 -66 -23 -170zM264.5 537.5 q-38.5 -17.5 -65 -57.5t-46.5 -110l311 3q7 53 7 76q0 59 -25 82.5t-84 23.5t-97.5 -17.5zM346.5 738.5q-14.5 9.5 -14.5 32.5q0 13 3 29q7 34 23.5 46.5t52.5 12.5q34 0 49 -9.5t15 -31.5q0 -14 -4 -29q-7 -34 -23 -47t-52 -13q-35 0 -49.5 9.5z" />
         <glyph glyph-name="uni1EB9" unicode="ẹ" d="M134 292q-14 -72 -14 -115q0 -63 29 -88.5t95 -25.5q59 0 96.5 18.5t87.5 71.5l61 -50q-60 -67 -113.5 -92t-133.5 -25q-109 0 -157.5 41.5t-48.5 136.5q0 60 20 152q25 119 62 187t95.5 98.5t150.5 30.5q101 0 146 -40.5t45 -132.5q0 -66 -23 -170zM264.5 537.5 q-38.5 -17.5 -65 -57.5t-46.5 -110l311 3q7 53 7 76q0 59 -25 82.5t-84 23.5t-97.5 -17.5zM142.5 -220.5q-14.5 9.5 -14.5 32.5q0 13 3 29q7 34 23.5 46.5t52.5 12.5q34 0 49 -9.5t15 -31.5q0 -14 -4 -29q-7 -34 -23 -47t-52 -13q-35 0 -49.5 9.5z" />
         <glyph glyph-name="egrave" unicode="è" d="M134 292q-14 -72 -14 -115q0 -63 29 -88.5t95 -25.5q59 0 96.5 18.5t87.5 71.5l61 -50q-60 -67 -113.5 -92t-133.5 -25q-109 0 -157.5 41.5t-48.5 136.5q0 60 20 152q25 119 62 187t95.5 98.5t150.5 30.5q101 0 146 -40.5t45 -132.5q0 -66 -23 -170zM264.5 537.5 q-38.5 -17.5 -65 -57.5t-46.5 -110l311 3q7 53 7 76q0 59 -25 82.5t-84 23.5t-97.5 -17.5zM458 735l-66 -59l-134 139l66 59z" />
         <glyph glyph-name="uni1EBB" unicode="ẻ" d="M134 292q-14 -72 -14 -115q0 -63 29 -88.5t95 -25.5q59 0 96.5 18.5t87.5 71.5l61 -50q-60 -67 -113.5 -92t-133.5 -25q-109 0 -157.5 41.5t-48.5 136.5q0 60 20 152q25 119 62 187t95.5 98.5t150.5 30.5q101 0 146 -40.5t45 -132.5q0 -66 -23 -170zM264.5 537.5 q-38.5 -17.5 -65 -57.5t-46.5 -110l311 3q7 53 7 76q0 59 -25 82.5t-84 23.5t-97.5 -17.5zM337 732q33 5 55.5 18t26.5 29v4q0 15 -17 15q-37 0 -109 -52l15 95q20 16 47 25t49 9q46 0 72.5 -22t26.5 -59q0 -49 -42 -87.5t-111 -50.5z" />
         <glyph glyph-name="emacron" unicode="ē" d="M134 292q-14 -72 -14 -115q0 -63 29 -88.5t95 -25.5q59 0 96.5 18.5t87.5 71.5l61 -50q-60 -67 -113.5 -92t-133.5 -25q-109 0 -157.5 41.5t-48.5 136.5q0 60 20 152q25 119 62 187t95.5 98.5t150.5 30.5q101 0 146 -40.5t45 -132.5q0 -66 -23 -170zM264.5 537.5 q-38.5 -17.5 -65 -57.5t-46.5 -110l311 3q7 53 7 76q0 59 -25 82.5t-84 23.5t-97.5 -17.5zM539 708h-308l16 78h308z" />
         <glyph glyph-name="eogonek" unicode="ę" d="M134 292q-14 -72 -14 -115q0 -63 29 -88.5t95 -25.5q59 0 96.5 18.5t87.5 71.5l61 -50q-39 -43 -73 -67.5t-71 -36.5q-72 -34 -100.5 -53t-28.5 -38q0 -26 40 -26q14 0 27.5 5.5t21.5 14.5l58 -55q-17 -19 -47 -30.5t-61 -11.5q-55 0 -88.5 23t-33.5 62q0 26 22 52t59 45 q-93 5 -135.5 46.5t-42.5 130.5q0 61 20 152q25 119 62 187t95.5 98.5t150.5 30.5q101 0 146 -40.5t45 -132.5q0 -66 -23 -170zM264.5 537.5q-38.5 -17.5 -65 -57.5t-46.5 -110l311 3q7 53 7 76q0 59 -25 82.5t-84 23.5t-97.5 -17.5z" />
         <glyph glyph-name="uni1EBD" unicode="ẽ" d="M134 292q-14 -72 -14 -115q0 -63 29 -88.5t95 -25.5q59 0 96.5 18.5t87.5 71.5l61 -50q-60 -67 -113.5 -92t-133.5 -25q-109 0 -157.5 41.5t-48.5 136.5q0 60 20 152q25 119 62 187t95.5 98.5t150.5 30.5q101 0 146 -40.5t45 -132.5q0 -66 -23 -170zM264.5 537.5 q-38.5 -17.5 -65 -57.5t-46.5 -110l311 3q7 53 7 76q0 59 -25 82.5t-84 23.5t-97.5 -17.5zM411.5 708q-22.5 16 -46.5 40q-2 2 -12.5 11.5t-14.5 9.5q-14 0 -22.5 -15t-8.5 -36h-84q7 59 39.5 93.5t77.5 34.5q22 0 42.5 -14.5t45.5 -39.5q9 -9 17 -16t13 -7q14 0 22 14t8 34 h83q-6 -56 -38 -90.5t-77 -34.5q-22 0 -44.5 16z" />
         <glyph glyph-name="f" unicode="f" d="M580.5 802.5q36.5 -11.5 54.5 -37t23 -69.5l-82 -20q-3 27 -11 39.5t-26.5 17t-58.5 4.5q-51 0 -81.5 -13.5t-49 -44.5t-30.5 -88l-18 -83h178l-16 -78h-178l-92 -430h-84l91 430h-123l16 78h124l19 90q18 83 46.5 129.5t75.5 66.5t124 20q62 0 98.5 -11.5z" />
         <glyph glyph-name="g" unicode="g" d="M98 -179.5q-35 16.5 -63 57.5l67 48q19 -28 38 -36.5t60 -8.5q58 0 93 15.5t56 52t35 101.5l13 43q-54 -54 -157 -54q-99 0 -143.5 40t-44.5 132q0 62 22 166q20 96 53 151t86.5 79.5t138.5 24.5q107 0 144 -44l10 30h84l-121 -566q-20 -95 -51.5 -148t-83.5 -76.5 t-136 -23.5q-65 0 -100 16.5zM433 274l45 212q1 4 1 12q0 57 -129 57q-60 0 -97 -18t-60 -59t-39 -115q-19 -93 -19 -141q0 -58 25.5 -82t82.5 -24q155 0 190 158z" />
         <glyph glyph-name="gbreve" unicode="ğ" d="M98 -179.5q-35 16.5 -63 57.5l67 48q19 -28 38 -36.5t60 -8.5q58 0 93 15.5t56 52t35 101.5l13 43q-54 -54 -157 -54q-99 0 -143.5 40t-44.5 132q0 62 22 166q20 96 53 151t86.5 79.5t138.5 24.5q107 0 144 -44l10 30h84l-121 -566q-20 -95 -51.5 -148t-83.5 -76.5 t-136 -23.5q-65 0 -100 16.5zM433 274l45 212q1 4 1 12q0 57 -129 57q-60 0 -97 -18t-60 -59t-39 -115q-19 -93 -19 -141q0 -58 25.5 -82t82.5 -24q155 0 190 158zM292 709q-30 20 -30 65q0 22 10 62h83q-8 -34 -8 -46q0 -14 9 -18.5t34 -4.5q29 0 44.5 6t23 20t13.5 43h82 q-9 -57 -27.5 -88.5t-50.5 -45t-87 -13.5q-66 0 -96 20z" />
         <glyph glyph-name="gcircumflex" unicode="ĝ" d="M98 -179.5q-35 16.5 -63 57.5l67 48q19 -28 38 -36.5t60 -8.5q58 0 93 15.5t56 52t35 101.5l13 43q-54 -54 -157 -54q-99 0 -143.5 40t-44.5 132q0 62 22 166q20 96 53 151t86.5 79.5t138.5 24.5q107 0 144 -44l10 30h84l-121 -566q-20 -95 -51.5 -148t-83.5 -76.5 t-136 -23.5q-65 0 -100 16.5zM433 274l45 212q1 4 1 12q0 57 -129 57q-60 0 -97 -18t-60 -59t-39 -115q-19 -93 -19 -141q0 -58 25.5 -82t82.5 -24q155 0 190 158zM541 714l-73 -50l-72 82l-109 -80l-56 50l182 138z" />
         <glyph glyph-name="uni0123" unicode="ģ" d="M98 -179.5q-35 16.5 -63 57.5l67 48q19 -28 38 -36.5t60 -8.5q58 0 93 15.5t56 52t35 101.5l13 43q-54 -54 -157 -54q-99 0 -143.5 40t-44.5 132q0 62 22 166q20 96 53 151t86.5 79.5t138.5 24.5q107 0 144 -44l10 30h84l-121 -566q-20 -95 -51.5 -148t-83.5 -76.5 t-136 -23.5q-65 0 -100 16.5zM433 274l45 212q1 4 1 12q0 57 -129 57q-60 0 -97 -18t-60 -59t-39 -115q-19 -93 -19 -141q0 -58 25.5 -82t82.5 -24q155 0 190 158zM338.5 662q-12.5 9 -12.5 29q0 5 2 19q5 27 37.5 73t72.5 93l60 -2l-81 -127q18 -6 18 -31q0 -12 -2 -19 q-5 -25 -17 -34.5t-39 -9.5q-26 0 -38.5 9z" />
         <glyph glyph-name="gdotaccent" unicode="ġ" d="M98 -179.5q-35 16.5 -63 57.5l67 48q19 -28 38 -36.5t60 -8.5q58 0 93 15.5t56 52t35 101.5l13 43q-54 -54 -157 -54q-99 0 -143.5 40t-44.5 132q0 62 22 166q20 96 53 151t86.5 79.5t138.5 24.5q107 0 144 -44l10 30h84l-121 -566q-20 -95 -51.5 -148t-83.5 -76.5 t-136 -23.5q-65 0 -100 16.5zM433 274l45 212q1 4 1 12q0 57 -129 57q-60 0 -97 -18t-60 -59t-39 -115q-19 -93 -19 -141q0 -58 25.5 -82t82.5 -24q155 0 190 158zM346.5 738.5q-14.5 9.5 -14.5 32.5q0 13 3 29q7 34 23.5 46.5t52.5 12.5q34 0 49 -9.5t15 -31.5 q0 -14 -4 -29q-7 -34 -23 -47t-52 -13q-35 0 -49.5 9.5z" />
         <glyph glyph-name="h" unicode="h" d="M21 0l170 800h84l-48 -213q26 24 61.5 34.5t82.5 10.5q96 0 139.5 -38.5t43.5 -128.5q0 -64 -21 -160l-65 -305h-84l67 312q19 89 19 143q0 56 -23.5 78t-77.5 22q-59 0 -92.5 -13.5t-53 -47.5t-33.5 -99l-85 -395h-84z" />
         <glyph glyph-name="hbar" unicode="ħ" d="M510.5 593.5q43.5 -38.5 43.5 -128.5q0 -64 -21 -160l-65 -305h-84l67 312q19 89 19 143q0 56 -23.5 78t-77.5 22q-59 0 -92.5 -13.5t-53 -47.5t-33.5 -99l-85 -395h-84l141 665h-73l16 77h74l12 58h84l-13 -58h121l-17 -77h-121l-18 -78q26 24 61.5 34.5t82.5 10.5 q96 0 139.5 -38.5z" />
         <glyph glyph-name="hcircumflex" unicode="ĥ" d="M21 0l170 800h84l-48 -213q26 24 61.5 34.5t82.5 10.5q96 0 139.5 -38.5t43.5 -128.5q0 -64 -21 -160l-65 -305h-84l67 312q19 89 19 143q0 56 -23.5 78t-77.5 22q-59 0 -92.5 -13.5t-53 -47.5t-33.5 -99l-85 -395h-84zM404 860l-73 -50l-72 82l-109 -80l-56 50l182 138z " />
         <glyph glyph-name="i" unicode="i" d="M434 618l-116 -541h176l-17 -77h-434l17 77h174l98 464h-125l17 77h210zM354.5 738.5q-14.5 9.5 -14.5 32.5q0 13 3 29q7 34 23.5 46.5t52.5 12.5q34 0 49 -9.5t15 -31.5q0 -14 -4 -29q-7 -34 -23 -47t-52 -13q-35 0 -49.5 9.5z" />
         <glyph glyph-name="dotlessi" unicode="ı" d="M434 618l-116 -541h176l-17 -77h-434l17 77h174l98 464h-125l17 77h210z" />
         <glyph glyph-name="iacute" unicode="í" d="M434 618l-116 -541h176l-17 -77h-434l17 77h174l98 464h-125l17 77h210zM564 815l-187 -139l-45 59l187 139z" />
         <glyph glyph-name="uni01D0" unicode="ǐ" d="M434 618l-116 -541h176l-17 -77h-434l17 77h174l98 464h-125l17 77h210zM568 803l-183 -139l-127 137l72 51l74 -81l107 83z" />
         <glyph glyph-name="icircumflex" unicode="î" d="M434 618l-116 -541h176l-17 -77h-434l17 77h174l98 464h-125l17 77h210zM549 714l-73 -50l-72 82l-109 -80l-56 50l182 138z" />
         <glyph glyph-name="idieresis" unicode="ï" d="M434 618l-116 -541h176l-17 -77h-434l17 77h174l98 464h-125l17 77h210zM243 726q-16 12 -16 37q0 11 3 26q7 32 24.5 45.5t52.5 13.5t51 -12t16 -37q0 -10 -3 -24q-8 -34 -25 -47.5t-53 -13.5q-34 0 -50 12zM459 726q-16 12 -16 37q0 11 3 26q7 32 24.5 45.5t52.5 13.5 t51 -12t16 -37q0 -10 -3 -24q-8 -34 -25 -47.5t-53 -13.5q-34 0 -50 12z" />
         <glyph glyph-name="i.loclTRK" d="M434 618l-116 -541h176l-17 -77h-434l17 77h174l98 464h-125l17 77h210zM354.5 738.5q-14.5 9.5 -14.5 32.5q0 13 3 29q7 34 23.5 46.5t52.5 12.5q34 0 49 -9.5t15 -31.5q0 -14 -4 -29q-7 -34 -23 -47t-52 -13q-35 0 -49.5 9.5z" />
         <glyph glyph-name="uni1ECB" unicode="ị" d="M434 618l-116 -541h176l-17 -77h-434l17 77h174l98 464h-125l17 77h210zM354.5 738.5q-14.5 9.5 -14.5 32.5q0 13 3 29q7 34 23.5 46.5t52.5 12.5q34 0 49 -9.5t15 -31.5q0 -14 -4 -29q-7 -34 -23 -47t-52 -13q-35 0 -49.5 9.5zM152.5 -220.5q-14.5 9.5 -14.5 32.5 q0 13 3 29q7 34 23.5 46.5t52.5 12.5q34 0 49 -9.5t15 -31.5q0 -14 -4 -29q-7 -34 -23 -47t-52 -13q-35 0 -49.5 9.5z" />
         <glyph glyph-name="igrave" unicode="ì" d="M434 618l-116 -541h176l-17 -77h-434l17 77h174l98 464h-125l17 77h210zM466 735l-66 -59l-134 139l66 59z" />
         <glyph glyph-name="uni1EC9" unicode="ỉ" d="M434 618l-116 -541h176l-17 -77h-434l17 77h174l98 464h-125l17 77h210zM345 732q33 5 55.5 18t26.5 29v4q0 15 -17 15q-37 0 -109 -52l15 95q20 16 47 25t49 9q46 0 72.5 -22t26.5 -59q0 -49 -42 -87.5t-111 -50.5z" />
         <glyph glyph-name="imacron" unicode="ī" d="M434 618l-116 -541h176l-17 -77h-434l17 77h174l98 464h-125l17 77h210zM547 708h-308l16 78h308z" />
         <glyph glyph-name="iogonek" unicode="į" d="M354.5 738.5q-14.5 9.5 -14.5 32.5q0 13 3 29q7 34 23.5 46.5t52.5 12.5q34 0 49 -9.5t15 -31.5q0 -14 -4 -29q-7 -34 -23 -47t-52 -13q-35 0 -49.5 9.5zM336 0q-74 -35 -103.5 -54.5t-29.5 -38.5q0 -26 40 -26q14 0 27.5 5.5t21.5 14.5l58 -55q-17 -19 -47 -30.5 t-61 -11.5q-55 0 -88.5 23t-33.5 62q0 32 32.5 62.5t80.5 48.5h-190l17 77h174l98 464h-125l17 77h210l-116 -541h176l-17 -77h-141z" />
         <glyph glyph-name="itilde" unicode="ĩ" d="M434 618l-116 -541h176l-17 -77h-434l17 77h174l98 464h-125l17 77h210zM419.5 708q-22.5 16 -46.5 40q-2 2 -12.5 11.5t-14.5 9.5q-14 0 -22.5 -15t-8.5 -36h-84q7 59 39.5 93.5t77.5 34.5q22 0 42.5 -14.5t45.5 -39.5q9 -9 17 -16t13 -7q14 0 22 14t8 34h83 q-6 -56 -38 -90.5t-77 -34.5q-22 0 -44.5 16z" />
         <glyph glyph-name="j" unicode="j" d="M38 -179.5q-35 16.5 -63 57.5l67 48q19 -28 38 -36.5t60 -8.5q58 0 93.5 17t57.5 56.5t37 111.5l101 475h-126l17 77h210l-119 -559q-21 -98 -53 -153t-84 -78.5t-136 -23.5q-65 0 -100 16.5zM444.5 738.5q-14.5 9.5 -14.5 32.5q0 13 3 29q7 34 23.5 46.5t52.5 12.5 q34 0 49 -9.5t15 -31.5q0 -14 -4 -29q-7 -34 -23 -47t-52 -13q-35 0 -49.5 9.5z" />
         <glyph glyph-name="uni0237" unicode="ȷ" d="M38 -179.5q-35 16.5 -63 57.5l67 48q19 -28 38 -36.5t60 -8.5q58 0 93.5 17t57.5 56.5t37 111.5l101 475h-126l17 77h210l-119 -559q-21 -98 -53 -153t-84 -78.5t-136 -23.5q-65 0 -100 16.5z" />
         <glyph glyph-name="jcircumflex" unicode="ĵ" d="M38 -179.5q-35 16.5 -63 57.5l67 48q19 -28 38 -36.5t60 -8.5q58 0 93.5 17t57.5 56.5t37 111.5l101 475h-126l17 77h210l-119 -559q-21 -98 -53 -153t-84 -78.5t-136 -23.5q-65 0 -100 16.5zM639 714l-73 -50l-72 82l-109 -80l-56 50l182 138z" />
         <glyph glyph-name="k" unicode="k" d="M127 0h-84l170 800h84l-91 -430h25l253 248h104l-289 -285l196 -333h-99l-175 292h-31z" />
         <glyph glyph-name="uni0137" unicode="ķ" d="M127 0h-84l170 800h84l-91 -430h25l253 248h104l-289 -285l196 -333h-99l-175 292h-31zM194 -120q-18 8 -18 33q0 4 2 18q5 25 17.5 34t39.5 9q26 0 38.5 -9t12.5 -29q0 -5 -2 -19q-6 -27 -38 -72t-73 -94l-59 3z" />
         <glyph glyph-name="l" unicode="l" d="M236.5 13.5q-32.5 27.5 -32.5 91.5q0 45 15 111l107 507h-126l16 77h210l-125 -590q-12 -57 -12 -89t13.5 -45t43.5 -13q22 0 43.5 10.5t60.5 38.5l37 -75q-47 -30 -77.5 -40.5t-66.5 -10.5q-74 0 -106.5 27.5z" />
         <glyph glyph-name="lacute" unicode="ĺ" d="M236.5 13.5q-32.5 27.5 -32.5 91.5q0 45 15 111l107 507h-126l16 77h210l-125 -590q-12 -57 -12 -89t13.5 -45t43.5 -13q22 0 43.5 10.5t60.5 38.5l37 -75q-47 -30 -77.5 -40.5t-66.5 -10.5q-74 0 -106.5 27.5zM594 997l-187 -139l-45 59l187 139z" />
         <glyph glyph-name="lcaron" unicode="ľ" d="M236.5 13.5q-32.5 27.5 -32.5 91.5q0 45 15 111l107 507h-126l16 77h210l-125 -590q-12 -57 -12 -89t13.5 -45t43.5 -13q22 0 43.5 10.5t60.5 38.5l37 -75q-47 -30 -77.5 -40.5t-66.5 -10.5q-74 0 -106.5 27.5zM509 529h-66l48 271h85z" />
         <glyph glyph-name="uni013C" unicode="ļ" d="M236.5 13.5q-32.5 27.5 -32.5 91.5q0 45 15 111l107 507h-126l16 77h210l-125 -590q-12 -57 -12 -89t13.5 -45t43.5 -13q22 0 43.5 10.5t60.5 38.5l37 -75q-47 -30 -77.5 -40.5t-66.5 -10.5q-74 0 -106.5 27.5zM261 -120q-18 8 -18 33q0 4 2 18q5 25 17.5 34t39.5 9 q26 0 38.5 -9t12.5 -29q0 -5 -2 -19q-6 -27 -38 -72t-73 -94l-59 3z" />
         <glyph glyph-name="lslash" unicode="ł" d="M389.5 73.5q21.5 10.5 60.5 38.5l37 -75q-47 -30 -77.5 -40.5t-66.5 -10.5q-74 0 -106.5 27.5t-32.5 91.5q0 45 15 111l44 210l-126 -47l17 81l127 48l45 215h-126l16 77h210l-55 -258l126 47l-16 -81l-127 -48l-53 -250q-12 -57 -12 -89t13.5 -45t43.5 -13 q22 0 43.5 10.5z" />
         <glyph glyph-name="m" unicode="m" d="M-26 0l132 618h85l-9 -23q25 21 44.5 28.5t46.5 7.5q40 0 59 -16t26 -55q36 42 63 56.5t69 14.5q55 0 79.5 -25t24.5 -84q0 -51 -18 -135l-82 -387h-84l84 394q16 82 16 109q0 23 -7.5 32.5t-22.5 9.5q-49 0 -75.5 -34t-44.5 -119l-84 -392h-84l83 388q17 82 17 115 q0 23 -7 32.5t-23 9.5q-48 0 -75 -34t-45 -119l-84 -392h-84z" />
         <glyph glyph-name="n" unicode="n" d="M15 0l132 618h84l-11 -36q34 26 73 38t96 12q91 0 131.5 -31t40.5 -104q0 -47 -15 -113l-82 -384h-84l83 391q12 56 12 89q0 41 -20.5 58t-67.5 17q-69 0 -108 -13.5t-60.5 -47.5t-34.5 -99l-85 -395h-84z" />
         <glyph glyph-name="nacute" unicode="ń" d="M15 0l132 618h84l-11 -36q34 26 73 38t96 12q91 0 131.5 -31t40.5 -104q0 -47 -15 -113l-82 -384h-84l83 391q12 56 12 89q0 41 -20.5 58t-67.5 17q-69 0 -108 -13.5t-60.5 -47.5t-34.5 -99l-85 -395h-84zM556 815l-187 -139l-45 59l187 139z" />
         <glyph glyph-name="ncaron" unicode="ň" d="M15 0l132 618h84l-11 -36q34 26 73 38t96 12q91 0 131.5 -31t40.5 -104q0 -47 -15 -113l-82 -384h-84l83 391q12 56 12 89q0 41 -20.5 58t-67.5 17q-69 0 -108 -13.5t-60.5 -47.5t-34.5 -99l-85 -395h-84zM560 803l-183 -139l-127 137l72 51l74 -81l107 83z" />
         <glyph glyph-name="uni0146" unicode="ņ" d="M15 0l132 618h84l-11 -36q34 26 73 38t96 12q91 0 131.5 -31t40.5 -104q0 -47 -15 -113l-82 -384h-84l83 391q12 56 12 89q0 41 -20.5 58t-67.5 17q-69 0 -108 -13.5t-60.5 -47.5t-34.5 -99l-85 -395h-84zM194 -120q-18 8 -18 33q0 4 2 18q5 25 17.5 34t39.5 9 q26 0 38.5 -9t12.5 -29q0 -5 -2 -19q-6 -27 -38 -72t-73 -94l-59 3z" />
         <glyph glyph-name="eng" unicode="ŋ" d="M520.5 601q40.5 -31 40.5 -104q0 -47 -15 -113l-82 -384q-13 -65 -36 -101.5t-63 -52.5t-109 -16l9 77q39 0 61 8t34 28t20 57l83 391q12 56 12 89q0 41 -20.5 58t-67.5 17q-69 0 -108 -13.5t-60.5 -47.5t-34.5 -99l-85 -395h-84l132 618h84l-11 -36q34 26 73 38t96 12 q91 0 131.5 -31z" />
         <glyph glyph-name="ntilde" unicode="ñ" d="M15 0l132 618h84l-11 -36q34 26 73 38t96 12q91 0 131.5 -31t40.5 -104q0 -47 -15 -113l-82 -384h-84l83 391q12 56 12 89q0 41 -20.5 58t-67.5 17q-69 0 -108 -13.5t-60.5 -47.5t-34.5 -99l-85 -395h-84zM411.5 708q-22.5 16 -46.5 40q-2 2 -12.5 11.5t-14.5 9.5 q-14 0 -22.5 -15t-8.5 -36h-84q7 59 39.5 93.5t77.5 34.5q22 0 42.5 -14.5t45.5 -39.5q9 -9 17 -16t13 -7q14 0 22 14t8 34h83q-6 -56 -38 -90.5t-77 -34.5q-22 0 -44.5 16z" />
         <glyph glyph-name="o" unicode="o" d="M94 26q-45 40 -45 132q0 64 21 158q25 119 60 187t90 98.5t141 30.5q100 0 145 -40t45 -132q0 -63 -21 -158q-25 -119 -60 -187t-90 -98.5t-141 -30.5q-100 0 -145 40zM338.5 86.5q38.5 23.5 64.5 78t47 151.5q18 84 18 134q0 58 -25.5 81.5t-83.5 23.5 q-59 0 -97.5 -23.5t-64.5 -78t-47 -151.5q-18 -84 -18 -134q0 -58 25.5 -81.5t83.5 -23.5q59 0 97.5 23.5z" />
         <glyph glyph-name="oacute" unicode="ó" d="M94 26q-45 40 -45 132q0 64 21 158q25 119 60 187t90 98.5t141 30.5q100 0 145 -40t45 -132q0 -63 -21 -158q-25 -119 -60 -187t-90 -98.5t-141 -30.5q-100 0 -145 40zM338.5 86.5q38.5 23.5 64.5 78t47 151.5q18 84 18 134q0 58 -25.5 81.5t-83.5 23.5 q-59 0 -97.5 -23.5t-64.5 -78t-47 -151.5q-18 -84 -18 -134q0 -58 25.5 -81.5t83.5 -23.5q59 0 97.5 23.5zM556 815l-187 -139l-45 59l187 139z" />
         <glyph glyph-name="uni01D2" unicode="ǒ" d="M94 26q-45 40 -45 132q0 64 21 158q25 119 60 187t90 98.5t141 30.5q100 0 145 -40t45 -132q0 -63 -21 -158q-25 -119 -60 -187t-90 -98.5t-141 -30.5q-100 0 -145 40zM338.5 86.5q38.5 23.5 64.5 78t47 151.5q18 84 18 134q0 58 -25.5 81.5t-83.5 23.5 q-59 0 -97.5 -23.5t-64.5 -78t-47 -151.5q-18 -84 -18 -134q0 -58 25.5 -81.5t83.5 -23.5q59 0 97.5 23.5zM560 803l-183 -139l-127 137l72 51l74 -81l107 83z" />
         <glyph glyph-name="ocircumflex" unicode="ô" d="M94 26q-45 40 -45 132q0 64 21 158q25 119 60 187t90 98.5t141 30.5q100 0 145 -40t45 -132q0 -63 -21 -158q-25 -119 -60 -187t-90 -98.5t-141 -30.5q-100 0 -145 40zM338.5 86.5q38.5 23.5 64.5 78t47 151.5q18 84 18 134q0 58 -25.5 81.5t-83.5 23.5 q-59 0 -97.5 -23.5t-64.5 -78t-47 -151.5q-18 -84 -18 -134q0 -58 25.5 -81.5t83.5 -23.5q59 0 97.5 23.5zM541 714l-73 -50l-72 82l-109 -80l-56 50l182 138z" />
         <glyph glyph-name="uni1ED1" unicode="ố" d="M94 26q-45 40 -45 132q0 64 21 158q25 119 60 187t90 98.5t141 30.5q100 0 145 -40t45 -132q0 -63 -21 -158q-25 -119 -60 -187t-90 -98.5t-141 -30.5q-100 0 -145 40zM338.5 86.5q38.5 23.5 64.5 78t47 151.5q18 84 18 134q0 58 -25.5 81.5t-83.5 23.5 q-59 0 -97.5 -23.5t-64.5 -78t-47 -151.5q-18 -84 -18 -134q0 -58 25.5 -81.5t83.5 -23.5q59 0 97.5 23.5zM541 714l-73 -50l-72 82l-109 -80l-56 50l182 138zM599 1020l-187 -139l-45 59l187 139z" />
         <glyph glyph-name="uni1ED9" unicode="ộ" d="M94 26q-45 40 -45 132q0 64 21 158q25 119 60 187t90 98.5t141 30.5q100 0 145 -40t45 -132q0 -63 -21 -158q-25 -119 -60 -187t-90 -98.5t-141 -30.5q-100 0 -145 40zM338.5 86.5q38.5 23.5 64.5 78t47 151.5q18 84 18 134q0 58 -25.5 81.5t-83.5 23.5 q-59 0 -97.5 -23.5t-64.5 -78t-47 -151.5q-18 -84 -18 -134q0 -58 25.5 -81.5t83.5 -23.5q59 0 97.5 23.5zM142.5 -220.5q-14.5 9.5 -14.5 32.5q0 13 3 29q7 34 23.5 46.5t52.5 12.5q34 0 49 -9.5t15 -31.5q0 -14 -4 -29q-7 -34 -23 -47t-52 -13q-35 0 -49.5 9.5zM541 714 l-73 -50l-72 82l-109 -80l-56 50l182 138z" />
         <glyph glyph-name="uni1ED3" unicode="ồ" d="M94 26q-45 40 -45 132q0 64 21 158q25 119 60 187t90 98.5t141 30.5q100 0 145 -40t45 -132q0 -63 -21 -158q-25 -119 -60 -187t-90 -98.5t-141 -30.5q-100 0 -145 40zM338.5 86.5q38.5 23.5 64.5 78t47 151.5q18 84 18 134q0 58 -25.5 81.5t-83.5 23.5 q-59 0 -97.5 -23.5t-64.5 -78t-47 -151.5q-18 -84 -18 -134q0 -58 25.5 -81.5t83.5 -23.5q59 0 97.5 23.5zM541 714l-73 -50l-72 82l-109 -80l-56 50l182 138zM501 940l-66 -59l-134 139l66 59z" />
         <glyph glyph-name="uni1ED5" unicode="ổ" d="M94 26q-45 40 -45 132q0 64 21 158q25 119 60 187t90 98.5t141 30.5q100 0 145 -40t45 -132q0 -63 -21 -158q-25 -119 -60 -187t-90 -98.5t-141 -30.5q-100 0 -145 40zM338.5 86.5q38.5 23.5 64.5 78t47 151.5q18 84 18 134q0 58 -25.5 81.5t-83.5 23.5 q-59 0 -97.5 -23.5t-64.5 -78t-47 -151.5q-18 -84 -18 -134q0 -58 25.5 -81.5t83.5 -23.5q59 0 97.5 23.5zM541 714l-73 -50l-72 82l-109 -80l-56 50l182 138zM380 937q33 5 55.5 18t26.5 29v4q0 15 -17 15q-37 0 -109 -52l15 95q20 16 47 25t49 9q46 0 72.5 -22t26.5 -59 q0 -49 -42 -87.5t-111 -50.5z" />
         <glyph glyph-name="uni1ED7" unicode="ỗ" d="M94 26q-45 40 -45 132q0 64 21 158q25 119 60 187t90 98.5t141 30.5q100 0 145 -40t45 -132q0 -63 -21 -158q-25 -119 -60 -187t-90 -98.5t-141 -30.5q-100 0 -145 40zM338.5 86.5q38.5 23.5 64.5 78t47 151.5q18 84 18 134q0 58 -25.5 81.5t-83.5 23.5 q-59 0 -97.5 -23.5t-64.5 -78t-47 -151.5q-18 -84 -18 -134q0 -58 25.5 -81.5t83.5 -23.5q59 0 97.5 23.5zM541 714l-73 -50l-72 82l-109 -80l-56 50l182 138zM454.5 913q-22.5 16 -46.5 40q-2 2 -12.5 11.5t-14.5 9.5q-14 0 -22.5 -15t-8.5 -36h-84q7 59 39.5 93.5 t77.5 34.5q22 0 42.5 -14.5t45.5 -39.5q9 -9 17 -16t13 -7q14 0 22 14t8 34h83q-6 -56 -38 -90.5t-77 -34.5q-22 0 -44.5 16z" />
         <glyph glyph-name="odieresis" unicode="ö" d="M94 26q-45 40 -45 132q0 64 21 158q25 119 60 187t90 98.5t141 30.5q100 0 145 -40t45 -132q0 -63 -21 -158q-25 -119 -60 -187t-90 -98.5t-141 -30.5q-100 0 -145 40zM338.5 86.5q38.5 23.5 64.5 78t47 151.5q18 84 18 134q0 58 -25.5 81.5t-83.5 23.5 q-59 0 -97.5 -23.5t-64.5 -78t-47 -151.5q-18 -84 -18 -134q0 -58 25.5 -81.5t83.5 -23.5q59 0 97.5 23.5zM235 726q-16 12 -16 37q0 11 3 26q7 32 24.5 45.5t52.5 13.5t51 -12t16 -37q0 -10 -3 -24q-8 -34 -25 -47.5t-53 -13.5q-34 0 -50 12zM451 726q-16 12 -16 37 q0 11 3 26q7 32 24.5 45.5t52.5 13.5t51 -12t16 -37q0 -10 -3 -24q-8 -34 -25 -47.5t-53 -13.5q-34 0 -50 12z" />
         <glyph glyph-name="uni1ECD" unicode="ọ" d="M94 26q-45 40 -45 132q0 64 21 158q25 119 60 187t90 98.5t141 30.5q100 0 145 -40t45 -132q0 -63 -21 -158q-25 -119 -60 -187t-90 -98.5t-141 -30.5q-100 0 -145 40zM338.5 86.5q38.5 23.5 64.5 78t47 151.5q18 84 18 134q0 58 -25.5 81.5t-83.5 23.5 q-59 0 -97.5 -23.5t-64.5 -78t-47 -151.5q-18 -84 -18 -134q0 -58 25.5 -81.5t83.5 -23.5q59 0 97.5 23.5zM142.5 -220.5q-14.5 9.5 -14.5 32.5q0 13 3 29q7 34 23.5 46.5t52.5 12.5q34 0 49 -9.5t15 -31.5q0 -14 -4 -29q-7 -34 -23 -47t-52 -13q-35 0 -49.5 9.5z" />
         <glyph glyph-name="ograve" unicode="ò" d="M94 26q-45 40 -45 132q0 64 21 158q25 119 60 187t90 98.5t141 30.5q100 0 145 -40t45 -132q0 -63 -21 -158q-25 -119 -60 -187t-90 -98.5t-141 -30.5q-100 0 -145 40zM338.5 86.5q38.5 23.5 64.5 78t47 151.5q18 84 18 134q0 58 -25.5 81.5t-83.5 23.5 q-59 0 -97.5 -23.5t-64.5 -78t-47 -151.5q-18 -84 -18 -134q0 -58 25.5 -81.5t83.5 -23.5q59 0 97.5 23.5zM458 735l-66 -59l-134 139l66 59z" />
         <glyph glyph-name="uni1ECF" unicode="ỏ" d="M94 26q-45 40 -45 132q0 64 21 158q25 119 60 187t90 98.5t141 30.5q100 0 145 -40t45 -132q0 -63 -21 -158q-25 -119 -60 -187t-90 -98.5t-141 -30.5q-100 0 -145 40zM338.5 86.5q38.5 23.5 64.5 78t47 151.5q18 84 18 134q0 58 -25.5 81.5t-83.5 23.5 q-59 0 -97.5 -23.5t-64.5 -78t-47 -151.5q-18 -84 -18 -134q0 -58 25.5 -81.5t83.5 -23.5q59 0 97.5 23.5zM337 732q33 5 55.5 18t26.5 29v4q0 15 -17 15q-37 0 -109 -52l15 95q20 16 47 25t49 9q46 0 72.5 -22t26.5 -59q0 -49 -42 -87.5t-111 -50.5z" />
         <glyph glyph-name="ohorn" unicode="ơ" d="M669 729h84l-32 -149q-13 -61 -52.5 -97.5t-92.5 -36.5q-14 0 -25 4q-1 -53 -21 -148q-25 -119 -60 -187t-90 -98.5t-141 -30.5q-100 0 -145 40t-45 132q0 64 21 158q25 119 60 187t90 98.5t141 30.5q79 0 123 -25t59 -79q12 -5 29 -5q25 0 43 18t24 46zM468 450 q0 58 -25.5 81.5t-83.5 23.5q-59 0 -97.5 -23.5t-64.5 -78t-47 -151.5q-18 -84 -18 -134q0 -58 25.5 -81.5t83.5 -23.5q59 0 97.5 23.5t64.5 78t47 151.5q18 84 18 134z" />
         <glyph glyph-name="uni1EDB" unicode="ớ" d="M669 729h84l-32 -149q-13 -61 -52.5 -97.5t-92.5 -36.5q-14 0 -25 4q-1 -53 -21 -148q-25 -119 -60 -187t-90 -98.5t-141 -30.5q-100 0 -145 40t-45 132q0 64 21 158q25 119 60 187t90 98.5t141 30.5q79 0 123 -25t59 -79q12 -5 29 -5q25 0 43 18t24 46zM468 450 q0 58 -25.5 81.5t-83.5 23.5q-59 0 -97.5 -23.5t-64.5 -78t-47 -151.5q-18 -84 -18 -134q0 -58 25.5 -81.5t83.5 -23.5q59 0 97.5 23.5t64.5 78t47 151.5q18 84 18 134zM556 815l-187 -139l-45 59l187 139z" />
         <glyph glyph-name="uni1EE3" unicode="ợ" d="M669 729h84l-32 -149q-13 -61 -52.5 -97.5t-92.5 -36.5q-14 0 -25 4q-1 -53 -21 -148q-25 -119 -60 -187t-90 -98.5t-141 -30.5q-100 0 -145 40t-45 132q0 64 21 158q25 119 60 187t90 98.5t141 30.5q79 0 123 -25t59 -79q12 -5 29 -5q25 0 43 18t24 46zM468 450 q0 58 -25.5 81.5t-83.5 23.5q-59 0 -97.5 -23.5t-64.5 -78t-47 -151.5q-18 -84 -18 -134q0 -58 25.5 -81.5t83.5 -23.5q59 0 97.5 23.5t64.5 78t47 151.5q18 84 18 134zM142.5 -220.5q-14.5 9.5 -14.5 32.5q0 13 3 29q7 34 23.5 46.5t52.5 12.5q34 0 49 -9.5t15 -31.5 q0 -14 -4 -29q-7 -34 -23 -47t-52 -13q-35 0 -49.5 9.5z" />
         <glyph glyph-name="uni1EDD" unicode="ờ" d="M669 729h84l-32 -149q-13 -61 -52.5 -97.5t-92.5 -36.5q-14 0 -25 4q-1 -53 -21 -148q-25 -119 -60 -187t-90 -98.5t-141 -30.5q-100 0 -145 40t-45 132q0 64 21 158q25 119 60 187t90 98.5t141 30.5q79 0 123 -25t59 -79q12 -5 29 -5q25 0 43 18t24 46zM468 450 q0 58 -25.5 81.5t-83.5 23.5q-59 0 -97.5 -23.5t-64.5 -78t-47 -151.5q-18 -84 -18 -134q0 -58 25.5 -81.5t83.5 -23.5q59 0 97.5 23.5t64.5 78t47 151.5q18 84 18 134zM458 735l-66 -59l-134 139l66 59z" />
         <glyph glyph-name="uni1EDF" unicode="ở" d="M669 729h84l-32 -149q-13 -61 -52.5 -97.5t-92.5 -36.5q-14 0 -25 4q-1 -53 -21 -148q-25 -119 -60 -187t-90 -98.5t-141 -30.5q-100 0 -145 40t-45 132q0 64 21 158q25 119 60 187t90 98.5t141 30.5q79 0 123 -25t59 -79q12 -5 29 -5q25 0 43 18t24 46zM468 450 q0 58 -25.5 81.5t-83.5 23.5q-59 0 -97.5 -23.5t-64.5 -78t-47 -151.5q-18 -84 -18 -134q0 -58 25.5 -81.5t83.5 -23.5q59 0 97.5 23.5t64.5 78t47 151.5q18 84 18 134zM337 732q33 5 55.5 18t26.5 29v4q0 15 -17 15q-37 0 -109 -52l15 95q20 16 47 25t49 9q46 0 72.5 -22 t26.5 -59q0 -49 -42 -87.5t-111 -50.5z" />
         <glyph glyph-name="uni1EE1" unicode="ỡ" d="M669 729h84l-32 -149q-13 -61 -52.5 -97.5t-92.5 -36.5q-14 0 -25 4q-1 -53 -21 -148q-25 -119 -60 -187t-90 -98.5t-141 -30.5q-100 0 -145 40t-45 132q0 64 21 158q25 119 60 187t90 98.5t141 30.5q79 0 123 -25t59 -79q12 -5 29 -5q25 0 43 18t24 46zM468 450 q0 58 -25.5 81.5t-83.5 23.5q-59 0 -97.5 -23.5t-64.5 -78t-47 -151.5q-18 -84 -18 -134q0 -58 25.5 -81.5t83.5 -23.5q59 0 97.5 23.5t64.5 78t47 151.5q18 84 18 134zM411.5 708q-22.5 16 -46.5 40q-2 2 -12.5 11.5t-14.5 9.5q-14 0 -22.5 -15t-8.5 -36h-84 q7 59 39.5 93.5t77.5 34.5q22 0 42.5 -14.5t45.5 -39.5q9 -9 17 -16t13 -7q14 0 22 14t8 34h83q-6 -56 -38 -90.5t-77 -34.5q-22 0 -44.5 16z" />
         <glyph glyph-name="ohungarumlaut" unicode="ő" d="M94 26q-45 40 -45 132q0 64 21 158q25 119 60 187t90 98.5t141 30.5q100 0 145 -40t45 -132q0 -63 -21 -158q-25 -119 -60 -187t-90 -98.5t-141 -30.5q-100 0 -145 40zM338.5 86.5q38.5 23.5 64.5 78t47 151.5q18 84 18 134q0 58 -25.5 81.5t-83.5 23.5 q-59 0 -97.5 -23.5t-64.5 -78t-47 -151.5q-18 -84 -18 -134q0 -58 25.5 -81.5t83.5 -23.5q59 0 97.5 23.5zM405 815l-187 -139l-45 59l187 139zM625 815l-187 -139l-45 59l187 139z" />
         <glyph glyph-name="omacron" unicode="ō" d="M94 26q-45 40 -45 132q0 64 21 158q25 119 60 187t90 98.5t141 30.5q100 0 145 -40t45 -132q0 -63 -21 -158q-25 -119 -60 -187t-90 -98.5t-141 -30.5q-100 0 -145 40zM338.5 86.5q38.5 23.5 64.5 78t47 151.5q18 84 18 134q0 58 -25.5 81.5t-83.5 23.5 q-59 0 -97.5 -23.5t-64.5 -78t-47 -151.5q-18 -84 -18 -134q0 -58 25.5 -81.5t83.5 -23.5q59 0 97.5 23.5zM539 708h-308l16 78h308z" />
         <glyph glyph-name="oslash" unicode="ø" d="M624 650l-86 -106q13 -33 13 -84q0 -65 -21 -158q-25 -119 -60 -187t-90 -98.5t-141 -30.5q-85 0 -130 29l-37 -46h-98l87 108q-12 33 -12 81q0 64 21 158q25 119 60 187t90 98.5t141 30.5q84 0 128 -28l37 46h98zM132 164l303 374q-25 17 -76 17q-59 0 -97.5 -23.5 t-64.5 -78t-47 -151.5q-18 -87 -18 -138zM468 457l-305 -375q24 -19 78 -19q59 0 97.5 23.5t64.5 78t47 151.5q19 96 18 141z" />
         <glyph glyph-name="otilde" unicode="õ" d="M94 26q-45 40 -45 132q0 64 21 158q25 119 60 187t90 98.5t141 30.5q100 0 145 -40t45 -132q0 -63 -21 -158q-25 -119 -60 -187t-90 -98.5t-141 -30.5q-100 0 -145 40zM338.5 86.5q38.5 23.5 64.5 78t47 151.5q18 84 18 134q0 58 -25.5 81.5t-83.5 23.5 q-59 0 -97.5 -23.5t-64.5 -78t-47 -151.5q-18 -84 -18 -134q0 -58 25.5 -81.5t83.5 -23.5q59 0 97.5 23.5zM411.5 708q-22.5 16 -46.5 40q-2 2 -12.5 11.5t-14.5 9.5q-14 0 -22.5 -15t-8.5 -36h-84q7 59 39.5 93.5t77.5 34.5q22 0 42.5 -14.5t45.5 -39.5q9 -9 17 -16t13 -7 q14 0 22 14t8 34h83q-6 -56 -38 -90.5t-77 -34.5q-22 0 -44.5 16z" />
         <glyph glyph-name="oe" unicode="œ" d="M11 4.5q-31 34.5 -31 113.5q0 74 27 198q27 127 56.5 198.5t71 102.5t104.5 31q51 0 76.5 -19.5t36.5 -64.5q33 48 65 66t82 18q64 0 93 -32.5t29 -108.5q0 -75 -31 -218h-252q-24 -112 -24 -165q0 -42 14 -59t44 -17q23 0 45 18.5t61 72.5l61 -52q-47 -66 -84 -91.5 t-85 -25.5q-55 0 -82 19.5t-38 64.5q-32 -47 -63 -65.5t-77 -18.5q-68 0 -99 34.5zM171.5 72.5q24.5 24.5 45.5 82t43 161.5q28 134 28 185q0 38 -12 53.5t-39 15.5q-34 0 -59.5 -24.5t-47 -82.5t-43.5 -161q-27 -126 -27 -182q0 -39 12.5 -55.5t39.5 -16.5q35 0 59.5 24.5z M523 373q19 91 19 136q0 34 -11 47.5t-34 13.5q-37 0 -62 -18.5t-43.5 -62.5t-36.5 -123z" />
         <glyph glyph-name="p" unicode="p" d="M-30 -182l170 800h85l-10 -26q52 40 153 40q100 0 145 -40t45 -132q0 -62 -20 -157q-26 -120 -61 -188t-90 -98.5t-141 -30.5q-108 0 -142 57l-50 -225h-84zM345.5 86.5q38.5 23.5 64.5 78.5t47 152q18 83 18 133q0 58 -25.5 81.5t-83.5 23.5q-73 0 -118.5 -19.5 t-53.5 -56.5l-56 -265q-6 -30 -6 -54q0 -51 29 -74t87 -23q59 0 97.5 23.5z" />
         <glyph glyph-name="thorn" unicode="þ" d="M-30 -182l208 982h84l-47 -208q52 40 153 40q100 0 145 -40t45 -132q0 -62 -20 -157q-26 -120 -61 -188t-90 -98.5t-141 -30.5q-108 0 -142 57l-50 -225h-84zM345.5 86.5q38.5 23.5 64.5 78.5t47 152q18 83 18 133q0 58 -25.5 81.5t-83.5 23.5q-73 0 -118.5 -19.5 t-53.5 -56.5l-56 -265q-6 -30 -6 -54q0 -51 29 -74t87 -23q59 0 97.5 23.5z" />
         <glyph glyph-name="q" unicode="q" d="M387 39q-54 -53 -155 -53q-100 0 -145 40t-45 132q0 65 21 159q26 119 61 187t89.5 98t140.5 30q107 0 144 -44l10 30h84l-170 -800h-84zM423 221l57 265q1 4 1 12q0 57 -129 57q-59 0 -97.5 -23.5t-64.5 -77.5t-46 -151q-18 -84 -18 -135q0 -58 25 -81.5t83 -23.5 q156 0 189 158z" />
         <glyph glyph-name="r" unicode="r" d="M42 0l132 618h84l-19 -82q27 39 75 67.5t99 28.5q80 0 117 -32t52 -111l-80 -28q-6 39 -15 59t-26 27.5t-50 7.5q-86 0 -140.5 -65.5t-73.5 -155.5l-71 -334h-84z" />
         <glyph glyph-name="racute" unicode="ŕ" d="M42 0l132 618h84l-19 -82q27 39 75 67.5t99 28.5q80 0 117 -32t52 -111l-80 -28q-6 39 -15 59t-26 27.5t-50 7.5q-86 0 -140.5 -65.5t-73.5 -155.5l-71 -334h-84zM556 815l-187 -139l-45 59l187 139z" />
         <glyph glyph-name="rcaron" unicode="ř" d="M42 0l132 618h84l-19 -82q27 39 75 67.5t99 28.5q80 0 117 -32t52 -111l-80 -28q-6 39 -15 59t-26 27.5t-50 7.5q-86 0 -140.5 -65.5t-73.5 -155.5l-71 -334h-84zM560 803l-183 -139l-127 137l72 51l74 -81l107 83z" />
         <glyph glyph-name="uni0157" unicode="ŗ" d="M42 0l132 618h84l-19 -82q27 39 75 67.5t99 28.5q80 0 117 -32t52 -111l-80 -28q-6 39 -15 59t-26 27.5t-50 7.5q-86 0 -140.5 -65.5t-73.5 -155.5l-71 -334h-84zM194 -120q-18 8 -18 33q0 4 2 18q5 25 17.5 34t39.5 9q26 0 38.5 -9t12.5 -29q0 -5 -2 -19q-6 -27 -38 -72 t-73 -94l-59 3z" />
         <glyph glyph-name="s" unicode="s" d="M95.5 13q-39.5 27 -62.5 95l74 48q10 -39 21.5 -58.5t31.5 -27t56 -7.5q74 0 116.5 11t64.5 36.5t32 70.5q4 17 4 33q0 23 -12 36.5t-39 21.5t-77 14q-99 11 -145 42.5t-46 89.5q0 16 5 41q14 66 43.5 103t82.5 53.5t141 16.5q83 0 124.5 -23t67.5 -81l-70 -54 q-12 34 -26 51t-36 23.5t-62 6.5q-63 0 -99.5 -10.5t-56 -33.5t-28.5 -65q-2 -12 -2 -18q0 -27 26 -41t88 -23q75 -10 119 -26.5t65 -43.5t21 -70q0 -20 -7 -57q-15 -69 -47.5 -108t-91.5 -56t-157 -17q-79 0 -118.5 27z" />
         <glyph glyph-name="sacute" unicode="ś" d="M95.5 13q-39.5 27 -62.5 95l74 48q10 -39 21.5 -58.5t31.5 -27t56 -7.5q74 0 116.5 11t64.5 36.5t32 70.5q4 17 4 33q0 23 -12 36.5t-39 21.5t-77 14q-99 11 -145 42.5t-46 89.5q0 16 5 41q14 66 43.5 103t82.5 53.5t141 16.5q83 0 124.5 -23t67.5 -81l-70 -54 q-12 34 -26 51t-36 23.5t-62 6.5q-63 0 -99.5 -10.5t-56 -33.5t-28.5 -65q-2 -12 -2 -18q0 -27 26 -41t88 -23q75 -10 119 -26.5t65 -43.5t21 -70q0 -20 -7 -57q-15 -69 -47.5 -108t-91.5 -56t-157 -17q-79 0 -118.5 27zM556 815l-187 -139l-45 59l187 139z" />
         <glyph glyph-name="scaron" unicode="š" d="M95.5 13q-39.5 27 -62.5 95l74 48q10 -39 21.5 -58.5t31.5 -27t56 -7.5q74 0 116.5 11t64.5 36.5t32 70.5q4 17 4 33q0 23 -12 36.5t-39 21.5t-77 14q-99 11 -145 42.5t-46 89.5q0 16 5 41q14 66 43.5 103t82.5 53.5t141 16.5q83 0 124.5 -23t67.5 -81l-70 -54 q-12 34 -26 51t-36 23.5t-62 6.5q-63 0 -99.5 -10.5t-56 -33.5t-28.5 -65q-2 -12 -2 -18q0 -27 26 -41t88 -23q75 -10 119 -26.5t65 -43.5t21 -70q0 -20 -7 -57q-15 -69 -47.5 -108t-91.5 -56t-157 -17q-79 0 -118.5 27zM560 803l-183 -139l-127 137l72 51l74 -81l107 83z " />
         <glyph glyph-name="scedilla" unicode="ş" d="M431 337.5q44 -16.5 65 -43.5t21 -70q0 -20 -7 -57q-13 -62 -40.5 -99.5t-75.5 -56.5t-124 -23l-9 -33q28 -7 44 -26.5t16 -46.5q0 -10 -1 -15q-9 -42 -46.5 -68t-89.5 -26q-35 0 -62 12.5t-39 31.5l42 55q7 -10 24 -15.5t38 -5.5t36 9.5t15 22.5q0 9 -17.5 14t-48.5 5 l15 85q-65 4 -99 31.5t-55 89.5l74 48q10 -39 21.5 -58.5t31.5 -27t56 -7.5q74 0 116.5 11t64.5 36.5t32 70.5q4 17 4 33q0 23 -12 36.5t-39 21.5t-77 14q-99 11 -145 42.5t-46 89.5q0 16 5 41q14 66 43.5 103t82.5 53.5t141 16.5q83 0 124.5 -23t67.5 -81l-70 -54 q-12 34 -26 51t-36 23.5t-62 6.5q-63 0 -99.5 -10.5t-56 -33.5t-28.5 -65q-2 -12 -2 -18q0 -27 26 -41t88 -23q75 -10 119 -26.5z" />
         <glyph glyph-name="scircumflex" unicode="ŝ" d="M95.5 13q-39.5 27 -62.5 95l74 48q10 -39 21.5 -58.5t31.5 -27t56 -7.5q74 0 116.5 11t64.5 36.5t32 70.5q4 17 4 33q0 23 -12 36.5t-39 21.5t-77 14q-99 11 -145 42.5t-46 89.5q0 16 5 41q14 66 43.5 103t82.5 53.5t141 16.5q83 0 124.5 -23t67.5 -81l-70 -54 q-12 34 -26 51t-36 23.5t-62 6.5q-63 0 -99.5 -10.5t-56 -33.5t-28.5 -65q-2 -12 -2 -18q0 -27 26 -41t88 -23q75 -10 119 -26.5t65 -43.5t21 -70q0 -20 -7 -57q-15 -69 -47.5 -108t-91.5 -56t-157 -17q-79 0 -118.5 27zM541 714l-73 -50l-72 82l-109 -80l-56 50l182 138z " />
         <glyph glyph-name="uni0219" unicode="ș" d="M95.5 13q-39.5 27 -62.5 95l74 48q10 -39 21.5 -58.5t31.5 -27t56 -7.5q74 0 116.5 11t64.5 36.5t32 70.5q4 17 4 33q0 23 -12 36.5t-39 21.5t-77 14q-99 11 -145 42.5t-46 89.5q0 16 5 41q14 66 43.5 103t82.5 53.5t141 16.5q83 0 124.5 -23t67.5 -81l-70 -54 q-12 34 -26 51t-36 23.5t-62 6.5q-63 0 -99.5 -10.5t-56 -33.5t-28.5 -65q-2 -12 -2 -18q0 -27 26 -41t88 -23q75 -10 119 -26.5t65 -43.5t21 -70q0 -20 -7 -57q-15 -69 -47.5 -108t-91.5 -56t-157 -17q-79 0 -118.5 27zM194 -120q-18 8 -18 33q0 4 2 18q5 25 17.5 34 t39.5 9q26 0 38.5 -9t12.5 -29q0 -5 -2 -19q-6 -27 -38 -72t-73 -94l-59 3z" />
         <glyph glyph-name="germandbls" unicode="ß" d="M134 598q17 82 45.5 128.5t76 67t123.5 20.5q107 0 154.5 -32.5t47.5 -107.5q0 -34 -11 -86q-14 -65 -35 -98.5t-66 -60.5q31 -18 46 -44.5t15 -67.5q0 -36 -12 -92q-18 -86 -49.5 -134t-85 -69.5t-141.5 -21.5h-62l16 77h55q59 0 94.5 15t57 49.5t34.5 96.5q10 48 10 72 q0 45 -27 60.5t-96 15.5h-55l16 78h23q60 0 94.5 11.5t54.5 40.5t32 85q8 38 8 60q0 43 -27 59.5t-93 16.5q-50 0 -81 -13.5t-49.5 -45t-30.5 -87.5l-126 -591h-84z" />
         <glyph glyph-name="t" unicode="t" d="M184.5 19q-37.5 33 -37.5 105q0 42 12 99l70 324h-124l16 77h124l37 176h84l-37 -176h208l-16 -77h-208l-71 -331q-11 -53 -11 -82q0 -38 17.5 -54.5t57.5 -16.5q38 0 60 6t36 20t29 41l75 -33q-24 -44 -50 -67.5t-61.5 -33.5t-90.5 -10q-82 0 -119.5 33z" />
         <glyph glyph-name="tbar" unicode="ŧ" d="M521 547h-208l-32 -147h208l-16 -77h-208l-23 -107q-11 -53 -11 -82q0 -38 17.5 -54.5t57.5 -16.5q38 0 60 6t36 20t29 41l75 -33q-24 -44 -50 -67.5t-61.5 -33.5t-90.5 -10q-82 0 -119.5 33t-37.5 105q0 42 12 99l22 100h-124l16 77h124l32 147h-124l16 77h124l37 176 h84l-37 -176h208z" />
         <glyph glyph-name="tcaron" unicode="ť" d="M480 675h-66l49 271h84zM184.5 19q-37.5 33 -37.5 105q0 42 12 99l70 324h-124l16 77h124l37 176h84l-37 -176h208l-16 -77h-208l-71 -331q-11 -53 -11 -82q0 -38 17.5 -54.5t57.5 -16.5q38 0 60 6t36 20t29 41l75 -33q-24 -44 -50 -67.5t-61.5 -33.5t-90.5 -10 q-82 0 -119.5 33z" />
         <glyph glyph-name="uni0163" unicode="ţ" d="M313 547l-71 -331q-11 -53 -11 -82q0 -38 17.5 -54.5t57.5 -16.5q38 0 60 6t36 20t29 41l75 -33q-32 -59 -70.5 -83t-105.5 -27l-9 -32q28 -7 44 -26.5t16 -46.5q0 -10 -1 -15q-9 -42 -46.5 -68t-89.5 -26q-35 0 -62 12.5t-39 31.5l42 55q7 -10 24.5 -15.5t37.5 -5.5 q21 0 36 9.5t15 22.5q0 9 -17.5 14t-48.5 5l16 89q-52 10 -76.5 42t-24.5 91q0 42 12 99l70 324h-124l16 77h124l37 176h84l-37 -176h208l-16 -77h-208z" />
         <glyph glyph-name="uni021B" unicode="ț" d="M184.5 19q-37.5 33 -37.5 105q0 42 12 99l70 324h-124l16 77h124l37 176h84l-37 -176h208l-16 -77h-208l-71 -331q-11 -53 -11 -82q0 -38 17.5 -54.5t57.5 -16.5q38 0 60 6t36 20t29 41l75 -33q-24 -44 -50 -67.5t-61.5 -33.5t-90.5 -10q-82 0 -119.5 33zM254 -120 q-18 8 -18 33q0 4 2 18q5 25 17.5 34t39.5 9q26 0 38.5 -9t12.5 -29q0 -5 -2 -19q-6 -27 -38 -72t-73 -94l-59 3z" />
         <glyph glyph-name="u" unicode="u" d="M91 18q-40 32 -40 106q0 46 13 105l83 389h84l-84 -396q-12 -54 -12 -87q0 -41 20 -56.5t69 -15.5q67 0 106 13t60 42.5t33 83.5l89 416h84l-132 -618h-84l10 31q-32 -25 -70.5 -35t-97.5 -10q-91 0 -131 32z" />
         <glyph glyph-name="uacute" unicode="ú" d="M91 18q-40 32 -40 106q0 46 13 105l83 389h84l-84 -396q-12 -54 -12 -87q0 -41 20 -56.5t69 -15.5q67 0 106 13t60 42.5t33 83.5l89 416h84l-132 -618h-84l10 31q-32 -25 -70.5 -35t-97.5 -10q-91 0 -131 32zM556 815l-187 -139l-45 59l187 139z" />
         <glyph glyph-name="ubreve" unicode="ŭ" d="M91 18q-40 32 -40 106q0 46 13 105l83 389h84l-84 -396q-12 -54 -12 -87q0 -41 20 -56.5t69 -15.5q67 0 106 13t60 42.5t33 83.5l89 416h84l-132 -618h-84l10 31q-32 -25 -70.5 -35t-97.5 -10q-91 0 -131 32zM292 709q-30 20 -30 65q0 22 10 62h83q-8 -34 -8 -46 q0 -14 9 -18.5t34 -4.5q29 0 44.5 6t23 20t13.5 43h82q-9 -57 -27.5 -88.5t-50.5 -45t-87 -13.5q-66 0 -96 20z" />
         <glyph glyph-name="uni01D4" unicode="ǔ" d="M91 18q-40 32 -40 106q0 46 13 105l83 389h84l-84 -396q-12 -54 -12 -87q0 -41 20 -56.5t69 -15.5q67 0 106 13t60 42.5t33 83.5l89 416h84l-132 -618h-84l10 31q-32 -25 -70.5 -35t-97.5 -10q-91 0 -131 32zM560 803l-183 -139l-127 137l72 51l74 -81l107 83z" />
         <glyph glyph-name="ucircumflex" unicode="û" d="M91 18q-40 32 -40 106q0 46 13 105l83 389h84l-84 -396q-12 -54 -12 -87q0 -41 20 -56.5t69 -15.5q67 0 106 13t60 42.5t33 83.5l89 416h84l-132 -618h-84l10 31q-32 -25 -70.5 -35t-97.5 -10q-91 0 -131 32zM541 714l-73 -50l-72 82l-109 -80l-56 50l182 138z" />
         <glyph glyph-name="udieresis" unicode="ü" d="M91 18q-40 32 -40 106q0 46 13 105l83 389h84l-84 -396q-12 -54 -12 -87q0 -41 20 -56.5t69 -15.5q67 0 106 13t60 42.5t33 83.5l89 416h84l-132 -618h-84l10 31q-32 -25 -70.5 -35t-97.5 -10q-91 0 -131 32zM235 726q-16 12 -16 37q0 11 3 26q7 32 24.5 45.5t52.5 13.5 t51 -12t16 -37q0 -10 -3 -24q-8 -34 -25 -47.5t-53 -13.5q-34 0 -50 12zM451 726q-16 12 -16 37q0 11 3 26q7 32 24.5 45.5t52.5 13.5t51 -12t16 -37q0 -10 -3 -24q-8 -34 -25 -47.5t-53 -13.5q-34 0 -50 12z" />
         <glyph glyph-name="uni01D8" unicode="ǘ" d="M91 18q-40 32 -40 106q0 46 13 105l83 389h84l-84 -396q-12 -54 -12 -87q0 -41 20 -56.5t69 -15.5q67 0 106 13t60 42.5t33 83.5l89 416h84l-132 -618h-84l10 31q-32 -25 -70.5 -35t-97.5 -10q-91 0 -131 32zM235 726q-16 12 -16 37q0 11 3 26q7 32 24.5 45.5t52.5 13.5 t51 -12t16 -37q0 -10 -3 -24q-8 -34 -25 -47.5t-53 -13.5q-34 0 -50 12zM451 726q-16 12 -16 37q0 11 3 26q7 32 24.5 45.5t52.5 13.5t51 -12t16 -37q0 -10 -3 -24q-8 -34 -25 -47.5t-53 -13.5q-34 0 -50 12zM601 1030l-187 -139l-45 59l187 139z" />
         <glyph glyph-name="uni01DA" unicode="ǚ" d="M91 18q-40 32 -40 106q0 46 13 105l83 389h84l-84 -396q-12 -54 -12 -87q0 -41 20 -56.5t69 -15.5q67 0 106 13t60 42.5t33 83.5l89 416h84l-132 -618h-84l10 31q-32 -25 -70.5 -35t-97.5 -10q-91 0 -131 32zM235 726q-16 12 -16 37q0 11 3 26q7 32 24.5 45.5t52.5 13.5 t51 -12t16 -37q0 -10 -3 -24q-8 -34 -25 -47.5t-53 -13.5q-34 0 -50 12zM451 726q-16 12 -16 37q0 11 3 26q7 32 24.5 45.5t52.5 13.5t51 -12t16 -37q0 -10 -3 -24q-8 -34 -25 -47.5t-53 -13.5q-34 0 -50 12zM605 1018l-183 -139l-127 137l72 51l74 -81l107 83z" />
         <glyph glyph-name="uni01DC" unicode="ǜ" d="M91 18q-40 32 -40 106q0 46 13 105l83 389h84l-84 -396q-12 -54 -12 -87q0 -41 20 -56.5t69 -15.5q67 0 106 13t60 42.5t33 83.5l89 416h84l-132 -618h-84l10 31q-32 -25 -70.5 -35t-97.5 -10q-91 0 -131 32zM235 726q-16 12 -16 37q0 11 3 26q7 32 24.5 45.5t52.5 13.5 t51 -12t16 -37q0 -10 -3 -24q-8 -34 -25 -47.5t-53 -13.5q-34 0 -50 12zM451 726q-16 12 -16 37q0 11 3 26q7 32 24.5 45.5t52.5 13.5t51 -12t16 -37q0 -10 -3 -24q-8 -34 -25 -47.5t-53 -13.5q-34 0 -50 12zM503 950l-66 -59l-134 139l66 59z" />
         <glyph glyph-name="uni01D6" unicode="ǖ" d="M91 18q-40 32 -40 106q0 46 13 105l83 389h84l-84 -396q-12 -54 -12 -87q0 -41 20 -56.5t69 -15.5q67 0 106 13t60 42.5t33 83.5l89 416h84l-132 -618h-84l10 31q-32 -25 -70.5 -35t-97.5 -10q-91 0 -131 32zM235 726q-16 12 -16 37q0 11 3 26q7 32 24.5 45.5t52.5 13.5 t51 -12t16 -37q0 -10 -3 -24q-8 -34 -25 -47.5t-53 -13.5q-34 0 -50 12zM451 726q-16 12 -16 37q0 11 3 26q7 32 24.5 45.5t52.5 13.5t51 -12t16 -37q0 -10 -3 -24q-8 -34 -25 -47.5t-53 -13.5q-34 0 -50 12zM584 923h-308l16 78h308z" />
         <glyph glyph-name="uni1EE5" unicode="ụ" d="M91 18q-40 32 -40 106q0 46 13 105l83 389h84l-84 -396q-12 -54 -12 -87q0 -41 20 -56.5t69 -15.5q67 0 106 13t60 42.5t33 83.5l89 416h84l-132 -618h-84l10 31q-32 -25 -70.5 -35t-97.5 -10q-91 0 -131 32zM142.5 -220.5q-14.5 9.5 -14.5 32.5q0 13 3 29 q7 34 23.5 46.5t52.5 12.5q34 0 49 -9.5t15 -31.5q0 -14 -4 -29q-7 -34 -23 -47t-52 -13q-35 0 -49.5 9.5z" />
         <glyph glyph-name="ugrave" unicode="ù" d="M91 18q-40 32 -40 106q0 46 13 105l83 389h84l-84 -396q-12 -54 -12 -87q0 -41 20 -56.5t69 -15.5q67 0 106 13t60 42.5t33 83.5l89 416h84l-132 -618h-84l10 31q-32 -25 -70.5 -35t-97.5 -10q-91 0 -131 32zM458 735l-66 -59l-134 139l66 59z" />
         <glyph glyph-name="uni1EE7" unicode="ủ" d="M91 18q-40 32 -40 106q0 46 13 105l83 389h84l-84 -396q-12 -54 -12 -87q0 -41 20 -56.5t69 -15.5q67 0 106 13t60 42.5t33 83.5l89 416h84l-132 -618h-84l10 31q-32 -25 -70.5 -35t-97.5 -10q-91 0 -131 32zM337 732q33 5 55.5 18t26.5 29v4q0 15 -17 15q-37 0 -109 -52 l15 95q20 16 47 25t49 9q46 0 72.5 -22t26.5 -59q0 -49 -42 -87.5t-111 -50.5z" />
         <glyph glyph-name="uhorn" unicode="ư" d="M706 786h84l-32 -149q-13 -61 -52.5 -97.5t-92.5 -36.5q-20 0 -40 9l-109 -512h-84l10 31q-32 -25 -70.5 -35t-97.5 -10q-91 0 -131 32t-40 106q0 46 13 105l83 389h84l-84 -396q-12 -54 -12 -87q0 -41 20 -56.5t69 -15.5q67 0 106 13t60 42.5t33 83.5l89 416h84l-8 -36 q8 -2 20 -2q25 0 43.5 17.5t24.5 46.5z" />
         <glyph glyph-name="uni1EE9" unicode="ứ" d="M706 786h84l-32 -149q-13 -61 -52.5 -97.5t-92.5 -36.5q-20 0 -40 9l-109 -512h-84l10 31q-32 -25 -70.5 -35t-97.5 -10q-91 0 -131 32t-40 106q0 46 13 105l83 389h84l-84 -396q-12 -54 -12 -87q0 -41 20 -56.5t69 -15.5q67 0 106 13t60 42.5t33 83.5l89 416h84l-8 -36 q8 -2 20 -2q25 0 43.5 17.5t24.5 46.5zM556 815l-187 -139l-45 59l187 139z" />
         <glyph glyph-name="uni1EF1" unicode="ự" d="M706 786h84l-32 -149q-13 -61 -52.5 -97.5t-92.5 -36.5q-20 0 -40 9l-109 -512h-84l10 31q-32 -25 -70.5 -35t-97.5 -10q-91 0 -131 32t-40 106q0 46 13 105l83 389h84l-84 -396q-12 -54 -12 -87q0 -41 20 -56.5t69 -15.5q67 0 106 13t60 42.5t33 83.5l89 416h84l-8 -36 q8 -2 20 -2q25 0 43.5 17.5t24.5 46.5zM142.5 -220.5q-14.5 9.5 -14.5 32.5q0 13 3 29q7 34 23.5 46.5t52.5 12.5q34 0 49 -9.5t15 -31.5q0 -14 -4 -29q-7 -34 -23 -47t-52 -13q-35 0 -49.5 9.5z" />
         <glyph glyph-name="uni1EEB" unicode="ừ" d="M706 786h84l-32 -149q-13 -61 -52.5 -97.5t-92.5 -36.5q-20 0 -40 9l-109 -512h-84l10 31q-32 -25 -70.5 -35t-97.5 -10q-91 0 -131 32t-40 106q0 46 13 105l83 389h84l-84 -396q-12 -54 -12 -87q0 -41 20 -56.5t69 -15.5q67 0 106 13t60 42.5t33 83.5l89 416h84l-8 -36 q8 -2 20 -2q25 0 43.5 17.5t24.5 46.5zM458 735l-66 -59l-134 139l66 59z" />
         <glyph glyph-name="uni1EED" unicode="ử" d="M706 786h84l-32 -149q-13 -61 -52.5 -97.5t-92.5 -36.5q-20 0 -40 9l-109 -512h-84l10 31q-32 -25 -70.5 -35t-97.5 -10q-91 0 -131 32t-40 106q0 46 13 105l83 389h84l-84 -396q-12 -54 -12 -87q0 -41 20 -56.5t69 -15.5q67 0 106 13t60 42.5t33 83.5l89 416h84l-8 -36 q8 -2 20 -2q25 0 43.5 17.5t24.5 46.5zM337 732q33 5 55.5 18t26.5 29v4q0 15 -17 15q-37 0 -109 -52l15 95q20 16 47 25t49 9q46 0 72.5 -22t26.5 -59q0 -49 -42 -87.5t-111 -50.5z" />
         <glyph glyph-name="uni1EEF" unicode="ữ" d="M706 786h84l-32 -149q-13 -61 -52.5 -97.5t-92.5 -36.5q-20 0 -40 9l-109 -512h-84l10 31q-32 -25 -70.5 -35t-97.5 -10q-91 0 -131 32t-40 106q0 46 13 105l83 389h84l-84 -396q-12 -54 -12 -87q0 -41 20 -56.5t69 -15.5q67 0 106 13t60 42.5t33 83.5l89 416h84l-8 -36 q8 -2 20 -2q25 0 43.5 17.5t24.5 46.5zM411.5 708q-22.5 16 -46.5 40q-2 2 -12.5 11.5t-14.5 9.5q-14 0 -22.5 -15t-8.5 -36h-84q7 59 39.5 93.5t77.5 34.5q22 0 42.5 -14.5t45.5 -39.5q9 -9 17 -16t13 -7q14 0 22 14t8 34h83q-6 -56 -38 -90.5t-77 -34.5q-22 0 -44.5 16z " />
         <glyph glyph-name="uhungarumlaut" unicode="ű" d="M91 18q-40 32 -40 106q0 46 13 105l83 389h84l-84 -396q-12 -54 -12 -87q0 -41 20 -56.5t69 -15.5q67 0 106 13t60 42.5t33 83.5l89 416h84l-132 -618h-84l10 31q-32 -25 -70.5 -35t-97.5 -10q-91 0 -131 32zM403 804l-187 -139l-46 58l188 139zM623 804l-188 -139 l-45 58l187 139z" />
         <glyph glyph-name="umacron" unicode="ū" d="M91 18q-40 32 -40 106q0 46 13 105l83 389h84l-84 -396q-12 -54 -12 -87q0 -41 20 -56.5t69 -15.5q67 0 106 13t60 42.5t33 83.5l89 416h84l-132 -618h-84l10 31q-32 -25 -70.5 -35t-97.5 -10q-91 0 -131 32zM539 708h-308l16 78h308z" />
         <glyph glyph-name="uogonek" unicode="ų" d="M398.5 -114.5q13.5 5.5 21.5 14.5l58 -55q-17 -19 -47 -30.5t-61 -11.5q-55 0 -88.5 23t-33.5 62q0 35 39 68.5t95 49.5l8 25q-32 -25 -70.5 -35t-97.5 -10q-91 0 -131 32t-40 106q0 46 13 105l83 389h84l-84 -396q-12 -54 -12 -87q0 -41 20 -56.5t69 -15.5q67 0 106 13 t60 42.5t33 83.5l89 416h84l-132 -618h-6l6 -1q-74 -35 -103.5 -54.5t-29.5 -38.5q0 -26 40 -26q14 0 27.5 5.5z" />
         <glyph glyph-name="uring" unicode="ů" d="M91 18q-40 32 -40 106q0 46 13 105l83 389h84l-84 -396q-12 -54 -12 -87q0 -41 20 -56.5t69 -15.5q67 0 106 13t60 42.5t33 83.5l89 416h84l-132 -618h-84l10 31q-32 -25 -70.5 -35t-97.5 -10q-91 0 -131 32zM292.5 713.5q-29.5 20.5 -29.5 67.5q0 21 6 49 q15 69 50.5 96.5t110.5 27.5q66 0 96 -20.5t30 -66.5q0 -22 -6 -51q-14 -69 -49.5 -96t-112.5 -27q-66 0 -95.5 20.5zM446 782.5q16 12.5 23 47.5q4 20 4 24q0 14 -10 18.5t-36 4.5q-37 0 -53 -13t-24 -48q-3 -13 -3 -23q0 -14 9.5 -18.5t34.5 -4.5q39 0 55 12.5z" />
         <glyph glyph-name="utilde" unicode="ũ" d="M91 18q-40 32 -40 106q0 46 13 105l83 389h84l-84 -396q-12 -54 -12 -87q0 -41 20 -56.5t69 -15.5q67 0 106 13t60 42.5t33 83.5l89 416h84l-132 -618h-84l10 31q-32 -25 -70.5 -35t-97.5 -10q-91 0 -131 32zM411.5 708q-22.5 16 -46.5 40q-2 2 -12.5 11.5t-14.5 9.5 q-14 0 -22.5 -15t-8.5 -36h-84q7 59 39.5 93.5t77.5 34.5q22 0 42.5 -14.5t45.5 -39.5q9 -9 17 -16t13 -7q14 0 22 14t8 34h83q-6 -56 -38 -90.5t-77 -34.5q-22 0 -44.5 16z" />
         <glyph glyph-name="v" unicode="v" d="M275 0h-80l-83 618h84l63 -489l272 489h90z" />
         <glyph glyph-name="w" unicode="w" d="M143 0h-78l20 618h84l-19 -448l138 264h76l23 -263l174 447h86l-243 -618h-77l-30 286z" />
         <glyph glyph-name="wacute" unicode="ẃ" d="M143 0h-78l20 618h84l-19 -448l138 264h76l23 -263l174 447h86l-243 -618h-77l-30 286zM556 815l-187 -139l-45 59l187 139z" />
         <glyph glyph-name="wcircumflex" unicode="ŵ" d="M143 0h-78l20 618h84l-19 -448l138 264h76l23 -263l174 447h86l-243 -618h-77l-30 286zM541 714l-73 -50l-72 82l-109 -80l-56 50l182 138z" />
         <glyph glyph-name="wdieresis" unicode="ẅ" d="M143 0h-78l20 618h84l-19 -448l138 264h76l23 -263l174 447h86l-243 -618h-77l-30 286zM235 726q-16 12 -16 37q0 11 3 26q7 32 24.5 45.5t52.5 13.5t51 -12t16 -37q0 -10 -3 -24q-8 -34 -25 -47.5t-53 -13.5q-34 0 -50 12zM451 726q-16 12 -16 37q0 11 3 26 q7 32 24.5 45.5t52.5 13.5t51 -12t16 -37q0 -10 -3 -24q-8 -34 -25 -47.5t-53 -13.5q-34 0 -50 12z" />
         <glyph glyph-name="wgrave" unicode="ẁ" d="M143 0h-78l20 618h84l-19 -448l138 264h76l23 -263l174 447h86l-243 -618h-77l-30 286zM458 735l-66 -59l-134 139l66 59z" />
         <glyph glyph-name="x" unicode="x" d="M514 618h94l-260 -307l131 -311h-98l-98 233l-197 -233h-94l260 307l-131 311h98l98 -233z" />
         <glyph glyph-name="y" unicode="y" d="M-25.5 -187.5q-23.5 8.5 -49.5 28.5l43 67q25 -17 38.5 -22t29.5 -5q61 0 99.5 29t81.5 106l-74 602h86l54 -491l267 491h91l-339 -612q-43 -79 -81.5 -122t-82 -61.5t-104.5 -18.5q-36 0 -59.5 8.5z" />
         <glyph glyph-name="yacute" unicode="ý" d="M-25.5 -187.5q-23.5 8.5 -49.5 28.5l43 67q25 -17 38.5 -22t29.5 -5q61 0 99.5 29t81.5 106l-74 602h86l54 -491l267 491h91l-339 -612q-43 -79 -81.5 -122t-82 -61.5t-104.5 -18.5q-36 0 -59.5 8.5zM556 815l-187 -139l-45 59l187 139z" />
         <glyph glyph-name="ycircumflex" unicode="ŷ" d="M-25.5 -187.5q-23.5 8.5 -49.5 28.5l43 67q25 -17 38.5 -22t29.5 -5q61 0 99.5 29t81.5 106l-74 602h86l54 -491l267 491h91l-339 -612q-43 -79 -81.5 -122t-82 -61.5t-104.5 -18.5q-36 0 -59.5 8.5zM541 714l-73 -50l-72 82l-109 -80l-56 50l182 138z" />
         <glyph glyph-name="ydieresis" unicode="ÿ" d="M-25.5 -187.5q-23.5 8.5 -49.5 28.5l43 67q25 -17 38.5 -22t29.5 -5q61 0 99.5 29t81.5 106l-74 602h86l54 -491l267 491h91l-339 -612q-43 -79 -81.5 -122t-82 -61.5t-104.5 -18.5q-36 0 -59.5 8.5zM235 726q-16 12 -16 37q0 11 3 26q7 32 24.5 45.5t52.5 13.5t51 -12 t16 -37q0 -10 -3 -24q-8 -34 -25 -47.5t-53 -13.5q-34 0 -50 12zM451 726q-16 12 -16 37q0 11 3 26q7 32 24.5 45.5t52.5 13.5t51 -12t16 -37q0 -10 -3 -24q-8 -34 -25 -47.5t-53 -13.5q-34 0 -50 12z" />
         <glyph glyph-name="uni1EF5" unicode="ỵ" d="M-25.5 -187.5q-23.5 8.5 -49.5 28.5l43 67q25 -17 38.5 -22t29.5 -5q61 0 99.5 29t81.5 106l-74 602h86l54 -491l267 491h91l-339 -612q-43 -79 -81.5 -122t-82 -61.5t-104.5 -18.5q-36 0 -59.5 8.5zM306.5 -220.5q-14.5 9.5 -14.5 32.5q0 13 3 29q7 34 23.5 46.5 t52.5 12.5q34 0 49 -9.5t15 -31.5q0 -14 -4 -29q-7 -34 -23 -47t-52 -13q-35 0 -49.5 9.5z" />
         <glyph glyph-name="ygrave" unicode="ỳ" d="M-25.5 -187.5q-23.5 8.5 -49.5 28.5l43 67q25 -17 38.5 -22t29.5 -5q61 0 99.5 29t81.5 106l-74 602h86l54 -491l267 491h91l-339 -612q-43 -79 -81.5 -122t-82 -61.5t-104.5 -18.5q-36 0 -59.5 8.5zM458 735l-66 -59l-134 139l66 59z" />
         <glyph glyph-name="uni1EF7" unicode="ỷ" d="M-25.5 -187.5q-23.5 8.5 -49.5 28.5l43 67q25 -17 38.5 -22t29.5 -5q61 0 99.5 29t81.5 106l-74 602h86l54 -491l267 491h91l-339 -612q-43 -79 -81.5 -122t-82 -61.5t-104.5 -18.5q-36 0 -59.5 8.5zM337 732q33 5 55.5 18t26.5 29v4q0 15 -17 15q-37 0 -109 -52l15 95 q20 16 47 25t49 9q46 0 72.5 -22t26.5 -59q0 -49 -42 -87.5t-111 -50.5z" />
         <glyph glyph-name="uni1EF9" unicode="ỹ" d="M-25.5 -187.5q-23.5 8.5 -49.5 28.5l43 67q25 -17 38.5 -22t29.5 -5q61 0 99.5 29t81.5 106l-74 602h86l54 -491l267 491h91l-339 -612q-43 -79 -81.5 -122t-82 -61.5t-104.5 -18.5q-36 0 -59.5 8.5zM411.5 708q-22.5 16 -46.5 40q-2 2 -12.5 11.5t-14.5 9.5 q-14 0 -22.5 -15t-8.5 -36h-84q7 59 39.5 93.5t77.5 34.5q22 0 42.5 -14.5t45.5 -39.5q9 -9 17 -16t13 -7q14 0 22 14t8 34h83q-6 -56 -38 -90.5t-77 -34.5q-22 0 -44.5 16z" />
         <glyph glyph-name="z" unicode="z" d="M449 0h-431l10 51l420 490h-314l17 77h429l-10 -51l-420 -490h316z" />
         <glyph glyph-name="zacute" unicode="ź" d="M449 0h-431l10 51l420 490h-314l17 77h429l-10 -51l-420 -490h316zM556 815l-187 -139l-45 59l187 139z" />
         <glyph glyph-name="zcaron" unicode="ž" d="M449 0h-431l10 51l420 490h-314l17 77h429l-10 -51l-420 -490h316zM560 803l-183 -139l-127 137l72 51l74 -81l107 83z" />
         <glyph glyph-name="zdotaccent" unicode="ż" d="M449 0h-431l10 51l420 490h-314l17 77h429l-10 -51l-420 -490h316zM346.5 738.5q-14.5 9.5 -14.5 32.5q0 13 3 29q7 34 23.5 46.5t52.5 12.5q34 0 49 -9.5t15 -31.5q0 -14 -4 -29q-7 -34 -23 -47t-52 -13q-35 0 -49.5 9.5z" />
         <glyph glyph-name="ordfeminine" unicode="ª" d="M186.5 361q-35.5 21 -35.5 73q0 18 7 55q11 50 31.5 76.5t58.5 38t104 11.5h90l8 38q5 25 5 39q0 25 -15 35t-51 10q-38 0 -61 -16.5t-42 -56.5l-80 20q24 52 48 79.5t56 39t81 11.5q80 0 114.5 -23t34.5 -79q0 -26 -8 -66l-43 -204q-2 -9 3 -11.5t28 -4.5l-9 -77 q-46 -1 -66.5 8t-25.5 32q-30 -29 -54 -39t-61 -10q-82 0 -117.5 21zM384 438q25 21 36 74l7 34h-83q-49 0 -72.5 -16t-32.5 -54q-3 -13 -3 -23q0 -21 16 -28.5t55 -7.5q52 0 77 21zM474 180h-394l17 78h394z" />
         <glyph glyph-name="ordmasculine" unicode="º" d="M197.5 369.5q-35.5 29.5 -35.5 99.5q0 43 14 115q19 90 45.5 139t68.5 70t110 21q81 0 117 -29t36 -99q0 -46 -15 -115q-19 -91 -45.5 -140t-68.5 -70t-110 -21q-81 0 -116.5 29.5zM382 433q26 16 43.5 52t30.5 99q12 56 12 87q0 36 -16.5 51t-53.5 15q-40 0 -66 -16 t-43.5 -51.5t-30.5 -98.5q-12 -54 -12 -87q0 -37 16.5 -52t53.5 -15q40 0 66 16zM469 180h-394l17 78h394z" />
         <glyph glyph-name="uni2090" unicode="ₐ" d="M100.5 -43q-35.5 21 -35.5 73q0 18 7 55q11 50 31.5 77t58.5 38t104 11h90l8 38q5 25 5 39q0 25 -15 35t-51 10q-38 0 -60.5 -16t-42.5 -56l-81 20q24 51 48.5 78.5t56.5 39t81 11.5q80 0 115 -23t35 -79q0 -26 -8 -66l-44 -208q-2 -9 3.5 -11.5t27.5 -4.5l-10 -77 q-47 0 -67.5 9.5t-23.5 30.5q-27 -27 -51 -36t-63 -9q-83 0 -118.5 21zM297.5 34.5q25.5 21.5 36.5 73.5l8 34h-83q-50 0 -74 -15.5t-31 -54.5q-3 -13 -3 -23q0 -21 15.5 -28.5t54.5 -7.5q51 0 76.5 21.5z" />
         <glyph glyph-name="uni2091" unicode="ₑ" d="M174 148q-8 -43 -8 -66q0 -38 18 -53.5t59 -15.5q40 0 66 17t53 60l60 -53q-38 -59 -76 -80t-105 -21q-85 0 -122.5 28.5t-37.5 98.5q0 41 14 108q20 94 47 145t70.5 72.5t114.5 21.5q76 0 109 -29t33 -99q0 -54 -18 -137zM242.5 309q-30.5 -24 -49.5 -83l189 3 q2 26 2 35q0 40 -13 54.5t-46 14.5q-52 0 -82.5 -24z" />
         <glyph glyph-name="uni2071" unicode="ⁱ" d="M386 790.5q-12 9.5 -12 29.5q0 5 2 19q5 23 17.5 32.5t37.5 9.5q51 0 51 -39q0 -5 -2 -17q-5 -25 -17.5 -34.5t-38.5 -9.5t-38 9.5zM452 701l-81 -378h115l-16 -77h-314l16 77h115l63 301h-83l17 77h168z" />
         <glyph glyph-name="uni207F" unicode="ⁿ" d="M108 246l99 464h84l-12 -39q37 26 62 35t56 9q71 0 102.5 -27.5t31.5 -92.5q0 -47 -15 -118l-49 -231h-84l50 238q14 65 14 97q0 31 -12.5 44t-39.5 13q-67 0 -100 -31.5t-50 -111.5l-53 -249h-84z" />
         <glyph glyph-name="uni2092" unicode="ₒ" d="M111 -35q-36 29 -36 99q0 47 15 116q19 90 45.5 139t68.5 70t110 21q81 0 116.5 -29t35.5 -99q0 -45 -14 -115q-19 -90 -45.5 -139.5t-68.5 -70.5t-110 -21q-81 0 -117 29zM296 29q26 16 43.5 52t30.5 99q12 54 12 86q0 37 -16.5 52t-53.5 15q-40 0 -65.5 -15.5 t-43 -51.5t-31.5 -99q-12 -55 -12 -87q0 -37 16.5 -52t53.5 -15q40 0 66 16z" />
         <glyph glyph-name="uni2094" unicode="ₔ" d="M424 381q37 -29 37 -99q0 -46 -13 -107q-20 -94 -47.5 -145t-71 -72.5t-114.5 -21.5q-76 0 -109 29.5t-33 99.5q0 53 18 137l277 -3q8 42 8 65q0 38 -18 53.5t-59 15.5q-40 0 -66 -17t-53 -59l-60 52q38 59 76 80t105 21q86 0 123 -29zM299.5 37q30.5 24 49.5 83l-189 -2 q-2 -26 -2 -36q0 -39 13 -54t46 -15q52 0 82.5 24z" />
         <glyph glyph-name="uni2093" unicode="ₓ" d="M420 405h93l-193 -230l97 -234h-99l-64 155l-131 -155h-94l194 230l-97 234h98l65 -156z" />
         <glyph glyph-name="uni0410" unicode="А" d="M501 0h-85l-12 200h-253l-97 -200h-88l392 800h90zM376 661l-187 -383h210z" />
         <glyph glyph-name="uni0411" unicode="Б" d="M11 0l170 800h384l-16 -77h-300l-46 -213h145q103 0 149 -33.5t46 -113.5q0 -48 -15 -114q-20 -97 -52 -150.5t-85.5 -76t-143.5 -22.5h-236zM256 77q57 0 93.5 17.5t59.5 57.5t38 111q11 50 11 81q0 49 -27.5 68.5t-91.5 19.5h-152l-75 -355h144z" />
         <glyph glyph-name="uni0412" unicode="В" d="M11 0l170 800h204q106 0 152.5 -31.5t46.5 -103.5q0 -33 -9 -77q-14 -68 -38 -102t-75 -59q37 -16 54.5 -43t17.5 -71q0 -33 -11 -88q-18 -86 -49.5 -134t-85 -69.5t-141.5 -21.5h-236zM313 462q60 0 94.5 11.5t54.5 41t32 86.5q7 35 7 51q0 40 -27.5 55.5t-97.5 15.5 h-127l-56 -261h120zM256 77q59 0 94.5 15t57 49.5t34.5 96.5q9 44 9 71q0 45 -27 60t-95 15h-152l-65 -307h144z" />
         <glyph glyph-name="uni0413" unicode="Г" d="M190 800h458l-16 -77h-375l-153 -723h-84z" />
         <glyph glyph-name="uni0403" unicode="Ѓ" d="M190 800h458l-16 -77h-375l-153 -723h-84zM594 997l-187 -139l-45 59l187 139z" />
         <glyph glyph-name="uni0490" unicode="Ґ" d="M564 800l29 139h84l-29 -139l-16 -77h-375l-153 -723h-84l170 800h374z" />
         <glyph glyph-name="uni0414" unicode="Д" d="M626 800l-153 -723h50l-35 -165h-84l18 88h-376l-18 -88h-84l35 165h90l-62 2q63 33 106.5 104t86 203t120.5 417zM389 77l137 646l-147 -4q-63 -235 -100 -354.5t-70.5 -186.5t-75.5 -101h256z" />
         <glyph glyph-name="uni0415" unicode="Е" d="M647 800l-16 -77h-375l-53 -261h238l-16 -78h-242l-63 -307h374l-17 -77h-458l170 800h458z" />
         <glyph glyph-name="uni0400" unicode="Ѐ" d="M647 800l-16 -77h-375l-53 -261h238l-16 -78h-242l-63 -307h374l-17 -77h-458l170 800h458zM511 920l-66 -59l-134 139l66 59z" />
         <glyph glyph-name="uni0401" unicode="Ё" d="M647 800l-16 -77h-375l-53 -261h238l-16 -78h-242l-63 -307h374l-17 -77h-458l170 800h458zM288 911q-16 12 -16 37q0 11 3 26q7 32 24.5 45.5t52.5 13.5t51 -12t16 -37q0 -10 -3 -24q-8 -34 -25 -47.5t-53 -13.5q-34 0 -50 12zM504 911q-16 12 -16 37q0 11 3 26 q7 32 24.5 45.5t52.5 13.5t51 -12t16 -37q0 -10 -3 -24q-8 -34 -25 -47.5t-53 -13.5q-34 0 -50 12z" />
         <glyph glyph-name="uni0416" unicode="Ж" d="M706 800l-250 -400h-3l80 -400h-90l-80 400h-2l-85 -400h-84l84 395l-247 -395h-96l250 400h3l-80 400h90l80 -400h1l85 400h84l-84 -398l248 398h96z" />
         <glyph glyph-name="uni0417" unicode="З" d="M80 18q-48 32 -48 106q0 39 10 85l84 -7q-10 -45 -10 -67q0 -41 28 -56.5t97 -15.5q61 0 98.5 15t59.5 49t35 96q11 52 11 79q0 44 -24 61t-82 21h-90l16 78h83q55 4 86.5 16.5t50 42t30.5 84.5q7 31 7 57q0 42 -28 58.5t-96 16.5q-65 0 -101.5 -12.5t-55.5 -41.5 t-31 -85l-83 7q17 82 47 126.5t83 63.5t143 19q109 0 157.5 -32.5t48.5 -107.5q0 -39 -10 -83q-15 -70 -40 -106t-80 -65q27 -19 39.5 -45t12.5 -66q0 -33 -13 -100q-18 -85 -50 -133t-85.5 -69t-140.5 -21q-111 0 -159 32z" />
         <glyph glyph-name="uni0418" unicode="И" d="M637 800l-3 -4l-169 -796h-84l131 615l-417 -615h-93l1 2l170 798h84l-131 -617l418 617h93z" />
         <glyph glyph-name="uni0419" unicode="Й" d="M637 800l-3 -4l-169 -796h-84l131 615l-417 -615h-93l1 2l170 798h84l-131 -617l418 617h93zM325 871q-30 20 -30 65q0 22 10 62h94q-10 -18 -17 -32.5t-7 -21.5q0 -9 11 -12t37 -3q43 0 59 9t16 33q0 12 -3 27h91q-9 -57 -27.5 -88.5t-51 -45t-87.5 -13.5q-65 0 -95 20z " />
         <glyph glyph-name="uni040D" unicode="Ѝ" d="M637 800l-3 -4l-169 -796h-84l131 615l-417 -615h-93l1 2l170 798h84l-131 -617l418 617h93zM496 917l-66 -59l-134 139l66 59z" />
         <glyph glyph-name="uni041A" unicode="К" d="M678 798q-61 -35 -106.5 -86.5t-101.5 -129.5t-95.5 -121t-91.5 -63l205 -398h-99l-196 384h-41l-82 -384h-84l170 800h84l-72 -338h28q46 1 84 26.5t67 61t69 96.5q43 64 73 100.5t66 55.5z" />
         <glyph glyph-name="uni040C" unicode="Ќ" d="M678 798q-61 -35 -106.5 -86.5t-101.5 -129.5t-95.5 -121t-91.5 -63l205 -398h-99l-196 384h-41l-82 -384h-84l170 800h84l-72 -338h28q46 1 84 26.5t67 61t69 96.5q43 64 73 100.5t66 55.5zM594 997l-187 -139l-45 59l187 139z" />
         <glyph glyph-name="uni041B" unicode="Л" d="M355 800h296l-170 -800h-84l154 723h-175q-90 -333 -137 -470.5t-103 -195t-154 -57.5l9 78q57 0 98.5 53.5t91.5 204t132 467.5z" />
         <glyph glyph-name="uni041C" unicode="М" d="M61 0h-84l184 800h80l73 -418l252 418h81l-156 -800h-84l115 584l-197 -338h-75l-53 338z" />
         <glyph glyph-name="uni041D" unicode="Н" d="M481 462l72 338h84l-170 -800h-84l82 384h-298l-82 -384h-84l170 800h84l-72 -338h298z" />
         <glyph glyph-name="uni041E" unicode="О" d="M85 30.5q-48 44.5 -48 145.5q0 70 25 187l17 80q30 141 69 220.5t98.5 115t153.5 35.5q106 0 153.5 -44.5t47.5 -145.5q0 -76 -24 -187l-17 -80q-30 -141 -69 -220.5t-98.5 -115t-153.5 -35.5q-106 0 -154 44.5zM350 91q43 28 73 92.5t55 179.5l17 80q23 110 23 171 q0 68 -28 95.5t-92 27.5q-67 0 -110 -28t-73 -92.5t-54 -179.5l-17 -80q-23 -110 -23 -171q0 -67 28.5 -95t91.5 -28q66 0 109 28z" />
         <glyph glyph-name="uni041F" unicode="П" d="M78 0h-84l170 800h480l-170 -800h-84l154 723h-312z" />
         <glyph glyph-name="uni0420" unicode="Р" d="M421 800q103 0 149.5 -34t46.5 -111q0 -44 -11 -94q-19 -88 -50.5 -136.5t-84.5 -68.5t-142 -20h-151l-71 -336h-84l170 800h228zM534 642q0 46 -27.5 63.5t-94.5 17.5h-152l-66 -309h144q60 0 95 13.5t56.5 47.5t35.5 100q9 41 9 67z" />
         <glyph glyph-name="uni0421" unicode="С" d="M97.5 33.5q-48.5 47.5 -48.5 155.5q0 85 29 219q33 154 74.5 241.5t103.5 126t159 38.5q69 0 109.5 -18.5t60.5 -60t26 -112.5l-82 -21q-5 56 -16.5 84.5t-34 39.5t-65.5 11q-69 0 -115 -32t-78.5 -105.5t-60.5 -205.5q-28 -131 -28 -198q0 -72 29.5 -102.5t95.5 -30.5 q46 0 76.5 12.5t55.5 41.5t53 84l76 -33q-36 -71 -71.5 -110t-80.5 -55.5t-111 -16.5q-108 0 -156.5 47.5z" />
         <glyph glyph-name="uni0422" unicode="Т" d="M689 800l-16 -77h-243l-154 -723h-84l154 723h-243l16 77h570z" />
         <glyph glyph-name="uni0423" unicode="У" d="M590 800h87l-297 -613q-37 -75 -75 -119t-84.5 -63t-109.5 -19q-36 0 -59.5 8.5t-49.5 28.5l43 67q25 -17 38.5 -22t29.5 -5q40 0 67.5 8.5t50.5 30.5l-80 698h84l68 -587l6 12z" />
         <glyph glyph-name="uni040E" unicode="Ў" d="M590 800h87l-297 -613q-37 -75 -75 -119t-84.5 -63t-109.5 -19q-36 0 -59.5 8.5t-49.5 28.5l43 67q25 -17 38.5 -22t29.5 -5q40 0 67.5 8.5t50.5 30.5l-80 698h84l68 -587l6 12zM345 871q-30 20 -30 65q0 22 10 62h94q-10 -18 -17 -32.5t-7 -21.5q0 -9 11 -12t37 -3 q43 0 59 9t16 33q0 12 -3 27h91q-9 -57 -27.5 -88.5t-51 -45t-87.5 -13.5q-65 0 -95 20z" />
         <glyph glyph-name="uni0424" unicode="Ф" d="M427 711q106 -6 152.5 -47.5t46.5 -130.5q0 -51 -18 -139q-23 -112 -60 -176t-97 -94t-156 -34l-19 -90h-84l19 90q-105 7 -151.5 48t-46.5 130q0 58 18 140q24 110 61 174t96.5 94.5t154.5 34.5l19 89h84zM539 512q0 61 -30 89t-98 33l-99 -466q63 6 103.5 31.5t66.5 75 t44 133.5q13 59 13 104zM100 291q0 -61 30 -90t98 -34l98 466q-63 -7 -103 -32t-66 -74.5t-44 -132.5q-13 -59 -13 -103z" />
         <glyph glyph-name="uni0425" unicode="Х" d="M579 800h91l-303 -398l135 -402h-96l-106 315l-240 -315h-91l303 398l-135 402h96l106 -315z" />
         <glyph glyph-name="uni0427" unicode="Ч" d="M618 800l-170 -800h-84l48 213q-26 -24 -61.5 -34.5t-82.5 -10.5q-96 0 -139.5 38.5t-43.5 128.5q0 64 21 160l65 305h84l-67 -312q-19 -89 -19 -143q0 -56 23.5 -78t77.5 -22q59 0 92.5 13.5t53 47.5t33.5 99l85 395h84z" />
         <glyph glyph-name="uni0426" unicode="Ц" d="M512 800h84l-154 -723h84l-41 -195h-84l25 118h-451l170 800h84l-153 -723h282z" />
         <glyph glyph-name="uni0428" unicode="Ш" d="M499 0h-530l170 800h84l-153 -723h139l153 723h84l-153 -723h139l153 723h84z" />
         <glyph glyph-name="uni0429" unicode="Щ" d="M526 800h84l-154 -723h85l-40 -185h-84l23 108h-496l170 800h84l-154 -723h123l153 723h84l-153 -723h122z" />
         <glyph glyph-name="uni040F" unicode="Џ" d="M545 800h84l-170 -800h-183l-25 -118h-84l25 118h-183l170 800h84l-153 -723h282z" />
         <glyph glyph-name="uni042C" unicode="Ь" d="M359 510q104 0 149.5 -33.5t45.5 -114.5q0 -46 -15 -114q-20 -97 -52 -150t-85.5 -75.5t-143.5 -22.5h-235l170 800h84l-61 -290h143zM469 343q0 49 -27.5 69t-91.5 20h-151l-75 -355h143q57 0 93.5 17.5t59.5 57t38 110.5q11 50 11 81z" />
         <glyph glyph-name="uni042A" unicode="Ъ" d="M386 510q104 0 149.5 -33.5t45.5 -114.5q0 -46 -15 -114q-21 -97 -53 -150t-85 -75.5t-143 -22.5h-235l154 723h-107l16 77h191l-16 -77l-45 -213h143zM495 343q0 50 -27 69.5t-92 19.5h-150l-75 -355h143q57 0 93.5 17.5t59.5 57.5t38 110q10 46 10 81z" />
         <glyph glyph-name="uni042B" unicode="Ы" d="M255 510q90 0 129.5 -32t39.5 -108q0 -50 -15 -122q-21 -97 -50 -150t-77 -75.5t-128 -22.5h-189l170 800h84l-61 -290h97zM419 0l170 800h84l-170 -800h-84zM339 353q0 44 -21.5 61.5t-71.5 17.5h-104l-75 -355h97q47 0 77.5 17.5t50.5 57.5t35 110q12 56 12 91z" />
         <glyph glyph-name="uni0409" unicode="Љ" d="M471 510q69 0 100 -29t31 -97q0 -53 -18 -136q-21 -97 -46.5 -150t-64.5 -75.5t-103 -22.5h-129l154 723h-62q-89 -332 -137 -470t-104 -195.5t-154 -57.5l9 78q57 0 98.5 53.5t92 204t132.5 467.5l42 -3h183l-61 -290h37zM518 370q0 34 -13.5 48t-43.5 14h-43l-75 -355 h36q46 0 74 41t50 144q15 71 15 108z" />
         <glyph glyph-name="uni040A" unicode="Њ" d="M451 510q79 0 114.5 -30.5t35.5 -102.5q0 -49 -17 -129q-21 -97 -48.5 -150t-70.5 -75.5t-115 -22.5h-162l92 432h-159l-92 -432h-84l170 800h84l-62 -290h159l62 290h84l-61 -290h70zM516 361q0 39 -17 55t-57 16h-78l-75 -355h71q39 0 65 17.5t44.5 57.5t33.5 110 q13 61 13 99z" />
         <glyph glyph-name="uni0405" unicode="Ѕ" d="M121.5 -1.5q-44.5 12.5 -70.5 40.5t-41 78l75 54q8 -45 23 -67.5t45 -31.5t88 -9q63 0 101.5 15.5t61 51.5t36.5 100q5 27 5 42q0 39 -27.5 62.5t-99.5 50.5q-102 35 -145 72t-43 97q0 23 6 53q17 79 47 123.5t81.5 64t135.5 19.5q67 0 108 -11t66 -35.5t41 -67.5 l-70 -59q-9 40 -23.5 60t-42.5 28t-81 8q-59 0 -94 -13.5t-55 -44t-32 -86.5q-4 -17 -4 -34q0 -34 25 -54.5t92 -43.5q108 -35 153.5 -74.5t45.5 -106.5q0 -26 -8 -64q-18 -87 -50.5 -136.5t-87.5 -71.5t-144 -22q-73 0 -117.5 12.5z" />
         <glyph glyph-name="uni0404" unicode="Є" d="M288.5 709q-43.5 -28 -73.5 -92t-54 -178h245l-16 -78h-245l-1 -4q-24 -115 -24 -171q0 -68 28.5 -95.5t92.5 -27.5q56 0 93.5 20t64.5 63l92 -7q-40 -82 -99.5 -117.5t-152.5 -35.5q-106 0 -154 44.5t-48 145.5q0 70 25 187l17 80q30 141 69 220.5t98.5 115t153.5 35.5 q97 0 144.5 -38.5t54.5 -121.5l-86 7q-9 42 -35 59t-80 17q-66 0 -109.5 -28z" />
         <glyph glyph-name="uni042D" unicode="Э" d="M553.5 769.5q47.5 -44.5 47.5 -145.5q0 -76 -24 -187l-17 -80q-30 -141 -69 -220.5t-98.5 -115t-153.5 -35.5q-97 0 -145 38.5t-54 121.5l87 -7q10 -42 36 -59t78 -17q66 0 109 28t73 92t55 178h-246l16 78h246l1 4q23 110 23 171q0 68 -28 95.5t-92 27.5q-57 0 -95 -20 t-66 -63l-90 7q41 82 101 117.5t152 35.5q106 0 153.5 -44.5z" />
         <glyph glyph-name="uni0406" unicode="І" d="M608 800l-16 -77h-162l-138 -646h163l-17 -77h-408l17 77h161l138 646h-162l16 77h408z" />
         <glyph glyph-name="uni0407" unicode="Ї" d="M608 800l-16 -77h-162l-138 -646h163l-17 -77h-408l17 77h161l138 646h-162l16 77h408zM274 911q-16 12 -16 37q0 11 3 26q7 32 24.5 45.5t52.5 13.5t51 -12t16 -37q0 -10 -3 -24q-8 -34 -25 -47.5t-53 -13.5q-34 0 -50 12zM490 911q-16 12 -16 37q0 11 3 26 q7 32 24.5 45.5t52.5 13.5t51 -12t16 -37q0 -10 -3 -24q-8 -34 -25 -47.5t-53 -13.5q-34 0 -50 12z" />
         <glyph glyph-name="uni0408" unicode="Ј" d="M92.5 4.5q-40.5 18.5 -60.5 59t-25 111.5l80 15q5 -53 16 -79.5t34.5 -37t67.5 -10.5q69 0 113.5 27.5t75 93t55.5 183.5l76 356h-131l16 77h215l-93 -440q-31 -144 -71 -224t-101 -115t-157 -35q-70 0 -110.5 18.5z" />
         <glyph glyph-name="uni040B" unicode="Ћ" d="M529 475q44 -35 44 -118q0 -53 -17 -133l-48 -224h-84l49 231q15 75 15 109q0 51 -24.5 71.5t-80.5 20.5q-59 0 -92.5 -14t-53.5 -49t-35 -103l-57 -266h-84l154 723h-127l16 77h339l-16 -77h-129l-56 -259q25 25 60.5 35.5t83.5 10.5q99 0 143 -35z" />
         <glyph glyph-name="uni042E" unicode="Ю" d="M608 776q38 -38 38 -128q0 -77 -29 -211l-17 -80q-31 -145 -65 -224t-83 -113t-126 -34q-84 0 -121.5 38t-37.5 128q0 75 28 209h-82l-77 -361h-84l170 800h84l-77 -361h82l1 4q31 145 65.5 224.5t83.5 113t126 33.5q83 0 121 -38zM535 443q28 135 28 196 q0 53 -18.5 75.5t-59.5 22.5q-48 0 -81 -28.5t-59 -93t-50 -178.5l-17 -80q-28 -135 -28 -196q0 -53 18.5 -75.5t59.5 -22.5q48 0 81 28.5t59 93t50 178.5z" />
         <glyph glyph-name="uni042F" unicode="Я" d="M623 800l-170 -800h-84l72 336h-84l-300 -336h-100l299 337q-82 6 -118.5 38.5t-36.5 101.5q0 41 12 98q18 86 49.5 134t85 69.5t141.5 21.5h234zM457 414l66 309h-143q-59 0 -94.5 -15t-57 -49.5t-34.5 -97.5q-10 -48 -10 -72q0 -44 27 -59.5t95 -15.5h151z" />
         <glyph glyph-name="uni0402" unicode="Ђ" d="M543.5 476.5q44.5 -33.5 44.5 -114.5q0 -45 -16 -122q-21 -100 -50.5 -154t-79 -77t-131.5 -23q-28 0 -41.5 3.5t-22.5 10.5l10 74q8 -7 19.5 -9t36.5 -2q53 0 86.5 18t55 59t36.5 114q12 56 12 90q0 49 -25 68.5t-83 19.5t-93 -14.5t-55.5 -48.5t-34.5 -98l-58 -271h-84 l154 723h-136l16 77h359l-16 -77h-140l-57 -264q28 27 64.5 39t83.5 12q101 0 145.5 -33.5z" />
         <glyph glyph-name="uni0462" unicode="Ѣ" d="M372 510q104 0 149.5 -34t45.5 -115q0 -45 -14 -113q-21 -97 -53 -150t-85.5 -75.5t-143.5 -22.5h-235l132 622h-88l16 77h89l21 101h84l-21 -101h166l-16 -77h-166l-24 -112h143zM482 343q0 49 -27.5 69t-91.5 20h-150l-75 -355h143q57 0 93.5 17.5t59 57.5t37.5 110 q11 50 11 81z" />
         <glyph glyph-name="uni046A" unicode="Ѫ" d="M677 723h1l-243 -304q34 -28 46.5 -93.5t13.5 -196.5q1 -50 5 -73.5t21 -57.5l-85 4q-10 26 -15 52t-5 70q0 94 -5 143t-18 71.5t-39 28.5l-78 -367h-84l77 364q-27 -8 -49 -32.5t-47 -73t-62 -136.5q-22 -47 -38 -73t-38 -51l-92 4q33 36 49 62.5t37 78.5 q57 131 97 193.5t86 87.5l-112 299h-1l16 77h578zM583 723h-393l104 -277q10 1 32 1l-4 -31l4 31q14 0 36 -2z" />
         <glyph glyph-name="uni0498" unicode="Ҙ" d="M557.5 781.5q48.5 -32.5 48.5 -107.5q0 -39 -10 -83q-15 -70 -40 -106t-80 -65q27 -19 39.5 -45t12.5 -66q0 -33 -13 -100q-17 -78 -44.5 -124.5t-73.5 -69.5t-118 -28l-10 -32q27 -7 44 -26.5t17 -45.5q0 -4 -2 -16q-9 -42 -46 -68t-89 -26q-35 0 -62.5 12.5t-38.5 31.5 l41 55q8 -10 25 -15.5t37 -5.5q19 0 34 8.5t18 21.5q2 10 -15.5 15.5t-50.5 5.5l15 85q-88 6 -126 38t-38 99q0 39 10 85l84 -7q-10 -45 -10 -67q0 -41 28 -56.5t97 -15.5q61 0 98.5 15t59.5 49t35 96q11 52 11 79q0 44 -24 61t-82 21h-90l16 78h83q55 4 86.5 16.5t50 42 t30.5 84.5q7 31 7 57q0 42 -28 58.5t-96 16.5q-65 0 -101.5 -12.5t-55.5 -41.5t-31 -85l-83 7q17 82 47 126.5t83 63.5t143 19q109 0 157.5 -32.5z" />
         <glyph glyph-name="uni04C0" unicode="Ӏ" d="M608 800l-16 -77h-162l-138 -646h163l-17 -77h-408l17 77h161l138 646h-162l16 77h408z" />
         <glyph glyph-name="uni04C1" unicode="Ӂ" d="M706 800l-250 -400h-3l80 -400h-90l-80 400h-2l-85 -400h-84l84 395l-247 -395h-96l250 400h3l-80 400h90l80 -400h1l85 400h84l-84 -398l248 398h96zM325 871q-30 20 -30 65q0 22 10 62h94q-10 -18 -17 -32.5t-7 -21.5q0 -9 11 -12t37 -3q43 0 59 9t16 33q0 12 -3 27h91 q-9 -57 -27.5 -88.5t-51 -45t-87.5 -13.5q-65 0 -95 20z" />
         <glyph glyph-name="uni04D0" unicode="Ӑ" d="M501 0h-85l-12 200h-253l-97 -200h-88l392 800h90zM376 661l-187 -383h210zM326 874q-30 20 -30 65q0 22 10 62h94q-10 -18 -17 -32.5t-7 -21.5q0 -9 11 -12t37 -3q43 0 59 9t16 33q0 12 -3 27h91q-9 -57 -27.5 -88.5t-51 -45t-87.5 -13.5q-65 0 -95 20z" />
         <glyph glyph-name="uni04D2" unicode="Ӓ" d="M501 0h-85l-12 200h-253l-97 -200h-88l392 800h90zM376 661l-187 -383h210zM274 911q-16 12 -16 37q0 11 3 26q7 32 24.5 45.5t52.5 13.5t51 -12t16 -37q0 -10 -3 -24q-8 -34 -25 -47.5t-53 -13.5q-34 0 -50 12zM490 911q-16 12 -16 37q0 11 3 26q7 32 24.5 45.5 t52.5 13.5t51 -12t16 -37q0 -10 -3 -24q-8 -34 -25 -47.5t-53 -13.5q-34 0 -50 12z" />
         <glyph glyph-name="uni04D4" unicode="Ӕ" d="M694 800l-15 -77h-214l-66 -307h141l-16 -78h-140l-56 -261h213l-17 -77h-297l52 246h-139l-115 -246h-87l375 800h381zM177 324h119l85 399h-17z" />
         <glyph glyph-name="uni04D6" unicode="Ӗ" d="M647 800l-16 -77h-375l-53 -261h238l-16 -78h-242l-63 -307h374l-17 -77h-458l170 800h458zM340 874q-30 20 -30 65q0 22 10 62h94q-10 -18 -17 -32.5t-7 -21.5q0 -9 11 -12t37 -3q43 0 59 9t16 33q0 12 -3 27h91q-9 -57 -27.5 -88.5t-51 -45t-87.5 -13.5q-65 0 -95 20z " />
         <glyph glyph-name="uni04DC" unicode="Ӝ" d="M706 800l-250 -400h-3l80 -400h-90l-80 400h-2l-85 -400h-84l84 395l-247 -395h-96l250 400h3l-80 400h90l80 -400h1l85 400h84l-84 -398l248 398h96zM273 908q-16 12 -16 37q0 11 3 26q7 32 24.5 45.5t52.5 13.5t51 -12t16 -37q0 -10 -3 -24q-8 -34 -25 -47.5t-53 -13.5 q-34 0 -50 12zM489 908q-16 12 -16 37q0 11 3 26q7 32 24.5 45.5t52.5 13.5t51 -12t16 -37q0 -10 -3 -24q-8 -34 -25 -47.5t-53 -13.5q-34 0 -50 12z" />
         <glyph glyph-name="uni04DE" unicode="Ӟ" d="M80 18q-48 32 -48 106q0 39 10 85l84 -7q-10 -45 -10 -67q0 -41 28 -56.5t97 -15.5q61 0 98.5 15t59.5 49t35 96q11 52 11 79q0 44 -24 61t-82 21h-90l16 78h83q55 4 86.5 16.5t50 42t30.5 84.5q7 31 7 57q0 42 -28 58.5t-96 16.5q-65 0 -101.5 -12.5t-55.5 -41.5 t-31 -85l-83 7q17 82 47 126.5t83 63.5t143 19q109 0 157.5 -32.5t48.5 -107.5q0 -39 -10 -83q-15 -70 -40 -106t-80 -65q27 -19 39.5 -45t12.5 -66q0 -33 -13 -100q-18 -85 -50 -133t-85.5 -69t-140.5 -21q-111 0 -159 32zM254 908q-16 12 -16 37q0 11 3 26q7 32 24.5 45.5 t52.5 13.5t51 -12t16 -37q0 -10 -3 -24q-8 -34 -25 -47.5t-53 -13.5q-34 0 -50 12zM470 908q-16 12 -16 37q0 11 3 26q7 32 24.5 45.5t52.5 13.5t51 -12t16 -37q0 -10 -3 -24q-8 -34 -25 -47.5t-53 -13.5q-34 0 -50 12z" />
         <glyph glyph-name="uni04E2" unicode="Ӣ" d="M637 800l-3 -4l-169 -796h-84l131 615l-417 -615h-93l1 2l170 798h84l-131 -617l418 617h93zM577 890h-308l16 78h308z" />
         <glyph glyph-name="uni04E4" unicode="Ӥ" d="M637 800l-3 -4l-169 -796h-84l131 615l-417 -615h-93l1 2l170 798h84l-131 -617l418 617h93zM273 908q-16 12 -16 37q0 11 3 26q7 32 24.5 45.5t52.5 13.5t51 -12t16 -37q0 -10 -3 -24q-8 -34 -25 -47.5t-53 -13.5q-34 0 -50 12zM489 908q-16 12 -16 37q0 11 3 26 q7 32 24.5 45.5t52.5 13.5t51 -12t16 -37q0 -10 -3 -24q-8 -34 -25 -47.5t-53 -13.5q-34 0 -50 12z" />
         <glyph glyph-name="uni04E6" unicode="Ӧ" d="M85 30.5q-48 44.5 -48 145.5q0 70 25 187l17 80q30 141 69 220.5t98.5 115t153.5 35.5q106 0 153.5 -44.5t47.5 -145.5q0 -76 -24 -187l-17 -80q-30 -141 -69 -220.5t-98.5 -115t-153.5 -35.5q-106 0 -154 44.5zM350 91q43 28 73 92.5t55 179.5l17 80q23 110 23 171 q0 68 -28 95.5t-92 27.5q-67 0 -110 -28t-73 -92.5t-54 -179.5l-17 -80q-23 -110 -23 -171q0 -67 28.5 -95t91.5 -28q66 0 109 28zM274 911q-16 12 -16 37q0 11 3 26q7 32 24.5 45.5t52.5 13.5t51 -12t16 -37q0 -10 -3 -24q-8 -34 -25 -47.5t-53 -13.5q-34 0 -50 12z M490 911q-16 12 -16 37q0 11 3 26q7 32 24.5 45.5t52.5 13.5t51 -12t16 -37q0 -10 -3 -24q-8 -34 -25 -47.5t-53 -13.5q-34 0 -50 12z" />
         <glyph glyph-name="uni04EC" unicode="Ӭ" d="M553.5 769.5q47.5 -44.5 47.5 -145.5q0 -76 -24 -187l-17 -80q-30 -141 -69 -220.5t-98.5 -115t-153.5 -35.5q-97 0 -145 38.5t-54 121.5l87 -7q10 -42 36 -59t78 -17q66 0 109 28t73 92t55 178h-246l16 78h246l1 4q23 110 23 171q0 68 -28 95.5t-92 27.5q-57 0 -95 -20 t-66 -63l-90 7q41 82 101 117.5t152 35.5q106 0 153.5 -44.5zM274 911q-16 12 -16 37q0 11 3 26q7 32 24.5 45.5t52.5 13.5t51 -12t16 -37q0 -10 -3 -24q-8 -34 -25 -47.5t-53 -13.5q-34 0 -50 12zM490 911q-16 12 -16 37q0 11 3 26q7 32 24.5 45.5t52.5 13.5t51 -12t16 -37 q0 -10 -3 -24q-8 -34 -25 -47.5t-53 -13.5q-34 0 -50 12z" />
         <glyph glyph-name="uni04EE" unicode="Ӯ" d="M590 800h87l-297 -613q-37 -75 -75 -119t-84.5 -63t-109.5 -19q-36 0 -59.5 8.5t-49.5 28.5l43 67q25 -17 38.5 -22t29.5 -5q40 0 67.5 8.5t50.5 30.5l-80 698h84l68 -587l6 12zM597 890h-308l16 78h308z" />
         <glyph glyph-name="uni04F0" unicode="Ӱ" d="M590 800h87l-297 -613q-37 -75 -75 -119t-84.5 -63t-109.5 -19q-36 0 -59.5 8.5t-49.5 28.5l43 67q25 -17 38.5 -22t29.5 -5q40 0 67.5 8.5t50.5 30.5l-80 698h84l68 -587l6 12zM293 908q-16 12 -16 37q0 11 3 26q7 32 24.5 45.5t52.5 13.5t51 -12t16 -37q0 -10 -3 -24 q-8 -34 -25 -47.5t-53 -13.5q-34 0 -50 12zM509 908q-16 12 -16 37q0 11 3 26q7 32 24.5 45.5t52.5 13.5t51 -12t16 -37q0 -10 -3 -24q-8 -34 -25 -47.5t-53 -13.5q-34 0 -50 12z" />
         <glyph glyph-name="uni04F2" unicode="Ӳ" d="M590 800h87l-297 -613q-37 -75 -75 -119t-84.5 -63t-109.5 -19q-36 0 -59.5 8.5t-49.5 28.5l43 67q25 -17 38.5 -22t29.5 -5q40 0 67.5 8.5t50.5 30.5l-80 698h84l68 -587l6 12zM463 997l-187 -139l-45 59l187 139zM683 997l-187 -139l-45 59l187 139z" />
         <glyph glyph-name="uni04F4" unicode="Ӵ" d="M618 800l-170 -800h-84l48 213q-26 -24 -61.5 -34.5t-82.5 -10.5q-96 0 -139.5 38.5t-43.5 128.5q0 64 21 160l65 305h84l-67 -312q-19 -89 -19 -143q0 -56 23.5 -78t77.5 -22q59 0 92.5 13.5t53 47.5t33.5 99l85 395h84zM274 908q-16 12 -16 37q0 11 3 26 q7 32 24.5 45.5t52.5 13.5t51 -12t16 -37q0 -10 -3 -24q-8 -34 -25 -47.5t-53 -13.5q-34 0 -50 12zM490 908q-16 12 -16 37q0 11 3 26q7 32 24.5 45.5t52.5 13.5t51 -12t16 -37q0 -10 -3 -24q-8 -34 -25 -47.5t-53 -13.5q-34 0 -50 12z" />
         <glyph glyph-name="uni04F8" unicode="Ӹ" d="M255 510q90 0 129.5 -32t39.5 -108q0 -50 -15 -122q-21 -97 -50 -150t-77 -75.5t-128 -22.5h-189l170 800h84l-61 -290h97zM419 0l170 800h84l-170 -800h-84zM339 353q0 44 -21.5 61.5t-71.5 17.5h-104l-75 -355h97q47 0 77.5 17.5t50.5 57.5t35 110q12 56 12 91z M273 908q-16 12 -16 37q0 11 3 26q7 32 24.5 45.5t52.5 13.5t51 -12t16 -37q0 -10 -3 -24q-8 -34 -25 -47.5t-53 -13.5q-34 0 -50 12zM489 908q-16 12 -16 37q0 11 3 26q7 32 24.5 45.5t52.5 13.5t51 -12t16 -37q0 -10 -3 -24q-8 -34 -25 -47.5t-53 -13.5q-34 0 -50 12z" />
         <glyph glyph-name="uni0414.loclBGR" d="M447 800l36 -723h40l-35 -165h-84l18 88h-376l-18 -88h-84l35 165h39l342 723h87zM375 656l-275 -579h303z" />
         <glyph glyph-name="uni041B.loclBGR" d="M50 0h-86l396 800h87l56 -800h-83l-45 656z" />
         <glyph glyph-name="uni0424.loclBGR" d="M449 812q98 -8 142 -56.5t44 -150.5q0 -83 -27 -211q-32 -150 -73.5 -236t-103 -126t-158.5 -45l-21 -100h-84l21 101q-98 8 -141.5 57t-43.5 152q0 84 27 211q32 149 73 234t102.5 125t158.5 46l21 99h84zM551 591q0 71 -28 105t-91 40l-142 -670q63 9 106.5 45 t74 107.5t55.5 189.5q25 119 25 183zM88 211q0 -72 28 -106t90 -40l142 669q-63 -9 -106 -45.5t-73.5 -107t-55.5 -187.5q-25 -119 -25 -183z" />
         <glyph glyph-name="uni0430" unicode="а" d="M541 32q-14 -21 -45.5 -33.5t-64.5 -12.5q-36 0 -58.5 18.5t-24.5 46.5q-2 14 0 18q-29 -38 -68.5 -60.5t-79.5 -22.5q-82 0 -131 51t-48 134q0 107 51.5 214.5t131.5 177t159 69.5t118 -24t39 -78q0 -14 -20.5 -111.5t-65.5 -306.5q-4 -22 -4 -28q0 -11 6 -16t20 -5 q12 0 25.5 10t23.5 26zM308.5 118.5q50.5 55.5 79.5 139.5q9 47 16 81t12 57q23 109 24 126q-2 19 -20 26t-64 7q-52 0 -112.5 -59.5t-102 -148t-41.5 -169.5q1 -52 30.5 -83.5t76.5 -31.5q51 0 101.5 55.5z" />
         <glyph glyph-name="uni0431" unicode="б" d="M79 20.5q-49 34.5 -49 118.5q0 44 14 111l50 233q17 82 59.5 143.5t103 95t130.5 33.5q71 0 119 14t52 34l87 -6q-12 -55 -82.5 -87t-177.5 -32q-74 0 -131.5 -56t-76.5 -145l-7 -19q33 28 70.5 39t94.5 11q111 0 159.5 -34t48.5 -118q0 -48 -15 -116 q-21 -100 -54.5 -154.5t-88.5 -77t-146 -22.5q-111 0 -160 34.5zM345.5 79.5q38.5 16.5 62 57t39.5 117.5q12 56 12 89q0 51 -28.5 69t-97.5 18q-66 0 -104.5 -16t-62 -56.5t-40.5 -118.5q-12 -54 -12 -89q0 -51 28.5 -69t98.5 -18q66 0 104.5 16.5z" />
         <glyph glyph-name="uni0432" unicode="в" d="M156 21.5q-46 35.5 -68.5 95t-22.5 131.5q0 93 36 181.5t104.5 145.5t160.5 57q93 0 136.5 -27.5t43.5 -90.5q0 -19 -7 -56q-9 -48 -30 -76t-64 -46q36 -12 52.5 -36t16.5 -65q0 -29 -7 -63q-14 -70 -42.5 -110.5t-75.5 -58t-121 -17.5q-66 0 -112 35.5zM293 371 q83 0 118.5 22t46.5 78q4 26 4 33q0 30 -21.5 40.5t-77.5 10.5q-85 0 -135 -55t-67 -129h132zM381 89.5q30 26.5 44 95.5q5 27 5 42q0 38 -26.5 52t-94.5 14h-165q-6 -27 -6 -58q0 -72 34.5 -122t112.5 -50q66 0 96 26.5z" />
         <glyph glyph-name="uni0433" unicode="г" d="M80.5 25.5q-50.5 39.5 -50.5 106.5q0 22 4 41q11 52 49 86t85 53t119 39q79 22 119 41.5t47 53.5q3 12 3 23q0 39 -30 62.5t-81 23.5q-53 0 -94.5 -37t-55.5 -98l-81 21q20 86 83.5 138.5t147.5 52.5q91 0 142.5 -41t51.5 -112q0 -24 -6 -50q-11 -47 -45.5 -77t-77 -46.5 t-111.5 -35.5q-58 -16 -92.5 -28.5t-60 -33.5t-32.5 -52q-2 -12 -2 -17q0 -35 29 -55.5t78 -20.5q66 0 115.5 38.5t66.5 102.5l83 -13q-21 -92 -94 -148.5t-171 -56.5q-88 0 -138.5 39.5z" />
         <glyph glyph-name="uni0453" unicode="ѓ" d="M80.5 25.5q-50.5 39.5 -50.5 106.5q0 22 4 41q11 52 49 86t85 53t119 39q79 22 119 41.5t47 53.5q3 12 3 23q0 39 -30 62.5t-81 23.5q-53 0 -94.5 -37t-55.5 -98l-81 21q20 86 83.5 138.5t147.5 52.5q91 0 142.5 -41t51.5 -112q0 -24 -6 -50q-11 -47 -45.5 -77t-77 -46.5 t-111.5 -35.5q-58 -16 -92.5 -28.5t-60 -33.5t-32.5 -52q-2 -12 -2 -17q0 -35 29 -55.5t78 -20.5q66 0 115.5 38.5t66.5 102.5l83 -13q-21 -92 -94 -148.5t-171 -56.5q-88 0 -138.5 39.5zM556 815l-187 -139l-45 59l187 139z" />
         <glyph glyph-name="uni0491" unicode="ґ" d="M526 618l29 139h84l-29 -139l-17 -77h-374l-115 -541h-84l132 618h374z" />
         <glyph glyph-name="uni0434" unicode="д" d="M79.5 21.5q-48.5 35.5 -48.5 119.5q0 48 13 109q21 97 54.5 150.5t89 77t146.5 23.5q54 0 87.5 -10.5t55.5 -32.5q0 33 -18 76t-49 84q-29 30 -71.5 60.5t-87.5 55.5l45 66q38 -16 79 -44t67 -61q58 -60 89.5 -123t31.5 -133q0 -35 -7 -69l-28 -131q-20 -98 -53.5 -152 t-89 -77.5t-146.5 -23.5q-111 0 -159.5 35.5zM345 79.5q39 16.5 62.5 56.5t38.5 113q12 53 12 86q0 51 -29 70t-98 19q-65 0 -104 -16.5t-62.5 -57t-38.5 -114.5q-12 -58 -12 -85q0 -50 29 -69t98 -19q65 0 104 16.5z" />
         <glyph glyph-name="uni0435" unicode="е" d="M134 292q-14 -72 -14 -115q0 -63 29 -88.5t95 -25.5q59 0 96.5 18.5t87.5 71.5l61 -50q-60 -67 -113.5 -92t-133.5 -25q-109 0 -157.5 41.5t-48.5 136.5q0 60 20 152q25 119 62 187t95.5 98.5t150.5 30.5q101 0 146 -40.5t45 -132.5q0 -66 -23 -170zM264.5 537.5 q-38.5 -17.5 -65 -57.5t-46.5 -110l311 3q7 53 7 76q0 59 -25 82.5t-84 23.5t-97.5 -17.5z" />
         <glyph glyph-name="uni0450" unicode="ѐ" d="M134 292q-14 -72 -14 -115q0 -63 29 -88.5t95 -25.5q59 0 96.5 18.5t87.5 71.5l61 -50q-60 -67 -113.5 -92t-133.5 -25q-109 0 -157.5 41.5t-48.5 136.5q0 60 20 152q25 119 62 187t95.5 98.5t150.5 30.5q101 0 146 -40.5t45 -132.5q0 -66 -23 -170zM264.5 537.5 q-38.5 -17.5 -65 -57.5t-46.5 -110l311 3q7 53 7 76q0 59 -25 82.5t-84 23.5t-97.5 -17.5zM438 735l-66 -59l-134 139l66 59z" />
         <glyph glyph-name="uni0451" unicode="ё" d="M134 292q-14 -72 -14 -115q0 -63 29 -88.5t95 -25.5q59 0 96.5 18.5t87.5 71.5l61 -50q-60 -67 -113.5 -92t-133.5 -25q-109 0 -157.5 41.5t-48.5 136.5q0 60 20 152q25 119 62 187t95.5 98.5t150.5 30.5q101 0 146 -40.5t45 -132.5q0 -66 -23 -170zM264.5 537.5 q-38.5 -17.5 -65 -57.5t-46.5 -110l311 3q7 53 7 76q0 59 -25 82.5t-84 23.5t-97.5 -17.5zM215 726q-16 12 -16 37q0 11 3 26q7 32 24.5 45.5t52.5 13.5t51 -12t16 -37q0 -10 -3 -24q-8 -34 -25 -47.5t-53 -13.5q-34 0 -50 12zM431 726q-16 12 -16 37q0 11 3 26 q7 32 24.5 45.5t52.5 13.5t51 -12t16 -37q0 -10 -3 -24q-8 -34 -25 -47.5t-53 -13.5q-34 0 -50 12z" />
         <glyph glyph-name="uni0436" unicode="ж" d="M654 618q-101 -100 -146 -171.5t-59 -137.5q-7 -31 -7 -65q0 -54 17.5 -112.5t53.5 -131.5h-93q-62 119 -62 225q0 22 3 44h-24l-60 -269h-84l60 269h-23q-19 -64 -61 -129.5t-116 -139.5h-107q95 90 144.5 164t68.5 145q8 31 8 69q0 53 -19 111.5t-59 128.5h97 q63 -120 63 -228q0 -29 -2 -43h23l61 271h84l-61 -271h23q18 63 59.5 129t117.5 142h100z" />
         <glyph glyph-name="uni0437" unicode="з" d="M75 12.5q-49 26.5 -49 89.5q0 21 7 58l82 -7q-3 -16 -3 -29q0 -35 28.5 -48t100.5 -13q89 0 128.5 22t51.5 78q5 25 5 40q0 36 -24.5 51t-86.5 20h-89l16 78h83q77 5 112.5 31t48.5 87q3 15 3 27q0 33 -29 45.5t-101 12.5q-88 0 -127.5 -20.5t-50.5 -71.5l-82 7 q14 64 41.5 98.5t79 49t141.5 14.5q78 0 124 -11t67.5 -36.5t21.5 -69.5q0 -28 -7 -59q-12 -56 -35.5 -87t-77.5 -59q29 -20 42 -43t13 -57q0 -29 -7 -61q-14 -64 -42 -98.5t-80 -49.5t-141 -15q-115 0 -164 26.5z" />
         <glyph glyph-name="uni0438" unicode="и" d="M30 586q14 21 45.5 33.5t64.5 12.5q38 0 60.5 -20t22.5 -53q0 -48 -20 -139.5t-58 -200.5q-16 -47 -16 -81q0 -75 80 -75q38 0 83.5 41t81.5 102.5t48 118.5l61 293h83l-111 -517q0 -3 -1 -6.5t-1 -8.5q0 -10 7 -16.5t18 -6.5q9 0 20 7t30 24l35 -62q-14 -21 -45.5 -33.5 t-64.5 -12.5q-36 0 -61 21.5t-25 54.5q0 14 4 26l9 28q-92 -130 -179 -130q-77 0 -116 33.5t-39 98.5q0 47 21 110q78 240 74 306q-1 10 -8 15.5t-18 5.5q-12 0 -25.5 -10t-23.5 -26z" />
         <glyph glyph-name="uni0439" unicode="й" d="M30 586q14 21 45.5 33.5t64.5 12.5q38 0 60.5 -20t22.5 -53q0 -48 -20 -139.5t-58 -200.5q-16 -47 -16 -81q0 -75 80 -75q38 0 83.5 41t81.5 102.5t48 118.5l61 293h83l-111 -517q0 -3 -1 -6.5t-1 -8.5q0 -10 7 -16.5t18 -6.5q9 0 20 7t30 24l35 -62q-14 -21 -45.5 -33.5 t-64.5 -12.5q-36 0 -61 21.5t-25 54.5q0 14 4 26l9 28q-92 -130 -179 -130q-77 0 -116 33.5t-39 98.5q0 47 21 110q78 240 74 306q-1 10 -8 15.5t-18 5.5q-12 0 -25.5 -10t-23.5 -26zM284 689q-30 20 -30 65q0 22 10 62h94q-10 -18 -17 -32.5t-7 -21.5q0 -9 11 -12t37 -3 q43 0 59 9t16 33q0 12 -3 27h91q-9 -57 -27.5 -88.5t-51 -45t-87.5 -13.5q-65 0 -95 20z" />
         <glyph glyph-name="uni045D" unicode="ѝ" d="M30 586q14 21 45.5 33.5t64.5 12.5q38 0 60.5 -20t22.5 -53q0 -48 -20 -139.5t-58 -200.5q-16 -47 -16 -81q0 -75 80 -75q38 0 83.5 41t81.5 102.5t48 118.5l61 293h83l-111 -517q0 -3 -1 -6.5t-1 -8.5q0 -10 7 -16.5t18 -6.5q9 0 20 7t30 24l35 -62q-14 -21 -45.5 -33.5 t-64.5 -12.5q-36 0 -61 21.5t-25 54.5q0 14 4 26l9 28q-92 -130 -179 -130q-77 0 -116 33.5t-39 98.5q0 47 21 110q78 240 74 306q-1 10 -8 15.5t-18 5.5q-12 0 -25.5 -10t-23.5 -26zM455 735l-66 -59l-134 139l66 59z" />
         <glyph glyph-name="uni043A" unicode="к" d="M640 616q-52 -27 -91.5 -65t-88.5 -97q-54 -63 -90.5 -97t-85.5 -51l209 -306h-102l-200 292h-59l-62 -292h-84l132 618h84l-53 -248h40q45 1 81.5 20t64 46t66.5 73q34 40 59.5 66.5t55.5 44.5z" />
         <glyph glyph-name="uni045C" unicode="ќ" d="M640 616q-52 -27 -91.5 -65t-88.5 -97q-54 -63 -90.5 -97t-85.5 -51l209 -306h-102l-200 292h-59l-62 -292h-84l132 618h84l-53 -248h40q45 1 81.5 20t64 46t66.5 73q34 40 59.5 66.5t55.5 44.5zM556 815l-187 -139l-45 59l187 139z" />
         <glyph glyph-name="uni043B" unicode="л" d="M542 42l-16 -17q-29 -32 -45 -43.5t-44 -11.5q-59 0 -59 94q0 45 10.5 102.5t30.5 145.5q18 77 26.5 123.5t8.5 78.5q0 56 -31 56q-38 0 -75 -71.5t-91 -214.5q-39 -103 -66.5 -165.5t-58.5 -105.5t-63 -43q-38 0 -63 23t-45 75l77 29q18 -43 28 -48q1 2 21 30.5 t76 173.5q64 165 100.5 243.5t73 115t86.5 36.5q105 0 105 -147q0 -53 -11 -113t-31 -147q-17 -73 -28 -133t-7 -60q5 0 16 16t16 24z" />
         <glyph glyph-name="uni043C" unicode="м" d="M61 0h-84l146 618h64l99 -363l256 363h67l-118 -618h-84l76 402l-177 -247h-75l-72 247z" />
         <glyph glyph-name="uni043D" unicode="н" d="M462 371l53 247h84l-132 -618h-84l63 293h-298l-63 -293h-84l132 618h84l-53 -247h298z" />
         <glyph glyph-name="uni043E" unicode="о" d="M94 26q-45 40 -45 132q0 64 21 158q25 119 60 187t90 98.5t141 30.5q100 0 145 -40t45 -132q0 -63 -21 -158q-25 -119 -60 -187t-90 -98.5t-141 -30.5q-100 0 -145 40zM338.5 86.5q38.5 23.5 64.5 78t47 151.5q18 84 18 134q0 58 -25.5 81.5t-83.5 23.5 q-59 0 -97.5 -23.5t-64.5 -78t-47 -151.5q-18 -84 -18 -134q0 -58 25.5 -81.5t83.5 -23.5q59 0 97.5 23.5z" />
         <glyph glyph-name="uni043F" unicode="п" d="M563 32q-13 -20 -45 -33t-65 -13q-37 0 -59 19t-23 51q-2 46 18 138.5t59 204.5q17 48 17 84t-18 54t-52 18q-38 0 -86 -41t-86.5 -102.5t-50.5 -118.5l-61 -293h-84l111 517q0 2 1.5 6t1.5 7q0 11 -7 18t-18 7q-9 0 -20 -7t-31 -24l-34 62q13 20 44.5 33t64.5 13 q36 0 61 -21.5t25 -54.5q0 -14 -4 -26l-8 -28q43 61 92.5 95.5t95.5 34.5q71 0 108.5 -33.5t37.5 -97.5q0 -48 -21 -111q-79 -239 -74 -306q0 -10 7 -15.5t18 -5.5q13 0 26 9.5t24 26.5z" />
         <glyph glyph-name="uni0440" unicode="р" d="M-30 -182l170 800h85l-10 -26q52 40 153 40q100 0 145 -40t45 -132q0 -62 -20 -157q-26 -120 -61 -188t-90 -98.5t-141 -30.5q-108 0 -142 57l-50 -225h-84zM345.5 86.5q38.5 23.5 64.5 78.5t47 152q18 83 18 133q0 58 -25.5 81.5t-83.5 23.5q-73 0 -118.5 -19.5 t-53.5 -56.5l-56 -265q-6 -30 -6 -54q0 -51 29 -74t87 -23q59 0 97.5 23.5z" />
         <glyph glyph-name="uni0441" unicode="с" d="M97.5 27.5q-49.5 41.5 -49.5 136.5q0 60 20 152q25 119 62.5 187t97 98.5t155.5 30.5q82 0 125 -27.5t73 -97.5l-75 -37q-16 35 -31 53t-36.5 25t-57.5 7q-69 0 -112.5 -23.5t-71.5 -77.5t-49 -152q-17 -80 -17 -127q0 -62 29.5 -87t98.5 -25q56 0 92.5 19t83.5 72 l64 -47q-60 -69 -112 -95t-130 -26q-110 0 -159.5 41.5z" />
         <glyph glyph-name="uni0442" unicode="т" d="M423 6q-22 20 -22 53q0 41 20 123.5t59 215.5q25 82 25 119q0 38 -26 38q-37 0 -59 -21.5t-39 -75t-40 -164.5l-61 -294h-82l83 396q9 42 15.5 75.5t6.5 50.5t-6.5 25t-22.5 8q-32 0 -50.5 -19t-35 -72t-41.5 -172l-61 -292h-83l111 517q0 3 1.5 6.5t1.5 7.5 q0 11 -6 17.5t-18 6.5q-9 0 -21 -7t-31 -24l-35 62q14 21 45.5 33.5t64.5 12.5q32 0 50 -16t22 -43q24 29 46 44t48 15q36 0 55 -11t25.5 -27t9.5 -40q30 42 55 60t60 18q100 0 100 -101q0 -55 -30 -142q-78 -227 -74 -305q1 -10 8 -15.5t18 -5.5q12 0 25 9.5t24 26.5 l36 -67q-14 -21 -45.5 -33.5t-64.5 -12.5q-39 0 -61 20z" />
         <glyph glyph-name="uni0443" unicode="у" d="M-25.5 -187.5q-23.5 8.5 -49.5 28.5l43 67q25 -17 38.5 -22t29.5 -5q61 0 99.5 29t81.5 106l-74 602h86l54 -491l267 491h91l-339 -612q-43 -79 -81.5 -122t-82 -61.5t-104.5 -18.5q-36 0 -59.5 8.5z" />
         <glyph glyph-name="uni045E" unicode="ў" d="M-25.5 -187.5q-23.5 8.5 -49.5 28.5l43 67q25 -17 38.5 -22t29.5 -5q61 0 99.5 29t81.5 106l-74 602h86l54 -491l267 491h91l-339 -612q-43 -79 -81.5 -122t-82 -61.5t-104.5 -18.5q-36 0 -59.5 8.5zM251 689q-30 20 -30 65q0 22 10 62h94q-10 -18 -17 -32.5t-7 -21.5 q0 -9 11 -12t37 -3q43 0 59 9t16 33q0 12 -3 27h91q-9 -57 -27.5 -88.5t-51 -45t-87.5 -13.5q-65 0 -95 20z" />
         <glyph glyph-name="uni0444" unicode="ф" d="M405 606q92 -7 133.5 -47t41.5 -124q0 -53 -17 -133q-22 -105 -55.5 -166.5t-88 -91t-140.5 -33.5l-41 -193h-84l41 194q-91 8 -133 48.5t-42 124.5q0 52 17 131q22 105 56 166t88.5 90.5t139.5 34.5l41 193h84zM497 423q0 53 -25 77t-83 29l-93 -438q54 6 89 30t58 70.5 t40 124.5q14 67 14 107zM103 196q0 -53 25 -77.5t83 -29.5l93 438q-54 -7 -89 -30.5t-58 -70t-40 -124.5q-14 -67 -14 -106z" />
         <glyph glyph-name="uni0445" unicode="х" d="M514 618h94l-260 -307l131 -311h-98l-98 233l-197 -233h-94l260 307l-131 311h98l98 -233z" />
         <glyph glyph-name="uni0447" unicode="ч" d="M379 4q-26 18 -26 46q0 3 2 13l47 209q-39 -55 -83.5 -87.5t-84.5 -32.5q-71 0 -106 29.5t-35 90.5q0 53 23 122q8 27 18 49q12 33 17 52t5 42q0 18 -20 18q-12 0 -24.5 -9.5t-21.5 -26.5l-44 68q12 19 43.5 32t64.5 13q39 0 63.5 -20.5t24.5 -53.5q0 -32 -7.5 -61.5 t-24.5 -81.5l-12 -35q-23 -69 -23 -101q0 -27 14.5 -38t45.5 -11q35 0 82.5 42.5t86.5 106t51 121.5l24 118h84l-122 -541v-1q0 -6 5.5 -9.5t14.5 -3.5q12 0 24.5 9.5t21.5 26.5l44 -68q-12 -19 -43.5 -32t-64.5 -13q-38 0 -64 18z" />
         <glyph glyph-name="uni0446" unicode="ц" d="M498 70q11 7 30 24l35 -62q-18 -26 -61 -39q0 -30 -17.5 -58t-48.5 -49q-18 -12 -40 -19t-41 -7q-18 0 -30 6l-2 82q15 -9 33 -9q19 0 33 11t21 22.5t6 20.5q-23 9 -36.5 27.5t-13.5 41.5q0 11 5 26l9 28q-92 -130 -179 -130q-77 0 -116 33.5t-39 98.5q0 47 21 110 q78 240 74 306q-1 10 -8 15.5t-18 5.5q-12 0 -25.5 -10t-23.5 -26l-36 67q14 21 45.5 33.5t64.5 12.5q38 0 60.5 -20t22.5 -53q0 -48 -20 -139.5t-58 -200.5q-16 -47 -16 -81q0 -75 80 -75q38 0 83.5 41t81.5 102.5t48 118.5l61 293h83l-111 -517q0 -3 -1 -6.5t-1 -8.5 q0 -10 7 -16.5t18 -6.5q9 0 20 7z" />
         <glyph glyph-name="uni0448" unicode="ш" d="M173.5 612q22.5 -20 22.5 -53q0 -41 -20 -123.5t-59 -215.5q-25 -82 -25 -119q0 -38 26 -38q37 0 59 21.5t39 75t40 164.5l60 294h83l-84 -396q-4 -18 -5 -26q-2 -9 -9 -45t-7 -54t6.5 -26t22.5 -8q32 0 50.5 19t35 72t41.5 172l61 292h83l-111 -517q0 -2 -1.5 -6 t-1.5 -7q0 -12 6 -18.5t18 -6.5q17 0 51 31l35 -62q-13 -20 -44.5 -33t-64.5 -13q-32 0 -50 16t-22 43q-24 -29 -46 -44t-48 -15q-36 0 -55 11t-25.5 27t-9.5 40q-31 -43 -55.5 -60.5t-59.5 -17.5q-100 0 -100 101q0 55 30 142q78 227 74 305q-1 10 -8 15.5t-18 5.5 q-12 0 -25.5 -10t-23.5 -26l-36 67q14 21 45.5 33.5t64.5 12.5q38 0 60.5 -20z" />
         <glyph glyph-name="uni0449" unicode="щ" d="M528 70q12 7 31 24l35 -62q-13 -19 -42 -32q2 -32 -15.5 -62t-50.5 -52q-18 -12 -40 -19t-41 -7q-18 0 -30 6l-2 82q15 -9 33 -9q19 0 33 11q24 19 27 38q-24 4 -37.5 19.5t-16.5 37.5q-24 -29 -46 -44t-48 -15q-36 0 -55 11t-25.5 27t-9.5 40q-30 -42 -55 -60t-60 -18 q-100 0 -100 101q0 55 30 142q78 227 74 305q-1 10 -8 15.5t-18 5.5q-12 0 -25 -9.5t-24 -26.5l-36 67q14 21 45.5 33.5t64.5 12.5q39 0 61 -20t22 -53q0 -41 -20 -123.5t-59 -215.5q-25 -82 -25 -119q0 -38 26 -38q37 0 59 21.5t39 75t40 164.5l61 294h82l-83 -396 q-9 -42 -15.5 -75.5t-6.5 -50.5t6.5 -25t22.5 -8q32 0 50.5 19t35 72t41.5 172l61 292h83l-111 -517q0 -3 -1.5 -6.5t-1.5 -7.5q0 -11 6 -17.5t18 -6.5q9 0 21 7z" />
         <glyph glyph-name="uni045F" unicode="џ" d="M30 586q14 21 45.5 33.5t64.5 12.5q38 0 60.5 -20t22.5 -53q0 -48 -20 -139.5t-58 -200.5q-16 -47 -16 -81q0 -75 80 -75q38 0 83.5 41t81.5 102.5t48 118.5l61 293h83l-111 -517q0 -3 -1 -6.5t-1 -8.5q0 -10 7 -16.5t18 -6.5q9 0 20 7t30 24l35 -62q-14 -21 -45.5 -33.5 t-64.5 -12.5q-36 0 -61 21.5t-25 54.5q0 14 4 26l9 28q-92 -130 -179 -130q-77 0 -116 33.5t-39 98.5q0 47 21 110q78 240 74 306q-1 10 -8 15.5t-18 5.5q-12 0 -25.5 -10t-23.5 -26zM254 -42h-84l-27 -126h84z" />
         <glyph glyph-name="uni044C" unicode="ь" d="M337 404q108 0 154.5 -29t46.5 -100q0 -30 -10 -80q-16 -77 -45.5 -118.5t-82 -59t-142.5 -17.5h-235l132 618h84l-45 -214h143zM453 255q0 40 -28 55.5t-97 15.5h-151l-53 -249h143q57 0 92.5 12.5t56 41t31.5 78.5q6 27 6 46z" />
         <glyph glyph-name="uni044A" unicode="ъ" d="M363 404q108 0 154.5 -29t46.5 -100q0 -36 -10 -80q-16 -77 -45.5 -118.5t-82 -59t-142.5 -17.5h-235l116 541h-107l17 77h191l-17 -77l-29 -137h143zM479 255q0 40 -28 55.5t-97 15.5h-151l-53 -249h144q84 0 123.5 29t55.5 103q6 27 6 46z" />
         <glyph glyph-name="uni044B" unicode="ы" d="M233 404q94 0 134.5 -28t40.5 -95q0 -34 -11 -86q-16 -77 -42.5 -118.5t-73.5 -59t-127 -17.5h-189l132 618h84l-45 -214h97zM419 0l132 618h84l-132 -618h-84zM323 262q0 36 -22.5 50t-76.5 14h-104l-53 -249h97q69 0 102.5 29t49.5 103q7 29 7 53z" />
         <glyph glyph-name="uni0459" unicode="љ" d="M449 404q72 0 104 -25.5t32 -86.5q0 -34 -13 -97q-16 -77 -39 -118.5t-61 -59t-102 -17.5h-129l115 541h-63q-71 -249 -111.5 -353.5t-93 -146t-150.5 -41.5l9 78q59 0 96.5 36.5t79.5 149t108 357.5l42 -3h184l-45 -214h37zM501 273q0 30 -14 41.5t-48 11.5h-43 l-53 -249h36q46 0 71.5 29t41.5 103q9 41 9 64z" />
         <glyph glyph-name="uni045A" unicode="њ" d="M429 404q82 0 118.5 -26.5t36.5 -90.5q0 -38 -12 -92q-16 -77 -40.5 -118.5t-67 -59t-114.5 -17.5h-162l70 326h-159l-70 -326h-84l132 618h84l-46 -214h159l46 214h84l-45 -214h70zM500 267q0 33 -18 46t-62 13h-78l-53 -249h71q57 0 86.5 29t45.5 103q8 37 8 58z" />
         <glyph glyph-name="uni0455" unicode="ѕ" d="M95.5 13q-39.5 27 -62.5 95l74 48q10 -39 21.5 -58.5t31.5 -27t56 -7.5q74 0 116.5 11t64.5 36.5t32 70.5q4 17 4 33q0 23 -12 36.5t-39 21.5t-77 14q-99 11 -145 42.5t-46 89.5q0 16 5 41q14 66 43.5 103t82.5 53.5t141 16.5q83 0 124.5 -23t67.5 -81l-70 -54 q-12 34 -26 51t-36 23.5t-62 6.5q-63 0 -99.5 -10.5t-56 -33.5t-28.5 -65q-2 -12 -2 -18q0 -27 26 -41t88 -23q75 -10 119 -26.5t65 -43.5t21 -70q0 -20 -7 -57q-15 -69 -47.5 -108t-91.5 -56t-157 -17q-79 0 -118.5 27z" />
         <glyph glyph-name="uni0454" unicode="є" d="M337.5 79.5q34.5 16.5 59.5 56.5l92 -7q-28 -56 -59.5 -86.5t-76 -43.5t-114.5 -13q-114 0 -163.5 36.5t-49.5 124.5q0 47 16 125l17 80q23 110 58 169.5t92 85t152 25.5q73 0 115 -14.5t62 -46.5t25 -89l-86 7q-8 38 -33.5 52t-84.5 14q-65 0 -106.5 -19.5t-67.5 -64.5 t-43 -123h245l-16 -78h-245l-1 -4q-13 -59 -13 -101q0 -57 29.5 -79.5t99.5 -22.5q62 0 96.5 16.5z" />
         <glyph glyph-name="uni044D" unicode="э" d="M524.5 595.5q49.5 -36.5 49.5 -124.5q0 -47 -16 -125l-17 -80q-23 -110 -58 -169.5t-92 -85t-152 -25.5q-73 0 -115 14.5t-62 46.5t-25 89l88 -7q8 -39 33 -52.5t83 -13.5q65 0 106.5 19.5t67.5 64.5t43 123h-245l16 78h245l1 4q13 59 13 101q0 57 -29.5 79.5t-99.5 22.5 q-63 0 -98 -16.5t-60 -56.5l-90 7q28 56 59.5 86.5t76 43.5t114.5 13q114 0 163.5 -36.5z" />
         <glyph glyph-name="uni0456" unicode="і" d="M434 618l-116 -541h176l-17 -77h-434l17 77h174l98 464h-125l17 77h210zM354.5 738.5q-14.5 9.5 -14.5 32.5q0 13 3 29q7 34 23.5 46.5t52.5 12.5q34 0 49 -9.5t15 -31.5q0 -14 -4 -29q-7 -34 -23 -47t-52 -13q-35 0 -49.5 9.5z" />
         <glyph glyph-name="uni0457" unicode="ї" d="M434 618l-116 -541h176l-17 -77h-434l17 77h174l98 464h-125l17 77h210zM243 726q-16 12 -16 37q0 11 3 26q7 32 24.5 45.5t52.5 13.5t51 -12t16 -37q0 -10 -3 -24q-8 -34 -25 -47.5t-53 -13.5q-34 0 -50 12zM459 726q-16 12 -16 37q0 11 3 26q7 32 24.5 45.5t52.5 13.5 t51 -12t16 -37q0 -10 -3 -24q-8 -34 -25 -47.5t-53 -13.5q-34 0 -50 12z" />
         <glyph glyph-name="uni0458" unicode="ј" d="M38 -179.5q-35 16.5 -63 57.5l67 48q19 -28 38 -36.5t60 -8.5q58 0 93.5 17t57.5 56.5t37 111.5l101 475h-126l17 77h210l-119 -559q-21 -98 -53 -153t-84 -78.5t-136 -23.5q-65 0 -100 16.5zM444.5 738.5q-14.5 9.5 -14.5 32.5q0 13 3 29q7 34 23.5 46.5t52.5 12.5 q34 0 49 -9.5t15 -31.5q0 -14 -4 -29q-7 -34 -23 -47t-52 -13q-35 0 -49.5 9.5z" />
         <glyph glyph-name="uni045B" unicode="ћ" d="M510.5 593.5q43.5 -38.5 43.5 -128.5q0 -64 -21 -160l-65 -305h-84l67 312q19 89 19 143q0 56 -23.5 78t-77.5 22q-59 0 -92.5 -13.5t-53 -47.5t-33.5 -99l-85 -395h-84l141 665h-73l16 77h74l12 58h84l-13 -58h121l-17 -77h-121l-18 -78q26 24 61.5 34.5t82.5 10.5 q96 0 139.5 -38.5z" />
         <glyph glyph-name="uni044E" unicode="ю" d="M576.5 598.5q39.5 -33.5 39.5 -112.5q0 -56 -18 -140l-17 -80q-24 -110 -54 -169.5t-77 -85t-124 -25.5q-89 0 -128.5 33.5t-39.5 112.5q0 56 18 138h-82l-58 -270h-84l132 618h84l-58 -270h82l1 4q24 110 54 169.5t77 85t124 25.5q89 0 128.5 -33.5zM515 352 q16 73 16 118q0 47 -20 66t-65 19q-48 0 -79 -20t-52.5 -65t-38.5 -124l-17 -80q-16 -73 -16 -118q0 -47 20 -66t65 -19q48 0 79 20t52.5 65t38.5 124z" />
         <glyph glyph-name="uni044F" unicode="я" d="M585 618l-132 -618h-84l52 245h-86l-269 -245h-109l271 247q-81 5 -117.5 33.5t-36.5 87.5q0 31 9 70q15 71 44 109.5t81 54.5t142 16h235zM437 322l47 219h-143q-85 0 -123.5 -25.5t-52.5 -90.5q-5 -25 -5 -38q0 -37 28.5 -51t98.5 -14h150z" />
         <glyph glyph-name="uni0452" unicode="ђ" d="M510.5 593.5q43.5 -38.5 43.5 -128.5q0 -64 -21 -160l-65 -305q-16 -73 -39 -109t-62 -48.5t-111 -12.5l16 77q42 0 61 5.5t30.5 24.5t20.5 63l67 312q19 89 19 143q0 56 -23.5 78t-77.5 22q-59 0 -92.5 -13.5t-53 -47.5t-33.5 -99l-85 -395h-84l141 665h-73l16 77h74 l12 58h84l-13 -58h121l-17 -77h-121l-18 -78q26 24 61.5 34.5t82.5 10.5q96 0 139.5 -38.5z" />
         <glyph glyph-name="uni0463" unicode="ѣ" d="M337 404q108 0 154.5 -29t46.5 -100q0 -30 -10 -80q-16 -77 -45.5 -118.5t-82 -59t-142.5 -17.5h-235l113 534h-75l17 78h75l40 188h84l-40 -188h180l-17 -78h-179l-28 -130h144zM453 255q0 40 -28 55.5t-97 15.5h-151l-53 -249h143q57 0 92.5 12.5t56 41t31.5 78.5 q6 27 6 46z" />
         <glyph glyph-name="uni046B" unicode="ѫ" d="M638 541h2l-214 -203q34 -25 49 -76.5t17 -141.5q3 -49 7.5 -68t21.5 -54l-85 4q-12 27 -16.5 49.5t-5.5 73.5q-4 59 -11.5 92t-23 49t-42.5 21l-61 -287h-84l60 285q-41 -10 -72.5 -48t-70.5 -124q-25 -49 -38 -69.5t-35 -45.5l-93 4q34 37 47.5 58.5t35.5 72.5 q43 90 79.5 138.5t80.5 71.5l-124 198h-2l17 77h578zM539 541h-382l111 -176q26 2 41 2l-4 -31l4 31q25 0 44 -3z" />
         <glyph glyph-name="uni0499" unicode="ҙ" d="M485 621q46 -11 67.5 -36.5t21.5 -69.5q0 -28 -7 -59q-12 -56 -35.5 -87t-77.5 -59q29 -20 42 -43t13 -57q0 -29 -7 -61q-13 -59 -37.5 -92.5t-68.5 -50t-117 -19.5l-10 -32q27 -7 44 -26.5t17 -45.5q0 -4 -2 -16q-9 -42 -46 -68t-89 -26q-35 0 -62.5 12.5t-38.5 31.5 l41 55q8 -10 25 -15.5t37 -5.5q19 0 34 8.5t18 21.5q2 10 -15.5 15.5t-50.5 5.5l15 85q-91 5 -130.5 31t-39.5 84q0 27 7 58l82 -7q-3 -16 -3 -29q0 -35 28.5 -48t100.5 -13q89 0 128.5 22t51.5 78q5 25 5 40q0 36 -24.5 51t-86.5 20h-89l16 78h83q77 5 112.5 31t48.5 87 q3 15 3 27q0 33 -29 45.5t-101 12.5q-88 0 -127.5 -20.5t-50.5 -71.5l-82 7q14 64 41.5 98.5t79 49t141.5 14.5q78 0 124 -11z" />
         <glyph glyph-name="uni04BB" unicode="һ" d="M21 0l170 800h84l-48 -213q26 24 61.5 34.5t82.5 10.5q96 0 139.5 -38.5t43.5 -128.5q0 -64 -21 -160l-65 -305h-84l67 312q19 89 19 143q0 56 -23.5 78t-77.5 22q-59 0 -92.5 -13.5t-53 -47.5t-33.5 -99l-85 -395h-84z" />
         <glyph glyph-name="uni04C2" unicode="ӂ" d="M654 618q-101 -100 -146 -171.5t-59 -137.5q-7 -31 -7 -65q0 -54 17.5 -112.5t53.5 -131.5h-93q-62 119 -62 225q0 22 3 44h-24l-60 -269h-84l60 269h-23q-19 -64 -61 -129.5t-116 -139.5h-107q95 90 144.5 164t68.5 145q8 31 8 69q0 53 -19 111.5t-59 128.5h97 q63 -120 63 -228q0 -29 -2 -43h23l61 271h84l-61 -271h23q18 63 59.5 129t117.5 142h100zM287 689q-30 20 -30 65q0 22 10 62h94q-10 -18 -17 -32.5t-7 -21.5q0 -9 11 -12t37 -3q43 0 59 9t16 33q0 12 -3 27h91q-9 -57 -27.5 -88.5t-51 -45t-87.5 -13.5q-65 0 -95 20z" />
         <glyph glyph-name="uni04D1" unicode="ӑ" d="M541 32q-14 -21 -45.5 -33.5t-64.5 -12.5q-36 0 -58.5 18.5t-24.5 46.5q-2 14 0 18q-29 -38 -68.5 -60.5t-79.5 -22.5q-82 0 -131 51t-48 134q0 107 51.5 214.5t131.5 177t159 69.5t118 -24t39 -78q0 -14 -20.5 -111.5t-65.5 -306.5q-4 -22 -4 -28q0 -11 6 -16t20 -5 q12 0 25.5 10t23.5 26zM308.5 118.5q50.5 55.5 79.5 139.5q9 47 16 81t12 57q23 109 24 126q-2 19 -20 26t-64 7q-52 0 -112.5 -59.5t-102 -148t-41.5 -169.5q1 -52 30.5 -83.5t76.5 -31.5q51 0 101.5 55.5zM287 689q-30 20 -30 65q0 22 10 62h94q-10 -18 -17 -32.5 t-7 -21.5q0 -9 11 -12t37 -3q43 0 59 9t16 33q0 12 -3 27h91q-9 -57 -27.5 -88.5t-51 -45t-87.5 -13.5q-65 0 -95 20z" />
         <glyph glyph-name="uni04D3" unicode="ӓ" d="M541 32q-14 -21 -45.5 -33.5t-64.5 -12.5q-36 0 -58.5 18.5t-24.5 46.5q-2 14 0 18q-29 -38 -68.5 -60.5t-79.5 -22.5q-82 0 -131 51t-48 134q0 107 51.5 214.5t131.5 177t159 69.5t118 -24t39 -78q0 -14 -20.5 -111.5t-65.5 -306.5q-4 -22 -4 -28q0 -11 6 -16t20 -5 q12 0 25.5 10t23.5 26zM308.5 118.5q50.5 55.5 79.5 139.5q9 47 16 81t12 57q23 109 24 126q-2 19 -20 26t-64 7q-52 0 -112.5 -59.5t-102 -148t-41.5 -169.5q1 -52 30.5 -83.5t76.5 -31.5q51 0 101.5 55.5zM235 726q-16 12 -16 37q0 11 3 26q7 32 24.5 45.5t52.5 13.5 t51 -12t16 -37q0 -10 -3 -24q-8 -34 -25 -47.5t-53 -13.5q-34 0 -50 12zM451 726q-16 12 -16 37q0 11 3 26q7 32 24.5 45.5t52.5 13.5t51 -12t16 -37q0 -10 -3 -24q-8 -34 -25 -47.5t-53 -13.5q-34 0 -50 12z" />
         <glyph glyph-name="uni04D5" unicode="ӕ" d="M-0.5 12q-31.5 26 -31.5 85q0 37 10 83q16 75 41.5 115.5t68.5 57.5t114 17h68l11 50q11 52 11 77q0 33 -16 45.5t-54 12.5q-31 0 -51 -22.5t-45 -85.5l-79 27q24 62 48 95.5t54.5 48t74.5 14.5q57 0 86.5 -19.5t38.5 -62.5q30 46 62.5 64t85.5 18q63 0 92.5 -33.5 t29.5 -107.5t-29 -202h-253q-21 -99 -21 -150q0 -41 14.5 -58.5t46.5 -17.5q36 0 62.5 20t51.5 71l62 -50q-32 -66 -73 -92t-106 -26q-50 0 -77.5 20.5t-40.5 66.5q-29 -49 -64.5 -68t-90.5 -19q-70 0 -101.5 26zM524 373q16 79 16 121q0 33 -10.5 47t-34.5 14 q-38 0 -63.5 -18t-44 -58.5t-34.5 -112.5zM168.5 78q24.5 15 40.5 50t30 99l15 65h-61q-42 0 -67 -10t-40.5 -36.5t-26.5 -78.5q-8 -40 -8 -59q0 -26 12 -35.5t41 -9.5q40 0 64.5 15z" />
         <glyph glyph-name="uni04D7" unicode="ӗ" d="M134 292q-14 -72 -14 -115q0 -63 29 -88.5t95 -25.5q59 0 96.5 18.5t87.5 71.5l61 -50q-60 -67 -113.5 -92t-133.5 -25q-109 0 -157.5 41.5t-48.5 136.5q0 60 20 152q25 119 62 187t95.5 98.5t150.5 30.5q101 0 146 -40.5t45 -132.5q0 -66 -23 -170zM264.5 537.5 q-38.5 -17.5 -65 -57.5t-46.5 -110l311 3q7 53 7 76q0 59 -25 82.5t-84 23.5t-97.5 -17.5zM267 689q-30 20 -30 65q0 22 10 62h94q-10 -18 -17 -32.5t-7 -21.5q0 -9 11 -12t37 -3q43 0 59 9t16 33q0 12 -3 27h91q-9 -57 -27.5 -88.5t-51 -45t-87.5 -13.5q-65 0 -95 20z" />
         <glyph glyph-name="uni04DD" unicode="ӝ" d="M654 618q-101 -100 -146 -171.5t-59 -137.5q-7 -31 -7 -65q0 -54 17.5 -112.5t53.5 -131.5h-93q-62 119 -62 225q0 22 3 44h-24l-60 -269h-84l60 269h-23q-19 -64 -61 -129.5t-116 -139.5h-107q95 90 144.5 164t68.5 145q8 31 8 69q0 53 -19 111.5t-59 128.5h97 q63 -120 63 -228q0 -29 -2 -43h23l61 271h84l-61 -271h23q18 63 59.5 129t117.5 142h100zM235 726q-16 12 -16 37q0 11 3 26q7 32 24.5 45.5t52.5 13.5t51 -12t16 -37q0 -10 -3 -24q-8 -34 -25 -47.5t-53 -13.5q-34 0 -50 12zM451 726q-16 12 -16 37q0 11 3 26 q7 32 24.5 45.5t52.5 13.5t51 -12t16 -37q0 -10 -3 -24q-8 -34 -25 -47.5t-53 -13.5q-34 0 -50 12z" />
         <glyph glyph-name="uni04DF" unicode="ӟ" d="M75 12.5q-49 26.5 -49 89.5q0 21 7 58l82 -7q-3 -16 -3 -29q0 -35 28.5 -48t100.5 -13q89 0 128.5 22t51.5 78q5 25 5 40q0 36 -24.5 51t-86.5 20h-89l16 78h83q77 5 112.5 31t48.5 87q3 15 3 27q0 33 -29 45.5t-101 12.5q-88 0 -127.5 -20.5t-50.5 -71.5l-82 7 q14 64 41.5 98.5t79 49t141.5 14.5q78 0 124 -11t67.5 -36.5t21.5 -69.5q0 -28 -7 -59q-12 -56 -35.5 -87t-77.5 -59q29 -20 42 -43t13 -57q0 -29 -7 -61q-14 -64 -42 -98.5t-80 -49.5t-141 -15q-115 0 -164 26.5zM235 726q-16 12 -16 37q0 11 3 26q7 32 24.5 45.5 t52.5 13.5t51 -12t16 -37q0 -10 -3 -24q-8 -34 -25 -47.5t-53 -13.5q-34 0 -50 12zM451 726q-16 12 -16 37q0 11 3 26q7 32 24.5 45.5t52.5 13.5t51 -12t16 -37q0 -10 -3 -24q-8 -34 -25 -47.5t-53 -13.5q-34 0 -50 12z" />
         <glyph glyph-name="uni04E3" unicode="ӣ" d="M30 586q14 21 45.5 33.5t64.5 12.5q38 0 60.5 -20t22.5 -53q0 -48 -20 -139.5t-58 -200.5q-16 -47 -16 -81q0 -75 80 -75q38 0 83.5 41t81.5 102.5t48 118.5l61 293h83l-111 -517q0 -3 -1 -6.5t-1 -8.5q0 -10 7 -16.5t18 -6.5q9 0 20 7t30 24l35 -62q-14 -21 -45.5 -33.5 t-64.5 -12.5q-36 0 -61 21.5t-25 54.5q0 14 4 26l9 28q-92 -130 -179 -130q-77 0 -116 33.5t-39 98.5q0 47 21 110q78 240 74 306q-1 10 -8 15.5t-18 5.5q-12 0 -25.5 -10t-23.5 -26zM536 708h-308l16 78h308z" />
         <glyph glyph-name="uni04E5" unicode="ӥ" d="M30 586q14 21 45.5 33.5t64.5 12.5q38 0 60.5 -20t22.5 -53q0 -48 -20 -139.5t-58 -200.5q-16 -47 -16 -81q0 -75 80 -75q38 0 83.5 41t81.5 102.5t48 118.5l61 293h83l-111 -517q0 -3 -1 -6.5t-1 -8.5q0 -10 7 -16.5t18 -6.5q9 0 20 7t30 24l35 -62q-14 -21 -45.5 -33.5 t-64.5 -12.5q-36 0 -61 21.5t-25 54.5q0 14 4 26l9 28q-92 -130 -179 -130q-77 0 -116 33.5t-39 98.5q0 47 21 110q78 240 74 306q-1 10 -8 15.5t-18 5.5q-12 0 -25.5 -10t-23.5 -26zM232 726q-16 12 -16 37q0 11 3 26q7 32 24.5 45.5t52.5 13.5t51 -12t16 -37q0 -10 -3 -24 q-8 -34 -25 -47.5t-53 -13.5q-34 0 -50 12zM448 726q-16 12 -16 37q0 11 3 26q7 32 24.5 45.5t52.5 13.5t51 -12t16 -37q0 -10 -3 -24q-8 -34 -25 -47.5t-53 -13.5q-34 0 -50 12z" />
         <glyph glyph-name="uni04E7" unicode="ӧ" d="M94 26q-45 40 -45 132q0 64 21 158q25 119 60 187t90 98.5t141 30.5q100 0 145 -40t45 -132q0 -63 -21 -158q-25 -119 -60 -187t-90 -98.5t-141 -30.5q-100 0 -145 40zM338.5 86.5q38.5 23.5 64.5 78t47 151.5q18 84 18 134q0 58 -25.5 81.5t-83.5 23.5 q-59 0 -97.5 -23.5t-64.5 -78t-47 -151.5q-18 -84 -18 -134q0 -58 25.5 -81.5t83.5 -23.5q59 0 97.5 23.5zM235 726q-16 12 -16 37q0 11 3 26q7 32 24.5 45.5t52.5 13.5t51 -12t16 -37q0 -10 -3 -24q-8 -34 -25 -47.5t-53 -13.5q-34 0 -50 12zM451 726q-16 12 -16 37 q0 11 3 26q7 32 24.5 45.5t52.5 13.5t51 -12t16 -37q0 -10 -3 -24q-8 -34 -25 -47.5t-53 -13.5q-34 0 -50 12z" />
         <glyph glyph-name="uni04ED" unicode="ӭ" d="M524.5 595.5q49.5 -36.5 49.5 -124.5q0 -47 -16 -125l-17 -80q-23 -110 -58 -169.5t-92 -85t-152 -25.5q-73 0 -115 14.5t-62 46.5t-25 89l88 -7q8 -39 33 -52.5t83 -13.5q65 0 106.5 19.5t67.5 64.5t43 123h-245l16 78h245l1 4q13 59 13 101q0 57 -29.5 79.5t-99.5 22.5 q-63 0 -98 -16.5t-60 -56.5l-90 7q28 56 59.5 86.5t76 43.5t114.5 13q114 0 163.5 -36.5zM235 726q-16 12 -16 37q0 11 3 26q7 32 24.5 45.5t52.5 13.5t51 -12t16 -37q0 -10 -3 -24q-8 -34 -25 -47.5t-53 -13.5q-34 0 -50 12zM451 726q-16 12 -16 37q0 11 3 26 q7 32 24.5 45.5t52.5 13.5t51 -12t16 -37q0 -10 -3 -24q-8 -34 -25 -47.5t-53 -13.5q-34 0 -50 12z" />
         <glyph glyph-name="uni04EF" unicode="ӯ" d="M-25.5 -187.5q-23.5 8.5 -49.5 28.5l43 67q25 -17 38.5 -22t29.5 -5q61 0 99.5 29t81.5 106l-74 602h86l54 -491l267 491h91l-339 -612q-43 -79 -81.5 -122t-82 -61.5t-104.5 -18.5q-36 0 -59.5 8.5zM503 708h-308l16 78h308z" />
         <glyph glyph-name="uni04F1" unicode="ӱ" d="M-25.5 -187.5q-23.5 8.5 -49.5 28.5l43 67q25 -17 38.5 -22t29.5 -5q61 0 99.5 29t81.5 106l-74 602h86l54 -491l267 491h91l-339 -612q-43 -79 -81.5 -122t-82 -61.5t-104.5 -18.5q-36 0 -59.5 8.5zM199 726q-16 12 -16 37q0 11 3 26q7 32 24.5 45.5t52.5 13.5t51 -12 t16 -37q0 -10 -3 -24q-8 -34 -25 -47.5t-53 -13.5q-34 0 -50 12zM415 726q-16 12 -16 37q0 11 3 26q7 32 24.5 45.5t52.5 13.5t51 -12t16 -37q0 -10 -3 -24q-8 -34 -25 -47.5t-53 -13.5q-34 0 -50 12z" />
         <glyph glyph-name="uni04F3" unicode="ӳ" d="M-25.5 -187.5q-23.5 8.5 -49.5 28.5l43 67q25 -17 38.5 -22t29.5 -5q61 0 99.5 29t81.5 106l-74 602h86l54 -491l267 491h91l-339 -612q-43 -79 -81.5 -122t-82 -61.5t-104.5 -18.5q-36 0 -59.5 8.5zM369 815l-187 -139l-45 59l187 139zM589 815l-187 -139l-45 59 l187 139z" />
         <glyph glyph-name="uni04F5" unicode="ӵ" d="M379 4q-26 18 -26 46q0 3 2 13l47 209q-39 -55 -83.5 -87.5t-84.5 -32.5q-71 0 -106 29.5t-35 90.5q0 53 23 122q8 27 18 49q12 33 17 52t5 42q0 18 -20 18q-12 0 -24.5 -9.5t-21.5 -26.5l-44 68q12 19 43.5 32t64.5 13q39 0 63.5 -20.5t24.5 -53.5q0 -32 -7.5 -61.5 t-24.5 -81.5l-12 -35q-23 -69 -23 -101q0 -27 14.5 -38t45.5 -11q35 0 82.5 42.5t86.5 106t51 121.5l24 118h84l-122 -541v-1q0 -6 5.5 -9.5t14.5 -3.5q12 0 24.5 9.5t21.5 26.5l44 -68q-12 -19 -43.5 -32t-64.5 -13q-38 0 -64 18zM235 726q-16 12 -16 37q0 11 3 26 q7 32 24.5 45.5t52.5 13.5t51 -12t16 -37q0 -10 -3 -24q-8 -34 -25 -47.5t-53 -13.5q-34 0 -50 12zM451 726q-16 12 -16 37q0 11 3 26q7 32 24.5 45.5t52.5 13.5t51 -12t16 -37q0 -10 -3 -24q-8 -34 -25 -47.5t-53 -13.5q-34 0 -50 12z" />
         <glyph glyph-name="uni04F9" unicode="ӹ" d="M233 404q94 0 134.5 -28t40.5 -95q0 -34 -11 -86q-16 -77 -42.5 -118.5t-73.5 -59t-127 -17.5h-189l132 618h84l-45 -214h97zM419 0l132 618h84l-132 -618h-84zM323 262q0 36 -22.5 50t-76.5 14h-104l-53 -249h97q69 0 102.5 29t49.5 103q7 29 7 53zM235 726 q-16 12 -16 37q0 11 3 26q7 32 24.5 45.5t52.5 13.5t51 -12t16 -37q0 -10 -3 -24q-8 -34 -25 -47.5t-53 -13.5q-34 0 -50 12zM451 726q-16 12 -16 37q0 11 3 26q7 32 24.5 45.5t52.5 13.5t51 -12t16 -37q0 -10 -3 -24q-8 -34 -25 -47.5t-53 -13.5q-34 0 -50 12z" />
         <glyph glyph-name="uni0432.loclBGR" d="M524.5 518q-23.5 -35 -71.5 -62q55 -17 81 -50t26 -89q0 -35 -11 -88q-21 -99 -54 -155t-87.5 -80t-142.5 -24q-119 0 -169 42.5t-50 139.5q0 73 27 198l48 229q26 122 88 186.5t175 64.5q99 0 143 -30.5t44 -101.5q0 -37 -10 -83q-13 -62 -36.5 -97zM488 686 q0 38 -24 52t-83 14q-75 0 -117 -48t-60 -132l-17 -80h147q46 4 74 17.5t44.5 41.5t27.5 78q8 37 8 57zM477 312q0 52 -34 74.5t-118 27.5h-155l-34 -158q-12 -57 -12 -97q0 -61 33 -86t111 -25q61 0 99 17.5t61.5 59.5t39.5 118q9 41 9 69z" />
         <glyph glyph-name="uni0433.loclBGR" d="M81 25.5q-50 39.5 -50 106.5q0 18 5 41q11 52 49 86t85 53t120 39q79 22 118.5 41.5t47.5 53.5q2 14 2 22q0 40 -30.5 63.5t-82.5 23.5q-53 0 -95.5 -37t-56.5 -98l-77 21q20 86 82.5 138.5t146.5 52.5q90 0 141.5 -41t51.5 -111q0 -20 -7 -52q-11 -47 -45.5 -77 t-76.5 -46t-112 -35q-58 -16 -92.5 -28.5t-60 -33.5t-32.5 -52q-1 -5 -1 -16q0 -35 29 -56t79 -21q66 0 116.5 39t67.5 102l80 -13q-21 -92 -93.5 -148.5t-170.5 -56.5q-88 0 -138 39.5z" />
         <glyph glyph-name="uni0434.loclBGR" d="M98 -179.5q-35 16.5 -63 57.5l67 48q19 -28 38 -36.5t60 -8.5q58 0 93 15.5t56 52t35 101.5l13 43q-54 -54 -157 -54q-99 0 -143.5 40t-44.5 132q0 62 22 166q20 96 53 151t86.5 79.5t138.5 24.5q107 0 144 -44l10 30h84l-121 -566q-20 -95 -51.5 -148t-83.5 -76.5 t-136 -23.5q-65 0 -100 16.5zM433 274l45 212q1 4 1 12q0 57 -129 57q-60 0 -97 -18t-60 -59t-39 -115q-19 -93 -19 -141q0 -58 25.5 -82t82.5 -24q155 0 190 158z" />
         <glyph glyph-name="uni0436.loclBGR" d="M654 618q-101 -100 -146 -171.5t-59 -137.5q-7 -31 -7 -65q0 -54 17.5 -112.5t53.5 -131.5h-93q-62 119 -62 225q0 22 3 44h-24l-60 -269h-84l60 269h-23q-19 -64 -61 -129.5t-116 -139.5h-107q95 90 144.5 164t68.5 145q8 31 8 69q0 53 -19 111.5t-59 128.5h97 q63 -120 63 -228q0 -29 -2 -43h23l61 271h84l-61 -271h23q18 63 59.5 129t117.5 142h100z" />
         <glyph glyph-name="uni0437.loclBGR" d="M48.5 -166q-45.5 30 -45.5 103q0 35 11 90l83 -7q-9 -38 -9 -63q0 -43 26 -59.5t88 -16.5q57 0 92 15t56.5 49.5t34.5 95.5q10 44 10 78q0 42 -21.5 60.5t-73.5 22.5h-89l15 78h83q72 5 106.5 36.5t50.5 106.5q7 32 7 57q0 42 -26 58.5t-88 16.5q-83 0 -122 -31t-55 -108 l-84 7q18 83 47 127.5t79.5 63t136.5 18.5q106 0 151.5 -30t45.5 -103q0 -35 -11 -90q-14 -69 -39 -105.5t-80 -65.5q26 -20 38.5 -45.5t12.5 -64.5q0 -34 -13 -101q-18 -87 -48 -135t-81 -68t-137 -20q-106 0 -151.5 30z" />
         <glyph glyph-name="uni0438.loclBGR" d="M91 18q-40 32 -40 106q0 46 13 105l83 389h84l-84 -396q-12 -54 -12 -87q0 -41 20 -56.5t69 -15.5q67 0 106 13t60 42.5t33 83.5l89 416h84l-132 -618h-84l10 31q-32 -25 -70.5 -35t-97.5 -10q-91 0 -131 32z" />
         <glyph glyph-name="uni0439.loclBGR" d="M91 18q-40 32 -40 106q0 46 13 105l83 389h84l-84 -396q-12 -54 -12 -87q0 -41 20 -56.5t69 -15.5q67 0 106 13t60 42.5t33 83.5l89 416h84l-132 -618h-84l10 31q-32 -25 -70.5 -35t-97.5 -10q-91 0 -131 32zM287 689q-30 20 -30 65q0 22 10 62h94q-10 -18 -17 -32.5 t-7 -21.5q0 -9 11 -12t37 -3q43 0 59 9t16 33q0 12 -3 27h91q-9 -57 -27.5 -88.5t-51 -45t-87.5 -13.5q-65 0 -95 20z" />
         <glyph glyph-name="uni045D.loclBGR" d="M91 18q-40 32 -40 106q0 46 13 105l83 389h84l-84 -396q-12 -54 -12 -87q0 -41 20 -56.5t69 -15.5q67 0 106 13t60 42.5t33 83.5l89 416h84l-132 -618h-84l10 31q-32 -25 -70.5 -35t-97.5 -10q-91 0 -131 32zM458 735l-66 -59l-134 139l66 59z" />
         <glyph glyph-name="uni043A.loclBGR" d="M127 0h-84l170 800h84l-91 -430h25l253 248h104l-289 -285l196 -333h-99l-175 292h-31z" />
         <glyph glyph-name="uni043B.loclBGR" d="M51 0h-87l357 618h87l95 -618h-83l-76 504z" />
         <glyph glyph-name="uni043F.loclBGR" d="M15 0l132 618h84l-11 -36q34 26 73 38t96 12q91 0 131.5 -31t40.5 -104q0 -47 -15 -113l-82 -384h-84l83 391q12 56 12 89q0 41 -20.5 58t-67.5 17q-69 0 -108 -13.5t-60.5 -47.5t-34.5 -99l-85 -395h-84z" />
         <glyph glyph-name="uni0442.loclBGR" d="M-26 0l132 618h85l-9 -23q25 21 44.5 28.5t46.5 7.5q40 0 59 -16t26 -55q36 42 63 56.5t69 14.5q55 0 79.5 -25t24.5 -84q0 -51 -18 -135l-82 -387h-84l84 394q16 82 16 109q0 23 -7.5 32.5t-22.5 9.5q-49 0 -75.5 -34t-44.5 -119l-84 -392h-84l83 388q17 82 17 115 q0 23 -7 32.5t-23 9.5q-48 0 -75 -34t-45 -119l-84 -392h-84z" />
         <glyph glyph-name="uni0446.loclBGR" d="M579 618l-116 -544h59l-41 -192h-84l25 118h-59l10 31q-32 -25 -70.5 -35t-97.5 -10q-91 0 -131 32t-40 106q0 46 13 105l83 389h84l-84 -396q-12 -54 -12 -87q0 -41 20 -56.5t69 -15.5q67 0 106 13t60.5 42.5t33.5 83.5l88 416h84z" />
         <glyph glyph-name="uni0448.loclBGR" d="M626 618l-132 -618h-85l9 23q-25 -21 -44.5 -28.5t-46.5 -7.5q-40 0 -59 16t-26 55q-36 -42 -63 -56.5t-69 -14.5q-55 0 -79.5 25t-24.5 84q0 51 18 135l82 387h84l-84 -394q-16 -82 -16 -109q0 -23 7.5 -32.5t22.5 -9.5q49 0 75.5 34t44.5 119l84 392h84l-83 -388 q-17 -82 -17 -115q0 -23 7 -32.5t23 -9.5q48 0 75 34t45 119l84 392h84z" />
         <glyph glyph-name="uni0449.loclBGR" d="M601 618l-116 -544h54l-41 -192h-84l25 118h-55l9 23q-25 -21 -44.5 -28.5t-46.5 -7.5q-40 0 -59 16t-26 55q-36 -42 -63 -56.5t-69 -14.5q-55 0 -79.5 25t-24.5 84q0 51 18 135l82 387h84l-84 -394q-16 -82 -16 -109q0 -23 7.5 -32.5t22.5 -9.5q49 0 75.5 34t44.5 119 l84 392h84l-83 -388q-17 -82 -17 -115q0 -23 7 -32.5t23 -9.5q48 0 75 34t45 119l84 392h84z" />
         <glyph glyph-name="uni044C.loclBGR" d="M102.5 16q-47.5 30 -47.5 101q0 30 10 80l90 421h84l-59 -264q33 29 66 39.5t88 10.5q109 0 156.5 -30t47.5 -102q0 -34 -11 -84q-17 -79 -46.5 -122t-81 -61.5t-139.5 -18.5q-110 0 -157.5 30zM357 76q36 13 57 43t32 83q7 35 7 51q0 41 -27.5 57t-93.5 16 q-59 0 -95.5 -13t-57.5 -43t-32 -83q-6 -28 -6 -50q0 -41 27.5 -57.5t93.5 -16.5q59 0 95 13z" />
         <glyph glyph-name="uni044A.loclBGR" d="M517.5 374q47.5 -30 47.5 -102q0 -34 -11 -84q-17 -79 -46.5 -122t-81 -61.5t-139.5 -18.5q-110 0 -157.5 29.5t-47.5 101.5q0 36 10 80l74 344h-101l16 77h185l-17 -77l-42 -187q33 29 66 39.5t88 10.5q109 0 156.5 -30zM479 253q0 41 -27 57t-93 16q-59 0 -95.5 -13 t-57.5 -43t-32 -83q-6 -28 -6 -50q0 -41 27.5 -57.5t93.5 -16.5q59 0 95 13t57 43t32 83q6 30 6 51z" />
         <glyph glyph-name="uni044E.loclBGR" d="M576.5 598.5q39.5 -33.5 39.5 -112.5q0 -56 -18 -140l-17 -80q-24 -110 -54 -169.5t-77 -85t-124 -25.5q-89 0 -128.5 33.5t-39.5 112.5q0 56 18 138h-82l-58 -270h-84l132 618l38 182h84l-38 -182l-58 -270h82l1 4q24 110 54 169.5t77 85t124 25.5q89 0 128.5 -33.5z M515 352q16 73 16 118q0 47 -20 66t-65 19q-48 0 -79 -20t-52.5 -65t-38.5 -124l-17 -80q-16 -73 -16 -118q0 -47 20 -66t65 -19q48 0 79 20t52.5 65t38.5 124z" />
         <glyph glyph-name="uni0431.loclSRB" d="M276 661q-41 -27 -50 -70q-2 -10 -2 -15q0 -31 28 -53.5t79 -30.5h1q106 0 152 -33t46 -113q0 -46 -15 -114q-20 -96 -51.5 -148.5t-84 -75t-140.5 -22.5q-106 0 -152 33t-46 114q0 45 14 113q20 95 51.5 147.5t84.5 75.5q-50 42 -50 103q0 10 4 32q15 73 78.5 117 t153.5 44q69 0 121.5 11t66.5 27l40 -62q-10 -25 -72 -39t-158 -14q-58 0 -99 -27zM445 326q0 50 -26.5 69.5t-88.5 19.5q-59 0 -96 -17.5t-60.5 -56.5t-38.5 -109q-10 -46 -10 -80q0 -49 26.5 -69t89.5 -20q59 0 96 17.5t60 56.5t38 109q10 46 10 80z" />
         </font>
</defs>
</svg>
