<?xml version="1.0" encoding="UTF-8"?>
<!DOCTYPE svg PUBLIC "-//W3C//DTD SVG 1.1//EN" "http://www.w3.org/Graphics/SVG/1.1/DTD/svg11.dtd">
<svg xmlns="http://www.w3.org/2000/svg" xmlns:xlink="http://www.w3.org/1999/xlink" version="1.1">
   <metadata>Created by FontForge 20170812 at Tue Nov  3 11:52:57 2020
 By www-data
Copyright (c) 2019 by Rune Bjrneras. All rights reserved.</metadata>
   <defs>
      <font id="VictorMono-SemiBold" horiz-adv-x="600">
         <font-face font-family="Victor Mono SemiBold" font-weight="600" font-stretch="normal" units-per-em="1100" panose-1="0 0 7 9 0 0 0 0 0 0" ascent="880" descent="-220" x-height="618" cap-height="800" bbox="-1794 -529 760 1306" underline-thickness="50" underline-position="-100" unicode-range="U+0020-E0B3" />
         <missing-glyph d="M422 0h-354v814h354v-814zM168 722v-630h154v630h-154z" />
         <glyph glyph-name=".notdef" d="M422 0h-354v814h354v-814zM168 722v-630h154v630h-154z" />
         <glyph glyph-name=".null" />
         <glyph glyph-name="nonmarkingreturn" />
         <glyph glyph-name="space" unicode=" " />
         <glyph glyph-name="A" unicode="A" d="M576 0h-103l-53 193h-240l-53 -193h-103l223 800h106zM300 631l-95 -346h190z" />
         <glyph glyph-name="Aacute" unicode="Á" d="M576 0h-103l-53 193h-240l-53 -193h-103l223 800h106zM300 631l-95 -346h190zM460 1005l-172 -149l-66 70l172 149z" />
         <glyph glyph-name="Abreve" unicode="Ă" d="M576 0h-103l-53 193h-240l-53 -193h-103l223 800h106zM300 631l-95 -346h190zM180 883q-33 36 -28 125h100q-1 -10 -1 -27q0 -27 9.5 -34.5t39.5 -7.5q27 0 37 5t12.5 17.5t1.5 46.5h99q1 -9 1 -25q0 -74 -34.5 -105t-116.5 -31q-87 0 -120 36z" />
         <glyph glyph-name="uni1EAE" unicode="Ắ" d="M576 0h-103l-53 193h-240l-53 -193h-103l223 800h106zM300 631l-95 -346h190zM423 1030l-124 -107l-67 69l125 108zM206 824.5q-32 10.5 -45.5 38.5t-9.5 82h100q-1 -5 -1 -14q0 -15 10 -20t39 -5q26 0 36.5 3.5t13 11t1.5 24.5h99q1 -8 1 -23q0 -44 -15 -67t-47 -32 t-89 -9q-61 0 -93 10.5z" />
         <glyph glyph-name="uni1EB6" unicode="Ặ" d="M576 0h-103l-53 193h-240l-53 -193h-103l223 800h106zM300 631l-95 -346h190zM237 -226q-17 16 -17 59t17 59t63 16t63 -16t17 -59t-17 -59t-63 -16t-63 16zM180 883q-33 36 -28 125h100q-1 -10 -1 -27q0 -27 9.5 -34.5t39.5 -7.5q27 0 37 5t12.5 17.5t1.5 46.5h99 q1 -9 1 -25q0 -74 -34.5 -105t-116.5 -31q-87 0 -120 36z" />
         <glyph glyph-name="uni1EB0" unicode="Ằ" d="M576 0h-103l-53 193h-240l-53 -193h-103l223 800h106zM300 631l-95 -346h190zM368 992l-67 -69l-124 107l66 70zM206 824.5q-32 10.5 -45.5 38.5t-9.5 82h100q-1 -5 -1 -14q0 -15 10 -20t39 -5q26 0 36.5 3.5t13 11t1.5 24.5h99q1 -8 1 -23q0 -44 -15 -67t-47 -32t-89 -9 q-61 0 -93 10.5z" />
         <glyph glyph-name="uni1EB2" unicode="Ẳ" d="M576 0h-103l-53 193h-240l-53 -193h-103l223 800h106zM300 631l-95 -346h190zM457 952q31 3 50.5 12.5t19.5 22.5q0 10 -6 15.5t-17 5.5q-15 0 -42 -15.5t-57 -40.5v108q19 18 46 29t53 11q56 0 89.5 -28.5t33.5 -74.5q0 -50 -40 -87t-105 -47zM206 824.5 q-32 10.5 -45.5 38.5t-9.5 82h100q-1 -5 -1 -14q0 -15 10 -20t39 -5q26 0 36.5 3.5t13 11t1.5 24.5h99q1 -9 1 -24q0 -46 -14.5 -69t-46 -30.5t-90.5 -7.5q-61 0 -93 10.5z" />
         <glyph glyph-name="uni1EB4" unicode="Ẵ" d="M576 0h-103l-53 193h-240l-53 -193h-103l223 800h106zM300 631l-95 -346h190zM541 948q-28 17 -67 46q-19 14 -20 14q-8 0 -8 -17q0 -14 6 -34h-103q-1 8 -1 23q0 53 29.5 86.5t76.5 33.5q21 0 45 -15t59 -41q24 -21 30 -21q9 0 9 15q0 10 -7 33h102q2 -16 2 -24 q0 -51 -29.5 -83.5t-76.5 -32.5q-19 0 -47 17zM206 823.5q-32 10.5 -45.5 38.5t-9.5 82h100q-1 -5 -1 -14q0 -15 10 -20t39 -5q26 0 36.5 3.5t13 11t1.5 24.5h99q1 -8 1 -23q0 -44 -15 -67t-47 -32t-89 -9q-61 0 -93 10.5z" />
         <glyph glyph-name="uni01CD" unicode="Ǎ" d="M576 0h-103l-53 193h-240l-53 -193h-103l223 800h106zM300 631l-95 -346h190zM467 985l-167 -150l-166 148l76 60l90 -80l90 82z" />
         <glyph glyph-name="Acircumflex" unicode="Â" d="M576 0h-103l-53 193h-240l-53 -193h-103l223 800h106zM300 631l-95 -346h190zM467 899l-77 -60l-90 82l-91 -80l-76 60l167 148z" />
         <glyph glyph-name="uni1EA4" unicode="Ấ" d="M576 0h-103l-53 193h-240l-53 -193h-103l223 800h106zM300 631l-95 -346h190zM596 1030l-124 -107l-67 69l125 108zM467 892l-77 -60l-90 82l-91 -80l-76 60l167 148z" />
         <glyph glyph-name="uni1EAC" unicode="Ậ" d="M576 0h-103l-53 193h-240l-53 -193h-103l223 800h106zM300 631l-95 -346h190zM237 -226q-17 16 -17 59t17 59t63 16t63 -16t17 -59t-17 -59t-63 -16t-63 16zM467 899l-77 -60l-90 82l-91 -80l-76 60l167 148z" />
         <glyph glyph-name="uni1EA6" unicode="Ầ" d="M576 0h-103l-53 193h-240l-53 -193h-103l223 800h106zM300 631l-95 -346h190zM506 917l-131 118l72 65l137 -123zM467 892l-77 -60l-90 82l-91 -80l-76 60l167 148z" />
         <glyph glyph-name="uni1EA8" unicode="Ẩ" d="M576 0h-103l-53 193h-240l-53 -193h-103l223 800h106zM300 631l-95 -346h190zM467 892l-77 -60l-90 82l-91 -80l-76 60l167 148zM457 952q31 3 50.5 12.5t19.5 22.5q0 10 -6 15.5t-17 5.5q-15 0 -42 -15.5t-57 -40.5v108q19 18 46 29t53 11q56 0 89.5 -28.5t33.5 -74.5 q0 -50 -40 -87t-105 -47z" />
         <glyph glyph-name="uni1EAA" unicode="Ẫ" d="M576 0h-103l-53 193h-240l-53 -193h-103l223 800h106zM300 631l-95 -346h190zM467 892l-77 -60l-90 82l-91 -80l-76 60l167 148zM593 948q-28 17 -67 46q-19 14 -20 14q-8 0 -8 -17q0 -14 6 -34h-103q-1 8 -1 23q0 53 29.5 86.5t76.5 33.5q21 0 45 -15t59 -41 q25 -21 30 -21q9 0 9 15q0 10 -7 33h102q2 -16 2 -24q0 -51 -29.5 -83.5t-76.5 -32.5q-19 0 -47 17z" />
         <glyph glyph-name="Adieresis" unicode="Ä" d="M576 0h-103l-53 193h-240l-53 -193h-103l223 800h106zM300 631l-95 -346h190zM131 908.5q-19 17.5 -19 57.5q0 38 19 55.5t61 17.5t61 -17.5t19 -55.5q0 -40 -19 -57.5t-61 -17.5t-61 17.5zM347 908.5q-19 17.5 -19 57.5q0 38 19 55.5t61 17.5t61 -17.5t19 -55.5 q0 -40 -19 -57.5t-61 -17.5t-61 17.5z" />
         <glyph glyph-name="uni1EA0" unicode="Ạ" d="M576 0h-103l-53 193h-240l-53 -193h-103l223 800h106zM300 631l-95 -346h190zM237 -226q-17 16 -17 59t17 59t63 16t63 -16t17 -59t-17 -59t-63 -16t-63 16z" />
         <glyph glyph-name="Agrave" unicode="À" d="M576 0h-103l-53 193h-240l-53 -193h-103l223 800h106zM300 631l-95 -346h190zM378 926l-66 -70l-172 149l66 70z" />
         <glyph glyph-name="uni1EA2" unicode="Ả" d="M576 0h-103l-53 193h-240l-53 -193h-103l223 800h106zM300 631l-95 -346h190zM241 932q31 3 50.5 12.5t19.5 22.5q0 10 -6 15.5t-17 5.5q-15 0 -42 -15.5t-57 -40.5v108q19 18 46 29t53 11q56 0 89.5 -28.5t33.5 -74.5q0 -50 -40 -87t-105 -47z" />
         <glyph glyph-name="Amacron" unicode="Ā" d="M576 0h-103l-53 193h-240l-53 -193h-103l223 800h106zM300 631l-95 -346h190zM462 886h-324v92h324v-92z" />
         <glyph glyph-name="Aogonek" unicode="Ą" d="M596 -147q-19 -22 -52 -35.5t-67 -13.5q-58 0 -94 24.5t-36 65.5q0 37 36.5 69.5t87.5 44.5l-51 185h-240l-53 -193h-103l223 800h106l223 -800h-1q-74 -32 -101.5 -49.5t-27.5 -33.5q0 -10 7 -15.5t25 -5.5q13 0 24.5 4.5t18.5 12.5zM300 631l-95 -346h190z" />
         <glyph glyph-name="Aring" unicode="Å" d="M473 0l-53 193h-240l-53 -193h-103l203 728q-40 12 -58 43t-18 86q0 75 34 106.5t115 31.5q83 0 117 -31t34 -107q0 -56 -18 -87t-60 -43l203 -727h-103zM260 894.5q-9 -8.5 -9 -37.5t9 -37.5t40 -8.5q33 0 42 8.5t9 37.5t-9 37.5t-42 8.5q-31 0 -40 -8.5zM300 631 l-95 -346h190z" />
         <glyph glyph-name="Atilde" unicode="Ã" d="M576 0h-103l-53 193h-240l-53 -193h-103l223 800h106zM300 631l-95 -346h190zM320 890q-28 17 -67 46q-19 14 -20 14q-8 0 -8 -17q0 -14 6 -34h-103q-1 8 -1 23q0 53 29.5 86.5t76.5 33.5q21 0 45 -15t59 -41q25 -21 30 -21q9 0 9 15q0 10 -7 33h102q2 -16 2 -24 q0 -51 -29.5 -83.5t-76.5 -32.5q-19 0 -47 17z" />
         <glyph glyph-name="AE" unicode="Æ" d="M592 800v-92h-207v-285h137v-92h-137v-239h207v-92h-307v239h-121l-60 -239h-101l200 800h389zM282 708l-95 -377h98v377h-3z" />
         <glyph glyph-name="B" unicode="B" d="M69 0v800h215q89 0 141 -21t75.5 -66t23.5 -122q0 -65 -15 -100t-53 -60q51 -26 72 -69t21 -127q0 -87 -23 -138t-75 -74t-142 -23h-240zM284 469q59 0 87.5 8.5t40.5 34t12 79.5q0 47 -12 71.5t-41.5 35t-86.5 10.5h-115v-239h115zM309 92q56 0 86 12.5t42 43t12 87.5 q0 62 -12 91.5t-41 40t-87 10.5h-140v-285h140z" />
         <glyph glyph-name="C" unicode="C" d="M156.5 26.5q-57.5 40.5 -82.5 130t-25 244.5q0 154 25 243t82.5 129.5t158.5 40.5q70 0 115 -19t74.5 -62t50.5 -118l-95 -33q-17 58 -34 87.5t-42 41t-69 11.5q-64 0 -99.5 -29.5t-51 -98t-15.5 -193.5t15.5 -194.5t51 -99t99.5 -29.5q44 0 69 11.5t42 40t34 85.5 l95 -32q-21 -75 -50.5 -117.5t-74.5 -61t-115 -18.5q-101 0 -158.5 40.5z" />
         <glyph glyph-name="Cacute" unicode="Ć" d="M156.5 26.5q-57.5 40.5 -82.5 130t-25 244.5q0 154 25 243t82.5 129.5t158.5 40.5q70 0 115 -19t74.5 -62t50.5 -118l-95 -33q-17 58 -34 87.5t-42 41t-69 11.5q-64 0 -99.5 -29.5t-51 -98t-15.5 -193.5t15.5 -194.5t51 -99t99.5 -29.5q44 0 69 11.5t42 40t34 85.5 l95 -32q-21 -75 -50.5 -117.5t-74.5 -61t-115 -18.5q-101 0 -158.5 40.5zM460 1002l-172 -149l-66 70l172 149z" />
         <glyph glyph-name="Ccaron" unicode="Č" d="M156.5 26.5q-57.5 40.5 -82.5 130t-25 244.5q0 154 25 243t82.5 129.5t158.5 40.5q70 0 115 -19t74.5 -62t50.5 -118l-95 -33q-17 58 -34 87.5t-42 41t-69 11.5q-64 0 -99.5 -29.5t-51 -98t-15.5 -193.5t15.5 -194.5t51 -99t99.5 -29.5q44 0 69 11.5t42 40t34 85.5 l95 -32q-21 -75 -50.5 -117.5t-74.5 -61t-115 -18.5q-101 0 -158.5 40.5zM467 982l-167 -150l-166 148l76 60l90 -80l90 82z" />
         <glyph glyph-name="Ccedilla" unicode="Ç" d="M384 89.5q25 11.5 42 40t34 85.5l95 -32q-29 -101 -74.5 -145t-130.5 -51v-34q33 -8 53.5 -31t20.5 -54q0 -49 -36 -79t-94 -30q-38 0 -69 13t-45 35l39 68q9 -11 29.5 -17.5t45.5 -6.5q13 0 21.5 4.5t8.5 12.5q0 11 -20.5 18t-53.5 7v98q-75 12 -119 57.5t-63 131 t-19 221.5q0 154 25 243t82.5 129.5t158.5 40.5q70 0 115 -19t74.5 -62t50.5 -118l-95 -33q-17 58 -34 87.5t-42 41t-69 11.5q-64 0 -99.5 -29.5t-51 -98t-15.5 -193.5t15.5 -194.5t51 -99t99.5 -29.5q44 0 69 11.5z" />
         <glyph glyph-name="Ccircumflex" unicode="Ĉ" d="M156.5 26.5q-57.5 40.5 -82.5 130t-25 244.5q0 154 25 243t82.5 129.5t158.5 40.5q70 0 115 -19t74.5 -62t50.5 -118l-95 -33q-17 58 -34 87.5t-42 41t-69 11.5q-64 0 -99.5 -29.5t-51 -98t-15.5 -193.5t15.5 -194.5t51 -99t99.5 -29.5q44 0 69 11.5t42 40t34 85.5 l95 -32q-21 -75 -50.5 -117.5t-74.5 -61t-115 -18.5q-101 0 -158.5 40.5zM467 896l-77 -60l-90 82l-91 -80l-76 60l167 148z" />
         <glyph glyph-name="Cdotaccent" unicode="Ċ" d="M156.5 26.5q-57.5 40.5 -82.5 130t-25 244.5q0 154 25 243t82.5 129.5t158.5 40.5q70 0 115 -19t74.5 -62t50.5 -118l-95 -33q-17 58 -34 87.5t-42 41t-69 11.5q-64 0 -99.5 -29.5t-51 -98t-15.5 -193.5t15.5 -194.5t51 -99t99.5 -29.5q44 0 69 11.5t42 40t34 85.5 l95 -32q-21 -75 -50.5 -117.5t-74.5 -61t-115 -18.5q-101 0 -158.5 40.5zM237 915q-17 16 -17 59t17 59t63 16t63 -16t17 -59t-17 -59t-63 -16t-63 16z" />
         <glyph glyph-name="D" unicode="D" d="M313 800q96 0 150.5 -39t78.5 -125.5t24 -235.5t-24 -235.5t-78.5 -125.5t-150.5 -39h-253v800h253zM313 92q59 0 92 28t47 94.5t14 185.5t-14 185.5t-47 94.5t-92 28h-153v-616h153z" />
         <glyph glyph-name="Eth" unicode="Ð" d="M316 800q96 0 150.5 -39t78.5 -125.5t24 -235.5t-24 -235.5t-78.5 -125.5t-150.5 -39h-253v377h-52v92h52v331h253zM316 92q59 0 92 28t47 94.5t14 185.5t-14 185.5t-47 94.5t-92 28h-153v-239h144l2 -92h-146v-285h153z" />
         <glyph glyph-name="Dcaron" unicode="Ď" d="M313 800q96 0 150.5 -39t78.5 -125.5t24 -235.5t-24 -235.5t-78.5 -125.5t-150.5 -39h-253v800h253zM313 92q59 0 92 28t47 94.5t14 185.5t-14 185.5t-47 94.5t-92 28h-153v-616h153zM467 982l-167 -150l-166 148l76 60l90 -80l90 82z" />
         <glyph glyph-name="Dcroat" unicode="Đ" d="M316 800q96 0 150.5 -39t78.5 -125.5t24 -235.5t-24 -235.5t-78.5 -125.5t-150.5 -39h-253v377h-52v92h52v331h253zM316 92q59 0 92 28t47 94.5t14 185.5t-14 185.5t-47 94.5t-92 28h-153v-239h144l2 -92h-146v-285h153z" />
         <glyph glyph-name="E" unicode="E" d="M551 800v-92h-374v-239h240v-92h-240v-285h374v-92h-474v800h474z" />
         <glyph glyph-name="Eacute" unicode="É" d="M551 800v-92h-374v-239h240v-92h-240v-285h374v-92h-474v800h474zM474 1005l-172 -149l-66 70l172 149z" />
         <glyph glyph-name="Ecaron" unicode="Ě" d="M551 800v-92h-374v-239h240v-92h-240v-285h374v-92h-474v800h474zM481 985l-167 -150l-166 148l76 60l90 -80l90 82z" />
         <glyph glyph-name="Ecircumflex" unicode="Ê" d="M551 800v-92h-374v-239h240v-92h-240v-285h374v-92h-474v800h474zM481 899l-77 -60l-90 82l-91 -80l-76 60l167 148z" />
         <glyph glyph-name="uni1EBE" unicode="Ế" d="M551 800v-92h-374v-239h240v-92h-240v-285h374v-92h-474v800h474zM610 1030l-124 -107l-67 69l125 108zM481 892l-77 -60l-90 82l-91 -80l-76 60l167 148z" />
         <glyph glyph-name="uni1EC6" unicode="Ệ" d="M551 800v-92h-374v-239h240v-92h-240v-285h374v-92h-474v800h474zM251 -226q-17 16 -17 59t17 59t63 16t63 -16t17 -59t-17 -59t-63 -16t-63 16zM481 899l-77 -60l-90 82l-91 -80l-76 60l167 148z" />
         <glyph glyph-name="uni1EC0" unicode="Ề" d="M551 800v-92h-374v-239h240v-92h-240v-285h374v-92h-474v800h474zM520 917l-131 118l72 65l137 -123zM481 892l-77 -60l-90 82l-91 -80l-76 60l167 148z" />
         <glyph glyph-name="uni1EC2" unicode="Ể" d="M551 800v-92h-374v-239h240v-92h-240v-285h374v-92h-474v800h474zM481 892l-77 -60l-90 82l-91 -80l-76 60l167 148zM471 952q31 3 50.5 12.5t19.5 22.5q0 10 -6 15.5t-17 5.5q-15 0 -42 -15.5t-57 -40.5v108q19 18 46 29t53 11q56 0 89.5 -28.5t33.5 -74.5 q0 -50 -40 -87t-105 -47z" />
         <glyph glyph-name="uni1EC4" unicode="Ễ" d="M551 800v-92h-374v-239h240v-92h-240v-285h374v-92h-474v800h474zM481 892l-77 -60l-90 82l-91 -80l-76 60l167 148zM607 948q-28 17 -67 46q-19 14 -20 14q-8 0 -8 -17q0 -14 6 -34h-103q-1 8 -1 23q0 53 29.5 86.5t76.5 33.5q21 0 45 -15t59 -41q25 -21 30 -21 q9 0 9 15q0 10 -7 33h102q2 -16 2 -24q0 -51 -29.5 -83.5t-76.5 -32.5q-19 0 -47 17z" />
         <glyph glyph-name="Edieresis" unicode="Ë" d="M551 800v-92h-374v-239h240v-92h-240v-285h374v-92h-474v800h474zM145 908.5q-19 17.5 -19 57.5q0 38 19 55.5t61 17.5t61 -17.5t19 -55.5q0 -40 -19 -57.5t-61 -17.5t-61 17.5zM361 908.5q-19 17.5 -19 57.5q0 38 19 55.5t61 17.5t61 -17.5t19 -55.5q0 -40 -19 -57.5 t-61 -17.5t-61 17.5z" />
         <glyph glyph-name="Edotaccent" unicode="Ė" d="M551 800v-92h-374v-239h240v-92h-240v-285h374v-92h-474v800h474zM251 918q-17 16 -17 59t17 59t63 16t63 -16t17 -59t-17 -59t-63 -16t-63 16z" />
         <glyph glyph-name="uni1EB8" unicode="Ẹ" d="M551 800v-92h-374v-239h240v-92h-240v-285h374v-92h-474v800h474zM251 -226q-17 16 -17 59t17 59t63 16t63 -16t17 -59t-17 -59t-63 -16t-63 16z" />
         <glyph glyph-name="Egrave" unicode="È" d="M551 800v-92h-374v-239h240v-92h-240v-285h374v-92h-474v800h474zM392 926l-66 -70l-172 149l66 70z" />
         <glyph glyph-name="uni1EBA" unicode="Ẻ" d="M551 800v-92h-374v-239h240v-92h-240v-285h374v-92h-474v800h474zM255 932q31 3 50.5 12.5t19.5 22.5q0 10 -6 15.5t-17 5.5q-15 0 -42 -15.5t-57 -40.5v108q19 18 46 29t53 11q56 0 89.5 -28.5t33.5 -74.5q0 -50 -40 -87t-105 -47z" />
         <glyph glyph-name="Emacron" unicode="Ē" d="M551 800v-92h-374v-239h240v-92h-240v-285h374v-92h-474v800h474zM476 886h-324v92h324v-92z" />
         <glyph glyph-name="Eogonek" unicode="Ę" d="M571 -147q-19 -22 -52 -35.5t-67 -13.5q-58 0 -94 24.5t-36 65.5q0 31 28 60.5t70 45.5h-343v800h474v-92h-374v-239h240v-92h-240v-285h374v-92h-1q-74 -32 -101.5 -49.5t-27.5 -33.5q0 -10 7 -15.5t25 -5.5q13 0 24.5 4.5t18.5 12.5z" />
         <glyph glyph-name="uni1EBC" unicode="Ẽ" d="M551 800v-92h-374v-239h240v-92h-240v-285h374v-92h-474v800h474zM334 890q-28 17 -67 46q-19 14 -20 14q-8 0 -8 -17q0 -14 6 -34h-103q-1 8 -1 23q0 53 29.5 86.5t76.5 33.5q21 0 45 -15t59 -41q25 -21 30 -21q9 0 9 15q0 10 -7 33h102q2 -16 2 -24q0 -51 -29.5 -83.5 t-76.5 -32.5q-19 0 -47 17z" />
         <glyph glyph-name="F" unicode="F" d="M552 800v-92h-374v-285h240v-92h-240v-331h-100v800h474z" />
         <glyph glyph-name="G" unicode="G" d="M154 24q-59 38 -84.5 127t-25.5 249t25.5 249t84.5 127t165 38q76 0 123 -20.5t77 -68t51 -133.5l-96 -24q-15 60 -34 93t-47.5 47t-73.5 14q-68 0 -105.5 -29.5t-53.5 -98.5t-16 -194t16 -194t53.5 -98.5t105.5 -29.5q58 0 87.5 23t51.5 85v145h-174v92h274v-251 q-23 -72 -52 -112t-73 -57t-114 -17q-106 0 -165 38z" />
         <glyph glyph-name="Gbreve" unicode="Ğ" d="M154 24q-59 38 -84.5 127t-25.5 249t25.5 249t84.5 127t165 38q76 0 123 -20.5t77 -68t51 -133.5l-96 -24q-15 60 -34 93t-47.5 47t-73.5 14q-68 0 -105.5 -29.5t-53.5 -98.5t-16 -194t16 -194t53.5 -98.5t105.5 -29.5q58 0 87.5 23t51.5 85v145h-174v92h274v-251 q-23 -72 -52 -112t-73 -57t-114 -17q-106 0 -165 38zM180 880q-33 36 -28 125h100q-1 -10 -1 -27q0 -27 9.5 -34.5t39.5 -7.5q27 0 37 5t12.5 17.5t1.5 46.5h99q1 -9 1 -25q0 -74 -34.5 -105t-116.5 -31q-87 0 -120 36z" />
         <glyph glyph-name="Gcircumflex" unicode="Ĝ" d="M154 24q-59 38 -84.5 127t-25.5 249t25.5 249t84.5 127t165 38q76 0 123 -20.5t77 -68t51 -133.5l-96 -24q-15 60 -34 93t-47.5 47t-73.5 14q-68 0 -105.5 -29.5t-53.5 -98.5t-16 -194t16 -194t53.5 -98.5t105.5 -29.5q58 0 87.5 23t51.5 85v145h-174v92h274v-251 q-23 -72 -52 -112t-73 -57t-114 -17q-106 0 -165 38zM467 896l-77 -60l-90 82l-91 -80l-76 60l167 148z" />
         <glyph glyph-name="uni0122" unicode="Ģ" d="M154 24q-59 38 -84.5 127t-25.5 249t25.5 249t84.5 127t165 38q76 0 123 -20.5t77 -68t51 -133.5l-96 -24q-15 60 -34 93t-47.5 47t-73.5 14q-68 0 -105.5 -29.5t-53.5 -98.5t-16 -194t16 -194t53.5 -98.5t105.5 -29.5q58 0 87.5 23t51.5 85v145h-174v92h274v-251 q-23 -72 -52 -112t-73 -57t-114 -17q-106 0 -165 38zM277 -119q-22 12 -22 48q0 29 14 42t45 13t45 -13t14 -42q0 -53 -79 -175h-67z" />
         <glyph glyph-name="Gdotaccent" unicode="Ġ" d="M154 24q-59 38 -84.5 127t-25.5 249t25.5 249t84.5 127t165 38q76 0 123 -20.5t77 -68t51 -133.5l-96 -24q-15 60 -34 93t-47.5 47t-73.5 14q-68 0 -105.5 -29.5t-53.5 -98.5t-16 -194t16 -194t53.5 -98.5t105.5 -29.5q58 0 87.5 23t51.5 85v145h-174v92h274v-251 q-23 -72 -52 -112t-73 -57t-114 -17q-106 0 -165 38zM237 915q-17 16 -17 59t17 59t63 16t63 -16t17 -59t-17 -59t-63 -16t-63 16z" />
         <glyph glyph-name="H" unicode="H" d="M441 469v331h100v-800h-100v377h-282v-377h-100v800h100v-331h282z" />
         <glyph glyph-name="Hbar" unicode="Ħ" d="M541 644h44v-92h-44v-552h-100v377h-282v-377h-100v552h-44v92h44v156h100v-156h282v156h100v-156zM159 469h282v83h-282v-83z" />
         <glyph glyph-name="Hcircumflex" unicode="Ĥ" d="M441 469v331h100v-800h-100v377h-282v-377h-100v800h100v-331h282zM467 896l-77 -60l-90 82l-91 -80l-76 60l167 148z" />
         <glyph glyph-name="I" unicode="I" d="M512 800v-92h-162v-616h162v-92h-424v92h162v616h-162v92h424z" />
         <glyph glyph-name="Iacute" unicode="Í" d="M512 800v-92h-162v-616h162v-92h-424v92h162v616h-162v92h424zM460 1005l-172 -149l-66 70l172 149z" />
         <glyph glyph-name="uni01CF" unicode="Ǐ" d="M512 800v-92h-162v-616h162v-92h-424v92h162v616h-162v92h424zM467 985l-167 -150l-166 148l76 60l90 -80l90 82z" />
         <glyph glyph-name="Icircumflex" unicode="Î" d="M512 800v-92h-162v-616h162v-92h-424v92h162v616h-162v92h424zM467 899l-77 -60l-90 82l-91 -80l-76 60l167 148z" />
         <glyph glyph-name="Idieresis" unicode="Ï" d="M512 800v-92h-162v-616h162v-92h-424v92h162v616h-162v92h424zM131 908.5q-19 17.5 -19 57.5q0 38 19 55.5t61 17.5t61 -17.5t19 -55.5q0 -40 -19 -57.5t-61 -17.5t-61 17.5zM347 908.5q-19 17.5 -19 57.5q0 38 19 55.5t61 17.5t61 -17.5t19 -55.5q0 -40 -19 -57.5 t-61 -17.5t-61 17.5z" />
         <glyph glyph-name="Idotaccent" unicode="İ" d="M512 800v-92h-162v-616h162v-92h-424v92h162v616h-162v92h424zM237 918q-17 16 -17 59t17 59t63 16t63 -16t17 -59t-17 -59t-63 -16t-63 16z" />
         <glyph glyph-name="uni1ECA" unicode="Ị" d="M512 800v-92h-162v-616h162v-92h-424v92h162v616h-162v92h424zM237 -226q-17 16 -17 59t17 59t63 16t63 -16t17 -59t-17 -59t-63 -16t-63 16z" />
         <glyph glyph-name="Igrave" unicode="Ì" d="M512 800v-92h-162v-616h162v-92h-424v92h162v616h-162v92h424zM378 926l-66 -70l-172 149l66 70z" />
         <glyph glyph-name="uni1EC8" unicode="Ỉ" d="M512 800v-92h-162v-616h162v-92h-424v92h162v616h-162v92h424zM241 932q31 3 50.5 12.5t19.5 22.5q0 10 -6 15.5t-17 5.5q-15 0 -42 -15.5t-57 -40.5v108q19 18 46 29t53 11q56 0 89.5 -28.5t33.5 -74.5q0 -50 -40 -87t-105 -47z" />
         <glyph glyph-name="Imacron" unicode="Ī" d="M512 800v-92h-162v-616h162v-92h-424v92h162v616h-162v92h424zM462 886h-324v92h324v-92z" />
         <glyph glyph-name="Iogonek" unicode="Į" d="M512 708h-162v-616h162v-92h-115q-74 -32 -101.5 -49.5t-27.5 -33.5q0 -10 7 -15.5t25 -5.5q13 0 24.5 4.5t18.5 12.5l75 -60q-19 -22 -52 -35.5t-67 -13.5q-58 0 -94 24.5t-36 65.5q0 31 28 60.5t70 45.5h-179v92h162v616h-162v92h424v-92z" />
         <glyph glyph-name="Itilde" unicode="Ĩ" d="M512 800v-92h-162v-616h162v-92h-424v92h162v616h-162v92h424zM320 890q-28 17 -67 46q-19 14 -20 14q-8 0 -8 -17q0 -14 6 -34h-103q-1 8 -1 23q0 53 29.5 86.5t76.5 33.5q21 0 45 -15t59 -41q25 -21 30 -21q9 0 9 15q0 10 -7 33h102q2 -16 2 -24q0 -51 -29.5 -83.5 t-76.5 -32.5q-19 0 -47 17z" />
         <glyph glyph-name="J" unicode="J" d="M148 4.5q-45 18.5 -73.5 61t-49.5 118.5l94 26q16 -54 32.5 -82t42 -39t70.5 -11q65 0 100 26t50 88.5t15 178.5v337h-131v92h231v-429q0 -145 -25 -228t-82 -120t-158 -37q-71 0 -116 18.5z" />
         <glyph glyph-name="Jcircumflex" unicode="Ĵ" d="M148 4.5q-45 18.5 -73.5 61t-49.5 118.5l94 26q16 -54 32.5 -82t42 -39t70.5 -11q65 0 100 26t50 88.5t15 178.5v337h-131v92h231v-429q0 -145 -25 -228t-82 -120t-158 -37q-71 0 -116 18.5zM588 896l-77 -60l-90 82l-91 -80l-76 60l167 148z" />
         <glyph glyph-name="K" unicode="K" d="M476 800h124l-295 -344l293 -456h-115l-244 379l-1 -2h-73v-377h-100v800h100v-331h27z" />
         <glyph glyph-name="uni0136" unicode="Ķ" d="M476 800h124l-295 -344l293 -456h-115l-244 379l-1 -2h-73v-377h-100v800h100v-331h27zM277 -119q-22 12 -22 48q0 29 14 42t45 13t45 -13t14 -42q0 -53 -79 -175h-67z" />
         <glyph glyph-name="L" unicode="L" d="M531 0h-435v800h100v-708h335v-92z" />
         <glyph glyph-name="Lacute" unicode="Ĺ" d="M531 0h-435v800h100v-708h335v-92zM330 1002l-172 -149l-66 70l172 149z" />
         <glyph glyph-name="Lcaron" unicode="Ľ" d="M531 0h-435v800h100v-708h335v-92zM393 517h-78l-10 283h98z" />
         <glyph glyph-name="uni013B" unicode="Ļ" d="M531 0h-435v800h100v-708h335v-92zM277 -119q-22 12 -22 48q0 29 14 42t45 13t45 -13t14 -42q0 -53 -79 -175h-67z" />
         <glyph glyph-name="Lslash" unicode="Ł" d="M226 449v-357h335v-92h-435v408l-98 -40v97l98 40v295h100v-254l134 54v-97z" />
         <glyph glyph-name="M" unicode="M" d="M135 0h-100l14 800h94l157 -396l157 396h94l14 -800h-100l-10 542l-112 -303h-86l-112 303z" />
         <glyph glyph-name="N" unicode="N" d="M439 216v584h100v-800h-107l-271 584v-584h-100v800h107z" />
         <glyph glyph-name="Nacute" unicode="Ń" d="M439 216v584h100v-800h-107l-271 584v-584h-100v800h107zM460 1005l-172 -149l-66 70l172 149z" />
         <glyph glyph-name="Ncaron" unicode="Ň" d="M439 216v584h100v-800h-107l-271 584v-584h-100v800h107zM467 985l-167 -150l-166 148l76 60l90 -80l90 82z" />
         <glyph glyph-name="uni0145" unicode="Ņ" d="M439 216v584h100v-800h-107l-271 584v-584h-100v800h107zM277 -122q-22 12 -22 48q0 29 14 42t45 13t45 -13t14 -42q0 -53 -79 -175h-67z" />
         <glyph glyph-name="Eng" unicode="Ŋ" d="M439 800h100v-800q0 -79 -17 -116t-56 -49t-119 -12v92q55 0 77.5 6t22.5 30q0 17 -15 49l-271 584v-584h-100v800h107l271 -584v584z" />
         <glyph glyph-name="Ntilde" unicode="Ñ" d="M439 216v584h100v-800h-107l-271 584v-584h-100v800h107zM320 890q-28 17 -67 46q-19 14 -20 14q-8 0 -8 -17q0 -14 6 -34h-103q-1 8 -1 23q0 53 29.5 86.5t76.5 33.5q21 0 45 -15t59 -41q25 -21 30 -21q9 0 9 15q0 10 -7 33h102q2 -16 2 -24q0 -51 -29.5 -83.5 t-76.5 -32.5q-19 0 -47 17z" />
         <glyph glyph-name="O" unicode="O" d="M146.5 23q-55.5 37 -80 117.5t-24.5 219.5v80q0 139 24.5 219.5t80 117.5t153.5 37t153.5 -37t80 -117.5t24.5 -219.5v-80q0 -139 -24.5 -219.5t-80 -117.5t-153.5 -37t-153.5 37zM395.5 104q33.5 26 48 86t14.5 170v80q0 110 -14.5 170t-48 86t-95.5 26t-96 -26t-48 -86 t-14 -170v-80q0 -109 14.5 -169.5t48.5 -86.5t95 -26q62 0 95.5 26z" />
         <glyph glyph-name="Oacute" unicode="Ó" d="M146.5 23q-55.5 37 -80 117.5t-24.5 219.5v80q0 139 24.5 219.5t80 117.5t153.5 37t153.5 -37t80 -117.5t24.5 -219.5v-80q0 -139 -24.5 -219.5t-80 -117.5t-153.5 -37t-153.5 37zM395.5 104q33.5 26 48 86t14.5 170v80q0 110 -14.5 170t-48 86t-95.5 26t-96 -26t-48 -86 t-14 -170v-80q0 -109 14.5 -169.5t48.5 -86.5t95 -26q62 0 95.5 26zM460 1005l-172 -149l-66 70l172 149z" />
         <glyph glyph-name="uni01D1" unicode="Ǒ" d="M146.5 23q-55.5 37 -80 117.5t-24.5 219.5v80q0 139 24.5 219.5t80 117.5t153.5 37t153.5 -37t80 -117.5t24.5 -219.5v-80q0 -139 -24.5 -219.5t-80 -117.5t-153.5 -37t-153.5 37zM395.5 104q33.5 26 48 86t14.5 170v80q0 110 -14.5 170t-48 86t-95.5 26t-96 -26t-48 -86 t-14 -170v-80q0 -109 14.5 -169.5t48.5 -86.5t95 -26q62 0 95.5 26zM467 985l-167 -150l-166 148l76 60l90 -80l90 82z" />
         <glyph glyph-name="Ocircumflex" unicode="Ô" d="M146.5 23q-55.5 37 -80 117.5t-24.5 219.5v80q0 139 24.5 219.5t80 117.5t153.5 37t153.5 -37t80 -117.5t24.5 -219.5v-80q0 -139 -24.5 -219.5t-80 -117.5t-153.5 -37t-153.5 37zM395.5 104q33.5 26 48 86t14.5 170v80q0 110 -14.5 170t-48 86t-95.5 26t-96 -26t-48 -86 t-14 -170v-80q0 -109 14.5 -169.5t48.5 -86.5t95 -26q62 0 95.5 26zM467 899l-77 -60l-90 82l-91 -80l-76 60l167 148z" />
         <glyph glyph-name="uni1ED0" unicode="Ố" d="M146.5 23q-55.5 37 -80 117.5t-24.5 219.5v80q0 139 24.5 219.5t80 117.5t153.5 37t153.5 -37t80 -117.5t24.5 -219.5v-80q0 -139 -24.5 -219.5t-80 -117.5t-153.5 -37t-153.5 37zM395.5 104q33.5 26 48 86t14.5 170v80q0 110 -14.5 170t-48 86t-95.5 26t-96 -26t-48 -86 t-14 -170v-80q0 -109 14.5 -169.5t48.5 -86.5t95 -26q62 0 95.5 26zM596 1030l-124 -107l-67 69l125 108zM467 892l-77 -60l-90 82l-91 -80l-76 60l167 148z" />
         <glyph glyph-name="uni1ED8" unicode="Ộ" d="M146.5 23q-55.5 37 -80 117.5t-24.5 219.5v80q0 139 24.5 219.5t80 117.5t153.5 37t153.5 -37t80 -117.5t24.5 -219.5v-80q0 -139 -24.5 -219.5t-80 -117.5t-153.5 -37t-153.5 37zM395.5 104q33.5 26 48 86t14.5 170v80q0 110 -14.5 170t-48 86t-95.5 26t-96 -26t-48 -86 t-14 -170v-80q0 -109 14.5 -169.5t48.5 -86.5t95 -26q62 0 95.5 26zM237 -226q-17 16 -17 59t17 59t63 16t63 -16t17 -59t-17 -59t-63 -16t-63 16zM467 899l-77 -60l-90 82l-91 -80l-76 60l167 148z" />
         <glyph glyph-name="uni1ED2" unicode="Ồ" d="M146.5 23q-55.5 37 -80 117.5t-24.5 219.5v80q0 139 24.5 219.5t80 117.5t153.5 37t153.5 -37t80 -117.5t24.5 -219.5v-80q0 -139 -24.5 -219.5t-80 -117.5t-153.5 -37t-153.5 37zM395.5 104q33.5 26 48 86t14.5 170v80q0 110 -14.5 170t-48 86t-95.5 26t-96 -26t-48 -86 t-14 -170v-80q0 -109 14.5 -169.5t48.5 -86.5t95 -26q62 0 95.5 26zM506 917l-131 118l72 65l137 -123zM467 892l-77 -60l-90 82l-91 -80l-76 60l167 148z" />
         <glyph glyph-name="uni1ED4" unicode="Ổ" d="M146.5 23q-55.5 37 -80 117.5t-24.5 219.5v80q0 139 24.5 219.5t80 117.5t153.5 37t153.5 -37t80 -117.5t24.5 -219.5v-80q0 -139 -24.5 -219.5t-80 -117.5t-153.5 -37t-153.5 37zM395.5 104q33.5 26 48 86t14.5 170v80q0 110 -14.5 170t-48 86t-95.5 26t-96 -26t-48 -86 t-14 -170v-80q0 -109 14.5 -169.5t48.5 -86.5t95 -26q62 0 95.5 26zM467 892l-77 -60l-90 82l-91 -80l-76 60l167 148zM457 952q31 3 50.5 12.5t19.5 22.5q0 10 -6 15.5t-17 5.5q-15 0 -42 -15.5t-57 -40.5v108q19 18 46 29t53 11q56 0 89.5 -28.5t33.5 -74.5q0 -50 -40 -87 t-105 -47z" />
         <glyph glyph-name="uni1ED6" unicode="Ỗ" d="M146.5 23q-55.5 37 -80 117.5t-24.5 219.5v80q0 139 24.5 219.5t80 117.5t153.5 37t153.5 -37t80 -117.5t24.5 -219.5v-80q0 -139 -24.5 -219.5t-80 -117.5t-153.5 -37t-153.5 37zM395.5 104q33.5 26 48 86t14.5 170v80q0 110 -14.5 170t-48 86t-95.5 26t-96 -26t-48 -86 t-14 -170v-80q0 -109 14.5 -169.5t48.5 -86.5t95 -26q62 0 95.5 26zM467 892l-77 -60l-90 82l-91 -80l-76 60l167 148zM593 948q-28 17 -67 46q-19 14 -20 14q-8 0 -8 -17q0 -14 6 -34h-103q-1 8 -1 23q0 53 29.5 86.5t76.5 33.5q21 0 45 -15t59 -41q25 -21 30 -21q9 0 9 15 q0 10 -7 33h102q2 -16 2 -24q0 -51 -29.5 -83.5t-76.5 -32.5q-19 0 -47 17z" />
         <glyph glyph-name="Odieresis" unicode="Ö" d="M146.5 23q-55.5 37 -80 117.5t-24.5 219.5v80q0 139 24.5 219.5t80 117.5t153.5 37t153.5 -37t80 -117.5t24.5 -219.5v-80q0 -139 -24.5 -219.5t-80 -117.5t-153.5 -37t-153.5 37zM395.5 104q33.5 26 48 86t14.5 170v80q0 110 -14.5 170t-48 86t-95.5 26t-96 -26t-48 -86 t-14 -170v-80q0 -109 14.5 -169.5t48.5 -86.5t95 -26q62 0 95.5 26zM131 908.5q-19 17.5 -19 57.5q0 38 19 55.5t61 17.5t61 -17.5t19 -55.5q0 -40 -19 -57.5t-61 -17.5t-61 17.5zM347 908.5q-19 17.5 -19 57.5q0 38 19 55.5t61 17.5t61 -17.5t19 -55.5q0 -40 -19 -57.5 t-61 -17.5t-61 17.5z" />
         <glyph glyph-name="uni1ECC" unicode="Ọ" d="M146.5 23q-55.5 37 -80 117.5t-24.5 219.5v80q0 139 24.5 219.5t80 117.5t153.5 37t153.5 -37t80 -117.5t24.5 -219.5v-80q0 -139 -24.5 -219.5t-80 -117.5t-153.5 -37t-153.5 37zM395.5 104q33.5 26 48 86t14.5 170v80q0 110 -14.5 170t-48 86t-95.5 26t-96 -26t-48 -86 t-14 -170v-80q0 -109 14.5 -169.5t48.5 -86.5t95 -26q62 0 95.5 26zM237 -226q-17 16 -17 59t17 59t63 16t63 -16t17 -59t-17 -59t-63 -16t-63 16z" />
         <glyph glyph-name="Ograve" unicode="Ò" d="M146.5 23q-55.5 37 -80 117.5t-24.5 219.5v80q0 139 24.5 219.5t80 117.5t153.5 37t153.5 -37t80 -117.5t24.5 -219.5v-80q0 -139 -24.5 -219.5t-80 -117.5t-153.5 -37t-153.5 37zM395.5 104q33.5 26 48 86t14.5 170v80q0 110 -14.5 170t-48 86t-95.5 26t-96 -26t-48 -86 t-14 -170v-80q0 -109 14.5 -169.5t48.5 -86.5t95 -26q62 0 95.5 26zM378 926l-66 -70l-172 149l66 70z" />
         <glyph glyph-name="uni1ECE" unicode="Ỏ" d="M146.5 23q-55.5 37 -80 117.5t-24.5 219.5v80q0 139 24.5 219.5t80 117.5t153.5 37t153.5 -37t80 -117.5t24.5 -219.5v-80q0 -139 -24.5 -219.5t-80 -117.5t-153.5 -37t-153.5 37zM395.5 104q33.5 26 48 86t14.5 170v80q0 110 -14.5 170t-48 86t-95.5 26t-96 -26t-48 -86 t-14 -170v-80q0 -109 14.5 -169.5t48.5 -86.5t95 -26q62 0 95.5 26zM241 932q31 3 50.5 12.5t19.5 22.5q0 10 -6 15.5t-17 5.5q-15 0 -42 -15.5t-57 -40.5v108q19 18 46 29t53 11q56 0 89.5 -28.5t33.5 -74.5q0 -50 -40 -87t-105 -47z" />
         <glyph glyph-name="Ohorn" unicode="Ơ" d="M603 918h100v-153q0 -64 -36.5 -104.5t-95.5 -40.5q-10 0 -28 4q15 -75 15 -184v-80q0 -139 -24.5 -219.5t-80 -117.5t-153.5 -37t-153.5 37t-80 117.5t-24.5 219.5v80q0 139 24.5 219.5t80 117.5t153.5 37q62 0 106.5 -14.5t74.5 -44.5l3 -3l6 -7q31 -33 71 -33 q42 0 42 53v153zM458 440q0 110 -14.5 170t-48 86t-95.5 26t-96 -26t-48 -86t-14 -170v-80q0 -109 14.5 -169.5t48.5 -86.5t95 -26q62 0 95.5 26t48 86t14.5 170v80z" />
         <glyph glyph-name="uni1EDA" unicode="Ớ" d="M603 918h100v-153q0 -64 -36.5 -104.5t-95.5 -40.5q-10 0 -28 4q15 -75 15 -184v-80q0 -139 -24.5 -219.5t-80 -117.5t-153.5 -37t-153.5 37t-80 117.5t-24.5 219.5v80q0 139 24.5 219.5t80 117.5t153.5 37q62 0 106.5 -14.5t74.5 -44.5l3 -3l6 -7q31 -33 71 -33 q42 0 42 53v153zM458 440q0 110 -14.5 170t-48 86t-95.5 26t-96 -26t-48 -86t-14 -170v-80q0 -109 14.5 -169.5t48.5 -86.5t95 -26q62 0 95.5 26t48 86t14.5 170v80zM460 1005l-172 -149l-66 70l172 149z" />
         <glyph glyph-name="uni1EE2" unicode="Ợ" d="M603 918h100v-153q0 -64 -36.5 -104.5t-95.5 -40.5q-10 0 -28 4q15 -75 15 -184v-80q0 -139 -24.5 -219.5t-80 -117.5t-153.5 -37t-153.5 37t-80 117.5t-24.5 219.5v80q0 139 24.5 219.5t80 117.5t153.5 37q62 0 106.5 -14.5t74.5 -44.5l3 -3l6 -7q31 -33 71 -33 q42 0 42 53v153zM458 440q0 110 -14.5 170t-48 86t-95.5 26t-96 -26t-48 -86t-14 -170v-80q0 -109 14.5 -169.5t48.5 -86.5t95 -26q62 0 95.5 26t48 86t14.5 170v80zM237 -226q-17 16 -17 59t17 59t63 16t63 -16t17 -59t-17 -59t-63 -16t-63 16z" />
         <glyph glyph-name="uni1EDC" unicode="Ờ" d="M603 918h100v-153q0 -64 -36.5 -104.5t-95.5 -40.5q-10 0 -28 4q15 -75 15 -184v-80q0 -139 -24.5 -219.5t-80 -117.5t-153.5 -37t-153.5 37t-80 117.5t-24.5 219.5v80q0 139 24.5 219.5t80 117.5t153.5 37q62 0 106.5 -14.5t74.5 -44.5l3 -3l6 -7q31 -33 71 -33 q42 0 42 53v153zM458 440q0 110 -14.5 170t-48 86t-95.5 26t-96 -26t-48 -86t-14 -170v-80q0 -109 14.5 -169.5t48.5 -86.5t95 -26q62 0 95.5 26t48 86t14.5 170v80zM378 926l-66 -70l-172 149l66 70z" />
         <glyph glyph-name="uni1EDE" unicode="Ở" d="M603 918h100v-153q0 -64 -36.5 -104.5t-95.5 -40.5q-10 0 -28 4q15 -75 15 -184v-80q0 -139 -24.5 -219.5t-80 -117.5t-153.5 -37t-153.5 37t-80 117.5t-24.5 219.5v80q0 139 24.5 219.5t80 117.5t153.5 37q62 0 106.5 -14.5t74.5 -44.5l3 -3l6 -7q31 -33 71 -33 q42 0 42 53v153zM458 440q0 110 -14.5 170t-48 86t-95.5 26t-96 -26t-48 -86t-14 -170v-80q0 -109 14.5 -169.5t48.5 -86.5t95 -26q62 0 95.5 26t48 86t14.5 170v80zM241 932q31 3 50.5 12.5t19.5 22.5q0 10 -6 15.5t-17 5.5q-15 0 -42 -15.5t-57 -40.5v108q19 18 46 29 t53 11q56 0 89.5 -28.5t33.5 -74.5q0 -50 -40 -87t-105 -47z" />
         <glyph glyph-name="uni1EE0" unicode="Ỡ" d="M603 918h100v-153q0 -64 -36.5 -104.5t-95.5 -40.5q-10 0 -28 4q15 -75 15 -184v-80q0 -139 -24.5 -219.5t-80 -117.5t-153.5 -37t-153.5 37t-80 117.5t-24.5 219.5v80q0 139 24.5 219.5t80 117.5t153.5 37q62 0 106.5 -14.5t74.5 -44.5l3 -3l6 -7q31 -33 71 -33 q42 0 42 53v153zM458 440q0 110 -14.5 170t-48 86t-95.5 26t-96 -26t-48 -86t-14 -170v-80q0 -109 14.5 -169.5t48.5 -86.5t95 -26q62 0 95.5 26t48 86t14.5 170v80zM320 890q-28 17 -67 46q-19 14 -20 14q-8 0 -8 -17q0 -14 6 -34h-103q-1 8 -1 23q0 53 29.5 86.5 t76.5 33.5q21 0 45 -15t59 -41q25 -21 30 -21q9 0 9 15q0 10 -7 33h102q2 -16 2 -24q0 -51 -29.5 -83.5t-76.5 -32.5q-19 0 -47 17z" />
         <glyph glyph-name="Ohungarumlaut" unicode="Ő" d="M146.5 23q-55.5 37 -80 117.5t-24.5 219.5v80q0 139 24.5 219.5t80 117.5t153.5 37t153.5 -37t80 -117.5t24.5 -219.5v-80q0 -139 -24.5 -219.5t-80 -117.5t-153.5 -37t-153.5 37zM395.5 104q33.5 26 48 86t14.5 170v80q0 110 -14.5 170t-48 86t-95.5 26t-96 -26t-48 -86 t-14 -170v-80q0 -109 14.5 -169.5t48.5 -86.5t95 -26q62 0 95.5 26zM298 1005l-172 -149l-66 70l172 149zM540 1005l-172 -149l-66 70l172 149z" />
         <glyph glyph-name="Omacron" unicode="Ō" d="M146.5 23q-55.5 37 -80 117.5t-24.5 219.5v80q0 139 24.5 219.5t80 117.5t153.5 37t153.5 -37t80 -117.5t24.5 -219.5v-80q0 -139 -24.5 -219.5t-80 -117.5t-153.5 -37t-153.5 37zM395.5 104q33.5 26 48 86t14.5 170v80q0 110 -14.5 170t-48 86t-95.5 26t-96 -26t-48 -86 t-14 -170v-80q0 -109 14.5 -169.5t48.5 -86.5t95 -26q62 0 95.5 26zM462 886h-324v92h324v-92z" />
         <glyph glyph-name="Oslash" unicode="Ø" d="M573 850l-64 -132q26 -44 37.5 -112t11.5 -166v-80q0 -139 -24.5 -219.5t-80 -117.5t-153.5 -37q-82 0 -133 25l-30 -61h-110l64 132q-26 44 -37.5 112t-11.5 166v80q0 139 24.5 219.5t80 117.5t153.5 37q82 0 133 -25l30 61h110zM142 360q0 -95 10 -151l238 491 q-34 22 -90 22q-62 0 -95.5 -26t-48 -86t-14.5 -170v-80zM458 440q0 95 -10 151l-238 -491q34 -22 90 -22q62 0 95.5 26t48 86t14.5 170v80z" />
         <glyph glyph-name="Otilde" unicode="Õ" d="M146.5 23q-55.5 37 -80 117.5t-24.5 219.5v80q0 139 24.5 219.5t80 117.5t153.5 37t153.5 -37t80 -117.5t24.5 -219.5v-80q0 -139 -24.5 -219.5t-80 -117.5t-153.5 -37t-153.5 37zM395.5 104q33.5 26 48 86t14.5 170v80q0 110 -14.5 170t-48 86t-95.5 26t-96 -26t-48 -86 t-14 -170v-80q0 -109 14.5 -169.5t48.5 -86.5t95 -26q62 0 95.5 26zM320 890q-28 17 -67 46q-19 14 -20 14q-8 0 -8 -17q0 -14 6 -34h-103q-1 8 -1 23q0 53 29.5 86.5t76.5 33.5q21 0 45 -15t59 -41q25 -21 30 -21q9 0 9 15q0 10 -7 33h102q2 -16 2 -24q0 -51 -29.5 -83.5 t-76.5 -32.5q-19 0 -47 17z" />
         <glyph glyph-name="OE" unicode="Œ" d="M599 708h-206v-239h127v-92h-127v-285h206v-92h-306v7q-39 -21 -96 -21q-74 0 -116.5 40t-61 129.5t-18.5 243.5q0 155 18.5 244.5t61 130t116.5 40.5q58 0 96 -22v8h306v-92zM257.5 107.5q20.5 29.5 28 96.5t7.5 195t-7.5 196t-28 97.5t-60.5 29.5q-35 0 -55.5 -30.5 t-30.5 -100.5t-10 -192q0 -121 10 -191t30.5 -100t55.5 -30q40 0 60.5 29.5z" />
         <glyph glyph-name="P" unicode="P" d="M320 800q89 0 141.5 -23t75.5 -74.5t23 -138.5q0 -92 -23 -142.5t-74.5 -72t-142.5 -21.5h-139v-328h-100v800h99l1 1v-1h139zM320 420q58 0 87 11t41 41t12 92q0 57 -12 88t-42 43.5t-86 12.5h-139v-288h139z" />
         <glyph glyph-name="Thorn" unicode="Þ" d="M300 627q90 0 142 -22t75 -71t23 -134t-23 -134t-75 -71t-142 -22h-119v-173h-100v800h100v-173h119zM300 265q57 0 86.5 11.5t41.5 40t12 83.5t-12 83.5t-41.5 40t-86.5 11.5h-119v-270h119z" />
         <glyph glyph-name="Q" unicode="Q" d="M466.5 -70q25.5 6 31.5 7q62 16 97 16q9 0 25 -2v-92q-18 2 -26 2q-17 0 -35 -3.5t-35 -8.5q-29 -8 -51.5 -12.5t-52.5 -4.5q-38 0 -64 8t-57 24q-25 13 -45 20t-47 7h-53v94q18 -2 26 -2q26 0 45 9q-68 13 -108 55.5t-57.5 118t-17.5 194.5v80q0 139 24.5 219.5 t80 117.5t153.5 37t153.5 -37t80 -117.5t24.5 -219.5v-80q0 -126 -20 -204t-65 -118t-122 -49q-7 -16 -20 -32q9 -4 28 -13.5t34 -14.5t27 -5q21 0 46.5 6zM142 360q0 -109 14.5 -169.5t48.5 -86.5t95 -26q62 0 95.5 26t48 86t14.5 170v80q0 110 -14.5 170t-48 86t-95.5 26 t-96 -26t-48 -86t-14 -170v-80z" />
         <glyph glyph-name="R" unicode="R" d="M474 0l-226 328h-75v-328h-100v800h239q89 0 141.5 -23t75.5 -74.5t23 -138.5q0 -82 -18.5 -131.5t-59.5 -73.5t-111 -29l227 -330h-116zM173 708v-288h139q58 0 87 11t41 41t12 92q0 57 -12 88t-42 43.5t-86 12.5h-139z" />
         <glyph glyph-name="Racute" unicode="Ŕ" d="M474 0l-226 328h-75v-328h-100v800h239q89 0 141.5 -23t75.5 -74.5t23 -138.5q0 -82 -18.5 -131.5t-59.5 -73.5t-111 -29l227 -330h-116zM173 708v-288h139q58 0 87 11t41 41t12 92q0 57 -12 88t-42 43.5t-86 12.5h-139zM460 1002l-172 -149l-66 70l172 149z" />
         <glyph glyph-name="Rcaron" unicode="Ř" d="M474 0l-226 328h-75v-328h-100v800h239q89 0 141.5 -23t75.5 -74.5t23 -138.5q0 -82 -18.5 -131.5t-59.5 -73.5t-111 -29l227 -330h-116zM173 708v-288h139q58 0 87 11t41 41t12 92q0 57 -12 88t-42 43.5t-86 12.5h-139zM467 982l-167 -150l-166 148l76 60l90 -80l90 82z " />
         <glyph glyph-name="uni0156" unicode="Ŗ" d="M474 0l-226 328h-75v-328h-100v800h239q89 0 141.5 -23t75.5 -74.5t23 -138.5q0 -82 -18.5 -131.5t-59.5 -73.5t-111 -29l227 -330h-116zM173 708v-288h139q58 0 87 11t41 41t12 92q0 57 -12 88t-42 43.5t-86 12.5h-139zM277 -119q-22 12 -22 48q0 29 14 42t45 13t45 -13 t14 -42q0 -53 -79 -175h-67z" />
         <glyph glyph-name="S" unicode="S" d="M178.5 -1q-47.5 13 -80 42.5t-57.5 81.5l77 72q18 -49 37.5 -73t52 -34t92.5 -10t91.5 13.5t44.5 45t13 90.5q0 43 -13.5 67.5t-45.5 42t-98 39.5q-89 29 -137 57t-69 66t-21 97q0 81 22.5 128t73.5 68.5t139 21.5q68 0 112 -11.5t74.5 -37t55.5 -71.5l-71 -77 q-19 44 -37 65.5t-48.5 30.5t-85.5 9t-83.5 -11t-40 -37.5t-11.5 -77.5q0 -37 12 -57.5t41 -35t89 -33.5q94 -29 145.5 -59t74 -73t22.5 -111q0 -89 -24 -141.5t-78 -76t-147 -23.5q-74 0 -121.5 13z" />
         <glyph glyph-name="Sacute" unicode="Ś" d="M178.5 -1q-47.5 13 -80 42.5t-57.5 81.5l77 72q18 -49 37.5 -73t52 -34t92.5 -10t91.5 13.5t44.5 45t13 90.5q0 43 -13.5 67.5t-45.5 42t-98 39.5q-89 29 -137 57t-69 66t-21 97q0 81 22.5 128t73.5 68.5t139 21.5q68 0 112 -11.5t74.5 -37t55.5 -71.5l-71 -77 q-19 44 -37 65.5t-48.5 30.5t-85.5 9t-83.5 -11t-40 -37.5t-11.5 -77.5q0 -37 12 -57.5t41 -35t89 -33.5q94 -29 145.5 -59t74 -73t22.5 -111q0 -89 -24 -141.5t-78 -76t-147 -23.5q-74 0 -121.5 13zM460 1005l-172 -149l-66 70l172 149z" />
         <glyph glyph-name="Scaron" unicode="Š" d="M178.5 -1q-47.5 13 -80 42.5t-57.5 81.5l77 72q18 -49 37.5 -73t52 -34t92.5 -10t91.5 13.5t44.5 45t13 90.5q0 43 -13.5 67.5t-45.5 42t-98 39.5q-89 29 -137 57t-69 66t-21 97q0 81 22.5 128t73.5 68.5t139 21.5q68 0 112 -11.5t74.5 -37t55.5 -71.5l-71 -77 q-19 44 -37 65.5t-48.5 30.5t-85.5 9t-83.5 -11t-40 -37.5t-11.5 -77.5q0 -37 12 -57.5t41 -35t89 -33.5q94 -29 145.5 -59t74 -73t22.5 -111q0 -89 -24 -141.5t-78 -76t-147 -23.5q-74 0 -121.5 13zM467 985l-167 -150l-166 148l76 60l90 -80l90 82z" />
         <glyph glyph-name="Scedilla" unicode="Ş" d="M529.5 96q-19.5 -50 -62.5 -76t-117 -32v-35q33 -8 53.5 -31t20.5 -54q0 -49 -36 -79t-94 -30q-38 0 -69 13t-45 35l39 68q9 -11 29.5 -17.5t45.5 -6.5q13 0 21.5 4.5t8.5 12.5q0 11 -20.5 18t-53.5 7v95q-82 5 -129 36t-80 99l77 72q18 -49 37.5 -73t52 -34t92.5 -10 t91.5 13.5t44.5 45t13 90.5q0 43 -13.5 67.5t-45.5 42t-98 39.5q-89 29 -137 57t-69 66t-21 97q0 81 22.5 128t73.5 68.5t139 21.5q68 0 112 -11.5t74.5 -37t55.5 -71.5l-71 -77q-19 44 -37 65.5t-48.5 30.5t-85.5 9t-83.5 -11t-40 -37.5t-11.5 -77.5q0 -37 12 -57.5t41 -35 t89 -33.5q94 -29 145.5 -59t74 -73t22.5 -111q0 -81 -19.5 -131z" />
         <glyph glyph-name="Scircumflex" unicode="Ŝ" d="M178.5 -1q-47.5 13 -80 42.5t-57.5 81.5l77 72q18 -49 37.5 -73t52 -34t92.5 -10t91.5 13.5t44.5 45t13 90.5q0 43 -13.5 67.5t-45.5 42t-98 39.5q-89 29 -137 57t-69 66t-21 97q0 81 22.5 128t73.5 68.5t139 21.5q68 0 112 -11.5t74.5 -37t55.5 -71.5l-71 -77 q-19 44 -37 65.5t-48.5 30.5t-85.5 9t-83.5 -11t-40 -37.5t-11.5 -77.5q0 -37 12 -57.5t41 -35t89 -33.5q94 -29 145.5 -59t74 -73t22.5 -111q0 -89 -24 -141.5t-78 -76t-147 -23.5q-74 0 -121.5 13zM467 899l-77 -60l-90 82l-91 -80l-76 60l167 148z" />
         <glyph glyph-name="uni0218" unicode="Ș" d="M178.5 -1q-47.5 13 -80 42.5t-57.5 81.5l77 72q18 -49 37.5 -73t52 -34t92.5 -10t91.5 13.5t44.5 45t13 90.5q0 43 -13.5 67.5t-45.5 42t-98 39.5q-89 29 -137 57t-69 66t-21 97q0 81 22.5 128t73.5 68.5t139 21.5q68 0 112 -11.5t74.5 -37t55.5 -71.5l-71 -77 q-19 44 -37 65.5t-48.5 30.5t-85.5 9t-83.5 -11t-40 -37.5t-11.5 -77.5q0 -37 12 -57.5t41 -35t89 -33.5q94 -29 145.5 -59t74 -73t22.5 -111q0 -89 -24 -141.5t-78 -76t-147 -23.5q-74 0 -121.5 13zM277 -119q-22 12 -22 48q0 29 14 42t45 13t45 -13t14 -42q0 -53 -79 -175 h-67z" />
         <glyph glyph-name="uni1E9E" unicode="ẞ" d="M391 472q70 -6 110 -31.5t57.5 -76t17.5 -134.5q0 -98 -21.5 -150t-71 -73t-141.5 -21q-67 0 -104 17t-53 56t-16 109h100q0 -51 16 -70.5t57 -19.5q53 0 81.5 12.5t40.5 45t12 94.5q0 58 -12.5 90.5t-41 47t-80.5 14.5h-124l209 326h-149q-79 0 -128 -42.5t-49 -111.5 v-554h-100v554q0 115 76 180.5t207 65.5h315z" />
         <glyph glyph-name="T" unicode="T" d="M593 800v-92h-243v-708h-100v708h-243v92h586z" />
         <glyph glyph-name="Tbar" unicode="Ŧ" d="M593 800v-92h-243v-239h135v-92h-135v-377h-100v377h-135v92h135v239h-243v92h586z" />
         <glyph glyph-name="Tcaron" unicode="Ť" d="M593 800v-92h-243v-708h-100v708h-243v92h586zM467 982l-167 -150l-166 148l76 60l90 -80l90 82z" />
         <glyph glyph-name="uni0162" unicode="Ţ" d="M350 -47q33 -8 53.5 -31t20.5 -54q0 -49 -36 -79t-94 -30q-38 0 -69 13t-45 35l39 68q9 -11 29.5 -17.5t45.5 -6.5q13 0 21.5 4.5t8.5 12.5q0 11 -20.5 18t-53.5 7v815h-243v92h586v-92h-243v-755z" />
         <glyph glyph-name="uni021A" unicode="Ț" d="M593 800v-92h-243v-708h-100v708h-243v92h586zM277 -119q-22 12 -22 48q0 29 14 42t45 13t45 -13t14 -42q0 -53 -79 -175h-67z" />
         <glyph glyph-name="U" unicode="U" d="M159.5 17.5q-51.5 31.5 -74 100.5t-22.5 188v494h100v-494q0 -90 12.5 -138.5t41.5 -69t83 -20.5t83 20.5t41.5 69t12.5 138.5v494h100v-494q0 -119 -22.5 -188t-74 -100.5t-140.5 -31.5t-140.5 31.5z" />
         <glyph glyph-name="Uacute" unicode="Ú" d="M159.5 17.5q-51.5 31.5 -74 100.5t-22.5 188v494h100v-494q0 -90 12.5 -138.5t41.5 -69t83 -20.5t83 20.5t41.5 69t12.5 138.5v494h100v-494q0 -119 -22.5 -188t-74 -100.5t-140.5 -31.5t-140.5 31.5zM460 1005l-172 -149l-66 70l172 149z" />
         <glyph glyph-name="Ubreve" unicode="Ŭ" d="M159.5 17.5q-51.5 31.5 -74 100.5t-22.5 188v494h100v-494q0 -90 12.5 -138.5t41.5 -69t83 -20.5t83 20.5t41.5 69t12.5 138.5v494h100v-494q0 -119 -22.5 -188t-74 -100.5t-140.5 -31.5t-140.5 31.5zM180 883q-33 36 -28 125h100q-1 -10 -1 -27q0 -27 9.5 -34.5 t39.5 -7.5q27 0 37 5t12.5 17.5t1.5 46.5h99q1 -9 1 -25q0 -74 -34.5 -105t-116.5 -31q-87 0 -120 36z" />
         <glyph glyph-name="uni01D3" unicode="Ǔ" d="M159.5 17.5q-51.5 31.5 -74 100.5t-22.5 188v494h100v-494q0 -90 12.5 -138.5t41.5 -69t83 -20.5t83 20.5t41.5 69t12.5 138.5v494h100v-494q0 -119 -22.5 -188t-74 -100.5t-140.5 -31.5t-140.5 31.5zM467 985l-167 -150l-166 148l76 60l90 -80l90 82z" />
         <glyph glyph-name="Ucircumflex" unicode="Û" d="M159.5 17.5q-51.5 31.5 -74 100.5t-22.5 188v494h100v-494q0 -90 12.5 -138.5t41.5 -69t83 -20.5t83 20.5t41.5 69t12.5 138.5v494h100v-494q0 -119 -22.5 -188t-74 -100.5t-140.5 -31.5t-140.5 31.5zM467 899l-77 -60l-90 82l-91 -80l-76 60l167 148z" />
         <glyph glyph-name="Udieresis" unicode="Ü" d="M159.5 17.5q-51.5 31.5 -74 100.5t-22.5 188v494h100v-494q0 -90 12.5 -138.5t41.5 -69t83 -20.5t83 20.5t41.5 69t12.5 138.5v494h100v-494q0 -119 -22.5 -188t-74 -100.5t-140.5 -31.5t-140.5 31.5zM131 908.5q-19 17.5 -19 57.5q0 38 19 55.5t61 17.5t61 -17.5 t19 -55.5q0 -40 -19 -57.5t-61 -17.5t-61 17.5zM347 908.5q-19 17.5 -19 57.5q0 38 19 55.5t61 17.5t61 -17.5t19 -55.5q0 -40 -19 -57.5t-61 -17.5t-61 17.5z" />
         <glyph glyph-name="uni01D7" unicode="Ǘ" d="M159.5 17.5q-51.5 31.5 -74 100.5t-22.5 188v494h100v-494q0 -90 12.5 -138.5t41.5 -69t83 -20.5t83 20.5t41.5 69t12.5 138.5v494h100v-494q0 -119 -22.5 -188t-74 -100.5t-140.5 -31.5t-140.5 31.5zM131 825.5q-19 17.5 -19 57.5q0 38 19 55.5t61 17.5t61 -17.5 t19 -55.5q0 -40 -19 -57.5t-61 -17.5t-61 17.5zM347 825.5q-19 17.5 -19 57.5q0 38 19 55.5t61 17.5t61 -17.5t19 -55.5q0 -40 -19 -57.5t-61 -17.5t-61 17.5zM460 1074l-172 -149l-66 70l172 149z" />
         <glyph glyph-name="uni01D9" unicode="Ǚ" d="M159.5 17.5q-51.5 31.5 -74 100.5t-22.5 188v494h100v-494q0 -90 12.5 -138.5t41.5 -69t83 -20.5t83 20.5t41.5 69t12.5 138.5v494h100v-494q0 -119 -22.5 -188t-74 -100.5t-140.5 -31.5t-140.5 31.5zM131 825.5q-19 17.5 -19 57.5q0 38 19 55.5t61 17.5t61 -17.5 t19 -55.5q0 -40 -19 -57.5t-61 -17.5t-61 17.5zM347 825.5q-19 17.5 -19 57.5q0 38 19 55.5t61 17.5t61 -17.5t19 -55.5q0 -40 -19 -57.5t-61 -17.5t-61 17.5zM467 1087l-167 -150l-166 148l76 60l90 -80l90 82z" />
         <glyph glyph-name="uni01DB" unicode="Ǜ" d="M159.5 17.5q-51.5 31.5 -74 100.5t-22.5 188v494h100v-494q0 -90 12.5 -138.5t41.5 -69t83 -20.5t83 20.5t41.5 69t12.5 138.5v494h100v-494q0 -119 -22.5 -188t-74 -100.5t-140.5 -31.5t-140.5 31.5zM131 825.5q-19 17.5 -19 57.5q0 38 19 55.5t61 17.5t61 -17.5 t19 -55.5q0 -40 -19 -57.5t-61 -17.5t-61 17.5zM347 825.5q-19 17.5 -19 57.5q0 38 19 55.5t61 17.5t61 -17.5t19 -55.5q0 -40 -19 -57.5t-61 -17.5t-61 17.5zM378 995l-66 -70l-172 149l66 70z" />
         <glyph glyph-name="uni01D5" unicode="Ǖ" d="M159.5 17.5q-51.5 31.5 -74 100.5t-22.5 188v494h100v-494q0 -90 12.5 -138.5t41.5 -69t83 -20.5t83 20.5t41.5 69t12.5 138.5v494h100v-494q0 -119 -22.5 -188t-74 -100.5t-140.5 -31.5t-140.5 31.5zM131 825.5q-19 17.5 -19 57.5q0 38 19 55.5t61 17.5t61 -17.5 t19 -55.5q0 -40 -19 -57.5t-61 -17.5t-61 17.5zM347 825.5q-19 17.5 -19 57.5q0 38 19 55.5t61 17.5t61 -17.5t19 -55.5q0 -40 -19 -57.5t-61 -17.5t-61 17.5zM462 1018h-324v92h324v-92z" />
         <glyph glyph-name="uni1EE4" unicode="Ụ" d="M159.5 17.5q-51.5 31.5 -74 100.5t-22.5 188v494h100v-494q0 -90 12.5 -138.5t41.5 -69t83 -20.5t83 20.5t41.5 69t12.5 138.5v494h100v-494q0 -119 -22.5 -188t-74 -100.5t-140.5 -31.5t-140.5 31.5zM237 -226q-17 16 -17 59t17 59t63 16t63 -16t17 -59t-17 -59t-63 -16 t-63 16z" />
         <glyph glyph-name="Ugrave" unicode="Ù" d="M159.5 17.5q-51.5 31.5 -74 100.5t-22.5 188v494h100v-494q0 -90 12.5 -138.5t41.5 -69t83 -20.5t83 20.5t41.5 69t12.5 138.5v494h100v-494q0 -119 -22.5 -188t-74 -100.5t-140.5 -31.5t-140.5 31.5zM378 926l-66 -70l-172 149l66 70z" />
         <glyph glyph-name="uni1EE6" unicode="Ủ" d="M159.5 17.5q-51.5 31.5 -74 100.5t-22.5 188v494h100v-494q0 -90 12.5 -138.5t41.5 -69t83 -20.5t83 20.5t41.5 69t12.5 138.5v494h100v-494q0 -119 -22.5 -188t-74 -100.5t-140.5 -31.5t-140.5 31.5zM241 932q31 3 50.5 12.5t19.5 22.5q0 10 -6 15.5t-17 5.5 q-15 0 -42 -15.5t-57 -40.5v108q19 18 46 29t53 11q56 0 89.5 -28.5t33.5 -74.5q0 -50 -40 -87t-105 -47z" />
         <glyph glyph-name="Uhorn" unicode="Ư" d="M603 963h100v-153q0 -64 -36.5 -104.5t-95.5 -40.5q-16 0 -34 6v-365q0 -119 -22.5 -188t-74 -100.5t-140.5 -31.5t-140.5 31.5t-74 100.5t-22.5 188v494h100v-494q0 -90 12.5 -138.5t41.5 -69t83 -20.5t83 20.5t41.5 69t12.5 138.5v494h100v-40q11 -3 24 -3q42 0 42 53 v153z" />
         <glyph glyph-name="uni1EE8" unicode="Ứ" d="M603 963h100v-153q0 -64 -36.5 -104.5t-95.5 -40.5q-16 0 -34 6v-365q0 -119 -22.5 -188t-74 -100.5t-140.5 -31.5t-140.5 31.5t-74 100.5t-22.5 188v494h100v-494q0 -90 12.5 -138.5t41.5 -69t83 -20.5t83 20.5t41.5 69t12.5 138.5v494h100v-40q11 -3 24 -3q42 0 42 53 v153zM460 1005l-172 -149l-66 70l172 149z" />
         <glyph glyph-name="uni1EF0" unicode="Ự" d="M603 963h100v-153q0 -64 -36.5 -104.5t-95.5 -40.5q-16 0 -34 6v-365q0 -119 -22.5 -188t-74 -100.5t-140.5 -31.5t-140.5 31.5t-74 100.5t-22.5 188v494h100v-494q0 -90 12.5 -138.5t41.5 -69t83 -20.5t83 20.5t41.5 69t12.5 138.5v494h100v-40q11 -3 24 -3q42 0 42 53 v153zM237 -226q-17 16 -17 59t17 59t63 16t63 -16t17 -59t-17 -59t-63 -16t-63 16z" />
         <glyph glyph-name="uni1EEA" unicode="Ừ" d="M603 963h100v-153q0 -64 -36.5 -104.5t-95.5 -40.5q-16 0 -34 6v-365q0 -119 -22.5 -188t-74 -100.5t-140.5 -31.5t-140.5 31.5t-74 100.5t-22.5 188v494h100v-494q0 -90 12.5 -138.5t41.5 -69t83 -20.5t83 20.5t41.5 69t12.5 138.5v494h100v-40q11 -3 24 -3q42 0 42 53 v153zM378 926l-66 -70l-172 149l66 70z" />
         <glyph glyph-name="uni1EEC" unicode="Ử" d="M603 963h100v-153q0 -64 -36.5 -104.5t-95.5 -40.5q-16 0 -34 6v-365q0 -119 -22.5 -188t-74 -100.5t-140.5 -31.5t-140.5 31.5t-74 100.5t-22.5 188v494h100v-494q0 -90 12.5 -138.5t41.5 -69t83 -20.5t83 20.5t41.5 69t12.5 138.5v494h100v-40q11 -3 24 -3q42 0 42 53 v153zM241 932q31 3 50.5 12.5t19.5 22.5q0 10 -6 15.5t-17 5.5q-15 0 -42 -15.5t-57 -40.5v108q19 18 46 29t53 11q56 0 89.5 -28.5t33.5 -74.5q0 -50 -40 -87t-105 -47z" />
         <glyph glyph-name="uni1EEE" unicode="Ữ" d="M603 963h100v-153q0 -64 -36.5 -104.5t-95.5 -40.5q-16 0 -34 6v-365q0 -119 -22.5 -188t-74 -100.5t-140.5 -31.5t-140.5 31.5t-74 100.5t-22.5 188v494h100v-494q0 -90 12.5 -138.5t41.5 -69t83 -20.5t83 20.5t41.5 69t12.5 138.5v494h100v-40q11 -3 24 -3q42 0 42 53 v153zM320 890q-28 17 -67 46q-19 14 -20 14q-8 0 -8 -17q0 -14 6 -34h-103q-1 8 -1 23q0 53 29.5 86.5t76.5 33.5q21 0 45 -15t59 -41q25 -21 30 -21q9 0 9 15q0 10 -7 33h102q2 -16 2 -24q0 -51 -29.5 -83.5t-76.5 -32.5q-19 0 -47 17z" />
         <glyph glyph-name="Uhungarumlaut" unicode="Ű" d="M159.5 17.5q-51.5 31.5 -74 100.5t-22.5 188v494h100v-494q0 -90 12.5 -138.5t41.5 -69t83 -20.5t83 20.5t41.5 69t12.5 138.5v494h100v-494q0 -119 -22.5 -188t-74 -100.5t-140.5 -31.5t-140.5 31.5zM298 1005l-172 -149l-66 70l172 149zM540 1005l-172 -149l-66 70 l172 149z" />
         <glyph glyph-name="Umacron" unicode="Ū" d="M159.5 17.5q-51.5 31.5 -74 100.5t-22.5 188v494h100v-494q0 -90 12.5 -138.5t41.5 -69t83 -20.5t83 20.5t41.5 69t12.5 138.5v494h100v-494q0 -119 -22.5 -188t-74 -100.5t-140.5 -31.5t-140.5 31.5zM462 886h-324v92h324v-92z" />
         <glyph glyph-name="Uogonek" unicode="Ų" d="M437 800h100v-494q0 -137 -30.5 -209.5t-102.5 -96.5h3q-74 -32 -101.5 -49.5t-27.5 -33.5q0 -10 7 -15.5t25 -5.5q13 0 24.5 4.5t18.5 12.5l75 -60q-19 -22 -52 -35.5t-67 -13.5q-59 0 -94.5 24.5t-35.5 65.5q0 27 20 52t53 42q-70 8 -111.5 43t-59.5 101.5t-18 173.5 v494h100v-494q0 -90 12.5 -138.5t41.5 -69t83 -20.5t83 20.5t41.5 69t12.5 138.5v494z" />
         <glyph glyph-name="Uring" unicode="Ů" d="M537 800v-494q0 -119 -22.5 -188t-74 -100.5t-140.5 -31.5t-140.5 31.5t-74 100.5t-22.5 188v494h94q-6 24 -6 57q0 75 34 106.5t115 31.5q83 0 117 -31t34 -107q0 -33 -6 -57h92zM260 894.5q-9 -8.5 -9 -37.5t9 -37.5t40 -8.5q33 0 42 8.5t9 37.5t-9 37.5t-42 8.5 q-31 0 -40 -8.5zM383 98.5q29 20.5 41.5 69t12.5 138.5v472q-15 -31 -48 -45t-89 -14q-57 0 -90 15t-47 49v-477q0 -90 12.5 -138.5t41.5 -69t83 -20.5t83 20.5z" />
         <glyph glyph-name="Utilde" unicode="Ũ" d="M159.5 17.5q-51.5 31.5 -74 100.5t-22.5 188v494h100v-494q0 -90 12.5 -138.5t41.5 -69t83 -20.5t83 20.5t41.5 69t12.5 138.5v494h100v-494q0 -119 -22.5 -188t-74 -100.5t-140.5 -31.5t-140.5 31.5zM320 890q-28 17 -67 46q-19 14 -20 14q-8 0 -8 -17q0 -14 6 -34h-103 q-1 8 -1 23q0 53 29.5 86.5t76.5 33.5q21 0 45 -15t59 -41q25 -21 30 -21q9 0 9 15q0 10 -7 33h102q2 -16 2 -24q0 -51 -29.5 -83.5t-76.5 -32.5q-19 0 -47 17z" />
         <glyph glyph-name="V" unicode="V" d="M348 0h-96l-230 800h106l172 -615l172 615h106z" />
         <glyph glyph-name="W" unicode="W" d="M218 0h-98l-113 800h101l74 -547l73 306h90l73 -306l74 547h101l-113 -800h-93l-87 339z" />
         <glyph glyph-name="Wacute" unicode="Ẃ" d="M218 0h-98l-113 800h101l74 -547l73 306h90l73 -306l74 547h101l-113 -800h-93l-87 339zM460 1005l-172 -149l-66 70l172 149z" />
         <glyph glyph-name="Wcircumflex" unicode="Ŵ" d="M218 0h-98l-113 800h101l74 -547l73 306h90l73 -306l74 547h101l-113 -800h-93l-87 339zM467 899l-77 -60l-90 82l-91 -80l-76 60l167 148z" />
         <glyph glyph-name="Wdieresis" unicode="Ẅ" d="M218 0h-98l-113 800h101l74 -547l73 306h90l73 -306l74 547h101l-113 -800h-93l-87 339zM131 908.5q-19 17.5 -19 57.5q0 38 19 55.5t61 17.5t61 -17.5t19 -55.5q0 -40 -19 -57.5t-61 -17.5t-61 17.5zM347 908.5q-19 17.5 -19 57.5q0 38 19 55.5t61 17.5t61 -17.5 t19 -55.5q0 -40 -19 -57.5t-61 -17.5t-61 17.5z" />
         <glyph glyph-name="Wgrave" unicode="Ẁ" d="M218 0h-98l-113 800h101l74 -547l73 306h90l73 -306l74 547h101l-113 -800h-93l-87 339zM378 926l-66 -70l-172 149l66 70z" />
         <glyph glyph-name="X" unicode="X" d="M468 800h111l-223 -400l223 -400h-111l-168 301l-168 -301h-111l224 400l-224 400h111l168 -301z" />
         <glyph glyph-name="Y" unicode="Y" d="M350 0h-100v293l-246 507h109l187 -382l187 382h109l-246 -507v-293z" />
         <glyph glyph-name="Yacute" unicode="Ý" d="M350 0h-100v293l-246 507h109l187 -382l187 382h109l-246 -507v-293zM460 1005l-172 -149l-66 70l172 149z" />
         <glyph glyph-name="Ycircumflex" unicode="Ŷ" d="M350 0h-100v293l-246 507h109l187 -382l187 382h109l-246 -507v-293zM467 899l-77 -60l-90 82l-91 -80l-76 60l167 148z" />
         <glyph glyph-name="Ydieresis" unicode="Ÿ" d="M350 0h-100v293l-246 507h109l187 -382l187 382h109l-246 -507v-293zM131 908.5q-19 17.5 -19 57.5q0 38 19 55.5t61 17.5t61 -17.5t19 -55.5q0 -40 -19 -57.5t-61 -17.5t-61 17.5zM347 908.5q-19 17.5 -19 57.5q0 38 19 55.5t61 17.5t61 -17.5t19 -55.5q0 -40 -19 -57.5 t-61 -17.5t-61 17.5z" />
         <glyph glyph-name="uni1EF4" unicode="Ỵ" d="M350 0h-100v293l-246 507h109l187 -382l187 382h109l-246 -507v-293zM237 -226q-17 16 -17 59t17 59t63 16t63 -16t17 -59t-17 -59t-63 -16t-63 16z" />
         <glyph glyph-name="Ygrave" unicode="Ỳ" d="M350 0h-100v293l-246 507h109l187 -382l187 382h109l-246 -507v-293zM378 926l-66 -70l-172 149l66 70z" />
         <glyph glyph-name="uni1EF6" unicode="Ỷ" d="M350 0h-100v293l-246 507h109l187 -382l187 382h109l-246 -507v-293zM241 932q31 3 50.5 12.5t19.5 22.5q0 10 -6 15.5t-17 5.5q-15 0 -42 -15.5t-57 -40.5v108q19 18 46 29t53 11q56 0 89.5 -28.5t33.5 -74.5q0 -50 -40 -87t-105 -47z" />
         <glyph glyph-name="uni1EF8" unicode="Ỹ" d="M350 0h-100v293l-246 507h109l187 -382l187 382h109l-246 -507v-293zM320 890q-28 17 -67 46q-19 14 -20 14q-8 0 -8 -17q0 -14 6 -34h-103q-1 8 -1 23q0 53 29.5 86.5t76.5 33.5q21 0 45 -15t59 -41q25 -21 30 -21q9 0 9 15q0 10 -7 33h102q2 -16 2 -24 q0 -51 -29.5 -83.5t-76.5 -32.5q-19 0 -47 17z" />
         <glyph glyph-name="Z" unicode="Z" d="M564 0h-530v70l406 638h-404v92h530v-71l-406 -637h404v-92z" />
         <glyph glyph-name="Zacute" unicode="Ź" d="M564 0h-530v70l406 638h-404v92h530v-71l-406 -637h404v-92zM460 1002l-172 -149l-66 70l172 149z" />
         <glyph glyph-name="Zcaron" unicode="Ž" d="M564 0h-530v70l406 638h-404v92h530v-71l-406 -637h404v-92zM467 982l-167 -150l-166 148l76 60l90 -80l90 82z" />
         <glyph glyph-name="Zdotaccent" unicode="Ż" d="M564 0h-530v70l406 638h-404v92h530v-71l-406 -637h404v-92zM237 915q-17 16 -17 59t17 59t63 16t63 -16t17 -59t-17 -59t-63 -16t-63 16z" />
         <glyph glyph-name="a" unicode="a" d="M136.5 5q-50.5 19 -73 60.5t-22.5 112.5q0 78 22.5 121t72 60.5t138.5 17.5h133v32q0 47 -11.5 73t-40 37t-81.5 11q-42 0 -65.5 -9t-36.5 -30.5t-24 -65.5l-96 24q17 66 43.5 106t69 58.5t109.5 18.5q127 0 180 -53t53 -170v-241q0 -38 6 -54t21.5 -19.5t50.5 -1.5v-92 l-25 -1q-46 0 -74.5 12t-43.5 38q-27 -35 -66.5 -49.5t-101.5 -14.5q-87 0 -137.5 19zM356 91q28 13 39.5 44.5t11.5 90.5v59h-133q-57 0 -84 -7t-38 -29.5t-11 -70.5q0 -40 11 -61t39.5 -30t82.5 -9t82 13z" />
         <glyph glyph-name="aacute" unicode="á" d="M136.5 5q-50.5 19 -73 60.5t-22.5 112.5q0 78 22.5 121t72 60.5t138.5 17.5h133v32q0 47 -11.5 73t-40 37t-81.5 11q-42 0 -65.5 -9t-36.5 -30.5t-24 -65.5l-96 24q17 66 43.5 106t69 58.5t109.5 18.5q127 0 180 -53t53 -170v-241q0 -38 6 -54t21.5 -19.5t50.5 -1.5v-92 l-25 -1q-46 0 -74.5 12t-43.5 38q-27 -35 -66.5 -49.5t-101.5 -14.5q-87 0 -137.5 19zM356 91q28 13 39.5 44.5t11.5 90.5v59h-133q-57 0 -84 -7t-38 -29.5t-11 -70.5q0 -40 11 -61t39.5 -30t82.5 -9t82 13zM460 820l-172 -149l-66 70l172 149z" />
         <glyph glyph-name="abreve" unicode="ă" d="M136.5 5q-50.5 19 -73 60.5t-22.5 112.5q0 78 22.5 121t72 60.5t138.5 17.5h133v32q0 47 -11.5 73t-40 37t-81.5 11q-42 0 -65.5 -9t-36.5 -30.5t-24 -65.5l-96 24q17 66 43.5 106t69 58.5t109.5 18.5q127 0 180 -53t53 -170v-241q0 -38 6 -54t21.5 -19.5t50.5 -1.5v-92 l-25 -1q-46 0 -74.5 12t-43.5 38q-27 -35 -66.5 -49.5t-101.5 -14.5q-87 0 -137.5 19zM356 91q28 13 39.5 44.5t11.5 90.5v59h-133q-57 0 -84 -7t-38 -29.5t-11 -70.5q0 -40 11 -61t39.5 -30t82.5 -9t82 13zM180 698q-33 36 -28 125h100q-1 -10 -1 -27q0 -27 9.5 -34.5 t39.5 -7.5q27 0 37 5t12.5 17.5t1.5 46.5h99q1 -9 1 -25q0 -74 -34.5 -105t-116.5 -31q-87 0 -120 36z" />
         <glyph glyph-name="uni1EAF" unicode="ắ" d="M136.5 5q-50.5 19 -73 60.5t-22.5 112.5q0 78 22.5 121t72 60.5t138.5 17.5h133v32q0 47 -11.5 73t-40 37t-81.5 11q-42 0 -65.5 -9t-36.5 -30.5t-24 -65.5l-96 24q17 66 43.5 106t69 58.5t109.5 18.5q127 0 180 -53t53 -170v-241q0 -38 6 -54t21.5 -19.5t50.5 -1.5v-92 l-25 -1q-46 0 -74.5 12t-43.5 38q-27 -35 -66.5 -49.5t-101.5 -14.5q-87 0 -137.5 19zM356 91q28 13 39.5 44.5t11.5 90.5v59h-133q-57 0 -84 -7t-38 -29.5t-11 -70.5q0 -40 11 -61t39.5 -30t82.5 -9t82 13zM180 698q-33 36 -28 125h100q-1 -10 -1 -27q0 -27 9.5 -34.5 t39.5 -7.5q27 0 37 5t12.5 17.5t1.5 46.5h99q1 -9 1 -25q0 -74 -34.5 -105t-116.5 -31q-87 0 -120 36zM460 1025l-172 -149l-66 70l172 149z" />
         <glyph glyph-name="uni1EB7" unicode="ặ" d="M136.5 5q-50.5 19 -73 60.5t-22.5 112.5q0 78 22.5 121t72 60.5t138.5 17.5h133v32q0 47 -11.5 73t-40 37t-81.5 11q-42 0 -65.5 -9t-36.5 -30.5t-24 -65.5l-96 24q17 66 43.5 106t69 58.5t109.5 18.5q127 0 180 -53t53 -170v-241q0 -38 6 -54t21.5 -19.5t50.5 -1.5v-92 l-25 -1q-46 0 -74.5 12t-43.5 38q-27 -35 -66.5 -49.5t-101.5 -14.5q-87 0 -137.5 19zM356 91q28 13 39.5 44.5t11.5 90.5v59h-133q-57 0 -84 -7t-38 -29.5t-11 -70.5q0 -40 11 -61t39.5 -30t82.5 -9t82 13zM237 -223q-17 16 -17 59t17 59t63 16t63 -16t17 -59t-17 -59 t-63 -16t-63 16zM180 698q-33 36 -28 125h100q-1 -10 -1 -27q0 -27 9.5 -34.5t39.5 -7.5q27 0 37 5t12.5 17.5t1.5 46.5h99q1 -9 1 -25q0 -74 -34.5 -105t-116.5 -31q-87 0 -120 36z" />
         <glyph glyph-name="uni1EB1" unicode="ằ" d="M136.5 5q-50.5 19 -73 60.5t-22.5 112.5q0 78 22.5 121t72 60.5t138.5 17.5h133v32q0 47 -11.5 73t-40 37t-81.5 11q-42 0 -65.5 -9t-36.5 -30.5t-24 -65.5l-96 24q17 66 43.5 106t69 58.5t109.5 18.5q127 0 180 -53t53 -170v-241q0 -38 6 -54t21.5 -19.5t50.5 -1.5v-92 l-25 -1q-46 0 -74.5 12t-43.5 38q-27 -35 -66.5 -49.5t-101.5 -14.5q-87 0 -137.5 19zM356 91q28 13 39.5 44.5t11.5 90.5v59h-133q-57 0 -84 -7t-38 -29.5t-11 -70.5q0 -40 11 -61t39.5 -30t82.5 -9t82 13zM180 698q-33 36 -28 125h100q-1 -10 -1 -27q0 -27 9.5 -34.5 t39.5 -7.5q27 0 37 5t12.5 17.5t1.5 46.5h99q1 -9 1 -25q0 -74 -34.5 -105t-116.5 -31q-87 0 -120 36zM378 946l-66 -70l-172 149l66 70z" />
         <glyph glyph-name="uni1EB3" unicode="ẳ" d="M136.5 5q-50.5 19 -73 60.5t-22.5 112.5q0 78 22.5 121t72 60.5t138.5 17.5h133v32q0 47 -11.5 73t-40 37t-81.5 11q-42 0 -65.5 -9t-36.5 -30.5t-24 -65.5l-96 24q17 66 43.5 106t69 58.5t109.5 18.5q127 0 180 -53t53 -170v-241q0 -38 6 -54t21.5 -19.5t50.5 -1.5v-92 l-25 -1q-46 0 -74.5 12t-43.5 38q-27 -35 -66.5 -49.5t-101.5 -14.5q-87 0 -137.5 19zM356 91q28 13 39.5 44.5t11.5 90.5v59h-133q-57 0 -84 -7t-38 -29.5t-11 -70.5q0 -40 11 -61t39.5 -30t82.5 -9t82 13zM180 698q-33 36 -28 125h100q-1 -10 -1 -27q0 -27 9.5 -34.5 t39.5 -7.5q27 0 37 5t12.5 17.5t1.5 46.5h99q1 -9 1 -25q0 -74 -34.5 -105t-116.5 -31q-87 0 -120 36zM241 952q31 3 50.5 12.5t19.5 22.5q0 10 -6 15.5t-17 5.5q-15 0 -42 -15.5t-57 -40.5v108q19 18 46 29t53 11q56 0 89.5 -28.5t33.5 -74.5q0 -50 -40 -87t-105 -47z" />
         <glyph glyph-name="uni1EB5" unicode="ẵ" d="M136.5 5q-50.5 19 -73 60.5t-22.5 112.5q0 78 22.5 121t72 60.5t138.5 17.5h133v32q0 47 -11.5 73t-40 37t-81.5 11q-42 0 -65.5 -9t-36.5 -30.5t-24 -65.5l-96 24q17 66 43.5 106t69 58.5t109.5 18.5q127 0 180 -53t53 -170v-241q0 -38 6 -54t21.5 -19.5t50.5 -1.5v-92 l-25 -1q-46 0 -74.5 12t-43.5 38q-27 -35 -66.5 -49.5t-101.5 -14.5q-87 0 -137.5 19zM356 91q28 13 39.5 44.5t11.5 90.5v59h-133q-57 0 -84 -7t-38 -29.5t-11 -70.5q0 -40 11 -61t39.5 -30t82.5 -9t82 13zM180 698q-33 36 -28 125h100q-1 -10 -1 -27q0 -27 9.5 -34.5 t39.5 -7.5q27 0 37 5t12.5 17.5t1.5 46.5h99q1 -9 1 -25q0 -74 -34.5 -105t-116.5 -31q-87 0 -120 36zM320 910q-28 17 -67 46q-19 14 -20 14q-8 0 -8 -17q0 -14 6 -34h-103q-1 8 -1 23q0 53 29.5 86.5t76.5 33.5q21 0 45 -15t59 -41q25 -21 30 -21q9 0 9 15q0 10 -7 33h102 q2 -16 2 -24q0 -51 -29.5 -83.5t-76.5 -32.5q-19 0 -47 17z" />
         <glyph glyph-name="uni01CE" unicode="ǎ" d="M136.5 5q-50.5 19 -73 60.5t-22.5 112.5q0 78 22.5 121t72 60.5t138.5 17.5h133v32q0 47 -11.5 73t-40 37t-81.5 11q-42 0 -65.5 -9t-36.5 -30.5t-24 -65.5l-96 24q17 66 43.5 106t69 58.5t109.5 18.5q127 0 180 -53t53 -170v-241q0 -38 6 -54t21.5 -19.5t50.5 -1.5v-92 l-25 -1q-46 0 -74.5 12t-43.5 38q-27 -35 -66.5 -49.5t-101.5 -14.5q-87 0 -137.5 19zM356 91q28 13 39.5 44.5t11.5 90.5v59h-133q-57 0 -84 -7t-38 -29.5t-11 -70.5q0 -40 11 -61t39.5 -30t82.5 -9t82 13zM467 800l-167 -150l-166 148l76 60l90 -80l90 82z" />
         <glyph glyph-name="acircumflex" unicode="â" d="M136.5 5q-50.5 19 -73 60.5t-22.5 112.5q0 78 22.5 121t72 60.5t138.5 17.5h133v32q0 47 -11.5 73t-40 37t-81.5 11q-42 0 -65.5 -9t-36.5 -30.5t-24 -65.5l-96 24q17 66 43.5 106t69 58.5t109.5 18.5q127 0 180 -53t53 -170v-241q0 -38 6 -54t21.5 -19.5t50.5 -1.5v-92 l-25 -1q-46 0 -74.5 12t-43.5 38q-27 -35 -66.5 -49.5t-101.5 -14.5q-87 0 -137.5 19zM356 91q28 13 39.5 44.5t11.5 90.5v59h-133q-57 0 -84 -7t-38 -29.5t-11 -70.5q0 -40 11 -61t39.5 -30t82.5 -9t82 13zM467 714l-77 -60l-90 82l-91 -80l-76 60l167 148z" />
         <glyph glyph-name="uni1EA5" unicode="ấ" d="M136.5 5q-50.5 19 -73 60.5t-22.5 112.5q0 78 22.5 121t72 60.5t138.5 17.5h133v32q0 47 -11.5 73t-40 37t-81.5 11q-42 0 -65.5 -9t-36.5 -30.5t-24 -65.5l-96 24q17 66 43.5 106t69 58.5t109.5 18.5q127 0 180 -53t53 -170v-241q0 -38 6 -54t21.5 -19.5t50.5 -1.5v-92 l-25 -1q-46 0 -74.5 12t-43.5 38q-27 -35 -66.5 -49.5t-101.5 -14.5q-87 0 -137.5 19zM356 91q28 13 39.5 44.5t11.5 90.5v59h-133q-57 0 -84 -7t-38 -29.5t-11 -70.5q0 -40 11 -61t39.5 -30t82.5 -9t82 13zM467 714l-77 -60l-90 82l-91 -80l-76 60l167 148zM460 1025 l-172 -149l-66 70l172 149z" />
         <glyph glyph-name="uni1EAD" unicode="ậ" d="M136.5 5q-50.5 19 -73 60.5t-22.5 112.5q0 78 22.5 121t72 60.5t138.5 17.5h133v32q0 47 -11.5 73t-40 37t-81.5 11q-42 0 -65.5 -9t-36.5 -30.5t-24 -65.5l-96 24q17 66 43.5 106t69 58.5t109.5 18.5q127 0 180 -53t53 -170v-241q0 -38 6 -54t21.5 -19.5t50.5 -1.5v-92 l-25 -1q-46 0 -74.5 12t-43.5 38q-27 -35 -66.5 -49.5t-101.5 -14.5q-87 0 -137.5 19zM356 91q28 13 39.5 44.5t11.5 90.5v59h-133q-57 0 -84 -7t-38 -29.5t-11 -70.5q0 -40 11 -61t39.5 -30t82.5 -9t82 13zM237 -223q-17 16 -17 59t17 59t63 16t63 -16t17 -59t-17 -59 t-63 -16t-63 16zM467 714l-77 -60l-90 82l-91 -80l-76 60l167 148z" />
         <glyph glyph-name="uni1EA7" unicode="ầ" d="M136.5 5q-50.5 19 -73 60.5t-22.5 112.5q0 78 22.5 121t72 60.5t138.5 17.5h133v32q0 47 -11.5 73t-40 37t-81.5 11q-42 0 -65.5 -9t-36.5 -30.5t-24 -65.5l-96 24q17 66 43.5 106t69 58.5t109.5 18.5q127 0 180 -53t53 -170v-241q0 -38 6 -54t21.5 -19.5t50.5 -1.5v-92 l-25 -1q-46 0 -74.5 12t-43.5 38q-27 -35 -66.5 -49.5t-101.5 -14.5q-87 0 -137.5 19zM356 91q28 13 39.5 44.5t11.5 90.5v59h-133q-57 0 -84 -7t-38 -29.5t-11 -70.5q0 -40 11 -61t39.5 -30t82.5 -9t82 13zM467 714l-77 -60l-90 82l-91 -80l-76 60l167 148zM378 946 l-66 -70l-172 149l66 70z" />
         <glyph glyph-name="uni1EA9" unicode="ẩ" d="M136.5 5q-50.5 19 -73 60.5t-22.5 112.5q0 78 22.5 121t72 60.5t138.5 17.5h133v32q0 47 -11.5 73t-40 37t-81.5 11q-42 0 -65.5 -9t-36.5 -30.5t-24 -65.5l-96 24q17 66 43.5 106t69 58.5t109.5 18.5q127 0 180 -53t53 -170v-241q0 -38 6 -54t21.5 -19.5t50.5 -1.5v-92 l-25 -1q-46 0 -74.5 12t-43.5 38q-27 -35 -66.5 -49.5t-101.5 -14.5q-87 0 -137.5 19zM356 91q28 13 39.5 44.5t11.5 90.5v59h-133q-57 0 -84 -7t-38 -29.5t-11 -70.5q0 -40 11 -61t39.5 -30t82.5 -9t82 13zM467 714l-77 -60l-90 82l-91 -80l-76 60l167 148zM241 952 q31 3 50.5 12.5t19.5 22.5q0 10 -6 15.5t-17 5.5q-15 0 -42 -15.5t-57 -40.5v108q19 18 46 29t53 11q56 0 89.5 -28.5t33.5 -74.5q0 -50 -40 -87t-105 -47z" />
         <glyph glyph-name="uni1EAB" unicode="ẫ" d="M136.5 5q-50.5 19 -73 60.5t-22.5 112.5q0 78 22.5 121t72 60.5t138.5 17.5h133v32q0 47 -11.5 73t-40 37t-81.5 11q-42 0 -65.5 -9t-36.5 -30.5t-24 -65.5l-96 24q17 66 43.5 106t69 58.5t109.5 18.5q127 0 180 -53t53 -170v-241q0 -38 6 -54t21.5 -19.5t50.5 -1.5v-92 l-25 -1q-46 0 -74.5 12t-43.5 38q-27 -35 -66.5 -49.5t-101.5 -14.5q-87 0 -137.5 19zM356 91q28 13 39.5 44.5t11.5 90.5v59h-133q-57 0 -84 -7t-38 -29.5t-11 -70.5q0 -40 11 -61t39.5 -30t82.5 -9t82 13zM467 714l-77 -60l-90 82l-91 -80l-76 60l167 148zM320 910 q-28 17 -67 46q-19 14 -20 14q-8 0 -8 -17q0 -14 6 -34h-103q-1 8 -1 23q0 53 29.5 86.5t76.5 33.5q21 0 45 -15t59 -41q25 -21 30 -21q9 0 9 15q0 10 -7 33h102q2 -16 2 -24q0 -51 -29.5 -83.5t-76.5 -32.5q-19 0 -47 17z" />
         <glyph glyph-name="adieresis" unicode="ä" d="M136.5 5q-50.5 19 -73 60.5t-22.5 112.5q0 78 22.5 121t72 60.5t138.5 17.5h133v32q0 47 -11.5 73t-40 37t-81.5 11q-42 0 -65.5 -9t-36.5 -30.5t-24 -65.5l-96 24q17 66 43.5 106t69 58.5t109.5 18.5q127 0 180 -53t53 -170v-241q0 -38 6 -54t21.5 -19.5t50.5 -1.5v-92 l-25 -1q-46 0 -74.5 12t-43.5 38q-27 -35 -66.5 -49.5t-101.5 -14.5q-87 0 -137.5 19zM356 91q28 13 39.5 44.5t11.5 90.5v59h-133q-57 0 -84 -7t-38 -29.5t-11 -70.5q0 -40 11 -61t39.5 -30t82.5 -9t82 13zM131 723.5q-19 17.5 -19 57.5q0 38 19 55.5t61 17.5t61 -17.5 t19 -55.5q0 -40 -19 -57.5t-61 -17.5t-61 17.5zM347 723.5q-19 17.5 -19 57.5q0 38 19 55.5t61 17.5t61 -17.5t19 -55.5q0 -40 -19 -57.5t-61 -17.5t-61 17.5z" />
         <glyph glyph-name="uni1EA1" unicode="ạ" d="M136.5 5q-50.5 19 -73 60.5t-22.5 112.5q0 78 22.5 121t72 60.5t138.5 17.5h133v32q0 47 -11.5 73t-40 37t-81.5 11q-42 0 -65.5 -9t-36.5 -30.5t-24 -65.5l-96 24q17 66 43.5 106t69 58.5t109.5 18.5q127 0 180 -53t53 -170v-241q0 -38 6 -54t21.5 -19.5t50.5 -1.5v-92 l-25 -1q-46 0 -74.5 12t-43.5 38q-27 -35 -66.5 -49.5t-101.5 -14.5q-87 0 -137.5 19zM356 91q28 13 39.5 44.5t11.5 90.5v59h-133q-57 0 -84 -7t-38 -29.5t-11 -70.5q0 -40 11 -61t39.5 -30t82.5 -9t82 13zM237 -223q-17 16 -17 59t17 59t63 16t63 -16t17 -59t-17 -59 t-63 -16t-63 16z" />
         <glyph glyph-name="agrave" unicode="à" d="M136.5 5q-50.5 19 -73 60.5t-22.5 112.5q0 78 22.5 121t72 60.5t138.5 17.5h133v32q0 47 -11.5 73t-40 37t-81.5 11q-42 0 -65.5 -9t-36.5 -30.5t-24 -65.5l-96 24q17 66 43.5 106t69 58.5t109.5 18.5q127 0 180 -53t53 -170v-241q0 -38 6 -54t21.5 -19.5t50.5 -1.5v-92 l-25 -1q-46 0 -74.5 12t-43.5 38q-27 -35 -66.5 -49.5t-101.5 -14.5q-87 0 -137.5 19zM356 91q28 13 39.5 44.5t11.5 90.5v59h-133q-57 0 -84 -7t-38 -29.5t-11 -70.5q0 -40 11 -61t39.5 -30t82.5 -9t82 13zM378 741l-66 -70l-172 149l66 70z" />
         <glyph glyph-name="uni1EA3" unicode="ả" d="M136.5 5q-50.5 19 -73 60.5t-22.5 112.5q0 78 22.5 121t72 60.5t138.5 17.5h133v32q0 47 -11.5 73t-40 37t-81.5 11q-42 0 -65.5 -9t-36.5 -30.5t-24 -65.5l-96 24q17 66 43.5 106t69 58.5t109.5 18.5q127 0 180 -53t53 -170v-241q0 -38 6 -54t21.5 -19.5t50.5 -1.5v-92 l-25 -1q-46 0 -74.5 12t-43.5 38q-27 -35 -66.5 -49.5t-101.5 -14.5q-87 0 -137.5 19zM356 91q28 13 39.5 44.5t11.5 90.5v59h-133q-57 0 -84 -7t-38 -29.5t-11 -70.5q0 -40 11 -61t39.5 -30t82.5 -9t82 13zM241 747q31 3 50.5 12.5t19.5 22.5q0 10 -6 15.5t-17 5.5 q-15 0 -42 -15.5t-57 -40.5v108q19 18 46 29t53 11q56 0 89.5 -28.5t33.5 -74.5q0 -50 -40 -87t-105 -47z" />
         <glyph glyph-name="amacron" unicode="ā" d="M136.5 5q-50.5 19 -73 60.5t-22.5 112.5q0 78 22.5 121t72 60.5t138.5 17.5h133v32q0 47 -11.5 73t-40 37t-81.5 11q-42 0 -65.5 -9t-36.5 -30.5t-24 -65.5l-96 24q17 66 43.5 106t69 58.5t109.5 18.5q127 0 180 -53t53 -170v-241q0 -38 6 -54t21.5 -19.5t50.5 -1.5v-92 l-25 -1q-46 0 -74.5 12t-43.5 38q-27 -35 -66.5 -49.5t-101.5 -14.5q-87 0 -137.5 19zM356 91q28 13 39.5 44.5t11.5 90.5v59h-133q-57 0 -84 -7t-38 -29.5t-11 -70.5q0 -40 11 -61t39.5 -30t82.5 -9t82 13zM462 701h-324v92h324v-92z" />
         <glyph glyph-name="aogonek" unicode="ą" d="M605 -146q-19 -22 -52 -35.5t-67 -13.5q-58 0 -94 24.5t-36 65.5q0 38 39.5 71.5t93.5 44.5q-31 12 -47 39q-27 -35 -66.5 -49.5t-101.5 -14.5q-87 0 -137.5 19t-73 60.5t-22.5 112.5q0 78 22.5 121t72 60.5t138.5 17.5h133v32q0 47 -11.5 73t-40 37t-81.5 11 q-42 0 -65.5 -9t-36.5 -30.5t-24 -65.5l-96 24q17 66 43.5 106t69 58.5t109.5 18.5q127 0 180 -53t53 -170v-241q0 -38 6 -54t21.5 -19.5t50.5 -1.5v-92h-1q-74 -32 -101.5 -49.5t-27.5 -33.5q0 -10 7 -15.5t25 -5.5q13 0 24.5 4.5t18.5 12.5zM407 285h-133q-57 0 -84 -7 t-38 -29.5t-11 -70.5q0 -40 11 -61t39.5 -30t82.5 -9t82 13t39.5 44.5t11.5 90.5v59z" />
         <glyph glyph-name="aring" unicode="å" d="M136.5 5q-50.5 19 -73 60.5t-22.5 112.5q0 78 22.5 121t72 60.5t138.5 17.5h133v32q0 47 -11.5 73t-40 37t-81.5 11q-42 0 -65.5 -9t-36.5 -30.5t-24 -65.5l-96 24q17 66 43.5 106t69 58.5t109.5 18.5q127 0 180 -53t53 -170v-241q0 -38 6 -54t21.5 -19.5t50.5 -1.5v-92 l-25 -1q-46 0 -74.5 12t-43.5 38q-27 -35 -66.5 -49.5t-101.5 -14.5q-87 0 -137.5 19zM356 91q28 13 39.5 44.5t11.5 90.5v59h-133q-57 0 -84 -7t-38 -29.5t-11 -70.5q0 -40 11 -61t39.5 -30t82.5 -9t82 13zM185 723.5q-34 31.5 -34 106.5t34 106.5t115 31.5q83 0 117 -31 t34 -107t-34 -107t-117 -31q-81 0 -115 31.5zM342 792.5q9 8.5 9 37.5t-9 37.5t-42 8.5q-31 0 -40 -8.5t-9 -37.5t9 -37.5t40 -8.5q33 0 42 8.5z" />
         <glyph glyph-name="atilde" unicode="ã" d="M136.5 5q-50.5 19 -73 60.5t-22.5 112.5q0 78 22.5 121t72 60.5t138.5 17.5h133v32q0 47 -11.5 73t-40 37t-81.5 11q-42 0 -65.5 -9t-36.5 -30.5t-24 -65.5l-96 24q17 66 43.5 106t69 58.5t109.5 18.5q127 0 180 -53t53 -170v-241q0 -38 6 -54t21.5 -19.5t50.5 -1.5v-92 l-25 -1q-46 0 -74.5 12t-43.5 38q-27 -35 -66.5 -49.5t-101.5 -14.5q-87 0 -137.5 19zM356 91q28 13 39.5 44.5t11.5 90.5v59h-133q-57 0 -84 -7t-38 -29.5t-11 -70.5q0 -40 11 -61t39.5 -30t82.5 -9t82 13zM320 705q-28 17 -67 46q-19 14 -20 14q-8 0 -8 -17q0 -14 6 -34 h-103q-1 8 -1 23q0 53 29.5 86.5t76.5 33.5q21 0 45 -15t59 -41q25 -21 30 -21q9 0 9 15q0 10 -7 33h102q2 -16 2 -24q0 -51 -29.5 -83.5t-76.5 -32.5q-19 0 -47 17z" />
         <glyph glyph-name="ae" unicode="æ" d="M37 30q-37 44 -37 147q0 78 19 121t60.5 61t114.5 18h55v39q0 50 -7 76t-25 37t-53 11q-17 0 -27 -8t-17 -30.5t-15 -67.5l-99 24q12 66 30.5 103.5t49 54t78.5 16.5q52 0 83 -15.5t53 -52.5q20 37 51 52.5t83 15.5q64 0 100.5 -34t51.5 -109t14 -204h-251q1 -80 9 -124 t26 -63.5t50 -19.5q26 0 46 19.5t41 72.5l81 -53q-25 -71 -64.5 -101t-103.5 -30q-46 0 -75.5 17t-54.5 58q-22 -41 -54 -58t-86 -17q-90 0 -127 44zM500 377q-1 91 -16.5 127t-49.5 36q-33 0 -51 -15t-25.5 -50t-8.5 -98h151zM217 90.5q18 12.5 25 44t7 92.5v58h-55 q-40 0 -59 -7.5t-27 -30t-8 -70.5q0 -40 6 -61t19.5 -29.5t38.5 -8.5q35 0 53 12.5z" />
         <glyph glyph-name="b" unicode="b" d="M174.5 8.5q-51.5 22.5 -96.5 78.5v713h100v-205q49 37 134 37q88 0 138.5 -32t72.5 -102.5t22 -189.5t-22 -188.5t-72.5 -101.5t-138.5 -32q-86 0 -137.5 22.5zM392.5 99q28.5 21 40.5 70t12 139t-12 140t-40.5 71t-80.5 21q-55 0 -83 -12.5t-39.5 -44t-11.5 -92.5v-272 q26 -24 54 -32.5t80 -8.5t80.5 21z" />
         <glyph glyph-name="c" unicode="c" d="M163.5 18q-56.5 32 -81 102t-24.5 189t25 189t82 102t157 32q84 0 133 -28.5t96 -103.5l-84 -50q-24 38 -42.5 56.5t-42 26t-60.5 7.5q-65 0 -100 -21t-49.5 -70t-14.5 -140t14.5 -140t48.5 -70t97 -21q54 0 83.5 18t66.5 73l83 -50q-48 -75 -98.5 -104t-134.5 -29 q-98 0 -154.5 32z" />
         <glyph glyph-name="cacute" unicode="ć" d="M163.5 18q-56.5 32 -81 102t-24.5 189t25 189t82 102t157 32q84 0 133 -28.5t96 -103.5l-84 -50q-24 38 -42.5 56.5t-42 26t-60.5 7.5q-65 0 -100 -21t-49.5 -70t-14.5 -140t14.5 -140t48.5 -70t97 -21q54 0 83.5 18t66.5 73l83 -50q-48 -75 -98.5 -104t-134.5 -29 q-98 0 -154.5 32zM460 820l-172 -149l-66 70l172 149z" />
         <glyph glyph-name="ccaron" unicode="č" d="M163.5 18q-56.5 32 -81 102t-24.5 189t25 189t82 102t157 32q84 0 133 -28.5t96 -103.5l-84 -50q-24 38 -42.5 56.5t-42 26t-60.5 7.5q-65 0 -100 -21t-49.5 -70t-14.5 -140t14.5 -140t48.5 -70t97 -21q54 0 83.5 18t66.5 73l83 -50q-48 -75 -98.5 -104t-134.5 -29 q-98 0 -154.5 32zM467 800l-167 -150l-166 148l76 60l90 -80l90 82z" />
         <glyph glyph-name="ccedilla" unicode="ç" d="M401.5 96q29.5 18 66.5 73l83 -50q-43 -68 -88 -98t-113 -34v-34q33 -8 53.5 -31t20.5 -54q0 -49 -36 -79t-94 -30q-38 0 -69 13t-45 35l39 68q9 -11 29.5 -17.5t45.5 -6.5q13 0 21.5 4.5t8.5 12.5q0 11 -20.5 18t-53.5 7v97q-71 11 -113 47t-60.5 102t-18.5 170 q0 119 25 189t82 102t157 32q84 0 133 -28.5t96 -103.5l-84 -50q-24 38 -42.5 56.5t-42 26t-60.5 7.5q-65 0 -100 -21t-49.5 -70t-14.5 -140t14.5 -140t48.5 -70t97 -21q54 0 83.5 18z" />
         <glyph glyph-name="ccircumflex" unicode="ĉ" d="M163.5 18q-56.5 32 -81 102t-24.5 189t25 189t82 102t157 32q84 0 133 -28.5t96 -103.5l-84 -50q-24 38 -42.5 56.5t-42 26t-60.5 7.5q-65 0 -100 -21t-49.5 -70t-14.5 -140t14.5 -140t48.5 -70t97 -21q54 0 83.5 18t66.5 73l83 -50q-48 -75 -98.5 -104t-134.5 -29 q-98 0 -154.5 32zM467 714l-77 -60l-90 82l-91 -80l-76 60l167 148z" />
         <glyph glyph-name="cdotaccent" unicode="ċ" d="M163.5 18q-56.5 32 -81 102t-24.5 189t25 189t82 102t157 32q84 0 133 -28.5t96 -103.5l-84 -50q-24 38 -42.5 56.5t-42 26t-60.5 7.5q-65 0 -100 -21t-49.5 -70t-14.5 -140t14.5 -140t48.5 -70t97 -21q54 0 83.5 18t66.5 73l83 -50q-48 -75 -98.5 -104t-134.5 -29 q-98 0 -154.5 32zM237 733q-17 16 -17 59t17 59t63 16t63 -16t17 -59t-17 -59t-63 -16t-63 16z" />
         <glyph glyph-name="d" unicode="d" d="M152 18q-52 32 -74.5 101.5t-22.5 188.5t22.5 189.5t74.5 102.5t143 32q90 0 141 -39v207h100v-800h-100v17q-50 -31 -141 -31t-143 32zM436 143v250q0 76 -34 111.5t-107 35.5q-54 0 -84 -21t-43 -71t-13 -140t13 -139t42.5 -70t84.5 -21q141 0 141 65z" />
         <glyph glyph-name="eth" unicode="ð" d="M435 669q57 -71 86 -175t29 -238q0 -99 -23.5 -157.5t-77.5 -85.5t-149 -27q-93 0 -147.5 26.5t-78.5 83.5t-24 153q0 97 24 154t78 83.5t148 26.5q71 0 116 -14q-25 73 -68 122l-157 -87l-49 80l125 69q-62 31 -145 25v92l26 1q126 0 216 -64l114 63l49 -80zM391 93.5 q32 15.5 45.5 52t13.5 103.5t-13.5 103.5t-45.5 52.5t-91 16t-91 -16t-45.5 -52.5t-13.5 -103.5t13.5 -103.5t45.5 -52t91 -15.5t91 15.5z" />
         <glyph glyph-name="dcaron" unicode="ď" d="M96 18q-48 32 -69.5 102t-21.5 188t22 188.5t69.5 103t128.5 32.5q37 0 66 -9.5t55 -29.5v207h100v-800h-100v17q-50 -31 -121 -31q-81 0 -129 32zM585 517h-78l-10 283h98zM314 95q32 17 32 48v250q0 147 -121 147q-45 0 -70.5 -21.5t-37.5 -71.5t-12 -139 q0 -88 12 -138t37.5 -71t70.5 -21q57 0 89 17z" />
         <glyph glyph-name="dcroat" unicode="đ" d="M595 749v-92h-59v-657h-100v17q-50 -31 -141 -31t-143 32t-74.5 101.5t-22.5 188.5t22.5 189.5t74.5 102.5t143 32q90 0 141 -39v64h-136v92h136v51h100v-51h59zM436 393q0 76 -34 111.5t-107 35.5q-54 0 -84 -21t-43 -71t-13 -140t13 -139t42.5 -70t84.5 -21 q141 0 141 65v250z" />
         <glyph glyph-name="e" unicode="e" d="M449.5 598q52.5 -34 74.5 -109t20 -204h-398q3 -79 18.5 -124t48.5 -64t90 -19q39 0 64 7.5t46 26.5t49 56l80 -53q-49 -72 -101 -100.5t-138 -28.5q-97 0 -152.5 32t-80 102t-24.5 189t24.5 189t80 102t152.5 32q94 0 146.5 -34zM442 377q-6 63 -20.5 98t-42.5 50 t-76 15q-54 0 -86 -15.5t-48.5 -50.5t-20.5 -97h294z" />
         <glyph glyph-name="eacute" unicode="é" d="M449.5 598q52.5 -34 74.5 -109t20 -204h-398q3 -79 18.5 -124t48.5 -64t90 -19q39 0 64 7.5t46 26.5t49 56l80 -53q-49 -72 -101 -100.5t-138 -28.5q-97 0 -152.5 32t-80 102t-24.5 189t24.5 189t80 102t152.5 32q94 0 146.5 -34zM442 377q-6 63 -20.5 98t-42.5 50 t-76 15q-54 0 -86 -15.5t-48.5 -50.5t-20.5 -97h294zM460 820l-172 -149l-66 70l172 149z" />
         <glyph glyph-name="ecaron" unicode="ě" d="M449.5 598q52.5 -34 74.5 -109t20 -204h-398q3 -79 18.5 -124t48.5 -64t90 -19q39 0 64 7.5t46 26.5t49 56l80 -53q-49 -72 -101 -100.5t-138 -28.5q-97 0 -152.5 32t-80 102t-24.5 189t24.5 189t80 102t152.5 32q94 0 146.5 -34zM442 377q-6 63 -20.5 98t-42.5 50 t-76 15q-54 0 -86 -15.5t-48.5 -50.5t-20.5 -97h294zM467 800l-167 -150l-166 148l76 60l90 -80l90 82z" />
         <glyph glyph-name="ecircumflex" unicode="ê" d="M449.5 598q52.5 -34 74.5 -109t20 -204h-398q3 -79 18.5 -124t48.5 -64t90 -19q39 0 64 7.5t46 26.5t49 56l80 -53q-49 -72 -101 -100.5t-138 -28.5q-97 0 -152.5 32t-80 102t-24.5 189t24.5 189t80 102t152.5 32q94 0 146.5 -34zM442 377q-6 63 -20.5 98t-42.5 50 t-76 15q-54 0 -86 -15.5t-48.5 -50.5t-20.5 -97h294zM467 714l-77 -60l-90 82l-91 -80l-76 60l167 148z" />
         <glyph glyph-name="uni1EBF" unicode="ế" d="M449.5 598q52.5 -34 74.5 -109t20 -204h-398q3 -79 18.5 -124t48.5 -64t90 -19q39 0 64 7.5t46 26.5t49 56l80 -53q-49 -72 -101 -100.5t-138 -28.5q-97 0 -152.5 32t-80 102t-24.5 189t24.5 189t80 102t152.5 32q94 0 146.5 -34zM442 377q-6 63 -20.5 98t-42.5 50 t-76 15q-54 0 -86 -15.5t-48.5 -50.5t-20.5 -97h294zM467 714l-77 -60l-90 82l-91 -80l-76 60l167 148zM460 1025l-172 -149l-66 70l172 149z" />
         <glyph glyph-name="uni1EC7" unicode="ệ" d="M449.5 598q52.5 -34 74.5 -109t20 -204h-398q3 -79 18.5 -124t48.5 -64t90 -19q39 0 64 7.5t46 26.5t49 56l80 -53q-49 -72 -101 -100.5t-138 -28.5q-97 0 -152.5 32t-80 102t-24.5 189t24.5 189t80 102t152.5 32q94 0 146.5 -34zM442 377q-6 63 -20.5 98t-42.5 50 t-76 15q-54 0 -86 -15.5t-48.5 -50.5t-20.5 -97h294zM237 -223q-17 16 -17 59t17 59t63 16t63 -16t17 -59t-17 -59t-63 -16t-63 16zM467 714l-77 -60l-90 82l-91 -80l-76 60l167 148z" />
         <glyph glyph-name="uni1EC1" unicode="ề" d="M449.5 598q52.5 -34 74.5 -109t20 -204h-398q3 -79 18.5 -124t48.5 -64t90 -19q39 0 64 7.5t46 26.5t49 56l80 -53q-49 -72 -101 -100.5t-138 -28.5q-97 0 -152.5 32t-80 102t-24.5 189t24.5 189t80 102t152.5 32q94 0 146.5 -34zM442 377q-6 63 -20.5 98t-42.5 50 t-76 15q-54 0 -86 -15.5t-48.5 -50.5t-20.5 -97h294zM467 714l-77 -60l-90 82l-91 -80l-76 60l167 148zM378 946l-66 -70l-172 149l66 70z" />
         <glyph glyph-name="uni1EC3" unicode="ể" d="M449.5 598q52.5 -34 74.5 -109t20 -204h-398q3 -79 18.5 -124t48.5 -64t90 -19q39 0 64 7.5t46 26.5t49 56l80 -53q-49 -72 -101 -100.5t-138 -28.5q-97 0 -152.5 32t-80 102t-24.5 189t24.5 189t80 102t152.5 32q94 0 146.5 -34zM442 377q-6 63 -20.5 98t-42.5 50 t-76 15q-54 0 -86 -15.5t-48.5 -50.5t-20.5 -97h294zM467 714l-77 -60l-90 82l-91 -80l-76 60l167 148zM241 952q31 3 50.5 12.5t19.5 22.5q0 10 -6 15.5t-17 5.5q-15 0 -42 -15.5t-57 -40.5v108q19 18 46 29t53 11q56 0 89.5 -28.5t33.5 -74.5q0 -50 -40 -87t-105 -47z" />
         <glyph glyph-name="uni1EC5" unicode="ễ" d="M449.5 598q52.5 -34 74.5 -109t20 -204h-398q3 -79 18.5 -124t48.5 -64t90 -19q39 0 64 7.5t46 26.5t49 56l80 -53q-49 -72 -101 -100.5t-138 -28.5q-97 0 -152.5 32t-80 102t-24.5 189t24.5 189t80 102t152.5 32q94 0 146.5 -34zM442 377q-6 63 -20.5 98t-42.5 50 t-76 15q-54 0 -86 -15.5t-48.5 -50.5t-20.5 -97h294zM467 714l-77 -60l-90 82l-91 -80l-76 60l167 148zM320 910q-28 17 -67 46q-19 14 -20 14q-8 0 -8 -17q0 -14 6 -34h-103q-1 8 -1 23q0 53 29.5 86.5t76.5 33.5q21 0 45 -15t59 -41q25 -21 30 -21q9 0 9 15q0 10 -7 33 h102q2 -16 2 -24q0 -51 -29.5 -83.5t-76.5 -32.5q-19 0 -47 17z" />
         <glyph glyph-name="edieresis" unicode="ë" d="M449.5 598q52.5 -34 74.5 -109t20 -204h-398q3 -79 18.5 -124t48.5 -64t90 -19q39 0 64 7.5t46 26.5t49 56l80 -53q-49 -72 -101 -100.5t-138 -28.5q-97 0 -152.5 32t-80 102t-24.5 189t24.5 189t80 102t152.5 32q94 0 146.5 -34zM442 377q-6 63 -20.5 98t-42.5 50 t-76 15q-54 0 -86 -15.5t-48.5 -50.5t-20.5 -97h294zM131 723.5q-19 17.5 -19 57.5q0 38 19 55.5t61 17.5t61 -17.5t19 -55.5q0 -40 -19 -57.5t-61 -17.5t-61 17.5zM347 723.5q-19 17.5 -19 57.5q0 38 19 55.5t61 17.5t61 -17.5t19 -55.5q0 -40 -19 -57.5t-61 -17.5 t-61 17.5z" />
         <glyph glyph-name="edotaccent" unicode="ė" d="M449.5 598q52.5 -34 74.5 -109t20 -204h-398q3 -79 18.5 -124t48.5 -64t90 -19q39 0 64 7.5t46 26.5t49 56l80 -53q-49 -72 -101 -100.5t-138 -28.5q-97 0 -152.5 32t-80 102t-24.5 189t24.5 189t80 102t152.5 32q94 0 146.5 -34zM442 377q-6 63 -20.5 98t-42.5 50 t-76 15q-54 0 -86 -15.5t-48.5 -50.5t-20.5 -97h294zM237 733q-17 16 -17 59t17 59t63 16t63 -16t17 -59t-17 -59t-63 -16t-63 16z" />
         <glyph glyph-name="uni1EB9" unicode="ẹ" d="M449.5 598q52.5 -34 74.5 -109t20 -204h-398q3 -79 18.5 -124t48.5 -64t90 -19q39 0 64 7.5t46 26.5t49 56l80 -53q-49 -72 -101 -100.5t-138 -28.5q-97 0 -152.5 32t-80 102t-24.5 189t24.5 189t80 102t152.5 32q94 0 146.5 -34zM442 377q-6 63 -20.5 98t-42.5 50 t-76 15q-54 0 -86 -15.5t-48.5 -50.5t-20.5 -97h294zM237 -223q-17 16 -17 59t17 59t63 16t63 -16t17 -59t-17 -59t-63 -16t-63 16z" />
         <glyph glyph-name="egrave" unicode="è" d="M449.5 598q52.5 -34 74.5 -109t20 -204h-398q3 -79 18.5 -124t48.5 -64t90 -19q39 0 64 7.5t46 26.5t49 56l80 -53q-49 -72 -101 -100.5t-138 -28.5q-97 0 -152.5 32t-80 102t-24.5 189t24.5 189t80 102t152.5 32q94 0 146.5 -34zM442 377q-6 63 -20.5 98t-42.5 50 t-76 15q-54 0 -86 -15.5t-48.5 -50.5t-20.5 -97h294zM378 741l-66 -70l-172 149l66 70z" />
         <glyph glyph-name="uni1EBB" unicode="ẻ" d="M449.5 598q52.5 -34 74.5 -109t20 -204h-398q3 -79 18.5 -124t48.5 -64t90 -19q39 0 64 7.5t46 26.5t49 56l80 -53q-49 -72 -101 -100.5t-138 -28.5q-97 0 -152.5 32t-80 102t-24.5 189t24.5 189t80 102t152.5 32q94 0 146.5 -34zM442 377q-6 63 -20.5 98t-42.5 50 t-76 15q-54 0 -86 -15.5t-48.5 -50.5t-20.5 -97h294zM241 747q31 3 50.5 12.5t19.5 22.5q0 10 -6 15.5t-17 5.5q-15 0 -42 -15.5t-57 -40.5v108q19 18 46 29t53 11q56 0 89.5 -28.5t33.5 -74.5q0 -50 -40 -87t-105 -47z" />
         <glyph glyph-name="emacron" unicode="ē" d="M449.5 598q52.5 -34 74.5 -109t20 -204h-398q3 -79 18.5 -124t48.5 -64t90 -19q39 0 64 7.5t46 26.5t49 56l80 -53q-49 -72 -101 -100.5t-138 -28.5q-97 0 -152.5 32t-80 102t-24.5 189t24.5 189t80 102t152.5 32q94 0 146.5 -34zM442 377q-6 63 -20.5 98t-42.5 50 t-76 15q-54 0 -86 -15.5t-48.5 -50.5t-20.5 -97h294zM462 701h-324v92h324v-92z" />
         <glyph glyph-name="eogonek" unicode="ę" d="M449.5 598q52.5 -34 74.5 -109t20 -204h-398q3 -79 18.5 -124t48.5 -64t90 -19q39 0 64 7.5t46 26.5t49 56l80 -53q-32 -47 -63.5 -74.5t-70.5 -40.5h1q-74 -32 -101.5 -49.5t-27.5 -33.5q0 -10 7 -15.5t25 -5.5q13 0 24.5 4.5t18.5 12.5l75 -60q-19 -22 -52 -35.5 t-67 -13.5q-59 0 -94.5 24.5t-35.5 65.5q0 26 20 51.5t52 42.5q-77 8 -122 43.5t-65 102.5t-20 175q0 119 24.5 189t80 102t152.5 32q94 0 146.5 -34zM442 377q-6 63 -20.5 98t-42.5 50t-76 15q-54 0 -86 -15.5t-48.5 -50.5t-20.5 -97h294z" />
         <glyph glyph-name="uni1EBD" unicode="ẽ" d="M449.5 598q52.5 -34 74.5 -109t20 -204h-398q3 -79 18.5 -124t48.5 -64t90 -19q39 0 64 7.5t46 26.5t49 56l80 -53q-49 -72 -101 -100.5t-138 -28.5q-97 0 -152.5 32t-80 102t-24.5 189t24.5 189t80 102t152.5 32q94 0 146.5 -34zM442 377q-6 63 -20.5 98t-42.5 50 t-76 15q-54 0 -86 -15.5t-48.5 -50.5t-20.5 -97h294zM320 705q-28 17 -67 46q-19 14 -20 14q-8 0 -8 -17q0 -14 6 -34h-103q-1 8 -1 23q0 53 29.5 86.5t76.5 33.5q21 0 45 -15t59 -41q25 -21 30 -21q9 0 9 15q0 10 -7 33h102q2 -16 2 -24q0 -51 -29.5 -83.5t-76.5 -32.5 q-19 0 -47 17z" />
         <glyph glyph-name="f" unicode="f" d="M485.5 802q39.5 -12 63 -39t37.5 -75l-94 -32q-9 29 -18.5 42t-30 18.5t-61.5 5.5q-47 0 -71 -11.5t-34 -40t-10 -83.5v-72h178v-92h-178v-423h-100v423h-124v92h124v72q0 85 20.5 134t67.5 71t127 22q64 0 103.5 -12z" />
         <glyph glyph-name="g" unicode="g" d="M192 -178.5q-40 17.5 -78 62.5l73 62q27 -31 47.5 -40.5t63.5 -9.5q54 0 82.5 13.5t40 46.5t11.5 95v24q-51 -39 -141 -39q-91 0 -143 32.5t-74.5 105t-22.5 196.5q0 96 23 152.5t75.5 83t141.5 26.5q91 0 141 -31v17h100v-558q0 -95 -22.5 -150.5t-73 -80.5t-138.5 -25 q-66 0 -106 17.5zM398 163.5q34 35.5 34 111.5v200q0 65 -141 65q-55 0 -85 -15.5t-42.5 -52t-12.5 -102.5q0 -95 13 -147t42.5 -73.5t84.5 -21.5q73 0 107 35.5z" />
         <glyph glyph-name="gbreve" unicode="ğ" d="M192 -178.5q-40 17.5 -78 62.5l73 62q27 -31 47.5 -40.5t63.5 -9.5q54 0 82.5 13.5t40 46.5t11.5 95v24q-51 -39 -141 -39q-91 0 -143 32.5t-74.5 105t-22.5 196.5q0 96 23 152.5t75.5 83t141.5 26.5q91 0 141 -31v17h100v-558q0 -95 -22.5 -150.5t-73 -80.5t-138.5 -25 q-66 0 -106 17.5zM398 163.5q34 35.5 34 111.5v200q0 65 -141 65q-55 0 -85 -15.5t-42.5 -52t-12.5 -102.5q0 -95 13 -147t42.5 -73.5t84.5 -21.5q73 0 107 35.5zM180 698q-33 36 -28 125h100q-1 -10 -1 -27q0 -27 9.5 -34.5t39.5 -7.5q27 0 37 5t12.5 17.5t1.5 46.5h99 q1 -9 1 -25q0 -74 -34.5 -105t-116.5 -31q-87 0 -120 36z" />
         <glyph glyph-name="gcircumflex" unicode="ĝ" d="M192 -178.5q-40 17.5 -78 62.5l73 62q27 -31 47.5 -40.5t63.5 -9.5q54 0 82.5 13.5t40 46.5t11.5 95v24q-51 -39 -141 -39q-91 0 -143 32.5t-74.5 105t-22.5 196.5q0 96 23 152.5t75.5 83t141.5 26.5q91 0 141 -31v17h100v-558q0 -95 -22.5 -150.5t-73 -80.5t-138.5 -25 q-66 0 -106 17.5zM398 163.5q34 35.5 34 111.5v200q0 65 -141 65q-55 0 -85 -15.5t-42.5 -52t-12.5 -102.5q0 -95 13 -147t42.5 -73.5t84.5 -21.5q73 0 107 35.5zM467 714l-77 -60l-90 82l-91 -80l-76 60l167 148z" />
         <glyph glyph-name="uni0123" unicode="ģ" d="M192 -178.5q-40 17.5 -78 62.5l73 62q27 -31 47.5 -40.5t63.5 -9.5q54 0 82.5 13.5t40 46.5t11.5 95v24q-51 -39 -141 -39q-91 0 -143 32.5t-74.5 105t-22.5 196.5q0 96 23 152.5t75.5 83t141.5 26.5q91 0 141 -31v17h100v-558q0 -95 -22.5 -150.5t-73 -80.5t-138.5 -25 q-66 0 -106 17.5zM398 163.5q34 35.5 34 111.5v200q0 65 -141 65q-55 0 -85 -15.5t-42.5 -52t-12.5 -102.5q0 -95 13 -147t42.5 -73.5t84.5 -21.5q73 0 107 35.5zM249 663q-14 13 -14 42q0 53 79 175h67l-50 -127q22 -12 22 -48q0 -29 -14 -42t-45 -13t-45 13z" />
         <glyph glyph-name="gdotaccent" unicode="ġ" d="M192 -178.5q-40 17.5 -78 62.5l73 62q27 -31 47.5 -40.5t63.5 -9.5q54 0 82.5 13.5t40 46.5t11.5 95v24q-51 -39 -141 -39q-91 0 -143 32.5t-74.5 105t-22.5 196.5q0 96 23 152.5t75.5 83t141.5 26.5q91 0 141 -31v17h100v-558q0 -95 -22.5 -150.5t-73 -80.5t-138.5 -25 q-66 0 -106 17.5zM398 163.5q34 35.5 34 111.5v200q0 65 -141 65q-55 0 -85 -15.5t-42.5 -52t-12.5 -102.5q0 -95 13 -147t42.5 -73.5t84.5 -21.5q73 0 107 35.5zM237 733q-17 16 -17 59t17 59t63 16t63 -16t17 -59t-17 -59t-63 -16t-63 16z" />
         <glyph glyph-name="h" unicode="h" d="M79 0v800h100v-200q45 32 131 32q88 0 138 -32t72 -103t22 -196v-301h-100v301q0 95 -12 146t-40 72t-80 21q-55 0 -82.5 -12t-38 -43t-10.5 -94v-391h-100z" />
         <glyph glyph-name="hbar" unicode="ħ" d="M448 600q50 -32 72 -103t22 -196v-301h-100v301q0 95 -12 146t-40 72t-80 21q-55 0 -82.5 -12t-38 -43t-10.5 -94v-391h-100v657h-74v92h74v51h100v-51h121v-92h-121v-57q45 32 131 32q88 0 138 -32z" />
         <glyph glyph-name="hcircumflex" unicode="ĥ" d="M79 0v800h100v-200q45 32 131 32q88 0 138 -32t72 -103t22 -196v-301h-100v301q0 95 -12 146t-40 72t-80 21q-55 0 -82.5 -12t-38 -43t-10.5 -94v-391h-100zM299 866l-77 -60l-90 82l-91 -80l-76 60l167 148z" />
         <glyph glyph-name="i" unicode="i" d="M376 618v-526h175v-92h-450v92h175v434h-126v92h226zM245 733q-17 16 -17 59t17 59t63 16t63 -16t17 -59t-17 -59t-63 -16t-63 16z" />
         <glyph glyph-name="dotlessi" unicode="ı" d="M376 618v-526h175v-92h-450v92h175v434h-126v92h226z" />
         <glyph glyph-name="iacute" unicode="í" d="M376 618v-526h175v-92h-450v92h175v434h-126v92h226zM468 820l-172 -149l-66 70l172 149z" />
         <glyph glyph-name="uni01D0" unicode="ǐ" d="M376 618v-526h175v-92h-450v92h175v434h-126v92h226zM475 800l-167 -150l-166 148l76 60l90 -80l90 82z" />
         <glyph glyph-name="icircumflex" unicode="î" d="M376 618v-526h175v-92h-450v92h175v434h-126v92h226zM475 714l-77 -60l-90 82l-91 -80l-76 60l167 148z" />
         <glyph glyph-name="idieresis" unicode="ï" d="M376 618v-526h175v-92h-450v92h175v434h-126v92h226zM139 723.5q-19 17.5 -19 57.5q0 38 19 55.5t61 17.5t61 -17.5t19 -55.5q0 -40 -19 -57.5t-61 -17.5t-61 17.5zM355 723.5q-19 17.5 -19 57.5q0 38 19 55.5t61 17.5t61 -17.5t19 -55.5q0 -40 -19 -57.5t-61 -17.5 t-61 17.5z" />
         <glyph glyph-name="i.loclTRK" d="M376 618v-526h175v-92h-450v92h175v434h-126v92h226zM245 733q-17 16 -17 59t17 59t63 16t63 -16t17 -59t-17 -59t-63 -16t-63 16z" />
         <glyph glyph-name="uni1ECB" unicode="ị" d="M376 618v-526h175v-92h-450v92h175v434h-126v92h226zM245 733q-17 16 -17 59t17 59t63 16t63 -16t17 -59t-17 -59t-63 -16t-63 16zM247 -223q-17 16 -17 59t17 59t63 16t63 -16t17 -59t-17 -59t-63 -16t-63 16z" />
         <glyph glyph-name="igrave" unicode="ì" d="M376 618v-526h175v-92h-450v92h175v434h-126v92h226zM386 741l-66 -70l-172 149l66 70z" />
         <glyph glyph-name="uni1EC9" unicode="ỉ" d="M376 618v-526h175v-92h-450v92h175v434h-126v92h226zM249 747q31 3 50.5 12.5t19.5 22.5q0 10 -6 15.5t-17 5.5q-15 0 -42 -15.5t-57 -40.5v108q19 18 46 29t53 11q56 0 89.5 -28.5t33.5 -74.5q0 -50 -40 -87t-105 -47z" />
         <glyph glyph-name="imacron" unicode="ī" d="M376 618v-526h175v-92h-450v92h175v434h-126v92h226zM470 701h-324v92h324v-92z" />
         <glyph glyph-name="iogonek" unicode="į" d="M245 733q-17 16 -17 59t17 59t63 16t63 -16t17 -59t-17 -59t-63 -16t-63 16zM425 0q-74 -32 -101.5 -49.5t-27.5 -33.5q0 -10 7 -15.5t25 -5.5q13 0 24.5 4.5t18.5 12.5l75 -60q-19 -22 -52 -35.5t-67 -13.5q-58 0 -94 24.5t-36 65.5q0 31 28 60.5t70 45.5h-194v92h175 v434h-126v92h226v-526h175v-92h-126z" />
         <glyph glyph-name="itilde" unicode="ĩ" d="M376 618v-526h175v-92h-450v92h175v434h-126v92h226zM328 705q-28 17 -67 46q-19 14 -20 14q-8 0 -8 -17q0 -14 6 -34h-103q-1 8 -1 23q0 53 29.5 86.5t76.5 33.5q21 0 45 -15t59 -41q25 -21 30 -21q9 0 9 15q0 10 -7 33h102q2 -16 2 -24q0 -51 -29.5 -83.5t-76.5 -32.5 q-19 0 -47 17z" />
         <glyph glyph-name="j" unicode="j" d="M132 -178.5q-40 17.5 -78 62.5l73 62q27 -31 47.5 -40.5t63.5 -9.5q54 0 82.5 15t40 51.5t11.5 107.5v456h-126v92h226v-548q0 -100 -22.5 -157.5t-73 -83t-138.5 -25.5q-66 0 -106 17.5zM335 733q-17 16 -17 59t17 59t63 16t63 -16t17 -59t-17 -59t-63 -16t-63 16z" />
         <glyph glyph-name="uni0237" unicode="ȷ" d="M132 -178.5q-40 17.5 -78 62.5l73 62q27 -31 47.5 -40.5t63.5 -9.5q54 0 82.5 15t40 51.5t11.5 107.5v456h-126v92h226v-548q0 -100 -22.5 -157.5t-73 -83t-138.5 -25.5q-66 0 -106 17.5z" />
         <glyph glyph-name="jcircumflex" unicode="ĵ" d="M132 -178.5q-40 17.5 -78 62.5l73 62q27 -31 47.5 -40.5t63.5 -9.5q54 0 82.5 15t40 51.5t11.5 107.5v456h-126v92h226v-548q0 -100 -22.5 -157.5t-73 -83t-138.5 -25.5q-66 0 -106 17.5zM565 714l-77 -60l-90 82l-91 -80l-76 60l167 148z" />
         <glyph glyph-name="k" unicode="k" d="M201 0h-100v800h100v-423h14l201 241h121l-233 -285l273 -333h-121l-237 285h-18v-285z" />
         <glyph glyph-name="uni0137" unicode="ķ" d="M201 0h-100v800h100v-423h14l201 241h121l-233 -285l273 -333h-121l-237 285h-18v-285zM277 -119q-22 12 -22 48q0 29 14 42t45 13t45 -13t14 -42q0 -53 -79 -175h-67z" />
         <glyph glyph-name="l" unicode="l" d="M299.5 7q-37.5 21 -53.5 70t-16 137v494h-126v92h226v-586q0 -52 7 -81.5t23 -42t44 -12.5q19 0 39 11t54 40l56 -85q-43 -33 -75 -45.5t-74 -12.5q-67 0 -104.5 21z" />
         <glyph glyph-name="lacute" unicode="ĺ" d="M299.5 7q-37.5 21 -53.5 70t-16 137v494h-126v92h226v-586q0 -52 7 -81.5t23 -42t44 -12.5q19 0 39 11t54 40l56 -85q-43 -33 -75 -45.5t-74 -12.5q-67 0 -104.5 21zM460 1002l-172 -149l-66 70l172 149z" />
         <glyph glyph-name="lcaron" unicode="ľ" d="M299.5 7q-37.5 21 -53.5 70t-16 137v494h-126v92h226v-586q0 -52 7 -81.5t23 -42t44 -12.5q19 0 39 11t54 40l56 -85q-43 -33 -75 -45.5t-74 -12.5q-67 0 -104.5 21zM467 517h-78l-10 283h98z" />
         <glyph glyph-name="uni013C" unicode="ļ" d="M299.5 7q-37.5 21 -53.5 70t-16 137v494h-126v92h226v-586q0 -52 7 -81.5t23 -42t44 -12.5q19 0 39 11t54 40l56 -85q-43 -33 -75 -45.5t-74 -12.5q-67 0 -104.5 21zM357 -119q-22 12 -22 48q0 29 14 42t45 13t45 -13t14 -42q0 -53 -79 -175h-67z" />
         <glyph glyph-name="lslash" unicode="ł" d="M553 44q-43 -33 -75 -45.5t-74 -12.5q-67 0 -104.5 21t-53.5 70t-16 137v201l-116 -47v97l116 47v196h-126v92h226v-247l116 47v-97l-116 -47v-242q0 -52 7 -81.5t23 -42t44 -12.5q19 0 39 11t54 40z" />
         <glyph glyph-name="m" unicode="m" d="M32 0v618h100v-10q22 13 39 18t40 5q38 0 59.5 -13t39.5 -47q25 34 50.5 47t68.5 13q54 0 83.5 -23t42.5 -76t13 -149v-383h-100v383q0 84 -9.5 115.5t-35.5 31.5q-28 0 -43.5 -13t-22.5 -42.5t-7 -83.5v-391h-100v377q0 87 -9.5 120t-35.5 33q-28 0 -43.5 -13 t-22.5 -42.5t-7 -83.5v-391h-100z" />
         <glyph glyph-name="n" unicode="n" d="M73 0v618h100v-26q58 40 155 40q81 0 126 -23t64.5 -77t19.5 -152v-380h-100v380q0 62 -10 96.5t-33.5 49t-66.5 14.5q-66 0 -98.5 -12t-44.5 -43t-12 -94v-391h-100z" />
         <glyph glyph-name="nacute" unicode="ń" d="M73 0v618h100v-26q58 40 155 40q81 0 126 -23t64.5 -77t19.5 -152v-380h-100v380q0 62 -10 96.5t-33.5 49t-66.5 14.5q-66 0 -98.5 -12t-44.5 -43t-12 -94v-391h-100zM460 820l-172 -149l-66 70l172 149z" />
         <glyph glyph-name="ncaron" unicode="ň" d="M73 0v618h100v-26q58 40 155 40q81 0 126 -23t64.5 -77t19.5 -152v-380h-100v380q0 62 -10 96.5t-33.5 49t-66.5 14.5q-66 0 -98.5 -12t-44.5 -43t-12 -94v-391h-100zM467 800l-167 -150l-166 148l76 60l90 -80l90 82z" />
         <glyph glyph-name="uni0146" unicode="ņ" d="M73 0v618h100v-26q58 40 155 40q81 0 126 -23t64.5 -77t19.5 -152v-380h-100v380q0 62 -10 96.5t-33.5 49t-66.5 14.5q-66 0 -98.5 -12t-44.5 -43t-12 -94v-391h-100zM277 -119q-22 12 -22 48q0 29 14 42t45 13t45 -13t14 -42q0 -53 -79 -175h-67z" />
         <glyph glyph-name="eng" unicode="ŋ" d="M454 609q45 -23 64.5 -77t19.5 -152v-380q0 -66 -17 -104t-58.5 -55.5t-116.5 -17.5v92q39 0 58.5 7.5t26.5 25.5t7 52v380q0 62 -10 96.5t-33.5 49t-66.5 14.5q-66 0 -98.5 -12t-44.5 -43t-12 -94v-391h-100v618h100v-26q58 40 155 40q81 0 126 -23z" />
         <glyph glyph-name="ntilde" unicode="ñ" d="M73 0v618h100v-26q58 40 155 40q81 0 126 -23t64.5 -77t19.5 -152v-380h-100v380q0 62 -10 96.5t-33.5 49t-66.5 14.5q-66 0 -98.5 -12t-44.5 -43t-12 -94v-391h-100zM320 705q-28 17 -67 46q-19 14 -20 14q-8 0 -8 -17q0 -14 6 -34h-103q-1 8 -1 23q0 53 29.5 86.5 t76.5 33.5q21 0 45 -15t59 -41q25 -21 30 -21q9 0 9 15q0 10 -7 33h102q2 -16 2 -24q0 -51 -29.5 -83.5t-76.5 -32.5q-19 0 -47 17z" />
         <glyph glyph-name="o" unicode="o" d="M157.5 18q-52.5 32 -75 102t-22.5 189t22.5 189t75 102t142.5 32t142.5 -32t75 -102t22.5 -189t-22.5 -189t-75 -102t-142.5 -32t-142.5 32zM384.5 99q29.5 21 42.5 70.5t13 139.5t-13 139.5t-42.5 70.5t-84.5 21t-84.5 -21t-42.5 -70.5t-13 -139.5t13 -139.5t42.5 -70.5 t84.5 -21t84.5 21z" />
         <glyph glyph-name="oacute" unicode="ó" d="M157.5 18q-52.5 32 -75 102t-22.5 189t22.5 189t75 102t142.5 32t142.5 -32t75 -102t22.5 -189t-22.5 -189t-75 -102t-142.5 -32t-142.5 32zM384.5 99q29.5 21 42.5 70.5t13 139.5t-13 139.5t-42.5 70.5t-84.5 21t-84.5 -21t-42.5 -70.5t-13 -139.5t13 -139.5t42.5 -70.5 t84.5 -21t84.5 21zM460 820l-172 -149l-66 70l172 149z" />
         <glyph glyph-name="uni01D2" unicode="ǒ" d="M157.5 18q-52.5 32 -75 102t-22.5 189t22.5 189t75 102t142.5 32t142.5 -32t75 -102t22.5 -189t-22.5 -189t-75 -102t-142.5 -32t-142.5 32zM384.5 99q29.5 21 42.5 70.5t13 139.5t-13 139.5t-42.5 70.5t-84.5 21t-84.5 -21t-42.5 -70.5t-13 -139.5t13 -139.5t42.5 -70.5 t84.5 -21t84.5 21zM467 800l-167 -150l-166 148l76 60l90 -80l90 82z" />
         <glyph glyph-name="ocircumflex" unicode="ô" d="M157.5 18q-52.5 32 -75 102t-22.5 189t22.5 189t75 102t142.5 32t142.5 -32t75 -102t22.5 -189t-22.5 -189t-75 -102t-142.5 -32t-142.5 32zM384.5 99q29.5 21 42.5 70.5t13 139.5t-13 139.5t-42.5 70.5t-84.5 21t-84.5 -21t-42.5 -70.5t-13 -139.5t13 -139.5t42.5 -70.5 t84.5 -21t84.5 21zM467 714l-77 -60l-90 82l-91 -80l-76 60l167 148z" />
         <glyph glyph-name="uni1ED1" unicode="ố" d="M157.5 18q-52.5 32 -75 102t-22.5 189t22.5 189t75 102t142.5 32t142.5 -32t75 -102t22.5 -189t-22.5 -189t-75 -102t-142.5 -32t-142.5 32zM384.5 99q29.5 21 42.5 70.5t13 139.5t-13 139.5t-42.5 70.5t-84.5 21t-84.5 -21t-42.5 -70.5t-13 -139.5t13 -139.5t42.5 -70.5 t84.5 -21t84.5 21zM467 714l-77 -60l-90 82l-91 -80l-76 60l167 148zM460 1025l-172 -149l-66 70l172 149z" />
         <glyph glyph-name="uni1ED9" unicode="ộ" d="M157.5 18q-52.5 32 -75 102t-22.5 189t22.5 189t75 102t142.5 32t142.5 -32t75 -102t22.5 -189t-22.5 -189t-75 -102t-142.5 -32t-142.5 32zM384.5 99q29.5 21 42.5 70.5t13 139.5t-13 139.5t-42.5 70.5t-84.5 21t-84.5 -21t-42.5 -70.5t-13 -139.5t13 -139.5t42.5 -70.5 t84.5 -21t84.5 21zM237 -223q-17 16 -17 59t17 59t63 16t63 -16t17 -59t-17 -59t-63 -16t-63 16zM467 714l-77 -60l-90 82l-91 -80l-76 60l167 148z" />
         <glyph glyph-name="uni1ED3" unicode="ồ" d="M157.5 18q-52.5 32 -75 102t-22.5 189t22.5 189t75 102t142.5 32t142.5 -32t75 -102t22.5 -189t-22.5 -189t-75 -102t-142.5 -32t-142.5 32zM384.5 99q29.5 21 42.5 70.5t13 139.5t-13 139.5t-42.5 70.5t-84.5 21t-84.5 -21t-42.5 -70.5t-13 -139.5t13 -139.5t42.5 -70.5 t84.5 -21t84.5 21zM467 714l-77 -60l-90 82l-91 -80l-76 60l167 148zM378 946l-66 -70l-172 149l66 70z" />
         <glyph glyph-name="uni1ED5" unicode="ổ" d="M157.5 18q-52.5 32 -75 102t-22.5 189t22.5 189t75 102t142.5 32t142.5 -32t75 -102t22.5 -189t-22.5 -189t-75 -102t-142.5 -32t-142.5 32zM384.5 99q29.5 21 42.5 70.5t13 139.5t-13 139.5t-42.5 70.5t-84.5 21t-84.5 -21t-42.5 -70.5t-13 -139.5t13 -139.5t42.5 -70.5 t84.5 -21t84.5 21zM467 714l-77 -60l-90 82l-91 -80l-76 60l167 148zM241 952q31 3 50.5 12.5t19.5 22.5q0 10 -6 15.5t-17 5.5q-15 0 -42 -15.5t-57 -40.5v108q19 18 46 29t53 11q56 0 89.5 -28.5t33.5 -74.5q0 -50 -40 -87t-105 -47z" />
         <glyph glyph-name="uni1ED7" unicode="ỗ" d="M157.5 18q-52.5 32 -75 102t-22.5 189t22.5 189t75 102t142.5 32t142.5 -32t75 -102t22.5 -189t-22.5 -189t-75 -102t-142.5 -32t-142.5 32zM384.5 99q29.5 21 42.5 70.5t13 139.5t-13 139.5t-42.5 70.5t-84.5 21t-84.5 -21t-42.5 -70.5t-13 -139.5t13 -139.5t42.5 -70.5 t84.5 -21t84.5 21zM467 714l-77 -60l-90 82l-91 -80l-76 60l167 148zM320 910q-28 17 -67 46q-19 14 -20 14q-8 0 -8 -17q0 -14 6 -34h-103q-1 8 -1 23q0 53 29.5 86.5t76.5 33.5q21 0 45 -15t59 -41q25 -21 30 -21q9 0 9 15q0 10 -7 33h102q2 -16 2 -24q0 -51 -29.5 -83.5 t-76.5 -32.5q-19 0 -47 17z" />
         <glyph glyph-name="odieresis" unicode="ö" d="M157.5 18q-52.5 32 -75 102t-22.5 189t22.5 189t75 102t142.5 32t142.5 -32t75 -102t22.5 -189t-22.5 -189t-75 -102t-142.5 -32t-142.5 32zM384.5 99q29.5 21 42.5 70.5t13 139.5t-13 139.5t-42.5 70.5t-84.5 21t-84.5 -21t-42.5 -70.5t-13 -139.5t13 -139.5t42.5 -70.5 t84.5 -21t84.5 21zM131 723.5q-19 17.5 -19 57.5q0 38 19 55.5t61 17.5t61 -17.5t19 -55.5q0 -40 -19 -57.5t-61 -17.5t-61 17.5zM347 723.5q-19 17.5 -19 57.5q0 38 19 55.5t61 17.5t61 -17.5t19 -55.5q0 -40 -19 -57.5t-61 -17.5t-61 17.5z" />
         <glyph glyph-name="uni1ECD" unicode="ọ" d="M157.5 18q-52.5 32 -75 102t-22.5 189t22.5 189t75 102t142.5 32t142.5 -32t75 -102t22.5 -189t-22.5 -189t-75 -102t-142.5 -32t-142.5 32zM384.5 99q29.5 21 42.5 70.5t13 139.5t-13 139.5t-42.5 70.5t-84.5 21t-84.5 -21t-42.5 -70.5t-13 -139.5t13 -139.5t42.5 -70.5 t84.5 -21t84.5 21zM237 -223q-17 16 -17 59t17 59t63 16t63 -16t17 -59t-17 -59t-63 -16t-63 16z" />
         <glyph glyph-name="ograve" unicode="ò" d="M157.5 18q-52.5 32 -75 102t-22.5 189t22.5 189t75 102t142.5 32t142.5 -32t75 -102t22.5 -189t-22.5 -189t-75 -102t-142.5 -32t-142.5 32zM384.5 99q29.5 21 42.5 70.5t13 139.5t-13 139.5t-42.5 70.5t-84.5 21t-84.5 -21t-42.5 -70.5t-13 -139.5t13 -139.5t42.5 -70.5 t84.5 -21t84.5 21zM378 741l-66 -70l-172 149l66 70z" />
         <glyph glyph-name="uni1ECF" unicode="ỏ" d="M157.5 18q-52.5 32 -75 102t-22.5 189t22.5 189t75 102t142.5 32t142.5 -32t75 -102t22.5 -189t-22.5 -189t-75 -102t-142.5 -32t-142.5 32zM384.5 99q29.5 21 42.5 70.5t13 139.5t-13 139.5t-42.5 70.5t-84.5 21t-84.5 -21t-42.5 -70.5t-13 -139.5t13 -139.5t42.5 -70.5 t84.5 -21t84.5 21zM241 747q31 3 50.5 12.5t19.5 22.5q0 10 -6 15.5t-17 5.5q-15 0 -42 -15.5t-57 -40.5v108q19 18 46 29t53 11q56 0 89.5 -28.5t33.5 -74.5q0 -50 -40 -87t-105 -47z" />
         <glyph glyph-name="ohorn" unicode="ơ" d="M578 733h100v-153q0 -64 -36.5 -104.5t-95.5 -40.5q-9 0 -14 1q8 -58 8 -127q0 -119 -22.5 -189t-75 -102t-142.5 -32t-142.5 32t-75 102t-22.5 189t22.5 189t75 102t142.5 32q78 0 127 -23.5t75 -74.5q16 -7 34 -7q42 0 42 53v153zM384.5 99q29.5 21 42.5 70.5t13 139.5 t-13 139.5t-42.5 70.5t-84.5 21t-84.5 -21t-42.5 -70.5t-13 -139.5t13 -139.5t42.5 -70.5t84.5 -21t84.5 21z" />
         <glyph glyph-name="uni1EDB" unicode="ớ" d="M578 733h100v-153q0 -64 -36.5 -104.5t-95.5 -40.5q-9 0 -14 1q8 -58 8 -127q0 -119 -22.5 -189t-75 -102t-142.5 -32t-142.5 32t-75 102t-22.5 189t22.5 189t75 102t142.5 32q78 0 127 -23.5t75 -74.5q16 -7 34 -7q42 0 42 53v153zM384.5 99q29.5 21 42.5 70.5t13 139.5 t-13 139.5t-42.5 70.5t-84.5 21t-84.5 -21t-42.5 -70.5t-13 -139.5t13 -139.5t42.5 -70.5t84.5 -21t84.5 21zM460 820l-172 -149l-66 70l172 149z" />
         <glyph glyph-name="uni1EE3" unicode="ợ" d="M578 733h100v-153q0 -64 -36.5 -104.5t-95.5 -40.5q-9 0 -14 1q8 -58 8 -127q0 -119 -22.5 -189t-75 -102t-142.5 -32t-142.5 32t-75 102t-22.5 189t22.5 189t75 102t142.5 32q78 0 127 -23.5t75 -74.5q16 -7 34 -7q42 0 42 53v153zM384.5 99q29.5 21 42.5 70.5t13 139.5 t-13 139.5t-42.5 70.5t-84.5 21t-84.5 -21t-42.5 -70.5t-13 -139.5t13 -139.5t42.5 -70.5t84.5 -21t84.5 21zM237 -223q-17 16 -17 59t17 59t63 16t63 -16t17 -59t-17 -59t-63 -16t-63 16z" />
         <glyph glyph-name="uni1EDD" unicode="ờ" d="M578 733h100v-153q0 -64 -36.5 -104.5t-95.5 -40.5q-9 0 -14 1q8 -58 8 -127q0 -119 -22.5 -189t-75 -102t-142.5 -32t-142.5 32t-75 102t-22.5 189t22.5 189t75 102t142.5 32q78 0 127 -23.5t75 -74.5q16 -7 34 -7q42 0 42 53v153zM384.5 99q29.5 21 42.5 70.5t13 139.5 t-13 139.5t-42.5 70.5t-84.5 21t-84.5 -21t-42.5 -70.5t-13 -139.5t13 -139.5t42.5 -70.5t84.5 -21t84.5 21zM378 741l-66 -70l-172 149l66 70z" />
         <glyph glyph-name="uni1EDF" unicode="ở" d="M578 733h100v-153q0 -64 -36.5 -104.5t-95.5 -40.5q-9 0 -14 1q8 -58 8 -127q0 -119 -22.5 -189t-75 -102t-142.5 -32t-142.5 32t-75 102t-22.5 189t22.5 189t75 102t142.5 32q78 0 127 -23.5t75 -74.5q16 -7 34 -7q42 0 42 53v153zM384.5 99q29.5 21 42.5 70.5t13 139.5 t-13 139.5t-42.5 70.5t-84.5 21t-84.5 -21t-42.5 -70.5t-13 -139.5t13 -139.5t42.5 -70.5t84.5 -21t84.5 21zM241 747q31 3 50.5 12.5t19.5 22.5q0 10 -6 15.5t-17 5.5q-15 0 -42 -15.5t-57 -40.5v108q19 18 46 29t53 11q56 0 89.5 -28.5t33.5 -74.5q0 -50 -40 -87t-105 -47 z" />
         <glyph glyph-name="uni1EE1" unicode="ỡ" d="M578 733h100v-153q0 -64 -36.5 -104.5t-95.5 -40.5q-9 0 -14 1q8 -58 8 -127q0 -119 -22.5 -189t-75 -102t-142.5 -32t-142.5 32t-75 102t-22.5 189t22.5 189t75 102t142.5 32q78 0 127 -23.5t75 -74.5q16 -7 34 -7q42 0 42 53v153zM384.5 99q29.5 21 42.5 70.5t13 139.5 t-13 139.5t-42.5 70.5t-84.5 21t-84.5 -21t-42.5 -70.5t-13 -139.5t13 -139.5t42.5 -70.5t84.5 -21t84.5 21zM320 705q-28 17 -67 46q-19 14 -20 14q-8 0 -8 -17q0 -14 6 -34h-103q-1 8 -1 23q0 53 29.5 86.5t76.5 33.5q21 0 45 -15t59 -41q25 -21 30 -21q9 0 9 15 q0 10 -7 33h102q2 -16 2 -24q0 -51 -29.5 -83.5t-76.5 -32.5q-19 0 -47 17z" />
         <glyph glyph-name="ohungarumlaut" unicode="ő" d="M157.5 18q-52.5 32 -75 102t-22.5 189t22.5 189t75 102t142.5 32t142.5 -32t75 -102t22.5 -189t-22.5 -189t-75 -102t-142.5 -32t-142.5 32zM384.5 99q29.5 21 42.5 70.5t13 139.5t-13 139.5t-42.5 70.5t-84.5 21t-84.5 -21t-42.5 -70.5t-13 -139.5t13 -139.5t42.5 -70.5 t84.5 -21t84.5 21zM298 820l-172 -149l-66 70l172 149zM540 820l-172 -149l-66 70l172 149z" />
         <glyph glyph-name="omacron" unicode="ō" d="M157.5 18q-52.5 32 -75 102t-22.5 189t22.5 189t75 102t142.5 32t142.5 -32t75 -102t22.5 -189t-22.5 -189t-75 -102t-142.5 -32t-142.5 32zM384.5 99q29.5 21 42.5 70.5t13 139.5t-13 139.5t-42.5 70.5t-84.5 21t-84.5 -21t-42.5 -70.5t-13 -139.5t13 -139.5t42.5 -70.5 t84.5 -21t84.5 21zM462 701h-324v92h324v-92z" />
         <glyph glyph-name="oslash" unicode="ø" d="M563 650l-66 -107q23 -38 33 -95t10 -139q0 -119 -22.5 -189t-75 -102t-142.5 -32q-80 0 -127 24l-25 -41h-113l66 109q-41 72 -41 231q0 119 22.5 189t75 102t142.5 32q78 0 125 -23l25 41h113zM169 188l205 337q-26 15 -74 15q-55 0 -84.5 -21t-42.5 -70.5t-13 -139.5 q0 -73 9 -121zM431 433l-207 -339q29 -16 76 -16q55 0 84.5 21t42.5 70.5t13 139.5q0 76 -9 124z" />
         <glyph glyph-name="otilde" unicode="õ" d="M157.5 18q-52.5 32 -75 102t-22.5 189t22.5 189t75 102t142.5 32t142.5 -32t75 -102t22.5 -189t-22.5 -189t-75 -102t-142.5 -32t-142.5 32zM384.5 99q29.5 21 42.5 70.5t13 139.5t-13 139.5t-42.5 70.5t-84.5 21t-84.5 -21t-42.5 -70.5t-13 -139.5t13 -139.5t42.5 -70.5 t84.5 -21t84.5 21zM320 705q-28 17 -67 46q-19 14 -20 14q-8 0 -8 -17q0 -14 6 -34h-103q-1 8 -1 23q0 53 29.5 86.5t76.5 33.5q21 0 45 -15t59 -41q25 -21 30 -21q9 0 9 15q0 10 -7 33h102q2 -16 2 -24q0 -51 -29.5 -83.5t-76.5 -32.5q-19 0 -47 17z" />
         <glyph glyph-name="oe" unicode="œ" d="M71 -4q-38 33 -54.5 107.5t-16.5 205.5t16.5 205.5t54.5 107.5t105 33q46 0 75 -16.5t50 -54.5q22 39 51.5 55t80.5 16q66 0 102 -35t51 -114t14 -221h-250q1 -91 9 -140t25 -69.5t49 -20.5q18 0 33.5 18t44.5 75l81 -56q-35 -71 -70.5 -100t-88.5 -29q-51 0 -80.5 16 t-51.5 55q-21 -38 -50 -54.5t-75 -16.5q-67 0 -105 33zM221.5 77.5q15.5 22.5 22 76.5t6.5 155t-6.5 155t-22 76.5t-45.5 22.5q-28 0 -44.5 -22.5t-24 -77t-7.5 -154.5t7.5 -154.5t24 -77t44.5 -22.5q30 0 45.5 22.5zM499 377q-1 73 -8 113t-21 56.5t-37 16.5q-32 0 -49 -16 t-24.5 -55.5t-8.5 -114.5h148z" />
         <glyph glyph-name="p" unicode="p" d="M66 -182v800h100v-17q50 31 141 31t143 -32t74.5 -101.5t22.5 -188.5t-22.5 -189.5t-74.5 -102.5t-143 -32q-90 0 -141 39v-207h-100zM391 99q30 21 43 71t13 140t-13 139t-42.5 70t-84.5 21q-141 0 -141 -65v-250q0 -76 34 -111.5t107 -35.5q54 0 84 21z" />
         <glyph glyph-name="thorn" unicode="þ" d="M66 -182v982h100v-199q50 31 141 31t143 -32t74.5 -101.5t22.5 -188.5t-22.5 -189.5t-74.5 -102.5t-143 -32q-90 0 -141 39v-207h-100zM391 99q30 21 43 71t13 140t-13 139t-42.5 70t-84.5 21q-141 0 -141 -65v-250q0 -76 34 -111.5t107 -35.5q54 0 84 21z" />
         <glyph glyph-name="q" unicode="q" d="M434 25q-51 -39 -141 -39q-91 0 -143 32t-74.5 102.5t-22.5 189.5t22.5 188.5t74.5 101.5t143 32t141 -31v17h100v-800h-100v207zM400 113.5q34 35.5 34 111.5v250q0 65 -141 65q-55 0 -84.5 -21t-42.5 -70t-13 -139t13 -140t43 -71t84 -21q73 0 107 35.5z" />
         <glyph glyph-name="r" unicode="r" d="M100 0v618h100v-67q22 32 63 56.5t89 24.5q81 0 125.5 -33.5t76.5 -117.5l-90 -41q-14 42 -27 62.5t-32 29t-53 8.5q-81 0 -116.5 -58.5t-35.5 -154.5v-327h-100z" />
         <glyph glyph-name="racute" unicode="ŕ" d="M100 0v618h100v-67q22 32 63 56.5t89 24.5q81 0 125.5 -33.5t76.5 -117.5l-90 -41q-14 42 -27 62.5t-32 29t-53 8.5q-81 0 -116.5 -58.5t-35.5 -154.5v-327h-100zM460 820l-172 -149l-66 70l172 149z" />
         <glyph glyph-name="rcaron" unicode="ř" d="M100 0v618h100v-67q22 32 63 56.5t89 24.5q81 0 125.5 -33.5t76.5 -117.5l-90 -41q-14 42 -27 62.5t-32 29t-53 8.5q-81 0 -116.5 -58.5t-35.5 -154.5v-327h-100zM467 800l-167 -150l-166 148l76 60l90 -80l90 82z" />
         <glyph glyph-name="uni0157" unicode="ŗ" d="M100 0v618h100v-67q22 32 63 56.5t89 24.5q81 0 125.5 -33.5t76.5 -117.5l-90 -41q-14 42 -27 62.5t-32 29t-53 8.5q-81 0 -116.5 -58.5t-35.5 -154.5v-327h-100zM277 -119q-22 12 -22 48q0 29 14 42t45 13t45 -13t14 -42q0 -53 -79 -175h-67z" />
         <glyph glyph-name="s" unicode="s" d="M148.5 14q-45.5 28 -83.5 100l79 65q19 -43 34.5 -63.5t37.5 -29t59 -8.5q70 0 107 9t51.5 30t14.5 60q0 37 -12 55.5t-41.5 28t-92.5 17.5q-118 15 -170.5 53.5t-52.5 117.5q0 67 24 107t77.5 58t144.5 18q84 0 131.5 -24t85.5 -86l-73 -71q-21 38 -37.5 56t-40.5 25.5 t-66 7.5q-59 0 -90 -8t-43.5 -27.5t-12.5 -55.5q0 -25 12.5 -39.5t39.5 -22.5t77 -15q93 -13 143.5 -33.5t73.5 -58.5t23 -103q0 -71 -26.5 -112t-86 -60t-160.5 -19q-81 0 -126.5 28z" />
         <glyph glyph-name="sacute" unicode="ś" d="M148.5 14q-45.5 28 -83.5 100l79 65q19 -43 34.5 -63.5t37.5 -29t59 -8.5q70 0 107 9t51.5 30t14.5 60q0 37 -12 55.5t-41.5 28t-92.5 17.5q-118 15 -170.5 53.5t-52.5 117.5q0 67 24 107t77.5 58t144.5 18q84 0 131.5 -24t85.5 -86l-73 -71q-21 38 -37.5 56t-40.5 25.5 t-66 7.5q-59 0 -90 -8t-43.5 -27.5t-12.5 -55.5q0 -25 12.5 -39.5t39.5 -22.5t77 -15q93 -13 143.5 -33.5t73.5 -58.5t23 -103q0 -71 -26.5 -112t-86 -60t-160.5 -19q-81 0 -126.5 28zM460 820l-172 -149l-66 70l172 149z" />
         <glyph glyph-name="scaron" unicode="š" d="M148.5 14q-45.5 28 -83.5 100l79 65q19 -43 34.5 -63.5t37.5 -29t59 -8.5q70 0 107 9t51.5 30t14.5 60q0 37 -12 55.5t-41.5 28t-92.5 17.5q-118 15 -170.5 53.5t-52.5 117.5q0 67 24 107t77.5 58t144.5 18q84 0 131.5 -24t85.5 -86l-73 -71q-21 38 -37.5 56t-40.5 25.5 t-66 7.5q-59 0 -90 -8t-43.5 -27.5t-12.5 -55.5q0 -25 12.5 -39.5t39.5 -22.5t77 -15q93 -13 143.5 -33.5t73.5 -58.5t23 -103q0 -71 -26.5 -112t-86 -60t-160.5 -19q-81 0 -126.5 28zM467 800l-167 -150l-166 148l76 60l90 -80l90 82z" />
         <glyph glyph-name="scedilla" unicode="ş" d="M502.5 42.5q-45.5 -43.5 -152.5 -53.5v-36q33 -8 53.5 -31t20.5 -54q0 -49 -36 -79t-94 -30q-38 0 -69 13t-45 35l39 68q9 -11 29.5 -17.5t45.5 -6.5q13 0 21.5 4.5t8.5 12.5q0 11 -20.5 18t-53.5 7v94q-68 4 -109 32.5t-76 94.5l79 65q19 -43 34.5 -63.5t37.5 -29 t59 -8.5q70 0 107 9t51.5 30t14.5 60q0 37 -12 55.5t-41.5 28t-92.5 17.5q-118 15 -170.5 53.5t-52.5 117.5q0 67 24 107t77.5 58t144.5 18q84 0 131.5 -24t85.5 -86l-73 -71q-21 38 -37.5 56t-40.5 25.5t-66 7.5q-59 0 -90 -8t-43.5 -27.5t-12.5 -55.5q0 -25 12.5 -39.5 t39.5 -22.5t77 -15q93 -13 143.5 -33.5t73.5 -58.5t23 -103q0 -91 -45.5 -134.5z" />
         <glyph glyph-name="scircumflex" unicode="ŝ" d="M148.5 14q-45.5 28 -83.5 100l79 65q19 -43 34.5 -63.5t37.5 -29t59 -8.5q70 0 107 9t51.5 30t14.5 60q0 37 -12 55.5t-41.5 28t-92.5 17.5q-118 15 -170.5 53.5t-52.5 117.5q0 67 24 107t77.5 58t144.5 18q84 0 131.5 -24t85.5 -86l-73 -71q-21 38 -37.5 56t-40.5 25.5 t-66 7.5q-59 0 -90 -8t-43.5 -27.5t-12.5 -55.5q0 -25 12.5 -39.5t39.5 -22.5t77 -15q93 -13 143.5 -33.5t73.5 -58.5t23 -103q0 -71 -26.5 -112t-86 -60t-160.5 -19q-81 0 -126.5 28zM467 714l-77 -60l-90 82l-91 -80l-76 60l167 148z" />
         <glyph glyph-name="uni0219" unicode="ș" d="M148.5 14q-45.5 28 -83.5 100l79 65q19 -43 34.5 -63.5t37.5 -29t59 -8.5q70 0 107 9t51.5 30t14.5 60q0 37 -12 55.5t-41.5 28t-92.5 17.5q-118 15 -170.5 53.5t-52.5 117.5q0 67 24 107t77.5 58t144.5 18q84 0 131.5 -24t85.5 -86l-73 -71q-21 38 -37.5 56t-40.5 25.5 t-66 7.5q-59 0 -90 -8t-43.5 -27.5t-12.5 -55.5q0 -25 12.5 -39.5t39.5 -22.5t77 -15q93 -13 143.5 -33.5t73.5 -58.5t23 -103q0 -71 -26.5 -112t-86 -60t-160.5 -19q-81 0 -126.5 28zM277 -119q-22 12 -22 48q0 29 14 42t45 13t45 -13t14 -42q0 -53 -79 -175h-67z" />
         <glyph glyph-name="germandbls" unicode="ß" d="M64 591q0 82 21 130.5t67.5 70.5t126.5 22q89 0 141 -22t75.5 -70.5t23.5 -130.5q0 -63 -13.5 -97t-46.5 -61q48 -29 66.5 -72t18.5 -126q0 -87 -23 -138t-75 -74t-142 -23h-60v92h60q56 0 86 12.5t42 43t12 87.5q0 62 -12 92.5t-41 41t-87 10.5h-60v92h35q59 0 87.5 8.5 t40.5 33.5t12 78q0 52 -12 80t-42 39.5t-86 11.5q-46 0 -70.5 -11.5t-34.5 -39.5t-10 -80v-591h-100v591z" />
         <glyph glyph-name="t" unicode="t" d="M251.5 10.5q-42.5 24.5 -62 77t-19.5 139.5v308h-124v92h124v173h100v-173h208v-92h-208v-308q0 -58 9 -90t29.5 -45.5t56.5 -13.5q37 0 54.5 5t27 18.5t18.5 42.5l94 -32q-15 -48 -37.5 -75t-59.5 -39t-97 -12q-71 0 -113.5 24.5z" />
         <glyph glyph-name="tbar" unicode="ŧ" d="M559 112q-15 -48 -37.5 -75t-59.5 -39t-97 -12q-71 0 -113.5 24.5t-62 77t-19.5 139.5v81h-124v92h124v135h-124v92h124v173h100v-173h208v-92h-208v-135h208v-92h-208v-81q0 -58 9 -90t29.5 -45.5t56.5 -13.5q37 0 54.5 5t27 18.5t18.5 42.5z" />
         <glyph glyph-name="tcaron" unicode="ť" d="M407 677h-78l-10 283h98zM251.5 10.5q-42.5 24.5 -62 77t-19.5 139.5v308h-124v92h124v173h100v-173h208v-92h-208v-308q0 -58 9 -90t29.5 -45.5t56.5 -13.5q37 0 54.5 5t27 18.5t18.5 42.5l94 -32q-15 -48 -37.5 -75t-59.5 -39t-97 -12q-71 0 -113.5 24.5z" />
         <glyph glyph-name="uni0163" unicode="ţ" d="M559 112q-19 -62 -52 -90t-97 -34v-35q33 -8 53.5 -31t20.5 -54q0 -49 -36 -79t-94 -30q-38 0 -69 13t-45 35l39 68q9 -11 29.5 -17.5t45.5 -6.5q13 0 21.5 4.5t8.5 12.5q0 11 -20.5 18t-53.5 7v97q-75 13 -107.5 69t-32.5 168v308h-124v92h124v173h100v-173h208v-92 h-208v-308q0 -58 9 -90t29.5 -45.5t56.5 -13.5q37 0 54.5 5t27 18.5t18.5 42.5z" />
         <glyph glyph-name="uni021B" unicode="ț" d="M251.5 10.5q-42.5 24.5 -62 77t-19.5 139.5v308h-124v92h124v173h100v-173h208v-92h-208v-308q0 -58 9 -90t29.5 -45.5t56.5 -13.5q37 0 54.5 5t27 18.5t18.5 42.5l94 -32q-15 -48 -37.5 -75t-59.5 -39t-97 -12q-71 0 -113.5 24.5zM337 -119q-22 12 -22 48q0 29 14 42 t45 13t45 -13t14 -42q0 -53 -79 -175h-67z" />
         <glyph glyph-name="u" unicode="u" d="M158.5 9.5q-45.5 23.5 -65.5 77t-20 146.5v385h100v-385q0 -63 9.5 -96t33 -46t67.5 -13q63 0 96 11t46 38t13 79v412h100v-618h-100v21q-27 -19 -63.5 -27t-91.5 -8q-79 0 -124.5 23.5z" />
         <glyph glyph-name="uacute" unicode="ú" d="M158.5 9.5q-45.5 23.5 -65.5 77t-20 146.5v385h100v-385q0 -63 9.5 -96t33 -46t67.5 -13q63 0 96 11t46 38t13 79v412h100v-618h-100v21q-27 -19 -63.5 -27t-91.5 -8q-79 0 -124.5 23.5zM460 820l-172 -149l-66 70l172 149z" />
         <glyph glyph-name="ubreve" unicode="ŭ" d="M158.5 9.5q-45.5 23.5 -65.5 77t-20 146.5v385h100v-385q0 -63 9.5 -96t33 -46t67.5 -13q63 0 96 11t46 38t13 79v412h100v-618h-100v21q-27 -19 -63.5 -27t-91.5 -8q-79 0 -124.5 23.5zM180 698q-33 36 -28 125h100q-1 -10 -1 -27q0 -27 9.5 -34.5t39.5 -7.5q27 0 37 5 t12.5 17.5t1.5 46.5h99q1 -9 1 -25q0 -74 -34.5 -105t-116.5 -31q-87 0 -120 36z" />
         <glyph glyph-name="uni01D4" unicode="ǔ" d="M158.5 9.5q-45.5 23.5 -65.5 77t-20 146.5v385h100v-385q0 -63 9.5 -96t33 -46t67.5 -13q63 0 96 11t46 38t13 79v412h100v-618h-100v21q-27 -19 -63.5 -27t-91.5 -8q-79 0 -124.5 23.5zM467 800l-167 -150l-166 148l76 60l90 -80l90 82z" />
         <glyph glyph-name="ucircumflex" unicode="û" d="M158.5 9.5q-45.5 23.5 -65.5 77t-20 146.5v385h100v-385q0 -63 9.5 -96t33 -46t67.5 -13q63 0 96 11t46 38t13 79v412h100v-618h-100v21q-27 -19 -63.5 -27t-91.5 -8q-79 0 -124.5 23.5zM467 714l-77 -60l-90 82l-91 -80l-76 60l167 148z" />
         <glyph glyph-name="udieresis" unicode="ü" d="M158.5 9.5q-45.5 23.5 -65.5 77t-20 146.5v385h100v-385q0 -63 9.5 -96t33 -46t67.5 -13q63 0 96 11t46 38t13 79v412h100v-618h-100v21q-27 -19 -63.5 -27t-91.5 -8q-79 0 -124.5 23.5zM131 723.5q-19 17.5 -19 57.5q0 38 19 55.5t61 17.5t61 -17.5t19 -55.5 q0 -40 -19 -57.5t-61 -17.5t-61 17.5zM347 723.5q-19 17.5 -19 57.5q0 38 19 55.5t61 17.5t61 -17.5t19 -55.5q0 -40 -19 -57.5t-61 -17.5t-61 17.5z" />
         <glyph glyph-name="uni01D8" unicode="ǘ" d="M158.5 9.5q-45.5 23.5 -65.5 77t-20 146.5v385h100v-385q0 -63 9.5 -96t33 -46t67.5 -13q63 0 96 11t46 38t13 79v412h100v-618h-100v21q-27 -19 -63.5 -27t-91.5 -8q-79 0 -124.5 23.5zM131 723.5q-19 17.5 -19 57.5q0 38 19 55.5t61 17.5t61 -17.5t19 -55.5 q0 -40 -19 -57.5t-61 -17.5t-61 17.5zM347 723.5q-19 17.5 -19 57.5q0 38 19 55.5t61 17.5t61 -17.5t19 -55.5q0 -40 -19 -57.5t-61 -17.5t-61 17.5zM460 1035l-172 -149l-66 70l172 149z" />
         <glyph glyph-name="uni01DA" unicode="ǚ" d="M158.5 9.5q-45.5 23.5 -65.5 77t-20 146.5v385h100v-385q0 -63 9.5 -96t33 -46t67.5 -13q63 0 96 11t46 38t13 79v412h100v-618h-100v21q-27 -19 -63.5 -27t-91.5 -8q-79 0 -124.5 23.5zM131 723.5q-19 17.5 -19 57.5q0 38 19 55.5t61 17.5t61 -17.5t19 -55.5 q0 -40 -19 -57.5t-61 -17.5t-61 17.5zM347 723.5q-19 17.5 -19 57.5q0 38 19 55.5t61 17.5t61 -17.5t19 -55.5q0 -40 -19 -57.5t-61 -17.5t-61 17.5zM467 1015l-167 -150l-166 148l76 60l90 -80l90 82z" />
         <glyph glyph-name="uni01DC" unicode="ǜ" d="M158.5 9.5q-45.5 23.5 -65.5 77t-20 146.5v385h100v-385q0 -63 9.5 -96t33 -46t67.5 -13q63 0 96 11t46 38t13 79v412h100v-618h-100v21q-27 -19 -63.5 -27t-91.5 -8q-79 0 -124.5 23.5zM131 723.5q-19 17.5 -19 57.5q0 38 19 55.5t61 17.5t61 -17.5t19 -55.5 q0 -40 -19 -57.5t-61 -17.5t-61 17.5zM347 723.5q-19 17.5 -19 57.5q0 38 19 55.5t61 17.5t61 -17.5t19 -55.5q0 -40 -19 -57.5t-61 -17.5t-61 17.5zM378 956l-66 -70l-172 149l66 70z" />
         <glyph glyph-name="uni01D6" unicode="ǖ" d="M158.5 9.5q-45.5 23.5 -65.5 77t-20 146.5v385h100v-385q0 -63 9.5 -96t33 -46t67.5 -13q63 0 96 11t46 38t13 79v412h100v-618h-100v21q-27 -19 -63.5 -27t-91.5 -8q-79 0 -124.5 23.5zM131 723.5q-19 17.5 -19 57.5q0 38 19 55.5t61 17.5t61 -17.5t19 -55.5 q0 -40 -19 -57.5t-61 -17.5t-61 17.5zM347 723.5q-19 17.5 -19 57.5q0 38 19 55.5t61 17.5t61 -17.5t19 -55.5q0 -40 -19 -57.5t-61 -17.5t-61 17.5zM462 916h-324v92h324v-92z" />
         <glyph glyph-name="uni1EE5" unicode="ụ" d="M158.5 9.5q-45.5 23.5 -65.5 77t-20 146.5v385h100v-385q0 -63 9.5 -96t33 -46t67.5 -13q63 0 96 11t46 38t13 79v412h100v-618h-100v21q-27 -19 -63.5 -27t-91.5 -8q-79 0 -124.5 23.5zM237 -223q-17 16 -17 59t17 59t63 16t63 -16t17 -59t-17 -59t-63 -16t-63 16z" />
         <glyph glyph-name="ugrave" unicode="ù" d="M158.5 9.5q-45.5 23.5 -65.5 77t-20 146.5v385h100v-385q0 -63 9.5 -96t33 -46t67.5 -13q63 0 96 11t46 38t13 79v412h100v-618h-100v21q-27 -19 -63.5 -27t-91.5 -8q-79 0 -124.5 23.5zM378 741l-66 -70l-172 149l66 70z" />
         <glyph glyph-name="uni1EE7" unicode="ủ" d="M158.5 9.5q-45.5 23.5 -65.5 77t-20 146.5v385h100v-385q0 -63 9.5 -96t33 -46t67.5 -13q63 0 96 11t46 38t13 79v412h100v-618h-100v21q-27 -19 -63.5 -27t-91.5 -8q-79 0 -124.5 23.5zM241 747q31 3 50.5 12.5t19.5 22.5q0 10 -6 15.5t-17 5.5q-15 0 -42 -15.5 t-57 -40.5v108q19 18 46 29t53 11q56 0 89.5 -28.5t33.5 -74.5q0 -50 -40 -87t-105 -47z" />
         <glyph glyph-name="uhorn" unicode="ư" d="M603 781h100v-153q0 -64 -36.5 -104.5t-95.5 -40.5q-16 0 -33 6v-489h-100v21q-27 -19 -63.5 -27t-91.5 -8q-79 0 -124.5 23.5t-65.5 77t-20 146.5v385h100v-385q0 -63 9.5 -96t33 -46t67.5 -13q63 0 96 11t46 38t13 79v412h100v-40q11 -3 23 -3q42 0 42 53v153z" />
         <glyph glyph-name="uni1EE9" unicode="ứ" d="M603 781h100v-153q0 -64 -36.5 -104.5t-95.5 -40.5q-16 0 -33 6v-489h-100v21q-27 -19 -63.5 -27t-91.5 -8q-79 0 -124.5 23.5t-65.5 77t-20 146.5v385h100v-385q0 -63 9.5 -96t33 -46t67.5 -13q63 0 96 11t46 38t13 79v412h100v-40q11 -3 23 -3q42 0 42 53v153zM460 820 l-172 -149l-66 70l172 149z" />
         <glyph glyph-name="uni1EF1" unicode="ự" d="M603 781h100v-153q0 -64 -36.5 -104.5t-95.5 -40.5q-16 0 -33 6v-489h-100v21q-27 -19 -63.5 -27t-91.5 -8q-79 0 -124.5 23.5t-65.5 77t-20 146.5v385h100v-385q0 -63 9.5 -96t33 -46t67.5 -13q63 0 96 11t46 38t13 79v412h100v-40q11 -3 23 -3q42 0 42 53v153z M237 -223q-17 16 -17 59t17 59t63 16t63 -16t17 -59t-17 -59t-63 -16t-63 16z" />
         <glyph glyph-name="uni1EEB" unicode="ừ" d="M603 781h100v-153q0 -64 -36.5 -104.5t-95.5 -40.5q-16 0 -33 6v-489h-100v21q-27 -19 -63.5 -27t-91.5 -8q-79 0 -124.5 23.5t-65.5 77t-20 146.5v385h100v-385q0 -63 9.5 -96t33 -46t67.5 -13q63 0 96 11t46 38t13 79v412h100v-40q11 -3 23 -3q42 0 42 53v153zM378 741 l-66 -70l-172 149l66 70z" />
         <glyph glyph-name="uni1EED" unicode="ử" d="M603 781h100v-153q0 -64 -36.5 -104.5t-95.5 -40.5q-16 0 -33 6v-489h-100v21q-27 -19 -63.5 -27t-91.5 -8q-79 0 -124.5 23.5t-65.5 77t-20 146.5v385h100v-385q0 -63 9.5 -96t33 -46t67.5 -13q63 0 96 11t46 38t13 79v412h100v-40q11 -3 23 -3q42 0 42 53v153zM241 747 q31 3 50.5 12.5t19.5 22.5q0 10 -6 15.5t-17 5.5q-15 0 -42 -15.5t-57 -40.5v108q19 18 46 29t53 11q56 0 89.5 -28.5t33.5 -74.5q0 -50 -40 -87t-105 -47z" />
         <glyph glyph-name="uni1EEF" unicode="ữ" d="M603 781h100v-153q0 -64 -36.5 -104.5t-95.5 -40.5q-16 0 -33 6v-489h-100v21q-27 -19 -63.5 -27t-91.5 -8q-79 0 -124.5 23.5t-65.5 77t-20 146.5v385h100v-385q0 -63 9.5 -96t33 -46t67.5 -13q63 0 96 11t46 38t13 79v412h100v-40q11 -3 23 -3q42 0 42 53v153zM320 705 q-28 17 -67 46q-19 14 -20 14q-8 0 -8 -17q0 -14 6 -34h-103q-1 8 -1 23q0 53 29.5 86.5t76.5 33.5q21 0 45 -15t59 -41q25 -21 30 -21q9 0 9 15q0 10 -7 33h102q2 -16 2 -24q0 -51 -29.5 -83.5t-76.5 -32.5q-19 0 -47 17z" />
         <glyph glyph-name="uhungarumlaut" unicode="ű" d="M158.5 9.5q-45.5 23.5 -65.5 77t-20 146.5v385h100v-385q0 -63 9.5 -96t33 -46t67.5 -13q63 0 96 11t46 38t13 79v412h100v-618h-100v21q-27 -19 -63.5 -27t-91.5 -8q-79 0 -124.5 23.5zM298 803l-172 -149l-66 70l172 149zM540 803l-172 -149l-66 70l172 149z" />
         <glyph glyph-name="umacron" unicode="ū" d="M158.5 9.5q-45.5 23.5 -65.5 77t-20 146.5v385h100v-385q0 -63 9.5 -96t33 -46t67.5 -13q63 0 96 11t46 38t13 79v412h100v-618h-100v21q-27 -19 -63.5 -27t-91.5 -8q-79 0 -124.5 23.5zM462 701h-324v92h324v-92z" />
         <glyph glyph-name="uogonek" unicode="ų" d="M559 -147q-19 -22 -52 -35.5t-67 -13.5q-58 0 -94 24.5t-36 65.5q0 38 37.5 71t90.5 44v12q-27 -19 -63.5 -27t-91.5 -8q-79 0 -124.5 23.5t-65.5 77t-20 146.5v385h100v-385q0 -63 9.5 -96t33 -46t67.5 -13q63 0 96 11t46 38t13 79v412h100v-618q-74 -32 -101.5 -49.5 t-27.5 -33.5q0 -10 7 -15.5t25 -5.5q13 0 24.5 4.5t18.5 12.5z" />
         <glyph glyph-name="uring" unicode="ů" d="M158.5 9.5q-45.5 23.5 -65.5 77t-20 146.5v385h100v-385q0 -63 9.5 -96t33 -46t67.5 -13q63 0 96 11t46 38t13 79v412h100v-618h-100v21q-27 -19 -63.5 -27t-91.5 -8q-79 0 -124.5 23.5zM185 723.5q-34 31.5 -34 106.5t34 106.5t115 31.5q83 0 117 -31t34 -107t-34 -107 t-117 -31q-81 0 -115 31.5zM342 792.5q9 8.5 9 37.5t-9 37.5t-42 8.5q-31 0 -40 -8.5t-9 -37.5t9 -37.5t40 -8.5q33 0 42 8.5z" />
         <glyph glyph-name="utilde" unicode="ũ" d="M158.5 9.5q-45.5 23.5 -65.5 77t-20 146.5v385h100v-385q0 -63 9.5 -96t33 -46t67.5 -13q63 0 96 11t46 38t13 79v412h100v-618h-100v21q-27 -19 -63.5 -27t-91.5 -8q-79 0 -124.5 23.5zM320 705q-28 17 -67 46q-19 14 -20 14q-8 0 -8 -17q0 -14 6 -34h-103q-1 8 -1 23 q0 53 29.5 86.5t76.5 33.5q21 0 45 -15t59 -41q25 -21 30 -21q9 0 9 15q0 10 -7 33h102q2 -16 2 -24q0 -51 -29.5 -83.5t-76.5 -32.5q-19 0 -47 17z" />
         <glyph glyph-name="v" unicode="v" d="M345 0h-92l-219 618h103l162 -467l162 467h104z" />
         <glyph glyph-name="w" unicode="w" d="M213 0h-90l-113 618h101l72 -413l73 236h88l72 -235l73 412h101l-114 -618h-90l-86 259z" />
         <glyph glyph-name="wacute" unicode="ẃ" d="M213 0h-90l-113 618h101l72 -413l73 236h88l72 -235l73 412h101l-114 -618h-90l-86 259zM460 820l-172 -149l-66 70l172 149z" />
         <glyph glyph-name="wcircumflex" unicode="ŵ" d="M213 0h-90l-113 618h101l72 -413l73 236h88l72 -235l73 412h101l-114 -618h-90l-86 259zM467 714l-77 -60l-90 82l-91 -80l-76 60l167 148z" />
         <glyph glyph-name="wdieresis" unicode="ẅ" d="M213 0h-90l-113 618h101l72 -413l73 236h88l72 -235l73 412h101l-114 -618h-90l-86 259zM131 723.5q-19 17.5 -19 57.5q0 38 19 55.5t61 17.5t61 -17.5t19 -55.5q0 -40 -19 -57.5t-61 -17.5t-61 17.5zM347 723.5q-19 17.5 -19 57.5q0 38 19 55.5t61 17.5t61 -17.5 t19 -55.5q0 -40 -19 -57.5t-61 -17.5t-61 17.5z" />
         <glyph glyph-name="wgrave" unicode="ẁ" d="M213 0h-90l-113 618h101l72 -413l73 236h88l72 -235l73 412h101l-114 -618h-90l-86 259zM378 741l-66 -70l-172 149l66 70z" />
         <glyph glyph-name="x" unicode="x" d="M443 618h114l-200 -309l200 -309h-114l-143 221l-143 -221h-114l200 309l-200 309h114l143 -221z" />
         <glyph glyph-name="y" unicode="y" d="M70.5 -187q-26.5 9 -57.5 31l40 84q35 -20 49 -26t32 -6q38 0 61.5 10.5t41 37t34.5 76.5l-205 598h104l154 -465l156 465h105l-212 -604q-28 -80 -59 -125t-73.5 -65t-106.5 -20q-37 0 -63.5 9z" />
         <glyph glyph-name="yacute" unicode="ý" d="M70.5 -187q-26.5 9 -57.5 31l40 84q35 -20 49 -26t32 -6q38 0 61.5 10.5t41 37t34.5 76.5l-205 598h104l154 -465l156 465h105l-212 -604q-28 -80 -59 -125t-73.5 -65t-106.5 -20q-37 0 -63.5 9zM460 820l-172 -149l-66 70l172 149z" />
         <glyph glyph-name="ycircumflex" unicode="ŷ" d="M70.5 -187q-26.5 9 -57.5 31l40 84q35 -20 49 -26t32 -6q38 0 61.5 10.5t41 37t34.5 76.5l-205 598h104l154 -465l156 465h105l-212 -604q-28 -80 -59 -125t-73.5 -65t-106.5 -20q-37 0 -63.5 9zM467 714l-77 -60l-90 82l-91 -80l-76 60l167 148z" />
         <glyph glyph-name="ydieresis" unicode="ÿ" d="M70.5 -187q-26.5 9 -57.5 31l40 84q35 -20 49 -26t32 -6q38 0 61.5 10.5t41 37t34.5 76.5l-205 598h104l154 -465l156 465h105l-212 -604q-28 -80 -59 -125t-73.5 -65t-106.5 -20q-37 0 -63.5 9zM131 723.5q-19 17.5 -19 57.5q0 38 19 55.5t61 17.5t61 -17.5t19 -55.5 q0 -40 -19 -57.5t-61 -17.5t-61 17.5zM347 723.5q-19 17.5 -19 57.5q0 38 19 55.5t61 17.5t61 -17.5t19 -55.5q0 -40 -19 -57.5t-61 -17.5t-61 17.5z" />
         <glyph glyph-name="uni1EF5" unicode="ỵ" d="M70.5 -187q-26.5 9 -57.5 31l40 84q35 -20 49 -26t32 -6q38 0 61.5 10.5t41 37t34.5 76.5l-205 598h104l154 -465l156 465h105l-212 -604q-28 -80 -59 -125t-73.5 -65t-106.5 -20q-37 0 -63.5 9zM417 -223q-17 16 -17 59t17 59t63 16t63 -16t17 -59t-17 -59t-63 -16 t-63 16z" />
         <glyph glyph-name="ygrave" unicode="ỳ" d="M70.5 -187q-26.5 9 -57.5 31l40 84q35 -20 49 -26t32 -6q38 0 61.5 10.5t41 37t34.5 76.5l-205 598h104l154 -465l156 465h105l-212 -604q-28 -80 -59 -125t-73.5 -65t-106.5 -20q-37 0 -63.5 9zM378 741l-66 -70l-172 149l66 70z" />
         <glyph glyph-name="uni1EF7" unicode="ỷ" d="M70.5 -187q-26.5 9 -57.5 31l40 84q35 -20 49 -26t32 -6q38 0 61.5 10.5t41 37t34.5 76.5l-205 598h104l154 -465l156 465h105l-212 -604q-28 -80 -59 -125t-73.5 -65t-106.5 -20q-37 0 -63.5 9zM241 747q31 3 50.5 12.5t19.5 22.5q0 10 -6 15.5t-17 5.5q-15 0 -42 -15.5 t-57 -40.5v108q19 18 46 29t53 11q56 0 89.5 -28.5t33.5 -74.5q0 -50 -40 -87t-105 -47z" />
         <glyph glyph-name="uni1EF9" unicode="ỹ" d="M70.5 -187q-26.5 9 -57.5 31l40 84q35 -20 49 -26t32 -6q38 0 61.5 10.5t41 37t34.5 76.5l-205 598h104l154 -465l156 465h105l-212 -604q-28 -80 -59 -125t-73.5 -65t-106.5 -20q-37 0 -63.5 9zM320 705q-28 17 -67 46q-19 14 -20 14q-8 0 -8 -17q0 -14 6 -34h-103 q-1 8 -1 23q0 53 29.5 86.5t76.5 33.5q21 0 45 -15t59 -41q25 -21 30 -21q9 0 9 15q0 10 -7 33h102q2 -16 2 -24q0 -51 -29.5 -83.5t-76.5 -32.5q-19 0 -47 17z" />
         <glyph glyph-name="z" unicode="z" d="M523 0h-447v60l310 466h-309v92h445v-60l-310 -466h311v-92z" />
         <glyph glyph-name="zacute" unicode="ź" d="M523 0h-447v60l310 466h-309v92h445v-60l-310 -466h311v-92zM460 820l-172 -149l-66 70l172 149z" />
         <glyph glyph-name="zcaron" unicode="ž" d="M523 0h-447v60l310 466h-309v92h445v-60l-310 -466h311v-92zM467 800l-167 -150l-166 148l76 60l90 -80l90 82z" />
         <glyph glyph-name="zdotaccent" unicode="ż" d="M523 0h-447v60l310 466h-309v92h445v-60l-310 -466h311v-92zM237 733q-17 16 -17 59t17 59t63 16t63 -16t17 -59t-17 -59t-63 -16t-63 16z" />
         <glyph glyph-name="ordfeminine" unicode="ª" d="M186.5 339q-38.5 14 -55 46t-16.5 90q0 54 16.5 84t55 43t107.5 13h78v27q0 46 -17 63t-61 17q-33 0 -49 -15t-27 -55l-98 16q13 56 33.5 87.5t53.5 45t87 13.5q69 0 107 -16t54.5 -52.5t16.5 -103.5v-204q0 -5 8 -8t30 -5v-90l-26 -1q-35 0 -54.5 7t-30.5 24 q-25 -23 -48 -31.5t-57 -8.5q-69 0 -107.5 14zM355 434.5q17 17.5 17 63.5v33h-78q-45 0 -62 -12t-17 -44q0 -33 17 -45.5t62 -12.5q44 0 61 17.5zM510 154h-410v92h410v-92z" />
         <glyph glyph-name="ordmasculine" unicode="º" d="M186 347.5q-41 22.5 -58.5 75t-17.5 147.5q0 94 17.5 146.5t58.5 75t114 22.5t114 -22.5t58.5 -75t17.5 -146.5q0 -95 -17.5 -147.5t-58.5 -75t-114 -22.5t-114 22.5zM354 431q19 14 27.5 47t8.5 92t-8.5 91.5t-27.5 46.5t-54 14t-54 -14t-27.5 -46.5t-8.5 -91.5t8.5 -92 t27.5 -47t54 -14t54 14zM505 154h-410v92h410v-92z" />
         <glyph glyph-name="uni2090" unicode="ₐ" d="M186.5 -50q-38.5 14 -55 46t-16.5 90q0 54 16.5 84t55 43t107.5 13h78v27q0 46 -17 63t-61 17q-33 0 -49 -15t-27 -55l-98 16q13 56 33.5 87.5t53.5 45t87 13.5q69 0 107 -16t54.5 -52.5t16.5 -103.5v-208q0 -5 8 -8t30 -5v-91q-52 0 -76 6.5t-35 23.5 q-22 -20 -44.5 -27.5t-60.5 -7.5q-69 0 -107.5 14zM355 45.5q17 17.5 17 63.5v33h-78q-45 0 -62 -12t-17 -44q0 -33 17 -45.5t62 -12.5q44 0 61 17.5z" />
         <glyph glyph-name="uni2091" unicode="ₑ" d="M369 44q20 16 38 58l81 -55q-26 -63 -64 -87t-111 -24q-76 0 -118.5 22t-60.5 72.5t-18 142.5q0 98 18 152t60.5 77t118.5 23q72 0 110.5 -25.5t54.5 -84t16 -166.5h-277q3 -68 24.5 -94.5t71.5 -26.5q36 0 56 16zM246.5 312.5q-21.5 -20.5 -27.5 -71.5h171q-7 52 -24 72 t-53 20q-45 0 -66.5 -20.5z" />
         <glyph glyph-name="uni2071" unicode="ⁱ" d="M275 788q-14 13 -14 43q0 28 14 41t45 13t45 -13t14 -41q0 -30 -14 -43t-45 -13t-45 13zM376 698v-378h115v-92h-330v92h115v286h-84v92h184z" />
         <glyph glyph-name="uni207F" unicode="ⁿ" d="M113 228v479h100v-35q36 23 58.5 31.5t46.5 8.5q66 0 102.5 -22.5t52 -74t15.5 -145.5v-242h-100v242q0 58 -6.5 90t-21.5 46t-42 14q-41 0 -63.5 -12.5t-32 -42.5t-9.5 -84v-253h-100z" />
         <glyph glyph-name="uni2092" unicode="ₒ" d="M186 -41.5q-41 22.5 -58.5 75t-17.5 147.5q0 94 17.5 146.5t58.5 75t114 22.5t114 -22.5t58.5 -75t17.5 -146.5q0 -95 -17.5 -147.5t-58.5 -75t-114 -22.5t-114 22.5zM354 42q19 14 27.5 47t8.5 92t-8.5 91.5t-27.5 46.5t-54 14t-54 -14t-27.5 -46.5t-8.5 -91.5t8.5 -92 t27.5 -47t54 -14t54 14z" />
         <glyph glyph-name="uni2094" unicode="ₔ" d="M405.5 403q42.5 -22 60.5 -72.5t18 -142.5q0 -98 -18 -152t-60.5 -77t-118.5 -23q-72 0 -110.5 25.5t-54.5 84t-16 166.5h277q-3 68 -24.5 94.5t-71.5 26.5q-36 0 -56 -16t-38 -58l-81 55q26 63 64 87t111 24q76 0 118.5 -22zM353.5 48.5q21.5 20.5 27.5 71.5h-171 q7 -52 24 -72t53 -20q45 0 66.5 20.5z" />
         <glyph glyph-name="uni2093" unicode="ₓ" d="M393 420h114l-150 -239l150 -240h-114l-93 148l-93 -148h-114l150 240l-150 239h114l93 -148z" />
         <glyph glyph-name="uni0410" unicode="А" d="M576 0h-103l-53 193h-240l-53 -193h-103l223 800h106zM300 631l-95 -346h190z" />
         <glyph glyph-name="uni0411" unicode="Б" d="M69 0v800h400v-92h-300v-190h140q93 0 144.5 -24t73.5 -79t22 -155q0 -101 -22 -156.5t-73.5 -79.5t-144.5 -24h-240zM309 92q54 0 84 15.5t43 51.5t13 101q0 64 -13 99.5t-43 51t-84 15.5h-140v-334h140z" />
         <glyph glyph-name="uni0412" unicode="В" d="M69 0v800h215q89 0 141 -21t75.5 -66t23.5 -122q0 -65 -15 -100t-53 -60q51 -26 72 -69t21 -127q0 -87 -23 -138t-75 -74t-142 -23h-240zM284 469q59 0 87.5 8.5t40.5 34t12 79.5q0 47 -12 71.5t-41.5 35t-86.5 10.5h-115v-239h115zM309 92q56 0 86 12.5t42 43t12 87.5 q0 62 -12 91.5t-41 40t-87 10.5h-140v-285h140z" />
         <glyph glyph-name="uni0413" unicode="Г" d="M78 800h474v-92h-374v-708h-100v800z" />
         <glyph glyph-name="uni0403" unicode="Ѓ" d="M78 800h474v-92h-374v-708h-100v800zM460 1002l-172 -149l-66 70l172 149z" />
         <glyph glyph-name="uni0490" unicode="Ґ" d="M452 800v145h100v-237h-374v-708h-100v800h374z" />
         <glyph glyph-name="uni0414" unicode="Д" d="M525 92h50v-180h-100v88h-350v-88h-100v180h31q60 33 86.5 95t39 184t30.5 429h313v-708zM425 92v616h-120q-14 -247 -24.5 -357.5t-28.5 -168t-53 -90.5h226z" />
         <glyph glyph-name="uni0415" unicode="Е" d="M551 800v-92h-374v-239h240v-92h-240v-285h374v-92h-474v800h474z" />
         <glyph glyph-name="uni0400" unicode="Ѐ" d="M551 800v-92h-374v-239h240v-92h-240v-285h374v-92h-474v800h474zM392 926l-66 -70l-172 149l66 70z" />
         <glyph glyph-name="uni0401" unicode="Ё" d="M551 800v-92h-374v-239h240v-92h-240v-285h374v-92h-474v800h474zM145 908.5q-19 17.5 -19 57.5q0 38 19 55.5t61 17.5t61 -17.5t19 -55.5q0 -40 -19 -57.5t-61 -17.5t-61 17.5zM361 908.5q-19 17.5 -19 57.5q0 38 19 55.5t61 17.5t61 -17.5t19 -55.5q0 -40 -19 -57.5 t-61 -17.5t-61 17.5z" />
         <glyph glyph-name="uni0416" unicode="Ж" d="M139 400l-139 400h111l139 -400l-139 -400h-111zM250 800h100v-800h-100v800zM489 800h111l-139 -400l139 -400h-111l-139 400z" />
         <glyph glyph-name="uni0417" unicode="З" d="M152.5 8.5q-52.5 22.5 -74.5 72t-22 136.5h100q0 -58 10.5 -86.5t41 -40.5t92.5 -12q58 0 88.5 12.5t43 43t12.5 86.5q0 64 -11 95.5t-36.5 44.5t-77.5 17h-94v92h94q53 4 78.5 13.5t36 34.5t10.5 77q0 51 -12.5 78t-43 38.5t-88.5 11.5q-64 0 -93.5 -11t-39.5 -38.5 t-10 -85.5h-101q0 87 22 135.5t74.5 70t147.5 21.5q91 0 144 -21.5t76.5 -69.5t23.5 -129q0 -69 -16.5 -105.5t-59.5 -65.5q43 -31 59.5 -75t16.5 -128q0 -86 -23.5 -137t-76.5 -74t-144 -23q-95 0 -147.5 22.5z" />
         <glyph glyph-name="uni0418" unicode="И" d="M432 800h107v-800h-100v584l-271 -584h-107v800h100v-584z" />
         <glyph glyph-name="uni0419" unicode="Й" d="M432 800h107v-800h-100v584l-271 -584h-107v800h100v-584zM179 880q-33 36 -28 125h110q-14 -34 -14 -48q0 -12 11.5 -16.5t40.5 -4.5q30 0 42 4.5t12 17.5q0 11 -13 47h109q1 -9 1 -25q0 -74 -34.5 -105t-116.5 -31q-87 0 -120 36z" />
         <glyph glyph-name="uni040D" unicode="Ѝ" d="M432 800h107v-800h-100v584l-271 -584h-107v800h100v-584zM378 923l-66 -70l-172 149l66 70z" />
         <glyph glyph-name="uni041A" unicode="К" d="M580 800q-54 -35 -90 -86t-80 -133q-43 -79 -73.5 -120.5t-75.5 -64.5l292 -396h-120l-277 377h-22v-377h-100v800h100v-331h16q45 0 78.5 26.5t56.5 64t52 97.5q31 63 52.5 96.5t50.5 46.5h140z" />
         <glyph glyph-name="uni040C" unicode="Ќ" d="M580 800q-54 -35 -90 -86t-80 -133q-43 -79 -73.5 -120.5t-75.5 -64.5l292 -396h-120l-277 377h-22v-377h-100v800h100v-331h16q45 0 78.5 26.5t56.5 64t52 97.5q31 63 52.5 96.5t50.5 46.5h140zM460 1002l-172 -149l-66 70l172 149z" />
         <glyph glyph-name="uni041B" unicode="Л" d="M550 0h-100v708h-150q-18 -321 -38.5 -458.5t-68.5 -193.5t-153 -56v93q56 0 85.5 46.5t48 195t31.5 465.5h345v-800z" />
         <glyph glyph-name="uni041C" unicode="М" d="M135 0h-100l14 800h94l157 -396l157 396h94l14 -800h-100l-10 542l-112 -303h-86l-112 303z" />
         <glyph glyph-name="uni041D" unicode="Н" d="M441 469v331h100v-800h-100v377h-282v-377h-100v800h100v-331h282z" />
         <glyph glyph-name="uni041E" unicode="О" d="M146.5 23q-55.5 37 -80 117.5t-24.5 219.5v80q0 139 24.5 219.5t80 117.5t153.5 37t153.5 -37t80 -117.5t24.5 -219.5v-80q0 -139 -24.5 -219.5t-80 -117.5t-153.5 -37t-153.5 37zM395.5 104q33.5 26 48 86t14.5 170v80q0 110 -14.5 170t-48 86t-95.5 26t-96 -26t-48 -86 t-14 -170v-80q0 -109 14.5 -169.5t48.5 -86.5t95 -26q62 0 95.5 26z" />
         <glyph glyph-name="uni041F" unicode="П" d="M155 0h-100v800h490v-800h-100v708h-290v-708z" />
         <glyph glyph-name="uni0420" unicode="Р" d="M320 800q89 0 141.5 -23t75.5 -74.5t23 -138.5q0 -92 -23 -142.5t-74.5 -72t-142.5 -21.5h-139v-328h-100v800h99l1 1v-1h139zM320 420q58 0 87 11t41 41t12 92q0 57 -12 88t-42 43.5t-86 12.5h-139v-288h139z" />
         <glyph glyph-name="uni0421" unicode="С" d="M156.5 26.5q-57.5 40.5 -82.5 130t-25 244.5q0 154 25 243t82.5 129.5t158.5 40.5q70 0 115 -19t74.5 -62t50.5 -118l-95 -33q-17 58 -34 87.5t-42 41t-69 11.5q-64 0 -99.5 -29.5t-51 -98t-15.5 -193.5t15.5 -194.5t51 -99t99.5 -29.5q44 0 69 11.5t42 40t34 85.5 l95 -32q-21 -75 -50.5 -117.5t-74.5 -61t-115 -18.5q-101 0 -158.5 40.5z" />
         <glyph glyph-name="uni0422" unicode="Т" d="M593 800v-92h-243v-708h-100v708h-243v92h586z" />
         <glyph glyph-name="uni0423" unicode="У" d="M474 800h102l-163 -604q-31 -114 -86.5 -162t-154.5 -48q-37 0 -63.5 9t-57.5 31l40 84q35 -20 49 -26t32 -6q34 0 55.5 6t37.5 22l-224 694h103l180 -558z" />
         <glyph glyph-name="uni040E" unicode="Ў" d="M474 800h102l-163 -604q-31 -114 -86.5 -162t-154.5 -48q-37 0 -63.5 9t-57.5 31l40 84q35 -20 49 -26t32 -6q34 0 55.5 6t37.5 22l-224 694h103l180 -558zM199 880q-33 36 -28 125h110q-14 -34 -14 -48q0 -12 11.5 -16.5t40.5 -4.5q30 0 42 4.5t12 17.5q0 11 -13 47h109 q1 -9 1 -25q0 -74 -34.5 -105t-116.5 -31q-87 0 -120 36z" />
         <glyph glyph-name="uni0424" unicode="Ф" d="M567.5 222q-22.5 -66 -74.5 -98t-143 -38v-86h-100v87q-91 6 -143 38t-74.5 98t-22.5 178t22.5 178t74.5 97.5t143 37.5v86h100v-85q91 -6 143 -38t74.5 -98t22.5 -178q0 -113 -22.5 -179zM350 180q53 6 83.5 29.5t43.5 69.5t13 122q0 75 -13 121t-43.5 69.5t-83.5 29.5 v-441zM123 280q13 -46 43.5 -69.5t83.5 -30.5v441q-53 -7 -83.5 -30.5t-43.5 -69t-13 -120.5t13 -121z" />
         <glyph glyph-name="uni0425" unicode="Х" d="M468 800h111l-223 -400l223 -400h-111l-168 301l-168 -301h-111l224 400l-224 400h111l168 -301z" />
         <glyph glyph-name="uni0427" unicode="Ч" d="M521 800v-800h-100v200q-45 -32 -131 -32q-88 0 -138 32t-72 103t-22 196v301h100v-301q0 -95 12 -146t40 -72t80 -21q55 0 82.5 12t38 43t10.5 94v391h100z" />
         <glyph glyph-name="uni0426" unicode="Ц" d="M490 800v-708h100v-210h-100v118h-460v800h100v-708h260v708h100z" />
         <glyph glyph-name="uni0428" unicode="Ш" d="M570 0h-540v800h100v-708h120v708h100v-708h120v708h100v-800z" />
         <glyph glyph-name="uni0429" unicode="Щ" d="M500 800v-708h100v-200h-100v108h-500v800h100v-708h100v708h100v-708h100v708h100z" />
         <glyph glyph-name="uni040F" unicode="Џ" d="M430 800h100v-800h-180v-118h-100v118h-180v800h100v-708h260v708z" />
         <glyph glyph-name="uni042C" unicode="Ь" d="M320 518q93 0 144.5 -24t73.5 -79.5t22 -155.5t-22 -155.5t-73.5 -79.5t-144.5 -24h-239v800h100v-282h139zM320 92q54 0 84 15.5t43 51t13 100.5t-13 100.5t-43 51t-84 15.5h-139v-334h139z" />
         <glyph glyph-name="uni042A" unicode="Ъ" d="M350 518q93 0 144.5 -24t73.5 -79.5t22 -155.5t-22 -155.5t-73.5 -79.5t-144.5 -24h-239v708h-100v92h200v-282h139zM350 92q54 0 84 15.5t43 51t13 100.5t-13 100.5t-43 51t-84 15.5h-139v-334h139z" />
         <glyph glyph-name="uni042B" unicode="Ы" d="M210 518q81 0 126 -24t64.5 -79.5t19.5 -155.5t-19.5 -155.5t-64.5 -79.5t-126 -24h-190v800h100v-282h90zM480 0v800h100v-800h-100zM210 92q43 0 66.5 15.5t33.5 51t10 100.5t-10 100.5t-33.5 51t-66.5 15.5h-90v-334h90z" />
         <glyph glyph-name="uni0409" unicode="Љ" d="M435 518q64 0 99 -24t50.5 -79.5t15.5 -155.5t-15.5 -155.5t-50.5 -79.5t-99 -24h-129v708h-46q-18 -321 -38.5 -458.5t-68.5 -193.5t-153 -56v93q56 0 85.5 46.5t48 195t31.5 465.5h241v-282h29zM435 92q25 0 39 15.5t20 51.5t6 100t-6 100t-20 51.5t-39 15.5h-29v-334 h29z" />
         <glyph glyph-name="uni040A" unicode="Њ" d="M411 518q73 0 113.5 -24t58 -79.5t17.5 -155.5t-17.5 -155.5t-58 -79.5t-113.5 -24h-166v426h-140v-426h-100v800h100v-282h140v282h100v-282h66zM411 92q35 0 54 15.5t27 51t8 100.5t-8 100.5t-27 51t-54 15.5h-66v-334h66z" />
         <glyph glyph-name="uni0405" unicode="Ѕ" d="M178.5 -1q-47.5 13 -80 42.5t-57.5 81.5l77 72q18 -49 37.5 -73t52 -34t92.5 -10t91.5 13.5t44.5 45t13 90.5q0 43 -13.5 67.5t-45.5 42t-98 39.5q-89 29 -137 57t-69 66t-21 97q0 81 22.5 128t73.5 68.5t139 21.5q68 0 112 -11.5t74.5 -37t55.5 -71.5l-71 -77 q-19 44 -37 65.5t-48.5 30.5t-85.5 9t-83.5 -11t-40 -37.5t-11.5 -77.5q0 -37 12 -57.5t41 -35t89 -33.5q94 -29 145.5 -59t74 -73t22.5 -111q0 -89 -24 -141.5t-78 -76t-147 -23.5q-74 0 -121.5 13z" />
         <glyph glyph-name="uni0404" unicode="Є" d="M383.5 96q29.5 18 46.5 61h107q-23 -89 -80 -130t-157 -41q-98 0 -153.5 37t-80 117.5t-24.5 219.5v80q0 139 24.5 219.5t80 117.5t153.5 37q100 0 157 -41t80 -130h-105q-17 43 -47 61t-85 18q-61 0 -94.5 -25.5t-48 -84.5t-15.5 -166h245v-92h-245q1 -107 15.5 -166 t48 -84.5t94.5 -25.5q54 0 83.5 18z" />
         <glyph glyph-name="uni042D" unicode="Э" d="M453.5 777q55.5 -37 80 -117.5t24.5 -219.5v-80q0 -139 -24.5 -219.5t-80 -117.5t-153.5 -37q-100 0 -157 41t-80 130h107q17 -43 46.5 -61t83.5 -18q61 0 94.5 25.5t48 84.5t15.5 166h-245v92h245q-1 107 -15.5 166t-48 84.5t-94.5 25.5q-55 0 -85 -18t-47 -61h-105 q23 89 80 130t157 41q98 0 153.5 -37z" />
         <glyph glyph-name="uni0406" unicode="І" d="M512 800v-92h-162v-616h162v-92h-424v92h162v616h-162v92h424z" />
         <glyph glyph-name="uni0407" unicode="Ї" d="M512 800v-92h-162v-616h162v-92h-424v92h162v616h-162v92h424zM131 908.5q-19 17.5 -19 57.5q0 38 19 55.5t61 17.5t61 -17.5t19 -55.5q0 -40 -19 -57.5t-61 -17.5t-61 17.5zM347 908.5q-19 17.5 -19 57.5q0 38 19 55.5t61 17.5t61 -17.5t19 -55.5q0 -40 -19 -57.5 t-61 -17.5t-61 17.5z" />
         <glyph glyph-name="uni0408" unicode="Ј" d="M148 4.5q-45 18.5 -73.5 61t-49.5 118.5l94 26q16 -54 32.5 -82t42 -39t70.5 -11q65 0 100 26t50 88.5t15 178.5v337h-131v92h231v-429q0 -145 -25 -228t-82 -120t-158 -37q-71 0 -116 18.5z" />
         <glyph glyph-name="uni040B" unicode="Ћ" d="M489.5 491q49.5 -27 71 -90.5t21.5 -176.5v-224h-100v224q0 78 -12 121.5t-40.5 62t-79.5 18.5q-56 0 -83 -12.5t-37.5 -45.5t-10.5 -101v-267h-100v708h-119v92h339v-92h-120v-222q45 32 131 32q90 0 139.5 -27z" />
         <glyph glyph-name="uni042E" unicode="Ю" d="M512 779.5q45 -34.5 64 -114.5t19 -225v-80q0 -145 -19 -225t-64 -114.5t-125 -34.5t-124.5 34t-63.5 113t-20 221h-69v-354h-100v800h100v-354h69q1 142 20 221t63.5 113t124.5 34t125 -34.5zM495 440q0 109 -10 169.5t-33 86.5t-65 26t-65 -26t-33 -86.5t-10 -169.5 v-80q0 -109 10 -169.5t33 -86.5t65 -26t65 26t33 86.5t10 169.5v80z" />
         <glyph glyph-name="uni042F" unicode="Я" d="M527 800v-800h-100v328h-75l-226 -328h-116l227 330q-70 5 -111 29t-59.5 73.5t-18.5 131.5q0 87 23 138.5t75.5 74.5t141.5 23h239zM427 420v288h-139q-56 0 -86 -12.5t-42 -43.5t-12 -88q0 -62 12 -92t41 -41t87 -11h139z" />
         <glyph glyph-name="uni0402" unicode="Ђ" d="M502 493.5q50 -24.5 71.5 -82t21.5 -160.5t-19.5 -159.5t-67.5 -81t-136 -24.5q-27 0 -40 2.5t-22 9.5v93q9 -8 21.5 -10.5t40.5 -2.5q50 0 76 16t36.5 52.5t10.5 104.5t-12.5 105.5t-41 53.5t-79.5 16q-55 0 -83 -12.5t-39.5 -45t-11.5 -94.5v-274h-100v708h-128v92h359 v-92h-131v-227q49 37 134 37q90 0 140 -24.5z" />
         <glyph glyph-name="uni0462" unicode="Ѣ" d="M330 518q93 0 144.5 -24t73.5 -79.5t22 -155.5t-22 -155.5t-73.5 -79.5t-144.5 -24h-239v618h-81v92h81v90h100v-90h158v-92h-158v-100h139zM330 92q54 0 84 15.5t43 51t13 100.5t-13 100.5t-43 51t-84 15.5h-139v-334h139z" />
         <glyph glyph-name="uni046A" unicode="Ѫ" d="M597 800v-92l-174 -285q34 -27 57 -88.5t52 -190.5q11 -51 20.5 -76t36.5 -68h-109q-15 31 -25 58t-21 76q-19 86 -30.5 128t-23.5 64t-30 29v-355h-100v355q-18 -7 -30 -29t-23.5 -64t-30.5 -128q-11 -49 -21 -76t-25 -58h-109q27 43 36.5 68t20.5 76q29 129 52 190.5 t57 88.5l-174 285v92h594zM487 708h-374l156 -255q9 1 31 1t31 -1z" />
         <glyph glyph-name="uni0498" unicode="Ҙ" d="M527.5 348q16.5 -44 16.5 -128q0 -116 -44 -169.5t-150 -62.5v-35q33 -8 53.5 -31t20.5 -54q0 -49 -36 -79t-94 -30q-38 0 -69 13t-45 35l39 68q9 -11 29.5 -17.5t45.5 -6.5q13 0 21.5 4.5t8.5 12.5q0 11 -20.5 18t-53.5 7v95q-74 6 -116 30.5t-60 72t-18 126.5h100 q0 -58 10.5 -86.5t41 -40.5t92.5 -12q58 0 88.5 12.5t43 43t12.5 86.5q0 64 -11 95.5t-36.5 44.5t-77.5 17h-94v92h94q53 4 78.5 13.5t36 34.5t10.5 77q0 51 -12.5 78t-43 38.5t-88.5 11.5q-64 0 -93.5 -11t-39.5 -38.5t-10 -85.5h-101q0 87 22 135.5t74.5 70t147.5 21.5 q91 0 144 -21.5t76.5 -69.5t23.5 -129q0 -69 -16.5 -105.5t-59.5 -65.5q43 -31 59.5 -75z" />
         <glyph glyph-name="uni04C0" unicode="Ӏ" d="M512 800v-92h-162v-616h162v-92h-424v92h162v616h-162v92h424z" />
         <glyph glyph-name="uni04C1" unicode="Ӂ" d="M139 400l-139 400h111l139 -400l-139 -400h-111zM250 800h100v-800h-100v800zM489 800h111l-139 -400l139 -400h-111l-139 400zM179 880q-33 36 -28 125h110q-14 -34 -14 -48q0 -12 11.5 -16.5t40.5 -4.5q30 0 42 4.5t12 17.5q0 11 -13 47h109q1 -9 1 -25 q0 -74 -34.5 -105t-116.5 -31q-87 0 -120 36z" />
         <glyph glyph-name="uni04D0" unicode="Ӑ" d="M576 0h-103l-53 193h-240l-53 -193h-103l223 800h106zM300 631l-95 -346h190zM179 883q-33 36 -28 125h110q-14 -34 -14 -48q0 -12 11.5 -16.5t40.5 -4.5q30 0 42 4.5t12 17.5q0 11 -13 47h109q1 -9 1 -25q0 -74 -34.5 -105t-116.5 -31q-87 0 -120 36z" />
         <glyph glyph-name="uni04D2" unicode="Ӓ" d="M576 0h-103l-53 193h-240l-53 -193h-103l223 800h106zM300 631l-95 -346h190zM131 908.5q-19 17.5 -19 57.5q0 38 19 55.5t61 17.5t61 -17.5t19 -55.5q0 -40 -19 -57.5t-61 -17.5t-61 17.5zM347 908.5q-19 17.5 -19 57.5q0 38 19 55.5t61 17.5t61 -17.5t19 -55.5 q0 -40 -19 -57.5t-61 -17.5t-61 17.5z" />
         <glyph glyph-name="uni04D4" unicode="Ӕ" d="M592 800v-92h-207v-285h137v-92h-137v-239h207v-92h-307v239h-121l-60 -239h-101l200 800h389zM282 708l-95 -377h98v377h-3z" />
         <glyph glyph-name="uni04D6" unicode="Ӗ" d="M551 800v-92h-374v-239h240v-92h-240v-285h374v-92h-474v800h474zM193 883q-33 36 -28 125h110q-14 -34 -14 -48q0 -12 11.5 -16.5t40.5 -4.5q30 0 42 4.5t12 17.5q0 11 -13 47h109q1 -9 1 -25q0 -74 -34.5 -105t-116.5 -31q-87 0 -120 36z" />
         <glyph glyph-name="uni04DC" unicode="Ӝ" d="M139 400l-139 400h111l139 -400l-139 -400h-111zM250 800h100v-800h-100v800zM489 800h111l-139 -400l139 -400h-111l-139 400zM131 905.5q-19 17.5 -19 57.5q0 38 19 55.5t61 17.5t61 -17.5t19 -55.5q0 -40 -19 -57.5t-61 -17.5t-61 17.5zM347 905.5q-19 17.5 -19 57.5 q0 38 19 55.5t61 17.5t61 -17.5t19 -55.5q0 -40 -19 -57.5t-61 -17.5t-61 17.5z" />
         <glyph glyph-name="uni04DE" unicode="Ӟ" d="M152.5 8.5q-52.5 22.5 -74.5 72t-22 136.5h100q0 -58 10.5 -86.5t41 -40.5t92.5 -12q58 0 88.5 12.5t43 43t12.5 86.5q0 64 -11 95.5t-36.5 44.5t-77.5 17h-94v92h94q53 4 78.5 13.5t36 34.5t10.5 77q0 51 -12.5 78t-43 38.5t-88.5 11.5q-64 0 -93.5 -11t-39.5 -38.5 t-10 -85.5h-101q0 87 22 135.5t74.5 70t147.5 21.5q91 0 144 -21.5t76.5 -69.5t23.5 -129q0 -69 -16.5 -105.5t-59.5 -65.5q43 -31 59.5 -75t16.5 -128q0 -86 -23.5 -137t-76.5 -74t-144 -23q-95 0 -147.5 22.5zM131 905.5q-19 17.5 -19 57.5q0 38 19 55.5t61 17.5t61 -17.5 t19 -55.5q0 -40 -19 -57.5t-61 -17.5t-61 17.5zM347 905.5q-19 17.5 -19 57.5q0 38 19 55.5t61 17.5t61 -17.5t19 -55.5q0 -40 -19 -57.5t-61 -17.5t-61 17.5z" />
         <glyph glyph-name="uni04E2" unicode="Ӣ" d="M432 800h107v-800h-100v584l-271 -584h-107v800h100v-584zM462 883h-324v92h324v-92z" />
         <glyph glyph-name="uni04E4" unicode="Ӥ" d="M432 800h107v-800h-100v584l-271 -584h-107v800h100v-584zM131 905.5q-19 17.5 -19 57.5q0 38 19 55.5t61 17.5t61 -17.5t19 -55.5q0 -40 -19 -57.5t-61 -17.5t-61 17.5zM347 905.5q-19 17.5 -19 57.5q0 38 19 55.5t61 17.5t61 -17.5t19 -55.5q0 -40 -19 -57.5t-61 -17.5 t-61 17.5z" />
         <glyph glyph-name="uni04E6" unicode="Ӧ" d="M146.5 23q-55.5 37 -80 117.5t-24.5 219.5v80q0 139 24.5 219.5t80 117.5t153.5 37t153.5 -37t80 -117.5t24.5 -219.5v-80q0 -139 -24.5 -219.5t-80 -117.5t-153.5 -37t-153.5 37zM395.5 104q33.5 26 48 86t14.5 170v80q0 110 -14.5 170t-48 86t-95.5 26t-96 -26t-48 -86 t-14 -170v-80q0 -109 14.5 -169.5t48.5 -86.5t95 -26q62 0 95.5 26zM131 908.5q-19 17.5 -19 57.5q0 38 19 55.5t61 17.5t61 -17.5t19 -55.5q0 -40 -19 -57.5t-61 -17.5t-61 17.5zM347 908.5q-19 17.5 -19 57.5q0 38 19 55.5t61 17.5t61 -17.5t19 -55.5q0 -40 -19 -57.5 t-61 -17.5t-61 17.5z" />
         <glyph glyph-name="uni04EC" unicode="Ӭ" d="M453.5 777q55.5 -37 80 -117.5t24.5 -219.5v-80q0 -139 -24.5 -219.5t-80 -117.5t-153.5 -37q-100 0 -157 41t-80 130h107q17 -43 46.5 -61t83.5 -18q61 0 94.5 25.5t48 84.5t15.5 166h-245v92h245q-1 107 -15.5 166t-48 84.5t-94.5 25.5q-55 0 -85 -18t-47 -61h-105 q23 89 80 130t157 41q98 0 153.5 -37zM131 908.5q-19 17.5 -19 57.5q0 38 19 55.5t61 17.5t61 -17.5t19 -55.5q0 -40 -19 -57.5t-61 -17.5t-61 17.5zM347 908.5q-19 17.5 -19 57.5q0 38 19 55.5t61 17.5t61 -17.5t19 -55.5q0 -40 -19 -57.5t-61 -17.5t-61 17.5z" />
         <glyph glyph-name="uni04EE" unicode="Ӯ" d="M474 800h102l-163 -604q-31 -114 -86.5 -162t-154.5 -48q-37 0 -63.5 9t-57.5 31l40 84q35 -20 49 -26t32 -6q34 0 55.5 6t37.5 22l-224 694h103l180 -558zM482 883h-324v92h324v-92z" />
         <glyph glyph-name="uni04F0" unicode="Ӱ" d="M474 800h102l-163 -604q-31 -114 -86.5 -162t-154.5 -48q-37 0 -63.5 9t-57.5 31l40 84q35 -20 49 -26t32 -6q34 0 55.5 6t37.5 22l-224 694h103l180 -558zM151 905.5q-19 17.5 -19 57.5q0 38 19 55.5t61 17.5t61 -17.5t19 -55.5q0 -40 -19 -57.5t-61 -17.5t-61 17.5z M367 905.5q-19 17.5 -19 57.5q0 38 19 55.5t61 17.5t61 -17.5t19 -55.5q0 -40 -19 -57.5t-61 -17.5t-61 17.5z" />
         <glyph glyph-name="uni04F2" unicode="Ӳ" d="M474 800h102l-163 -604q-31 -114 -86.5 -162t-154.5 -48q-37 0 -63.5 9t-57.5 31l40 84q35 -20 49 -26t32 -6q34 0 55.5 6t37.5 22l-224 694h103l180 -558zM318 1002l-172 -149l-66 70l172 149zM560 1002l-172 -149l-66 70l172 149z" />
         <glyph glyph-name="uni04F4" unicode="Ӵ" d="M521 800v-800h-100v200q-45 -32 -131 -32q-88 0 -138 32t-72 103t-22 196v301h100v-301q0 -95 12 -146t40 -72t80 -21q55 0 82.5 12t38 43t10.5 94v391h100zM131 905.5q-19 17.5 -19 57.5q0 38 19 55.5t61 17.5t61 -17.5t19 -55.5q0 -40 -19 -57.5t-61 -17.5t-61 17.5z M347 905.5q-19 17.5 -19 57.5q0 38 19 55.5t61 17.5t61 -17.5t19 -55.5q0 -40 -19 -57.5t-61 -17.5t-61 17.5z" />
         <glyph glyph-name="uni04F8" unicode="Ӹ" d="M210 518q81 0 126 -24t64.5 -79.5t19.5 -155.5t-19.5 -155.5t-64.5 -79.5t-126 -24h-190v800h100v-282h90zM480 0v800h100v-800h-100zM210 92q43 0 66.5 15.5t33.5 51t10 100.5t-10 100.5t-33.5 51t-66.5 15.5h-90v-334h90zM131 905.5q-19 17.5 -19 57.5q0 38 19 55.5 t61 17.5t61 -17.5t19 -55.5q0 -40 -19 -57.5t-61 -17.5t-61 17.5zM347 905.5q-19 17.5 -19 57.5q0 38 19 55.5t61 17.5t61 -17.5t19 -55.5q0 -40 -19 -57.5t-61 -17.5t-61 17.5z" />
         <glyph glyph-name="uni0414.loclBGR" d="M350 800l180 -708h45v-180h-100v88h-350v-88h-100v180h45l180 708h100zM300 624l-135 -532h270z" />
         <glyph glyph-name="uni041B.loclBGR" d="M121 0h-101l230 800h100l230 -800h-101l-179 624z" />
         <glyph glyph-name="uni0424.loclBGR" d="M567.5 166.5q-22.5 -86.5 -74.5 -128.5t-143 -50v-97h-100v97q-91 8 -143 50.5t-74.5 129t-22.5 233.5t22.5 233t74.5 128t143 50v96h100v-96q91 -8 143 -49.5t74.5 -128t22.5 -233.5q0 -148 -22.5 -234.5zM350 82q53 9 83.5 43t43.5 100t13 176q0 109 -13 174.5 t-43.5 99.5t-83.5 43v-636zM123 226q13 -66 43.5 -100t83.5 -44v636q-53 -9 -83.5 -43t-43.5 -99.5t-13 -174.5t13 -175z" />
         <glyph glyph-name="uni0430" unicode="а" d="M136.5 5q-50.5 19 -73 60.5t-22.5 112.5q0 78 22.5 121t72 60.5t138.5 17.5h133v32q0 47 -11.5 73t-40 37t-81.5 11q-42 0 -65.5 -9t-36.5 -30.5t-24 -65.5l-96 24q17 66 43.5 106t69 58.5t109.5 18.5q127 0 180 -53t53 -170v-241q0 -38 6 -54t21.5 -19.5t50.5 -1.5v-92 l-25 -1q-46 0 -74.5 12t-43.5 38q-27 -35 -66.5 -49.5t-101.5 -14.5q-87 0 -137.5 19zM356 91q28 13 39.5 44.5t11.5 90.5v59h-133q-57 0 -84 -7t-38 -29.5t-11 -70.5q0 -40 11 -61t39.5 -30t82.5 -9t82 13z" />
         <glyph glyph-name="uni0431" unicode="б" d="M150.5 10q-53.5 24 -77.5 80.5t-24 159.5v230q0 82 31 144.5t88 97t131 34.5q64 0 104 12t40 32h105q0 -41 -31 -71.5t-87.5 -47.5t-130.5 -17q-67 0 -108.5 -50.5t-41.5 -133.5v-3q27 20 62.5 29t88.5 9q96 0 149.5 -23.5t77.5 -80.5t24 -160q0 -104 -24 -160.5 t-77.5 -80.5t-149.5 -24t-149.5 24zM393.5 91.5q31.5 13.5 44.5 49.5t13 110q0 73 -13 109.5t-44.5 49.5t-93.5 13t-93.5 -13t-44.5 -49.5t-13 -110.5q0 -73 13 -109.5t44.5 -49.5t93.5 -13t93.5 13.5z" />
         <glyph glyph-name="uni0432" unicode="в" d="M79 0v618h205q84 0 134 -16.5t73 -52t23 -95.5q0 -45 -12.5 -70t-42.5 -44q44 -20 62 -53t18 -98q0 -69 -23 -110t-73 -60t-134 -19h-230zM284 378q56 0 82.5 5t37 20.5t10.5 50.5q0 28 -11 43.5t-39 22t-80 6.5h-105v-148h105zM309 92q52 0 79.5 9t39 29.5t11.5 58.5 q0 43 -11 63.5t-37.5 27t-81.5 6.5h-130v-194h130z" />
         <glyph glyph-name="uni0433" unicode="г" d="M78 618h474v-92h-374v-526h-100v618z" />
         <glyph glyph-name="uni0453" unicode="ѓ" d="M78 618h474v-92h-374v-526h-100v618zM460 820l-172 -149l-66 70l172 149z" />
         <glyph glyph-name="uni0491" unicode="ґ" d="M452 618v145h100v-237h-374v-526h-100v618h374z" />
         <glyph glyph-name="uni0434" unicode="д" d="M525 92h50v-180h-100v88h-350v-88h-100v180h31q53 29 80.5 85.5t40 135.5t29.5 244l6 61h313v-526zM425 92v434h-120l-8 -67q-13 -117 -23 -179t-27.5 -111.5t-47.5 -76.5h226z" />
         <glyph glyph-name="uni0435" unicode="е" d="M449.5 598q52.5 -34 74.5 -109t20 -204h-398q3 -79 18.5 -124t48.5 -64t90 -19q39 0 64 7.5t46 26.5t49 56l80 -53q-49 -72 -101 -100.5t-138 -28.5q-97 0 -152.5 32t-80 102t-24.5 189t24.5 189t80 102t152.5 32q94 0 146.5 -34zM442 377q-6 63 -20.5 98t-42.5 50 t-76 15q-54 0 -86 -15.5t-48.5 -50.5t-20.5 -97h294z" />
         <glyph glyph-name="uni0450" unicode="ѐ" d="M449.5 598q52.5 -34 74.5 -109t20 -204h-398q3 -79 18.5 -124t48.5 -64t90 -19q39 0 64 7.5t46 26.5t49 56l80 -53q-49 -72 -101 -100.5t-138 -28.5q-97 0 -152.5 32t-80 102t-24.5 189t24.5 189t80 102t152.5 32q94 0 146.5 -34zM442 377q-6 63 -20.5 98t-42.5 50 t-76 15q-54 0 -86 -15.5t-48.5 -50.5t-20.5 -97h294zM378 741l-66 -70l-172 149l66 70z" />
         <glyph glyph-name="uni0451" unicode="ё" d="M449.5 598q52.5 -34 74.5 -109t20 -204h-398q3 -79 18.5 -124t48.5 -64t90 -19q39 0 64 7.5t46 26.5t49 56l80 -53q-49 -72 -101 -100.5t-138 -28.5q-97 0 -152.5 32t-80 102t-24.5 189t24.5 189t80 102t152.5 32q94 0 146.5 -34zM442 377q-6 63 -20.5 98t-42.5 50 t-76 15q-54 0 -86 -15.5t-48.5 -50.5t-20.5 -97h294zM131 723.5q-19 17.5 -19 57.5q0 38 19 55.5t61 17.5t61 -17.5t19 -55.5q0 -40 -19 -57.5t-61 -17.5t-61 17.5zM347 723.5q-19 17.5 -19 57.5q0 38 19 55.5t61 17.5t61 -17.5t19 -55.5q0 -40 -19 -57.5t-61 -17.5 t-61 17.5z" />
         <glyph glyph-name="uni0436" unicode="ж" d="M145 309l-141 309h105l141 -309l-141 -309h-105zM250 618h100v-618h-100v618zM491 618h105l-141 -309l141 -309h-105l-141 309z" />
         <glyph glyph-name="uni0437" unicode="з" d="M154 3q-52 17 -74.5 56t-22.5 109h100q0 -35 13 -54t44 -27.5t86 -8.5t86 7.5t44.5 25t13.5 49.5q0 56 -27 79t-98 28h-94v92h94q71 5 98 26.5t27 73.5q0 31 -13.5 48.5t-44 25t-86.5 7.5t-86.5 -8t-43.5 -26t-13 -51h-100q0 69 22.5 107t74.5 54t146 16t146.5 -16 t75 -53t22.5 -104q0 -55 -16 -86.5t-59 -59.5q43 -28 59 -61t16 -92q0 -67 -22.5 -104.5t-75 -53.5t-146.5 -16t-146 17z" />
         <glyph glyph-name="uni0438" unicode="и" d="M427 618h112v-618h-100v449l-266 -449h-112v618h100v-449z" />
         <glyph glyph-name="uni0439" unicode="й" d="M427 618h112v-618h-100v449l-266 -449h-112v618h100v-449zM179 698q-33 36 -28 125h110q-14 -34 -14 -48q0 -12 11.5 -16.5t40.5 -4.5q30 0 42 4.5t12 17.5q0 11 -13 47h109q1 -9 1 -25q0 -74 -34.5 -105t-116.5 -31q-87 0 -120 36z" />
         <glyph glyph-name="uni045D" unicode="ѝ" d="M427 618h112v-618h-100v449l-266 -449h-112v618h100v-449zM378 741l-66 -70l-172 149l66 70z" />
         <glyph glyph-name="uni043A" unicode="к" d="M580 618q-43 -24 -74 -60.5t-73 -98.5q-40 -62 -71 -98t-74 -56l272 -305h-125l-256 285h-45v-285h-100v618h100v-241h36q41 0 74 20.5t56.5 49t56.5 75.5q25 37 44 60.5t39 35.5h140z" />
         <glyph glyph-name="uni045C" unicode="ќ" d="M580 618q-43 -24 -74 -60.5t-73 -98.5q-40 -62 -71 -98t-74 -56l272 -305h-125l-256 285h-45v-285h-100v618h100v-241h36q41 0 74 20.5t56.5 49t56.5 75.5q25 37 44 60.5t39 35.5h140zM460 820l-172 -149l-66 70l172 149z" />
         <glyph glyph-name="uni043B" unicode="л" d="M550 0h-100v526h-152q-18 -233 -38.5 -336t-68.5 -146.5t-151 -43.5v93q56 0 85.5 34t48 144t31.5 347h345v-618z" />
         <glyph glyph-name="uni043C" unicode="м" d="M135 0h-100l14 618h76l175 -351l175 351h76l14 -618h-100l-10 360l-112 -213h-86l-112 213z" />
         <glyph glyph-name="uni043D" unicode="н" d="M441 378v240h100v-618h-100v286h-282v-286h-100v618h100v-240h282z" />
         <glyph glyph-name="uni043E" unicode="о" d="M157.5 18q-52.5 32 -75 102t-22.5 189t22.5 189t75 102t142.5 32t142.5 -32t75 -102t22.5 -189t-22.5 -189t-75 -102t-142.5 -32t-142.5 32zM384.5 99q29.5 21 42.5 70.5t13 139.5t-13 139.5t-42.5 70.5t-84.5 21t-84.5 -21t-42.5 -70.5t-13 -139.5t13 -139.5t42.5 -70.5 t84.5 -21t84.5 21z" />
         <glyph glyph-name="uni043F" unicode="п" d="M155 0h-100v618h490v-618h-100v526h-290v-526z" />
         <glyph glyph-name="uni0440" unicode="р" d="M66 -182v800h100v-17q50 31 141 31t143 -32t74.5 -101.5t22.5 -188.5t-22.5 -189.5t-74.5 -102.5t-143 -32q-90 0 -141 39v-207h-100zM391 99q30 21 43 71t13 140t-13 139t-42.5 70t-84.5 21q-141 0 -141 -65v-250q0 -76 34 -111.5t107 -35.5q54 0 84 21z" />
         <glyph glyph-name="uni0441" unicode="с" d="M163.5 18q-56.5 32 -81 102t-24.5 189t25 189t82 102t157 32q84 0 133 -28.5t96 -103.5l-84 -50q-24 38 -42.5 56.5t-42 26t-60.5 7.5q-65 0 -100 -21t-49.5 -70t-14.5 -140t14.5 -140t48.5 -70t97 -21q54 0 83.5 18t66.5 73l83 -50q-48 -75 -98.5 -104t-134.5 -29 q-98 0 -154.5 32z" />
         <glyph glyph-name="uni0442" unicode="т" d="M593 618v-92h-243v-526h-100v526h-243v92h586z" />
         <glyph glyph-name="uni0443" unicode="у" d="M70.5 -187q-26.5 9 -57.5 31l40 84q35 -20 49 -26t32 -6q38 0 61.5 10.5t41 37t34.5 76.5l-205 598h104l154 -465l156 465h105l-212 -604q-28 -80 -59 -125t-73.5 -65t-106.5 -20q-37 0 -63.5 9z" />
         <glyph glyph-name="uni045E" unicode="ў" d="M70.5 -187q-26.5 9 -57.5 31l40 84q35 -20 49 -26t32 -6q38 0 61.5 10.5t41 37t34.5 76.5l-205 598h104l154 -465l156 465h105l-212 -604q-28 -80 -59 -125t-73.5 -65t-106.5 -20q-37 0 -63.5 9zM209 698q-33 36 -28 125h110q-14 -34 -14 -48q0 -12 11.5 -16.5t40.5 -4.5 q30 0 42 4.5t12 17.5q0 11 -13 47h109q1 -9 1 -25q0 -74 -34.5 -105t-116.5 -31q-87 0 -120 36z" />
         <glyph glyph-name="uni0444" unicode="ф" d="M551.5 139q-21.5 -64 -70 -96t-131.5 -38v-187h-100v187q-83 7 -131.5 39t-70 96t-21.5 169t21.5 169t70 96t131.5 39v187h100v-187q83 -6 131.5 -38t70 -96t21.5 -170t-21.5 -170zM350 98q48 6 74.5 28t37.5 65.5t11 117.5t-11 117.5t-37.5 65.5t-74.5 28v-422z M138.5 191.5q11.5 -43.5 37.5 -65.5t74 -28v422q-48 -6 -74 -28t-37.5 -65.5t-11.5 -117.5t11.5 -117.5z" />
         <glyph glyph-name="uni0445" unicode="х" d="M443 618h114l-200 -309l200 -309h-114l-143 221l-143 -221h-114l200 309l-200 309h114l143 -221z" />
         <glyph glyph-name="uni0447" unicode="ч" d="M421 160q-45 -32 -131 -32q-90 0 -139.5 27t-71 93.5t-21.5 190.5v179h100v-179q0 -94 12 -140.5t39 -62.5t81 -16q60 0 85 7t35.5 33.5t10.5 88.5v269h100v-618h-100v160z" />
         <glyph glyph-name="uni0446" unicode="ц" d="M490 618v-526h100v-210h-100v118h-460v618h100v-526h260v526h100z" />
         <glyph glyph-name="uni0448" unicode="ш" d="M570 0h-540v618h100v-526h120v526h100v-526h120v526h100v-618z" />
         <glyph glyph-name="uni0449" unicode="щ" d="M500 618v-526h100v-200h-100v108h-500v618h100v-526h100v526h100v-526h100v526h100z" />
         <glyph glyph-name="uni045F" unicode="џ" d="M430 618h100v-618h-180v-118h-100v118h-180v618h100v-526h260v526z" />
         <glyph glyph-name="uni044C" unicode="ь" d="M320 412q93 0 144.5 -19t73.5 -63t22 -124t-22 -124t-73.5 -63t-144.5 -19h-239v618h100v-206h139zM320 92q54 0 84 10.5t43 35t13 68.5t-13 68.5t-43 35t-84 10.5h-139v-228h139z" />
         <glyph glyph-name="uni044A" unicode="ъ" d="M349 412q93 0 144.5 -19t73.5 -63t22 -124t-22 -124t-73.5 -63t-144.5 -19h-239v526h-99v92h200v-92h-1v-114h139zM349 92q54 0 84 10.5t43 35t13 68.5t-13 68.5t-43 35t-84 10.5h-139v-228h139z" />
         <glyph glyph-name="uni044B" unicode="ы" d="M210 412q81 0 126 -19t64.5 -63t19.5 -124t-19.5 -124t-64.5 -63t-126 -19h-190v618h100v-206h90zM480 0v618h100v-618h-100zM210 92q43 0 66.5 10.5t33.5 35t10 68.5t-10 68.5t-33.5 35t-66.5 10.5h-90v-228h90z" />
         <glyph glyph-name="uni0459" unicode="љ" d="M435 412q64 0 99 -19t50.5 -63t15.5 -124t-15.5 -124t-50.5 -63t-99 -19h-129v526h-48q-18 -233 -38.5 -336t-68.5 -146.5t-151 -43.5v93q56 0 85.5 34t48 144t31.5 347h241v-206h29zM435 92q37 0 51 24.5t14 89.5t-14 89.5t-51 24.5h-29v-228h29z" />
         <glyph glyph-name="uni045A" unicode="њ" d="M411 412q73 0 113.5 -19t58 -63t17.5 -124t-17.5 -124t-58 -63t-113.5 -19h-166v320h-140v-320h-100v618h100v-206h140v206h100v-206h66zM411 92q51 0 70 24.5t19 89.5t-19 89.5t-70 24.5h-66v-228h66z" />
         <glyph glyph-name="uni0455" unicode="ѕ" d="M148.5 14q-45.5 28 -83.5 100l79 65q19 -43 34.5 -63.5t37.5 -29t59 -8.5q70 0 107 9t51.5 30t14.5 60q0 37 -12 55.5t-41.5 28t-92.5 17.5q-118 15 -170.5 53.5t-52.5 117.5q0 67 24 107t77.5 58t144.5 18q84 0 131.5 -24t85.5 -86l-73 -71q-21 38 -37.5 56t-40.5 25.5 t-66 7.5q-59 0 -90 -8t-43.5 -27.5t-12.5 -55.5q0 -25 12.5 -39.5t39.5 -22.5t77 -15q93 -13 143.5 -33.5t73.5 -58.5t23 -103q0 -71 -26.5 -112t-86 -60t-160.5 -19q-81 0 -126.5 28z" />
         <glyph glyph-name="uni0454" unicode="є" d="M386 93q28 15 44 54h107q-16 -62 -43 -96.5t-73 -49.5t-121 -15q-100 0 -155 26t-79 87t-24 170v80q0 109 24 170t79 87t155 26q75 0 121 -15t73 -49.5t43 -96.5h-105q-16 39 -44.5 54t-87.5 15q-60 0 -94 -17t-48.5 -57t-15.5 -111h245v-92h-245q1 -71 15.5 -111 t48.5 -57t94 -17q58 0 86 15z" />
         <glyph glyph-name="uni044D" unicode="э" d="M455 606q55 -26 79 -87t24 -170v-80q0 -109 -24 -170t-79 -87t-155 -26q-75 0 -121 15t-73 49.5t-43 96.5h107q16 -39 44 -54t86 -15q60 0 94 17t48.5 57t15.5 111h-245v92h245q-1 71 -15.5 111t-48.5 57t-94 17q-59 0 -87.5 -15t-44.5 -54h-105q16 62 43 96.5t73 49.5 t121 15q100 0 155 -26z" />
         <glyph glyph-name="uni0456" unicode="і" d="M376 618v-526h175v-92h-450v92h175v434h-126v92h226zM245 733q-17 16 -17 59t17 59t63 16t63 -16t17 -59t-17 -59t-63 -16t-63 16z" />
         <glyph glyph-name="uni0457" unicode="ї" d="M376 618v-526h175v-92h-450v92h175v434h-126v92h226zM139 723.5q-19 17.5 -19 57.5q0 38 19 55.5t61 17.5t61 -17.5t19 -55.5q0 -40 -19 -57.5t-61 -17.5t-61 17.5zM355 723.5q-19 17.5 -19 57.5q0 38 19 55.5t61 17.5t61 -17.5t19 -55.5q0 -40 -19 -57.5t-61 -17.5 t-61 17.5z" />
         <glyph glyph-name="uni0458" unicode="ј" d="M132 -178.5q-40 17.5 -78 62.5l73 62q27 -31 47.5 -40.5t63.5 -9.5q54 0 82.5 15t40 51.5t11.5 107.5v456h-126v92h226v-548q0 -100 -22.5 -157.5t-73 -83t-138.5 -25.5q-66 0 -106 17.5zM335 733q-17 16 -17 59t17 59t63 16t63 -16t17 -59t-17 -59t-63 -16t-63 16z" />
         <glyph glyph-name="uni045B" unicode="ћ" d="M448 600q50 -32 72 -103t22 -196v-301h-100v301q0 95 -12 146t-40 72t-80 21q-55 0 -82.5 -12t-38 -43t-10.5 -94v-391h-100v657h-74v92h74v51h100v-51h121v-92h-121v-57q45 32 131 32q88 0 138 -32z" />
         <glyph glyph-name="uni044E" unicode="ю" d="M512 606q45 -26 64 -87t19 -170v-80q0 -109 -19 -170t-64 -87t-125 -26t-124.5 25.5t-63.5 85t-20 166.5h-69v-263h-100v618h100v-263h69q1 107 20 166.5t63.5 85t124.5 25.5t125 -26zM495 349q0 74 -10 115t-33 58.5t-65 17.5t-65 -17.5t-33 -58.5t-10 -115v-80 q0 -74 10 -115t33 -58.5t65 -17.5t65 17.5t33 58.5t10 115v80z" />
         <glyph glyph-name="uni044F" unicode="я" d="M527 618v-618h-100v232h-79l-211 -232h-127l213 234q-66 6 -104 26.5t-54.5 60t-16.5 104.5q0 75 22 116.5t73.5 59t144.5 17.5h239zM427 324v202h-139q-54 0 -84 -9.5t-43 -31t-13 -60.5t13 -60.5t43 -31t84 -9.5h139z" />
         <glyph glyph-name="uni0452" unicode="ђ" d="M448 600q50 -32 72 -103t22 -196v-301q0 -79 -17 -116t-56 -49t-119 -12v92q43 0 60.5 5t24.5 22t7 58v301q0 95 -12 146t-40 72t-80 21q-55 0 -82.5 -12t-38 -43t-10.5 -94v-391h-100v657h-74v92h74v51h100v-51h121v-92h-121v-57q45 32 131 32q88 0 138 -32z" />
         <glyph glyph-name="uni0463" unicode="ѣ" d="M320 412q93 0 144.5 -19t73.5 -63t22 -124t-22 -124t-73.5 -63t-144.5 -19h-239v526h-71v92h71v182h100v-182h168v-92h-168v-114h139zM320 92q54 0 84 10.5t43 35t13 68.5t-13 68.5t-43 35t-84 10.5h-139v-228h139z" />
         <glyph glyph-name="uni046B" unicode="ѫ" d="M597 618v-92l-163 -185q32 -24 54 -71.5t44 -135.5q12 -49 20.5 -69t36.5 -65h-109q-16 30 -24.5 52t-21.5 72q-21 81 -38 113t-46 40v-277h-100v277q-29 -8 -46 -40t-38 -113q-13 -50 -21.5 -72t-24.5 -52h-109q28 45 36.5 65t20.5 69q22 88 44 135.5t54 71.5l-163 185 v92h594zM480 526h-360l136 -154q26 2 44 2t44 -2z" />
         <glyph glyph-name="uni0499" unicode="ҙ" d="M528 252q16 -33 16 -92q0 -61 -18 -97t-60 -54t-116 -22v-34q33 -8 53.5 -31t20.5 -54q0 -49 -36 -79t-94 -30q-38 0 -69 13t-45 35l39 68q9 -11 29.5 -17.5t45.5 -6.5q13 0 21.5 4.5t8.5 12.5q0 11 -20.5 18t-53.5 7v94q-74 4 -115.5 23t-59.5 56.5t-18 101.5h100 q0 -35 13 -54t44 -27.5t86 -8.5t86 7.5t44.5 25t13.5 49.5q0 56 -27 79t-98 28h-94v92h94q71 5 98 26.5t27 73.5q0 31 -13.5 48.5t-44 25t-86.5 7.5t-86.5 -8t-43.5 -26t-13 -51h-100q0 69 22.5 107t74.5 54t146 16t146.5 -16t75 -53t22.5 -104q0 -55 -16 -86.5t-59 -59.5 q43 -28 59 -61z" />
         <glyph glyph-name="uni04BB" unicode="һ" d="M79 0v800h100v-200q45 32 131 32q88 0 138 -32t72 -103t22 -196v-301h-100v301q0 95 -12 146t-40 72t-80 21q-55 0 -82.5 -12t-38 -43t-10.5 -94v-391h-100z" />
         <glyph glyph-name="uni04C2" unicode="ӂ" d="M145 309l-141 309h105l141 -309l-141 -309h-105zM250 618h100v-618h-100v618zM491 618h105l-141 -309l141 -309h-105l-141 309zM179 698q-33 36 -28 125h110q-14 -34 -14 -48q0 -12 11.5 -16.5t40.5 -4.5q30 0 42 4.5t12 17.5q0 11 -13 47h109q1 -9 1 -25 q0 -74 -34.5 -105t-116.5 -31q-87 0 -120 36z" />
         <glyph glyph-name="uni04D1" unicode="ӑ" d="M136.5 5q-50.5 19 -73 60.5t-22.5 112.5q0 78 22.5 121t72 60.5t138.5 17.5h133v32q0 47 -11.5 73t-40 37t-81.5 11q-42 0 -65.5 -9t-36.5 -30.5t-24 -65.5l-96 24q17 66 43.5 106t69 58.5t109.5 18.5q127 0 180 -53t53 -170v-241q0 -38 6 -54t21.5 -19.5t50.5 -1.5v-92 l-25 -1q-46 0 -74.5 12t-43.5 38q-27 -35 -66.5 -49.5t-101.5 -14.5q-87 0 -137.5 19zM356 91q28 13 39.5 44.5t11.5 90.5v59h-133q-57 0 -84 -7t-38 -29.5t-11 -70.5q0 -40 11 -61t39.5 -30t82.5 -9t82 13zM179 698q-33 36 -28 125h110q-14 -34 -14 -48q0 -12 11.5 -16.5 t40.5 -4.5q30 0 42 4.5t12 17.5q0 11 -13 47h109q1 -9 1 -25q0 -74 -34.5 -105t-116.5 -31q-87 0 -120 36z" />
         <glyph glyph-name="uni04D3" unicode="ӓ" d="M136.5 5q-50.5 19 -73 60.5t-22.5 112.5q0 78 22.5 121t72 60.5t138.5 17.5h133v32q0 47 -11.5 73t-40 37t-81.5 11q-42 0 -65.5 -9t-36.5 -30.5t-24 -65.5l-96 24q17 66 43.5 106t69 58.5t109.5 18.5q127 0 180 -53t53 -170v-241q0 -38 6 -54t21.5 -19.5t50.5 -1.5v-92 l-25 -1q-46 0 -74.5 12t-43.5 38q-27 -35 -66.5 -49.5t-101.5 -14.5q-87 0 -137.5 19zM356 91q28 13 39.5 44.5t11.5 90.5v59h-133q-57 0 -84 -7t-38 -29.5t-11 -70.5q0 -40 11 -61t39.5 -30t82.5 -9t82 13zM131 723.5q-19 17.5 -19 57.5q0 38 19 55.5t61 17.5t61 -17.5 t19 -55.5q0 -40 -19 -57.5t-61 -17.5t-61 17.5zM347 723.5q-19 17.5 -19 57.5q0 38 19 55.5t61 17.5t61 -17.5t19 -55.5q0 -40 -19 -57.5t-61 -17.5t-61 17.5z" />
         <glyph glyph-name="uni04D5" unicode="ӕ" d="M37 30q-37 44 -37 147q0 78 19 121t60.5 61t114.5 18h55v39q0 50 -7 76t-25 37t-53 11q-17 0 -27 -8t-17 -30.5t-15 -67.5l-99 24q12 66 30.5 103.5t49 54t78.5 16.5q52 0 83 -15.5t53 -52.5q20 37 51 52.5t83 15.5q64 0 100.5 -34t51.5 -109t14 -204h-251q1 -80 9 -124 t26 -63.5t50 -19.5q26 0 46 19.5t41 72.5l81 -53q-25 -71 -64.5 -101t-103.5 -30q-46 0 -75.5 17t-54.5 58q-22 -41 -54 -58t-86 -17q-90 0 -127 44zM500 377q-1 91 -16.5 127t-49.5 36q-33 0 -51 -15t-25.5 -50t-8.5 -98h151zM217 90.5q18 12.5 25 44t7 92.5v58h-55 q-40 0 -59 -7.5t-27 -30t-8 -70.5q0 -40 6 -61t19.5 -29.5t38.5 -8.5q35 0 53 12.5z" />
         <glyph glyph-name="uni04D7" unicode="ӗ" d="M449.5 598q52.5 -34 74.5 -109t20 -204h-398q3 -79 18.5 -124t48.5 -64t90 -19q39 0 64 7.5t46 26.5t49 56l80 -53q-49 -72 -101 -100.5t-138 -28.5q-97 0 -152.5 32t-80 102t-24.5 189t24.5 189t80 102t152.5 32q94 0 146.5 -34zM442 377q-6 63 -20.5 98t-42.5 50 t-76 15q-54 0 -86 -15.5t-48.5 -50.5t-20.5 -97h294zM179 698q-33 36 -28 125h110q-14 -34 -14 -48q0 -12 11.5 -16.5t40.5 -4.5q30 0 42 4.5t12 17.5q0 11 -13 47h109q1 -9 1 -25q0 -74 -34.5 -105t-116.5 -31q-87 0 -120 36z" />
         <glyph glyph-name="uni04DD" unicode="ӝ" d="M145 309l-141 309h105l141 -309l-141 -309h-105zM250 618h100v-618h-100v618zM491 618h105l-141 -309l141 -309h-105l-141 309zM131 723.5q-19 17.5 -19 57.5q0 38 19 55.5t61 17.5t61 -17.5t19 -55.5q0 -40 -19 -57.5t-61 -17.5t-61 17.5zM347 723.5q-19 17.5 -19 57.5 q0 38 19 55.5t61 17.5t61 -17.5t19 -55.5q0 -40 -19 -57.5t-61 -17.5t-61 17.5z" />
         <glyph glyph-name="uni04DF" unicode="ӟ" d="M154 3q-52 17 -74.5 56t-22.5 109h100q0 -35 13 -54t44 -27.5t86 -8.5t86 7.5t44.5 25t13.5 49.5q0 56 -27 79t-98 28h-94v92h94q71 5 98 26.5t27 73.5q0 31 -13.5 48.5t-44 25t-86.5 7.5t-86.5 -8t-43.5 -26t-13 -51h-100q0 69 22.5 107t74.5 54t146 16t146.5 -16 t75 -53t22.5 -104q0 -55 -16 -86.5t-59 -59.5q43 -28 59 -61t16 -92q0 -67 -22.5 -104.5t-75 -53.5t-146.5 -16t-146 17zM131 723.5q-19 17.5 -19 57.5q0 38 19 55.5t61 17.5t61 -17.5t19 -55.5q0 -40 -19 -57.5t-61 -17.5t-61 17.5zM347 723.5q-19 17.5 -19 57.5 q0 38 19 55.5t61 17.5t61 -17.5t19 -55.5q0 -40 -19 -57.5t-61 -17.5t-61 17.5z" />
         <glyph glyph-name="uni04E3" unicode="ӣ" d="M427 618h112v-618h-100v449l-266 -449h-112v618h100v-449zM462 701h-324v92h324v-92z" />
         <glyph glyph-name="uni04E5" unicode="ӥ" d="M427 618h112v-618h-100v449l-266 -449h-112v618h100v-449zM131 723.5q-19 17.5 -19 57.5q0 38 19 55.5t61 17.5t61 -17.5t19 -55.5q0 -40 -19 -57.5t-61 -17.5t-61 17.5zM347 723.5q-19 17.5 -19 57.5q0 38 19 55.5t61 17.5t61 -17.5t19 -55.5q0 -40 -19 -57.5t-61 -17.5 t-61 17.5z" />
         <glyph glyph-name="uni04E7" unicode="ӧ" d="M157.5 18q-52.5 32 -75 102t-22.5 189t22.5 189t75 102t142.5 32t142.5 -32t75 -102t22.5 -189t-22.5 -189t-75 -102t-142.5 -32t-142.5 32zM384.5 99q29.5 21 42.5 70.5t13 139.5t-13 139.5t-42.5 70.5t-84.5 21t-84.5 -21t-42.5 -70.5t-13 -139.5t13 -139.5t42.5 -70.5 t84.5 -21t84.5 21zM131 723.5q-19 17.5 -19 57.5q0 38 19 55.5t61 17.5t61 -17.5t19 -55.5q0 -40 -19 -57.5t-61 -17.5t-61 17.5zM347 723.5q-19 17.5 -19 57.5q0 38 19 55.5t61 17.5t61 -17.5t19 -55.5q0 -40 -19 -57.5t-61 -17.5t-61 17.5z" />
         <glyph glyph-name="uni04ED" unicode="ӭ" d="M455 606q55 -26 79 -87t24 -170v-80q0 -109 -24 -170t-79 -87t-155 -26q-75 0 -121 15t-73 49.5t-43 96.5h107q16 -39 44 -54t86 -15q60 0 94 17t48.5 57t15.5 111h-245v92h245q-1 71 -15.5 111t-48.5 57t-94 17q-59 0 -87.5 -15t-44.5 -54h-105q16 62 43 96.5t73 49.5 t121 15q100 0 155 -26zM131 723.5q-19 17.5 -19 57.5q0 38 19 55.5t61 17.5t61 -17.5t19 -55.5q0 -40 -19 -57.5t-61 -17.5t-61 17.5zM347 723.5q-19 17.5 -19 57.5q0 38 19 55.5t61 17.5t61 -17.5t19 -55.5q0 -40 -19 -57.5t-61 -17.5t-61 17.5z" />
         <glyph glyph-name="uni04EF" unicode="ӯ" d="M70.5 -187q-26.5 9 -57.5 31l40 84q35 -20 49 -26t32 -6q38 0 61.5 10.5t41 37t34.5 76.5l-205 598h104l154 -465l156 465h105l-212 -604q-28 -80 -59 -125t-73.5 -65t-106.5 -20q-37 0 -63.5 9zM492 701h-324v92h324v-92z" />
         <glyph glyph-name="uni04F1" unicode="ӱ" d="M70.5 -187q-26.5 9 -57.5 31l40 84q35 -20 49 -26t32 -6q38 0 61.5 10.5t41 37t34.5 76.5l-205 598h104l154 -465l156 465h105l-212 -604q-28 -80 -59 -125t-73.5 -65t-106.5 -20q-37 0 -63.5 9zM161 723.5q-19 17.5 -19 57.5q0 38 19 55.5t61 17.5t61 -17.5t19 -55.5 q0 -40 -19 -57.5t-61 -17.5t-61 17.5zM377 723.5q-19 17.5 -19 57.5q0 38 19 55.5t61 17.5t61 -17.5t19 -55.5q0 -40 -19 -57.5t-61 -17.5t-61 17.5z" />
         <glyph glyph-name="uni04F3" unicode="ӳ" d="M70.5 -187q-26.5 9 -57.5 31l40 84q35 -20 49 -26t32 -6q38 0 61.5 10.5t41 37t34.5 76.5l-205 598h104l154 -465l156 465h105l-212 -604q-28 -80 -59 -125t-73.5 -65t-106.5 -20q-37 0 -63.5 9zM328 820l-172 -149l-66 70l172 149zM570 820l-172 -149l-66 70l172 149z " />
         <glyph glyph-name="uni04F5" unicode="ӵ" d="M421 160q-45 -32 -131 -32q-90 0 -139.5 27t-71 93.5t-21.5 190.5v179h100v-179q0 -94 12 -140.5t39 -62.5t81 -16q60 0 85 7t35.5 33.5t10.5 88.5v269h100v-618h-100v160zM131 723.5q-19 17.5 -19 57.5q0 38 19 55.5t61 17.5t61 -17.5t19 -55.5q0 -40 -19 -57.5 t-61 -17.5t-61 17.5zM347 723.5q-19 17.5 -19 57.5q0 38 19 55.5t61 17.5t61 -17.5t19 -55.5q0 -40 -19 -57.5t-61 -17.5t-61 17.5z" />
         <glyph glyph-name="uni04F9" unicode="ӹ" d="M210 412q81 0 126 -19t64.5 -63t19.5 -124t-19.5 -124t-64.5 -63t-126 -19h-190v618h100v-206h90zM480 0v618h100v-618h-100zM210 92q43 0 66.5 10.5t33.5 35t10 68.5t-10 68.5t-33.5 35t-66.5 10.5h-90v-228h90zM131 723.5q-19 17.5 -19 57.5q0 38 19 55.5t61 17.5 t61 -17.5t19 -55.5q0 -40 -19 -57.5t-61 -17.5t-61 17.5zM347 723.5q-19 17.5 -19 57.5q0 38 19 55.5t61 17.5t61 -17.5t19 -55.5q0 -40 -19 -57.5t-61 -17.5t-61 17.5z" />
         <glyph glyph-name="uni0432.loclBGR" d="M544 383.5q30 -51.5 30 -147.5q0 -102 -23.5 -161t-76 -85.5t-144.5 -26.5q-115 0 -173.5 41t-79.5 127t-21 241v200q0 126 53 195.5t171 69.5q84 0 132.5 -20.5t70 -67.5t21.5 -127q0 -60 -14.5 -97t-48.5 -64q73 -26 103 -77.5zM183.5 699.5q-27.5 -45.5 -27.5 -127.5 v-73h143q43 4 65 15.5t31 36t9 71.5q0 50 -10.5 76t-36.5 36.5t-77 10.5q-69 0 -96.5 -45.5zM418.5 70.5q30.5 15.5 43 54t12.5 111.5q0 64 -15.5 98.5t-52.5 51t-107 21.5h-143v-140q0 -79 15 -124t52.5 -66.5t106.5 -21.5q58 0 88.5 15.5z" />
         <glyph glyph-name="uni0433.loclBGR" d="M115.5 37q-60.5 51 -59.5 137q0 57 32 91.5t77.5 52t116.5 35.5q71 17 104.5 33t34.5 46q-2 48 -38.5 78t-94.5 30q-49 0 -79.5 -35t-30.5 -94l-97 17q0 59 25.5 105.5t72 72.5t106.5 26q71 0 124 -25.5t80 -72t25 -107.5q-1 -51 -30.5 -82t-71.5 -46.5t-108 -30.5 q-53 -13 -83.5 -23.5t-50.5 -28.5t-20 -46q2 -41 37 -66.5t89 -25.5q62 0 100.5 36t40.5 98l98 -7q0 -64 -29 -113.5t-83 -77.5t-124 -28q-103 0 -163.5 51z" />
         <glyph glyph-name="uni0434.loclBGR" d="M192 -178.5q-40 17.5 -78 62.5l73 62q27 -31 47.5 -40.5t63.5 -9.5q54 0 82.5 13.5t40 46.5t11.5 95v24q-51 -39 -141 -39q-91 0 -143 32.5t-74.5 105t-22.5 196.5q0 96 23 152.5t75.5 83t141.5 26.5q91 0 141 -31v17h100v-558q0 -95 -22.5 -150.5t-73 -80.5t-138.5 -25 q-66 0 -106 17.5zM398 163.5q34 35.5 34 111.5v200q0 65 -141 65q-55 0 -85 -15.5t-42.5 -52t-12.5 -102.5q0 -95 13 -147t42.5 -73.5t84.5 -21.5q73 0 107 35.5z" />
         <glyph glyph-name="uni0436.loclBGR" d="M250 800h100v-800h-100v800zM145 309l-141 309h105l141 -309l-141 -309h-105zM491 618h105l-141 -309l141 -309h-105l-141 309z" />
         <glyph glyph-name="uni0437.loclBGR" d="M159 -175q-50 21 -71.5 70.5t-21.5 139.5h100q0 -54 12.5 -84t41 -42.5t80.5 -12.5t80.5 13t41 43.5t12.5 85.5q0 57 -10.5 89.5t-35.5 48t-69 19.5h-94v92h94q65 5 90 32t25 93q0 49 -12.5 76.5t-41 39.5t-80.5 12q-51 0 -79.5 -12.5t-41 -41.5t-12.5 -81h-101 q0 88 21.5 136.5t71.5 69.5t141 21t141 -20.5t71.5 -67.5t21.5 -132q0 -68 -16.5 -105t-59.5 -66q43 -31 59.5 -75t16.5 -128q0 -91 -21.5 -141t-71.5 -71.5t-141 -21.5t-141 21z" />
         <glyph glyph-name="uni0438.loclBGR" d="M158.5 9.5q-45.5 23.5 -65.5 77t-20 146.5v385h100v-385q0 -63 9.5 -96t33 -46t67.5 -13q63 0 96 11t46 38t13 79v412h100v-618h-100v21q-27 -19 -63.5 -27t-91.5 -8q-79 0 -124.5 23.5z" />
         <glyph glyph-name="uni0439.loclBGR" d="M158.5 9.5q-45.5 23.5 -65.5 77t-20 146.5v385h100v-385q0 -63 9.5 -96t33 -46t67.5 -13q63 0 96 11t46 38t13 79v412h100v-618h-100v21q-27 -19 -63.5 -27t-91.5 -8q-79 0 -124.5 23.5zM179 698q-33 36 -28 125h110q-14 -34 -14 -48q0 -12 11.5 -16.5t40.5 -4.5 q30 0 42 4.5t12 17.5q0 11 -13 47h109q1 -9 1 -25q0 -74 -34.5 -105t-116.5 -31q-87 0 -120 36z" />
         <glyph glyph-name="uni045D.loclBGR" d="M158.5 9.5q-45.5 23.5 -65.5 77t-20 146.5v385h100v-385q0 -63 9.5 -96t33 -46t67.5 -13q63 0 96 11t46 38t13 79v412h100v-618h-100v21q-27 -19 -63.5 -27t-91.5 -8q-79 0 -124.5 23.5zM378 741l-66 -70l-172 149l66 70z" />
         <glyph glyph-name="uni043A.loclBGR" d="M201 0h-100v800h100v-423h14l201 241h121l-233 -285l273 -333h-121l-237 285h-18v-285z" />
         <glyph glyph-name="uni043B.loclBGR" d="M121 0h-101l230 618h100l230 -618h-101l-179 479z" />
         <glyph glyph-name="uni043F.loclBGR" d="M73 0v618h100v-26q58 40 155 40q81 0 126 -23t64.5 -77t19.5 -152v-380h-100v380q0 62 -10 96.5t-33.5 49t-66.5 14.5q-66 0 -98.5 -12t-44.5 -43t-12 -94v-391h-100z" />
         <glyph glyph-name="uni0442.loclBGR" d="M32 0v618h100v-10q22 13 39 18t40 5q38 0 59.5 -13t39.5 -47q25 34 50.5 47t68.5 13q54 0 83.5 -23t42.5 -76t13 -149v-383h-100v383q0 84 -9.5 115.5t-35.5 31.5q-28 0 -43.5 -13t-22.5 -42.5t-7 -83.5v-391h-100v377q0 87 -9.5 120t-35.5 33q-28 0 -43.5 -13 t-22.5 -42.5t-7 -83.5v-391h-100z" />
         <glyph glyph-name="uni0446.loclBGR" d="M518 88h70v-206h-100v118h-70v21q-27 -19 -63.5 -27t-91.5 -8q-79 0 -124.5 23.5t-65.5 77t-20 146.5v385h100v-385q0 -63 9.5 -96t33 -46t67.5 -13q63 0 96 11t46 38t13 79v412h100v-530z" />
         <glyph glyph-name="uni0448.loclBGR" d="M568 618v-618h-100v10q-22 -13 -39 -18t-40 -5q-38 0 -59.5 13t-39.5 47q-25 -34 -50.5 -47t-68.5 -13q-54 0 -83.5 23t-42.5 76t-13 149v383h100v-383q0 -84 9.5 -115.5t35.5 -31.5q28 0 43.5 13t22.5 42.5t7 83.5v391h100v-377q0 -87 9.5 -120t35.5 -33q28 0 43.5 13 t22.5 42.5t7 83.5v391h100z" />
         <glyph glyph-name="uni0449.loclBGR" d="M536 88h64v-206h-100v118h-64v10q-22 -13 -39 -18t-40 -5q-38 0 -59.5 13t-39.5 47q-25 -34 -50.5 -47t-68.5 -13q-54 0 -83.5 23t-42.5 76t-13 149v383h100v-383q0 -84 9.5 -115.5t35.5 -31.5q28 0 43.5 13t22.5 42.5t7 83.5v391h100v-377q0 -87 9.5 -120t35.5 -33 q28 0 43.5 13t22.5 42.5t7 83.5v391h100v-530z" />
         <glyph glyph-name="uni044C.loclBGR" d="M176.5 5.5q-51.5 19.5 -73.5 65t-22 127.5v420h100v-244q26 22 56 30t84 8q93 0 144.5 -19.5t73.5 -65.5t22 -128t-22 -128t-73.5 -65.5t-144.5 -19.5t-144.5 19.5zM405 89q30 11 43 37t13 73t-13 73t-43 37t-84 11t-84 -11t-43 -37.5t-13 -73.5q0 -46 13 -72t43 -37 t84 -11t84 11z" />
         <glyph glyph-name="uni044A.loclBGR" d="M495.5 392.5q51.5 -19.5 73.5 -65.5t22 -128t-22 -128t-73.5 -65.5t-144.5 -19.5t-144.5 19.5t-73.5 65t-22 127.5v328h-100v92h200v-244q26 22 56 30t84 8q93 0 144.5 -19.5zM435 89q30 11 43 37t13 73t-13 73t-43 37t-84 11t-84 -11t-43 -37.5t-13 -73.5q0 -46 13 -72 t43 -37t84 -11t84 11z" />
         <glyph glyph-name="uni044E.loclBGR" d="M512 606q45 -26 64 -87t19 -170v-80q0 -109 -19 -170t-64 -87t-125 -26t-124.5 25.5t-63.5 85t-20 166.5h-69v-263h-100v800h100v-445h69q1 107 20 166.5t63.5 85t124.5 25.5t125 -26zM495 349q0 74 -10 115t-33 58.5t-65 17.5t-65 -17.5t-33 -58.5t-10 -115v-80 q0 -74 10 -115t33 -58.5t65 -17.5t65 17.5t33 58.5t10 115v80z" />
         <glyph glyph-name="uni0431.loclSRB" d="M447 467q50 -24 71.5 -78t21.5 -150q0 -98 -22 -152t-73.5 -77.5t-144.5 -23.5t-144.5 23.5t-73.5 77.5t-22 152q0 92 20 145.5t66 79.5q-35 25 -53.5 57t-18.5 66q0 52 26.5 91.5t75 61.5t111.5 22q67 0 115.5 10.5t61.5 27.5l58 -65q0 -29 -65 -47t-170 -18 q-51 0 -82 -23t-31 -60q0 -33 36 -58.5t97 -36.5q90 -1 140 -25zM384 93q30 15 43 49.5t13 96.5t-13 96.5t-43 49.5t-84 15t-84 -15t-43 -49.5t-13 -96.5t13 -96.5t43 -49.5t84 -15t84 15z" />
         <glyph glyph-name="uni0433.loclSRB" d="M78 618h474v-92h-374v-526h-100v618z" />
         <glyph glyph-name="uni0434.loclSRB" d="M525 92h50v-180h-100v88h-350v-88h-100v180h31q53 29 80.5 85.5t40 135.5t29.5 244l6 61h313v-526zM425 92v434h-120l-8 -67q-13 -117 -23 -179t-27.5 -111.5t-47.5 -76.5h226z" />
         <glyph glyph-name="uni043F.loclSRB" d="M155 0h-100v618h490v-618h-100v526h-290v-526z" />
         <glyph glyph-name="uni0442.loclSRB" d="M593 618v-92h-243v-526h-100v526h-243v92h586z" />
         <glyph glyph-name="uni0448.loclSRB" d="M570 0h-540v618h100v-526h120v526h100v-526h120v526h100v-618z" />
         <glyph glyph-name="Alpha" unicode="Α" d="M576 0h-103l-53 193h-240l-53 -193h-103l223 800h106zM300 631l-95 -346h190z" />
         <glyph glyph-name="Beta" unicode="Β" d="M69 0v800h215q89 0 141 -21t75.5 -66t23.5 -122q0 -65 -15 -100t-53 -60q51 -26 72 -69t21 -127q0 -87 -23 -138t-75 -74t-142 -23h-240zM284 469q59 0 87.5 8.5t40.5 34t12 79.5q0 47 -12 71.5t-41.5 35t-86.5 10.5h-115v-239h115zM309 92q56 0 86 12.5t42 43t12 87.5 q0 62 -12 91.5t-41 40t-87 10.5h-140v-285h140z" />
         <glyph glyph-name="Gamma" unicode="Γ" d="M78 800h474v-92h-374v-708h-100v800z" />
         <glyph glyph-name="uni0394" unicode="Δ" d="M580 0h-560l228 800h104zM300 630l-153 -538h306z" />
         <glyph glyph-name="Epsilon" unicode="Ε" d="M551 800v-92h-374v-239h240v-92h-240v-285h374v-92h-474v800h474z" />
         <glyph glyph-name="Zeta" unicode="Ζ" d="M564 0h-530v70l406 638h-404v92h530v-71l-406 -637h404v-92z" />
         <glyph glyph-name="Eta" unicode="Η" d="M441 469v331h100v-800h-100v377h-282v-377h-100v800h100v-331h282z" />
         <glyph glyph-name="Theta" unicode="Θ" d="M146.5 23q-55.5 37 -80 117.5t-24.5 219.5v80q0 139 24.5 219.5t80 117.5t153.5 37t153.5 -37t80 -117.5t24.5 -219.5v-80q0 -139 -24.5 -219.5t-80 -117.5t-153.5 -37t-153.5 37zM395.5 104q33.5 26 48 86t14.5 170v80q0 110 -14.5 170t-48 86t-95.5 26t-96 -26t-48 -86 t-14 -170v-80q0 -109 14.5 -169.5t48.5 -86.5t95 -26q62 0 95.5 26zM408 354h-216v92h216v-92z" />
         <glyph glyph-name="Iota" unicode="Ι" d="M512 800v-92h-162v-616h162v-92h-424v92h162v616h-162v92h424z" />
         <glyph glyph-name="Kappa" unicode="Κ" d="M476 800h124l-295 -344l293 -456h-115l-244 379l-1 -2h-73v-377h-100v800h100v-331h27z" />
         <glyph glyph-name="Lambda" unicode="Λ" d="M121 0h-101l230 800h100l230 -800h-101l-179 624z" />
         <glyph glyph-name="Mu" unicode="Μ" d="M135 0h-100l14 800h94l157 -396l157 396h94l14 -800h-100l-10 542l-112 -303h-86l-112 303z" />
         <glyph glyph-name="Nu" unicode="Ν" d="M439 216v584h100v-800h-107l-271 584v-584h-100v800h107z" />
         <glyph glyph-name="Xi" unicode="Ξ" d="M575 708h-550v92h550v-92zM505 354h-410v92h410v-92zM575 0h-550v92h550v-92z" />
         <glyph glyph-name="Omicron" unicode="Ο" d="M146.5 23q-55.5 37 -80 117.5t-24.5 219.5v80q0 139 24.5 219.5t80 117.5t153.5 37t153.5 -37t80 -117.5t24.5 -219.5v-80q0 -139 -24.5 -219.5t-80 -117.5t-153.5 -37t-153.5 37zM395.5 104q33.5 26 48 86t14.5 170v80q0 110 -14.5 170t-48 86t-95.5 26t-96 -26t-48 -86 t-14 -170v-80q0 -109 14.5 -169.5t48.5 -86.5t95 -26q62 0 95.5 26z" />
         <glyph glyph-name="Pi" unicode="Π" d="M155 0h-100v800h490v-800h-100v708h-290v-708z" />
         <glyph glyph-name="Rho" unicode="Ρ" d="M320 800q89 0 141.5 -23t75.5 -74.5t23 -138.5q0 -92 -23 -142.5t-74.5 -72t-142.5 -21.5h-139v-328h-100v800h99l1 1v-1h139zM320 420q58 0 87 11t41 41t12 92q0 57 -12 88t-42 43.5t-86 12.5h-139v-288h139z" />
         <glyph glyph-name="Sigma" unicode="Σ" d="M575 0h-540v76l236 324l-236 324v76h540v-92h-400l224 -308l-224 -308h400v-92z" />
         <glyph glyph-name="Tau" unicode="Τ" d="M593 800v-92h-243v-708h-100v708h-243v92h586z" />
         <glyph glyph-name="Upsilon" unicode="Υ" d="M350 0h-100v293l-246 507h109l187 -382l187 382h109l-246 -507v-293z" />
         <glyph glyph-name="Phi" unicode="Φ" d="M567.5 227.5q-22.5 -63.5 -74 -94.5t-143.5 -37v-96h-100v96q-92 6 -143.5 37t-74 95t-22.5 173t22.5 172.5t74 94.5t143.5 37v95h100v-95q92 -6 143.5 -36.5t74 -94.5t22.5 -173q0 -110 -22.5 -173.5zM350 189q53 6 83.5 28.5t43.5 66.5t13 117q0 72 -13 116t-43.5 66.5 t-83.5 28.5v-423zM123 285q13 -44 43.5 -66.5t83.5 -28.5v421q-53 -6 -83.5 -28.5t-43.5 -66t-13 -115.5t13 -116z" />
         <glyph glyph-name="Chi" unicode="Χ" d="M468 800h111l-223 -400l223 -400h-111l-168 301l-168 -301h-111l224 400l-224 400h111l168 -301z" />
         <glyph glyph-name="Psi" unicode="Ψ" d="M485 800h100v-275q0 -110 -22 -174.5t-72.5 -95.5t-140.5 -37v-218h-100v218q-90 6 -140.5 37t-72.5 95.5t-22 174.5v275h100v-275q0 -74 12.5 -118t42 -67t80.5 -29v489h100v-489q51 6 80.5 29t42 67t12.5 118v275z" />
         <glyph glyph-name="uni03A9" unicode="Ω" d="M12 0v92h82q-23 42 -33 105t-10 163v80q0 138 24 219t77.5 118t145.5 37q93 0 147 -36.5t78 -117.5t24 -220v-80q0 -99 -9.5 -162.5t-32.5 -105.5h83v-92h-256v94q50 1 73.5 20.5t32.5 74t9 171.5v80q0 109 -14 169.5t-46 86.5t-89 26q-56 0 -87.5 -26t-45.5 -86.5 t-14 -169.5v-80q0 -117 9 -171.5t33 -74t75 -20.5v-94h-256z" />
         <glyph glyph-name="Alphatonos" unicode="Ά" d="M576 0h-103l-53 193h-240l-53 -193h-103l223 800h106zM300 631l-95 -346h190zM212 730l-172 -149l-66 70l172 149z" />
         <glyph glyph-name="Epsilontonos" unicode="Έ" d="M551 800v-92h-374v-239h240v-92h-240v-285h374v-92h-474v800h474zM46 730l-172 -149l-66 70l172 149z" />
         <glyph glyph-name="Etatonos" unicode="Ή" d="M441 469v331h100v-800h-100v377h-282v-377h-100v800h100v-331h282zM28 730l-172 -149l-66 70l172 149z" />
         <glyph glyph-name="Iotatonos" unicode="Ί" d="M512 800v-92h-162v-616h162v-92h-424v92h162v616h-162v92h424zM56 730l-172 -149l-66 70l172 149z" />
         <glyph glyph-name="Omicrontonos" unicode="Ό" d="M146.5 23q-55.5 37 -80 117.5t-24.5 219.5v80q0 139 24.5 219.5t80 117.5t153.5 37t153.5 -37t80 -117.5t24.5 -219.5v-80q0 -139 -24.5 -219.5t-80 -117.5t-153.5 -37t-153.5 37zM395.5 104q33.5 26 48 86t14.5 170v80q0 110 -14.5 170t-48 86t-95.5 26t-96 -26t-48 -86 t-14 -170v-80q0 -109 14.5 -169.5t48.5 -86.5t95 -26q62 0 95.5 26zM90 730l-172 -149l-66 70l172 149z" />
         <glyph glyph-name="Upsilontonos" unicode="Ύ" d="M350 0h-100v293l-246 507h109l187 -382l187 382h109l-246 -507v-293zM-10 730l-172 -149l-66 70l172 149z" />
         <glyph glyph-name="Omegatonos" unicode="Ώ" d="M12 0v92h82q-23 42 -33 105t-10 163v80q0 138 24 219t77.5 118t145.5 37q93 0 147 -36.5t78 -117.5t24 -220v-80q0 -99 -9.5 -162.5t-32.5 -105.5h83v-92h-256v94q50 1 73.5 20.5t32.5 74t9 171.5v80q0 109 -14 169.5t-46 86.5t-89 26q-56 0 -87.5 -26t-45.5 -86.5 t-14 -169.5v-80q0 -117 9 -171.5t33 -74t75 -20.5v-94h-256zM90 730l-172 -149l-66 70l172 149z" />
         <glyph glyph-name="Iotadieresis" unicode="Ϊ" d="M512 800v-92h-162v-616h162v-92h-424v92h162v616h-162v92h424zM131 908.5q-19 17.5 -19 57.5q0 38 19 55.5t61 17.5t61 -17.5t19 -55.5q0 -40 -19 -57.5t-61 -17.5t-61 17.5zM347 908.5q-19 17.5 -19 57.5q0 38 19 55.5t61 17.5t61 -17.5t19 -55.5q0 -40 -19 -57.5 t-61 -17.5t-61 17.5z" />
         <glyph glyph-name="Upsilondieresis" unicode="Ϋ" d="M350 0h-100v293l-246 507h109l187 -382l187 382h109l-246 -507v-293zM131 908.5q-19 17.5 -19 57.5q0 38 19 55.5t61 17.5t61 -17.5t19 -55.5q0 -40 -19 -57.5t-61 -17.5t-61 17.5zM347 908.5q-19 17.5 -19 57.5q0 38 19 55.5t61 17.5t61 -17.5t19 -55.5q0 -40 -19 -57.5 t-61 -17.5t-61 17.5z" />
         <glyph glyph-name="uni03CF" unicode="Ϗ" d="M476 800h124l-295 -344l293 -456l-109 -156h-115l109 156l-244 379l-1 -2h-73v-377h-100v800h100v-331h27z" />
         <glyph glyph-name="alpha" unicode="α" d="M519 139q17 -29 46 -29v-110q-77 0 -121 91q-30 -56 -74.5 -80.5t-109.5 -24.5q-79 0 -124.5 31t-65 98.5t-19.5 182.5q0 122 22 195t69.5 106t127.5 33q61 0 99.5 -32t61.5 -89q4 64 5 107h100q-14 -261 -45 -396q11 -54 28 -83zM345 116q34 38 55 128l-11 57 q-15 81 -27.5 128.5t-35 79t-58.5 31.5q-43 0 -68 -22.5t-37 -75t-12 -144.5q0 -86 10 -133t33.5 -67t65.5 -20q51 0 85 38z" />
         <glyph glyph-name="beta" unicode="β" d="M544 383.5q30 -51.5 30 -147.5q0 -102 -23.5 -161t-76 -85.5t-144.5 -26.5q-111 0 -174 54v-187h-100v792q0 80 21.5 127t70 67.5t132.5 20.5t132.5 -20.5t70 -67.5t21.5 -127q0 -60 -14.5 -97t-48.5 -64q73 -26 103 -77.5zM418.5 70.5q30.5 15.5 43 54t12.5 111.5 q0 64 -15.5 98.5t-52.5 51t-107 21.5h-44v92h44q43 4 65 15.5t31 36t9 71.5q0 50 -10.5 76t-36.5 36.5t-77 10.5t-77 -10.5t-36.5 -36.5t-10.5 -76v-375q0 -78 15 -118.5t51.5 -57t107.5 -16.5q58 0 88.5 15.5z" />
         <glyph glyph-name="gamma" unicode="γ" d="M519 260q-46 -103 -158 -260v-182h-100v182l-240 618h105l196 -505q77 111 110 191t33 139q0 49 -14 86.5t-52 88.5h119q27 -45 37 -82.5t10 -92.5q0 -80 -46 -183z" />
         <glyph glyph-name="delta" unicode="δ" d="M529 393.5q11 -51.5 11 -124.5q0 -104 -23 -165t-75 -89.5t-142 -28.5t-142 28.5t-75 89.5t-23 165q0 133 39 198t133 80q-51 28 -78 58.5t-27 77.5q0 61 48.5 96t127.5 35q52 0 106 -11t84 -29l-35 -82q-37 13 -81.5 21.5t-73.5 8.5q-36 0 -56 -10t-20 -29 q0 -11 15.5 -21.5t51.5 -27.5q66 -31 116 -66t84 -90q24 -33 35 -84.5zM385 95.5q30 17.5 42.5 58t12.5 115.5v24h-3q1 12 1 35q-3 34 -10 54q-6 17 -15 34q-15 23 -42.5 33.5t-70.5 10.5q-55 0 -85 -17.5t-42.5 -58t-12.5 -115.5t12.5 -115.5t42.5 -58t85 -17.5t85 17.5z " />
         <glyph glyph-name="epsilon" unicode="ε" d="M154.5 2q-52.5 16 -75 53.5t-22.5 104.5q0 59 16 92t59 61q-43 28 -59 59.5t-16 86.5q0 67 22.5 104t75 53t146.5 16t146 -16t74.5 -54t22.5 -107h-100q0 33 -13 51t-43.5 26t-86.5 8t-86.5 -7.5t-44 -25t-13.5 -48.5q0 -52 27 -73.5t98 -26.5h94v-92h-94q-71 -5 -98 -28 t-27 -79q0 -32 13.5 -49.5t44.5 -25t86 -7.5t86 8.5t44 27.5t13 54h100q0 -70 -22.5 -109t-74.5 -56t-146 -17t-146.5 16z" />
         <glyph glyph-name="zeta" unicode="ζ" d="M198 215q29 -34 71 -53.5t112 -43.5q65 -22 103 -39.5t63.5 -46t25.5 -71.5q0 -38 -27.5 -77.5t-72.5 -65.5l-61 78q22 7 41.5 28t19.5 37q0 15 -24 26.5t-80 29.5q-88 29 -148 57.5t-106 84.5t-46 143q0 116 70.5 222.5t192.5 183.5h-207v92h414v-92q-107 -42 -191 -106 t-131.5 -141.5t-47.5 -158.5q0 -53 29 -87z" />
         <glyph glyph-name="eta" unicode="η" d="M460 603.5q43 -23.5 60.5 -76.5t17.5 -147v-562h-100v562q0 66 -7.5 97.5t-28 44.5t-64.5 13q-58 0 -89.5 -16.5t-43.5 -47.5t-12 -80v-391h-100v463q0 34 -2.5 47t-13 17t-36.5 4v87q83 0 110 -3.5t34.5 -17t7.5 -54.5q15 32 52 58t93 26q79 0 122 -23.5z" />
         <glyph glyph-name="theta" unicode="θ" d="M431 760.5q59 -53.5 93 -148t34 -212.5t-34 -212.5t-93 -148t-131 -53.5t-131 53.5t-93 148t-34 212.5t34 212.5t93 148t131 53.5t131 -53.5zM229 686.5q-34 -35.5 -57 -98.5t-28 -142h312q-5 79 -28 142t-57 98.5t-71 35.5t-71 -35.5zM371 113.5q34 35.5 57 98.5t28 142 h-312q5 -79 28 -142t57 -98.5t71 -35.5t71 35.5z" />
         <glyph glyph-name="iota" unicode="ι" d="M269.5 7q-37.5 21 -53.5 70t-16 137v404h100v-404q0 -52 7 -81.5t23 -42t44 -12.5q19 0 39 11t54 40l56 -85q-43 -33 -75 -45.5t-74 -12.5q-67 0 -104.5 21z" />
         <glyph glyph-name="kappa" unicode="κ" d="M101 0v618h100v-241h14q24 18 42.5 40t44.5 58q35 48 62 76t69.5 47.5t103.5 19.5v-92q-38 0 -67 -15.5t-49 -38t-46 -59.5q-26 -35 -39.5 -51.5t-31.5 -28.5l273 -333h-121l-237 285h-18v-285h-100z" />
         <glyph glyph-name="lambda" unicode="λ" d="M595 92v-92h-75q-68 0 -114 53t-74.5 131t-59.5 199l-163 -383h-104l227 532q-27 85 -57.5 130.5t-74.5 45.5h-55v92h75q68 0 114.5 -55.5t74.5 -135t61 -207.5q28 -106 48 -167t50 -102t72 -41h55z" />
         <glyph glyph-name="uni03BC" unicode="μ" d="M60 -182v800h100v-419q3 -48 14 -74t34.5 -36.5t66.5 -10.5q40 0 77 19t59.5 50.5t22.5 66.5v404h100v-618h-100v40q-30 -26 -71.5 -40t-87.5 -14q-70 0 -115 18v-186h-100z" />
         <glyph glyph-name="nu" unicode="ν" d="M518 618q27 -45 37 -82.5t10 -92.5q0 -80 -46 -183t-158 -260h-100l-240 618h105l196 -505q77 111 110 191t33 139q0 49 -14 86.5t-52 88.5h119z" />
         <glyph glyph-name="xi" unicode="ξ" d="M200 222.5q31 -14.5 102 -32.5q82 -21 136.5 -43t94.5 -67t40 -119q0 -49 -21.5 -79.5t-78.5 -63.5l-60 77q34 14 47 28.5t13 37.5q0 37 -25 61.5t-61 38.5t-100 32q-71 19 -114.5 36.5t-73.5 50t-30 83.5q0 67 37 111t122 76q-55 18 -79.5 48.5t-24.5 79.5q0 41 20 72.5 t64 57.5h-83v92h388l26 5v-97h-20q-113 -23 -176.5 -42.5t-91 -40t-27.5 -47.5q0 -24 26.5 -37.5t87 -20t168.5 -7.5l33 5v-97h-20q-135 -33 -210 -58t-107.5 -48.5t-32.5 -51.5q0 -26 31 -40.5z" />
         <glyph glyph-name="omicron" unicode="ο" d="M157.5 18q-52.5 32 -75 102t-22.5 189t22.5 189t75 102t142.5 32t142.5 -32t75 -102t22.5 -189t-22.5 -189t-75 -102t-142.5 -32t-142.5 32zM384.5 99q29.5 21 42.5 70.5t13 139.5t-13 139.5t-42.5 70.5t-84.5 21t-84.5 -21t-42.5 -70.5t-13 -139.5t13 -139.5t42.5 -70.5 t84.5 -21t84.5 21z" />
         <glyph glyph-name="pi" unicode="π" d="M574 526h-103v-367q0 -32 7.5 -45.5t28.5 -18t67 -3.5v-91q-9 -1 -26 -1q-177 0 -177 159v367h-155v-526h-100v526h-100v92h558v-92z" />
         <glyph glyph-name="rho" unicode="ρ" d="M442.5 600q52.5 -32 75 -102t22.5 -189t-22.5 -189t-75 -102t-142.5 -32q-78 0 -140 53v-221h-100v490v1q0 119 22.5 189t75 102t142.5 32t142.5 -32zM384.5 99q29.5 21 42.5 70.5t13 139.5t-13 139.5t-42.5 70.5t-84.5 21t-84.5 -21t-42.5 -70.5t-13 -139.5t13 -139.5 t42.5 -70.5t84.5 -21t84.5 21z" />
         <glyph glyph-name="uni03C2" unicode="ς" d="M319 -126q34 44 46.5 67.5t12.5 42.5q0 43 -19 67.5t-47.5 36t-78.5 23.5q-66 16 -106.5 35t-69.5 66.5t-29 133.5q0 111 27.5 172t91 87.5t178.5 26.5q98 0 152.5 -24t78 -80.5t23.5 -157.5h-100q0 66 -14 102.5t-47 52t-93 15.5q-76 0 -118.5 -18t-60.5 -59.5 t-18 -116.5q0 -52 21 -81.5t52.5 -43t84.5 -26.5q63 -16 101 -34t64.5 -60t26.5 -117q0 -37 -17 -72.5t-63 -93.5z" />
         <glyph glyph-name="sigma" unicode="σ" d="M570 632v-92h-71q41 -74 41 -231q0 -119 -22.5 -189t-75 -102t-142.5 -32t-142.5 32t-75 102t-22.5 189t22.5 189t75 102t142.5 32h270zM427 448.5q-13 49.5 -42.5 70.5t-84.5 21t-84.5 -21t-42.5 -70.5t-13 -139.5t13 -139.5t42.5 -70.5t84.5 -21t84.5 21t42.5 70.5 t13 139.5t-13 139.5z" />
         <glyph glyph-name="tau" unicode="τ" d="M553 44q-43 -33 -75 -45.5t-74 -12.5q-67 0 -104.5 21t-53.5 70t-16 137v312h-175v92h464v-92h-189v-312q0 -52 7 -81.5t23 -42t44 -12.5q19 0 39 11t54 40z" />
         <glyph glyph-name="upsilon" unicode="υ" d="M158 19.5q-52 33.5 -75 106.5t-23 198v294h100v-294q0 -95 13 -148t43 -75.5t84 -22.5t84 22.5t43 75.5t13 148q0 77 -8 125t-27.5 85.5t-57.5 83.5h114q45 -60 62 -121.5t17 -172.5q0 -125 -23 -198t-75 -106.5t-142 -33.5t-142 33.5z" />
         <glyph glyph-name="phi" unicode="φ" d="M520.5 130q-19.5 -67 -63 -100.5t-119.5 -41.5q-1 -52 -1 -170h-100v171q-66 8 -104.5 41.5t-55.5 100.5t-17 178q0 86 21.5 155.5t60.5 112t90 50.5v-97q-32 -12 -52 -72.5t-20 -148.5q0 -113 17.5 -163t60.5 -62q4 226 18.5 342t45 161t87.5 45q58 0 90.5 -31.5 t46.5 -101t14 -190.5q0 -112 -19.5 -179zM357.5 433q-14.5 -107 -18.5 -351q39 7 60.5 30.5t31 70t9.5 126.5q0 124 -11 177.5t-34 53.5t-37.5 -107z" />
         <glyph glyph-name="chi" unicode="χ" d="M595 -90v-92h-75q-80 0 -130 72.5t-88 201.5l-140 -274h-111l212 417q-24 95 -44.5 155t-49.5 98t-69 38h-55v92h75q75 0 124 -67t86 -185l128 252h111l-200 -393q28 -108 48 -169.5t50.5 -103.5t72.5 -42h55z" />
         <glyph glyph-name="psi" unicode="ψ" d="M563 168.5q-22 -64.5 -72.5 -95.5t-140.5 -37v-218h-100v218q-90 6 -140.5 37t-72.5 95.5t-22 174.5v175h100v-175q0 -74 12.5 -118t42 -67t80.5 -29v489h100v-489q51 6 80.5 29t42 67t12.5 118q0 66 -8.5 104t-31.5 71h100q23 -33 31.5 -71t8.5 -104q0 -110 -22 -174.5z " />
         <glyph glyph-name="omega" unicode="ω" d="M491 618q35 -47 57 -128t22 -166q0 -131 -14.5 -203.5t-49 -103.5t-96.5 -31q-75 0 -110 48q-35 -48 -110 -48q-62 0 -96.5 31t-49 103.5t-14.5 203.5q0 85 22 166t57 128h118q-44 -51 -70.5 -132t-26.5 -162q0 -95 5.5 -148t18.5 -75.5t36 -22.5q22 0 35 21.5t18.5 71 t6.5 137.5v39h100v-39q1 -88 6.5 -137.5t18.5 -71t35 -21.5q23 0 36 22.5t18.5 75.5t5.5 148q0 81 -26.5 162t-70.5 132h118z" />
         <glyph glyph-name="iotatonos" unicode="ί" d="M269.5 7q-37.5 21 -53.5 70t-16 137v404h100v-404q0 -52 7 -81.5t23 -42t44 -12.5q19 0 39 11t54 40l56 -85q-43 -33 -75 -45.5t-74 -12.5q-67 0 -104.5 21zM368 820l-172 -149l-66 70l172 149z" />
         <glyph glyph-name="iotadieresis" unicode="ϊ" d="M269.5 7q-37.5 21 -53.5 70t-16 137v404h100v-404q0 -52 7 -81.5t23 -42t44 -12.5q19 0 39 11t54 40l56 -85q-43 -33 -75 -45.5t-74 -12.5q-67 0 -104.5 21zM80 723.5q-19 17.5 -19 57.5q0 38 19 55.5t61 17.5t61 -17.5t19 -55.5q0 -40 -19 -57.5t-61 -17.5t-61 17.5z M296 723.5q-19 17.5 -19 57.5q0 38 19 55.5t61 17.5t61 -17.5t19 -55.5q0 -40 -19 -57.5t-61 -17.5t-61 17.5z" />
         <glyph glyph-name="iotadieresistonos" unicode="ΐ" d="M269.5 7q-37.5 21 -53.5 70t-16 137v404h100v-404q0 -52 7 -81.5t23 -42t44 -12.5q19 0 39 11t54 40l56 -85q-43 -33 -75 -45.5t-74 -12.5q-67 0 -104.5 21zM369 870l-172 -149l-66 70l172 149zM-20 723.5q-19 17.5 -19 57.5q0 38 19 55.5t61 17.5t61 -17.5t19 -55.5 q0 -40 -19 -57.5t-61 -17.5t-61 17.5zM396 723.5q-19 17.5 -19 57.5q0 38 19 55.5t61 17.5t61 -17.5t19 -55.5q0 -40 -19 -57.5t-61 -17.5t-61 17.5z" />
         <glyph glyph-name="upsilontonos" unicode="ύ" d="M158 19.5q-52 33.5 -75 106.5t-23 198v294h100v-294q0 -95 13 -148t43 -75.5t84 -22.5t84 22.5t43 75.5t13 148q0 77 -8 125t-27.5 85.5t-57.5 83.5h114q45 -60 62 -121.5t17 -172.5q0 -125 -23 -198t-75 -106.5t-142 -33.5t-142 33.5zM409 820l-172 -149l-66 70l172 149 z" />
         <glyph glyph-name="upsilondieresis" unicode="ϋ" d="M158 19.5q-52 33.5 -75 106.5t-23 198v294h100v-294q0 -95 13 -148t43 -75.5t84 -22.5t84 22.5t43 75.5t13 148q0 77 -8 125t-27.5 85.5t-57.5 83.5h114q45 -60 62 -121.5t17 -172.5q0 -125 -23 -198t-75 -106.5t-142 -33.5t-142 33.5zM121 723.5q-19 17.5 -19 57.5 q0 38 19 55.5t61 17.5t61 -17.5t19 -55.5q0 -40 -19 -57.5t-61 -17.5t-61 17.5zM337 723.5q-19 17.5 -19 57.5q0 38 19 55.5t61 17.5t61 -17.5t19 -55.5q0 -40 -19 -57.5t-61 -17.5t-61 17.5z" />
         <glyph glyph-name="upsilondieresistonos" unicode="ΰ" d="M158 19.5q-52 33.5 -75 106.5t-23 198v294h100v-294q0 -95 13 -148t43 -75.5t84 -22.5t84 22.5t43 75.5t13 148q0 77 -8 125t-27.5 85.5t-57.5 83.5h114q45 -60 62 -121.5t17 -172.5q0 -125 -23 -198t-75 -106.5t-142 -33.5t-142 33.5zM410 870l-172 -149l-66 70l172 149 zM21 723.5q-19 17.5 -19 57.5q0 38 19 55.5t61 17.5t61 -17.5t19 -55.5q0 -40 -19 -57.5t-61 -17.5t-61 17.5zM437 723.5q-19 17.5 -19 57.5q0 38 19 55.5t61 17.5t61 -17.5t19 -55.5q0 -40 -19 -57.5t-61 -17.5t-61 17.5z" />
         <glyph glyph-name="omicrontonos" unicode="ό" d="M157.5 18q-52.5 32 -75 102t-22.5 189t22.5 189t75 102t142.5 32t142.5 -32t75 -102t22.5 -189t-22.5 -189t-75 -102t-142.5 -32t-142.5 32zM384.5 99q29.5 21 42.5 70.5t13 139.5t-13 139.5t-42.5 70.5t-84.5 21t-84.5 -21t-42.5 -70.5t-13 -139.5t13 -139.5t42.5 -70.5 t84.5 -21t84.5 21zM419 820l-172 -149l-66 70l172 149z" />
         <glyph glyph-name="omegatonos" unicode="ώ" d="M491 618q35 -47 57 -128t22 -166q0 -131 -14.5 -203.5t-49 -103.5t-96.5 -31q-75 0 -110 48q-35 -48 -110 -48q-62 0 -96.5 31t-49 103.5t-14.5 203.5q0 85 22 166t57 128h118q-44 -51 -70.5 -132t-26.5 -162q0 -95 5.5 -148t18.5 -75.5t36 -22.5q22 0 35 21.5t18.5 71 t6.5 137.5v39h100v-39q1 -88 6.5 -137.5t18.5 -71t35 -21.5q23 0 36 22.5t18.5 75.5t5.5 148q0 81 -26.5 162t-70.5 132h118zM419 820l-172 -149l-66 70l172 149z" />
         <glyph glyph-name="alphatonos" unicode="ά" d="M519 139q17 -29 46 -29v-110q-77 0 -121 91q-30 -56 -74.5 -80.5t-109.5 -24.5q-79 0 -124.5 31t-65 98.5t-19.5 182.5q0 122 22 195t69.5 106t127.5 33q61 0 99.5 -32t61.5 -89q4 64 5 107h100q-14 -261 -45 -396q11 -54 28 -83zM345 116q34 38 55 128l-11 57 q-15 81 -27.5 128.5t-35 79t-58.5 31.5q-43 0 -68 -22.5t-37 -75t-12 -144.5q0 -86 10 -133t33.5 -67t65.5 -20q51 0 85 38zM419 820l-172 -149l-66 70l172 149z" />
         <glyph glyph-name="epsilontonos" unicode="έ" d="M154.5 2q-52.5 16 -75 53.5t-22.5 104.5q0 59 16 92t59 61q-43 28 -59 59.5t-16 86.5q0 67 22.5 104t75 53t146.5 16t146 -16t74.5 -54t22.5 -107h-100q0 33 -13 51t-43.5 26t-86.5 8t-86.5 -7.5t-44 -25t-13.5 -48.5q0 -52 27 -73.5t98 -26.5h94v-92h-94q-71 -5 -98 -28 t-27 -79q0 -32 13.5 -49.5t44.5 -25t86 -7.5t86 8.5t44 27.5t13 54h100q0 -70 -22.5 -109t-74.5 -56t-146 -17t-146.5 16zM419 820l-172 -149l-66 70l172 149z" />
         <glyph glyph-name="etatonos" unicode="ή" d="M460 603.5q43 -23.5 60.5 -76.5t17.5 -147v-562h-100v562q0 66 -7.5 97.5t-28 44.5t-64.5 13q-58 0 -89.5 -16.5t-43.5 -47.5t-12 -80v-391h-100v463q0 34 -2.5 47t-13 17t-36.5 4v87q83 0 110 -3.5t34.5 -17t7.5 -54.5q15 32 52 58t93 26q79 0 122 -23.5zM419 820 l-172 -149l-66 70l172 149z" />
         <glyph glyph-name="uni03D7" unicode="ϗ" d="M412 289q0 -98 34.5 -149.5t99.5 -51.5q19 0 29 2v-114q0 -77 -34.5 -124.5t-92.5 -47.5q-39 0 -84 14.5t-75 36.5l47 78q30 -16 62 -26.5t50 -10.5q10 0 18.5 23t8.5 57v24q-71 13 -113 83.5t-47 184.5l-59 -37q-5 -121 -34.5 -183t-102.5 -62q-51 0 -78.5 23.5 t-27.5 63.5q0 43 31 96q19 33 113 98q1 26 1 89q0 76 -25.5 124t-66.5 48q-10 0 -25 -5v95q18 2 25 2q56 0 100 -34.5t68 -94.5t24 -135v-22l60 39q6 71 28 160q11 43 45 71t76 28q53 0 83.5 -24.5t30.5 -66.5q0 -30 -18 -68q-19 -38 -57 -73.5t-93 -71.5q-1 -13 -1 -39z M431 458q31 31 38 48q7 15 7 25q0 9 -9 9q-6 0 -14 -10t-11 -22q-8 -34 -11 -50zM140 93.5q8 15.5 12 57.5q-15 -17 -23 -30q-16 -25 -16 -37q0 -6 6 -6q13 0 21 15.5z" />
         <glyph glyph-name="uni2095" unicode="ₕ" d="M122 -59v620h100v-168q26 18 44.5 25t43.5 7q73 0 113.5 -24.5t58 -80.5t17.5 -156v-223h-100v223q0 64 -8 100.5t-27.5 52.5t-53.5 16q-50 0 -69 -24t-19 -85v-283h-100z" />
         <glyph glyph-name="uni2096" unicode="ₖ" d="M241 -59h-100v620h100v-323h14l111 141h121l-143 -185l183 -253h-121l-147 205h-18v-205z" />
         <glyph glyph-name="uni2097" unicode="ₗ" d="M282 -43q-33 21 -47.5 70t-14.5 137v305h-73v92h173v-397q0 -78 12 -107t44 -29q13 0 31 11t52 40l56 -85q-43 -33 -72.5 -45.5t-66.5 -12.5q-61 0 -94 21z" />
         <glyph glyph-name="uni2098" unicode="ₘ" d="M61 -59v479h100v-18q24 13 35.5 18t19.5 5q36 0 56 -13t38 -47q25 34 45.5 47t49.5 13q52 0 80.5 -22t41 -72.5t12.5 -141.5v-248h-100v248q0 77 -8.5 106t-31.5 29q-28 0 -38.5 -27t-10.5 -100v-256h-100v242q0 80 -8.5 110.5t-31.5 30.5q-28 0 -38.5 -27t-10.5 -100 v-256h-100z" />
         <glyph glyph-name="uni2099" unicode="ₙ" d="M113 -59v479h100v-35q34 23 57.5 31.5t51.5 8.5q65 0 101 -22.5t51.5 -75t15.5 -146.5v-240h-100v240q0 59 -6 91.5t-21 46.5t-41 14q-42 0 -65.5 -13t-33.5 -43t-10 -85v-251h-100z" />
         <glyph glyph-name="uni209A" unicode="ₚ" d="M116 -212v632h100v-19q21 14 40.5 19t50.5 5q73 0 113.5 -22.5t58 -74.5t17.5 -146q0 -95 -17.5 -148t-58 -75.5t-113.5 -22.5q-31 0 -50 6t-41 23v-177h-100zM361 42q19 14 27 47t8 93q0 59 -8 91t-27 46t-54 14q-52 0 -71.5 -14t-19.5 -51v-111q0 -50 8.5 -77.5 t28 -39.5t54.5 -12t54 14z" />
         <glyph glyph-name="uni209B" unicode="ₛ" d="M181 -43q-37 21 -66 77l79 65q17 -40 36.5 -55.5t54.5 -15.5q63 0 86.5 10.5t23.5 38.5q0 17 -20 30.5t-73 30.5q-67 21 -104 42t-53 46.5t-16 62.5q0 52 18 81.5t60 42t118 12.5q64 0 99.5 -19.5t67.5 -70.5l-73 -71q-22 39 -42.5 54t-51.5 15q-55 0 -75.5 -9.5 t-20.5 -34.5q0 -20 17 -32t62 -25q72 -21 112 -42t57.5 -47.5t17.5 -65.5q0 -55 -19.5 -85t-64.5 -43t-126 -13q-67 0 -104 21z" />
         <glyph glyph-name="uni209C" unicode="ₜ" d="M391 42q13 14 25 52l94 -41q-23 -66 -56 -91.5t-98 -25.5q-61 0 -94 21t-47.5 70t-14.5 137v156h-86v100h86v141h100v-141h116v-100h-116v-156q0 -78 12 -107t44 -29q22 0 35 14z" />
         <glyph glyph-name="zero" unicode="0" d="M169 39.5q-59 53.5 -93 148t-34 212.5t34 212.5t93 148t131 53.5t131 -53.5t93 -148t34 -212.5t-34 -212.5t-93 -148t-131 -53.5t-131 53.5zM377.5 120.5q36.5 42.5 58.5 116.5t22 163t-22 163t-58.5 116.5t-77.5 42.5t-77.5 -42.5t-58.5 -116.5t-22 -163t22 -163 t58.5 -116.5t77.5 -42.5t77.5 42.5zM246 349.5q-21 19.5 -21 50.5q0 30 21 49t54 19t54 -19t21 -49q0 -31 -21 -50.5t-54 -19.5t-54 19.5z" />
         <glyph glyph-name="one" unicode="1" d="M350 92h142v-92h-384v92h142v502q-65 -43 -162 -43v93q161 0 161 156h101v-708z" />
         <glyph glyph-name="two" unicode="2" d="M45 69q0 51 28 95.5t67.5 79.5t109.5 88q68 51 108.5 87t68.5 80.5t28 95.5q0 52 -13.5 78.5t-46 37.5t-96.5 11q-67 0 -100 -13t-44.5 -44t-9.5 -93h-100q-3 91 20 143.5t79 75.5t155 23q96 0 151.5 -21t80 -68t24.5 -130q0 -74 -36 -135.5t-86 -106t-129 -103.5 q-72 -53 -109 -87.5t-47 -70.5h405v-92h-508v69z" />
         <glyph glyph-name="three" unicode="3" d="M152.5 8.5q-52.5 22.5 -74.5 72t-22 136.5h100q0 -58 10.5 -86.5t41 -40.5t92.5 -12q58 0 88.5 12.5t43 43t12.5 86.5q0 64 -11 95.5t-36.5 44.5t-77.5 17h-94v92h94q53 4 78.5 13.5t36 34.5t10.5 77q0 51 -12.5 78t-43 38.5t-88.5 11.5q-64 0 -93.5 -11t-39.5 -38.5 t-10 -85.5h-101q0 87 22 135.5t74.5 70t147.5 21.5q91 0 144 -21.5t76.5 -69.5t23.5 -129q0 -69 -16.5 -105.5t-59.5 -65.5q43 -31 59.5 -75t16.5 -128q0 -86 -23.5 -137t-76.5 -74t-144 -23q-95 0 -147.5 22.5z" />
         <glyph glyph-name="four" unicode="4" d="M484 0h-100v205h-345v75l361 520h84v-503h74v-92h-74v-205zM384 601l-216 -304h216v304z" />
         <glyph glyph-name="five" unicode="5" d="M148 7.5q-54 21.5 -76.5 70.5t-22.5 136h101q0 -57 11 -85t42 -39.5t97 -11.5q65 0 100 15.5t49 53t14 108.5q0 74 -14 111.5t-48.5 52t-100.5 14.5q-37 0 -67.5 -13t-79.5 -49h-84v429h469v-91h-369v-216q27 17 58 24.5t73 7.5q100 0 156.5 -25t81.5 -83t25 -162 q0 -100 -25.5 -158.5t-82 -84.5t-155.5 -26q-98 0 -152 21.5z" />
         <glyph glyph-name="six" unicode="6" d="M151.5 12q-54.5 26 -78.5 82.5t-24 154.5v282q0 106 24 167t78 88.5t149 27.5q90 0 144.5 -19t80 -61.5t25.5 -115.5h-101q0 41 -14 63.5t-46 31.5t-89 9q-60 0 -92 -17t-45.5 -57.5t-13.5 -116.5v-54q27 20 62.5 29t88.5 9q96 0 149.5 -24t77.5 -80.5t24 -160.5 q0 -98 -24 -155t-78.5 -83t-148.5 -26t-148.5 26zM392 93.5q32 15.5 45.5 52t13.5 104.5q0 74 -13 110t-44.5 49.5t-93.5 13.5t-93.5 -13.5t-44.5 -50t-13 -110.5q0 -68 13.5 -104.5t45.5 -51.5t92 -15t92 15.5z" />
         <glyph glyph-name="seven" unicode="7" d="M130 0q42 174 113 330t195 378h-392v92h503v-92q-88 -155 -142 -258t-99 -215t-75 -235h-103z" />
         <glyph glyph-name="eight" unicode="8" d="M147 9.5q-56 23.5 -81 76t-25 141.5q0 83 19.5 126.5t69.5 73.5q-37 28 -51.5 64.5t-14.5 104.5q0 80 23 127.5t74 69t139 21.5t139 -21.5t74 -69t23 -127.5q0 -68 -14.5 -104.5t-51.5 -64.5q50 -30 69.5 -73.5t19.5 -126.5q0 -89 -25 -141.5t-81 -76t-153 -23.5 t-153 23.5zM385 478.5q28 9.5 39.5 36t11.5 81.5q0 50 -11.5 76.5t-40.5 38t-84 11.5t-84 -11.5t-40.5 -38t-11.5 -76.5q0 -55 11.5 -81.5t39.5 -36t85 -9.5t85 9.5zM398 91.5q34 13.5 47.5 45t13.5 90.5q0 65 -13.5 96t-46.5 42.5t-99 11.5t-99 -11.5t-46.5 -42.5 t-13.5 -96q0 -59 13.5 -90.5t47.5 -45t98 -13.5t98 13.5z" />
         <glyph glyph-name="nine" unicode="9" d="M155.5 5q-54.5 19 -80 61.5t-25.5 115.5h101q0 -41 14 -63.5t46 -31.5t89 -9q60 0 92 17t45.5 57.5t13.5 116.5v54q-27 -20 -62.5 -29t-88.5 -9q-96 0 -149.5 24t-77.5 80.5t-24 160.5q0 98 24 155t78.5 83t148.5 26t148.5 -26t78.5 -82.5t24 -154.5v-282 q0 -106 -24 -167t-78 -88.5t-149 -27.5q-90 0 -144.5 19zM393.5 390.5q31.5 13.5 44.5 50t13 110.5q0 68 -13.5 104.5t-45.5 51.5t-92 15t-92 -15.5t-45.5 -52t-13.5 -104.5q0 -74 13 -110t44.5 -49.5t93.5 -13.5t93.5 13.5z" />
         <glyph glyph-name="zero.ss01" d="M431 760.5q59 -53.5 93 -148t34 -212.5t-34 -212.5t-93 -148t-131 -53.5t-131 53.5t-93 148t-34 212.5t34 212.5t93 148t131 53.5t131 -53.5zM222.5 679.5q-36.5 -42.5 -58.5 -116.5t-22 -163q0 -55 10 -112l261 336q-23 46 -52.5 72t-60.5 26q-41 0 -77.5 -42.5z M377.5 120.5q36.5 42.5 58.5 116.5t22 163q0 55 -10 113l-261 -337q23 -46 52.5 -72t60.5 -26q41 0 77.5 42.5z" />
         </font>
</defs>
</svg>
