<?xml version="1.0" encoding="UTF-8"?>
<!DOCTYPE svg PUBLIC "-//W3C//DTD SVG 1.1//EN" "http://www.w3.org/Graphics/SVG/1.1/DTD/svg11.dtd">
<svg xmlns="http://www.w3.org/2000/svg" xmlns:xlink="http://www.w3.org/1999/xlink" version="1.1">
   <metadata>Created by FontForge 20170812 at Tue Nov  3 11:52:41 2020
 By www-data
Copyright (c) 2019 by Rune Bjrneras. All rights reserved.</metadata>
   <defs>
      <font id="VictorMono-Italic" horiz-adv-x="600">
         <font-face font-family="Victor Mono" font-weight="400" font-style="italic" font-stretch="normal" units-per-em="1100" panose-1="0 0 5 9 0 0 0 0 0 0" ascent="880" descent="-220" x-height="618" cap-height="800" bbox="-1795 -529 856 1306" underline-thickness="50" underline-position="-100" slope="-12" unicode-range="U+0020-E0B3" />
         <missing-glyph d="M356 0h-354l173 814h354zM231 751l-146 -688h216l146 688h-216z" />
         <glyph glyph-name=".notdef" d="M356 0h-354l173 814h354zM231 751l-146 -688h216l146 688h-216z" />
         <glyph glyph-name=".null" horiz-adv-x="228" />
         <glyph glyph-name="nonmarkingreturn" />
         <glyph glyph-name="space" unicode=" " />
         <glyph glyph-name="A" unicode="A" d="M494 0h-70l-13 207h-263l-101 -207h-73l392 800h75zM382 689l-203 -418h228z" />
         <glyph glyph-name="Aacute" unicode="Á" d="M494 0h-70l-13 207h-263l-101 -207h-73l392 800h75zM382 689l-203 -418h228zM583 996l-174 -130l-37 48l175 130z" />
         <glyph glyph-name="Abreve" unicode="Ă" d="M494 0h-70l-13 207h-263l-101 -207h-73l392 800h75zM382 689l-203 -418h228zM336 899.5q-28 18.5 -28 60.5q0 20 8 54h68q-6 -24 -6 -38q0 -18 11 -24.5t39 -6.5q44 0 62 14.5t26 54.5h67q-9 -52 -26.5 -80.5t-48 -40.5t-82.5 -12q-62 0 -90 18.5z" />
         <glyph glyph-name="uni1EAE" unicode="Ắ" d="M494 0h-70l-13 207h-263l-101 -207h-73l392 800h75zM382 689l-203 -418h228zM578 1039l-153 -114l-37 48l153 115zM323 842q-28 16 -28 55q0 23 7 50h68q-4 -16 -4 -29q0 -16 11 -22t39 -6q43 0 61 13t25 44h67q-9 -49 -25.5 -75t-46.5 -36t-83 -10q-63 0 -91 16z" />
         <glyph glyph-name="uni1EB6" unicode="Ặ" d="M494 0h-70l-13 207h-263l-101 -207h-73l392 800h75zM382 689l-203 -418h228zM147.5 -219.5q-13.5 8.5 -13.5 29.5q0 11 3 26q7 31 22 43t48 12q31 0 44.5 -9t13.5 -30q0 -10 -3 -25q-7 -31 -22 -43t-48 -12q-31 0 -44.5 8.5zM336 899.5q-28 18.5 -28 60.5q0 20 8 54h68 q-6 -24 -6 -38q0 -18 11 -24.5t39 -6.5q44 0 62 14.5t26 54.5h67q-9 -52 -26.5 -80.5t-48 -40.5t-82.5 -12q-62 0 -90 18.5z" />
         <glyph glyph-name="uni1EB0" unicode="Ằ" d="M494 0h-70l-13 207h-263l-101 -207h-73l392 800h75zM382 689l-203 -418h228zM494 973l-55 -48l-108 114l53 49zM323 842q-28 16 -28 55q0 23 7 50h68q-4 -16 -4 -29q0 -16 11 -22t39 -6q43 0 61 13t25 44h67q-9 -49 -25.5 -75t-46.5 -36t-83 -10q-63 0 -91 16z" />
         <glyph glyph-name="uni1EB2" unicode="Ẳ" d="M494 0h-70l-13 207h-263l-101 -207h-73l392 800h75zM382 689l-203 -418h228zM582 937q34 7 55 21t25 30l1 5q0 9 -6.5 14t-15.5 5q-21 0 -49 -13.5t-54 -32.5l12 79q20 14 45.5 22t47.5 8q40 0 64.5 -20t24.5 -53q0 -10 -3 -21q-7 -37 -43.5 -66t-93.5 -40zM323 842 q-28 16 -28 55q0 23 7 50h68q-4 -16 -4 -29q0 -16 11 -22t39 -6q43 0 61 13t25 44h67q-9 -50 -25.5 -76t-46.5 -35.5t-83 -9.5q-63 0 -91 16z" />
         <glyph glyph-name="uni1EB4" unicode="Ẵ" d="M494 0h-70l-13 207h-263l-101 -207h-73l392 800h75zM382 689l-203 -418h228zM692.5 965.5q-17.5 12.5 -42.5 37.5q-13 14 -21 20.5t-15 6.5q-33 0 -38 -51h-69q9 53 38 84t70 31q22 0 40.5 -13t40.5 -36q14 -15 22 -21.5t15 -6.5q33 0 37 48h68q-7 -50 -36.5 -81 t-69.5 -31q-22 0 -39.5 12.5zM323 842q-28 16 -28 55q0 23 7 50h68q-4 -16 -4 -29q0 -16 11 -22t39 -6q43 0 60.5 13t25.5 44h67q-9 -50 -25.5 -75.5t-46.5 -35.5t-83 -10q-63 0 -91 16z" />
         <glyph glyph-name="uni01CD" unicode="Ǎ" d="M494 0h-70l-13 207h-263l-101 -207h-73l392 800h75zM382 689l-203 -418h228zM590 991l-171 -129l-118 127l59 42l74 -81l109 83z" />
         <glyph glyph-name="Acircumflex" unicode="Â" d="M494 0h-70l-13 207h-263l-101 -207h-73l392 800h75zM382 689l-203 -418h228zM569 900l-60 -42l-73 83l-109 -81l-45 42l169 127z" />
         <glyph glyph-name="uni1EA4" unicode="Ấ" d="M494 0h-70l-13 207h-263l-101 -207h-73l392 800h75zM382 689l-203 -418h228zM723 1027l-153 -114l-38 48l154 114zM564 875l-60 -41l-73 82l-109 -80l-45 41l169 128z" />
         <glyph glyph-name="uni1EAC" unicode="Ậ" d="M494 0h-70l-13 207h-263l-101 -207h-73l392 800h75zM382 689l-203 -418h228zM147.5 -219.5q-13.5 8.5 -13.5 29.5q0 11 3 26q7 31 22 43t48 12q31 0 44.5 -9t13.5 -30q0 -10 -3 -25q-7 -31 -22 -43t-48 -12q-31 0 -44.5 8.5zM569 900l-60 -42l-73 83l-109 -81l-45 42 l169 127z" />
         <glyph glyph-name="uni1EA6" unicode="Ầ" d="M494 0h-70l-13 207h-263l-101 -207h-73l392 800h75zM382 689l-203 -418h228zM611 906l-99 110l57 44l102 -112zM569 900l-60 -42l-73 83l-109 -81l-45 42l169 127z" />
         <glyph glyph-name="uni1EA8" unicode="Ẩ" d="M494 0h-70l-13 207h-263l-101 -207h-73l392 800h75zM382 689l-203 -418h228zM564 876l-60 -42l-73 83l-109 -81l-45 42l169 127zM582 937q34 7 55.5 20.5t24.5 30.5l1 5q0 9 -6.5 13.5t-15.5 4.5q-21 0 -49 -13t-54 -32l12 79q20 14 45.5 22t47.5 8q40 0 64.5 -20 t24.5 -54q0 -44 -37.5 -78.5t-102.5 -47.5z" />
         <glyph glyph-name="uni1EAA" unicode="Ẫ" d="M494 0h-70l-13 207h-263l-101 -207h-73l392 800h75zM382 689l-203 -418h228zM564 876l-60 -42l-73 83l-109 -81l-45 42l169 127zM694 930.5q-19 13.5 -40 36.5q-14 14 -22 20.5t-15 6.5q-32 0 -37 -51h-69q8 52 37.5 83.5t70.5 31.5q22 0 40 -13t40 -36q16 -16 23.5 -22 t14.5 -6q31 0 37 48h68q-7 -51 -36.5 -81.5t-70.5 -30.5q-22 0 -41 13.5z" />
         <glyph glyph-name="Adieresis" unicode="Ä" d="M494 0h-70l-13 207h-263l-101 -207h-73l392 800h75zM382 689l-203 -418h228zM280.5 917q-14.5 10 -14.5 32q0 11 3 24q6 31 21 42.5t48 11.5q31 0 45.5 -10.5t14.5 -32.5q0 -10 -3 -22q-7 -31 -22 -43t-48 -12q-30 0 -44.5 10zM496.5 917q-14.5 10 -14.5 32q0 11 3 24 q6 31 21 42.5t48 11.5q31 0 45.5 -10.5t14.5 -32.5q0 -10 -3 -22q-7 -31 -22 -43t-48 -12q-30 0 -44.5 10z" />
         <glyph glyph-name="uni1EA0" unicode="Ạ" d="M494 0h-70l-13 207h-263l-101 -207h-73l392 800h75zM382 689l-203 -418h228zM147.5 -219.5q-13.5 8.5 -13.5 29.5q0 11 3 26q7 31 22 43t48 12q31 0 44.5 -9t13.5 -30q0 -10 -3 -25q-7 -31 -22 -43t-48 -12q-31 0 -44.5 8.5z" />
         <glyph glyph-name="Agrave" unicode="À" d="M494 0h-70l-13 207h-263l-101 -207h-73l392 800h75zM382 689l-203 -418h228zM485 914l-54 -48l-124 130l54 48z" />
         <glyph glyph-name="uni1EA2" unicode="Ả" d="M494 0h-70l-13 207h-263l-101 -207h-73l392 800h75zM382 689l-203 -418h228zM383 903q34 7 55.5 20.5t24.5 30.5l1 5q0 9 -6.5 13.5t-15.5 4.5q-21 0 -49 -13t-54 -32l12 79q20 14 45.5 22t47.5 8q40 0 64.5 -20t24.5 -54q0 -44 -37.5 -78.5t-102.5 -47.5z" />
         <glyph glyph-name="Amacron" unicode="Ā" d="M494 0h-70l-13 207h-263l-101 -207h-73l392 800h75zM382 689l-203 -418h228zM572 900h-293l13 64h293z" />
         <glyph glyph-name="Aogonek" unicode="Ą" d="M501 -160q-16 -16 -43 -26t-55 -10q-53 0 -83.5 20.5t-30.5 58.5q0 34 38.5 66.5t96.5 54.5l-13 203h-263l-101 -207h-73l392 800h75l53 -800q-77 -40 -107 -60t-30 -41q0 -15 12 -23.5t34 -8.5q15 0 30 6t26 16zM382 689l-203 -418h228z" />
         <glyph glyph-name="Aring" unicode="Å" d="M530 971.5q28 -18.5 28 -61.5q0 -20 -6 -49q-12 -56 -36 -82t-71 -33l49 -746h-70l-13 207h-263l-101 -207h-73l367 748q-32 7 -46.5 26t-14.5 51q0 25 5 47q15 67 48 92.5t105 25.5q64 0 92 -18.5zM489 898q0 17 -11.5 23t-40.5 6q-41 0 -59 -14t-26 -52q-3 -15 -3 -25 q0 -18 11 -24t39 -6q42 0 60 14t26 52q4 20 4 26zM382 689l-203 -418h228z" />
         <glyph glyph-name="Atilde" unicode="Ã" d="M494 0h-70l-13 207h-263l-101 -207h-73l392 800h75zM382 689l-203 -418h228zM453 894.5q-19 13.5 -40 36.5q-14 14 -22 20.5t-15 6.5q-32 0 -37 -51h-69q8 52 37.5 83.5t70.5 31.5q22 0 40 -13t40 -36q16 -16 23.5 -22t14.5 -6q31 0 37 48h68q-7 -51 -36.5 -81.5 t-70.5 -30.5q-22 0 -41 13.5z" />
         <glyph glyph-name="AE" unicode="Æ" d="M693 800l-13 -63h-219l-71 -328h144l-13 -64h-143l-61 -282h220l-14 -63h-288l54 253h-158l-120 -253h-72l380 800h374zM162 317h141l89 420h-31z" />
         <glyph glyph-name="B" unicode="B" d="M19 0l170 800h196q103 0 148 -30t45 -99q0 -29 -10 -79q-14 -71 -40.5 -106.5t-83.5 -58.5q43 -16 62.5 -43t19.5 -73q0 -40 -11 -88q-18 -86 -48.5 -133.5t-82.5 -68.5t-138 -21h-227zM312 455q62 0 98.5 13t57.5 44.5t34 90.5q7 31 7 56q0 44 -29.5 61t-101.5 17h-133 l-61 -282h128zM254 63q61 0 98 16t60 52.5t37 102.5q10 48 10 73q0 48 -29.5 66t-100.5 18h-158l-70 -328h153z" />
         <glyph glyph-name="C" unicode="C" d="M102.5 31.5q-46.5 45.5 -46.5 151.5q0 85 29 224q34 156 75 243.5t101.5 125.5t154.5 38q66 0 104.5 -17t58.5 -55.5t26 -106.5l-68 -17q-5 54 -17 82t-36.5 39.5t-68.5 11.5q-72 0 -119 -33t-81 -109.5t-63 -213.5q-28 -130 -28 -206t30.5 -108t99.5 -32q47 0 78.5 12.5 t57 41.5t53.5 82l62 -28q-35 -67 -69 -103.5t-77 -52t-106 -15.5q-104 0 -150.5 45.5z" />
         <glyph glyph-name="Cacute" unicode="Ć" d="M102.5 31.5q-46.5 45.5 -46.5 151.5q0 85 29 224q34 156 75 243.5t101.5 125.5t154.5 38q66 0 104.5 -17t58.5 -55.5t26 -106.5l-68 -17q-5 54 -17 82t-36.5 39.5t-68.5 11.5q-72 0 -119 -33t-81 -109.5t-63 -213.5q-28 -130 -28 -206t30.5 -108t99.5 -32q47 0 78.5 12.5 t57 41.5t53.5 82l62 -28q-35 -67 -69 -103.5t-77 -52t-106 -15.5q-104 0 -150.5 45.5zM582 993l-174 -130l-37 48l175 130z" />
         <glyph glyph-name="Ccaron" unicode="Č" d="M102.5 31.5q-46.5 45.5 -46.5 151.5q0 85 29 224q34 156 75 243.5t101.5 125.5t154.5 38q66 0 104.5 -17t58.5 -55.5t26 -106.5l-68 -17q-5 54 -17 82t-36.5 39.5t-68.5 11.5q-72 0 -119 -33t-81 -109.5t-63 -213.5q-28 -130 -28 -206t30.5 -108t99.5 -32q47 0 78.5 12.5 t57 41.5t53.5 82l62 -28q-35 -67 -69 -103.5t-77 -52t-106 -15.5q-104 0 -150.5 45.5zM589 988l-171 -129l-118 127l59 42l74 -81l109 83z" />
         <glyph glyph-name="Ccedilla" unicode="Ç" d="M296 718q-47 -33 -81 -109.5t-63 -213.5q-28 -130 -28 -206t30.5 -108t99.5 -32q47 0 78.5 12.5t57 41.5t53.5 82l62 -28q-34 -65 -67 -101.5t-74.5 -52.5t-101.5 -17l-8 -29q28 -7 44 -25t16 -43q0 -10 -1 -15q-8 -40 -43 -63.5t-85 -23.5q-30 0 -55 10.5t-37 26.5 l35 49q9 -10 25.5 -16.5t33.5 -6.5q22 0 39 10t20 25q2 12 -15.5 18.5t-50.5 6.5l14 80q-72 11 -105.5 57t-33.5 136q0 80 30 224q34 156 75 243.5t101.5 125.5t154.5 38q66 0 104.5 -17t58.5 -55.5t26 -106.5l-68 -17q-5 54 -17 82t-36.5 39.5t-68.5 11.5q-72 0 -119 -33z " />
         <glyph glyph-name="Ccircumflex" unicode="Ĉ" d="M102.5 31.5q-46.5 45.5 -46.5 151.5q0 85 29 224q34 156 75 243.5t101.5 125.5t154.5 38q66 0 104.5 -17t58.5 -55.5t26 -106.5l-68 -17q-5 54 -17 82t-36.5 39.5t-68.5 11.5q-72 0 -119 -33t-81 -109.5t-63 -213.5q-28 -130 -28 -206t30.5 -108t99.5 -32q47 0 78.5 12.5 t57 41.5t53.5 82l62 -28q-35 -67 -69 -103.5t-77 -52t-106 -15.5q-104 0 -150.5 45.5zM568 897l-60 -42l-73 83l-109 -81l-45 42l169 127z" />
         <glyph glyph-name="Cdotaccent" unicode="Ċ" d="M102.5 31.5q-46.5 45.5 -46.5 151.5q0 85 29 224q34 156 75 243.5t101.5 125.5t154.5 38q66 0 104.5 -17t58.5 -55.5t26 -106.5l-68 -17q-5 54 -17 82t-36.5 39.5t-68.5 11.5q-72 0 -119 -33t-81 -109.5t-63 -213.5q-28 -130 -28 -206t30.5 -108t99.5 -32q47 0 78.5 12.5 t57 41.5t53.5 82l62 -28q-35 -67 -69 -103.5t-77 -52t-106 -15.5q-104 0 -150.5 45.5zM389.5 927.5q-13.5 8.5 -13.5 29.5q0 11 3 26q7 31 22 43t48 12q31 0 44.5 -9t13.5 -30q0 -10 -3 -25q-7 -31 -22 -43t-48 -12q-31 0 -44.5 8.5z" />
         <glyph glyph-name="D" unicode="D" d="M414 800q97 0 140.5 -43.5t43.5 -144.5q0 -82 -29 -218q-33 -151 -72.5 -235.5t-97.5 -121.5t-149 -37h-240l170 800h234zM530 605q0 72 -29 102t-94 30h-173l-141 -674h165q65 0 108.5 32t75.5 106t60 205q28 132 28 199z" />
         <glyph glyph-name="Eth" unicode="Ð" d="M417 800q97 0 140.5 -43.5t43.5 -144.5q0 -82 -29 -218q-33 -151 -72.5 -235.5t-97.5 -121.5t-149 -37h-240l83 391h-52l13 64h53l73 345h234zM533 605q0 72 -29 102t-94 30h-173l-59 -282h144l-12 -64h-145l-69 -328h165q65 0 108.5 32t75.5 106t60 205q28 132 28 199z " />
         <glyph glyph-name="Dcaron" unicode="Ď" d="M414 800q97 0 140.5 -43.5t43.5 -144.5q0 -82 -29 -218q-33 -151 -72.5 -235.5t-97.5 -121.5t-149 -37h-240l170 800h234zM530 605q0 72 -29 102t-94 30h-173l-141 -674h165q65 0 108.5 32t75.5 106t60 205q28 132 28 199zM589 988l-171 -129l-118 127l59 42l74 -81 l109 83z" />
         <glyph glyph-name="Dcroat" unicode="Đ" d="M417 800q97 0 140.5 -43.5t43.5 -144.5q0 -82 -29 -218q-33 -151 -72.5 -235.5t-97.5 -121.5t-149 -37h-240l83 391h-52l13 64h53l73 345h234zM533 605q0 72 -29 102t-94 30h-173l-59 -282h144l-12 -64h-145l-69 -328h165q65 0 108.5 32t75.5 106t60 205q28 132 28 199z " />
         <glyph glyph-name="E" unicode="E" d="M640 800l-13 -63h-375l-59 -282h239l-13 -64h-241l-68 -328h373l-13 -63h-443l170 800h443z" />
         <glyph glyph-name="Eacute" unicode="É" d="M640 800l-13 -63h-375l-59 -282h239l-13 -64h-241l-68 -328h373l-13 -63h-443l170 800h443zM597 996l-174 -130l-37 48l175 130z" />
         <glyph glyph-name="Ecaron" unicode="Ě" d="M640 800l-13 -63h-375l-59 -282h239l-13 -64h-241l-68 -328h373l-13 -63h-443l170 800h443zM604 991l-171 -129l-118 127l59 42l74 -81l109 83z" />
         <glyph glyph-name="Ecircumflex" unicode="Ê" d="M640 800l-13 -63h-375l-59 -282h239l-13 -64h-241l-68 -328h373l-13 -63h-443l170 800h443zM583 900l-60 -42l-73 83l-109 -81l-45 42l169 127z" />
         <glyph glyph-name="uni1EBE" unicode="Ế" d="M640 800l-13 -63h-375l-59 -282h239l-13 -64h-241l-68 -328h373l-13 -63h-443l170 800h443zM737 1027l-153 -114l-38 48l154 114zM578 875l-60 -41l-73 82l-109 -80l-45 41l169 128z" />
         <glyph glyph-name="uni1EC6" unicode="Ệ" d="M640 800l-13 -63h-375l-59 -282h239l-13 -64h-241l-68 -328h373l-13 -63h-443l170 800h443zM161.5 -219.5q-13.5 8.5 -13.5 29.5q0 11 3 26q7 31 22 43t48 12q31 0 44.5 -9t13.5 -30q0 -10 -3 -25q-7 -31 -22 -43t-48 -12q-31 0 -44.5 8.5zM583 900l-60 -42l-73 83 l-109 -81l-45 42l169 127z" />
         <glyph glyph-name="uni1EC0" unicode="Ề" d="M640 800l-13 -63h-375l-59 -282h239l-13 -64h-241l-68 -328h373l-13 -63h-443l170 800h443zM625 906l-99 110l57 44l102 -112zM583 900l-60 -42l-73 83l-109 -81l-45 42l169 127z" />
         <glyph glyph-name="uni1EC2" unicode="Ể" d="M640 800l-13 -63h-375l-59 -282h239l-13 -64h-241l-68 -328h373l-13 -63h-443l170 800h443zM578 876l-60 -42l-73 83l-109 -81l-45 42l169 127zM596 937q34 7 55.5 20.5t24.5 30.5l1 5q0 9 -6.5 13.5t-15.5 4.5q-21 0 -49 -13t-54 -32l12 79q20 14 45.5 22t47.5 8 q40 0 64.5 -20t24.5 -54q0 -44 -37.5 -78.5t-102.5 -47.5z" />
         <glyph glyph-name="uni1EC4" unicode="Ễ" d="M640 800l-13 -63h-375l-59 -282h239l-13 -64h-241l-68 -328h373l-13 -63h-443l170 800h443zM578 876l-60 -42l-73 83l-109 -81l-45 42l169 127zM708 930.5q-19 13.5 -40 36.5q-14 14 -22 20.5t-15 6.5q-32 0 -37 -51h-69q8 52 37.5 83.5t70.5 31.5q22 0 40 -13t40 -36 q16 -16 23.5 -22t14.5 -6q31 0 37 48h68q-7 -51 -36.5 -81.5t-70.5 -30.5q-22 0 -41 13.5z" />
         <glyph glyph-name="Edieresis" unicode="Ë" d="M640 800l-13 -63h-375l-59 -282h239l-13 -64h-241l-68 -328h373l-13 -63h-443l170 800h443zM294.5 917q-14.5 10 -14.5 32q0 11 3 24q6 31 21 42.5t48 11.5q31 0 45.5 -10.5t14.5 -32.5q0 -10 -3 -22q-7 -31 -22 -43t-48 -12q-30 0 -44.5 10zM510.5 917 q-14.5 10 -14.5 32q0 11 3 24q6 31 21 42.5t48 11.5q31 0 45.5 -10.5t14.5 -32.5q0 -10 -3 -22q-7 -31 -22 -43t-48 -12q-30 0 -44.5 10z" />
         <glyph glyph-name="Edotaccent" unicode="Ė" d="M640 800l-13 -63h-375l-59 -282h239l-13 -64h-241l-68 -328h373l-13 -63h-443l170 800h443zM404.5 930.5q-13.5 8.5 -13.5 29.5q0 11 3 26q7 31 22 43t48 12q31 0 44.5 -9t13.5 -30q0 -10 -3 -25q-7 -31 -22 -43t-48 -12q-31 0 -44.5 8.5z" />
         <glyph glyph-name="uni1EB8" unicode="Ẹ" d="M640 800l-13 -63h-375l-59 -282h239l-13 -64h-241l-68 -328h373l-13 -63h-443l170 800h443zM161.5 -219.5q-13.5 8.5 -13.5 29.5q0 11 3 26q7 31 22 43t48 12q31 0 44.5 -9t13.5 -30q0 -10 -3 -25q-7 -31 -22 -43t-48 -12q-31 0 -44.5 8.5z" />
         <glyph glyph-name="Egrave" unicode="È" d="M640 800l-13 -63h-375l-59 -282h239l-13 -64h-241l-68 -328h373l-13 -63h-443l170 800h443zM499 914l-54 -48l-124 130l54 48z" />
         <glyph glyph-name="uni1EBA" unicode="Ẻ" d="M640 800l-13 -63h-375l-59 -282h239l-13 -64h-241l-68 -328h373l-13 -63h-443l170 800h443zM397 903q34 7 55.5 20.5t24.5 30.5l1 5q0 9 -6.5 13.5t-15.5 4.5q-21 0 -49 -13t-54 -32l12 79q20 14 45.5 22t47.5 8q40 0 64.5 -20t24.5 -54q0 -44 -37.5 -78.5t-102.5 -47.5z " />
         <glyph glyph-name="Emacron" unicode="Ē" d="M640 800l-13 -63h-375l-59 -282h239l-13 -64h-241l-68 -328h373l-13 -63h-443l170 800h443zM586 900h-293l13 64h293z" />
         <glyph glyph-name="Eogonek" unicode="Ę" d="M627 737h-375l-59 -282h239l-13 -64h-241l-68 -328h373l-13 -63q-77 -40 -107 -60t-30 -41q0 -15 12 -23.5t34 -8.5q15 0 30 6t26 16l42 -49q-16 -16 -43 -26t-55 -10q-53 0 -83.5 20.5t-30.5 58.5q0 32 35 63.5t89 53.5h-362l170 800h443z" />
         <glyph glyph-name="uni1EBC" unicode="Ẽ" d="M640 800l-13 -63h-375l-59 -282h239l-13 -64h-241l-68 -328h373l-13 -63h-443l170 800h443zM467 894.5q-19 13.5 -40 36.5q-14 14 -22 20.5t-15 6.5q-32 0 -37 -51h-69q8 52 37.5 83.5t70.5 31.5q22 0 40 -13t40 -36q16 -16 23.5 -22t14.5 -6q31 0 37 48h68 q-7 -51 -36.5 -81.5t-70.5 -30.5q-22 0 -41 13.5z" />
         <glyph glyph-name="F" unicode="F" d="M641 800l-13 -63h-376l-67 -328h238l-12 -64h-242l-72 -345h-69l170 800h443z" />
         <glyph glyph-name="G" unicode="G" d="M99.5 31q-48.5 45 -48.5 152q0 84 29 223q34 159 75.5 246.5t103.5 124.5t161 37q71 0 112 -18.5t60.5 -61.5t23.5 -118l-67 -11q-3 57 -16 88.5t-39.5 44.5t-74.5 13q-75 0 -124.5 -33t-84 -110t-63.5 -214q-28 -132 -28 -201q0 -78 33 -111t106 -33q66 0 106 26.5 t79 94.5l39 175h-174l12 64h243l-53 -255q-35 -66 -69.5 -102t-77.5 -51t-106 -15q-109 0 -157.5 45z" />
         <glyph glyph-name="Gbreve" unicode="Ğ" d="M99.5 31q-48.5 45 -48.5 152q0 84 29 223q34 159 75.5 246.5t103.5 124.5t161 37q71 0 112 -18.5t60.5 -61.5t23.5 -118l-67 -11q-3 57 -16 88.5t-39.5 44.5t-74.5 13q-75 0 -124.5 -33t-84 -110t-63.5 -214q-28 -132 -28 -201q0 -78 33 -111t106 -33q66 0 106 26.5 t79 94.5l39 175h-174l12 64h243l-53 -255q-35 -66 -69.5 -102t-77.5 -51t-106 -15q-109 0 -157.5 45zM335 896.5q-28 18.5 -28 60.5q0 20 8 54h68q-6 -24 -6 -38q0 -18 11 -24.5t39 -6.5q44 0 62 14.5t26 54.5h67q-9 -52 -26.5 -80.5t-48 -40.5t-82.5 -12q-62 0 -90 18.5z " />
         <glyph glyph-name="Gcircumflex" unicode="Ĝ" d="M99.5 31q-48.5 45 -48.5 152q0 84 29 223q34 159 75.5 246.5t103.5 124.5t161 37q71 0 112 -18.5t60.5 -61.5t23.5 -118l-67 -11q-3 57 -16 88.5t-39.5 44.5t-74.5 13q-75 0 -124.5 -33t-84 -110t-63.5 -214q-28 -132 -28 -201q0 -78 33 -111t106 -33q66 0 106 26.5 t79 94.5l39 175h-174l12 64h243l-53 -255q-35 -66 -69.5 -102t-77.5 -51t-106 -15q-109 0 -157.5 45zM568 897l-60 -42l-73 83l-109 -81l-45 42l169 127z" />
         <glyph glyph-name="uni0122" unicode="Ģ" d="M99.5 31q-48.5 45 -48.5 152q0 84 29 223q34 159 75.5 246.5t103.5 124.5t161 37q71 0 112 -18.5t60.5 -61.5t23.5 -118l-67 -11q-3 57 -16 88.5t-39.5 44.5t-74.5 13q-75 0 -124.5 -33t-84 -110t-63.5 -214q-28 -132 -28 -201q0 -78 33 -111t106 -33q66 0 106 26.5 t79 94.5l39 175h-174l12 64h243l-53 -255q-35 -66 -69.5 -102t-77.5 -51t-106 -15q-109 0 -157.5 45zM199 -122q-19 6 -19 30q0 5 2 17q4 23 15 31.5t36 8.5q24 0 35 -7.5t11 -24.5q0 -12 -2 -19q-6 -26 -37 -71.5t-70 -90.5l-49 2z" />
         <glyph glyph-name="Gdotaccent" unicode="Ġ" d="M99.5 31q-48.5 45 -48.5 152q0 84 29 223q34 159 75.5 246.5t103.5 124.5t161 37q71 0 112 -18.5t60.5 -61.5t23.5 -118l-67 -11q-3 57 -16 88.5t-39.5 44.5t-74.5 13q-75 0 -124.5 -33t-84 -110t-63.5 -214q-28 -132 -28 -201q0 -78 33 -111t106 -33q66 0 106 26.5 t79 94.5l39 175h-174l12 64h243l-53 -255q-35 -66 -69.5 -102t-77.5 -51t-106 -15q-109 0 -157.5 45zM389.5 927.5q-13.5 8.5 -13.5 29.5q0 11 3 26q7 31 22 43t48 12q31 0 44.5 -9t13.5 -30q0 -10 -3 -25q-7 -31 -22 -43t-48 -12q-31 0 -44.5 8.5z" />
         <glyph glyph-name="H" unicode="H" d="M488 455l73 345h69l-170 -800h-69l83 391h-313l-83 -391h-69l170 800h69l-73 -345h313z" />
         <glyph glyph-name="Hbar" unicode="Ħ" d="M591 615h50l-13 -63h-51l-117 -552h-69l83 391h-313l-83 -391h-69l117 552h-50l13 63h51l39 185h69l-39 -185h313l39 185h69zM175 455h313l20 97h-313z" />
         <glyph glyph-name="Hcircumflex" unicode="Ĥ" d="M488 455l73 345h69l-170 -800h-69l83 391h-313l-83 -391h-69l170 800h69l-73 -345h313zM568 897l-60 -42l-73 83l-109 -81l-45 42l169 127z" />
         <glyph glyph-name="I" unicode="I" d="M601 800l-13 -63h-162l-144 -674h162l-13 -63h-393l13 63h162l144 674h-162l13 63h393z" />
         <glyph glyph-name="Iacute" unicode="Í" d="M601 800l-13 -63h-162l-144 -674h162l-13 -63h-393l13 63h162l144 674h-162l13 63h393zM583 996l-174 -130l-37 48l175 130z" />
         <glyph glyph-name="uni01CF" unicode="Ǐ" d="M601 800l-13 -63h-162l-144 -674h162l-13 -63h-393l13 63h162l144 674h-162l13 63h393zM590 991l-171 -129l-118 127l59 42l74 -81l109 83z" />
         <glyph glyph-name="Icircumflex" unicode="Î" d="M601 800l-13 -63h-162l-144 -674h162l-13 -63h-393l13 63h162l144 674h-162l13 63h393zM569 900l-60 -42l-73 83l-109 -81l-45 42l169 127z" />
         <glyph glyph-name="Idieresis" unicode="Ï" d="M601 800l-13 -63h-162l-144 -674h162l-13 -63h-393l13 63h162l144 674h-162l13 63h393zM280.5 917q-14.5 10 -14.5 32q0 11 3 24q6 31 21 42.5t48 11.5q31 0 45.5 -10.5t14.5 -32.5q0 -10 -3 -22q-7 -31 -22 -43t-48 -12q-30 0 -44.5 10zM496.5 917q-14.5 10 -14.5 32 q0 11 3 24q6 31 21 42.5t48 11.5q31 0 45.5 -10.5t14.5 -32.5q0 -10 -3 -22q-7 -31 -22 -43t-48 -12q-30 0 -44.5 10z" />
         <glyph glyph-name="Idotaccent" unicode="İ" d="M601 800l-13 -63h-162l-144 -674h162l-13 -63h-393l13 63h162l144 674h-162l13 63h393zM390.5 930.5q-13.5 8.5 -13.5 29.5q0 11 3 26q7 31 22 43t48 12q31 0 44.5 -9t13.5 -30q0 -10 -3 -25q-7 -31 -22 -43t-48 -12q-31 0 -44.5 8.5z" />
         <glyph glyph-name="uni1ECA" unicode="Ị" d="M601 800l-13 -63h-162l-144 -674h162l-13 -63h-393l13 63h162l144 674h-162l13 63h393zM147.5 -219.5q-13.5 8.5 -13.5 29.5q0 11 3 26q7 31 22 43t48 12q31 0 44.5 -9t13.5 -30q0 -10 -3 -25q-7 -31 -22 -43t-48 -12q-31 0 -44.5 8.5z" />
         <glyph glyph-name="Igrave" unicode="Ì" d="M601 800l-13 -63h-162l-144 -674h162l-13 -63h-393l13 63h162l144 674h-162l13 63h393zM485 914l-54 -48l-124 130l54 48z" />
         <glyph glyph-name="uni1EC8" unicode="Ỉ" d="M601 800l-13 -63h-162l-144 -674h162l-13 -63h-393l13 63h162l144 674h-162l13 63h393zM383 903q34 7 55.5 20.5t24.5 30.5l1 5q0 9 -6.5 13.5t-15.5 4.5q-21 0 -49 -13t-54 -32l12 79q20 14 45.5 22t47.5 8q40 0 64.5 -20t24.5 -54q0 -44 -37.5 -78.5t-102.5 -47.5z" />
         <glyph glyph-name="Imacron" unicode="Ī" d="M601 800l-13 -63h-162l-144 -674h162l-13 -63h-393l13 63h162l144 674h-162l13 63h393zM572 900h-293l13 64h293z" />
         <glyph glyph-name="Iogonek" unicode="Į" d="M588 737h-162l-144 -674h162l-13 -63h-114q-77 -40 -107 -60t-30 -41q0 -15 12 -23.5t34 -8.5q15 0 30 6t26 16l42 -49q-16 -16 -43 -26t-55 -10q-53 0 -83.5 20.5t-30.5 58.5q0 32 35 63.5t89 53.5h-198l13 63h162l144 674h-162l13 63h393z" />
         <glyph glyph-name="Itilde" unicode="Ĩ" d="M601 800l-13 -63h-162l-144 -674h162l-13 -63h-393l13 63h162l144 674h-162l13 63h393zM453 894.5q-19 13.5 -40 36.5q-14 14 -22 20.5t-15 6.5q-32 0 -37 -51h-69q8 52 37.5 83.5t70.5 31.5q22 0 40 -13t40 -36q16 -16 23.5 -22t14.5 -6q31 0 37 48h68 q-7 -51 -36.5 -81.5t-70.5 -30.5q-22 0 -41 13.5z" />
         <glyph glyph-name="J" unicode="J" d="M96 3q-39 17 -58 55t-25 105l66 12q5 -51 17 -77.5t37 -37.5t70 -11q71 0 117 29t78 95.5t57 186.5l81 377h-131l13 63h200l-95 -446q-30 -142 -69 -221t-98.5 -113t-153.5 -34q-67 0 -106 17z" />
         <glyph glyph-name="Jcircumflex" unicode="Ĵ" d="M96 3q-39 17 -58 55t-25 105l66 12q5 -51 17 -77.5t37 -37.5t70 -11q71 0 117 29t78 95.5t57 186.5l81 377h-131l13 63h200l-95 -446q-30 -142 -69 -221t-98.5 -113t-153.5 -34q-67 0 -106 17zM686 897l-60 -42l-73 83l-109 -81l-45 42l169 127z" />
         <glyph glyph-name="K" unicode="K" d="M589 800h87l-375 -359l206 -441h-79l-183 391h-78l-83 -391h-70l171 800h69l-73 -345h47z" />
         <glyph glyph-name="uni0136" unicode="Ķ" d="M589 800h87l-375 -359l206 -441h-79l-183 391h-78l-83 -391h-70l171 800h69l-73 -345h47zM199 -122q-19 6 -19 30q0 5 2 17q4 23 15 31.5t36 8.5q24 0 35 -7.5t11 -24.5q0 -12 -2 -19q-6 -26 -37 -71.5t-70 -90.5l-49 2z" />
         <glyph glyph-name="L" unicode="L" d="M450 0h-404l170 800h69l-157 -737h335z" />
         <glyph glyph-name="Lacute" unicode="Ĺ" d="M450 0h-404l170 800h69l-157 -737h335zM448 993l-174 -130l-37 48l175 130z" />
         <glyph glyph-name="Lcaron" unicode="Ľ" d="M450 0h-404l170 800h69l-157 -737h335zM424 540h-55l47 260h72z" />
         <glyph glyph-name="uni013B" unicode="Ļ" d="M450 0h-404l170 800h69l-157 -737h335zM199 -122q-19 6 -19 30q0 5 2 17q4 23 15 31.5t36 8.5q24 0 35 -7.5t11 -24.5q0 -12 -2 -19q-6 -26 -37 -71.5t-70 -90.5l-49 2z" />
         <glyph glyph-name="Lslash" unicode="Ł" d="M242 458l-84 -395h335l-13 -63h-404l91 430l-106 -40l14 66l106 40l65 304h69l-59 -276l145 54l-13 -66z" />
         <glyph glyph-name="M" unicode="M" d="M54 0h-70l185 800h66l74 -439l263 439h68l-156 -800h-69l122 624l-216 -371h-64l-59 371z" />
         <glyph glyph-name="N" unicode="N" d="M420 146l139 654h69l-170 -800h-73l-166 654l-139 -654h-69l170 800h73z" />
         <glyph glyph-name="Nacute" unicode="Ń" d="M420 146l139 654h69l-170 -800h-73l-166 654l-139 -654h-69l170 800h73zM583 996l-174 -130l-37 48l175 130z" />
         <glyph glyph-name="Ncaron" unicode="Ň" d="M420 146l139 654h69l-170 -800h-73l-166 654l-139 -654h-69l170 800h73zM590 991l-171 -129l-118 127l59 42l74 -81l109 83z" />
         <glyph glyph-name="uni0145" unicode="Ņ" d="M420 146l139 654h69l-170 -800h-73l-166 654l-139 -654h-69l170 800h73zM199 -125q-19 6 -19 30q0 5 2 17q4 23 15 31.5t36 8.5q24 0 35 -7.5t11 -24.5q0 -12 -2 -19q-6 -26 -37 -71.5t-70 -90.5l-49 2z" />
         <glyph glyph-name="Eng" unicode="Ŋ" d="M458 0h-44l44 -3q-15 -67 -36 -101t-57 -46.5t-100 -12.5l8 63q55 0 84 18t29 64q0 12 -1 18l-166 654l-139 -654h-69l170 800h73l166 -654l139 654h69z" />
         <glyph glyph-name="Ntilde" unicode="Ñ" d="M420 146l139 654h69l-170 -800h-73l-166 654l-139 -654h-69l170 800h73zM453 894.5q-19 13.5 -40 36.5q-14 14 -22 20.5t-15 6.5q-32 0 -37 -51h-69q8 52 37.5 83.5t70.5 31.5q22 0 40 -13t40 -36q16 -16 23.5 -22t14.5 -6q31 0 37 48h68q-7 -51 -36.5 -81.5t-70.5 -30.5 q-22 0 -41 13.5z" />
         <glyph glyph-name="O" unicode="O" d="M90 28.5q-46 42.5 -46 141.5q0 71 25 193l17 80q30 142 68.5 222t97 114.5t149.5 34.5q102 0 148 -42.5t46 -141.5q0 -71 -25 -193l-17 -80q-31 -143 -69.5 -222.5t-96.5 -114t-149 -34.5q-102 0 -148 42.5zM352.5 78.5q44.5 29.5 76 97t56.5 187.5l17 80q24 113 24 179 q0 71 -29.5 100t-96.5 29q-69 0 -114 -29.5t-76 -97t-56 -187.5l-17 -80q-24 -112 -24 -178q0 -71 30 -100.5t96 -29.5q69 0 113.5 29.5z" />
         <glyph glyph-name="Oacute" unicode="Ó" d="M90 28.5q-46 42.5 -46 141.5q0 71 25 193l17 80q30 142 68.5 222t97 114.5t149.5 34.5q102 0 148 -42.5t46 -141.5q0 -71 -25 -193l-17 -80q-31 -143 -69.5 -222.5t-96.5 -114t-149 -34.5q-102 0 -148 42.5zM352.5 78.5q44.5 29.5 76 97t56.5 187.5l17 80q24 113 24 179 q0 71 -29.5 100t-96.5 29q-69 0 -114 -29.5t-76 -97t-56 -187.5l-17 -80q-24 -112 -24 -178q0 -71 30 -100.5t96 -29.5q69 0 113.5 29.5zM583 996l-174 -130l-37 48l175 130z" />
         <glyph glyph-name="uni01D1" unicode="Ǒ" d="M90 28.5q-46 42.5 -46 141.5q0 71 25 193l17 80q30 142 68.5 222t97 114.5t149.5 34.5q102 0 148 -42.5t46 -141.5q0 -71 -25 -193l-17 -80q-31 -143 -69.5 -222.5t-96.5 -114t-149 -34.5q-102 0 -148 42.5zM352.5 78.5q44.5 29.5 76 97t56.5 187.5l17 80q24 113 24 179 q0 71 -29.5 100t-96.5 29q-69 0 -114 -29.5t-76 -97t-56 -187.5l-17 -80q-24 -112 -24 -178q0 -71 30 -100.5t96 -29.5q69 0 113.5 29.5zM590 991l-171 -129l-118 127l59 42l74 -81l109 83z" />
         <glyph glyph-name="Ocircumflex" unicode="Ô" d="M90 28.5q-46 42.5 -46 141.5q0 71 25 193l17 80q30 142 68.5 222t97 114.5t149.5 34.5q102 0 148 -42.5t46 -141.5q0 -71 -25 -193l-17 -80q-31 -143 -69.5 -222.5t-96.5 -114t-149 -34.5q-102 0 -148 42.5zM352.5 78.5q44.5 29.5 76 97t56.5 187.5l17 80q24 113 24 179 q0 71 -29.5 100t-96.5 29q-69 0 -114 -29.5t-76 -97t-56 -187.5l-17 -80q-24 -112 -24 -178q0 -71 30 -100.5t96 -29.5q69 0 113.5 29.5zM569 900l-60 -42l-73 83l-109 -81l-45 42l169 127z" />
         <glyph glyph-name="uni1ED0" unicode="Ố" d="M90 28.5q-46 42.5 -46 141.5q0 71 25 193l17 80q30 142 68.5 222t97 114.5t149.5 34.5q102 0 148 -42.5t46 -141.5q0 -71 -25 -193l-17 -80q-31 -143 -69.5 -222.5t-96.5 -114t-149 -34.5q-102 0 -148 42.5zM352.5 78.5q44.5 29.5 76 97t56.5 187.5l17 80q24 113 24 179 q0 71 -29.5 100t-96.5 29q-69 0 -114 -29.5t-76 -97t-56 -187.5l-17 -80q-24 -112 -24 -178q0 -71 30 -100.5t96 -29.5q69 0 113.5 29.5zM723 1027l-153 -114l-38 48l154 114zM564 875l-60 -41l-73 82l-109 -80l-45 41l169 128z" />
         <glyph glyph-name="uni1ED8" unicode="Ộ" d="M90 28.5q-46 42.5 -46 141.5q0 71 25 193l17 80q30 142 68.5 222t97 114.5t149.5 34.5q102 0 148 -42.5t46 -141.5q0 -71 -25 -193l-17 -80q-31 -143 -69.5 -222.5t-96.5 -114t-149 -34.5q-102 0 -148 42.5zM352.5 78.5q44.5 29.5 76 97t56.5 187.5l17 80q24 113 24 179 q0 71 -29.5 100t-96.5 29q-69 0 -114 -29.5t-76 -97t-56 -187.5l-17 -80q-24 -112 -24 -178q0 -71 30 -100.5t96 -29.5q69 0 113.5 29.5zM147.5 -219.5q-13.5 8.5 -13.5 29.5q0 11 3 26q7 31 22 43t48 12q31 0 44.5 -9t13.5 -30q0 -10 -3 -25q-7 -31 -22 -43t-48 -12 q-31 0 -44.5 8.5zM569 900l-60 -42l-73 83l-109 -81l-45 42l169 127z" />
         <glyph glyph-name="uni1ED2" unicode="Ồ" d="M90 28.5q-46 42.5 -46 141.5q0 71 25 193l17 80q30 142 68.5 222t97 114.5t149.5 34.5q102 0 148 -42.5t46 -141.5q0 -71 -25 -193l-17 -80q-31 -143 -69.5 -222.5t-96.5 -114t-149 -34.5q-102 0 -148 42.5zM352.5 78.5q44.5 29.5 76 97t56.5 187.5l17 80q24 113 24 179 q0 71 -29.5 100t-96.5 29q-69 0 -114 -29.5t-76 -97t-56 -187.5l-17 -80q-24 -112 -24 -178q0 -71 30 -100.5t96 -29.5q69 0 113.5 29.5zM611 906l-99 110l57 44l102 -112zM569 900l-60 -42l-73 83l-109 -81l-45 42l169 127z" />
         <glyph glyph-name="uni1ED4" unicode="Ổ" d="M90 28.5q-46 42.5 -46 141.5q0 71 25 193l17 80q30 142 68.5 222t97 114.5t149.5 34.5q102 0 148 -42.5t46 -141.5q0 -71 -25 -193l-17 -80q-31 -143 -69.5 -222.5t-96.5 -114t-149 -34.5q-102 0 -148 42.5zM352.5 78.5q44.5 29.5 76 97t56.5 187.5l17 80q24 113 24 179 q0 71 -29.5 100t-96.5 29q-69 0 -114 -29.5t-76 -97t-56 -187.5l-17 -80q-24 -112 -24 -178q0 -71 30 -100.5t96 -29.5q69 0 113.5 29.5zM564 876l-60 -42l-73 83l-109 -81l-45 42l169 127zM582 937q34 7 55.5 20.5t24.5 30.5l1 5q0 9 -6.5 13.5t-15.5 4.5q-21 0 -49 -13 t-54 -32l12 79q20 14 45.5 22t47.5 8q40 0 64.5 -20t24.5 -54q0 -44 -37.5 -78.5t-102.5 -47.5z" />
         <glyph glyph-name="uni1ED6" unicode="Ỗ" d="M90 28.5q-46 42.5 -46 141.5q0 71 25 193l17 80q30 142 68.5 222t97 114.5t149.5 34.5q102 0 148 -42.5t46 -141.5q0 -71 -25 -193l-17 -80q-31 -143 -69.5 -222.5t-96.5 -114t-149 -34.5q-102 0 -148 42.5zM352.5 78.5q44.5 29.5 76 97t56.5 187.5l17 80q24 113 24 179 q0 71 -29.5 100t-96.5 29q-69 0 -114 -29.5t-76 -97t-56 -187.5l-17 -80q-24 -112 -24 -178q0 -71 30 -100.5t96 -29.5q69 0 113.5 29.5zM564 876l-60 -42l-73 83l-109 -81l-45 42l169 127zM694 930.5q-19 13.5 -40 36.5q-14 14 -22 20.5t-15 6.5q-32 0 -37 -51h-69 q8 52 37.5 83.5t70.5 31.5q22 0 40 -13t40 -36q16 -16 23.5 -22t14.5 -6q31 0 37 48h68q-7 -51 -36.5 -81.5t-70.5 -30.5q-22 0 -41 13.5z" />
         <glyph glyph-name="Odieresis" unicode="Ö" d="M90 28.5q-46 42.5 -46 141.5q0 71 25 193l17 80q30 142 68.5 222t97 114.5t149.5 34.5q102 0 148 -42.5t46 -141.5q0 -71 -25 -193l-17 -80q-31 -143 -69.5 -222.5t-96.5 -114t-149 -34.5q-102 0 -148 42.5zM352.5 78.5q44.5 29.5 76 97t56.5 187.5l17 80q24 113 24 179 q0 71 -29.5 100t-96.5 29q-69 0 -114 -29.5t-76 -97t-56 -187.5l-17 -80q-24 -112 -24 -178q0 -71 30 -100.5t96 -29.5q69 0 113.5 29.5zM280.5 917q-14.5 10 -14.5 32q0 11 3 24q6 31 21 42.5t48 11.5q31 0 45.5 -10.5t14.5 -32.5q0 -10 -3 -22q-7 -31 -22 -43t-48 -12 q-30 0 -44.5 10zM496.5 917q-14.5 10 -14.5 32q0 11 3 24q6 31 21 42.5t48 11.5q31 0 45.5 -10.5t14.5 -32.5q0 -10 -3 -22q-7 -31 -22 -43t-48 -12q-30 0 -44.5 10z" />
         <glyph glyph-name="uni1ECC" unicode="Ọ" d="M90 28.5q-46 42.5 -46 141.5q0 71 25 193l17 80q30 142 68.5 222t97 114.5t149.5 34.5q102 0 148 -42.5t46 -141.5q0 -71 -25 -193l-17 -80q-31 -143 -69.5 -222.5t-96.5 -114t-149 -34.5q-102 0 -148 42.5zM352.5 78.5q44.5 29.5 76 97t56.5 187.5l17 80q24 113 24 179 q0 71 -29.5 100t-96.5 29q-69 0 -114 -29.5t-76 -97t-56 -187.5l-17 -80q-24 -112 -24 -178q0 -71 30 -100.5t96 -29.5q69 0 113.5 29.5zM147.5 -219.5q-13.5 8.5 -13.5 29.5q0 11 3 26q7 31 22 43t48 12q31 0 44.5 -9t13.5 -30q0 -10 -3 -25q-7 -31 -22 -43t-48 -12 q-31 0 -44.5 8.5z" />
         <glyph glyph-name="Ograve" unicode="Ò" d="M90 28.5q-46 42.5 -46 141.5q0 71 25 193l17 80q30 142 68.5 222t97 114.5t149.5 34.5q102 0 148 -42.5t46 -141.5q0 -71 -25 -193l-17 -80q-31 -143 -69.5 -222.5t-96.5 -114t-149 -34.5q-102 0 -148 42.5zM352.5 78.5q44.5 29.5 76 97t56.5 187.5l17 80q24 113 24 179 q0 71 -29.5 100t-96.5 29q-69 0 -114 -29.5t-76 -97t-56 -187.5l-17 -80q-24 -112 -24 -178q0 -71 30 -100.5t96 -29.5q69 0 113.5 29.5zM485 914l-54 -48l-124 130l54 48z" />
         <glyph glyph-name="uni1ECE" unicode="Ỏ" d="M90 28.5q-46 42.5 -46 141.5q0 71 25 193l17 80q30 142 68.5 222t97 114.5t149.5 34.5q102 0 148 -42.5t46 -141.5q0 -71 -25 -193l-17 -80q-31 -143 -69.5 -222.5t-96.5 -114t-149 -34.5q-102 0 -148 42.5zM352.5 78.5q44.5 29.5 76 97t56.5 187.5l17 80q24 113 24 179 q0 71 -29.5 100t-96.5 29q-69 0 -114 -29.5t-76 -97t-56 -187.5l-17 -80q-24 -112 -24 -178q0 -71 30 -100.5t96 -29.5q69 0 113.5 29.5zM383 903q34 7 55.5 20.5t24.5 30.5l1 5q0 9 -6.5 13.5t-15.5 4.5q-21 0 -49 -13t-54 -32l12 79q20 14 45.5 22t47.5 8q40 0 64.5 -20 t24.5 -54q0 -44 -37.5 -78.5t-102.5 -47.5z" />
         <glyph glyph-name="Ohorn" unicode="Ơ" d="M734 911h69l-31 -142q-12 -58 -49.5 -93t-87.5 -35q-21 0 -41 11q4 -82 -24 -215l-17 -80q-31 -143 -69.5 -222.5t-96.5 -114t-149 -34.5q-102 0 -148 42.5t-46 141.5q0 71 25 193l17 80q30 142 68.5 222t97 114.5t149.5 34.5q73 0 117 -21t62 -68q16 -20 53 -20 q26 0 45.5 19.5t26.5 50.5zM502 443q24 113 24 179q0 71 -29.5 100t-96.5 29q-69 0 -114 -29.5t-76 -97t-56 -187.5l-17 -80q-24 -112 -24 -178q0 -71 30 -100.5t96 -29.5q69 0 113.5 29.5t76 97t56.5 187.5z" />
         <glyph glyph-name="uni1EDA" unicode="Ớ" d="M734 911h69l-31 -142q-12 -58 -49.5 -93t-87.5 -35q-21 0 -41 11q4 -82 -24 -215l-17 -80q-31 -143 -69.5 -222.5t-96.5 -114t-149 -34.5q-102 0 -148 42.5t-46 141.5q0 71 25 193l17 80q30 142 68.5 222t97 114.5t149.5 34.5q73 0 117 -21t62 -68q16 -20 53 -20 q26 0 45.5 19.5t26.5 50.5zM502 443q24 113 24 179q0 71 -29.5 100t-96.5 29q-69 0 -114 -29.5t-76 -97t-56 -187.5l-17 -80q-24 -112 -24 -178q0 -71 30 -100.5t96 -29.5q69 0 113.5 29.5t76 97t56.5 187.5zM583 996l-174 -130l-37 48l175 130z" />
         <glyph glyph-name="uni1EE2" unicode="Ợ" d="M734 911h69l-31 -142q-12 -58 -49.5 -93t-87.5 -35q-21 0 -41 11q4 -82 -24 -215l-17 -80q-31 -143 -69.5 -222.5t-96.5 -114t-149 -34.5q-102 0 -148 42.5t-46 141.5q0 71 25 193l17 80q30 142 68.5 222t97 114.5t149.5 34.5q73 0 117 -21t62 -68q16 -20 53 -20 q26 0 45.5 19.5t26.5 50.5zM502 443q24 113 24 179q0 71 -29.5 100t-96.5 29q-69 0 -114 -29.5t-76 -97t-56 -187.5l-17 -80q-24 -112 -24 -178q0 -71 30 -100.5t96 -29.5q69 0 113.5 29.5t76 97t56.5 187.5zM147.5 -219.5q-13.5 8.5 -13.5 29.5q0 11 3 26q7 31 22 43t48 12 q31 0 44.5 -9t13.5 -30q0 -10 -3 -25q-7 -31 -22 -43t-48 -12q-31 0 -44.5 8.5z" />
         <glyph glyph-name="uni1EDC" unicode="Ờ" d="M734 911h69l-31 -142q-12 -58 -49.5 -93t-87.5 -35q-21 0 -41 11q4 -82 -24 -215l-17 -80q-31 -143 -69.5 -222.5t-96.5 -114t-149 -34.5q-102 0 -148 42.5t-46 141.5q0 71 25 193l17 80q30 142 68.5 222t97 114.5t149.5 34.5q73 0 117 -21t62 -68q16 -20 53 -20 q26 0 45.5 19.5t26.5 50.5zM502 443q24 113 24 179q0 71 -29.5 100t-96.5 29q-69 0 -114 -29.5t-76 -97t-56 -187.5l-17 -80q-24 -112 -24 -178q0 -71 30 -100.5t96 -29.5q69 0 113.5 29.5t76 97t56.5 187.5zM485 914l-54 -48l-124 130l54 48z" />
         <glyph glyph-name="uni1EDE" unicode="Ở" d="M734 911h69l-31 -142q-12 -58 -49.5 -93t-87.5 -35q-21 0 -41 11q4 -82 -24 -215l-17 -80q-31 -143 -69.5 -222.5t-96.5 -114t-149 -34.5q-102 0 -148 42.5t-46 141.5q0 71 25 193l17 80q30 142 68.5 222t97 114.5t149.5 34.5q73 0 117 -21t62 -68q16 -20 53 -20 q26 0 45.5 19.5t26.5 50.5zM502 443q24 113 24 179q0 71 -29.5 100t-96.5 29q-69 0 -114 -29.5t-76 -97t-56 -187.5l-17 -80q-24 -112 -24 -178q0 -71 30 -100.5t96 -29.5q69 0 113.5 29.5t76 97t56.5 187.5zM383 903q34 7 55.5 20.5t24.5 30.5l1 5q0 9 -6.5 13.5t-15.5 4.5 q-21 0 -49 -13t-54 -32l12 79q20 14 45.5 22t47.5 8q40 0 64.5 -20t24.5 -54q0 -44 -37.5 -78.5t-102.5 -47.5z" />
         <glyph glyph-name="uni1EE0" unicode="Ỡ" d="M734 911h69l-31 -142q-12 -58 -49.5 -93t-87.5 -35q-21 0 -41 11q4 -82 -24 -215l-17 -80q-31 -143 -69.5 -222.5t-96.5 -114t-149 -34.5q-102 0 -148 42.5t-46 141.5q0 71 25 193l17 80q30 142 68.5 222t97 114.5t149.5 34.5q73 0 117 -21t62 -68q16 -20 53 -20 q26 0 45.5 19.5t26.5 50.5zM502 443q24 113 24 179q0 71 -29.5 100t-96.5 29q-69 0 -114 -29.5t-76 -97t-56 -187.5l-17 -80q-24 -112 -24 -178q0 -71 30 -100.5t96 -29.5q69 0 113.5 29.5t76 97t56.5 187.5zM453 894.5q-19 13.5 -40 36.5q-14 14 -22 20.5t-15 6.5 q-32 0 -37 -51h-69q8 52 37.5 83.5t70.5 31.5q22 0 40 -13t40 -36q16 -16 23.5 -22t14.5 -6q31 0 37 48h68q-7 -51 -36.5 -81.5t-70.5 -30.5q-22 0 -41 13.5z" />
         <glyph glyph-name="Ohungarumlaut" unicode="Ő" d="M90 28.5q-46 42.5 -46 141.5q0 71 25 193l17 80q30 142 68.5 222t97 114.5t149.5 34.5q102 0 148 -42.5t46 -141.5q0 -71 -25 -193l-17 -80q-31 -143 -69.5 -222.5t-96.5 -114t-149 -34.5q-102 0 -148 42.5zM352.5 78.5q44.5 29.5 76 97t56.5 187.5l17 80q24 113 24 179 q0 71 -29.5 100t-96.5 29q-69 0 -114 -29.5t-76 -97t-56 -187.5l-17 -80q-24 -112 -24 -178q0 -71 30 -100.5t96 -29.5q69 0 113.5 29.5zM443 996l-174 -130l-37 48l174 130zM642 996l-174 -130l-37 48l174 130z" />
         <glyph glyph-name="Omacron" unicode="Ō" d="M90 28.5q-46 42.5 -46 141.5q0 71 25 193l17 80q30 142 68.5 222t97 114.5t149.5 34.5q102 0 148 -42.5t46 -141.5q0 -71 -25 -193l-17 -80q-31 -143 -69.5 -222.5t-96.5 -114t-149 -34.5q-102 0 -148 42.5zM352.5 78.5q44.5 29.5 76 97t56.5 187.5l17 80q24 113 24 179 q0 71 -29.5 100t-96.5 29q-69 0 -114 -29.5t-76 -97t-56 -187.5l-17 -80q-24 -112 -24 -178q0 -71 30 -100.5t96 -29.5q69 0 113.5 29.5zM572 900h-293l13 64h293z" />
         <glyph glyph-name="Oslash" unicode="Ø" d="M665 850l-85 -125q15 -37 15 -96q0 -77 -25 -192l-17 -80q-31 -143 -69.5 -222.5t-96.5 -114t-149 -34.5q-92 0 -139 35l-48 -71h-78l86 125q-15 39 -15 96q0 79 25 192l17 80q30 142 68.5 222t97 114.5t149.5 34.5q94 0 139 -35l48 71h77zM137 357q-28 -133 -24 -202 l386 565q-30 31 -99 31t-113.5 -29.5t-76 -97t-56.5 -187.5zM502 443q28 133 24 203l-386 -565q29 -32 99 -32q69 0 113.5 29.5t76 97t56.5 187.5z" />
         <glyph glyph-name="Otilde" unicode="Õ" d="M90 28.5q-46 42.5 -46 141.5q0 71 25 193l17 80q30 142 68.5 222t97 114.5t149.5 34.5q102 0 148 -42.5t46 -141.5q0 -71 -25 -193l-17 -80q-31 -143 -69.5 -222.5t-96.5 -114t-149 -34.5q-102 0 -148 42.5zM352.5 78.5q44.5 29.5 76 97t56.5 187.5l17 80q24 113 24 179 q0 71 -29.5 100t-96.5 29q-69 0 -114 -29.5t-76 -97t-56 -187.5l-17 -80q-24 -112 -24 -178q0 -71 30 -100.5t96 -29.5q69 0 113.5 29.5zM453 894.5q-19 13.5 -40 36.5q-14 14 -22 20.5t-15 6.5q-32 0 -37 -51h-69q8 52 37.5 83.5t70.5 31.5q22 0 40 -13t40 -36 q16 -16 23.5 -22t14.5 -6q31 0 37 48h68q-7 -51 -36.5 -81.5t-70.5 -30.5q-22 0 -41 13.5z" />
         <glyph glyph-name="OE" unicode="Œ" d="M690 737h-223l-57 -282h133l-14 -64h-134v-1q-9 -44 -16 -69l-53 -258h220l-14 -63h-289l5 26q-47 -40 -121 -40q-72 0 -105.5 39t-33.5 128q0 94 34 252q33 157 68.5 245t82.5 126t118 38q42 0 70 -11.5t45 -36.5l7 34h289zM211.5 82q33.5 33 61 109t56.5 214 q36 167 36 244q0 55 -18 78.5t-58 23.5q-46 0 -80 -33.5t-63 -111t-58 -213.5q-34 -165 -34 -238q0 -57 18 -81.5t57 -24.5q49 0 82.5 33z" />
         <glyph glyph-name="P" unicode="P" d="M421 800q101 0 145.5 -32t44.5 -106q0 -41 -12 -95q-18 -87 -48.5 -135t-82.5 -68t-138 -20h-157l-73 -344h-69l170 800h220zM542 649q0 50 -29 69t-99 19h-158l-70 -329h152q61 0 98.5 15t60 51.5t36.5 103.5q9 42 9 71z" />
         <glyph glyph-name="Thorn" unicode="Þ" d="M362 613q102 0 146.5 -30.5t44.5 -103.5q0 -38 -10 -85q-17 -80 -47 -124.5t-82 -63.5t-137 -19h-137l-40 -187h-69l170 800h69l-40 -187h132zM484 468q0 46 -29 63.5t-101 17.5h-137l-64 -298h132q61 0 98 14.5t58.5 47.5t34.5 93q8 40 8 62z" />
         <glyph glyph-name="Q" unicode="Q" d="M554 -108.5q33 11.5 78 36.5q53 29 98 45t115 19l-15 -65q-49 -3 -83 -15.5t-79 -37.5q-51 -28 -92 -42.5t-106 -14.5q-45 0 -83.5 15t-68 36.5t-70.5 55.5l-26 22q-40 -29 -64 -42t-57 -13q-41 0 -63.5 20t-22.5 53q0 16 6 34q12 40 45 60q-22 41 -22 111q0 71 25 193 l17 80q30 143 69 222.5t97.5 114.5t150.5 35q101 0 145.5 -42t44.5 -139q0 -79 -25 -195l-16 -80q-25 -123 -57.5 -198.5t-78 -116t-112.5 -52.5q-13 -3 -23 -9q41 -36 65 -55t56.5 -33t71.5 -14q47 0 80 11.5zM136 358q-23 -113 -23 -176q0 -49 12.5 -77.5t40.5 -41.5 l12 -5q26 -9 63 -9q33 0 60 6l5 2v0q67 18 108 88t71 217l17 80q24 120 24 178q0 72 -30 101.5t-98 29.5q-69 0 -114 -29.5t-76 -96.5t-56 -187zM127 -39.5q10 5.5 20.5 14t15.5 12.5q-13 8 -25 12q-15 5 -24 5q-23 0 -31 -17q-3 -8 -3 -13q0 -8 6.5 -13.5t18.5 -5.5t22 5.5 z" />
         <glyph glyph-name="R" unicode="R" d="M413 800q101 0 145.5 -32t44.5 -106q0 -41 -12 -95q-18 -84 -46.5 -131t-76.5 -68.5t-127 -23.5l155 -344h-78l-156 344h-97l-73 -344h-69l170 800h220zM534 649q0 50 -29 69t-99 19h-157l-70 -329h151q61 0 98.5 15t60 51.5t36.5 103.5q9 42 9 71z" />
         <glyph glyph-name="Racute" unicode="Ŕ" d="M413 800q101 0 145.5 -32t44.5 -106q0 -41 -12 -95q-18 -84 -46.5 -131t-76.5 -68.5t-127 -23.5l155 -344h-78l-156 344h-97l-73 -344h-69l170 800h220zM534 649q0 50 -29 69t-99 19h-157l-70 -329h151q61 0 98.5 15t60 51.5t36.5 103.5q9 42 9 71zM582 993l-174 -130 l-37 48l175 130z" />
         <glyph glyph-name="Rcaron" unicode="Ř" d="M413 800q101 0 145.5 -32t44.5 -106q0 -41 -12 -95q-18 -84 -46.5 -131t-76.5 -68.5t-127 -23.5l155 -344h-78l-156 344h-97l-73 -344h-69l170 800h220zM534 649q0 50 -29 69t-99 19h-157l-70 -329h151q61 0 98.5 15t60 51.5t36.5 103.5q9 42 9 71zM589 988l-171 -129 l-118 127l59 42l74 -81l109 83z" />
         <glyph glyph-name="uni0156" unicode="Ŗ" d="M413 800q101 0 145.5 -32t44.5 -106q0 -41 -12 -95q-18 -84 -46.5 -131t-76.5 -68.5t-127 -23.5l155 -344h-78l-156 344h-97l-73 -344h-69l170 800h220zM534 649q0 50 -29 69t-99 19h-157l-70 -329h151q61 0 98.5 15t60 51.5t36.5 103.5q9 42 9 71zM199 -122 q-19 6 -19 30q0 5 2 17q4 23 15 31.5t36 8.5q24 0 35 -7.5t11 -24.5q0 -12 -2 -19q-6 -26 -37 -71.5t-70 -90.5l-49 2z" />
         <glyph glyph-name="S" unicode="S" d="M125 -2.5q-43 11.5 -68 38t-40 72.5l61 44q8 -42 24.5 -63.5t48 -30.5t88.5 -9q66 0 106 16.5t64 54t38 105.5q5 27 5 44q0 42 -29.5 68.5t-102.5 53.5q-99 34 -140.5 71t-41.5 95q0 24 6 52q17 79 46 123t79 63t132 19q64 0 104 -10t64 -33t39 -63l-57 -47 q-10 37 -25.5 56t-44.5 26.5t-81 7.5q-61 0 -97.5 -14t-58 -47t-33.5 -92q-4 -19 -4 -37q0 -37 27 -60t94 -46q105 -34 149 -73.5t44 -104.5q0 -26 -8 -63q-18 -88 -49.5 -136.5t-85 -70t-140.5 -21.5q-70 0 -113 11.5z" />
         <glyph glyph-name="Sacute" unicode="Ś" d="M125 -2.5q-43 11.5 -68 38t-40 72.5l61 44q8 -42 24.5 -63.5t48 -30.5t88.5 -9q66 0 106 16.5t64 54t38 105.5q5 27 5 44q0 42 -29.5 68.5t-102.5 53.5q-99 34 -140.5 71t-41.5 95q0 24 6 52q17 79 46 123t79 63t132 19q64 0 104 -10t64 -33t39 -63l-57 -47 q-10 37 -25.5 56t-44.5 26.5t-81 7.5q-61 0 -97.5 -14t-58 -47t-33.5 -92q-4 -19 -4 -37q0 -37 27 -60t94 -46q105 -34 149 -73.5t44 -104.5q0 -26 -8 -63q-18 -88 -49.5 -136.5t-85 -70t-140.5 -21.5q-70 0 -113 11.5zM583 996l-174 -130l-37 48l175 130z" />
         <glyph glyph-name="Scaron" unicode="Š" d="M125 -2.5q-43 11.5 -68 38t-40 72.5l61 44q8 -42 24.5 -63.5t48 -30.5t88.5 -9q66 0 106 16.5t64 54t38 105.5q5 27 5 44q0 42 -29.5 68.5t-102.5 53.5q-99 34 -140.5 71t-41.5 95q0 24 6 52q17 79 46 123t79 63t132 19q64 0 104 -10t64 -33t39 -63l-57 -47 q-10 37 -25.5 56t-44.5 26.5t-81 7.5q-61 0 -97.5 -14t-58 -47t-33.5 -92q-4 -19 -4 -37q0 -37 27 -60t94 -46q105 -34 149 -73.5t44 -104.5q0 -26 -8 -63q-18 -88 -49.5 -136.5t-85 -70t-140.5 -21.5q-70 0 -113 11.5zM590 991l-171 -129l-118 127l59 42l74 -81l109 83z " />
         <glyph glyph-name="Scedilla" unicode="Ş" d="M505 804q40 -10 64 -33t39 -63l-57 -47q-10 37 -25.5 56t-44.5 26.5t-81 7.5q-61 0 -97.5 -14t-58 -47t-33.5 -92q-4 -19 -4 -37q0 -37 27 -60t94 -46q105 -34 149 -73.5t44 -104.5q0 -26 -8 -63q-17 -83 -46.5 -131.5t-78 -71t-126.5 -25.5l-8 -29q28 -7 44 -25t16 -43 q0 -10 -1 -15q-8 -40 -43 -63.5t-85 -23.5q-30 0 -55 10.5t-37 26.5l35 49q9 -10 25.5 -16.5t33.5 -6.5q22 0 39 10t20 25q2 12 -15.5 18.5t-50.5 6.5l14 77q-79 5 -118 32t-59 89l61 44q8 -42 24.5 -63.5t48 -30.5t88.5 -9q66 0 106 16.5t64 54t38 105.5q5 27 5 44 q0 42 -29.5 68.5t-102.5 53.5q-99 34 -140.5 71t-41.5 95q0 24 6 52q17 79 46 123t79 63t132 19q64 0 104 -10z" />
         <glyph glyph-name="Scircumflex" unicode="Ŝ" d="M125 -2.5q-43 11.5 -68 38t-40 72.5l61 44q8 -42 24.5 -63.5t48 -30.5t88.5 -9q66 0 106 16.5t64 54t38 105.5q5 27 5 44q0 42 -29.5 68.5t-102.5 53.5q-99 34 -140.5 71t-41.5 95q0 24 6 52q17 79 46 123t79 63t132 19q64 0 104 -10t64 -33t39 -63l-57 -47 q-10 37 -25.5 56t-44.5 26.5t-81 7.5q-61 0 -97.5 -14t-58 -47t-33.5 -92q-4 -19 -4 -37q0 -37 27 -60t94 -46q105 -34 149 -73.5t44 -104.5q0 -26 -8 -63q-18 -88 -49.5 -136.5t-85 -70t-140.5 -21.5q-70 0 -113 11.5zM569 900l-60 -42l-73 83l-109 -81l-45 42l169 127z " />
         <glyph glyph-name="uni0218" unicode="Ș" d="M125 -2.5q-43 11.5 -68 38t-40 72.5l61 44q8 -42 24.5 -63.5t48 -30.5t88.5 -9q66 0 106 16.5t64 54t38 105.5q5 27 5 44q0 42 -29.5 68.5t-102.5 53.5q-99 34 -140.5 71t-41.5 95q0 24 6 52q17 79 46 123t79 63t132 19q64 0 104 -10t64 -33t39 -63l-57 -47 q-10 37 -25.5 56t-44.5 26.5t-81 7.5q-61 0 -97.5 -14t-58 -47t-33.5 -92q-4 -19 -4 -37q0 -37 27 -60t94 -46q105 -34 149 -73.5t44 -104.5q0 -26 -8 -63q-18 -88 -49.5 -136.5t-85 -70t-140.5 -21.5q-70 0 -113 11.5zM199 -122q-19 6 -19 30q0 5 2 17q4 23 15 31.5t36 8.5 q24 0 35 -7.5t11 -24.5q0 -12 -2 -19q-6 -26 -37 -71.5t-70 -90.5l-49 2z" />
         <glyph glyph-name="uni1E9E" unicode="ẞ" d="M420 472q81 -4 117.5 -36.5t36.5 -102.5q0 -42 -14 -109q-20 -96 -50 -147t-79 -71t-133 -20q-88 0 -125.5 23t-37.5 78q0 24 8 61l68 -5q-5 -25 -5 -39q0 -31 21 -43t72 -12q60 0 96.5 16t59.5 56t39 114q11 50 11 82q0 50 -28 71t-93 21h-99l275 328h-195 q-81 0 -142 -49.5t-78 -128.5l-119 -559h-69l120 565q23 111 103 173t198 62h315z" />
         <glyph glyph-name="T" unicode="T" d="M682 800l-13 -63h-243l-157 -737h-69l157 737h-243l13 63h555z" />
         <glyph glyph-name="Tbar" unicode="Ŧ" d="M682 800l-13 -63h-243l-60 -282h153l-14 -64h-153l-83 -391h-69l83 391h-154l14 64h154l60 282h-243l13 63h555z" />
         <glyph glyph-name="Tcaron" unicode="Ť" d="M682 800l-13 -63h-243l-157 -737h-69l157 737h-243l13 63h555zM589 988l-171 -129l-118 127l59 42l74 -81l109 83z" />
         <glyph glyph-name="uni0162" unicode="Ţ" d="M269 0l-12 -43q28 -7 44 -25t16 -43q0 -10 -1 -15q-8 -40 -42.5 -63.5t-84.5 -23.5q-31 0 -56 10.5t-37 26.5l35 49q9 -10 25.5 -16.5t33.5 -6.5q23 0 39.5 10t19.5 25q3 12 -15 18.5t-51 6.5l17 90v2l1 3l156 732h-243l13 63h555l-13 -63h-243z" />
         <glyph glyph-name="uni021A" unicode="Ț" d="M682 800l-13 -63h-243l-157 -737h-69l157 737h-243l13 63h555zM199 -122q-19 6 -19 30q0 5 2 17q4 23 15 31.5t36 8.5q24 0 35 -7.5t11 -24.5q0 -12 -2 -19q-6 -26 -37 -71.5t-70 -90.5l-49 2z" />
         <glyph glyph-name="U" unicode="U" d="M99.5 23q-42.5 37 -42.5 124q0 60 20 154l106 499h69l-107 -505q-19 -92 -19 -138q0 -60 26.5 -84t86.5 -24t99 23.5t65.5 77.5t47.5 151l106 499h69l-107 -505q-25 -118 -59 -184.5t-86.5 -95.5t-135.5 -29q-96 0 -138.5 37z" />
         <glyph glyph-name="Uacute" unicode="Ú" d="M99.5 23q-42.5 37 -42.5 124q0 60 20 154l106 499h69l-107 -505q-19 -92 -19 -138q0 -60 26.5 -84t86.5 -24t99 23.5t65.5 77.5t47.5 151l106 499h69l-107 -505q-25 -118 -59 -184.5t-86.5 -95.5t-135.5 -29q-96 0 -138.5 37zM583 996l-174 -130l-37 48l175 130z" />
         <glyph glyph-name="Ubreve" unicode="Ŭ" d="M99.5 23q-42.5 37 -42.5 124q0 60 20 154l106 499h69l-107 -505q-19 -92 -19 -138q0 -60 26.5 -84t86.5 -24t99 23.5t65.5 77.5t47.5 151l106 499h69l-107 -505q-25 -118 -59 -184.5t-86.5 -95.5t-135.5 -29q-96 0 -138.5 37zM336 899.5q-28 18.5 -28 60.5q0 20 8 54h68 q-6 -24 -6 -38q0 -18 11 -24.5t39 -6.5q44 0 62 14.5t26 54.5h67q-9 -52 -26.5 -80.5t-48 -40.5t-82.5 -12q-62 0 -90 18.5z" />
         <glyph glyph-name="uni01D3" unicode="Ǔ" d="M99.5 23q-42.5 37 -42.5 124q0 60 20 154l106 499h69l-107 -505q-19 -92 -19 -138q0 -60 26.5 -84t86.5 -24t99 23.5t65.5 77.5t47.5 151l106 499h69l-107 -505q-25 -118 -59 -184.5t-86.5 -95.5t-135.5 -29q-96 0 -138.5 37zM590 991l-171 -129l-118 127l59 42l74 -81 l109 83z" />
         <glyph glyph-name="Ucircumflex" unicode="Û" d="M99.5 23q-42.5 37 -42.5 124q0 60 20 154l106 499h69l-107 -505q-19 -92 -19 -138q0 -60 26.5 -84t86.5 -24t99 23.5t65.5 77.5t47.5 151l106 499h69l-107 -505q-25 -118 -59 -184.5t-86.5 -95.5t-135.5 -29q-96 0 -138.5 37zM569 900l-60 -42l-73 83l-109 -81l-45 42 l169 127z" />
         <glyph glyph-name="Udieresis" unicode="Ü" d="M99.5 23q-42.5 37 -42.5 124q0 60 20 154l106 499h69l-107 -505q-19 -92 -19 -138q0 -60 26.5 -84t86.5 -24t99 23.5t65.5 77.5t47.5 151l106 499h69l-107 -505q-25 -118 -59 -184.5t-86.5 -95.5t-135.5 -29q-96 0 -138.5 37zM280.5 917q-14.5 10 -14.5 32q0 11 3 24 q6 31 21 42.5t48 11.5q31 0 45.5 -10.5t14.5 -32.5q0 -10 -3 -22q-7 -31 -22 -43t-48 -12q-30 0 -44.5 10zM496.5 917q-14.5 10 -14.5 32q0 11 3 24q6 31 21 42.5t48 11.5q31 0 45.5 -10.5t14.5 -32.5q0 -10 -3 -22q-7 -31 -22 -43t-48 -12q-30 0 -44.5 10z" />
         <glyph glyph-name="uni01D7" unicode="Ǘ" d="M99.5 23q-42.5 37 -42.5 124q0 60 20 154l106 499h69l-107 -505q-19 -92 -19 -138q0 -60 26.5 -84t86.5 -24t99 23.5t65.5 77.5t47.5 151l106 499h69l-107 -505q-25 -118 -59 -184.5t-86.5 -95.5t-135.5 -29q-96 0 -138.5 37zM262.5 828q-14.5 10 -14.5 32q0 11 3 24 q6 31 21 42.5t48 11.5q31 0 45.5 -10.5t14.5 -32.5q0 -10 -3 -22q-7 -31 -22 -43t-48 -12q-30 0 -44.5 10zM478.5 828q-14.5 10 -14.5 32q0 11 3 24q6 31 21 42.5t48 11.5q31 0 45.5 -10.5t14.5 -32.5q0 -10 -3 -22q-7 -31 -22 -43t-48 -12q-30 0 -44.5 10zM597 1059 l-174 -130l-37 48l175 130z" />
         <glyph glyph-name="uni01D9" unicode="Ǚ" d="M99.5 23q-42.5 37 -42.5 124q0 60 20 154l106 499h69l-107 -505q-19 -92 -19 -138q0 -60 26.5 -84t86.5 -24t99 23.5t65.5 77.5t47.5 151l106 499h69l-107 -505q-25 -118 -59 -184.5t-86.5 -95.5t-135.5 -29q-96 0 -138.5 37zM262.5 828q-14.5 10 -14.5 32q0 11 3 24 q6 31 21 42.5t48 11.5q31 0 45.5 -10.5t14.5 -32.5q0 -10 -3 -22q-7 -31 -22 -43t-48 -12q-30 0 -44.5 10zM478.5 828q-14.5 10 -14.5 32q0 11 3 24q6 31 21 42.5t48 11.5q31 0 45.5 -10.5t14.5 -32.5q0 -10 -3 -22q-7 -31 -22 -43t-48 -12q-30 0 -44.5 10zM607 1068 l-171 -129l-118 127l59 42l74 -81l109 83z" />
         <glyph glyph-name="uni01DB" unicode="Ǜ" d="M99.5 23q-42.5 37 -42.5 124q0 60 20 154l106 499h69l-107 -505q-19 -92 -19 -138q0 -60 26.5 -84t86.5 -24t99 23.5t65.5 77.5t47.5 151l106 499h69l-107 -505q-25 -118 -59 -184.5t-86.5 -95.5t-135.5 -29q-96 0 -138.5 37zM262.5 828q-14.5 10 -14.5 32q0 11 3 24 q6 31 21 42.5t48 11.5q31 0 45.5 -10.5t14.5 -32.5q0 -10 -3 -22q-7 -31 -22 -43t-48 -12q-30 0 -44.5 10zM478.5 828q-14.5 10 -14.5 32q0 11 3 24q6 31 21 42.5t48 11.5q31 0 45.5 -10.5t14.5 -32.5q0 -10 -3 -22q-7 -31 -22 -43t-48 -12q-30 0 -44.5 10zM499 977l-54 -48 l-124 130l54 48z" />
         <glyph glyph-name="uni01D5" unicode="Ǖ" d="M99.5 23q-42.5 37 -42.5 124q0 60 20 154l106 499h69l-107 -505q-19 -92 -19 -138q0 -60 26.5 -84t86.5 -24t99 23.5t65.5 77.5t47.5 151l106 499h69l-107 -505q-25 -118 -59 -184.5t-86.5 -95.5t-135.5 -29q-96 0 -138.5 37zM262.5 828q-14.5 10 -14.5 32q0 11 3 24 q6 31 21 42.5t48 11.5q31 0 45.5 -10.5t14.5 -32.5q0 -10 -3 -22q-7 -31 -22 -43t-48 -12q-30 0 -44.5 10zM478.5 828q-14.5 10 -14.5 32q0 11 3 24q6 31 21 42.5t48 11.5q31 0 45.5 -10.5t14.5 -32.5q0 -10 -3 -22q-7 -31 -22 -43t-48 -12q-30 0 -44.5 10zM599 1026h-293 l13 64h293z" />
         <glyph glyph-name="uni1EE4" unicode="Ụ" d="M99.5 23q-42.5 37 -42.5 124q0 60 20 154l106 499h69l-107 -505q-19 -92 -19 -138q0 -60 26.5 -84t86.5 -24t99 23.5t65.5 77.5t47.5 151l106 499h69l-107 -505q-25 -118 -59 -184.5t-86.5 -95.5t-135.5 -29q-96 0 -138.5 37zM147.5 -219.5q-13.5 8.5 -13.5 29.5 q0 11 3 26q7 31 22 43t48 12q31 0 44.5 -9t13.5 -30q0 -10 -3 -25q-7 -31 -22 -43t-48 -12q-31 0 -44.5 8.5z" />
         <glyph glyph-name="Ugrave" unicode="Ù" d="M99.5 23q-42.5 37 -42.5 124q0 60 20 154l106 499h69l-107 -505q-19 -92 -19 -138q0 -60 26.5 -84t86.5 -24t99 23.5t65.5 77.5t47.5 151l106 499h69l-107 -505q-25 -118 -59 -184.5t-86.5 -95.5t-135.5 -29q-96 0 -138.5 37zM485 914l-54 -48l-124 130l54 48z" />
         <glyph glyph-name="uni1EE6" unicode="Ủ" d="M99.5 23q-42.5 37 -42.5 124q0 60 20 154l106 499h69l-107 -505q-19 -92 -19 -138q0 -60 26.5 -84t86.5 -24t99 23.5t65.5 77.5t47.5 151l106 499h69l-107 -505q-25 -118 -59 -184.5t-86.5 -95.5t-135.5 -29q-96 0 -138.5 37zM383 903q34 7 55.5 20.5t24.5 30.5l1 5 q0 9 -6.5 13.5t-15.5 4.5q-21 0 -49 -13t-54 -32l12 79q20 14 45.5 22t47.5 8q40 0 64.5 -20t24.5 -54q0 -44 -37.5 -78.5t-102.5 -47.5z" />
         <glyph glyph-name="Uhorn" unicode="Ư" d="M746 972h69l-30 -141q-12 -58 -49.5 -93t-87.5 -35q-20 0 -40 10l-89 -418q-25 -118 -59 -184.5t-86.5 -95.5t-135.5 -29q-96 0 -138.5 37t-42.5 124q0 60 20 154l106 499h69l-107 -505q-19 -92 -19 -138q0 -60 26.5 -84t86.5 -24t99 23.5t65.5 77.5t47.5 151l106 499h69 l-6 -30q12 -4 26 -4q25 0 45 19.5t26 50.5z" />
         <glyph glyph-name="uni1EE8" unicode="Ứ" d="M746 972h69l-30 -141q-12 -58 -49.5 -93t-87.5 -35q-20 0 -40 10l-89 -418q-25 -118 -59 -184.5t-86.5 -95.5t-135.5 -29q-96 0 -138.5 37t-42.5 124q0 60 20 154l106 499h69l-107 -505q-19 -92 -19 -138q0 -60 26.5 -84t86.5 -24t99 23.5t65.5 77.5t47.5 151l106 499h69 l-6 -30q12 -4 26 -4q25 0 45 19.5t26 50.5zM583 996l-174 -130l-37 48l175 130z" />
         <glyph glyph-name="uni1EF0" unicode="Ự" d="M746 972h69l-30 -141q-12 -58 -49.5 -93t-87.5 -35q-20 0 -40 10l-89 -418q-25 -118 -59 -184.5t-86.5 -95.5t-135.5 -29q-96 0 -138.5 37t-42.5 124q0 60 20 154l106 499h69l-107 -505q-19 -92 -19 -138q0 -60 26.5 -84t86.5 -24t99 23.5t65.5 77.5t47.5 151l106 499h69 l-6 -30q12 -4 26 -4q25 0 45 19.5t26 50.5zM147.5 -219.5q-13.5 8.5 -13.5 29.5q0 11 3 26q7 31 22 43t48 12q31 0 44.5 -9t13.5 -30q0 -10 -3 -25q-7 -31 -22 -43t-48 -12q-31 0 -44.5 8.5z" />
         <glyph glyph-name="uni1EEA" unicode="Ừ" d="M746 972h69l-30 -141q-12 -58 -49.5 -93t-87.5 -35q-20 0 -40 10l-89 -418q-25 -118 -59 -184.5t-86.5 -95.5t-135.5 -29q-96 0 -138.5 37t-42.5 124q0 60 20 154l106 499h69l-107 -505q-19 -92 -19 -138q0 -60 26.5 -84t86.5 -24t99 23.5t65.5 77.5t47.5 151l106 499h69 l-6 -30q12 -4 26 -4q25 0 45 19.5t26 50.5zM485 914l-54 -48l-124 130l54 48z" />
         <glyph glyph-name="uni1EEC" unicode="Ử" d="M746 972h69l-30 -141q-12 -58 -49.5 -93t-87.5 -35q-20 0 -40 10l-89 -418q-25 -118 -59 -184.5t-86.5 -95.5t-135.5 -29q-96 0 -138.5 37t-42.5 124q0 60 20 154l106 499h69l-107 -505q-19 -92 -19 -138q0 -60 26.5 -84t86.5 -24t99 23.5t65.5 77.5t47.5 151l106 499h69 l-6 -30q12 -4 26 -4q25 0 45 19.5t26 50.5zM383 903q34 7 55.5 20.5t24.5 30.5l1 5q0 9 -6.5 13.5t-15.5 4.5q-21 0 -49 -13t-54 -32l12 79q20 14 45.5 22t47.5 8q40 0 64.5 -20t24.5 -54q0 -44 -37.5 -78.5t-102.5 -47.5z" />
         <glyph glyph-name="uni1EEE" unicode="Ữ" d="M746 972h69l-30 -141q-12 -58 -49.5 -93t-87.5 -35q-20 0 -40 10l-89 -418q-25 -118 -59 -184.5t-86.5 -95.5t-135.5 -29q-96 0 -138.5 37t-42.5 124q0 60 20 154l106 499h69l-107 -505q-19 -92 -19 -138q0 -60 26.5 -84t86.5 -24t99 23.5t65.5 77.5t47.5 151l106 499h69 l-6 -30q12 -4 26 -4q25 0 45 19.5t26 50.5zM453 894.5q-19 13.5 -40 36.5q-14 14 -22 20.5t-15 6.5q-32 0 -37 -51h-69q8 52 37.5 83.5t70.5 31.5q22 0 40 -13t40 -36q16 -16 23.5 -22t14.5 -6q31 0 37 48h68q-7 -51 -36.5 -81.5t-70.5 -30.5q-22 0 -41 13.5z" />
         <glyph glyph-name="Uhungarumlaut" unicode="Ű" d="M99.5 23q-42.5 37 -42.5 124q0 60 20 154l106 499h69l-107 -505q-19 -92 -19 -138q0 -60 26.5 -84t86.5 -24t99 23.5t65.5 77.5t47.5 151l106 499h69l-107 -505q-25 -118 -59 -184.5t-86.5 -95.5t-135.5 -29q-96 0 -138.5 37zM443 996l-174 -130l-37 48l174 130zM642 996 l-174 -130l-37 48l174 130z" />
         <glyph glyph-name="Umacron" unicode="Ū" d="M99.5 23q-42.5 37 -42.5 124q0 60 20 154l106 499h69l-107 -505q-19 -92 -19 -138q0 -60 26.5 -84t86.5 -24t99 23.5t65.5 77.5t47.5 151l106 499h69l-107 -505q-25 -118 -59 -184.5t-86.5 -95.5t-135.5 -29q-96 0 -138.5 37zM572 900h-293l13 64h293z" />
         <glyph glyph-name="Uogonek" unicode="Ų" d="M557 800h69l-107 -505q-21 -100 -48 -162t-66.5 -96t-96.5 -45q-66 -35 -93.5 -53.5t-27.5 -39.5q0 -15 12 -23.5t34 -8.5q15 0 30 6t26 16l42 -49q-16 -16 -43 -26t-55 -10q-53 0 -83.5 20.5t-30.5 58.5q0 27 26 54.5t69 49.5q-83 4 -120 41t-37 119q0 59 20 154 l106 499h69l-107 -505q-19 -92 -19 -138q0 -60 26.5 -84t86.5 -24t99 23.5t65.5 77.5t47.5 151z" />
         <glyph glyph-name="Uring" unicode="Ů" d="M99.5 23q-42.5 37 -42.5 124q0 60 20 154l106 499h69l-107 -505q-19 -92 -19 -138q0 -60 26.5 -84t86.5 -24t99 23.5t65.5 77.5t47.5 151l106 499h69l-107 -505q-25 -118 -59 -184.5t-86.5 -95.5t-135.5 -29q-96 0 -138.5 37zM307 761.5q-27 18.5 -27 63.5q0 25 5 47 q15 67 48 92.5t105 25.5q64 0 92 -18.5t28 -61.5q0 -20 -6 -49q-14 -67 -47.5 -92.5t-107.5 -25.5q-63 0 -90 18.5zM459 820q18 14 26 52q4 20 4 26q0 17 -11.5 23t-40.5 6q-41 0 -59 -14t-26 -52q-3 -15 -3 -25q0 -18 11 -24t39 -6q42 0 60 14z" />
         <glyph glyph-name="Utilde" unicode="Ũ" d="M99.5 23q-42.5 37 -42.5 124q0 60 20 154l106 499h69l-107 -505q-19 -92 -19 -138q0 -60 26.5 -84t86.5 -24t99 23.5t65.5 77.5t47.5 151l106 499h69l-107 -505q-25 -118 -59 -184.5t-86.5 -95.5t-135.5 -29q-96 0 -138.5 37zM453 894.5q-19 13.5 -40 36.5 q-14 14 -22 20.5t-15 6.5q-32 0 -37 -51h-69q8 52 37.5 83.5t70.5 31.5q22 0 40 -13t40 -36q16 -16 23.5 -22t14.5 -6q31 0 37 48h68q-7 -51 -36.5 -81.5t-70.5 -30.5q-22 0 -41 13.5z" />
         <glyph glyph-name="V" unicode="V" d="M271 0h-72l-52 800h72l41 -674l328 674h75z" />
         <glyph glyph-name="W" unicode="W" d="M138 0h-69l60 800h69l-51 -633l170 378h65l9 -378l219 633h71l-280 -800h-67l-12 405z" />
         <glyph glyph-name="Wacute" unicode="Ẃ" d="M138 0h-69l60 800h69l-51 -633l170 378h65l9 -378l219 633h71l-280 -800h-67l-12 405zM583 996l-174 -130l-37 48l175 130z" />
         <glyph glyph-name="Wcircumflex" unicode="Ŵ" d="M138 0h-69l60 800h69l-51 -633l170 378h65l9 -378l219 633h71l-280 -800h-67l-12 405zM569 900l-60 -42l-73 83l-109 -81l-45 42l169 127z" />
         <glyph glyph-name="Wdieresis" unicode="Ẅ" d="M138 0h-69l60 800h69l-51 -633l170 378h65l9 -378l219 633h71l-280 -800h-67l-12 405zM280.5 917q-14.5 10 -14.5 32q0 11 3 24q6 31 21 42.5t48 11.5q31 0 45.5 -10.5t14.5 -32.5q0 -10 -3 -22q-7 -31 -22 -43t-48 -12q-30 0 -44.5 10zM496.5 917q-14.5 10 -14.5 32 q0 11 3 24q6 31 21 42.5t48 11.5q31 0 45.5 -10.5t14.5 -32.5q0 -10 -3 -22q-7 -31 -22 -43t-48 -12q-30 0 -44.5 10z" />
         <glyph glyph-name="Wgrave" unicode="Ẁ" d="M138 0h-69l60 800h69l-51 -633l170 378h65l9 -378l219 633h71l-280 -800h-67l-12 405zM485 914l-54 -48l-124 130l54 48z" />
         <glyph glyph-name="X" unicode="X" d="M583 800h75l-300 -399l132 -401h-78l-108 329l-248 -329h-75l300 399l-132 401h78l108 -329z" />
         <glyph glyph-name="Y" unicode="Y" d="M269 0h-69l65 302l-132 498h74l108 -412l286 412h77l-344 -498z" />
         <glyph glyph-name="Yacute" unicode="Ý" d="M269 0h-69l65 302l-132 498h74l108 -412l286 412h77l-344 -498zM583 996l-174 -130l-37 48l175 130z" />
         <glyph glyph-name="Ycircumflex" unicode="Ŷ" d="M269 0h-69l65 302l-132 498h74l108 -412l286 412h77l-344 -498zM569 900l-60 -42l-73 83l-109 -81l-45 42l169 127z" />
         <glyph glyph-name="Ydieresis" unicode="Ÿ" d="M269 0h-69l65 302l-132 498h74l108 -412l286 412h77l-344 -498zM280.5 917q-14.5 10 -14.5 32q0 11 3 24q6 31 21 42.5t48 11.5q31 0 45.5 -10.5t14.5 -32.5q0 -10 -3 -22q-7 -31 -22 -43t-48 -12q-30 0 -44.5 10zM496.5 917q-14.5 10 -14.5 32q0 11 3 24q6 31 21 42.5 t48 11.5q31 0 45.5 -10.5t14.5 -32.5q0 -10 -3 -22q-7 -31 -22 -43t-48 -12q-30 0 -44.5 10z" />
         <glyph glyph-name="uni1EF4" unicode="Ỵ" d="M269 0h-69l65 302l-132 498h74l108 -412l286 412h77l-344 -498zM147.5 -219.5q-13.5 8.5 -13.5 29.5q0 11 3 26q7 31 22 43t48 12q31 0 44.5 -9t13.5 -30q0 -10 -3 -25q-7 -31 -22 -43t-48 -12q-31 0 -44.5 8.5z" />
         <glyph glyph-name="Ygrave" unicode="Ỳ" d="M269 0h-69l65 302l-132 498h74l108 -412l286 412h77l-344 -498zM485 914l-54 -48l-124 130l54 48z" />
         <glyph glyph-name="uni1EF6" unicode="Ỷ" d="M269 0h-69l65 302l-132 498h74l108 -412l286 412h77l-344 -498zM383 903q34 7 55.5 20.5t24.5 30.5l1 5q0 9 -6.5 13.5t-15.5 4.5q-21 0 -49 -13t-54 -32l12 79q20 14 45.5 22t47.5 8q40 0 64.5 -20t24.5 -54q0 -44 -37.5 -78.5t-102.5 -47.5z" />
         <glyph glyph-name="uni1EF8" unicode="Ỹ" d="M269 0h-69l65 302l-132 498h74l108 -412l286 412h77l-344 -498zM453 894.5q-19 13.5 -40 36.5q-14 14 -22 20.5t-15 6.5q-32 0 -37 -51h-69q8 52 37.5 83.5t70.5 31.5q22 0 40 -13t40 -36q16 -16 23.5 -22t14.5 -6q31 0 37 48h68q-7 -51 -36.5 -81.5t-70.5 -30.5 q-22 0 -41 13.5z" />
         <glyph glyph-name="Z" unicode="Z" d="M389.5 -54.5q-28.5 8.5 -75.5 27.5q-48 19 -81.5 29t-71.5 10q-13 0 -31 -3q-63 -10 -147 -9l12 52l561 685h-413l12 63h500l-11 -53l-559 -680q13 0 41 4t50 4q44 0 80 -10.5t86 -31.5q41 -17 67 -25t54 -8q30 0 53.5 7.5t55.5 22.5q38 17 67 25.5t68 7.5l-16 -63 q-20 2 -35.5 -3t-43.5 -19q-38 -19 -73 -30t-90 -11q-31 0 -59.5 8.5z" />
         <glyph glyph-name="Zacute" unicode="Ź" d="M389.5 -54.5q-28.5 8.5 -75.5 27.5q-48 19 -81.5 29t-71.5 10q-13 0 -31 -3q-63 -10 -147 -9l12 52l561 685h-413l12 63h500l-11 -53l-559 -680q13 0 41 4t50 4q44 0 80 -10.5t86 -31.5q41 -17 67 -25t54 -8q30 0 53.5 7.5t55.5 22.5q38 17 67 25.5t68 7.5l-16 -63 q-20 2 -35.5 -3t-43.5 -19q-38 -19 -73 -30t-90 -11q-31 0 -59.5 8.5zM582 993l-174 -130l-37 48l175 130z" />
         <glyph glyph-name="Zcaron" unicode="Ž" d="M389.5 -54.5q-28.5 8.5 -75.5 27.5q-48 19 -81.5 29t-71.5 10q-13 0 -31 -3q-63 -10 -147 -9l12 52l561 685h-413l12 63h500l-11 -53l-559 -680q13 0 41 4t50 4q44 0 80 -10.5t86 -31.5q41 -17 67 -25t54 -8q30 0 53.5 7.5t55.5 22.5q38 17 67 25.5t68 7.5l-16 -63 q-20 2 -35.5 -3t-43.5 -19q-38 -19 -73 -30t-90 -11q-31 0 -59.5 8.5zM589 988l-171 -129l-118 127l59 42l74 -81l109 83z" />
         <glyph glyph-name="Zdotaccent" unicode="Ż" d="M389.5 -54.5q-28.5 8.5 -75.5 27.5q-48 19 -81.5 29t-71.5 10q-13 0 -31 -3q-63 -10 -147 -9l12 52l561 685h-413l12 63h500l-11 -53l-559 -680q13 0 41 4t50 4q44 0 80 -10.5t86 -31.5q41 -17 67 -25t54 -8q30 0 53.5 7.5t55.5 22.5q38 17 67 25.5t68 7.5l-16 -63 q-20 2 -35.5 -3t-43.5 -19q-38 -19 -73 -30t-90 -11q-31 0 -59.5 8.5zM389.5 927.5q-13.5 8.5 -13.5 29.5q0 11 3 26q7 31 22 43t48 12q31 0 44.5 -9t13.5 -30q0 -10 -3 -25q-7 -31 -22 -43t-48 -12q-31 0 -44.5 8.5z" />
         <glyph glyph-name="a" unicode="a" d="M531 25q-13 -18 -41.5 -28.5t-58.5 -10.5q-34 0 -55 17.5t-22 44.5q0 31 5 41q-29 -47 -72 -75t-87 -28q-79 0 -127 49.5t-47 130.5q0 103 51.5 212.5t130.5 181.5t155 72q75 0 113 -22.5t38 -73.5q0 -15 -16.5 -97t-71.5 -334q-3 -16 -3 -29t7 -20t23 -7q12 0 24.5 8 t23.5 22zM312 107.5q53 58.5 82 150.5l12 58q41 189 42 214q-1 22 -20.5 30.5t-68.5 8.5q-55 0 -118 -64t-106 -158t-43 -177q1 -55 31.5 -88t80.5 -33q55 0 108 58.5z" />
         <glyph glyph-name="aacute" unicode="á" d="M531 25q-13 -18 -41.5 -28.5t-58.5 -10.5q-34 0 -55 17.5t-22 44.5q0 31 5 41q-29 -47 -72 -75t-87 -28q-79 0 -127 49.5t-47 130.5q0 103 51.5 212.5t130.5 181.5t155 72q75 0 113 -22.5t38 -73.5q0 -15 -16.5 -97t-71.5 -334q-3 -16 -3 -29t7 -20t23 -7q12 0 24.5 8 t23.5 22zM312 107.5q53 58.5 82 150.5l12 58q41 189 42 214q-1 22 -20.5 30.5t-68.5 8.5q-55 0 -118 -64t-106 -158t-43 -177q1 -55 31.5 -88t80.5 -33q55 0 108 58.5zM544 811l-174 -130l-37 48l175 130z" />
         <glyph glyph-name="abreve" unicode="ă" d="M531 25q-13 -18 -41.5 -28.5t-58.5 -10.5q-34 0 -55 17.5t-22 44.5q0 31 5 41q-29 -47 -72 -75t-87 -28q-79 0 -127 49.5t-47 130.5q0 103 51.5 212.5t130.5 181.5t155 72q75 0 113 -22.5t38 -73.5q0 -15 -16.5 -97t-71.5 -334q-3 -16 -3 -29t7 -20t23 -7q12 0 24.5 8 t23.5 22zM312 107.5q53 58.5 82 150.5l12 58q41 189 42 214q-1 22 -20.5 30.5t-68.5 8.5q-55 0 -118 -64t-106 -158t-43 -177q1 -55 31.5 -88t80.5 -33q55 0 108 58.5zM297 714.5q-28 18.5 -28 60.5q0 20 8 54h68q-6 -24 -6 -38q0 -18 11 -24.5t39 -6.5q44 0 62 14.5 t26 54.5h67q-9 -52 -26.5 -80.5t-48 -40.5t-82.5 -12q-62 0 -90 18.5z" />
         <glyph glyph-name="uni1EAF" unicode="ắ" d="M531 25q-13 -18 -41.5 -28.5t-58.5 -10.5q-34 0 -55 17.5t-22 44.5q0 31 5 41q-29 -47 -72 -75t-87 -28q-79 0 -127 49.5t-47 130.5q0 103 51.5 212.5t130.5 181.5t155 72q75 0 113 -22.5t38 -73.5q0 -15 -16.5 -97t-71.5 -334q-3 -16 -3 -29t7 -20t23 -7q12 0 24.5 8 t23.5 22zM312 107.5q53 58.5 82 150.5l12 58q41 189 42 214q-1 22 -20.5 30.5t-68.5 8.5q-55 0 -118 -64t-106 -158t-43 -177q1 -55 31.5 -88t80.5 -33q55 0 108 58.5zM297 714.5q-28 18.5 -28 60.5q0 20 8 54h68q-6 -24 -6 -38q0 -18 11 -24.5t39 -6.5q44 0 62 14.5 t26 54.5h67q-9 -52 -26.5 -80.5t-48 -40.5t-82.5 -12q-62 0 -90 18.5zM584 1002l-174 -130l-37 48l175 130z" />
         <glyph glyph-name="uni1EB7" unicode="ặ" d="M531 25q-13 -18 -41.5 -28.5t-58.5 -10.5q-34 0 -55 17.5t-22 44.5q0 31 5 41q-29 -47 -72 -75t-87 -28q-79 0 -127 49.5t-47 130.5q0 103 51.5 212.5t130.5 181.5t155 72q75 0 113 -22.5t38 -73.5q0 -15 -16.5 -97t-71.5 -334q-3 -16 -3 -29t7 -20t23 -7q12 0 24.5 8 t23.5 22zM312 107.5q53 58.5 82 150.5l12 58q41 189 42 214q-1 22 -20.5 30.5t-68.5 8.5q-55 0 -118 -64t-106 -158t-43 -177q1 -55 31.5 -88t80.5 -33q55 0 108 58.5zM147.5 -216.5q-13.5 8.5 -13.5 29.5q0 11 3 26q7 31 22 43t48 12q31 0 44.5 -9t13.5 -30q0 -10 -3 -25 q-7 -31 -22 -43t-48 -12q-31 0 -44.5 8.5zM297 714.5q-28 18.5 -28 60.5q0 20 8 54h68q-6 -24 -6 -38q0 -18 11 -24.5t39 -6.5q44 0 62 14.5t26 54.5h67q-9 -52 -26.5 -80.5t-48 -40.5t-82.5 -12q-62 0 -90 18.5z" />
         <glyph glyph-name="uni1EB1" unicode="ằ" d="M531 25q-13 -18 -41.5 -28.5t-58.5 -10.5q-34 0 -55 17.5t-22 44.5q0 31 5 41q-29 -47 -72 -75t-87 -28q-79 0 -127 49.5t-47 130.5q0 103 51.5 212.5t130.5 181.5t155 72q75 0 113 -22.5t38 -73.5q0 -15 -16.5 -97t-71.5 -334q-3 -16 -3 -29t7 -20t23 -7q12 0 24.5 8 t23.5 22zM312 107.5q53 58.5 82 150.5l12 58q41 189 42 214q-1 22 -20.5 30.5t-68.5 8.5q-55 0 -118 -64t-106 -158t-43 -177q1 -55 31.5 -88t80.5 -33q55 0 108 58.5zM297 714.5q-28 18.5 -28 60.5q0 20 8 54h68q-6 -24 -6 -38q0 -18 11 -24.5t39 -6.5q44 0 62 14.5 t26 54.5h67q-9 -52 -26.5 -80.5t-48 -40.5t-82.5 -12q-62 0 -90 18.5zM486 920l-54 -48l-124 130l54 48z" />
         <glyph glyph-name="uni1EB3" unicode="ẳ" d="M531 25q-13 -18 -41.5 -28.5t-58.5 -10.5q-34 0 -55 17.5t-22 44.5q0 31 5 41q-29 -47 -72 -75t-87 -28q-79 0 -127 49.5t-47 130.5q0 103 51.5 212.5t130.5 181.5t155 72q75 0 113 -22.5t38 -73.5q0 -15 -16.5 -97t-71.5 -334q-3 -16 -3 -29t7 -20t23 -7q12 0 24.5 8 t23.5 22zM312 107.5q53 58.5 82 150.5l12 58q41 189 42 214q-1 22 -20.5 30.5t-68.5 8.5q-55 0 -118 -64t-106 -158t-43 -177q1 -55 31.5 -88t80.5 -33q55 0 108 58.5zM297 714.5q-28 18.5 -28 60.5q0 20 8 54h68q-6 -24 -6 -38q0 -18 11 -24.5t39 -6.5q44 0 62 14.5 t26 54.5h67q-9 -52 -26.5 -80.5t-48 -40.5t-82.5 -12q-62 0 -90 18.5zM384 909q34 7 55.5 20.5t24.5 30.5l1 5q0 9 -6.5 13.5t-15.5 4.5q-21 0 -49 -13t-54 -32l12 79q20 14 45.5 22t47.5 8q40 0 64.5 -20t24.5 -54q0 -44 -37.5 -78.5t-102.5 -47.5z" />
         <glyph glyph-name="uni1EB5" unicode="ẵ" d="M531 25q-13 -18 -41.5 -28.5t-58.5 -10.5q-34 0 -55 17.5t-22 44.5q0 31 5 41q-29 -47 -72 -75t-87 -28q-79 0 -127 49.5t-47 130.5q0 103 51.5 212.5t130.5 181.5t155 72q75 0 113 -22.5t38 -73.5q0 -15 -16.5 -97t-71.5 -334q-3 -16 -3 -29t7 -20t23 -7q12 0 24.5 8 t23.5 22zM312 107.5q53 58.5 82 150.5l12 58q41 189 42 214q-1 22 -20.5 30.5t-68.5 8.5q-55 0 -118 -64t-106 -158t-43 -177q1 -55 31.5 -88t80.5 -33q55 0 108 58.5zM297 714.5q-28 18.5 -28 60.5q0 20 8 54h68q-6 -24 -6 -38q0 -18 11 -24.5t39 -6.5q44 0 62 14.5 t26 54.5h67q-9 -52 -26.5 -80.5t-48 -40.5t-82.5 -12q-62 0 -90 18.5zM454 900.5q-19 13.5 -40 36.5q-14 14 -22 20.5t-15 6.5q-32 0 -37 -51h-69q8 52 37.5 83.5t70.5 31.5q22 0 40 -13t40 -36q16 -16 23.5 -22t14.5 -6q31 0 37 48h68q-7 -51 -36.5 -81.5t-70.5 -30.5 q-22 0 -41 13.5z" />
         <glyph glyph-name="uni01CE" unicode="ǎ" d="M531 25q-13 -18 -41.5 -28.5t-58.5 -10.5q-34 0 -55 17.5t-22 44.5q0 31 5 41q-29 -47 -72 -75t-87 -28q-79 0 -127 49.5t-47 130.5q0 103 51.5 212.5t130.5 181.5t155 72q75 0 113 -22.5t38 -73.5q0 -15 -16.5 -97t-71.5 -334q-3 -16 -3 -29t7 -20t23 -7q12 0 24.5 8 t23.5 22zM312 107.5q53 58.5 82 150.5l12 58q41 189 42 214q-1 22 -20.5 30.5t-68.5 8.5q-55 0 -118 -64t-106 -158t-43 -177q1 -55 31.5 -88t80.5 -33q55 0 108 58.5zM551 806l-171 -129l-118 127l59 42l74 -81l109 83z" />
         <glyph glyph-name="acircumflex" unicode="â" d="M531 25q-13 -18 -41.5 -28.5t-58.5 -10.5q-34 0 -55 17.5t-22 44.5q0 31 5 41q-29 -47 -72 -75t-87 -28q-79 0 -127 49.5t-47 130.5q0 103 51.5 212.5t130.5 181.5t155 72q75 0 113 -22.5t38 -73.5q0 -15 -16.5 -97t-71.5 -334q-3 -16 -3 -29t7 -20t23 -7q12 0 24.5 8 t23.5 22zM312 107.5q53 58.5 82 150.5l12 58q41 189 42 214q-1 22 -20.5 30.5t-68.5 8.5q-55 0 -118 -64t-106 -158t-43 -177q1 -55 31.5 -88t80.5 -33q55 0 108 58.5zM530 715l-60 -42l-73 83l-109 -81l-45 42l169 127z" />
         <glyph glyph-name="uni1EA5" unicode="ấ" d="M531 25q-13 -18 -41.5 -28.5t-58.5 -10.5q-34 0 -55 17.5t-22 44.5q0 31 5 41q-29 -47 -72 -75t-87 -28q-79 0 -127 49.5t-47 130.5q0 103 51.5 212.5t130.5 181.5t155 72q75 0 113 -22.5t38 -73.5q0 -15 -16.5 -97t-71.5 -334q-3 -16 -3 -29t7 -20t23 -7q12 0 24.5 8 t23.5 22zM312 107.5q53 58.5 82 150.5l12 58q41 189 42 214q-1 22 -20.5 30.5t-68.5 8.5q-55 0 -118 -64t-106 -158t-43 -177q1 -55 31.5 -88t80.5 -33q55 0 108 58.5zM530 715l-60 -42l-73 83l-109 -81l-45 42l169 127zM587 1016l-174 -130l-37 48l175 130z" />
         <glyph glyph-name="uni1EAD" unicode="ậ" d="M531 25q-13 -18 -41.5 -28.5t-58.5 -10.5q-34 0 -55 17.5t-22 44.5q0 31 5 41q-29 -47 -72 -75t-87 -28q-79 0 -127 49.5t-47 130.5q0 103 51.5 212.5t130.5 181.5t155 72q75 0 113 -22.5t38 -73.5q0 -15 -16.5 -97t-71.5 -334q-3 -16 -3 -29t7 -20t23 -7q12 0 24.5 8 t23.5 22zM312 107.5q53 58.5 82 150.5l12 58q41 189 42 214q-1 22 -20.5 30.5t-68.5 8.5q-55 0 -118 -64t-106 -158t-43 -177q1 -55 31.5 -88t80.5 -33q55 0 108 58.5zM147.5 -216.5q-13.5 8.5 -13.5 29.5q0 11 3 26q7 31 22 43t48 12q31 0 44.5 -9t13.5 -30q0 -10 -3 -25 q-7 -31 -22 -43t-48 -12q-31 0 -44.5 8.5zM530 715l-60 -42l-73 83l-109 -81l-45 42l169 127z" />
         <glyph glyph-name="uni1EA7" unicode="ầ" d="M531 25q-13 -18 -41.5 -28.5t-58.5 -10.5q-34 0 -55 17.5t-22 44.5q0 31 5 41q-29 -47 -72 -75t-87 -28q-79 0 -127 49.5t-47 130.5q0 103 51.5 212.5t130.5 181.5t155 72q75 0 113 -22.5t38 -73.5q0 -15 -16.5 -97t-71.5 -334q-3 -16 -3 -29t7 -20t23 -7q12 0 24.5 8 t23.5 22zM312 107.5q53 58.5 82 150.5l12 58q41 189 42 214q-1 22 -20.5 30.5t-68.5 8.5q-55 0 -118 -64t-106 -158t-43 -177q1 -55 31.5 -88t80.5 -33q55 0 108 58.5zM530 715l-60 -42l-73 83l-109 -81l-45 42l169 127zM489 934l-54 -48l-124 130l54 48z" />
         <glyph glyph-name="uni1EA9" unicode="ẩ" d="M531 25q-13 -18 -41.5 -28.5t-58.5 -10.5q-34 0 -55 17.5t-22 44.5q0 31 5 41q-29 -47 -72 -75t-87 -28q-79 0 -127 49.5t-47 130.5q0 103 51.5 212.5t130.5 181.5t155 72q75 0 113 -22.5t38 -73.5q0 -15 -16.5 -97t-71.5 -334q-3 -16 -3 -29t7 -20t23 -7q12 0 24.5 8 t23.5 22zM312 107.5q53 58.5 82 150.5l12 58q41 189 42 214q-1 22 -20.5 30.5t-68.5 8.5q-55 0 -118 -64t-106 -158t-43 -177q1 -55 31.5 -88t80.5 -33q55 0 108 58.5zM530 715l-60 -42l-73 83l-109 -81l-45 42l169 127zM387 923q34 7 55.5 20.5t24.5 30.5l1 5 q0 9 -6.5 13.5t-15.5 4.5q-21 0 -49 -13t-54 -32l12 79q20 14 45.5 22t47.5 8q40 0 64.5 -20t24.5 -54q0 -44 -37.5 -78.5t-102.5 -47.5z" />
         <glyph glyph-name="uni1EAB" unicode="ẫ" d="M531 25q-13 -18 -41.5 -28.5t-58.5 -10.5q-34 0 -55 17.5t-22 44.5q0 31 5 41q-29 -47 -72 -75t-87 -28q-79 0 -127 49.5t-47 130.5q0 103 51.5 212.5t130.5 181.5t155 72q75 0 113 -22.5t38 -73.5q0 -15 -16.5 -97t-71.5 -334q-3 -16 -3 -29t7 -20t23 -7q12 0 24.5 8 t23.5 22zM312 107.5q53 58.5 82 150.5l12 58q41 189 42 214q-1 22 -20.5 30.5t-68.5 8.5q-55 0 -118 -64t-106 -158t-43 -177q1 -55 31.5 -88t80.5 -33q55 0 108 58.5zM530 715l-60 -42l-73 83l-109 -81l-45 42l169 127zM457 914.5q-19 13.5 -40 36.5q-14 14 -22 20.5 t-15 6.5q-32 0 -37 -51h-69q8 52 37.5 83.5t70.5 31.5q22 0 40 -13t40 -36q16 -16 23.5 -22t14.5 -6q31 0 37 48h68q-7 -51 -36.5 -81.5t-70.5 -30.5q-22 0 -41 13.5z" />
         <glyph glyph-name="adieresis" unicode="ä" d="M531 25q-13 -18 -41.5 -28.5t-58.5 -10.5q-34 0 -55 17.5t-22 44.5q0 31 5 41q-29 -47 -72 -75t-87 -28q-79 0 -127 49.5t-47 130.5q0 103 51.5 212.5t130.5 181.5t155 72q75 0 113 -22.5t38 -73.5q0 -15 -16.5 -97t-71.5 -334q-3 -16 -3 -29t7 -20t23 -7q12 0 24.5 8 t23.5 22zM312 107.5q53 58.5 82 150.5l12 58q41 189 42 214q-1 22 -20.5 30.5t-68.5 8.5q-55 0 -118 -64t-106 -158t-43 -177q1 -55 31.5 -88t80.5 -33q55 0 108 58.5zM241.5 732q-14.5 10 -14.5 32q0 11 3 24q6 31 21 42.5t48 11.5q31 0 45.5 -10.5t14.5 -32.5 q0 -10 -3 -22q-7 -31 -22 -43t-48 -12q-30 0 -44.5 10zM457.5 732q-14.5 10 -14.5 32q0 11 3 24q6 31 21 42.5t48 11.5q31 0 45.5 -10.5t14.5 -32.5q0 -10 -3 -22q-7 -31 -22 -43t-48 -12q-30 0 -44.5 10z" />
         <glyph glyph-name="uni1EA1" unicode="ạ" d="M531 25q-13 -18 -41.5 -28.5t-58.5 -10.5q-34 0 -55 17.5t-22 44.5q0 31 5 41q-29 -47 -72 -75t-87 -28q-79 0 -127 49.5t-47 130.5q0 103 51.5 212.5t130.5 181.5t155 72q75 0 113 -22.5t38 -73.5q0 -15 -16.5 -97t-71.5 -334q-3 -16 -3 -29t7 -20t23 -7q12 0 24.5 8 t23.5 22zM312 107.5q53 58.5 82 150.5l12 58q41 189 42 214q-1 22 -20.5 30.5t-68.5 8.5q-55 0 -118 -64t-106 -158t-43 -177q1 -55 31.5 -88t80.5 -33q55 0 108 58.5zM147.5 -216.5q-13.5 8.5 -13.5 29.5q0 11 3 26q7 31 22 43t48 12q31 0 44.5 -9t13.5 -30q0 -10 -3 -25 q-7 -31 -22 -43t-48 -12q-31 0 -44.5 8.5z" />
         <glyph glyph-name="agrave" unicode="à" d="M531 25q-13 -18 -41.5 -28.5t-58.5 -10.5q-34 0 -55 17.5t-22 44.5q0 31 5 41q-29 -47 -72 -75t-87 -28q-79 0 -127 49.5t-47 130.5q0 103 51.5 212.5t130.5 181.5t155 72q75 0 113 -22.5t38 -73.5q0 -15 -16.5 -97t-71.5 -334q-3 -16 -3 -29t7 -20t23 -7q12 0 24.5 8 t23.5 22zM312 107.5q53 58.5 82 150.5l12 58q41 189 42 214q-1 22 -20.5 30.5t-68.5 8.5q-55 0 -118 -64t-106 -158t-43 -177q1 -55 31.5 -88t80.5 -33q55 0 108 58.5zM446 729l-54 -48l-124 130l54 48z" />
         <glyph glyph-name="uni1EA3" unicode="ả" d="M531 25q-13 -18 -41.5 -28.5t-58.5 -10.5q-34 0 -55 17.5t-22 44.5q0 31 5 41q-29 -47 -72 -75t-87 -28q-79 0 -127 49.5t-47 130.5q0 103 51.5 212.5t130.5 181.5t155 72q75 0 113 -22.5t38 -73.5q0 -15 -16.5 -97t-71.5 -334q-3 -16 -3 -29t7 -20t23 -7q12 0 24.5 8 t23.5 22zM312 107.5q53 58.5 82 150.5l12 58q41 189 42 214q-1 22 -20.5 30.5t-68.5 8.5q-55 0 -118 -64t-106 -158t-43 -177q1 -55 31.5 -88t80.5 -33q55 0 108 58.5zM344 718q34 7 55.5 20.5t24.5 30.5l1 5q0 9 -6.5 13.5t-15.5 4.5q-21 0 -49 -13t-54 -32l12 79 q20 14 45.5 22t47.5 8q40 0 64.5 -20t24.5 -54q0 -44 -37.5 -78.5t-102.5 -47.5z" />
         <glyph glyph-name="amacron" unicode="ā" d="M531 25q-13 -18 -41.5 -28.5t-58.5 -10.5q-34 0 -55 17.5t-22 44.5q0 31 5 41q-29 -47 -72 -75t-87 -28q-79 0 -127 49.5t-47 130.5q0 103 51.5 212.5t130.5 181.5t155 72q75 0 113 -22.5t38 -73.5q0 -15 -16.5 -97t-71.5 -334q-3 -16 -3 -29t7 -20t23 -7q12 0 24.5 8 t23.5 22zM312 107.5q53 58.5 82 150.5l12 58q41 189 42 214q-1 22 -20.5 30.5t-68.5 8.5q-55 0 -118 -64t-106 -158t-43 -177q1 -55 31.5 -88t80.5 -33q55 0 108 58.5zM533 715h-293l13 64h293z" />
         <glyph glyph-name="aogonek" unicode="ą" d="M531 25q-8 -10 -24 -20h1q-77 -40 -107 -60t-30 -41q0 -15 12 -23.5t34 -8.5q15 0 30 6t26 16l42 -49q-16 -16 -43 -26t-55 -10q-53 0 -83.5 20.5t-30.5 58.5q0 27 26 54.5t69 48.5q-20 7 -31.5 22t-12.5 35q0 31 5 41q-29 -47 -72 -75t-87 -28q-79 0 -127 49.5 t-47 130.5q0 103 51.5 212.5t130.5 181.5t155 72q75 0 113 -22.5t38 -73.5q0 -15 -16.5 -97t-71.5 -334q-3 -16 -3 -29t7 -20t23 -7q12 0 24.5 8t23.5 22zM312 107.5q53 58.5 82 150.5l12 58q41 189 42 214q-1 22 -20.5 30.5t-68.5 8.5q-55 0 -118 -64t-106 -158t-43 -177 q1 -55 31.5 -88t80.5 -33q55 0 108 58.5z" />
         <glyph glyph-name="aring" unicode="å" d="M531 25q-13 -18 -41.5 -28.5t-58.5 -10.5q-34 0 -55 17.5t-22 44.5q0 31 5 41q-29 -47 -72 -75t-87 -28q-79 0 -127 49.5t-47 130.5q0 103 51.5 212.5t130.5 181.5t155 72q75 0 113 -22.5t38 -73.5q0 -15 -16.5 -97t-71.5 -334q-3 -16 -3 -29t7 -20t23 -7q12 0 24.5 8 t23.5 22zM312 107.5q53 58.5 82 150.5l12 58q41 189 42 214q-1 22 -20.5 30.5t-68.5 8.5q-55 0 -118 -64t-106 -158t-43 -177q1 -55 31.5 -88t80.5 -33q55 0 108 58.5zM296.5 712q-27.5 19 -27.5 62q0 21 6 49q13 67 46.5 92.5t106.5 25.5q63 0 91.5 -19t28.5 -63 q0 -20 -6 -47q-14 -68 -48 -93.5t-108 -25.5q-62 0 -89.5 19zM448.5 771q18.5 14 26.5 52q3 15 3 24q0 18 -11.5 24t-41.5 6q-40 0 -58 -14t-25 -51q-4 -22 -4 -26q0 -17 11.5 -23t39.5 -6q41 0 59.5 14z" />
         <glyph glyph-name="atilde" unicode="ã" d="M531 25q-13 -18 -41.5 -28.5t-58.5 -10.5q-34 0 -55 17.5t-22 44.5q0 31 5 41q-29 -47 -72 -75t-87 -28q-79 0 -127 49.5t-47 130.5q0 103 51.5 212.5t130.5 181.5t155 72q75 0 113 -22.5t38 -73.5q0 -15 -16.5 -97t-71.5 -334q-3 -16 -3 -29t7 -20t23 -7q12 0 24.5 8 t23.5 22zM312 107.5q53 58.5 82 150.5l12 58q41 189 42 214q-1 22 -20.5 30.5t-68.5 8.5q-55 0 -118 -64t-106 -158t-43 -177q1 -55 31.5 -88t80.5 -33q55 0 108 58.5zM414 709.5q-19 13.5 -40 36.5q-14 14 -22 20.5t-15 6.5q-32 0 -37 -51h-69q8 52 37.5 83.5t70.5 31.5 q22 0 40 -13t40 -36q16 -16 23.5 -22t14.5 -6q31 0 37 48h68q-7 -51 -36.5 -81.5t-70.5 -30.5q-22 0 -41 13.5z" />
         <glyph glyph-name="ae" unicode="æ" d="M6 22.5q-33 36.5 -33 97.5q0 23 7 58q19 85 78 134t141 49h78l12 60q7 37 7 58q0 41 -15 65.5t-42 24.5q-31 0 -66 -29.5t-57 -75.5l-64 21q31 66 84.5 106.5t107.5 40.5q40 0 68.5 -28.5t38.5 -76.5q31 49 72 77t80 28q51 0 78.5 -47t27.5 -131q0 -72 -19 -157h-260 q-17 -92 -17 -141q0 -52 18 -79.5t59 -27.5q17 0 40 11.5t41.5 32t26.5 45.5l49 -43q-23 -47 -72 -78t-90 -31q-52 0 -84 31.5t-39 86.5q-29 -53 -76 -85.5t-90 -32.5q-57 0 -90 36.5zM537 361q9 53 9 94q0 53 -12.5 83.5t-35.5 30.5q-47 0 -90.5 -59t-63.5 -150z M190.5 97.5q40.5 48.5 56.5 124.5l16 77h-73q-54 0 -93.5 -34t-51.5 -95q-4 -19 -4 -39q0 -38 16 -60t44 -22q49 0 89.5 48.5z" />
         <glyph glyph-name="b" unicode="b" d="M585 383q-20 1 -56 -1q-29 -117 -75.5 -206.5t-104 -139.5t-118.5 -50q-89 0 -128.5 43t-39.5 128q0 46 11 109l114 534h68l-114 -534q-13 -68 -13 -108q0 -55 24.5 -82t82.5 -27q41 0 83.5 43.5t80 120.5t62.5 175q-47 2 -74 26.5t-28 67.5q0 40 26 66t70 26 q87 0 87 -97q0 -9 -2 -31l59 1zM475 446q4 24 4 36q0 43 -33 43q-17 0 -26 -10.5t-9 -24.5q0 -44 64 -44z" />
         <glyph glyph-name="c" unicode="c" d="M481 98q-37 -44 -71 -68t-76 -34t-104 -10q-95 0 -137.5 37t-42.5 126q0 60 22 164q20 91 68 164t112 114t130 41q53 0 87 -10.5t57 -35t43 -69.5l-62 -31q-22 48 -49.5 65.5t-80.5 17.5q-48 0 -98 -34t-88 -94.5t-55 -135.5q-19 -83 -19 -139q0 -64 28 -90.5t90 -26.5 q48 0 79.5 8t57.5 26t58 54z" />
         <glyph glyph-name="cacute" unicode="ć" d="M481 98q-37 -44 -71 -68t-76 -34t-104 -10q-95 0 -137.5 37t-42.5 126q0 60 22 164q20 91 68 164t112 114t130 41q53 0 87 -10.5t57 -35t43 -69.5l-62 -31q-22 48 -49.5 65.5t-80.5 17.5q-48 0 -98 -34t-88 -94.5t-55 -135.5q-19 -83 -19 -139q0 -64 28 -90.5t90 -26.5 q48 0 79.5 8t57.5 26t58 54zM544 811l-174 -130l-37 48l175 130z" />
         <glyph glyph-name="ccaron" unicode="č" d="M481 98q-37 -44 -71 -68t-76 -34t-104 -10q-95 0 -137.5 37t-42.5 126q0 60 22 164q20 91 68 164t112 114t130 41q53 0 87 -10.5t57 -35t43 -69.5l-62 -31q-22 48 -49.5 65.5t-80.5 17.5q-48 0 -98 -34t-88 -94.5t-55 -135.5q-19 -83 -19 -139q0 -64 28 -90.5t90 -26.5 q48 0 79.5 8t57.5 26t58 54zM551 806l-171 -129l-118 127l59 42l74 -81l109 83z" />
         <glyph glyph-name="ccedilla" unicode="ç" d="M279 535q-50 -34 -88 -94.5t-55 -135.5q-19 -83 -19 -139q0 -64 28 -90.5t90 -26.5q48 0 79.5 8t57.5 26t58 54l51 -39q-50 -59 -97.5 -83.5t-121.5 -27.5l-8 -30q28 -7 44 -25t16 -43q0 -10 -1 -15q-8 -40 -43 -63.5t-85 -23.5q-30 0 -55 10.5t-37 26.5l35 49 q9 -10 25.5 -16.5t33.5 -6.5q22 0 39 10t20 25q2 12 -15.5 18.5t-50.5 6.5l14 77q-75 7 -109.5 44.5t-34.5 117.5q0 60 22 164q20 91 68 164t112 114t130 41q53 0 87 -10.5t57 -35t43 -69.5l-62 -31q-22 48 -49.5 65.5t-80.5 17.5q-48 0 -98 -34z" />
         <glyph glyph-name="ccircumflex" unicode="ĉ" d="M481 98q-37 -44 -71 -68t-76 -34t-104 -10q-95 0 -137.5 37t-42.5 126q0 60 22 164q20 91 68 164t112 114t130 41q53 0 87 -10.5t57 -35t43 -69.5l-62 -31q-22 48 -49.5 65.5t-80.5 17.5q-48 0 -98 -34t-88 -94.5t-55 -135.5q-19 -83 -19 -139q0 -64 28 -90.5t90 -26.5 q48 0 79.5 8t57.5 26t58 54zM530 715l-60 -42l-73 83l-109 -81l-45 42l169 127z" />
         <glyph glyph-name="cdotaccent" unicode="ċ" d="M481 98q-37 -44 -71 -68t-76 -34t-104 -10q-95 0 -137.5 37t-42.5 126q0 60 22 164q20 91 68 164t112 114t130 41q53 0 87 -10.5t57 -35t43 -69.5l-62 -31q-22 48 -49.5 65.5t-80.5 17.5q-48 0 -98 -34t-88 -94.5t-55 -135.5q-19 -83 -19 -139q0 -64 28 -90.5t90 -26.5 q48 0 79.5 8t57.5 26t58 54zM351.5 745.5q-13.5 8.5 -13.5 29.5q0 11 3 26q7 31 22 43t48 12q31 0 44.5 -9t13.5 -30q0 -10 -3 -25q-7 -31 -22 -43t-48 -12q-31 0 -44.5 8.5z" />
         <glyph glyph-name="d" unicode="d" d="M506.5 57q12.5 8 23.5 22l30 -54q-13 -18 -41.5 -28.5t-58.5 -10.5q-75 0 -76 65q-50 -65 -193 -65q-84 0 -121.5 36t-37.5 121q0 67 21 169q19 95 63 167.5t106.5 112.5t136.5 40q45 0 78 -20t46 -53l53 241h68l-148 -696q-3 -15 -3 -27q0 -14 6.5 -21t22.5 -7 q12 0 24.5 8zM320 72.5q54 23.5 73 59.5l62 282q3 18 3 35q0 54 -28 87t-76 33q-84 0 -147.5 -72t-89.5 -193q-19 -88 -19 -144q0 -60 23.5 -85.5t74.5 -25.5q70 0 124 23.5z" />
         <glyph glyph-name="eth" unicode="ð" d="M600 748l-85 -42q44 -62 44 -177q0 -105 -39 -286h-1q-34 -124 -112 -190.5t-201 -66.5q-87 0 -126.5 34.5t-39.5 114.5q0 50 15 122q26 120 107 189.5t198 69.5q86 0 128 -28q2 64 -9 108.5t-35 74.5l-189 -94l-23 55l158 79q-58 28 -160 26l10 63q157 2 229 -49l107 54 zM367.5 105.5q62.5 52.5 87.5 147.5l16 82q1 7 1 19q0 54 -28 76t-89 22q-90 0 -151.5 -53t-83.5 -150q-13 -63 -13 -96q0 -54 25.5 -77t79.5 -23q93 0 155.5 52.5z" />
         <glyph glyph-name="dcaron" unicode="ď" d="M506.5 57q12.5 8 23.5 22l30 -54q-13 -18 -41.5 -28.5t-58.5 -10.5q-75 0 -76 65q-50 -65 -193 -65q-84 0 -121.5 36t-37.5 121q0 67 21 169q19 95 63 167.5t106.5 112.5t136.5 40q45 0 78 -20t46 -53l53 241h68l-148 -696q-3 -15 -3 -27q0 -14 6.5 -21t22.5 -7 q12 0 24.5 8zM649 539h-55l47 260h72zM320 72.5q54 23.5 73 59.5l62 282q3 18 3 35q0 54 -28 87t-76 33q-84 0 -147.5 -72t-89.5 -193q-19 -88 -19 -144q0 -60 23.5 -85.5t74.5 -25.5q70 0 124 23.5z" />
         <glyph glyph-name="dcroat" unicode="đ" d="M577 673l-121 -569q-3 -15 -3 -27q0 -14 6.5 -21t22.5 -7q12 0 24.5 8t23.5 22l30 -54q-13 -18 -41.5 -28.5t-58.5 -10.5q-75 0 -76 65q-50 -65 -193 -65q-84 0 -121.5 36t-37.5 121q0 67 21 169q19 95 63 167.5t106.5 112.5t136.5 40q45 0 78 -20t46 -53l25 114h-112 l14 63h112l14 64h68l-14 -64h80l-13 -63h-80zM455 414q3 18 3 35q0 54 -28 87t-76 33q-84 0 -147.5 -72t-89.5 -193q-19 -88 -19 -144q0 -60 23.5 -85.5t74.5 -25.5q70 0 124 23.5t73 59.5z" />
         <glyph glyph-name="e" unicode="e" d="M373 78.5q58 26.5 99 68.5l33 -57q-49 -47 -118.5 -75.5t-132.5 -28.5q-48 0 -87 23.5t-61 65t-22 94.5v6q-30 -10 -45 -25l-30 55q16 23 79 43q11 114 53 201t109.5 135t150.5 48q66 0 102 -33.5t36 -101.5q0 -87 -55 -144t-128 -87t-181 -62l-25 -7v-28q0 -51 33 -84 t81 -33q51 0 109 26.5zM286 532q-50 -37 -83.5 -105.5t-45.5 -158.5q101 27 162 49.5t107.5 66t46.5 109.5q0 36 -22 56t-55 20q-60 0 -110 -37z" />
         <glyph glyph-name="eacute" unicode="é" d="M373 78.5q58 26.5 99 68.5l33 -57q-49 -47 -118.5 -75.5t-132.5 -28.5q-48 0 -87 23.5t-61 65t-22 94.5v6q-30 -10 -45 -25l-30 55q16 23 79 43q11 114 53 201t109.5 135t150.5 48q66 0 102 -33.5t36 -101.5q0 -87 -55 -144t-128 -87t-181 -62l-25 -7v-28q0 -51 33 -84 t81 -33q51 0 109 26.5zM286 532q-50 -37 -83.5 -105.5t-45.5 -158.5q101 27 162 49.5t107.5 66t46.5 109.5q0 36 -22 56t-55 20q-60 0 -110 -37zM544 811l-174 -130l-37 48l175 130z" />
         <glyph glyph-name="ecaron" unicode="ě" d="M373 78.5q58 26.5 99 68.5l33 -57q-49 -47 -118.5 -75.5t-132.5 -28.5q-48 0 -87 23.5t-61 65t-22 94.5v6q-30 -10 -45 -25l-30 55q16 23 79 43q11 114 53 201t109.5 135t150.5 48q66 0 102 -33.5t36 -101.5q0 -87 -55 -144t-128 -87t-181 -62l-25 -7v-28q0 -51 33 -84 t81 -33q51 0 109 26.5zM286 532q-50 -37 -83.5 -105.5t-45.5 -158.5q101 27 162 49.5t107.5 66t46.5 109.5q0 36 -22 56t-55 20q-60 0 -110 -37zM551 806l-171 -129l-118 127l59 42l74 -81l109 83z" />
         <glyph glyph-name="ecircumflex" unicode="ê" d="M373 78.5q58 26.5 99 68.5l33 -57q-49 -47 -118.5 -75.5t-132.5 -28.5q-48 0 -87 23.5t-61 65t-22 94.5v6q-30 -10 -45 -25l-30 55q16 23 79 43q11 114 53 201t109.5 135t150.5 48q66 0 102 -33.5t36 -101.5q0 -87 -55 -144t-128 -87t-181 -62l-25 -7v-28q0 -51 33 -84 t81 -33q51 0 109 26.5zM286 532q-50 -37 -83.5 -105.5t-45.5 -158.5q101 27 162 49.5t107.5 66t46.5 109.5q0 36 -22 56t-55 20q-60 0 -110 -37zM530 715l-60 -42l-73 83l-109 -81l-45 42l169 127z" />
         <glyph glyph-name="uni1EBF" unicode="ế" d="M373 78.5q58 26.5 99 68.5l33 -57q-49 -47 -118.5 -75.5t-132.5 -28.5q-48 0 -87 23.5t-61 65t-22 94.5v6q-30 -10 -45 -25l-30 55q16 23 79 43q11 114 53 201t109.5 135t150.5 48q66 0 102 -33.5t36 -101.5q0 -87 -55 -144t-128 -87t-181 -62l-25 -7v-28q0 -51 33 -84 t81 -33q51 0 109 26.5zM286 532q-50 -37 -83.5 -105.5t-45.5 -158.5q101 27 162 49.5t107.5 66t46.5 109.5q0 36 -22 56t-55 20q-60 0 -110 -37zM530 715l-60 -42l-73 83l-109 -81l-45 42l169 127zM587 1016l-174 -130l-37 48l175 130z" />
         <glyph glyph-name="uni1EC7" unicode="ệ" d="M373 78.5q58 26.5 99 68.5l33 -57q-49 -47 -118.5 -75.5t-132.5 -28.5q-48 0 -87 23.5t-61 65t-22 94.5v6q-30 -10 -45 -25l-30 55q16 23 79 43q11 114 53 201t109.5 135t150.5 48q66 0 102 -33.5t36 -101.5q0 -87 -55 -144t-128 -87t-181 -62l-25 -7v-28q0 -51 33 -84 t81 -33q51 0 109 26.5zM286 532q-50 -37 -83.5 -105.5t-45.5 -158.5q101 27 162 49.5t107.5 66t46.5 109.5q0 36 -22 56t-55 20q-60 0 -110 -37zM147.5 -216.5q-13.5 8.5 -13.5 29.5q0 11 3 26q7 31 22 43t48 12q31 0 44.5 -9t13.5 -30q0 -10 -3 -25q-7 -31 -22 -43t-48 -12 q-31 0 -44.5 8.5zM530 715l-60 -42l-73 83l-109 -81l-45 42l169 127z" />
         <glyph glyph-name="uni1EC1" unicode="ề" d="M373 78.5q58 26.5 99 68.5l33 -57q-49 -47 -118.5 -75.5t-132.5 -28.5q-48 0 -87 23.5t-61 65t-22 94.5v6q-30 -10 -45 -25l-30 55q16 23 79 43q11 114 53 201t109.5 135t150.5 48q66 0 102 -33.5t36 -101.5q0 -87 -55 -144t-128 -87t-181 -62l-25 -7v-28q0 -51 33 -84 t81 -33q51 0 109 26.5zM286 532q-50 -37 -83.5 -105.5t-45.5 -158.5q101 27 162 49.5t107.5 66t46.5 109.5q0 36 -22 56t-55 20q-60 0 -110 -37zM530 715l-60 -42l-73 83l-109 -81l-45 42l169 127zM489 934l-54 -48l-124 130l54 48z" />
         <glyph glyph-name="uni1EC3" unicode="ể" d="M373 78.5q58 26.5 99 68.5l33 -57q-49 -47 -118.5 -75.5t-132.5 -28.5q-48 0 -87 23.5t-61 65t-22 94.5v6q-30 -10 -45 -25l-30 55q16 23 79 43q11 114 53 201t109.5 135t150.5 48q66 0 102 -33.5t36 -101.5q0 -87 -55 -144t-128 -87t-181 -62l-25 -7v-28q0 -51 33 -84 t81 -33q51 0 109 26.5zM286 532q-50 -37 -83.5 -105.5t-45.5 -158.5q101 27 162 49.5t107.5 66t46.5 109.5q0 36 -22 56t-55 20q-60 0 -110 -37zM530 715l-60 -42l-73 83l-109 -81l-45 42l169 127zM387 923q34 7 55.5 20.5t24.5 30.5l1 5q0 9 -6.5 13.5t-15.5 4.5 q-21 0 -49 -13t-54 -32l12 79q20 14 45.5 22t47.5 8q40 0 64.5 -20t24.5 -54q0 -44 -37.5 -78.5t-102.5 -47.5z" />
         <glyph glyph-name="uni1EC5" unicode="ễ" d="M373 78.5q58 26.5 99 68.5l33 -57q-49 -47 -118.5 -75.5t-132.5 -28.5q-48 0 -87 23.5t-61 65t-22 94.5v6q-30 -10 -45 -25l-30 55q16 23 79 43q11 114 53 201t109.5 135t150.5 48q66 0 102 -33.5t36 -101.5q0 -87 -55 -144t-128 -87t-181 -62l-25 -7v-28q0 -51 33 -84 t81 -33q51 0 109 26.5zM286 532q-50 -37 -83.5 -105.5t-45.5 -158.5q101 27 162 49.5t107.5 66t46.5 109.5q0 36 -22 56t-55 20q-60 0 -110 -37zM530 715l-60 -42l-73 83l-109 -81l-45 42l169 127zM457 914.5q-19 13.5 -40 36.5q-14 14 -22 20.5t-15 6.5q-32 0 -37 -51h-69 q8 52 37.5 83.5t70.5 31.5q22 0 40 -13t40 -36q16 -16 23.5 -22t14.5 -6q31 0 37 48h68q-7 -51 -36.5 -81.5t-70.5 -30.5q-22 0 -41 13.5z" />
         <glyph glyph-name="edieresis" unicode="ë" d="M373 78.5q58 26.5 99 68.5l33 -57q-49 -47 -118.5 -75.5t-132.5 -28.5q-48 0 -87 23.5t-61 65t-22 94.5v6q-30 -10 -45 -25l-30 55q16 23 79 43q11 114 53 201t109.5 135t150.5 48q66 0 102 -33.5t36 -101.5q0 -87 -55 -144t-128 -87t-181 -62l-25 -7v-28q0 -51 33 -84 t81 -33q51 0 109 26.5zM286 532q-50 -37 -83.5 -105.5t-45.5 -158.5q101 27 162 49.5t107.5 66t46.5 109.5q0 36 -22 56t-55 20q-60 0 -110 -37zM241.5 732q-14.5 10 -14.5 32q0 11 3 24q6 31 21 42.5t48 11.5q31 0 45.5 -10.5t14.5 -32.5q0 -10 -3 -22q-7 -31 -22 -43 t-48 -12q-30 0 -44.5 10zM457.5 732q-14.5 10 -14.5 32q0 11 3 24q6 31 21 42.5t48 11.5q31 0 45.5 -10.5t14.5 -32.5q0 -10 -3 -22q-7 -31 -22 -43t-48 -12q-30 0 -44.5 10z" />
         <glyph glyph-name="edotaccent" unicode="ė" d="M373 78.5q58 26.5 99 68.5l33 -57q-49 -47 -118.5 -75.5t-132.5 -28.5q-48 0 -87 23.5t-61 65t-22 94.5v6q-30 -10 -45 -25l-30 55q16 23 79 43q11 114 53 201t109.5 135t150.5 48q66 0 102 -33.5t36 -101.5q0 -87 -55 -144t-128 -87t-181 -62l-25 -7v-28q0 -51 33 -84 t81 -33q51 0 109 26.5zM286 532q-50 -37 -83.5 -105.5t-45.5 -158.5q101 27 162 49.5t107.5 66t46.5 109.5q0 36 -22 56t-55 20q-60 0 -110 -37zM351.5 745.5q-13.5 8.5 -13.5 29.5q0 11 3 26q7 31 22 43t48 12q31 0 44.5 -9t13.5 -30q0 -10 -3 -25q-7 -31 -22 -43t-48 -12 q-31 0 -44.5 8.5z" />
         <glyph glyph-name="uni1EB9" unicode="ẹ" d="M373 78.5q58 26.5 99 68.5l33 -57q-49 -47 -118.5 -75.5t-132.5 -28.5q-48 0 -87 23.5t-61 65t-22 94.5v6q-30 -10 -45 -25l-30 55q16 23 79 43q11 114 53 201t109.5 135t150.5 48q66 0 102 -33.5t36 -101.5q0 -87 -55 -144t-128 -87t-181 -62l-25 -7v-28q0 -51 33 -84 t81 -33q51 0 109 26.5zM286 532q-50 -37 -83.5 -105.5t-45.5 -158.5q101 27 162 49.5t107.5 66t46.5 109.5q0 36 -22 56t-55 20q-60 0 -110 -37zM147.5 -216.5q-13.5 8.5 -13.5 29.5q0 11 3 26q7 31 22 43t48 12q31 0 44.5 -9t13.5 -30q0 -10 -3 -25q-7 -31 -22 -43t-48 -12 q-31 0 -44.5 8.5z" />
         <glyph glyph-name="egrave" unicode="è" d="M373 78.5q58 26.5 99 68.5l33 -57q-49 -47 -118.5 -75.5t-132.5 -28.5q-48 0 -87 23.5t-61 65t-22 94.5v6q-30 -10 -45 -25l-30 55q16 23 79 43q11 114 53 201t109.5 135t150.5 48q66 0 102 -33.5t36 -101.5q0 -87 -55 -144t-128 -87t-181 -62l-25 -7v-28q0 -51 33 -84 t81 -33q51 0 109 26.5zM286 532q-50 -37 -83.5 -105.5t-45.5 -158.5q101 27 162 49.5t107.5 66t46.5 109.5q0 36 -22 56t-55 20q-60 0 -110 -37zM446 729l-54 -48l-124 130l54 48z" />
         <glyph glyph-name="uni1EBB" unicode="ẻ" d="M373 78.5q58 26.5 99 68.5l33 -57q-49 -47 -118.5 -75.5t-132.5 -28.5q-48 0 -87 23.5t-61 65t-22 94.5v6q-30 -10 -45 -25l-30 55q16 23 79 43q11 114 53 201t109.5 135t150.5 48q66 0 102 -33.5t36 -101.5q0 -87 -55 -144t-128 -87t-181 -62l-25 -7v-28q0 -51 33 -84 t81 -33q51 0 109 26.5zM286 532q-50 -37 -83.5 -105.5t-45.5 -158.5q101 27 162 49.5t107.5 66t46.5 109.5q0 36 -22 56t-55 20q-60 0 -110 -37zM344 718q34 7 55.5 20.5t24.5 30.5l1 5q0 9 -6.5 13.5t-15.5 4.5q-21 0 -49 -13t-54 -32l12 79q20 14 45.5 22t47.5 8 q40 0 64.5 -20t24.5 -54q0 -44 -37.5 -78.5t-102.5 -47.5z" />
         <glyph glyph-name="emacron" unicode="ē" d="M373 78.5q58 26.5 99 68.5l33 -57q-49 -47 -118.5 -75.5t-132.5 -28.5q-48 0 -87 23.5t-61 65t-22 94.5v6q-30 -10 -45 -25l-30 55q16 23 79 43q11 114 53 201t109.5 135t150.5 48q66 0 102 -33.5t36 -101.5q0 -87 -55 -144t-128 -87t-181 -62l-25 -7v-28q0 -51 33 -84 t81 -33q51 0 109 26.5zM286 532q-50 -37 -83.5 -105.5t-45.5 -158.5q101 27 162 49.5t107.5 66t46.5 109.5q0 36 -22 56t-55 20q-60 0 -110 -37zM533 715h-293l13 64h293z" />
         <glyph glyph-name="eogonek" unicode="ę" d="M297 -37q-28 -19 -28 -40q0 -15 12 -23.5t34 -8.5q15 0 30 6t26 16l42 -49q-16 -16 -43 -26t-55 -10q-53 0 -83.5 20.5t-30.5 58.5t54 79h-1q-48 0 -87 23.5t-61 65t-22 94.5v6q-30 -10 -45 -25l-30 55q16 23 79 43q11 114 53 201t109.5 135t150.5 48q66 0 102 -33.5 t36 -101.5q0 -87 -55 -144t-128 -87t-181 -62l-25 -7v-28q0 -51 33 -84t81 -33q51 0 109 26.5t99 68.5l33 -57q-45 -43 -112 -72q-68 -36 -96 -55zM286 532q-50 -37 -83.5 -105.5t-45.5 -158.5q101 27 162 49.5t107.5 66t46.5 109.5q0 36 -22 56t-55 20q-60 0 -110 -37z" />
         <glyph glyph-name="uni1EBD" unicode="ẽ" d="M373 78.5q58 26.5 99 68.5l33 -57q-49 -47 -118.5 -75.5t-132.5 -28.5q-48 0 -87 23.5t-61 65t-22 94.5v6q-30 -10 -45 -25l-30 55q16 23 79 43q11 114 53 201t109.5 135t150.5 48q66 0 102 -33.5t36 -101.5q0 -87 -55 -144t-128 -87t-181 -62l-25 -7v-28q0 -51 33 -84 t81 -33q51 0 109 26.5zM286 532q-50 -37 -83.5 -105.5t-45.5 -158.5q101 27 162 49.5t107.5 66t46.5 109.5q0 36 -22 56t-55 20q-60 0 -110 -37zM414 709.5q-19 13.5 -40 36.5q-14 14 -22 20.5t-15 6.5q-32 0 -37 -51h-69q8 52 37.5 83.5t70.5 31.5q22 0 40 -13t40 -36 q16 -16 23.5 -22t14.5 -6q31 0 37 48h68q-7 -51 -36.5 -81.5t-70.5 -30.5q-22 0 -41 13.5z" />
         <glyph glyph-name="f" unicode="f" horiz-adv-x="601" d="M113.5 -176.5q-27.5 29.5 -27.5 78.5q0 65 19 175t52 228q-50 29 -76 52.5t-26 45.5t23 35t63 13h62q39 126 74 203.5t78 118.5t99 41q74 0 112.5 -38t48.5 -111l-64 -25q-6 58 -26 84.5t-67 26.5q-39 0 -68.5 -32.5t-55 -93t-63.5 -174.5h250l-13 -64h-259 q-2 -6 -5.5 -18t-10.5 -30q149 -118 149 -255q0 -85 -24 -151t-68 -102.5t-103 -36.5q-46 0 -73.5 29.5zM185 394q-8 0 -28 4q-23 5 -38 5q-9 0 -12 -3q-5 -7 13.5 -17.5t52.5 -24.5zM255.5 -115q28.5 28 44.5 79t16 116q0 53 -26.5 97t-77.5 88q-27 -99 -43 -196t-17 -161 q1 -23 11 -37t27 -14q37 0 65.5 28z" />
         <glyph glyph-name="g" unicode="g" d="M32.5 -184.5q-30.5 21.5 -30.5 56.5q0 58 100 91.5t272 33.5q9 17 17 46.5t14 54.5q-19 -23 -70 -37.5t-100 -14.5q-80 0 -128 48t-48 127q0 99 53.5 194.5t136 156t160.5 60.5q74 0 113 -22t38 -72q0 -23 -24 -142.5t-53 -242.5t-43 -157q23 1 42.5 4t47.5 11l-19 -65 q-33 -10 -100 -12q-40 -64 -121.5 -102t-174.5 -38q-52 0 -82.5 21.5zM341 117q37 8 58.5 31.5t31.5 71.5l28 133q34 162 35 177q0 19 -8 27t-25 10t-56 2q-58 0 -124 -52.5t-111 -133t-45 -159.5q0 -52 31.5 -83.5t82.5 -31.5q65 0 102 8zM238.5 -122q53.5 21 89.5 56 q-110 -4 -184.5 -21.5t-74.5 -37.5q0 -7 18 -12.5t44 -5.5q54 0 107.5 21z" />
         <glyph glyph-name="gbreve" unicode="ğ" d="M32.5 -184.5q-30.5 21.5 -30.5 56.5q0 58 100 91.5t272 33.5q9 17 17 46.5t14 54.5q-19 -23 -70 -37.5t-100 -14.5q-80 0 -128 48t-48 127q0 99 53.5 194.5t136 156t160.5 60.5q74 0 113 -22t38 -72q0 -23 -24 -142.5t-53 -242.5t-43 -157q23 1 42.5 4t47.5 11l-19 -65 q-33 -10 -100 -12q-40 -64 -121.5 -102t-174.5 -38q-52 0 -82.5 21.5zM341 117q37 8 58.5 31.5t31.5 71.5l28 133q34 162 35 177q0 19 -8 27t-25 10t-56 2q-58 0 -124 -52.5t-111 -133t-45 -159.5q0 -52 31.5 -83.5t82.5 -31.5q65 0 102 8zM238.5 -122q53.5 21 89.5 56 q-110 -4 -184.5 -21.5t-74.5 -37.5q0 -7 18 -12.5t44 -5.5q54 0 107.5 21zM307 714.5q-28 18.5 -28 60.5q0 20 8 54h68q-6 -24 -6 -38q0 -18 11 -24.5t39 -6.5q44 0 62 14.5t26 54.5h67q-9 -52 -26.5 -80.5t-48 -40.5t-82.5 -12q-62 0 -90 18.5z" />
         <glyph glyph-name="gcircumflex" unicode="ĝ" d="M32.5 -184.5q-30.5 21.5 -30.5 56.5q0 58 100 91.5t272 33.5q9 17 17 46.5t14 54.5q-19 -23 -70 -37.5t-100 -14.5q-80 0 -128 48t-48 127q0 99 53.5 194.5t136 156t160.5 60.5q74 0 113 -22t38 -72q0 -23 -24 -142.5t-53 -242.5t-43 -157q23 1 42.5 4t47.5 11l-19 -65 q-33 -10 -100 -12q-40 -64 -121.5 -102t-174.5 -38q-52 0 -82.5 21.5zM341 117q37 8 58.5 31.5t31.5 71.5l28 133q34 162 35 177q0 19 -8 27t-25 10t-56 2q-58 0 -124 -52.5t-111 -133t-45 -159.5q0 -52 31.5 -83.5t82.5 -31.5q65 0 102 8zM238.5 -122q53.5 21 89.5 56 q-110 -4 -184.5 -21.5t-74.5 -37.5q0 -7 18 -12.5t44 -5.5q54 0 107.5 21zM540 715l-60 -42l-73 83l-109 -81l-45 42l169 127z" />
         <glyph glyph-name="uni0123" unicode="ģ" d="M32.5 -184.5q-30.5 21.5 -30.5 56.5q0 58 100 91.5t272 33.5q9 17 17 46.5t14 54.5q-19 -23 -70 -37.5t-100 -14.5q-80 0 -128 48t-48 127q0 99 53.5 194.5t136 156t160.5 60.5q74 0 113 -22t38 -72q0 -23 -24 -142.5t-53 -242.5t-43 -157q23 1 42.5 4t47.5 11l-19 -65 q-33 -10 -100 -12q-40 -64 -121.5 -102t-174.5 -38q-52 0 -82.5 21.5zM341 117q37 8 58.5 31.5t31.5 71.5l28 133q34 162 35 177q0 19 -8 27t-25 10t-56 2q-58 0 -124 -52.5t-111 -133t-45 -159.5q0 -52 31.5 -83.5t82.5 -31.5q65 0 102 8zM238.5 -122q53.5 21 89.5 56 q-110 -4 -184.5 -21.5t-74.5 -37.5q0 -7 18 -12.5t44 -5.5q54 0 107.5 21zM344 664q-11 8 -11 26q0 5 2 17q5 27 36.5 71.5t71.5 91.5l49 -2l-78 -124q19 -6 19 -29q0 -12 -2 -19q-5 -23 -16 -31.5t-36 -8.5q-24 0 -35 8z" />
         <glyph glyph-name="gdotaccent" unicode="ġ" d="M32.5 -184.5q-30.5 21.5 -30.5 56.5q0 58 100 91.5t272 33.5q9 17 17 46.5t14 54.5q-19 -23 -70 -37.5t-100 -14.5q-80 0 -128 48t-48 127q0 99 53.5 194.5t136 156t160.5 60.5q74 0 113 -22t38 -72q0 -23 -24 -142.5t-53 -242.5t-43 -157q23 1 42.5 4t47.5 11l-19 -65 q-33 -10 -100 -12q-40 -64 -121.5 -102t-174.5 -38q-52 0 -82.5 21.5zM341 117q37 8 58.5 31.5t31.5 71.5l28 133q34 162 35 177q0 19 -8 27t-25 10t-56 2q-58 0 -124 -52.5t-111 -133t-45 -159.5q0 -52 31.5 -83.5t82.5 -31.5q65 0 102 8zM238.5 -122q53.5 21 89.5 56 q-110 -4 -184.5 -21.5t-74.5 -37.5q0 -7 18 -12.5t44 -5.5q54 0 107.5 21zM361.5 745.5q-13.5 8.5 -13.5 29.5q0 11 3 26q7 31 22 43t48 12q31 0 44.5 -9t13.5 -30q0 -10 -3 -25q-7 -31 -22 -43t-48 -12q-31 0 -44.5 8.5z" />
         <glyph glyph-name="h" unicode="h" d="M545 25q-13 -18 -41.5 -28.5t-58.5 -10.5q-35 0 -56.5 18t-20.5 47q-3 79 79 350q16 51 16 88q0 80 -84 80q-46 0 -98.5 -45.5t-93 -113t-52.5 -127.5l-60 -283h-69l170 800h68l-68 -319q44 70 98 110.5t110 40.5q149 0 149 -127q0 -44 -20 -110q-35 -111 -55.5 -196 t-21.5 -123q1 -13 9 -20t22 -7q12 0 24.5 8t23.5 22z" />
         <glyph glyph-name="hbar" unicode="ħ" d="M545 25q-13 -18 -41.5 -28.5t-58.5 -10.5q-35 0 -56.5 18t-20.5 47q-3 79 79 350q16 51 16 88q0 80 -84 80q-46 0 -98.5 -45.5t-93 -113t-52.5 -127.5l-60 -283h-69l143 673h-59l13 63h59l14 64h68l-14 -64h134l-14 -63h-133l-41 -192q44 70 98 110.5t110 40.5 q149 0 149 -127q0 -44 -20 -110q-35 -111 -55.5 -196t-21.5 -123q1 -13 9 -20t22 -7q12 0 24.5 8t23.5 22z" />
         <glyph glyph-name="hcircumflex" unicode="ĥ" d="M545 25q-13 -18 -41.5 -28.5t-58.5 -10.5q-35 0 -56.5 18t-20.5 47q-3 79 79 350q16 51 16 88q0 80 -84 80q-46 0 -98.5 -45.5t-93 -113t-52.5 -127.5l-60 -283h-69l170 800h68l-68 -319q44 70 98 110.5t110 40.5q149 0 149 -127q0 -44 -20 -110q-35 -111 -55.5 -196 t-21.5 -123q1 -13 9 -20t22 -7q12 0 24.5 8t23.5 22zM368 855l-60 -42l-73 83l-109 -81l-45 42l169 127z" />
         <glyph glyph-name="i" unicode="i" d="M204 18q-42 32 -42 106q0 59 23 138l62 221q3 12 3 23q0 19 -11 31t-37 18l16 63q49 -9 75 -33t26 -61q0 -13 -3 -28l-64 -234q-20 -74 -20 -116q0 -52 26 -74.5t80 -22.5q36 0 60.5 16.5t58.5 63.5l53 -37q-44 -60 -82.5 -83t-93.5 -23q-88 0 -130 32zM287.5 745.5 q-13.5 8.5 -13.5 29.5q0 11 3 26q7 31 22 43t48 12q31 0 44.5 -9t13.5 -30q0 -10 -3 -25q-7 -31 -22 -43t-48 -12q-31 0 -44.5 8.5z" />
         <glyph glyph-name="dotlessi" unicode="ı" d="M204 18q-42 32 -42 106q0 59 23 138l62 221q3 12 3 23q0 19 -11 31t-37 18l16 63q49 -9 75 -33t26 -61q0 -13 -3 -28l-64 -234q-20 -74 -20 -116q0 -52 26 -74.5t80 -22.5q36 0 60.5 16.5t58.5 63.5l53 -37q-44 -60 -82.5 -83t-93.5 -23q-88 0 -130 32z" />
         <glyph glyph-name="iacute" unicode="í" d="M204 18q-42 32 -42 106q0 59 23 138l62 221q3 12 3 23q0 19 -11 31t-37 18l16 63q49 -9 75 -33t26 -61q0 -13 -3 -28l-64 -234q-20 -74 -20 -116q0 -52 26 -74.5t80 -22.5q36 0 60.5 16.5t58.5 63.5l53 -37q-44 -60 -82.5 -83t-93.5 -23q-88 0 -130 32zM480 811 l-174 -130l-37 48l175 130z" />
         <glyph glyph-name="uni01D0" unicode="ǐ" d="M204 18q-42 32 -42 106q0 59 23 138l62 221q3 12 3 23q0 19 -11 31t-37 18l16 63q49 -9 75 -33t26 -61q0 -13 -3 -28l-64 -234q-20 -74 -20 -116q0 -52 26 -74.5t80 -22.5q36 0 60.5 16.5t58.5 63.5l53 -37q-44 -60 -82.5 -83t-93.5 -23q-88 0 -130 32zM487 806 l-171 -129l-118 127l59 42l74 -81l109 83z" />
         <glyph glyph-name="icircumflex" unicode="î" d="M204 18q-42 32 -42 106q0 59 23 138l62 221q3 12 3 23q0 19 -11 31t-37 18l16 63q49 -9 75 -33t26 -61q0 -13 -3 -28l-64 -234q-20 -74 -20 -116q0 -52 26 -74.5t80 -22.5q36 0 60.5 16.5t58.5 63.5l53 -37q-44 -60 -82.5 -83t-93.5 -23q-88 0 -130 32zM466 715l-60 -42 l-73 83l-109 -81l-45 42l169 127z" />
         <glyph glyph-name="idieresis" unicode="ï" d="M204 18q-42 32 -42 106q0 59 23 138l62 221q3 12 3 23q0 19 -11 31t-37 18l16 63q49 -9 75 -33t26 -61q0 -13 -3 -28l-64 -234q-20 -74 -20 -116q0 -52 26 -74.5t80 -22.5q36 0 60.5 16.5t58.5 63.5l53 -37q-44 -60 -82.5 -83t-93.5 -23q-88 0 -130 32zM177.5 732 q-14.5 10 -14.5 32q0 11 3 24q6 31 21 42.5t48 11.5q31 0 45.5 -10.5t14.5 -32.5q0 -10 -3 -22q-7 -31 -22 -43t-48 -12q-30 0 -44.5 10zM393.5 732q-14.5 10 -14.5 32q0 11 3 24q6 31 21 42.5t48 11.5q31 0 45.5 -10.5t14.5 -32.5q0 -10 -3 -22q-7 -31 -22 -43t-48 -12 q-30 0 -44.5 10z" />
         <glyph glyph-name="i.loclTRK" d="M204 18q-42 32 -42 106q0 59 23 138l62 221q3 12 3 23q0 19 -11 31t-37 18l16 63q49 -9 75 -33t26 -61q0 -13 -3 -28l-64 -234q-20 -74 -20 -116q0 -52 26 -74.5t80 -22.5q36 0 60.5 16.5t58.5 63.5l53 -37q-44 -60 -82.5 -83t-93.5 -23q-88 0 -130 32zM287.5 745.5 q-13.5 8.5 -13.5 29.5q0 11 3 26q7 31 22 43t48 12q31 0 44.5 -9t13.5 -30q0 -10 -3 -25q-7 -31 -22 -43t-48 -12q-31 0 -44.5 8.5z" />
         <glyph glyph-name="uni1ECB" unicode="ị" d="M204 18q-42 32 -42 106q0 59 23 138l62 221q3 12 3 23q0 19 -11 31t-37 18l16 63q49 -9 75 -33t26 -61q0 -13 -3 -28l-64 -234q-20 -74 -20 -116q0 -52 26 -74.5t80 -22.5q36 0 60.5 16.5t58.5 63.5l53 -37q-44 -60 -82.5 -83t-93.5 -23q-88 0 -130 32zM287.5 745.5 q-13.5 8.5 -13.5 29.5q0 11 3 26q7 31 22 43t48 12q31 0 44.5 -9t13.5 -30q0 -10 -3 -25q-7 -31 -22 -43t-48 -12q-31 0 -44.5 8.5zM212.5 -216.5q-13.5 8.5 -13.5 29.5q0 11 3 26q7 31 22 43t48 12q31 0 44.5 -9t13.5 -30q0 -10 -3 -25q-7 -31 -22 -43t-48 -12 q-31 0 -44.5 8.5z" />
         <glyph glyph-name="igrave" unicode="ì" d="M204 18q-42 32 -42 106q0 59 23 138l62 221q3 12 3 23q0 19 -11 31t-37 18l16 63q49 -9 75 -33t26 -61q0 -13 -3 -28l-64 -234q-20 -74 -20 -116q0 -52 26 -74.5t80 -22.5q36 0 60.5 16.5t58.5 63.5l53 -37q-44 -60 -82.5 -83t-93.5 -23q-88 0 -130 32zM382 729l-54 -48 l-124 130l54 48z" />
         <glyph glyph-name="uni1EC9" unicode="ỉ" d="M204 18q-42 32 -42 106q0 59 23 138l62 221q3 12 3 23q0 19 -11 31t-37 18l16 63q49 -9 75 -33t26 -61q0 -13 -3 -28l-64 -234q-20 -74 -20 -116q0 -52 26 -74.5t80 -22.5q36 0 60.5 16.5t58.5 63.5l53 -37q-44 -60 -82.5 -83t-93.5 -23q-88 0 -130 32zM280 718 q34 7 55.5 20.5t24.5 30.5l1 5q0 9 -6.5 13.5t-15.5 4.5q-21 0 -49 -13t-54 -32l12 79q20 14 45.5 22t47.5 8q40 0 64.5 -20t24.5 -54q0 -44 -37.5 -78.5t-102.5 -47.5z" />
         <glyph glyph-name="imacron" unicode="ī" d="M204 18q-42 32 -42 106q0 59 23 138l62 221q3 12 3 23q0 19 -11 31t-37 18l16 63q49 -9 75 -33t26 -61q0 -13 -3 -28l-64 -234q-20 -74 -20 -116q0 -52 26 -74.5t80 -22.5q36 0 60.5 16.5t58.5 63.5l53 -37q-44 -60 -82.5 -83t-93.5 -23q-88 0 -130 32zM469 715h-293 l13 64h293z" />
         <glyph glyph-name="iogonek" unicode="į" d="M287.5 745.5q-13.5 8.5 -13.5 29.5q0 11 3 26q7 31 22 43t48 12q31 0 44.5 -9t13.5 -30q0 -10 -3 -25q-7 -31 -22 -43t-48 -12q-31 0 -44.5 8.5zM307 -57q-30 -20 -30 -42q0 -15 12 -23.5t34 -8.5q15 0 30 6t26 16l42 -49q-16 -16 -43 -26t-55 -10q-53 0 -83.5 20.5 t-30.5 58.5q0 27 25 53.5t67 48.5q-71 5 -105 37.5t-34 99.5q0 59 23 138l62 221q3 12 3 23q0 19 -11 31t-37 18l16 63q49 -9 75 -33t26 -61q0 -13 -3 -28l-64 -234q-20 -74 -20 -116q0 -52 26 -74.5t80 -22.5q36 0 60.5 16.5t58.5 63.5l53 -37q-28 -38 -51.5 -60t-49.5 -33 q-72 -36 -102 -56z" />
         <glyph glyph-name="itilde" unicode="ĩ" d="M204 18q-42 32 -42 106q0 59 23 138l62 221q3 12 3 23q0 19 -11 31t-37 18l16 63q49 -9 75 -33t26 -61q0 -13 -3 -28l-64 -234q-20 -74 -20 -116q0 -52 26 -74.5t80 -22.5q36 0 60.5 16.5t58.5 63.5l53 -37q-44 -60 -82.5 -83t-93.5 -23q-88 0 -130 32zM350 709.5 q-19 13.5 -40 36.5q-14 14 -22 20.5t-15 6.5q-32 0 -37 -51h-69q8 52 37.5 83.5t70.5 31.5q22 0 40 -13t40 -36q16 -16 23.5 -22t14.5 -6q31 0 37 48h68q-7 -51 -36.5 -81.5t-70.5 -30.5q-22 0 -41 13.5z" />
         <glyph glyph-name="j" unicode="j" d="M-27.5 -184.5q-30.5 21.5 -30.5 56.5q0 57 100 91t270 36q15 34 50.5 186t63.5 293q3 14 3 25q0 19 -10.5 30.5t-35.5 17.5l18 63q98 -20 98 -96q0 -13 -3 -28q-84 -418 -117 -493q29 0 47 3t44 12l-19 -66q-32 -10 -100 -12q-40 -64 -121.5 -102t-174.5 -38 q-52 0 -82.5 21.5zM178.5 -122q53.5 21 89.5 56q-110 -4 -184.5 -21.5t-74.5 -37.5q0 -7 18 -12.5t44 -5.5q54 0 107.5 21zM453.5 745.5q-13.5 8.5 -13.5 29.5q0 11 3 26q7 31 22 43t48 12q31 0 44.5 -9t13.5 -30q0 -10 -3 -25q-7 -31 -22 -43t-48 -12q-31 0 -44.5 8.5z" />
         <glyph glyph-name="uni0237" unicode="ȷ" d="M-27.5 -184.5q-30.5 21.5 -30.5 56.5q0 57 100 91t270 36q15 34 50.5 186t63.5 293q3 14 3 25q0 19 -10.5 30.5t-35.5 17.5l18 63q98 -20 98 -96q0 -13 -3 -28q-84 -418 -117 -493q29 0 47 3t44 12l-19 -66q-32 -10 -100 -12q-40 -64 -121.5 -102t-174.5 -38 q-52 0 -82.5 21.5zM178.5 -122q53.5 21 89.5 56q-110 -4 -184.5 -21.5t-74.5 -37.5q0 -7 18 -12.5t44 -5.5q54 0 107.5 21z" />
         <glyph glyph-name="jcircumflex" unicode="ĵ" d="M-27.5 -184.5q-30.5 21.5 -30.5 56.5q0 57 100 91t270 36q15 34 50.5 186t63.5 293q3 14 3 25q0 19 -10.5 30.5t-35.5 17.5l18 63q98 -20 98 -96q0 -13 -3 -28q-84 -418 -117 -493q29 0 47 3t44 12l-19 -66q-32 -10 -100 -12q-40 -64 -121.5 -102t-174.5 -38 q-52 0 -82.5 21.5zM178.5 -122q53.5 21 89.5 56q-110 -4 -184.5 -21.5t-74.5 -37.5q0 -7 18 -12.5t44 -5.5q54 0 107.5 21zM632 715l-60 -42l-73 83l-109 -81l-45 42l169 127z" />
         <glyph glyph-name="k" unicode="k" d="M446 69.5q19 20.5 32 49.5l47 -54q-30 -39 -59 -59t-61 -20q-45 0 -67.5 48t-24.5 134q-2 35 -16.5 68t-38.5 53l28 52q64 -1 113.5 17.5t77.5 54t28 81.5q0 34 -26.5 56t-61.5 22q-52 0 -100.5 -31t-86.5 -88t-59 -133l-68 -320h-68l62 293l4 17l104 490h68l-56 -263 q44 48 96.5 73.5t108.5 25.5q64 0 106.5 -37t42.5 -96q0 -54 -27 -100t-76.5 -78t-113.5 -43q13 -23 21 -52.5t8 -54.5q1 -64 6.5 -95t22.5 -31q15 0 34 20.5z" />
         <glyph glyph-name="uni0137" unicode="ķ" d="M446 69.5q19 20.5 32 49.5l47 -54q-30 -39 -59 -59t-61 -20q-45 0 -67.5 48t-24.5 134q-2 35 -16.5 68t-38.5 53l28 52q64 -1 113.5 17.5t77.5 54t28 81.5q0 34 -26.5 56t-61.5 22q-52 0 -100.5 -31t-86.5 -88t-59 -133l-68 -320h-68l62 293l4 17l104 490h68l-56 -263 q44 48 96.5 73.5t108.5 25.5q64 0 106.5 -37t42.5 -96q0 -54 -27 -100t-76.5 -78t-113.5 -43q13 -23 21 -52.5t8 -54.5q1 -64 6.5 -95t22.5 -31q15 0 34 20.5zM203 -122q-19 6 -19 30q0 5 2 17q4 23 15 31.5t36 8.5q24 0 35 -7.5t11 -24.5q0 -12 -2 -19q-6 -26 -37 -71.5 t-70 -90.5l-49 2z" />
         <glyph glyph-name="l" unicode="l" d="M396.5 72q33.5 23 56.5 58l53 -38q-34 -48 -82.5 -77t-93.5 -29q-57 0 -93.5 38t-41.5 102q-101 -81 -210 -127l-24 58q122 52 233 155q4 291 53 446.5t152 155.5q51 0 80 -36t29 -101q0 -122 -66.5 -253t-180.5 -240v-4q1 -58 21 -94.5t52 -36.5q29 0 62.5 23z M328.5 689q-28.5 -61 -46 -167.5t-20.5 -240.5q83 94 130.5 197.5t47.5 195.5q0 76 -49 76q-34 0 -62.5 -61z" />
         <glyph glyph-name="lacute" unicode="ĺ" d="M396.5 72q33.5 23 56.5 58l53 -38q-34 -48 -82.5 -77t-93.5 -29q-57 0 -93.5 38t-41.5 102q-101 -81 -210 -127l-24 58q122 52 233 155q4 291 53 446.5t152 155.5q51 0 80 -36t29 -101q0 -122 -66.5 -253t-180.5 -240v-4q1 -58 21 -94.5t52 -36.5q29 0 62.5 23z M328.5 689q-28.5 -61 -46 -167.5t-20.5 -240.5q83 94 130.5 197.5t47.5 195.5q0 76 -49 76q-34 0 -62.5 -61zM596 993l-174 -130l-37 48l175 130z" />
         <glyph glyph-name="lcaron" unicode="ľ" d="M441.5 424q-66.5 -131 -180.5 -240v-4q1 -58 21 -94.5t52 -36.5q29 0 62.5 23t56.5 58l53 -38q-34 -48 -82.5 -77t-93.5 -29q-57 0 -93.5 38t-41.5 102q-101 -81 -210 -127l-24 58q122 52 233 155q4 291 53 446.5t152 155.5q51 0 80 -36t29 -101q0 -122 -66.5 -253z M542 539l47 260h71l-63 -260h-55zM328.5 689q-28.5 -61 -46 -167.5t-20.5 -240.5q83 94 130.5 197.5t47.5 195.5q0 76 -49 76q-34 0 -62.5 -61z" />
         <glyph glyph-name="uni013C" unicode="ļ" d="M396.5 72q33.5 23 56.5 58l53 -38q-34 -48 -82.5 -77t-93.5 -29q-57 0 -93.5 38t-41.5 102q-101 -81 -210 -127l-24 58q122 52 233 155q4 291 53 446.5t152 155.5q51 0 80 -36t29 -101q0 -122 -66.5 -253t-180.5 -240v-4q1 -58 21 -94.5t52 -36.5q29 0 62.5 23z M328.5 689q-28.5 -61 -46 -167.5t-20.5 -240.5q83 94 130.5 197.5t47.5 195.5q0 76 -49 76q-34 0 -62.5 -61zM189 -122q-19 6 -19 30q0 5 2 17q4 23 15 31.5t36 8.5q24 0 35 -7.5t11 -24.5q0 -12 -2 -19q-6 -26 -37 -71.5t-70 -90.5l-49 2z" />
         <glyph glyph-name="lslash" unicode="ł" d="M484 530q-28 -90 -85.5 -179.5t-137.5 -166.5v-4q1 -58 21 -94.5t52 -36.5q29 0 62.5 23t56.5 58l53 -38q-34 -48 -82.5 -77t-93.5 -29q-57 0 -93.5 38t-41.5 102q-101 -81 -210 -127l-24 58q122 52 233 155q2 122 10 212l-53 -20l15 68l45 17q43 325 188 325 q51 0 80 -36t29 -101q0 -41 -7 -79l61 23l-18 -68zM328 687.5q-28 -62.5 -46 -171.5l143 54q15 53 15 104q0 76 -49 76q-35 0 -63 -62.5zM273 450q-10 -83 -11 -169q92 104 139 218z" />
         <glyph glyph-name="m" unicode="m" d="M431.5 4.5q-20.5 18.5 -20.5 49.5q0 79 81 347q26 84 26 125q0 22 -7.5 32.5t-23.5 10.5q-40 0 -64.5 -21.5t-44.5 -79t-44 -173.5l-61 -295h-68l84 400q9 42 15.5 77t6.5 53q0 21 -8 30t-26 9q-35 0 -56 -20t-40 -77t-45 -179l-62 -293h-68l112 524q2 10 2 15 q0 14 -7 22t-21 8q-10 0 -23.5 -7t-26.5 -20l-30 51q13 18 41.5 28.5t58.5 10.5q66 0 66 -72q49 72 104 72q38 0 56 -13t22.5 -30.5t5.5 -48.5q30 48 58.5 70t66.5 22q94 0 94 -96q0 -57 -29 -141q-37 -109 -57 -194t-19 -125q0 -13 8 -20t22 -7q12 0 25 8t23 22l30 -54 q-13 -18 -41.5 -28.5t-58.5 -10.5q-36 0 -56.5 18.5z" />
         <glyph glyph-name="n" unicode="n" d="M553 25q-14 -18 -42 -28.5t-58 -10.5q-35 0 -56 18t-22 47q0 44 21.5 140.5t58.5 210.5q17 51 17 89q0 78 -75 78q-42 0 -92 -44.5t-89.5 -110.5t-51.5 -123l-61 -291h-69l112 524q2 10 2 15q0 14 -8 22t-22 8q-20 0 -48 -27l-30 51q13 18 41.5 28.5t58.5 10.5 q33 0 56 -20t23 -53q0 -13 -4 -25l-13 -56q43 71 96.5 112.5t103.5 41.5q68 0 104 -31.5t36 -94.5q0 -46 -21 -111q-80 -245 -77 -319q0 -13 8.5 -20t22.5 -7q11 0 24 8.5t23 21.5z" />
         <glyph glyph-name="nacute" unicode="ń" d="M553 25q-14 -18 -42 -28.5t-58 -10.5q-35 0 -56 18t-22 47q0 44 21.5 140.5t58.5 210.5q17 51 17 89q0 78 -75 78q-42 0 -92 -44.5t-89.5 -110.5t-51.5 -123l-61 -291h-69l112 524q2 10 2 15q0 14 -8 22t-22 8q-20 0 -48 -27l-30 51q13 18 41.5 28.5t58.5 10.5 q33 0 56 -20t23 -53q0 -13 -4 -25l-13 -56q43 71 96.5 112.5t103.5 41.5q68 0 104 -31.5t36 -94.5q0 -46 -21 -111q-80 -245 -77 -319q0 -13 8.5 -20t22.5 -7q11 0 24 8.5t23 21.5zM544 811l-174 -130l-37 48l175 130z" />
         <glyph glyph-name="ncaron" unicode="ň" d="M553 25q-14 -18 -42 -28.5t-58 -10.5q-35 0 -56 18t-22 47q0 44 21.5 140.5t58.5 210.5q17 51 17 89q0 78 -75 78q-42 0 -92 -44.5t-89.5 -110.5t-51.5 -123l-61 -291h-69l112 524q2 10 2 15q0 14 -8 22t-22 8q-20 0 -48 -27l-30 51q13 18 41.5 28.5t58.5 10.5 q33 0 56 -20t23 -53q0 -13 -4 -25l-13 -56q43 71 96.5 112.5t103.5 41.5q68 0 104 -31.5t36 -94.5q0 -46 -21 -111q-80 -245 -77 -319q0 -13 8.5 -20t22.5 -7q11 0 24 8.5t23 21.5zM551 806l-171 -129l-118 127l59 42l74 -81l109 83z" />
         <glyph glyph-name="uni0146" unicode="ņ" d="M553 25q-14 -18 -42 -28.5t-58 -10.5q-35 0 -56 18t-22 47q0 44 21.5 140.5t58.5 210.5q17 51 17 89q0 78 -75 78q-42 0 -92 -44.5t-89.5 -110.5t-51.5 -123l-61 -291h-69l112 524q2 10 2 15q0 14 -8 22t-22 8q-20 0 -48 -27l-30 51q13 18 41.5 28.5t58.5 10.5 q33 0 56 -20t23 -53q0 -13 -4 -25l-13 -56q43 71 96.5 112.5t103.5 41.5q68 0 104 -31.5t36 -94.5q0 -46 -21 -111q-80 -245 -77 -319q0 -13 8.5 -20t22.5 -7q11 0 24 8.5t23 21.5zM199 -122q-19 6 -19 30q0 5 2 17q4 23 15 31.5t36 8.5q24 0 35 -7.5t11 -24.5q0 -12 -2 -19 q-6 -26 -37 -71.5t-70 -90.5l-49 2z" />
         <glyph glyph-name="eng" unicode="ŋ" d="M553 25q-17 -21 -55 -33q-13 -60 -34.5 -93.5t-58 -47.5t-97.5 -14l7 63q38 0 59 7t33.5 25.5t21.5 55.5q-25 6 -39 22.5t-15 40.5q0 44 21.5 140.5t58.5 210.5q17 51 17 89q0 78 -75 78q-42 0 -92 -44.5t-89.5 -110.5t-51.5 -123l-61 -291h-69l112 524q2 10 2 15 q0 14 -8 22t-22 8q-20 0 -48 -27l-30 51q13 18 41.5 28.5t58.5 10.5q33 0 56 -20t23 -53q0 -13 -4 -25l-13 -56q43 71 96.5 112.5t103.5 41.5q68 0 104 -31.5t36 -94.5q0 -46 -21 -111q-80 -245 -77 -319q0 -13 8.5 -20t22.5 -7q11 0 24 8.5t23 21.5z" />
         <glyph glyph-name="ntilde" unicode="ñ" d="M553 25q-14 -18 -42 -28.5t-58 -10.5q-35 0 -56 18t-22 47q0 44 21.5 140.5t58.5 210.5q17 51 17 89q0 78 -75 78q-42 0 -92 -44.5t-89.5 -110.5t-51.5 -123l-61 -291h-69l112 524q2 10 2 15q0 14 -8 22t-22 8q-20 0 -48 -27l-30 51q13 18 41.5 28.5t58.5 10.5 q33 0 56 -20t23 -53q0 -13 -4 -25l-13 -56q43 71 96.5 112.5t103.5 41.5q68 0 104 -31.5t36 -94.5q0 -46 -21 -111q-80 -245 -77 -319q0 -13 8.5 -20t22.5 -7q11 0 24 8.5t23 21.5zM414 709.5q-19 13.5 -40 36.5q-14 14 -22 20.5t-15 6.5q-32 0 -37 -51h-69q8 52 37.5 83.5 t70.5 31.5q22 0 40 -13t40 -36q16 -16 23.5 -22t14.5 -6q31 0 37 48h68q-7 -51 -36.5 -81.5t-70.5 -30.5q-22 0 -41 13.5z" />
         <glyph glyph-name="o" unicode="o" d="M99 23.5q-42 37.5 -42 125.5q0 65 21 164q19 93 61.5 165.5t100.5 113t124 40.5q95 0 137.5 -37.5t42.5 -125.5q0 -60 -22 -164q-20 -93 -62 -165.5t-100.5 -113t-123.5 -40.5q-95 0 -137 37.5zM332 82.5q44 33.5 77 93.5t49 137q18 89 18 141q0 63 -27 89t-90 26 q-47 0 -90.5 -33.5t-76.5 -93.5t-50 -137q-19 -86 -19 -142q0 -63 27.5 -88.5t90.5 -25.5q47 0 91 33.5z" />
         <glyph glyph-name="oacute" unicode="ó" d="M99 23.5q-42 37.5 -42 125.5q0 65 21 164q19 93 61.5 165.5t100.5 113t124 40.5q95 0 137.5 -37.5t42.5 -125.5q0 -60 -22 -164q-20 -93 -62 -165.5t-100.5 -113t-123.5 -40.5q-95 0 -137 37.5zM332 82.5q44 33.5 77 93.5t49 137q18 89 18 141q0 63 -27 89t-90 26 q-47 0 -90.5 -33.5t-76.5 -93.5t-50 -137q-19 -86 -19 -142q0 -63 27.5 -88.5t90.5 -25.5q47 0 91 33.5zM544 811l-174 -130l-37 48l175 130z" />
         <glyph glyph-name="uni01D2" unicode="ǒ" d="M99 23.5q-42 37.5 -42 125.5q0 65 21 164q19 93 61.5 165.5t100.5 113t124 40.5q95 0 137.5 -37.5t42.5 -125.5q0 -60 -22 -164q-20 -93 -62 -165.5t-100.5 -113t-123.5 -40.5q-95 0 -137 37.5zM332 82.5q44 33.5 77 93.5t49 137q18 89 18 141q0 63 -27 89t-90 26 q-47 0 -90.5 -33.5t-76.5 -93.5t-50 -137q-19 -86 -19 -142q0 -63 27.5 -88.5t90.5 -25.5q47 0 91 33.5zM551 806l-171 -129l-118 127l59 42l74 -81l109 83z" />
         <glyph glyph-name="ocircumflex" unicode="ô" d="M99 23.5q-42 37.5 -42 125.5q0 65 21 164q19 93 61.5 165.5t100.5 113t124 40.5q95 0 137.5 -37.5t42.5 -125.5q0 -60 -22 -164q-20 -93 -62 -165.5t-100.5 -113t-123.5 -40.5q-95 0 -137 37.5zM332 82.5q44 33.5 77 93.5t49 137q18 89 18 141q0 63 -27 89t-90 26 q-47 0 -90.5 -33.5t-76.5 -93.5t-50 -137q-19 -86 -19 -142q0 -63 27.5 -88.5t90.5 -25.5q47 0 91 33.5zM530 715l-60 -42l-73 83l-109 -81l-45 42l169 127z" />
         <glyph glyph-name="uni1ED1" unicode="ố" d="M99 23.5q-42 37.5 -42 125.5q0 65 21 164q19 93 61.5 165.5t100.5 113t124 40.5q95 0 137.5 -37.5t42.5 -125.5q0 -60 -22 -164q-20 -93 -62 -165.5t-100.5 -113t-123.5 -40.5q-95 0 -137 37.5zM332 82.5q44 33.5 77 93.5t49 137q18 89 18 141q0 63 -27 89t-90 26 q-47 0 -90.5 -33.5t-76.5 -93.5t-50 -137q-19 -86 -19 -142q0 -63 27.5 -88.5t90.5 -25.5q47 0 91 33.5zM530 715l-60 -42l-73 83l-109 -81l-45 42l169 127zM587 1016l-174 -130l-37 48l175 130z" />
         <glyph glyph-name="uni1ED9" unicode="ộ" d="M99 23.5q-42 37.5 -42 125.5q0 65 21 164q19 93 61.5 165.5t100.5 113t124 40.5q95 0 137.5 -37.5t42.5 -125.5q0 -60 -22 -164q-20 -93 -62 -165.5t-100.5 -113t-123.5 -40.5q-95 0 -137 37.5zM332 82.5q44 33.5 77 93.5t49 137q18 89 18 141q0 63 -27 89t-90 26 q-47 0 -90.5 -33.5t-76.5 -93.5t-50 -137q-19 -86 -19 -142q0 -63 27.5 -88.5t90.5 -25.5q47 0 91 33.5zM147.5 -216.5q-13.5 8.5 -13.5 29.5q0 11 3 26q7 31 22 43t48 12q31 0 44.5 -9t13.5 -30q0 -10 -3 -25q-7 -31 -22 -43t-48 -12q-31 0 -44.5 8.5zM530 715l-60 -42 l-73 83l-109 -81l-45 42l169 127z" />
         <glyph glyph-name="uni1ED3" unicode="ồ" d="M99 23.5q-42 37.5 -42 125.5q0 65 21 164q19 93 61.5 165.5t100.5 113t124 40.5q95 0 137.5 -37.5t42.5 -125.5q0 -60 -22 -164q-20 -93 -62 -165.5t-100.5 -113t-123.5 -40.5q-95 0 -137 37.5zM332 82.5q44 33.5 77 93.5t49 137q18 89 18 141q0 63 -27 89t-90 26 q-47 0 -90.5 -33.5t-76.5 -93.5t-50 -137q-19 -86 -19 -142q0 -63 27.5 -88.5t90.5 -25.5q47 0 91 33.5zM530 715l-60 -42l-73 83l-109 -81l-45 42l169 127zM489 934l-54 -48l-124 130l54 48z" />
         <glyph glyph-name="uni1ED5" unicode="ổ" d="M99 23.5q-42 37.5 -42 125.5q0 65 21 164q19 93 61.5 165.5t100.5 113t124 40.5q95 0 137.5 -37.5t42.5 -125.5q0 -60 -22 -164q-20 -93 -62 -165.5t-100.5 -113t-123.5 -40.5q-95 0 -137 37.5zM332 82.5q44 33.5 77 93.5t49 137q18 89 18 141q0 63 -27 89t-90 26 q-47 0 -90.5 -33.5t-76.5 -93.5t-50 -137q-19 -86 -19 -142q0 -63 27.5 -88.5t90.5 -25.5q47 0 91 33.5zM530 715l-60 -42l-73 83l-109 -81l-45 42l169 127zM387 923q34 7 55.5 20.5t24.5 30.5l1 5q0 9 -6.5 13.5t-15.5 4.5q-21 0 -49 -13t-54 -32l12 79q20 14 45.5 22 t47.5 8q40 0 64.5 -20t24.5 -54q0 -44 -37.5 -78.5t-102.5 -47.5z" />
         <glyph glyph-name="uni1ED7" unicode="ỗ" d="M99 23.5q-42 37.5 -42 125.5q0 65 21 164q19 93 61.5 165.5t100.5 113t124 40.5q95 0 137.5 -37.5t42.5 -125.5q0 -60 -22 -164q-20 -93 -62 -165.5t-100.5 -113t-123.5 -40.5q-95 0 -137 37.5zM332 82.5q44 33.5 77 93.5t49 137q18 89 18 141q0 63 -27 89t-90 26 q-47 0 -90.5 -33.5t-76.5 -93.5t-50 -137q-19 -86 -19 -142q0 -63 27.5 -88.5t90.5 -25.5q47 0 91 33.5zM530 715l-60 -42l-73 83l-109 -81l-45 42l169 127zM457 914.5q-19 13.5 -40 36.5q-14 14 -22 20.5t-15 6.5q-32 0 -37 -51h-69q8 52 37.5 83.5t70.5 31.5q22 0 40 -13 t40 -36q16 -16 23.5 -22t14.5 -6q31 0 37 48h68q-7 -51 -36.5 -81.5t-70.5 -30.5q-22 0 -41 13.5z" />
         <glyph glyph-name="odieresis" unicode="ö" d="M99 23.5q-42 37.5 -42 125.5q0 65 21 164q19 93 61.5 165.5t100.5 113t124 40.5q95 0 137.5 -37.5t42.5 -125.5q0 -60 -22 -164q-20 -93 -62 -165.5t-100.5 -113t-123.5 -40.5q-95 0 -137 37.5zM332 82.5q44 33.5 77 93.5t49 137q18 89 18 141q0 63 -27 89t-90 26 q-47 0 -90.5 -33.5t-76.5 -93.5t-50 -137q-19 -86 -19 -142q0 -63 27.5 -88.5t90.5 -25.5q47 0 91 33.5zM241.5 732q-14.5 10 -14.5 32q0 11 3 24q6 31 21 42.5t48 11.5q31 0 45.5 -10.5t14.5 -32.5q0 -10 -3 -22q-7 -31 -22 -43t-48 -12q-30 0 -44.5 10zM457.5 732 q-14.5 10 -14.5 32q0 11 3 24q6 31 21 42.5t48 11.5q31 0 45.5 -10.5t14.5 -32.5q0 -10 -3 -22q-7 -31 -22 -43t-48 -12q-30 0 -44.5 10z" />
         <glyph glyph-name="uni1ECD" unicode="ọ" d="M99 23.5q-42 37.5 -42 125.5q0 65 21 164q19 93 61.5 165.5t100.5 113t124 40.5q95 0 137.5 -37.5t42.5 -125.5q0 -60 -22 -164q-20 -93 -62 -165.5t-100.5 -113t-123.5 -40.5q-95 0 -137 37.5zM332 82.5q44 33.5 77 93.5t49 137q18 89 18 141q0 63 -27 89t-90 26 q-47 0 -90.5 -33.5t-76.5 -93.5t-50 -137q-19 -86 -19 -142q0 -63 27.5 -88.5t90.5 -25.5q47 0 91 33.5zM147.5 -216.5q-13.5 8.5 -13.5 29.5q0 11 3 26q7 31 22 43t48 12q31 0 44.5 -9t13.5 -30q0 -10 -3 -25q-7 -31 -22 -43t-48 -12q-31 0 -44.5 8.5z" />
         <glyph glyph-name="ograve" unicode="ò" d="M99 23.5q-42 37.5 -42 125.5q0 65 21 164q19 93 61.5 165.5t100.5 113t124 40.5q95 0 137.5 -37.5t42.5 -125.5q0 -60 -22 -164q-20 -93 -62 -165.5t-100.5 -113t-123.5 -40.5q-95 0 -137 37.5zM332 82.5q44 33.5 77 93.5t49 137q18 89 18 141q0 63 -27 89t-90 26 q-47 0 -90.5 -33.5t-76.5 -93.5t-50 -137q-19 -86 -19 -142q0 -63 27.5 -88.5t90.5 -25.5q47 0 91 33.5zM446 729l-54 -48l-124 130l54 48z" />
         <glyph glyph-name="uni1ECF" unicode="ỏ" d="M99 23.5q-42 37.5 -42 125.5q0 65 21 164q19 93 61.5 165.5t100.5 113t124 40.5q95 0 137.5 -37.5t42.5 -125.5q0 -60 -22 -164q-20 -93 -62 -165.5t-100.5 -113t-123.5 -40.5q-95 0 -137 37.5zM332 82.5q44 33.5 77 93.5t49 137q18 89 18 141q0 63 -27 89t-90 26 q-47 0 -90.5 -33.5t-76.5 -93.5t-50 -137q-19 -86 -19 -142q0 -63 27.5 -88.5t90.5 -25.5q47 0 91 33.5zM344 718q34 7 55.5 20.5t24.5 30.5l1 5q0 9 -6.5 13.5t-15.5 4.5q-21 0 -49 -13t-54 -32l12 79q20 14 45.5 22t47.5 8q40 0 64.5 -20t24.5 -54q0 -44 -37.5 -78.5 t-102.5 -47.5z" />
         <glyph glyph-name="ohorn" unicode="ơ" d="M670 726h69l-31 -142q-12 -58 -49.5 -93t-87.5 -35q-12 0 -27 5q-1 -57 -22 -156q-20 -93 -62 -165.5t-100.5 -113t-123.5 -40.5q-95 0 -137 37.5t-42 125.5q0 65 21 164q19 93 61.5 165.5t100.5 113t124 40.5q79 0 121 -25t54 -82q13 -5 30 -5q26 0 45.5 19.5t26.5 50.5 zM476 454q0 63 -27 89t-90 26q-47 0 -90.5 -33.5t-76.5 -93.5t-50 -137q-19 -86 -19 -142q0 -63 27.5 -88.5t90.5 -25.5q47 0 91 33.5t77 93.5t49 137q18 89 18 141z" />
         <glyph glyph-name="uni1EDB" unicode="ớ" d="M670 726h69l-31 -142q-12 -58 -49.5 -93t-87.5 -35q-12 0 -27 5q-1 -57 -22 -156q-20 -93 -62 -165.5t-100.5 -113t-123.5 -40.5q-95 0 -137 37.5t-42 125.5q0 65 21 164q19 93 61.5 165.5t100.5 113t124 40.5q79 0 121 -25t54 -82q13 -5 30 -5q26 0 45.5 19.5t26.5 50.5 zM476 454q0 63 -27 89t-90 26q-47 0 -90.5 -33.5t-76.5 -93.5t-50 -137q-19 -86 -19 -142q0 -63 27.5 -88.5t90.5 -25.5q47 0 91 33.5t77 93.5t49 137q18 89 18 141zM544 811l-174 -130l-37 48l175 130z" />
         <glyph glyph-name="uni1EE3" unicode="ợ" d="M670 726h69l-31 -142q-12 -58 -49.5 -93t-87.5 -35q-12 0 -27 5q-1 -57 -22 -156q-20 -93 -62 -165.5t-100.5 -113t-123.5 -40.5q-95 0 -137 37.5t-42 125.5q0 65 21 164q19 93 61.5 165.5t100.5 113t124 40.5q79 0 121 -25t54 -82q13 -5 30 -5q26 0 45.5 19.5t26.5 50.5 zM476 454q0 63 -27 89t-90 26q-47 0 -90.5 -33.5t-76.5 -93.5t-50 -137q-19 -86 -19 -142q0 -63 27.5 -88.5t90.5 -25.5q47 0 91 33.5t77 93.5t49 137q18 89 18 141zM147.5 -216.5q-13.5 8.5 -13.5 29.5q0 11 3 26q7 31 22 43t48 12q31 0 44.5 -9t13.5 -30q0 -10 -3 -25 q-7 -31 -22 -43t-48 -12q-31 0 -44.5 8.5z" />
         <glyph glyph-name="uni1EDD" unicode="ờ" d="M670 726h69l-31 -142q-12 -58 -49.5 -93t-87.5 -35q-12 0 -27 5q-1 -57 -22 -156q-20 -93 -62 -165.5t-100.5 -113t-123.5 -40.5q-95 0 -137 37.5t-42 125.5q0 65 21 164q19 93 61.5 165.5t100.5 113t124 40.5q79 0 121 -25t54 -82q13 -5 30 -5q26 0 45.5 19.5t26.5 50.5 zM476 454q0 63 -27 89t-90 26q-47 0 -90.5 -33.5t-76.5 -93.5t-50 -137q-19 -86 -19 -142q0 -63 27.5 -88.5t90.5 -25.5q47 0 91 33.5t77 93.5t49 137q18 89 18 141zM446 729l-54 -48l-124 130l54 48z" />
         <glyph glyph-name="uni1EDF" unicode="ở" d="M670 726h69l-31 -142q-12 -58 -49.5 -93t-87.5 -35q-12 0 -27 5q-1 -57 -22 -156q-20 -93 -62 -165.5t-100.5 -113t-123.5 -40.5q-95 0 -137 37.5t-42 125.5q0 65 21 164q19 93 61.5 165.5t100.5 113t124 40.5q79 0 121 -25t54 -82q13 -5 30 -5q26 0 45.5 19.5t26.5 50.5 zM476 454q0 63 -27 89t-90 26q-47 0 -90.5 -33.5t-76.5 -93.5t-50 -137q-19 -86 -19 -142q0 -63 27.5 -88.5t90.5 -25.5q47 0 91 33.5t77 93.5t49 137q18 89 18 141zM344 718q34 7 55.5 20.5t24.5 30.5l1 5q0 9 -6.5 13.5t-15.5 4.5q-21 0 -49 -13t-54 -32l12 79 q20 14 45.5 22t47.5 8q40 0 64.5 -20t24.5 -54q0 -44 -37.5 -78.5t-102.5 -47.5z" />
         <glyph glyph-name="uni1EE1" unicode="ỡ" d="M670 726h69l-31 -142q-12 -58 -49.5 -93t-87.5 -35q-12 0 -27 5q-1 -57 -22 -156q-20 -93 -62 -165.5t-100.5 -113t-123.5 -40.5q-95 0 -137 37.5t-42 125.5q0 65 21 164q19 93 61.5 165.5t100.5 113t124 40.5q79 0 121 -25t54 -82q13 -5 30 -5q26 0 45.5 19.5t26.5 50.5 zM476 454q0 63 -27 89t-90 26q-47 0 -90.5 -33.5t-76.5 -93.5t-50 -137q-19 -86 -19 -142q0 -63 27.5 -88.5t90.5 -25.5q47 0 91 33.5t77 93.5t49 137q18 89 18 141zM414 709.5q-19 13.5 -40 36.5q-14 14 -22 20.5t-15 6.5q-32 0 -37 -51h-69q8 52 37.5 83.5t70.5 31.5 q22 0 40 -13t40 -36q16 -16 23.5 -22t14.5 -6q31 0 37 48h68q-7 -51 -36.5 -81.5t-70.5 -30.5q-22 0 -41 13.5z" />
         <glyph glyph-name="ohungarumlaut" unicode="ő" d="M99 23.5q-42 37.5 -42 125.5q0 65 21 164q19 93 61.5 165.5t100.5 113t124 40.5q95 0 137.5 -37.5t42.5 -125.5q0 -60 -22 -164q-20 -93 -62 -165.5t-100.5 -113t-123.5 -40.5q-95 0 -137 37.5zM332 82.5q44 33.5 77 93.5t49 137q18 89 18 141q0 63 -27 89t-90 26 q-47 0 -90.5 -33.5t-76.5 -93.5t-50 -137q-19 -86 -19 -142q0 -63 27.5 -88.5t90.5 -25.5q47 0 91 33.5zM404 811l-174 -130l-37 48l174 130zM603 811l-174 -130l-37 48l174 130z" />
         <glyph glyph-name="omacron" unicode="ō" d="M99 23.5q-42 37.5 -42 125.5q0 65 21 164q19 93 61.5 165.5t100.5 113t124 40.5q95 0 137.5 -37.5t42.5 -125.5q0 -60 -22 -164q-20 -93 -62 -165.5t-100.5 -113t-123.5 -40.5q-95 0 -137 37.5zM332 82.5q44 33.5 77 93.5t49 137q18 89 18 141q0 63 -27 89t-90 26 q-47 0 -90.5 -33.5t-76.5 -93.5t-50 -137q-19 -86 -19 -142q0 -63 27.5 -88.5t90.5 -25.5q47 0 91 33.5zM533 715h-293l13 64h293z" />
         <glyph glyph-name="oslash" unicode="ø" d="M582 659l-61 -88q23 -36 23 -103q0 -66 -22 -163q-20 -93 -62 -165.5t-100.5 -113t-123.5 -40.5q-70 0 -109 19l-32 -45h-79l62 89q-21 37 -21 100q0 65 21 164q19 93 61.5 165.5t100.5 113t124 40.5q69 0 108 -19l32 46h78zM123 162q0 -27 4 -43l305 436q-25 14 -73 14 q-47 0 -90.5 -33.5t-76.5 -93.5t-50 -137q-19 -93 -19 -143zM476 455q0 29 -4 46l-305 -438q25 -14 74 -14q47 0 91 33.5t77 93.5t49 137q18 89 18 142z" />
         <glyph glyph-name="otilde" unicode="õ" d="M99 23.5q-42 37.5 -42 125.5q0 65 21 164q19 93 61.5 165.5t100.5 113t124 40.5q95 0 137.5 -37.5t42.5 -125.5q0 -60 -22 -164q-20 -93 -62 -165.5t-100.5 -113t-123.5 -40.5q-95 0 -137 37.5zM332 82.5q44 33.5 77 93.5t49 137q18 89 18 141q0 63 -27 89t-90 26 q-47 0 -90.5 -33.5t-76.5 -93.5t-50 -137q-19 -86 -19 -142q0 -63 27.5 -88.5t90.5 -25.5q47 0 91 33.5zM414 709.5q-19 13.5 -40 36.5q-14 14 -22 20.5t-15 6.5q-32 0 -37 -51h-69q8 52 37.5 83.5t70.5 31.5q22 0 40 -13t40 -36q16 -16 23.5 -22t14.5 -6q31 0 37 48h68 q-7 -51 -36.5 -81.5t-70.5 -30.5q-22 0 -41 13.5z" />
         <glyph glyph-name="oe" unicode="œ" d="M581.5 584.5q27.5 -47.5 27.5 -131.5q0 -71 -19 -156h-258q-17 -82 -17 -136q0 -53 13.5 -82.5t38.5 -29.5q21 0 55.5 25t66.5 63l48 -43q-40 -48 -88.5 -78t-86.5 -30q-41 0 -70 26.5t-37 71.5q-30 -45 -72.5 -71.5t-85.5 -26.5q-52 0 -80 45.5t-28 127.5q0 66 20 154 q22 93 59.5 165.5t85 113t97.5 40.5q47 0 72 -30.5t27 -83.5q29 52 70 83t82 31q52 0 79.5 -47.5zM167 79.5q32 30.5 59 90.5t42 143q16 84 16 152q0 49 -10 76.5t-28 27.5q-31 0 -63.5 -34t-61.5 -94t-48 -136q-20 -79 -20 -145q0 -51 13 -81t36 -30q33 0 65 30.5zM537 364 q9 51 9 93q0 52 -13 82t-36 30q-43 0 -84.5 -58t-65.5 -150z" />
         <glyph glyph-name="p" unicode="p" d="M521 597q39 -35 39 -119q0 -61 -22 -173q-19 -94 -59 -166.5t-96 -112.5t-121 -40q-54 0 -91.5 11.5t-46.5 33.5l-47 -213h-69l100 469q2 11 6 26q2 14 5 21l39 190q2 14 2 19q0 12 -8 19t-22 7q-12 0 -24.5 -8t-23.5 -22l-30 54q13 18 41.5 28.5t58.5 10.5q82 0 74 -78 q25 36 71 57t93 21q92 0 131 -35zM496 464q0 58 -25.5 81.5t-85.5 23.5q-76 0 -124.5 -52t-75.5 -182l-16 -83q-17 -82 -17 -122q0 -35 12 -52.5t35.5 -23t67.5 -5.5q70 0 125.5 72.5t81.5 191.5q22 101 22 151z" />
         <glyph glyph-name="thorn" unicode="þ" d="M502 597q40 -35 40 -118q0 -60 -24 -174q-20 -95 -60 -167t-95.5 -112t-120.5 -40q-54 0 -91.5 11.5t-46.5 33.5l-47 -213h-69l208 982h68l-53 -243q23 35 68 55t91 20q92 0 132 -35zM474 464q0 58 -25 81.5t-84 23.5q-53 0 -90.5 -23t-66 -80.5t-50.5 -160.5 q-26 -125 -26 -175q0 -36 11.5 -53.5t35 -22.5t68.5 -5q70 0 126.5 72.5t80.5 191.5q20 98 20 151z" />
         <glyph glyph-name="q" unicode="q" d="M502 618h68l-169 -800h-69l51 238q-22 -29 -66.5 -49.5t-90.5 -20.5q-92 0 -131 35t-39 119q0 61 22 173q20 95 60 167t95.5 112t120.5 40q58 0 92 -16.5t44 -43.5zM321.5 70q37.5 21 66 75t46.5 149l10 54q16 81 16 130q0 38 -11.5 57.5t-34.5 26.5t-65 7 q-70 0 -125.5 -72.5t-81.5 -191.5q-22 -101 -22 -151q0 -58 25.5 -81.5t85.5 -23.5q53 0 90.5 21z" />
         <glyph glyph-name="r" unicode="r" d="M441.5 68.5q23.5 19.5 34.5 50.5l62 -22q-18 -50 -59.5 -80.5t-89.5 -30.5q-47 0 -75.5 30.5t-28.5 80.5q0 83 33 185t94 204q-46 -23 -93.5 -36t-82.5 -13h-11q-39 -88 -114 -169l-40 54q56 56 91 124q-45 11 -70 37t-25 61q0 39 27.5 63.5t70.5 24.5q37 0 60 -26.5 t23 -70.5q0 -15 -3 -35q44 1 112 29t136 71l46 -32q-86 -128 -137 -252t-51 -213q1 -25 12.5 -39.5t29.5 -14.5q25 0 48.5 19.5zM183 504q4 15 4 31q0 21 -8 33t-22 12t-23 -9t-9 -23q0 -33 58 -44z" />
         <glyph glyph-name="racute" unicode="ŕ" d="M441.5 68.5q23.5 19.5 34.5 50.5l62 -22q-18 -50 -59.5 -80.5t-89.5 -30.5q-47 0 -75.5 30.5t-28.5 80.5q0 83 33 185t94 204q-46 -23 -93.5 -36t-82.5 -13h-11q-39 -88 -114 -169l-40 54q56 56 91 124q-45 11 -70 37t-25 61q0 39 27.5 63.5t70.5 24.5q37 0 60 -26.5 t23 -70.5q0 -15 -3 -35q44 1 112 29t136 71l46 -32q-86 -128 -137 -252t-51 -213q1 -25 12.5 -39.5t29.5 -14.5q25 0 48.5 19.5zM183 504q4 15 4 31q0 21 -8 33t-22 12t-23 -9t-9 -23q0 -33 58 -44zM544 811l-174 -130l-37 48l175 130z" />
         <glyph glyph-name="rcaron" unicode="ř" d="M441.5 68.5q23.5 19.5 34.5 50.5l62 -22q-18 -50 -59.5 -80.5t-89.5 -30.5q-47 0 -75.5 30.5t-28.5 80.5q0 83 33 185t94 204q-46 -23 -93.5 -36t-82.5 -13h-11q-39 -88 -114 -169l-40 54q56 56 91 124q-45 11 -70 37t-25 61q0 39 27.5 63.5t70.5 24.5q37 0 60 -26.5 t23 -70.5q0 -15 -3 -35q44 1 112 29t136 71l46 -32q-86 -128 -137 -252t-51 -213q1 -25 12.5 -39.5t29.5 -14.5q25 0 48.5 19.5zM183 504q4 15 4 31q0 21 -8 33t-22 12t-23 -9t-9 -23q0 -33 58 -44zM551 806l-171 -129l-118 127l59 42l74 -81l109 83z" />
         <glyph glyph-name="uni0157" unicode="ŗ" d="M441.5 68.5q23.5 19.5 34.5 50.5l62 -22q-18 -50 -59.5 -80.5t-89.5 -30.5q-47 0 -75.5 30.5t-28.5 80.5q0 83 33 185t94 204q-46 -23 -93.5 -36t-82.5 -13h-11q-39 -88 -114 -169l-40 54q56 56 91 124q-45 11 -70 37t-25 61q0 39 27.5 63.5t70.5 24.5q37 0 60 -26.5 t23 -70.5q0 -15 -3 -35q44 1 112 29t136 71l46 -32q-86 -128 -137 -252t-51 -213q1 -25 12.5 -39.5t29.5 -14.5q25 0 48.5 19.5zM183 504q4 15 4 31q0 21 -8 33t-22 12t-23 -9t-9 -23q0 -33 58 -44zM329 -122q-19 6 -19 30q0 5 2 17q4 23 15 31.5t36 8.5q24 0 35 -7.5 t11 -24.5q0 -12 -2 -19q-6 -26 -37 -71.5t-70 -90.5l-49 2z" />
         <glyph glyph-name="s" unicode="s" d="M92 19q-56 33 -87 90l62 30q20 -40 60.5 -65t83.5 -25q53 0 92.5 31.5t60.5 85.5t21 120q-1 59 -34 110q-43 -52 -110.5 -87t-135.5 -41l-10 63q63 4 122 37t94 82q-25 25 -39.5 52t-14.5 47q0 37 21.5 60t59.5 23q39 0 61 -22.5t22 -60.5q0 -20 -8 -45t-22 -47 q27 -36 43.5 -80t16.5 -89q0 -64 -17 -114.5t-54 -94.5q32 13 65.5 33t51.5 40l40 -43q-43 -55 -132 -89t-188 -34q-69 0 -125 33zM364 551q0 15 -6.5 23.5t-19.5 8.5q-11 0 -17.5 -7t-6.5 -20q0 -15 7.5 -29.5t23.5 -34.5q19 31 19 59z" />
         <glyph glyph-name="sacute" unicode="ś" d="M92 19q-56 33 -87 90l62 30q20 -40 60.5 -65t83.5 -25q53 0 92.5 31.5t60.5 85.5t21 120q-1 59 -34 110q-43 -52 -110.5 -87t-135.5 -41l-10 63q63 4 122 37t94 82q-25 25 -39.5 52t-14.5 47q0 37 21.5 60t59.5 23q39 0 61 -22.5t22 -60.5q0 -20 -8 -45t-22 -47 q27 -36 43.5 -80t16.5 -89q0 -64 -17 -114.5t-54 -94.5q32 13 65.5 33t51.5 40l40 -43q-43 -55 -132 -89t-188 -34q-69 0 -125 33zM364 551q0 15 -6.5 23.5t-19.5 8.5q-11 0 -17.5 -7t-6.5 -20q0 -15 7.5 -29.5t23.5 -34.5q19 31 19 59zM542 811l-174 -130l-37 48l175 130z " />
         <glyph glyph-name="scaron" unicode="š" d="M92 19q-56 33 -87 90l62 30q20 -40 60.5 -65t83.5 -25q53 0 92.5 31.5t60.5 85.5t21 120q-1 59 -34 110q-43 -52 -110.5 -87t-135.5 -41l-10 63q63 4 122 37t94 82q-25 25 -39.5 52t-14.5 47q0 37 21.5 60t59.5 23q39 0 61 -22.5t22 -60.5q0 -20 -8 -45t-22 -47 q27 -36 43.5 -80t16.5 -89q0 -64 -17 -114.5t-54 -94.5q32 13 65.5 33t51.5 40l40 -43q-43 -55 -132 -89t-188 -34q-69 0 -125 33zM364 551q0 15 -6.5 23.5t-19.5 8.5q-11 0 -17.5 -7t-6.5 -20q0 -15 7.5 -29.5t23.5 -34.5q19 31 19 59zM549 806l-171 -129l-118 127l59 42 l74 -81l109 83z" />
         <glyph glyph-name="scedilla" unicode="ş" d="M537 109q-39 -49 -114.5 -81.5t-163.5 -39.5l-8 -31q27 -7 44 -25t17 -42q0 -6 -2 -16q-8 -40 -42.5 -63.5t-84.5 -23.5q-30 0 -55.5 10.5t-37.5 26.5l35 49q10 -10 26.5 -16.5t33.5 -6.5q22 0 38.5 10t20.5 25q2 12 -15.5 18.5t-50.5 6.5l14 77q-62 6 -110.5 38 t-76.5 84l62 30q20 -40 60.5 -65t83.5 -25q53 0 92.5 31.5t60.5 85.5t21 120q-1 59 -34 110q-43 -52 -110.5 -87t-135.5 -41l-10 63q63 4 122 37t94 82q-25 25 -39.5 52t-14.5 47q0 37 21.5 60t59.5 23q39 0 61 -22.5t22 -60.5q0 -20 -8 -45t-22 -47q27 -36 43.5 -80 t16.5 -89q0 -64 -17 -114.5t-54 -94.5q32 13 65.5 33t51.5 40zM357.5 574.5q-6.5 8.5 -19.5 8.5q-11 0 -17.5 -7t-6.5 -20q0 -15 7.5 -29.5t23.5 -34.5q19 31 19 59q0 15 -6.5 23.5z" />
         <glyph glyph-name="scircumflex" unicode="ŝ" d="M92 19q-56 33 -87 90l62 30q20 -40 60.5 -65t83.5 -25q53 0 92.5 31.5t60.5 85.5t21 120q-1 59 -34 110q-43 -52 -110.5 -87t-135.5 -41l-10 63q63 4 122 37t94 82q-25 25 -39.5 52t-14.5 47q0 37 21.5 60t59.5 23q39 0 61 -22.5t22 -60.5q0 -20 -8 -45t-22 -47 q27 -36 43.5 -80t16.5 -89q0 -64 -17 -114.5t-54 -94.5q32 13 65.5 33t51.5 40l40 -43q-43 -55 -132 -89t-188 -34q-69 0 -125 33zM364 551q0 15 -6.5 23.5t-19.5 8.5q-11 0 -17.5 -7t-6.5 -20q0 -15 7.5 -29.5t23.5 -34.5q19 31 19 59zM528 715l-60 -42l-73 83l-109 -81 l-45 42l169 127z" />
         <glyph glyph-name="uni0219" unicode="ș" d="M92 19q-56 33 -87 90l62 30q20 -40 60.5 -65t83.5 -25q53 0 92.5 31.5t60.5 85.5t21 120q-1 59 -34 110q-43 -52 -110.5 -87t-135.5 -41l-10 63q63 4 122 37t94 82q-25 25 -39.5 52t-14.5 47q0 37 21.5 60t59.5 23q39 0 61 -22.5t22 -60.5q0 -20 -8 -45t-22 -47 q27 -36 43.5 -80t16.5 -89q0 -64 -17 -114.5t-54 -94.5q32 13 65.5 33t51.5 40l40 -43q-43 -55 -132 -89t-188 -34q-69 0 -125 33zM364 551q0 15 -6.5 23.5t-19.5 8.5q-11 0 -17.5 -7t-6.5 -20q0 -15 7.5 -29.5t23.5 -34.5q19 31 19 59zM196 -122q-19 6 -19 30q0 5 2 17 q4 23 15 31.5t36 8.5q24 0 35 -7.5t11 -24.5q0 -12 -2 -19q-6 -26 -37 -71.5t-70 -90.5l-49 2z" />
         <glyph glyph-name="germandbls" unicode="ß" d="M505 385.5q16 -25.5 16 -67.5q0 -37 -12 -93q-18 -86 -48.5 -134.5t-82.5 -69.5t-138 -21h-66l14 63h62q60 0 97.5 16t60.5 52.5t37 101.5q10 48 10 73q0 49 -30 68t-101 19h-46l13 64h17q62 0 98.5 12.5t58 43t33.5 88.5q8 40 8 63q0 48 -29.5 67.5t-99.5 19.5 q-52 0 -84 -14.5t-51.5 -48t-32.5 -93.5l-127 -595h-68l128 599q18 83 46 129t73.5 66t120.5 20q102 0 146.5 -30.5t44.5 -101.5q0 -42 -11 -89q-14 -68 -37 -103t-71 -61q35 -18 51 -43.5z" />
         <glyph glyph-name="t" unicode="t" d="M188.5 16.5q-34.5 30.5 -34.5 98.5q0 42 12 100l72 340h-124l14 63h124l38 182h68l-38 -182h208l-14 -63h-208l-73 -344q-11 -52 -11 -83q0 -42 20 -60.5t64 -18.5q54 0 80 13.5t47 51.5l60 -27q-33 -58 -74 -79.5t-118 -21.5q-78 0 -112.5 30.5z" />
         <glyph glyph-name="tbar" unicode="ŧ" d="M514 555h-208l-33 -155h209l-13 -63h-209l-27 -126q-11 -52 -11 -83q0 -42 20 -60.5t64 -18.5q54 0 80 13.5t47 51.5l60 -27q-33 -58 -74 -79.5t-118 -21.5q-78 0 -112.5 30.5t-34.5 98.5q0 42 12 100l26 122h-124l13 63h124l33 155h-124l14 63h124l38 182h68l-38 -182 h208z" />
         <glyph glyph-name="tcaron" unicode="ť" d="M462 673h-54l46 260h72zM188.5 16.5q-34.5 30.5 -34.5 98.5q0 42 12 100l72 340h-124l14 63h124l38 182h68l-38 -182h208l-14 -63h-208l-73 -344q-11 -52 -11 -83q0 -42 20 -60.5t64 -18.5q54 0 80 13.5t47 51.5l60 -27q-33 -58 -74 -79.5t-118 -21.5q-78 0 -112.5 30.5z " />
         <glyph glyph-name="uni0163" unicode="ţ" d="M306 555l-73 -344q-11 -52 -11 -83q0 -42 20 -60.5t64 -18.5q54 0 80 13.5t47 51.5l60 -27q-31 -56 -70.5 -77.5t-110.5 -23.5l-8 -29q28 -7 44 -25t16 -43q0 -10 -1 -15q-8 -40 -43 -63.5t-85 -23.5q-30 0 -55 10.5t-37 26.5l35 49q9 -10 25.5 -16.5t33.5 -6.5 q22 0 39 10t20 25q2 12 -15.5 18.5t-50.5 6.5l15 81q-48 10 -70 39.5t-22 83.5q0 38 13 101l72 340h-124l14 63h124l38 182h68l-38 -182h208l-14 -63h-208z" />
         <glyph glyph-name="uni021B" unicode="ț" d="M188.5 16.5q-34.5 30.5 -34.5 98.5q0 42 12 100l72 340h-124l14 63h124l38 182h68l-38 -182h208l-14 -63h-208l-73 -344q-11 -52 -11 -83q0 -42 20 -60.5t64 -18.5q54 0 80 13.5t47 51.5l60 -27q-33 -58 -74 -79.5t-118 -21.5q-78 0 -112.5 30.5zM249 -122q-19 6 -19 30 q0 5 2 17q4 23 15 31.5t36 8.5q24 0 35 -7.5t11 -24.5q0 -12 -2 -19q-6 -26 -37 -71.5t-70 -90.5l-49 2z" />
         <glyph glyph-name="u" unicode="u" d="M40 593q13 18 41.5 28.5t58.5 10.5q36 0 56.5 -18.5t20.5 -49.5q0 -45 -21 -140t-58 -208q-17 -54 -17 -87q0 -80 85 -80q41 0 88.5 44.5t85 110t49.5 123.5l61 291h69l-112 -524q-2 -10 -2 -15q0 -14 8 -22t22 -8q20 0 48 27l30 -51q-13 -18 -41.5 -28.5t-58.5 -10.5 q-33 0 -56 20.5t-23 53.5q0 11 3 24l14 56q-45 -73 -93 -113.5t-97 -40.5q-73 0 -111 32t-38 96q0 49 20 109q35 108 56 191t21 123q0 15 -8 23.5t-23 8.5q-12 0 -24.5 -8t-23.5 -22z" />
         <glyph glyph-name="uacute" unicode="ú" d="M40 593q13 18 41.5 28.5t58.5 10.5q36 0 56.5 -18.5t20.5 -49.5q0 -45 -21 -140t-58 -208q-17 -54 -17 -87q0 -80 85 -80q41 0 88.5 44.5t85 110t49.5 123.5l61 291h69l-112 -524q-2 -10 -2 -15q0 -14 8 -22t22 -8q20 0 48 27l30 -51q-13 -18 -41.5 -28.5t-58.5 -10.5 q-33 0 -56 20.5t-23 53.5q0 11 3 24l14 56q-45 -73 -93 -113.5t-97 -40.5q-73 0 -111 32t-38 96q0 49 20 109q35 108 56 191t21 123q0 15 -8 23.5t-23 8.5q-12 0 -24.5 -8t-23.5 -22zM538 811l-174 -130l-37 48l175 130z" />
         <glyph glyph-name="ubreve" unicode="ŭ" d="M40 593q13 18 41.5 28.5t58.5 10.5q36 0 56.5 -18.5t20.5 -49.5q0 -45 -21 -140t-58 -208q-17 -54 -17 -87q0 -80 85 -80q41 0 88.5 44.5t85 110t49.5 123.5l61 291h69l-112 -524q-2 -10 -2 -15q0 -14 8 -22t22 -8q20 0 48 27l30 -51q-13 -18 -41.5 -28.5t-58.5 -10.5 q-33 0 -56 20.5t-23 53.5q0 11 3 24l14 56q-45 -73 -93 -113.5t-97 -40.5q-73 0 -111 32t-38 96q0 49 20 109q35 108 56 191t21 123q0 15 -8 23.5t-23 8.5q-12 0 -24.5 -8t-23.5 -22zM291 714.5q-28 18.5 -28 60.5q0 20 8 54h68q-6 -24 -6 -38q0 -18 11 -24.5t39 -6.5 q44 0 62 14.5t26 54.5h67q-9 -52 -26.5 -80.5t-48 -40.5t-82.5 -12q-62 0 -90 18.5z" />
         <glyph glyph-name="uni01D4" unicode="ǔ" d="M40 593q13 18 41.5 28.5t58.5 10.5q36 0 56.5 -18.5t20.5 -49.5q0 -45 -21 -140t-58 -208q-17 -54 -17 -87q0 -80 85 -80q41 0 88.5 44.5t85 110t49.5 123.5l61 291h69l-112 -524q-2 -10 -2 -15q0 -14 8 -22t22 -8q20 0 48 27l30 -51q-13 -18 -41.5 -28.5t-58.5 -10.5 q-33 0 -56 20.5t-23 53.5q0 11 3 24l14 56q-45 -73 -93 -113.5t-97 -40.5q-73 0 -111 32t-38 96q0 49 20 109q35 108 56 191t21 123q0 15 -8 23.5t-23 8.5q-12 0 -24.5 -8t-23.5 -22zM545 806l-171 -129l-118 127l59 42l74 -81l109 83z" />
         <glyph glyph-name="ucircumflex" unicode="û" d="M40 593q13 18 41.5 28.5t58.5 10.5q36 0 56.5 -18.5t20.5 -49.5q0 -45 -21 -140t-58 -208q-17 -54 -17 -87q0 -80 85 -80q41 0 88.5 44.5t85 110t49.5 123.5l61 291h69l-112 -524q-2 -10 -2 -15q0 -14 8 -22t22 -8q20 0 48 27l30 -51q-13 -18 -41.5 -28.5t-58.5 -10.5 q-33 0 -56 20.5t-23 53.5q0 11 3 24l14 56q-45 -73 -93 -113.5t-97 -40.5q-73 0 -111 32t-38 96q0 49 20 109q35 108 56 191t21 123q0 15 -8 23.5t-23 8.5q-12 0 -24.5 -8t-23.5 -22zM524 715l-60 -42l-73 83l-109 -81l-45 42l169 127z" />
         <glyph glyph-name="udieresis" unicode="ü" d="M40 593q13 18 41.5 28.5t58.5 10.5q36 0 56.5 -18.5t20.5 -49.5q0 -45 -21 -140t-58 -208q-17 -54 -17 -87q0 -80 85 -80q41 0 88.5 44.5t85 110t49.5 123.5l61 291h69l-112 -524q-2 -10 -2 -15q0 -14 8 -22t22 -8q20 0 48 27l30 -51q-13 -18 -41.5 -28.5t-58.5 -10.5 q-33 0 -56 20.5t-23 53.5q0 11 3 24l14 56q-45 -73 -93 -113.5t-97 -40.5q-73 0 -111 32t-38 96q0 49 20 109q35 108 56 191t21 123q0 15 -8 23.5t-23 8.5q-12 0 -24.5 -8t-23.5 -22zM235.5 732q-14.5 10 -14.5 32q0 11 3 24q6 31 21 42.5t48 11.5q31 0 45.5 -10.5 t14.5 -32.5q0 -10 -3 -22q-7 -31 -22 -43t-48 -12q-30 0 -44.5 10zM451.5 732q-14.5 10 -14.5 32q0 11 3 24q6 31 21 42.5t48 11.5q31 0 45.5 -10.5t14.5 -32.5q0 -10 -3 -22q-7 -31 -22 -43t-48 -12q-30 0 -44.5 10z" />
         <glyph glyph-name="uni01D8" unicode="ǘ" d="M40 593q13 18 41.5 28.5t58.5 10.5q36 0 56.5 -18.5t20.5 -49.5q0 -45 -21 -140t-58 -208q-17 -54 -17 -87q0 -80 85 -80q41 0 88.5 44.5t85 110t49.5 123.5l61 291h69l-112 -524q-2 -10 -2 -15q0 -14 8 -22t22 -8q20 0 48 27l30 -51q-13 -18 -41.5 -28.5t-58.5 -10.5 q-33 0 -56 20.5t-23 53.5q0 11 3 24l14 56q-45 -73 -93 -113.5t-97 -40.5q-73 0 -111 32t-38 96q0 49 20 109q35 108 56 191t21 123q0 15 -8 23.5t-23 8.5q-12 0 -24.5 -8t-23.5 -22zM235.5 732q-14.5 10 -14.5 32q0 11 3 24q6 31 21 42.5t48 11.5q31 0 45.5 -10.5 t14.5 -32.5q0 -10 -3 -22q-7 -31 -22 -43t-48 -12q-30 0 -44.5 10zM451.5 732q-14.5 10 -14.5 32q0 11 3 24q6 31 21 42.5t48 11.5q31 0 45.5 -10.5t14.5 -32.5q0 -10 -3 -22q-7 -31 -22 -43t-48 -12q-30 0 -44.5 10zM583 1026l-174 -130l-37 48l175 130z" />
         <glyph glyph-name="uni01DA" unicode="ǚ" d="M40 593q13 18 41.5 28.5t58.5 10.5q36 0 56.5 -18.5t20.5 -49.5q0 -45 -21 -140t-58 -208q-17 -54 -17 -87q0 -80 85 -80q41 0 88.5 44.5t85 110t49.5 123.5l61 291h69l-112 -524q-2 -10 -2 -15q0 -14 8 -22t22 -8q20 0 48 27l30 -51q-13 -18 -41.5 -28.5t-58.5 -10.5 q-33 0 -56 20.5t-23 53.5q0 11 3 24l14 56q-45 -73 -93 -113.5t-97 -40.5q-73 0 -111 32t-38 96q0 49 20 109q35 108 56 191t21 123q0 15 -8 23.5t-23 8.5q-12 0 -24.5 -8t-23.5 -22zM235.5 732q-14.5 10 -14.5 32q0 11 3 24q6 31 21 42.5t48 11.5q31 0 45.5 -10.5 t14.5 -32.5q0 -10 -3 -22q-7 -31 -22 -43t-48 -12q-30 0 -44.5 10zM451.5 732q-14.5 10 -14.5 32q0 11 3 24q6 31 21 42.5t48 11.5q31 0 45.5 -10.5t14.5 -32.5q0 -10 -3 -22q-7 -31 -22 -43t-48 -12q-30 0 -44.5 10zM590 1021l-171 -129l-118 127l59 42l74 -81l109 83z" />
         <glyph glyph-name="uni01DC" unicode="ǜ" d="M40 593q13 18 41.5 28.5t58.5 10.5q36 0 56.5 -18.5t20.5 -49.5q0 -45 -21 -140t-58 -208q-17 -54 -17 -87q0 -80 85 -80q41 0 88.5 44.5t85 110t49.5 123.5l61 291h69l-112 -524q-2 -10 -2 -15q0 -14 8 -22t22 -8q20 0 48 27l30 -51q-13 -18 -41.5 -28.5t-58.5 -10.5 q-33 0 -56 20.5t-23 53.5q0 11 3 24l14 56q-45 -73 -93 -113.5t-97 -40.5q-73 0 -111 32t-38 96q0 49 20 109q35 108 56 191t21 123q0 15 -8 23.5t-23 8.5q-12 0 -24.5 -8t-23.5 -22zM235.5 732q-14.5 10 -14.5 32q0 11 3 24q6 31 21 42.5t48 11.5q31 0 45.5 -10.5 t14.5 -32.5q0 -10 -3 -22q-7 -31 -22 -43t-48 -12q-30 0 -44.5 10zM451.5 732q-14.5 10 -14.5 32q0 11 3 24q6 31 21 42.5t48 11.5q31 0 45.5 -10.5t14.5 -32.5q0 -10 -3 -22q-7 -31 -22 -43t-48 -12q-30 0 -44.5 10zM485 944l-54 -48l-124 130l54 48z" />
         <glyph glyph-name="uni01D6" unicode="ǖ" d="M40 593q13 18 41.5 28.5t58.5 10.5q36 0 56.5 -18.5t20.5 -49.5q0 -45 -21 -140t-58 -208q-17 -54 -17 -87q0 -80 85 -80q41 0 88.5 44.5t85 110t49.5 123.5l61 291h69l-112 -524q-2 -10 -2 -15q0 -14 8 -22t22 -8q20 0 48 27l30 -51q-13 -18 -41.5 -28.5t-58.5 -10.5 q-33 0 -56 20.5t-23 53.5q0 11 3 24l14 56q-45 -73 -93 -113.5t-97 -40.5q-73 0 -111 32t-38 96q0 49 20 109q35 108 56 191t21 123q0 15 -8 23.5t-23 8.5q-12 0 -24.5 -8t-23.5 -22zM235.5 732q-14.5 10 -14.5 32q0 11 3 24q6 31 21 42.5t48 11.5q31 0 45.5 -10.5 t14.5 -32.5q0 -10 -3 -22q-7 -31 -22 -43t-48 -12q-30 0 -44.5 10zM451.5 732q-14.5 10 -14.5 32q0 11 3 24q6 31 21 42.5t48 11.5q31 0 45.5 -10.5t14.5 -32.5q0 -10 -3 -22q-7 -31 -22 -43t-48 -12q-30 0 -44.5 10zM572 930h-293l13 64h293z" />
         <glyph glyph-name="uni1EE5" unicode="ụ" d="M40 593q13 18 41.5 28.5t58.5 10.5q36 0 56.5 -18.5t20.5 -49.5q0 -45 -21 -140t-58 -208q-17 -54 -17 -87q0 -80 85 -80q41 0 88.5 44.5t85 110t49.5 123.5l61 291h69l-112 -524q-2 -10 -2 -15q0 -14 8 -22t22 -8q20 0 48 27l30 -51q-13 -18 -41.5 -28.5t-58.5 -10.5 q-33 0 -56 20.5t-23 53.5q0 11 3 24l14 56q-45 -73 -93 -113.5t-97 -40.5q-73 0 -111 32t-38 96q0 49 20 109q35 108 56 191t21 123q0 15 -8 23.5t-23 8.5q-12 0 -24.5 -8t-23.5 -22zM107.5 -216.5q-13.5 8.5 -13.5 29.5q0 11 3 26q7 31 22 43t48 12q31 0 44.5 -9t13.5 -30 q0 -10 -3 -25q-7 -31 -22 -43t-48 -12q-31 0 -44.5 8.5z" />
         <glyph glyph-name="ugrave" unicode="ù" d="M40 593q13 18 41.5 28.5t58.5 10.5q36 0 56.5 -18.5t20.5 -49.5q0 -45 -21 -140t-58 -208q-17 -54 -17 -87q0 -80 85 -80q41 0 88.5 44.5t85 110t49.5 123.5l61 291h69l-112 -524q-2 -10 -2 -15q0 -14 8 -22t22 -8q20 0 48 27l30 -51q-13 -18 -41.5 -28.5t-58.5 -10.5 q-33 0 -56 20.5t-23 53.5q0 11 3 24l14 56q-45 -73 -93 -113.5t-97 -40.5q-73 0 -111 32t-38 96q0 49 20 109q35 108 56 191t21 123q0 15 -8 23.5t-23 8.5q-12 0 -24.5 -8t-23.5 -22zM440 729l-54 -48l-124 130l54 48z" />
         <glyph glyph-name="uni1EE7" unicode="ủ" d="M40 593q13 18 41.5 28.5t58.5 10.5q36 0 56.5 -18.5t20.5 -49.5q0 -45 -21 -140t-58 -208q-17 -54 -17 -87q0 -80 85 -80q41 0 88.5 44.5t85 110t49.5 123.5l61 291h69l-112 -524q-2 -10 -2 -15q0 -14 8 -22t22 -8q20 0 48 27l30 -51q-13 -18 -41.5 -28.5t-58.5 -10.5 q-33 0 -56 20.5t-23 53.5q0 11 3 24l14 56q-45 -73 -93 -113.5t-97 -40.5q-73 0 -111 32t-38 96q0 49 20 109q35 108 56 191t21 123q0 15 -8 23.5t-23 8.5q-12 0 -24.5 -8t-23.5 -22zM338 718q34 7 55.5 20.5t24.5 30.5l1 5q0 9 -6.5 13.5t-15.5 4.5q-21 0 -49 -13t-54 -32 l12 79q20 14 45.5 22t47.5 8q40 0 64.5 -20t24.5 -54q0 -44 -37.5 -78.5t-102.5 -47.5z" />
         <glyph glyph-name="uhorn" unicode="ư" d="M679 792h69l-31 -141q-12 -58 -49.5 -93t-87.5 -35q-17 0 -39 9l-94 -438q-2 -10 -2 -15q0 -14 8 -22t22 -8q20 0 48 27l30 -51q-13 -18 -41.5 -28.5t-58.5 -10.5q-33 0 -56 20.5t-23 53.5q0 11 3 24l14 56q-45 -73 -93 -113.5t-97 -40.5q-73 0 -111 32t-38 96 q0 49 20 109q35 108 56 191t21 123q0 15 -8 23.5t-23 8.5q-12 0 -24.5 -8t-23.5 -22l-30 54q13 18 41.5 28.5t58.5 10.5q36 0 56.5 -18.5t20.5 -49.5q0 -45 -21 -140t-58 -208q-17 -54 -17 -87q0 -80 85 -80q41 0 88.5 44.5t85 110t49.5 123.5l61 291h69l-6 -28q12 -4 25 -4 q26 0 45.5 19.5t26.5 50.5z" />
         <glyph glyph-name="uni1EE9" unicode="ứ" d="M679 792h69l-31 -141q-12 -58 -49.5 -93t-87.5 -35q-17 0 -39 9l-94 -438q-2 -10 -2 -15q0 -14 8 -22t22 -8q20 0 48 27l30 -51q-13 -18 -41.5 -28.5t-58.5 -10.5q-33 0 -56 20.5t-23 53.5q0 11 3 24l14 56q-45 -73 -93 -113.5t-97 -40.5q-73 0 -111 32t-38 96 q0 49 20 109q35 108 56 191t21 123q0 15 -8 23.5t-23 8.5q-12 0 -24.5 -8t-23.5 -22l-30 54q13 18 41.5 28.5t58.5 10.5q36 0 56.5 -18.5t20.5 -49.5q0 -45 -21 -140t-58 -208q-17 -54 -17 -87q0 -80 85 -80q41 0 88.5 44.5t85 110t49.5 123.5l61 291h69l-6 -28q12 -4 25 -4 q26 0 45.5 19.5t26.5 50.5zM538 811l-174 -130l-37 48l175 130z" />
         <glyph glyph-name="uni1EF1" unicode="ự" d="M679 792h69l-31 -141q-12 -58 -49.5 -93t-87.5 -35q-17 0 -39 9l-94 -438q-2 -10 -2 -15q0 -14 8 -22t22 -8q20 0 48 27l30 -51q-13 -18 -41.5 -28.5t-58.5 -10.5q-33 0 -56 20.5t-23 53.5q0 11 3 24l14 56q-45 -73 -93 -113.5t-97 -40.5q-73 0 -111 32t-38 96 q0 49 20 109q35 108 56 191t21 123q0 15 -8 23.5t-23 8.5q-12 0 -24.5 -8t-23.5 -22l-30 54q13 18 41.5 28.5t58.5 10.5q36 0 56.5 -18.5t20.5 -49.5q0 -45 -21 -140t-58 -208q-17 -54 -17 -87q0 -80 85 -80q41 0 88.5 44.5t85 110t49.5 123.5l61 291h69l-6 -28q12 -4 25 -4 q26 0 45.5 19.5t26.5 50.5zM107.5 -216.5q-13.5 8.5 -13.5 29.5q0 11 3 26q7 31 22 43t48 12q31 0 44.5 -9t13.5 -30q0 -10 -3 -25q-7 -31 -22 -43t-48 -12q-31 0 -44.5 8.5z" />
         <glyph glyph-name="uni1EEB" unicode="ừ" d="M679 792h69l-31 -141q-12 -58 -49.5 -93t-87.5 -35q-17 0 -39 9l-94 -438q-2 -10 -2 -15q0 -14 8 -22t22 -8q20 0 48 27l30 -51q-13 -18 -41.5 -28.5t-58.5 -10.5q-33 0 -56 20.5t-23 53.5q0 11 3 24l14 56q-45 -73 -93 -113.5t-97 -40.5q-73 0 -111 32t-38 96 q0 49 20 109q35 108 56 191t21 123q0 15 -8 23.5t-23 8.5q-12 0 -24.5 -8t-23.5 -22l-30 54q13 18 41.5 28.5t58.5 10.5q36 0 56.5 -18.5t20.5 -49.5q0 -45 -21 -140t-58 -208q-17 -54 -17 -87q0 -80 85 -80q41 0 88.5 44.5t85 110t49.5 123.5l61 291h69l-6 -28q12 -4 25 -4 q26 0 45.5 19.5t26.5 50.5zM440 729l-54 -48l-124 130l54 48z" />
         <glyph glyph-name="uni1EED" unicode="ử" d="M679 792h69l-31 -141q-12 -58 -49.5 -93t-87.5 -35q-17 0 -39 9l-94 -438q-2 -10 -2 -15q0 -14 8 -22t22 -8q20 0 48 27l30 -51q-13 -18 -41.5 -28.5t-58.5 -10.5q-33 0 -56 20.5t-23 53.5q0 11 3 24l14 56q-45 -73 -93 -113.5t-97 -40.5q-73 0 -111 32t-38 96 q0 49 20 109q35 108 56 191t21 123q0 15 -8 23.5t-23 8.5q-12 0 -24.5 -8t-23.5 -22l-30 54q13 18 41.5 28.5t58.5 10.5q36 0 56.5 -18.5t20.5 -49.5q0 -45 -21 -140t-58 -208q-17 -54 -17 -87q0 -80 85 -80q41 0 88.5 44.5t85 110t49.5 123.5l61 291h69l-6 -28q12 -4 25 -4 q26 0 45.5 19.5t26.5 50.5zM338 718q34 7 55.5 20.5t24.5 30.5l1 5q0 9 -6.5 13.5t-15.5 4.5q-21 0 -49 -13t-54 -32l12 79q20 14 45.5 22t47.5 8q40 0 64.5 -20t24.5 -54q0 -44 -37.5 -78.5t-102.5 -47.5z" />
         <glyph glyph-name="uni1EEF" unicode="ữ" d="M679 792h69l-31 -141q-12 -58 -49.5 -93t-87.5 -35q-17 0 -39 9l-94 -438q-2 -10 -2 -15q0 -14 8 -22t22 -8q20 0 48 27l30 -51q-13 -18 -41.5 -28.5t-58.5 -10.5q-33 0 -56 20.5t-23 53.5q0 11 3 24l14 56q-45 -73 -93 -113.5t-97 -40.5q-73 0 -111 32t-38 96 q0 49 20 109q35 108 56 191t21 123q0 15 -8 23.5t-23 8.5q-12 0 -24.5 -8t-23.5 -22l-30 54q13 18 41.5 28.5t58.5 10.5q36 0 56.5 -18.5t20.5 -49.5q0 -45 -21 -140t-58 -208q-17 -54 -17 -87q0 -80 85 -80q41 0 88.5 44.5t85 110t49.5 123.5l61 291h69l-6 -28q12 -4 25 -4 q26 0 45.5 19.5t26.5 50.5zM408 709.5q-19 13.5 -40 36.5q-14 14 -22 20.5t-15 6.5q-32 0 -37 -51h-69q8 52 37.5 83.5t70.5 31.5q22 0 40 -13t40 -36q16 -16 23.5 -22t14.5 -6q31 0 37 48h68q-7 -51 -36.5 -81.5t-70.5 -30.5q-22 0 -41 13.5z" />
         <glyph glyph-name="uhungarumlaut" unicode="ű" d="M40 593q13 18 41.5 28.5t58.5 10.5q36 0 56.5 -18.5t20.5 -49.5q0 -45 -21 -140t-58 -208q-17 -54 -17 -87q0 -80 85 -80q41 0 88.5 44.5t85 110t49.5 123.5l61 291h69l-112 -524q-2 -10 -2 -15q0 -14 8 -22t22 -8q20 0 48 27l30 -51q-13 -18 -41.5 -28.5t-58.5 -10.5 q-33 0 -56 20.5t-23 53.5q0 11 3 24l14 56q-45 -73 -93 -113.5t-97 -40.5q-73 0 -111 32t-38 96q0 49 20 109q35 108 56 191t21 123q0 15 -8 23.5t-23 8.5q-12 0 -24.5 -8t-23.5 -22zM398 811l-174 -130l-37 48l174 130zM597 811l-174 -130l-37 48l174 130z" />
         <glyph glyph-name="umacron" unicode="ū" d="M40 593q13 18 41.5 28.5t58.5 10.5q36 0 56.5 -18.5t20.5 -49.5q0 -45 -21 -140t-58 -208q-17 -54 -17 -87q0 -80 85 -80q41 0 88.5 44.5t85 110t49.5 123.5l61 291h69l-112 -524q-2 -10 -2 -15q0 -14 8 -22t22 -8q20 0 48 27l30 -51q-13 -18 -41.5 -28.5t-58.5 -10.5 q-33 0 -56 20.5t-23 53.5q0 11 3 24l14 56q-45 -73 -93 -113.5t-97 -40.5q-73 0 -111 32t-38 96q0 49 20 109q35 108 56 191t21 123q0 15 -8 23.5t-23 8.5q-12 0 -24.5 -8t-23.5 -22zM527 715h-293l13 64h293z" />
         <glyph glyph-name="uogonek" unicode="ų" d="M553 25q-4 -6 -12 -12h1l-3 -1q-14 -11 -32 -17q-53 -28 -77.5 -46t-24.5 -37q0 -15 12 -23.5t34 -8.5q15 0 30 6t26 16l42 -49q-16 -16 -43 -26t-55 -10q-53 0 -83.5 20.5t-30.5 58.5q0 25 22.5 50.5t59.5 46.5q-20 9 -32.5 26t-12.5 41q0 11 3 24l14 56 q-45 -73 -93 -113.5t-97 -40.5q-73 0 -111 32t-38 96q0 49 20 109q35 108 56 191t21 123q0 15 -8 23.5t-23 8.5q-12 0 -24.5 -8t-23.5 -22l-30 54q13 18 41.5 28.5t58.5 10.5q36 0 56.5 -18.5t20.5 -49.5q0 -45 -21 -140t-58 -208q-17 -54 -17 -87q0 -80 85 -80 q41 0 88.5 44.5t85 110t49.5 123.5l61 291h69l-112 -524q-2 -10 -2 -15q0 -14 8 -22t22 -8q20 0 48 27z" />
         <glyph glyph-name="uring" unicode="ů" d="M40 593q13 18 41.5 28.5t58.5 10.5q36 0 56.5 -18.5t20.5 -49.5q0 -45 -21 -140t-58 -208q-17 -54 -17 -87q0 -80 85 -80q41 0 88.5 44.5t85 110t49.5 123.5l61 291h69l-112 -524q-2 -10 -2 -15q0 -14 8 -22t22 -8q20 0 48 27l30 -51q-13 -18 -41.5 -28.5t-58.5 -10.5 q-33 0 -56 20.5t-23 53.5q0 11 3 24l14 56q-45 -73 -93 -113.5t-97 -40.5q-73 0 -111 32t-38 96q0 49 20 109q35 108 56 191t21 123q0 15 -8 23.5t-23 8.5q-12 0 -24.5 -8t-23.5 -22zM290.5 712q-27.5 19 -27.5 62q0 21 6 49q13 67 46.5 92.5t106.5 25.5q63 0 91.5 -19 t28.5 -63q0 -20 -6 -47q-14 -68 -48 -93.5t-108 -25.5q-62 0 -89.5 19zM442.5 771q18.5 14 26.5 52q3 15 3 24q0 18 -11.5 24t-41.5 6q-40 0 -58 -14t-25 -51q-4 -22 -4 -26q0 -17 11.5 -23t39.5 -6q41 0 59.5 14z" />
         <glyph glyph-name="utilde" unicode="ũ" d="M40 593q13 18 41.5 28.5t58.5 10.5q36 0 56.5 -18.5t20.5 -49.5q0 -45 -21 -140t-58 -208q-17 -54 -17 -87q0 -80 85 -80q41 0 88.5 44.5t85 110t49.5 123.5l61 291h69l-112 -524q-2 -10 -2 -15q0 -14 8 -22t22 -8q20 0 48 27l30 -51q-13 -18 -41.5 -28.5t-58.5 -10.5 q-33 0 -56 20.5t-23 53.5q0 11 3 24l14 56q-45 -73 -93 -113.5t-97 -40.5q-73 0 -111 32t-38 96q0 49 20 109q35 108 56 191t21 123q0 15 -8 23.5t-23 8.5q-12 0 -24.5 -8t-23.5 -22zM408 709.5q-19 13.5 -40 36.5q-14 14 -22 20.5t-15 6.5q-32 0 -37 -51h-69 q8 52 37.5 83.5t70.5 31.5q22 0 40 -13t40 -36q16 -16 23.5 -22t14.5 -6q31 0 37 48h68q-7 -51 -36.5 -81.5t-70.5 -30.5q-22 0 -41 13.5z" />
         <glyph glyph-name="v" unicode="v" d="M200 0l-79 618h69l67 -510q25 43 57.5 93t41.5 63q79 120 121.5 198t58.5 156h70q-21 -90 -68.5 -177.5t-136.5 -224.5q-91 -138 -133 -216h-68z" />
         <glyph glyph-name="w" unicode="w" d="M636 618q-20 -93 -53.5 -181t-93.5 -225q-65 -150 -89 -212h-67l-28 283q-26 -49 -81 -137q-7 -12 -35 -58t-50 -88h-67l22 618h69l-20 -494l18 29q56 91 86 150t43 121v3h68q0 -2 -1 -3l30 -290q26 62 40 93q57 135 88.5 218t51.5 173h69z" />
         <glyph glyph-name="wacute" unicode="ẃ" d="M636 618q-20 -93 -53.5 -181t-93.5 -225q-65 -150 -89 -212h-67l-28 283q-26 -49 -81 -137q-7 -12 -35 -58t-50 -88h-67l22 618h69l-20 -494l18 29q56 91 86 150t43 121v3h68q0 -2 -1 -3l30 -290q26 62 40 93q57 135 88.5 218t51.5 173h69zM544 811l-174 -130l-37 48 l175 130z" />
         <glyph glyph-name="wcircumflex" unicode="ŵ" d="M636 618q-20 -93 -53.5 -181t-93.5 -225q-65 -150 -89 -212h-67l-28 283q-26 -49 -81 -137q-7 -12 -35 -58t-50 -88h-67l22 618h69l-20 -494l18 29q56 91 86 150t43 121v3h68q0 -2 -1 -3l30 -290q26 62 40 93q57 135 88.5 218t51.5 173h69zM530 715l-60 -42l-73 83 l-109 -81l-45 42l169 127z" />
         <glyph glyph-name="wdieresis" unicode="ẅ" d="M636 618q-20 -93 -53.5 -181t-93.5 -225q-65 -150 -89 -212h-67l-28 283q-26 -49 -81 -137q-7 -12 -35 -58t-50 -88h-67l22 618h69l-20 -494l18 29q56 91 86 150t43 121v3h68q0 -2 -1 -3l30 -290q26 62 40 93q57 135 88.5 218t51.5 173h69zM241.5 732q-14.5 10 -14.5 32 q0 11 3 24q6 31 21 42.5t48 11.5q31 0 45.5 -10.5t14.5 -32.5q0 -10 -3 -22q-7 -31 -22 -43t-48 -12q-30 0 -44.5 10zM457.5 732q-14.5 10 -14.5 32q0 11 3 24q6 31 21 42.5t48 11.5q31 0 45.5 -10.5t14.5 -32.5q0 -10 -3 -22q-7 -31 -22 -43t-48 -12q-30 0 -44.5 10z" />
         <glyph glyph-name="wgrave" unicode="ẁ" d="M636 618q-20 -93 -53.5 -181t-93.5 -225q-65 -150 -89 -212h-67l-28 283q-26 -49 -81 -137q-7 -12 -35 -58t-50 -88h-67l22 618h69l-20 -494l18 29q56 91 86 150t43 121v3h68q0 -2 -1 -3l30 -290q26 62 40 93q57 135 88.5 218t51.5 173h69zM446 729l-54 -48l-124 130 l54 48z" />
         <glyph glyph-name="x" unicode="x" d="M591 618q-28 -73 -88 -145.5t-160 -172.5l122 -300h-78l-100 245q-74 -74 -123.5 -131.5t-80.5 -113.5h-77q37 70 96.5 136t161.5 166l-129 316h78l106 -261q74 75 123 137.5t74 123.5h75z" />
         <glyph glyph-name="y" unicode="y" d="M32.5 -184.5q-30.5 21.5 -30.5 56.5q0 58 100 91.5t271 35.5q12 22 21.5 55t11.5 39q-16 -25 -56.5 -36t-84.5 -11t-78.5 19t-53.5 50.5t-19 69.5q0 23 7 44q33 101 53 186.5t21 126.5q-1 13 -9 20t-22 7q-12 0 -24.5 -8t-23.5 -22l-30 54q13 18 41.5 28.5t58.5 10.5 q33 0 54 -17.5t21 -45.5q0 -48 -20 -140.5t-54 -201.5q-6 -19 -6 -38q0 -37 24 -58.5t64 -21.5q70 0 109.5 24t54.5 95l81 390h67q-70 -335 -97.5 -459.5t-44.5 -161.5q29 0 47 3t44 12l-19 -66q-33 -10 -100 -12q-40 -64 -121.5 -102t-174.5 -38q-52 0 -82.5 21.5z M238.5 -122q53.5 21 89.5 56q-110 -4 -184.5 -21.5t-74.5 -37.5q0 -7 18 -12.5t44 -5.5q54 0 107.5 21z" />
         <glyph glyph-name="yacute" unicode="ý" d="M32.5 -184.5q-30.5 21.5 -30.5 56.5q0 58 100 91.5t271 35.5q12 22 21.5 55t11.5 39q-16 -25 -56.5 -36t-84.5 -11t-78.5 19t-53.5 50.5t-19 69.5q0 23 7 44q33 101 53 186.5t21 126.5q-1 13 -9 20t-22 7q-12 0 -24.5 -8t-23.5 -22l-30 54q13 18 41.5 28.5t58.5 10.5 q33 0 54 -17.5t21 -45.5q0 -48 -20 -140.5t-54 -201.5q-6 -19 -6 -38q0 -37 24 -58.5t64 -21.5q70 0 109.5 24t54.5 95l81 390h67q-70 -335 -97.5 -459.5t-44.5 -161.5q29 0 47 3t44 12l-19 -66q-33 -10 -100 -12q-40 -64 -121.5 -102t-174.5 -38q-52 0 -82.5 21.5z M238.5 -122q53.5 21 89.5 56q-110 -4 -184.5 -21.5t-74.5 -37.5q0 -7 18 -12.5t44 -5.5q54 0 107.5 21zM544 811l-174 -130l-37 48l175 130z" />
         <glyph glyph-name="ycircumflex" unicode="ŷ" d="M32.5 -184.5q-30.5 21.5 -30.5 56.5q0 58 100 91.5t271 35.5q12 22 21.5 55t11.5 39q-16 -25 -56.5 -36t-84.5 -11t-78.5 19t-53.5 50.5t-19 69.5q0 23 7 44q33 101 53 186.5t21 126.5q-1 13 -9 20t-22 7q-12 0 -24.5 -8t-23.5 -22l-30 54q13 18 41.5 28.5t58.5 10.5 q33 0 54 -17.5t21 -45.5q0 -48 -20 -140.5t-54 -201.5q-6 -19 -6 -38q0 -37 24 -58.5t64 -21.5q70 0 109.5 24t54.5 95l81 390h67q-70 -335 -97.5 -459.5t-44.5 -161.5q29 0 47 3t44 12l-19 -66q-33 -10 -100 -12q-40 -64 -121.5 -102t-174.5 -38q-52 0 -82.5 21.5z M238.5 -122q53.5 21 89.5 56q-110 -4 -184.5 -21.5t-74.5 -37.5q0 -7 18 -12.5t44 -5.5q54 0 107.5 21zM530 715l-60 -42l-73 83l-109 -81l-45 42l169 127z" />
         <glyph glyph-name="ydieresis" unicode="ÿ" d="M32.5 -184.5q-30.5 21.5 -30.5 56.5q0 58 100 91.5t271 35.5q12 22 21.5 55t11.5 39q-16 -25 -56.5 -36t-84.5 -11t-78.5 19t-53.5 50.5t-19 69.5q0 23 7 44q33 101 53 186.5t21 126.5q-1 13 -9 20t-22 7q-12 0 -24.5 -8t-23.5 -22l-30 54q13 18 41.5 28.5t58.5 10.5 q33 0 54 -17.5t21 -45.5q0 -48 -20 -140.5t-54 -201.5q-6 -19 -6 -38q0 -37 24 -58.5t64 -21.5q70 0 109.5 24t54.5 95l81 390h67q-70 -335 -97.5 -459.5t-44.5 -161.5q29 0 47 3t44 12l-19 -66q-33 -10 -100 -12q-40 -64 -121.5 -102t-174.5 -38q-52 0 -82.5 21.5z M238.5 -122q53.5 21 89.5 56q-110 -4 -184.5 -21.5t-74.5 -37.5q0 -7 18 -12.5t44 -5.5q54 0 107.5 21zM241.5 732q-14.5 10 -14.5 32q0 11 3 24q6 31 21 42.5t48 11.5q31 0 45.5 -10.5t14.5 -32.5q0 -10 -3 -22q-7 -31 -22 -43t-48 -12q-30 0 -44.5 10zM457.5 732 q-14.5 10 -14.5 32q0 11 3 24q6 31 21 42.5t48 11.5q31 0 45.5 -10.5t14.5 -32.5q0 -10 -3 -22q-7 -31 -22 -43t-48 -12q-30 0 -44.5 10z" />
         <glyph glyph-name="uni1EF5" unicode="ỵ" d="M32.5 -184.5q-30.5 21.5 -30.5 56.5q0 58 100 91.5t271 35.5q12 22 21.5 55t11.5 39q-16 -25 -56.5 -36t-84.5 -11t-78.5 19t-53.5 50.5t-19 69.5q0 23 7 44q33 101 53 186.5t21 126.5q-1 13 -9 20t-22 7q-12 0 -24.5 -8t-23.5 -22l-30 54q13 18 41.5 28.5t58.5 10.5 q33 0 54 -17.5t21 -45.5q0 -48 -20 -140.5t-54 -201.5q-6 -19 -6 -38q0 -37 24 -58.5t64 -21.5q70 0 109.5 24t54.5 95l81 390h67q-70 -335 -97.5 -459.5t-44.5 -161.5q29 0 47 3t44 12l-19 -66q-33 -10 -100 -12q-40 -64 -121.5 -102t-174.5 -38q-52 0 -82.5 21.5z M238.5 -122q53.5 21 89.5 56q-110 -4 -184.5 -21.5t-74.5 -37.5q0 -7 18 -12.5t44 -5.5q54 0 107.5 21zM362.5 -265.5q-13.5 8.5 -13.5 29.5q0 11 3 26q7 31 22 43t48 12q31 0 44.5 -9t13.5 -30q0 -10 -3 -25q-7 -31 -22 -43t-48 -12q-31 0 -44.5 8.5z" />
         <glyph glyph-name="ygrave" unicode="ỳ" d="M32.5 -184.5q-30.5 21.5 -30.5 56.5q0 58 100 91.5t271 35.5q12 22 21.5 55t11.5 39q-16 -25 -56.5 -36t-84.5 -11t-78.5 19t-53.5 50.5t-19 69.5q0 23 7 44q33 101 53 186.5t21 126.5q-1 13 -9 20t-22 7q-12 0 -24.5 -8t-23.5 -22l-30 54q13 18 41.5 28.5t58.5 10.5 q33 0 54 -17.5t21 -45.5q0 -48 -20 -140.5t-54 -201.5q-6 -19 -6 -38q0 -37 24 -58.5t64 -21.5q70 0 109.5 24t54.5 95l81 390h67q-70 -335 -97.5 -459.5t-44.5 -161.5q29 0 47 3t44 12l-19 -66q-33 -10 -100 -12q-40 -64 -121.5 -102t-174.5 -38q-52 0 -82.5 21.5z M238.5 -122q53.5 21 89.5 56q-110 -4 -184.5 -21.5t-74.5 -37.5q0 -7 18 -12.5t44 -5.5q54 0 107.5 21zM446 729l-54 -48l-124 130l54 48z" />
         <glyph glyph-name="uni1EF7" unicode="ỷ" d="M32.5 -184.5q-30.5 21.5 -30.5 56.5q0 58 100 91.5t271 35.5q12 22 21.5 55t11.5 39q-16 -25 -56.5 -36t-84.5 -11t-78.5 19t-53.5 50.5t-19 69.5q0 23 7 44q33 101 53 186.5t21 126.5q-1 13 -9 20t-22 7q-12 0 -24.5 -8t-23.5 -22l-30 54q13 18 41.5 28.5t58.5 10.5 q33 0 54 -17.5t21 -45.5q0 -48 -20 -140.5t-54 -201.5q-6 -19 -6 -38q0 -37 24 -58.5t64 -21.5q70 0 109.5 24t54.5 95l81 390h67q-70 -335 -97.5 -459.5t-44.5 -161.5q29 0 47 3t44 12l-19 -66q-33 -10 -100 -12q-40 -64 -121.5 -102t-174.5 -38q-52 0 -82.5 21.5z M238.5 -122q53.5 21 89.5 56q-110 -4 -184.5 -21.5t-74.5 -37.5q0 -7 18 -12.5t44 -5.5q54 0 107.5 21zM344 718q34 7 55.5 20.5t24.5 30.5l1 5q0 9 -6.5 13.5t-15.5 4.5q-21 0 -49 -13t-54 -32l12 79q20 14 45.5 22t47.5 8q40 0 64.5 -20t24.5 -54q0 -44 -37.5 -78.5 t-102.5 -47.5z" />
         <glyph glyph-name="uni1EF9" unicode="ỹ" d="M32.5 -184.5q-30.5 21.5 -30.5 56.5q0 58 100 91.5t271 35.5q12 22 21.5 55t11.5 39q-16 -25 -56.5 -36t-84.5 -11t-78.5 19t-53.5 50.5t-19 69.5q0 23 7 44q33 101 53 186.5t21 126.5q-1 13 -9 20t-22 7q-12 0 -24.5 -8t-23.5 -22l-30 54q13 18 41.5 28.5t58.5 10.5 q33 0 54 -17.5t21 -45.5q0 -48 -20 -140.5t-54 -201.5q-6 -19 -6 -38q0 -37 24 -58.5t64 -21.5q70 0 109.5 24t54.5 95l81 390h67q-70 -335 -97.5 -459.5t-44.5 -161.5q29 0 47 3t44 12l-19 -66q-33 -10 -100 -12q-40 -64 -121.5 -102t-174.5 -38q-52 0 -82.5 21.5z M238.5 -122q53.5 21 89.5 56q-110 -4 -184.5 -21.5t-74.5 -37.5q0 -7 18 -12.5t44 -5.5q54 0 107.5 21zM414 709.5q-19 13.5 -40 36.5q-14 14 -22 20.5t-15 6.5q-32 0 -37 -51h-69q8 52 37.5 83.5t70.5 31.5q22 0 40 -13t40 -36q16 -16 23.5 -22t14.5 -6q31 0 37 48h68 q-7 -51 -36.5 -81.5t-70.5 -30.5q-22 0 -41 13.5z" />
         <glyph glyph-name="z" unicode="z" d="M481 25.5q25 5.5 55 15.5q34 11 60 16.5t63 5.5l-16 -63q-18 0 -33 -3.5t-28 -7.5t-17 -5q-36 -13 -70 -20t-86 -7q-32 0 -57.5 7.5t-60.5 21.5q-32 13 -50.5 18.5t-40.5 5.5q-14 0 -32 -3q-66 -8 -144 -7l11 42l430 513h-320l14 63h414l-9 -42l-428 -509l30 3q28 4 48 4 q30 0 53.5 -7t54.5 -21q30 -13 51.5 -19.5t48.5 -6.5q34 0 59 5.5z" />
         <glyph glyph-name="zacute" unicode="ź" d="M481 25.5q25 5.5 55 15.5q34 11 60 16.5t63 5.5l-16 -63q-18 0 -33 -3.5t-28 -7.5t-17 -5q-36 -13 -70 -20t-86 -7q-32 0 -57.5 7.5t-60.5 21.5q-32 13 -50.5 18.5t-40.5 5.5q-14 0 -32 -3q-66 -8 -144 -7l11 42l430 513h-320l14 63h414l-9 -42l-428 -509l30 3q28 4 48 4 q30 0 53.5 -7t54.5 -21q30 -13 51.5 -19.5t48.5 -6.5q34 0 59 5.5zM544 811l-174 -130l-37 48l175 130z" />
         <glyph glyph-name="zcaron" unicode="ž" d="M481 25.5q25 5.5 55 15.5q34 11 60 16.5t63 5.5l-16 -63q-18 0 -33 -3.5t-28 -7.5t-17 -5q-36 -13 -70 -20t-86 -7q-32 0 -57.5 7.5t-60.5 21.5q-32 13 -50.5 18.5t-40.5 5.5q-14 0 -32 -3q-66 -8 -144 -7l11 42l430 513h-320l14 63h414l-9 -42l-428 -509l30 3q28 4 48 4 q30 0 53.5 -7t54.5 -21q30 -13 51.5 -19.5t48.5 -6.5q34 0 59 5.5zM551 806l-171 -129l-118 127l59 42l74 -81l109 83z" />
         <glyph glyph-name="zdotaccent" unicode="ż" d="M481 25.5q25 5.5 55 15.5q34 11 60 16.5t63 5.5l-16 -63q-18 0 -33 -3.5t-28 -7.5t-17 -5q-36 -13 -70 -20t-86 -7q-32 0 -57.5 7.5t-60.5 21.5q-32 13 -50.5 18.5t-40.5 5.5q-14 0 -32 -3q-66 -8 -144 -7l11 42l430 513h-320l14 63h414l-9 -42l-428 -509l30 3q28 4 48 4 q30 0 53.5 -7t54.5 -21q30 -13 51.5 -19.5t48.5 -6.5q34 0 59 5.5zM351.5 745.5q-13.5 8.5 -13.5 29.5q0 11 3 26q7 31 22 43t48 12q31 0 44.5 -9t13.5 -30q0 -10 -3 -25q-7 -31 -22 -43t-48 -12q-31 0 -44.5 8.5z" />
         <glyph glyph-name="Q_j.liga" d="M557.5 847q13.5 -9 13.5 -30q0 -10 -3 -25q-7 -31 -22 -43t-48 -12q-31 0 -44.5 8.5t-13.5 29.5q0 11 3 26q7 31 22 43t48 12q31 0 44.5 -9zM401 614q98 -20 98 -96q0 -13 -3 -28q-84 -418 -117 -493q29 0 47 3t44 12l-19 -66q-32 -10 -100 -12q-40 -64 -121.5 -102 t-174.5 -38q-43 0 -72 14.5t-38 40.5q-28 -16 -55 -24t-60 -8q-44 0 -78 14t-58 34.5t-55 53.5l-22 23q-37 -27 -60.5 -39t-55.5 -12q-41 0 -63.5 20t-22.5 53q0 16 6 34q12 40 45 60q-22 41 -22 111q0 71 25 193l17 80q30 143 69 222.5t97.5 114.5t150.5 35 q101 0 145.5 -42t44.5 -139q0 -79 -25 -195l-16 -80q-25 -123 -57.5 -198.5t-78 -116t-112.5 -52.5q-15 -5 -33 -14q28 -33 48.5 -52t49 -32t65.5 -13q32 0 57 10t63 31q33 19 46 25q8 4 31 14q63 24 141 31q67 8 140 8q15 34 50.5 186t63.5 293q3 14 3 25q0 19 -10.5 30.5 t-35.5 17.5zM-464 358q-23 -113 -23 -177q0 -48 12.5 -77t40.5 -42l9 -3q26 -10 66 -10q33 0 60 6l5 2v0q67 18 108 88t71 217l17 80q24 120 24 178q0 72 -30 101.5t-98 29.5q-69 0 -114 -29.5t-76 -96.5t-56 -187zM-513.5 -39.5q6.5 -5.5 18.5 -5.5t22.5 6t21 14.5 t14.5 11.5q-13 8 -25 12q-13 5 -24 5q-15 0 -24.5 -8t-9.5 -22q0 -8 6.5 -13.5zM178.5 -122q53.5 21 89.5 56q-139 -6 -210 -28q-21 -8 -38 -16q-11 -8 -11 -15t18 -12.5t44 -5.5q54 0 107.5 21z" />
         <glyph glyph-name="a_e.liga" d="M373 78.5q58 26.5 99 68.5l33 -57q-49 -47 -118.5 -75.5t-132.5 -28.5q-48 0 -87 23.5t-61 65t-22 94.5v4q-44 -21 -63 -39q-20 -19 -54 -59q-38 -46 -67.5 -67.5t-74.5 -21.5q-29 0 -49.5 17.5t-21.5 44.5q0 31 5 41q-29 -47 -72 -75t-87 -28q-79 0 -127 49.5t-47 130.5 q0 103 51.5 212.5t130.5 181.5t155 72q75 0 113 -22.5t38 -73.5q0 -15 -16.5 -97t-71.5 -334q-3 -18 -3 -31t5 -19t19 -6t30 15t48 52q36 42 62 68q31 31 100 57q10 116 52.5 204.5t110 137.5t151.5 49q66 0 102 -33.5t36 -101.5q0 -83 -46.5 -136t-111 -82t-169.5 -62 q-42 -12 -61 -19q-1 -10 -1 -29q0 -51 33 -84t81 -33q51 0 109 26.5zM-288 107.5q53 58.5 82 150.5l12 58q41 189 42 214q-1 22 -20.5 30.5t-68.5 8.5q-55 0 -118 -64t-106 -158t-43 -177q1 -55 31.5 -88t80.5 -33q55 0 108 58.5zM285.5 531q-50.5 -38 -84 -107t-45.5 -160 l41 12q91 28 145.5 51t92.5 63.5t38 102.5q0 36 -22 56t-55 20q-60 0 -110.5 -38z" />
         <glyph glyph-name="a_l.liga" d="M396.5 72q33.5 23 56.5 58l53 -38q-34 -48 -82.5 -77t-93.5 -29q-57 0 -93.5 38t-41.5 102q-94 -67 -201 -112q-35 -14 -76 -21t-75 -7q-35 0 -61.5 18t-27.5 44q0 31 5 41q-29 -47 -72 -75t-87 -28q-79 0 -127 49.5t-47 130.5q0 103 51.5 212.5t130.5 181.5t155 72 q75 0 113 -22.5t38 -73.5q0 -15 -16.5 -97t-71.5 -334q-1 -6 -1 -16q0 -40 40 -40q48 0 105 23q123 54 224 134q3 298 54 453t166 155q51 0 80.5 -34.5t29.5 -92.5q0 -146 -70 -277t-193 -233q2 -57 22 -92.5t51 -35.5q29 0 62.5 23zM331.5 687.5q-31.5 -62.5 -49.5 -172 t-21 -249.5q91 90 142.5 196.5t51.5 221.5q0 31 -12.5 48.5t-36.5 17.5q-43 0 -74.5 -62.5zM-288 107.5q53 58.5 82 150.5l12 58q41 189 42 214q-1 22 -20.5 30.5t-68.5 8.5q-55 0 -118 -64t-106 -158t-43 -177q1 -55 31.5 -88t80.5 -33q55 0 108 58.5z" />
         <glyph glyph-name="d_e.liga" d="M373 78.5q58 26.5 99 68.5l33 -57q-49 -47 -118.5 -75.5t-132.5 -28.5q-69 0 -116 45.5t-53 117.5q-59 -29 -85 -61q-47 -59 -78 -80.5t-62 -21.5q-75 0 -76 65q-50 -65 -193 -65q-84 0 -121.5 36t-37.5 121q0 67 21 169q19 95 63 167.5t106.5 112.5t136.5 40 q45 0 78 -20t46 -53l52 241h69l-148 -696q-3 -15 -3 -27q0 -14 6.5 -21t22.5 -7q10 0 23 13t51 62l14 18q33 43 116 81q8 121 49.5 214t110.5 144t155 51q66 0 102 -33.5t36 -101.5q0 -79 -46.5 -134t-112 -88.5t-171.5 -73.5q-13 -5 -27.5 -10.5t-31.5 -12.5v-9 q0 -51 33 -84t81 -33q51 0 109 26.5zM-145 414q3 18 3 35q0 54 -28 87t-76 33q-84 0 -147.5 -72t-89.5 -193q-20 -94 -20 -145q0 -59 24 -84.5t75 -25.5q70 0 124 23.5t73 59.5zM283 529.5q-51 -39.5 -85 -112t-44 -167.5q34 12 51 19q89 32 142 57.5t89.5 66t36.5 100.5 q0 36 -22 56t-55 20q-62 0 -113 -39.5z" />
         <glyph glyph-name="d_l.liga" d="M402.5 72q33.5 23 56.5 58l53 -38q-33 -48 -82 -77t-94 -29q-57 0 -93.5 37.5t-42.5 101.5q-96 -68 -200 -112q-66 -27 -140 -27q-75 0 -76 65q-50 -65 -193 -65q-84 0 -121.5 36t-37.5 121q0 67 21 169q19 95 63 167.5t106.5 112.5t136.5 40q45 0 78 -20t46 -53l52 241 h69l-148 -695q-3 -18 -3 -30q0 -13 6 -19.5t23 -6.5q38 0 94 22q120 51 223 134q3 298 54 453.5t167 155.5q50 0 79.5 -34.5t29.5 -92.5q0 -146 -70 -276.5t-192 -233.5q2 -57 22 -92.5t51 -35.5q29 0 62.5 23zM337 687.5q-32 -62.5 -49.5 -172.5t-20.5 -250 q91 91 142.5 197.5t51.5 221.5q0 31 -12.5 48.5t-36.5 17.5q-43 0 -75 -62.5zM-145 414q3 18 3 35q0 54 -28 87t-76 33q-84 0 -147.5 -72t-89.5 -193q-20 -94 -20 -145q0 -59 24 -84.5t75 -25.5q70 0 124 23.5t73 59.5z" />
         <glyph glyph-name="e_e.liga" d="M373 78.5q58 26.5 99 68.5l33 -57q-49 -47 -118.5 -75.5t-132.5 -28.5q-48 0 -87 23.5t-61 65t-22 94.5v1q-78 -26 -112 -50q-192 -134 -318 -134q-48 0 -87 23.5t-61 65t-22 94.5v6q-30 -10 -45 -25l-30 55q16 23 79 43q11 114 53 201t109.5 135t150.5 48 q66 0 102 -33.5t36 -101.5q0 -87 -55 -144t-128 -87t-181 -62l-25 -7v-28q0 -51 33 -84t81 -33q51 0 117 30t160 94q25 17 60 31t86 30q9 117 51 206.5t110 139t153 49.5q66 0 102 -33.5t36 -101.5q0 -88 -56.5 -146t-133 -90.5t-199.5 -69.5v-22q0 -51 33 -84t81 -33 q51 0 109 26.5zM-314 532q-50 -37 -83.5 -105.5t-45.5 -158.5q101 27 162 49.5t107.5 66t46.5 109.5q0 36 -22 56t-55 20q-60 0 -110 -37zM284 530.5q-51 -38.5 -84.5 -109.5t-44.5 -164q102 30 166 56t108 70t44 110q0 36 -22 56t-55 20q-61 0 -112 -38.5z" />
         <glyph glyph-name="f_f.liga" d="M389.5 718.5q-29.5 -32.5 -55 -93t-63.5 -174.5h250l-13 -64h-259q-2 -6 -5.5 -18t-10.5 -30q149 -118 149 -255q0 -85 -24 -151t-68 -102.5t-103 -36.5q-46 0 -73.5 29.5t-27.5 78.5q0 65 19 175t52 228q-84 49 -98 82h-410l-16 -48q149 -119 149 -255q0 -85 -24 -151 t-68 -102.5t-103 -36.5q-46 0 -73.5 29.5t-27.5 78.5q0 65 19 175t52 228q-50 29 -76 52.5t-26 45.5t23 35t63 13h62q39 126 74 203.5t78 118.5t99 41q74 0 112.5 -38t48.5 -111l-64 -25q-6 58 -26.5 84.5t-66.5 26.5q-39 0 -68.5 -32.5t-55 -93t-63.5 -174.5h532 q39 126 74 203.5t78 118.5t99 41q74 0 112.5 -38t48.5 -111l-64 -25q-6 58 -26 84.5t-67 26.5q-39 0 -68.5 -32.5zM-477 381q17 -9 50 -23l12 36q-8 0 -28 4q-23 5 -38 5q-13 0 -13 -6q0 -7 17 -16zM114 387q11 -9 33 -18t26 -11l10 29h-69zM-310.5 177q-26.5 44 -77.5 88 q-27 -99 -43 -196t-17 -161q1 -23 11 -37t27 -14q37 0 65.5 28t44.5 79t16 116q0 53 -26.5 97zM289.5 177q-26.5 44 -77.5 88q-27 -99 -43 -196t-17 -161q1 -23 11 -37t27 -14q37 0 65.5 28t44.5 79t16 116q0 53 -26.5 97z" />
         <glyph glyph-name="f_f_i.liga" d="M296.5 745.5q-13.5 8.5 -13.5 29.5q0 11 3 26q7 31 22 43t48 12q31 0 44.5 -9t13.5 -30q0 -10 -3 -25q-7 -31 -22 -43t-48 -12q-31 0 -44.5 8.5zM518 92q-45 -60 -83 -83t-93 -23q-88 0 -130 32t-42 107q0 56 22 137l57 209q-64 -54 -163 -69t-179 -15h-258l-16 -48 q149 -119 149 -255q0 -85 -24 -151t-68 -102.5t-103 -36.5q-46 0 -73.5 29.5t-27.5 78.5q0 65 19 175t52 228q-84 49 -98 82h-410l-16 -48q149 -119 149 -255q0 -85 -24 -151t-68 -102.5t-103 -36.5q-46 0 -73.5 29.5t-27.5 78.5q0 65 19 175t52 228q-50 29 -76 52.5 t-26 45.5t23 35t63 13h62q39 126 74 203.5t78 118.5t99 41q74 0 112.5 -38t48.5 -111l-64 -25q-6 58 -26.5 84.5t-66.5 26.5q-39 0 -68.5 -32.5t-55 -93t-63.5 -174.5h532q39 126 74 203.5t78 118.5t99 41q74 0 112.5 -38t48.5 -111l-64 -25q-6 58 -26.5 84.5t-66.5 26.5 q-39 0 -68.5 -32.5t-55 -93t-63.5 -174.5h250q110 0 226 30.5t133 136.5h68l-88 -356q-18 -72 -18 -116q0 -53 25 -75t79 -22q36 0 60.5 16.5t58.5 63.5zM-1077 381q17 -9 50 -23l12 36q-8 0 -28 4q-23 5 -38 5q-13 0 -13 -6q0 -7 17 -16zM-486 387q11 -9 33 -18t26 -11 l10 29h-69zM-910.5 177q-26.5 44 -77.5 88q-27 -99 -43 -196t-17 -161q1 -23 11 -37t27 -14q37 0 65.5 28t44.5 79t16 116q0 53 -26.5 97zM-310.5 177q-26.5 44 -77.5 88q-27 -99 -43 -196t-17 -161q1 -23 11 -37t27 -14q37 0 65.5 28t44.5 79t16 116q0 53 -26.5 97z" />
         <glyph glyph-name="f_i.liga" d="M297.5 745.5q-13.5 8.5 -13.5 29.5q0 11 3 26q8 31 23 43t47 12t45.5 -8.5t13.5 -28.5q0 -7 -4 -27q-6 -31 -21 -43t-48 -12q-32 0 -45.5 8.5zM518 92q-45 -60 -83 -83t-93 -23q-88 0 -130 32t-42 107q0 56 22 137l57 209q-64 -54 -163 -69t-179 -15h-258l-16 -48 q149 -119 149 -255q0 -85 -24 -151t-68 -102.5t-103 -36.5q-46 0 -73.5 29.5t-27.5 78.5q0 65 19 175t52 228q-50 29 -76 52.5t-26 45.5t23 35t63 13h62q39 126 74 203.5t78 118.5t99 41q74 0 112.5 -38t48.5 -111l-64 -25q-6 58 -26.5 84.5t-66.5 26.5q-39 0 -68.5 -32.5 t-55 -93t-63.5 -174.5h250q110 0 226 30.5t133 136.5h68l-88 -356q-18 -72 -18 -116q0 -53 25 -75t79 -22q36 0 60.5 16.5t58.5 63.5zM-477 381q17 -9 50 -23l12 36q-8 0 -28 4q-23 5 -38 5q-13 0 -13 -6q0 -7 17 -16zM-310.5 177q-26.5 44 -77.5 88q-27 -99 -43 -196 t-17 -161q1 -23 11 -37t27 -14q37 0 65.5 28t44.5 79t16 116q0 53 -26.5 97z" />
         <glyph glyph-name="f_j.liga" d="M570.5 856.5q16.5 -11.5 16.5 -37.5q0 -11 -3 -28q-7 -37 -25.5 -51.5t-59.5 -14.5q-36 0 -52.5 11.5t-16.5 37.5q0 12 3 28q8 38 26.5 52t58.5 14q36 0 52.5 -11.5zM518 618q-26 -118 -78 -371q-28 -132 -39 -180t-21 -70q30 0 48 3t43 12l-18 -66q-34 -10 -101 -12 q-40 -64 -121 -102t-175 -38q-52 0 -82.5 21.5t-30.5 56.5q0 58 100 91.5t271 35.5q8 20 25 96t37 173q29 140 45 213l-1 -1q-45 -38 -152.5 -58.5t-208.5 -27.5t-151 -7h-259l-16 -48q149 -119 149 -255q0 -85 -24 -151t-68 -102.5t-103 -36.5q-46 0 -73.5 29.5t-27.5 78.5 q0 65 19 175t52 228q-50 29 -76 52.5t-26 45.5t23 35t63 13h62q39 126 74 203.5t78 118.5t99 41q74 0 112.5 -38t48.5 -111l-64 -25q-6 58 -26.5 84.5t-66.5 26.5q-39 0 -68.5 -32.5t-55 -93t-63.5 -174.5h250q77 0 184 8.5t215.5 43t128.5 104.5q0 3 2 11h67zM-477 381 q17 -9 50 -23l12 36q-8 0 -28 4q-23 5 -38 5q-13 0 -13 -6q0 -7 17 -16zM-310.5 177q-26.5 44 -77.5 88q-27 -99 -43 -196t-17 -161q1 -23 11 -37t27 -14q37 0 65.5 28t44.5 79t16 116q0 53 -26.5 97zM179.5 -122q53.5 21 89.5 56q-110 -4 -184.5 -21.5t-74.5 -37.5 q0 -7 18 -12.5t44 -5.5q54 0 107.5 21z" />
         <glyph glyph-name="f_r.liga" d="M442.5 68.5q23.5 19.5 34.5 50.5l62 -22q-17 -50 -58.5 -80.5t-90.5 -30.5q-47 0 -75.5 30.5t-28.5 80.5q0 82 33.5 184.5t94.5 204.5q-47 -23 -94.5 -36t-82.5 -13q-18 0 -27 1q-33 -35 -91 -56.5t-146 -21.5q-31 0 -65 3l-259 24l-16 -48q149 -119 149 -255 q0 -85 -24 -151t-68 -102.5t-103 -36.5q-46 0 -73.5 29.5t-27.5 78.5q0 65 19 175t52 228q-50 29 -76 52.5t-26 45.5t23 35t63 13h62q39 126 74 203.5t78 118.5t99 41q74 0 112.5 -38t48.5 -111l-64 -25q-6 58 -26.5 84.5t-66.5 26.5q-39 0 -68.5 -32.5t-55 -93 t-63.5 -174.5l250 -24q36 -4 73 -4q96 0 146 30q-35 14 -53.5 37t-18.5 54q0 39 27.5 63.5t70.5 24.5q38 0 61 -27.5t23 -72.5q0 -17 -5 -32q46 1 114 28.5t135 71.5l47 -32q-87 -127 -138 -251.5t-51 -213.5q1 -25 12.5 -39.5t29.5 -14.5q25 0 48.5 19.5zM183 505 q5 13 5 30q0 21 -7.5 33t-22.5 12q-14 0 -23 -9t-9 -23q0 -33 57 -43zM-477 381q17 -9 50 -23l12 36q-8 0 -28 4q-23 5 -38 5q-13 0 -13 -6q0 -7 17 -16zM-310.5 177q-26.5 44 -77.5 88q-27 -99 -43 -196t-17 -161q1 -23 11 -37t27 -14q37 0 65.5 28t44.5 79t16 116 q0 53 -26.5 97z" />
         <glyph glyph-name="f_s.liga" d="M539 109q-44 -55 -133 -89t-188 -34q-70 0 -125.5 33t-85.5 90l61 30q20 -40 60.5 -65t83.5 -25q53 0 92.5 31.5t60.5 85.5t21 120q-1 59 -34 110q-20 -18 -44 -25.5t-57 -7.5q-30 0 -104 9q-68 8 -120.5 12t-118.5 3h-259l-16 -48q149 -119 149 -255q0 -85 -24 -151 t-68 -102.5t-103 -36.5q-46 0 -73.5 29.5t-27.5 78.5q0 65 19 175t52 228q-50 29 -76 52.5t-26 45.5t23 35t63 13h62q39 126 74 203.5t78 118.5t99 41q74 0 112.5 -38t48.5 -111l-64 -25q-6 58 -26.5 84.5t-66.5 26.5q-39 0 -68.5 -32.5t-55 -93t-63.5 -174.5h250 q100 -1 218 -20q9 -1 40.5 -5.5t53.5 -4.5q26 0 45 6.5t34 22.5q-24 25 -39 52t-15 47q0 37 21.5 60t59.5 23q39 0 61.5 -22t22.5 -58q0 -21 -8 -47t-23 -48q28 -36 44.5 -81.5t16.5 -91.5q0 -61 -17.5 -111t-54.5 -94q32 13 65.5 33t51.5 40zM359 574.5q-7 8.5 -19 8.5 q-11 0 -18 -7t-7 -20q0 -15 7.5 -29.5t23.5 -34.5q20 33 20 59q0 15 -7 23.5zM-477 381q17 -9 50 -23l12 36q-8 0 -28 4q-23 5 -38 5q-13 0 -13 -6q0 -7 17 -16zM-310.5 177q-26.5 44 -77.5 88q-27 -99 -43 -196t-17 -161q1 -23 11 -37t27 -14q37 0 65.5 28t44.5 79t16 116 q0 53 -26.5 97z" />
         <glyph glyph-name="f_y.liga" d="M240 614.5q23 -17.5 23 -47.5q0 -47 -20 -138.5t-55 -201.5q-6 -19 -6 -38q0 -37 24 -58.5t64 -21.5q70 0 109.5 24t54.5 95l81 390h68l-9 -42q-66 -314 -92 -429t-42 -150q30 0 48 3t43 12l-18 -66q-34 -10 -101 -12q-40 -64 -121 -102t-175 -38q-52 0 -82.5 21.5 t-30.5 56.5q0 38 45.5 66.5t129.5 44t196 16.5q15 27 33 94q-15 -25 -56 -36t-85 -11t-78.5 19t-53.5 50.5t-19 69.5q0 23 7 44q34 103 54 187.5t20 125.5q0 13 -8.5 20t-22.5 7q-16 0 -35 -10.5t-52 -33.5q-58 -39 -110 -67t-133 -49.5t-186 -21.5l-16 -48 q149 -119 149 -255q0 -85 -24 -151t-68 -102.5t-103 -36.5q-46 0 -73.5 29.5t-27.5 78.5q0 65 19 175t52 228q-50 29 -76 52.5t-26 45.5t23 35t63 13h62q39 126 74 203.5t78 118.5t99 41q74 0 112.5 -38t48.5 -111l-64 -25q-6 58 -26.5 84.5t-66.5 26.5q-39 0 -68.5 -32.5 t-55 -93t-63.5 -174.5q83 0 149.5 17.5t113.5 42t102 60.5q52 33 81 47t60 14q40 0 63 -17.5zM-415 394q-8 0 -28 4q-23 5 -38 5q-9 0 -12 -3q-5 -7 13.5 -17.5t52.5 -24.5zM-344.5 -115q28.5 28 44.5 79t16 116q0 53 -26.5 97t-77.5 88q-27 -99 -43 -196t-17 -161 q1 -23 11 -37t27 -14q37 0 65.5 28zM239.5 -122q53.5 21 89.5 56q-110 -4 -184.5 -21.5t-74.5 -37.5q0 -7 18 -12.5t44 -5.5q54 0 107.5 21z" />
         <glyph glyph-name="h_e.liga" d="M373 78.5q58 26.5 99 68.5l33 -57q-49 -47 -118.5 -75.5t-132.5 -28.5q-70 0 -118 47.5t-52 122.5q-69 -31 -99 -68q-49 -60 -84 -81t-69 -21q-35 0 -56.5 18t-20.5 47q-3 79 79 350q16 51 16 88q0 80 -84 80q-46 0 -98.5 -45.5t-93 -113t-52.5 -127.5l-60 -283h-69 l169 800h69l-68 -319q44 71 97.5 111t110.5 40q149 0 149 -127q0 -44 -20 -110q-35 -111 -55.5 -196t-21.5 -123q1 -13 9 -20t22 -7q13 0 33.5 18t67.5 75q38 47 131 85q8 120 50 212t110.5 142.5t154.5 50.5q66 0 102 -33.5t36 -101.5q0 -79 -47 -133t-113 -87t-173 -72 l-56 -21v-15q0 -51 33 -84t81 -33q51 0 109 26.5zM284 529.5q-51 -39.5 -85 -110.5t-44 -165q24 8 36 13q93 32 149 57.5t94.5 67t38.5 101.5q0 36 -22 56t-55 20q-61 0 -112 -39.5z" />
         <glyph glyph-name="h_l.liga" d="M396.5 72q33.5 23 56.5 58l53 -38q-34 -48 -82.5 -77t-93.5 -29q-54 0 -90 34.5t-44 92.5q-83 -60 -175.5 -93.5t-188.5 -33.5q-35 0 -56.5 18t-20.5 47q-3 79 79 350q16 51 16 88q0 80 -84 80q-46 0 -98.5 -45.5t-93 -113t-52.5 -127.5l-60 -283h-69l169 800h69 l-68 -319q44 71 97.5 111t110.5 40q149 0 149 -127q0 -44 -20 -110q-35 -111 -55.5 -196t-21.5 -123q1 -13 9 -20t22 -7q87 0 174.5 38t165.5 106q2 303 53 462t167 159q51 0 80.5 -34.5t29.5 -92.5q0 -130 -71.5 -271.5t-191.5 -249.5q4 -52 23.5 -84.5t49.5 -32.5 q29 0 62.5 23zM331 686.5q-32 -63.5 -49.5 -175t-20.5 -253.5q89 96 141.5 210t52.5 216q0 31 -12.5 48.5t-36.5 17.5q-43 0 -75 -63.5z" />
         <glyph glyph-name="i_e.liga" d="M-322.5 736.5q-16.5 11.5 -16.5 38.5q0 12 3 27q8 37 26.5 51.5t58.5 14.5q36 0 52.5 -11.5t16.5 -37.5q0 -11 -3 -28q-7 -37 -25.5 -51.5t-59.5 -14.5q-36 0 -52.5 11.5zM373 78.5q58 26.5 99 68.5l33 -57q-49 -47 -118.5 -75.5t-132.5 -28.5q-48 0 -87 23.5t-61 65 t-22 94.5v8q-77 -27 -110 -56q-64 -57 -102.5 -85t-69 -39t-68.5 -11q-88 0 -130 32t-42 106q0 59 23 138l62 221q3 12 3 23q0 19 -11 31t-37 18l16 63q49 -9 75 -33t26 -61q0 -13 -3 -28l-64 -234q-20 -74 -20 -116q0 -52 26 -74.5t80 -22.5q25 0 46 8.5t52.5 32t96.5 78.5 q26 21 64 38.5t90 34.5q10 116 52.5 204.5t110 137.5t151.5 49q66 0 102 -33.5t36 -101.5q0 -83 -52 -138t-124.5 -86t-186.5 -66l-25 -8q-1 -10 -1 -30q0 -51 33 -84t81 -33q51 0 109 26.5zM284.5 531q-50.5 -38 -84 -107.5t-44.5 -161.5q105 32 167 56.5t106 67.5t44 107 q0 36 -22 56t-55 20q-61 0 -111.5 -38z" />
         <glyph glyph-name="i_l.liga" d="M-322.5 736.5q-16.5 11.5 -16.5 38.5q0 12 3 27q8 37 26.5 51.5t58.5 14.5q36 0 52.5 -11.5t16.5 -37.5q0 -11 -3 -28q-7 -37 -25.5 -51.5t-59.5 -14.5q-36 0 -52.5 11.5zM396.5 72q33.5 23 56.5 58l53 -38q-34 -48 -82.5 -77t-93.5 -29q-61 0 -98.5 44t-37.5 116v20 q-110 -83 -229.5 -131.5t-230.5 -48.5q-88 0 -130 32t-42 106q0 59 23 138l62 221q3 12 3 23q0 19 -11 31t-37 18l16 63q49 -9 75 -33t26 -61q0 -13 -3 -28l-64 -234q-20 -74 -20 -116q0 -52 26 -74.5t80 -22.5q105 0 226.5 56t230.5 149q6 275 57 417.5t162 142.5 q51 0 80.5 -34.5t29.5 -92.5q0 -111 -72 -235t-191 -231v-41q1 -58 21 -94.5t52 -36.5q29 0 62.5 23zM309 631q-37 -119 -46 -313q88 90 140 185.5t52 180.5q0 31 -12.5 48.5t-36.5 17.5q-60 0 -97 -119z" />
         <glyph glyph-name="k_e.liga" d="M373 78.5q58 26.5 99 68.5l33 -57q-49 -47 -118.5 -75.5t-132.5 -28.5q-48 0 -86.5 23t-61 64t-22.5 93q-73 -29 -102 -58q-76 -73 -110 -97.5t-67 -24.5q-45 0 -67.5 48t-24.5 134q-2 35 -16.5 68t-38.5 53l28 52q64 -1 113.5 17.5t77.5 54t28 81.5q0 34 -26.5 56 t-61.5 22q-52 0 -100.5 -31t-86.5 -88t-59 -133l-68 -320h-68l62 293l4 17l104 490h68l-56 -263q44 48 96.5 73.5t108.5 25.5q64 0 106.5 -37t42.5 -96q0 -54 -27 -100t-76.5 -78t-113.5 -43q13 -23 21 -52.5t8 -54.5q1 -64 6.5 -95t22.5 -31q13 0 34 18.5t80 78.5l17 17 q23 23 58.5 41t85.5 36q10 116 52 205t110 138t152 49q66 0 102 -33.5t36 -101.5q0 -82 -50 -137.5t-120.5 -87.5t-182.5 -70l-36 -12v-21q0 -51 33 -84t81 -33q51 0 109 26.5zM285.5 531q-50.5 -38 -84.5 -107.5t-45 -161.5q110 34 169.5 58t103.5 66t44 107q0 36 -22 56 t-55 20q-60 0 -110.5 -38z" />
         <glyph glyph-name="k_l.liga" d="M396.5 72q33.5 23 56.5 58l53 -38q-34 -48 -82.5 -77t-93.5 -29q-55 0 -91 35.5t-43 95.5q-87 -62 -186.5 -96.5t-204.5 -34.5q-45 0 -67.5 48t-24.5 134q-2 35 -16.5 68t-38.5 53l28 52q64 -1 113.5 17.5t77.5 54t28 81.5q0 34 -26.5 56t-61.5 22q-52 0 -100.5 -31 t-86.5 -88t-59 -133l-68 -320h-68l62 293l4 17l104 490h68l-56 -263q44 48 96.5 73.5t108.5 25.5q64 0 106.5 -37t42.5 -96q0 -54 -27 -100t-76.5 -78t-113.5 -43q13 -23 21 -52.5t8 -54.5q1 -64 6.5 -95t22.5 -31q102 0 199.5 40t182.5 111q2 300 53 457t167 157 q51 0 80.5 -34.5t29.5 -92.5q0 -130 -71 -270t-192 -247q3 -55 23 -88t50 -33q29 0 62.5 23zM331.5 687q-31.5 -63 -49.5 -173t-21 -251q90 94 142 206.5t52 214.5q0 31 -12.5 48.5t-36.5 17.5q-43 0 -74.5 -63z" />
         <glyph glyph-name="l_e.liga" d="M373 78.5q58 26.5 99 68.5l33 -57q-49 -47 -118.5 -75.5t-132.5 -28.5q-48 0 -87 23.5t-61 65t-22 94.5v7q-75 -26 -111 -55q-86 -71 -142.5 -103t-100.5 -32q-55 0 -91 36t-44 97q-95 -70 -210 -120l-24 58q127 55 233 143q2 300 53 457t167 157q51 0 80 -34.5t29 -92.5 q0 -144 -70.5 -276.5t-191.5 -238.5q2 -55 22 -89t51 -34q27 0 69 26t128 93q48 38 156 71q10 117 52 206t110 138t152 49q66 0 102 -33.5t36 -101.5q0 -83 -52 -138t-124.5 -86.5t-187.5 -67.5l-24 -8q-1 -9 -1 -28q0 -51 33 -84t81 -33q51 0 109 26.5zM-268.5 687 q-31.5 -63 -49.5 -173.5t-21 -251.5q91 93 142.5 201t51.5 221q0 31 -12.5 48.5t-36.5 17.5q-43 0 -74.5 -63zM284.5 530.5q-50.5 -38.5 -84 -108.5t-45.5 -162q105 31 167.5 56.5t106.5 68.5t44 108q0 36 -22 56t-55 20q-61 0 -111.5 -38.5z" />
         <glyph glyph-name="l_l.liga" d="M396.5 72q33.5 23 56.5 58l53 -38q-34 -48 -82.5 -77t-93.5 -29q-61 0 -98.5 44t-37.5 116v23q-111 -85 -232 -134t-232 -49q-55 0 -91 36t-44 97q-95 -70 -210 -120l-24 58q127 55 233 143q2 300 53 457t167 157q51 0 80 -34.5t29 -92.5q0 -144 -70.5 -276.5 t-191.5 -238.5q2 -55 22 -89t51 -34q104 0 227.5 57t233.5 151q6 272 57.5 414.5t161.5 142.5q51 0 80.5 -34.5t29.5 -92.5q0 -111 -72 -233.5t-191 -229.5v-44q1 -58 21 -94.5t52 -36.5q29 0 62.5 23zM-268.5 687q-31.5 -63 -49.5 -173.5t-21 -251.5q91 93 142.5 201 t51.5 221q0 31 -12.5 48.5t-36.5 17.5q-43 0 -74.5 -63zM309 632q-37 -118 -46 -311q88 89 140 184t52 179q0 31 -12.5 48.5t-36.5 17.5q-60 0 -97 -118z" />
         <glyph glyph-name="m_e.liga" d="M373 78.5q58 26.5 99 68.5l33 -57q-49 -47 -118.5 -75.5t-132.5 -28.5q-71 0 -118.5 48t-51.5 124q-32 -24 -44 -50q-31 -68 -63 -95t-89 -27q-36 0 -56.5 18.5t-20.5 49.5q0 79 81 347q26 87 26 125q0 43 -32 43q-39 0 -63.5 -21.5t-44.5 -79t-44 -173.5l-61 -295h-68 l84 400q9 42 15.5 77t6.5 53q0 21 -8 30t-26 9q-35 0 -56 -20t-40 -77t-45 -179l-62 -293h-68l112 524q2 10 2 15q0 14 -7 22t-21 8q-10 0 -23.5 -7t-26.5 -20l-30 51q13 18 41.5 28.5t58.5 10.5q66 0 66 -72q49 72 104 72q38 0 56 -13t22.5 -30.5t5.5 -48.5q30 48 58.5 70 t66.5 22q94 0 94 -96q0 -57 -29 -141q-37 -109 -57 -194t-19 -125q0 -13 8 -20t22 -7q37 0 79 93q23 49 97 85q8 120 50 211.5t110.5 142.5t154.5 51q66 0 102 -33.5t36 -101.5q0 -75 -41.5 -125t-100 -79t-153.5 -63q-58 -21 -94 -36v-25q0 -51 33 -84t81 -33 q51 0 109 26.5zM284 530.5q-51 -38.5 -84.5 -109.5t-44.5 -164q57 21 60 22q86 30 136.5 54t86 63.5t35.5 96.5q0 36 -22 56t-55 20q-61 0 -112 -38.5z" />
         <glyph glyph-name="m_l.liga" d="M396.5 72q33.5 23 56.5 58l53 -38q-34 -48 -82.5 -77t-93.5 -29q-55 0 -90.5 35t-43.5 94q-76 -61 -155.5 -95t-152.5 -34q-36 0 -56.5 18.5t-20.5 49.5q0 79 81 347q26 87 26 125q0 43 -32 43q-39 0 -63.5 -21.5t-44.5 -79t-44 -173.5l-61 -295h-68l84 400q9 42 15.5 77 t6.5 53q0 21 -8 30t-26 9q-35 0 -56 -20t-40 -77t-45 -179l-62 -293h-68l112 524q2 10 2 15q0 14 -7 22t-21 8q-10 0 -23.5 -7t-26.5 -20l-30 51q13 18 41.5 28.5t58.5 10.5q66 0 66 -72q49 72 104 72q38 0 56 -13t22.5 -30.5t5.5 -48.5q30 48 58.5 70t66.5 22q94 0 94 -96 q0 -57 -29 -141q-37 -109 -57 -194t-19 -125q0 -13 8 -20t22 -7q62 0 136 40.5t148 110.5q2 300 53 457t167 157q51 0 80.5 -34.5t29.5 -92.5q0 -124 -73.5 -264t-189.5 -251q2 -55 22 -89t51 -34q29 0 62.5 23zM332.5 688.5q-31.5 -61.5 -49.5 -170t-22 -247.5 q86 100 140 211.5t54 201.5q0 31 -12.5 48.5t-36.5 17.5q-42 0 -73.5 -61.5z" />
         <glyph glyph-name="n_e.liga" d="M373 78.5q58 26.5 99 68.5l33 -57q-49 -47 -118.5 -75.5t-132.5 -28.5q-69 0 -116 45.5t-53 118.5q-62 -29 -89 -62q-43 -60 -76 -81t-67 -21q-35 0 -56 18t-22 47q0 44 21.5 140.5t58.5 210.5q17 51 17 89q0 78 -75 78q-42 0 -92 -44.5t-89.5 -110.5t-51.5 -123 l-61 -291h-69l112 524q2 10 2 15q0 14 -8.5 22t-21.5 8q-20 0 -48 -27l-30 51q13 18 41.5 28.5t58.5 10.5q33 0 56 -20t23 -53q0 -13 -4 -25l-13 -56q44 71 96.5 112.5t103.5 41.5q68 0 104 -31.5t36 -94.5q0 -47 -21 -111q-36 -109 -57 -194.5t-20 -124.5q0 -13 8.5 -20 t22.5 -7q13 0 32 18.5t58 74.5q33 46 121 85q8 120 50 211.5t110.5 142.5t154.5 51q66 0 102 -33.5t36 -101.5q0 -79 -46.5 -134t-113 -88.5t-171.5 -73.5q-17 -6 -31.5 -12t-26.5 -10v-10q0 -51 33 -84t81 -33q51 0 109 26.5zM284 529.5q-51 -39.5 -85 -110.5t-44 -165 q32 11 41 14q92 32 146.5 57.5t92.5 66.5t38 101q0 36 -22 56t-55 20q-61 0 -112 -39.5z" />
         <glyph glyph-name="n_l.liga" d="M396.5 72q33.5 23 56.5 58l53 -38q-34 -48 -82.5 -77t-93.5 -29q-54 0 -90 35t-44 94q-80 -61 -168 -95t-175 -34q-35 0 -56 18t-22 47q0 44 21.5 140.5t58.5 210.5q17 51 17 89q0 78 -75 78q-42 0 -92 -44.5t-89.5 -110.5t-51.5 -123l-61 -291h-69l112 524q2 10 2 15 q0 14 -8.5 22t-21.5 8q-20 0 -48 -27l-30 51q13 18 41.5 28.5t58.5 10.5q33 0 56 -20t23 -53q0 -13 -4 -25l-13 -56q44 71 96.5 112.5t103.5 41.5q68 0 104 -31.5t36 -94.5q0 -47 -21 -111q-36 -109 -57 -194.5t-20 -124.5q0 -13 8.5 -20t22.5 -7q77 0 159.5 39.5 t159.5 108.5q2 302 53 459.5t167 157.5q51 0 80.5 -34.5t29.5 -92.5q0 -127 -72.5 -267.5t-190.5 -249.5q3 -55 23 -88t50 -33q29 0 62.5 23zM331.5 687.5q-31.5 -62.5 -49.5 -173t-21 -250.5q87 97 140.5 209t53.5 211q0 31 -12.5 48.5t-36.5 17.5q-43 0 -74.5 -62.5z" />
         <glyph glyph-name="r_e.liga" d="M373 78.5q58 26.5 99 68.5l33 -57q-49 -47 -118.5 -75.5t-132.5 -28.5q-48 0 -87 23.5t-61 65t-22 94.5v8q-71 -28 -96 -53q-59 -59 -86 -84t-54.5 -39.5t-58.5 -14.5q-47 0 -75.5 30.5t-28.5 80.5q0 83 33 185t94 204q-46 -23 -93.5 -36t-82.5 -13h-11 q-39 -88 -114 -169l-40 54q56 56 91 124q-45 11 -70 37t-25 61q0 39 27.5 63.5t70.5 24.5q37 0 60 -26.5t23 -70.5q0 -15 -3 -35q44 1 112 29t136 71l46 -32q-86 -128 -137 -251t-51 -212q0 -25 11.5 -40.5t30.5 -15.5q25 0 55.5 23.5t93.5 89.5q41 42 145 79 q10 116 52.5 204.5t110 137.5t151.5 49q66 0 102 -33.5t36 -101.5q0 -82 -51 -136.5t-121.5 -85t-182.5 -66.5l-33 -10q-1 -10 -1 -30q0 -51 33 -84t81 -33q51 0 109 26.5zM-417 504q4 15 4 31q0 21 -8 33t-22 12t-23 -9t-9 -23q0 -33 58 -44zM285.5 531q-50.5 -38 -84 -107 t-45.5 -161l24 8q97 30 155 54.5t98 65.5t40 102q0 36 -22 56t-55 20q-60 0 -110.5 -38z" />
         <glyph glyph-name="r_l.liga" d="M396.5 72q33.5 23 56.5 58l53 -38q-34 -48 -82.5 -77t-93.5 -29q-55 0 -91 36t-43 96q-90 -63 -193 -97.5t-214 -34.5q-47 0 -75.5 30.5t-28.5 80.5q0 83 33 185t94 204q-46 -23 -93.5 -36t-82.5 -13h-11q-39 -88 -114 -169l-40 54q56 56 91 124q-45 11 -70 37t-25 61 q0 39 27.5 63.5t70.5 24.5q37 0 60 -26.5t23 -70.5q0 -15 -3 -35q44 1 112 29t136 71l46 -32q-86 -128 -137 -251t-51 -212q0 -25 11.5 -40.5t30.5 -15.5q111 0 213 40t188 110q2 301 53 458t167 157q51 0 80.5 -34.5t29.5 -92.5q0 -130 -70.5 -271t-192.5 -247 q3 -54 23 -87t50 -33q29 0 62.5 23zM331 687q-32 -63 -49.5 -174t-20.5 -252q90 94 142 207.5t52 215.5q0 31 -12.5 48.5t-36.5 17.5q-43 0 -75 -63zM-417 504q4 15 4 31q0 21 -8 33t-22 12t-23 -9t-9 -23q0 -33 58 -44z" />
         <glyph glyph-name="s_e.liga" d="M373 78.5q58 26.5 99 68.5l33 -57q-49 -47 -118.5 -75.5t-132.5 -28.5q-48 0 -87 23.5t-61 65t-22 94.5v6q-69 -24 -96 -45q-85 -68 -180.5 -106t-190.5 -38q-69 0 -125 33t-87 90l62 30q20 -40 60.5 -65t83.5 -25q53 0 92.5 31.5t60.5 85.5t21 120q-1 59 -34 110 q-43 -52 -110.5 -87t-135.5 -41l-10 63q63 4 122 37t94 82q-25 25 -39.5 52t-14.5 47q0 37 21.5 60t59.5 23q39 0 61 -22.5t22 -60.5q0 -20 -8 -45t-22 -47q27 -36 43.5 -80t16.5 -89q0 -64 -17 -114.5t-54 -94.5q47 19 83.5 38.5t89.5 61.5q39 32 134 61q10 116 52 205 t110 138t152 49q66 0 102 -33.5t36 -101.5q0 -88 -57 -145.5t-131.5 -87.5t-200.5 -68v-27q0 -51 33 -84t81 -33q51 0 109 26.5zM-242.5 574.5q-6.5 8.5 -19.5 8.5q-11 0 -17.5 -7t-6.5 -20q0 -15 7.5 -29.5t23.5 -34.5q19 31 19 59q0 15 -6.5 23.5zM284.5 530.5 q-50.5 -38.5 -84 -108.5t-44.5 -162q103 30 165.5 55t107 68.5t44.5 109.5q0 36 -22 56t-55 20q-61 0 -111.5 -38.5z" />
         <glyph glyph-name="s_l.liga" d="M396.5 72q33.5 23 56.5 58l53 -38q-34 -48 -82.5 -77t-93.5 -29q-58 0 -94.5 39.5t-41.5 105.5q-232 -145 -577 -145q-69 0 -125 33t-87 90l62 30q20 -40 60.5 -65t83.5 -25q53 0 92.5 31.5t60.5 85.5t21 120q-1 59 -34 110q-43 -52 -110.5 -87t-135.5 -41l-10 63 q63 4 122 37t94 82q-25 25 -39.5 52t-14.5 47q0 37 21.5 60t59.5 23q39 0 61 -22.5t22 -60.5q0 -20 -8 -45t-22 -47q27 -36 43.5 -80t16.5 -89q0 -67 -22.5 -133.5t-65.5 -103.5q129 12 237 53t194 105q3 296 54 450.5t166 154.5q51 0 80.5 -34.5t29.5 -92.5 q0 -135 -66 -271t-197 -238q2 -58 21.5 -93.5t51.5 -35.5q29 0 62.5 23zM331.5 687.5q-31.5 -62.5 -49.5 -172t-21 -249.5q94 90 144 200t50 218q0 31 -12.5 48.5t-36.5 17.5q-43 0 -74.5 -62.5zM-242.5 574.5q-6.5 8.5 -19.5 8.5q-11 0 -17.5 -7t-6.5 -20q0 -15 7.5 -29.5 t23.5 -34.5q19 31 19 59q0 15 -6.5 23.5z" />
         <glyph glyph-name="t_e.liga" d="M373 78.5q58 26.5 99 68.5l33 -57q-49 -47 -118.5 -75.5t-132.5 -28.5q-48 0 -87 23.5t-61 65t-22 94.5v13q-83 -30 -118 -63q-61 -57 -100 -84.5t-75.5 -38t-89.5 -10.5q-78 0 -112.5 30.5t-34.5 98.5q0 42 12 100l72 340h-124l14 63h124l37 182h69l-38 -182h208 l-14 -63h-208l-73 -344q-11 -52 -11 -83q0 -42 20 -60.5t64 -18.5q42 0 68 6t59.5 29t86.5 75q28 27 69.5 48t98.5 40q11 114 53 201.5t109 135.5t151 48q66 0 102 -33.5t36 -101.5q0 -81 -50 -134.5t-121 -83.5t-183 -64l-34 -11q-1 -12 -1 -35q0 -51 33 -84t81 -33 q51 0 109 26.5zM286.5 532q-49.5 -37 -83.5 -105.5t-46 -158.5l21 6q99 30 157 54t98 64t40 101q0 36 -22 56t-55 20q-60 0 -109.5 -37z" />
         <glyph glyph-name="t_l.liga" d="M396.5 72q33.5 23 56.5 58l53 -38q-34 -48 -82.5 -77t-93.5 -29q-57 0 -93.5 38t-41.5 102q-101 -67 -225 -103.5t-269 -36.5q-78 0 -112.5 30.5t-34.5 98.5q0 42 12 100l72 340h-124l14 63h124l37 182h69l-38 -182h208l-14 -63h-208l-73 -344q-11 -52 -11 -83 q0 -42 20 -60.5t64 -18.5q146 0 269 41.5t219 115.5q3 298 54 453t166 155q51 0 80.5 -34.5t29.5 -92.5q0 -132 -68.5 -270t-194.5 -241q2 -57 22 -92t51 -35q29 0 62.5 23zM331.5 687.5q-31.5 -62.5 -49.5 -173t-21 -250.5q93 91 143.5 203.5t50.5 216.5q0 31 -12.5 48.5 t-36.5 17.5q-43 0 -74.5 -62.5z" />
         <glyph glyph-name="t_t.liga" d="M306 555l-73 -344q-11 -52 -11 -83q0 -42 20 -60.5t64 -18.5q54 0 80 13.5t47 51.5l60 -27q-33 -58 -74 -79.5t-118 -21.5q-78 0 -112.5 30.5t-34.5 98.5q0 42 12 100l72 340h-532l-73 -344q-11 -52 -11 -83q0 -42 20 -60.5t64 -18.5q54 0 80 13.5t47 51.5l60 -27 q-33 -58 -74 -79.5t-118 -21.5q-78 0 -112.5 30.5t-34.5 98.5q0 42 12 100l72 340h-124l14 63h124l37 182h69l-38 -182h532l38 182h68l-38 -182h208l-14 -63h-208z" />
         <glyph glyph-name="u_e.liga" d="M373 78.5q58 26.5 99 68.5l33 -57q-49 -47 -118.5 -75.5t-132.5 -28.5q-70 0 -117.5 47t-52.5 122q-65 -34 -88 -67q-42 -60 -75.5 -81t-67.5 -21q-33 0 -56 20.5t-23 53.5q0 11 3 24l14 56q-45 -73 -93 -113.5t-97 -40.5q-73 0 -111 32t-38 96q0 49 20 109 q35 108 56 191t21 123q0 15 -8 23.5t-23 8.5q-12 0 -24.5 -8t-23.5 -22l-30 54q13 18 41.5 28.5t58.5 10.5q36 0 56.5 -18.5t20.5 -49.5q0 -45 -21 -140t-58 -208q-17 -54 -17 -87q0 -80 85 -80q41 0 88.5 44.5t85 110t49.5 123.5l61 291h69l-112 -524q-2 -10 -2 -15 q0 -14 8 -22t22 -8t32.5 16t58.5 76q34 48 120 85q8 120 50 212t110.5 143t154.5 51q66 0 102 -33.5t36 -101.5q0 -78 -46 -131.5t-111 -86.5t-169 -72l-63 -24v-14q0 -51 33 -84t81 -33q51 0 109 26.5zM284 529.5q-51 -39.5 -85 -110.5t-44 -165q13 5 25 9t22 8 q89 31 143 56.5t91 66t37 99.5q0 36 -22 56t-55 20q-61 0 -112 -39.5z" />
         <glyph glyph-name="u_l.liga" d="M396.5 72q33.5 23 56.5 58l53 -38q-34 -48 -82.5 -77t-93.5 -29q-54 0 -90 34.5t-44 92.5q-80 -60 -168 -93.5t-175 -33.5q-33 0 -56 20.5t-23 53.5q0 11 3 24l14 56q-45 -73 -93 -113.5t-97 -40.5q-73 0 -111 32t-38 96q0 49 20 109q35 108 56 191t21 123q0 15 -8 23.5 t-23 8.5q-12 0 -24.5 -8t-23.5 -22l-30 54q13 18 41.5 28.5t58.5 10.5q36 0 56.5 -18.5t20.5 -49.5q0 -45 -21 -140t-58 -208q-17 -54 -17 -87q0 -80 85 -80q41 0 88.5 44.5t85 110t49.5 123.5l61 291h69l-112 -524q-2 -10 -2 -15q0 -14 8 -22t22 -8q79 0 161 38t158 104 q2 305 52.5 464t167.5 159q51 0 80.5 -34.5t29.5 -92.5q0 -128 -72.5 -270t-190.5 -250q3 -53 23 -85.5t50 -32.5q29 0 62.5 23zM331 686.5q-32 -63.5 -49.5 -175.5t-20.5 -254q88 97 141 211.5t53 215.5q0 31 -12.5 48.5t-36.5 17.5q-43 0 -75 -63.5z" />
         <glyph glyph-name="ordfeminine" unicode="ª" d="M191 374q-34 20 -34 69q0 17 7 52q10 47 30 72.5t56.5 36.5t99.5 11h96l10 44q5 28 5 42q0 28 -16.5 39t-56.5 11t-64 -16t-44 -55l-65 16q22 47 45 72t53 35.5t76 10.5q76 0 109 -22t33 -74q0 -26 -8 -64l-43 -204l-1 -8q0 -9 6.5 -11.5t24.5 -4.5l-7 -63q-43 -1 -61 10 t-20 38q-29 -34 -54 -45.5t-65 -11.5q-78 0 -112 20zM387 440q27 23 40 81l8 39h-91q-54 0 -79 -17t-35 -59q-3 -13 -3 -25q0 -24 17.5 -33t60.5 -9q55 0 82 23zM472 205h-379l13 63h379z" />
         <glyph glyph-name="ordmasculine" unicode="º" d="M204 382q-34 28 -34 95q0 46 15 113q19 87 44.5 135t65.5 68.5t106 20.5q77 0 111.5 -28t34.5 -95q0 -46 -15 -112q-19 -88 -44.5 -136t-66 -68.5t-106.5 -20.5q-77 0 -111 28zM386.5 433.5q27.5 16.5 46 53.5t32.5 103q12 56 12 89q0 40 -18 56t-59 16q-42 0 -69.5 -16 t-46 -53.5t-32.5 -102.5q-12 -57 -12 -90q0 -40 18 -56t59 -16q42 0 69.5 16.5zM467 205h-379l13 63h379z" />
         <glyph glyph-name="uni2090" unicode="ₐ" d="M102.5 -44q-33.5 20 -33.5 69q0 22 6 52q10 47 30 73t56.5 36.5t99.5 10.5h97l9 45q5 27 5 41q0 28 -17 39t-57 11q-39 0 -62.5 -16t-43.5 -55l-67 17q23 46 46 71t53 35.5t77 10.5q76 0 109 -21.5t33 -74.5q0 -26 -8 -64l-44 -208q-1 -3 -1 -9q0 -7 6.5 -10t24.5 -4 l-8 -64q-43 0 -61 11t-19 37q-27 -32 -52 -42.5t-67 -10.5q-78 0 -111.5 20zM298 22q27 23 39 82l9 38h-90q-54 0 -79.5 -16.5t-34.5 -59.5q-4 -20 -4 -26q0 -23 17.5 -32t60.5 -9q55 0 82 23z" />
         <glyph glyph-name="uni2091" unicode="ₑ" d="M166 147q-9 -45 -9 -73q0 -41 19.5 -58t64.5 -17q41 0 67.5 17t53.5 58l49 -43q-36 -55 -72 -75t-99 -20q-81 0 -117 28t-36 95q0 44 13 103q19 92 45.5 142t69 71t111.5 21q71 0 103 -28t32 -95q0 -49 -17 -129zM234 306q-32 -27 -52 -95l206 2q2 32 2 41q0 44 -15 61.5 t-51 17.5q-58 0 -90 -27z" />
         <glyph glyph-name="uni2071" unicode="ⁱ" d="M387 795q-11 8 -11 26q0 5 2 17q5 22 15.5 30t34.5 8q23 0 34.5 -8t11.5 -25q0 -4 -2 -16q-4 -23 -15.5 -31.5t-35.5 -8.5q-23 0 -34 8zM445 704l-81 -378h115l-13 -63h-299l13 63h115l66 315h-83l14 63h153z" />
         <glyph glyph-name="uni207F" unicode="ⁿ" d="M119 263l96 450h69l-12 -44q33 29 60 39t67 10q67 0 96.5 -26t29.5 -88q0 -45 -15 -116l-47 -225h-69l49 230q13 61 13 98q0 35 -14 49.5t-45 14.5q-71 0 -105.5 -31.5t-51.5 -112.5l-52 -248h-69z" />
         <glyph glyph-name="uni2092" unicode="ₒ" d="M115.5 -35.5q-34.5 28.5 -34.5 95.5q0 45 15 112q19 88 44.5 135.5t66 68t106.5 20.5q77 0 111 -27.5t34 -94.5q0 -45 -15 -113q-18 -88 -43.5 -136t-66 -68.5t-106.5 -20.5q-77 0 -111.5 28.5zM297.5 15.5q27.5 16.5 46 53.5t32.5 103q12 56 12 89q0 40 -18 56t-59 16 q-42 0 -69.5 -16t-46 -53t-32.5 -103q-12 -55 -12 -90q0 -39 18 -55.5t59 -16.5q42 0 69.5 16.5z" />
         <glyph glyph-name="uni2094" unicode="ₔ" d="M417 368.5q36 -27.5 36 -93.5q0 -41 -14 -105q-19 -91 -45.5 -141t-68.5 -71.5t-111 -21.5q-72 0 -103.5 28t-31.5 95q0 49 17 129l277 -3q9 45 9 74q0 41 -19.5 57.5t-64.5 16.5q-42 0 -68 -16.5t-53 -58.5l-49 43q37 55 73 75t99 20q81 0 117 -27.5zM305 26.5 q33 27.5 53 94.5l-206 -2q-3 -25 -3 -44q0 -43 15 -59.5t51 -16.5q57 0 90 27.5z" />
         <glyph glyph-name="uni2093" unicode="ₓ" d="M421 391h76l-187 -223l94 -227h-81l-68 163l-137 -163h-76l188 223l-95 227h82l67 -162z" />
         <glyph glyph-name="uni0410" unicode="А" d="M556 159l-42 -16l9 -143h-69q-5 67 -24 121q-50 -10 -97 -10q-68 0 -121 21q-37 -78 -69 -112t-67 -34q-50 0 -70 39.5t-20 130.5h66q0 -107 28 -107q13 0 31.5 27.5t46.5 87.5q-24 20 -36.5 43.5t-12.5 46.5q0 42 33 68t85 26h9q60 150 171 452h63l39 -587l27 12z M415 651q-73 -202 -116 -312q83 -22 140 -96zM187 229l23 55q-34 -5 -34 -30q0 -11 11 -25zM328 172q38 0 75 8q-46 79 -127 99q-16 -40 -38 -90q39 -17 90 -17z" />
         <glyph glyph-name="uni0411" unicode="Б" d="M160.5 761.5q51.5 24.5 151.5 31.5t299 7l-12 -63q-181 0 -267 -4t-116 -14t-34 -30q-2 -6 -2 -11q0 -21 19 -43l-42 -50q-48 48 -48 98q0 54 51.5 78.5zM495.5 471.5q52.5 -44.5 52.5 -121.5q0 -107 -39 -189.5t-110 -128.5t-164 -46q-74 0 -117 46q-25 -46 -44 -46 q-30 0 -45.5 41.5t-15.5 106.5q0 123 44 210.5t126 131.5l8 34q29 114 46 192h68l-44 -197q46 11 95 11q87 0 139.5 -44.5zM362.5 87q55.5 38 86 106.5t30.5 156.5q0 48 -33.5 75t-89.5 27q-63 0 -113 -21q-52 -210 -92 -321q20 -61 84 -61q72 0 127.5 38zM83 82.5 q1 4.5 2 8.5l-2 7l4 1l70 272q-75 -84 -75 -237q0 -34 -2 -60q2 4 3 8.5z" />
         <glyph glyph-name="uni0412" unicode="В" d="M517.5 355q33.5 -45 33.5 -95q0 -81 -34 -143t-95.5 -96.5t-142.5 -34.5q-54 0 -99 11.5t-68 30.5q-10 -26 -18 -34t-19 -8t-18 42t-7 110q0 155 39 320.5t125 261.5q5 26 17 80h70l-3 -13q54 27 115 27q80 0 129 -47.5t49 -125.5q0 -71 -44.5 -131t-110.5 -86 q48 -24 81.5 -69zM385 75.5q46 26.5 71.5 74.5t25.5 110q0 41 -25.5 72t-72 47.5t-107.5 15.5l14 64q68 -1 120.5 21t81.5 64t29 97q0 49 -30 79.5t-79 30.5q-77 0 -136 -56l-8 -34q-77 -330 -108 -456.5t-48 -172.5l40 50q13 -16 45.5 -24.5t80.5 -8.5q60 0 106 26.5z M174 536q-33 -81 -53.5 -176t-28.5 -171t-8 -110q4 53 90 457z" />
         <glyph glyph-name="uni0413" unicode="Г" d="M625 737l-320 -1q-3 -12 -7 -36q-70 -339 -101.5 -470.5t-61.5 -187.5t-75 -56q-36 0 -51 28.5t-17 84.5l69 1q1 -31 4.5 -41.5t8.5 -10.5q11 0 45 142t117 546h-9q-34 0 -47 -3.5t-13 -11.5q0 -6 5.5 -14.5t19.5 -24.5l-49 -39q-18 20 -27.5 42t-9.5 41q0 36 33.5 55 t97.5 19h400z" />
         <glyph glyph-name="uni0403" unicode="Ѓ" d="M625 737l-320 -1q-3 -12 -7 -36q-70 -339 -101.5 -470.5t-61.5 -187.5t-75 -56q-36 0 -51 28.5t-17 84.5l69 1q1 -31 4.5 -41.5t8.5 -10.5q11 0 45 142t117 546h-9q-34 0 -47 -3.5t-13 -11.5q0 -6 5.5 -14.5t19.5 -24.5l-49 -39q-18 20 -27.5 42t-9.5 41q0 36 33.5 55 t97.5 19h400zM582 993l-174 -130l-37 48l175 130z" />
         <glyph glyph-name="uni0490" unicode="Ґ" d="M596 933h69l-28 -133l-12 -63l-320 -1q-3 -12 -7 -36q-70 -339 -101.5 -470.5t-61.5 -187.5t-75 -56q-36 0 -51 28.5t-17 84.5l69 1q1 -31 4.5 -41.5t8.5 -10.5q11 0 45 142t117 546h-9q-34 0 -47 -3.5t-13 -11.5q0 -6 5.5 -14.5t19.5 -24.5l-49 -39q-18 20 -27.5 42 t-9.5 41q0 36 33.5 55t97.5 19h331z" />
         <glyph glyph-name="uni0414" unicode="Д" d="M497 780q48 -34 74.5 -91t26.5 -123q0 -166 -48.5 -298.5t-131.5 -207t-181 -74.5q-54 0 -118 54q-34 -54 -75 -54q-37 0 -59.5 23.5t-22.5 61.5q0 37 24.5 60t63.5 23q23 0 49 -14q50 147 109 478h69q-63 -370 -127 -519q25 -23 48.5 -36.5t38.5 -13.5q78 0 145 67 t107 185t40 265q0 48 -17.5 90.5t-49.5 68.5t-73 26q-69 0 -130 -22t-94 -59l-50 44q41 45 116.5 72.5t157.5 27.5q60 0 108 -34zM74 80q-17 12 -24 12q-11 0 -17.5 -5.5t-6.5 -15.5q0 -11 5 -17t13 -6q13 0 30 32z" />
         <glyph glyph-name="uni0415" unicode="Е" d="M90.5 30.5q-48.5 44.5 -48.5 121.5q0 47 19 102.5t51.5 101t70.5 64.5q-27 17 -42.5 50.5t-15.5 75.5q0 74 38.5 135.5t104.5 97t144 35.5q86 0 135.5 -41t49.5 -111q0 -25 -4 -46h-70q3 15 3 30q0 48 -37.5 76.5t-102.5 28.5q-54 0 -97 -24.5t-67 -67.5t-24 -95 q0 -47 24.5 -76t67.5 -33l-15 -64q-45 -4 -81.5 -37.5t-57.5 -83t-21 -96.5q0 -57 35.5 -91t98.5 -34q69 0 120 40t64 105h70q-13 -61 -52.5 -108.5t-98.5 -73.5t-129 -26q-84 0 -132.5 44.5z" />
         <glyph glyph-name="uni0400" unicode="Ѐ" d="M90.5 30.5q-48.5 44.5 -48.5 121.5q0 47 19 102.5t51.5 101t70.5 64.5q-27 17 -42.5 50.5t-15.5 75.5q0 74 38.5 135.5t104.5 97t144 35.5q86 0 135.5 -41t49.5 -111q0 -25 -4 -46h-70q3 15 3 30q0 48 -37.5 76.5t-102.5 28.5q-54 0 -97 -24.5t-67 -67.5t-24 -95 q0 -47 24.5 -76t67.5 -33l-15 -64q-45 -4 -81.5 -37.5t-57.5 -83t-21 -96.5q0 -57 35.5 -91t98.5 -34q69 0 120 40t64 105h70q-13 -61 -52.5 -108.5t-98.5 -73.5t-129 -26q-84 0 -132.5 44.5zM499 914l-54 -48l-124 130l54 48z" />
         <glyph glyph-name="uni0401" unicode="Ё" d="M90.5 30.5q-48.5 44.5 -48.5 121.5q0 47 19 102.5t51.5 101t70.5 64.5q-27 17 -42.5 50.5t-15.5 75.5q0 74 38.5 135.5t104.5 97t144 35.5q86 0 135.5 -41t49.5 -111q0 -25 -4 -46h-70q3 15 3 30q0 48 -37.5 76.5t-102.5 28.5q-54 0 -97 -24.5t-67 -67.5t-24 -95 q0 -47 24.5 -76t67.5 -33l-15 -64q-45 -4 -81.5 -37.5t-57.5 -83t-21 -96.5q0 -57 35.5 -91t98.5 -34q69 0 120 40t64 105h70q-13 -61 -52.5 -108.5t-98.5 -73.5t-129 -26q-84 0 -132.5 44.5zM294.5 917q-14.5 10 -14.5 32q0 11 3 24q6 31 21 42.5t48 11.5q31 0 45.5 -10.5 t14.5 -32.5q0 -10 -3 -22q-7 -31 -22 -43t-48 -12q-30 0 -44.5 10zM510.5 917q-14.5 10 -14.5 32q0 11 3 24q6 31 21 42.5t48 11.5q31 0 45.5 -10.5t14.5 -32.5q0 -10 -3 -22q-7 -31 -22 -43t-48 -12q-30 0 -44.5 10z" />
         <glyph glyph-name="uni0416" unicode="Ж" d="M499.5 57.5q5.5 8.5 10.5 26.5l58 -13q-8 -44 -30.5 -64.5t-59.5 -20.5q-45 0 -66 50.5t-21 136.5q0 98 25 218q-34 -15 -71 -21l-79 -370h-65l78 364q-35 -7 -75 -32q-39 -147 -96.5 -246.5t-115.5 -99.5q-26 0 -41 17.5t-15 50.5q0 23 28 80t76 120.5t107 108.5 q20 80 31.5 156t11.5 132q0 47 -9 73.5t-28 26.5q-9 0 -14.5 -8.5t-10.5 -26.5l-58 13q8 44 30.5 64.5t59.5 20.5q45 0 66 -50.5t21 -136.5q0 -99 -25 -219q35 17 71 21l79 371h65l-78 -364q35 7 75 32q39 147 96.5 246.5t115.5 99.5q26 0 41 -17.5t15 -50.5 q0 -23 -28 -80.5t-76.5 -121.5t-107.5 -109q-19 -80 -30.5 -155t-11.5 -130q0 -101 37 -101q9 0 14.5 8.5zM580.5 694.5q-32.5 -59.5 -61.5 -154.5q52 56 89.5 118.5t37.5 86.5q0 9 -6 9q-27 0 -59.5 -59.5zM57.5 105.5q32.5 59.5 61.5 154.5q-53 -54 -90.5 -116.5 t-37.5 -87.5q0 -10 7 -10q27 0 59.5 59.5z" />
         <glyph glyph-name="uni0417" unicode="З" d="M93 30q-52 44 -52 119q0 18 5 45h70q-4 -16 -4 -36q0 -50 34 -79.5t93 -29.5q62 0 112 33.5t75 91.5q20 48 20 96q0 50 -22 83.5t-66 37.5l12 64q45 4 82 33t57 76q17 42 17 76q0 50 -33 80.5t-93 30.5q-65 0 -114.5 -28.5t-70.5 -76.5q-6 -15 -9 -30h-70q4 21 14 46 q30 70 97 111t154 41q90 0 142.5 -46t52.5 -122q0 -47 -22 -100q-18 -42 -47.5 -75.5t-64.5 -50.5q26 -17 39.5 -54t13.5 -84q0 -69 -26 -130q-32 -77 -99.5 -121.5t-152.5 -44.5q-92 0 -144 44z" />
         <glyph glyph-name="uni0418" unicode="И" d="M518 76l33 -52q-16 -17 -43 -27.5t-56 -10.5q-31 0 -50.5 19.5t-19.5 54.5q-72 -74 -172 -74q-73 0 -115.5 43.5t-42.5 130.5q0 66 24 146l118 403l2 17q0 11 -7.5 18t-20.5 7q-21 0 -47 -27l-34 52q13 16 41 27t58 11q33 0 57 -21t24 -54q0 -15 -4 -28l-120 -414 q-26 -88 -26 -145q0 -56 28.5 -79.5t88.5 -23.5q52 0 87 24t61 79.5t48 153.5l108 494h69l-111 -502q-5 -22 -14 -53q-14 -56 -39 -171q-1 -11 6.5 -18t20.5 -7q21 0 48 27z" />
         <glyph glyph-name="uni0419" unicode="Й" d="M518 76l33 -52q-16 -17 -43 -27.5t-56 -10.5q-31 0 -50.5 19.5t-19.5 54.5q-72 -74 -172 -74q-73 0 -115.5 43.5t-42.5 130.5q0 66 24 146l118 403l2 17q0 11 -7.5 18t-20.5 7q-21 0 -47 -27l-34 52q13 16 41 27t58 11q33 0 57 -21t24 -54q0 -15 -4 -28l-120 -414 q-26 -88 -26 -145q0 -56 28.5 -79.5t88.5 -23.5q52 0 87 24t61 79.5t48 153.5l108 494h69l-111 -502q-5 -22 -14 -53q-14 -56 -39 -171q-1 -11 6.5 -18t20.5 -7q21 0 48 27zM331 876.5q-28 18.5 -28 60.5q0 20 8 54h79q-22 -38 -22 -50q0 -11 12.5 -15t42.5 -4q45 0 62.5 10 t17.5 35q0 15 -2 24h77q-10 -52 -27 -80.5t-47.5 -40.5t-82.5 -12q-62 0 -90 18.5z" />
         <glyph glyph-name="uni040D" unicode="Ѝ" d="M518 76l33 -52q-16 -17 -43 -27.5t-56 -10.5q-31 0 -50.5 19.5t-19.5 54.5q-72 -74 -172 -74q-73 0 -115.5 43.5t-42.5 130.5q0 66 24 146l118 403l2 17q0 11 -7.5 18t-20.5 7q-21 0 -47 -27l-34 52q13 16 41 27t58 11q33 0 57 -21t24 -54q0 -15 -4 -28l-120 -414 q-26 -88 -26 -145q0 -56 28.5 -79.5t88.5 -23.5q52 0 87 24t61 79.5t48 153.5l108 494h69l-111 -502q-5 -22 -14 -53q-14 -56 -39 -171q-1 -11 6.5 -18t20.5 -7q21 0 48 27zM484 911l-54 -48l-124 130l54 48z" />
         <glyph glyph-name="uni041A" unicode="К" d="M621.5 787q26.5 -27 26.5 -70q0 -19 -6 -40l-67 14q4 13 4 26q0 34 -31 34q-32 0 -55.5 -19.5t-40 -47.5t-40.5 -80q-30 -65 -54.5 -105t-61.5 -69q72 -26 110.5 -85t38.5 -151q0 -45 -13 -112q-1 -4 -1 -9q0 -24 32 -24q17 0 29.5 7t25.5 22l34 -53q-12 -16 -39.5 -27.5 t-53.5 -11.5q-37 0 -64 19.5t-27 55.5q0 14 2 21q11 54 11 103q0 98 -47 144.5t-129 55.5q-38 -167 -63.5 -249.5t-51 -116t-62.5 -33.5q-60 0 -83 95l68 15q1 -21 7 -34t10 -13q18 0 39.5 60.5t50.5 184t92 408.5l10 46q-3 3 -15 3q-28 0 -44 -24l-57 34q10 23 37 38t61 15 q35 0 58 -18.5t23 -46.5q0 -8 -1 -13l-63 -281q28 8 47.5 25.5t33 40t33.5 64.5q6 14 20 42q45 92 89.5 139.5t107.5 47.5q43 0 69.5 -27zM222 750z" />
         <glyph glyph-name="uni040C" unicode="Ќ" d="M621.5 787q26.5 -27 26.5 -70q0 -19 -6 -40l-67 14q4 13 4 26q0 34 -31 34q-32 0 -55.5 -19.5t-40 -47.5t-40.5 -80q-30 -65 -54.5 -105t-61.5 -69q72 -26 110.5 -85t38.5 -151q0 -45 -13 -112q-1 -4 -1 -9q0 -24 32 -24q17 0 29.5 7t25.5 22l34 -53q-12 -16 -39.5 -27.5 t-53.5 -11.5q-37 0 -64 19.5t-27 55.5q0 14 2 21q11 54 11 103q0 98 -47 144.5t-129 55.5q-38 -167 -63.5 -249.5t-51 -116t-62.5 -33.5q-60 0 -83 95l68 15q1 -21 7 -34t10 -13q18 0 39.5 60.5t50.5 184t92 408.5l10 46q-3 3 -15 3q-28 0 -44 -24l-57 34q10 23 37 38t61 15 q35 0 58 -18.5t23 -46.5q0 -8 -1 -13l-63 -281q28 8 47.5 25.5t33 40t33.5 64.5q6 14 20 42q45 92 89.5 139.5t107.5 47.5q43 0 69.5 -27zM222 750zM582 993l-174 -130l-37 48l175 130z" />
         <glyph glyph-name="uni041B" unicode="Л" d="M544 79q-26 -56 -48 -79t-53 -23q-35 0 -49 56.5t-14 178.5q0 63 8 315q2 33 4 97q-87 -228 -151 -369t-112 -209.5t-85 -68.5t-57.5 26.5t-32.5 83.5l68 14q7 -37 13 -48.5t9 -11.5q17 0 66 90.5t123 262.5t162 406h66q-16 -303 -16 -577l1 -136q0 -44 -3 -46 q12 6 39 66z" />
         <glyph glyph-name="uni041C" unicode="М" d="M486 95l66 -25q-19 -46 -38.5 -65t-48.5 -19q-26 0 -37.5 16.5t-11.5 52.5q0 41 13.5 111.5t45.5 206.5l33 149q-45 -106 -98 -233q-27 -64 -28 -67l-19 -47q-35 -85 -52 -120t-35.5 -52t-46.5 -17q-24 0 -36.5 25t-17 80.5t-4.5 158.5l1 189q1 15 1 47 q-45 -220 -68 -315.5t-45 -140t-52 -44.5q-32 0 -46.5 25.5t-12.5 71.5l67 -1q19 70 61.5 258t98.5 460h62q-1 -110 -5 -291q-5 -177 -5 -281q0 -160 15 -160q10 0 26.5 34.5t59.5 139.5q127 309 238 558h62l-71 -328q-93 -423 -89 -423q6 6 17 46z" />
         </font>
</defs>
</svg>
